<?xml version="1.0" encoding="UTF-8" standalone="no"?>
<!DOCTYPE svg PUBLIC "-//W3C//DTD SVG 1.1//EN"
 "http://www.w3.org/Graphics/SVG/1.1/DTD/svg11.dtd">
<!-- Generated by graphviz version 2.43.0 (0)
 -->
<!-- Title: source/flow/adaflo_wrapper_parameters.cpp Pages: 1 -->
<svg width="916pt" height="302pt"
 viewBox="0.00 0.00 915.50 302.00" xmlns="http://www.w3.org/2000/svg" xmlns:xlink="http://www.w3.org/1999/xlink">
<g id="graph0" class="graph" transform="scale(1 1) rotate(0) translate(4 298)">
<title>source/flow/adaflo_wrapper_parameters.cpp</title>
<!-- Node1 -->
<g id="Node000001" class="node">
<title>Node1</title>
<g id="a_Node000001"><a xlink:title=" ">
<polygon fill="#999999" stroke="#666666" points="638,-294 495,-294 495,-264 638,-264 638,-294"/>
<text text-anchor="start" x="503" y="-282" font-family="Helvetica,sans-Serif" font-size="10.00">source/flow/adaflo</text>
<text text-anchor="middle" x="566.5" y="-271" font-family="Helvetica,sans-Serif" font-size="10.00">_wrapper_parameters.cpp</text>
</a>
</g>
</g>
<!-- Node2 -->
<g id="Node000002" class="node">
<title>Node2</title>
<g id="a_Node000002"><a xlink:href="adaflo__wrapper__parameters_8hpp.html" target="_top" xlink:title=" ">
<polygon fill="white" stroke="#666666" points="638.5,-228 494.5,-228 494.5,-198 638.5,-198 638.5,-228"/>
<text text-anchor="start" x="502.5" y="-216" font-family="Helvetica,sans-Serif" font-size="10.00">meltpooldg/flow/adaflo</text>
<text text-anchor="middle" x="566.5" y="-205" font-family="Helvetica,sans-Serif" font-size="10.00">_wrapper_parameters.hpp</text>
</a>
</g>
</g>
<!-- Node1&#45;&gt;Node2 -->
<g id="edge1_Node000001_Node000002" class="edge">
<title>Node1&#45;&gt;Node2</title>
<g id="a_edge1_Node000001_Node000002"><a xlink:title=" ">
<path fill="none" stroke="#63b8ff" d="M566.5,-263.8C566.5,-256.34 566.5,-246.99 566.5,-238.41"/>
<polygon fill="#63b8ff" stroke="#63b8ff" points="570,-238.16 566.5,-228.16 563,-238.16 570,-238.16"/>
</a>
</g>
</g>
<!-- Node3 -->
<g id="Node000003" class="node">
<title>Node3</title>
<g id="a_Node000003"><a xlink:title=" ">
<polygon fill="#e0e0e0" stroke="#999999" points="619,-30 492,-30 492,0 619,0 619,-30"/>
<text text-anchor="start" x="500" y="-18" font-family="Helvetica,sans-Serif" font-size="10.00">deal.II/base/parameter</text>
<text text-anchor="middle" x="555.5" y="-7" font-family="Helvetica,sans-Serif" font-size="10.00">_handler.h</text>
</a>
</g>
</g>
<!-- Node2&#45;&gt;Node3 -->
<g id="edge2_Node000002_Node000003" class="edge">
<title>Node2&#45;&gt;Node3</title>
<g id="a_edge2_Node000002_Node000003"><a xlink:title=" ">
<path fill="none" stroke="#63b8ff" d="M555.02,-197.66C548.17,-188.16 540.12,-175.07 536.5,-162 524.89,-120.1 537.1,-69.42 546.6,-40.13"/>
<polygon fill="#63b8ff" stroke="#63b8ff" points="550.02,-40.95 549.93,-30.36 543.39,-38.69 550.02,-40.95"/>
</a>
</g>
</g>
<!-- Node4 -->
<g id="Node000004" class="node">
<title>Node4</title>
<g id="a_Node000004"><a xlink:href="finite__element__data_8hpp.html" target="_top" xlink:title=" ">
<polygon fill="white" stroke="#666666" points="489.5,-162 365.5,-162 365.5,-132 489.5,-132 489.5,-162"/>
<text text-anchor="start" x="373.5" y="-150" font-family="Helvetica,sans-Serif" font-size="10.00">meltpooldg/core/finite</text>
<text text-anchor="middle" x="427.5" y="-139" font-family="Helvetica,sans-Serif" font-size="10.00">_element_data.hpp</text>
</a>
</g>
</g>
<!-- Node2&#45;&gt;Node4 -->
<g id="edge3_Node000002_Node000004" class="edge">
<title>Node2&#45;&gt;Node4</title>
<g id="a_edge3_Node000002_Node000004"><a xlink:title=" ">
<path fill="none" stroke="#63b8ff" d="M536,-197.95C515.81,-188.66 489.13,-176.38 467.28,-166.32"/>
<polygon fill="#63b8ff" stroke="#63b8ff" points="468.48,-163.02 457.93,-162.01 465.55,-169.37 468.48,-163.02"/>
</a>
</g>
</g>
<!-- Node11 -->
<g id="Node000011" class="node">
<title>Node11</title>
<g id="a_Node000011"><a xlink:href="core_2material__data_8hpp.html" target="_top" xlink:title=" ">
<polygon fill="white" stroke="#666666" points="685.5,-162 545.5,-162 545.5,-132 685.5,-132 685.5,-162"/>
<text text-anchor="start" x="553.5" y="-150" font-family="Helvetica,sans-Serif" font-size="10.00">meltpooldg/core/material</text>
<text text-anchor="middle" x="615.5" y="-139" font-family="Helvetica,sans-Serif" font-size="10.00">_data.hpp</text>
</a>
</g>
</g>
<!-- Node2&#45;&gt;Node11 -->
<g id="edge12_Node000002_Node000011" class="edge">
<title>Node2&#45;&gt;Node11</title>
<g id="a_edge12_Node000002_Node000011"><a xlink:title=" ">
<path fill="none" stroke="#63b8ff" d="M577.37,-197.8C583.59,-189.68 591.52,-179.31 598.54,-170.15"/>
<polygon fill="#63b8ff" stroke="#63b8ff" points="601.36,-172.23 604.66,-162.16 595.8,-167.98 601.36,-172.23"/>
</a>
</g>
</g>
<!-- Node13 -->
<g id="Node000013" class="node">
<title>Node13</title>
<g id="a_Node000013"><a xlink:href="time__stepping__data_8hpp.html" target="_top" xlink:title=" ">
<polygon fill="white" stroke="#666666" points="907.5,-96 751.5,-96 751.5,-66 907.5,-66 907.5,-96"/>
<text text-anchor="start" x="759.5" y="-84" font-family="Helvetica,sans-Serif" font-size="10.00">meltpooldg/time_integration</text>
<text text-anchor="middle" x="829.5" y="-73" font-family="Helvetica,sans-Serif" font-size="10.00">/time_stepping_data.hpp</text>
</a>
</g>
</g>
<!-- Node2&#45;&gt;Node13 -->
<g id="edge17_Node000002_Node000013" class="edge">
<title>Node2&#45;&gt;Node13</title>
<g id="a_edge17_Node000002_Node000013"><a xlink:title=" ">
<path fill="none" stroke="#63b8ff" d="M607.29,-197.99C632.8,-188.76 666.09,-175.85 694.5,-162 731.9,-143.76 772.73,-118.81 799.58,-101.65"/>
<polygon fill="#63b8ff" stroke="#63b8ff" points="801.61,-104.5 808.12,-96.15 797.82,-98.62 801.61,-104.5"/>
</a>
</g>
</g>
<!-- Node4&#45;&gt;Node3 -->
<g id="edge4_Node000004_Node000003" class="edge">
<title>Node4&#45;&gt;Node3</title>
<g id="a_edge4_Node000004_Node000003"><a xlink:title=" ">
<path fill="none" stroke="#63b8ff" d="M440.49,-131.94C455.48,-115.82 480.95,-88.69 503.5,-66 513.02,-56.42 523.74,-46.05 532.97,-37.24"/>
<polygon fill="#63b8ff" stroke="#63b8ff" points="535.47,-39.69 540.31,-30.26 530.65,-34.62 535.47,-39.69"/>
</a>
</g>
</g>
<!-- Node5 -->
<g id="Node000005" class="node">
<title>Node5</title>
<g id="a_Node000005"><a xlink:href="enum_8hpp.html" target="_top" xlink:title=" ">
<polygon fill="white" stroke="#666666" points="451.5,-96 339.5,-96 339.5,-66 451.5,-66 451.5,-96"/>
<text text-anchor="start" x="347.5" y="-84" font-family="Helvetica,sans-Serif" font-size="10.00">meltpooldg/utilities</text>
<text text-anchor="middle" x="395.5" y="-73" font-family="Helvetica,sans-Serif" font-size="10.00">/enum.hpp</text>
</a>
</g>
</g>
<!-- Node4&#45;&gt;Node5 -->
<g id="edge5_Node000004_Node000005" class="edge">
<title>Node4&#45;&gt;Node5</title>
<g id="a_edge5_Node000004_Node000005"><a xlink:title=" ">
<path fill="none" stroke="#63b8ff" d="M420.4,-131.8C416.5,-124.01 411.58,-114.16 407.14,-105.28"/>
<polygon fill="#63b8ff" stroke="#63b8ff" points="410.18,-103.54 402.58,-96.16 403.92,-106.67 410.18,-103.54"/>
</a>
</g>
</g>
<!-- Node5&#45;&gt;Node3 -->
<g id="edge6_Node000005_Node000003" class="edge">
<title>Node5&#45;&gt;Node3</title>
<g id="a_edge6_Node000005_Node000003"><a xlink:title=" ">
<path fill="none" stroke="#63b8ff" d="M430.61,-65.95C454.27,-56.49 485.66,-43.93 511.06,-33.78"/>
<polygon fill="#63b8ff" stroke="#63b8ff" points="512.48,-36.98 520.47,-30.01 509.88,-30.48 512.48,-36.98"/>
</a>
</g>
</g>
<!-- Node6 -->
<g id="Node000006" class="node">
<title>Node6</title>
<g id="a_Node000006"><a xlink:title=" ">
<polygon fill="#e0e0e0" stroke="#999999" points="343,-24.5 218,-24.5 218,-5.5 343,-5.5 343,-24.5"/>
<text text-anchor="middle" x="280.5" y="-12.5" font-family="Helvetica,sans-Serif" font-size="10.00">deal.II/base/patterns.h</text>
</a>
</g>
</g>
<!-- Node5&#45;&gt;Node6 -->
<g id="edge7_Node000005_Node000006" class="edge">
<title>Node5&#45;&gt;Node6</title>
<g id="a_edge7_Node000005_Node000006"><a xlink:title=" ">
<path fill="none" stroke="#63b8ff" d="M370.26,-65.95C350.72,-55.08 323.82,-40.11 304.57,-29.4"/>
<polygon fill="#63b8ff" stroke="#63b8ff" points="306.24,-26.32 295.8,-24.52 302.84,-32.44 306.24,-26.32"/>
</a>
</g>
</g>
<!-- Node7 -->
<g id="Node000007" class="node">
<title>Node7</title>
<g id="a_Node000007"><a xlink:title=" ">
<polygon fill="#e0e0e0" stroke="#999999" points="473.5,-30 361.5,-30 361.5,0 473.5,0 473.5,-30"/>
<text text-anchor="start" x="369.5" y="-18" font-family="Helvetica,sans-Serif" font-size="10.00">meltpooldg/utilities</text>
<text text-anchor="middle" x="417.5" y="-7" font-family="Helvetica,sans-Serif" font-size="10.00">/better_enum.hpp</text>
</a>
</g>
</g>
<!-- Node5&#45;&gt;Node7 -->
<g id="edge8_Node000005_Node000007" class="edge">
<title>Node5&#45;&gt;Node7</title>
<g id="a_edge8_Node000005_Node000007"><a xlink:title=" ">
<path fill="none" stroke="#63b8ff" d="M400.38,-65.8C403,-58.17 406.3,-48.57 409.3,-39.84"/>
<polygon fill="#63b8ff" stroke="#63b8ff" points="412.69,-40.76 412.63,-30.16 406.07,-38.48 412.69,-40.76"/>
</a>
</g>
</g>
<!-- Node8 -->
<g id="Node000008" class="node">
<title>Node8</title>
<g id="a_Node000008"><a xlink:title=" ">
<polygon fill="#e0e0e0" stroke="#999999" points="125,-30 0,-30 0,0 125,0 125,-30"/>
<text text-anchor="start" x="8" y="-18" font-family="Helvetica,sans-Serif" font-size="10.00">boost/algorithm/string</text>
<text text-anchor="middle" x="62.5" y="-7" font-family="Helvetica,sans-Serif" font-size="10.00">/join.hpp</text>
</a>
</g>
</g>
<!-- Node5&#45;&gt;Node8 -->
<g id="edge9_Node000005_Node000008" class="edge">
<title>Node5&#45;&gt;Node8</title>
<g id="a_edge9_Node000005_Node000008"><a xlink:title=" ">
<path fill="none" stroke="#63b8ff" d="M339.49,-69.32C288.8,-59.64 211.8,-44.91 135.16,-30.12"/>
<polygon fill="#63b8ff" stroke="#63b8ff" points="135.81,-26.69 125.33,-28.23 134.48,-33.56 135.81,-26.69"/>
</a>
</g>
</g>
<!-- Node9 -->
<g id="Node000009" class="node">
<title>Node9</title>
<g id="a_Node000009"><a xlink:title=" ">
<polygon fill="#e0e0e0" stroke="#999999" points="199.5,-24.5 143.5,-24.5 143.5,-5.5 199.5,-5.5 199.5,-24.5"/>
<text text-anchor="middle" x="171.5" y="-12.5" font-family="Helvetica,sans-Serif" font-size="10.00">sstream</text>
</a>
</g>
</g>
<!-- Node5&#45;&gt;Node9 -->
<g id="edge10_Node000005_Node000009" class="edge">
<title>Node5&#45;&gt;Node9</title>
<g id="a_edge10_Node000005_Node000009"><a xlink:title=" ">
<path fill="none" stroke="#63b8ff" d="M339.43,-66.57C302.06,-57.24 252,-44.01 208.5,-30 206.59,-29.38 204.63,-28.73 202.66,-28.04"/>
<polygon fill="#63b8ff" stroke="#63b8ff" points="203.49,-24.62 192.89,-24.51 201.11,-31.2 203.49,-24.62"/>
</a>
</g>
</g>
<!-- Node10 -->
<g id="Node000010" class="node">
<title>Node10</title>
<g id="a_Node000010"><a xlink:title=" ">
<polygon fill="#e0e0e0" stroke="#999999" points="745.5,-24.5 701.5,-24.5 701.5,-5.5 745.5,-5.5 745.5,-24.5"/>
<text text-anchor="middle" x="723.5" y="-12.5" font-family="Helvetica,sans-Serif" font-size="10.00">string</text>
</a>
</g>
</g>
<!-- Node5&#45;&gt;Node10 -->
<g id="edge11_Node000005_Node000010" class="edge">
<title>Node5&#45;&gt;Node10</title>
<g id="a_edge11_Node000005_Node000010"><a xlink:title=" ">
<path fill="none" stroke="#63b8ff" d="M451.51,-69.07C520.61,-55.59 635.76,-33.12 691.42,-22.26"/>
<polygon fill="#63b8ff" stroke="#63b8ff" points="692.27,-25.66 701.42,-20.31 690.93,-18.79 692.27,-25.66"/>
</a>
</g>
</g>
<!-- Node11&#45;&gt;Node3 -->
<g id="edge13_Node000011_Node000003" class="edge">
<title>Node11&#45;&gt;Node3</title>
<g id="a_edge13_Node000011_Node000003"><a xlink:title=" ">
<path fill="none" stroke="#63b8ff" d="M600.99,-131.94C592.1,-122.55 581.18,-109.48 574.5,-96 565.85,-78.54 561.02,-56.95 558.4,-40.61"/>
<polygon fill="#63b8ff" stroke="#63b8ff" points="561.8,-39.65 556.92,-30.24 554.87,-40.64 561.8,-39.65"/>
</a>
</g>
</g>
<!-- Node11&#45;&gt;Node5 -->
<g id="edge14_Node000011_Node000005" class="edge">
<title>Node11&#45;&gt;Node5</title>
<g id="a_edge14_Node000011_Node000005"><a xlink:title=" ">
<path fill="none" stroke="#63b8ff" d="M567.22,-131.95C533.69,-122.2 488.85,-109.16 453.4,-98.84"/>
<polygon fill="#63b8ff" stroke="#63b8ff" points="454.25,-95.44 443.67,-96.01 452.29,-102.17 454.25,-95.44"/>
</a>
</g>
</g>
<!-- Node11&#45;&gt;Node10 -->
<g id="edge16_Node000011_Node000010" class="edge">
<title>Node11&#45;&gt;Node10</title>
<g id="a_edge16_Node000011_Node000010"><a xlink:title=" ">
<path fill="none" stroke="#63b8ff" d="M656.04,-131.81C673.36,-123.81 692.34,-112.13 704.5,-96 717.97,-78.14 722.07,-52.18 723.22,-34.72"/>
<polygon fill="#63b8ff" stroke="#63b8ff" points="726.72,-34.77 723.62,-24.64 719.73,-34.5 726.72,-34.77"/>
</a>
</g>
</g>
<!-- Node12 -->
<g id="Node000012" class="node">
<title>Node12</title>
<g id="a_Node000012"><a xlink:href="numbers_8hpp.html" target="_top" xlink:title=" ">
<polygon fill="white" stroke="#666666" points="695.5,-96 583.5,-96 583.5,-66 695.5,-66 695.5,-96"/>
<text text-anchor="start" x="591.5" y="-84" font-family="Helvetica,sans-Serif" font-size="10.00">meltpooldg/utilities</text>
<text text-anchor="middle" x="639.5" y="-73" font-family="Helvetica,sans-Serif" font-size="10.00">/numbers.hpp</text>
</a>
</g>
</g>
<!-- Node11&#45;&gt;Node12 -->
<g id="edge15_Node000011_Node000012" class="edge">
<title>Node11&#45;&gt;Node12</title>
<g id="a_edge15_Node000011_Node000012"><a xlink:title=" ">
<path fill="none" stroke="#63b8ff" d="M620.83,-131.8C623.72,-124.09 627.36,-114.37 630.67,-105.56"/>
<polygon fill="#63b8ff" stroke="#63b8ff" points="633.95,-106.76 634.19,-96.16 627.4,-104.3 633.95,-106.76"/>
</a>
</g>
</g>
<!-- Node13&#45;&gt;Node3 -->
<g id="edge18_Node000013_Node000003" class="edge">
<title>Node13&#45;&gt;Node3</title>
<g id="a_edge18_Node000013_Node000003"><a xlink:title=" ">
<path fill="none" stroke="#63b8ff" d="M769.37,-65.95C726.9,-56.03 669.85,-42.71 625.36,-32.32"/>
<polygon fill="#63b8ff" stroke="#63b8ff" points="626.02,-28.88 615.49,-30.01 624.43,-35.7 626.02,-28.88"/>
</a>
</g>
</g>
<!-- Node13&#45;&gt;Node10 -->
<g id="edge19_Node000013_Node000010" class="edge">
<title>Node13&#45;&gt;Node10</title>
<g id="a_edge19_Node000013_Node000010"><a xlink:title=" ">
<path fill="none" stroke="#63b8ff" d="M806.24,-65.95C788.39,-55.18 763.88,-40.38 746.17,-29.69"/>
<polygon fill="#63b8ff" stroke="#63b8ff" points="747.98,-26.69 737.61,-24.52 744.36,-32.68 747.98,-26.69"/>
</a>
</g>
</g>
</g>
</svg>
