<?xml version="1.0" encoding="UTF-8" standalone="no"?>
<!DOCTYPE svg PUBLIC "-//W3C//DTD SVG 1.1//EN"
 "http://www.w3.org/Graphics/SVG/1.1/DTD/svg11.dtd">
<!-- Generated by graphviz version 2.43.0 (0)
 -->
<!-- Title: applications/mp&#45;advec&#45;diff/advection_diffusion_case.hpp Pages: 1 -->
<svg width="630pt" height="203pt"
 viewBox="0.00 0.00 630.00 203.00" xmlns="http://www.w3.org/2000/svg" xmlns:xlink="http://www.w3.org/1999/xlink">
<g id="graph0" class="graph" transform="scale(1 1) rotate(0) translate(4 199)">
<title>applications/mp&#45;advec&#45;diff/advection_diffusion_case.hpp</title>
<!-- Node1 -->
<g id="Node000001" class="node">
<title>Node1</title>
<g id="a_Node000001"><a xlink:title=" ">
<polygon fill="#999999" stroke="#666666" points="331,-195 197,-195 197,-154 331,-154 331,-195"/>
<text text-anchor="start" x="205" y="-183" font-family="Helvetica,sans-Serif" font-size="10.00">applications/mp&#45;advec</text>
<text text-anchor="start" x="205" y="-172" font-family="Helvetica,sans-Serif" font-size="10.00">&#45;diff/advection_diffusion</text>
<text text-anchor="middle" x="264" y="-161" font-family="Helvetica,sans-Serif" font-size="10.00">_case.hpp</text>
</a>
</g>
</g>
<!-- Node2 -->
<g id="Node000002" class="node">
<title>Node2</title>
<g id="a_Node000002"><a xlink:href="advection__diffusion__application_8cpp.html" target="_top" xlink:title=" ">
<polygon fill="white" stroke="#666666" points="134,-41 0,-41 0,0 134,0 134,-41"/>
<text text-anchor="start" x="8" y="-29" font-family="Helvetica,sans-Serif" font-size="10.00">applications/mp&#45;advec</text>
<text text-anchor="start" x="8" y="-18" font-family="Helvetica,sans-Serif" font-size="10.00">&#45;diff/advection_diffusion</text>
<text text-anchor="middle" x="67" y="-7" font-family="Helvetica,sans-Serif" font-size="10.00">_application.cpp</text>
</a>
</g>
</g>
<!-- Node1&#45;&gt;Node2 -->
<g id="edge1_Node000001_Node000002" class="edge">
<title>Node1&#45;&gt;Node2</title>
<g id="a_edge1_Node000001_Node000002"><a xlink:title=" ">
<path fill="none" stroke="#63b8ff" d="M186.75,-164.61C129.11,-156.2 57.28,-141.34 39,-118 21.36,-95.48 37.81,-62.21 51.92,-41.21"/>
<polygon fill="#63b8ff" stroke="#63b8ff" points="186.58,-168.12 196.97,-166.06 187.56,-161.19 186.58,-168.12"/>
</a>
</g>
</g>
<!-- Node3 -->
<g id="Node000003" class="node">
<title>Node3</title>
<g id="a_Node000003"><a xlink:href="advection__diffusion__application_8hpp.html" target="_top" xlink:title=" ">
<polygon fill="white" stroke="#666666" points="182,-118 48,-118 48,-77 182,-77 182,-118"/>
<text text-anchor="start" x="56" y="-106" font-family="Helvetica,sans-Serif" font-size="10.00">applications/mp&#45;advec</text>
<text text-anchor="start" x="56" y="-95" font-family="Helvetica,sans-Serif" font-size="10.00">&#45;diff/advection_diffusion</text>
<text text-anchor="middle" x="115" y="-84" font-family="Helvetica,sans-Serif" font-size="10.00">_application.hpp</text>
</a>
</g>
</g>
<!-- Node1&#45;&gt;Node3 -->
<g id="edge2_Node000001_Node000003" class="edge">
<title>Node1&#45;&gt;Node3</title>
<g id="a_edge2_Node000001_Node000003"><a xlink:title=" ">
<path fill="none" stroke="#63b8ff" d="M216.22,-149.45C196.06,-139.3 172.9,-127.64 153.82,-118.04"/>
<polygon fill="#63b8ff" stroke="#63b8ff" points="214.74,-152.62 225.24,-153.99 217.88,-146.37 214.74,-152.62"/>
</a>
</g>
</g>
<!-- Node4 -->
<g id="Node000004" class="node">
<title>Node4</title>
<g id="a_Node000004"><a xlink:href="advection__diffusion_8hpp.html" target="_top" xlink:title=" ">
<polygon fill="white" stroke="#666666" points="328,-118 200,-118 200,-77 328,-77 328,-118"/>
<text text-anchor="start" x="208" y="-106" font-family="Helvetica,sans-Serif" font-size="10.00">applications/mp&#45;advec</text>
<text text-anchor="start" x="208" y="-95" font-family="Helvetica,sans-Serif" font-size="10.00">&#45;diff/cases/advection</text>
<text text-anchor="middle" x="264" y="-84" font-family="Helvetica,sans-Serif" font-size="10.00">_diffusion.hpp</text>
</a>
</g>
</g>
<!-- Node1&#45;&gt;Node4 -->
<g id="edge4_Node000001_Node000004" class="edge">
<title>Node1&#45;&gt;Node4</title>
<g id="a_edge4_Node000001_Node000004"><a xlink:title=" ">
<path fill="none" stroke="#63b8ff" d="M264,-143.69C264,-135.08 264,-125.9 264,-118.07"/>
<polygon fill="#63b8ff" stroke="#63b8ff" points="260.5,-143.79 264,-153.79 267.5,-143.79 260.5,-143.79"/>
</a>
</g>
</g>
<!-- Node6 -->
<g id="Node000006" class="node">
<title>Node6</title>
<g id="a_Node000006"><a xlink:href="advection__diffusion__DG_8hpp.html" target="_top" xlink:title=" ">
<polygon fill="white" stroke="#666666" points="474,-118 346,-118 346,-77 474,-77 474,-118"/>
<text text-anchor="start" x="354" y="-106" font-family="Helvetica,sans-Serif" font-size="10.00">applications/mp&#45;advec</text>
<text text-anchor="start" x="354" y="-95" font-family="Helvetica,sans-Serif" font-size="10.00">&#45;diff/cases/advection</text>
<text text-anchor="middle" x="410" y="-84" font-family="Helvetica,sans-Serif" font-size="10.00">_diffusion_DG.hpp</text>
</a>
</g>
</g>
<!-- Node1&#45;&gt;Node6 -->
<g id="edge6_Node000001_Node000006" class="edge">
<title>Node1&#45;&gt;Node6</title>
<g id="a_edge6_Node000001_Node000006"><a xlink:title=" ">
<path fill="none" stroke="#63b8ff" d="M311.09,-149.31C330.77,-139.2 353.35,-127.6 371.96,-118.04"/>
<polygon fill="#63b8ff" stroke="#63b8ff" points="309.27,-146.31 301.98,-153.99 312.47,-152.53 309.27,-146.31"/>
</a>
</g>
</g>
<!-- Node8 -->
<g id="Node000008" class="node">
<title>Node8</title>
<g id="a_Node000008"><a xlink:href="mp-advec-diff_2unit__tests_2detailed__parameters_8cc.html" target="_top" xlink:title=" ">
<polygon fill="white" stroke="#666666" points="622,-118 492,-118 492,-77 622,-77 622,-118"/>
<text text-anchor="start" x="500" y="-106" font-family="Helvetica,sans-Serif" font-size="10.00">applications/mp&#45;advec</text>
<text text-anchor="start" x="500" y="-95" font-family="Helvetica,sans-Serif" font-size="10.00">&#45;diff/unit_tests/detailed</text>
<text text-anchor="middle" x="557" y="-84" font-family="Helvetica,sans-Serif" font-size="10.00">_parameters.cc</text>
</a>
</g>
</g>
<!-- Node1&#45;&gt;Node8 -->
<g id="edge8_Node000001_Node000008" class="edge">
<title>Node1&#45;&gt;Node8</title>
<g id="a_edge8_Node000001_Node000008"><a xlink:title=" ">
<path fill="none" stroke="#63b8ff" d="M341.02,-154.17C383.01,-143.58 435.89,-130.18 483,-118 485.83,-117.27 488.72,-116.52 491.64,-115.76"/>
<polygon fill="#63b8ff" stroke="#63b8ff" points="339.98,-150.82 331.14,-156.66 341.69,-157.61 339.98,-150.82"/>
</a>
</g>
</g>
<!-- Node3&#45;&gt;Node2 -->
<g id="edge3_Node000003_Node000002" class="edge">
<title>Node3&#45;&gt;Node2</title>
<g id="a_edge3_Node000003_Node000002"><a xlink:title=" ">
<path fill="none" stroke="#63b8ff" d="M96.83,-68.11C91.06,-59.09 84.81,-49.33 79.53,-41.07"/>
<polygon fill="#63b8ff" stroke="#63b8ff" points="94.05,-70.26 102.39,-76.79 99.95,-66.49 94.05,-70.26"/>
</a>
</g>
</g>
<!-- Node5 -->
<g id="Node000005" class="node">
<title>Node5</title>
<g id="a_Node000005"><a xlink:href="advection__diffusion_8cpp.html" target="_top" xlink:title=" ">
<polygon fill="white" stroke="#666666" points="328,-41 200,-41 200,0 328,0 328,-41"/>
<text text-anchor="start" x="208" y="-29" font-family="Helvetica,sans-Serif" font-size="10.00">applications/mp&#45;advec</text>
<text text-anchor="start" x="208" y="-18" font-family="Helvetica,sans-Serif" font-size="10.00">&#45;diff/cases/advection</text>
<text text-anchor="middle" x="264" y="-7" font-family="Helvetica,sans-Serif" font-size="10.00">_diffusion.cpp</text>
</a>
</g>
</g>
<!-- Node4&#45;&gt;Node5 -->
<g id="edge5_Node000004_Node000005" class="edge">
<title>Node4&#45;&gt;Node5</title>
<g id="a_edge5_Node000004_Node000005"><a xlink:title=" ">
<path fill="none" stroke="#63b8ff" d="M264,-66.69C264,-58.08 264,-48.9 264,-41.07"/>
<polygon fill="#63b8ff" stroke="#63b8ff" points="260.5,-66.79 264,-76.79 267.5,-66.79 260.5,-66.79"/>
</a>
</g>
</g>
<!-- Node7 -->
<g id="Node000007" class="node">
<title>Node7</title>
<g id="a_Node000007"><a xlink:href="advection__diffusion__DG_8cpp.html" target="_top" xlink:title=" ">
<polygon fill="white" stroke="#666666" points="474,-41 346,-41 346,0 474,0 474,-41"/>
<text text-anchor="start" x="354" y="-29" font-family="Helvetica,sans-Serif" font-size="10.00">applications/mp&#45;advec</text>
<text text-anchor="start" x="354" y="-18" font-family="Helvetica,sans-Serif" font-size="10.00">&#45;diff/cases/advection</text>
<text text-anchor="middle" x="410" y="-7" font-family="Helvetica,sans-Serif" font-size="10.00">_diffusion_DG.cpp</text>
</a>
</g>
</g>
<!-- Node6&#45;&gt;Node7 -->
<g id="edge7_Node000006_Node000007" class="edge">
<title>Node6&#45;&gt;Node7</title>
<g id="a_edge7_Node000006_Node000007"><a xlink:title=" ">
<path fill="none" stroke="#63b8ff" d="M410,-66.69C410,-58.08 410,-48.9 410,-41.07"/>
<polygon fill="#63b8ff" stroke="#63b8ff" points="406.5,-66.79 410,-76.79 413.5,-66.79 406.5,-66.79"/>
</a>
</g>
</g>
</g>
</svg>
