<?xml version="1.0" encoding="UTF-8" standalone="no"?>
<!DOCTYPE svg PUBLIC "-//W3C//DTD SVG 1.1//EN"
 "http://www.w3.org/Graphics/SVG/1.1/DTD/svg11.dtd">
<!-- Generated by graphviz version 2.43.0 (0)
 -->
<!-- Title: include/meltpooldg/level_set/advection_diffusion_operation_base.hpp Pages: 1 -->
<!--zoomable 401 -->

<svg id="main" version="1.1" xmlns="http://www.w3.org/2000/svg" xmlns:xlink="http://www.w3.org/1999/xlink" xml:space="preserve" onload="init(evt)">
<style type="text/css"><![CDATA[
.node, .edge {opacity: 0.7;}
.node.selected, .edge.selected {opacity: 1;}
.edge:hover path { stroke: red; }
.edge:hover polygon { stroke: red; fill: red; }
]]></style>

<defs>
  <circle id="rim" cx="0" cy="0" r="7"/>
  <circle id="rim2" cx="0" cy="0" r="3.5"/>
  <g id="zoomPlus">
    <use xlink:href="#rim" fill="#404040"><set attributeName="fill" to="#808080" begin="zoomplus.mouseover" end="zoomplus.mouseout"/></use>
    <path d="M-4,0h8M0,-4v8" fill="none" stroke="white" stroke-width="1.5" pointer-events="none"/>
  </g>
  <g id="zoomMin">
    <use xlink:href="#rim" fill="#404040"><set attributeName="fill" to="#808080" begin="zoomminus.mouseover" end="zoomminus.mouseout"/></use>
    <path d="M-4,0h8" fill="none" stroke="white" stroke-width="1.5" pointer-events="none"/>
  </g>
  <g id="arrowUp" transform="translate(30 24)">
    <use xlink:href="#rim"/>
    <path pointer-events="none" fill="none" stroke="white" stroke-width="1.5" d="M0,-3.0v7 M-2.5,-0.5L0,-3.0L2.5,-0.5"/>
  </g>
  <g id="arrowRight" transform="rotate(90) translate(36 -43)">
    <use xlink:href="#rim"/>
    <path pointer-events="none" fill="none" stroke="white" stroke-width="1.5" d="M0,-3.0v7 M-2.5,-0.5L0,-3.0L2.5,-0.5"/>
  </g>
  <g id="arrowDown" transform="rotate(180) translate(-30 -48)">
    <use xlink:href="#rim"/>
    <path pointer-events="none" fill="none" stroke="white" stroke-width="1.5" d="M0,-3.0v7 M-2.5,-0.5L0,-3.0L2.5,-0.5"/>
  </g>
  <g id="arrowLeft" transform="rotate(270) translate(-36 17)">
    <use xlink:href="#rim"/>
    <path pointer-events="none" fill="none" stroke="white" stroke-width="1.5" d="M0,-3.0v7 M-2.5,-0.5L0,-3.0L2.5,-0.5"/>
  </g>
  <g id="resetDef">
    <use xlink:href="#rim2" fill="#404040"><set attributeName="fill" to="#808080" begin="reset.mouseover" end="reset.mouseout"/></use>
  </g>
</defs>
<script type="application/ecmascript">
var viewWidth = 1835;
var viewHeight = 401;
var sectionId = 'dynsection-0';
</script>
<script type="application/ecmascript" xlink:href="svg.min.js"/>
<svg id="graph" class="graph">
<g id="viewport">
<title>include/meltpooldg/level_set/advection_diffusion_operation_base.hpp</title>
<!-- Node1 -->
<g id="Node000001" class="node">
<title>Node1</title>
<g id="a_Node000001"><a xlink:title=" ">
<polygon fill="#999999" stroke="#666666" points="623,-393 507,-393 507,-341 623,-341 623,-393"/>
<text text-anchor="start" x="515" y="-381" font-family="Helvetica,sans-Serif" font-size="10.00">include/meltpooldg</text>
<text text-anchor="start" x="515" y="-370" font-family="Helvetica,sans-Serif" font-size="10.00">/level_set/advection</text>
<text text-anchor="start" x="515" y="-359" font-family="Helvetica,sans-Serif" font-size="10.00">_diffusion_operation</text>
<text text-anchor="middle" x="565" y="-348" font-family="Helvetica,sans-Serif" font-size="10.00">_base.hpp</text>
</a>
</g>
</g>
<!-- Node2 -->
<g id="Node000002" class="node">
<title>Node2</title>
<g id="a_Node000002"><a xlink:title=" ">
<polygon fill="#e0e0e0" stroke="#999999" points="400,-299.5 282,-299.5 282,-269.5 400,-269.5 400,-299.5"/>
<text text-anchor="start" x="290" y="-287.5" font-family="Helvetica,sans-Serif" font-size="10.00">deal.II/lac/la_parallel</text>
<text text-anchor="middle" x="341" y="-276.5" font-family="Helvetica,sans-Serif" font-size="10.00">_block_vector.h</text>
</a>
</g>
</g>
<!-- Node1&#45;&gt;Node2 -->
<g id="edge1_Node000001_Node000002" class="edge">
<title>Node1&#45;&gt;Node2</title>
<g id="a_edge1_Node000001_Node000002"><a xlink:title=" ">
<path fill="none" stroke="#63b8ff" d="M506.73,-345.06C470.51,-332.04 424.46,-315.49 390.1,-303.15"/>
<polygon fill="#63b8ff" stroke="#63b8ff" points="390.89,-299.71 380.29,-299.62 388.52,-306.3 390.89,-299.71"/>
</a>
</g>
</g>
<!-- Node3 -->
<g id="Node000003" class="node">
<title>Node3</title>
<g id="a_Node000003"><a xlink:href="periodic__boundary__conditions_8hpp.html" target="_top" xlink:title=" ">
<polygon fill="white" stroke="#666666" points="562,-299.5 418,-299.5 418,-269.5 562,-269.5 562,-299.5"/>
<text text-anchor="start" x="426" y="-287.5" font-family="Helvetica,sans-Serif" font-size="10.00">meltpooldg/core/periodic</text>
<text text-anchor="middle" x="490" y="-276.5" font-family="Helvetica,sans-Serif" font-size="10.00">_boundary_conditions.hpp</text>
</a>
</g>
</g>
<!-- Node1&#45;&gt;Node3 -->
<g id="edge2_Node000001_Node000003" class="edge">
<title>Node1&#45;&gt;Node3</title>
<g id="a_edge2_Node000001_Node000003"><a xlink:title=" ">
<path fill="none" stroke="#63b8ff" d="M541.68,-340.97C531.67,-330.23 520.09,-317.8 510.43,-307.42"/>
<polygon fill="#63b8ff" stroke="#63b8ff" points="512.85,-304.89 503.47,-299.96 507.73,-309.66 512.85,-304.89"/>
</a>
</g>
</g>
<!-- Node7 -->
<g id="Node000007" class="node">
<title>Node7</title>
<g id="a_Node000007"><a xlink:href="advection__diffusion__data_8hpp.html" target="_top" xlink:title=" ">
<polygon fill="white" stroke="#666666" points="699.5,-305 580.5,-305 580.5,-264 699.5,-264 699.5,-305"/>
<text text-anchor="start" x="588.5" y="-293" font-family="Helvetica,sans-Serif" font-size="10.00">meltpooldg/level_set</text>
<text text-anchor="start" x="588.5" y="-282" font-family="Helvetica,sans-Serif" font-size="10.00">/advection_diffusion</text>
<text text-anchor="middle" x="640" y="-271" font-family="Helvetica,sans-Serif" font-size="10.00">_data.hpp</text>
</a>
</g>
</g>
<!-- Node1&#45;&gt;Node7 -->
<g id="edge6_Node000001_Node000007" class="edge">
<title>Node1&#45;&gt;Node7</title>
<g id="a_edge6_Node000001_Node000007"><a xlink:title=" ">
<path fill="none" stroke="#63b8ff" d="M588.32,-340.97C596.72,-331.96 606.23,-321.75 614.78,-312.57"/>
<polygon fill="#63b8ff" stroke="#63b8ff" points="617.44,-314.85 621.7,-305.15 612.32,-310.08 617.44,-314.85"/>
</a>
</g>
</g>
<!-- Node20 -->
<g id="Node000020" class="node">
<title>Node20</title>
<g id="a_Node000020"><a xlink:href="generic__data__out_8hpp.html" target="_top" xlink:title=" ">
<polygon fill="white" stroke="#666666" points="1203,-299.5 1049,-299.5 1049,-269.5 1203,-269.5 1203,-299.5"/>
<text text-anchor="start" x="1057" y="-287.5" font-family="Helvetica,sans-Serif" font-size="10.00">meltpooldg/post_processing</text>
<text text-anchor="middle" x="1126" y="-276.5" font-family="Helvetica,sans-Serif" font-size="10.00">/generic_data_out.hpp</text>
</a>
</g>
</g>
<!-- Node1&#45;&gt;Node20 -->
<g id="edge32_Node000001_Node000020" class="edge">
<title>Node1&#45;&gt;Node20</title>
<g id="a_edge32_Node000001_Node000020"><a xlink:title=" ">
<path fill="none" stroke="#63b8ff" d="M623.19,-357.65C721.95,-343.48 922.93,-314.64 1038.65,-298.03"/>
<polygon fill="#63b8ff" stroke="#63b8ff" points="1039.48,-301.45 1048.89,-296.57 1038.49,-294.52 1039.48,-301.45"/>
</a>
</g>
</g>
<!-- Node4 -->
<g id="Node000004" class="node">
<title>Node4</title>
<g id="a_Node000004"><a xlink:title=" ">
<polygon fill="#e0e0e0" stroke="#999999" points="138,-222.5 0,-222.5 0,-203.5 138,-203.5 138,-222.5"/>
<text text-anchor="middle" x="69" y="-210.5" font-family="Helvetica,sans-Serif" font-size="10.00">deal.II/base/exceptions.h</text>
</a>
</g>
</g>
<!-- Node3&#45;&gt;Node4 -->
<g id="edge3_Node000003_Node000004" class="edge">
<title>Node3&#45;&gt;Node4</title>
<g id="a_edge3_Node000003_Node000004"><a xlink:title=" ">
<path fill="none" stroke="#63b8ff" d="M434.82,-269.44C426.21,-267.47 417.39,-265.58 409,-264 293.5,-242.22 263.09,-246.39 147,-228 139.81,-226.86 132.25,-225.59 124.8,-224.3"/>
<polygon fill="#63b8ff" stroke="#63b8ff" points="125.18,-220.82 114.73,-222.53 123.97,-227.71 125.18,-220.82"/>
</a>
</g>
</g>
<!-- Node5 -->
<g id="Node000005" class="node">
<title>Node5</title>
<g id="a_Node000005"><a xlink:title=" ">
<polygon fill="#e0e0e0" stroke="#999999" points="268,-222.5 156,-222.5 156,-203.5 268,-203.5 268,-222.5"/>
<text text-anchor="middle" x="212" y="-210.5" font-family="Helvetica,sans-Serif" font-size="10.00">deal.II/base/types.h</text>
</a>
</g>
</g>
<!-- Node3&#45;&gt;Node5 -->
<g id="edge4_Node000003_Node000005" class="edge">
<title>Node3&#45;&gt;Node5</title>
<g id="a_edge4_Node000003_Node000005"><a xlink:title=" ">
<path fill="none" stroke="#63b8ff" d="M433.74,-269.44C381.31,-256.33 304.17,-237.04 256.07,-225.02"/>
<polygon fill="#63b8ff" stroke="#63b8ff" points="256.82,-221.6 246.27,-222.57 255.12,-228.39 256.82,-221.6"/>
</a>
</g>
</g>
<!-- Node6 -->
<g id="Node000006" class="node">
<title>Node6</title>
<g id="a_Node000006"><a xlink:title=" ">
<polygon fill="#e0e0e0" stroke="#999999" points="528.5,-222.5 481.5,-222.5 481.5,-203.5 528.5,-203.5 528.5,-222.5"/>
<text text-anchor="middle" x="505" y="-210.5" font-family="Helvetica,sans-Serif" font-size="10.00">vector</text>
</a>
</g>
</g>
<!-- Node3&#45;&gt;Node6 -->
<g id="edge5_Node000003_Node000006" class="edge">
<title>Node3&#45;&gt;Node6</title>
<g id="a_edge5_Node000003_Node000006"><a xlink:title=" ">
<path fill="none" stroke="#63b8ff" d="M493.04,-269.44C495.32,-258.86 498.47,-244.25 500.97,-232.69"/>
<polygon fill="#63b8ff" stroke="#63b8ff" points="504.42,-233.28 503.11,-222.77 497.58,-231.8 504.42,-233.28"/>
</a>
</g>
</g>
<!-- Node8 -->
<g id="Node000008" class="node">
<title>Node8</title>
<g id="a_Node000008"><a xlink:title=" ">
<polygon fill="#e0e0e0" stroke="#999999" points="491.5,-30 364.5,-30 364.5,0 491.5,0 491.5,-30"/>
<text text-anchor="start" x="372.5" y="-18" font-family="Helvetica,sans-Serif" font-size="10.00">deal.II/base/parameter</text>
<text text-anchor="middle" x="428" y="-7" font-family="Helvetica,sans-Serif" font-size="10.00">_handler.h</text>
</a>
</g>
</g>
<!-- Node7&#45;&gt;Node8 -->
<g id="edge7_Node000007_Node000008" class="edge">
<title>Node7&#45;&gt;Node8</title>
<g id="a_edge7_Node000007_Node000008"><a xlink:title=" ">
<path fill="none" stroke="#63b8ff" d="M580.19,-266.5C577.08,-265.64 574.01,-264.81 571,-264 452.73,-232.19 376.38,-267.99 315,-162 286.73,-113.19 350.73,-62.49 393.5,-35.57"/>
<polygon fill="#63b8ff" stroke="#63b8ff" points="395.57,-38.41 402.26,-30.19 391.91,-32.44 395.57,-38.41"/>
</a>
</g>
</g>
<!-- Node9 -->
<g id="Node000009" class="node">
<title>Node9</title>
<g id="a_Node000009"><a xlink:href="finite__element__data_8hpp.html" target="_top" xlink:title=" ">
<polygon fill="white" stroke="#666666" points="448,-162 324,-162 324,-132 448,-132 448,-162"/>
<text text-anchor="start" x="332" y="-150" font-family="Helvetica,sans-Serif" font-size="10.00">meltpooldg/core/finite</text>
<text text-anchor="middle" x="386" y="-139" font-family="Helvetica,sans-Serif" font-size="10.00">_element_data.hpp</text>
</a>
</g>
</g>
<!-- Node7&#45;&gt;Node9 -->
<g id="edge8_Node000007_Node000009" class="edge">
<title>Node7&#45;&gt;Node9</title>
<g id="a_edge8_Node000007_Node000009"><a xlink:title=" ">
<path fill="none" stroke="#63b8ff" d="M580.47,-266.76C540.06,-254.85 490.7,-239.06 472,-228 445.67,-212.42 420.66,-187.63 404.47,-169.77"/>
<polygon fill="#63b8ff" stroke="#63b8ff" points="406.94,-167.27 397.68,-162.11 401.7,-171.92 406.94,-167.27"/>
</a>
</g>
</g>
<!-- Node10 -->
<g id="Node000010" class="node">
<title>Node10</title>
<g id="a_Node000010"><a xlink:href="enum_8hpp.html" target="_top" xlink:title=" ">
<polygon fill="white" stroke="#666666" points="772,-96 660,-96 660,-66 772,-66 772,-96"/>
<text text-anchor="start" x="668" y="-84" font-family="Helvetica,sans-Serif" font-size="10.00">meltpooldg/utilities</text>
<text text-anchor="middle" x="716" y="-73" font-family="Helvetica,sans-Serif" font-size="10.00">/enum.hpp</text>
</a>
</g>
</g>
<!-- Node7&#45;&gt;Node10 -->
<g id="edge30_Node000007_Node000010" class="edge">
<title>Node7&#45;&gt;Node10</title>
<g id="a_edge30_Node000007_Node000010"><a xlink:title=" ">
<path fill="none" stroke="#63b8ff" d="M645.6,-263.97C650.73,-246.52 658.77,-220.35 667,-198 678.98,-165.47 694.91,-128.75 705.31,-105.49"/>
<polygon fill="#63b8ff" stroke="#63b8ff" points="708.62,-106.67 709.53,-96.11 702.23,-103.8 708.62,-106.67"/>
</a>
</g>
</g>
<!-- Node15 -->
<g id="Node000015" class="node">
<title>Node15</title>
<g id="a_Node000015"><a xlink:title=" ">
<polygon fill="#e0e0e0" stroke="#999999" points="1051,-24.5 1007,-24.5 1007,-5.5 1051,-5.5 1051,-24.5"/>
<text text-anchor="middle" x="1029" y="-12.5" font-family="Helvetica,sans-Serif" font-size="10.00">string</text>
</a>
</g>
</g>
<!-- Node7&#45;&gt;Node15 -->
<g id="edge31_Node000007_Node000015" class="edge">
<title>Node7&#45;&gt;Node15</title>
<g id="a_edge31_Node000007_Node000015"><a xlink:title=" ">
<path fill="none" stroke="#63b8ff" d="M699.71,-272.95C746.38,-263.76 812.44,-248.65 868,-228 898.18,-216.78 976.18,-186.57 997,-162 1028.09,-125.31 1030.94,-65.23 1030.14,-34.85"/>
<polygon fill="#63b8ff" stroke="#63b8ff" points="1033.63,-34.61 1029.71,-24.77 1026.64,-34.91 1033.63,-34.61"/>
</a>
</g>
</g>
<!-- Node16 -->
<g id="Node000016" class="node">
<title>Node16</title>
<g id="a_Node000016"><a xlink:href="linear__solver__data_8hpp.html" target="_top" xlink:title=" ">
<polygon fill="white" stroke="#666666" points="965.5,-162 820.5,-162 820.5,-132 965.5,-132 965.5,-162"/>
<text text-anchor="start" x="828.5" y="-150" font-family="Helvetica,sans-Serif" font-size="10.00">meltpooldg/linear_algebra</text>
<text text-anchor="middle" x="893" y="-139" font-family="Helvetica,sans-Serif" font-size="10.00">/linear_solver_data.hpp</text>
</a>
</g>
</g>
<!-- Node7&#45;&gt;Node16 -->
<g id="edge17_Node000007_Node000016" class="edge">
<title>Node7&#45;&gt;Node16</title>
<g id="a_edge17_Node000007_Node000016"><a xlink:title=" ">
<path fill="none" stroke="#63b8ff" d="M699.85,-278.28C742.62,-272.02 799.67,-258.26 841,-228 860.62,-213.63 874.84,-189.44 883.4,-171.41"/>
<polygon fill="#63b8ff" stroke="#63b8ff" points="886.66,-172.68 887.57,-162.13 880.28,-169.81 886.66,-172.68"/>
</a>
</g>
</g>
<!-- Node17 -->
<g id="Node000017" class="node">
<title>Node17</title>
<g id="a_Node000017"><a xlink:href="predictor__data_8hpp.html" target="_top" xlink:title=" ">
<polygon fill="white" stroke="#666666" points="611.5,-162 466.5,-162 466.5,-132 611.5,-132 611.5,-162"/>
<text text-anchor="start" x="474.5" y="-150" font-family="Helvetica,sans-Serif" font-size="10.00">meltpooldg/linear_algebra</text>
<text text-anchor="middle" x="539" y="-139" font-family="Helvetica,sans-Serif" font-size="10.00">/predictor_data.hpp</text>
</a>
</g>
</g>
<!-- Node7&#45;&gt;Node17 -->
<g id="edge19_Node000007_Node000017" class="edge">
<title>Node7&#45;&gt;Node17</title>
<g id="a_edge19_Node000007_Node000017"><a xlink:title=" ">
<path fill="none" stroke="#63b8ff" d="M625.31,-263.8C606.83,-239 575.16,-196.52 555.76,-170.48"/>
<polygon fill="#63b8ff" stroke="#63b8ff" points="558.46,-168.25 549.68,-162.33 552.85,-172.44 558.46,-168.25"/>
</a>
</g>
</g>
<!-- Node18 -->
<g id="Node000018" class="node">
<title>Node18</title>
<g id="a_Node000018"><a xlink:href="time__integrator__data_8hpp.html" target="_top" xlink:title=" ">
<polygon fill="white" stroke="#666666" points="832,-228 676,-228 676,-198 832,-198 832,-228"/>
<text text-anchor="start" x="684" y="-216" font-family="Helvetica,sans-Serif" font-size="10.00">meltpooldg/time_integration</text>
<text text-anchor="middle" x="754" y="-205" font-family="Helvetica,sans-Serif" font-size="10.00">/time_integrator_data.hpp</text>
</a>
</g>
</g>
<!-- Node7&#45;&gt;Node18 -->
<g id="edge22_Node000007_Node000018" class="edge">
<title>Node7&#45;&gt;Node18</title>
<g id="a_edge22_Node000007_Node000018"><a xlink:title=" ">
<path fill="none" stroke="#63b8ff" d="M672.06,-263.96C687.69,-254.42 706.45,-242.99 722.06,-233.47"/>
<polygon fill="#63b8ff" stroke="#63b8ff" points="724.13,-236.31 730.85,-228.11 720.49,-230.33 724.13,-236.31"/>
</a>
</g>
</g>
<!-- Node9&#45;&gt;Node8 -->
<g id="edge9_Node000009_Node000008" class="edge">
<title>Node9&#45;&gt;Node8</title>
<g id="a_edge9_Node000009_Node000008"><a xlink:title=" ">
<path fill="none" stroke="#63b8ff" d="M390.57,-131.84C397.71,-109.76 411.56,-66.89 420.26,-39.94"/>
<polygon fill="#63b8ff" stroke="#63b8ff" points="423.69,-40.73 423.43,-30.14 417.03,-38.58 423.69,-40.73"/>
</a>
</g>
</g>
<!-- Node9&#45;&gt;Node10 -->
<g id="edge10_Node000009_Node000010" class="edge">
<title>Node9&#45;&gt;Node10</title>
<g id="a_edge10_Node000009_Node000010"><a xlink:title=" ">
<path fill="none" stroke="#63b8ff" d="M448.33,-133.67C451.26,-133.1 454.16,-132.54 457,-132 540.44,-116.07 563.93,-113.59 649.89,-96.39"/>
<polygon fill="#63b8ff" stroke="#63b8ff" points="650.72,-99.8 659.83,-94.4 649.34,-92.94 650.72,-99.8"/>
</a>
</g>
</g>
<!-- Node10&#45;&gt;Node8 -->
<g id="edge11_Node000010_Node000008" class="edge">
<title>Node10&#45;&gt;Node8</title>
<g id="a_edge11_Node000010_Node000008"><a xlink:title=" ">
<path fill="none" stroke="#63b8ff" d="M659.79,-67.51C614.46,-57.43 550.35,-43.19 501.05,-32.23"/>
<polygon fill="#63b8ff" stroke="#63b8ff" points="501.6,-28.77 491.08,-30.02 500.08,-35.6 501.6,-28.77"/>
</a>
</g>
</g>
<!-- Node11 -->
<g id="Node000011" class="node">
<title>Node11</title>
<g id="a_Node000011"><a xlink:title=" ">
<polygon fill="#e0e0e0" stroke="#999999" points="634.5,-24.5 509.5,-24.5 509.5,-5.5 634.5,-5.5 634.5,-24.5"/>
<text text-anchor="middle" x="572" y="-12.5" font-family="Helvetica,sans-Serif" font-size="10.00">deal.II/base/patterns.h</text>
</a>
</g>
</g>
<!-- Node10&#45;&gt;Node11 -->
<g id="edge12_Node000010_Node000011" class="edge">
<title>Node10&#45;&gt;Node11</title>
<g id="a_edge12_Node000010_Node000011"><a xlink:title=" ">
<path fill="none" stroke="#63b8ff" d="M684.4,-65.95C659.37,-54.83 624.7,-39.42 600.51,-28.67"/>
<polygon fill="#63b8ff" stroke="#63b8ff" points="601.72,-25.38 591.16,-24.52 598.88,-31.78 601.72,-25.38"/>
</a>
</g>
</g>
<!-- Node12 -->
<g id="Node000012" class="node">
<title>Node12</title>
<g id="a_Node000012"><a xlink:title=" ">
<polygon fill="#e0e0e0" stroke="#999999" points="982,-30 870,-30 870,0 982,0 982,-30"/>
<text text-anchor="start" x="878" y="-18" font-family="Helvetica,sans-Serif" font-size="10.00">meltpooldg/utilities</text>
<text text-anchor="middle" x="926" y="-7" font-family="Helvetica,sans-Serif" font-size="10.00">/better_enum.hpp</text>
</a>
</g>
</g>
<!-- Node10&#45;&gt;Node12 -->
<g id="edge13_Node000010_Node000012" class="edge">
<title>Node10&#45;&gt;Node12</title>
<g id="a_edge13_Node000010_Node000012"><a xlink:title=" ">
<path fill="none" stroke="#63b8ff" d="M762.09,-65.95C793.95,-56.24 836.53,-43.27 870.3,-32.98"/>
<polygon fill="#63b8ff" stroke="#63b8ff" points="871.48,-36.28 880.02,-30.01 869.44,-29.58 871.48,-36.28"/>
</a>
</g>
</g>
<!-- Node13 -->
<g id="Node000013" class="node">
<title>Node13</title>
<g id="a_Node000013"><a xlink:title=" ">
<polygon fill="#e0e0e0" stroke="#999999" points="777.5,-30 652.5,-30 652.5,0 777.5,0 777.5,-30"/>
<text text-anchor="start" x="660.5" y="-18" font-family="Helvetica,sans-Serif" font-size="10.00">boost/algorithm/string</text>
<text text-anchor="middle" x="715" y="-7" font-family="Helvetica,sans-Serif" font-size="10.00">/join.hpp</text>
</a>
</g>
</g>
<!-- Node10&#45;&gt;Node13 -->
<g id="edge14_Node000010_Node000013" class="edge">
<title>Node10&#45;&gt;Node13</title>
<g id="a_edge14_Node000010_Node000013"><a xlink:title=" ">
<path fill="none" stroke="#63b8ff" d="M715.78,-65.8C715.66,-58.34 715.52,-48.99 715.38,-40.41"/>
<polygon fill="#63b8ff" stroke="#63b8ff" points="718.88,-40.11 715.22,-30.16 711.88,-40.22 718.88,-40.11"/>
</a>
</g>
</g>
<!-- Node14 -->
<g id="Node000014" class="node">
<title>Node14</title>
<g id="a_Node000014"><a xlink:title=" ">
<polygon fill="#e0e0e0" stroke="#999999" points="852,-24.5 796,-24.5 796,-5.5 852,-5.5 852,-24.5"/>
<text text-anchor="middle" x="824" y="-12.5" font-family="Helvetica,sans-Serif" font-size="10.00">sstream</text>
</a>
</g>
</g>
<!-- Node10&#45;&gt;Node14 -->
<g id="edge15_Node000010_Node000014" class="edge">
<title>Node10&#45;&gt;Node14</title>
<g id="a_edge15_Node000010_Node000014"><a xlink:title=" ">
<path fill="none" stroke="#63b8ff" d="M739.7,-65.95C757.89,-55.18 782.86,-40.38 800.9,-29.69"/>
<polygon fill="#63b8ff" stroke="#63b8ff" points="802.81,-32.63 809.63,-24.52 799.24,-26.6 802.81,-32.63"/>
</a>
</g>
</g>
<!-- Node10&#45;&gt;Node15 -->
<g id="edge16_Node000010_Node000015" class="edge">
<title>Node10&#45;&gt;Node15</title>
<g id="a_edge16_Node000010_Node000015"><a xlink:title=" ">
<path fill="none" stroke="#63b8ff" d="M772.2,-72.69C828.23,-64.73 916.45,-50.35 991,-30 993.43,-29.34 995.93,-28.58 998.43,-27.78"/>
<polygon fill="#63b8ff" stroke="#63b8ff" points="999.6,-31.08 1007.91,-24.51 997.31,-24.46 999.6,-31.08"/>
</a>
</g>
</g>
<!-- Node16&#45;&gt;Node10 -->
<g id="edge18_Node000016_Node000010" class="edge">
<title>Node16&#45;&gt;Node10</title>
<g id="a_edge18_Node000016_Node000010"><a xlink:title=" ">
<path fill="none" stroke="#63b8ff" d="M854.16,-131.95C827.76,-122.41 792.64,-109.71 764.42,-99.51"/>
<polygon fill="#63b8ff" stroke="#63b8ff" points="765.35,-96.12 754.75,-96.01 762.97,-102.7 765.35,-96.12"/>
</a>
</g>
</g>
<!-- Node17&#45;&gt;Node8 -->
<g id="edge20_Node000017_Node000008" class="edge">
<title>Node17&#45;&gt;Node8</title>
<g id="a_edge20_Node000017_Node000008"><a xlink:title=" ">
<path fill="none" stroke="#63b8ff" d="M501.11,-131.91C483.92,-123.79 464.66,-111.97 452,-96 439.36,-80.06 433.37,-57.57 430.53,-40.49"/>
<polygon fill="#63b8ff" stroke="#63b8ff" points="433.94,-39.59 429.09,-30.18 427.01,-40.56 433.94,-39.59"/>
</a>
</g>
</g>
<!-- Node17&#45;&gt;Node10 -->
<g id="edge21_Node000017_Node000010" class="edge">
<title>Node17&#45;&gt;Node10</title>
<g id="a_edge21_Node000017_Node000010"><a xlink:title=" ">
<path fill="none" stroke="#63b8ff" d="M577.84,-131.95C604.24,-122.41 639.36,-109.71 667.58,-99.51"/>
<polygon fill="#63b8ff" stroke="#63b8ff" points="669.03,-102.7 677.25,-96.01 666.65,-96.12 669.03,-102.7"/>
</a>
</g>
</g>
<!-- Node18&#45;&gt;Node8 -->
<g id="edge23_Node000018_Node000008" class="edge">
<title>Node18&#45;&gt;Node8</title>
<g id="a_edge23_Node000018_Node000008"><a xlink:title=" ">
<path fill="none" stroke="#63b8ff" d="M734.66,-197.95C709.58,-180.31 663.93,-150.16 621,-132 563.41,-107.64 536.42,-131.58 485,-96 464.41,-81.75 448.69,-57.54 439.03,-39.47"/>
<polygon fill="#63b8ff" stroke="#63b8ff" points="441.94,-37.49 434.29,-30.17 435.71,-40.67 441.94,-37.49"/>
</a>
</g>
</g>
<!-- Node18&#45;&gt;Node10 -->
<g id="edge28_Node000018_Node000010" class="edge">
<title>Node18&#45;&gt;Node10</title>
<g id="a_edge28_Node000018_Node000010"><a xlink:title=" ">
<path fill="none" stroke="#63b8ff" d="M749.86,-197.84C743.41,-175.76 730.87,-132.89 723,-105.94"/>
<polygon fill="#63b8ff" stroke="#63b8ff" points="726.3,-104.76 720.13,-96.14 719.58,-106.72 726.3,-104.76"/>
</a>
</g>
</g>
<!-- Node18&#45;&gt;Node12 -->
<g id="edge27_Node000018_Node000012" class="edge">
<title>Node18&#45;&gt;Node12</title>
<g id="a_edge27_Node000018_Node000012"><a xlink:title=" ">
<path fill="none" stroke="#63b8ff" d="M763.25,-197.94C774.23,-181.58 793.39,-154.01 812,-132 841.49,-97.13 879.21,-60.03 903,-37.42"/>
<polygon fill="#63b8ff" stroke="#63b8ff" points="905.63,-39.75 910.5,-30.34 900.83,-34.66 905.63,-39.75"/>
</a>
</g>
</g>
<!-- Node18&#45;&gt;Node15 -->
<g id="edge29_Node000018_Node000015" class="edge">
<title>Node18&#45;&gt;Node15</title>
<g id="a_edge29_Node000018_Node000015"><a xlink:title=" ">
<path fill="none" stroke="#63b8ff" d="M832.23,-202.3C886.9,-194.06 953.77,-180.6 975,-162 994.72,-144.72 1015.56,-69.78 1024.5,-34.5"/>
<polygon fill="#63b8ff" stroke="#63b8ff" points="1027.96,-35.11 1026.97,-24.56 1021.16,-33.42 1027.96,-35.11"/>
</a>
</g>
</g>
<!-- Node18&#45;&gt;Node16 -->
<g id="edge24_Node000018_Node000016" class="edge">
<title>Node18&#45;&gt;Node16</title>
<g id="a_edge24_Node000018_Node000016"><a xlink:title=" ">
<path fill="none" stroke="#63b8ff" d="M784.5,-197.95C804.69,-188.66 831.37,-176.38 853.22,-166.32"/>
<polygon fill="#63b8ff" stroke="#63b8ff" points="854.95,-169.37 862.57,-162.01 852.02,-163.02 854.95,-169.37"/>
</a>
</g>
</g>
<!-- Node19 -->
<g id="Node000019" class="node">
<title>Node19</title>
<g id="a_Node000019"><a xlink:href="nonlinear__solver__data_8hpp.html" target="_top" xlink:title=" ">
<polygon fill="white" stroke="#666666" points="642.5,-96 493.5,-96 493.5,-66 642.5,-66 642.5,-96"/>
<text text-anchor="start" x="501.5" y="-84" font-family="Helvetica,sans-Serif" font-size="10.00">meltpooldg/linear_algebra</text>
<text text-anchor="middle" x="568" y="-73" font-family="Helvetica,sans-Serif" font-size="10.00">/nonlinear_solver_data.hpp</text>
</a>
</g>
</g>
<!-- Node18&#45;&gt;Node19 -->
<g id="edge25_Node000018_Node000019" class="edge">
<title>Node18&#45;&gt;Node19</title>
<g id="a_edge25_Node000018_Node000019"><a xlink:title=" ">
<path fill="none" stroke="#63b8ff" d="M746.14,-197.7C735.81,-180.08 716.11,-150.23 692,-132 673.45,-117.98 650.44,-107.27 629.29,-99.44"/>
<polygon fill="#63b8ff" stroke="#63b8ff" points="630.32,-96.09 619.73,-96.04 627.98,-102.69 630.32,-96.09"/>
</a>
</g>
</g>
<!-- Node19&#45;&gt;Node8 -->
<g id="edge26_Node000019_Node000008" class="edge">
<title>Node19&#45;&gt;Node8</title>
<g id="a_edge26_Node000019_Node000008"><a xlink:title=" ">
<path fill="none" stroke="#63b8ff" d="M537.28,-65.95C516.85,-56.62 489.83,-44.27 467.77,-34.18"/>
<polygon fill="#63b8ff" stroke="#63b8ff" points="469.2,-30.99 458.65,-30.01 466.29,-37.35 469.2,-30.99"/>
</a>
</g>
</g>
<!-- Node20&#45;&gt;Node6 -->
<g id="edge41_Node000020_Node000006" class="edge">
<title>Node20&#45;&gt;Node6</title>
<g id="a_edge41_Node000020_Node000006"><a xlink:title=" ">
<path fill="none" stroke="#63b8ff" d="M1048.92,-274.87C912.73,-259.63 634.83,-228.53 538.65,-217.77"/>
<polygon fill="#63b8ff" stroke="#63b8ff" points="538.95,-214.28 528.62,-216.64 538.17,-221.23 538.95,-214.28"/>
</a>
</g>
</g>
<!-- Node20&#45;&gt;Node15 -->
<g id="edge39_Node000020_Node000015" class="edge">
<title>Node20&#45;&gt;Node15</title>
<g id="a_edge39_Node000020_Node000015"><a xlink:title=" ">
<path fill="none" stroke="#63b8ff" d="M1117.3,-269.28C1110.83,-258.29 1102.11,-242.54 1096,-228 1066.83,-158.52 1069.24,-137.68 1046,-66 1042.59,-55.48 1038.62,-43.78 1035.37,-34.34"/>
<polygon fill="#63b8ff" stroke="#63b8ff" points="1038.66,-33.13 1032.09,-24.83 1032.05,-35.42 1038.66,-33.13"/>
</a>
</g>
</g>
<!-- Node21 -->
<g id="Node000021" class="node">
<title>Node21</title>
<g id="a_Node000021"><a xlink:title=" ">
<polygon fill="#e0e0e0" stroke="#999999" points="1245,-222.5 1105,-222.5 1105,-203.5 1245,-203.5 1245,-222.5"/>
<text text-anchor="middle" x="1175" y="-210.5" font-family="Helvetica,sans-Serif" font-size="10.00">deal.II/dofs/dof_handler.h</text>
</a>
</g>
</g>
<!-- Node20&#45;&gt;Node21 -->
<g id="edge33_Node000020_Node000021" class="edge">
<title>Node20&#45;&gt;Node21</title>
<g id="a_edge33_Node000020_Node000021"><a xlink:title=" ">
<path fill="none" stroke="#63b8ff" d="M1135.92,-269.44C1143.68,-258.42 1154.53,-243.04 1162.82,-231.28"/>
<polygon fill="#63b8ff" stroke="#63b8ff" points="1165.92,-232.96 1168.82,-222.77 1160.2,-228.92 1165.92,-232.96"/>
</a>
</g>
</g>
<!-- Node22 -->
<g id="Node000022" class="node">
<title>Node22</title>
<g id="a_Node000022"><a xlink:title=" ">
<polygon fill="#e0e0e0" stroke="#999999" points="1377,-222.5 1263,-222.5 1263,-203.5 1377,-203.5 1377,-222.5"/>
<text text-anchor="middle" x="1320" y="-210.5" font-family="Helvetica,sans-Serif" font-size="10.00">deal.II/fe/mapping.h</text>
</a>
</g>
</g>
<!-- Node20&#45;&gt;Node22 -->
<g id="edge34_Node000020_Node000022" class="edge">
<title>Node20&#45;&gt;Node22</title>
<g id="a_edge34_Node000020_Node000022"><a xlink:title=" ">
<path fill="none" stroke="#63b8ff" d="M1165.26,-269.44C1200.78,-256.71 1252.54,-238.17 1286.24,-226.09"/>
<polygon fill="#63b8ff" stroke="#63b8ff" points="1287.85,-229.24 1296.08,-222.57 1285.49,-222.65 1287.85,-229.24"/>
</a>
</g>
</g>
<!-- Node23 -->
<g id="Node000023" class="node">
<title>Node23</title>
<g id="a_Node000023"><a xlink:title=" ">
<polygon fill="#e0e0e0" stroke="#999999" points="1513,-228 1395,-228 1395,-198 1513,-198 1513,-228"/>
<text text-anchor="start" x="1403" y="-216" font-family="Helvetica,sans-Serif" font-size="10.00">deal.II/lac/la_parallel</text>
<text text-anchor="middle" x="1454" y="-205" font-family="Helvetica,sans-Serif" font-size="10.00">_vector.h</text>
</a>
</g>
</g>
<!-- Node20&#45;&gt;Node23 -->
<g id="edge35_Node000020_Node000023" class="edge">
<title>Node20&#45;&gt;Node23</title>
<g id="a_edge35_Node000020_Node000023"><a xlink:title=" ">
<path fill="none" stroke="#63b8ff" d="M1192.38,-269.44C1248.35,-257.57 1328.19,-240.66 1384.92,-228.64"/>
<polygon fill="#63b8ff" stroke="#63b8ff" points="1385.82,-232.02 1394.88,-226.53 1384.37,-225.18 1385.82,-232.02"/>
</a>
</g>
</g>
<!-- Node24 -->
<g id="Node000024" class="node">
<title>Node24</title>
<g id="a_Node000024"><a xlink:title=" ">
<polygon fill="#e0e0e0" stroke="#999999" points="1689,-228 1531,-228 1531,-198 1689,-198 1689,-228"/>
<text text-anchor="start" x="1539" y="-216" font-family="Helvetica,sans-Serif" font-size="10.00">deal.II/numerics/data</text>
<text text-anchor="middle" x="1610" y="-205" font-family="Helvetica,sans-Serif" font-size="10.00">_component_interpretation.h</text>
</a>
</g>
</g>
<!-- Node20&#45;&gt;Node24 -->
<g id="edge36_Node000020_Node000024" class="edge">
<title>Node20&#45;&gt;Node24</title>
<g id="a_edge36_Node000020_Node000024"><a xlink:title=" ">
<path fill="none" stroke="#63b8ff" d="M1203.09,-273.13C1280.67,-262.59 1404.06,-245.56 1520.68,-228.18"/>
<polygon fill="#63b8ff" stroke="#63b8ff" points="1521.48,-231.6 1530.86,-226.66 1520.45,-224.68 1521.48,-231.6"/>
</a>
</g>
</g>
<!-- Node25 -->
<g id="Node000025" class="node">
<title>Node25</title>
<g id="a_Node000025"><a xlink:title=" ">
<polygon fill="#e0e0e0" stroke="#999999" points="1826.5,-228 1707.5,-228 1707.5,-198 1826.5,-198 1826.5,-228"/>
<text text-anchor="start" x="1715.5" y="-216" font-family="Helvetica,sans-Serif" font-size="10.00">deal.II/numerics/data</text>
<text text-anchor="middle" x="1767" y="-205" font-family="Helvetica,sans-Serif" font-size="10.00">_out.h</text>
</a>
</g>
</g>
<!-- Node20&#45;&gt;Node25 -->
<g id="edge37_Node000020_Node000025" class="edge">
<title>Node20&#45;&gt;Node25</title>
<g id="a_edge37_Node000020_Node000025"><a xlink:title=" ">
<path fill="none" stroke="#63b8ff" d="M1203.1,-278.56C1311.27,-271.07 1514.36,-254.94 1697.16,-228.02"/>
<polygon fill="#63b8ff" stroke="#63b8ff" points="1697.85,-231.45 1707.23,-226.52 1696.82,-224.53 1697.85,-231.45"/>
</a>
</g>
</g>
<!-- Node26 -->
<g id="Node000026" class="node">
<title>Node26</title>
<g id="a_Node000026"><a xlink:title=" ">
<polygon fill="#e0e0e0" stroke="#999999" points="989,-222.5 951,-222.5 951,-203.5 989,-203.5 989,-222.5"/>
<text text-anchor="middle" x="970" y="-210.5" font-family="Helvetica,sans-Serif" font-size="10.00">map</text>
</a>
</g>
</g>
<!-- Node20&#45;&gt;Node26 -->
<g id="edge38_Node000020_Node000026" class="edge">
<title>Node20&#45;&gt;Node26</title>
<g id="a_edge38_Node000020_Node000026"><a xlink:title=" ">
<path fill="none" stroke="#63b8ff" d="M1092.96,-269.46C1067.23,-258.44 1030.7,-242.57 999,-228 998.18,-227.62 997.34,-227.24 996.5,-226.84"/>
<polygon fill="#63b8ff" stroke="#63b8ff" points="997.97,-223.67 987.43,-222.55 994.97,-229.99 997.97,-223.67"/>
</a>
</g>
</g>
<!-- Node27 -->
<g id="Node000027" class="node">
<title>Node27</title>
<g id="a_Node000027"><a xlink:title=" ">
<polygon fill="#e0e0e0" stroke="#999999" points="1048.5,-222.5 1007.5,-222.5 1007.5,-203.5 1048.5,-203.5 1048.5,-222.5"/>
<text text-anchor="middle" x="1028" y="-210.5" font-family="Helvetica,sans-Serif" font-size="10.00">tuple</text>
</a>
</g>
</g>
<!-- Node20&#45;&gt;Node27 -->
<g id="edge40_Node000020_Node000027" class="edge">
<title>Node20&#45;&gt;Node27</title>
<g id="a_edge40_Node000020_Node000027"><a xlink:title=" ">
<path fill="none" stroke="#63b8ff" d="M1106.17,-269.44C1089.46,-257.59 1065.65,-240.7 1048.7,-228.68"/>
<polygon fill="#63b8ff" stroke="#63b8ff" points="1050.26,-225.5 1040.08,-222.57 1046.21,-231.21 1050.26,-225.5"/>
</a>
</g>
</g>
</g>
</svg>

<g id="navigator" transform="translate(0 0)" fill="#404254">
  <rect fill="#f2f5e9" fill-opacity="0.5" stroke="#606060" stroke-width=".5" x="0" y="0" width="60" height="60"/>
  <use id="zoomplus" xlink:href="#zoomPlus" x="17" y="9" onmousedown="handleZoom(evt,'in')"/>
  <use id="zoomminus" xlink:href="#zoomMin" x="42" y="9" onmousedown="handleZoom(evt,'out')"/>
  <use id="reset" xlink:href="#resetDef" x="30" y="36" onmousedown="handleReset()"/>
   <use id="arrowup" xlink:href="#arrowUp" x="0" y="0" onmousedown="handlePan(0,-1)"/>
  <use id="arrowright" xlink:href="#arrowRight" x="0" y="0" onmousedown="handlePan(1,0)"/>
  <use id="arrowdown" xlink:href="#arrowDown" x="0" y="0" onmousedown="handlePan(0,1)"/>
  <use id="arrowleft" xlink:href="#arrowLeft" x="0" y="0" onmousedown="handlePan(-1,0)"/>
</g>
<svg viewBox="0 0 15 15" width="100%" height="30px" preserveAspectRatio="xMaxYMin meet">
 <g id="arrow_out" transform="scale(0.3 0.3)">
  <a xlink:href="advection__diffusion__operation__base_8hpp__incl_org.svg" target="_base">
   <rect id="button" ry="5" rx="5" y="6" x="6" height="38" width="38"
        fill="#f2f5e9" fill-opacity="0.5" stroke="#606060" stroke-width="1.0"/>
   <path id="arrow"
     d="M 11.500037,31.436501 C 11.940474,20.09759 22.043105,11.32322 32.158766,21.979434 L 37.068811,17.246167 C 37.068811,17.246167 37.088388,32 37.088388,32 L 22.160133,31.978069 C 22.160133,31.978069 26.997745,27.140456 26.997745,27.140456 C 18.528582,18.264221 13.291696,25.230495 11.500037,31.436501 z"
     style="fill:#404040;"/>
  </a>
 </g>
</svg>

<style type='text/css'>
<![CDATA[
[data-mouse-over-selected='false'] { opacity: 0.7; }
[data-mouse-over-selected='true']  { opacity: 1.0; }
]]>
</style>
<script type="application/ecmascript"><![CDATA[
document.addEventListener('DOMContentLoaded', (event) => {
  highlightEdges();
  highlightAdjacentNodes();
});
]]></script>
</svg>
