<?xml version="1.0" encoding="UTF-8" standalone="no"?>
<!DOCTYPE svg PUBLIC "-//W3C//DTD SVG 1.1//EN"
 "http://www.w3.org/Graphics/SVG/1.1/DTD/svg11.dtd">
<!-- Generated by graphviz version 2.43.0 (0)
 -->
<!-- Title: applications/mp&#45;advec&#45;diff/advection_diffusion_case.hpp Pages: 1 -->
<!--zoomable 203 -->

<svg id="main" version="1.1" xmlns="http://www.w3.org/2000/svg" xmlns:xlink="http://www.w3.org/1999/xlink" xml:space="preserve" onload="init(evt)">
<style type="text/css"><![CDATA[
.node, .edge {opacity: 0.7;}
.node.selected, .edge.selected {opacity: 1;}
.edge:hover path { stroke: red; }
.edge:hover polygon { stroke: red; fill: red; }
]]></style>

<defs>
  <circle id="rim" cx="0" cy="0" r="7"/>
  <circle id="rim2" cx="0" cy="0" r="3.5"/>
  <g id="zoomPlus">
    <use xlink:href="#rim" fill="#404040"><set attributeName="fill" to="#808080" begin="zoomplus.mouseover" end="zoomplus.mouseout"/></use>
    <path d="M-4,0h8M0,-4v8" fill="none" stroke="white" stroke-width="1.5" pointer-events="none"/>
  </g>
  <g id="zoomMin">
    <use xlink:href="#rim" fill="#404040"><set attributeName="fill" to="#808080" begin="zoomminus.mouseover" end="zoomminus.mouseout"/></use>
    <path d="M-4,0h8" fill="none" stroke="white" stroke-width="1.5" pointer-events="none"/>
  </g>
  <g id="arrowUp" transform="translate(30 24)">
    <use xlink:href="#rim"/>
    <path pointer-events="none" fill="none" stroke="white" stroke-width="1.5" d="M0,-3.0v7 M-2.5,-0.5L0,-3.0L2.5,-0.5"/>
  </g>
  <g id="arrowRight" transform="rotate(90) translate(36 -43)">
    <use xlink:href="#rim"/>
    <path pointer-events="none" fill="none" stroke="white" stroke-width="1.5" d="M0,-3.0v7 M-2.5,-0.5L0,-3.0L2.5,-0.5"/>
  </g>
  <g id="arrowDown" transform="rotate(180) translate(-30 -48)">
    <use xlink:href="#rim"/>
    <path pointer-events="none" fill="none" stroke="white" stroke-width="1.5" d="M0,-3.0v7 M-2.5,-0.5L0,-3.0L2.5,-0.5"/>
  </g>
  <g id="arrowLeft" transform="rotate(270) translate(-36 17)">
    <use xlink:href="#rim"/>
    <path pointer-events="none" fill="none" stroke="white" stroke-width="1.5" d="M0,-3.0v7 M-2.5,-0.5L0,-3.0L2.5,-0.5"/>
  </g>
  <g id="resetDef">
    <use xlink:href="#rim2" fill="#404040"><set attributeName="fill" to="#808080" begin="reset.mouseover" end="reset.mouseout"/></use>
  </g>
</defs>
<script type="application/ecmascript">
var viewWidth = 630;
var viewHeight = 203;
var sectionId = 'dynsection-1';
</script>
<script type="application/ecmascript" xlink:href="svg.min.js"/>
<svg id="graph" class="graph">
<g id="viewport">
<title>applications/mp&#45;advec&#45;diff/advection_diffusion_case.hpp</title>
<!-- Node1 -->
<g id="Node000001" class="node">
<title>Node1</title>
<g id="a_Node000001"><a xlink:title=" ">
<polygon fill="#999999" stroke="#666666" points="331,-195 197,-195 197,-154 331,-154 331,-195"/>
<text text-anchor="start" x="205" y="-183" font-family="Helvetica,sans-Serif" font-size="10.00">applications/mp&#45;advec</text>
<text text-anchor="start" x="205" y="-172" font-family="Helvetica,sans-Serif" font-size="10.00">&#45;diff/advection_diffusion</text>
<text text-anchor="middle" x="264" y="-161" font-family="Helvetica,sans-Serif" font-size="10.00">_case.hpp</text>
</a>
</g>
</g>
<!-- Node2 -->
<g id="Node000002" class="node">
<title>Node2</title>
<g id="a_Node000002"><a xlink:href="advection__diffusion__application_8cpp.html" target="_top" xlink:title=" ">
<polygon fill="white" stroke="#666666" points="134,-41 0,-41 0,0 134,0 134,-41"/>
<text text-anchor="start" x="8" y="-29" font-family="Helvetica,sans-Serif" font-size="10.00">applications/mp&#45;advec</text>
<text text-anchor="start" x="8" y="-18" font-family="Helvetica,sans-Serif" font-size="10.00">&#45;diff/advection_diffusion</text>
<text text-anchor="middle" x="67" y="-7" font-family="Helvetica,sans-Serif" font-size="10.00">_application.cpp</text>
</a>
</g>
</g>
<!-- Node1&#45;&gt;Node2 -->
<g id="edge1_Node000001_Node000002" class="edge">
<title>Node1&#45;&gt;Node2</title>
<g id="a_edge1_Node000001_Node000002"><a xlink:title=" ">
<path fill="none" stroke="#63b8ff" d="M186.75,-164.61C129.11,-156.2 57.28,-141.34 39,-118 21.36,-95.48 37.81,-62.21 51.92,-41.21"/>
<polygon fill="#63b8ff" stroke="#63b8ff" points="186.58,-168.12 196.97,-166.06 187.56,-161.19 186.58,-168.12"/>
</a>
</g>
</g>
<!-- Node3 -->
<g id="Node000003" class="node">
<title>Node3</title>
<g id="a_Node000003"><a xlink:href="advection__diffusion__application_8hpp.html" target="_top" xlink:title=" ">
<polygon fill="white" stroke="#666666" points="182,-118 48,-118 48,-77 182,-77 182,-118"/>
<text text-anchor="start" x="56" y="-106" font-family="Helvetica,sans-Serif" font-size="10.00">applications/mp&#45;advec</text>
<text text-anchor="start" x="56" y="-95" font-family="Helvetica,sans-Serif" font-size="10.00">&#45;diff/advection_diffusion</text>
<text text-anchor="middle" x="115" y="-84" font-family="Helvetica,sans-Serif" font-size="10.00">_application.hpp</text>
</a>
</g>
</g>
<!-- Node1&#45;&gt;Node3 -->
<g id="edge2_Node000001_Node000003" class="edge">
<title>Node1&#45;&gt;Node3</title>
<g id="a_edge2_Node000001_Node000003"><a xlink:title=" ">
<path fill="none" stroke="#63b8ff" d="M216.22,-149.45C196.06,-139.3 172.9,-127.64 153.82,-118.04"/>
<polygon fill="#63b8ff" stroke="#63b8ff" points="214.74,-152.62 225.24,-153.99 217.88,-146.37 214.74,-152.62"/>
</a>
</g>
</g>
<!-- Node4 -->
<g id="Node000004" class="node">
<title>Node4</title>
<g id="a_Node000004"><a xlink:href="advection__diffusion_8hpp.html" target="_top" xlink:title=" ">
<polygon fill="white" stroke="#666666" points="328,-118 200,-118 200,-77 328,-77 328,-118"/>
<text text-anchor="start" x="208" y="-106" font-family="Helvetica,sans-Serif" font-size="10.00">applications/mp&#45;advec</text>
<text text-anchor="start" x="208" y="-95" font-family="Helvetica,sans-Serif" font-size="10.00">&#45;diff/cases/advection</text>
<text text-anchor="middle" x="264" y="-84" font-family="Helvetica,sans-Serif" font-size="10.00">_diffusion.hpp</text>
</a>
</g>
</g>
<!-- Node1&#45;&gt;Node4 -->
<g id="edge4_Node000001_Node000004" class="edge">
<title>Node1&#45;&gt;Node4</title>
<g id="a_edge4_Node000001_Node000004"><a xlink:title=" ">
<path fill="none" stroke="#63b8ff" d="M264,-143.69C264,-135.08 264,-125.9 264,-118.07"/>
<polygon fill="#63b8ff" stroke="#63b8ff" points="260.5,-143.79 264,-153.79 267.5,-143.79 260.5,-143.79"/>
</a>
</g>
</g>
<!-- Node6 -->
<g id="Node000006" class="node">
<title>Node6</title>
<g id="a_Node000006"><a xlink:href="advection__diffusion__DG_8hpp.html" target="_top" xlink:title=" ">
<polygon fill="white" stroke="#666666" points="474,-118 346,-118 346,-77 474,-77 474,-118"/>
<text text-anchor="start" x="354" y="-106" font-family="Helvetica,sans-Serif" font-size="10.00">applications/mp&#45;advec</text>
<text text-anchor="start" x="354" y="-95" font-family="Helvetica,sans-Serif" font-size="10.00">&#45;diff/cases/advection</text>
<text text-anchor="middle" x="410" y="-84" font-family="Helvetica,sans-Serif" font-size="10.00">_diffusion_DG.hpp</text>
</a>
</g>
</g>
<!-- Node1&#45;&gt;Node6 -->
<g id="edge6_Node000001_Node000006" class="edge">
<title>Node1&#45;&gt;Node6</title>
<g id="a_edge6_Node000001_Node000006"><a xlink:title=" ">
<path fill="none" stroke="#63b8ff" d="M311.09,-149.31C330.77,-139.2 353.35,-127.6 371.96,-118.04"/>
<polygon fill="#63b8ff" stroke="#63b8ff" points="309.27,-146.31 301.98,-153.99 312.47,-152.53 309.27,-146.31"/>
</a>
</g>
</g>
<!-- Node8 -->
<g id="Node000008" class="node">
<title>Node8</title>
<g id="a_Node000008"><a xlink:href="mp-advec-diff_2unit__tests_2detailed__parameters_8cc.html" target="_top" xlink:title=" ">
<polygon fill="white" stroke="#666666" points="622,-118 492,-118 492,-77 622,-77 622,-118"/>
<text text-anchor="start" x="500" y="-106" font-family="Helvetica,sans-Serif" font-size="10.00">applications/mp&#45;advec</text>
<text text-anchor="start" x="500" y="-95" font-family="Helvetica,sans-Serif" font-size="10.00">&#45;diff/unit_tests/detailed</text>
<text text-anchor="middle" x="557" y="-84" font-family="Helvetica,sans-Serif" font-size="10.00">_parameters.cc</text>
</a>
</g>
</g>
<!-- Node1&#45;&gt;Node8 -->
<g id="edge8_Node000001_Node000008" class="edge">
<title>Node1&#45;&gt;Node8</title>
<g id="a_edge8_Node000001_Node000008"><a xlink:title=" ">
<path fill="none" stroke="#63b8ff" d="M341.02,-154.17C383.01,-143.58 435.89,-130.18 483,-118 485.83,-117.27 488.72,-116.52 491.64,-115.76"/>
<polygon fill="#63b8ff" stroke="#63b8ff" points="339.98,-150.82 331.14,-156.66 341.69,-157.61 339.98,-150.82"/>
</a>
</g>
</g>
<!-- Node3&#45;&gt;Node2 -->
<g id="edge3_Node000003_Node000002" class="edge">
<title>Node3&#45;&gt;Node2</title>
<g id="a_edge3_Node000003_Node000002"><a xlink:title=" ">
<path fill="none" stroke="#63b8ff" d="M96.83,-68.11C91.06,-59.09 84.81,-49.33 79.53,-41.07"/>
<polygon fill="#63b8ff" stroke="#63b8ff" points="94.05,-70.26 102.39,-76.79 99.95,-66.49 94.05,-70.26"/>
</a>
</g>
</g>
<!-- Node5 -->
<g id="Node000005" class="node">
<title>Node5</title>
<g id="a_Node000005"><a xlink:href="advection__diffusion_8cpp.html" target="_top" xlink:title=" ">
<polygon fill="white" stroke="#666666" points="328,-41 200,-41 200,0 328,0 328,-41"/>
<text text-anchor="start" x="208" y="-29" font-family="Helvetica,sans-Serif" font-size="10.00">applications/mp&#45;advec</text>
<text text-anchor="start" x="208" y="-18" font-family="Helvetica,sans-Serif" font-size="10.00">&#45;diff/cases/advection</text>
<text text-anchor="middle" x="264" y="-7" font-family="Helvetica,sans-Serif" font-size="10.00">_diffusion.cpp</text>
</a>
</g>
</g>
<!-- Node4&#45;&gt;Node5 -->
<g id="edge5_Node000004_Node000005" class="edge">
<title>Node4&#45;&gt;Node5</title>
<g id="a_edge5_Node000004_Node000005"><a xlink:title=" ">
<path fill="none" stroke="#63b8ff" d="M264,-66.69C264,-58.08 264,-48.9 264,-41.07"/>
<polygon fill="#63b8ff" stroke="#63b8ff" points="260.5,-66.79 264,-76.79 267.5,-66.79 260.5,-66.79"/>
</a>
</g>
</g>
<!-- Node7 -->
<g id="Node000007" class="node">
<title>Node7</title>
<g id="a_Node000007"><a xlink:href="advection__diffusion__DG_8cpp.html" target="_top" xlink:title=" ">
<polygon fill="white" stroke="#666666" points="474,-41 346,-41 346,0 474,0 474,-41"/>
<text text-anchor="start" x="354" y="-29" font-family="Helvetica,sans-Serif" font-size="10.00">applications/mp&#45;advec</text>
<text text-anchor="start" x="354" y="-18" font-family="Helvetica,sans-Serif" font-size="10.00">&#45;diff/cases/advection</text>
<text text-anchor="middle" x="410" y="-7" font-family="Helvetica,sans-Serif" font-size="10.00">_diffusion_DG.cpp</text>
</a>
</g>
</g>
<!-- Node6&#45;&gt;Node7 -->
<g id="edge7_Node000006_Node000007" class="edge">
<title>Node6&#45;&gt;Node7</title>
<g id="a_edge7_Node000006_Node000007"><a xlink:title=" ">
<path fill="none" stroke="#63b8ff" d="M410,-66.69C410,-58.08 410,-48.9 410,-41.07"/>
<polygon fill="#63b8ff" stroke="#63b8ff" points="406.5,-66.79 410,-76.79 413.5,-66.79 406.5,-66.79"/>
</a>
</g>
</g>
</g>
</svg>

<g id="navigator" transform="translate(0 0)" fill="#404254">
  <rect fill="#f2f5e9" fill-opacity="0.5" stroke="#606060" stroke-width=".5" x="0" y="0" width="60" height="60"/>
  <use id="zoomplus" xlink:href="#zoomPlus" x="17" y="9" onmousedown="handleZoom(evt,'in')"/>
  <use id="zoomminus" xlink:href="#zoomMin" x="42" y="9" onmousedown="handleZoom(evt,'out')"/>
  <use id="reset" xlink:href="#resetDef" x="30" y="36" onmousedown="handleReset()"/>
   <use id="arrowup" xlink:href="#arrowUp" x="0" y="0" onmousedown="handlePan(0,-1)"/>
  <use id="arrowright" xlink:href="#arrowRight" x="0" y="0" onmousedown="handlePan(1,0)"/>
  <use id="arrowdown" xlink:href="#arrowDown" x="0" y="0" onmousedown="handlePan(0,1)"/>
  <use id="arrowleft" xlink:href="#arrowLeft" x="0" y="0" onmousedown="handlePan(-1,0)"/>
</g>
<svg viewBox="0 0 15 15" width="100%" height="30px" preserveAspectRatio="xMaxYMin meet">
 <g id="arrow_out" transform="scale(0.3 0.3)">
  <a xlink:href="advection__diffusion__case_8hpp__dep__incl_org.svg" target="_base">
   <rect id="button" ry="5" rx="5" y="6" x="6" height="38" width="38"
        fill="#f2f5e9" fill-opacity="0.5" stroke="#606060" stroke-width="1.0"/>
   <path id="arrow"
     d="M 11.500037,31.436501 C 11.940474,20.09759 22.043105,11.32322 32.158766,21.979434 L 37.068811,17.246167 C 37.068811,17.246167 37.088388,32 37.088388,32 L 22.160133,31.978069 C 22.160133,31.978069 26.997745,27.140456 26.997745,27.140456 C 18.528582,18.264221 13.291696,25.230495 11.500037,31.436501 z"
     style="fill:#404040;"/>
  </a>
 </g>
</svg>

<style type='text/css'>
<![CDATA[
[data-mouse-over-selected='false'] { opacity: 0.7; }
[data-mouse-over-selected='true']  { opacity: 1.0; }
]]>
</style>
<script type="application/ecmascript"><![CDATA[
document.addEventListener('DOMContentLoaded', (event) => {
  highlightEdges();
  highlightAdjacentNodes();
});
]]></script>
</svg>
