<?xml version="1.0" encoding="UTF-8" standalone="no"?>
<!DOCTYPE svg PUBLIC "-//W3C//DTD SVG 1.1//EN"
 "http://www.w3.org/Graphics/SVG/1.1/DTD/svg11.dtd">
<!-- Generated by graphviz version 2.43.0 (0)
 -->
<!-- Title: include/meltpooldg/level_set/advection_diffusion_operation.hpp Pages: 1 -->
<svg width="723pt" height="258pt"
 viewBox="0.00 0.00 723.00 258.00" xmlns="http://www.w3.org/2000/svg" xmlns:xlink="http://www.w3.org/1999/xlink">
<g id="graph0" class="graph" transform="scale(1 1) rotate(0) translate(4 254)">
<title>include/meltpooldg/level_set/advection_diffusion_operation.hpp</title>
<!-- Node1 -->
<g id="Node000001" class="node">
<title>Node1</title>
<g id="a_Node000001"><a xlink:title=" ">
<polygon fill="#999999" stroke="#666666" points="461,-250 324,-250 324,-209 461,-209 461,-250"/>
<text text-anchor="start" x="332" y="-238" font-family="Helvetica,sans-Serif" font-size="10.00">include/meltpooldg</text>
<text text-anchor="start" x="332" y="-227" font-family="Helvetica,sans-Serif" font-size="10.00">/level_set/advection</text>
<text text-anchor="middle" x="392.5" y="-216" font-family="Helvetica,sans-Serif" font-size="10.00">_diffusion_operation.hpp</text>
</a>
</g>
</g>
<!-- Node2 -->
<g id="Node000002" class="node">
<title>Node2</title>
<g id="a_Node000002"><a xlink:href="advection__diffusion__application_8cpp.html" target="_top" xlink:title=" ">
<polygon fill="white" stroke="#666666" points="234.5,-173 100.5,-173 100.5,-132 234.5,-132 234.5,-173"/>
<text text-anchor="start" x="108.5" y="-161" font-family="Helvetica,sans-Serif" font-size="10.00">applications/mp&#45;advec</text>
<text text-anchor="start" x="108.5" y="-150" font-family="Helvetica,sans-Serif" font-size="10.00">&#45;diff/advection_diffusion</text>
<text text-anchor="middle" x="167.5" y="-139" font-family="Helvetica,sans-Serif" font-size="10.00">_application.cpp</text>
</a>
</g>
</g>
<!-- Node1&#45;&gt;Node2 -->
<g id="edge1_Node000001_Node000002" class="edge">
<title>Node1&#45;&gt;Node2</title>
<g id="a_edge1_Node000001_Node000002"><a xlink:title=" ">
<path fill="none" stroke="#63b8ff" d="M324.43,-205.81C293.07,-195.36 256.23,-183.08 226.13,-173.04"/>
<polygon fill="#63b8ff" stroke="#63b8ff" points="323.38,-209.15 333.97,-208.99 325.59,-202.51 323.38,-209.15"/>
</a>
</g>
</g>
<!-- Node3 -->
<g id="Node000003" class="node">
<title>Node3</title>
<g id="a_Node000003"><a xlink:href="level__set__operation_8hpp.html" target="_top" xlink:title=" ">
<polygon fill="white" stroke="#666666" points="364,-173 253,-173 253,-132 364,-132 364,-173"/>
<text text-anchor="start" x="261" y="-161" font-family="Helvetica,sans-Serif" font-size="10.00">include/meltpooldg</text>
<text text-anchor="start" x="261" y="-150" font-family="Helvetica,sans-Serif" font-size="10.00">/level_set/level_set</text>
<text text-anchor="middle" x="308.5" y="-139" font-family="Helvetica,sans-Serif" font-size="10.00">_operation.hpp</text>
</a>
</g>
</g>
<!-- Node1&#45;&gt;Node3 -->
<g id="edge2_Node000001_Node000003" class="edge">
<title>Node1&#45;&gt;Node3</title>
<g id="a_edge2_Node000001_Node000003"><a xlink:title=" ">
<path fill="none" stroke="#63b8ff" d="M362.9,-202.07C352.21,-192.52 340.34,-181.93 330.42,-173.07"/>
<polygon fill="#63b8ff" stroke="#63b8ff" points="360.64,-204.75 370.43,-208.79 365.3,-199.52 360.64,-204.75"/>
</a>
</g>
</g>
<!-- Node8 -->
<g id="Node000008" class="node">
<title>Node8</title>
<g id="a_Node000008"><a xlink:href="level__set__operation_8cpp.html" target="_top" xlink:title=" ">
<polygon fill="white" stroke="#666666" points="495,-96 372,-96 372,-66 495,-66 495,-96"/>
<text text-anchor="start" x="380" y="-84" font-family="Helvetica,sans-Serif" font-size="10.00">source/level_set/level</text>
<text text-anchor="middle" x="433.5" y="-73" font-family="Helvetica,sans-Serif" font-size="10.00">_set_operation.cpp</text>
</a>
</g>
</g>
<!-- Node1&#45;&gt;Node8 -->
<g id="edge10_Node000001_Node000008" class="edge">
<title>Node1&#45;&gt;Node8</title>
<g id="a_edge10_Node000001_Node000008"><a xlink:title=" ">
<path fill="none" stroke="#63b8ff" d="M397.09,-198.99C400.46,-179.69 405.65,-154.06 412.5,-132 416.35,-119.59 422.15,-106.03 426.68,-96.17"/>
<polygon fill="#63b8ff" stroke="#63b8ff" points="393.61,-198.55 395.4,-209 400.52,-199.72 393.61,-198.55"/>
</a>
</g>
</g>
<!-- Node9 -->
<g id="Node000009" class="node">
<title>Node9</title>
<g id="a_Node000009"><a xlink:href="advection__diffusion__operation_8cpp.html" target="_top" xlink:title=" ">
<polygon fill="white" stroke="#666666" points="568,-167.5 421,-167.5 421,-137.5 568,-137.5 568,-167.5"/>
<text text-anchor="start" x="429" y="-155.5" font-family="Helvetica,sans-Serif" font-size="10.00">source/level_set/advection</text>
<text text-anchor="middle" x="494.5" y="-144.5" font-family="Helvetica,sans-Serif" font-size="10.00">_diffusion_operation.cpp</text>
</a>
</g>
</g>
<!-- Node1&#45;&gt;Node9 -->
<g id="edge8_Node000001_Node000009" class="edge">
<title>Node1&#45;&gt;Node9</title>
<g id="a_edge8_Node000001_Node000009"><a xlink:title=" ">
<path fill="none" stroke="#63b8ff" d="M427.16,-203.01C443.21,-191.22 461.66,-177.65 475.19,-167.7"/>
<polygon fill="#63b8ff" stroke="#63b8ff" points="425.02,-200.25 419.03,-208.99 429.16,-205.89 425.02,-200.25"/>
</a>
</g>
</g>
<!-- Node10 -->
<g id="Node000010" class="node">
<title>Node10</title>
<g id="a_Node000010"><a xlink:href="level__set__DG__operation_8cpp.html" target="_top" xlink:title=" ">
<polygon fill="white" stroke="#666666" points="715,-167.5 586,-167.5 586,-137.5 715,-137.5 715,-167.5"/>
<text text-anchor="start" x="594" y="-155.5" font-family="Helvetica,sans-Serif" font-size="10.00">source/level_set/level</text>
<text text-anchor="middle" x="650.5" y="-144.5" font-family="Helvetica,sans-Serif" font-size="10.00">_set_DG_operation.cpp</text>
</a>
</g>
</g>
<!-- Node1&#45;&gt;Node10 -->
<g id="edge9_Node000001_Node000010" class="edge">
<title>Node1&#45;&gt;Node10</title>
<g id="a_edge9_Node000001_Node000010"><a xlink:title=" ">
<path fill="none" stroke="#63b8ff" d="M469.48,-206.12C512.49,-193.62 564.76,-178.42 602.06,-167.58"/>
<polygon fill="#63b8ff" stroke="#63b8ff" points="468.24,-202.84 459.61,-208.99 470.19,-209.56 468.24,-202.84"/>
</a>
</g>
</g>
<!-- Node4 -->
<g id="Node000004" class="node">
<title>Node4</title>
<g id="a_Node000004"><a xlink:href="level__set__application_8hpp.html" target="_top" xlink:title=" ">
<polygon fill="white" stroke="#666666" points="163,-96 0,-96 0,-66 163,-66 163,-96"/>
<text text-anchor="start" x="8" y="-84" font-family="Helvetica,sans-Serif" font-size="10.00">applications/mp&#45;level</text>
<text text-anchor="middle" x="81.5" y="-73" font-family="Helvetica,sans-Serif" font-size="10.00">&#45;set/level_set_application.hpp</text>
</a>
</g>
</g>
<!-- Node3&#45;&gt;Node4 -->
<g id="edge3_Node000003_Node000004" class="edge">
<title>Node3&#45;&gt;Node4</title>
<g id="a_edge3_Node000003_Node000004"><a xlink:title=" ">
<path fill="none" stroke="#63b8ff" d="M243.24,-131.52C206.14,-120.16 160.59,-106.22 127.3,-96.02"/>
<polygon fill="#63b8ff" stroke="#63b8ff" points="242.38,-134.92 252.97,-134.5 244.43,-128.22 242.38,-134.92"/>
</a>
</g>
</g>
<!-- Node6 -->
<g id="Node000006" class="node">
<title>Node6</title>
<g id="a_Node000006"><a xlink:href="melt__pool__application_8hpp.html" target="_top" xlink:title=" ">
<polygon fill="white" stroke="#666666" points="354,-96 181,-96 181,-66 354,-66 354,-96"/>
<text text-anchor="start" x="189" y="-84" font-family="Helvetica,sans-Serif" font-size="10.00">applications/mp&#45;melt</text>
<text text-anchor="middle" x="267.5" y="-73" font-family="Helvetica,sans-Serif" font-size="10.00">&#45;pool/melt_pool_application.hpp</text>
</a>
</g>
</g>
<!-- Node3&#45;&gt;Node6 -->
<g id="edge5_Node000003_Node000006" class="edge">
<title>Node3&#45;&gt;Node6</title>
<g id="a_edge5_Node000003_Node000006"><a xlink:title=" ">
<path fill="none" stroke="#63b8ff" d="M291.75,-123.11C286.25,-113.78 280.37,-103.82 275.78,-96.04"/>
<polygon fill="#63b8ff" stroke="#63b8ff" points="288.77,-124.94 296.86,-131.77 294.79,-121.38 288.77,-124.94"/>
</a>
</g>
</g>
<!-- Node3&#45;&gt;Node8 -->
<g id="edge7_Node000003_Node000008" class="edge">
<title>Node3&#45;&gt;Node8</title>
<g id="a_edge7_Node000003_Node000008"><a xlink:title=" ">
<path fill="none" stroke="#63b8ff" d="M352.56,-127C371.17,-116.66 392.17,-104.98 408.12,-96.11"/>
<polygon fill="#63b8ff" stroke="#63b8ff" points="350.69,-124.04 343.65,-131.96 354.09,-130.15 350.69,-124.04"/>
</a>
</g>
</g>
<!-- Node5 -->
<g id="Node000005" class="node">
<title>Node5</title>
<g id="a_Node000005"><a xlink:href="level__set__application_8cpp.html" target="_top" xlink:title=" ">
<polygon fill="white" stroke="#666666" points="162.5,-30 0.5,-30 0.5,0 162.5,0 162.5,-30"/>
<text text-anchor="start" x="8.5" y="-18" font-family="Helvetica,sans-Serif" font-size="10.00">applications/mp&#45;level</text>
<text text-anchor="middle" x="81.5" y="-7" font-family="Helvetica,sans-Serif" font-size="10.00">&#45;set/level_set_application.cpp</text>
</a>
</g>
</g>
<!-- Node4&#45;&gt;Node5 -->
<g id="edge4_Node000004_Node000005" class="edge">
<title>Node4&#45;&gt;Node5</title>
<g id="a_edge4_Node000004_Node000005"><a xlink:title=" ">
<path fill="none" stroke="#63b8ff" d="M81.5,-55.54C81.5,-46.96 81.5,-37.61 81.5,-30.16"/>
<polygon fill="#63b8ff" stroke="#63b8ff" points="78,-55.8 81.5,-65.8 85,-55.8 78,-55.8"/>
</a>
</g>
</g>
<!-- Node7 -->
<g id="Node000007" class="node">
<title>Node7</title>
<g id="a_Node000007"><a xlink:href="melt__pool__application_8cpp.html" target="_top" xlink:title=" ">
<polygon fill="white" stroke="#666666" points="354,-30 181,-30 181,0 354,0 354,-30"/>
<text text-anchor="start" x="189" y="-18" font-family="Helvetica,sans-Serif" font-size="10.00">applications/mp&#45;melt</text>
<text text-anchor="middle" x="267.5" y="-7" font-family="Helvetica,sans-Serif" font-size="10.00">&#45;pool/melt_pool_application.cpp</text>
</a>
</g>
</g>
<!-- Node6&#45;&gt;Node7 -->
<g id="edge6_Node000006_Node000007" class="edge">
<title>Node6&#45;&gt;Node7</title>
<g id="a_edge6_Node000006_Node000007"><a xlink:title=" ">
<path fill="none" stroke="#63b8ff" d="M267.5,-55.54C267.5,-46.96 267.5,-37.61 267.5,-30.16"/>
<polygon fill="#63b8ff" stroke="#63b8ff" points="264,-55.8 267.5,-65.8 271,-55.8 264,-55.8"/>
</a>
</g>
</g>
</g>
</svg>
