<?xml version="1.0" encoding="UTF-8" standalone="no"?>
<!DOCTYPE svg PUBLIC "-//W3C//DTD SVG 1.1//EN"
 "http://www.w3.org/Graphics/SVG/1.1/DTD/svg11.dtd">
<!-- Generated by graphviz version 2.43.0 (0)
 -->
<!-- Title: include/meltpooldg/utilities/amr_regions.hpp Pages: 1 -->
<svg width="1127pt" height="533pt"
 viewBox="0.00 0.00 1127.00 533.00" xmlns="http://www.w3.org/2000/svg" xmlns:xlink="http://www.w3.org/1999/xlink">
<g id="graph0" class="graph" transform="scale(1 1) rotate(0) translate(4 529)">
<title>include/meltpooldg/utilities/amr_regions.hpp</title>
<!-- Node1 -->
<g id="Node000001" class="node">
<title>Node1</title>
<g id="a_Node000001"><a xlink:title="Utilities for region&#45;based adaptive mesh refinement (AMR).">
<polygon fill="#999999" stroke="#666666" points="883.5,-525 742.5,-525 742.5,-495 883.5,-495 883.5,-525"/>
<text text-anchor="start" x="750.5" y="-513" font-family="Helvetica,sans-Serif" font-size="10.00">include/meltpooldg</text>
<text text-anchor="middle" x="813" y="-502" font-family="Helvetica,sans-Serif" font-size="10.00">/utilities/amr_regions.hpp</text>
</a>
</g>
</g>
<!-- Node2 -->
<g id="Node000002" class="node">
<title>Node2</title>
<g id="a_Node000002"><a xlink:href="obstacle__field_8hpp.html" target="_top" xlink:title=" ">
<polygon fill="white" stroke="#666666" points="548,-459 438,-459 438,-418 548,-418 548,-459"/>
<text text-anchor="start" x="446" y="-447" font-family="Helvetica,sans-Serif" font-size="10.00">include/meltpooldg</text>
<text text-anchor="start" x="446" y="-436" font-family="Helvetica,sans-Serif" font-size="10.00">/particles/obstacle</text>
<text text-anchor="middle" x="493" y="-425" font-family="Helvetica,sans-Serif" font-size="10.00">_field.hpp</text>
</a>
</g>
</g>
<!-- Node1&#45;&gt;Node2 -->
<g id="edge1_Node000001_Node000002" class="edge">
<title>Node1&#45;&gt;Node2</title>
<g id="a_edge1_Node000001_Node000002"><a xlink:title=" ">
<path fill="none" stroke="#63b8ff" d="M738.36,-492.79C680.14,-480.15 600.6,-462.87 548.07,-451.46"/>
<polygon fill="#63b8ff" stroke="#63b8ff" points="737.73,-496.23 748.24,-494.94 739.21,-489.39 737.73,-496.23"/>
</a>
</g>
</g>
<!-- Node16 -->
<g id="Node000016" class="node">
<title>Node16</title>
<g id="a_Node000016"><a xlink:href="obstacle__field_8cpp.html" target="_top" xlink:title=" ">
<polygon fill="white" stroke="#666666" points="1119,-371 981,-371 981,-341 1119,-341 1119,-371"/>
<text text-anchor="start" x="989" y="-359" font-family="Helvetica,sans-Serif" font-size="10.00">source/particles/obstacle</text>
<text text-anchor="middle" x="1050" y="-348" font-family="Helvetica,sans-Serif" font-size="10.00">_field.cpp</text>
</a>
</g>
</g>
<!-- Node1&#45;&gt;Node16 -->
<g id="edge30_Node000001_Node000016" class="edge">
<title>Node1&#45;&gt;Node16</title>
<g id="a_edge30_Node000001_Node000016"><a xlink:title=" ">
<path fill="none" stroke="#63b8ff" d="M811.51,-484.86C811.61,-464.45 815.16,-435.78 832,-418 874.69,-372.91 907.26,-398.96 967,-382 979.16,-378.55 992.28,-374.67 1004.41,-371.02"/>
<polygon fill="#63b8ff" stroke="#63b8ff" points="808.01,-485.03 811.73,-494.95 815.01,-484.87 808.01,-485.03"/>
</a>
</g>
</g>
<!-- Node17 -->
<g id="Node000017" class="node">
<title>Node17</title>
<g id="a_Node000017"><a xlink:href="case__utils_8cpp.html" target="_top" xlink:title=" ">
<polygon fill="white" stroke="#666666" points="958.5,-453.5 841.5,-453.5 841.5,-423.5 958.5,-423.5 958.5,-453.5"/>
<text text-anchor="start" x="849.5" y="-441.5" font-family="Helvetica,sans-Serif" font-size="10.00">source/compressible</text>
<text text-anchor="middle" x="900" y="-430.5" font-family="Helvetica,sans-Serif" font-size="10.00">_flow/case_utils.cpp</text>
</a>
</g>
</g>
<!-- Node1&#45;&gt;Node17 -->
<g id="edge29_Node000001_Node000017" class="edge">
<title>Node1&#45;&gt;Node17</title>
<g id="a_edge29_Node000001_Node000017"><a xlink:title=" ">
<path fill="none" stroke="#63b8ff" d="M838.51,-488.63C852.62,-477.35 869.81,-463.62 882.42,-453.54"/>
<polygon fill="#63b8ff" stroke="#63b8ff" points="836.23,-485.96 830.61,-494.94 840.6,-491.43 836.23,-485.96"/>
</a>
</g>
</g>
<!-- Node3 -->
<g id="Node000003" class="node">
<title>Node3</title>
<g id="a_Node000003"><a xlink:href="brinkman__penalization_8hpp.html" target="_top" xlink:title=" ">
<polygon fill="white" stroke="#666666" points="218,-211.5 66,-211.5 66,-170.5 218,-170.5 218,-211.5"/>
<text text-anchor="start" x="74" y="-199.5" font-family="Helvetica,sans-Serif" font-size="10.00">include/meltpooldg</text>
<text text-anchor="start" x="74" y="-188.5" font-family="Helvetica,sans-Serif" font-size="10.00">/fluid_structure_interaction</text>
<text text-anchor="middle" x="142" y="-177.5" font-family="Helvetica,sans-Serif" font-size="10.00">/brinkman_penalization.hpp</text>
</a>
</g>
</g>
<!-- Node2&#45;&gt;Node3 -->
<g id="edge2_Node000002_Node000003" class="edge">
<title>Node2&#45;&gt;Node3</title>
<g id="a_edge2_Node000002_Node000003"><a xlink:title=" ">
<path fill="none" stroke="#63b8ff" d="M427.92,-433.18C345.87,-426.58 210.73,-411.51 171,-382 122.37,-345.88 119.71,-313.14 127,-253 128.71,-238.93 132.55,-223.42 135.91,-211.56"/>
<polygon fill="#63b8ff" stroke="#63b8ff" points="427.65,-436.67 437.89,-433.96 428.2,-429.69 427.65,-436.67"/>
</a>
</g>
</g>
<!-- Node4 -->
<g id="Node000004" class="node">
<title>Node4</title>
<g id="a_Node000004"><a xlink:href="fluid__structure__interaction__factory_8hpp.html" target="_top" xlink:title=" ">
<polygon fill="white" stroke="#666666" points="305.5,-52 158.5,-52 158.5,0 305.5,0 305.5,-52"/>
<text text-anchor="start" x="166.5" y="-40" font-family="Helvetica,sans-Serif" font-size="10.00">include/meltpooldg</text>
<text text-anchor="start" x="166.5" y="-29" font-family="Helvetica,sans-Serif" font-size="10.00">/fluid_structure_interaction</text>
<text text-anchor="start" x="166.5" y="-18" font-family="Helvetica,sans-Serif" font-size="10.00">/fluid_structure_interaction</text>
<text text-anchor="middle" x="232" y="-7" font-family="Helvetica,sans-Serif" font-size="10.00">_factory.hpp</text>
</a>
</g>
</g>
<!-- Node2&#45;&gt;Node4 -->
<g id="edge5_Node000002_Node000004" class="edge">
<title>Node2&#45;&gt;Node4</title>
<g id="a_edge5_Node000002_Node000004"><a xlink:title=" ">
<path fill="none" stroke="#63b8ff" d="M427.59,-435.59C323.8,-431.46 127.17,-418.89 69,-382 21.06,-351.6 0,-331.27 0,-274.5 0,-274.5 0,-274.5 0,-190 0,-111.36 90.34,-67.4 158.27,-45.45"/>
<polygon fill="#63b8ff" stroke="#63b8ff" points="427.52,-439.09 437.64,-435.97 427.78,-432.09 427.52,-439.09"/>
</a>
</g>
</g>
<!-- Node5 -->
<g id="Node000005" class="node">
<title>Node5</title>
<g id="a_Node000005"><a xlink:href="brinkman__penalization_8cpp.html" target="_top" xlink:title=" ">
<polygon fill="white" stroke="#666666" points="294,-129 170,-129 170,-88 294,-88 294,-129"/>
<text text-anchor="start" x="178" y="-117" font-family="Helvetica,sans-Serif" font-size="10.00">source/fluid_structure</text>
<text text-anchor="start" x="178" y="-106" font-family="Helvetica,sans-Serif" font-size="10.00">_interaction/brinkman</text>
<text text-anchor="middle" x="232" y="-95" font-family="Helvetica,sans-Serif" font-size="10.00">_penalization.cpp</text>
</a>
</g>
</g>
<!-- Node2&#45;&gt;Node5 -->
<g id="edge23_Node000002_Node000005" class="edge">
<title>Node2&#45;&gt;Node5</title>
<g id="a_edge23_Node000002_Node000005"><a xlink:title=" ">
<path fill="none" stroke="#63b8ff" d="M427.64,-435.18C335.03,-430.65 171.79,-417.72 126,-382 46.2,-319.76 -2.77,-246.66 57,-165 82.6,-130.02 130.39,-116.54 169.57,-111.59"/>
<polygon fill="#63b8ff" stroke="#63b8ff" points="427.59,-438.68 437.74,-435.65 427.92,-431.69 427.59,-438.68"/>
</a>
</g>
</g>
<!-- Node6 -->
<g id="Node000006" class="node">
<title>Node6</title>
<g id="a_Node000006"><a xlink:href="fluid__structure__interaction__util_8hpp.html" target="_top" xlink:title=" ">
<polygon fill="white" stroke="#666666" points="327.5,-382 180.5,-382 180.5,-330 327.5,-330 327.5,-382"/>
<text text-anchor="start" x="188.5" y="-370" font-family="Helvetica,sans-Serif" font-size="10.00">include/meltpooldg</text>
<text text-anchor="start" x="188.5" y="-359" font-family="Helvetica,sans-Serif" font-size="10.00">/fluid_structure_interaction</text>
<text text-anchor="start" x="188.5" y="-348" font-family="Helvetica,sans-Serif" font-size="10.00">/fluid_structure_interaction</text>
<text text-anchor="middle" x="254" y="-337" font-family="Helvetica,sans-Serif" font-size="10.00">_util.hpp</text>
</a>
</g>
</g>
<!-- Node2&#45;&gt;Node6 -->
<g id="edge6_Node000002_Node000006" class="edge">
<title>Node2&#45;&gt;Node6</title>
<g id="a_edge6_Node000002_Node000006"><a xlink:title=" ">
<path fill="none" stroke="#63b8ff" d="M428.05,-415.62C397.09,-405.2 359.91,-392.67 327.87,-381.88"/>
<polygon fill="#63b8ff" stroke="#63b8ff" points="427.27,-419.06 437.87,-418.93 429.51,-412.42 427.27,-419.06"/>
</a>
</g>
</g>
<!-- Node9 -->
<g id="Node000009" class="node">
<title>Node9</title>
<g id="a_Node000009"><a xlink:href="stokes__law_8hpp.html" target="_top" xlink:title=" ">
<polygon fill="white" stroke="#666666" points="497.5,-129 350.5,-129 350.5,-88 497.5,-88 497.5,-129"/>
<text text-anchor="start" x="358.5" y="-117" font-family="Helvetica,sans-Serif" font-size="10.00">include/meltpooldg</text>
<text text-anchor="start" x="358.5" y="-106" font-family="Helvetica,sans-Serif" font-size="10.00">/fluid_structure_interaction</text>
<text text-anchor="middle" x="424" y="-95" font-family="Helvetica,sans-Serif" font-size="10.00">/stokes_law.hpp</text>
</a>
</g>
</g>
<!-- Node2&#45;&gt;Node9 -->
<g id="edge18_Node000002_Node000009" class="edge">
<title>Node2&#45;&gt;Node9</title>
<g id="a_edge18_Node000002_Node000009"><a xlink:title=" ">
<path fill="none" stroke="#63b8ff" d="M445.15,-411.94C434.4,-403.84 424.31,-393.85 418,-382 391.03,-331.38 386.93,-303.57 414,-253 427.61,-227.57 454.39,-242.43 468,-217 478.91,-196.62 475.6,-186.83 468,-165 463.31,-151.53 453.83,-138.87 444.88,-129.06"/>
<polygon fill="#63b8ff" stroke="#63b8ff" points="443.26,-414.88 453.46,-417.76 447.28,-409.15 443.26,-414.88"/>
</a>
</g>
</g>
<!-- Node10 -->
<g id="Node000010" class="node">
<title>Node10</title>
<g id="a_Node000010"><a xlink:href="stokes__law_8cpp.html" target="_top" xlink:title=" ">
<polygon fill="white" stroke="#666666" points="601.5,-41 450.5,-41 450.5,-11 601.5,-11 601.5,-41"/>
<text text-anchor="start" x="458.5" y="-29" font-family="Helvetica,sans-Serif" font-size="10.00">source/fluid_structure</text>
<text text-anchor="middle" x="526" y="-18" font-family="Helvetica,sans-Serif" font-size="10.00">_interaction/stokes_law.cpp</text>
</a>
</g>
</g>
<!-- Node2&#45;&gt;Node10 -->
<g id="edge24_Node000002_Node000010" class="edge">
<title>Node2&#45;&gt;Node10</title>
<g id="a_edge24_Node000002_Node000010"><a xlink:title=" ">
<path fill="none" stroke="#63b8ff" d="M558.55,-433.46C674.52,-425.7 906.26,-407.22 933,-382 968.35,-348.66 953,-323.1 953,-274.5 953,-274.5 953,-274.5 953,-190 953,-115.71 724.55,-62.89 601.85,-39.88"/>
<polygon fill="#63b8ff" stroke="#63b8ff" points="558.12,-429.98 548.37,-434.13 558.58,-436.97 558.12,-429.98"/>
</a>
</g>
</g>
<!-- Node11 -->
<g id="Node000011" class="node">
<title>Node11</title>
<g id="a_Node000011"><a xlink:href="cohesive__forces_8hpp.html" target="_top" xlink:title=" ">
<polygon fill="white" stroke="#666666" points="548,-376.5 438,-376.5 438,-335.5 548,-335.5 548,-376.5"/>
<text text-anchor="start" x="446" y="-364.5" font-family="Helvetica,sans-Serif" font-size="10.00">include/meltpooldg</text>
<text text-anchor="start" x="446" y="-353.5" font-family="Helvetica,sans-Serif" font-size="10.00">/particles/cohesive</text>
<text text-anchor="middle" x="493" y="-342.5" font-family="Helvetica,sans-Serif" font-size="10.00">_forces.hpp</text>
</a>
</g>
</g>
<!-- Node2&#45;&gt;Node11 -->
<g id="edge19_Node000002_Node000011" class="edge">
<title>Node2&#45;&gt;Node11</title>
<g id="a_edge19_Node000002_Node000011"><a xlink:title=" ">
<path fill="none" stroke="#63b8ff" d="M493,-407.37C493,-397.1 493,-385.9 493,-376.67"/>
<polygon fill="#63b8ff" stroke="#63b8ff" points="489.5,-407.6 493,-417.6 496.5,-407.6 489.5,-407.6"/>
</a>
</g>
</g>
<!-- Node12 -->
<g id="Node000012" class="node">
<title>Node12</title>
<g id="a_Node000012"><a xlink:href="cohesive__forces_8cpp.html" target="_top" xlink:title=" ">
<polygon fill="white" stroke="#666666" points="563,-288.5 423,-288.5 423,-258.5 563,-258.5 563,-288.5"/>
<text text-anchor="start" x="431" y="-276.5" font-family="Helvetica,sans-Serif" font-size="10.00">source/particles/cohesive</text>
<text text-anchor="middle" x="493" y="-265.5" font-family="Helvetica,sans-Serif" font-size="10.00">_forces.cpp</text>
</a>
</g>
</g>
<!-- Node2&#45;&gt;Node12 -->
<g id="edge26_Node000002_Node000012" class="edge">
<title>Node2&#45;&gt;Node12</title>
<g id="a_edge26_Node000002_Node000012"><a xlink:title=" ">
<path fill="none" stroke="#63b8ff" d="M452.22,-411.33C442.86,-403.17 434.15,-393.29 429,-382 419.4,-360.98 419.4,-351.02 429,-330 437.06,-312.34 453.82,-298.14 468.17,-288.52"/>
<polygon fill="#63b8ff" stroke="#63b8ff" points="450.2,-414.2 460.17,-417.79 454.61,-408.77 450.2,-414.2"/>
</a>
</g>
</g>
<!-- Node13 -->
<g id="Node000013" class="node">
<title>Node13</title>
<g id="a_Node000013"><a xlink:href="contact__forces_8hpp.html" target="_top" xlink:title=" ">
<polygon fill="white" stroke="#666666" points="761.5,-371 604.5,-371 604.5,-341 761.5,-341 761.5,-371"/>
<text text-anchor="start" x="612.5" y="-359" font-family="Helvetica,sans-Serif" font-size="10.00">include/meltpooldg</text>
<text text-anchor="middle" x="683" y="-348" font-family="Helvetica,sans-Serif" font-size="10.00">/particles/contact_forces.hpp</text>
</a>
</g>
</g>
<!-- Node2&#45;&gt;Node13 -->
<g id="edge21_Node000002_Node000013" class="edge">
<title>Node2&#45;&gt;Node13</title>
<g id="a_edge21_Node000002_Node000013"><a xlink:title=" ">
<path fill="none" stroke="#63b8ff" d="M548.95,-413.8C581.72,-399.91 622,-382.84 649.81,-371.06"/>
<polygon fill="#63b8ff" stroke="#63b8ff" points="547.32,-410.68 539.48,-417.81 550.05,-417.13 547.32,-410.68"/>
</a>
</g>
</g>
<!-- Node14 -->
<g id="Node000014" class="node">
<title>Node14</title>
<g id="a_Node000014"><a xlink:href="contact__forces_8cpp.html" target="_top" xlink:title=" ">
<polygon fill="white" stroke="#666666" points="732.5,-288.5 599.5,-288.5 599.5,-258.5 732.5,-258.5 732.5,-288.5"/>
<text text-anchor="start" x="607.5" y="-276.5" font-family="Helvetica,sans-Serif" font-size="10.00">source/particles/contact</text>
<text text-anchor="middle" x="666" y="-265.5" font-family="Helvetica,sans-Serif" font-size="10.00">_forces.cpp</text>
</a>
</g>
</g>
<!-- Node2&#45;&gt;Node14 -->
<g id="edge27_Node000002_Node000014" class="edge">
<title>Node2&#45;&gt;Node14</title>
<g id="a_edge27_Node000002_Node000014"><a xlink:title=" ">
<path fill="none" stroke="#63b8ff" d="M525.93,-411.41C536.33,-402.54 547.56,-392.26 557,-382 576.38,-360.93 575.09,-350.57 595,-330 610.24,-314.26 630.04,-299.14 644.86,-288.67"/>
<polygon fill="#63b8ff" stroke="#63b8ff" points="523.61,-408.79 518.19,-417.89 528.1,-414.16 523.61,-408.79"/>
</a>
</g>
</g>
<!-- Node15 -->
<g id="Node000015" class="node">
<title>Node15</title>
<g id="a_Node000015"><a xlink:href="cell__batch__particle__cache_8cpp.html" target="_top" xlink:title=" ">
<polygon fill="white" stroke="#666666" points="924.5,-371 779.5,-371 779.5,-341 924.5,-341 924.5,-371"/>
<text text-anchor="start" x="787.5" y="-359" font-family="Helvetica,sans-Serif" font-size="10.00">source/particles/cell</text>
<text text-anchor="middle" x="852" y="-348" font-family="Helvetica,sans-Serif" font-size="10.00">_batch_particle_cache.cpp</text>
</a>
</g>
</g>
<!-- Node2&#45;&gt;Node15 -->
<g id="edge25_Node000002_Node000015" class="edge">
<title>Node2&#45;&gt;Node15</title>
<g id="a_edge25_Node000002_Node000015"><a xlink:title=" ">
<path fill="none" stroke="#63b8ff" d="M557.87,-426.36C614.26,-416.24 697.99,-400.14 770,-382 782.7,-378.8 796.36,-374.85 808.82,-371.03"/>
<polygon fill="#63b8ff" stroke="#63b8ff" points="557.25,-422.92 548.02,-428.12 558.48,-429.81 557.25,-422.92"/>
</a>
</g>
</g>
<!-- Node2&#45;&gt;Node16 -->
<g id="edge28_Node000002_Node000016" class="edge">
<title>Node2&#45;&gt;Node16</title>
<g id="a_edge28_Node000002_Node000016"><a xlink:title=" ">
<path fill="none" stroke="#63b8ff" d="M558.24,-433.51C650.17,-427.06 822.73,-411.93 967,-382 980.7,-379.16 995.4,-375.08 1008.57,-371.04"/>
<polygon fill="#63b8ff" stroke="#63b8ff" points="557.98,-430.02 548.24,-434.2 558.46,-437 557.98,-430.02"/>
</a>
</g>
</g>
<!-- Node3&#45;&gt;Node4 -->
<g id="edge3_Node000003_Node000004" class="edge">
<title>Node3&#45;&gt;Node4</title>
<g id="a_edge3_Node000003_Node000004"><a xlink:title=" ">
<path fill="none" stroke="#63b8ff" d="M142.38,-160.14C143.84,-138.78 148.31,-110.03 161,-88 168.95,-74.2 181.22,-62.03 193.33,-52.26"/>
<polygon fill="#63b8ff" stroke="#63b8ff" points="138.88,-160.1 141.87,-170.26 145.87,-160.45 138.88,-160.1"/>
</a>
</g>
</g>
<!-- Node3&#45;&gt;Node5 -->
<g id="edge4_Node000003_Node000005" class="edge">
<title>Node3&#45;&gt;Node5</title>
<g id="a_edge4_Node000003_Node000005"><a xlink:title=" ">
<path fill="none" stroke="#63b8ff" d="M171.75,-163.39C184.24,-152.22 198.5,-139.47 210.01,-129.17"/>
<polygon fill="#63b8ff" stroke="#63b8ff" points="169.37,-160.83 164.25,-170.1 174.03,-166.04 169.37,-160.83"/>
</a>
</g>
</g>
<!-- Node6&#45;&gt;Node3 -->
<g id="edge7_Node000006_Node000003" class="edge">
<title>Node6&#45;&gt;Node3</title>
<g id="a_edge7_Node000006_Node000003"><a xlink:title=" ">
<path fill="none" stroke="#63b8ff" d="M171.53,-325.16C158.95,-316.99 147.64,-306.75 140,-294 124.89,-268.78 130.22,-233.38 135.83,-211.6"/>
<polygon fill="#63b8ff" stroke="#63b8ff" points="170.04,-328.34 180.41,-330.49 173.64,-322.34 170.04,-328.34"/>
</a>
</g>
</g>
<!-- Node6&#45;&gt;Node5 -->
<g id="edge17_Node000006_Node000005" class="edge">
<title>Node6&#45;&gt;Node5</title>
<g id="a_edge17_Node000006_Node000005"><a xlink:title=" ">
<path fill="none" stroke="#63b8ff" d="M312.07,-323.5C322.13,-315.29 331.2,-305.46 337,-294 345.23,-277.74 343.73,-269.93 337,-253 328.87,-232.55 316.67,-234.25 303,-217 279.94,-187.9 256.93,-151.34 243.6,-129.23"/>
<polygon fill="#63b8ff" stroke="#63b8ff" points="309.69,-320.91 303.84,-329.74 313.92,-326.49 309.69,-320.91"/>
</a>
</g>
</g>
<!-- Node7 -->
<g id="Node000007" class="node">
<title>Node7</title>
<g id="a_Node000007"><a xlink:href="brinkman__penalization__data_8hpp.html" target="_top" xlink:title=" ">
<polygon fill="white" stroke="#666666" points="328.5,-294 149.5,-294 149.5,-253 328.5,-253 328.5,-294"/>
<text text-anchor="start" x="157.5" y="-282" font-family="Helvetica,sans-Serif" font-size="10.00">include/meltpooldg</text>
<text text-anchor="start" x="157.5" y="-271" font-family="Helvetica,sans-Serif" font-size="10.00">/fluid_structure_interaction</text>
<text text-anchor="middle" x="239" y="-260" font-family="Helvetica,sans-Serif" font-size="10.00">/brinkman_penalization_data.hpp</text>
</a>
</g>
</g>
<!-- Node6&#45;&gt;Node7 -->
<g id="edge8_Node000006_Node000007" class="edge">
<title>Node6&#45;&gt;Node7</title>
<g id="a_edge8_Node000006_Node000007"><a xlink:title=" ">
<path fill="none" stroke="#63b8ff" d="M247.45,-319.87C245.81,-311.05 244.11,-301.9 242.66,-294.15"/>
<polygon fill="#63b8ff" stroke="#63b8ff" points="244.06,-320.78 249.34,-329.97 250.95,-319.5 244.06,-320.78"/>
</a>
</g>
</g>
<!-- Node7&#45;&gt;Node3 -->
<g id="edge9_Node000007_Node000003" class="edge">
<title>Node7&#45;&gt;Node3</title>
<g id="a_edge9_Node000007_Node000003"><a xlink:title=" ">
<path fill="none" stroke="#63b8ff" d="M207.32,-246.21C193.77,-234.96 178.23,-222.06 165.7,-211.67"/>
<polygon fill="#63b8ff" stroke="#63b8ff" points="205.09,-248.91 215.02,-252.6 209.56,-243.52 205.09,-248.91"/>
</a>
</g>
</g>
<!-- Node7&#45;&gt;Node5 -->
<g id="edge16_Node000007_Node000005" class="edge">
<title>Node7&#45;&gt;Node5</title>
<g id="a_edge16_Node000007_Node000005"><a xlink:title=" ">
<path fill="none" stroke="#63b8ff" d="M237.71,-242.44C236.29,-209.44 234.06,-157.42 232.85,-129.23"/>
<polygon fill="#63b8ff" stroke="#63b8ff" points="234.23,-243 238.16,-252.84 241.22,-242.7 234.23,-243"/>
</a>
</g>
</g>
<!-- Node8 -->
<g id="Node000008" class="node">
<title>Node8</title>
<g id="a_Node000008"><a xlink:href="fluid__structure__interaction__data_8hpp.html" target="_top" xlink:title=" ">
<polygon fill="white" stroke="#666666" points="459.5,-217 312.5,-217 312.5,-165 459.5,-165 459.5,-217"/>
<text text-anchor="start" x="320.5" y="-205" font-family="Helvetica,sans-Serif" font-size="10.00">include/meltpooldg</text>
<text text-anchor="start" x="320.5" y="-194" font-family="Helvetica,sans-Serif" font-size="10.00">/fluid_structure_interaction</text>
<text text-anchor="start" x="320.5" y="-183" font-family="Helvetica,sans-Serif" font-size="10.00">/fluid_structure_interaction</text>
<text text-anchor="middle" x="386" y="-172" font-family="Helvetica,sans-Serif" font-size="10.00">_data.hpp</text>
</a>
</g>
</g>
<!-- Node7&#45;&gt;Node8 -->
<g id="edge10_Node000007_Node000008" class="edge">
<title>Node7&#45;&gt;Node8</title>
<g id="a_edge10_Node000007_Node000008"><a xlink:title=" ">
<path fill="none" stroke="#63b8ff" d="M284,-247.86C301.8,-238.11 322.23,-226.92 340.12,-217.13"/>
<polygon fill="#63b8ff" stroke="#63b8ff" points="282.05,-244.93 274.96,-252.81 285.41,-251.07 282.05,-244.93"/>
</a>
</g>
</g>
<!-- Node8&#45;&gt;Node4 -->
<g id="edge11_Node000008_Node000004" class="edge">
<title>Node8&#45;&gt;Node4</title>
<g id="a_edge11_Node000008_Node000004"><a xlink:title=" ">
<path fill="none" stroke="#63b8ff" d="M361.18,-156.51C345.38,-135.97 324,-109.57 303,-88 290.87,-75.54 276.48,-62.84 263.83,-52.28"/>
<polygon fill="#63b8ff" stroke="#63b8ff" points="358.53,-158.81 367.38,-164.64 364.1,-154.57 358.53,-158.81"/>
</a>
</g>
</g>
<!-- Node8&#45;&gt;Node9 -->
<g id="edge12_Node000008_Node000009" class="edge">
<title>Node8&#45;&gt;Node9</title>
<g id="a_edge12_Node000008_Node000009"><a xlink:title=" ">
<path fill="none" stroke="#63b8ff" d="M402.17,-155.74C406.46,-146.65 410.95,-137.15 414.73,-129.15"/>
<polygon fill="#63b8ff" stroke="#63b8ff" points="398.92,-154.43 397.82,-164.97 405.25,-157.42 398.92,-154.43"/>
</a>
</g>
</g>
<!-- Node8&#45;&gt;Node10 -->
<g id="edge15_Node000008_Node000010" class="edge">
<title>Node8&#45;&gt;Node10</title>
<g id="a_edge15_Node000008_Node000010"><a xlink:title=" ">
<path fill="none" stroke="#63b8ff" d="M468.64,-160.7C482.86,-152.4 496.2,-141.97 506,-129 525.8,-102.8 527.56,-62.3 526.92,-41.07"/>
<polygon fill="#63b8ff" stroke="#63b8ff" points="466.78,-157.73 459.69,-165.6 470.14,-163.87 466.78,-157.73"/>
</a>
</g>
</g>
<!-- Node9&#45;&gt;Node4 -->
<g id="edge13_Node000009_Node000004" class="edge">
<title>Node9&#45;&gt;Node4</title>
<g id="a_edge13_Node000009_Node000004"><a xlink:title=" ">
<path fill="none" stroke="#63b8ff" d="M367.77,-83.92C343.94,-73.93 316.15,-62.28 291.93,-52.13"/>
<polygon fill="#63b8ff" stroke="#63b8ff" points="366.46,-87.17 377.03,-87.81 369.16,-80.71 366.46,-87.17"/>
</a>
</g>
</g>
<!-- Node9&#45;&gt;Node10 -->
<g id="edge14_Node000009_Node000010" class="edge">
<title>Node9&#45;&gt;Node10</title>
<g id="a_edge14_Node000009_Node000010"><a xlink:title=" ">
<path fill="none" stroke="#63b8ff" d="M456.99,-81.47C473.94,-68.09 493.93,-52.31 508.02,-41.19"/>
<polygon fill="#63b8ff" stroke="#63b8ff" points="454.63,-78.86 448.95,-87.81 458.97,-84.36 454.63,-78.86"/>
</a>
</g>
</g>
<!-- Node11&#45;&gt;Node12 -->
<g id="edge20_Node000011_Node000012" class="edge">
<title>Node11&#45;&gt;Node12</title>
<g id="a_edge20_Node000011_Node000012"><a xlink:title=" ">
<path fill="none" stroke="#63b8ff" d="M493,-324.76C493,-312.46 493,-298.83 493,-288.87"/>
<polygon fill="#63b8ff" stroke="#63b8ff" points="489.5,-325.1 493,-335.1 496.5,-325.1 489.5,-325.1"/>
</a>
</g>
</g>
<!-- Node13&#45;&gt;Node14 -->
<g id="edge22_Node000013_Node000014" class="edge">
<title>Node13&#45;&gt;Node14</title>
<g id="a_edge22_Node000013_Node000014"><a xlink:title=" ">
<path fill="none" stroke="#63b8ff" d="M677.96,-331.15C675.04,-317.31 671.46,-300.37 668.98,-288.63"/>
<polygon fill="#63b8ff" stroke="#63b8ff" points="674.55,-331.92 680.04,-340.98 681.4,-330.47 674.55,-331.92"/>
</a>
</g>
</g>
</g>
</svg>
