<?xml version="1.0" encoding="UTF-8" standalone="no"?>
<!DOCTYPE svg PUBLIC "-//W3C//DTD SVG 1.1//EN"
 "http://www.w3.org/Graphics/SVG/1.1/DTD/svg11.dtd">
<!-- Generated by graphviz version 2.43.0 (0)
 -->
<!-- Title: applications/mp&#45;heat&#45;transfer/cases/powder_bed/powder_bed.hpp Pages: 1 -->
<!--zoomable 313 -->

<svg id="main" version="1.1" xmlns="http://www.w3.org/2000/svg" xmlns:xlink="http://www.w3.org/1999/xlink" xml:space="preserve" onload="init(evt)">
<style type="text/css"><![CDATA[
.node, .edge {opacity: 0.7;}
.node.selected, .edge.selected {opacity: 1;}
.edge:hover path { stroke: red; }
.edge:hover polygon { stroke: red; fill: red; }
]]></style>

<defs>
  <circle id="rim" cx="0" cy="0" r="7"/>
  <circle id="rim2" cx="0" cy="0" r="3.5"/>
  <g id="zoomPlus">
    <use xlink:href="#rim" fill="#404040"><set attributeName="fill" to="#808080" begin="zoomplus.mouseover" end="zoomplus.mouseout"/></use>
    <path d="M-4,0h8M0,-4v8" fill="none" stroke="white" stroke-width="1.5" pointer-events="none"/>
  </g>
  <g id="zoomMin">
    <use xlink:href="#rim" fill="#404040"><set attributeName="fill" to="#808080" begin="zoomminus.mouseover" end="zoomminus.mouseout"/></use>
    <path d="M-4,0h8" fill="none" stroke="white" stroke-width="1.5" pointer-events="none"/>
  </g>
  <g id="arrowUp" transform="translate(30 24)">
    <use xlink:href="#rim"/>
    <path pointer-events="none" fill="none" stroke="white" stroke-width="1.5" d="M0,-3.0v7 M-2.5,-0.5L0,-3.0L2.5,-0.5"/>
  </g>
  <g id="arrowRight" transform="rotate(90) translate(36 -43)">
    <use xlink:href="#rim"/>
    <path pointer-events="none" fill="none" stroke="white" stroke-width="1.5" d="M0,-3.0v7 M-2.5,-0.5L0,-3.0L2.5,-0.5"/>
  </g>
  <g id="arrowDown" transform="rotate(180) translate(-30 -48)">
    <use xlink:href="#rim"/>
    <path pointer-events="none" fill="none" stroke="white" stroke-width="1.5" d="M0,-3.0v7 M-2.5,-0.5L0,-3.0L2.5,-0.5"/>
  </g>
  <g id="arrowLeft" transform="rotate(270) translate(-36 17)">
    <use xlink:href="#rim"/>
    <path pointer-events="none" fill="none" stroke="white" stroke-width="1.5" d="M0,-3.0v7 M-2.5,-0.5L0,-3.0L2.5,-0.5"/>
  </g>
  <g id="resetDef">
    <use xlink:href="#rim2" fill="#404040"><set attributeName="fill" to="#808080" begin="reset.mouseover" end="reset.mouseout"/></use>
  </g>
</defs>
<script type="application/ecmascript">
var viewWidth = 1758;
var viewHeight = 313;
var sectionId = 'dynsection-0';
</script>
<script type="application/ecmascript" xlink:href="svg.min.js"/>
<svg id="graph" class="graph">
<g id="viewport">
<title>applications/mp&#45;heat&#45;transfer/cases/powder_bed/powder_bed.hpp</title>
<!-- Node1 -->
<g id="Node000001" class="node">
<title>Node1</title>
<g id="a_Node000001"><a xlink:title=" ">
<polygon fill="#999999" stroke="#666666" points="1411,-305 1283,-305 1283,-264 1411,-264 1411,-305"/>
<text text-anchor="start" x="1291" y="-293" font-family="Helvetica,sans-Serif" font-size="10.00">applications/mp&#45;heat</text>
<text text-anchor="start" x="1291" y="-282" font-family="Helvetica,sans-Serif" font-size="10.00">&#45;transfer/cases/powder</text>
<text text-anchor="middle" x="1347" y="-271" font-family="Helvetica,sans-Serif" font-size="10.00">_bed/powder_bed.hpp</text>
</a>
</g>
</g>
<!-- Node2 -->
<g id="Node000002" class="node">
<title>Node2</title>
<g id="a_Node000002"><a xlink:title=" ">
<polygon fill="#e0e0e0" stroke="#999999" points="104,-222.5 0,-222.5 0,-203.5 104,-203.5 104,-222.5"/>
<text text-anchor="middle" x="52" y="-210.5" font-family="Helvetica,sans-Serif" font-size="10.00">deal.II/base/mpi.h</text>
</a>
</g>
</g>
<!-- Node1&#45;&gt;Node2 -->
<g id="edge1_Node000001_Node000002" class="edge">
<title>Node1&#45;&gt;Node2</title>
<g id="a_edge1_Node000001_Node000002"><a xlink:title=" ">
<path fill="none" stroke="#63b8ff" d="M1282.74,-281.99C1063.62,-276.62 346.68,-257.22 118,-228 111.21,-227.13 104.08,-225.93 97.12,-224.59"/>
<polygon fill="#63b8ff" stroke="#63b8ff" points="97.59,-221.12 87.1,-222.56 96.2,-227.98 97.59,-221.12"/>
</a>
</g>
</g>
<!-- Node3 -->
<g id="Node000003" class="node">
<title>Node3</title>
<g id="a_Node000003"><a xlink:title=" ">
<polygon fill="#e0e0e0" stroke="#999999" points="184.5,-30 57.5,-30 57.5,0 184.5,0 184.5,-30"/>
<text text-anchor="start" x="65.5" y="-18" font-family="Helvetica,sans-Serif" font-size="10.00">deal.II/base/parameter</text>
<text text-anchor="middle" x="121" y="-7" font-family="Helvetica,sans-Serif" font-size="10.00">_handler.h</text>
</a>
</g>
</g>
<!-- Node1&#45;&gt;Node3 -->
<g id="edge2_Node000001_Node000003" class="edge">
<title>Node1&#45;&gt;Node3</title>
<g id="a_edge2_Node000001_Node000003"><a xlink:title=" ">
<path fill="none" stroke="#63b8ff" d="M1282.98,-280.46C1078.44,-270.11 442.92,-232.91 251,-162 202.09,-143.93 186.88,-136.47 154,-96 140.58,-79.49 131.91,-56.76 126.84,-39.75"/>
<polygon fill="#63b8ff" stroke="#63b8ff" points="130.18,-38.71 124.14,-30.01 123.44,-40.58 130.18,-38.71"/>
</a>
</g>
</g>
<!-- Node4 -->
<g id="Node000004" class="node">
<title>Node4</title>
<g id="a_Node000004"><a xlink:href="include_2meltpooldg_2utilities_2powder__bed_8hpp.html" target="_top" xlink:title=" ">
<polygon fill="white" stroke="#666666" points="1403,-228 1291,-228 1291,-198 1403,-198 1403,-228"/>
<text text-anchor="start" x="1299" y="-216" font-family="Helvetica,sans-Serif" font-size="10.00">meltpooldg/utilities</text>
<text text-anchor="middle" x="1347" y="-205" font-family="Helvetica,sans-Serif" font-size="10.00">/powder_bed.hpp</text>
</a>
</g>
</g>
<!-- Node1&#45;&gt;Node4 -->
<g id="edge3_Node000001_Node000004" class="edge">
<title>Node1&#45;&gt;Node4</title>
<g id="a_edge3_Node000001_Node000004"><a xlink:title=" ">
<path fill="none" stroke="#63b8ff" d="M1347,-263.77C1347,-255.85 1347,-246.63 1347,-238.3"/>
<polygon fill="#63b8ff" stroke="#63b8ff" points="1350.5,-238.04 1347,-228.04 1343.5,-238.04 1350.5,-238.04"/>
</a>
</g>
</g>
<!-- Node13 -->
<g id="Node000013" class="node">
<title>Node13</title>
<g id="a_Node000013"><a xlink:title=" ">
<polygon fill="#e0e0e0" stroke="#999999" points="1720,-24.5 1676,-24.5 1676,-5.5 1720,-5.5 1720,-24.5"/>
<text text-anchor="middle" x="1698" y="-12.5" font-family="Helvetica,sans-Serif" font-size="10.00">string</text>
</a>
</g>
</g>
<!-- Node1&#45;&gt;Node13 -->
<g id="edge35_Node000001_Node000013" class="edge">
<title>Node1&#45;&gt;Node13</title>
<g id="a_edge35_Node000001_Node000013"><a xlink:title=" ">
<path fill="none" stroke="#63b8ff" d="M1411.04,-276.56C1462.13,-269.28 1534.57,-254.99 1593,-228 1674.53,-190.34 1711.95,-179.1 1746,-96 1751.06,-83.66 1750.98,-78.37 1746,-66 1740.4,-52.08 1728.87,-39.86 1718.52,-30.99"/>
<polygon fill="#63b8ff" stroke="#63b8ff" points="1720.58,-28.16 1710.6,-24.62 1716.2,-33.61 1720.58,-28.16"/>
</a>
</g>
</g>
<!-- Node25 -->
<g id="Node000025" class="node">
<title>Node25</title>
<g id="a_Node000025"><a xlink:title=" ">
<polygon fill="#e0e0e0" stroke="#999999" points="1721.5,-90.5 1674.5,-90.5 1674.5,-71.5 1721.5,-71.5 1721.5,-90.5"/>
<text text-anchor="middle" x="1698" y="-78.5" font-family="Helvetica,sans-Serif" font-size="10.00">vector</text>
</a>
</g>
</g>
<!-- Node1&#45;&gt;Node25 -->
<g id="edge36_Node000001_Node000025" class="edge">
<title>Node1&#45;&gt;Node25</title>
<g id="a_edge36_Node000001_Node000025"><a xlink:title=" ">
<path fill="none" stroke="#63b8ff" d="M1411.09,-272.34C1479.25,-257.57 1586.7,-225.6 1657,-162 1675.49,-145.27 1686.87,-118.27 1692.81,-100.33"/>
<polygon fill="#63b8ff" stroke="#63b8ff" points="1696.17,-101.32 1695.76,-90.73 1689.48,-99.26 1696.17,-101.32"/>
</a>
</g>
</g>
<!-- Node4&#45;&gt;Node3 -->
<g id="edge5_Node000004_Node000003" class="edge">
<title>Node4&#45;&gt;Node3</title>
<g id="a_edge5_Node000004_Node000003"><a xlink:title=" ">
<path fill="none" stroke="#63b8ff" d="M1290.95,-211.12C1112.47,-208 558.79,-195.78 383,-162 293.56,-144.81 264.32,-147.21 189,-96 166.79,-80.9 147.63,-56.69 135.35,-38.85"/>
<polygon fill="#63b8ff" stroke="#63b8ff" points="138.04,-36.57 129.59,-30.18 132.21,-40.45 138.04,-36.57"/>
</a>
</g>
</g>
<!-- Node5 -->
<g id="Node000005" class="node">
<title>Node5</title>
<g id="a_Node000005"><a xlink:title=" ">
<polygon fill="#e0e0e0" stroke="#999999" points="1647.5,-156.5 1522.5,-156.5 1522.5,-137.5 1647.5,-137.5 1647.5,-156.5"/>
<text text-anchor="middle" x="1585" y="-144.5" font-family="Helvetica,sans-Serif" font-size="10.00">deal.II/base/function.h</text>
</a>
</g>
</g>
<!-- Node4&#45;&gt;Node5 -->
<g id="edge4_Node000004_Node000005" class="edge">
<title>Node4&#45;&gt;Node5</title>
<g id="a_edge4_Node000004_Node000005"><a xlink:title=" ">
<path fill="none" stroke="#63b8ff" d="M1399.23,-197.95C1442.62,-186.29 1503.53,-169.91 1543.61,-159.13"/>
<polygon fill="#63b8ff" stroke="#63b8ff" points="1544.58,-162.49 1553.33,-156.52 1542.76,-155.73 1544.58,-162.49"/>
</a>
</g>
</g>
<!-- Node6 -->
<g id="Node000006" class="node">
<title>Node6</title>
<g id="a_Node000006"><a xlink:title=" ">
<polygon fill="#e0e0e0" stroke="#999999" points="438,-90.5 328,-90.5 328,-71.5 438,-71.5 438,-90.5"/>
<text text-anchor="middle" x="383" y="-78.5" font-family="Helvetica,sans-Serif" font-size="10.00">deal.II/base/point.h</text>
</a>
</g>
</g>
<!-- Node4&#45;&gt;Node6 -->
<g id="edge6_Node000004_Node000006" class="edge">
<title>Node4&#45;&gt;Node6</title>
<g id="a_edge6_Node000004_Node000006"><a xlink:title=" ">
<path fill="none" stroke="#63b8ff" d="M1290.92,-206.49C1149.03,-192.18 764.43,-151.07 447,-96 441.26,-95 435.25,-93.85 429.31,-92.63"/>
<polygon fill="#63b8ff" stroke="#63b8ff" points="429.95,-89.19 419.44,-90.55 428.51,-96.04 429.95,-89.19"/>
</a>
</g>
</g>
<!-- Node7 -->
<g id="Node000007" class="node">
<title>Node7</title>
<g id="a_Node000007"><a xlink:href="level__set__type_8hpp.html" target="_top" xlink:title=" ">
<polygon fill="white" stroke="#666666" points="511.5,-162 392.5,-162 392.5,-132 511.5,-132 511.5,-162"/>
<text text-anchor="start" x="400.5" y="-150" font-family="Helvetica,sans-Serif" font-size="10.00">meltpooldg/level_set</text>
<text text-anchor="middle" x="452" y="-139" font-family="Helvetica,sans-Serif" font-size="10.00">/level_set_type.hpp</text>
</a>
</g>
</g>
<!-- Node4&#45;&gt;Node7 -->
<g id="edge7_Node000004_Node000007" class="edge">
<title>Node4&#45;&gt;Node7</title>
<g id="a_edge7_Node000004_Node000007"><a xlink:title=" ">
<path fill="none" stroke="#63b8ff" d="M1290.67,-207.97C1134.06,-196.77 693.67,-165.28 521.87,-153"/>
<polygon fill="#63b8ff" stroke="#63b8ff" points="521.91,-149.49 511.68,-152.27 521.41,-156.47 521.91,-149.49"/>
</a>
</g>
</g>
<!-- Node4&#45;&gt;Node13 -->
<g id="edge32_Node000004_Node000013" class="edge">
<title>Node4&#45;&gt;Node13</title>
<g id="a_edge32_Node000004_Node000013"><a xlink:title=" ">
<path fill="none" stroke="#63b8ff" d="M1403.26,-212.26C1467.6,-210.5 1574.67,-201.17 1657,-162 1696.79,-143.07 1712.98,-136.22 1731,-96 1740.64,-74.48 1726.06,-49.28 1713.33,-33"/>
<polygon fill="#63b8ff" stroke="#63b8ff" points="1715.71,-30.39 1706.62,-24.95 1710.34,-34.87 1715.71,-30.39"/>
</a>
</g>
</g>
<!-- Node14 -->
<g id="Node000014" class="node">
<title>Node14</title>
<g id="a_Node000014"><a xlink:href="utilities_2utility__functions_8hpp.html" target="_top" xlink:title=" ">
<polygon fill="white" stroke="#666666" points="1267.5,-162 1148.5,-162 1148.5,-132 1267.5,-132 1267.5,-162"/>
<text text-anchor="start" x="1156.5" y="-150" font-family="Helvetica,sans-Serif" font-size="10.00">meltpooldg/utilities</text>
<text text-anchor="middle" x="1208" y="-139" font-family="Helvetica,sans-Serif" font-size="10.00">/utility_functions.hpp</text>
</a>
</g>
</g>
<!-- Node4&#45;&gt;Node14 -->
<g id="edge15_Node000004_Node000014" class="edge">
<title>Node4&#45;&gt;Node14</title>
<g id="a_edge15_Node000004_Node000014"><a xlink:title=" ">
<path fill="none" stroke="#63b8ff" d="M1316.5,-197.95C1296.31,-188.66 1269.63,-176.38 1247.78,-166.32"/>
<polygon fill="#63b8ff" stroke="#63b8ff" points="1248.98,-163.02 1238.43,-162.01 1246.05,-169.37 1248.98,-163.02"/>
</a>
</g>
</g>
<!-- Node4&#45;&gt;Node25 -->
<g id="edge34_Node000004_Node000025" class="edge">
<title>Node4&#45;&gt;Node25</title>
<g id="a_edge34_Node000004_Node000025"><a xlink:title=" ">
<path fill="none" stroke="#63b8ff" d="M1365.58,-197.7C1395.47,-174.7 1450.92,-132.03 1451,-132 1537.33,-94.16 1568.95,-120.39 1660,-96 1662.44,-95.35 1664.94,-94.6 1667.43,-93.8"/>
<polygon fill="#63b8ff" stroke="#63b8ff" points="1668.6,-97.11 1676.92,-90.54 1666.32,-90.49 1668.6,-97.11"/>
</a>
</g>
</g>
<!-- Node26 -->
<g id="Node000026" class="node">
<title>Node26</title>
<g id="a_Node000026"><a xlink:title=" ">
<polygon fill="#e0e0e0" stroke="#999999" points="1340.5,-156.5 1285.5,-156.5 1285.5,-137.5 1340.5,-137.5 1340.5,-156.5"/>
<text text-anchor="middle" x="1313" y="-144.5" font-family="Helvetica,sans-Serif" font-size="10.00">fstream</text>
</a>
</g>
</g>
<!-- Node4&#45;&gt;Node26 -->
<g id="edge30_Node000004_Node000026" class="edge">
<title>Node4&#45;&gt;Node26</title>
<g id="a_edge30_Node000004_Node000026"><a xlink:title=" ">
<path fill="none" stroke="#63b8ff" d="M1339.45,-197.8C1334.47,-188.41 1327.88,-176.02 1322.53,-165.95"/>
<polygon fill="#63b8ff" stroke="#63b8ff" points="1325.48,-164.03 1317.7,-156.84 1319.3,-167.32 1325.48,-164.03"/>
</a>
</g>
</g>
<!-- Node27 -->
<g id="Node000027" class="node">
<title>Node27</title>
<g id="a_Node000027"><a xlink:title=" ">
<polygon fill="#e0e0e0" stroke="#999999" points="1403,-156.5 1359,-156.5 1359,-137.5 1403,-137.5 1403,-156.5"/>
<text text-anchor="middle" x="1381" y="-144.5" font-family="Helvetica,sans-Serif" font-size="10.00">limits</text>
</a>
</g>
</g>
<!-- Node4&#45;&gt;Node27 -->
<g id="edge31_Node000004_Node000027" class="edge">
<title>Node4&#45;&gt;Node27</title>
<g id="a_edge31_Node000004_Node000027"><a xlink:title=" ">
<path fill="none" stroke="#63b8ff" d="M1354.55,-197.8C1359.53,-188.41 1366.12,-176.02 1371.47,-165.95"/>
<polygon fill="#63b8ff" stroke="#63b8ff" points="1374.7,-167.32 1376.3,-156.84 1368.52,-164.03 1374.7,-167.32"/>
</a>
</g>
</g>
<!-- Node28 -->
<g id="Node000028" class="node">
<title>Node28</title>
<g id="a_Node000028"><a xlink:title=" ">
<polygon fill="#e0e0e0" stroke="#999999" points="1504.5,-156.5 1459.5,-156.5 1459.5,-137.5 1504.5,-137.5 1504.5,-156.5"/>
<text text-anchor="middle" x="1482" y="-144.5" font-family="Helvetica,sans-Serif" font-size="10.00">utility</text>
</a>
</g>
</g>
<!-- Node4&#45;&gt;Node28 -->
<g id="edge33_Node000004_Node000028" class="edge">
<title>Node4&#45;&gt;Node28</title>
<g id="a_edge33_Node000004_Node000028"><a xlink:title=" ">
<path fill="none" stroke="#63b8ff" d="M1376.63,-197.95C1399.99,-186.88 1432.3,-171.56 1454.97,-160.82"/>
<polygon fill="#63b8ff" stroke="#63b8ff" points="1456.5,-163.96 1464.03,-156.52 1453.5,-157.64 1456.5,-163.96"/>
</a>
</g>
</g>
<!-- Node8 -->
<g id="Node000008" class="node">
<title>Node8</title>
<g id="a_Node000008"><a xlink:href="enum_8hpp.html" target="_top" xlink:title=" ">
<polygon fill="white" stroke="#666666" points="310,-96 198,-96 198,-66 310,-66 310,-96"/>
<text text-anchor="start" x="206" y="-84" font-family="Helvetica,sans-Serif" font-size="10.00">meltpooldg/utilities</text>
<text text-anchor="middle" x="254" y="-73" font-family="Helvetica,sans-Serif" font-size="10.00">/enum.hpp</text>
</a>
</g>
</g>
<!-- Node7&#45;&gt;Node8 -->
<g id="edge8_Node000007_Node000008" class="edge">
<title>Node7&#45;&gt;Node8</title>
<g id="a_edge8_Node000007_Node000008"><a xlink:title=" ">
<path fill="none" stroke="#63b8ff" d="M408.55,-131.95C378.63,-122.28 338.71,-109.38 306.93,-99.11"/>
<polygon fill="#63b8ff" stroke="#63b8ff" points="307.94,-95.76 297.35,-96.01 305.79,-102.42 307.94,-95.76"/>
</a>
</g>
</g>
<!-- Node8&#45;&gt;Node3 -->
<g id="edge9_Node000008_Node000003" class="edge">
<title>Node8&#45;&gt;Node3</title>
<g id="a_edge9_Node000008_Node000003"><a xlink:title=" ">
<path fill="none" stroke="#63b8ff" d="M224.81,-65.95C205.58,-56.7 180.2,-44.49 159.34,-34.45"/>
<polygon fill="#63b8ff" stroke="#63b8ff" points="160.65,-31.19 150.12,-30.01 157.61,-37.5 160.65,-31.19"/>
</a>
</g>
</g>
<!-- Node9 -->
<g id="Node000009" class="node">
<title>Node9</title>
<g id="a_Node000009"><a xlink:title=" ">
<polygon fill="#e0e0e0" stroke="#999999" points="327.5,-24.5 202.5,-24.5 202.5,-5.5 327.5,-5.5 327.5,-24.5"/>
<text text-anchor="middle" x="265" y="-12.5" font-family="Helvetica,sans-Serif" font-size="10.00">deal.II/base/patterns.h</text>
</a>
</g>
</g>
<!-- Node8&#45;&gt;Node9 -->
<g id="edge10_Node000008_Node000009" class="edge">
<title>Node8&#45;&gt;Node9</title>
<g id="a_edge10_Node000008_Node000009"><a xlink:title=" ">
<path fill="none" stroke="#63b8ff" d="M256.44,-65.8C258,-56.7 260.05,-44.79 261.75,-34.9"/>
<polygon fill="#63b8ff" stroke="#63b8ff" points="265.24,-35.29 263.48,-24.84 258.34,-34.11 265.24,-35.29"/>
</a>
</g>
</g>
<!-- Node10 -->
<g id="Node000010" class="node">
<title>Node10</title>
<g id="a_Node000010"><a xlink:title=" ">
<polygon fill="#e0e0e0" stroke="#999999" points="458,-30 346,-30 346,0 458,0 458,-30"/>
<text text-anchor="start" x="354" y="-18" font-family="Helvetica,sans-Serif" font-size="10.00">meltpooldg/utilities</text>
<text text-anchor="middle" x="402" y="-7" font-family="Helvetica,sans-Serif" font-size="10.00">/better_enum.hpp</text>
</a>
</g>
</g>
<!-- Node8&#45;&gt;Node10 -->
<g id="edge11_Node000008_Node000010" class="edge">
<title>Node8&#45;&gt;Node10</title>
<g id="a_edge11_Node000008_Node000010"><a xlink:title=" ">
<path fill="none" stroke="#63b8ff" d="M286.48,-65.95C308.17,-56.58 336.89,-44.16 360.27,-34.05"/>
<polygon fill="#63b8ff" stroke="#63b8ff" points="361.81,-37.19 369.6,-30.01 359.03,-30.77 361.81,-37.19"/>
</a>
</g>
</g>
<!-- Node11 -->
<g id="Node000011" class="node">
<title>Node11</title>
<g id="a_Node000011"><a xlink:title=" ">
<polygon fill="#e0e0e0" stroke="#999999" points="601.5,-30 476.5,-30 476.5,0 601.5,0 601.5,-30"/>
<text text-anchor="start" x="484.5" y="-18" font-family="Helvetica,sans-Serif" font-size="10.00">boost/algorithm/string</text>
<text text-anchor="middle" x="539" y="-7" font-family="Helvetica,sans-Serif" font-size="10.00">/join.hpp</text>
</a>
</g>
</g>
<!-- Node8&#45;&gt;Node11 -->
<g id="edge12_Node000008_Node000011" class="edge">
<title>Node8&#45;&gt;Node11</title>
<g id="a_edge12_Node000008_Node000011"><a xlink:title=" ">
<path fill="none" stroke="#63b8ff" d="M310.31,-67.36C355.15,-57.28 418.25,-43.12 466.8,-32.21"/>
<polygon fill="#63b8ff" stroke="#63b8ff" points="467.63,-35.61 476.62,-30.01 466.1,-28.78 467.63,-35.61"/>
</a>
</g>
</g>
<!-- Node12 -->
<g id="Node000012" class="node">
<title>Node12</title>
<g id="a_Node000012"><a xlink:title=" ">
<polygon fill="#e0e0e0" stroke="#999999" points="1193,-24.5 1137,-24.5 1137,-5.5 1193,-5.5 1193,-24.5"/>
<text text-anchor="middle" x="1165" y="-12.5" font-family="Helvetica,sans-Serif" font-size="10.00">sstream</text>
</a>
</g>
</g>
<!-- Node8&#45;&gt;Node12 -->
<g id="edge13_Node000008_Node000012" class="edge">
<title>Node8&#45;&gt;Node12</title>
<g id="a_edge13_Node000008_Node000012"><a xlink:title=" ">
<path fill="none" stroke="#63b8ff" d="M310.28,-67.33C313.22,-66.84 316.14,-66.39 319,-66 628.55,-23.77 1006.63,-17.2 1126.59,-16.18"/>
<polygon fill="#63b8ff" stroke="#63b8ff" points="1126.76,-19.68 1136.73,-16.1 1126.71,-12.68 1126.76,-19.68"/>
</a>
</g>
</g>
<!-- Node8&#45;&gt;Node13 -->
<g id="edge14_Node000008_Node000013" class="edge">
<title>Node8&#45;&gt;Node13</title>
<g id="a_edge14_Node000008_Node000013"><a xlink:title=" ">
<path fill="none" stroke="#63b8ff" d="M310.27,-67.25C313.21,-66.78 316.14,-66.36 319,-66 387.93,-57.39 1464.31,-23.33 1665.68,-17.01"/>
<polygon fill="#63b8ff" stroke="#63b8ff" points="1666.01,-20.5 1675.9,-16.69 1665.79,-13.51 1666.01,-20.5"/>
</a>
</g>
</g>
<!-- Node14&#45;&gt;Node6 -->
<g id="edge18_Node000014_Node000006" class="edge">
<title>Node14&#45;&gt;Node6</title>
<g id="a_edge18_Node000014_Node000006"><a xlink:title=" ">
<path fill="none" stroke="#63b8ff" d="M1148.29,-142.59C981.04,-132.98 515.62,-105.7 447,-96 440.64,-95.1 433.98,-93.92 427.45,-92.62"/>
<polygon fill="#63b8ff" stroke="#63b8ff" points="427.88,-89.13 417.37,-90.51 426.44,-95.98 427.88,-89.13"/>
</a>
</g>
</g>
<!-- Node14&#45;&gt;Node12 -->
<g id="edge26_Node000014_Node000012" class="edge">
<title>Node14&#45;&gt;Node12</title>
<g id="a_edge26_Node000014_Node000012"><a xlink:title=" ">
<path fill="none" stroke="#63b8ff" d="M1267.78,-133.55C1270.9,-133 1273.98,-132.48 1277,-132 1416.98,-109.76 1683.17,-171.93 1589,-66 1563.55,-37.37 1302.74,-22.38 1203.26,-17.66"/>
<polygon fill="#63b8ff" stroke="#63b8ff" points="1203.2,-14.16 1193.05,-17.19 1202.88,-21.15 1203.2,-14.16"/>
</a>
</g>
</g>
<!-- Node14&#45;&gt;Node13 -->
<g id="edge27_Node000014_Node000013" class="edge">
<title>Node14&#45;&gt;Node13</title>
<g id="a_edge27_Node000014_Node000013"><a xlink:title=" ">
<path fill="none" stroke="#63b8ff" d="M1267.78,-133.52C1270.89,-132.98 1273.98,-132.47 1277,-132 1424.54,-109.13 1475.01,-157.62 1611,-96 1642.46,-81.74 1670.17,-51.64 1685.45,-32.7"/>
<polygon fill="#63b8ff" stroke="#63b8ff" points="1688.34,-34.68 1691.74,-24.65 1682.83,-30.37 1688.34,-34.68"/>
</a>
</g>
</g>
<!-- Node15 -->
<g id="Node000015" class="node">
<title>Node15</title>
<g id="a_Node000015"><a xlink:title=" ">
<polygon fill="#e0e0e0" stroke="#999999" points="674,-90.5 560,-90.5 560,-71.5 674,-71.5 674,-90.5"/>
<text text-anchor="middle" x="617" y="-78.5" font-family="Helvetica,sans-Serif" font-size="10.00">deal.II/base/config.h</text>
</a>
</g>
</g>
<!-- Node14&#45;&gt;Node15 -->
<g id="edge16_Node000014_Node000015" class="edge">
<title>Node14&#45;&gt;Node15</title>
<g id="a_edge16_Node000014_Node000015"><a xlink:title=" ">
<path fill="none" stroke="#63b8ff" d="M1148.28,-142.54C1050.58,-136.38 850.66,-121.68 683,-96 676.69,-95.03 670.08,-93.85 663.58,-92.57"/>
<polygon fill="#63b8ff" stroke="#63b8ff" points="664.02,-89.09 653.52,-90.52 662.62,-95.95 664.02,-89.09"/>
</a>
</g>
</g>
<!-- Node16 -->
<g id="Node000016" class="node">
<title>Node16</title>
<g id="a_Node000016"><a xlink:title=" ">
<polygon fill="#e0e0e0" stroke="#999999" points="830,-90.5 692,-90.5 692,-71.5 830,-71.5 830,-90.5"/>
<text text-anchor="middle" x="761" y="-78.5" font-family="Helvetica,sans-Serif" font-size="10.00">deal.II/base/exceptions.h</text>
</a>
</g>
</g>
<!-- Node14&#45;&gt;Node16 -->
<g id="edge17_Node000014_Node000016" class="edge">
<title>Node14&#45;&gt;Node16</title>
<g id="a_edge17_Node000014_Node000016"><a xlink:title=" ">
<path fill="none" stroke="#63b8ff" d="M1148.45,-138.73C1075.41,-129.63 947.88,-113.14 839,-96 831.81,-94.87 824.25,-93.6 816.79,-92.31"/>
<polygon fill="#63b8ff" stroke="#63b8ff" points="817.18,-88.83 806.73,-90.55 815.97,-95.72 817.18,-88.83"/>
</a>
</g>
</g>
<!-- Node17 -->
<g id="Node000017" class="node">
<title>Node17</title>
<g id="a_Node000017"><a xlink:title=" ">
<polygon fill="#e0e0e0" stroke="#999999" points="997.5,-90.5 848.5,-90.5 848.5,-71.5 997.5,-71.5 997.5,-90.5"/>
<text text-anchor="middle" x="923" y="-78.5" font-family="Helvetica,sans-Serif" font-size="10.00">deal.II/base/vectorization.h</text>
</a>
</g>
</g>
<!-- Node14&#45;&gt;Node17 -->
<g id="edge19_Node000014_Node000017" class="edge">
<title>Node14&#45;&gt;Node17</title>
<g id="a_edge19_Node000014_Node000017"><a xlink:title=" ">
<path fill="none" stroke="#63b8ff" d="M1148.25,-132.58C1095.53,-120.74 1019.67,-103.71 970.86,-92.75"/>
<polygon fill="#63b8ff" stroke="#63b8ff" points="971.4,-89.28 960.87,-90.5 969.86,-96.11 971.4,-89.28"/>
</a>
</g>
</g>
<!-- Node18 -->
<g id="Node000018" class="node">
<title>Node18</title>
<g id="a_Node000018"><a xlink:title=" ">
<polygon fill="#e0e0e0" stroke="#999999" points="1130,-90.5 1016,-90.5 1016,-71.5 1130,-71.5 1130,-90.5"/>
<text text-anchor="middle" x="1073" y="-78.5" font-family="Helvetica,sans-Serif" font-size="10.00">deal.II/fe/mapping.h</text>
</a>
</g>
</g>
<!-- Node14&#45;&gt;Node18 -->
<g id="edge20_Node000014_Node000018" class="edge">
<title>Node14&#45;&gt;Node18</title>
<g id="a_edge20_Node000014_Node000018"><a xlink:title=" ">
<path fill="none" stroke="#63b8ff" d="M1178.37,-131.95C1155.01,-120.88 1122.7,-105.56 1100.03,-94.82"/>
<polygon fill="#63b8ff" stroke="#63b8ff" points="1101.5,-91.64 1090.97,-90.52 1098.5,-97.96 1101.5,-91.64"/>
</a>
</g>
</g>
<!-- Node19 -->
<g id="Node000019" class="node">
<title>Node19</title>
<g id="a_Node000019"><a xlink:title=" ">
<polygon fill="#e0e0e0" stroke="#999999" points="1267.5,-96 1148.5,-96 1148.5,-66 1267.5,-66 1267.5,-96"/>
<text text-anchor="start" x="1156.5" y="-84" font-family="Helvetica,sans-Serif" font-size="10.00">deal.II/grid/grid_tools</text>
<text text-anchor="middle" x="1208" y="-73" font-family="Helvetica,sans-Serif" font-size="10.00">_geometry.h</text>
</a>
</g>
</g>
<!-- Node14&#45;&gt;Node19 -->
<g id="edge21_Node000014_Node000019" class="edge">
<title>Node14&#45;&gt;Node19</title>
<g id="a_edge21_Node000014_Node000019"><a xlink:title=" ">
<path fill="none" stroke="#63b8ff" d="M1208,-131.8C1208,-124.34 1208,-114.99 1208,-106.41"/>
<polygon fill="#63b8ff" stroke="#63b8ff" points="1211.5,-106.16 1208,-96.16 1204.5,-106.16 1211.5,-106.16"/>
</a>
</g>
</g>
<!-- Node20 -->
<g id="Node000020" class="node">
<title>Node20</title>
<g id="a_Node000020"><a xlink:title=" ">
<polygon fill="#e0e0e0" stroke="#999999" points="1382.5,-90.5 1285.5,-90.5 1285.5,-71.5 1382.5,-71.5 1382.5,-90.5"/>
<text text-anchor="middle" x="1334" y="-78.5" font-family="Helvetica,sans-Serif" font-size="10.00">deal.II/grid/tria.h</text>
</a>
</g>
</g>
<!-- Node14&#45;&gt;Node20 -->
<g id="edge22_Node000014_Node000020" class="edge">
<title>Node14&#45;&gt;Node20</title>
<g id="a_edge22_Node000014_Node000020"><a xlink:title=" ">
<path fill="none" stroke="#63b8ff" d="M1235.65,-131.95C1257.26,-120.98 1287.08,-105.83 1308.2,-95.11"/>
<polygon fill="#63b8ff" stroke="#63b8ff" points="1309.9,-98.17 1317.23,-90.52 1306.73,-91.93 1309.9,-98.17"/>
</a>
</g>
</g>
<!-- Node21 -->
<g id="Node000021" class="node">
<title>Node21</title>
<g id="a_Node000021"><a xlink:title=" ">
<polygon fill="#e0e0e0" stroke="#999999" points="1465,-90.5 1401,-90.5 1401,-71.5 1465,-71.5 1465,-90.5"/>
<text text-anchor="middle" x="1433" y="-78.5" font-family="Helvetica,sans-Serif" font-size="10.00">algorithm</text>
</a>
</g>
</g>
<!-- Node14&#45;&gt;Node21 -->
<g id="edge23_Node000014_Node000021" class="edge">
<title>Node14&#45;&gt;Node21</title>
<g id="a_edge23_Node000014_Node000021"><a xlink:title=" ">
<path fill="none" stroke="#63b8ff" d="M1263.42,-131.93C1300.08,-122.37 1349.11,-109.13 1392,-96 1394.31,-95.29 1396.68,-94.54 1399.06,-93.78"/>
<polygon fill="#63b8ff" stroke="#63b8ff" points="1400.41,-97.02 1408.8,-90.55 1398.21,-90.37 1400.41,-97.02"/>
</a>
</g>
</g>
<!-- Node22 -->
<g id="Node000022" class="node">
<title>Node22</title>
<g id="a_Node000022"><a xlink:title=" ">
<polygon fill="#e0e0e0" stroke="#999999" points="1530.5,-90.5 1483.5,-90.5 1483.5,-71.5 1530.5,-71.5 1530.5,-90.5"/>
<text text-anchor="middle" x="1507" y="-78.5" font-family="Helvetica,sans-Serif" font-size="10.00">cmath</text>
</a>
</g>
</g>
<!-- Node14&#45;&gt;Node22 -->
<g id="edge24_Node000014_Node000022" class="edge">
<title>Node14&#45;&gt;Node22</title>
<g id="a_edge24_Node000014_Node000022"><a xlink:title=" ">
<path fill="none" stroke="#63b8ff" d="M1267.83,-133.79C1270.93,-133.18 1274,-132.58 1277,-132 1364.4,-115.15 1388.74,-121.54 1474,-96 1475.68,-95.5 1477.39,-94.93 1479.1,-94.33"/>
<polygon fill="#63b8ff" stroke="#63b8ff" points="1480.71,-97.46 1488.76,-90.58 1478.17,-90.94 1480.71,-97.46"/>
</a>
</g>
</g>
<!-- Node23 -->
<g id="Node000023" class="node">
<title>Node23</title>
<g id="a_Node000023"><a xlink:title=" ">
<polygon fill="#e0e0e0" stroke="#999999" points="1579.5,-90.5 1548.5,-90.5 1548.5,-71.5 1579.5,-71.5 1579.5,-90.5"/>
<text text-anchor="middle" x="1564" y="-78.5" font-family="Helvetica,sans-Serif" font-size="10.00">ios</text>
</a>
</g>
</g>
<!-- Node14&#45;&gt;Node23 -->
<g id="edge25_Node000014_Node000023" class="edge">
<title>Node14&#45;&gt;Node23</title>
<g id="a_edge25_Node000014_Node000023"><a xlink:title=" ">
<path fill="none" stroke="#63b8ff" d="M1267.8,-133.62C1270.9,-133.06 1273.99,-132.51 1277,-132 1393.32,-112.26 1428.47,-134.46 1540,-96 1540.72,-95.75 1541.44,-95.48 1542.16,-95.19"/>
<polygon fill="#63b8ff" stroke="#63b8ff" points="1543.85,-98.26 1551.24,-90.68 1540.73,-91.99 1543.85,-98.26"/>
</a>
</g>
</g>
<!-- Node24 -->
<g id="Node000024" class="node">
<title>Node24</title>
<g id="a_Node000024"><a xlink:title=" ">
<polygon fill="#e0e0e0" stroke="#999999" points="542,-90.5 456,-90.5 456,-71.5 542,-71.5 542,-90.5"/>
<text text-anchor="middle" x="499" y="-78.5" font-family="Helvetica,sans-Serif" font-size="10.00">unordered_set</text>
</a>
</g>
</g>
<!-- Node14&#45;&gt;Node24 -->
<g id="edge28_Node000014_Node000024" class="edge">
<title>Node14&#45;&gt;Node24</title>
<g id="a_edge28_Node000014_Node000024"><a xlink:title=" ">
<path fill="none" stroke="#63b8ff" d="M1148.35,-142.89C1008.95,-135.4 665.02,-115.51 551,-96 546.29,-95.19 541.4,-94.15 536.57,-93"/>
<polygon fill="#63b8ff" stroke="#63b8ff" points="537.41,-89.6 526.85,-90.53 535.68,-96.39 537.41,-89.6"/>
</a>
</g>
</g>
<!-- Node14&#45;&gt;Node25 -->
<g id="edge29_Node000014_Node000025" class="edge">
<title>Node14&#45;&gt;Node25</title>
<g id="a_edge29_Node000014_Node000025"><a xlink:title=" ">
<path fill="none" stroke="#63b8ff" d="M1267.77,-133.47C1270.89,-132.94 1273.98,-132.45 1277,-132 1446.13,-106.97 1493.27,-133.87 1660,-96 1662.67,-95.39 1665.41,-94.65 1668.13,-93.82"/>
<polygon fill="#63b8ff" stroke="#63b8ff" points="1669.43,-97.07 1677.78,-90.55 1667.19,-90.44 1669.43,-97.07"/>
</a>
</g>
</g>
</g>
</svg>

<g id="navigator" transform="translate(0 0)" fill="#404254">
  <rect fill="#f2f5e9" fill-opacity="0.5" stroke="#606060" stroke-width=".5" x="0" y="0" width="60" height="60"/>
  <use id="zoomplus" xlink:href="#zoomPlus" x="17" y="9" onmousedown="handleZoom(evt,'in')"/>
  <use id="zoomminus" xlink:href="#zoomMin" x="42" y="9" onmousedown="handleZoom(evt,'out')"/>
  <use id="reset" xlink:href="#resetDef" x="30" y="36" onmousedown="handleReset()"/>
   <use id="arrowup" xlink:href="#arrowUp" x="0" y="0" onmousedown="handlePan(0,-1)"/>
  <use id="arrowright" xlink:href="#arrowRight" x="0" y="0" onmousedown="handlePan(1,0)"/>
  <use id="arrowdown" xlink:href="#arrowDown" x="0" y="0" onmousedown="handlePan(0,1)"/>
  <use id="arrowleft" xlink:href="#arrowLeft" x="0" y="0" onmousedown="handlePan(-1,0)"/>
</g>
<svg viewBox="0 0 15 15" width="100%" height="30px" preserveAspectRatio="xMaxYMin meet">
 <g id="arrow_out" transform="scale(0.3 0.3)">
  <a xlink:href="applications_2mp-heat-transfer_2cases_2powder__bed_2powder__bed_8hpp__incl_org.svg" target="_base">
   <rect id="button" ry="5" rx="5" y="6" x="6" height="38" width="38"
        fill="#f2f5e9" fill-opacity="0.5" stroke="#606060" stroke-width="1.0"/>
   <path id="arrow"
     d="M 11.500037,31.436501 C 11.940474,20.09759 22.043105,11.32322 32.158766,21.979434 L 37.068811,17.246167 C 37.068811,17.246167 37.088388,32 37.088388,32 L 22.160133,31.978069 C 22.160133,31.978069 26.997745,27.140456 26.997745,27.140456 C 18.528582,18.264221 13.291696,25.230495 11.500037,31.436501 z"
     style="fill:#404040;"/>
  </a>
 </g>
</svg>

<style type='text/css'>
<![CDATA[
[data-mouse-over-selected='false'] { opacity: 0.7; }
[data-mouse-over-selected='true']  { opacity: 1.0; }
]]>
</style>
<script type="application/ecmascript"><![CDATA[
document.addEventListener('DOMContentLoaded', (event) => {
  highlightEdges();
  highlightAdjacentNodes();
});
]]></script>
</svg>
