<?xml version="1.0" encoding="UTF-8" standalone="no"?>
<!DOCTYPE svg PUBLIC "-//W3C//DTD SVG 1.1//EN"
 "http://www.w3.org/Graphics/SVG/1.1/DTD/svg11.dtd">
<!-- Generated by graphviz version 2.43.0 (0)
 -->
<!-- Title: source/core/base_data.cpp Pages: 1 -->
<svg width="689pt" height="291pt"
 viewBox="0.00 0.00 688.50 291.00" xmlns="http://www.w3.org/2000/svg" xmlns:xlink="http://www.w3.org/1999/xlink">
<g id="graph0" class="graph" transform="scale(1 1) rotate(0) translate(4 287)">
<title>source/core/base_data.cpp</title>
<!-- Node1 -->
<g id="Node000001" class="node">
<title>Node1</title>
<g id="a_Node000001"><a xlink:title=" ">
<polygon fill="#999999" stroke="#666666" points="301.5,-283 155.5,-283 155.5,-264 301.5,-264 301.5,-283"/>
<text text-anchor="middle" x="228.5" y="-271" font-family="Helvetica,sans-Serif" font-size="10.00">source/core/base_data.cpp</text>
</a>
</g>
</g>
<!-- Node2 -->
<g id="Node000002" class="node">
<title>Node2</title>
<g id="a_Node000002"><a xlink:href="base__data_8hpp.html" target="_top" xlink:title=" ">
<polygon fill="white" stroke="#666666" points="289.5,-228 167.5,-228 167.5,-198 289.5,-198 289.5,-228"/>
<text text-anchor="start" x="175.5" y="-216" font-family="Helvetica,sans-Serif" font-size="10.00">meltpooldg/core/base</text>
<text text-anchor="middle" x="228.5" y="-205" font-family="Helvetica,sans-Serif" font-size="10.00">_data.hpp</text>
</a>
</g>
</g>
<!-- Node1&#45;&gt;Node2 -->
<g id="edge1_Node000001_Node000002" class="edge">
<title>Node1&#45;&gt;Node2</title>
<g id="a_edge1_Node000001_Node000002"><a xlink:title=" ">
<path fill="none" stroke="#63b8ff" d="M228.5,-263.87C228.5,-257.11 228.5,-247.35 228.5,-238.26"/>
<polygon fill="#63b8ff" stroke="#63b8ff" points="232,-238.11 228.5,-228.11 225,-238.11 232,-238.11"/>
</a>
</g>
</g>
<!-- Node3 -->
<g id="Node000003" class="node">
<title>Node3</title>
<g id="a_Node000003"><a xlink:title=" ">
<polygon fill="#e0e0e0" stroke="#999999" points="127,-30 0,-30 0,0 127,0 127,-30"/>
<text text-anchor="start" x="8" y="-18" font-family="Helvetica,sans-Serif" font-size="10.00">deal.II/base/parameter</text>
<text text-anchor="middle" x="63.5" y="-7" font-family="Helvetica,sans-Serif" font-size="10.00">_handler.h</text>
</a>
</g>
</g>
<!-- Node2&#45;&gt;Node3 -->
<g id="edge2_Node000002_Node000003" class="edge">
<title>Node2&#45;&gt;Node3</title>
<g id="a_edge2_Node000002_Node000003"><a xlink:title=" ">
<path fill="none" stroke="#63b8ff" d="M203.69,-197.86C189.16,-188.82 171.07,-176.14 157.5,-162 120.97,-123.92 90.44,-69.65 74.79,-39.14"/>
<polygon fill="#63b8ff" stroke="#63b8ff" points="77.87,-37.47 70.25,-30.12 71.62,-40.62 77.87,-37.47"/>
</a>
</g>
</g>
<!-- Node4 -->
<g id="Node000004" class="node">
<title>Node4</title>
<g id="a_Node000004"><a xlink:href="finite__element__data_8hpp.html" target="_top" xlink:title=" ">
<polygon fill="white" stroke="#666666" points="290.5,-162 166.5,-162 166.5,-132 290.5,-132 290.5,-162"/>
<text text-anchor="start" x="174.5" y="-150" font-family="Helvetica,sans-Serif" font-size="10.00">meltpooldg/core/finite</text>
<text text-anchor="middle" x="228.5" y="-139" font-family="Helvetica,sans-Serif" font-size="10.00">_element_data.hpp</text>
</a>
</g>
</g>
<!-- Node2&#45;&gt;Node4 -->
<g id="edge3_Node000002_Node000004" class="edge">
<title>Node2&#45;&gt;Node4</title>
<g id="a_edge3_Node000002_Node000004"><a xlink:title=" ">
<path fill="none" stroke="#63b8ff" d="M228.5,-197.8C228.5,-190.34 228.5,-180.99 228.5,-172.41"/>
<polygon fill="#63b8ff" stroke="#63b8ff" points="232,-172.16 228.5,-162.16 225,-172.16 232,-172.16"/>
</a>
</g>
</g>
<!-- Node5 -->
<g id="Node000005" class="node">
<title>Node5</title>
<g id="a_Node000005"><a xlink:href="enum_8hpp.html" target="_top" xlink:title=" ">
<polygon fill="white" stroke="#666666" points="393.5,-96 281.5,-96 281.5,-66 393.5,-66 393.5,-96"/>
<text text-anchor="start" x="289.5" y="-84" font-family="Helvetica,sans-Serif" font-size="10.00">meltpooldg/utilities</text>
<text text-anchor="middle" x="337.5" y="-73" font-family="Helvetica,sans-Serif" font-size="10.00">/enum.hpp</text>
</a>
</g>
</g>
<!-- Node2&#45;&gt;Node5 -->
<g id="edge12_Node000002_Node000005" class="edge">
<title>Node2&#45;&gt;Node5</title>
<g id="a_edge12_Node000002_Node000005"><a xlink:title=" ">
<path fill="none" stroke="#63b8ff" d="M255.02,-197.86C269.59,-189.06 287.16,-176.64 299.5,-162 313.45,-145.45 323.55,-122.91 329.81,-105.97"/>
<polygon fill="#63b8ff" stroke="#63b8ff" points="333.22,-106.85 333.22,-96.25 326.61,-104.53 333.22,-106.85"/>
</a>
</g>
</g>
<!-- Node4&#45;&gt;Node3 -->
<g id="edge4_Node000004_Node000003" class="edge">
<title>Node4&#45;&gt;Node3</title>
<g id="a_edge4_Node000004_Node000003"><a xlink:title=" ">
<path fill="none" stroke="#63b8ff" d="M210.65,-131.8C190.49,-115.78 156.68,-88.96 127.5,-66 115.1,-56.25 101.32,-45.47 89.73,-36.43"/>
<polygon fill="#63b8ff" stroke="#63b8ff" points="91.77,-33.58 81.73,-30.19 87.47,-39.1 91.77,-33.58"/>
</a>
</g>
</g>
<!-- Node4&#45;&gt;Node5 -->
<g id="edge5_Node000004_Node000005" class="edge">
<title>Node4&#45;&gt;Node5</title>
<g id="a_edge5_Node000004_Node000005"><a xlink:title=" ">
<path fill="none" stroke="#63b8ff" d="M252.42,-131.95C267.75,-122.95 287.86,-111.14 304.68,-101.27"/>
<polygon fill="#63b8ff" stroke="#63b8ff" points="306.78,-104.09 313.64,-96.01 303.24,-98.06 306.78,-104.09"/>
</a>
</g>
</g>
<!-- Node5&#45;&gt;Node3 -->
<g id="edge6_Node000005_Node000003" class="edge">
<title>Node5&#45;&gt;Node3</title>
<g id="a_edge6_Node000005_Node000003"><a xlink:title=" ">
<path fill="none" stroke="#63b8ff" d="M281.39,-66.89C238.65,-56.91 179.55,-43.11 133.68,-32.39"/>
<polygon fill="#63b8ff" stroke="#63b8ff" points="134.35,-28.95 123.81,-30.09 132.75,-35.77 134.35,-28.95"/>
</a>
</g>
</g>
<!-- Node6 -->
<g id="Node000006" class="node">
<title>Node6</title>
<g id="a_Node000006"><a xlink:title=" ">
<polygon fill="#e0e0e0" stroke="#999999" points="270,-24.5 145,-24.5 145,-5.5 270,-5.5 270,-24.5"/>
<text text-anchor="middle" x="207.5" y="-12.5" font-family="Helvetica,sans-Serif" font-size="10.00">deal.II/base/patterns.h</text>
</a>
</g>
</g>
<!-- Node5&#45;&gt;Node6 -->
<g id="edge7_Node000005_Node000006" class="edge">
<title>Node5&#45;&gt;Node6</title>
<g id="a_edge7_Node000005_Node000006"><a xlink:title=" ">
<path fill="none" stroke="#63b8ff" d="M308.97,-65.95C286.57,-54.93 255.64,-39.7 233.83,-28.96"/>
<polygon fill="#63b8ff" stroke="#63b8ff" points="235.32,-25.79 224.8,-24.52 232.23,-32.07 235.32,-25.79"/>
</a>
</g>
</g>
<!-- Node7 -->
<g id="Node000007" class="node">
<title>Node7</title>
<g id="a_Node000007"><a xlink:title=" ">
<polygon fill="#e0e0e0" stroke="#999999" points="400.5,-30 288.5,-30 288.5,0 400.5,0 400.5,-30"/>
<text text-anchor="start" x="296.5" y="-18" font-family="Helvetica,sans-Serif" font-size="10.00">meltpooldg/utilities</text>
<text text-anchor="middle" x="344.5" y="-7" font-family="Helvetica,sans-Serif" font-size="10.00">/better_enum.hpp</text>
</a>
</g>
</g>
<!-- Node5&#45;&gt;Node7 -->
<g id="edge8_Node000005_Node000007" class="edge">
<title>Node5&#45;&gt;Node7</title>
<g id="a_edge8_Node000005_Node000007"><a xlink:title=" ">
<path fill="none" stroke="#63b8ff" d="M339.05,-65.8C339.88,-58.26 340.91,-48.78 341.86,-40.13"/>
<polygon fill="#63b8ff" stroke="#63b8ff" points="345.34,-40.49 342.95,-30.16 338.38,-39.72 345.34,-40.49"/>
</a>
</g>
</g>
<!-- Node8 -->
<g id="Node000008" class="node">
<title>Node8</title>
<g id="a_Node000008"><a xlink:title=" ">
<polygon fill="#e0e0e0" stroke="#999999" points="544,-30 419,-30 419,0 544,0 544,-30"/>
<text text-anchor="start" x="427" y="-18" font-family="Helvetica,sans-Serif" font-size="10.00">boost/algorithm/string</text>
<text text-anchor="middle" x="481.5" y="-7" font-family="Helvetica,sans-Serif" font-size="10.00">/join.hpp</text>
</a>
</g>
</g>
<!-- Node5&#45;&gt;Node8 -->
<g id="edge9_Node000005_Node000008" class="edge">
<title>Node5&#45;&gt;Node8</title>
<g id="a_edge9_Node000005_Node000008"><a xlink:title=" ">
<path fill="none" stroke="#63b8ff" d="M369.1,-65.95C390.11,-56.62 417.9,-44.27 440.59,-34.18"/>
<polygon fill="#63b8ff" stroke="#63b8ff" points="442.26,-37.27 449.97,-30.01 439.41,-30.88 442.26,-37.27"/>
</a>
</g>
</g>
<!-- Node9 -->
<g id="Node000009" class="node">
<title>Node9</title>
<g id="a_Node000009"><a xlink:title=" ">
<polygon fill="#e0e0e0" stroke="#999999" points="618.5,-24.5 562.5,-24.5 562.5,-5.5 618.5,-5.5 618.5,-24.5"/>
<text text-anchor="middle" x="590.5" y="-12.5" font-family="Helvetica,sans-Serif" font-size="10.00">sstream</text>
</a>
</g>
</g>
<!-- Node5&#45;&gt;Node9 -->
<g id="edge10_Node000005_Node000009" class="edge">
<title>Node5&#45;&gt;Node9</title>
<g id="a_edge10_Node000005_Node000009"><a xlink:title=" ">
<path fill="none" stroke="#63b8ff" d="M393.53,-69.18C437.46,-60.19 499.91,-46.26 553.5,-30 555.42,-29.42 557.39,-28.78 559.36,-28.12"/>
<polygon fill="#63b8ff" stroke="#63b8ff" points="560.9,-31.29 569.15,-24.64 558.55,-24.69 560.9,-31.29"/>
</a>
</g>
</g>
<!-- Node10 -->
<g id="Node000010" class="node">
<title>Node10</title>
<g id="a_Node000010"><a xlink:title=" ">
<polygon fill="#e0e0e0" stroke="#999999" points="680.5,-24.5 636.5,-24.5 636.5,-5.5 680.5,-5.5 680.5,-24.5"/>
<text text-anchor="middle" x="658.5" y="-12.5" font-family="Helvetica,sans-Serif" font-size="10.00">string</text>
</a>
</g>
</g>
<!-- Node5&#45;&gt;Node10 -->
<g id="edge11_Node000005_Node000010" class="edge">
<title>Node5&#45;&gt;Node10</title>
<g id="a_edge11_Node000005_Node000010"><a xlink:title=" ">
<path fill="none" stroke="#63b8ff" d="M393.53,-74.6C452.67,-67.92 548.12,-54.33 627.5,-30 628.95,-29.56 630.41,-29.06 631.88,-28.53"/>
<polygon fill="#63b8ff" stroke="#63b8ff" points="633.48,-31.66 641.42,-24.64 630.84,-25.18 633.48,-31.66"/>
</a>
</g>
</g>
</g>
</svg>
