<?xml version="1.0" encoding="UTF-8" standalone="no"?>
<!DOCTYPE svg PUBLIC "-//W3C//DTD SVG 1.1//EN"
 "http://www.w3.org/Graphics/SVG/1.1/DTD/svg11.dtd">
<!-- Generated by graphviz version 2.43.0 (0)
 -->
<!-- Title: include/meltpooldg/utilities/boundary_ids_colorized.hpp Pages: 1 -->
<svg width="1218pt" height="214pt"
 viewBox="0.00 0.00 1217.50 214.00" xmlns="http://www.w3.org/2000/svg" xmlns:xlink="http://www.w3.org/1999/xlink">
<g id="graph0" class="graph" transform="scale(1 1) rotate(0) translate(4 210)">
<title>include/meltpooldg/utilities/boundary_ids_colorized.hpp</title>
<!-- Node1 -->
<g id="Node000001" class="node">
<title>Node1</title>
<g id="a_Node000001"><a xlink:title=" ">
<polygon fill="#999999" stroke="#666666" points="658.5,-206 548.5,-206 548.5,-165 658.5,-165 658.5,-206"/>
<text text-anchor="start" x="556.5" y="-194" font-family="Helvetica,sans-Serif" font-size="10.00">include/meltpooldg</text>
<text text-anchor="start" x="556.5" y="-183" font-family="Helvetica,sans-Serif" font-size="10.00">/utilities/boundary</text>
<text text-anchor="middle" x="603.5" y="-172" font-family="Helvetica,sans-Serif" font-size="10.00">_ids_colorized.hpp</text>
</a>
</g>
</g>
<!-- Node2 -->
<g id="Node000002" class="node">
<title>Node2</title>
<g id="a_Node000002"><a xlink:href="fixed__melt__pool_8cpp.html" target="_top" xlink:title=" ">
<polygon fill="white" stroke="#666666" points="149,-129 0,-129 0,-77 149,-77 149,-129"/>
<text text-anchor="start" x="8" y="-117" font-family="Helvetica,sans-Serif" font-size="10.00">applications/mp&#45;heat</text>
<text text-anchor="start" x="8" y="-106" font-family="Helvetica,sans-Serif" font-size="10.00">&#45;transfer/cases/fixed</text>
<text text-anchor="start" x="8" y="-95" font-family="Helvetica,sans-Serif" font-size="10.00">_melt_pool_geometry/fixed</text>
<text text-anchor="middle" x="74.5" y="-84" font-family="Helvetica,sans-Serif" font-size="10.00">_melt_pool.cpp</text>
</a>
</g>
</g>
<!-- Node1&#45;&gt;Node2 -->
<g id="edge1_Node000001_Node000002" class="edge">
<title>Node1&#45;&gt;Node2</title>
<g id="a_edge1_Node000001_Node000002"><a xlink:title=" ">
<path fill="none" stroke="#63b8ff" d="M538.39,-179.86C451.02,-172.85 291.34,-157.27 157.5,-129 154.7,-128.41 151.86,-127.77 149,-127.09"/>
<polygon fill="#63b8ff" stroke="#63b8ff" points="538.18,-183.35 548.42,-180.65 538.73,-176.38 538.18,-183.35"/>
</a>
</g>
</g>
<!-- Node3 -->
<g id="Node000003" class="node">
<title>Node3</title>
<g id="a_Node000003"><a xlink:href="powder__bed_8templates_8hpp.html" target="_top" xlink:title=" ">
<polygon fill="white" stroke="#666666" points="342.5,-123.5 166.5,-123.5 166.5,-82.5 342.5,-82.5 342.5,-123.5"/>
<text text-anchor="start" x="174.5" y="-111.5" font-family="Helvetica,sans-Serif" font-size="10.00">applications/mp&#45;heat</text>
<text text-anchor="start" x="174.5" y="-100.5" font-family="Helvetica,sans-Serif" font-size="10.00">&#45;transfer/cases/powder</text>
<text text-anchor="middle" x="254.5" y="-89.5" font-family="Helvetica,sans-Serif" font-size="10.00">_bed/powder_bed.templates.hpp</text>
</a>
</g>
</g>
<!-- Node1&#45;&gt;Node3 -->
<g id="edge2_Node000001_Node000003" class="edge">
<title>Node1&#45;&gt;Node3</title>
<g id="a_edge2_Node000001_Node000003"><a xlink:title=" ">
<path fill="none" stroke="#63b8ff" d="M538.15,-170.89C486.97,-160.06 414.04,-144.24 350.5,-129 343.3,-127.27 335.81,-125.42 328.33,-123.53"/>
<polygon fill="#63b8ff" stroke="#63b8ff" points="537.57,-174.35 548.08,-172.99 539.02,-167.5 537.57,-174.35"/>
</a>
</g>
</g>
<!-- Node6 -->
<g id="Node000006" class="node">
<title>Node6</title>
<g id="a_Node000006"><a xlink:href="unidirectional__heat__transfer_8cpp.html" target="_top" xlink:title=" ">
<polygon fill="white" stroke="#666666" points="519,-129 360,-129 360,-77 519,-77 519,-129"/>
<text text-anchor="start" x="368" y="-117" font-family="Helvetica,sans-Serif" font-size="10.00">applications/mp&#45;heat</text>
<text text-anchor="start" x="368" y="-106" font-family="Helvetica,sans-Serif" font-size="10.00">&#45;transfer/cases/unidirectional</text>
<text text-anchor="start" x="368" y="-95" font-family="Helvetica,sans-Serif" font-size="10.00">_heat_transfer/unidirectional</text>
<text text-anchor="middle" x="439.5" y="-84" font-family="Helvetica,sans-Serif" font-size="10.00">_heat_transfer.cpp</text>
</a>
</g>
</g>
<!-- Node1&#45;&gt;Node6 -->
<g id="edge5_Node000001_Node000006" class="edge">
<title>Node1&#45;&gt;Node6</title>
<g id="a_edge5_Node000001_Node000006"><a xlink:title=" ">
<path fill="none" stroke="#63b8ff" d="M554.39,-160.39C534.28,-150.52 511.01,-139.1 490.69,-129.13"/>
<polygon fill="#63b8ff" stroke="#63b8ff" points="552.86,-163.54 563.38,-164.81 555.95,-157.26 552.86,-163.54"/>
</a>
</g>
</g>
<!-- Node7 -->
<g id="Node000007" class="node">
<title>Node7</title>
<g id="a_Node000007"><a xlink:href="film__boiling_8hpp.html" target="_top" xlink:title=" ">
<polygon fill="white" stroke="#666666" points="669.5,-123.5 537.5,-123.5 537.5,-82.5 669.5,-82.5 669.5,-123.5"/>
<text text-anchor="start" x="545.5" y="-111.5" font-family="Helvetica,sans-Serif" font-size="10.00">applications/mp&#45;melt</text>
<text text-anchor="start" x="545.5" y="-100.5" font-family="Helvetica,sans-Serif" font-size="10.00">&#45;pool/cases/film_boiling</text>
<text text-anchor="middle" x="603.5" y="-89.5" font-family="Helvetica,sans-Serif" font-size="10.00">/film_boiling.hpp</text>
</a>
</g>
</g>
<!-- Node1&#45;&gt;Node7 -->
<g id="edge6_Node000001_Node000007" class="edge">
<title>Node1&#45;&gt;Node7</title>
<g id="a_edge6_Node000001_Node000007"><a xlink:title=" ">
<path fill="none" stroke="#63b8ff" d="M603.5,-154.37C603.5,-144.1 603.5,-132.9 603.5,-123.67"/>
<polygon fill="#63b8ff" stroke="#63b8ff" points="600,-154.6 603.5,-164.6 607,-154.6 600,-154.6"/>
</a>
</g>
</g>
<!-- Node9 -->
<g id="Node000009" class="node">
<title>Node9</title>
<g id="a_Node000009"><a xlink:href="recoil__pressure_8hpp.html" target="_top" xlink:title=" ">
<polygon fill="white" stroke="#666666" points="837,-123.5 688,-123.5 688,-82.5 837,-82.5 837,-123.5"/>
<text text-anchor="start" x="696" y="-111.5" font-family="Helvetica,sans-Serif" font-size="10.00">applications/mp&#45;melt</text>
<text text-anchor="start" x="696" y="-100.5" font-family="Helvetica,sans-Serif" font-size="10.00">&#45;pool/cases/recoil_pressure</text>
<text text-anchor="middle" x="762.5" y="-89.5" font-family="Helvetica,sans-Serif" font-size="10.00">/recoil_pressure.hpp</text>
</a>
</g>
</g>
<!-- Node1&#45;&gt;Node9 -->
<g id="edge8_Node000001_Node000009" class="edge">
<title>Node1&#45;&gt;Node9</title>
<g id="a_edge8_Node000001_Node000009"><a xlink:title=" ">
<path fill="none" stroke="#63b8ff" d="M651.36,-160.27C674.5,-148.55 701.92,-134.67 723.73,-123.63"/>
<polygon fill="#63b8ff" stroke="#63b8ff" points="649.74,-157.17 642.4,-164.81 652.9,-163.41 649.74,-157.17"/>
</a>
</g>
</g>
<!-- Node11 -->
<g id="Node000011" class="node">
<title>Node11</title>
<g id="a_Node000011"><a xlink:href="radiative__transport_8templates_8hpp.html" target="_top" xlink:title=" ">
<polygon fill="white" stroke="#666666" points="997.5,-123.5 855.5,-123.5 855.5,-82.5 997.5,-82.5 997.5,-123.5"/>
<text text-anchor="start" x="863.5" y="-111.5" font-family="Helvetica,sans-Serif" font-size="10.00">applications/mp&#45;radiative</text>
<text text-anchor="start" x="863.5" y="-100.5" font-family="Helvetica,sans-Serif" font-size="10.00">&#45;transport/cases/radiative</text>
<text text-anchor="middle" x="926.5" y="-89.5" font-family="Helvetica,sans-Serif" font-size="10.00">_transport.templates.hpp</text>
</a>
</g>
</g>
<!-- Node1&#45;&gt;Node11 -->
<g id="edge10_Node000001_Node000011" class="edge">
<title>Node1&#45;&gt;Node11</title>
<g id="a_edge10_Node000001_Node000011"><a xlink:title=" ">
<path fill="none" stroke="#63b8ff" d="M668.39,-170.98C717.3,-160.46 785.91,-145 845.5,-129 851.75,-127.32 858.25,-125.48 864.72,-123.58"/>
<polygon fill="#63b8ff" stroke="#63b8ff" points="667.62,-167.57 658.57,-173.08 669.08,-174.41 667.62,-167.57"/>
</a>
</g>
</g>
<!-- Node13 -->
<g id="Node000013" class="node">
<title>Node13</title>
<g id="a_Node000013"><a xlink:href="wall__wetting_8hpp.html" target="_top" xlink:title=" ">
<polygon fill="white" stroke="#666666" points="1209.5,-123.5 1015.5,-123.5 1015.5,-82.5 1209.5,-82.5 1209.5,-123.5"/>
<text text-anchor="start" x="1023.5" y="-111.5" font-family="Helvetica,sans-Serif" font-size="10.00">applications/mp&#45;reinit</text>
<text text-anchor="start" x="1023.5" y="-100.5" font-family="Helvetica,sans-Serif" font-size="10.00">/cases/wall_wetting_zahedi</text>
<text text-anchor="middle" x="1112.5" y="-89.5" font-family="Helvetica,sans-Serif" font-size="10.00">_2009_comparison/wall_wetting.hpp</text>
</a>
</g>
</g>
<!-- Node1&#45;&gt;Node13 -->
<g id="edge12_Node000001_Node000013" class="edge">
<title>Node1&#45;&gt;Node13</title>
<g id="a_edge12_Node000001_Node000013"><a xlink:title=" ">
<path fill="none" stroke="#63b8ff" d="M668.93,-177.42C748.91,-168.32 888.22,-151.04 1006.5,-129 1015.24,-127.37 1024.34,-125.5 1033.38,-123.53"/>
<polygon fill="#63b8ff" stroke="#63b8ff" points="668.06,-174 658.52,-178.6 668.85,-180.95 668.06,-174"/>
</a>
</g>
</g>
<!-- Node4 -->
<g id="Node000004" class="node">
<title>Node4</title>
<g id="a_Node000004"><a xlink:href="applications_2mp-heat-transfer_2cases_2powder__bed_2powder__bed_8cpp.html" target="_top" xlink:title=" ">
<polygon fill="white" stroke="#666666" points="244.5,-41 116.5,-41 116.5,0 244.5,0 244.5,-41"/>
<text text-anchor="start" x="124.5" y="-29" font-family="Helvetica,sans-Serif" font-size="10.00">applications/mp&#45;heat</text>
<text text-anchor="start" x="124.5" y="-18" font-family="Helvetica,sans-Serif" font-size="10.00">&#45;transfer/cases/powder</text>
<text text-anchor="middle" x="180.5" y="-7" font-family="Helvetica,sans-Serif" font-size="10.00">_bed/powder_bed.cpp</text>
</a>
</g>
</g>
<!-- Node3&#45;&gt;Node4 -->
<g id="edge3_Node000003_Node000004" class="edge">
<title>Node3&#45;&gt;Node4</title>
<g id="a_edge3_Node000003_Node000004"><a xlink:title=" ">
<path fill="none" stroke="#63b8ff" d="M229.16,-74.44C219.11,-63.5 207.78,-51.18 198.58,-41.17"/>
<polygon fill="#63b8ff" stroke="#63b8ff" points="226.86,-77.11 236.21,-82.1 232.02,-72.37 226.86,-77.11"/>
</a>
</g>
</g>
<!-- Node5 -->
<g id="Node000005" class="node">
<title>Node5</title>
<g id="a_Node000005"><a xlink:href="applications_2mp-melt-pool_2cases_2powder__bed_2powder__bed_8cpp.html" target="_top" xlink:title=" ">
<polygon fill="white" stroke="#666666" points="396.5,-41 262.5,-41 262.5,0 396.5,0 396.5,-41"/>
<text text-anchor="start" x="270.5" y="-29" font-family="Helvetica,sans-Serif" font-size="10.00">applications/mp&#45;melt</text>
<text text-anchor="start" x="270.5" y="-18" font-family="Helvetica,sans-Serif" font-size="10.00">&#45;pool/cases/powder_bed</text>
<text text-anchor="middle" x="329.5" y="-7" font-family="Helvetica,sans-Serif" font-size="10.00">/powder_bed.cpp</text>
</a>
</g>
</g>
<!-- Node3&#45;&gt;Node5 -->
<g id="edge4_Node000003_Node000005" class="edge">
<title>Node3&#45;&gt;Node5</title>
<g id="a_edge4_Node000003_Node000005"><a xlink:title=" ">
<path fill="none" stroke="#63b8ff" d="M279.88,-74.76C290.14,-63.74 301.76,-51.27 311.17,-41.17"/>
<polygon fill="#63b8ff" stroke="#63b8ff" points="277.3,-72.4 273.04,-82.1 282.42,-77.17 277.3,-72.4"/>
</a>
</g>
</g>
<!-- Node8 -->
<g id="Node000008" class="node">
<title>Node8</title>
<g id="a_Node000008"><a xlink:href="film__boiling_8cpp.html" target="_top" xlink:title=" ">
<polygon fill="white" stroke="#666666" points="669.5,-41 537.5,-41 537.5,0 669.5,0 669.5,-41"/>
<text text-anchor="start" x="545.5" y="-29" font-family="Helvetica,sans-Serif" font-size="10.00">applications/mp&#45;melt</text>
<text text-anchor="start" x="545.5" y="-18" font-family="Helvetica,sans-Serif" font-size="10.00">&#45;pool/cases/film_boiling</text>
<text text-anchor="middle" x="603.5" y="-7" font-family="Helvetica,sans-Serif" font-size="10.00">/film_boiling.cpp</text>
</a>
</g>
</g>
<!-- Node7&#45;&gt;Node8 -->
<g id="edge7_Node000007_Node000008" class="edge">
<title>Node7&#45;&gt;Node8</title>
<g id="a_edge7_Node000007_Node000008"><a xlink:title=" ">
<path fill="none" stroke="#63b8ff" d="M603.5,-71.87C603.5,-61.6 603.5,-50.4 603.5,-41.17"/>
<polygon fill="#63b8ff" stroke="#63b8ff" points="600,-72.1 603.5,-82.1 607,-72.1 600,-72.1"/>
</a>
</g>
</g>
<!-- Node10 -->
<g id="Node000010" class="node">
<title>Node10</title>
<g id="a_Node000010"><a xlink:href="recoil__pressure_8cpp.html" target="_top" xlink:title=" ">
<polygon fill="white" stroke="#666666" points="837,-41 688,-41 688,0 837,0 837,-41"/>
<text text-anchor="start" x="696" y="-29" font-family="Helvetica,sans-Serif" font-size="10.00">applications/mp&#45;melt</text>
<text text-anchor="start" x="696" y="-18" font-family="Helvetica,sans-Serif" font-size="10.00">&#45;pool/cases/recoil_pressure</text>
<text text-anchor="middle" x="762.5" y="-7" font-family="Helvetica,sans-Serif" font-size="10.00">/recoil_pressure.cpp</text>
</a>
</g>
</g>
<!-- Node9&#45;&gt;Node10 -->
<g id="edge9_Node000009_Node000010" class="edge">
<title>Node9&#45;&gt;Node10</title>
<g id="a_edge9_Node000009_Node000010"><a xlink:title=" ">
<path fill="none" stroke="#63b8ff" d="M762.5,-71.87C762.5,-61.6 762.5,-50.4 762.5,-41.17"/>
<polygon fill="#63b8ff" stroke="#63b8ff" points="759,-72.1 762.5,-82.1 766,-72.1 759,-72.1"/>
</a>
</g>
</g>
<!-- Node12 -->
<g id="Node000012" class="node">
<title>Node12</title>
<g id="a_Node000012"><a xlink:href="mp-radiative-transport_2cases_2radiative__transport_8cpp.html" target="_top" xlink:title=" ">
<polygon fill="white" stroke="#666666" points="997.5,-41 855.5,-41 855.5,0 997.5,0 997.5,-41"/>
<text text-anchor="start" x="863.5" y="-29" font-family="Helvetica,sans-Serif" font-size="10.00">applications/mp&#45;radiative</text>
<text text-anchor="start" x="863.5" y="-18" font-family="Helvetica,sans-Serif" font-size="10.00">&#45;transport/cases/radiative</text>
<text text-anchor="middle" x="926.5" y="-7" font-family="Helvetica,sans-Serif" font-size="10.00">_transport.cpp</text>
</a>
</g>
</g>
<!-- Node11&#45;&gt;Node12 -->
<g id="edge11_Node000011_Node000012" class="edge">
<title>Node11&#45;&gt;Node12</title>
<g id="a_edge11_Node000011_Node000012"><a xlink:title=" ">
<path fill="none" stroke="#63b8ff" d="M926.5,-71.87C926.5,-61.6 926.5,-50.4 926.5,-41.17"/>
<polygon fill="#63b8ff" stroke="#63b8ff" points="923,-72.1 926.5,-82.1 930,-72.1 923,-72.1"/>
</a>
</g>
</g>
<!-- Node14 -->
<g id="Node000014" class="node">
<title>Node14</title>
<g id="a_Node000014"><a xlink:href="wall__wetting_8cpp.html" target="_top" xlink:title=" ">
<polygon fill="white" stroke="#666666" points="1209.5,-41 1015.5,-41 1015.5,0 1209.5,0 1209.5,-41"/>
<text text-anchor="start" x="1023.5" y="-29" font-family="Helvetica,sans-Serif" font-size="10.00">applications/mp&#45;reinit</text>
<text text-anchor="start" x="1023.5" y="-18" font-family="Helvetica,sans-Serif" font-size="10.00">/cases/wall_wetting_zahedi</text>
<text text-anchor="middle" x="1112.5" y="-7" font-family="Helvetica,sans-Serif" font-size="10.00">_2009_comparison/wall_wetting.cpp</text>
</a>
</g>
</g>
<!-- Node13&#45;&gt;Node14 -->
<g id="edge13_Node000013_Node000014" class="edge">
<title>Node13&#45;&gt;Node14</title>
<g id="a_edge13_Node000013_Node000014"><a xlink:title=" ">
<path fill="none" stroke="#63b8ff" d="M1112.5,-71.87C1112.5,-61.6 1112.5,-50.4 1112.5,-41.17"/>
<polygon fill="#63b8ff" stroke="#63b8ff" points="1109,-72.1 1112.5,-82.1 1116,-72.1 1109,-72.1"/>
</a>
</g>
</g>
</g>
</svg>
