<?xml version="1.0" encoding="UTF-8" standalone="no"?>
<!DOCTYPE svg PUBLIC "-//W3C//DTD SVG 1.1//EN"
 "http://www.w3.org/Graphics/SVG/1.1/DTD/svg11.dtd">
<!-- Generated by graphviz version 2.43.0 (0)
 -->
<!-- Title: include/meltpooldg/flow/characteristic_numbers.hpp Pages: 1 -->
<svg width="326pt" height="225pt"
 viewBox="0.00 0.00 325.50 225.00" xmlns="http://www.w3.org/2000/svg" xmlns:xlink="http://www.w3.org/1999/xlink">
<g id="graph0" class="graph" transform="scale(1 1) rotate(0) translate(4 221)">
<title>include/meltpooldg/flow/characteristic_numbers.hpp</title>
<!-- Node1 -->
<g id="Node000001" class="node">
<title>Node1</title>
<g id="a_Node000001"><a xlink:title=" ">
<polygon fill="#999999" stroke="#666666" points="218,-217 108,-217 108,-176 218,-176 218,-217"/>
<text text-anchor="start" x="116" y="-205" font-family="Helvetica,sans-Serif" font-size="10.00">include/meltpooldg</text>
<text text-anchor="start" x="116" y="-194" font-family="Helvetica,sans-Serif" font-size="10.00">/flow/characteristic</text>
<text text-anchor="middle" x="163" y="-183" font-family="Helvetica,sans-Serif" font-size="10.00">_numbers.hpp</text>
</a>
</g>
</g>
<!-- Node2 -->
<g id="Node000002" class="node">
<title>Node2</title>
<g id="a_Node000002"><a xlink:href="thermo__capillary__droplet_8hpp.html" target="_top" xlink:title=" ">
<polygon fill="white" stroke="#666666" points="158,-140 0,-140 0,-88 158,-88 158,-140"/>
<text text-anchor="start" x="8" y="-128" font-family="Helvetica,sans-Serif" font-size="10.00">applications/mp&#45;melt</text>
<text text-anchor="start" x="8" y="-117" font-family="Helvetica,sans-Serif" font-size="10.00">&#45;pool/cases/thermo_capillary</text>
<text text-anchor="start" x="8" y="-106" font-family="Helvetica,sans-Serif" font-size="10.00">_droplet/thermo_capillary</text>
<text text-anchor="middle" x="79" y="-95" font-family="Helvetica,sans-Serif" font-size="10.00">_droplet.hpp</text>
</a>
</g>
</g>
<!-- Node1&#45;&gt;Node2 -->
<g id="edge1_Node000001_Node000002" class="edge">
<title>Node1&#45;&gt;Node2</title>
<g id="a_edge1_Node000001_Node000002"><a xlink:title=" ">
<path fill="none" stroke="#63b8ff" d="M134.85,-168.52C125.29,-159.36 114.65,-149.17 105.25,-140.16"/>
<polygon fill="#63b8ff" stroke="#63b8ff" points="132.59,-171.21 142.24,-175.6 137.44,-166.16 132.59,-171.21"/>
</a>
</g>
</g>
<!-- Node4 -->
<g id="Node000004" class="node">
<title>Node4</title>
<g id="a_Node000004"><a xlink:href="characteristic__numbers_8cpp.html" target="_top" xlink:title=" ">
<polygon fill="white" stroke="#666666" points="317.5,-129 176.5,-129 176.5,-99 317.5,-99 317.5,-129"/>
<text text-anchor="start" x="184.5" y="-117" font-family="Helvetica,sans-Serif" font-size="10.00">source/flow/characteristic</text>
<text text-anchor="middle" x="247" y="-106" font-family="Helvetica,sans-Serif" font-size="10.00">_numbers.cpp</text>
</a>
</g>
</g>
<!-- Node1&#45;&gt;Node4 -->
<g id="edge3_Node000001_Node000004" class="edge">
<title>Node1&#45;&gt;Node4</title>
<g id="a_edge3_Node000001_Node000004"><a xlink:title=" ">
<path fill="none" stroke="#63b8ff" d="M191.14,-168.53C204.92,-155.33 220.93,-139.98 232.27,-129.12"/>
<polygon fill="#63b8ff" stroke="#63b8ff" points="188.56,-166.16 183.76,-175.6 193.41,-171.21 188.56,-166.16"/>
</a>
</g>
</g>
<!-- Node3 -->
<g id="Node000003" class="node">
<title>Node3</title>
<g id="a_Node000003"><a xlink:href="thermo__capillary__droplet_8cpp.html" target="_top" xlink:title=" ">
<polygon fill="white" stroke="#666666" points="158,-52 0,-52 0,0 158,0 158,-52"/>
<text text-anchor="start" x="8" y="-40" font-family="Helvetica,sans-Serif" font-size="10.00">applications/mp&#45;melt</text>
<text text-anchor="start" x="8" y="-29" font-family="Helvetica,sans-Serif" font-size="10.00">&#45;pool/cases/thermo_capillary</text>
<text text-anchor="start" x="8" y="-18" font-family="Helvetica,sans-Serif" font-size="10.00">_droplet/thermo_capillary</text>
<text text-anchor="middle" x="79" y="-7" font-family="Helvetica,sans-Serif" font-size="10.00">_droplet.cpp</text>
</a>
</g>
</g>
<!-- Node2&#45;&gt;Node3 -->
<g id="edge2_Node000002_Node000003" class="edge">
<title>Node2&#45;&gt;Node3</title>
<g id="a_edge2_Node000002_Node000003"><a xlink:title=" ">
<path fill="none" stroke="#63b8ff" d="M79,-77.56C79,-69.04 79,-60.1 79,-52.16"/>
<polygon fill="#63b8ff" stroke="#63b8ff" points="75.5,-77.66 79,-87.66 82.5,-77.66 75.5,-77.66"/>
</a>
</g>
</g>
</g>
</svg>
