<?xml version="1.0" encoding="UTF-8" standalone="no"?>
<!DOCTYPE svg PUBLIC "-//W3C//DTD SVG 1.1//EN"
 "http://www.w3.org/Graphics/SVG/1.1/DTD/svg11.dtd">
<!-- Generated by graphviz version 2.43.0 (0)
 -->
<!-- Title: MeltPoolDG::Heat::GusarovIntensityProfile&lt; dim, number &gt; Pages: 1 -->
<svg width="625pt" height="110pt"
 viewBox="0.00 0.00 625.00 110.00" xmlns="http://www.w3.org/2000/svg" xmlns:xlink="http://www.w3.org/1999/xlink">
<g id="graph0" class="graph" transform="scale(1 1) rotate(0) translate(4 106)">
<title>MeltPoolDG::Heat::GusarovIntensityProfile&lt; dim, number &gt;</title>
<!-- Node1 -->
<g id="Node000001" class="node">
<title>Node1</title>
<g id="a_Node000001"><a xlink:title=" ">
<polygon fill="#999999" stroke="#666666" points="617,-83.5 467,-83.5 467,-42.5 617,-42.5 617,-83.5"/>
<text text-anchor="start" x="475" y="-71.5" font-family="Helvetica,sans-Serif" font-size="10.00">MeltPoolDG::Heat::Gusarov</text>
<text text-anchor="start" x="475" y="-60.5" font-family="Helvetica,sans-Serif" font-size="10.00">IntensityProfile&lt; dim,</text>
<text text-anchor="middle" x="542" y="-49.5" font-family="Helvetica,sans-Serif" font-size="10.00"> number &gt;</text>
</a>
</g>
</g>
<!-- Node2 -->
<g id="Node000002" class="node">
<title>Node2</title>
<g id="a_Node000002"><a xlink:title=" ">
<polygon fill="white" stroke="#666666" points="388.5,-102 264.5,-102 264.5,-72 388.5,-72 388.5,-102"/>
<text text-anchor="start" x="272.5" y="-90" font-family="Helvetica,sans-Serif" font-size="10.00">dealii::Function&lt; dim,</text>
<text text-anchor="middle" x="326.5" y="-79" font-family="Helvetica,sans-Serif" font-size="10.00"> number &gt;</text>
</a>
</g>
</g>
<!-- Node2&#45;&gt;Node1 -->
<g id="edge1_Node000001_Node000002" class="edge">
<title>Node2&#45;&gt;Node1</title>
<g id="a_edge1_Node000001_Node000002"><a xlink:title=" ">
<path fill="none" stroke="#63b8ff" d="M398.89,-78.97C420.77,-76.52 444.88,-73.81 466.93,-71.33"/>
<polygon fill="#63b8ff" stroke="#63b8ff" points="398.23,-75.53 388.68,-80.12 399.01,-82.48 398.23,-75.53"/>
</a>
</g>
</g>
<!-- Node3 -->
<g id="Node000003" class="node">
<title>Node3</title>
<g id="a_Node000003"><a xlink:href="structMeltPoolDG_1_1Heat_1_1LaserData.html" target="_top" xlink:title=" ">
<polygon fill="white" stroke="#666666" points="406,-54 247,-54 247,-24 406,-24 406,-54"/>
<text text-anchor="start" x="255" y="-42" font-family="Helvetica,sans-Serif" font-size="10.00">MeltPoolDG::Heat::LaserData</text>
<text text-anchor="middle" x="326.5" y="-31" font-family="Helvetica,sans-Serif" font-size="10.00">&lt; number &gt;</text>
</a>
</g>
</g>
<!-- Node3&#45;&gt;Node1 -->
<g id="edge2_Node000001_Node000003" class="edge">
<title>Node3&#45;&gt;Node1</title>
<g id="a_edge2_Node000001_Node000003"><a xlink:title=" ">
<path fill="none" stroke="#9a32cd" stroke-dasharray="5,2" d="M416.44,-49C433.2,-50.88 450.58,-52.84 466.83,-54.66"/>
<polygon fill="#9a32cd" stroke="#9a32cd" points="416.42,-45.47 406.09,-47.83 415.64,-52.43 416.42,-45.47"/>
</a>
</g>
<text text-anchor="middle" x="436.5" y="-55" font-family="Helvetica,sans-Serif" font-size="10.00" fill="grey"> data</text>
</g>
<!-- Node4 -->
<g id="Node000004" class="node">
<title>Node4</title>
<g id="a_Node000004"><a xlink:href="structMeltPoolDG_1_1Heat_1_1LaserData_1_1GusarovData.html" target="_top" xlink:title=" ">
<polygon fill="white" stroke="#666666" points="159,-78 0,-78 0,-48 159,-48 159,-78"/>
<text text-anchor="start" x="8" y="-66" font-family="Helvetica,sans-Serif" font-size="10.00">MeltPoolDG::Heat::LaserData</text>
<text text-anchor="middle" x="79.5" y="-55" font-family="Helvetica,sans-Serif" font-size="10.00">&lt; number &gt;::GusarovData</text>
</a>
</g>
</g>
<!-- Node4&#45;&gt;Node3 -->
<g id="edge3_Node000003_Node000004" class="edge">
<title>Node4&#45;&gt;Node3</title>
<g id="a_edge3_Node000003_Node000004"><a xlink:title=" ">
<path fill="none" stroke="#9a32cd" stroke-dasharray="5,2" d="M169.06,-54.33C194.54,-51.83 222.16,-49.12 246.99,-46.69"/>
<polygon fill="#9a32cd" stroke="#9a32cd" points="168.64,-50.85 159.03,-55.31 169.32,-57.82 168.64,-50.85"/>
</a>
</g>
<text text-anchor="middle" x="203" y="-56" font-family="Helvetica,sans-Serif" font-size="10.00" fill="grey"> gusarov</text>
</g>
<!-- Node5 -->
<g id="Node000005" class="node">
<title>Node5</title>
<g id="a_Node000005"><a xlink:href="structMeltPoolDG_1_1Heat_1_1LaserData_1_1AnalyticalData.html" target="_top" xlink:title=" ">
<polygon fill="white" stroke="#666666" points="159,-30 0,-30 0,0 159,0 159,-30"/>
<text text-anchor="start" x="8" y="-18" font-family="Helvetica,sans-Serif" font-size="10.00">MeltPoolDG::Heat::LaserData</text>
<text text-anchor="middle" x="79.5" y="-7" font-family="Helvetica,sans-Serif" font-size="10.00">&lt; number &gt;::AnalyticalData</text>
</a>
</g>
</g>
<!-- Node5&#45;&gt;Node3 -->
<g id="edge4_Node000003_Node000005" class="edge">
<title>Node5&#45;&gt;Node3</title>
<g id="a_edge4_Node000003_Node000005"><a xlink:title=" ">
<path fill="none" stroke="#9a32cd" stroke-dasharray="5,2" d="M169.06,-23.67C194.54,-26.17 222.16,-28.88 246.99,-31.31"/>
<polygon fill="#9a32cd" stroke="#9a32cd" points="169.32,-20.18 159.03,-22.69 168.64,-27.15 169.32,-20.18"/>
</a>
</g>
<text text-anchor="middle" x="203" y="-32" font-family="Helvetica,sans-Serif" font-size="10.00" fill="grey"> analytical</text>
</g>
</g>
</svg>
