<?xml version="1.0" encoding="UTF-8" standalone="no"?>
<!DOCTYPE svg PUBLIC "-//W3C//DTD SVG 1.1//EN"
 "http://www.w3.org/Graphics/SVG/1.1/DTD/svg11.dtd">
<!-- Generated by graphviz version 2.43.0 (0)
 -->
<!-- Title: MeltPoolDG::AMR::JumpIndicator&lt; dim, number, n_mf_components, n_relevant_components &gt; Pages: 1 -->
<svg width="510pt" height="86pt"
 viewBox="0.00 0.00 510.00 86.00" xmlns="http://www.w3.org/2000/svg" xmlns:xlink="http://www.w3.org/1999/xlink">
<g id="graph0" class="graph" transform="scale(1 1) rotate(0) translate(4 82)">
<title>MeltPoolDG::AMR::JumpIndicator&lt; dim, number, n_mf_components, n_relevant_components &gt;</title>
<!-- Node1 -->
<g id="Node000001" class="node">
<title>Node1</title>
<g id="a_Node000001"><a xlink:title=" ">
<polygon fill="#999999" stroke="#666666" points="502,-59.5 313,-59.5 313,-18.5 502,-18.5 502,-59.5"/>
<text text-anchor="start" x="321" y="-47.5" font-family="Helvetica,sans-Serif" font-size="10.00">MeltPoolDG::AMR::JumpIndicator</text>
<text text-anchor="start" x="321" y="-36.5" font-family="Helvetica,sans-Serif" font-size="10.00">&lt; dim, number, n_mf_components,</text>
<text text-anchor="middle" x="407.5" y="-25.5" font-family="Helvetica,sans-Serif" font-size="10.00"> n_relevant_components &gt;</text>
</a>
</g>
</g>
<!-- Node2 -->
<g id="Node000002" class="node">
<title>Node2</title>
<g id="a_Node000002"><a xlink:href="classMeltPoolDG_1_1AMR_1_1AMRIndicatorBase.html" target="_top" xlink:title=" ">
<polygon fill="white" stroke="#666666" points="174,-78 0,-78 0,-48 174,-48 174,-78"/>
<text text-anchor="start" x="8" y="-66" font-family="Helvetica,sans-Serif" font-size="10.00">MeltPoolDG::AMR::AMRIndicator</text>
<text text-anchor="middle" x="87" y="-55" font-family="Helvetica,sans-Serif" font-size="10.00">Base&lt; dim, number &gt;</text>
</a>
</g>
</g>
<!-- Node2&#45;&gt;Node1 -->
<g id="edge1_Node000001_Node000002" class="edge">
<title>Node2&#45;&gt;Node1</title>
<g id="a_edge1_Node000001_Node000002"><a xlink:title=" ">
<path fill="none" stroke="#63b8ff" d="M184.41,-55.74C225.19,-52.66 272.51,-49.1 312.97,-46.05"/>
<polygon fill="#63b8ff" stroke="#63b8ff" points="183.9,-52.26 174.19,-56.51 184.43,-59.24 183.9,-52.26"/>
</a>
</g>
</g>
<!-- Node3 -->
<g id="Node000003" class="node">
<title>Node3</title>
<g id="a_Node000003"><a xlink:href="structMeltPoolDG_1_1MatrixFreeContext.html" target="_top" xlink:title=" ">
<polygon fill="white" stroke="#666666" points="172.5,-30 1.5,-30 1.5,0 172.5,0 172.5,-30"/>
<text text-anchor="start" x="9.5" y="-18" font-family="Helvetica,sans-Serif" font-size="10.00">MeltPoolDG::MatrixFreeContext</text>
<text text-anchor="middle" x="87" y="-7" font-family="Helvetica,sans-Serif" font-size="10.00">&lt; dim, number &gt;</text>
</a>
</g>
</g>
<!-- Node3&#45;&gt;Node1 -->
<g id="edge2_Node000001_Node000003" class="edge">
<title>Node3&#45;&gt;Node1</title>
<g id="a_edge2_Node000001_Node000003"><a xlink:title=" ">
<path fill="none" stroke="#9a32cd" stroke-dasharray="5,2" d="M182.55,-22.12C223.71,-25.23 271.83,-28.85 312.89,-31.95"/>
<polygon fill="#9a32cd" stroke="#9a32cd" points="182.75,-18.63 172.52,-21.37 182.22,-25.61 182.75,-18.63"/>
</a>
</g>
<text text-anchor="middle" x="243.5" y="-33" font-family="Helvetica,sans-Serif" font-size="10.00" fill="grey"> matrix_free_context</text>
</g>
</g>
</svg>
