<?xml version="1.0" encoding="UTF-8" standalone="no"?>
<!DOCTYPE svg PUBLIC "-//W3C//DTD SVG 1.1//EN"
 "http://www.w3.org/Graphics/SVG/1.1/DTD/svg11.dtd">
<!-- Generated by graphviz version 2.43.0 (0)
 -->
<!-- Title: MeltPoolDG::Simulation::EvaporatingDropletWithHeat::SimulationEvaporatingDropletWithHeat&lt; dim, number &gt; Pages: 1 -->
<svg width="200pt" height="192pt"
 viewBox="0.00 0.00 200.00 192.00" xmlns="http://www.w3.org/2000/svg" xmlns:xlink="http://www.w3.org/1999/xlink">
<g id="graph0" class="graph" transform="scale(1 1) rotate(0) translate(4 188)">
<title>MeltPoolDG::Simulation::EvaporatingDropletWithHeat::SimulationEvaporatingDropletWithHeat&lt; dim, number &gt;</title>
<!-- Node1 -->
<g id="Node000001" class="node">
<title>Node1</title>
<g id="a_Node000001"><a xlink:title=" ">
<polygon fill="#999999" stroke="#666666" points="192,-52 0,-52 0,0 192,0 192,-52"/>
<text text-anchor="start" x="8" y="-40" font-family="Helvetica,sans-Serif" font-size="10.00">MeltPoolDG::Simulation</text>
<text text-anchor="start" x="8" y="-29" font-family="Helvetica,sans-Serif" font-size="10.00">::EvaporatingDropletWithHeat</text>
<text text-anchor="start" x="8" y="-18" font-family="Helvetica,sans-Serif" font-size="10.00">::SimulationEvaporatingDropletWith</text>
<text text-anchor="middle" x="96" y="-7" font-family="Helvetica,sans-Serif" font-size="10.00">Heat&lt; dim, number &gt;</text>
</a>
</g>
</g>
<!-- Node2 -->
<g id="Node000002" class="node">
<title>Node2</title>
<g id="a_Node000002"><a xlink:href="classMeltPoolDG_1_1MeltPoolCase.html" target="_top" xlink:title=" ">
<polygon fill="white" stroke="#666666" points="169.5,-118 22.5,-118 22.5,-88 169.5,-88 169.5,-118"/>
<text text-anchor="start" x="30.5" y="-106" font-family="Helvetica,sans-Serif" font-size="10.00">MeltPoolDG::MeltPoolCase</text>
<text text-anchor="middle" x="96" y="-95" font-family="Helvetica,sans-Serif" font-size="10.00">&lt; dim, number &gt;</text>
</a>
</g>
</g>
<!-- Node2&#45;&gt;Node1 -->
<g id="edge1_Node000001_Node000002" class="edge">
<title>Node2&#45;&gt;Node1</title>
<g id="a_edge1_Node000001_Node000002"><a xlink:title=" ">
<path fill="none" stroke="#63b8ff" d="M96,-77.86C96,-69.69 96,-60.54 96,-52.28"/>
<polygon fill="#63b8ff" stroke="#63b8ff" points="92.5,-77.89 96,-87.89 99.5,-77.89 92.5,-77.89"/>
</a>
</g>
</g>
<!-- Node3 -->
<g id="Node000003" class="node">
<title>Node3</title>
<g id="a_Node000003"><a xlink:href="classMeltPoolDG_1_1SimulationCaseBase.html" target="_top" xlink:title="Base class for managing a simulation case in a parallel computing environment.">
<polygon fill="white" stroke="#666666" points="185.5,-184 6.5,-184 6.5,-154 185.5,-154 185.5,-184"/>
<text text-anchor="start" x="14.5" y="-172" font-family="Helvetica,sans-Serif" font-size="10.00">MeltPoolDG::SimulationCase</text>
<text text-anchor="middle" x="96" y="-161" font-family="Helvetica,sans-Serif" font-size="10.00">Base&lt; dim, number, spacedim &gt;</text>
</a>
</g>
</g>
<!-- Node3&#45;&gt;Node2 -->
<g id="edge2_Node000002_Node000003" class="edge">
<title>Node3&#45;&gt;Node2</title>
<g id="a_edge2_Node000002_Node000003"><a xlink:title=" ">
<path fill="none" stroke="#63b8ff" d="M96,-143.54C96,-134.96 96,-125.61 96,-118.16"/>
<polygon fill="#63b8ff" stroke="#63b8ff" points="92.5,-143.8 96,-153.8 99.5,-143.8 92.5,-143.8"/>
</a>
</g>
</g>
</g>
</svg>
