<?xml version="1.0" encoding="UTF-8" standalone="no"?>
<!DOCTYPE svg PUBLIC "-//W3C//DTD SVG 1.1//EN"
 "http://www.w3.org/Graphics/SVG/1.1/DTD/svg11.dtd">
<!-- Generated by graphviz version 2.43.0 (0)
 -->
<!-- Title: MeltPoolDG::Heat::HeatTransferCase&lt; dim, number &gt; Pages: 1 -->
<svg width="637pt" height="190pt"
 viewBox="0.00 0.00 637.00 189.50" xmlns="http://www.w3.org/2000/svg" xmlns:xlink="http://www.w3.org/1999/xlink">
<g id="graph0" class="graph" transform="scale(1 1) rotate(0) translate(4 185.5)">
<title>MeltPoolDG::Heat::HeatTransferCase&lt; dim, number &gt;</title>
<!-- Node1 -->
<g id="Node000001" class="node">
<title>Node1</title>
<g id="a_Node000001"><a xlink:title=" ">
<polygon fill="#999999" stroke="#666666" points="387,-111 215,-111 215,-81 387,-81 387,-111"/>
<text text-anchor="start" x="223" y="-99" font-family="Helvetica,sans-Serif" font-size="10.00">MeltPoolDG::Heat::HeatTransfer</text>
<text text-anchor="middle" x="301" y="-88" font-family="Helvetica,sans-Serif" font-size="10.00">Case&lt; dim, number &gt;</text>
</a>
</g>
</g>
<!-- Node3 -->
<g id="Node000003" class="node">
<title>Node3</title>
<g id="a_Node000003"><a xlink:href="classMeltPoolDG_1_1Simulation_1_1FixedMeltPool_1_1SimulationFixedMeltPool.html" target="_top" xlink:title=" ">
<polygon fill="white" stroke="#666666" points="613.5,-181.5 438.5,-181.5 438.5,-140.5 613.5,-140.5 613.5,-181.5"/>
<text text-anchor="start" x="446.5" y="-169.5" font-family="Helvetica,sans-Serif" font-size="10.00">MeltPoolDG::Simulation</text>
<text text-anchor="start" x="446.5" y="-158.5" font-family="Helvetica,sans-Serif" font-size="10.00">::FixedMeltPool::SimulationFixed</text>
<text text-anchor="middle" x="526" y="-147.5" font-family="Helvetica,sans-Serif" font-size="10.00">MeltPool&lt; dim, number &gt;</text>
</a>
</g>
</g>
<!-- Node1&#45;&gt;Node3 -->
<g id="edge2_Node000001_Node000003" class="edge">
<title>Node1&#45;&gt;Node3</title>
<g id="a_edge2_Node000001_Node000003"><a xlink:title=" ">
<path fill="none" stroke="#63b8ff" d="M363.46,-113.92C391.69,-122.14 425.31,-131.94 454.56,-140.47"/>
<polygon fill="#63b8ff" stroke="#63b8ff" points="364.3,-110.51 353.72,-111.08 362.34,-117.23 364.3,-110.51"/>
</a>
</g>
</g>
<!-- Node4 -->
<g id="Node000004" class="node">
<title>Node4</title>
<g id="a_Node000004"><a xlink:href="classMeltPoolDG_1_1Simulation_1_1SolidificationSlab_1_1SimulationSolidificationSlab.html" target="_top" xlink:title=" ">
<polygon fill="white" stroke="#666666" points="602.5,-122 449.5,-122 449.5,-70 602.5,-70 602.5,-122"/>
<text text-anchor="start" x="457.5" y="-110" font-family="Helvetica,sans-Serif" font-size="10.00">MeltPoolDG::Simulation</text>
<text text-anchor="start" x="457.5" y="-99" font-family="Helvetica,sans-Serif" font-size="10.00">::SolidificationSlab::</text>
<text text-anchor="start" x="457.5" y="-88" font-family="Helvetica,sans-Serif" font-size="10.00">SimulationSolidificationSlab</text>
<text text-anchor="middle" x="526" y="-77" font-family="Helvetica,sans-Serif" font-size="10.00">&lt; dim, number &gt;</text>
</a>
</g>
</g>
<!-- Node1&#45;&gt;Node4 -->
<g id="edge3_Node000001_Node000004" class="edge">
<title>Node1&#45;&gt;Node4</title>
<g id="a_edge3_Node000001_Node000004"><a xlink:title=" ">
<path fill="none" stroke="#63b8ff" d="M397.39,-96C414.73,-96 432.6,-96 449.27,-96"/>
<polygon fill="#63b8ff" stroke="#63b8ff" points="397.26,-92.5 387.26,-96 397.26,-99.5 397.26,-92.5"/>
</a>
</g>
</g>
<!-- Node5 -->
<g id="Node000005" class="node">
<title>Node5</title>
<g id="a_Node000005"><a xlink:href="classMeltPoolDG_1_1Simulation_1_1UnidirectionalHeatTransfer_1_1SimulationUnidirectionalHeatTransfer.html" target="_top" xlink:title=" ">
<polygon fill="white" stroke="#666666" points="629,-52 423,-52 423,0 629,0 629,-52"/>
<text text-anchor="start" x="431" y="-40" font-family="Helvetica,sans-Serif" font-size="10.00">MeltPoolDG::Simulation</text>
<text text-anchor="start" x="431" y="-29" font-family="Helvetica,sans-Serif" font-size="10.00">::UnidirectionalHeatTransfer</text>
<text text-anchor="start" x="431" y="-18" font-family="Helvetica,sans-Serif" font-size="10.00">::SimulationUnidirectionalHeatTransfer</text>
<text text-anchor="middle" x="526" y="-7" font-family="Helvetica,sans-Serif" font-size="10.00">&lt; dim, number &gt;</text>
</a>
</g>
</g>
<!-- Node1&#45;&gt;Node5 -->
<g id="edge4_Node000001_Node000005" class="edge">
<title>Node1&#45;&gt;Node5</title>
<g id="a_edge4_Node000001_Node000005"><a xlink:title=" ">
<path fill="none" stroke="#63b8ff" d="M359.58,-77.93C384.71,-70.04 414.66,-60.64 442.12,-52.02"/>
<polygon fill="#63b8ff" stroke="#63b8ff" points="358.33,-74.65 349.84,-80.98 360.43,-81.33 358.33,-74.65"/>
</a>
</g>
</g>
<!-- Node2 -->
<g id="Node000002" class="node">
<title>Node2</title>
<g id="a_Node000002"><a xlink:href="classMeltPoolDG_1_1SimulationCaseBase.html" target="_top" xlink:title="Base class for managing a simulation case in a parallel computing environment.">
<polygon fill="white" stroke="#666666" points="179,-111 0,-111 0,-81 179,-81 179,-111"/>
<text text-anchor="start" x="8" y="-99" font-family="Helvetica,sans-Serif" font-size="10.00">MeltPoolDG::SimulationCase</text>
<text text-anchor="middle" x="89.5" y="-88" font-family="Helvetica,sans-Serif" font-size="10.00">Base&lt; dim, number, spacedim &gt;</text>
</a>
</g>
</g>
<!-- Node2&#45;&gt;Node1 -->
<g id="edge1_Node000001_Node000002" class="edge">
<title>Node2&#45;&gt;Node1</title>
<g id="a_edge1_Node000001_Node000002"><a xlink:title=" ">
<path fill="none" stroke="#63b8ff" d="M189.08,-96C197.67,-96 206.31,-96 214.78,-96"/>
<polygon fill="#63b8ff" stroke="#63b8ff" points="189.04,-92.5 179.04,-96 189.04,-99.5 189.04,-92.5"/>
</a>
</g>
</g>
</g>
</svg>
