<?xml version="1.0" encoding="UTF-8" standalone="no"?>
<!DOCTYPE svg PUBLIC "-//W3C//DTD SVG 1.1//EN"
 "http://www.w3.org/Graphics/SVG/1.1/DTD/svg11.dtd">
<!-- Generated by graphviz version 2.43.0 (0)
 -->
<!-- Title: MeltPoolDG::AMR::AMRIndicatorBase&lt; dim, number &gt; Pages: 1 -->
<svg width="409pt" height="167pt"
 viewBox="0.00 0.00 409.00 167.00" xmlns="http://www.w3.org/2000/svg" xmlns:xlink="http://www.w3.org/1999/xlink">
<g id="graph0" class="graph" transform="scale(1 1) rotate(0) translate(4 163)">
<title>MeltPoolDG::AMR::AMRIndicatorBase&lt; dim, number &gt;</title>
<!-- Node1 -->
<g id="Node000001" class="node">
<title>Node1</title>
<g id="a_Node000001"><a xlink:title=" ">
<polygon fill="#999999" stroke="#666666" points="174,-94.5 0,-94.5 0,-64.5 174,-64.5 174,-94.5"/>
<text text-anchor="start" x="8" y="-82.5" font-family="Helvetica,sans-Serif" font-size="10.00">MeltPoolDG::AMR::AMRIndicator</text>
<text text-anchor="middle" x="87" y="-71.5" font-family="Helvetica,sans-Serif" font-size="10.00">Base&lt; dim, number &gt;</text>
</a>
</g>
</g>
<!-- Node2 -->
<g id="Node000002" class="node">
<title>Node2</title>
<g id="a_Node000002"><a xlink:href="classMeltPoolDG_1_1AMR_1_1BinaryOpIndicatorComposite.html" target="_top" xlink:title=" ">
<polygon fill="white" stroke="#666666" points="382.5,-159 228.5,-159 228.5,-118 382.5,-118 382.5,-159"/>
<text text-anchor="start" x="236.5" y="-147" font-family="Helvetica,sans-Serif" font-size="10.00">MeltPoolDG::AMR::BinaryOp</text>
<text text-anchor="start" x="236.5" y="-136" font-family="Helvetica,sans-Serif" font-size="10.00">IndicatorComposite&lt; dim,</text>
<text text-anchor="middle" x="305.5" y="-125" font-family="Helvetica,sans-Serif" font-size="10.00"> number, BinaryOp &gt;</text>
</a>
</g>
</g>
<!-- Node1&#45;&gt;Node2 -->
<g id="edge1_Node000001_Node000002" class="edge">
<title>Node1&#45;&gt;Node2</title>
<g id="a_edge1_Node000001_Node000002"><a xlink:title=" ">
<path fill="none" stroke="#63b8ff" d="M152.88,-97.18C176.83,-103.71 204.18,-111.16 228.99,-117.92"/>
<polygon fill="#63b8ff" stroke="#63b8ff" points="153.76,-93.79 143.19,-94.54 151.92,-100.55 153.76,-93.79"/>
</a>
</g>
</g>
<!-- Node3 -->
<g id="Node000003" class="node">
<title>Node3</title>
<g id="a_Node000003"><a xlink:href="classMeltPoolDG_1_1AMR_1_1JumpIndicator.html" target="_top" xlink:title=" ">
<polygon fill="white" stroke="#666666" points="400,-100 211,-100 211,-59 400,-59 400,-100"/>
<text text-anchor="start" x="219" y="-88" font-family="Helvetica,sans-Serif" font-size="10.00">MeltPoolDG::AMR::JumpIndicator</text>
<text text-anchor="start" x="219" y="-77" font-family="Helvetica,sans-Serif" font-size="10.00">&lt; dim, number, n_mf_components,</text>
<text text-anchor="middle" x="305.5" y="-66" font-family="Helvetica,sans-Serif" font-size="10.00"> n_relevant_components &gt;</text>
</a>
</g>
</g>
<!-- Node1&#45;&gt;Node3 -->
<g id="edge2_Node000001_Node000003" class="edge">
<title>Node1&#45;&gt;Node3</title>
<g id="a_edge2_Node000001_Node000003"><a xlink:title=" ">
<path fill="none" stroke="#63b8ff" d="M184.41,-79.5C193.18,-79.5 202.04,-79.5 210.78,-79.5"/>
<polygon fill="#63b8ff" stroke="#63b8ff" points="184.19,-76 174.19,-79.5 184.19,-83 184.19,-76"/>
</a>
</g>
</g>
<!-- Node4 -->
<g id="Node000004" class="node">
<title>Node4</title>
<g id="a_Node000004"><a xlink:href="classMeltPoolDG_1_1AMR_1_1SSEDIndicator.html" target="_top" xlink:title=" ">
<polygon fill="white" stroke="#666666" points="401,-41 210,-41 210,0 401,0 401,-41"/>
<text text-anchor="start" x="218" y="-29" font-family="Helvetica,sans-Serif" font-size="10.00">MeltPoolDG::AMR::SSEDIndicator</text>
<text text-anchor="start" x="218" y="-18" font-family="Helvetica,sans-Serif" font-size="10.00">&lt; dim, number, n_dof_components,</text>
<text text-anchor="middle" x="305.5" y="-7" font-family="Helvetica,sans-Serif" font-size="10.00"> n_indicator_components &gt;</text>
</a>
</g>
</g>
<!-- Node1&#45;&gt;Node4 -->
<g id="edge3_Node000001_Node000004" class="edge">
<title>Node1&#45;&gt;Node4</title>
<g id="a_edge3_Node000001_Node000004"><a xlink:title=" ">
<path fill="none" stroke="#63b8ff" d="M152.88,-61.82C176.83,-55.29 204.18,-47.84 228.99,-41.08"/>
<polygon fill="#63b8ff" stroke="#63b8ff" points="151.92,-58.45 143.19,-64.46 153.76,-65.21 151.92,-58.45"/>
</a>
</g>
</g>
</g>
</svg>
