<?xml version="1.0" encoding="UTF-8" standalone="no"?>
<!DOCTYPE svg PUBLIC "-//W3C//DTD SVG 1.1//EN"
 "http://www.w3.org/Graphics/SVG/1.1/DTD/svg11.dtd">
<!-- Generated by graphviz version 2.43.0 (0)
 -->
<!-- Title: MeltPoolDG::LevelSet::AdvectionDiffusionOperator&lt; dim, number &gt; Pages: 1 -->
<svg width="607pt" height="134pt"
 viewBox="0.00 0.00 607.00 134.00" xmlns="http://www.w3.org/2000/svg" xmlns:xlink="http://www.w3.org/1999/xlink">
<g id="graph0" class="graph" transform="scale(1 1) rotate(0) translate(4 130)">
<title>MeltPoolDG::LevelSet::AdvectionDiffusionOperator&lt; dim, number &gt;</title>
<!-- Node1 -->
<g id="Node000001" class="node">
<title>Node1</title>
<g id="a_Node000001"><a xlink:title=" ">
<polygon fill="#999999" stroke="#666666" points="599,-83.5 441,-83.5 441,-42.5 599,-42.5 599,-83.5"/>
<text text-anchor="start" x="449" y="-71.5" font-family="Helvetica,sans-Serif" font-size="10.00">MeltPoolDG::LevelSet</text>
<text text-anchor="start" x="449" y="-60.5" font-family="Helvetica,sans-Serif" font-size="10.00">::AdvectionDiffusionOperator</text>
<text text-anchor="middle" x="520" y="-49.5" font-family="Helvetica,sans-Serif" font-size="10.00">&lt; dim, number &gt;</text>
</a>
</g>
</g>
<!-- Node2 -->
<g id="Node000002" class="node">
<title>Node2</title>
<g id="a_Node000002"><a xlink:href="classMeltPoolDG_1_1OperatorMatrixFree.html" target="_top" xlink:title="Operator handling matrix&#45;free computations.">
<polygon fill="white" stroke="#666666" points="339,-126 184,-126 184,-96 339,-96 339,-126"/>
<text text-anchor="start" x="192" y="-114" font-family="Helvetica,sans-Serif" font-size="10.00">MeltPoolDG::OperatorMatrix</text>
<text text-anchor="middle" x="261.5" y="-103" font-family="Helvetica,sans-Serif" font-size="10.00">Free&lt; dim, number &gt;</text>
</a>
</g>
</g>
<!-- Node2&#45;&gt;Node1 -->
<g id="edge1_Node000001_Node000002" class="edge">
<title>Node2&#45;&gt;Node1</title>
<g id="a_edge1_Node000001_Node000002"><a xlink:title=" ">
<path fill="none" stroke="#63b8ff" d="M349.02,-94.81C378.65,-89.26 411.61,-83.1 440.56,-77.68"/>
<polygon fill="#63b8ff" stroke="#63b8ff" points="348.3,-91.38 339.11,-96.66 349.58,-98.26 348.3,-91.38"/>
</a>
</g>
</g>
<!-- Node3 -->
<g id="Node000003" class="node">
<title>Node3</title>
<g id="a_Node000003"><a xlink:href="classMeltPoolDG_1_1OperatorBase.html" target="_top" xlink:title=" ">
<polygon fill="white" stroke="#666666" points="147,-101 0,-101 0,-71 147,-71 147,-101"/>
<text text-anchor="start" x="8" y="-89" font-family="Helvetica,sans-Serif" font-size="10.00">MeltPoolDG::OperatorBase</text>
<text text-anchor="middle" x="73.5" y="-78" font-family="Helvetica,sans-Serif" font-size="10.00">&lt; number &gt;</text>
</a>
</g>
</g>
<!-- Node3&#45;&gt;Node2 -->
<g id="edge2_Node000002_Node000003" class="edge">
<title>Node3&#45;&gt;Node2</title>
<g id="a_edge2_Node000002_Node000003"><a xlink:title=" ">
<path fill="none" stroke="#63b8ff" d="M157.16,-97.11C166.04,-98.3 175.05,-99.51 183.85,-100.7"/>
<polygon fill="#63b8ff" stroke="#63b8ff" points="157.59,-93.64 147.21,-95.77 156.66,-100.57 157.59,-93.64"/>
</a>
</g>
</g>
<!-- Node4 -->
<g id="Node000004" class="node">
<title>Node4</title>
<g id="a_Node000004"><a xlink:href="classMeltPoolDG_1_1OperatorMatrixBased.html" target="_top" xlink:title="Operator handling matrix&#45;based computations.">
<polygon fill="white" stroke="#666666" points="339,-78 184,-78 184,-48 339,-48 339,-78"/>
<text text-anchor="start" x="192" y="-66" font-family="Helvetica,sans-Serif" font-size="10.00">MeltPoolDG::OperatorMatrix</text>
<text text-anchor="middle" x="261.5" y="-55" font-family="Helvetica,sans-Serif" font-size="10.00">Based&lt; dim, number &gt;</text>
</a>
</g>
</g>
<!-- Node3&#45;&gt;Node4 -->
<g id="edge4_Node000004_Node000003" class="edge">
<title>Node3&#45;&gt;Node4</title>
<g id="a_edge4_Node000004_Node000003"><a xlink:title=" ">
<path fill="none" stroke="#63b8ff" d="M157.16,-75.78C166.04,-74.68 175.05,-73.57 183.85,-72.48"/>
<polygon fill="#63b8ff" stroke="#63b8ff" points="156.71,-72.31 147.21,-77.01 157.57,-79.26 156.71,-72.31"/>
</a>
</g>
</g>
<!-- Node4&#45;&gt;Node1 -->
<g id="edge3_Node000001_Node000004" class="edge">
<title>Node4&#45;&gt;Node1</title>
<g id="a_edge3_Node000001_Node000004"><a xlink:title=" ">
<path fill="none" stroke="#63b8ff" d="M349.41,-63C378.94,-63 411.74,-63 440.56,-63"/>
<polygon fill="#63b8ff" stroke="#63b8ff" points="349.11,-59.5 339.11,-63 349.11,-66.5 349.11,-59.5"/>
</a>
</g>
</g>
<!-- Node5 -->
<g id="Node000005" class="node">
<title>Node5</title>
<g id="a_Node000005"><a xlink:href="classMeltPoolDG_1_1ScratchData.html" target="_top" xlink:title=" ">
<polygon fill="white" stroke="#666666" points="331.5,-30 191.5,-30 191.5,0 331.5,0 331.5,-30"/>
<text text-anchor="start" x="199.5" y="-18" font-family="Helvetica,sans-Serif" font-size="10.00">MeltPoolDG::ScratchData</text>
<text text-anchor="middle" x="261.5" y="-7" font-family="Helvetica,sans-Serif" font-size="10.00">&lt; dim, dim, number &gt;</text>
</a>
</g>
</g>
<!-- Node5&#45;&gt;Node1 -->
<g id="edge5_Node000001_Node000005" class="edge">
<title>Node5&#45;&gt;Node1</title>
<g id="a_edge5_Node000001_Node000005"><a xlink:title=" ">
<path fill="none" stroke="#9a32cd" stroke-dasharray="5,2" d="M341.63,-29.81C373.14,-35.71 409.32,-42.47 440.74,-48.36"/>
<polygon fill="#9a32cd" stroke="#9a32cd" points="342.05,-26.33 331.57,-27.93 340.76,-33.21 342.05,-26.33"/>
</a>
</g>
<text text-anchor="middle" x="390" y="-48" font-family="Helvetica,sans-Serif" font-size="10.00" fill="grey"> scratch_data</text>
</g>
</g>
</svg>
