<?xml version="1.0" encoding="UTF-8" standalone="no"?>
<!DOCTYPE svg PUBLIC "-//W3C//DTD SVG 1.1//EN"
 "http://www.w3.org/Graphics/SVG/1.1/DTD/svg11.dtd">
<!-- Generated by graphviz version 2.43.0 (0)
 -->
<!-- Title: MeltPoolDG::AMR::SSEDIndicator&lt; dim, number, n_dof_components, n_indicator_components &gt; Pages: 1 -->
<svg width="512pt" height="86pt"
 viewBox="0.00 0.00 512.00 86.00" xmlns="http://www.w3.org/2000/svg" xmlns:xlink="http://www.w3.org/1999/xlink">
<g id="graph0" class="graph" transform="scale(1 1) rotate(0) translate(4 82)">
<title>MeltPoolDG::AMR::SSEDIndicator&lt; dim, number, n_dof_components, n_indicator_components &gt;</title>
<!-- Node1 -->
<g id="Node000001" class="node">
<title>Node1</title>
<g id="a_Node000001"><a xlink:title=" ">
<polygon fill="#999999" stroke="#666666" points="504,-59.5 313,-59.5 313,-18.5 504,-18.5 504,-59.5"/>
<text text-anchor="start" x="321" y="-47.5" font-family="Helvetica,sans-Serif" font-size="10.00">MeltPoolDG::AMR::SSEDIndicator</text>
<text text-anchor="start" x="321" y="-36.5" font-family="Helvetica,sans-Serif" font-size="10.00">&lt; dim, number, n_dof_components,</text>
<text text-anchor="middle" x="408.5" y="-25.5" font-family="Helvetica,sans-Serif" font-size="10.00"> n_indicator_components &gt;</text>
</a>
</g>
</g>
<!-- Node2 -->
<g id="Node000002" class="node">
<title>Node2</title>
<g id="a_Node000002"><a xlink:href="classMeltPoolDG_1_1AMR_1_1AMRIndicatorBase.html" target="_top" xlink:title=" ">
<polygon fill="white" stroke="#666666" points="174,-78 0,-78 0,-48 174,-48 174,-78"/>
<text text-anchor="start" x="8" y="-66" font-family="Helvetica,sans-Serif" font-size="10.00">MeltPoolDG::AMR::AMRIndicator</text>
<text text-anchor="middle" x="87" y="-55" font-family="Helvetica,sans-Serif" font-size="10.00">Base&lt; dim, number &gt;</text>
</a>
</g>
</g>
<!-- Node2&#45;&gt;Node1 -->
<g id="edge1_Node000001_Node000002" class="edge">
<title>Node2&#45;&gt;Node1</title>
<g id="a_edge1_Node000001_Node000002"><a xlink:title=" ">
<path fill="none" stroke="#63b8ff" d="M184.25,-55.77C224.99,-52.71 272.31,-49.15 312.88,-46.11"/>
<polygon fill="#63b8ff" stroke="#63b8ff" points="183.75,-52.3 174.04,-56.54 184.27,-59.28 183.75,-52.3"/>
</a>
</g>
</g>
<!-- Node3 -->
<g id="Node000003" class="node">
<title>Node3</title>
<g id="a_Node000003"><a xlink:href="structMeltPoolDG_1_1MatrixFreeContext.html" target="_top" xlink:title=" ">
<polygon fill="white" stroke="#666666" points="172.5,-30 1.5,-30 1.5,0 172.5,0 172.5,-30"/>
<text text-anchor="start" x="9.5" y="-18" font-family="Helvetica,sans-Serif" font-size="10.00">MeltPoolDG::MatrixFreeContext</text>
<text text-anchor="middle" x="87" y="-7" font-family="Helvetica,sans-Serif" font-size="10.00">&lt; dim, number &gt;</text>
</a>
</g>
</g>
<!-- Node3&#45;&gt;Node1 -->
<g id="edge2_Node000001_Node000003" class="edge">
<title>Node3&#45;&gt;Node1</title>
<g id="a_edge2_Node000001_Node000003"><a xlink:title=" ">
<path fill="none" stroke="#9a32cd" stroke-dasharray="5,2" d="M182.78,-22.12C223.8,-25.2 271.72,-28.8 312.74,-31.88"/>
<polygon fill="#9a32cd" stroke="#9a32cd" points="183.02,-18.63 172.78,-21.37 182.49,-25.61 183.02,-18.63"/>
</a>
</g>
<text text-anchor="middle" x="243.5" y="-32" font-family="Helvetica,sans-Serif" font-size="10.00" fill="grey"> matrix_free_context</text>
</g>
</g>
</svg>
