<?xml version="1.0" encoding="UTF-8" standalone="no"?>
<!DOCTYPE svg PUBLIC "-//W3C//DTD SVG 1.1//EN"
 "http://www.w3.org/Graphics/SVG/1.1/DTD/svg11.dtd">
<!-- Generated by graphviz version 2.43.0 (0)
 -->
<!-- Title: MeltPoolDG::Evaporation::RecoilPressureModelBase&lt; number &gt; Pages: 1 -->
<svg width="378pt" height="167pt"
 viewBox="0.00 0.00 378.00 167.00" xmlns="http://www.w3.org/2000/svg" xmlns:xlink="http://www.w3.org/1999/xlink">
<g id="graph0" class="graph" transform="scale(1 1) rotate(0) translate(4 163)">
<title>MeltPoolDG::Evaporation::RecoilPressureModelBase&lt; number &gt;</title>
<!-- Node1 -->
<g id="Node000001" class="node">
<title>Node1</title>
<g id="a_Node000001"><a xlink:title=" ">
<polygon fill="#999999" stroke="#666666" points="149,-100 0,-100 0,-59 149,-59 149,-100"/>
<text text-anchor="start" x="8" y="-88" font-family="Helvetica,sans-Serif" font-size="10.00">MeltPoolDG::Evaporation</text>
<text text-anchor="start" x="8" y="-77" font-family="Helvetica,sans-Serif" font-size="10.00">::RecoilPressureModelBase</text>
<text text-anchor="middle" x="74.5" y="-66" font-family="Helvetica,sans-Serif" font-size="10.00">&lt; number &gt;</text>
</a>
</g>
</g>
<!-- Node2 -->
<g id="Node000002" class="node">
<title>Node2</title>
<g id="a_Node000002"><a xlink:href="classMeltPoolDG_1_1Evaporation_1_1RecoilPressureHybridModel.html" target="_top" xlink:title=" ">
<polygon fill="white" stroke="#666666" points="356,-159 199,-159 199,-118 356,-118 356,-159"/>
<text text-anchor="start" x="207" y="-147" font-family="Helvetica,sans-Serif" font-size="10.00">MeltPoolDG::Evaporation</text>
<text text-anchor="start" x="207" y="-136" font-family="Helvetica,sans-Serif" font-size="10.00">::RecoilPressureHybridModel</text>
<text text-anchor="middle" x="277.5" y="-125" font-family="Helvetica,sans-Serif" font-size="10.00">&lt; number &gt;</text>
</a>
</g>
</g>
<!-- Node1&#45;&gt;Node2 -->
<g id="edge1_Node000001_Node000002" class="edge">
<title>Node1&#45;&gt;Node2</title>
<g id="a_edge1_Node000001_Node000002"><a xlink:title=" ">
<path fill="none" stroke="#63b8ff" d="M155.35,-102.94C172.22,-107.89 189.91,-113.08 206.39,-117.92"/>
<polygon fill="#63b8ff" stroke="#63b8ff" points="156.1,-99.51 145.52,-100.05 154.13,-106.23 156.1,-99.51"/>
</a>
</g>
</g>
<!-- Node3 -->
<g id="Node000003" class="node">
<title>Node3</title>
<g id="a_Node000003"><a xlink:href="classMeltPoolDG_1_1Evaporation_1_1RecoilPressureModelPressureAware.html" target="_top" xlink:title="This class implements the recoil pressure model computed with pressure&#45;aware boundary conditions,...">
<polygon fill="white" stroke="#666666" points="361,-100 194,-100 194,-59 361,-59 361,-100"/>
<text text-anchor="start" x="202" y="-88" font-family="Helvetica,sans-Serif" font-size="10.00">MeltPoolDG::Evaporation</text>
<text text-anchor="start" x="202" y="-77" font-family="Helvetica,sans-Serif" font-size="10.00">::RecoilPressureModelPressure</text>
<text text-anchor="middle" x="277.5" y="-66" font-family="Helvetica,sans-Serif" font-size="10.00">Aware&lt; number &gt;</text>
</a>
</g>
</g>
<!-- Node1&#45;&gt;Node3 -->
<g id="edge2_Node000001_Node000003" class="edge">
<title>Node1&#45;&gt;Node3</title>
<g id="a_edge2_Node000001_Node000003"><a xlink:title=" ">
<path fill="none" stroke="#63b8ff" d="M159.21,-79.5C170.71,-79.5 182.51,-79.5 193.98,-79.5"/>
<polygon fill="#63b8ff" stroke="#63b8ff" points="159.2,-76 149.2,-79.5 159.2,-83 159.2,-76"/>
</a>
</g>
</g>
<!-- Node4 -->
<g id="Node000004" class="node">
<title>Node4</title>
<g id="a_Node000004"><a xlink:href="classMeltPoolDG_1_1Evaporation_1_1RecoilPressurePhenomenologicalModel.html" target="_top" xlink:title=" ">
<polygon fill="white" stroke="#666666" points="370,-41 185,-41 185,0 370,0 370,-41"/>
<text text-anchor="start" x="193" y="-29" font-family="Helvetica,sans-Serif" font-size="10.00">MeltPoolDG::Evaporation</text>
<text text-anchor="start" x="193" y="-18" font-family="Helvetica,sans-Serif" font-size="10.00">::RecoilPressurePhenomenological</text>
<text text-anchor="middle" x="277.5" y="-7" font-family="Helvetica,sans-Serif" font-size="10.00">Model&lt; number &gt;</text>
</a>
</g>
</g>
<!-- Node1&#45;&gt;Node4 -->
<g id="edge3_Node000001_Node000004" class="edge">
<title>Node1&#45;&gt;Node4</title>
<g id="a_edge3_Node000001_Node000004"><a xlink:title=" ">
<path fill="none" stroke="#63b8ff" d="M155.35,-56.06C172.22,-51.11 189.91,-45.92 206.39,-41.08"/>
<polygon fill="#63b8ff" stroke="#63b8ff" points="154.13,-52.77 145.52,-58.95 156.1,-59.49 154.13,-52.77"/>
</a>
</g>
</g>
</g>
</svg>
