<?xml version="1.0" encoding="UTF-8" standalone="no"?>
<!DOCTYPE svg PUBLIC "-//W3C//DTD SVG 1.1//EN"
 "http://www.w3.org/Graphics/SVG/1.1/DTD/svg11.dtd">
<!-- Generated by graphviz version 2.43.0 (0)
 -->
<!-- Title: MeltPoolDG::LevelSet::LevelSetOperation&lt; dim, number &gt; Pages: 1 -->
<svg width="372pt" height="98pt"
 viewBox="0.00 0.00 372.00 97.50" xmlns="http://www.w3.org/2000/svg" xmlns:xlink="http://www.w3.org/1999/xlink">
<g id="graph0" class="graph" transform="scale(1 1) rotate(0) translate(4 93.5)">
<title>MeltPoolDG::LevelSet::LevelSetOperation&lt; dim, number &gt;</title>
<!-- Node1 -->
<g id="Node000001" class="node">
<title>Node1</title>
<g id="a_Node000001"><a xlink:title=" ">
<polygon fill="#999999" stroke="#666666" points="364,-62.5 242,-62.5 242,-21.5 364,-21.5 364,-62.5"/>
<text text-anchor="start" x="250" y="-50.5" font-family="Helvetica,sans-Serif" font-size="10.00">MeltPoolDG::LevelSet</text>
<text text-anchor="start" x="250" y="-39.5" font-family="Helvetica,sans-Serif" font-size="10.00">::LevelSetOperation&lt;</text>
<text text-anchor="middle" x="303" y="-28.5" font-family="Helvetica,sans-Serif" font-size="10.00"> dim, number &gt;</text>
</a>
</g>
</g>
<!-- Node2 -->
<g id="Node000002" class="node">
<title>Node2</title>
<g id="a_Node000002"><a xlink:href="classMeltPoolDG_1_1LevelSet_1_1LevelSetOperationBase.html" target="_top" xlink:title=" ">
<polygon fill="white" stroke="#666666" points="138.5,-89.5 1.5,-89.5 1.5,-48.5 138.5,-48.5 138.5,-89.5"/>
<text text-anchor="start" x="9.5" y="-77.5" font-family="Helvetica,sans-Serif" font-size="10.00">MeltPoolDG::LevelSet</text>
<text text-anchor="start" x="9.5" y="-66.5" font-family="Helvetica,sans-Serif" font-size="10.00">::LevelSetOperationBase</text>
<text text-anchor="middle" x="70" y="-55.5" font-family="Helvetica,sans-Serif" font-size="10.00">&lt; dim, number &gt;</text>
</a>
</g>
</g>
<!-- Node2&#45;&gt;Node1 -->
<g id="edge1_Node000001_Node000002" class="edge">
<title>Node2&#45;&gt;Node1</title>
<g id="a_edge1_Node000001_Node000002"><a xlink:title=" ">
<path fill="none" stroke="#63b8ff" d="M148.86,-59.9C179.17,-56.36 213.35,-52.36 241.73,-49.05"/>
<polygon fill="#63b8ff" stroke="#63b8ff" points="148.27,-56.44 138.75,-61.08 149.09,-63.4 148.27,-56.44"/>
</a>
</g>
</g>
<!-- Node3 -->
<g id="Node000003" class="node">
<title>Node3</title>
<g id="a_Node000003"><a xlink:href="classMeltPoolDG_1_1ScratchData.html" target="_top" xlink:title=" ">
<polygon fill="white" stroke="#666666" points="140,-30 0,-30 0,0 140,0 140,-30"/>
<text text-anchor="start" x="8" y="-18" font-family="Helvetica,sans-Serif" font-size="10.00">MeltPoolDG::ScratchData</text>
<text text-anchor="middle" x="70" y="-7" font-family="Helvetica,sans-Serif" font-size="10.00">&lt; dim, dim, number &gt;</text>
</a>
</g>
</g>
<!-- Node3&#45;&gt;Node1 -->
<g id="edge2_Node000001_Node000003" class="edge">
<title>Node3&#45;&gt;Node1</title>
<g id="a_edge2_Node000001_Node000003"><a xlink:title=" ">
<path fill="none" stroke="#9a32cd" stroke-dasharray="5,2" d="M150.31,-24.27C180.26,-27.77 213.82,-31.69 241.74,-34.96"/>
<polygon fill="#9a32cd" stroke="#9a32cd" points="150.65,-20.79 140.31,-23.1 149.83,-27.74 150.65,-20.79"/>
</a>
</g>
<text text-anchor="middle" x="191" y="-36" font-family="Helvetica,sans-Serif" font-size="10.00" fill="grey"> scratch_data</text>
</g>
</g>
</svg>
