<?xml version="1.0" encoding="UTF-8" standalone="no"?>
<!DOCTYPE svg PUBLIC "-//W3C//DTD SVG 1.1//EN"
 "http://www.w3.org/Graphics/SVG/1.1/DTD/svg11.dtd">
<!-- Generated by graphviz version 2.43.0 (0)
 -->
<!-- Title: MeltPoolDG::Simulation::RecoilPressure::SimulationRecoilPressure&lt; dim, number &gt; Pages: 1 -->
<svg width="720pt" height="108pt"
 viewBox="0.00 0.00 720.00 108.00" xmlns="http://www.w3.org/2000/svg" xmlns:xlink="http://www.w3.org/1999/xlink">
<g id="graph0" class="graph" transform="scale(1 1) rotate(0) translate(4 104)">
<title>MeltPoolDG::Simulation::RecoilPressure::SimulationRecoilPressure&lt; dim, number &gt;</title>
<!-- Node1 -->
<g id="Node000001" class="node">
<title>Node1</title>
<g id="a_Node000001"><a xlink:title=" ">
<polygon fill="#999999" stroke="#666666" points="712,-75.5 539,-75.5 539,-34.5 712,-34.5 712,-75.5"/>
<text text-anchor="start" x="547" y="-63.5" font-family="Helvetica,sans-Serif" font-size="10.00">MeltPoolDG::Simulation</text>
<text text-anchor="start" x="547" y="-52.5" font-family="Helvetica,sans-Serif" font-size="10.00">::RecoilPressure::Simulation</text>
<text text-anchor="middle" x="625.5" y="-41.5" font-family="Helvetica,sans-Serif" font-size="10.00">RecoilPressure&lt; dim, number &gt;</text>
</a>
</g>
</g>
<!-- Node2 -->
<g id="Node000002" class="node">
<title>Node2</title>
<g id="a_Node000002"><a xlink:href="classMeltPoolDG_1_1MeltPoolCase.html" target="_top" xlink:title=" ">
<polygon fill="white" stroke="#666666" points="442.5,-100 295.5,-100 295.5,-70 442.5,-70 442.5,-100"/>
<text text-anchor="start" x="303.5" y="-88" font-family="Helvetica,sans-Serif" font-size="10.00">MeltPoolDG::MeltPoolCase</text>
<text text-anchor="middle" x="369" y="-77" font-family="Helvetica,sans-Serif" font-size="10.00">&lt; dim, number &gt;</text>
</a>
</g>
</g>
<!-- Node2&#45;&gt;Node1 -->
<g id="edge1_Node000001_Node000002" class="edge">
<title>Node2&#45;&gt;Node1</title>
<g id="a_edge1_Node000001_Node000002"><a xlink:title=" ">
<path fill="none" stroke="#63b8ff" d="M452.59,-75.26C480.16,-72.01 510.94,-68.39 538.75,-65.11"/>
<polygon fill="#63b8ff" stroke="#63b8ff" points="452.11,-71.8 442.59,-76.44 452.93,-78.75 452.11,-71.8"/>
</a>
</g>
</g>
<!-- Node3 -->
<g id="Node000003" class="node">
<title>Node3</title>
<g id="a_Node000003"><a xlink:href="classMeltPoolDG_1_1SimulationCaseBase.html" target="_top" xlink:title="Base class for managing a simulation case in a parallel computing environment.">
<polygon fill="white" stroke="#666666" points="179,-100 0,-100 0,-70 179,-70 179,-100"/>
<text text-anchor="start" x="8" y="-88" font-family="Helvetica,sans-Serif" font-size="10.00">MeltPoolDG::SimulationCase</text>
<text text-anchor="middle" x="89.5" y="-77" font-family="Helvetica,sans-Serif" font-size="10.00">Base&lt; dim, number, spacedim &gt;</text>
</a>
</g>
</g>
<!-- Node3&#45;&gt;Node2 -->
<g id="edge2_Node000002_Node000003" class="edge">
<title>Node3&#45;&gt;Node2</title>
<g id="a_edge2_Node000002_Node000003"><a xlink:title=" ">
<path fill="none" stroke="#63b8ff" d="M189.28,-85C224.18,-85 262.76,-85 295.12,-85"/>
<polygon fill="#63b8ff" stroke="#63b8ff" points="189.07,-81.5 179.07,-85 189.07,-88.5 189.07,-81.5"/>
</a>
</g>
</g>
<!-- Node4 -->
<g id="Node000004" class="node">
<title>Node4</title>
<g id="a_Node000004"><a xlink:href="structMeltPoolDG_1_1Simulation_1_1RecoilPressure_1_1SimulationRecoilPressure_1_1SliceData.html" target="_top" xlink:title=" ">
<polygon fill="white" stroke="#666666" points="450,-52 288,-52 288,0 450,0 450,-52"/>
<text text-anchor="start" x="296" y="-40" font-family="Helvetica,sans-Serif" font-size="10.00">MeltPoolDG::Simulation</text>
<text text-anchor="start" x="296" y="-29" font-family="Helvetica,sans-Serif" font-size="10.00">::RecoilPressure::Simulation</text>
<text text-anchor="start" x="296" y="-18" font-family="Helvetica,sans-Serif" font-size="10.00">RecoilPressure&lt; dim, number</text>
<text text-anchor="middle" x="369" y="-7" font-family="Helvetica,sans-Serif" font-size="10.00"> &gt;::SliceData</text>
</a>
</g>
</g>
<!-- Node4&#45;&gt;Node1 -->
<g id="edge3_Node000001_Node000004" class="edge">
<title>Node4&#45;&gt;Node1</title>
<g id="a_edge3_Node000001_Node000004"><a xlink:title=" ">
<path fill="none" stroke="#9a32cd" stroke-dasharray="5,2" d="M460.2,-36.28C485.68,-39.18 513.34,-42.33 538.56,-45.21"/>
<polygon fill="#9a32cd" stroke="#9a32cd" points="460.51,-32.79 450.18,-35.14 459.72,-39.75 460.51,-32.79"/>
</a>
</g>
<text text-anchor="middle" x="494.5" y="-46" font-family="Helvetica,sans-Serif" font-size="10.00" fill="grey"> slice_data</text>
</g>
<!-- Node5 -->
<g id="Node000005" class="node">
<title>Node5</title>
<g id="a_Node000005"><a xlink:href="structMeltPoolDG_1_1Simulation_1_1RecoilPressure_1_1SimulationRecoilPressure_1_1SliceData_1_1RefinedRegion.html" target="_top" xlink:title=" ">
<polygon fill="white" stroke="#666666" points="170.5,-52 8.5,-52 8.5,0 170.5,0 170.5,-52"/>
<text text-anchor="start" x="16.5" y="-40" font-family="Helvetica,sans-Serif" font-size="10.00">MeltPoolDG::Simulation</text>
<text text-anchor="start" x="16.5" y="-29" font-family="Helvetica,sans-Serif" font-size="10.00">::RecoilPressure::Simulation</text>
<text text-anchor="start" x="16.5" y="-18" font-family="Helvetica,sans-Serif" font-size="10.00">RecoilPressure&lt; dim, number</text>
<text text-anchor="middle" x="89.5" y="-7" font-family="Helvetica,sans-Serif" font-size="10.00"> &gt;::SliceData::RefinedRegion</text>
</a>
</g>
</g>
<!-- Node5&#45;&gt;Node4 -->
<g id="edge4_Node000004_Node000005" class="edge">
<title>Node5&#45;&gt;Node4</title>
<g id="a_edge4_Node000004_Node000005"><a xlink:title=" ">
<path fill="none" stroke="#9a32cd" stroke-dasharray="5,2" d="M180.84,-26C215.35,-26 254.43,-26 287.92,-26"/>
<polygon fill="#9a32cd" stroke="#9a32cd" points="180.76,-22.5 170.76,-26 180.76,-29.5 180.76,-22.5"/>
</a>
</g>
<text text-anchor="middle" x="233.5" y="-29" font-family="Helvetica,sans-Serif" font-size="10.00" fill="grey"> refined_region</text>
</g>
</g>
</svg>
