<?xml version="1.0" encoding="UTF-8" standalone="no"?>
<!DOCTYPE svg PUBLIC "-//W3C//DTD SVG 1.1//EN"
 "http://www.w3.org/Graphics/SVG/1.1/DTD/svg11.dtd">
<!-- Generated by graphviz version 2.43.0 (0)
 -->
<!-- Title: MeltPoolDG::OperatorMatrixFree&lt; dim, number &gt; Pages: 1 -->
<!--zoomable 511 -->

<svg id="main" version="1.1" xmlns="http://www.w3.org/2000/svg" xmlns:xlink="http://www.w3.org/1999/xlink" xml:space="preserve" onload="init(evt)">
<style type="text/css"><![CDATA[
.node, .edge {opacity: 0.7;}
.node.selected, .edge.selected {opacity: 1;}
.edge:hover path { stroke: red; }
.edge:hover polygon { stroke: red; fill: red; }
]]></style>

<defs>
  <circle id="rim" cx="0" cy="0" r="7"/>
  <circle id="rim2" cx="0" cy="0" r="3.5"/>
  <g id="zoomPlus">
    <use xlink:href="#rim" fill="#404040"><set attributeName="fill" to="#808080" begin="zoomplus.mouseover" end="zoomplus.mouseout"/></use>
    <path d="M-4,0h8M0,-4v8" fill="none" stroke="white" stroke-width="1.5" pointer-events="none"/>
  </g>
  <g id="zoomMin">
    <use xlink:href="#rim" fill="#404040"><set attributeName="fill" to="#808080" begin="zoomminus.mouseover" end="zoomminus.mouseout"/></use>
    <path d="M-4,0h8" fill="none" stroke="white" stroke-width="1.5" pointer-events="none"/>
  </g>
  <g id="arrowUp" transform="translate(30 24)">
    <use xlink:href="#rim"/>
    <path pointer-events="none" fill="none" stroke="white" stroke-width="1.5" d="M0,-3.0v7 M-2.5,-0.5L0,-3.0L2.5,-0.5"/>
  </g>
  <g id="arrowRight" transform="rotate(90) translate(36 -43)">
    <use xlink:href="#rim"/>
    <path pointer-events="none" fill="none" stroke="white" stroke-width="1.5" d="M0,-3.0v7 M-2.5,-0.5L0,-3.0L2.5,-0.5"/>
  </g>
  <g id="arrowDown" transform="rotate(180) translate(-30 -48)">
    <use xlink:href="#rim"/>
    <path pointer-events="none" fill="none" stroke="white" stroke-width="1.5" d="M0,-3.0v7 M-2.5,-0.5L0,-3.0L2.5,-0.5"/>
  </g>
  <g id="arrowLeft" transform="rotate(270) translate(-36 17)">
    <use xlink:href="#rim"/>
    <path pointer-events="none" fill="none" stroke="white" stroke-width="1.5" d="M0,-3.0v7 M-2.5,-0.5L0,-3.0L2.5,-0.5"/>
  </g>
  <g id="resetDef">
    <use xlink:href="#rim2" fill="#404040"><set attributeName="fill" to="#808080" begin="reset.mouseover" end="reset.mouseout"/></use>
  </g>
</defs>
<script type="application/ecmascript">
var viewWidth = 554;
var viewHeight = 511;
var sectionId = 'dynsection-0';
</script>
<script type="application/ecmascript" xlink:href="svg.min.js"/>
<svg id="graph" class="graph">
<g id="viewport">
<title>MeltPoolDG::OperatorMatrixFree&lt; dim, number &gt;</title>
<!-- Node1 -->
<g id="Node000001" class="node">
<title>Node1</title>
<g id="a_Node000001"><a xlink:title="Operator handling matrix&#45;free computations.">
<polygon fill="#999999" stroke="#666666" points="338,-271.5 183,-271.5 183,-241.5 338,-241.5 338,-271.5"/>
<text text-anchor="start" x="191" y="-259.5" font-family="Helvetica,sans-Serif" font-size="10.00">MeltPoolDG::OperatorMatrix</text>
<text text-anchor="middle" x="260.5" y="-248.5" font-family="Helvetica,sans-Serif" font-size="10.00">Free&lt; dim, number &gt;</text>
</a>
</g>
</g>
<!-- Node3 -->
<g id="Node000003" class="node">
<title>Node3</title>
<g id="a_Node000003"><a xlink:href="classMeltPoolDG_1_1Heat_1_1HeatCutOperator.html" target="_top" xlink:title=" ">
<polygon fill="white" stroke="#666666" points="534.5,-502.5 385.5,-502.5 385.5,-472.5 534.5,-472.5 534.5,-502.5"/>
<text text-anchor="start" x="393.5" y="-490.5" font-family="Helvetica,sans-Serif" font-size="10.00">MeltPoolDG::Heat::HeatCut</text>
<text text-anchor="middle" x="460" y="-479.5" font-family="Helvetica,sans-Serif" font-size="10.00">Operator&lt; dim, number &gt;</text>
</a>
</g>
</g>
<!-- Node1&#45;&gt;Node3 -->
<g id="edge2_Node000001_Node000003" class="edge">
<title>Node1&#45;&gt;Node3</title>
<g id="a_edge2_Node000001_Node000003"><a xlink:title=" ">
<path fill="none" stroke="#63b8ff" d="M268.09,-281.43C280.93,-325.05 313.48,-415.15 374,-463.5 378.31,-466.95 383.09,-469.9 388.13,-472.42"/>
<polygon fill="#63b8ff" stroke="#63b8ff" points="271.41,-280.31 265.32,-271.64 264.68,-282.22 271.41,-280.31"/>
</a>
</g>
</g>
<!-- Node4 -->
<g id="Node000004" class="node">
<title>Node4</title>
<g id="a_Node000004"><a xlink:href="classMeltPoolDG_1_1Heat_1_1HeatDiffuseMultiPhaseOperator.html" target="_top" xlink:title=" ">
<polygon fill="white" stroke="#666666" points="543.5,-454 376.5,-454 376.5,-413 543.5,-413 543.5,-454"/>
<text text-anchor="start" x="384.5" y="-442" font-family="Helvetica,sans-Serif" font-size="10.00">MeltPoolDG::Heat::HeatDiffuse</text>
<text text-anchor="start" x="384.5" y="-431" font-family="Helvetica,sans-Serif" font-size="10.00">MultiPhaseOperator&lt; dim,</text>
<text text-anchor="middle" x="460" y="-420" font-family="Helvetica,sans-Serif" font-size="10.00"> number &gt;</text>
</a>
</g>
</g>
<!-- Node1&#45;&gt;Node4 -->
<g id="edge3_Node000001_Node000004" class="edge">
<title>Node1&#45;&gt;Node4</title>
<g id="a_edge3_Node000001_Node000004"><a xlink:title=" ">
<path fill="none" stroke="#63b8ff" d="M273.92,-280.77C291.8,-313.41 327.78,-371.16 374,-404.5 378.3,-407.6 382.96,-410.39 387.8,-412.89"/>
<polygon fill="#63b8ff" stroke="#63b8ff" points="276.97,-279.06 269.16,-271.89 270.8,-282.36 276.97,-279.06"/>
</a>
</g>
</g>
<!-- Node5 -->
<g id="Node000005" class="node">
<title>Node5</title>
<g id="a_Node000005"><a xlink:href="classMeltPoolDG_1_1LevelSet_1_1AdvectionDiffusionOperator.html" target="_top" xlink:title=" ">
<polygon fill="white" stroke="#666666" points="539,-395 381,-395 381,-354 539,-354 539,-395"/>
<text text-anchor="start" x="389" y="-383" font-family="Helvetica,sans-Serif" font-size="10.00">MeltPoolDG::LevelSet</text>
<text text-anchor="start" x="389" y="-372" font-family="Helvetica,sans-Serif" font-size="10.00">::AdvectionDiffusionOperator</text>
<text text-anchor="middle" x="460" y="-361" font-family="Helvetica,sans-Serif" font-size="10.00">&lt; dim, number &gt;</text>
</a>
</g>
</g>
<!-- Node1&#45;&gt;Node5 -->
<g id="edge4_Node000001_Node000005" class="edge">
<title>Node1&#45;&gt;Node5</title>
<g id="a_edge4_Node000001_Node000005"><a xlink:title=" ">
<path fill="none" stroke="#63b8ff" d="M284.4,-278.51C306.03,-298.31 340.11,-327.03 374,-345.5 379.61,-348.56 385.61,-351.38 391.72,-353.97"/>
<polygon fill="#63b8ff" stroke="#63b8ff" points="286.73,-275.9 277.02,-271.66 281.97,-281.03 286.73,-275.9"/>
</a>
</g>
</g>
<!-- Node6 -->
<g id="Node000006" class="node">
<title>Node6</title>
<g id="a_Node000006"><a xlink:href="classMeltPoolDG_1_1LevelSet_1_1CurvatureOperator.html" target="_top" xlink:title=" ">
<polygon fill="white" stroke="#666666" points="521,-336 399,-336 399,-295 521,-295 521,-336"/>
<text text-anchor="start" x="407" y="-324" font-family="Helvetica,sans-Serif" font-size="10.00">MeltPoolDG::LevelSet</text>
<text text-anchor="start" x="407" y="-313" font-family="Helvetica,sans-Serif" font-size="10.00">::CurvatureOperator&lt;</text>
<text text-anchor="middle" x="460" y="-302" font-family="Helvetica,sans-Serif" font-size="10.00"> dim, number &gt;</text>
</a>
</g>
</g>
<!-- Node1&#45;&gt;Node6 -->
<g id="edge5_Node000001_Node000006" class="edge">
<title>Node1&#45;&gt;Node6</title>
<g id="a_edge5_Node000001_Node000006"><a xlink:title=" ">
<path fill="none" stroke="#63b8ff" d="M321.73,-274.49C346.21,-281.81 374.43,-290.24 398.9,-297.55"/>
<polygon fill="#63b8ff" stroke="#63b8ff" points="322.43,-271.05 311.85,-271.54 320.43,-277.76 322.43,-271.05"/>
</a>
</g>
</g>
<!-- Node7 -->
<g id="Node000007" class="node">
<title>Node7</title>
<g id="a_Node000007"><a xlink:href="classMeltPoolDG_1_1LevelSet_1_1NormalVectorOperator.html" target="_top" xlink:title=" ">
<polygon fill="white" stroke="#666666" points="526,-277 394,-277 394,-236 526,-236 526,-277"/>
<text text-anchor="start" x="402" y="-265" font-family="Helvetica,sans-Serif" font-size="10.00">MeltPoolDG::LevelSet</text>
<text text-anchor="start" x="402" y="-254" font-family="Helvetica,sans-Serif" font-size="10.00">::NormalVectorOperator</text>
<text text-anchor="middle" x="460" y="-243" font-family="Helvetica,sans-Serif" font-size="10.00">&lt; dim, number &gt;</text>
</a>
</g>
</g>
<!-- Node1&#45;&gt;Node7 -->
<g id="edge6_Node000001_Node000007" class="edge">
<title>Node1&#45;&gt;Node7</title>
<g id="a_edge6_Node000001_Node000007"><a xlink:title=" ">
<path fill="none" stroke="#63b8ff" d="M348.17,-256.5C363.53,-256.5 379.3,-256.5 393.94,-256.5"/>
<polygon fill="#63b8ff" stroke="#63b8ff" points="348.14,-253 338.14,-256.5 348.14,-260 348.14,-253"/>
</a>
</g>
</g>
<!-- Node8 -->
<g id="Node000008" class="node">
<title>Node8</title>
<g id="a_Node000008"><a xlink:href="classMeltPoolDG_1_1LevelSet_1_1OlssonOperator.html" target="_top" xlink:title="Operator for the Olsson reinitialization method used in level set methods.">
<polygon fill="white" stroke="#666666" points="525.5,-218 394.5,-218 394.5,-177 525.5,-177 525.5,-218"/>
<text text-anchor="start" x="402.5" y="-206" font-family="Helvetica,sans-Serif" font-size="10.00">MeltPoolDG::LevelSet</text>
<text text-anchor="start" x="402.5" y="-195" font-family="Helvetica,sans-Serif" font-size="10.00">::OlssonOperator&lt; dim,</text>
<text text-anchor="middle" x="460" y="-184" font-family="Helvetica,sans-Serif" font-size="10.00"> number &gt;</text>
</a>
</g>
</g>
<!-- Node1&#45;&gt;Node8 -->
<g id="edge7_Node000001_Node000008" class="edge">
<title>Node1&#45;&gt;Node8</title>
<g id="a_edge7_Node000001_Node000008"><a xlink:title=" ">
<path fill="none" stroke="#63b8ff" d="M321.47,-238.58C344.45,-231.72 370.76,-223.86 394.17,-216.87"/>
<polygon fill="#63b8ff" stroke="#63b8ff" points="320.43,-235.24 311.85,-241.46 322.43,-241.95 320.43,-235.24"/>
</a>
</g>
</g>
<!-- Node9 -->
<g id="Node000009" class="node">
<title>Node9</title>
<g id="a_Node000009"><a xlink:href="classMeltPoolDG_1_1LevelSet_1_1ReinitializationEllipticOperator.html" target="_top" xlink:title="Operator for the matrix&#45;free evaluation of diffusive reinitialization of the level set function.">
<polygon fill="white" stroke="#666666" points="546,-159 374,-159 374,-118 546,-118 546,-159"/>
<text text-anchor="start" x="382" y="-147" font-family="Helvetica,sans-Serif" font-size="10.00">MeltPoolDG::LevelSet</text>
<text text-anchor="start" x="382" y="-136" font-family="Helvetica,sans-Serif" font-size="10.00">::ReinitializationEllipticOperator</text>
<text text-anchor="middle" x="460" y="-125" font-family="Helvetica,sans-Serif" font-size="10.00">&lt; dim, number &gt;</text>
</a>
</g>
</g>
<!-- Node1&#45;&gt;Node9 -->
<g id="edge8_Node000001_Node000009" class="edge">
<title>Node1&#45;&gt;Node9</title>
<g id="a_edge8_Node000001_Node000009"><a xlink:title=" ">
<path fill="none" stroke="#63b8ff" d="M284.4,-234.49C306.03,-214.69 340.11,-185.97 374,-167.5 379.61,-164.44 385.61,-161.62 391.72,-159.03"/>
<polygon fill="#63b8ff" stroke="#63b8ff" points="281.97,-231.97 277.02,-241.34 286.73,-237.1 281.97,-231.97"/>
</a>
</g>
</g>
<!-- Node10 -->
<g id="Node000010" class="node">
<title>Node10</title>
<g id="a_Node000010"><a xlink:href="classMeltPoolDG_1_1RadiativeTransport_1_1PseudoRTEOperator.html" target="_top" xlink:title=" ">
<polygon fill="white" stroke="#666666" points="546,-100 374,-100 374,-59 546,-59 546,-100"/>
<text text-anchor="start" x="382" y="-88" font-family="Helvetica,sans-Serif" font-size="10.00">MeltPoolDG::RadiativeTransport</text>
<text text-anchor="start" x="382" y="-77" font-family="Helvetica,sans-Serif" font-size="10.00">::PseudoRTEOperator&lt; dim,</text>
<text text-anchor="middle" x="460" y="-66" font-family="Helvetica,sans-Serif" font-size="10.00"> number &gt;</text>
</a>
</g>
</g>
<!-- Node1&#45;&gt;Node10 -->
<g id="edge9_Node000001_Node000010" class="edge">
<title>Node1&#45;&gt;Node10</title>
<g id="a_edge9_Node000001_Node000010"><a xlink:title=" ">
<path fill="none" stroke="#63b8ff" d="M273.92,-232.23C291.8,-199.59 327.78,-141.84 374,-108.5 378.3,-105.4 382.96,-102.61 387.8,-100.11"/>
<polygon fill="#63b8ff" stroke="#63b8ff" points="270.8,-230.64 269.16,-241.11 276.97,-233.94 270.8,-230.64"/>
</a>
</g>
</g>
<!-- Node11 -->
<g id="Node000011" class="node">
<title>Node11</title>
<g id="a_Node000011"><a xlink:href="classMeltPoolDG_1_1RadiativeTransport_1_1RadiativeTransportOperator.html" target="_top" xlink:title=" ">
<polygon fill="white" stroke="#666666" points="546,-41 374,-41 374,0 546,0 546,-41"/>
<text text-anchor="start" x="382" y="-29" font-family="Helvetica,sans-Serif" font-size="10.00">MeltPoolDG::RadiativeTransport</text>
<text text-anchor="start" x="382" y="-18" font-family="Helvetica,sans-Serif" font-size="10.00">::RadiativeTransportOperator</text>
<text text-anchor="middle" x="460" y="-7" font-family="Helvetica,sans-Serif" font-size="10.00">&lt; dim, number &gt;</text>
</a>
</g>
</g>
<!-- Node1&#45;&gt;Node11 -->
<g id="edge10_Node000001_Node000011" class="edge">
<title>Node1&#45;&gt;Node11</title>
<g id="a_edge10_Node000001_Node000011"><a xlink:title=" ">
<path fill="none" stroke="#63b8ff" d="M268.46,-231.58C281.78,-188.35 314.94,-99.33 374,-49.5 377.69,-46.38 381.74,-43.6 386,-41.1"/>
<polygon fill="#63b8ff" stroke="#63b8ff" points="265.07,-230.7 265.57,-241.29 271.78,-232.7 265.07,-230.7"/>
</a>
</g>
</g>
<!-- Node2 -->
<g id="Node000002" class="node">
<title>Node2</title>
<g id="a_Node000002"><a xlink:href="classMeltPoolDG_1_1OperatorBase.html" target="_top" xlink:title=" ">
<polygon fill="white" stroke="#666666" points="147,-271.5 0,-271.5 0,-241.5 147,-241.5 147,-271.5"/>
<text text-anchor="start" x="8" y="-259.5" font-family="Helvetica,sans-Serif" font-size="10.00">MeltPoolDG::OperatorBase</text>
<text text-anchor="middle" x="73.5" y="-248.5" font-family="Helvetica,sans-Serif" font-size="10.00">&lt; number &gt;</text>
</a>
</g>
</g>
<!-- Node2&#45;&gt;Node1 -->
<g id="edge1_Node000001_Node000002" class="edge">
<title>Node2&#45;&gt;Node1</title>
<g id="a_edge1_Node000001_Node000002"><a xlink:title=" ">
<path fill="none" stroke="#63b8ff" d="M157.36,-256.5C165.85,-256.5 174.44,-256.5 182.86,-256.5"/>
<polygon fill="#63b8ff" stroke="#63b8ff" points="157.09,-253 147.09,-256.5 157.09,-260 157.09,-253"/>
</a>
</g>
</g>
</g>
</svg>

<g id="navigator" transform="translate(0 0)" fill="#404254">
  <rect fill="#f2f5e9" fill-opacity="0.5" stroke="#606060" stroke-width=".5" x="0" y="0" width="60" height="60"/>
  <use id="zoomplus" xlink:href="#zoomPlus" x="17" y="9" onmousedown="handleZoom(evt,'in')"/>
  <use id="zoomminus" xlink:href="#zoomMin" x="42" y="9" onmousedown="handleZoom(evt,'out')"/>
  <use id="reset" xlink:href="#resetDef" x="30" y="36" onmousedown="handleReset()"/>
   <use id="arrowup" xlink:href="#arrowUp" x="0" y="0" onmousedown="handlePan(0,-1)"/>
  <use id="arrowright" xlink:href="#arrowRight" x="0" y="0" onmousedown="handlePan(1,0)"/>
  <use id="arrowdown" xlink:href="#arrowDown" x="0" y="0" onmousedown="handlePan(0,1)"/>
  <use id="arrowleft" xlink:href="#arrowLeft" x="0" y="0" onmousedown="handlePan(-1,0)"/>
</g>
<svg viewBox="0 0 15 15" width="100%" height="30px" preserveAspectRatio="xMaxYMin meet">
 <g id="arrow_out" transform="scale(0.3 0.3)">
  <a xlink:href="classMeltPoolDG_1_1OperatorMatrixFree__inherit__graph_org.svg" target="_base">
   <rect id="button" ry="5" rx="5" y="6" x="6" height="38" width="38"
        fill="#f2f5e9" fill-opacity="0.5" stroke="#606060" stroke-width="1.0"/>
   <path id="arrow"
     d="M 11.500037,31.436501 C 11.940474,20.09759 22.043105,11.32322 32.158766,21.979434 L 37.068811,17.246167 C 37.068811,17.246167 37.088388,32 37.088388,32 L 22.160133,31.978069 C 22.160133,31.978069 26.997745,27.140456 26.997745,27.140456 C 18.528582,18.264221 13.291696,25.230495 11.500037,31.436501 z"
     style="fill:#404040;"/>
  </a>
 </g>
</svg>

<style type='text/css'>
<![CDATA[
[data-mouse-over-selected='false'] { opacity: 0.7; }
[data-mouse-over-selected='true']  { opacity: 1.0; }
]]>
</style>
<script type="application/ecmascript"><![CDATA[
document.addEventListener('DOMContentLoaded', (event) => {
  highlightEdges();
  highlightAdjacentNodes();
});
]]></script>
</svg>
