<?xml version="1.0" encoding="UTF-8" standalone="no"?>
<!DOCTYPE svg PUBLIC "-//W3C//DTD SVG 1.1//EN"
 "http://www.w3.org/Graphics/SVG/1.1/DTD/svg11.dtd">
<!-- Generated by graphviz version 2.43.0 (0)
 -->
<!-- Title: MeltPoolDG::Simulation::ZalesakDisk::SimulationZalesakDisk&lt; dim, number &gt; Pages: 1 -->
<svg width="189pt" height="192pt"
 viewBox="0.00 0.00 189.00 192.00" xmlns="http://www.w3.org/2000/svg" xmlns:xlink="http://www.w3.org/1999/xlink">
<g id="graph0" class="graph" transform="scale(1 1) rotate(0) translate(4 188)">
<title>MeltPoolDG::Simulation::ZalesakDisk::SimulationZalesakDisk&lt; dim, number &gt;</title>
<!-- Node1 -->
<g id="Node000001" class="node">
<title>Node1</title>
<g id="a_Node000001"><a xlink:title=" ">
<polygon fill="#999999" stroke="#666666" points="181,-41 0,-41 0,0 181,0 181,-41"/>
<text text-anchor="start" x="8" y="-29" font-family="Helvetica,sans-Serif" font-size="10.00">MeltPoolDG::Simulation</text>
<text text-anchor="start" x="8" y="-18" font-family="Helvetica,sans-Serif" font-size="10.00">::ZalesakDisk::SimulationZalesak</text>
<text text-anchor="middle" x="90.5" y="-7" font-family="Helvetica,sans-Serif" font-size="10.00">Disk&lt; dim, number &gt;</text>
</a>
</g>
</g>
<!-- Node2 -->
<g id="Node000002" class="node">
<title>Node2</title>
<g id="a_Node000002"><a xlink:href="classMeltPoolDG_1_1LevelSet_1_1LevelSetCase.html" target="_top" xlink:title=" ">
<polygon fill="white" stroke="#666666" points="151.5,-118 29.5,-118 29.5,-77 151.5,-77 151.5,-118"/>
<text text-anchor="start" x="37.5" y="-106" font-family="Helvetica,sans-Serif" font-size="10.00">MeltPoolDG::LevelSet</text>
<text text-anchor="start" x="37.5" y="-95" font-family="Helvetica,sans-Serif" font-size="10.00">::LevelSetCase&lt; dim,</text>
<text text-anchor="middle" x="90.5" y="-84" font-family="Helvetica,sans-Serif" font-size="10.00"> number &gt;</text>
</a>
</g>
</g>
<!-- Node2&#45;&gt;Node1 -->
<g id="edge1_Node000001_Node000002" class="edge">
<title>Node2&#45;&gt;Node1</title>
<g id="a_edge1_Node000001_Node000002"><a xlink:title=" ">
<path fill="none" stroke="#63b8ff" d="M90.5,-66.69C90.5,-58.08 90.5,-48.9 90.5,-41.07"/>
<polygon fill="#63b8ff" stroke="#63b8ff" points="87,-66.79 90.5,-76.79 94,-66.79 87,-66.79"/>
</a>
</g>
</g>
<!-- Node3 -->
<g id="Node000003" class="node">
<title>Node3</title>
<g id="a_Node000003"><a xlink:href="classMeltPoolDG_1_1SimulationCaseBase.html" target="_top" xlink:title="Base class for managing a simulation case in a parallel computing environment.">
<polygon fill="white" stroke="#666666" points="180,-184 1,-184 1,-154 180,-154 180,-184"/>
<text text-anchor="start" x="9" y="-172" font-family="Helvetica,sans-Serif" font-size="10.00">MeltPoolDG::SimulationCase</text>
<text text-anchor="middle" x="90.5" y="-161" font-family="Helvetica,sans-Serif" font-size="10.00">Base&lt; dim, number, spacedim &gt;</text>
</a>
</g>
</g>
<!-- Node3&#45;&gt;Node2 -->
<g id="edge2_Node000002_Node000003" class="edge">
<title>Node3&#45;&gt;Node2</title>
<g id="a_edge2_Node000002_Node000003"><a xlink:title=" ">
<path fill="none" stroke="#63b8ff" d="M90.5,-143.91C90.5,-135.47 90.5,-126.1 90.5,-118.07"/>
<polygon fill="#63b8ff" stroke="#63b8ff" points="87,-143.94 90.5,-153.94 94,-143.94 87,-143.94"/>
</a>
</g>
</g>
</g>
</svg>
