<?xml version="1.0" encoding="UTF-8" standalone="no"?>
<!DOCTYPE svg PUBLIC "-//W3C//DTD SVG 1.1//EN"
 "http://www.w3.org/Graphics/SVG/1.1/DTD/svg11.dtd">
<!-- Generated by graphviz version 2.43.0 (0)
 -->
<!-- Title: MeltPoolDG::Heat::HeatDiffuseMultiPhaseOperator&lt; dim, number &gt; Pages: 1 -->
<svg width="697pt" height="316pt"
 viewBox="0.00 0.00 697.00 315.50" xmlns="http://www.w3.org/2000/svg" xmlns:xlink="http://www.w3.org/1999/xlink">
<g id="graph0" class="graph" transform="scale(1 1) rotate(0) translate(4 311.5)">
<title>MeltPoolDG::Heat::HeatDiffuseMultiPhaseOperator&lt; dim, number &gt;</title>
<!-- Node1 -->
<g id="Node000001" class="node">
<title>Node1</title>
<g id="a_Node000001"><a xlink:title=" ">
<polygon fill="#999999" stroke="#666666" points="689,-241 522,-241 522,-200 689,-200 689,-241"/>
<text text-anchor="start" x="530" y="-229" font-family="Helvetica,sans-Serif" font-size="10.00">MeltPoolDG::Heat::HeatDiffuse</text>
<text text-anchor="start" x="530" y="-218" font-family="Helvetica,sans-Serif" font-size="10.00">MultiPhaseOperator&lt; dim,</text>
<text text-anchor="middle" x="605.5" y="-207" font-family="Helvetica,sans-Serif" font-size="10.00"> number &gt;</text>
</a>
</g>
</g>
<!-- Node2 -->
<g id="Node000002" class="node">
<title>Node2</title>
<g id="a_Node000002"><a xlink:href="classMeltPoolDG_1_1OperatorMatrixFree.html" target="_top" xlink:title="Operator handling matrix&#45;free computations.">
<polygon fill="white" stroke="#666666" points="419.5,-295.5 264.5,-295.5 264.5,-265.5 419.5,-265.5 419.5,-295.5"/>
<text text-anchor="start" x="272.5" y="-283.5" font-family="Helvetica,sans-Serif" font-size="10.00">MeltPoolDG::OperatorMatrix</text>
<text text-anchor="middle" x="342" y="-272.5" font-family="Helvetica,sans-Serif" font-size="10.00">Free&lt; dim, number &gt;</text>
</a>
</g>
</g>
<!-- Node2&#45;&gt;Node1 -->
<g id="edge1_Node000001_Node000002" class="edge">
<title>Node2&#45;&gt;Node1</title>
<g id="a_edge1_Node000001_Node000002"><a xlink:title=" ">
<path fill="none" stroke="#63b8ff" d="M418.51,-263.17C450.89,-255.75 488.81,-247.05 521.93,-239.45"/>
<polygon fill="#63b8ff" stroke="#63b8ff" points="417.61,-259.79 408.65,-265.44 419.18,-266.61 417.61,-259.79"/>
</a>
</g>
</g>
<!-- Node3 -->
<g id="Node000003" class="node">
<title>Node3</title>
<g id="a_Node000003"><a xlink:href="classMeltPoolDG_1_1OperatorBase.html" target="_top" xlink:title=" ">
<polygon fill="white" stroke="#666666" points="159,-307.5 12,-307.5 12,-277.5 159,-277.5 159,-307.5"/>
<text text-anchor="start" x="20" y="-295.5" font-family="Helvetica,sans-Serif" font-size="10.00">MeltPoolDG::OperatorBase</text>
<text text-anchor="middle" x="85.5" y="-284.5" font-family="Helvetica,sans-Serif" font-size="10.00">&lt; number &gt;</text>
</a>
</g>
</g>
<!-- Node3&#45;&gt;Node2 -->
<g id="edge2_Node000002_Node000003" class="edge">
<title>Node3&#45;&gt;Node2</title>
<g id="a_edge2_Node000002_Node000003"><a xlink:title=" ">
<path fill="none" stroke="#63b8ff" d="M169.29,-288.6C199.85,-287.16 234.32,-285.53 264.32,-284.12"/>
<polygon fill="#63b8ff" stroke="#63b8ff" points="168.91,-285.11 159.09,-289.08 169.24,-292.1 168.91,-285.11"/>
</a>
</g>
</g>
<!-- Node4 -->
<g id="Node000004" class="node">
<title>Node4</title>
<g id="a_Node000004"><a xlink:href="classMeltPoolDG_1_1ScratchData.html" target="_top" xlink:title=" ">
<polygon fill="white" stroke="#666666" points="412,-235.5 272,-235.5 272,-205.5 412,-205.5 412,-235.5"/>
<text text-anchor="start" x="280" y="-223.5" font-family="Helvetica,sans-Serif" font-size="10.00">MeltPoolDG::ScratchData</text>
<text text-anchor="middle" x="342" y="-212.5" font-family="Helvetica,sans-Serif" font-size="10.00">&lt; dim, dim, number &gt;</text>
</a>
</g>
</g>
<!-- Node4&#45;&gt;Node1 -->
<g id="edge3_Node000001_Node000004" class="edge">
<title>Node4&#45;&gt;Node1</title>
<g id="a_edge3_Node000001_Node000004"><a xlink:title=" ">
<path fill="none" stroke="#9a32cd" stroke-dasharray="5,2" d="M422.08,-220.5C453.53,-220.5 489.73,-220.5 521.55,-220.5"/>
<polygon fill="#9a32cd" stroke="#9a32cd" points="422.05,-217 412.05,-220.5 422.05,-224 422.05,-217"/>
</a>
</g>
<text text-anchor="middle" x="471" y="-223.5" font-family="Helvetica,sans-Serif" font-size="10.00" fill="grey"> scratch_data</text>
</g>
<!-- Node5 -->
<g id="Node000005" class="node">
<title>Node5</title>
<g id="a_Node000005"><a xlink:href="structMeltPoolDG_1_1Heat_1_1HeatData.html" target="_top" xlink:title=" ">
<polygon fill="white" stroke="#666666" points="420,-163.5 264,-163.5 264,-133.5 420,-133.5 420,-163.5"/>
<text text-anchor="start" x="272" y="-151.5" font-family="Helvetica,sans-Serif" font-size="10.00">MeltPoolDG::Heat::HeatData</text>
<text text-anchor="middle" x="342" y="-140.5" font-family="Helvetica,sans-Serif" font-size="10.00">&lt; number &gt;</text>
</a>
</g>
</g>
<!-- Node5&#45;&gt;Node1 -->
<g id="edge4_Node000001_Node000005" class="edge">
<title>Node5&#45;&gt;Node1</title>
<g id="a_edge4_Node000001_Node000005"><a xlink:title=" ">
<path fill="none" stroke="#9a32cd" stroke-dasharray="5,2" d="M407.19,-166.17C444.25,-176.38 491.03,-189.26 529.74,-199.92"/>
<polygon fill="#9a32cd" stroke="#9a32cd" points="408.07,-162.79 397.5,-163.51 406.21,-169.53 408.07,-162.79"/>
</a>
</g>
<text text-anchor="middle" x="471" y="-193.5" font-family="Helvetica,sans-Serif" font-size="10.00" fill="grey"> data</text>
</g>
<!-- Node6 -->
<g id="Node000006" class="node">
<title>Node6</title>
<g id="a_Node000006"><a xlink:href="structMeltPoolDG_1_1Heat_1_1HeatData_1_1Diffuse.html" target="_top" xlink:title=" ">
<polygon fill="white" stroke="#666666" points="163.5,-259.5 7.5,-259.5 7.5,-229.5 163.5,-229.5 163.5,-259.5"/>
<text text-anchor="start" x="15.5" y="-247.5" font-family="Helvetica,sans-Serif" font-size="10.00">MeltPoolDG::Heat::HeatData</text>
<text text-anchor="middle" x="85.5" y="-236.5" font-family="Helvetica,sans-Serif" font-size="10.00">&lt; number &gt;::Diffuse</text>
</a>
</g>
</g>
<!-- Node6&#45;&gt;Node5 -->
<g id="edge5_Node000005_Node000006" class="edge">
<title>Node6&#45;&gt;Node5</title>
<g id="a_edge5_Node000005_Node000006"><a xlink:title=" ">
<path fill="none" stroke="#9a32cd" stroke-dasharray="5,2" d="M152.19,-226.49C158.57,-224.54 164.93,-222.53 171,-220.5 220.55,-203.92 275.92,-179.27 309.61,-163.54"/>
<polygon fill="#9a32cd" stroke="#9a32cd" points="150.76,-223.26 142.18,-229.48 152.76,-229.97 150.76,-223.26"/>
</a>
</g>
<text text-anchor="middle" x="217.5" y="-216.5" font-family="Helvetica,sans-Serif" font-size="10.00" fill="grey"> diffuse</text>
</g>
<!-- Node7 -->
<g id="Node000007" class="node">
<title>Node7</title>
<g id="a_Node000007"><a xlink:href="structMeltPoolDG_1_1Heat_1_1HeatData_1_1Cut.html" target="_top" xlink:title=" ">
<polygon fill="white" stroke="#666666" points="163.5,-211.5 7.5,-211.5 7.5,-181.5 163.5,-181.5 163.5,-211.5"/>
<text text-anchor="start" x="15.5" y="-199.5" font-family="Helvetica,sans-Serif" font-size="10.00">MeltPoolDG::Heat::HeatData</text>
<text text-anchor="middle" x="85.5" y="-188.5" font-family="Helvetica,sans-Serif" font-size="10.00">&lt; number &gt;::Cut</text>
</a>
</g>
</g>
<!-- Node7&#45;&gt;Node5 -->
<g id="edge6_Node000005_Node000007" class="edge">
<title>Node7&#45;&gt;Node5</title>
<g id="a_edge6_Node000005_Node000007"><a xlink:title=" ">
<path fill="none" stroke="#9a32cd" stroke-dasharray="5,2" d="M173.75,-180.04C202.99,-174.53 235.36,-168.42 263.77,-163.07"/>
<polygon fill="#9a32cd" stroke="#9a32cd" points="172.73,-176.68 163.55,-181.97 174.02,-183.55 172.73,-176.68"/>
</a>
</g>
<text text-anchor="middle" x="217.5" y="-179.5" font-family="Helvetica,sans-Serif" font-size="10.00" fill="grey"> cut</text>
</g>
<!-- Node8 -->
<g id="Node000008" class="node">
<title>Node8</title>
<g id="a_Node000008"><a xlink:href="structMeltPoolDG_1_1Heat_1_1HeatData_1_1RadiationBC.html" target="_top" xlink:title=" ">
<polygon fill="white" stroke="#666666" points="163.5,-163.5 7.5,-163.5 7.5,-133.5 163.5,-133.5 163.5,-163.5"/>
<text text-anchor="start" x="15.5" y="-151.5" font-family="Helvetica,sans-Serif" font-size="10.00">MeltPoolDG::Heat::HeatData</text>
<text text-anchor="middle" x="85.5" y="-140.5" font-family="Helvetica,sans-Serif" font-size="10.00">&lt; number &gt;::RadiationBC</text>
</a>
</g>
</g>
<!-- Node8&#45;&gt;Node5 -->
<g id="edge7_Node000005_Node000008" class="edge">
<title>Node8&#45;&gt;Node5</title>
<g id="a_edge7_Node000005_Node000008"><a xlink:title=" ">
<path fill="none" stroke="#9a32cd" stroke-dasharray="5,2" d="M173.75,-148.5C202.99,-148.5 235.36,-148.5 263.77,-148.5"/>
<polygon fill="#9a32cd" stroke="#9a32cd" points="173.55,-145 163.55,-148.5 173.55,-152 173.55,-145"/>
</a>
</g>
<text text-anchor="middle" x="217.5" y="-151.5" font-family="Helvetica,sans-Serif" font-size="10.00" fill="grey"> radiation</text>
</g>
<!-- Node9 -->
<g id="Node000009" class="node">
<title>Node9</title>
<g id="a_Node000009"><a xlink:href="structMeltPoolDG_1_1Heat_1_1HeatData_1_1ConvectionBC.html" target="_top" xlink:title=" ">
<polygon fill="white" stroke="#666666" points="163.5,-115.5 7.5,-115.5 7.5,-85.5 163.5,-85.5 163.5,-115.5"/>
<text text-anchor="start" x="15.5" y="-103.5" font-family="Helvetica,sans-Serif" font-size="10.00">MeltPoolDG::Heat::HeatData</text>
<text text-anchor="middle" x="85.5" y="-92.5" font-family="Helvetica,sans-Serif" font-size="10.00">&lt; number &gt;::ConvectionBC</text>
</a>
</g>
</g>
<!-- Node9&#45;&gt;Node5 -->
<g id="edge8_Node000005_Node000009" class="edge">
<title>Node9&#45;&gt;Node5</title>
<g id="a_edge8_Node000005_Node000009"><a xlink:title=" ">
<path fill="none" stroke="#9a32cd" stroke-dasharray="5,2" d="M173.75,-116.96C202.99,-122.47 235.36,-128.58 263.77,-133.93"/>
<polygon fill="#9a32cd" stroke="#9a32cd" points="174.02,-113.45 163.55,-115.03 172.73,-120.32 174.02,-113.45"/>
</a>
</g>
<text text-anchor="middle" x="217.5" y="-132.5" font-family="Helvetica,sans-Serif" font-size="10.00" fill="grey"> convection</text>
</g>
<!-- Node10 -->
<g id="Node000010" class="node">
<title>Node10</title>
<g id="a_Node000010"><a xlink:href="structMeltPoolDG_1_1NonlinearSolverData.html" target="_top" xlink:title=" ">
<polygon fill="white" stroke="#666666" points="164.5,-67.5 6.5,-67.5 6.5,-37.5 164.5,-37.5 164.5,-67.5"/>
<text text-anchor="start" x="14.5" y="-55.5" font-family="Helvetica,sans-Serif" font-size="10.00">MeltPoolDG::NonlinearSolver</text>
<text text-anchor="middle" x="85.5" y="-44.5" font-family="Helvetica,sans-Serif" font-size="10.00">Data&lt; number &gt;</text>
</a>
</g>
</g>
<!-- Node10&#45;&gt;Node5 -->
<g id="edge9_Node000005_Node000010" class="edge">
<title>Node10&#45;&gt;Node5</title>
<g id="a_edge9_Node000005_Node000010"><a xlink:title=" ">
<path fill="none" stroke="#9a32cd" stroke-dasharray="5,2" d="M152.16,-70.59C158.55,-72.52 164.91,-74.5 171,-76.5 204.81,-87.59 213.17,-90.79 246,-104.5 267.64,-113.53 291.59,-124.64 310.03,-133.43"/>
<polygon fill="#9a32cd" stroke="#9a32cd" points="152.73,-67.11 142.15,-67.62 150.74,-73.82 152.73,-67.11"/>
</a>
</g>
<text text-anchor="middle" x="217.5" y="-107.5" font-family="Helvetica,sans-Serif" font-size="10.00" fill="grey"> nlsolve</text>
</g>
<!-- Node11 -->
<g id="Node000011" class="node">
<title>Node11</title>
<g id="a_Node000011"><a xlink:href="structMeltPoolDG_1_1FiniteElementData.html" target="_top" xlink:title=" ">
<polygon fill="white" stroke="#666666" points="171,-19 0,-19 0,0 171,0 171,-19"/>
<text text-anchor="middle" x="85.5" y="-7" font-family="Helvetica,sans-Serif" font-size="10.00">MeltPoolDG::FiniteElementData</text>
</a>
</g>
</g>
<!-- Node11&#45;&gt;Node5 -->
<g id="edge10_Node000005_Node000011" class="edge">
<title>Node11&#45;&gt;Node5</title>
<g id="a_edge10_Node000005_Node000011"><a xlink:title=" ">
<path fill="none" stroke="#9a32cd" stroke-dasharray="5,2" d="M148.84,-21.59C156.39,-23.62 163.93,-25.92 171,-28.5 206.29,-41.4 214.84,-46.51 246,-67.5 276.02,-87.72 307.3,-116.03 325.42,-133.27"/>
<polygon fill="#9a32cd" stroke="#9a32cd" points="149.5,-18.14 138.95,-19.08 147.78,-24.93 149.5,-18.14"/>
</a>
</g>
<text text-anchor="middle" x="217.5" y="-70.5" font-family="Helvetica,sans-Serif" font-size="10.00" fill="grey"> fe</text>
</g>
</g>
</svg>
