<?xml version="1.0" encoding="UTF-8" standalone="no"?>
<!DOCTYPE svg PUBLIC "-//W3C//DTD SVG 1.1//EN"
 "http://www.w3.org/Graphics/SVG/1.1/DTD/svg11.dtd">
<!-- Generated by graphviz version 2.43.0 (0)
 -->
<!-- Title: MeltPoolDG::PostProcessingTools::PostProcessorBase&lt; dim, number &gt; Pages: 1 -->
<svg width="352pt" height="108pt"
 viewBox="0.00 0.00 352.00 108.00" xmlns="http://www.w3.org/2000/svg" xmlns:xlink="http://www.w3.org/1999/xlink">
<g id="graph0" class="graph" transform="scale(1 1) rotate(0) translate(4 104)">
<title>MeltPoolDG::PostProcessingTools::PostProcessorBase&lt; dim, number &gt;</title>
<!-- Node1 -->
<g id="Node000001" class="node">
<title>Node1</title>
<g id="a_Node000001"><a xlink:title=" ">
<polygon fill="#999999" stroke="#666666" points="154,-70 0,-70 0,-29 154,-29 154,-70"/>
<text text-anchor="start" x="8" y="-58" font-family="Helvetica,sans-Serif" font-size="10.00">MeltPoolDG::PostProcessing</text>
<text text-anchor="start" x="8" y="-47" font-family="Helvetica,sans-Serif" font-size="10.00">Tools::PostProcessorBase</text>
<text text-anchor="middle" x="77" y="-36" font-family="Helvetica,sans-Serif" font-size="10.00">&lt; dim, number &gt;</text>
</a>
</g>
</g>
<!-- Node2 -->
<g id="Node000002" class="node">
<title>Node2</title>
<g id="a_Node000002"><a xlink:href="classMeltPoolDG_1_1PostProcessingTools_1_1DivergenceCalculator.html" target="_top" xlink:title=" ">
<polygon fill="white" stroke="#666666" points="344,-100 190,-100 190,-59 344,-59 344,-100"/>
<text text-anchor="start" x="198" y="-88" font-family="Helvetica,sans-Serif" font-size="10.00">MeltPoolDG::PostProcessing</text>
<text text-anchor="start" x="198" y="-77" font-family="Helvetica,sans-Serif" font-size="10.00">Tools::DivergenceCalculator</text>
<text text-anchor="middle" x="267" y="-66" font-family="Helvetica,sans-Serif" font-size="10.00">&lt; dim, number &gt;</text>
</a>
</g>
</g>
<!-- Node1&#45;&gt;Node2 -->
<g id="edge1_Node000001_Node000002" class="edge">
<title>Node1&#45;&gt;Node2</title>
<g id="a_edge1_Node000001_Node000002"><a xlink:title=" ">
<path fill="none" stroke="#63b8ff" d="M164.15,-63.25C172.67,-64.61 181.28,-65.98 189.7,-67.32"/>
<polygon fill="#63b8ff" stroke="#63b8ff" points="164.62,-59.78 154.2,-61.66 163.52,-66.69 164.62,-59.78"/>
</a>
</g>
</g>
<!-- Node3 -->
<g id="Node000003" class="node">
<title>Node3</title>
<g id="a_Node000003"><a xlink:href="classMeltPoolDG_1_1PostProcessingTools_1_1SliceCreator.html" target="_top" xlink:title=" ">
<polygon fill="white" stroke="#666666" points="344,-41 190,-41 190,0 344,0 344,-41"/>
<text text-anchor="start" x="198" y="-29" font-family="Helvetica,sans-Serif" font-size="10.00">MeltPoolDG::PostProcessing</text>
<text text-anchor="start" x="198" y="-18" font-family="Helvetica,sans-Serif" font-size="10.00">Tools::SliceCreator&lt; dim,</text>
<text text-anchor="middle" x="267" y="-7" font-family="Helvetica,sans-Serif" font-size="10.00"> number &gt;</text>
</a>
</g>
</g>
<!-- Node1&#45;&gt;Node3 -->
<g id="edge2_Node000001_Node000003" class="edge">
<title>Node1&#45;&gt;Node3</title>
<g id="a_edge2_Node000001_Node000003"><a xlink:title=" ">
<path fill="none" stroke="#63b8ff" d="M164.15,-36.21C172.67,-34.9 181.28,-33.57 189.7,-32.27"/>
<polygon fill="#63b8ff" stroke="#63b8ff" points="163.55,-32.76 154.2,-37.75 164.61,-39.68 163.55,-32.76"/>
</a>
</g>
</g>
</g>
</svg>
