<?xml version="1.0" encoding="UTF-8" standalone="no"?>
<!DOCTYPE svg PUBLIC "-//W3C//DTD SVG 1.1//EN"
 "http://www.w3.org/Graphics/SVG/1.1/DTD/svg11.dtd">
<!-- Generated by graphviz version 2.43.0 (0)
 -->
<!-- Title: MeltPoolDG::LevelSet::ReinitializationHyperbolicCGOperation&lt; dim, number &gt; Pages: 1 -->
<svg width="463pt" height="157pt"
 viewBox="0.00 0.00 463.00 156.50" xmlns="http://www.w3.org/2000/svg" xmlns:xlink="http://www.w3.org/1999/xlink">
<g id="graph0" class="graph" transform="scale(1 1) rotate(0) translate(4 152.5)">
<title>MeltPoolDG::LevelSet::ReinitializationHyperbolicCGOperation&lt; dim, number &gt;</title>
<!-- Node1 -->
<g id="Node000001" class="node">
<title>Node1</title>
<g id="a_Node000001"><a xlink:title=" ">
<polygon fill="#999999" stroke="#666666" points="455,-89.5 291,-89.5 291,-48.5 455,-48.5 455,-89.5"/>
<text text-anchor="start" x="299" y="-77.5" font-family="Helvetica,sans-Serif" font-size="10.00">MeltPoolDG::LevelSet</text>
<text text-anchor="start" x="299" y="-66.5" font-family="Helvetica,sans-Serif" font-size="10.00">::ReinitializationHyperbolic</text>
<text text-anchor="middle" x="373" y="-55.5" font-family="Helvetica,sans-Serif" font-size="10.00">CGOperation&lt; dim, number &gt;</text>
</a>
</g>
</g>
<!-- Node2 -->
<g id="Node000002" class="node">
<title>Node2</title>
<g id="a_Node000002"><a xlink:href="classMeltPoolDG_1_1LevelSet_1_1ReinitializationOperationBase.html" target="_top" xlink:title=" ">
<polygon fill="white" stroke="#666666" points="166.5,-148.5 22.5,-148.5 22.5,-107.5 166.5,-107.5 166.5,-148.5"/>
<text text-anchor="start" x="30.5" y="-136.5" font-family="Helvetica,sans-Serif" font-size="10.00">MeltPoolDG::LevelSet</text>
<text text-anchor="start" x="30.5" y="-125.5" font-family="Helvetica,sans-Serif" font-size="10.00">::ReinitializationOperation</text>
<text text-anchor="middle" x="94.5" y="-114.5" font-family="Helvetica,sans-Serif" font-size="10.00">Base&lt; dim, number &gt;</text>
</a>
</g>
</g>
<!-- Node2&#45;&gt;Node1 -->
<g id="edge1_Node000001_Node000002" class="edge">
<title>Node2&#45;&gt;Node1</title>
<g id="a_edge1_Node000001_Node000002"><a xlink:title=" ">
<path fill="none" stroke="#63b8ff" d="M176.67,-110.68C212.62,-103.01 254.81,-94.01 290.77,-86.33"/>
<polygon fill="#63b8ff" stroke="#63b8ff" points="175.76,-107.3 166.71,-112.81 177.22,-114.14 175.76,-107.3"/>
</a>
</g>
</g>
<!-- Node3 -->
<g id="Node000003" class="node">
<title>Node3</title>
<g id="a_Node000003"><a xlink:href="classMeltPoolDG_1_1LevelSet_1_1ReinitializationHyperbolicOperationCapable.html" target="_top" xlink:title=" ">
<polygon fill="white" stroke="#666666" points="189,-89.5 0,-89.5 0,-48.5 189,-48.5 189,-89.5"/>
<text text-anchor="start" x="8" y="-77.5" font-family="Helvetica,sans-Serif" font-size="10.00">MeltPoolDG::LevelSet</text>
<text text-anchor="start" x="8" y="-66.5" font-family="Helvetica,sans-Serif" font-size="10.00">::ReinitializationHyperbolic</text>
<text text-anchor="middle" x="94.5" y="-55.5" font-family="Helvetica,sans-Serif" font-size="10.00">OperationCapable&lt; dim, number &gt;</text>
</a>
</g>
</g>
<!-- Node3&#45;&gt;Node1 -->
<g id="edge2_Node000001_Node000003" class="edge">
<title>Node3&#45;&gt;Node1</title>
<g id="a_edge2_Node000001_Node000003"><a xlink:title=" ">
<path fill="none" stroke="#63b8ff" d="M199.29,-69C229.61,-69 262.28,-69 290.97,-69"/>
<polygon fill="#63b8ff" stroke="#63b8ff" points="199.11,-65.5 189.11,-69 199.11,-72.5 199.11,-65.5"/>
</a>
</g>
</g>
<!-- Node4 -->
<g id="Node000004" class="node">
<title>Node4</title>
<g id="a_Node000004"><a xlink:href="classMeltPoolDG_1_1ScratchData.html" target="_top" xlink:title=" ">
<polygon fill="white" stroke="#666666" points="164.5,-30 24.5,-30 24.5,0 164.5,0 164.5,-30"/>
<text text-anchor="start" x="32.5" y="-18" font-family="Helvetica,sans-Serif" font-size="10.00">MeltPoolDG::ScratchData</text>
<text text-anchor="middle" x="94.5" y="-7" font-family="Helvetica,sans-Serif" font-size="10.00">&lt; dim, dim, number &gt;</text>
</a>
</g>
</g>
<!-- Node4&#45;&gt;Node1 -->
<g id="edge3_Node000001_Node000004" class="edge">
<title>Node4&#45;&gt;Node1</title>
<g id="a_edge3_Node000001_Node000004"><a xlink:title=" ">
<path fill="none" stroke="#9a32cd" stroke-dasharray="5,2" d="M174.64,-30.46C211.04,-37.56 254.17,-45.99 290.82,-53.15"/>
<polygon fill="#9a32cd" stroke="#9a32cd" points="175.04,-26.97 164.56,-28.49 173.7,-33.84 175.04,-26.97"/>
</a>
</g>
<text text-anchor="middle" x="240" y="-51" font-family="Helvetica,sans-Serif" font-size="10.00" fill="grey"> scratch_data</text>
</g>
</g>
</svg>
