<?xml version="1.0" encoding="UTF-8" standalone="no"?>
<!DOCTYPE svg PUBLIC "-//W3C//DTD SVG 1.1//EN"
 "http://www.w3.org/Graphics/SVG/1.1/DTD/svg11.dtd">
<!-- Generated by graphviz version 2.43.0 (0)
 -->
<!-- Title: MeltPoolDG::Heat::HeatDiffuseMultiPhaseOperator&lt; dim, number &gt; Pages: 1 -->
<svg width="175pt" height="181pt"
 viewBox="0.00 0.00 175.00 181.00" xmlns="http://www.w3.org/2000/svg" xmlns:xlink="http://www.w3.org/1999/xlink">
<g id="graph0" class="graph" transform="scale(1 1) rotate(0) translate(4 177)">
<title>MeltPoolDG::Heat::HeatDiffuseMultiPhaseOperator&lt; dim, number &gt;</title>
<!-- Node1 -->
<g id="Node000001" class="node">
<title>Node1</title>
<g id="a_Node000001"><a xlink:title=" ">
<polygon fill="#999999" stroke="#666666" points="167,-41 0,-41 0,0 167,0 167,-41"/>
<text text-anchor="start" x="8" y="-29" font-family="Helvetica,sans-Serif" font-size="10.00">MeltPoolDG::Heat::HeatDiffuse</text>
<text text-anchor="start" x="8" y="-18" font-family="Helvetica,sans-Serif" font-size="10.00">MultiPhaseOperator&lt; dim,</text>
<text text-anchor="middle" x="83.5" y="-7" font-family="Helvetica,sans-Serif" font-size="10.00"> number &gt;</text>
</a>
</g>
</g>
<!-- Node2 -->
<g id="Node000002" class="node">
<title>Node2</title>
<g id="a_Node000002"><a xlink:href="classMeltPoolDG_1_1OperatorMatrixFree.html" target="_top" xlink:title="Operator handling matrix&#45;free computations.">
<polygon fill="white" stroke="#666666" points="161,-107 6,-107 6,-77 161,-77 161,-107"/>
<text text-anchor="start" x="14" y="-95" font-family="Helvetica,sans-Serif" font-size="10.00">MeltPoolDG::OperatorMatrix</text>
<text text-anchor="middle" x="83.5" y="-84" font-family="Helvetica,sans-Serif" font-size="10.00">Free&lt; dim, number &gt;</text>
</a>
</g>
</g>
<!-- Node2&#45;&gt;Node1 -->
<g id="edge1_Node000001_Node000002" class="edge">
<title>Node2&#45;&gt;Node1</title>
<g id="a_edge1_Node000001_Node000002"><a xlink:title=" ">
<path fill="none" stroke="#63b8ff" d="M83.5,-66.91C83.5,-58.47 83.5,-49.1 83.5,-41.07"/>
<polygon fill="#63b8ff" stroke="#63b8ff" points="80,-66.94 83.5,-76.94 87,-66.94 80,-66.94"/>
</a>
</g>
</g>
<!-- Node3 -->
<g id="Node000003" class="node">
<title>Node3</title>
<g id="a_Node000003"><a xlink:href="classMeltPoolDG_1_1OperatorBase.html" target="_top" xlink:title=" ">
<polygon fill="white" stroke="#666666" points="157,-173 10,-173 10,-143 157,-143 157,-173"/>
<text text-anchor="start" x="18" y="-161" font-family="Helvetica,sans-Serif" font-size="10.00">MeltPoolDG::OperatorBase</text>
<text text-anchor="middle" x="83.5" y="-150" font-family="Helvetica,sans-Serif" font-size="10.00">&lt; number &gt;</text>
</a>
</g>
</g>
<!-- Node3&#45;&gt;Node2 -->
<g id="edge2_Node000002_Node000003" class="edge">
<title>Node3&#45;&gt;Node2</title>
<g id="a_edge2_Node000002_Node000003"><a xlink:title=" ">
<path fill="none" stroke="#63b8ff" d="M83.5,-132.54C83.5,-123.96 83.5,-114.61 83.5,-107.16"/>
<polygon fill="#63b8ff" stroke="#63b8ff" points="80,-132.8 83.5,-142.8 87,-132.8 80,-132.8"/>
</a>
</g>
</g>
</g>
</svg>
