<?xml version="1.0" encoding="UTF-8" standalone="no"?>
<!DOCTYPE svg PUBLIC "-//W3C//DTD SVG 1.1//EN"
 "http://www.w3.org/Graphics/SVG/1.1/DTD/svg11.dtd">
<!-- Generated by graphviz version 2.43.0 (0)
 -->
<!-- Title: MeltPoolDG::TimeIntegration::TimeIntegratorBase&lt; number &gt; Pages: 1 -->
<svg width="443pt" height="216pt"
 viewBox="0.00 0.00 443.00 215.50" xmlns="http://www.w3.org/2000/svg" xmlns:xlink="http://www.w3.org/1999/xlink">
<g id="graph0" class="graph" transform="scale(1 1) rotate(0) translate(4 211.5)">
<title>MeltPoolDG::TimeIntegration::TimeIntegratorBase&lt; number &gt;</title>
<!-- Node1 -->
<g id="Node000001" class="node">
<title>Node1</title>
<g id="a_Node000001"><a xlink:title=" ">
<polygon fill="#999999" stroke="#666666" points="179,-123.5 0,-123.5 0,-93.5 179,-93.5 179,-123.5"/>
<text text-anchor="start" x="8" y="-111.5" font-family="Helvetica,sans-Serif" font-size="10.00">MeltPoolDG::TimeIntegration</text>
<text text-anchor="middle" x="89.5" y="-100.5" font-family="Helvetica,sans-Serif" font-size="10.00">::TimeIntegratorBase&lt; number &gt;</text>
</a>
</g>
</g>
<!-- Node2 -->
<g id="Node000002" class="node">
<title>Node2</title>
<g id="a_Node000002"><a xlink:href="classMeltPoolDG_1_1TimeIntegration_1_1BDFIntegrator.html" target="_top" xlink:title=" ">
<polygon fill="white" stroke="#666666" points="413,-207.5 237,-207.5 237,-177.5 413,-177.5 413,-207.5"/>
<text text-anchor="start" x="245" y="-195.5" font-family="Helvetica,sans-Serif" font-size="10.00">MeltPoolDG::TimeIntegration</text>
<text text-anchor="middle" x="325" y="-184.5" font-family="Helvetica,sans-Serif" font-size="10.00">::BDFIntegrator&lt; dim, number &gt;</text>
</a>
</g>
</g>
<!-- Node1&#45;&gt;Node2 -->
<g id="edge1_Node000001_Node000002" class="edge">
<title>Node1&#45;&gt;Node2</title>
<g id="a_edge1_Node000001_Node000002"><a xlink:title=" ">
<path fill="none" stroke="#63b8ff" d="M126.3,-128.5C150.68,-141.44 184.03,-157.79 215,-168.5 224.71,-171.86 235.06,-174.85 245.39,-177.49"/>
<polygon fill="#63b8ff" stroke="#63b8ff" points="127.88,-125.38 117.41,-123.73 124.57,-131.55 127.88,-125.38"/>
</a>
</g>
</g>
<!-- Node3 -->
<g id="Node000003" class="node">
<title>Node3</title>
<g id="a_Node000003"><a xlink:href="classMeltPoolDG_1_1TimeIntegration_1_1ImplicitExplicitIntegrator.html" target="_top" xlink:title=" ">
<polygon fill="white" stroke="#666666" points="404,-159 246,-159 246,-118 404,-118 404,-159"/>
<text text-anchor="start" x="254" y="-147" font-family="Helvetica,sans-Serif" font-size="10.00">MeltPoolDG::TimeIntegration</text>
<text text-anchor="start" x="254" y="-136" font-family="Helvetica,sans-Serif" font-size="10.00">::ImplicitExplicitIntegrator</text>
<text text-anchor="middle" x="325" y="-125" font-family="Helvetica,sans-Serif" font-size="10.00">&lt; dim, number &gt;</text>
</a>
</g>
</g>
<!-- Node1&#45;&gt;Node3 -->
<g id="edge2_Node000001_Node000003" class="edge">
<title>Node1&#45;&gt;Node3</title>
<g id="a_edge2_Node000001_Node000003"><a xlink:title=" ">
<path fill="none" stroke="#63b8ff" d="M189.22,-121.18C208.11,-123.61 227.64,-126.12 245.78,-128.45"/>
<polygon fill="#63b8ff" stroke="#63b8ff" points="189.47,-117.69 179.11,-119.88 188.58,-124.63 189.47,-117.69"/>
</a>
</g>
</g>
<!-- Node4 -->
<g id="Node000004" class="node">
<title>Node4</title>
<g id="a_Node000004"><a xlink:href="classMeltPoolDG_1_1TimeIntegration_1_1LowStorageExplicitRungeKuttaIntegrator.html" target="_top" xlink:title=" ">
<polygon fill="white" stroke="#666666" points="435,-100 215,-100 215,-59 435,-59 435,-100"/>
<text text-anchor="start" x="223" y="-88" font-family="Helvetica,sans-Serif" font-size="10.00">MeltPoolDG::TimeIntegration</text>
<text text-anchor="start" x="223" y="-77" font-family="Helvetica,sans-Serif" font-size="10.00">::LowStorageExplicitRungeKuttaIntegrator</text>
<text text-anchor="middle" x="325" y="-66" font-family="Helvetica,sans-Serif" font-size="10.00">&lt; number &gt;</text>
</a>
</g>
</g>
<!-- Node1&#45;&gt;Node4 -->
<g id="edge3_Node000001_Node000004" class="edge">
<title>Node1&#45;&gt;Node4</title>
<g id="a_edge3_Node000001_Node000004"><a xlink:title=" ">
<path fill="none" stroke="#63b8ff" d="M189.27,-96.23C197.65,-95.19 206.17,-94.13 214.63,-93.08"/>
<polygon fill="#63b8ff" stroke="#63b8ff" points="188.6,-92.79 179.11,-97.49 189.46,-99.74 188.6,-92.79"/>
</a>
</g>
</g>
<!-- Node5 -->
<g id="Node000005" class="node">
<title>Node5</title>
<g id="a_Node000005"><a xlink:href="classMeltPoolDG_1_1TimeIntegration_1_1OneStepTheta.html" target="_top" xlink:title=" ">
<polygon fill="white" stroke="#666666" points="404,-41 246,-41 246,0 404,0 404,-41"/>
<text text-anchor="start" x="254" y="-29" font-family="Helvetica,sans-Serif" font-size="10.00">MeltPoolDG::TimeIntegration</text>
<text text-anchor="start" x="254" y="-18" font-family="Helvetica,sans-Serif" font-size="10.00">::OneStepTheta&lt; number,</text>
<text text-anchor="middle" x="325" y="-7" font-family="Helvetica,sans-Serif" font-size="10.00"> PDEOperator &gt;</text>
</a>
</g>
</g>
<!-- Node1&#45;&gt;Node5 -->
<g id="edge4_Node000001_Node000005" class="edge">
<title>Node1&#45;&gt;Node5</title>
<g id="a_edge4_Node000001_Node000005"><a xlink:title=" ">
<path fill="none" stroke="#63b8ff" d="M128.81,-88.62C153.07,-76.54 185.36,-61.39 215,-50.5 224.86,-46.88 235.35,-43.46 245.79,-40.32"/>
<polygon fill="#63b8ff" stroke="#63b8ff" points="126.95,-85.63 119.59,-93.25 130.1,-91.89 126.95,-85.63"/>
</a>
</g>
</g>
</g>
</svg>
