<?xml version="1.0" encoding="UTF-8" standalone="no"?>
<!DOCTYPE svg PUBLIC "-//W3C//DTD SVG 1.1//EN"
 "http://www.w3.org/Graphics/SVG/1.1/DTD/svg11.dtd">
<!-- Generated by graphviz version 2.43.0 (0)
 -->
<!-- Title: MeltPoolDG::OperatorBase&lt; number &gt; Pages: 1 -->
<!--zoomable 511 -->

<svg id="main" version="1.1" xmlns="http://www.w3.org/2000/svg" xmlns:xlink="http://www.w3.org/1999/xlink" xml:space="preserve" onload="init(evt)">
<style type="text/css"><![CDATA[
.node, .edge {opacity: 0.7;}
.node.selected, .edge.selected {opacity: 1;}
.edge:hover path { stroke: red; }
.edge:hover polygon { stroke: red; fill: red; }
]]></style>

<defs>
  <circle id="rim" cx="0" cy="0" r="7"/>
  <circle id="rim2" cx="0" cy="0" r="3.5"/>
  <g id="zoomPlus">
    <use xlink:href="#rim" fill="#404040"><set attributeName="fill" to="#808080" begin="zoomplus.mouseover" end="zoomplus.mouseout"/></use>
    <path d="M-4,0h8M0,-4v8" fill="none" stroke="white" stroke-width="1.5" pointer-events="none"/>
  </g>
  <g id="zoomMin">
    <use xlink:href="#rim" fill="#404040"><set attributeName="fill" to="#808080" begin="zoomminus.mouseover" end="zoomminus.mouseout"/></use>
    <path d="M-4,0h8" fill="none" stroke="white" stroke-width="1.5" pointer-events="none"/>
  </g>
  <g id="arrowUp" transform="translate(30 24)">
    <use xlink:href="#rim"/>
    <path pointer-events="none" fill="none" stroke="white" stroke-width="1.5" d="M0,-3.0v7 M-2.5,-0.5L0,-3.0L2.5,-0.5"/>
  </g>
  <g id="arrowRight" transform="rotate(90) translate(36 -43)">
    <use xlink:href="#rim"/>
    <path pointer-events="none" fill="none" stroke="white" stroke-width="1.5" d="M0,-3.0v7 M-2.5,-0.5L0,-3.0L2.5,-0.5"/>
  </g>
  <g id="arrowDown" transform="rotate(180) translate(-30 -48)">
    <use xlink:href="#rim"/>
    <path pointer-events="none" fill="none" stroke="white" stroke-width="1.5" d="M0,-3.0v7 M-2.5,-0.5L0,-3.0L2.5,-0.5"/>
  </g>
  <g id="arrowLeft" transform="rotate(270) translate(-36 17)">
    <use xlink:href="#rim"/>
    <path pointer-events="none" fill="none" stroke="white" stroke-width="1.5" d="M0,-3.0v7 M-2.5,-0.5L0,-3.0L2.5,-0.5"/>
  </g>
  <g id="resetDef">
    <use xlink:href="#rim2" fill="#404040"><set attributeName="fill" to="#808080" begin="reset.mouseover" end="reset.mouseout"/></use>
  </g>
</defs>
<script type="application/ecmascript">
var viewWidth = 554;
var viewHeight = 511;
var sectionId = 'dynsection-0';
</script>
<script type="application/ecmascript" xlink:href="svg.min.js"/>
<svg id="graph" class="graph">
<g id="viewport">
<title>MeltPoolDG::OperatorBase&lt; number &gt;</title>
<!-- Node1 -->
<g id="Node000001" class="node">
<title>Node1</title>
<g id="a_Node000001"><a xlink:title=" ">
<polygon fill="#999999" stroke="#666666" points="147,-320.5 0,-320.5 0,-290.5 147,-290.5 147,-320.5"/>
<text text-anchor="start" x="8" y="-308.5" font-family="Helvetica,sans-Serif" font-size="10.00">MeltPoolDG::OperatorBase</text>
<text text-anchor="middle" x="73.5" y="-297.5" font-family="Helvetica,sans-Serif" font-size="10.00">&lt; number &gt;</text>
</a>
</g>
</g>
<!-- Node2 -->
<g id="Node000002" class="node">
<title>Node2</title>
<g id="a_Node000002"><a xlink:href="classMeltPoolDG_1_1OperatorMatrixBased.html" target="_top" xlink:title="Operator handling matrix&#45;based computations.">
<polygon fill="white" stroke="#666666" points="338,-379.5 183,-379.5 183,-349.5 338,-349.5 338,-379.5"/>
<text text-anchor="start" x="191" y="-367.5" font-family="Helvetica,sans-Serif" font-size="10.00">MeltPoolDG::OperatorMatrix</text>
<text text-anchor="middle" x="260.5" y="-356.5" font-family="Helvetica,sans-Serif" font-size="10.00">Based&lt; dim, number &gt;</text>
</a>
</g>
</g>
<!-- Node1&#45;&gt;Node2 -->
<g id="edge1_Node000001_Node000002" class="edge">
<title>Node1&#45;&gt;Node2</title>
<g id="a_edge1_Node000001_Node000002"><a xlink:title=" ">
<path fill="none" stroke="#63b8ff" d="M131.38,-323.64C157.36,-331.92 187.76,-341.62 212.42,-349.49"/>
<polygon fill="#63b8ff" stroke="#63b8ff" points="132.25,-320.24 121.66,-320.54 130.13,-326.91 132.25,-320.24"/>
</a>
</g>
</g>
<!-- Node7 -->
<g id="Node000007" class="node">
<title>Node7</title>
<g id="a_Node000007"><a xlink:href="classMeltPoolDG_1_1OperatorMatrixFree.html" target="_top" xlink:title="Operator handling matrix&#45;free computations.">
<polygon fill="white" stroke="#666666" points="338,-291.5 183,-291.5 183,-261.5 338,-261.5 338,-291.5"/>
<text text-anchor="start" x="191" y="-279.5" font-family="Helvetica,sans-Serif" font-size="10.00">MeltPoolDG::OperatorMatrix</text>
<text text-anchor="middle" x="260.5" y="-268.5" font-family="Helvetica,sans-Serif" font-size="10.00">Free&lt; dim, number &gt;</text>
</a>
</g>
</g>
<!-- Node1&#45;&gt;Node7 -->
<g id="edge6_Node000001_Node000007" class="edge">
<title>Node1&#45;&gt;Node7</title>
<g id="a_edge6_Node000001_Node000007"><a xlink:title=" ">
<path fill="none" stroke="#63b8ff" d="M157.08,-292.55C165.66,-291.21 174.35,-289.85 182.86,-288.51"/>
<polygon fill="#63b8ff" stroke="#63b8ff" points="156.42,-289.12 147.09,-294.12 157.51,-296.03 156.42,-289.12"/>
</a>
</g>
</g>
<!-- Node3 -->
<g id="Node000003" class="node">
<title>Node3</title>
<g id="a_Node000003"><a xlink:href="classMeltPoolDG_1_1LevelSet_1_1AdvectionDiffusionOperator.html" target="_top" xlink:title=" ">
<polygon fill="white" stroke="#666666" points="539,-444 381,-444 381,-403 539,-403 539,-444"/>
<text text-anchor="start" x="389" y="-432" font-family="Helvetica,sans-Serif" font-size="10.00">MeltPoolDG::LevelSet</text>
<text text-anchor="start" x="389" y="-421" font-family="Helvetica,sans-Serif" font-size="10.00">::AdvectionDiffusionOperator</text>
<text text-anchor="middle" x="460" y="-410" font-family="Helvetica,sans-Serif" font-size="10.00">&lt; dim, number &gt;</text>
</a>
</g>
</g>
<!-- Node2&#45;&gt;Node3 -->
<g id="edge2_Node000002_Node000003" class="edge">
<title>Node2&#45;&gt;Node3</title>
<g id="a_edge2_Node000002_Node000003"><a xlink:title=" ">
<path fill="none" stroke="#63b8ff" d="M321.56,-382.44C343.2,-388.91 367.78,-396.25 390.11,-402.92"/>
<polygon fill="#63b8ff" stroke="#63b8ff" points="322.43,-379.05 311.85,-379.54 320.43,-385.76 322.43,-379.05"/>
</a>
</g>
</g>
<!-- Node4 -->
<g id="Node000004" class="node">
<title>Node4</title>
<g id="a_Node000004"><a xlink:href="classMeltPoolDG_1_1LevelSet_1_1CurvatureOperator.html" target="_top" xlink:title=" ">
<polygon fill="white" stroke="#666666" points="521,-385 399,-385 399,-344 521,-344 521,-385"/>
<text text-anchor="start" x="407" y="-373" font-family="Helvetica,sans-Serif" font-size="10.00">MeltPoolDG::LevelSet</text>
<text text-anchor="start" x="407" y="-362" font-family="Helvetica,sans-Serif" font-size="10.00">::CurvatureOperator&lt;</text>
<text text-anchor="middle" x="460" y="-351" font-family="Helvetica,sans-Serif" font-size="10.00"> dim, number &gt;</text>
</a>
</g>
</g>
<!-- Node2&#45;&gt;Node4 -->
<g id="edge3_Node000002_Node000004" class="edge">
<title>Node2&#45;&gt;Node4</title>
<g id="a_edge3_Node000002_Node000004"><a xlink:title=" ">
<path fill="none" stroke="#63b8ff" d="M348.16,-364.5C365.29,-364.5 382.92,-364.5 398.93,-364.5"/>
<polygon fill="#63b8ff" stroke="#63b8ff" points="348.14,-361 338.14,-364.5 348.14,-368 348.14,-361"/>
</a>
</g>
</g>
<!-- Node5 -->
<g id="Node000005" class="node">
<title>Node5</title>
<g id="a_Node000005"><a xlink:href="classMeltPoolDG_1_1LevelSet_1_1NormalVectorOperator.html" target="_top" xlink:title=" ">
<polygon fill="white" stroke="#666666" points="526,-326 394,-326 394,-285 526,-285 526,-326"/>
<text text-anchor="start" x="402" y="-314" font-family="Helvetica,sans-Serif" font-size="10.00">MeltPoolDG::LevelSet</text>
<text text-anchor="start" x="402" y="-303" font-family="Helvetica,sans-Serif" font-size="10.00">::NormalVectorOperator</text>
<text text-anchor="middle" x="460" y="-292" font-family="Helvetica,sans-Serif" font-size="10.00">&lt; dim, number &gt;</text>
</a>
</g>
</g>
<!-- Node2&#45;&gt;Node5 -->
<g id="edge4_Node000002_Node000005" class="edge">
<title>Node2&#45;&gt;Node5</title>
<g id="a_edge4_Node000002_Node000005"><a xlink:title=" ">
<path fill="none" stroke="#63b8ff" d="M321.74,-346.51C344.53,-339.7 370.58,-331.92 393.81,-324.98"/>
<polygon fill="#63b8ff" stroke="#63b8ff" points="320.43,-343.24 311.85,-349.46 322.43,-349.95 320.43,-343.24"/>
</a>
</g>
</g>
<!-- Node6 -->
<g id="Node000006" class="node">
<title>Node6</title>
<g id="a_Node000006"><a xlink:href="classMeltPoolDG_1_1LevelSet_1_1OlssonOperator.html" target="_top" xlink:title="Operator for the Olsson reinitialization method used in level set methods.">
<polygon fill="white" stroke="#666666" points="525.5,-503 394.5,-503 394.5,-462 525.5,-462 525.5,-503"/>
<text text-anchor="start" x="402.5" y="-491" font-family="Helvetica,sans-Serif" font-size="10.00">MeltPoolDG::LevelSet</text>
<text text-anchor="start" x="402.5" y="-480" font-family="Helvetica,sans-Serif" font-size="10.00">::OlssonOperator&lt; dim,</text>
<text text-anchor="middle" x="460" y="-469" font-family="Helvetica,sans-Serif" font-size="10.00"> number &gt;</text>
</a>
</g>
</g>
<!-- Node2&#45;&gt;Node6 -->
<g id="edge5_Node000002_Node000006" class="edge">
<title>Node2&#45;&gt;Node6</title>
<g id="a_edge5_Node000002_Node000006"><a xlink:title=" ">
<path fill="none" stroke="#63b8ff" d="M284.4,-386.51C306.03,-406.31 340.11,-435.03 374,-453.5 380.43,-457.01 387.37,-460.2 394.41,-463.09"/>
<polygon fill="#63b8ff" stroke="#63b8ff" points="286.73,-383.9 277.02,-379.66 281.97,-389.03 286.73,-383.9"/>
</a>
</g>
</g>
<!-- Node7&#45;&gt;Node3 -->
<g id="edge9_Node000007_Node000003" class="edge">
<title>Node7&#45;&gt;Node3</title>
<g id="a_edge9_Node000007_Node000003"><a xlink:title=" ">
<path fill="none" stroke="#63b8ff" d="M290.72,-297.72C305.76,-309.41 323.86,-324.73 338,-340.5 357.26,-361.97 351.14,-376.91 374,-394.5 378.08,-397.64 382.52,-400.45 387.16,-402.96"/>
<polygon fill="#63b8ff" stroke="#63b8ff" points="292.79,-294.9 282.72,-291.62 288.55,-300.47 292.79,-294.9"/>
</a>
</g>
</g>
<!-- Node7&#45;&gt;Node4 -->
<g id="edge10_Node000007_Node000004" class="edge">
<title>Node7&#45;&gt;Node4</title>
<g id="a_edge10_Node000007_Node000004"><a xlink:title=" ">
<path fill="none" stroke="#63b8ff" d="M296.66,-296.73C318.51,-308.85 347.41,-324.07 374,-335.5 381.88,-338.89 390.3,-342.16 398.66,-345.2"/>
<polygon fill="#63b8ff" stroke="#63b8ff" points="298.19,-293.58 287.76,-291.75 294.78,-299.69 298.19,-293.58"/>
</a>
</g>
</g>
<!-- Node7&#45;&gt;Node5 -->
<g id="edge11_Node000007_Node000005" class="edge">
<title>Node7&#45;&gt;Node5</title>
<g id="a_edge11_Node000007_Node000005"><a xlink:title=" ">
<path fill="none" stroke="#63b8ff" d="M348.17,-289.23C363.53,-291.48 379.3,-293.8 393.94,-295.95"/>
<polygon fill="#63b8ff" stroke="#63b8ff" points="348.54,-285.74 338.14,-287.75 347.53,-292.67 348.54,-285.74"/>
</a>
</g>
</g>
<!-- Node7&#45;&gt;Node6 -->
<g id="edge12_Node000007_Node000006" class="edge">
<title>Node7&#45;&gt;Node6</title>
<g id="a_edge12_Node000007_Node000006"><a xlink:title=" ">
<path fill="none" stroke="#63b8ff" d="M294.25,-297.42C309.43,-308.58 326.6,-323.52 338,-340.5 367.38,-384.26 337.11,-415.85 374,-453.5 379.78,-459.4 386.82,-464.1 394.33,-467.85"/>
<polygon fill="#63b8ff" stroke="#63b8ff" points="296.24,-294.55 286.06,-291.62 292.2,-300.26 296.24,-294.55"/>
</a>
</g>
</g>
<!-- Node8 -->
<g id="Node000008" class="node">
<title>Node8</title>
<g id="a_Node000008"><a xlink:href="classMeltPoolDG_1_1Heat_1_1HeatCutOperator.html" target="_top" xlink:title=" ">
<polygon fill="white" stroke="#666666" points="534.5,-148.5 385.5,-148.5 385.5,-118.5 534.5,-118.5 534.5,-148.5"/>
<text text-anchor="start" x="393.5" y="-136.5" font-family="Helvetica,sans-Serif" font-size="10.00">MeltPoolDG::Heat::HeatCut</text>
<text text-anchor="middle" x="460" y="-125.5" font-family="Helvetica,sans-Serif" font-size="10.00">Operator&lt; dim, number &gt;</text>
</a>
</g>
</g>
<!-- Node7&#45;&gt;Node8 -->
<g id="edge7_Node000007_Node000008" class="edge">
<title>Node7&#45;&gt;Node8</title>
<g id="a_edge7_Node000007_Node000008"><a xlink:title=" ">
<path fill="none" stroke="#63b8ff" d="M277.75,-252.75C297.46,-225.76 333.14,-182.24 374,-157.5 379.64,-154.09 385.78,-151.14 392.1,-148.6"/>
<polygon fill="#63b8ff" stroke="#63b8ff" points="274.67,-251.05 271.7,-261.23 280.36,-255.12 274.67,-251.05"/>
</a>
</g>
</g>
<!-- Node9 -->
<g id="Node000009" class="node">
<title>Node9</title>
<g id="a_Node000009"><a xlink:href="classMeltPoolDG_1_1Heat_1_1HeatDiffuseMultiPhaseOperator.html" target="_top" xlink:title=" ">
<polygon fill="white" stroke="#666666" points="543.5,-100 376.5,-100 376.5,-59 543.5,-59 543.5,-100"/>
<text text-anchor="start" x="384.5" y="-88" font-family="Helvetica,sans-Serif" font-size="10.00">MeltPoolDG::Heat::HeatDiffuse</text>
<text text-anchor="start" x="384.5" y="-77" font-family="Helvetica,sans-Serif" font-size="10.00">MultiPhaseOperator&lt; dim,</text>
<text text-anchor="middle" x="460" y="-66" font-family="Helvetica,sans-Serif" font-size="10.00"> number &gt;</text>
</a>
</g>
</g>
<!-- Node7&#45;&gt;Node9 -->
<g id="edge8_Node000007_Node000009" class="edge">
<title>Node7&#45;&gt;Node9</title>
<g id="a_edge8_Node000007_Node000009"><a xlink:title=" ">
<path fill="none" stroke="#63b8ff" d="M271.93,-251.86C288.45,-215.66 323.97,-148.22 374,-109.5 378.58,-105.96 383.61,-102.81 388.87,-100.02"/>
<polygon fill="#63b8ff" stroke="#63b8ff" points="268.65,-250.63 267.78,-261.19 275.04,-253.48 268.65,-250.63"/>
</a>
</g>
</g>
<!-- Node10 -->
<g id="Node000010" class="node">
<title>Node10</title>
<g id="a_Node000010"><a xlink:href="classMeltPoolDG_1_1LevelSet_1_1ReinitializationEllipticOperator.html" target="_top" xlink:title="Operator for the matrix&#45;free evaluation of diffusive reinitialization of the level set function.">
<polygon fill="white" stroke="#666666" points="546,-41 374,-41 374,0 546,0 546,-41"/>
<text text-anchor="start" x="382" y="-29" font-family="Helvetica,sans-Serif" font-size="10.00">MeltPoolDG::LevelSet</text>
<text text-anchor="start" x="382" y="-18" font-family="Helvetica,sans-Serif" font-size="10.00">::ReinitializationEllipticOperator</text>
<text text-anchor="middle" x="460" y="-7" font-family="Helvetica,sans-Serif" font-size="10.00">&lt; dim, number &gt;</text>
</a>
</g>
</g>
<!-- Node7&#45;&gt;Node10 -->
<g id="edge13_Node000007_Node000010" class="edge">
<title>Node7&#45;&gt;Node10</title>
<g id="a_edge13_Node000007_Node000010"><a xlink:title=" ">
<path fill="none" stroke="#63b8ff" d="M267.16,-251.5C278.95,-205.06 310.48,-105.18 374,-49.5 377.52,-46.42 381.38,-43.66 385.45,-41.19"/>
<polygon fill="#63b8ff" stroke="#63b8ff" points="263.73,-250.79 264.76,-261.33 270.53,-252.45 263.73,-250.79"/>
</a>
</g>
</g>
<!-- Node11 -->
<g id="Node000011" class="node">
<title>Node11</title>
<g id="a_Node000011"><a xlink:href="classMeltPoolDG_1_1RadiativeTransport_1_1PseudoRTEOperator.html" target="_top" xlink:title=" ">
<polygon fill="white" stroke="#666666" points="546,-267 374,-267 374,-226 546,-226 546,-267"/>
<text text-anchor="start" x="382" y="-255" font-family="Helvetica,sans-Serif" font-size="10.00">MeltPoolDG::RadiativeTransport</text>
<text text-anchor="start" x="382" y="-244" font-family="Helvetica,sans-Serif" font-size="10.00">::PseudoRTEOperator&lt; dim,</text>
<text text-anchor="middle" x="460" y="-233" font-family="Helvetica,sans-Serif" font-size="10.00"> number &gt;</text>
</a>
</g>
</g>
<!-- Node7&#45;&gt;Node11 -->
<g id="edge14_Node000007_Node000011" class="edge">
<title>Node7&#45;&gt;Node11</title>
<g id="a_edge14_Node000007_Node000011"><a xlink:title=" ">
<path fill="none" stroke="#63b8ff" d="M348.11,-263.34C356.66,-262.04 365.34,-260.73 373.88,-259.43"/>
<polygon fill="#63b8ff" stroke="#63b8ff" points="347.5,-259.9 338.14,-264.86 348.55,-266.82 347.5,-259.9"/>
</a>
</g>
</g>
<!-- Node12 -->
<g id="Node000012" class="node">
<title>Node12</title>
<g id="a_Node000012"><a xlink:href="classMeltPoolDG_1_1RadiativeTransport_1_1RadiativeTransportOperator.html" target="_top" xlink:title=" ">
<polygon fill="white" stroke="#666666" points="546,-208 374,-208 374,-167 546,-167 546,-208"/>
<text text-anchor="start" x="382" y="-196" font-family="Helvetica,sans-Serif" font-size="10.00">MeltPoolDG::RadiativeTransport</text>
<text text-anchor="start" x="382" y="-185" font-family="Helvetica,sans-Serif" font-size="10.00">::RadiativeTransportOperator</text>
<text text-anchor="middle" x="460" y="-174" font-family="Helvetica,sans-Serif" font-size="10.00">&lt; dim, number &gt;</text>
</a>
</g>
</g>
<!-- Node7&#45;&gt;Node12 -->
<g id="edge15_Node000007_Node000012" class="edge">
<title>Node7&#45;&gt;Node12</title>
<g id="a_edge15_Node000007_Node000012"><a xlink:title=" ">
<path fill="none" stroke="#63b8ff" d="M295.75,-256.37C317.68,-243.96 346.99,-228.22 374,-216.5 380.72,-213.58 387.84,-210.76 394.99,-208.09"/>
<polygon fill="#63b8ff" stroke="#63b8ff" points="293.78,-253.47 286.83,-261.47 297.25,-259.55 293.78,-253.47"/>
</a>
</g>
</g>
</g>
</svg>

<g id="navigator" transform="translate(0 0)" fill="#404254">
  <rect fill="#f2f5e9" fill-opacity="0.5" stroke="#606060" stroke-width=".5" x="0" y="0" width="60" height="60"/>
  <use id="zoomplus" xlink:href="#zoomPlus" x="17" y="9" onmousedown="handleZoom(evt,'in')"/>
  <use id="zoomminus" xlink:href="#zoomMin" x="42" y="9" onmousedown="handleZoom(evt,'out')"/>
  <use id="reset" xlink:href="#resetDef" x="30" y="36" onmousedown="handleReset()"/>
   <use id="arrowup" xlink:href="#arrowUp" x="0" y="0" onmousedown="handlePan(0,-1)"/>
  <use id="arrowright" xlink:href="#arrowRight" x="0" y="0" onmousedown="handlePan(1,0)"/>
  <use id="arrowdown" xlink:href="#arrowDown" x="0" y="0" onmousedown="handlePan(0,1)"/>
  <use id="arrowleft" xlink:href="#arrowLeft" x="0" y="0" onmousedown="handlePan(-1,0)"/>
</g>
<svg viewBox="0 0 15 15" width="100%" height="30px" preserveAspectRatio="xMaxYMin meet">
 <g id="arrow_out" transform="scale(0.3 0.3)">
  <a xlink:href="classMeltPoolDG_1_1OperatorBase__inherit__graph_org.svg" target="_base">
   <rect id="button" ry="5" rx="5" y="6" x="6" height="38" width="38"
        fill="#f2f5e9" fill-opacity="0.5" stroke="#606060" stroke-width="1.0"/>
   <path id="arrow"
     d="M 11.500037,31.436501 C 11.940474,20.09759 22.043105,11.32322 32.158766,21.979434 L 37.068811,17.246167 C 37.068811,17.246167 37.088388,32 37.088388,32 L 22.160133,31.978069 C 22.160133,31.978069 26.997745,27.140456 26.997745,27.140456 C 18.528582,18.264221 13.291696,25.230495 11.500037,31.436501 z"
     style="fill:#404040;"/>
  </a>
 </g>
</svg>

<style type='text/css'>
<![CDATA[
[data-mouse-over-selected='false'] { opacity: 0.7; }
[data-mouse-over-selected='true']  { opacity: 1.0; }
]]>
</style>
<script type="application/ecmascript"><![CDATA[
document.addEventListener('DOMContentLoaded', (event) => {
  highlightEdges();
  highlightAdjacentNodes();
});
]]></script>
</svg>
