<?xml version="1.0" encoding="UTF-8" standalone="no"?>
<!DOCTYPE svg PUBLIC "-//W3C//DTD SVG 1.1//EN"
 "http://www.w3.org/Graphics/SVG/1.1/DTD/svg11.dtd">
<!-- Generated by graphviz version 2.43.0 (0)
 -->
<!-- Title: MeltPoolDG::Evaporation::EvaporationMassFluxOperatorThicknessIntegration&lt; dim, number &gt; Pages: 1 -->
<svg width="556pt" height="146pt"
 viewBox="0.00 0.00 556.00 145.50" xmlns="http://www.w3.org/2000/svg" xmlns:xlink="http://www.w3.org/1999/xlink">
<g id="graph0" class="graph" transform="scale(1 1) rotate(0) translate(4 141.5)">
<title>MeltPoolDG::Evaporation::EvaporationMassFluxOperatorThicknessIntegration&lt; dim, number &gt;</title>
<!-- Node1 -->
<g id="Node000001" class="node">
<title>Node1</title>
<g id="a_Node000001"><a xlink:title=" ">
<polygon fill="#999999" stroke="#666666" points="548,-89 378,-89 378,-37 548,-37 548,-89"/>
<text text-anchor="start" x="386" y="-77" font-family="Helvetica,sans-Serif" font-size="10.00">MeltPoolDG::Evaporation</text>
<text text-anchor="start" x="386" y="-66" font-family="Helvetica,sans-Serif" font-size="10.00">::EvaporationMassFluxOperator</text>
<text text-anchor="start" x="386" y="-55" font-family="Helvetica,sans-Serif" font-size="10.00">ThicknessIntegration&lt; dim,</text>
<text text-anchor="middle" x="463" y="-44" font-family="Helvetica,sans-Serif" font-size="10.00"> number &gt;</text>
</a>
</g>
</g>
<!-- Node2 -->
<g id="Node000002" class="node">
<title>Node2</title>
<g id="a_Node000002"><a xlink:href="classMeltPoolDG_1_1Evaporation_1_1EvaporationMassFluxOperatorBase.html" target="_top" xlink:title=" ">
<polygon fill="white" stroke="#666666" points="188,-137.5 18,-137.5 18,-96.5 188,-96.5 188,-137.5"/>
<text text-anchor="start" x="26" y="-125.5" font-family="Helvetica,sans-Serif" font-size="10.00">MeltPoolDG::Evaporation</text>
<text text-anchor="start" x="26" y="-114.5" font-family="Helvetica,sans-Serif" font-size="10.00">::EvaporationMassFluxOperator</text>
<text text-anchor="middle" x="103" y="-103.5" font-family="Helvetica,sans-Serif" font-size="10.00">Base&lt; dim, number &gt;</text>
</a>
</g>
</g>
<!-- Node2&#45;&gt;Node1 -->
<g id="edge1_Node000001_Node000002" class="edge">
<title>Node2&#45;&gt;Node1</title>
<g id="a_edge1_Node000001_Node000002"><a xlink:title=" ">
<path fill="none" stroke="#63b8ff" d="M198.61,-102.73C254.3,-94.33 324.11,-83.8 377.87,-75.69"/>
<polygon fill="#63b8ff" stroke="#63b8ff" points="197.75,-99.32 188.39,-104.27 198.8,-106.24 197.75,-99.32"/>
</a>
</g>
</g>
<!-- Node3 -->
<g id="Node000003" class="node">
<title>Node3</title>
<g id="a_Node000003"><a xlink:href="classMeltPoolDG_1_1ScratchData.html" target="_top" xlink:title=" ">
<polygon fill="white" stroke="#666666" points="173,-78 33,-78 33,-48 173,-48 173,-78"/>
<text text-anchor="start" x="41" y="-66" font-family="Helvetica,sans-Serif" font-size="10.00">MeltPoolDG::ScratchData</text>
<text text-anchor="middle" x="103" y="-55" font-family="Helvetica,sans-Serif" font-size="10.00">&lt; dim, dim, number &gt;</text>
</a>
</g>
</g>
<!-- Node3&#45;&gt;Node1 -->
<g id="edge2_Node000001_Node000003" class="edge">
<title>Node3&#45;&gt;Node1</title>
<g id="a_edge2_Node000001_Node000003"><a xlink:title=" ">
<path fill="none" stroke="#9a32cd" stroke-dasharray="5,2" d="M183.19,-63C240.88,-63 318.9,-63 377.74,-63"/>
<polygon fill="#9a32cd" stroke="#9a32cd" points="183.03,-59.5 173.03,-63 183.03,-66.5 183.03,-59.5"/>
</a>
</g>
<text text-anchor="middle" x="292" y="-66" font-family="Helvetica,sans-Serif" font-size="10.00" fill="grey"> scratch_data</text>
</g>
<!-- Node4 -->
<g id="Node000004" class="node">
<title>Node4</title>
<g id="a_Node000004"><a xlink:href="structMeltPoolDG_1_1Evaporation_1_1EvaporationThicknessIntegrationData.html" target="_top" xlink:title=" ">
<polygon fill="white" stroke="#666666" points="206,-30 0,-30 0,0 206,0 206,-30"/>
<text text-anchor="start" x="8" y="-18" font-family="Helvetica,sans-Serif" font-size="10.00">MeltPoolDG::Evaporation</text>
<text text-anchor="middle" x="103" y="-7" font-family="Helvetica,sans-Serif" font-size="10.00">::EvaporationThicknessIntegrationData</text>
</a>
</g>
</g>
<!-- Node4&#45;&gt;Node1 -->
<g id="edge3_Node000001_Node000004" class="edge">
<title>Node4&#45;&gt;Node1</title>
<g id="a_edge3_Node000001_Node000004"><a xlink:title=" ">
<path fill="none" stroke="#9a32cd" stroke-dasharray="5,2" d="M216.23,-29.03C260.98,-34.74 312.95,-41.51 360,-48 365.85,-48.81 371.89,-49.66 377.97,-50.52"/>
<polygon fill="#9a32cd" stroke="#9a32cd" points="216.57,-25.54 206.2,-27.75 215.68,-32.49 216.57,-25.54"/>
</a>
</g>
<text text-anchor="middle" x="292" y="-51" font-family="Helvetica,sans-Serif" font-size="10.00" fill="grey"> thickness_integration_data</text>
</g>
</g>
</svg>
