<?xml version="1.0" encoding="UTF-8" standalone="no"?>
<!DOCTYPE svg PUBLIC "-//W3C//DTD SVG 1.1//EN"
 "http://www.w3.org/Graphics/SVG/1.1/DTD/svg11.dtd">
<!-- Generated by graphviz version 2.43.0 (0)
 -->
<!-- Title: MeltPoolDG::Heat::HeatDiffuseOperation&lt; dim, number &gt; Pages: 1 -->
<!--zoomable 271 -->

<svg id="main" version="1.1" xmlns="http://www.w3.org/2000/svg" xmlns:xlink="http://www.w3.org/1999/xlink" xml:space="preserve" onload="init(evt)">
<style type="text/css"><![CDATA[
.node, .edge {opacity: 0.7;}
.node.selected, .edge.selected {opacity: 1;}
.edge:hover path { stroke: red; }
.edge:hover polygon { stroke: red; fill: red; }
]]></style>

<defs>
  <circle id="rim" cx="0" cy="0" r="7"/>
  <circle id="rim2" cx="0" cy="0" r="3.5"/>
  <g id="zoomPlus">
    <use xlink:href="#rim" fill="#404040"><set attributeName="fill" to="#808080" begin="zoomplus.mouseover" end="zoomplus.mouseout"/></use>
    <path d="M-4,0h8M0,-4v8" fill="none" stroke="white" stroke-width="1.5" pointer-events="none"/>
  </g>
  <g id="zoomMin">
    <use xlink:href="#rim" fill="#404040"><set attributeName="fill" to="#808080" begin="zoomminus.mouseover" end="zoomminus.mouseout"/></use>
    <path d="M-4,0h8" fill="none" stroke="white" stroke-width="1.5" pointer-events="none"/>
  </g>
  <g id="arrowUp" transform="translate(30 24)">
    <use xlink:href="#rim"/>
    <path pointer-events="none" fill="none" stroke="white" stroke-width="1.5" d="M0,-3.0v7 M-2.5,-0.5L0,-3.0L2.5,-0.5"/>
  </g>
  <g id="arrowRight" transform="rotate(90) translate(36 -43)">
    <use xlink:href="#rim"/>
    <path pointer-events="none" fill="none" stroke="white" stroke-width="1.5" d="M0,-3.0v7 M-2.5,-0.5L0,-3.0L2.5,-0.5"/>
  </g>
  <g id="arrowDown" transform="rotate(180) translate(-30 -48)">
    <use xlink:href="#rim"/>
    <path pointer-events="none" fill="none" stroke="white" stroke-width="1.5" d="M0,-3.0v7 M-2.5,-0.5L0,-3.0L2.5,-0.5"/>
  </g>
  <g id="arrowLeft" transform="rotate(270) translate(-36 17)">
    <use xlink:href="#rim"/>
    <path pointer-events="none" fill="none" stroke="white" stroke-width="1.5" d="M0,-3.0v7 M-2.5,-0.5L0,-3.0L2.5,-0.5"/>
  </g>
  <g id="resetDef">
    <use xlink:href="#rim2" fill="#404040"><set attributeName="fill" to="#808080" begin="reset.mouseover" end="reset.mouseout"/></use>
  </g>
</defs>
<script type="application/ecmascript">
var viewWidth = 731;
var viewHeight = 271;
var sectionId = 'dynsection-1';
</script>
<script type="application/ecmascript" xlink:href="svg.min.js"/>
<svg id="graph" class="graph">
<g id="viewport">
<title>MeltPoolDG::Heat::HeatDiffuseOperation&lt; dim, number &gt;</title>
<!-- Node1 -->
<g id="Node000001" class="node">
<title>Node1</title>
<g id="a_Node000001"><a xlink:title=" ">
<polygon fill="#999999" stroke="#666666" points="723,-160 556,-160 556,-130 723,-130 723,-160"/>
<text text-anchor="start" x="564" y="-148" font-family="Helvetica,sans-Serif" font-size="10.00">MeltPoolDG::Heat::HeatDiffuse</text>
<text text-anchor="middle" x="639.5" y="-137" font-family="Helvetica,sans-Serif" font-size="10.00">Operation&lt; dim, number &gt;</text>
</a>
</g>
</g>
<!-- Node2 -->
<g id="Node000002" class="node">
<title>Node2</title>
<g id="a_Node000002"><a xlink:href="classMeltPoolDG_1_1Heat_1_1HeatOperationBase.html" target="_top" xlink:title=" ">
<polygon fill="white" stroke="#666666" points="454,-225 273,-225 273,-195 454,-195 454,-225"/>
<text text-anchor="start" x="281" y="-213" font-family="Helvetica,sans-Serif" font-size="10.00">MeltPoolDG::Heat::HeatOperation</text>
<text text-anchor="middle" x="363.5" y="-202" font-family="Helvetica,sans-Serif" font-size="10.00">Base&lt; dim, number &gt;</text>
</a>
</g>
</g>
<!-- Node2&#45;&gt;Node1 -->
<g id="edge1_Node000001_Node000002" class="edge">
<title>Node2&#45;&gt;Node1</title>
<g id="a_edge1_Node000001_Node000002"><a xlink:title=" ">
<path fill="none" stroke="#63b8ff" d="M440.95,-192.67C471.2,-185.74 506.27,-177.6 538,-170 551.2,-166.84 565.36,-163.36 578.76,-160.04"/>
<polygon fill="#63b8ff" stroke="#63b8ff" points="439.85,-189.33 430.89,-194.98 441.41,-196.16 439.85,-189.33"/>
</a>
</g>
</g>
<!-- Node3 -->
<g id="Node000003" class="node">
<title>Node3</title>
<g id="a_Node000003"><a xlink:href="classMeltPoolDG_1_1ScratchData.html" target="_top" xlink:title=" ">
<polygon fill="white" stroke="#666666" points="433.5,-177 293.5,-177 293.5,-147 433.5,-147 433.5,-177"/>
<text text-anchor="start" x="301.5" y="-165" font-family="Helvetica,sans-Serif" font-size="10.00">MeltPoolDG::ScratchData</text>
<text text-anchor="middle" x="363.5" y="-154" font-family="Helvetica,sans-Serif" font-size="10.00">&lt; dim, dim, number &gt;</text>
</a>
</g>
</g>
<!-- Node3&#45;&gt;Node1 -->
<g id="edge2_Node000001_Node000003" class="edge">
<title>Node3&#45;&gt;Node1</title>
<g id="a_edge2_Node000001_Node000003"><a xlink:title=" ">
<path fill="none" stroke="#9a32cd" stroke-dasharray="5,2" d="M443.84,-157.08C478.94,-154.9 520.22,-152.34 555.71,-150.14"/>
<polygon fill="#9a32cd" stroke="#9a32cd" points="443.41,-153.6 433.64,-157.71 443.84,-160.58 443.41,-153.6"/>
</a>
</g>
<text text-anchor="middle" x="505" y="-158" font-family="Helvetica,sans-Serif" font-size="10.00" fill="grey"> scratch_data</text>
</g>
<!-- Node4 -->
<g id="Node000004" class="node">
<title>Node4</title>
<g id="a_Node000004"><a xlink:href="structMeltPoolDG_1_1Heat_1_1HeatData.html" target="_top" xlink:title=" ">
<polygon fill="white" stroke="#666666" points="441.5,-129 285.5,-129 285.5,-99 441.5,-99 441.5,-129"/>
<text text-anchor="start" x="293.5" y="-117" font-family="Helvetica,sans-Serif" font-size="10.00">MeltPoolDG::Heat::HeatData</text>
<text text-anchor="middle" x="363.5" y="-106" font-family="Helvetica,sans-Serif" font-size="10.00">&lt; number &gt;</text>
</a>
</g>
</g>
<!-- Node4&#45;&gt;Node1 -->
<g id="edge3_Node000001_Node000004" class="edge">
<title>Node4&#45;&gt;Node1</title>
<g id="a_edge3_Node000001_Node000004"><a xlink:title=" ">
<path fill="none" stroke="#9a32cd" stroke-dasharray="5,2" d="M451.74,-123.87C485.05,-127.64 522.92,-131.92 555.8,-135.64"/>
<polygon fill="#9a32cd" stroke="#9a32cd" points="451.88,-120.36 441.55,-122.72 451.1,-127.32 451.88,-120.36"/>
</a>
</g>
<text text-anchor="middle" x="505" y="-136" font-family="Helvetica,sans-Serif" font-size="10.00" fill="grey"> heat_data</text>
</g>
<!-- Node5 -->
<g id="Node000005" class="node">
<title>Node5</title>
<g id="a_Node000005"><a xlink:href="structMeltPoolDG_1_1Heat_1_1HeatData_1_1Diffuse.html" target="_top" xlink:title=" ">
<polygon fill="white" stroke="#666666" points="163.5,-225 7.5,-225 7.5,-195 163.5,-195 163.5,-225"/>
<text text-anchor="start" x="15.5" y="-213" font-family="Helvetica,sans-Serif" font-size="10.00">MeltPoolDG::Heat::HeatData</text>
<text text-anchor="middle" x="85.5" y="-202" font-family="Helvetica,sans-Serif" font-size="10.00">&lt; number &gt;::Diffuse</text>
</a>
</g>
</g>
<!-- Node5&#45;&gt;Node4 -->
<g id="edge4_Node000004_Node000005" class="edge">
<title>Node5&#45;&gt;Node4</title>
<g id="a_edge4_Node000004_Node000005"><a xlink:title=" ">
<path fill="none" stroke="#9a32cd" stroke-dasharray="5,2" d="M150.71,-192.09C157.57,-190.08 164.44,-188.02 171,-186 208.6,-174.4 222.08,-179.56 255,-158 265,-151.45 262.8,-144.25 273,-138 278.62,-134.55 284.74,-131.59 291.05,-129.06"/>
<polygon fill="#9a32cd" stroke="#9a32cd" points="149.33,-188.85 140.7,-195 151.28,-195.57 149.33,-188.85"/>
</a>
</g>
<text text-anchor="middle" x="222" y="-184" font-family="Helvetica,sans-Serif" font-size="10.00" fill="grey"> diffuse</text>
</g>
<!-- Node6 -->
<g id="Node000006" class="node">
<title>Node6</title>
<g id="a_Node000006"><a xlink:href="structMeltPoolDG_1_1Heat_1_1HeatData_1_1Cut.html" target="_top" xlink:title=" ">
<polygon fill="white" stroke="#666666" points="163.5,-177 7.5,-177 7.5,-147 163.5,-147 163.5,-177"/>
<text text-anchor="start" x="15.5" y="-165" font-family="Helvetica,sans-Serif" font-size="10.00">MeltPoolDG::Heat::HeatData</text>
<text text-anchor="middle" x="85.5" y="-154" font-family="Helvetica,sans-Serif" font-size="10.00">&lt; number &gt;::Cut</text>
</a>
</g>
</g>
<!-- Node6&#45;&gt;Node4 -->
<g id="edge5_Node000004_Node000006" class="edge">
<title>Node6&#45;&gt;Node4</title>
<g id="a_edge5_Node000004_Node000006"><a xlink:title=" ">
<path fill="none" stroke="#9a32cd" stroke-dasharray="5,2" d="M173.69,-146.84C209.49,-140.61 250.58,-133.46 285.27,-127.43"/>
<polygon fill="#9a32cd" stroke="#9a32cd" points="173,-143.4 163.75,-148.57 174.2,-150.3 173,-143.4"/>
</a>
</g>
<text text-anchor="middle" x="222" y="-146" font-family="Helvetica,sans-Serif" font-size="10.00" fill="grey"> cut</text>
</g>
<!-- Node7 -->
<g id="Node000007" class="node">
<title>Node7</title>
<g id="a_Node000007"><a xlink:href="structMeltPoolDG_1_1Heat_1_1HeatData_1_1RadiationBC.html" target="_top" xlink:title=" ">
<polygon fill="white" stroke="#666666" points="163.5,-129 7.5,-129 7.5,-99 163.5,-99 163.5,-129"/>
<text text-anchor="start" x="15.5" y="-117" font-family="Helvetica,sans-Serif" font-size="10.00">MeltPoolDG::Heat::HeatData</text>
<text text-anchor="middle" x="85.5" y="-106" font-family="Helvetica,sans-Serif" font-size="10.00">&lt; number &gt;::RadiationBC</text>
</a>
</g>
</g>
<!-- Node7&#45;&gt;Node4 -->
<g id="edge6_Node000004_Node000007" class="edge">
<title>Node7&#45;&gt;Node4</title>
<g id="a_edge6_Node000004_Node000007"><a xlink:title=" ">
<path fill="none" stroke="#9a32cd" stroke-dasharray="5,2" d="M174.15,-114C209.84,-114 250.73,-114 285.27,-114"/>
<polygon fill="#9a32cd" stroke="#9a32cd" points="173.75,-110.5 163.75,-114 173.75,-117.5 173.75,-110.5"/>
</a>
</g>
<text text-anchor="middle" x="222" y="-117" font-family="Helvetica,sans-Serif" font-size="10.00" fill="grey"> radiation</text>
</g>
<!-- Node8 -->
<g id="Node000008" class="node">
<title>Node8</title>
<g id="a_Node000008"><a xlink:href="structMeltPoolDG_1_1Heat_1_1HeatData_1_1ConvectionBC.html" target="_top" xlink:title=" ">
<polygon fill="white" stroke="#666666" points="163.5,-81 7.5,-81 7.5,-51 163.5,-51 163.5,-81"/>
<text text-anchor="start" x="15.5" y="-69" font-family="Helvetica,sans-Serif" font-size="10.00">MeltPoolDG::Heat::HeatData</text>
<text text-anchor="middle" x="85.5" y="-58" font-family="Helvetica,sans-Serif" font-size="10.00">&lt; number &gt;::ConvectionBC</text>
</a>
</g>
</g>
<!-- Node8&#45;&gt;Node4 -->
<g id="edge7_Node000004_Node000008" class="edge">
<title>Node8&#45;&gt;Node4</title>
<g id="a_edge7_Node000004_Node000008"><a xlink:title=" ">
<path fill="none" stroke="#9a32cd" stroke-dasharray="5,2" d="M173.69,-81.16C209.49,-87.39 250.58,-94.54 285.27,-100.57"/>
<polygon fill="#9a32cd" stroke="#9a32cd" points="174.2,-77.7 163.75,-79.43 173,-84.6 174.2,-77.7"/>
</a>
</g>
<text text-anchor="middle" x="222" y="-98" font-family="Helvetica,sans-Serif" font-size="10.00" fill="grey"> convection</text>
</g>
<!-- Node9 -->
<g id="Node000009" class="node">
<title>Node9</title>
<g id="a_Node000009"><a xlink:href="structMeltPoolDG_1_1NonlinearSolverData.html" target="_top" xlink:title=" ">
<polygon fill="white" stroke="#666666" points="164.5,-30 6.5,-30 6.5,0 164.5,0 164.5,-30"/>
<text text-anchor="start" x="14.5" y="-18" font-family="Helvetica,sans-Serif" font-size="10.00">MeltPoolDG::NonlinearSolver</text>
<text text-anchor="middle" x="85.5" y="-7" font-family="Helvetica,sans-Serif" font-size="10.00">Data&lt; number &gt;</text>
</a>
</g>
</g>
<!-- Node9&#45;&gt;Node4 -->
<g id="edge8_Node000004_Node000009" class="edge">
<title>Node9&#45;&gt;Node4</title>
<g id="a_edge8_Node000004_Node000009"><a xlink:title=" ">
<path fill="none" stroke="#9a32cd" stroke-dasharray="5,2" d="M143.7,-33.17C152.84,-36.1 162.18,-39.12 171,-42 208.41,-54.21 218.1,-56.32 255,-70 279.39,-79.05 306.5,-90.15 327.39,-98.94"/>
<polygon fill="#9a32cd" stroke="#9a32cd" points="144.5,-29.75 133.91,-30.03 142.36,-36.42 144.5,-29.75"/>
</a>
</g>
<text text-anchor="middle" x="222" y="-73" font-family="Helvetica,sans-Serif" font-size="10.00" fill="grey"> nlsolve</text>
</g>
<!-- Node11 -->
<g id="Node000011" class="node">
<title>Node11</title>
<g id="a_Node000011"><a xlink:href="classMeltPoolDG_1_1NewtonRaphsonSolver.html" target="_top" xlink:title=" ">
<polygon fill="white" stroke="#666666" points="447,-54 280,-54 280,-24 447,-24 447,-54"/>
<text text-anchor="start" x="288" y="-42" font-family="Helvetica,sans-Serif" font-size="10.00">MeltPoolDG::NewtonRaphson</text>
<text text-anchor="middle" x="363.5" y="-31" font-family="Helvetica,sans-Serif" font-size="10.00">Solver&lt; number, VectorType &gt;</text>
</a>
</g>
</g>
<!-- Node9&#45;&gt;Node11 -->
<g id="edge11_Node000011_Node000009" class="edge">
<title>Node9&#45;&gt;Node11</title>
<g id="a_edge11_Node000011_Node000009"><a xlink:title=" ">
<path fill="none" stroke="#9a32cd" stroke-dasharray="5,2" d="M174.91,-9.62C200.8,-9.22 229.1,-9.91 255,-13 273.59,-15.22 293.61,-19.52 311.28,-23.99"/>
<polygon fill="#9a32cd" stroke="#9a32cd" points="174.67,-6.13 164.74,-9.84 174.82,-13.13 174.67,-6.13"/>
</a>
</g>
<text text-anchor="middle" x="222" y="-16" font-family="Helvetica,sans-Serif" font-size="10.00" fill="grey"> nlsolve_data</text>
</g>
<!-- Node10 -->
<g id="Node000010" class="node">
<title>Node10</title>
<g id="a_Node000010"><a xlink:href="structMeltPoolDG_1_1FiniteElementData.html" target="_top" xlink:title=" ">
<polygon fill="white" stroke="#666666" points="171,-262.5 0,-262.5 0,-243.5 171,-243.5 171,-262.5"/>
<text text-anchor="middle" x="85.5" y="-250.5" font-family="Helvetica,sans-Serif" font-size="10.00">MeltPoolDG::FiniteElementData</text>
</a>
</g>
</g>
<!-- Node10&#45;&gt;Node4 -->
<g id="edge9_Node000004_Node000010" class="edge">
<title>Node10&#45;&gt;Node4</title>
<g id="a_edge9_Node000004_Node000010"><a xlink:title=" ">
<path fill="none" stroke="#9a32cd" stroke-dasharray="5,2" d="M146.91,-241C155.08,-238.92 163.3,-236.58 171,-234 209.86,-220.99 227.88,-226.71 255,-196 272.87,-175.77 253.55,-156.71 273,-138 276.71,-134.43 280.89,-131.38 285.37,-128.77"/>
<polygon fill="#9a32cd" stroke="#9a32cd" points="145.89,-237.64 137.01,-243.41 147.55,-244.44 145.89,-237.64"/>
</a>
</g>
<text text-anchor="middle" x="222" y="-231" font-family="Helvetica,sans-Serif" font-size="10.00" fill="grey"> fe</text>
</g>
<!-- Node11&#45;&gt;Node1 -->
<g id="edge10_Node000001_Node000011" class="edge">
<title>Node11&#45;&gt;Node1</title>
<g id="a_edge10_Node000001_Node000011"><a xlink:title=" ">
<path fill="none" stroke="#9a32cd" stroke-dasharray="5,2" d="M413.03,-57.77C466.26,-78.37 550.63,-111.01 599.67,-129.98"/>
<polygon fill="#9a32cd" stroke="#9a32cd" points="414.06,-54.42 403.47,-54.07 411.53,-60.95 414.06,-54.42"/>
</a>
</g>
<text text-anchor="middle" x="505" y="-107" font-family="Helvetica,sans-Serif" font-size="10.00" fill="grey"> newton</text>
</g>
</g>
</svg>

<g id="navigator" transform="translate(0 0)" fill="#404254">
  <rect fill="#f2f5e9" fill-opacity="0.5" stroke="#606060" stroke-width=".5" x="0" y="0" width="60" height="60"/>
  <use id="zoomplus" xlink:href="#zoomPlus" x="17" y="9" onmousedown="handleZoom(evt,'in')"/>
  <use id="zoomminus" xlink:href="#zoomMin" x="42" y="9" onmousedown="handleZoom(evt,'out')"/>
  <use id="reset" xlink:href="#resetDef" x="30" y="36" onmousedown="handleReset()"/>
   <use id="arrowup" xlink:href="#arrowUp" x="0" y="0" onmousedown="handlePan(0,-1)"/>
  <use id="arrowright" xlink:href="#arrowRight" x="0" y="0" onmousedown="handlePan(1,0)"/>
  <use id="arrowdown" xlink:href="#arrowDown" x="0" y="0" onmousedown="handlePan(0,1)"/>
  <use id="arrowleft" xlink:href="#arrowLeft" x="0" y="0" onmousedown="handlePan(-1,0)"/>
</g>
<svg viewBox="0 0 15 15" width="100%" height="30px" preserveAspectRatio="xMaxYMin meet">
 <g id="arrow_out" transform="scale(0.3 0.3)">
  <a xlink:href="classMeltPoolDG_1_1Heat_1_1HeatDiffuseOperation__coll__graph_org.svg" target="_base">
   <rect id="button" ry="5" rx="5" y="6" x="6" height="38" width="38"
        fill="#f2f5e9" fill-opacity="0.5" stroke="#606060" stroke-width="1.0"/>
   <path id="arrow"
     d="M 11.500037,31.436501 C 11.940474,20.09759 22.043105,11.32322 32.158766,21.979434 L 37.068811,17.246167 C 37.068811,17.246167 37.088388,32 37.088388,32 L 22.160133,31.978069 C 22.160133,31.978069 26.997745,27.140456 26.997745,27.140456 C 18.528582,18.264221 13.291696,25.230495 11.500037,31.436501 z"
     style="fill:#404040;"/>
  </a>
 </g>
</svg>

<style type='text/css'>
<![CDATA[
[data-mouse-over-selected='false'] { opacity: 0.7; }
[data-mouse-over-selected='true']  { opacity: 1.0; }
]]>
</style>
<script type="application/ecmascript"><![CDATA[
document.addEventListener('DOMContentLoaded', (event) => {
  highlightEdges();
  highlightAdjacentNodes();
});
]]></script>
</svg>
