<?xml version="1.0" encoding="UTF-8" standalone="no"?>
<!DOCTYPE svg PUBLIC "-//W3C//DTD SVG 1.1//EN"
 "http://www.w3.org/Graphics/SVG/1.1/DTD/svg11.dtd">
<!-- Generated by graphviz version 2.43.0 (0)
 -->
<!-- Title: MeltPoolDG::LevelSet::NormalVectorOperationBase&lt; dim, number &gt; Pages: 1 -->
<svg width="357pt" height="108pt"
 viewBox="0.00 0.00 357.00 108.00" xmlns="http://www.w3.org/2000/svg" xmlns:xlink="http://www.w3.org/1999/xlink">
<g id="graph0" class="graph" transform="scale(1 1) rotate(0) translate(4 104)">
<title>MeltPoolDG::LevelSet::NormalVectorOperationBase&lt; dim, number &gt;</title>
<!-- Node1 -->
<g id="Node000001" class="node">
<title>Node1</title>
<g id="a_Node000001"><a xlink:title=" ">
<polygon fill="#999999" stroke="#666666" points="161,-70 0,-70 0,-29 161,-29 161,-70"/>
<text text-anchor="start" x="8" y="-58" font-family="Helvetica,sans-Serif" font-size="10.00">MeltPoolDG::LevelSet</text>
<text text-anchor="start" x="8" y="-47" font-family="Helvetica,sans-Serif" font-size="10.00">::NormalVectorOperationBase</text>
<text text-anchor="middle" x="80.5" y="-36" font-family="Helvetica,sans-Serif" font-size="10.00">&lt; dim, number &gt;</text>
</a>
</g>
</g>
<!-- Node2 -->
<g id="Node000002" class="node">
<title>Node2</title>
<g id="a_Node000002"><a xlink:href="classMeltPoolDG_1_1LevelSet_1_1NormalVectorDGOperation.html" target="_top" xlink:title=" ">
<polygon fill="white" stroke="#666666" points="349,-100 197,-100 197,-59 349,-59 349,-100"/>
<text text-anchor="start" x="205" y="-88" font-family="Helvetica,sans-Serif" font-size="10.00">MeltPoolDG::LevelSet</text>
<text text-anchor="start" x="205" y="-77" font-family="Helvetica,sans-Serif" font-size="10.00">::NormalVectorDGOperation</text>
<text text-anchor="middle" x="273" y="-66" font-family="Helvetica,sans-Serif" font-size="10.00">&lt; dim, number &gt;</text>
</a>
</g>
</g>
<!-- Node1&#45;&gt;Node2 -->
<g id="edge1_Node000001_Node000002" class="edge">
<title>Node1&#45;&gt;Node2</title>
<g id="a_edge1_Node000001_Node000002"><a xlink:title=" ">
<path fill="none" stroke="#63b8ff" d="M171.23,-63.63C179.82,-64.98 188.47,-66.35 196.9,-67.67"/>
<polygon fill="#63b8ff" stroke="#63b8ff" points="171.61,-60.15 161.19,-62.05 170.52,-67.06 171.61,-60.15"/>
</a>
</g>
</g>
<!-- Node3 -->
<g id="Node000003" class="node">
<title>Node3</title>
<g id="a_Node000003"><a xlink:href="classMeltPoolDG_1_1LevelSet_1_1NormalVectorOperation.html" target="_top" xlink:title=" ">
<polygon fill="white" stroke="#666666" points="341.5,-41 204.5,-41 204.5,0 341.5,0 341.5,-41"/>
<text text-anchor="start" x="212.5" y="-29" font-family="Helvetica,sans-Serif" font-size="10.00">MeltPoolDG::LevelSet</text>
<text text-anchor="start" x="212.5" y="-18" font-family="Helvetica,sans-Serif" font-size="10.00">::NormalVectorOperation</text>
<text text-anchor="middle" x="273" y="-7" font-family="Helvetica,sans-Serif" font-size="10.00">&lt; dim, number &gt;</text>
</a>
</g>
</g>
<!-- Node1&#45;&gt;Node3 -->
<g id="edge2_Node000001_Node000003" class="edge">
<title>Node1&#45;&gt;Node3</title>
<g id="a_edge2_Node000001_Node000003"><a xlink:title=" ">
<path fill="none" stroke="#63b8ff" d="M171.36,-35.82C182.48,-34.13 193.7,-32.42 204.41,-30.79"/>
<polygon fill="#63b8ff" stroke="#63b8ff" points="170.54,-32.4 161.19,-37.37 171.6,-39.32 170.54,-32.4"/>
</a>
</g>
</g>
</g>
</svg>
