<?xml version="1.0" encoding="UTF-8" standalone="no"?>
<!DOCTYPE svg PUBLIC "-//W3C//DTD SVG 1.1//EN"
 "http://www.w3.org/Graphics/SVG/1.1/DTD/svg11.dtd">
<!-- Generated by graphviz version 2.43.0 (0)
 -->
<!-- Title: MeltPoolDG::LevelSet::ReinitializationCase&lt; dim, number &gt; Pages: 1 -->
<svg width="560pt" height="226pt"
 viewBox="0.00 0.00 560.00 226.00" xmlns="http://www.w3.org/2000/svg" xmlns:xlink="http://www.w3.org/1999/xlink">
<g id="graph0" class="graph" transform="scale(1 1) rotate(0) translate(4 222)">
<title>MeltPoolDG::LevelSet::ReinitializationCase&lt; dim, number &gt;</title>
<!-- Node1 -->
<g id="Node000001" class="node">
<title>Node1</title>
<g id="a_Node000001"><a xlink:title=" ">
<polygon fill="#999999" stroke="#666666" points="337,-129 215,-129 215,-88 337,-88 337,-129"/>
<text text-anchor="start" x="223" y="-117" font-family="Helvetica,sans-Serif" font-size="10.00">MeltPoolDG::LevelSet</text>
<text text-anchor="start" x="223" y="-106" font-family="Helvetica,sans-Serif" font-size="10.00">::ReinitializationCase</text>
<text text-anchor="middle" x="276" y="-95" font-family="Helvetica,sans-Serif" font-size="10.00">&lt; dim, number &gt;</text>
</a>
</g>
</g>
<!-- Node3 -->
<g id="Node000003" class="node">
<title>Node3</title>
<g id="a_Node000003"><a xlink:href="classMeltPoolDG_1_1Simulation_1_1PowderParticles_1_1SimulationPowderParticles.html" target="_top" xlink:title=" ">
<polygon fill="white" stroke="#666666" points="552,-218 373,-218 373,-177 552,-177 552,-218"/>
<text text-anchor="start" x="381" y="-206" font-family="Helvetica,sans-Serif" font-size="10.00">MeltPoolDG::Simulation</text>
<text text-anchor="start" x="381" y="-195" font-family="Helvetica,sans-Serif" font-size="10.00">::PowderParticles::Simulation</text>
<text text-anchor="middle" x="462.5" y="-184" font-family="Helvetica,sans-Serif" font-size="10.00">PowderParticles&lt; dim, number &gt;</text>
</a>
</g>
</g>
<!-- Node1&#45;&gt;Node3 -->
<g id="edge2_Node000001_Node000003" class="edge">
<title>Node1&#45;&gt;Node3</title>
<g id="a_edge2_Node000001_Node000003"><a xlink:title=" ">
<path fill="none" stroke="#63b8ff" d="M314.45,-134.86C331.73,-146.24 352.84,-159.07 373,-168.5 379.44,-171.51 386.29,-174.35 393.2,-176.98"/>
<polygon fill="#63b8ff" stroke="#63b8ff" points="316.05,-131.72 305.79,-129.07 312.16,-137.54 316.05,-131.72"/>
</a>
</g>
</g>
<!-- Node4 -->
<g id="Node000004" class="node">
<title>Node4</title>
<g id="a_Node000004"><a xlink:href="classMeltPoolDG_1_1Simulation_1_1ReinitCircle_1_1SimulationReinit.html" target="_top" xlink:title="A specific reinitialization simulation setup for a hyperrectangular domain with a hyperspherical zero...">
<polygon fill="white" stroke="#666666" points="545.5,-159 379.5,-159 379.5,-118 545.5,-118 545.5,-159"/>
<text text-anchor="start" x="387.5" y="-147" font-family="Helvetica,sans-Serif" font-size="10.00">MeltPoolDG::Simulation</text>
<text text-anchor="start" x="387.5" y="-136" font-family="Helvetica,sans-Serif" font-size="10.00">::ReinitCircle::SimulationReinit</text>
<text text-anchor="middle" x="462.5" y="-125" font-family="Helvetica,sans-Serif" font-size="10.00">&lt; dim, number &gt;</text>
</a>
</g>
</g>
<!-- Node1&#45;&gt;Node4 -->
<g id="edge3_Node000001_Node000004" class="edge">
<title>Node1&#45;&gt;Node4</title>
<g id="a_edge3_Node000001_Node000004"><a xlink:title=" ">
<path fill="none" stroke="#63b8ff" d="M347.1,-119.9C357.62,-121.61 368.55,-123.39 379.3,-125.13"/>
<polygon fill="#63b8ff" stroke="#63b8ff" points="347.59,-116.43 337.16,-118.28 346.47,-123.34 347.59,-116.43"/>
</a>
</g>
</g>
<!-- Node5 -->
<g id="Node000005" class="node">
<title>Node5</title>
<g id="a_Node000005"><a xlink:href="classMeltPoolDG_1_1Simulation_1_1ReinitCircleDG_1_1SimulationReinitDG.html" target="_top" xlink:title=" ">
<polygon fill="white" stroke="#666666" points="538.5,-100 386.5,-100 386.5,-59 538.5,-59 538.5,-100"/>
<text text-anchor="start" x="394.5" y="-88" font-family="Helvetica,sans-Serif" font-size="10.00">MeltPoolDG::Simulation</text>
<text text-anchor="start" x="394.5" y="-77" font-family="Helvetica,sans-Serif" font-size="10.00">::ReinitCircleDG::Simulation</text>
<text text-anchor="middle" x="462.5" y="-66" font-family="Helvetica,sans-Serif" font-size="10.00">ReinitDG&lt; dim, number &gt;</text>
</a>
</g>
</g>
<!-- Node1&#45;&gt;Node5 -->
<g id="edge4_Node000001_Node000005" class="edge">
<title>Node1&#45;&gt;Node5</title>
<g id="a_edge4_Node000001_Node000005"><a xlink:title=" ">
<path fill="none" stroke="#63b8ff" d="M347.24,-97.46C360,-95.45 373.35,-93.36 386.25,-91.33"/>
<polygon fill="#63b8ff" stroke="#63b8ff" points="346.49,-94.03 337.16,-99.04 347.58,-100.95 346.49,-94.03"/>
</a>
</g>
</g>
<!-- Node6 -->
<g id="Node000006" class="node">
<title>Node6</title>
<g id="a_Node000006"><a xlink:href="classMeltPoolDG_1_1Simulation_1_1WallWetting_1_1SimulationWallWetting.html" target="_top" xlink:title="Simulation of wetting at the bottom wall. This simulates the modelling problem described in &quot;A conser...">
<polygon fill="white" stroke="#666666" points="543,-41 382,-41 382,0 543,0 543,-41"/>
<text text-anchor="start" x="390" y="-29" font-family="Helvetica,sans-Serif" font-size="10.00">MeltPoolDG::Simulation</text>
<text text-anchor="start" x="390" y="-18" font-family="Helvetica,sans-Serif" font-size="10.00">::WallWetting::SimulationWall</text>
<text text-anchor="middle" x="462.5" y="-7" font-family="Helvetica,sans-Serif" font-size="10.00">Wetting&lt; dim, number &gt;</text>
</a>
</g>
</g>
<!-- Node1&#45;&gt;Node6 -->
<g id="edge5_Node000001_Node000006" class="edge">
<title>Node1&#45;&gt;Node6</title>
<g id="a_edge5_Node000001_Node000006"><a xlink:title=" ">
<path fill="none" stroke="#63b8ff" d="M315.29,-82.11C332.43,-71.06 353.2,-58.67 373,-49.5 379.45,-46.51 386.31,-43.69 393.22,-41.07"/>
<polygon fill="#63b8ff" stroke="#63b8ff" points="313.13,-79.34 306.68,-87.74 316.96,-85.19 313.13,-79.34"/>
</a>
</g>
</g>
<!-- Node2 -->
<g id="Node000002" class="node">
<title>Node2</title>
<g id="a_Node000002"><a xlink:href="classMeltPoolDG_1_1SimulationCaseBase.html" target="_top" xlink:title="Base class for managing a simulation case in a parallel computing environment.">
<polygon fill="white" stroke="#666666" points="179,-123.5 0,-123.5 0,-93.5 179,-93.5 179,-123.5"/>
<text text-anchor="start" x="8" y="-111.5" font-family="Helvetica,sans-Serif" font-size="10.00">MeltPoolDG::SimulationCase</text>
<text text-anchor="middle" x="89.5" y="-100.5" font-family="Helvetica,sans-Serif" font-size="10.00">Base&lt; dim, number, spacedim &gt;</text>
</a>
</g>
</g>
<!-- Node2&#45;&gt;Node1 -->
<g id="edge1_Node000001_Node000002" class="edge">
<title>Node2&#45;&gt;Node1</title>
<g id="a_edge1_Node000001_Node000002"><a xlink:title=" ">
<path fill="none" stroke="#63b8ff" d="M189.44,-108.5C198.12,-108.5 206.72,-108.5 214.93,-108.5"/>
<polygon fill="#63b8ff" stroke="#63b8ff" points="189.24,-105 179.24,-108.5 189.24,-112 189.24,-105"/>
</a>
</g>
</g>
</g>
</svg>
