<?xml version="1.0" encoding="UTF-8" standalone="no"?>
<!DOCTYPE svg PUBLIC "-//W3C//DTD SVG 1.1//EN"
 "http://www.w3.org/Graphics/SVG/1.1/DTD/svg11.dtd">
<!-- Generated by graphviz version 2.43.0 (0)
 -->
<!-- Title: MeltPoolDG::Evaporation::EvaporationModelBase&lt; number &gt; Pages: 1 -->
<svg width="369pt" height="285pt"
 viewBox="0.00 0.00 369.00 285.00" xmlns="http://www.w3.org/2000/svg" xmlns:xlink="http://www.w3.org/1999/xlink">
<g id="graph0" class="graph" transform="scale(1 1) rotate(0) translate(4 281)">
<title>MeltPoolDG::Evaporation::EvaporationModelBase&lt; number &gt;</title>
<!-- Node1 -->
<g id="Node000001" class="node">
<title>Node1</title>
<g id="a_Node000001"><a xlink:title=" ">
<polygon fill="#999999" stroke="#666666" points="139,-159 0,-159 0,-118 139,-118 139,-159"/>
<text text-anchor="start" x="8" y="-147" font-family="Helvetica,sans-Serif" font-size="10.00">MeltPoolDG::Evaporation</text>
<text text-anchor="start" x="8" y="-136" font-family="Helvetica,sans-Serif" font-size="10.00">::EvaporationModelBase</text>
<text text-anchor="middle" x="69.5" y="-125" font-family="Helvetica,sans-Serif" font-size="10.00">&lt; number &gt;</text>
</a>
</g>
</g>
<!-- Node2 -->
<g id="Node000002" class="node">
<title>Node2</title>
<g id="a_Node000002"><a xlink:href="classMeltPoolDG_1_1Evaporation_1_1EvaporationModelConstant.html" target="_top" xlink:title=" ">
<polygon fill="white" stroke="#666666" points="345.5,-277 190.5,-277 190.5,-236 345.5,-236 345.5,-277"/>
<text text-anchor="start" x="198.5" y="-265" font-family="Helvetica,sans-Serif" font-size="10.00">MeltPoolDG::Evaporation</text>
<text text-anchor="start" x="198.5" y="-254" font-family="Helvetica,sans-Serif" font-size="10.00">::EvaporationModelConstant</text>
<text text-anchor="middle" x="268" y="-243" font-family="Helvetica,sans-Serif" font-size="10.00">&lt; number &gt;</text>
</a>
</g>
</g>
<!-- Node1&#45;&gt;Node2 -->
<g id="edge1_Node000001_Node000002" class="edge">
<title>Node1&#45;&gt;Node2</title>
<g id="a_edge1_Node000001_Node000002"><a xlink:title=" ">
<path fill="none" stroke="#63b8ff" d="M97.02,-166.4C116.89,-185.89 145.6,-211.23 175,-227.5 180.57,-230.58 186.51,-233.39 192.59,-235.93"/>
<polygon fill="#63b8ff" stroke="#63b8ff" points="99.41,-163.84 89.86,-159.25 94.46,-168.79 99.41,-163.84"/>
</a>
</g>
</g>
<!-- Node3 -->
<g id="Node000003" class="node">
<title>Node3</title>
<g id="a_Node000003"><a xlink:href="classMeltPoolDG_1_1Evaporation_1_1EvaporationModelHardtWondra.html" target="_top" xlink:title=" ">
<polygon fill="white" stroke="#666666" points="355.5,-218 180.5,-218 180.5,-177 355.5,-177 355.5,-218"/>
<text text-anchor="start" x="188.5" y="-206" font-family="Helvetica,sans-Serif" font-size="10.00">MeltPoolDG::Evaporation</text>
<text text-anchor="start" x="188.5" y="-195" font-family="Helvetica,sans-Serif" font-size="10.00">::EvaporationModelHardtWondra</text>
<text text-anchor="middle" x="268" y="-184" font-family="Helvetica,sans-Serif" font-size="10.00">&lt; number &gt;</text>
</a>
</g>
</g>
<!-- Node1&#45;&gt;Node3 -->
<g id="edge2_Node000001_Node000003" class="edge">
<title>Node1&#45;&gt;Node3</title>
<g id="a_edge2_Node000001_Node000003"><a xlink:title=" ">
<path fill="none" stroke="#63b8ff" d="M148.56,-161.94C165.06,-166.89 182.35,-172.08 198.46,-176.92"/>
<polygon fill="#63b8ff" stroke="#63b8ff" points="149.53,-158.58 138.95,-159.05 147.52,-165.28 149.53,-158.58"/>
</a>
</g>
</g>
<!-- Node4 -->
<g id="Node000004" class="node">
<title>Node4</title>
<g id="a_Node000004"><a xlink:href="classMeltPoolDG_1_1Evaporation_1_1EvaporationModelPressureAware.html" target="_top" xlink:title="This class implements the evaporative mass flux computed with pressure&#45;aware boundary conditions,...">
<polygon fill="white" stroke="#666666" points="360,-159 176,-159 176,-118 360,-118 360,-159"/>
<text text-anchor="start" x="184" y="-147" font-family="Helvetica,sans-Serif" font-size="10.00">MeltPoolDG::Evaporation</text>
<text text-anchor="start" x="184" y="-136" font-family="Helvetica,sans-Serif" font-size="10.00">::EvaporationModelPressureAware</text>
<text text-anchor="middle" x="268" y="-125" font-family="Helvetica,sans-Serif" font-size="10.00">&lt; number &gt;</text>
</a>
</g>
</g>
<!-- Node1&#45;&gt;Node4 -->
<g id="edge3_Node000001_Node000004" class="edge">
<title>Node1&#45;&gt;Node4</title>
<g id="a_edge3_Node000001_Node000004"><a xlink:title=" ">
<path fill="none" stroke="#63b8ff" d="M149.35,-138.5C158.07,-138.5 167.01,-138.5 175.86,-138.5"/>
<polygon fill="#63b8ff" stroke="#63b8ff" points="149.23,-135 139.23,-138.5 149.23,-142 149.23,-135"/>
</a>
</g>
</g>
<!-- Node5 -->
<g id="Node000005" class="node">
<title>Node5</title>
<g id="a_Node000005"><a xlink:href="classMeltPoolDG_1_1Evaporation_1_1EvaporationModelRecoilPressure.html" target="_top" xlink:title=" ">
<polygon fill="white" stroke="#666666" points="359.5,-100 176.5,-100 176.5,-59 359.5,-59 359.5,-100"/>
<text text-anchor="start" x="184.5" y="-88" font-family="Helvetica,sans-Serif" font-size="10.00">MeltPoolDG::Evaporation</text>
<text text-anchor="start" x="184.5" y="-77" font-family="Helvetica,sans-Serif" font-size="10.00">::EvaporationModelRecoilPressure</text>
<text text-anchor="middle" x="268" y="-66" font-family="Helvetica,sans-Serif" font-size="10.00">&lt; number &gt;</text>
</a>
</g>
</g>
<!-- Node1&#45;&gt;Node5 -->
<g id="edge4_Node000001_Node000005" class="edge">
<title>Node1&#45;&gt;Node5</title>
<g id="a_edge4_Node000001_Node000005"><a xlink:title=" ">
<path fill="none" stroke="#63b8ff" d="M148.56,-115.06C165.06,-110.11 182.35,-104.92 198.46,-100.08"/>
<polygon fill="#63b8ff" stroke="#63b8ff" points="147.52,-111.72 138.95,-117.95 149.53,-118.42 147.52,-111.72"/>
</a>
</g>
</g>
<!-- Node6 -->
<g id="Node000006" class="node">
<title>Node6</title>
<g id="a_Node000006"><a xlink:href="classMeltPoolDG_1_1Evaporation_1_1EvaporationModelSaturatedVaporPressure.html" target="_top" xlink:title=" ">
<polygon fill="white" stroke="#666666" points="361,-41 175,-41 175,0 361,0 361,-41"/>
<text text-anchor="start" x="183" y="-29" font-family="Helvetica,sans-Serif" font-size="10.00">MeltPoolDG::Evaporation</text>
<text text-anchor="start" x="183" y="-18" font-family="Helvetica,sans-Serif" font-size="10.00">::EvaporationModelSaturatedVapor</text>
<text text-anchor="middle" x="268" y="-7" font-family="Helvetica,sans-Serif" font-size="10.00">Pressure&lt; number &gt;</text>
</a>
</g>
</g>
<!-- Node1&#45;&gt;Node6 -->
<g id="edge5_Node000001_Node000006" class="edge">
<title>Node1&#45;&gt;Node6</title>
<g id="a_edge5_Node000001_Node000006"><a xlink:title=" ">
<path fill="none" stroke="#63b8ff" d="M97.51,-110.65C117.41,-91.48 145.96,-66.65 175,-50.5 181.17,-47.07 187.79,-43.96 194.54,-41.15"/>
<polygon fill="#63b8ff" stroke="#63b8ff" points="95.01,-108.19 90.32,-117.69 99.91,-113.2 95.01,-108.19"/>
</a>
</g>
</g>
</g>
</svg>
