<?xml version="1.0" encoding="UTF-8" standalone="no"?>
<!DOCTYPE svg PUBLIC "-//W3C//DTD SVG 1.1//EN"
 "http://www.w3.org/Graphics/SVG/1.1/DTD/svg11.dtd">
<!-- Generated by graphviz version 2.43.0 (0)
 -->
<!-- Title: MeltPoolDG::LevelSet::CurvatureOperator&lt; dim, number &gt; Pages: 1 -->
<svg width="504pt" height="86pt"
 viewBox="0.00 0.00 504.00 86.00" xmlns="http://www.w3.org/2000/svg" xmlns:xlink="http://www.w3.org/1999/xlink">
<g id="graph0" class="graph" transform="scale(1 1) rotate(0) translate(4 82)">
<title>MeltPoolDG::LevelSet::CurvatureOperator&lt; dim, number &gt;</title>
<!-- Node1 -->
<g id="Node000001" class="node">
<title>Node1</title>
<g id="a_Node000001"><a xlink:title=" ">
<polygon fill="#999999" stroke="#666666" points="496,-59.5 374,-59.5 374,-18.5 496,-18.5 496,-59.5"/>
<text text-anchor="start" x="382" y="-47.5" font-family="Helvetica,sans-Serif" font-size="10.00">MeltPoolDG::LevelSet</text>
<text text-anchor="start" x="382" y="-36.5" font-family="Helvetica,sans-Serif" font-size="10.00">::CurvatureOperator&lt;</text>
<text text-anchor="middle" x="435" y="-25.5" font-family="Helvetica,sans-Serif" font-size="10.00"> dim, number &gt;</text>
</a>
</g>
</g>
<!-- Node2 -->
<g id="Node000002" class="node">
<title>Node2</title>
<g id="a_Node000002"><a xlink:href="classMeltPoolDG_1_1OperatorMatrixFree.html" target="_top" xlink:title="Operator handling matrix&#45;free computations.">
<polygon fill="white" stroke="#666666" points="338,-78 183,-78 183,-48 338,-48 338,-78"/>
<text text-anchor="start" x="191" y="-66" font-family="Helvetica,sans-Serif" font-size="10.00">MeltPoolDG::OperatorMatrix</text>
<text text-anchor="middle" x="260.5" y="-55" font-family="Helvetica,sans-Serif" font-size="10.00">Free&lt; dim, number &gt;</text>
</a>
</g>
</g>
<!-- Node2&#45;&gt;Node1 -->
<g id="edge1_Node000001_Node000002" class="edge">
<title>Node2&#45;&gt;Node1</title>
<g id="a_edge1_Node000001_Node000002"><a xlink:title=" ">
<path fill="none" stroke="#63b8ff" d="M348.3,-50.92C356.95,-49.72 365.59,-48.52 373.88,-47.36"/>
<polygon fill="#63b8ff" stroke="#63b8ff" points="347.59,-47.49 338.17,-52.33 348.55,-54.42 347.59,-47.49"/>
</a>
</g>
</g>
<!-- Node3 -->
<g id="Node000003" class="node">
<title>Node3</title>
<g id="a_Node000003"><a xlink:href="classMeltPoolDG_1_1OperatorBase.html" target="_top" xlink:title=" ">
<polygon fill="white" stroke="#666666" points="147,-54 0,-54 0,-24 147,-24 147,-54"/>
<text text-anchor="start" x="8" y="-42" font-family="Helvetica,sans-Serif" font-size="10.00">MeltPoolDG::OperatorBase</text>
<text text-anchor="middle" x="73.5" y="-31" font-family="Helvetica,sans-Serif" font-size="10.00">&lt; number &gt;</text>
</a>
</g>
</g>
<!-- Node3&#45;&gt;Node2 -->
<g id="edge2_Node000002_Node000003" class="edge">
<title>Node3&#45;&gt;Node2</title>
<g id="a_edge2_Node000002_Node000003"><a xlink:title=" ">
<path fill="none" stroke="#63b8ff" d="M157.08,-49.71C165.66,-50.83 174.35,-51.95 182.86,-53.06"/>
<polygon fill="#63b8ff" stroke="#63b8ff" points="157.45,-46.23 147.09,-48.42 156.55,-53.17 157.45,-46.23"/>
</a>
</g>
</g>
<!-- Node4 -->
<g id="Node000004" class="node">
<title>Node4</title>
<g id="a_Node000004"><a xlink:href="classMeltPoolDG_1_1OperatorMatrixBased.html" target="_top" xlink:title="Operator handling matrix&#45;based computations.">
<polygon fill="white" stroke="#666666" points="338,-30 183,-30 183,0 338,0 338,-30"/>
<text text-anchor="start" x="191" y="-18" font-family="Helvetica,sans-Serif" font-size="10.00">MeltPoolDG::OperatorMatrix</text>
<text text-anchor="middle" x="260.5" y="-7" font-family="Helvetica,sans-Serif" font-size="10.00">Based&lt; dim, number &gt;</text>
</a>
</g>
</g>
<!-- Node3&#45;&gt;Node4 -->
<g id="edge4_Node000004_Node000003" class="edge">
<title>Node3&#45;&gt;Node4</title>
<g id="a_edge4_Node000004_Node000003"><a xlink:title=" ">
<path fill="none" stroke="#63b8ff" d="M157.08,-28.29C165.66,-27.17 174.35,-26.05 182.86,-24.94"/>
<polygon fill="#63b8ff" stroke="#63b8ff" points="156.55,-24.83 147.09,-29.58 157.45,-31.77 156.55,-24.83"/>
</a>
</g>
</g>
<!-- Node4&#45;&gt;Node1 -->
<g id="edge3_Node000001_Node000004" class="edge">
<title>Node4&#45;&gt;Node1</title>
<g id="a_edge3_Node000001_Node000004"><a xlink:title=" ">
<path fill="none" stroke="#63b8ff" d="M348.3,-27.08C356.95,-28.28 365.59,-29.48 373.88,-30.64"/>
<polygon fill="#63b8ff" stroke="#63b8ff" points="348.55,-23.58 338.17,-25.67 347.59,-30.51 348.55,-23.58"/>
</a>
</g>
</g>
</g>
</svg>
