<?xml version="1.0" encoding="UTF-8" standalone="no"?>
<!DOCTYPE svg PUBLIC "-//W3C//DTD SVG 1.1//EN"
 "http://www.w3.org/Graphics/SVG/1.1/DTD/svg11.dtd">
<!-- Generated by graphviz version 2.43.0 (0)
 -->
<!-- Title: MeltPoolDG::LevelSet::NormalVectorOperation&lt; dim, number &gt; Pages: 1 -->
<svg width="463pt" height="205pt"
 viewBox="0.00 0.00 463.00 205.00" xmlns="http://www.w3.org/2000/svg" xmlns:xlink="http://www.w3.org/1999/xlink">
<g id="graph0" class="graph" transform="scale(1 1) rotate(0) translate(4 201)">
<title>MeltPoolDG::LevelSet::NormalVectorOperation&lt; dim, number &gt;</title>
<!-- Node1 -->
<g id="Node000001" class="node">
<title>Node1</title>
<g id="a_Node000001"><a xlink:title=" ">
<polygon fill="#999999" stroke="#666666" points="455,-119 318,-119 318,-78 455,-78 455,-119"/>
<text text-anchor="start" x="326" y="-107" font-family="Helvetica,sans-Serif" font-size="10.00">MeltPoolDG::LevelSet</text>
<text text-anchor="start" x="326" y="-96" font-family="Helvetica,sans-Serif" font-size="10.00">::NormalVectorOperation</text>
<text text-anchor="middle" x="386.5" y="-85" font-family="Helvetica,sans-Serif" font-size="10.00">&lt; dim, number &gt;</text>
</a>
</g>
</g>
<!-- Node2 -->
<g id="Node000002" class="node">
<title>Node2</title>
<g id="a_Node000002"><a xlink:href="classMeltPoolDG_1_1LevelSet_1_1NormalVectorOperationBase.html" target="_top" xlink:title=" ">
<polygon fill="white" stroke="#666666" points="180.5,-197 19.5,-197 19.5,-156 180.5,-156 180.5,-197"/>
<text text-anchor="start" x="27.5" y="-185" font-family="Helvetica,sans-Serif" font-size="10.00">MeltPoolDG::LevelSet</text>
<text text-anchor="start" x="27.5" y="-174" font-family="Helvetica,sans-Serif" font-size="10.00">::NormalVectorOperationBase</text>
<text text-anchor="middle" x="100" y="-163" font-family="Helvetica,sans-Serif" font-size="10.00">&lt; dim, number &gt;</text>
</a>
</g>
</g>
<!-- Node2&#45;&gt;Node1 -->
<g id="edge1_Node000001_Node000002" class="edge">
<title>Node2&#45;&gt;Node1</title>
<g id="a_edge1_Node000001_Node000002"><a xlink:title=" ">
<path fill="none" stroke="#63b8ff" d="M190.76,-155.37C225.08,-146.92 264.49,-136.76 300,-126.5 307.95,-124.2 316.28,-121.65 324.48,-119.06"/>
<polygon fill="#63b8ff" stroke="#63b8ff" points="189.63,-152.04 180.75,-157.82 191.29,-158.84 189.63,-152.04"/>
</a>
</g>
</g>
<!-- Node3 -->
<g id="Node000003" class="node">
<title>Node3</title>
<g id="a_Node000003"><a xlink:href="classMeltPoolDG_1_1ScratchData.html" target="_top" xlink:title=" ">
<polygon fill="white" stroke="#666666" points="170,-137.5 30,-137.5 30,-107.5 170,-107.5 170,-137.5"/>
<text text-anchor="start" x="38" y="-125.5" font-family="Helvetica,sans-Serif" font-size="10.00">MeltPoolDG::ScratchData</text>
<text text-anchor="middle" x="100" y="-114.5" font-family="Helvetica,sans-Serif" font-size="10.00">&lt; dim, dim, number &gt;</text>
</a>
</g>
</g>
<!-- Node3&#45;&gt;Node1 -->
<g id="edge2_Node000001_Node000003" class="edge">
<title>Node3&#45;&gt;Node1</title>
<g id="a_edge2_Node000001_Node000003"><a xlink:title=" ">
<path fill="none" stroke="#9a32cd" stroke-dasharray="5,2" d="M180.44,-115.8C223.7,-112.15 276.66,-107.68 317.92,-104.2"/>
<polygon fill="#9a32cd" stroke="#9a32cd" points="179.9,-112.33 170.23,-116.66 180.49,-119.31 179.9,-112.33"/>
</a>
</g>
<text text-anchor="middle" x="259" y="-114.5" font-family="Helvetica,sans-Serif" font-size="10.00" fill="grey"> scratch_data</text>
</g>
<!-- Node4 -->
<g id="Node000004" class="node">
<title>Node4</title>
<g id="a_Node000004"><a xlink:href="classMeltPoolDG_1_1TimeIntegration_1_1SolutionHistory.html" target="_top" xlink:title=" ">
<polygon fill="white" stroke="#666666" points="200,-89.5 0,-89.5 0,-59.5 200,-59.5 200,-89.5"/>
<text text-anchor="start" x="8" y="-77.5" font-family="Helvetica,sans-Serif" font-size="10.00">MeltPoolDG::TimeIntegration</text>
<text text-anchor="middle" x="100" y="-66.5" font-family="Helvetica,sans-Serif" font-size="10.00">::SolutionHistory&lt; BlockVectorType &gt;</text>
</a>
</g>
</g>
<!-- Node4&#45;&gt;Node1 -->
<g id="edge3_Node000001_Node000004" class="edge">
<title>Node4&#45;&gt;Node1</title>
<g id="a_edge3_Node000001_Node000004"><a xlink:title=" ">
<path fill="none" stroke="#9a32cd" stroke-dasharray="5,2" d="M210.41,-83.04C239.53,-85.38 270.97,-87.97 300,-90.5 305.79,-91 311.8,-91.54 317.83,-92.09"/>
<polygon fill="#9a32cd" stroke="#9a32cd" points="210.47,-79.53 200.22,-82.22 209.91,-86.51 210.47,-79.53"/>
</a>
</g>
<text text-anchor="middle" x="259" y="-93.5" font-family="Helvetica,sans-Serif" font-size="10.00" fill="grey"> solution_history</text>
</g>
<!-- Node5 -->
<g id="Node000005" class="node">
<title>Node5</title>
<g id="a_Node000005"><a xlink:href="classMeltPoolDG_1_1Preconditioner.html" target="_top" xlink:title=" ">
<polygon fill="white" stroke="#666666" points="175.5,-41 24.5,-41 24.5,0 175.5,0 175.5,-41"/>
<text text-anchor="start" x="32.5" y="-29" font-family="Helvetica,sans-Serif" font-size="10.00">MeltPoolDG::Preconditioner</text>
<text text-anchor="start" x="32.5" y="-18" font-family="Helvetica,sans-Serif" font-size="10.00">&lt; dim, BlockVectorType,</text>
<text text-anchor="middle" x="100" y="-7" font-family="Helvetica,sans-Serif" font-size="10.00"> number &gt;</text>
</a>
</g>
</g>
<!-- Node5&#45;&gt;Node1 -->
<g id="edge4_Node000001_Node000005" class="edge">
<title>Node5&#45;&gt;Node1</title>
<g id="a_edge4_Node000001_Node000005"><a xlink:title=" ">
<path fill="none" stroke="#9a32cd" stroke-dasharray="5,2" d="M185.52,-38.9C221.08,-47.16 262.77,-57.51 300,-68.5 309.66,-71.35 319.83,-74.65 329.65,-78"/>
<polygon fill="#9a32cd" stroke="#9a32cd" points="186.19,-35.47 175.66,-36.63 184.61,-42.29 186.19,-35.47"/>
</a>
</g>
<text text-anchor="middle" x="259" y="-71.5" font-family="Helvetica,sans-Serif" font-size="10.00" fill="grey"> preconditioner</text>
</g>
</g>
</svg>
