<?xml version="1.0" encoding="UTF-8" standalone="no"?>
<!DOCTYPE svg PUBLIC "-//W3C//DTD SVG 1.1//EN"
 "http://www.w3.org/Graphics/SVG/1.1/DTD/svg11.dtd">
<!-- Generated by graphviz version 2.43.0 (0)
 -->
<!-- Title: MeltPoolDG::Heat::LaserHeatSourceProjectionBased&lt; dim, number &gt; Pages: 1 -->
<svg width="666pt" height="86pt"
 viewBox="0.00 0.00 666.00 86.00" xmlns="http://www.w3.org/2000/svg" xmlns:xlink="http://www.w3.org/1999/xlink">
<g id="graph0" class="graph" transform="scale(1 1) rotate(0) translate(4 82)">
<title>MeltPoolDG::Heat::LaserHeatSourceProjectionBased&lt; dim, number &gt;</title>
<!-- Node1 -->
<g id="Node000001" class="node">
<title>Node1</title>
<g id="a_Node000001"><a xlink:title=" ">
<polygon fill="#999999" stroke="#666666" points="658,-59.5 497,-59.5 497,-18.5 658,-18.5 658,-59.5"/>
<text text-anchor="start" x="505" y="-47.5" font-family="Helvetica,sans-Serif" font-size="10.00">MeltPoolDG::Heat::LaserHeat</text>
<text text-anchor="start" x="505" y="-36.5" font-family="Helvetica,sans-Serif" font-size="10.00">SourceProjectionBased&lt; dim,</text>
<text text-anchor="middle" x="577.5" y="-25.5" font-family="Helvetica,sans-Serif" font-size="10.00"> number &gt;</text>
</a>
</g>
</g>
<!-- Node2 -->
<g id="Node000002" class="node">
<title>Node2</title>
<g id="a_Node000002"><a xlink:href="structMeltPoolDG_1_1Heat_1_1LaserData.html" target="_top" xlink:title=" ">
<polygon fill="white" stroke="#666666" points="406,-54 247,-54 247,-24 406,-24 406,-54"/>
<text text-anchor="start" x="255" y="-42" font-family="Helvetica,sans-Serif" font-size="10.00">MeltPoolDG::Heat::LaserData</text>
<text text-anchor="middle" x="326.5" y="-31" font-family="Helvetica,sans-Serif" font-size="10.00">&lt; number &gt;</text>
</a>
</g>
</g>
<!-- Node2&#45;&gt;Node1 -->
<g id="edge1_Node000001_Node000002" class="edge">
<title>Node2&#45;&gt;Node1</title>
<g id="a_edge1_Node000001_Node000002"><a xlink:title=" ">
<path fill="none" stroke="#9a32cd" stroke-dasharray="5,2" d="M416.6,-39C442.83,-39 471.35,-39 496.94,-39"/>
<polygon fill="#9a32cd" stroke="#9a32cd" points="416.29,-35.5 406.29,-39 416.29,-42.5 416.29,-35.5"/>
</a>
</g>
<text text-anchor="middle" x="451.5" y="-42" font-family="Helvetica,sans-Serif" font-size="10.00" fill="grey"> laser_data</text>
</g>
<!-- Node3 -->
<g id="Node000003" class="node">
<title>Node3</title>
<g id="a_Node000003"><a xlink:href="structMeltPoolDG_1_1Heat_1_1LaserData_1_1GusarovData.html" target="_top" xlink:title=" ">
<polygon fill="white" stroke="#666666" points="159,-78 0,-78 0,-48 159,-48 159,-78"/>
<text text-anchor="start" x="8" y="-66" font-family="Helvetica,sans-Serif" font-size="10.00">MeltPoolDG::Heat::LaserData</text>
<text text-anchor="middle" x="79.5" y="-55" font-family="Helvetica,sans-Serif" font-size="10.00">&lt; number &gt;::GusarovData</text>
</a>
</g>
</g>
<!-- Node3&#45;&gt;Node2 -->
<g id="edge2_Node000002_Node000003" class="edge">
<title>Node3&#45;&gt;Node2</title>
<g id="a_edge2_Node000002_Node000003"><a xlink:title=" ">
<path fill="none" stroke="#9a32cd" stroke-dasharray="5,2" d="M169.06,-54.33C194.54,-51.83 222.16,-49.12 246.99,-46.69"/>
<polygon fill="#9a32cd" stroke="#9a32cd" points="168.64,-50.85 159.03,-55.31 169.32,-57.82 168.64,-50.85"/>
</a>
</g>
<text text-anchor="middle" x="203" y="-56" font-family="Helvetica,sans-Serif" font-size="10.00" fill="grey"> gusarov</text>
</g>
<!-- Node4 -->
<g id="Node000004" class="node">
<title>Node4</title>
<g id="a_Node000004"><a xlink:href="structMeltPoolDG_1_1Heat_1_1LaserData_1_1AnalyticalData.html" target="_top" xlink:title=" ">
<polygon fill="white" stroke="#666666" points="159,-30 0,-30 0,0 159,0 159,-30"/>
<text text-anchor="start" x="8" y="-18" font-family="Helvetica,sans-Serif" font-size="10.00">MeltPoolDG::Heat::LaserData</text>
<text text-anchor="middle" x="79.5" y="-7" font-family="Helvetica,sans-Serif" font-size="10.00">&lt; number &gt;::AnalyticalData</text>
</a>
</g>
</g>
<!-- Node4&#45;&gt;Node2 -->
<g id="edge3_Node000002_Node000004" class="edge">
<title>Node4&#45;&gt;Node2</title>
<g id="a_edge3_Node000002_Node000004"><a xlink:title=" ">
<path fill="none" stroke="#9a32cd" stroke-dasharray="5,2" d="M169.06,-23.67C194.54,-26.17 222.16,-28.88 246.99,-31.31"/>
<polygon fill="#9a32cd" stroke="#9a32cd" points="169.32,-20.18 159.03,-22.69 168.64,-27.15 169.32,-20.18"/>
</a>
</g>
<text text-anchor="middle" x="203" y="-32" font-family="Helvetica,sans-Serif" font-size="10.00" fill="grey"> analytical</text>
</g>
</g>
</svg>
