<?xml version="1.0" encoding="UTF-8" standalone="no"?>
<!DOCTYPE svg PUBLIC "-//W3C//DTD SVG 1.1//EN"
 "http://www.w3.org/Graphics/SVG/1.1/DTD/svg11.dtd">
<!-- Generated by graphviz version 2.43.0 (0)
 -->
<!-- Title: include/meltpooldg/compressible_flow/material_data.hpp Pages: 1 -->
<!--zoomable 588 -->

<svg id="main" version="1.1" xmlns="http://www.w3.org/2000/svg" xmlns:xlink="http://www.w3.org/1999/xlink" xml:space="preserve" onload="init(evt)">
<style type="text/css"><![CDATA[
.node, .edge {opacity: 0.7;}
.node.selected, .edge.selected {opacity: 1;}
.edge:hover path { stroke: red; }
.edge:hover polygon { stroke: red; fill: red; }
]]></style>

<defs>
  <circle id="rim" cx="0" cy="0" r="7"/>
  <circle id="rim2" cx="0" cy="0" r="3.5"/>
  <g id="zoomPlus">
    <use xlink:href="#rim" fill="#404040"><set attributeName="fill" to="#808080" begin="zoomplus.mouseover" end="zoomplus.mouseout"/></use>
    <path d="M-4,0h8M0,-4v8" fill="none" stroke="white" stroke-width="1.5" pointer-events="none"/>
  </g>
  <g id="zoomMin">
    <use xlink:href="#rim" fill="#404040"><set attributeName="fill" to="#808080" begin="zoomminus.mouseover" end="zoomminus.mouseout"/></use>
    <path d="M-4,0h8" fill="none" stroke="white" stroke-width="1.5" pointer-events="none"/>
  </g>
  <g id="arrowUp" transform="translate(30 24)">
    <use xlink:href="#rim"/>
    <path pointer-events="none" fill="none" stroke="white" stroke-width="1.5" d="M0,-3.0v7 M-2.5,-0.5L0,-3.0L2.5,-0.5"/>
  </g>
  <g id="arrowRight" transform="rotate(90) translate(36 -43)">
    <use xlink:href="#rim"/>
    <path pointer-events="none" fill="none" stroke="white" stroke-width="1.5" d="M0,-3.0v7 M-2.5,-0.5L0,-3.0L2.5,-0.5"/>
  </g>
  <g id="arrowDown" transform="rotate(180) translate(-30 -48)">
    <use xlink:href="#rim"/>
    <path pointer-events="none" fill="none" stroke="white" stroke-width="1.5" d="M0,-3.0v7 M-2.5,-0.5L0,-3.0L2.5,-0.5"/>
  </g>
  <g id="arrowLeft" transform="rotate(270) translate(-36 17)">
    <use xlink:href="#rim"/>
    <path pointer-events="none" fill="none" stroke="white" stroke-width="1.5" d="M0,-3.0v7 M-2.5,-0.5L0,-3.0L2.5,-0.5"/>
  </g>
  <g id="resetDef">
    <use xlink:href="#rim2" fill="#404040"><set attributeName="fill" to="#808080" begin="reset.mouseover" end="reset.mouseout"/></use>
  </g>
</defs>
<script type="application/ecmascript">
var viewWidth = 1995;
var viewHeight = 588;
var sectionId = 'dynsection-1';
</script>
<script type="application/ecmascript" xlink:href="svg.min.js"/>
<svg id="graph" class="graph">
<g id="viewport">
<title>include/meltpooldg/compressible_flow/material_data.hpp</title>
<!-- Node1 -->
<g id="Node000001" class="node">
<title>Node1</title>
<g id="a_Node000001"><a xlink:title=" ">
<polygon fill="#999999" stroke="#666666" points="1046.76,-580 891.76,-580 891.76,-539 1046.76,-539 1046.76,-580"/>
<text text-anchor="start" x="899.76" y="-568" font-family="Helvetica,sans-Serif" font-size="10.00">include/meltpooldg</text>
<text text-anchor="start" x="899.76" y="-557" font-family="Helvetica,sans-Serif" font-size="10.00">/compressible_flow/material</text>
<text text-anchor="middle" x="969.26" y="-546" font-family="Helvetica,sans-Serif" font-size="10.00">_data.hpp</text>
</a>
</g>
</g>
<!-- Node2 -->
<g id="Node000002" class="node">
<title>Node2</title>
<g id="a_Node000002"><a xlink:href="compressible__flow_2boundary__conditions_8hpp.html" target="_top" xlink:title=" ">
<polygon fill="white" stroke="#666666" points="475.76,-497.5 316.76,-497.5 316.76,-456.5 475.76,-456.5 475.76,-497.5"/>
<text text-anchor="start" x="324.76" y="-485.5" font-family="Helvetica,sans-Serif" font-size="10.00">include/meltpooldg</text>
<text text-anchor="start" x="324.76" y="-474.5" font-family="Helvetica,sans-Serif" font-size="10.00">/compressible_flow/boundary</text>
<text text-anchor="middle" x="396.26" y="-463.5" font-family="Helvetica,sans-Serif" font-size="10.00">_conditions.hpp</text>
</a>
</g>
</g>
<!-- Node1&#45;&gt;Node2 -->
<g id="edge1_Node000001_Node000002" class="edge">
<title>Node1&#45;&gt;Node2</title>
<g id="a_edge1_Node000001_Node000002"><a xlink:title=" ">
<path fill="none" stroke="#63b8ff" d="M881.56,-546.18C770.99,-530.65 582.51,-504.17 475.9,-489.19"/>
<polygon fill="#63b8ff" stroke="#63b8ff" points="881.29,-549.68 891.68,-547.6 882.27,-542.74 881.29,-549.68"/>
</a>
</g>
</g>
<!-- Node12 -->
<g id="Node000012" class="node">
<title>Node12</title>
<g id="a_Node000012"><a xlink:href="operation__scratch__data_8hpp.html" target="_top" xlink:title=" ">
<polygon fill="white" stroke="#666666" points="1516.26,-415 1356.26,-415 1356.26,-374 1516.26,-374 1516.26,-415"/>
<text text-anchor="start" x="1364.26" y="-403" font-family="Helvetica,sans-Serif" font-size="10.00">include/meltpooldg</text>
<text text-anchor="start" x="1364.26" y="-392" font-family="Helvetica,sans-Serif" font-size="10.00">/compressible_flow/operation</text>
<text text-anchor="middle" x="1436.26" y="-381" font-family="Helvetica,sans-Serif" font-size="10.00">_scratch_data.hpp</text>
</a>
</g>
</g>
<!-- Node1&#45;&gt;Node12 -->
<g id="edge56_Node000001_Node000012" class="edge">
<title>Node1&#45;&gt;Node12</title>
<g id="a_edge56_Node000001_Node000012"><a xlink:title=" ">
<path fill="none" stroke="#63b8ff" d="M965.73,-528.46C964.67,-504.04 967.67,-470.55 988.26,-451 1014.4,-426.18 1234.4,-408.36 1356.08,-400.31"/>
<polygon fill="#63b8ff" stroke="#63b8ff" points="962.25,-528.88 966.42,-538.62 969.23,-528.41 962.25,-528.88"/>
</a>
</g>
</g>
<!-- Node29 -->
<g id="Node000029" class="node">
<title>Node29</title>
<g id="a_Node000029"><a xlink:href="fluid__structure__interaction__factory_8hpp.html" target="_top" xlink:title=" ">
<polygon fill="white" stroke="#666666" points="1144.76,-503 997.76,-503 997.76,-451 1144.76,-451 1144.76,-503"/>
<text text-anchor="start" x="1005.76" y="-491" font-family="Helvetica,sans-Serif" font-size="10.00">include/meltpooldg</text>
<text text-anchor="start" x="1005.76" y="-480" font-family="Helvetica,sans-Serif" font-size="10.00">/fluid_structure_interaction</text>
<text text-anchor="start" x="1005.76" y="-469" font-family="Helvetica,sans-Serif" font-size="10.00">/fluid_structure_interaction</text>
<text text-anchor="middle" x="1071.26" y="-458" font-family="Helvetica,sans-Serif" font-size="10.00">_factory.hpp</text>
</a>
</g>
</g>
<!-- Node1&#45;&gt;Node29 -->
<g id="edge57_Node000001_Node000029" class="edge">
<title>Node1&#45;&gt;Node29</title>
<g id="a_edge57_Node000001_Node000029"><a xlink:title=" ">
<path fill="none" stroke="#63b8ff" d="M1002.16,-532.54C1014.04,-523.16 1027.42,-512.59 1039.23,-503.28"/>
<polygon fill="#63b8ff" stroke="#63b8ff" points="999.89,-529.86 994.21,-538.81 1004.23,-535.36 999.89,-529.86"/>
</a>
</g>
</g>
<!-- Node3 -->
<g id="Node000003" class="node">
<title>Node3</title>
<g id="a_Node000003"><a xlink:href="boundary__condition__functions_8hpp.html" target="_top" xlink:title=" ">
<polygon fill="white" stroke="#666666" points="276.76,-415 117.76,-415 117.76,-374 276.76,-374 276.76,-415"/>
<text text-anchor="start" x="125.76" y="-403" font-family="Helvetica,sans-Serif" font-size="10.00">include/meltpooldg</text>
<text text-anchor="start" x="125.76" y="-392" font-family="Helvetica,sans-Serif" font-size="10.00">/compressible_flow/boundary</text>
<text text-anchor="middle" x="197.26" y="-381" font-family="Helvetica,sans-Serif" font-size="10.00">_condition_functions.hpp</text>
</a>
</g>
</g>
<!-- Node2&#45;&gt;Node3 -->
<g id="edge2_Node000002_Node000003" class="edge">
<title>Node2&#45;&gt;Node3</title>
<g id="a_edge2_Node000002_Node000003"><a xlink:title=" ">
<path fill="none" stroke="#63b8ff" d="M338.49,-452.63C309.01,-440.71 273.56,-426.37 245.56,-415.04"/>
<polygon fill="#63b8ff" stroke="#63b8ff" points="337.25,-455.9 347.83,-456.41 339.87,-449.42 337.25,-455.9"/>
</a>
</g>
</g>
<!-- Node4 -->
<g id="Node000004" class="node">
<title>Node4</title>
<g id="a_Node000004"><a xlink:href="case__utils_8hpp.html" target="_top" xlink:title=" ">
<polygon fill="white" stroke="#666666" points="315.26,-338 179.26,-338 179.26,-297 315.26,-297 315.26,-338"/>
<text text-anchor="start" x="187.26" y="-326" font-family="Helvetica,sans-Serif" font-size="10.00">include/meltpooldg</text>
<text text-anchor="start" x="187.26" y="-315" font-family="Helvetica,sans-Serif" font-size="10.00">/compressible_flow/case</text>
<text text-anchor="middle" x="247.26" y="-304" font-family="Helvetica,sans-Serif" font-size="10.00">_utils.hpp</text>
</a>
</g>
</g>
<!-- Node2&#45;&gt;Node4 -->
<g id="edge9_Node000002_Node000004" class="edge">
<title>Node2&#45;&gt;Node4</title>
<g id="a_edge9_Node000002_Node000004"><a xlink:title=" ">
<path fill="none" stroke="#63b8ff" d="M365.28,-449.86C353.36,-439.38 339.84,-426.97 328.26,-415 303.77,-389.69 278.05,-358.05 262.33,-338.05"/>
<polygon fill="#63b8ff" stroke="#63b8ff" points="363,-452.52 372.85,-456.44 367.6,-447.24 363,-452.52"/>
</a>
</g>
</g>
<!-- Node5 -->
<g id="Node000005" class="node">
<title>Node5</title>
<g id="a_Node000005"><a xlink:href="case__utils_8cpp.html" target="_top" xlink:title=" ">
<polygon fill="white" stroke="#666666" points="177.76,-255.5 60.76,-255.5 60.76,-225.5 177.76,-225.5 177.76,-255.5"/>
<text text-anchor="start" x="68.76" y="-243.5" font-family="Helvetica,sans-Serif" font-size="10.00">source/compressible</text>
<text text-anchor="middle" x="119.26" y="-232.5" font-family="Helvetica,sans-Serif" font-size="10.00">_flow/case_utils.cpp</text>
</a>
</g>
</g>
<!-- Node2&#45;&gt;Node5 -->
<g id="edge55_Node000002_Node000005" class="edge">
<title>Node2&#45;&gt;Node5</title>
<g id="a_edge55_Node000002_Node000005"><a xlink:title=" ">
<path fill="none" stroke="#63b8ff" d="M306.3,-472.32C241.75,-466.44 154.48,-451.66 86.26,-415 31.31,-385.47 -22.34,-350.18 10.26,-297 22.52,-276.99 44.51,-263.92 65.54,-255.52"/>
<polygon fill="#63b8ff" stroke="#63b8ff" points="306.2,-475.82 316.46,-473.19 306.8,-468.85 306.2,-475.82"/>
</a>
</g>
</g>
<!-- Node6 -->
<g id="Node000006" class="node">
<title>Node6</title>
<g id="a_Node000006"><a xlink:href="boundary__condition__functions_8cpp.html" target="_top" xlink:title=" ">
<polygon fill="white" stroke="#666666" points="160.76,-338 19.76,-338 19.76,-297 160.76,-297 160.76,-338"/>
<text text-anchor="start" x="27.76" y="-326" font-family="Helvetica,sans-Serif" font-size="10.00">source/compressible</text>
<text text-anchor="start" x="27.76" y="-315" font-family="Helvetica,sans-Serif" font-size="10.00">_flow/boundary_condition</text>
<text text-anchor="middle" x="90.26" y="-304" font-family="Helvetica,sans-Serif" font-size="10.00">_functions.cpp</text>
</a>
</g>
</g>
<!-- Node2&#45;&gt;Node6 -->
<g id="edge53_Node000002_Node000006" class="edge">
<title>Node2&#45;&gt;Node6</title>
<g id="a_edge53_Node000002_Node000006"><a xlink:title=" ">
<path fill="none" stroke="#63b8ff" d="M306.2,-467.8C232.26,-459.16 135.45,-442.86 108.26,-415 88.5,-394.75 86.8,-360.19 88.04,-338.39"/>
<polygon fill="#63b8ff" stroke="#63b8ff" points="306.15,-471.31 316.48,-468.97 306.94,-464.36 306.15,-471.31"/>
</a>
</g>
</g>
<!-- Node7 -->
<g id="Node000007" class="node">
<title>Node7</title>
<g id="a_Node000007"><a xlink:href="boundary__conditions_8templates_8hpp.html" target="_top" xlink:title=" ">
<polygon fill="white" stroke="#666666" points="753.76,-261 594.76,-261 594.76,-220 753.76,-220 753.76,-261"/>
<text text-anchor="start" x="602.76" y="-249" font-family="Helvetica,sans-Serif" font-size="10.00">include/meltpooldg</text>
<text text-anchor="start" x="602.76" y="-238" font-family="Helvetica,sans-Serif" font-size="10.00">/compressible_flow/boundary</text>
<text text-anchor="middle" x="674.26" y="-227" font-family="Helvetica,sans-Serif" font-size="10.00">_conditions.templates.hpp</text>
</a>
</g>
</g>
<!-- Node2&#45;&gt;Node7 -->
<g id="edge6_Node000002_Node000007" class="edge">
<title>Node2&#45;&gt;Node7</title>
<g id="a_edge6_Node000002_Node000007"><a xlink:title=" ">
<path fill="none" stroke="#63b8ff" d="M486.12,-471.83C572.59,-465.72 694.48,-450.83 724.26,-415 762.33,-369.2 716.35,-295.81 690.11,-261.02"/>
<polygon fill="#63b8ff" stroke="#63b8ff" points="485.77,-468.35 476.03,-472.52 486.24,-475.33 485.77,-468.35"/>
</a>
</g>
</g>
<!-- Node10 -->
<g id="Node000010" class="node">
<title>Node10</title>
<g id="a_Node000010"><a xlink:href="multiphase__operation_8hpp.html" target="_top" xlink:title=" ">
<polygon fill="white" stroke="#666666" points="775.26,-184 607.26,-184 607.26,-143 775.26,-143 775.26,-184"/>
<text text-anchor="start" x="615.26" y="-172" font-family="Helvetica,sans-Serif" font-size="10.00">include/meltpooldg</text>
<text text-anchor="start" x="615.26" y="-161" font-family="Helvetica,sans-Serif" font-size="10.00">/compressible_flow/multiphase</text>
<text text-anchor="middle" x="691.26" y="-150" font-family="Helvetica,sans-Serif" font-size="10.00">_operation.hpp</text>
</a>
</g>
</g>
<!-- Node2&#45;&gt;Node10 -->
<g id="edge10_Node000002_Node000010" class="edge">
<title>Node2&#45;&gt;Node10</title>
<g id="a_edge10_Node000002_Node000010"><a xlink:title=" ">
<path fill="none" stroke="#63b8ff" d="M374.67,-447.99C361.26,-426.95 348.75,-397.78 361.26,-374 415.52,-270.85 545.51,-211.81 625.19,-184.12"/>
<polygon fill="#63b8ff" stroke="#63b8ff" points="371.91,-450.15 380.41,-456.48 377.71,-446.23 371.91,-450.15"/>
</a>
</g>
</g>
<!-- Node2&#45;&gt;Node12 -->
<g id="edge13_Node000002_Node000012" class="edge">
<title>Node2&#45;&gt;Node12</title>
<g id="a_edge13_Node000002_Node000012"><a xlink:title=" ">
<path fill="none" stroke="#63b8ff" d="M486.32,-469.03C686.47,-453.54 1165.55,-416.45 1356.11,-401.7"/>
<polygon fill="#63b8ff" stroke="#63b8ff" points="485.84,-465.56 476.14,-469.82 486.38,-472.53 485.84,-465.56"/>
</a>
</g>
</g>
<!-- Node27 -->
<g id="Node000027" class="node">
<title>Node27</title>
<g id="a_Node000027"><a xlink:href="operation__type__erasure_8hpp.html" target="_top" xlink:title=" ">
<polygon fill="white" stroke="#666666" points="530.26,-415 370.26,-415 370.26,-374 530.26,-374 530.26,-415"/>
<text text-anchor="start" x="378.26" y="-403" font-family="Helvetica,sans-Serif" font-size="10.00">include/meltpooldg</text>
<text text-anchor="start" x="378.26" y="-392" font-family="Helvetica,sans-Serif" font-size="10.00">/compressible_flow/operation</text>
<text text-anchor="middle" x="450.26" y="-381" font-family="Helvetica,sans-Serif" font-size="10.00">_type_erasure.hpp</text>
</a>
</g>
</g>
<!-- Node2&#45;&gt;Node27 -->
<g id="edge52_Node000002_Node000027" class="edge">
<title>Node2&#45;&gt;Node27</title>
<g id="a_edge52_Node000002_Node000027"><a xlink:title=" ">
<path fill="none" stroke="#63b8ff" d="M415.39,-447.48C422.56,-436.79 430.55,-424.88 437.06,-415.17"/>
<polygon fill="#63b8ff" stroke="#63b8ff" points="412.27,-445.85 409.61,-456.1 418.08,-449.75 412.27,-445.85"/>
</a>
</g>
</g>
<!-- Node28 -->
<g id="Node000028" class="node">
<title>Node28</title>
<g id="a_Node000028"><a xlink:href="compressible__flow_2boundary__conditions_8cpp.html" target="_top" xlink:title=" ">
<polygon fill="white" stroke="#666666" points="715.76,-409.5 548.76,-409.5 548.76,-379.5 715.76,-379.5 715.76,-409.5"/>
<text text-anchor="start" x="556.76" y="-397.5" font-family="Helvetica,sans-Serif" font-size="10.00">source/compressible</text>
<text text-anchor="middle" x="632.26" y="-386.5" font-family="Helvetica,sans-Serif" font-size="10.00">_flow/boundary_conditions.cpp</text>
</a>
</g>
</g>
<!-- Node2&#45;&gt;Node28 -->
<g id="edge54_Node000002_Node000028" class="edge">
<title>Node2&#45;&gt;Node28</title>
<g id="a_edge54_Node000002_Node000028"><a xlink:title=" ">
<path fill="none" stroke="#63b8ff" d="M463.36,-453.11C504.44,-439.1 555.71,-421.61 590.92,-409.6"/>
<polygon fill="#63b8ff" stroke="#63b8ff" points="462.02,-449.87 453.69,-456.41 464.28,-456.49 462.02,-449.87"/>
</a>
</g>
</g>
<!-- Node3&#45;&gt;Node4 -->
<g id="edge3_Node000003_Node000004" class="edge">
<title>Node3&#45;&gt;Node4</title>
<g id="a_edge3_Node000003_Node000004"><a xlink:title=" ">
<path fill="none" stroke="#63b8ff" d="M216,-365.39C222.06,-356.3 228.65,-346.41 234.21,-338.07"/>
<polygon fill="#63b8ff" stroke="#63b8ff" points="213.03,-363.53 210.39,-373.79 218.85,-367.42 213.03,-363.53"/>
</a>
</g>
</g>
<!-- Node3&#45;&gt;Node6 -->
<g id="edge5_Node000003_Node000006" class="edge">
<title>Node3&#45;&gt;Node6</title>
<g id="a_edge5_Node000003_Node000006"><a xlink:title=" ">
<path fill="none" stroke="#63b8ff" d="M161.01,-368.09C147.07,-358.32 131.38,-347.32 118.32,-338.17"/>
<polygon fill="#63b8ff" stroke="#63b8ff" points="159.23,-371.12 169.42,-373.99 163.24,-365.38 159.23,-371.12"/>
</a>
</g>
</g>
<!-- Node4&#45;&gt;Node5 -->
<g id="edge4_Node000004_Node000005" class="edge">
<title>Node4&#45;&gt;Node5</title>
<g id="a_edge4_Node000004_Node000005"><a xlink:title=" ">
<path fill="none" stroke="#63b8ff" d="M205.14,-291.82C184.69,-279.84 160.86,-265.87 143.49,-255.7"/>
<polygon fill="#63b8ff" stroke="#63b8ff" points="203.56,-294.95 213.96,-296.99 207.1,-288.92 203.56,-294.95"/>
</a>
</g>
</g>
<!-- Node8 -->
<g id="Node000008" class="node">
<title>Node8</title>
<g id="a_Node000008"><a xlink:href="cutdg__operation_8cpp.html" target="_top" xlink:title=" ">
<polygon fill="white" stroke="#666666" points="1606.26,-30 1462.26,-30 1462.26,0 1606.26,0 1606.26,-30"/>
<text text-anchor="start" x="1470.26" y="-18" font-family="Helvetica,sans-Serif" font-size="10.00">source/compressible</text>
<text text-anchor="middle" x="1534.26" y="-7" font-family="Helvetica,sans-Serif" font-size="10.00">_flow/cutdg_operation.cpp</text>
</a>
</g>
</g>
<!-- Node7&#45;&gt;Node8 -->
<g id="edge7_Node000007_Node000008" class="edge">
<title>Node7&#45;&gt;Node8</title>
<g id="a_edge7_Node000007_Node000008"><a xlink:title=" ">
<path fill="none" stroke="#63b8ff" d="M625.1,-214.01C614.32,-205.95 604.33,-195.96 598.26,-184 590,-167.75 589.29,-158.86 598.26,-143 630.93,-85.21 662.87,-85.73 726.26,-66 862.47,-23.61 1290.73,-17.01 1462.22,-16.09"/>
<polygon fill="#63b8ff" stroke="#63b8ff" points="623.22,-216.97 633.43,-219.8 627.22,-211.22 623.22,-216.97"/>
</a>
</g>
</g>
<!-- Node9 -->
<g id="Node000009" class="node">
<title>Node9</title>
<g id="a_Node000009"><a xlink:href="dg__operator__explicit_8cpp.html" target="_top" xlink:title=" ">
<polygon fill="white" stroke="#666666" points="1257.76,-178.5 1092.76,-178.5 1092.76,-148.5 1257.76,-148.5 1257.76,-178.5"/>
<text text-anchor="start" x="1100.76" y="-166.5" font-family="Helvetica,sans-Serif" font-size="10.00">source/compressible</text>
<text text-anchor="middle" x="1175.26" y="-155.5" font-family="Helvetica,sans-Serif" font-size="10.00">_flow/dg_operator_explicit.cpp</text>
</a>
</g>
</g>
<!-- Node7&#45;&gt;Node9 -->
<g id="edge8_Node000007_Node000009" class="edge">
<title>Node7&#45;&gt;Node9</title>
<g id="a_edge8_Node000007_Node000009"><a xlink:title=" ">
<path fill="none" stroke="#63b8ff" d="M763.85,-228.13C865.15,-215.14 1023.73,-194.33 1083.26,-184 1092.59,-182.38 1102.41,-180.49 1112.03,-178.54"/>
<polygon fill="#63b8ff" stroke="#63b8ff" points="763.4,-224.66 753.93,-229.4 764.29,-231.6 763.4,-224.66"/>
</a>
</g>
</g>
<!-- Node10&#45;&gt;Node10 -->
<g id="edge11_Node000010_Node000010" class="edge">
<title>Node10&#45;&gt;Node10</title>
<g id="a_edge11_Node000010_Node000010"><a xlink:title=" ">
<path fill="none" stroke="#63b8ff" d="M785.01,-173.05C790.18,-170.73 793.26,-167.54 793.26,-163.5 793.26,-157.34 786.11,-153.18 775.29,-151.01"/>
<polygon fill="#63b8ff" stroke="#63b8ff" points="783.85,-169.74 775.29,-175.99 785.88,-176.44 783.85,-169.74"/>
</a>
</g>
</g>
<!-- Node11 -->
<g id="Node000011" class="node">
<title>Node11</title>
<g id="a_Node000011"><a xlink:href="multiphase__operation_8cpp.html" target="_top" xlink:title=" ">
<polygon fill="white" stroke="#666666" points="907.26,-101.5 735.26,-101.5 735.26,-71.5 907.26,-71.5 907.26,-101.5"/>
<text text-anchor="start" x="743.26" y="-89.5" font-family="Helvetica,sans-Serif" font-size="10.00">source/compressible</text>
<text text-anchor="middle" x="821.26" y="-78.5" font-family="Helvetica,sans-Serif" font-size="10.00">_flow/multiphase_operation.cpp</text>
</a>
</g>
</g>
<!-- Node10&#45;&gt;Node11 -->
<g id="edge12_Node000010_Node000011" class="edge">
<title>Node10&#45;&gt;Node11</title>
<g id="a_edge12_Node000010_Node000011"><a xlink:title=" ">
<path fill="none" stroke="#63b8ff" d="M733.76,-137.98C754.58,-125.97 778.93,-111.92 796.64,-101.7"/>
<polygon fill="#63b8ff" stroke="#63b8ff" points="731.99,-134.96 725.07,-142.99 735.49,-141.02 731.99,-134.96"/>
</a>
</g>
</g>
<!-- Node12&#45;&gt;Node8 -->
<g id="edge44_Node000012_Node000008" class="edge">
<title>Node12&#45;&gt;Node8</title>
<g id="a_edge44_Node000012_Node000008"><a xlink:title=" ">
<path fill="none" stroke="#63b8ff" d="M1526.66,-390.6C1644.12,-385.52 1841.71,-372.07 1905.26,-338 1954.86,-311.41 1987.26,-297.78 1987.26,-241.5 1987.26,-241.5 1987.26,-241.5 1987.26,-162.5 1987.26,-95.09 1931.84,-93.41 1870.26,-66 1784.99,-28.06 1676.75,-17.92 1606.52,-15.71"/>
<polygon fill="#63b8ff" stroke="#63b8ff" points="1526.44,-387.11 1516.6,-391.03 1526.73,-394.1 1526.44,-387.11"/>
</a>
</g>
</g>
<!-- Node12&#45;&gt;Node9 -->
<g id="edge47_Node000012_Node000009" class="edge">
<title>Node12&#45;&gt;Node9</title>
<g id="a_edge47_Node000012_Node000009"><a xlink:title=" ">
<path fill="none" stroke="#63b8ff" d="M1345.97,-385.39C1266.4,-372.92 1154.9,-341.28 1100.26,-261 1090.01,-245.94 1092.06,-236.27 1100.26,-220 1109.52,-201.63 1128.05,-187.83 1144.37,-178.58"/>
<polygon fill="#63b8ff" stroke="#63b8ff" points="1345.59,-388.87 1356,-386.89 1346.62,-381.95 1345.59,-388.87"/>
</a>
</g>
</g>
<!-- Node12&#45;&gt;Node10 -->
<g id="edge43_Node000012_Node000010" class="edge">
<title>Node12&#45;&gt;Node10</title>
<g id="a_edge43_Node000012_Node000010"><a xlink:title=" ">
<path fill="none" stroke="#63b8ff" d="M1346.09,-390.87C1181.92,-385.32 847.18,-370.17 805.26,-338 760.98,-304.02 795.07,-265.16 762.26,-220 752.05,-205.95 737.35,-193.65 723.96,-184.22"/>
<polygon fill="#63b8ff" stroke="#63b8ff" points="1346.07,-394.37 1356.18,-391.21 1346.3,-387.38 1346.07,-394.37"/>
</a>
</g>
</g>
<!-- Node12&#45;&gt;Node11 -->
<g id="edge50_Node000012_Node000011" class="edge">
<title>Node12&#45;&gt;Node11</title>
<g id="a_edge50_Node000012_Node000011"><a xlink:title=" ">
<path fill="none" stroke="#63b8ff" d="M1345.9,-386.84C1194.9,-373.65 901.55,-338.49 838.26,-261 799.78,-213.88 811.24,-133.8 817.95,-101.56"/>
<polygon fill="#63b8ff" stroke="#63b8ff" points="1345.82,-390.35 1356.08,-387.72 1346.42,-383.38 1345.82,-390.35"/>
</a>
</g>
</g>
<!-- Node13 -->
<g id="Node000013" class="node">
<title>Node13</title>
<g id="a_Node000013"><a xlink:href="convective__kernels_8hpp.html" target="_top" xlink:title=" ">
<polygon fill="white" stroke="#666666" points="1519.76,-338 1352.76,-338 1352.76,-297 1519.76,-297 1519.76,-338"/>
<text text-anchor="start" x="1360.76" y="-326" font-family="Helvetica,sans-Serif" font-size="10.00">include/meltpooldg</text>
<text text-anchor="start" x="1360.76" y="-315" font-family="Helvetica,sans-Serif" font-size="10.00">/compressible_flow/convective</text>
<text text-anchor="middle" x="1436.26" y="-304" font-family="Helvetica,sans-Serif" font-size="10.00">_kernels.hpp</text>
</a>
</g>
</g>
<!-- Node12&#45;&gt;Node13 -->
<g id="edge14_Node000012_Node000013" class="edge">
<title>Node12&#45;&gt;Node13</title>
<g id="a_edge14_Node000012_Node000013"><a xlink:title=" ">
<path fill="none" stroke="#63b8ff" d="M1436.26,-363.69C1436.26,-355.08 1436.26,-345.9 1436.26,-338.07"/>
<polygon fill="#63b8ff" stroke="#63b8ff" points="1432.76,-363.79 1436.26,-373.79 1439.76,-363.79 1432.76,-363.79"/>
</a>
</g>
</g>
<!-- Node14 -->
<g id="Node000014" class="node">
<title>Node14</title>
<g id="a_Node000014"><a xlink:href="dg__operator__explicit_8hpp.html" target="_top" xlink:title=" ">
<polygon fill="white" stroke="#666666" points="1440.76,-261 1315.76,-261 1315.76,-220 1440.76,-220 1440.76,-261"/>
<text text-anchor="start" x="1323.76" y="-249" font-family="Helvetica,sans-Serif" font-size="10.00">include/meltpooldg</text>
<text text-anchor="start" x="1323.76" y="-238" font-family="Helvetica,sans-Serif" font-size="10.00">/compressible_flow/dg</text>
<text text-anchor="middle" x="1378.26" y="-227" font-family="Helvetica,sans-Serif" font-size="10.00">_operator_explicit.hpp</text>
</a>
</g>
</g>
<!-- Node12&#45;&gt;Node14 -->
<g id="edge40_Node000012_Node000014" class="edge">
<title>Node12&#45;&gt;Node14</title>
<g id="a_edge40_Node000012_Node000014"><a xlink:title=" ">
<path fill="none" stroke="#63b8ff" d="M1374.4,-368.81C1361.96,-360.89 1350.5,-350.75 1343.26,-338 1329.09,-313.05 1346.59,-281.31 1361.52,-261.2"/>
<polygon fill="#63b8ff" stroke="#63b8ff" points="1372.73,-371.9 1383.13,-373.96 1376.29,-365.86 1372.73,-371.9"/>
</a>
</g>
</g>
<!-- Node15 -->
<g id="Node000015" class="node">
<title>Node15</title>
<g id="a_Node000015"><a xlink:href="dg__operation_8cpp.html" target="_top" xlink:title=" ">
<polygon fill="white" stroke="#666666" points="1751.76,-178.5 1622.76,-178.5 1622.76,-148.5 1751.76,-148.5 1751.76,-178.5"/>
<text text-anchor="start" x="1630.76" y="-166.5" font-family="Helvetica,sans-Serif" font-size="10.00">source/compressible</text>
<text text-anchor="middle" x="1687.26" y="-155.5" font-family="Helvetica,sans-Serif" font-size="10.00">_flow/dg_operation.cpp</text>
</a>
</g>
</g>
<!-- Node12&#45;&gt;Node15 -->
<g id="edge46_Node000012_Node000015" class="edge">
<title>Node12&#45;&gt;Node15</title>
<g id="a_edge46_Node000012_Node000015"><a xlink:title=" ">
<path fill="none" stroke="#63b8ff" d="M1520.7,-370.22C1540.61,-362.15 1560.8,-351.59 1577.26,-338 1632.53,-292.35 1668.82,-211.43 1681.86,-178.76"/>
<polygon fill="#63b8ff" stroke="#63b8ff" points="1519.34,-366.99 1511.28,-373.87 1521.87,-373.52 1519.34,-366.99"/>
</a>
</g>
</g>
<!-- Node16 -->
<g id="Node000016" class="node">
<title>Node16</title>
<g id="a_Node000016"><a xlink:href="dg__operator__implicit_8hpp.html" target="_top" xlink:title=" ">
<polygon fill="white" stroke="#666666" points="1585.26,-261 1459.26,-261 1459.26,-220 1585.26,-220 1585.26,-261"/>
<text text-anchor="start" x="1467.26" y="-249" font-family="Helvetica,sans-Serif" font-size="10.00">include/meltpooldg</text>
<text text-anchor="start" x="1467.26" y="-238" font-family="Helvetica,sans-Serif" font-size="10.00">/compressible_flow/dg</text>
<text text-anchor="middle" x="1522.26" y="-227" font-family="Helvetica,sans-Serif" font-size="10.00">_operator_implicit.hpp</text>
</a>
</g>
</g>
<!-- Node12&#45;&gt;Node16 -->
<g id="edge41_Node000012_Node000016" class="edge">
<title>Node12&#45;&gt;Node16</title>
<g id="a_edge41_Node000012_Node000016"><a xlink:title=" ">
<path fill="none" stroke="#63b8ff" d="M1497.46,-368.69C1509.77,-360.77 1521.1,-350.67 1528.26,-338 1541.71,-314.17 1535.6,-281.57 1529.38,-261.02"/>
<polygon fill="#63b8ff" stroke="#63b8ff" points="1495.63,-365.71 1488.83,-373.83 1499.21,-371.73 1495.63,-365.71"/>
</a>
</g>
</g>
<!-- Node17 -->
<g id="Node000017" class="node">
<title>Node17</title>
<g id="a_Node000017"><a xlink:href="dg__operator__implicit_8cpp.html" target="_top" xlink:title=" ">
<polygon fill="white" stroke="#666666" points="1442.26,-178.5 1276.26,-178.5 1276.26,-148.5 1442.26,-148.5 1442.26,-178.5"/>
<text text-anchor="start" x="1284.26" y="-166.5" font-family="Helvetica,sans-Serif" font-size="10.00">source/compressible</text>
<text text-anchor="middle" x="1359.26" y="-155.5" font-family="Helvetica,sans-Serif" font-size="10.00">_flow/dg_operator_implicit.cpp</text>
</a>
</g>
</g>
<!-- Node12&#45;&gt;Node17 -->
<g id="edge48_Node000012_Node000017" class="edge">
<title>Node12&#45;&gt;Node17</title>
<g id="a_edge48_Node000012_Node000017"><a xlink:title=" ">
<path fill="none" stroke="#63b8ff" d="M1374.55,-369.16C1359.81,-361.03 1345.2,-350.72 1334.26,-338 1310.5,-310.4 1312.58,-296.86 1306.26,-261 1303.1,-243.05 1299.48,-236.91 1306.26,-220 1313,-203.18 1327.54,-188.57 1339.68,-178.57"/>
<polygon fill="#63b8ff" stroke="#63b8ff" points="1373.22,-372.42 1383.7,-373.94 1376.46,-366.21 1373.22,-372.42"/>
</a>
</g>
</g>
<!-- Node18 -->
<g id="Node000018" class="node">
<title>Node18</title>
<g id="a_Node000018"><a xlink:href="dg__operator__implicit__explicit_8hpp.html" target="_top" xlink:title=" ">
<polygon fill="white" stroke="#666666" points="1883.76,-261 1716.76,-261 1716.76,-220 1883.76,-220 1883.76,-261"/>
<text text-anchor="start" x="1724.76" y="-249" font-family="Helvetica,sans-Serif" font-size="10.00">include/meltpooldg</text>
<text text-anchor="start" x="1724.76" y="-238" font-family="Helvetica,sans-Serif" font-size="10.00">/compressible_flow/dg</text>
<text text-anchor="middle" x="1800.26" y="-227" font-family="Helvetica,sans-Serif" font-size="10.00">_operator_implicit_explicit.hpp</text>
</a>
</g>
</g>
<!-- Node12&#45;&gt;Node18 -->
<g id="edge42_Node000012_Node000018" class="edge">
<title>Node12&#45;&gt;Node18</title>
<g id="a_edge42_Node000012_Node000018"><a xlink:title=" ">
<path fill="none" stroke="#63b8ff" d="M1526.67,-393.28C1626.46,-390.89 1777.84,-380.16 1814.26,-338 1832.63,-316.73 1821.29,-282.47 1811.04,-261.01"/>
<polygon fill="#63b8ff" stroke="#63b8ff" points="1526.5,-389.78 1516.58,-393.5 1526.65,-396.78 1526.5,-389.78"/>
</a>
</g>
</g>
<!-- Node19 -->
<g id="Node000019" class="node">
<title>Node19</title>
<g id="a_Node000019"><a xlink:href="dg__operator__implicit__explicit_8cpp.html" target="_top" xlink:title=" ">
<polygon fill="white" stroke="#666666" points="1920.26,-184 1774.26,-184 1774.26,-143 1920.26,-143 1920.26,-184"/>
<text text-anchor="start" x="1782.26" y="-172" font-family="Helvetica,sans-Serif" font-size="10.00">source/compressible</text>
<text text-anchor="start" x="1782.26" y="-161" font-family="Helvetica,sans-Serif" font-size="10.00">_flow/dg_operator_implicit</text>
<text text-anchor="middle" x="1847.26" y="-150" font-family="Helvetica,sans-Serif" font-size="10.00">_explicit.cpp</text>
</a>
</g>
</g>
<!-- Node12&#45;&gt;Node19 -->
<g id="edge49_Node000012_Node000019" class="edge">
<title>Node12&#45;&gt;Node19</title>
<g id="a_edge49_Node000012_Node000019"><a xlink:title=" ">
<path fill="none" stroke="#63b8ff" d="M1526.56,-388.6C1626.96,-381.82 1781.66,-366.97 1832.26,-338 1870.15,-316.31 1878.9,-302.23 1893.26,-261 1899.25,-243.79 1899.44,-237.14 1893.26,-220 1888.38,-206.46 1878.6,-193.89 1869.31,-184.14"/>
<polygon fill="#63b8ff" stroke="#63b8ff" points="1526.16,-385.12 1516.42,-389.27 1526.63,-392.11 1526.16,-385.12"/>
</a>
</g>
</g>
<!-- Node21 -->
<g id="Node000021" class="node">
<title>Node21</title>
<g id="a_Node000021"><a xlink:href="cutdg__operator_8hpp.html" target="_top" xlink:title=" ">
<polygon fill="white" stroke="#666666" points="1604.26,-184 1464.26,-184 1464.26,-143 1604.26,-143 1604.26,-184"/>
<text text-anchor="start" x="1472.26" y="-172" font-family="Helvetica,sans-Serif" font-size="10.00">include/meltpooldg</text>
<text text-anchor="start" x="1472.26" y="-161" font-family="Helvetica,sans-Serif" font-size="10.00">/compressible_flow/cutdg</text>
<text text-anchor="middle" x="1534.26" y="-150" font-family="Helvetica,sans-Serif" font-size="10.00">_operator.hpp</text>
</a>
</g>
</g>
<!-- Node12&#45;&gt;Node21 -->
<g id="edge37_Node000012_Node000021" class="edge">
<title>Node12&#45;&gt;Node21</title>
<g id="a_edge37_Node000012_Node000021"><a xlink:title=" ">
<path fill="none" stroke="#63b8ff" d="M1498.39,-369.5C1515.12,-361.16 1532.4,-350.66 1546.26,-338 1576.03,-310.8 1583.16,-299.77 1594.26,-261 1599.27,-243.48 1601.56,-236.7 1594.26,-220 1588.01,-205.7 1576.05,-193.44 1564.44,-184.11"/>
<polygon fill="#63b8ff" stroke="#63b8ff" points="1496.69,-366.43 1489.18,-373.91 1499.71,-372.75 1496.69,-366.43"/>
</a>
</g>
</g>
<!-- Node23 -->
<g id="Node000023" class="node">
<title>Node23</title>
<g id="a_Node000023"><a xlink:href="cutdg__operator_8cpp.html" target="_top" xlink:title=" ">
<polygon fill="white" stroke="#666666" points="1861.26,-101.5 1723.26,-101.5 1723.26,-71.5 1861.26,-71.5 1861.26,-101.5"/>
<text text-anchor="start" x="1731.26" y="-89.5" font-family="Helvetica,sans-Serif" font-size="10.00">source/compressible</text>
<text text-anchor="middle" x="1792.26" y="-78.5" font-family="Helvetica,sans-Serif" font-size="10.00">_flow/cutdg_operator.cpp</text>
</a>
</g>
</g>
<!-- Node12&#45;&gt;Node23 -->
<g id="edge45_Node000012_Node000023" class="edge">
<title>Node12&#45;&gt;Node23</title>
<g id="a_edge45_Node000012_Node000023"><a xlink:title=" ">
<path fill="none" stroke="#63b8ff" d="M1526.82,-391.48C1636.88,-387.4 1814.57,-375.1 1868.26,-338 1942.97,-286.38 1980,-218.31 1929.26,-143 1913.84,-120.12 1887.22,-106.67 1861.51,-98.76"/>
<polygon fill="#63b8ff" stroke="#63b8ff" points="1526.58,-387.99 1516.71,-391.84 1526.83,-394.98 1526.58,-387.99"/>
</a>
</g>
</g>
<!-- Node24 -->
<g id="Node000024" class="node">
<title>Node24</title>
<g id="a_Node000024"><a xlink:href="multiphase__operator_8cpp.html" target="_top" xlink:title=" ">
<polygon fill="white" stroke="#666666" points="1074.26,-178.5 908.26,-178.5 908.26,-148.5 1074.26,-148.5 1074.26,-178.5"/>
<text text-anchor="start" x="916.26" y="-166.5" font-family="Helvetica,sans-Serif" font-size="10.00">source/compressible</text>
<text text-anchor="middle" x="991.26" y="-155.5" font-family="Helvetica,sans-Serif" font-size="10.00">_flow/multiphase_operator.cpp</text>
</a>
</g>
</g>
<!-- Node12&#45;&gt;Node24 -->
<g id="edge51_Node000012_Node000024" class="edge">
<title>Node12&#45;&gt;Node24</title>
<g id="a_edge51_Node000012_Node000024"><a xlink:title=" ">
<path fill="none" stroke="#63b8ff" d="M1345.88,-383.9C1270.01,-374.58 1168.52,-358.81 1133.26,-338 1098.48,-317.48 1026.79,-216.24 1000.87,-178.61"/>
<polygon fill="#63b8ff" stroke="#63b8ff" points="1345.58,-387.39 1355.93,-385.11 1346.42,-380.44 1345.58,-387.39"/>
</a>
</g>
</g>
<!-- Node26 -->
<g id="Node000026" class="node">
<title>Node26</title>
<g id="a_Node000026"><a xlink:href="dg__operation_8hpp.html" target="_top" xlink:title=" ">
<polygon fill="white" stroke="#666666" points="1804.76,-338 1679.76,-338 1679.76,-297 1804.76,-297 1804.76,-338"/>
<text text-anchor="start" x="1687.76" y="-326" font-family="Helvetica,sans-Serif" font-size="10.00">include/meltpooldg</text>
<text text-anchor="start" x="1687.76" y="-315" font-family="Helvetica,sans-Serif" font-size="10.00">/compressible_flow/dg</text>
<text text-anchor="middle" x="1742.26" y="-304" font-family="Helvetica,sans-Serif" font-size="10.00">_operation.hpp</text>
</a>
</g>
</g>
<!-- Node12&#45;&gt;Node26 -->
<g id="edge38_Node000012_Node000026" class="edge">
<title>Node12&#45;&gt;Node26</title>
<g id="a_edge38_Node000012_Node000026"><a xlink:title=" ">
<path fill="none" stroke="#63b8ff" d="M1526.3,-371.9C1568.52,-361.72 1619.49,-349.34 1665.26,-338 1669.94,-336.84 1674.79,-335.63 1679.66,-334.41"/>
<polygon fill="#63b8ff" stroke="#63b8ff" points="1525.22,-368.56 1516.32,-374.31 1526.86,-375.37 1525.22,-368.56"/>
</a>
</g>
</g>
<!-- Node13&#45;&gt;Node14 -->
<g id="edge15_Node000013_Node000014" class="edge">
<title>Node13&#45;&gt;Node14</title>
<g id="a_edge15_Node000013_Node000014"><a xlink:title=" ">
<path fill="none" stroke="#63b8ff" d="M1414.74,-288.67C1407.64,-279.5 1399.91,-269.5 1393.39,-261.07"/>
<polygon fill="#63b8ff" stroke="#63b8ff" points="1412.13,-291.03 1421.02,-296.79 1417.67,-286.74 1412.13,-291.03"/>
</a>
</g>
</g>
<!-- Node13&#45;&gt;Node16 -->
<g id="edge18_Node000013_Node000016" class="edge">
<title>Node13&#45;&gt;Node16</title>
<g id="a_edge18_Node000013_Node000016"><a xlink:title=" ">
<path fill="none" stroke="#63b8ff" d="M1466.56,-290.07C1477.51,-280.52 1489.66,-269.93 1499.81,-261.07"/>
<polygon fill="#63b8ff" stroke="#63b8ff" points="1464.09,-287.58 1458.85,-296.79 1468.69,-292.86 1464.09,-287.58"/>
</a>
</g>
</g>
<!-- Node13&#45;&gt;Node18 -->
<g id="edge21_Node000013_Node000018" class="edge">
<title>Node13&#45;&gt;Node18</title>
<g id="a_edge21_Node000013_Node000018"><a xlink:title=" ">
<path fill="none" stroke="#63b8ff" d="M1529.61,-297.26C1587.3,-285.38 1660.7,-270.25 1716.51,-258.76"/>
<polygon fill="#63b8ff" stroke="#63b8ff" points="1528.85,-293.85 1519.77,-299.29 1530.27,-300.7 1528.85,-293.85"/>
</a>
</g>
</g>
<!-- Node20 -->
<g id="Node000020" class="node">
<title>Node20</title>
<g id="a_Node000020"><a xlink:href="explicit__time__integration__utils_8hpp.html" target="_top" xlink:title=" ">
<polygon fill="white" stroke="#666666" points="1259.26,-261 1109.26,-261 1109.26,-220 1259.26,-220 1259.26,-261"/>
<text text-anchor="start" x="1117.26" y="-249" font-family="Helvetica,sans-Serif" font-size="10.00">include/meltpooldg</text>
<text text-anchor="start" x="1117.26" y="-238" font-family="Helvetica,sans-Serif" font-size="10.00">/compressible_flow/explicit</text>
<text text-anchor="middle" x="1184.26" y="-227" font-family="Helvetica,sans-Serif" font-size="10.00">_time_integration_utils.hpp</text>
</a>
</g>
</g>
<!-- Node13&#45;&gt;Node20 -->
<g id="edge24_Node000013_Node000020" class="edge">
<title>Node13&#45;&gt;Node20</title>
<g id="a_edge24_Node000013_Node000020"><a xlink:title=" ">
<path fill="none" stroke="#63b8ff" d="M1360.93,-294.08C1325.61,-283.57 1283.93,-271.16 1249.92,-261.04"/>
<polygon fill="#63b8ff" stroke="#63b8ff" points="1360.12,-297.49 1370.71,-296.99 1362.12,-290.78 1360.12,-297.49"/>
</a>
</g>
</g>
<!-- Node25 -->
<g id="Node000025" class="node">
<title>Node25</title>
<g id="a_Node000025"><a xlink:href="multiphase__operator_8hpp.html" target="_top" xlink:title=" ">
<polygon fill="white" stroke="#666666" points="1015.26,-261 847.26,-261 847.26,-220 1015.26,-220 1015.26,-261"/>
<text text-anchor="start" x="855.26" y="-249" font-family="Helvetica,sans-Serif" font-size="10.00">include/meltpooldg</text>
<text text-anchor="start" x="855.26" y="-238" font-family="Helvetica,sans-Serif" font-size="10.00">/compressible_flow/multiphase</text>
<text text-anchor="middle" x="931.26" y="-227" font-family="Helvetica,sans-Serif" font-size="10.00">_operator.hpp</text>
</a>
</g>
</g>
<!-- Node13&#45;&gt;Node25 -->
<g id="edge33_Node000013_Node000025" class="edge">
<title>Node13&#45;&gt;Node25</title>
<g id="a_edge33_Node000013_Node000025"><a xlink:title=" ">
<path fill="none" stroke="#63b8ff" d="M1342.53,-302.58C1248.75,-288.65 1105.8,-267.42 1015.52,-254.01"/>
<polygon fill="#63b8ff" stroke="#63b8ff" points="1342.18,-306.07 1352.58,-304.07 1343.21,-299.14 1342.18,-306.07"/>
</a>
</g>
</g>
<!-- Node14&#45;&gt;Node9 -->
<g id="edge17_Node000014_Node000009" class="edge">
<title>Node14&#45;&gt;Node9</title>
<g id="a_edge17_Node000014_Node000009"><a xlink:title=" ">
<path fill="none" stroke="#63b8ff" d="M1315.75,-216.41C1282.29,-204.05 1242.16,-189.22 1213.37,-178.58"/>
<polygon fill="#63b8ff" stroke="#63b8ff" points="1314.86,-219.81 1325.45,-219.99 1317.28,-213.24 1314.86,-219.81"/>
</a>
</g>
</g>
<!-- Node14&#45;&gt;Node15 -->
<g id="edge16_Node000014_Node000015" class="edge">
<title>Node14&#45;&gt;Node15</title>
<g id="a_edge16_Node000014_Node000015"><a xlink:title=" ">
<path fill="none" stroke="#63b8ff" d="M1451.18,-219.83C1524.02,-202.19 1544.25,-200.71 1613.26,-184 1620.36,-182.28 1627.83,-180.4 1635.17,-178.51"/>
<polygon fill="#63b8ff" stroke="#63b8ff" points="1449.93,-216.54 1441.04,-222.31 1451.59,-223.34 1449.93,-216.54"/>
</a>
</g>
</g>
<!-- Node16&#45;&gt;Node15 -->
<g id="edge19_Node000016_Node000015" class="edge">
<title>Node16&#45;&gt;Node15</title>
<g id="a_edge19_Node000016_Node000015"><a xlink:title=" ">
<path fill="none" stroke="#63b8ff" d="M1574.47,-215.77C1601.38,-203.54 1633.28,-189.04 1656.28,-178.58"/>
<polygon fill="#63b8ff" stroke="#63b8ff" points="1572.83,-212.67 1565.18,-219.99 1575.73,-219.04 1572.83,-212.67"/>
</a>
</g>
</g>
<!-- Node16&#45;&gt;Node17 -->
<g id="edge20_Node000016_Node000017" class="edge">
<title>Node16&#45;&gt;Node17</title>
<g id="a_edge20_Node000016_Node000017"><a xlink:title=" ">
<path fill="none" stroke="#63b8ff" d="M1470.68,-215.77C1444.1,-203.54 1412.58,-189.04 1389.86,-178.58"/>
<polygon fill="#63b8ff" stroke="#63b8ff" points="1469.31,-218.99 1479.86,-219.99 1472.24,-212.63 1469.31,-218.99"/>
</a>
</g>
</g>
<!-- Node18&#45;&gt;Node15 -->
<g id="edge22_Node000018_Node000015" class="edge">
<title>Node18&#45;&gt;Node15</title>
<g id="a_edge22_Node000018_Node000015"><a xlink:title=" ">
<path fill="none" stroke="#63b8ff" d="M1762.34,-214.34C1744.46,-202.47 1723.78,-188.74 1708.65,-178.7"/>
<polygon fill="#63b8ff" stroke="#63b8ff" points="1760.6,-217.38 1770.86,-219.99 1764.47,-211.54 1760.6,-217.38"/>
</a>
</g>
</g>
<!-- Node18&#45;&gt;Node19 -->
<g id="edge23_Node000018_Node000019" class="edge">
<title>Node18&#45;&gt;Node19</title>
<g id="a_edge23_Node000018_Node000019"><a xlink:title=" ">
<path fill="none" stroke="#63b8ff" d="M1818.05,-211.11C1823.7,-202.09 1829.82,-192.33 1834.99,-184.07"/>
<polygon fill="#63b8ff" stroke="#63b8ff" points="1814.95,-209.46 1812.61,-219.79 1820.88,-213.18 1814.95,-209.46"/>
</a>
</g>
</g>
<!-- Node20&#45;&gt;Node9 -->
<g id="edge30_Node000020_Node000009" class="edge">
<title>Node20&#45;&gt;Node9</title>
<g id="a_edge30_Node000020_Node000009"><a xlink:title=" ">
<path fill="none" stroke="#63b8ff" d="M1180.67,-209.61C1179.4,-199.01 1178.03,-187.57 1176.98,-178.86"/>
<polygon fill="#63b8ff" stroke="#63b8ff" points="1177.23,-210.28 1181.89,-219.79 1184.18,-209.45 1177.23,-210.28"/>
</a>
</g>
</g>
<!-- Node20&#45;&gt;Node17 -->
<g id="edge31_Node000020_Node000017" class="edge">
<title>Node20&#45;&gt;Node17</title>
<g id="a_edge31_Node000020_Node000017"><a xlink:title=" ">
<path fill="none" stroke="#63b8ff" d="M1239.26,-215.93C1267.88,-203.66 1301.9,-189.08 1326.4,-178.58"/>
<polygon fill="#63b8ff" stroke="#63b8ff" points="1237.59,-212.83 1229.78,-219.99 1240.35,-219.27 1237.59,-212.83"/>
</a>
</g>
</g>
<!-- Node20&#45;&gt;Node21 -->
<g id="edge25_Node000020_Node000021" class="edge">
<title>Node20&#45;&gt;Node21</title>
<g id="a_edge25_Node000020_Node000021"><a xlink:title=" ">
<path fill="none" stroke="#63b8ff" d="M1269.41,-222.38C1321.9,-211.69 1390.57,-197.43 1451.26,-184 1455.45,-183.07 1459.76,-182.1 1464.1,-181.12"/>
<polygon fill="#63b8ff" stroke="#63b8ff" points="1268.56,-218.98 1259.46,-224.41 1269.96,-225.84 1268.56,-218.98"/>
</a>
</g>
</g>
<!-- Node20&#45;&gt;Node24 -->
<g id="edge32_Node000020_Node000024" class="edge">
<title>Node20&#45;&gt;Node24</title>
<g id="a_edge32_Node000020_Node000024"><a xlink:title=" ">
<path fill="none" stroke="#63b8ff" d="M1124.42,-216.25C1092.69,-203.92 1054.75,-189.17 1027.5,-178.58"/>
<polygon fill="#63b8ff" stroke="#63b8ff" points="1123.46,-219.63 1134.05,-219.99 1126,-213.11 1123.46,-219.63"/>
</a>
</g>
</g>
<!-- Node21&#45;&gt;Node8 -->
<g id="edge28_Node000021_Node000008" class="edge">
<title>Node21&#45;&gt;Node8</title>
<g id="a_edge28_Node000021_Node000008"><a xlink:title=" ">
<path fill="none" stroke="#63b8ff" d="M1515.53,-134.27C1510.92,-125.85 1506.63,-116.36 1504.26,-107 1499.79,-89.33 1499.39,-83.56 1504.26,-66 1507.88,-52.93 1515.93,-39.84 1522.78,-30.34"/>
<polygon fill="#63b8ff" stroke="#63b8ff" points="1512.52,-136.06 1520.58,-142.94 1518.57,-132.54 1512.52,-136.06"/>
</a>
</g>
</g>
<!-- Node22 -->
<g id="Node000022" class="node">
<title>Node22</title>
<g id="a_Node000022"><a xlink:href="cutdg__operation_8hpp.html" target="_top" xlink:title=" ">
<polygon fill="white" stroke="#666666" points="1653.26,-107 1513.26,-107 1513.26,-66 1653.26,-66 1653.26,-107"/>
<text text-anchor="start" x="1521.26" y="-95" font-family="Helvetica,sans-Serif" font-size="10.00">include/meltpooldg</text>
<text text-anchor="start" x="1521.26" y="-84" font-family="Helvetica,sans-Serif" font-size="10.00">/compressible_flow/cutdg</text>
<text text-anchor="middle" x="1583.26" y="-73" font-family="Helvetica,sans-Serif" font-size="10.00">_operation.hpp</text>
</a>
</g>
</g>
<!-- Node21&#45;&gt;Node22 -->
<g id="edge26_Node000021_Node000022" class="edge">
<title>Node21&#45;&gt;Node22</title>
<g id="a_edge26_Node000021_Node000022"><a xlink:title=" ">
<path fill="none" stroke="#63b8ff" d="M1552.62,-134.39C1558.56,-125.3 1565.02,-115.41 1570.47,-107.07"/>
<polygon fill="#63b8ff" stroke="#63b8ff" points="1549.67,-132.51 1547.13,-142.79 1555.53,-136.34 1549.67,-132.51"/>
</a>
</g>
</g>
<!-- Node21&#45;&gt;Node23 -->
<g id="edge29_Node000021_Node000023" class="edge">
<title>Node21&#45;&gt;Node23</title>
<g id="a_edge29_Node000021_Node000023"><a xlink:title=" ">
<path fill="none" stroke="#63b8ff" d="M1611.24,-140.12C1654.25,-127.62 1706.52,-112.42 1743.81,-101.58"/>
<polygon fill="#63b8ff" stroke="#63b8ff" points="1610,-136.84 1601.37,-142.99 1611.95,-143.56 1610,-136.84"/>
</a>
</g>
</g>
<!-- Node22&#45;&gt;Node8 -->
<g id="edge27_Node000022_Node000008" class="edge">
<title>Node22&#45;&gt;Node8</title>
<g id="a_edge27_Node000022_Node000008"><a xlink:title=" ">
<path fill="none" stroke="#63b8ff" d="M1563.45,-57.4C1556.81,-47.99 1549.7,-37.9 1544.16,-30.04"/>
<polygon fill="#63b8ff" stroke="#63b8ff" points="1560.72,-59.61 1569.35,-65.77 1566.45,-55.58 1560.72,-59.61"/>
</a>
</g>
</g>
<!-- Node25&#45;&gt;Node10 -->
<g id="edge34_Node000025_Node000010" class="edge">
<title>Node25&#45;&gt;Node10</title>
<g id="a_edge34_Node000025_Node000010"><a xlink:title=" ">
<path fill="none" stroke="#63b8ff" d="M859.08,-216.94C825.54,-206.46 786.04,-194.12 753.79,-184.04"/>
<polygon fill="#63b8ff" stroke="#63b8ff" points="858.24,-220.35 868.83,-219.99 860.33,-213.67 858.24,-220.35"/>
</a>
</g>
</g>
<!-- Node25&#45;&gt;Node11 -->
<g id="edge35_Node000025_Node000011" class="edge">
<title>Node25&#45;&gt;Node11</title>
<g id="a_edge35_Node000025_Node000011"><a xlink:title=" ">
<path fill="none" stroke="#63b8ff" d="M911.16,-211.73C887.62,-179.2 849.54,-126.58 831.44,-101.57"/>
<polygon fill="#63b8ff" stroke="#63b8ff" points="908.4,-213.89 917.1,-219.94 914.08,-209.79 908.4,-213.89"/>
</a>
</g>
</g>
<!-- Node25&#45;&gt;Node24 -->
<g id="edge36_Node000025_Node000024" class="edge">
<title>Node25&#45;&gt;Node24</title>
<g id="a_edge36_Node000025_Node000024"><a xlink:title=" ">
<path fill="none" stroke="#63b8ff" d="M953.33,-211.92C962.3,-200.7 972.29,-188.21 979.77,-178.86"/>
<polygon fill="#63b8ff" stroke="#63b8ff" points="950.54,-209.8 947.02,-219.79 956,-214.17 950.54,-209.8"/>
</a>
</g>
</g>
<!-- Node26&#45;&gt;Node15 -->
<g id="edge39_Node000026_Node000015" class="edge">
<title>Node26&#45;&gt;Node15</title>
<g id="a_edge39_Node000026_Node000015"><a xlink:title=" ">
<path fill="none" stroke="#63b8ff" d="M1722.53,-288.39C1717.27,-279.9 1712.01,-270.34 1708.26,-261 1697.01,-233 1691.3,-197.89 1688.83,-178.68"/>
<polygon fill="#63b8ff" stroke="#63b8ff" points="1719.59,-290.29 1727.95,-296.81 1725.47,-286.5 1719.59,-290.29"/>
</a>
</g>
</g>
</g>
</svg>

<g id="navigator" transform="translate(0 0)" fill="#404254">
  <rect fill="#f2f5e9" fill-opacity="0.5" stroke="#606060" stroke-width=".5" x="0" y="0" width="60" height="60"/>
  <use id="zoomplus" xlink:href="#zoomPlus" x="17" y="9" onmousedown="handleZoom(evt,'in')"/>
  <use id="zoomminus" xlink:href="#zoomMin" x="42" y="9" onmousedown="handleZoom(evt,'out')"/>
  <use id="reset" xlink:href="#resetDef" x="30" y="36" onmousedown="handleReset()"/>
   <use id="arrowup" xlink:href="#arrowUp" x="0" y="0" onmousedown="handlePan(0,-1)"/>
  <use id="arrowright" xlink:href="#arrowRight" x="0" y="0" onmousedown="handlePan(1,0)"/>
  <use id="arrowdown" xlink:href="#arrowDown" x="0" y="0" onmousedown="handlePan(0,1)"/>
  <use id="arrowleft" xlink:href="#arrowLeft" x="0" y="0" onmousedown="handlePan(-1,0)"/>
</g>
<svg viewBox="0 0 15 15" width="100%" height="30px" preserveAspectRatio="xMaxYMin meet">
 <g id="arrow_out" transform="scale(0.3 0.3)">
  <a xlink:href="compressible__flow_2material__data_8hpp__dep__incl_org.svg" target="_base">
   <rect id="button" ry="5" rx="5" y="6" x="6" height="38" width="38"
        fill="#f2f5e9" fill-opacity="0.5" stroke="#606060" stroke-width="1.0"/>
   <path id="arrow"
     d="M 11.500037,31.436501 C 11.940474,20.09759 22.043105,11.32322 32.158766,21.979434 L 37.068811,17.246167 C 37.068811,17.246167 37.088388,32 37.088388,32 L 22.160133,31.978069 C 22.160133,31.978069 26.997745,27.140456 26.997745,27.140456 C 18.528582,18.264221 13.291696,25.230495 11.500037,31.436501 z"
     style="fill:#404040;"/>
  </a>
 </g>
</svg>

<style type='text/css'>
<![CDATA[
[data-mouse-over-selected='false'] { opacity: 0.7; }
[data-mouse-over-selected='true']  { opacity: 1.0; }
]]>
</style>
<script type="application/ecmascript"><![CDATA[
document.addEventListener('DOMContentLoaded', (event) => {
  highlightEdges();
  highlightAdjacentNodes();
});
]]></script>
</svg>
