<?xml version="1.0" encoding="UTF-8" standalone="no"?>
<!DOCTYPE svg PUBLIC "-//W3C//DTD SVG 1.1//EN"
 "http://www.w3.org/Graphics/SVG/1.1/DTD/svg11.dtd">
<!-- Generated by graphviz version 2.43.0 (0)
 -->
<!-- Title: include/meltpooldg/compressible_flow/boundary_conditions.hpp Pages: 1 -->
<svg width="2026pt" height="500pt"
 viewBox="0.00 0.00 2025.50 500.00" xmlns="http://www.w3.org/2000/svg" xmlns:xlink="http://www.w3.org/1999/xlink">
<g id="graph0" class="graph" transform="scale(1 1) rotate(0) translate(4 496)">
<title>include/meltpooldg/compressible_flow/boundary_conditions.hpp</title>
<!-- Node1 -->
<g id="Node000001" class="node">
<title>Node1</title>
<g id="a_Node000001"><a xlink:title=" ">
<polygon fill="#999999" stroke="#666666" points="441.5,-492 282.5,-492 282.5,-451 441.5,-451 441.5,-492"/>
<text text-anchor="start" x="290.5" y="-480" font-family="Helvetica,sans-Serif" font-size="10.00">include/meltpooldg</text>
<text text-anchor="start" x="290.5" y="-469" font-family="Helvetica,sans-Serif" font-size="10.00">/compressible_flow/boundary</text>
<text text-anchor="middle" x="362" y="-458" font-family="Helvetica,sans-Serif" font-size="10.00">_conditions.hpp</text>
</a>
</g>
</g>
<!-- Node2 -->
<g id="Node000002" class="node">
<title>Node2</title>
<g id="a_Node000002"><a xlink:href="boundary__condition__functions_8hpp.html" target="_top" xlink:title=" ">
<polygon fill="white" stroke="#666666" points="258.5,-415 99.5,-415 99.5,-374 258.5,-374 258.5,-415"/>
<text text-anchor="start" x="107.5" y="-403" font-family="Helvetica,sans-Serif" font-size="10.00">include/meltpooldg</text>
<text text-anchor="start" x="107.5" y="-392" font-family="Helvetica,sans-Serif" font-size="10.00">/compressible_flow/boundary</text>
<text text-anchor="middle" x="179" y="-381" font-family="Helvetica,sans-Serif" font-size="10.00">_condition_functions.hpp</text>
</a>
</g>
</g>
<!-- Node1&#45;&gt;Node2 -->
<g id="edge1_Node000001_Node000002" class="edge">
<title>Node1&#45;&gt;Node2</title>
<g id="a_edge1_Node000001_Node000002"><a xlink:title=" ">
<path fill="none" stroke="#63b8ff" d="M304.98,-447.13C279.84,-436.83 250.64,-424.86 226.68,-415.04"/>
<polygon fill="#63b8ff" stroke="#63b8ff" points="303.82,-450.44 314.4,-450.99 306.47,-443.96 303.82,-450.44"/>
</a>
</g>
</g>
<!-- Node3 -->
<g id="Node000003" class="node">
<title>Node3</title>
<g id="a_Node000003"><a xlink:href="case__utils_8hpp.html" target="_top" xlink:title=" ">
<polygon fill="white" stroke="#666666" points="136,-338 0,-338 0,-297 136,-297 136,-338"/>
<text text-anchor="start" x="8" y="-326" font-family="Helvetica,sans-Serif" font-size="10.00">include/meltpooldg</text>
<text text-anchor="start" x="8" y="-315" font-family="Helvetica,sans-Serif" font-size="10.00">/compressible_flow/case</text>
<text text-anchor="middle" x="68" y="-304" font-family="Helvetica,sans-Serif" font-size="10.00">_utils.hpp</text>
</a>
</g>
</g>
<!-- Node1&#45;&gt;Node3 -->
<g id="edge8_Node000001_Node000003" class="edge">
<title>Node1&#45;&gt;Node3</title>
<g id="a_edge8_Node000001_Node000003"><a xlink:title=" ">
<path fill="none" stroke="#63b8ff" d="M272.19,-462.62C203.24,-454.72 115.62,-440.04 90,-415 69.48,-394.94 66.37,-359.99 66.69,-338.11"/>
<polygon fill="#63b8ff" stroke="#63b8ff" points="271.89,-466.11 282.22,-463.74 272.67,-459.15 271.89,-466.11"/>
</a>
</g>
</g>
<!-- Node4 -->
<g id="Node000004" class="node">
<title>Node4</title>
<g id="a_Node000004"><a xlink:href="case__utils_8cpp.html" target="_top" xlink:title=" ">
<polygon fill="white" stroke="#666666" points="230.5,-255.5 113.5,-255.5 113.5,-225.5 230.5,-225.5 230.5,-255.5"/>
<text text-anchor="start" x="121.5" y="-243.5" font-family="Helvetica,sans-Serif" font-size="10.00">source/compressible</text>
<text text-anchor="middle" x="172" y="-232.5" font-family="Helvetica,sans-Serif" font-size="10.00">_flow/case_utils.cpp</text>
</a>
</g>
</g>
<!-- Node1&#45;&gt;Node4 -->
<g id="edge54_Node000001_Node000004" class="edge">
<title>Node1&#45;&gt;Node4</title>
<g id="a_edge54_Node000001_Node000004"><a xlink:title=" ">
<path fill="none" stroke="#63b8ff" d="M353.6,-441.06C340.09,-394.45 314.04,-307.83 304,-297 284.65,-276.13 256.2,-262.82 230.66,-254.49"/>
<polygon fill="#63b8ff" stroke="#63b8ff" points="350.3,-442.26 356.44,-450.9 357.03,-440.32 350.3,-442.26"/>
</a>
</g>
</g>
<!-- Node5 -->
<g id="Node000005" class="node">
<title>Node5</title>
<g id="a_Node000005"><a xlink:href="boundary__condition__functions_8cpp.html" target="_top" xlink:title=" ">
<polygon fill="white" stroke="#666666" points="295.5,-338 154.5,-338 154.5,-297 295.5,-297 295.5,-338"/>
<text text-anchor="start" x="162.5" y="-326" font-family="Helvetica,sans-Serif" font-size="10.00">source/compressible</text>
<text text-anchor="start" x="162.5" y="-315" font-family="Helvetica,sans-Serif" font-size="10.00">_flow/boundary_condition</text>
<text text-anchor="middle" x="225" y="-304" font-family="Helvetica,sans-Serif" font-size="10.00">_functions.cpp</text>
</a>
</g>
</g>
<!-- Node1&#45;&gt;Node5 -->
<g id="edge52_Node000001_Node000005" class="edge">
<title>Node1&#45;&gt;Node5</title>
<g id="a_edge52_Node000001_Node000005"><a xlink:title=" ">
<path fill="none" stroke="#63b8ff" d="M336.21,-443.31C327.8,-434.35 318.45,-424.3 310,-415 286.13,-388.73 259.12,-357.86 242.08,-338.25"/>
<polygon fill="#63b8ff" stroke="#63b8ff" points="333.92,-445.98 343.32,-450.86 339.01,-441.18 333.92,-445.98"/>
</a>
</g>
</g>
<!-- Node6 -->
<g id="Node000006" class="node">
<title>Node6</title>
<g id="a_Node000006"><a xlink:href="boundary__conditions_8templates_8hpp.html" target="_top" xlink:title=" ">
<polygon fill="white" stroke="#666666" points="1792.5,-261 1633.5,-261 1633.5,-220 1792.5,-220 1792.5,-261"/>
<text text-anchor="start" x="1641.5" y="-249" font-family="Helvetica,sans-Serif" font-size="10.00">include/meltpooldg</text>
<text text-anchor="start" x="1641.5" y="-238" font-family="Helvetica,sans-Serif" font-size="10.00">/compressible_flow/boundary</text>
<text text-anchor="middle" x="1713" y="-227" font-family="Helvetica,sans-Serif" font-size="10.00">_conditions.templates.hpp</text>
</a>
</g>
</g>
<!-- Node1&#45;&gt;Node6 -->
<g id="edge5_Node000001_Node000006" class="edge">
<title>Node1&#45;&gt;Node6</title>
<g id="a_edge5_Node000001_Node000006"><a xlink:title=" ">
<path fill="none" stroke="#63b8ff" d="M452.1,-469.21C704.76,-464.32 1414.89,-441.48 1620,-338 1655.11,-320.29 1684.39,-283.91 1700.24,-261.22"/>
<polygon fill="#63b8ff" stroke="#63b8ff" points="451.8,-465.72 441.86,-469.4 451.93,-472.71 451.8,-465.72"/>
</a>
</g>
</g>
<!-- Node9 -->
<g id="Node000009" class="node">
<title>Node9</title>
<g id="a_Node000009"><a xlink:href="multiphase__operation_8hpp.html" target="_top" xlink:title=" ">
<polygon fill="white" stroke="#666666" points="497,-184 329,-184 329,-143 497,-143 497,-184"/>
<text text-anchor="start" x="337" y="-172" font-family="Helvetica,sans-Serif" font-size="10.00">include/meltpooldg</text>
<text text-anchor="start" x="337" y="-161" font-family="Helvetica,sans-Serif" font-size="10.00">/compressible_flow/multiphase</text>
<text text-anchor="middle" x="413" y="-150" font-family="Helvetica,sans-Serif" font-size="10.00">_operation.hpp</text>
</a>
</g>
</g>
<!-- Node1&#45;&gt;Node9 -->
<g id="edge9_Node000001_Node000009" class="edge">
<title>Node1&#45;&gt;Node9</title>
<g id="a_edge9_Node000001_Node000009"><a xlink:title=" ">
<path fill="none" stroke="#63b8ff" d="M366.92,-440.97C377.25,-378.99 400.96,-236.73 409.69,-184.34"/>
<polygon fill="#63b8ff" stroke="#63b8ff" points="363.46,-440.45 365.27,-450.89 370.36,-441.6 363.46,-440.45"/>
</a>
</g>
</g>
<!-- Node11 -->
<g id="Node000011" class="node">
<title>Node11</title>
<g id="a_Node000011"><a xlink:href="operation__scratch__data_8hpp.html" target="_top" xlink:title=" ">
<polygon fill="white" stroke="#666666" points="1025,-415 865,-415 865,-374 1025,-374 1025,-415"/>
<text text-anchor="start" x="873" y="-403" font-family="Helvetica,sans-Serif" font-size="10.00">include/meltpooldg</text>
<text text-anchor="start" x="873" y="-392" font-family="Helvetica,sans-Serif" font-size="10.00">/compressible_flow/operation</text>
<text text-anchor="middle" x="945" y="-381" font-family="Helvetica,sans-Serif" font-size="10.00">_scratch_data.hpp</text>
</a>
</g>
</g>
<!-- Node1&#45;&gt;Node11 -->
<g id="edge12_Node000001_Node000011" class="edge">
<title>Node1&#45;&gt;Node11</title>
<g id="a_edge12_Node000001_Node000011"><a xlink:title=" ">
<path fill="none" stroke="#63b8ff" d="M451.53,-458.98C564.29,-444.48 756.37,-419.77 864.63,-405.84"/>
<polygon fill="#63b8ff" stroke="#63b8ff" points="451.01,-455.52 441.54,-460.27 451.9,-462.46 451.01,-455.52"/>
</a>
</g>
</g>
<!-- Node26 -->
<g id="Node000026" class="node">
<title>Node26</title>
<g id="a_Node000026"><a xlink:href="operation__type__erasure_8hpp.html" target="_top" xlink:title=" ">
<polygon fill="white" stroke="#666666" points="1832,-415 1672,-415 1672,-374 1832,-374 1832,-415"/>
<text text-anchor="start" x="1680" y="-403" font-family="Helvetica,sans-Serif" font-size="10.00">include/meltpooldg</text>
<text text-anchor="start" x="1680" y="-392" font-family="Helvetica,sans-Serif" font-size="10.00">/compressible_flow/operation</text>
<text text-anchor="middle" x="1752" y="-381" font-family="Helvetica,sans-Serif" font-size="10.00">_type_erasure.hpp</text>
</a>
</g>
</g>
<!-- Node1&#45;&gt;Node26 -->
<g id="edge51_Node000001_Node000026" class="edge">
<title>Node1&#45;&gt;Node26</title>
<g id="a_edge51_Node000001_Node000026"><a xlink:title=" ">
<path fill="none" stroke="#63b8ff" d="M452.12,-468.54C706.05,-462.71 1424.07,-444.08 1658,-415 1662.55,-414.43 1667.2,-413.77 1671.89,-413.02"/>
<polygon fill="#63b8ff" stroke="#63b8ff" points="451.75,-465.05 441.84,-468.77 451.91,-472.05 451.75,-465.05"/>
</a>
</g>
</g>
<!-- Node27 -->
<g id="Node000027" class="node">
<title>Node27</title>
<g id="a_Node000027"><a xlink:href="compressible__flow_2boundary__conditions_8cpp.html" target="_top" xlink:title=" ">
<polygon fill="white" stroke="#666666" points="2017.5,-409.5 1850.5,-409.5 1850.5,-379.5 2017.5,-379.5 2017.5,-409.5"/>
<text text-anchor="start" x="1858.5" y="-397.5" font-family="Helvetica,sans-Serif" font-size="10.00">source/compressible</text>
<text text-anchor="middle" x="1934" y="-386.5" font-family="Helvetica,sans-Serif" font-size="10.00">_flow/boundary_conditions.cpp</text>
</a>
</g>
</g>
<!-- Node1&#45;&gt;Node27 -->
<g id="edge53_Node000001_Node000027" class="edge">
<title>Node1&#45;&gt;Node27</title>
<g id="a_edge53_Node000001_Node000027"><a xlink:title=" ">
<path fill="none" stroke="#63b8ff" d="M451.65,-469.13C728.87,-464.56 1569.87,-448.27 1841,-415 1851.81,-413.67 1863.22,-411.74 1874.22,-409.59"/>
<polygon fill="#63b8ff" stroke="#63b8ff" points="451.57,-465.63 441.63,-469.29 451.69,-472.62 451.57,-465.63"/>
</a>
</g>
</g>
<!-- Node2&#45;&gt;Node3 -->
<g id="edge2_Node000002_Node000003" class="edge">
<title>Node2&#45;&gt;Node3</title>
<g id="a_edge2_Node000002_Node000003"><a xlink:title=" ">
<path fill="none" stroke="#63b8ff" d="M141.81,-368.37C127.24,-358.53 110.79,-347.41 97.12,-338.17"/>
<polygon fill="#63b8ff" stroke="#63b8ff" points="139.88,-371.29 150.13,-373.99 143.8,-365.49 139.88,-371.29"/>
</a>
</g>
</g>
<!-- Node2&#45;&gt;Node5 -->
<g id="edge4_Node000002_Node000005" class="edge">
<title>Node2&#45;&gt;Node5</title>
<g id="a_edge4_Node000002_Node000005"><a xlink:title=" ">
<path fill="none" stroke="#63b8ff" d="M196.41,-365.11C201.94,-356.09 207.93,-346.33 212.99,-338.07"/>
<polygon fill="#63b8ff" stroke="#63b8ff" points="193.33,-363.44 191.09,-373.79 199.3,-367.1 193.33,-363.44"/>
</a>
</g>
</g>
<!-- Node3&#45;&gt;Node4 -->
<g id="edge3_Node000003_Node000004" class="edge">
<title>Node3&#45;&gt;Node4</title>
<g id="a_edge3_Node000003_Node000004"><a xlink:title=" ">
<path fill="none" stroke="#63b8ff" d="M103.34,-291.01C119.7,-279.22 138.52,-265.65 152.31,-255.7"/>
<polygon fill="#63b8ff" stroke="#63b8ff" points="101.12,-288.3 95.05,-296.99 105.21,-293.98 101.12,-288.3"/>
</a>
</g>
</g>
<!-- Node7 -->
<g id="Node000007" class="node">
<title>Node7</title>
<g id="a_Node000007"><a xlink:href="cutdg__operation_8cpp.html" target="_top" xlink:title=" ">
<polygon fill="white" stroke="#666666" points="1402,-30 1258,-30 1258,0 1402,0 1402,-30"/>
<text text-anchor="start" x="1266" y="-18" font-family="Helvetica,sans-Serif" font-size="10.00">source/compressible</text>
<text text-anchor="middle" x="1330" y="-7" font-family="Helvetica,sans-Serif" font-size="10.00">_flow/cutdg_operation.cpp</text>
</a>
</g>
</g>
<!-- Node6&#45;&gt;Node7 -->
<g id="edge6_Node000006_Node000007" class="edge">
<title>Node6&#45;&gt;Node7</title>
<g id="a_edge6_Node000006_Node000007"><a xlink:title=" ">
<path fill="none" stroke="#63b8ff" d="M1711.69,-209.71C1708.25,-170.38 1696.03,-101.93 1653,-66 1615.98,-35.09 1485.69,-23.18 1402.33,-18.67"/>
<polygon fill="#63b8ff" stroke="#63b8ff" points="1708.21,-210.03 1712.43,-219.74 1715.19,-209.51 1708.21,-210.03"/>
</a>
</g>
</g>
<!-- Node8 -->
<g id="Node000008" class="node">
<title>Node8</title>
<g id="a_Node000008"><a xlink:href="dg__operator__explicit_8cpp.html" target="_top" xlink:title=" ">
<polygon fill="white" stroke="#666666" points="1612.5,-178.5 1447.5,-178.5 1447.5,-148.5 1612.5,-148.5 1612.5,-178.5"/>
<text text-anchor="start" x="1455.5" y="-166.5" font-family="Helvetica,sans-Serif" font-size="10.00">source/compressible</text>
<text text-anchor="middle" x="1530" y="-155.5" font-family="Helvetica,sans-Serif" font-size="10.00">_flow/dg_operator_explicit.cpp</text>
</a>
</g>
</g>
<!-- Node6&#45;&gt;Node8 -->
<g id="edge7_Node000006_Node000008" class="edge">
<title>Node6&#45;&gt;Node8</title>
<g id="a_edge7_Node000006_Node000008"><a xlink:title=" ">
<path fill="none" stroke="#63b8ff" d="M1655.88,-216.09C1625.87,-203.79 1590.09,-189.13 1564.36,-178.58"/>
<polygon fill="#63b8ff" stroke="#63b8ff" points="1654.82,-219.44 1665.4,-219.99 1657.47,-212.96 1654.82,-219.44"/>
</a>
</g>
</g>
<!-- Node9&#45;&gt;Node9 -->
<g id="edge10_Node000009_Node000009" class="edge">
<title>Node9&#45;&gt;Node9</title>
<g id="a_edge10_Node000009_Node000009"><a xlink:title=" ">
<path fill="none" stroke="#63b8ff" d="M506.75,-173.05C511.92,-170.73 515,-167.54 515,-163.5 515,-157.34 507.85,-153.18 497.03,-151.01"/>
<polygon fill="#63b8ff" stroke="#63b8ff" points="505.59,-169.74 497.03,-175.99 507.62,-176.44 505.59,-169.74"/>
</a>
</g>
</g>
<!-- Node10 -->
<g id="Node000010" class="node">
<title>Node10</title>
<g id="a_Node000010"><a xlink:href="multiphase__operation_8cpp.html" target="_top" xlink:title=" ">
<polygon fill="white" stroke="#666666" points="499,-101.5 327,-101.5 327,-71.5 499,-71.5 499,-101.5"/>
<text text-anchor="start" x="335" y="-89.5" font-family="Helvetica,sans-Serif" font-size="10.00">source/compressible</text>
<text text-anchor="middle" x="413" y="-78.5" font-family="Helvetica,sans-Serif" font-size="10.00">_flow/multiphase_operation.cpp</text>
</a>
</g>
</g>
<!-- Node9&#45;&gt;Node10 -->
<g id="edge11_Node000009_Node000010" class="edge">
<title>Node9&#45;&gt;Node10</title>
<g id="a_edge11_Node000009_Node000010"><a xlink:title=" ">
<path fill="none" stroke="#63b8ff" d="M413,-132.61C413,-122.01 413,-110.57 413,-101.86"/>
<polygon fill="#63b8ff" stroke="#63b8ff" points="409.5,-132.79 413,-142.79 416.5,-132.79 409.5,-132.79"/>
</a>
</g>
</g>
<!-- Node11&#45;&gt;Node7 -->
<g id="edge43_Node000011_Node000007" class="edge">
<title>Node11&#45;&gt;Node7</title>
<g id="a_edge43_Node000011_Node000007"><a xlink:title=" ">
<path fill="none" stroke="#63b8ff" d="M854.63,-393.1C703.65,-388.54 423.36,-361.37 495,-220 564.86,-82.14 1068.28,-33.82 1257.95,-20.39"/>
<polygon fill="#63b8ff" stroke="#63b8ff" points="854.73,-396.6 864.82,-393.38 854.92,-389.6 854.73,-396.6"/>
</a>
</g>
</g>
<!-- Node11&#45;&gt;Node8 -->
<g id="edge46_Node000011_Node000008" class="edge">
<title>Node11&#45;&gt;Node8</title>
<g id="a_edge46_Node000011_Node000008"><a xlink:title=" ">
<path fill="none" stroke="#63b8ff" d="M1035.24,-391.02C1161.23,-386.31 1382.45,-373.18 1454,-338 1496.59,-317.06 1509.82,-304.84 1528,-261 1539.36,-233.6 1535.97,-197.96 1532.79,-178.57"/>
<polygon fill="#63b8ff" stroke="#63b8ff" points="1035.09,-387.52 1025.22,-391.38 1035.34,-394.51 1035.09,-387.52"/>
</a>
</g>
</g>
<!-- Node11&#45;&gt;Node9 -->
<g id="edge42_Node000011_Node000009" class="edge">
<title>Node11&#45;&gt;Node9</title>
<g id="a_edge42_Node000011_Node000009"><a xlink:title=" ">
<path fill="none" stroke="#63b8ff" d="M854.87,-388.52C723.37,-380.46 491.27,-362.9 462,-338 438.4,-317.92 421.99,-225.11 415.77,-184.09"/>
<polygon fill="#63b8ff" stroke="#63b8ff" points="854.75,-392.02 864.94,-389.14 855.17,-385.04 854.75,-392.02"/>
</a>
</g>
</g>
<!-- Node11&#45;&gt;Node10 -->
<g id="edge49_Node000011_Node000010" class="edge">
<title>Node11&#45;&gt;Node10</title>
<g id="a_edge49_Node000011_Node000010"><a xlink:title=" ">
<path fill="none" stroke="#63b8ff" d="M854.87,-392.11C728.51,-388.74 506.35,-377.24 437,-338 362.19,-295.67 347.43,-265.46 320,-184 314.18,-166.73 311,-158.85 320,-143 330.95,-123.71 351.57,-110.41 370.61,-101.68"/>
<polygon fill="#63b8ff" stroke="#63b8ff" points="854.84,-395.61 864.92,-392.36 855.01,-388.61 854.84,-395.61"/>
</a>
</g>
</g>
<!-- Node12 -->
<g id="Node000012" class="node">
<title>Node12</title>
<g id="a_Node000012"><a xlink:href="convective__kernels_8hpp.html" target="_top" xlink:title=" ">
<polygon fill="white" stroke="#666666" points="1084.5,-338 917.5,-338 917.5,-297 1084.5,-297 1084.5,-338"/>
<text text-anchor="start" x="925.5" y="-326" font-family="Helvetica,sans-Serif" font-size="10.00">include/meltpooldg</text>
<text text-anchor="start" x="925.5" y="-315" font-family="Helvetica,sans-Serif" font-size="10.00">/compressible_flow/convective</text>
<text text-anchor="middle" x="1001" y="-304" font-family="Helvetica,sans-Serif" font-size="10.00">_kernels.hpp</text>
</a>
</g>
</g>
<!-- Node11&#45;&gt;Node12 -->
<g id="edge13_Node000011_Node000012" class="edge">
<title>Node11&#45;&gt;Node12</title>
<g id="a_edge13_Node000011_Node000012"><a xlink:title=" ">
<path fill="none" stroke="#63b8ff" d="M965.78,-365.67C972.63,-356.5 980.1,-346.5 986.38,-338.07"/>
<polygon fill="#63b8ff" stroke="#63b8ff" points="962.89,-363.69 959.71,-373.79 968.5,-367.88 962.89,-363.69"/>
</a>
</g>
</g>
<!-- Node13 -->
<g id="Node000013" class="node">
<title>Node13</title>
<g id="a_Node000013"><a xlink:href="dg__operator__explicit_8hpp.html" target="_top" xlink:title=" ">
<polygon fill="white" stroke="#666666" points="1501.5,-261 1376.5,-261 1376.5,-220 1501.5,-220 1501.5,-261"/>
<text text-anchor="start" x="1384.5" y="-249" font-family="Helvetica,sans-Serif" font-size="10.00">include/meltpooldg</text>
<text text-anchor="start" x="1384.5" y="-238" font-family="Helvetica,sans-Serif" font-size="10.00">/compressible_flow/dg</text>
<text text-anchor="middle" x="1439" y="-227" font-family="Helvetica,sans-Serif" font-size="10.00">_operator_explicit.hpp</text>
</a>
</g>
</g>
<!-- Node11&#45;&gt;Node13 -->
<g id="edge39_Node000011_Node000013" class="edge">
<title>Node11&#45;&gt;Node13</title>
<g id="a_edge39_Node000011_Node000013"><a xlink:title=" ">
<path fill="none" stroke="#63b8ff" d="M1035.34,-389.32C1140.83,-383.1 1307.81,-368.66 1362,-338 1393.53,-320.17 1416.99,-283.82 1429.29,-261.18"/>
<polygon fill="#63b8ff" stroke="#63b8ff" points="1035.11,-385.83 1025.33,-389.9 1035.51,-392.82 1035.11,-385.83"/>
</a>
</g>
</g>
<!-- Node14 -->
<g id="Node000014" class="node">
<title>Node14</title>
<g id="a_Node000014"><a xlink:href="dg__operation_8cpp.html" target="_top" xlink:title=" ">
<polygon fill="white" stroke="#666666" points="1270.5,-178.5 1141.5,-178.5 1141.5,-148.5 1270.5,-148.5 1270.5,-178.5"/>
<text text-anchor="start" x="1149.5" y="-166.5" font-family="Helvetica,sans-Serif" font-size="10.00">source/compressible</text>
<text text-anchor="middle" x="1206" y="-155.5" font-family="Helvetica,sans-Serif" font-size="10.00">_flow/dg_operation.cpp</text>
</a>
</g>
</g>
<!-- Node11&#45;&gt;Node14 -->
<g id="edge45_Node000011_Node000014" class="edge">
<title>Node11&#45;&gt;Node14</title>
<g id="a_edge45_Node000011_Node000014"><a xlink:title=" ">
<path fill="none" stroke="#63b8ff" d="M1035.5,-392.93C1133.21,-390.17 1279.64,-379.06 1315,-338 1328.16,-322.72 1319.3,-238.54 1307,-220 1294.06,-200.5 1271.85,-187.23 1251.54,-178.57"/>
<polygon fill="#63b8ff" stroke="#63b8ff" points="1035.23,-389.44 1025.32,-393.2 1035.41,-396.44 1035.23,-389.44"/>
</a>
</g>
</g>
<!-- Node15 -->
<g id="Node000015" class="node">
<title>Node15</title>
<g id="a_Node000015"><a xlink:href="dg__operator__implicit_8hpp.html" target="_top" xlink:title=" ">
<polygon fill="white" stroke="#666666" points="930,-261 804,-261 804,-220 930,-220 930,-261"/>
<text text-anchor="start" x="812" y="-249" font-family="Helvetica,sans-Serif" font-size="10.00">include/meltpooldg</text>
<text text-anchor="start" x="812" y="-238" font-family="Helvetica,sans-Serif" font-size="10.00">/compressible_flow/dg</text>
<text text-anchor="middle" x="867" y="-227" font-family="Helvetica,sans-Serif" font-size="10.00">_operator_implicit.hpp</text>
</a>
</g>
</g>
<!-- Node11&#45;&gt;Node15 -->
<g id="edge40_Node000011_Node000015" class="edge">
<title>Node11&#45;&gt;Node15</title>
<g id="a_edge40_Node000011_Node000015"><a xlink:title=" ">
<path fill="none" stroke="#63b8ff" d="M924.71,-365.27C918.97,-356.71 912.94,-347.15 908,-338 894.17,-312.37 881.61,-281.08 874.14,-261.22"/>
<polygon fill="#63b8ff" stroke="#63b8ff" points="921.99,-367.5 930.54,-373.76 927.77,-363.54 921.99,-367.5"/>
</a>
</g>
</g>
<!-- Node16 -->
<g id="Node000016" class="node">
<title>Node16</title>
<g id="a_Node000016"><a xlink:href="dg__operator__implicit_8cpp.html" target="_top" xlink:title=" ">
<polygon fill="white" stroke="#666666" points="959,-178.5 793,-178.5 793,-148.5 959,-148.5 959,-178.5"/>
<text text-anchor="start" x="801" y="-166.5" font-family="Helvetica,sans-Serif" font-size="10.00">source/compressible</text>
<text text-anchor="middle" x="876" y="-155.5" font-family="Helvetica,sans-Serif" font-size="10.00">_flow/dg_operator_implicit.cpp</text>
</a>
</g>
</g>
<!-- Node11&#45;&gt;Node16 -->
<g id="edge47_Node000011_Node000016" class="edge">
<title>Node11&#45;&gt;Node16</title>
<g id="a_edge47_Node000011_Node000016"><a xlink:title=" ">
<path fill="none" stroke="#63b8ff" d="M854.38,-388.32C819.78,-381.38 783.51,-367 762,-338 730.76,-295.88 734.19,-264.47 762,-220 774.55,-199.94 796.66,-186.94 818.09,-178.61"/>
<polygon fill="#63b8ff" stroke="#63b8ff" points="854.09,-391.83 864.56,-390.17 855.34,-384.94 854.09,-391.83"/>
</a>
</g>
</g>
<!-- Node17 -->
<g id="Node000017" class="node">
<title>Node17</title>
<g id="a_Node000017"><a xlink:href="dg__operator__implicit__explicit_8hpp.html" target="_top" xlink:title=" ">
<polygon fill="white" stroke="#666666" points="1282.5,-261 1115.5,-261 1115.5,-220 1282.5,-220 1282.5,-261"/>
<text text-anchor="start" x="1123.5" y="-249" font-family="Helvetica,sans-Serif" font-size="10.00">include/meltpooldg</text>
<text text-anchor="start" x="1123.5" y="-238" font-family="Helvetica,sans-Serif" font-size="10.00">/compressible_flow/dg</text>
<text text-anchor="middle" x="1199" y="-227" font-family="Helvetica,sans-Serif" font-size="10.00">_operator_implicit_explicit.hpp</text>
</a>
</g>
</g>
<!-- Node11&#45;&gt;Node17 -->
<g id="edge41_Node000011_Node000017" class="edge">
<title>Node11&#45;&gt;Node17</title>
<g id="a_edge41_Node000011_Node000017"><a xlink:title=" ">
<path fill="none" stroke="#63b8ff" d="M1022.99,-370.52C1046.37,-362 1071.5,-351.14 1093,-338 1128.04,-316.58 1161.94,-282.69 1181.62,-261.29"/>
<polygon fill="#63b8ff" stroke="#63b8ff" points="1021.7,-367.27 1013.44,-373.91 1024.04,-373.86 1021.7,-367.27"/>
</a>
</g>
</g>
<!-- Node18 -->
<g id="Node000018" class="node">
<title>Node18</title>
<g id="a_Node000018"><a xlink:href="dg__operator__implicit__explicit_8cpp.html" target="_top" xlink:title=" ">
<polygon fill="white" stroke="#666666" points="1123,-184 977,-184 977,-143 1123,-143 1123,-184"/>
<text text-anchor="start" x="985" y="-172" font-family="Helvetica,sans-Serif" font-size="10.00">source/compressible</text>
<text text-anchor="start" x="985" y="-161" font-family="Helvetica,sans-Serif" font-size="10.00">_flow/dg_operator_implicit</text>
<text text-anchor="middle" x="1050" y="-150" font-family="Helvetica,sans-Serif" font-size="10.00">_explicit.cpp</text>
</a>
</g>
</g>
<!-- Node11&#45;&gt;Node18 -->
<g id="edge48_Node000011_Node000018" class="edge">
<title>Node11&#45;&gt;Node18</title>
<g id="a_edge48_Node000011_Node000018"><a xlink:title=" ">
<path fill="none" stroke="#63b8ff" d="M896.74,-368.9C837.76,-335.63 750.91,-274.21 795,-220 844.55,-159.07 891.35,-201.09 968,-184 970.86,-183.36 973.77,-182.71 976.71,-182.04"/>
<polygon fill="#63b8ff" stroke="#63b8ff" points="895.14,-372.01 905.59,-373.8 898.53,-365.89 895.14,-372.01"/>
</a>
</g>
</g>
<!-- Node20 -->
<g id="Node000020" class="node">
<title>Node20</title>
<g id="a_Node000020"><a xlink:href="cutdg__operator_8hpp.html" target="_top" xlink:title=" ">
<polygon fill="white" stroke="#666666" points="1429,-184 1289,-184 1289,-143 1429,-143 1429,-184"/>
<text text-anchor="start" x="1297" y="-172" font-family="Helvetica,sans-Serif" font-size="10.00">include/meltpooldg</text>
<text text-anchor="start" x="1297" y="-161" font-family="Helvetica,sans-Serif" font-size="10.00">/compressible_flow/cutdg</text>
<text text-anchor="middle" x="1359" y="-150" font-family="Helvetica,sans-Serif" font-size="10.00">_operator.hpp</text>
</a>
</g>
</g>
<!-- Node11&#45;&gt;Node20 -->
<g id="edge36_Node000011_Node000020" class="edge">
<title>Node11&#45;&gt;Node20</title>
<g id="a_edge36_Node000011_Node000020"><a xlink:title=" ">
<path fill="none" stroke="#63b8ff" d="M1035.4,-387.42C1147.81,-379 1332.74,-362.05 1397,-338 1454.26,-316.57 1482.31,-314.99 1511,-261 1519.55,-244.91 1521.44,-234.93 1511,-220 1500.9,-205.55 1464.17,-191.93 1429.35,-181.8"/>
<polygon fill="#63b8ff" stroke="#63b8ff" points="1034.8,-383.96 1025.09,-388.19 1035.32,-390.94 1034.8,-383.96"/>
</a>
</g>
</g>
<!-- Node22 -->
<g id="Node000022" class="node">
<title>Node22</title>
<g id="a_Node000022"><a xlink:href="cutdg__operator_8cpp.html" target="_top" xlink:title=" ">
<polygon fill="white" stroke="#666666" points="1644,-101.5 1506,-101.5 1506,-71.5 1644,-71.5 1644,-101.5"/>
<text text-anchor="start" x="1514" y="-89.5" font-family="Helvetica,sans-Serif" font-size="10.00">source/compressible</text>
<text text-anchor="middle" x="1575" y="-78.5" font-family="Helvetica,sans-Serif" font-size="10.00">_flow/cutdg_operator.cpp</text>
</a>
</g>
</g>
<!-- Node11&#45;&gt;Node22 -->
<g id="edge44_Node000011_Node000022" class="edge">
<title>Node11&#45;&gt;Node22</title>
<g id="a_edge44_Node000011_Node000022"><a xlink:title=" ">
<path fill="none" stroke="#63b8ff" d="M1035.53,-388.13C1181.24,-378.94 1455.51,-359.11 1495,-338 1573.24,-296.18 1592.01,-267.49 1622,-184 1628.16,-166.85 1628.27,-160.11 1622,-143 1616,-126.64 1602.81,-111.79 1591.93,-101.58"/>
<polygon fill="#63b8ff" stroke="#63b8ff" points="1035.03,-384.66 1025.27,-388.78 1035.47,-391.65 1035.03,-384.66"/>
</a>
</g>
</g>
<!-- Node23 -->
<g id="Node000023" class="node">
<title>Node23</title>
<g id="a_Node000023"><a xlink:href="multiphase__operator_8cpp.html" target="_top" xlink:title=" ">
<polygon fill="white" stroke="#666666" points="775,-178.5 609,-178.5 609,-148.5 775,-148.5 775,-178.5"/>
<text text-anchor="start" x="617" y="-166.5" font-family="Helvetica,sans-Serif" font-size="10.00">source/compressible</text>
<text text-anchor="middle" x="692" y="-155.5" font-family="Helvetica,sans-Serif" font-size="10.00">_flow/multiphase_operator.cpp</text>
</a>
</g>
</g>
<!-- Node11&#45;&gt;Node23 -->
<g id="edge50_Node000011_Node000023" class="edge">
<title>Node11&#45;&gt;Node23</title>
<g id="a_edge50_Node000011_Node000023"><a xlink:title=" ">
<path fill="none" stroke="#63b8ff" d="M854.99,-389.38C814.33,-382.98 768.64,-368.73 738,-338 693.77,-293.65 690.64,-211.98 691.33,-178.94"/>
<polygon fill="#63b8ff" stroke="#63b8ff" points="854.54,-392.86 864.94,-390.81 855.54,-385.93 854.54,-392.86"/>
</a>
</g>
</g>
<!-- Node25 -->
<g id="Node000025" class="node">
<title>Node25</title>
<g id="a_Node000025"><a xlink:href="dg__operation_8hpp.html" target="_top" xlink:title=" ">
<polygon fill="white" stroke="#666666" points="1306.5,-338 1181.5,-338 1181.5,-297 1306.5,-297 1306.5,-338"/>
<text text-anchor="start" x="1189.5" y="-326" font-family="Helvetica,sans-Serif" font-size="10.00">include/meltpooldg</text>
<text text-anchor="start" x="1189.5" y="-315" font-family="Helvetica,sans-Serif" font-size="10.00">/compressible_flow/dg</text>
<text text-anchor="middle" x="1244" y="-304" font-family="Helvetica,sans-Serif" font-size="10.00">_operation.hpp</text>
</a>
</g>
</g>
<!-- Node11&#45;&gt;Node25 -->
<g id="edge37_Node000011_Node000025" class="edge">
<title>Node11&#45;&gt;Node25</title>
<g id="a_edge37_Node000011_Node000025"><a xlink:title=" ">
<path fill="none" stroke="#63b8ff" d="M1032.77,-371.48C1080.38,-359.54 1138.11,-345.06 1181.18,-334.26"/>
<polygon fill="#63b8ff" stroke="#63b8ff" points="1031.63,-368.16 1022.78,-373.99 1033.33,-374.95 1031.63,-368.16"/>
</a>
</g>
</g>
<!-- Node12&#45;&gt;Node13 -->
<g id="edge14_Node000012_Node000013" class="edge">
<title>Node12&#45;&gt;Node13</title>
<g id="a_edge14_Node000012_Node000013"><a xlink:title=" ">
<path fill="none" stroke="#63b8ff" d="M1094.58,-300.48C1179.53,-285.93 1302.46,-264.88 1376.17,-252.26"/>
<polygon fill="#63b8ff" stroke="#63b8ff" points="1093.94,-297.03 1084.67,-302.17 1095.12,-303.93 1093.94,-297.03"/>
</a>
</g>
</g>
<!-- Node12&#45;&gt;Node15 -->
<g id="edge17_Node000012_Node000015" class="edge">
<title>Node12&#45;&gt;Node15</title>
<g id="a_edge17_Node000012_Node000015"><a xlink:title=" ">
<path fill="none" stroke="#63b8ff" d="M957.08,-291.92C939.26,-281.95 918.96,-270.58 902.15,-261.17"/>
<polygon fill="#63b8ff" stroke="#63b8ff" points="955.71,-295.16 966.14,-296.99 959.13,-289.05 955.71,-295.16"/>
</a>
</g>
</g>
<!-- Node12&#45;&gt;Node17 -->
<g id="edge20_Node000012_Node000017" class="edge">
<title>Node12&#45;&gt;Node17</title>
<g id="a_edge20_Node000012_Node000017"><a xlink:title=" ">
<path fill="none" stroke="#63b8ff" d="M1061.97,-293.4C1089.33,-283.04 1121.26,-270.95 1147.41,-261.04"/>
<polygon fill="#63b8ff" stroke="#63b8ff" points="1060.62,-290.18 1052.51,-296.99 1063.1,-296.72 1060.62,-290.18"/>
</a>
</g>
</g>
<!-- Node19 -->
<g id="Node000019" class="node">
<title>Node19</title>
<g id="a_Node000019"><a xlink:href="explicit__time__integration__utils_8hpp.html" target="_top" xlink:title=" ">
<polygon fill="white" stroke="#666666" points="1098,-261 948,-261 948,-220 1098,-220 1098,-261"/>
<text text-anchor="start" x="956" y="-249" font-family="Helvetica,sans-Serif" font-size="10.00">include/meltpooldg</text>
<text text-anchor="start" x="956" y="-238" font-family="Helvetica,sans-Serif" font-size="10.00">/compressible_flow/explicit</text>
<text text-anchor="middle" x="1023" y="-227" font-family="Helvetica,sans-Serif" font-size="10.00">_time_integration_utils.hpp</text>
</a>
</g>
</g>
<!-- Node12&#45;&gt;Node19 -->
<g id="edge23_Node000012_Node000019" class="edge">
<title>Node12&#45;&gt;Node19</title>
<g id="a_edge23_Node000012_Node000019"><a xlink:title=" ">
<path fill="none" stroke="#63b8ff" d="M1009.66,-286.98C1012.21,-278.28 1014.94,-268.98 1017.26,-261.07"/>
<polygon fill="#63b8ff" stroke="#63b8ff" points="1006.24,-286.21 1006.78,-296.79 1012.95,-288.18 1006.24,-286.21"/>
</a>
</g>
</g>
<!-- Node24 -->
<g id="Node000024" class="node">
<title>Node24</title>
<g id="a_Node000024"><a xlink:href="multiphase__operator_8hpp.html" target="_top" xlink:title=" ">
<polygon fill="white" stroke="#666666" points="672,-261 504,-261 504,-220 672,-220 672,-261"/>
<text text-anchor="start" x="512" y="-249" font-family="Helvetica,sans-Serif" font-size="10.00">include/meltpooldg</text>
<text text-anchor="start" x="512" y="-238" font-family="Helvetica,sans-Serif" font-size="10.00">/compressible_flow/multiphase</text>
<text text-anchor="middle" x="588" y="-227" font-family="Helvetica,sans-Serif" font-size="10.00">_operator.hpp</text>
</a>
</g>
</g>
<!-- Node12&#45;&gt;Node24 -->
<g id="edge32_Node000012_Node000024" class="edge">
<title>Node12&#45;&gt;Node24</title>
<g id="a_edge32_Node000012_Node000024"><a xlink:title=" ">
<path fill="none" stroke="#63b8ff" d="M907.18,-299.46C836.49,-286.62 740.39,-269.17 672.16,-256.78"/>
<polygon fill="#63b8ff" stroke="#63b8ff" points="906.96,-302.98 917.42,-301.32 908.21,-296.09 906.96,-302.98"/>
</a>
</g>
</g>
<!-- Node13&#45;&gt;Node8 -->
<g id="edge16_Node000013_Node000008" class="edge">
<title>Node13&#45;&gt;Node8</title>
<g id="a_edge16_Node000013_Node000008"><a xlink:title=" ">
<path fill="none" stroke="#63b8ff" d="M1470.95,-213.17C1485.05,-201.55 1501.07,-188.34 1512.86,-178.63"/>
<polygon fill="#63b8ff" stroke="#63b8ff" points="1468.4,-210.73 1462.91,-219.79 1472.85,-216.14 1468.4,-210.73"/>
</a>
</g>
</g>
<!-- Node13&#45;&gt;Node14 -->
<g id="edge15_Node000013_Node000014" class="edge">
<title>Node13&#45;&gt;Node14</title>
<g id="a_edge15_Node000013_Node000014"><a xlink:title=" ">
<path fill="none" stroke="#63b8ff" d="M1368.74,-216.88C1330.04,-204.43 1283.22,-189.36 1249.75,-178.58"/>
<polygon fill="#63b8ff" stroke="#63b8ff" points="1367.8,-220.26 1378.39,-219.99 1369.94,-213.59 1367.8,-220.26"/>
</a>
</g>
</g>
<!-- Node15&#45;&gt;Node14 -->
<g id="edge18_Node000015_Node000014" class="edge">
<title>Node15&#45;&gt;Node14</title>
<g id="a_edge18_Node000015_Node000014"><a xlink:title=" ">
<path fill="none" stroke="#63b8ff" d="M940.05,-219.85C1025.8,-200.74 1049.94,-202.44 1132,-184 1139.39,-182.34 1147.16,-180.45 1154.77,-178.52"/>
<polygon fill="#63b8ff" stroke="#63b8ff" points="939.13,-216.47 930.14,-222.09 940.67,-223.3 939.13,-216.47"/>
</a>
</g>
</g>
<!-- Node15&#45;&gt;Node16 -->
<g id="edge19_Node000015_Node000016" class="edge">
<title>Node15&#45;&gt;Node16</title>
<g id="a_edge19_Node000015_Node000016"><a xlink:title=" ">
<path fill="none" stroke="#63b8ff" d="M870.59,-209.61C871.86,-199.01 873.23,-187.57 874.28,-178.86"/>
<polygon fill="#63b8ff" stroke="#63b8ff" points="867.08,-209.45 869.36,-219.79 874.03,-210.28 867.08,-209.45"/>
</a>
</g>
</g>
<!-- Node17&#45;&gt;Node14 -->
<g id="edge21_Node000017_Node000014" class="edge">
<title>Node17&#45;&gt;Node14</title>
<g id="a_edge21_Node000017_Node000014"><a xlink:title=" ">
<path fill="none" stroke="#63b8ff" d="M1201.79,-209.61C1202.78,-199.01 1203.85,-187.57 1204.66,-178.86"/>
<polygon fill="#63b8ff" stroke="#63b8ff" points="1198.28,-209.51 1200.84,-219.79 1205.25,-210.16 1198.28,-209.51"/>
</a>
</g>
</g>
<!-- Node17&#45;&gt;Node18 -->
<g id="edge22_Node000017_Node000018" class="edge">
<title>Node17&#45;&gt;Node18</title>
<g id="a_edge22_Node000017_Node000018"><a xlink:title=" ">
<path fill="none" stroke="#63b8ff" d="M1151.22,-215.45C1131.06,-205.3 1107.9,-193.64 1088.82,-184.04"/>
<polygon fill="#63b8ff" stroke="#63b8ff" points="1149.74,-218.62 1160.24,-219.99 1152.88,-212.37 1149.74,-218.62"/>
</a>
</g>
</g>
<!-- Node19&#45;&gt;Node8 -->
<g id="edge29_Node000019_Node000008" class="edge">
<title>Node19&#45;&gt;Node8</title>
<g id="a_edge29_Node000019_Node000008"><a xlink:title=" ">
<path fill="none" stroke="#63b8ff" d="M1108.24,-219.72C1254.11,-195.52 1294.73,-206.89 1438,-184 1447.67,-182.45 1457.87,-180.56 1467.8,-178.57"/>
<polygon fill="#63b8ff" stroke="#63b8ff" points="1107.3,-216.33 1098.02,-221.44 1108.46,-223.23 1107.3,-216.33"/>
</a>
</g>
</g>
<!-- Node19&#45;&gt;Node16 -->
<g id="edge30_Node000019_Node000016" class="edge">
<title>Node19&#45;&gt;Node16</title>
<g id="a_edge30_Node000019_Node000016"><a xlink:title=" ">
<path fill="none" stroke="#63b8ff" d="M975.57,-215.3C951.88,-203.22 924.04,-189.01 903.83,-178.7"/>
<polygon fill="#63b8ff" stroke="#63b8ff" points="974.26,-218.56 984.76,-219.99 977.44,-212.33 974.26,-218.56"/>
</a>
</g>
</g>
<!-- Node19&#45;&gt;Node20 -->
<g id="edge24_Node000019_Node000020" class="edge">
<title>Node19&#45;&gt;Node20</title>
<g id="a_edge24_Node000019_Node000020"><a xlink:title=" ">
<path fill="none" stroke="#63b8ff" d="M1108.17,-219.55C1184.39,-202.85 1205.54,-200.59 1279,-184 1282.21,-183.28 1285.48,-182.52 1288.79,-181.76"/>
<polygon fill="#63b8ff" stroke="#63b8ff" points="1107.09,-216.2 1098.08,-221.77 1108.6,-223.04 1107.09,-216.2"/>
</a>
</g>
</g>
<!-- Node19&#45;&gt;Node23 -->
<g id="edge31_Node000019_Node000023" class="edge">
<title>Node19&#45;&gt;Node23</title>
<g id="a_edge31_Node000019_Node000023"><a xlink:title=" ">
<path fill="none" stroke="#63b8ff" d="M937.85,-219.74C869.78,-204.22 802.56,-189.15 754.97,-178.52"/>
<polygon fill="#63b8ff" stroke="#63b8ff" points="937.37,-223.22 947.9,-222.04 938.93,-216.4 937.37,-223.22"/>
</a>
</g>
</g>
<!-- Node20&#45;&gt;Node7 -->
<g id="edge27_Node000020_Node000007" class="edge">
<title>Node20&#45;&gt;Node7</title>
<g id="a_edge27_Node000020_Node000007"><a xlink:title=" ">
<path fill="none" stroke="#63b8ff" d="M1321.57,-136C1312.86,-127.79 1304.75,-117.98 1300,-107 1292.77,-90.27 1295.14,-83.56 1300,-66 1303.62,-52.93 1311.67,-39.84 1318.52,-30.34"/>
<polygon fill="#63b8ff" stroke="#63b8ff" points="1319.48,-138.83 1329.31,-142.79 1324.1,-133.57 1319.48,-138.83"/>
</a>
</g>
</g>
<!-- Node21 -->
<g id="Node000021" class="node">
<title>Node21</title>
<g id="a_Node000021"><a xlink:href="cutdg__operation_8hpp.html" target="_top" xlink:title=" ">
<polygon fill="white" stroke="#666666" points="1449,-107 1309,-107 1309,-66 1449,-66 1449,-107"/>
<text text-anchor="start" x="1317" y="-95" font-family="Helvetica,sans-Serif" font-size="10.00">include/meltpooldg</text>
<text text-anchor="start" x="1317" y="-84" font-family="Helvetica,sans-Serif" font-size="10.00">/compressible_flow/cutdg</text>
<text text-anchor="middle" x="1379" y="-73" font-family="Helvetica,sans-Serif" font-size="10.00">_operation.hpp</text>
</a>
</g>
</g>
<!-- Node20&#45;&gt;Node21 -->
<g id="edge25_Node000020_Node000021" class="edge">
<title>Node20&#45;&gt;Node21</title>
<g id="a_edge25_Node000020_Node000021"><a xlink:title=" ">
<path fill="none" stroke="#63b8ff" d="M1366.87,-132.98C1369.19,-124.28 1371.67,-114.98 1373.78,-107.07"/>
<polygon fill="#63b8ff" stroke="#63b8ff" points="1363.45,-132.23 1364.25,-142.79 1370.21,-134.03 1363.45,-132.23"/>
</a>
</g>
</g>
<!-- Node20&#45;&gt;Node22 -->
<g id="edge28_Node000020_Node000022" class="edge">
<title>Node20&#45;&gt;Node22</title>
<g id="a_edge28_Node000020_Node000022"><a xlink:title=" ">
<path fill="none" stroke="#63b8ff" d="M1425.05,-139.57C1460.74,-127.17 1503.68,-112.26 1534.44,-101.58"/>
<polygon fill="#63b8ff" stroke="#63b8ff" points="1423.49,-136.4 1415.19,-142.99 1425.78,-143.02 1423.49,-136.4"/>
</a>
</g>
</g>
<!-- Node21&#45;&gt;Node7 -->
<g id="edge26_Node000021_Node000007" class="edge">
<title>Node21&#45;&gt;Node7</title>
<g id="a_edge26_Node000021_Node000007"><a xlink:title=" ">
<path fill="none" stroke="#63b8ff" d="M1359.19,-57.4C1352.55,-47.99 1345.44,-37.9 1339.9,-30.04"/>
<polygon fill="#63b8ff" stroke="#63b8ff" points="1356.47,-59.61 1365.09,-65.77 1362.19,-55.58 1356.47,-59.61"/>
</a>
</g>
</g>
<!-- Node24&#45;&gt;Node9 -->
<g id="edge33_Node000024_Node000009" class="edge">
<title>Node24&#45;&gt;Node9</title>
<g id="a_edge33_Node000024_Node000009"><a xlink:title=" ">
<path fill="none" stroke="#63b8ff" d="M533.16,-216C509.19,-205.72 481.41,-193.82 458.6,-184.04"/>
<polygon fill="#63b8ff" stroke="#63b8ff" points="531.91,-219.27 542.48,-219.99 534.66,-212.83 531.91,-219.27"/>
</a>
</g>
</g>
<!-- Node24&#45;&gt;Node10 -->
<g id="edge34_Node000024_Node000010" class="edge">
<title>Node24&#45;&gt;Node10</title>
<g id="a_edge34_Node000024_Node000010"><a xlink:title=" ">
<path fill="none" stroke="#63b8ff" d="M574.2,-210.87C563,-189.96 545.54,-162.06 524,-143 503.35,-124.72 475.6,-110.85 453.01,-101.54"/>
<polygon fill="#63b8ff" stroke="#63b8ff" points="571.19,-212.66 578.9,-219.92 577.4,-209.43 571.19,-212.66"/>
</a>
</g>
</g>
<!-- Node24&#45;&gt;Node23 -->
<g id="edge35_Node000024_Node000023" class="edge">
<title>Node24&#45;&gt;Node23</title>
<g id="a_edge35_Node000024_Node000023"><a xlink:title=" ">
<path fill="none" stroke="#63b8ff" d="M623.34,-214.01C639.7,-202.22 658.52,-188.65 672.31,-178.7"/>
<polygon fill="#63b8ff" stroke="#63b8ff" points="621.12,-211.3 615.05,-219.99 625.21,-216.98 621.12,-211.3"/>
</a>
</g>
</g>
<!-- Node25&#45;&gt;Node14 -->
<g id="edge38_Node000025_Node000014" class="edge">
<title>Node25&#45;&gt;Node14</title>
<g id="a_edge38_Node000025_Node000014"><a xlink:title=" ">
<path fill="none" stroke="#63b8ff" d="M1273.43,-289.4C1280.56,-281.06 1287.21,-271.33 1291,-261 1297.27,-243.89 1299.68,-236.02 1291,-220 1280.76,-201.09 1260.98,-187.6 1243.07,-178.66"/>
<polygon fill="#63b8ff" stroke="#63b8ff" points="1270.69,-287.2 1266.52,-296.94 1275.85,-291.93 1270.69,-287.2"/>
</a>
</g>
</g>
</g>
</svg>
