<?xml version="1.0" encoding="UTF-8" standalone="no"?>
<!DOCTYPE svg PUBLIC "-//W3C//DTD SVG 1.1//EN"
 "http://www.w3.org/Graphics/SVG/1.1/DTD/svg11.dtd">
<!-- Generated by graphviz version 2.43.0 (0)
 -->
<!-- Title: include/meltpooldg/compressible_flow/state_views_mixins.hpp Pages: 1 -->
<svg width="593pt" height="236pt"
 viewBox="0.00 0.00 593.00 236.00" xmlns="http://www.w3.org/2000/svg" xmlns:xlink="http://www.w3.org/1999/xlink">
<g id="graph0" class="graph" transform="scale(1 1) rotate(0) translate(4 232)">
<title>include/meltpooldg/compressible_flow/state_views_mixins.hpp</title>
<!-- Node1 -->
<g id="Node000001" class="node">
<title>Node1</title>
<g id="a_Node000001"><a xlink:title=" ">
<polygon fill="#999999" stroke="#666666" points="381,-228 243,-228 243,-187 381,-187 381,-228"/>
<text text-anchor="start" x="251" y="-216" font-family="Helvetica,sans-Serif" font-size="10.00">include/meltpooldg</text>
<text text-anchor="start" x="251" y="-205" font-family="Helvetica,sans-Serif" font-size="10.00">/compressible_flow/state</text>
<text text-anchor="middle" x="312" y="-194" font-family="Helvetica,sans-Serif" font-size="10.00">_views_mixins.hpp</text>
</a>
</g>
</g>
<!-- Node2 -->
<g id="Node000002" class="node">
<title>Node2</title>
<g id="a_Node000002"><a xlink:title=" ">
<polygon fill="#e0e0e0" stroke="#999999" points="124,-151 0,-151 0,-121 124,-121 124,-151"/>
<text text-anchor="start" x="8" y="-139" font-family="Helvetica,sans-Serif" font-size="10.00">deal.II/base/exception</text>
<text text-anchor="middle" x="62" y="-128" font-family="Helvetica,sans-Serif" font-size="10.00">_macros.h</text>
</a>
</g>
</g>
<!-- Node1&#45;&gt;Node2 -->
<g id="edge1_Node000001_Node000002" class="edge">
<title>Node1&#45;&gt;Node2</title>
<g id="a_edge1_Node000001_Node000002"><a xlink:title=" ">
<path fill="none" stroke="#63b8ff" d="M242.69,-187.23C204.92,-176.73 158.61,-163.86 122.33,-153.77"/>
<polygon fill="#63b8ff" stroke="#63b8ff" points="122.95,-150.31 112.38,-151.01 121.08,-157.06 122.95,-150.31"/>
</a>
</g>
</g>
<!-- Node3 -->
<g id="Node000003" class="node">
<title>Node3</title>
<g id="a_Node000003"><a xlink:title=" ">
<polygon fill="#e0e0e0" stroke="#999999" points="182.5,-19 67.5,-19 67.5,0 182.5,0 182.5,-19"/>
<text text-anchor="middle" x="125" y="-7" font-family="Helvetica,sans-Serif" font-size="10.00">deal.II/base/tensor.h</text>
</a>
</g>
</g>
<!-- Node1&#45;&gt;Node3 -->
<g id="edge2_Node000001_Node000003" class="edge">
<title>Node1&#45;&gt;Node3</title>
<g id="a_edge2_Node000001_Node000003"><a xlink:title=" ">
<path fill="none" stroke="#63b8ff" d="M279.56,-186.93C264.58,-177.11 247.04,-164.45 233,-151 191.86,-111.59 153.73,-55.69 135.78,-27.77"/>
<polygon fill="#63b8ff" stroke="#63b8ff" points="138.61,-25.7 130.3,-19.13 132.7,-29.45 138.61,-25.7"/>
</a>
</g>
</g>
<!-- Node4 -->
<g id="Node000004" class="node">
<title>Node4</title>
<g id="a_Node000004"><a xlink:title=" ">
<polygon fill="#e0e0e0" stroke="#999999" points="507.5,-19 358.5,-19 358.5,0 507.5,0 507.5,-19"/>
<text text-anchor="middle" x="433" y="-7" font-family="Helvetica,sans-Serif" font-size="10.00">deal.II/base/vectorization.h</text>
</a>
</g>
</g>
<!-- Node1&#45;&gt;Node4 -->
<g id="edge3_Node000001_Node000004" class="edge">
<title>Node1&#45;&gt;Node4</title>
<g id="a_edge3_Node000001_Node000004"><a xlink:title=" ">
<path fill="none" stroke="#63b8ff" d="M350.48,-186.77C364.99,-177.63 380.51,-165.55 391,-151 418.08,-113.42 427.88,-58.29 431.29,-29.54"/>
<polygon fill="#63b8ff" stroke="#63b8ff" points="434.8,-29.58 432.36,-19.27 427.84,-28.86 434.8,-29.58"/>
</a>
</g>
</g>
<!-- Node5 -->
<g id="Node000005" class="node">
<title>Node5</title>
<g id="a_Node000005"><a xlink:href="data__types_8hpp.html" target="_top" xlink:title=" ">
<polygon fill="white" stroke="#666666" points="382,-151 242,-151 242,-121 382,-121 382,-151"/>
<text text-anchor="start" x="250" y="-139" font-family="Helvetica,sans-Serif" font-size="10.00">meltpooldg/compressible</text>
<text text-anchor="middle" x="312" y="-128" font-family="Helvetica,sans-Serif" font-size="10.00">_flow/data_types.hpp</text>
</a>
</g>
</g>
<!-- Node1&#45;&gt;Node5 -->
<g id="edge4_Node000001_Node000005" class="edge">
<title>Node1&#45;&gt;Node5</title>
<g id="a_edge4_Node000001_Node000005"><a xlink:title=" ">
<path fill="none" stroke="#63b8ff" d="M312,-186.77C312,-178.85 312,-169.63 312,-161.3"/>
<polygon fill="#63b8ff" stroke="#63b8ff" points="315.5,-161.04 312,-151.04 308.5,-161.04 315.5,-161.04"/>
</a>
</g>
</g>
<!-- Node6 -->
<g id="Node000006" class="node">
<title>Node6</title>
<g id="a_Node000006"><a xlink:href="concepts_8hpp.html" target="_top" xlink:title=" ">
<polygon fill="white" stroke="#666666" points="574,-85 462,-85 462,-55 574,-55 574,-85"/>
<text text-anchor="start" x="470" y="-73" font-family="Helvetica,sans-Serif" font-size="10.00">meltpooldg/utilities</text>
<text text-anchor="middle" x="518" y="-62" font-family="Helvetica,sans-Serif" font-size="10.00">/concepts.hpp</text>
</a>
</g>
</g>
<!-- Node1&#45;&gt;Node6 -->
<g id="edge15_Node000001_Node000006" class="edge">
<title>Node1&#45;&gt;Node6</title>
<g id="a_edge15_Node000001_Node000006"><a xlink:title=" ">
<path fill="none" stroke="#63b8ff" d="M377.1,-186.94C400.68,-178.1 426.72,-166.18 448,-151 470,-135.3 489.74,-111.38 502.61,-93.78"/>
<polygon fill="#63b8ff" stroke="#63b8ff" points="505.74,-95.41 508.68,-85.23 500.04,-91.36 505.74,-95.41"/>
</a>
</g>
</g>
<!-- Node5&#45;&gt;Node3 -->
<g id="edge5_Node000005_Node000003" class="edge">
<title>Node5&#45;&gt;Node3</title>
<g id="a_edge5_Node000005_Node000003"><a xlink:title=" ">
<path fill="none" stroke="#63b8ff" d="M288.7,-120.86C272.64,-111.01 250.86,-97.45 232,-85 201.42,-64.82 166.73,-40.37 145.36,-25.12"/>
<polygon fill="#63b8ff" stroke="#63b8ff" points="147.23,-22.16 137.06,-19.19 143.16,-27.85 147.23,-22.16"/>
</a>
</g>
</g>
<!-- Node5&#45;&gt;Node4 -->
<g id="edge6_Node000005_Node000004" class="edge">
<title>Node5&#45;&gt;Node4</title>
<g id="a_edge6_Node000005_Node000004"><a xlink:title=" ">
<path fill="none" stroke="#63b8ff" d="M333.08,-121C346.4,-111.63 363.59,-98.56 377,-85 394.53,-67.28 411.23,-43.91 421.77,-28.11"/>
<polygon fill="#63b8ff" stroke="#63b8ff" points="424.94,-29.65 427.48,-19.36 419.08,-25.82 424.94,-29.65"/>
</a>
</g>
</g>
<!-- Node5&#45;&gt;Node6 -->
<g id="edge7_Node000005_Node000006" class="edge">
<title>Node5&#45;&gt;Node6</title>
<g id="a_edge7_Node000005_Node000006"><a xlink:title=" ">
<path fill="none" stroke="#63b8ff" d="M357.21,-120.95C388.33,-111.28 429.87,-98.38 462.93,-88.11"/>
<polygon fill="#63b8ff" stroke="#63b8ff" points="464.39,-91.32 472.9,-85.01 462.31,-84.64 464.39,-91.32"/>
</a>
</g>
</g>
<!-- Node8 -->
<g id="Node000008" class="node">
<title>Node8</title>
<g id="a_Node000008"><a xlink:href="dealii__tensor_8hpp.html" target="_top" xlink:title=" ">
<polygon fill="white" stroke="#666666" points="368,-85 256,-85 256,-55 368,-55 368,-85"/>
<text text-anchor="start" x="264" y="-73" font-family="Helvetica,sans-Serif" font-size="10.00">meltpooldg/utilities</text>
<text text-anchor="middle" x="312" y="-62" font-family="Helvetica,sans-Serif" font-size="10.00">/dealii_tensor.hpp</text>
</a>
</g>
</g>
<!-- Node5&#45;&gt;Node8 -->
<g id="edge9_Node000005_Node000008" class="edge">
<title>Node5&#45;&gt;Node8</title>
<g id="a_edge9_Node000005_Node000008"><a xlink:title=" ">
<path fill="none" stroke="#63b8ff" d="M312,-120.8C312,-113.34 312,-103.99 312,-95.41"/>
<polygon fill="#63b8ff" stroke="#63b8ff" points="315.5,-95.16 312,-85.16 308.5,-95.16 315.5,-95.16"/>
</a>
</g>
</g>
<!-- Node10 -->
<g id="Node000010" class="node">
<title>Node10</title>
<g id="a_Node000010"><a xlink:title=" ">
<polygon fill="#e0e0e0" stroke="#999999" points="269.5,-19 200.5,-19 200.5,0 269.5,0 269.5,-19"/>
<text text-anchor="middle" x="235" y="-7" font-family="Helvetica,sans-Serif" font-size="10.00">type_traits</text>
</a>
</g>
</g>
<!-- Node5&#45;&gt;Node10 -->
<g id="edge14_Node000005_Node000010" class="edge">
<title>Node5&#45;&gt;Node10</title>
<g id="a_edge14_Node000005_Node000010"><a xlink:title=" ">
<path fill="none" stroke="#63b8ff" d="M285.19,-120.92C271.57,-112.37 256.04,-100.17 247,-85 236.96,-68.16 234.56,-45.54 234.3,-29.66"/>
<polygon fill="#63b8ff" stroke="#63b8ff" points="237.8,-29.51 234.4,-19.47 230.8,-29.43 237.8,-29.51"/>
</a>
</g>
</g>
<!-- Node7 -->
<g id="Node000007" class="node">
<title>Node7</title>
<g id="a_Node000007"><a xlink:title=" ">
<polygon fill="#e0e0e0" stroke="#999999" points="585,-19 525,-19 525,0 585,0 585,-19"/>
<text text-anchor="middle" x="555" y="-7" font-family="Helvetica,sans-Serif" font-size="10.00">concepts</text>
</a>
</g>
</g>
<!-- Node6&#45;&gt;Node7 -->
<g id="edge8_Node000006_Node000007" class="edge">
<title>Node6&#45;&gt;Node7</title>
<g id="a_edge8_Node000006_Node000007"><a xlink:title=" ">
<path fill="none" stroke="#63b8ff" d="M526.96,-54.84C532.11,-46.69 538.62,-36.4 544.07,-27.78"/>
<polygon fill="#63b8ff" stroke="#63b8ff" points="547.07,-29.59 549.46,-19.27 541.15,-25.85 547.07,-29.59"/>
</a>
</g>
</g>
<!-- Node8&#45;&gt;Node3 -->
<g id="edge10_Node000008_Node000003" class="edge">
<title>Node8&#45;&gt;Node3</title>
<g id="a_edge10_Node000008_Node000003"><a xlink:title=" ">
<path fill="none" stroke="#63b8ff" d="M267.21,-54.99C235.08,-44.94 192.3,-31.55 162.08,-22.1"/>
<polygon fill="#63b8ff" stroke="#63b8ff" points="162.93,-18.7 152.34,-19.05 160.84,-25.38 162.93,-18.7"/>
</a>
</g>
</g>
<!-- Node8&#45;&gt;Node4 -->
<g id="edge11_Node000008_Node000004" class="edge">
<title>Node8&#45;&gt;Node4</title>
<g id="a_edge11_Node000008_Node000004"><a xlink:title=" ">
<path fill="none" stroke="#63b8ff" d="M340.98,-54.99C360.72,-45.45 386.67,-32.9 405.97,-23.57"/>
<polygon fill="#63b8ff" stroke="#63b8ff" points="407.65,-26.64 415.13,-19.14 404.6,-20.34 407.65,-26.64"/>
</a>
</g>
</g>
<!-- Node9 -->
<g id="Node000009" class="node">
<title>Node9</title>
<g id="a_Node000009"><a xlink:title=" ">
<polygon fill="#e0e0e0" stroke="#999999" points="340.5,-19 287.5,-19 287.5,0 340.5,0 340.5,-19"/>
<text text-anchor="middle" x="314" y="-7" font-family="Helvetica,sans-Serif" font-size="10.00">cstddef</text>
</a>
</g>
</g>
<!-- Node8&#45;&gt;Node9 -->
<g id="edge12_Node000008_Node000009" class="edge">
<title>Node8&#45;&gt;Node9</title>
<g id="a_edge12_Node000008_Node000009"><a xlink:title=" ">
<path fill="none" stroke="#63b8ff" d="M312.48,-54.84C312.74,-47.21 313.07,-37.7 313.35,-29.45"/>
<polygon fill="#63b8ff" stroke="#63b8ff" points="316.86,-29.38 313.7,-19.27 309.86,-29.14 316.86,-29.38"/>
</a>
</g>
</g>
<!-- Node8&#45;&gt;Node10 -->
<g id="edge13_Node000008_Node000010" class="edge">
<title>Node8&#45;&gt;Node10</title>
<g id="a_edge13_Node000008_Node000010"><a xlink:title=" ">
<path fill="none" stroke="#63b8ff" d="M293.36,-54.84C281.61,-45.91 266.47,-34.41 254.55,-25.35"/>
<polygon fill="#63b8ff" stroke="#63b8ff" points="256.62,-22.53 246.54,-19.27 252.38,-28.1 256.62,-22.53"/>
</a>
</g>
</g>
</g>
</svg>
