<?xml version="1.0" encoding="UTF-8" standalone="no"?>
<!DOCTYPE svg PUBLIC "-//W3C//DTD SVG 1.1//EN"
 "http://www.w3.org/Graphics/SVG/1.1/DTD/svg11.dtd">
<!-- Generated by graphviz version 2.43.0 (0)
 -->
<!-- Title: include/meltpooldg/utilities/constraints.hpp Pages: 1 -->
<svg width="3005pt" height="302pt"
 viewBox="0.00 0.00 3004.50 302.00" xmlns="http://www.w3.org/2000/svg" xmlns:xlink="http://www.w3.org/1999/xlink">
<g id="graph0" class="graph" transform="scale(1 1) rotate(0) translate(4 298)">
<title>include/meltpooldg/utilities/constraints.hpp</title>
<!-- Node1 -->
<g id="Node000001" class="node">
<title>Node1</title>
<g id="a_Node000001"><a xlink:title=" ">
<polygon fill="#999999" stroke="#666666" points="612,-294 478,-294 478,-264 612,-264 612,-294"/>
<text text-anchor="start" x="486" y="-282" font-family="Helvetica,sans-Serif" font-size="10.00">include/meltpooldg</text>
<text text-anchor="middle" x="545" y="-271" font-family="Helvetica,sans-Serif" font-size="10.00">/utilities/constraints.hpp</text>
</a>
</g>
</g>
<!-- Node2 -->
<g id="Node000002" class="node">
<title>Node2</title>
<g id="a_Node000002"><a xlink:title=" ">
<polygon fill="#e0e0e0" stroke="#999999" points="371,-222.5 243,-222.5 243,-203.5 371,-203.5 371,-222.5"/>
<text text-anchor="middle" x="307" y="-210.5" font-family="Helvetica,sans-Serif" font-size="10.00">deal.II/dofs/dof_tools.h</text>
</a>
</g>
</g>
<!-- Node1&#45;&gt;Node2 -->
<g id="edge1_Node000001_Node000002" class="edge">
<title>Node1&#45;&gt;Node2</title>
<g id="a_edge1_Node000001_Node000002"><a xlink:title=" ">
<path fill="none" stroke="#63b8ff" d="M492.77,-263.95C449.38,-252.29 388.47,-235.91 348.39,-225.13"/>
<polygon fill="#63b8ff" stroke="#63b8ff" points="349.24,-221.73 338.67,-222.52 347.42,-228.49 349.24,-221.73"/>
</a>
</g>
</g>
<!-- Node3 -->
<g id="Node000003" class="node">
<title>Node3</title>
<g id="a_Node000003"><a xlink:title=" ">
<polygon fill="#e0e0e0" stroke="#999999" points="517,-228 389,-228 389,-198 517,-198 517,-228"/>
<text text-anchor="start" x="397" y="-216" font-family="Helvetica,sans-Serif" font-size="10.00">deal.II/numerics/vector</text>
<text text-anchor="middle" x="453" y="-205" font-family="Helvetica,sans-Serif" font-size="10.00">_tools.h</text>
</a>
</g>
</g>
<!-- Node1&#45;&gt;Node3 -->
<g id="edge2_Node000001_Node000003" class="edge">
<title>Node1&#45;&gt;Node3</title>
<g id="a_edge2_Node000001_Node000003"><a xlink:title=" ">
<path fill="none" stroke="#63b8ff" d="M524.58,-263.8C511.96,-255.01 495.56,-243.61 481.65,-233.93"/>
<polygon fill="#63b8ff" stroke="#63b8ff" points="483.57,-231 473.36,-228.16 479.57,-236.75 483.57,-231"/>
</a>
</g>
</g>
<!-- Node4 -->
<g id="Node000004" class="node">
<title>Node4</title>
<g id="a_Node000004"><a xlink:href="periodic__boundary__conditions_8hpp.html" target="_top" xlink:title=" ">
<polygon fill="white" stroke="#666666" points="388,-162 244,-162 244,-132 388,-132 388,-162"/>
<text text-anchor="start" x="252" y="-150" font-family="Helvetica,sans-Serif" font-size="10.00">meltpooldg/core/periodic</text>
<text text-anchor="middle" x="316" y="-139" font-family="Helvetica,sans-Serif" font-size="10.00">_boundary_conditions.hpp</text>
</a>
</g>
</g>
<!-- Node1&#45;&gt;Node4 -->
<g id="edge3_Node000001_Node000004" class="edge">
<title>Node1&#45;&gt;Node4</title>
<g id="a_edge3_Node000001_Node000004"><a xlink:title=" ">
<path fill="none" stroke="#63b8ff" d="M545.81,-263.73C546,-245.86 543.46,-215.47 526,-198 507.84,-179.83 448.89,-166.78 398.06,-158.58"/>
<polygon fill="#63b8ff" stroke="#63b8ff" points="398.44,-155.09 388.01,-157 397.35,-162.01 398.44,-155.09"/>
</a>
</g>
</g>
<!-- Node8 -->
<g id="Node000008" class="node">
<title>Node8</title>
<g id="a_Node000008"><a xlink:href="scratch__data_8hpp.html" target="_top" xlink:title=" ">
<polygon fill="white" stroke="#666666" points="1583,-228 1449,-228 1449,-198 1583,-198 1583,-228"/>
<text text-anchor="start" x="1457" y="-216" font-family="Helvetica,sans-Serif" font-size="10.00">meltpooldg/core/scratch</text>
<text text-anchor="middle" x="1516" y="-205" font-family="Helvetica,sans-Serif" font-size="10.00">_data.hpp</text>
</a>
</g>
</g>
<!-- Node1&#45;&gt;Node8 -->
<g id="edge7_Node000001_Node000008" class="edge">
<title>Node1&#45;&gt;Node8</title>
<g id="a_edge7_Node000001_Node000008"><a xlink:title=" ">
<path fill="none" stroke="#63b8ff" d="M612.12,-273.58C786.55,-262.08 1253.38,-231.31 1438.66,-219.1"/>
<polygon fill="#63b8ff" stroke="#63b8ff" points="1439.12,-222.58 1448.87,-218.42 1438.66,-215.59 1439.12,-222.58"/>
</a>
</g>
</g>
<!-- Node45 -->
<g id="Node000045" class="node">
<title>Node45</title>
<g id="a_Node000045"><a xlink:href="utilities_2utility__functions_8hpp.html" target="_top" xlink:title=" ">
<polygon fill="white" stroke="#666666" points="642.5,-162 523.5,-162 523.5,-132 642.5,-132 642.5,-162"/>
<text text-anchor="start" x="531.5" y="-150" font-family="Helvetica,sans-Serif" font-size="10.00">meltpooldg/utilities</text>
<text text-anchor="middle" x="583" y="-139" font-family="Helvetica,sans-Serif" font-size="10.00">/utility_functions.hpp</text>
</a>
</g>
</g>
<!-- Node1&#45;&gt;Node45 -->
<g id="edge50_Node000001_Node000045" class="edge">
<title>Node1&#45;&gt;Node45</title>
<g id="a_edge50_Node000001_Node000045"><a xlink:title=" ">
<path fill="none" stroke="#63b8ff" d="M549.14,-263.84C555.59,-241.76 568.13,-198.89 576,-171.94"/>
<polygon fill="#63b8ff" stroke="#63b8ff" points="579.42,-172.72 578.87,-162.14 572.7,-170.76 579.42,-172.72"/>
</a>
</g>
</g>
<!-- Node5 -->
<g id="Node000005" class="node">
<title>Node5</title>
<g id="a_Node000005"><a xlink:title=" ">
<polygon fill="#e0e0e0" stroke="#999999" points="268,-90.5 130,-90.5 130,-71.5 268,-71.5 268,-90.5"/>
<text text-anchor="middle" x="199" y="-78.5" font-family="Helvetica,sans-Serif" font-size="10.00">deal.II/base/exceptions.h</text>
</a>
</g>
</g>
<!-- Node4&#45;&gt;Node5 -->
<g id="edge4_Node000004_Node000005" class="edge">
<title>Node4&#45;&gt;Node5</title>
<g id="a_edge4_Node000004_Node000005"><a xlink:title=" ">
<path fill="none" stroke="#63b8ff" d="M290.32,-131.95C270.44,-121.08 243.07,-106.11 223.49,-95.4"/>
<polygon fill="#63b8ff" stroke="#63b8ff" points="225.02,-92.25 214.57,-90.52 221.66,-98.39 225.02,-92.25"/>
</a>
</g>
</g>
<!-- Node6 -->
<g id="Node000006" class="node">
<title>Node6</title>
<g id="a_Node000006"><a xlink:title=" ">
<polygon fill="#e0e0e0" stroke="#999999" points="112,-90.5 0,-90.5 0,-71.5 112,-71.5 112,-90.5"/>
<text text-anchor="middle" x="56" y="-78.5" font-family="Helvetica,sans-Serif" font-size="10.00">deal.II/base/types.h</text>
</a>
</g>
</g>
<!-- Node4&#45;&gt;Node6 -->
<g id="edge5_Node000004_Node000006" class="edge">
<title>Node4&#45;&gt;Node6</title>
<g id="a_edge5_Node000004_Node000006"><a xlink:title=" ">
<path fill="none" stroke="#63b8ff" d="M258.94,-131.95C211.24,-120.21 144.15,-103.7 100.38,-92.93"/>
<polygon fill="#63b8ff" stroke="#63b8ff" points="101.15,-89.51 90.6,-90.52 99.48,-96.31 101.15,-89.51"/>
</a>
</g>
</g>
<!-- Node7 -->
<g id="Node000007" class="node">
<title>Node7</title>
<g id="a_Node000007"><a xlink:title=" ">
<polygon fill="#e0e0e0" stroke="#999999" points="1173.5,-90.5 1126.5,-90.5 1126.5,-71.5 1173.5,-71.5 1173.5,-90.5"/>
<text text-anchor="middle" x="1150" y="-78.5" font-family="Helvetica,sans-Serif" font-size="10.00">vector</text>
</a>
</g>
</g>
<!-- Node4&#45;&gt;Node7 -->
<g id="edge6_Node000004_Node000007" class="edge">
<title>Node4&#45;&gt;Node7</title>
<g id="a_edge6_Node000004_Node000007"><a xlink:title=" ">
<path fill="none" stroke="#63b8ff" d="M388.14,-140.89C560.31,-128.7 983.21,-98.69 1014,-96 1048.86,-92.96 1088.67,-88.78 1116.17,-85.78"/>
<polygon fill="#63b8ff" stroke="#63b8ff" points="1116.88,-89.22 1126.43,-84.65 1116.11,-82.26 1116.88,-89.22"/>
</a>
</g>
</g>
<!-- Node8&#45;&gt;Node7 -->
<g id="edge49_Node000008_Node000007" class="edge">
<title>Node8&#45;&gt;Node7</title>
<g id="a_edge49_Node000008_Node000007"><a xlink:title=" ">
<path fill="none" stroke="#63b8ff" d="M1448.99,-204.35C1401.96,-197.35 1338.36,-184.53 1286,-162 1264.26,-152.65 1262.2,-144.33 1242,-132 1220.2,-118.69 1194.62,-104.93 1175.97,-95.22"/>
<polygon fill="#63b8ff" stroke="#63b8ff" points="1177.4,-92.02 1166.91,-90.54 1174.18,-98.24 1177.4,-92.02"/>
</a>
</g>
</g>
<!-- Node9 -->
<g id="Node000009" class="node">
<title>Node9</title>
<g id="a_Node000009"><a xlink:title=" ">
<polygon fill="#e0e0e0" stroke="#999999" points="2552.5,-162 2449.5,-162 2449.5,-132 2552.5,-132 2552.5,-162"/>
<text text-anchor="start" x="2457.5" y="-150" font-family="Helvetica,sans-Serif" font-size="10.00">deal.II/base/index</text>
<text text-anchor="middle" x="2501" y="-139" font-family="Helvetica,sans-Serif" font-size="10.00">_set.h</text>
</a>
</g>
</g>
<!-- Node8&#45;&gt;Node9 -->
<g id="edge8_Node000008_Node000009" class="edge">
<title>Node8&#45;&gt;Node9</title>
<g id="a_edge8_Node000008_Node000009"><a xlink:title=" ">
<path fill="none" stroke="#63b8ff" d="M1583.05,-212.3C1734.31,-212.12 2113.55,-206.95 2439.1,-161.94"/>
<polygon fill="#63b8ff" stroke="#63b8ff" points="2439.78,-165.38 2449.2,-160.53 2438.81,-158.44 2439.78,-165.38"/>
</a>
</g>
</g>
<!-- Node10 -->
<g id="Node000010" class="node">
<title>Node10</title>
<g id="a_Node000010"><a xlink:title=" ">
<polygon fill="#e0e0e0" stroke="#999999" points="2675,-156.5 2571,-156.5 2571,-137.5 2675,-137.5 2675,-156.5"/>
<text text-anchor="middle" x="2623" y="-144.5" font-family="Helvetica,sans-Serif" font-size="10.00">deal.II/base/mpi.h</text>
</a>
</g>
</g>
<!-- Node8&#45;&gt;Node10 -->
<g id="edge9_Node000008_Node000010" class="edge">
<title>Node8&#45;&gt;Node10</title>
<g id="a_edge9_Node000008_Node000010"><a xlink:title=" ">
<path fill="none" stroke="#63b8ff" d="M1583.27,-210.35C1783.22,-205.2 2371.76,-188.17 2562,-162 2568,-161.17 2574.28,-160.05 2580.43,-158.78"/>
<polygon fill="#63b8ff" stroke="#63b8ff" points="2581.57,-162.12 2590.59,-156.56 2580.07,-155.28 2581.57,-162.12"/>
</a>
</g>
</g>
<!-- Node11 -->
<g id="Node000011" class="node">
<title>Node11</title>
<g id="a_Node000011"><a xlink:title=" ">
<polygon fill="#e0e0e0" stroke="#999999" points="795.5,-162 660.5,-162 660.5,-132 795.5,-132 795.5,-162"/>
<text text-anchor="start" x="668.5" y="-150" font-family="Helvetica,sans-Serif" font-size="10.00">deal.II/base/mpi_remote</text>
<text text-anchor="middle" x="728" y="-139" font-family="Helvetica,sans-Serif" font-size="10.00">_point_evaluation.h</text>
</a>
</g>
</g>
<!-- Node8&#45;&gt;Node11 -->
<g id="edge10_Node000008_Node000011" class="edge">
<title>Node8&#45;&gt;Node11</title>
<g id="a_edge10_Node000008_Node000011"><a xlink:title=" ">
<path fill="none" stroke="#63b8ff" d="M1448.51,-209.78C1323.51,-205.12 1047.4,-192.25 805.92,-162.16"/>
<polygon fill="#63b8ff" stroke="#63b8ff" points="806.25,-158.67 795.89,-160.9 805.38,-165.62 806.25,-158.67"/>
</a>
</g>
</g>
<!-- Node12 -->
<g id="Node000012" class="node">
<title>Node12</title>
<g id="a_Node000012"><a xlink:title=" ">
<polygon fill="#e0e0e0" stroke="#999999" points="948.5,-156.5 813.5,-156.5 813.5,-137.5 948.5,-137.5 948.5,-156.5"/>
<text text-anchor="middle" x="881" y="-144.5" font-family="Helvetica,sans-Serif" font-size="10.00">deal.II/base/partitioner.h</text>
</a>
</g>
</g>
<!-- Node8&#45;&gt;Node12 -->
<g id="edge11_Node000008_Node000012" class="edge">
<title>Node8&#45;&gt;Node12</title>
<g id="a_edge11_Node000008_Node000012"><a xlink:title=" ">
<path fill="none" stroke="#63b8ff" d="M1448.78,-207.95C1343.73,-201.17 1134.38,-185.89 958,-162 950.24,-160.95 942.06,-159.66 934.06,-158.3"/>
<polygon fill="#63b8ff" stroke="#63b8ff" points="934.51,-154.82 924.06,-156.54 933.3,-161.72 934.51,-154.82"/>
</a>
</g>
</g>
<!-- Node13 -->
<g id="Node000013" class="node">
<title>Node13</title>
<g id="a_Node000013"><a xlink:title=" ">
<polygon fill="#e0e0e0" stroke="#999999" points="1105,-156.5 967,-156.5 967,-137.5 1105,-137.5 1105,-156.5"/>
<text text-anchor="middle" x="1036" y="-144.5" font-family="Helvetica,sans-Serif" font-size="10.00">deal.II/base/quadrature.h</text>
</a>
</g>
</g>
<!-- Node8&#45;&gt;Node13 -->
<g id="edge12_Node000008_Node000013" class="edge">
<title>Node8&#45;&gt;Node13</title>
<g id="a_edge12_Node000008_Node000013"><a xlink:title=" ">
<path fill="none" stroke="#63b8ff" d="M1448.99,-204.78C1369.06,-195.92 1231.51,-179.84 1114,-162 1106.62,-160.88 1098.87,-159.61 1091.23,-158.29"/>
<polygon fill="#63b8ff" stroke="#63b8ff" points="1091.75,-154.83 1081.3,-156.56 1090.55,-161.73 1091.75,-154.83"/>
</a>
</g>
</g>
<!-- Node14 -->
<g id="Node000014" class="node">
<title>Node14</title>
<g id="a_Node000014"><a xlink:title=" ">
<polygon fill="#e0e0e0" stroke="#999999" points="1233,-156.5 1123,-156.5 1123,-137.5 1233,-137.5 1233,-156.5"/>
<text text-anchor="middle" x="1178" y="-144.5" font-family="Helvetica,sans-Serif" font-size="10.00">deal.II/base/timer.h</text>
</a>
</g>
</g>
<!-- Node8&#45;&gt;Node14 -->
<g id="edge13_Node000008_Node000014" class="edge">
<title>Node8&#45;&gt;Node14</title>
<g id="a_edge13_Node000008_Node000014"><a xlink:title=" ">
<path fill="none" stroke="#63b8ff" d="M1448.78,-199.82C1394.33,-189.88 1315.66,-175.35 1247,-162 1241.31,-160.89 1235.36,-159.72 1229.45,-158.54"/>
<polygon fill="#63b8ff" stroke="#63b8ff" points="1230.07,-155.09 1219.57,-156.55 1228.69,-161.95 1230.07,-155.09"/>
</a>
</g>
</g>
<!-- Node15 -->
<g id="Node000015" class="node">
<title>Node15</title>
<g id="a_Node000015"><a xlink:title=" ">
<polygon fill="#e0e0e0" stroke="#999999" points="1765.5,-24.5 1616.5,-24.5 1616.5,-5.5 1765.5,-5.5 1765.5,-24.5"/>
<text text-anchor="middle" x="1691" y="-12.5" font-family="Helvetica,sans-Serif" font-size="10.00">deal.II/base/vectorization.h</text>
</a>
</g>
</g>
<!-- Node8&#45;&gt;Node15 -->
<g id="edge14_Node000008_Node000015" class="edge">
<title>Node8&#45;&gt;Node15</title>
<g id="a_edge14_Node000008_Node000015"><a xlink:title=" ">
<path fill="none" stroke="#63b8ff" d="M1455.05,-197.97C1432.25,-190.34 1407.44,-178.88 1389,-162 1355.72,-131.54 1326.55,-100.18 1356,-66 1387.7,-29.22 1517.9,-19.09 1606.33,-16.53"/>
<polygon fill="#63b8ff" stroke="#63b8ff" points="1606.45,-20.02 1616.36,-16.26 1606.27,-13.03 1606.45,-20.02"/>
</a>
</g>
</g>
<!-- Node16 -->
<g id="Node000016" class="node">
<title>Node16</title>
<g id="a_Node000016"><a xlink:title=" ">
<polygon fill="#e0e0e0" stroke="#999999" points="1769,-90.5 1629,-90.5 1629,-71.5 1769,-71.5 1769,-90.5"/>
<text text-anchor="middle" x="1699" y="-78.5" font-family="Helvetica,sans-Serif" font-size="10.00">deal.II/dofs/dof_handler.h</text>
</a>
</g>
</g>
<!-- Node8&#45;&gt;Node16 -->
<g id="edge15_Node000008_Node000016" class="edge">
<title>Node8&#45;&gt;Node16</title>
<g id="a_edge15_Node000008_Node000016"><a xlink:title=" ">
<path fill="none" stroke="#63b8ff" d="M1482.5,-198C1450.82,-182.78 1411.03,-157.26 1432,-132 1433.68,-129.97 1563.15,-106.41 1641.16,-92.36"/>
<polygon fill="#63b8ff" stroke="#63b8ff" points="1642.12,-95.75 1651.34,-90.53 1640.88,-88.86 1642.12,-95.75"/>
</a>
</g>
</g>
<!-- Node17 -->
<g id="Node000017" class="node">
<title>Node17</title>
<g id="a_Node000017"><a xlink:title=" ">
<polygon fill="#e0e0e0" stroke="#999999" points="1522.5,-156.5 1441.5,-156.5 1441.5,-137.5 1522.5,-137.5 1522.5,-156.5"/>
<text text-anchor="middle" x="1482" y="-144.5" font-family="Helvetica,sans-Serif" font-size="10.00">deal.II/fe/fe.h</text>
</a>
</g>
</g>
<!-- Node8&#45;&gt;Node17 -->
<g id="edge16_Node000008_Node000017" class="edge">
<title>Node8&#45;&gt;Node17</title>
<g id="a_edge16_Node000008_Node000017"><a xlink:title=" ">
<path fill="none" stroke="#63b8ff" d="M1508.45,-197.8C1503.47,-188.41 1496.88,-176.02 1491.53,-165.95"/>
<polygon fill="#63b8ff" stroke="#63b8ff" points="1494.48,-164.03 1486.7,-156.84 1488.3,-167.32 1494.48,-164.03"/>
</a>
</g>
</g>
<!-- Node18 -->
<g id="Node000018" class="node">
<title>Node18</title>
<g id="a_Node000018"><a xlink:title=" ">
<polygon fill="#e0e0e0" stroke="#999999" points="1308,-90.5 1194,-90.5 1194,-71.5 1308,-71.5 1308,-90.5"/>
<text text-anchor="middle" x="1251" y="-78.5" font-family="Helvetica,sans-Serif" font-size="10.00">deal.II/fe/mapping.h</text>
</a>
</g>
</g>
<!-- Node8&#45;&gt;Node18 -->
<g id="edge17_Node000008_Node000018" class="edge">
<title>Node8&#45;&gt;Node18</title>
<g id="a_edge17_Node000008_Node000018"><a xlink:title=" ">
<path fill="none" stroke="#63b8ff" d="M1448.81,-204.4C1409.87,-197.69 1361.17,-185.18 1323,-162 1296.75,-146.06 1274.53,-117.61 1261.98,-99.29"/>
<polygon fill="#63b8ff" stroke="#63b8ff" points="1264.77,-97.16 1256.33,-90.75 1258.93,-101.02 1264.77,-97.16"/>
</a>
</g>
</g>
<!-- Node19 -->
<g id="Node000019" class="node">
<title>Node19</title>
<g id="a_Node000019"><a xlink:title=" ">
<polygon fill="#e0e0e0" stroke="#999999" points="1462.5,-90.5 1365.5,-90.5 1365.5,-71.5 1462.5,-71.5 1462.5,-90.5"/>
<text text-anchor="middle" x="1414" y="-78.5" font-family="Helvetica,sans-Serif" font-size="10.00">deal.II/grid/tria.h</text>
</a>
</g>
</g>
<!-- Node8&#45;&gt;Node19 -->
<g id="edge18_Node000008_Node000019" class="edge">
<title>Node8&#45;&gt;Node19</title>
<g id="a_edge18_Node000008_Node000019"><a xlink:title=" ">
<path fill="none" stroke="#63b8ff" d="M1448.79,-198.21C1429.45,-190.79 1410.5,-179.42 1399,-162 1386.64,-143.27 1395.39,-116.99 1403.81,-99.73"/>
<polygon fill="#63b8ff" stroke="#63b8ff" points="1406.99,-101.22 1408.57,-90.74 1400.8,-97.94 1406.99,-101.22"/>
</a>
</g>
</g>
<!-- Node20 -->
<g id="Node000020" class="node">
<title>Node20</title>
<g id="a_Node000020"><a xlink:title=" ">
<polygon fill="#e0e0e0" stroke="#999999" points="1674.5,-162 1579.5,-162 1579.5,-132 1674.5,-132 1674.5,-162"/>
<text text-anchor="start" x="1587.5" y="-150" font-family="Helvetica,sans-Serif" font-size="10.00">deal.II/lac/affine</text>
<text text-anchor="middle" x="1627" y="-139" font-family="Helvetica,sans-Serif" font-size="10.00">_constraints.h</text>
</a>
</g>
</g>
<!-- Node8&#45;&gt;Node20 -->
<g id="edge19_Node000008_Node000020" class="edge">
<title>Node8&#45;&gt;Node20</title>
<g id="a_edge19_Node000008_Node000020"><a xlink:title=" ">
<path fill="none" stroke="#63b8ff" d="M1540.36,-197.95C1555.97,-188.95 1576.45,-177.14 1593.58,-167.27"/>
<polygon fill="#63b8ff" stroke="#63b8ff" points="1595.78,-170.04 1602.7,-162.01 1592.29,-163.98 1595.78,-170.04"/>
</a>
</g>
</g>
<!-- Node21 -->
<g id="Node000021" class="node">
<title>Node21</title>
<g id="a_Node000021"><a xlink:title=" ">
<polygon fill="#e0e0e0" stroke="#999999" points="1811,-162 1693,-162 1693,-132 1811,-132 1811,-162"/>
<text text-anchor="start" x="1701" y="-150" font-family="Helvetica,sans-Serif" font-size="10.00">deal.II/lac/la_parallel</text>
<text text-anchor="middle" x="1752" y="-139" font-family="Helvetica,sans-Serif" font-size="10.00">_block_vector.h</text>
</a>
</g>
</g>
<!-- Node8&#45;&gt;Node21 -->
<g id="edge20_Node000008_Node000021" class="edge">
<title>Node8&#45;&gt;Node21</title>
<g id="a_edge20_Node000008_Node000021"><a xlink:title=" ">
<path fill="none" stroke="#63b8ff" d="M1567.79,-197.95C1603.91,-188.16 1652.27,-175.05 1690.38,-164.71"/>
<polygon fill="#63b8ff" stroke="#63b8ff" points="1691.59,-168.01 1700.33,-162.01 1689.76,-161.25 1691.59,-168.01"/>
</a>
</g>
</g>
<!-- Node22 -->
<g id="Node000022" class="node">
<title>Node22</title>
<g id="a_Node000022"><a xlink:title=" ">
<polygon fill="#e0e0e0" stroke="#999999" points="1947,-162 1829,-162 1829,-132 1947,-132 1947,-162"/>
<text text-anchor="start" x="1837" y="-150" font-family="Helvetica,sans-Serif" font-size="10.00">deal.II/lac/la_parallel</text>
<text text-anchor="middle" x="1888" y="-139" font-family="Helvetica,sans-Serif" font-size="10.00">_vector.h</text>
</a>
</g>
</g>
<!-- Node8&#45;&gt;Node22 -->
<g id="edge21_Node000008_Node000022" class="edge">
<title>Node8&#45;&gt;Node22</title>
<g id="a_edge21_Node000008_Node000022"><a xlink:title=" ">
<path fill="none" stroke="#63b8ff" d="M1583.15,-201.75C1642.55,-192.49 1731.82,-178.15 1818.66,-162.21"/>
<polygon fill="#63b8ff" stroke="#63b8ff" points="1819.49,-165.61 1828.69,-160.36 1818.22,-158.73 1819.49,-165.61"/>
</a>
</g>
</g>
<!-- Node23 -->
<g id="Node000023" class="node">
<title>Node23</title>
<g id="a_Node000023"><a xlink:title=" ">
<polygon fill="#e0e0e0" stroke="#999999" points="1894.5,-96 1787.5,-96 1787.5,-66 1894.5,-66 1894.5,-96"/>
<text text-anchor="start" x="1795.5" y="-84" font-family="Helvetica,sans-Serif" font-size="10.00">deal.II/matrix_free</text>
<text text-anchor="middle" x="1841" y="-73" font-family="Helvetica,sans-Serif" font-size="10.00">/matrix_free.h</text>
</a>
</g>
</g>
<!-- Node8&#45;&gt;Node23 -->
<g id="edge22_Node000008_Node000023" class="edge">
<title>Node8&#45;&gt;Node23</title>
<g id="a_edge22_Node000008_Node000023"><a xlink:title=" ">
<path fill="none" stroke="#63b8ff" d="M1521.4,-197.83C1529.19,-179.46 1545.38,-147.93 1570,-132 1646.16,-82.73 1683.44,-112.07 1777.52,-95.92"/>
<polygon fill="#63b8ff" stroke="#63b8ff" points="1778.22,-99.35 1787.42,-94.09 1776.95,-92.46 1778.22,-99.35"/>
</a>
</g>
</g>
<!-- Node24 -->
<g id="Node000024" class="node">
<title>Node24</title>
<g id="a_Node000024"><a xlink:href="util_8hpp.html" target="_top" xlink:title=" ">
<polygon fill="white" stroke="#666666" points="2431,-156.5 2301,-156.5 2301,-137.5 2431,-137.5 2431,-156.5"/>
<text text-anchor="middle" x="2366" y="-144.5" font-family="Helvetica,sans-Serif" font-size="10.00">meltpooldg/cut/util.hpp</text>
</a>
</g>
</g>
<!-- Node8&#45;&gt;Node24 -->
<g id="edge23_Node000008_Node000024" class="edge">
<title>Node8&#45;&gt;Node24</title>
<g id="a_edge23_Node000008_Node000024"><a xlink:title=" ">
<path fill="none" stroke="#63b8ff" d="M1583.21,-210.44C1718.09,-206.7 2031.16,-194.95 2292,-162 2299.75,-161.02 2307.92,-159.74 2315.88,-158.34"/>
<polygon fill="#63b8ff" stroke="#63b8ff" points="2316.61,-161.77 2325.82,-156.53 2315.35,-154.88 2316.61,-161.77"/>
</a>
</g>
</g>
<!-- Node39 -->
<g id="Node000039" class="node">
<title>Node39</title>
<g id="a_Node000039"><a xlink:title=" ">
<polygon fill="#e0e0e0" stroke="#999999" points="1971,-90.5 1913,-90.5 1913,-71.5 1971,-71.5 1971,-90.5"/>
<text text-anchor="middle" x="1942" y="-78.5" font-family="Helvetica,sans-Serif" font-size="10.00">memory</text>
</a>
</g>
</g>
<!-- Node8&#45;&gt;Node39 -->
<g id="edge48_Node000008_Node000039" class="edge">
<title>Node8&#45;&gt;Node39</title>
<g id="a_edge48_Node000008_Node000039"><a xlink:title=" ">
<path fill="none" stroke="#63b8ff" d="M1583.35,-209.2C1700.48,-203.63 1931.65,-189.28 1956,-162 1971.21,-144.96 1961.57,-117.45 1952.43,-99.55"/>
<polygon fill="#63b8ff" stroke="#63b8ff" points="1955.46,-97.79 1947.57,-90.71 1949.32,-101.16 1955.46,-97.79"/>
</a>
</g>
</g>
<!-- Node41 -->
<g id="Node000041" class="node">
<title>Node41</title>
<g id="a_Node000041"><a xlink:href="conditional__ostream_8hpp.html" target="_top" xlink:title=" ">
<polygon fill="white" stroke="#666666" points="2283,-162 2143,-162 2143,-132 2283,-132 2283,-162"/>
<text text-anchor="start" x="2151" y="-150" font-family="Helvetica,sans-Serif" font-size="10.00">meltpooldg/utilities</text>
<text text-anchor="middle" x="2213" y="-139" font-family="Helvetica,sans-Serif" font-size="10.00">/conditional_ostream.hpp</text>
</a>
</g>
</g>
<!-- Node8&#45;&gt;Node41 -->
<g id="edge44_Node000008_Node000041" class="edge">
<title>Node8&#45;&gt;Node41</title>
<g id="a_edge44_Node000008_Node000041"><a xlink:title=" ">
<path fill="none" stroke="#63b8ff" d="M1583.43,-208.64C1695.43,-202.6 1927.01,-188.15 2132.75,-162.08"/>
<polygon fill="#63b8ff" stroke="#63b8ff" points="2133.37,-165.53 2142.84,-160.79 2132.48,-158.59 2133.37,-165.53"/>
</a>
</g>
</g>
<!-- Node43 -->
<g id="Node000043" class="node">
<title>Node43</title>
<g id="a_Node000043"><a xlink:title=" ">
<polygon fill="#e0e0e0" stroke="#999999" points="2068.5,-156.5 2003.5,-156.5 2003.5,-137.5 2068.5,-137.5 2068.5,-156.5"/>
<text text-anchor="middle" x="2036" y="-144.5" font-family="Helvetica,sans-Serif" font-size="10.00">functional</text>
</a>
</g>
</g>
<!-- Node8&#45;&gt;Node43 -->
<g id="edge46_Node000008_Node000043" class="edge">
<title>Node8&#45;&gt;Node43</title>
<g id="a_edge46_Node000008_Node000043"><a xlink:title=" ">
<path fill="none" stroke="#63b8ff" d="M1583.17,-208.8C1675.4,-203.52 1846.08,-190.59 1989,-162 1992.73,-161.25 1996.58,-160.34 2000.41,-159.35"/>
<polygon fill="#63b8ff" stroke="#63b8ff" points="2001.67,-162.63 2010.36,-156.57 1999.78,-155.89 2001.67,-162.63"/>
</a>
</g>
</g>
<!-- Node44 -->
<g id="Node000044" class="node">
<title>Node44</title>
<g id="a_Node000044"><a xlink:title=" ">
<polygon fill="#e0e0e0" stroke="#999999" points="2125,-156.5 2087,-156.5 2087,-137.5 2125,-137.5 2125,-156.5"/>
<text text-anchor="middle" x="2106" y="-144.5" font-family="Helvetica,sans-Serif" font-size="10.00">map</text>
</a>
</g>
</g>
<!-- Node8&#45;&gt;Node44 -->
<g id="edge47_Node000008_Node000044" class="edge">
<title>Node8&#45;&gt;Node44</title>
<g id="a_edge47_Node000008_Node000044"><a xlink:title=" ">
<path fill="none" stroke="#63b8ff" d="M1583.34,-209.16C1711.69,-203.22 1986.7,-187.88 2078,-162 2079.26,-161.64 2080.54,-161.23 2081.81,-160.77"/>
<polygon fill="#63b8ff" stroke="#63b8ff" points="2083.53,-163.84 2091.31,-156.64 2080.74,-157.42 2083.53,-163.84"/>
</a>
</g>
</g>
<!-- Node24&#45;&gt;Node7 -->
<g id="edge43_Node000024_Node000007" class="edge">
<title>Node24&#45;&gt;Node7</title>
<g id="a_edge43_Node000024_Node000007"><a xlink:title=" ">
<path fill="none" stroke="#63b8ff" d="M2327,-137.45C2315.76,-135.31 2303.44,-133.26 2292,-132 2047.35,-105.04 1425.9,-146.47 1185,-96 1182.48,-95.47 1179.9,-94.77 1177.35,-93.97"/>
<polygon fill="#63b8ff" stroke="#63b8ff" points="1178.39,-90.62 1167.79,-90.5 1176,-97.2 1178.39,-90.62"/>
</a>
</g>
</g>
<!-- Node24&#45;&gt;Node15 -->
<g id="edge25_Node000024_Node000015" class="edge">
<title>Node24&#45;&gt;Node15</title>
<g id="a_edge25_Node000024_Node000015"><a xlink:title=" ">
<path fill="none" stroke="#63b8ff" d="M2324.63,-137.46C2266.18,-125.25 2164.78,-103.45 2149,-96 2129.22,-86.66 2130.25,-74.26 2110,-66 2051.33,-42.07 1880.62,-27.65 1776.09,-20.81"/>
<polygon fill="#63b8ff" stroke="#63b8ff" points="1776.08,-17.31 1765.87,-20.16 1775.63,-24.29 1776.08,-17.31"/>
</a>
</g>
</g>
<!-- Node24&#45;&gt;Node16 -->
<g id="edge26_Node000024_Node000016" class="edge">
<title>Node24&#45;&gt;Node16</title>
<g id="a_edge26_Node000024_Node000016"><a xlink:title=" ">
<path fill="none" stroke="#63b8ff" d="M2325.42,-137.44C2314.6,-135.4 2302.89,-133.41 2292,-132 2064.88,-102.66 2005.28,-124.02 1778,-96 1769.65,-94.97 1760.85,-93.65 1752.27,-92.23"/>
<polygon fill="#63b8ff" stroke="#63b8ff" points="1752.79,-88.77 1742.34,-90.53 1751.6,-95.67 1752.79,-88.77"/>
</a>
</g>
</g>
<!-- Node24&#45;&gt;Node19 -->
<g id="edge27_Node000024_Node000019" class="edge">
<title>Node24&#45;&gt;Node19</title>
<g id="a_edge27_Node000024_Node000019"><a xlink:title=" ">
<path fill="none" stroke="#63b8ff" d="M2326.6,-137.46C2315.47,-135.35 2303.3,-133.31 2292,-132 1929.63,-89.99 1833.21,-147.04 1472,-96 1466.22,-95.18 1460.17,-94.05 1454.25,-92.77"/>
<polygon fill="#63b8ff" stroke="#63b8ff" points="1455.02,-89.36 1444.49,-90.53 1453.45,-96.18 1455.02,-89.36"/>
</a>
</g>
</g>
<!-- Node24&#45;&gt;Node23 -->
<g id="edge30_Node000024_Node000023" class="edge">
<title>Node24&#45;&gt;Node23</title>
<g id="a_edge30_Node000024_Node000023"><a xlink:title=" ">
<path fill="none" stroke="#63b8ff" d="M2324.63,-137.46C2314.02,-135.47 2302.62,-133.49 2292,-132 2123.69,-108.32 2076.82,-122.3 1904.44,-95.92"/>
<polygon fill="#63b8ff" stroke="#63b8ff" points="1904.95,-92.45 1894.53,-94.38 1903.87,-99.37 1904.95,-92.45"/>
</a>
</g>
</g>
<!-- Node25 -->
<g id="Node000025" class="node">
<title>Node25</title>
<g id="a_Node000025"><a xlink:title=" ">
<polygon fill="#e0e0e0" stroke="#999999" points="2869.5,-96 2768.5,-96 2768.5,-66 2869.5,-66 2869.5,-96"/>
<text text-anchor="start" x="2776.5" y="-84" font-family="Helvetica,sans-Serif" font-size="10.00">deal.II/base/array</text>
<text text-anchor="middle" x="2819" y="-73" font-family="Helvetica,sans-Serif" font-size="10.00">_view.h</text>
</a>
</g>
</g>
<!-- Node24&#45;&gt;Node25 -->
<g id="edge24_Node000024_Node000025" class="edge">
<title>Node24&#45;&gt;Node25</title>
<g id="a_edge24_Node000024_Node000025"><a xlink:title=" ">
<path fill="none" stroke="#63b8ff" d="M2408.75,-137.47C2419.27,-135.52 2430.52,-133.57 2441,-132 2578.51,-111.41 2617.12,-119.8 2758.44,-95.95"/>
<polygon fill="#63b8ff" stroke="#63b8ff" points="2759.08,-99.39 2768.35,-94.26 2757.9,-92.49 2759.08,-99.39"/>
</a>
</g>
</g>
<!-- Node26 -->
<g id="Node000026" class="node">
<title>Node26</title>
<g id="a_Node000026"><a xlink:title=" ">
<polygon fill="#e0e0e0" stroke="#999999" points="2996.5,-96 2887.5,-96 2887.5,-66 2996.5,-66 2996.5,-96"/>
<text text-anchor="start" x="2895.5" y="-84" font-family="Helvetica,sans-Serif" font-size="10.00">deal.II/matrix_free</text>
<text text-anchor="middle" x="2942" y="-73" font-family="Helvetica,sans-Serif" font-size="10.00">/evaluation_flags.h</text>
</a>
</g>
</g>
<!-- Node24&#45;&gt;Node26 -->
<g id="edge28_Node000024_Node000026" class="edge">
<title>Node24&#45;&gt;Node26</title>
<g id="a_edge28_Node000024_Node000026"><a xlink:title=" ">
<path fill="none" stroke="#63b8ff" d="M2407.53,-137.46C2418.39,-135.45 2430.1,-133.46 2441,-132 2631.38,-106.48 2684.14,-124.63 2877.53,-96.09"/>
<polygon fill="#63b8ff" stroke="#63b8ff" points="2878.08,-99.54 2887.45,-94.6 2877.04,-92.62 2878.08,-99.54"/>
</a>
</g>
</g>
<!-- Node27 -->
<g id="Node000027" class="node">
<title>Node27</title>
<g id="a_Node000027"><a xlink:title=" ">
<polygon fill="#e0e0e0" stroke="#999999" points="2282.5,-96 2157.5,-96 2157.5,-66 2282.5,-66 2282.5,-96"/>
<text text-anchor="start" x="2165.5" y="-84" font-family="Helvetica,sans-Serif" font-size="10.00">deal.II/matrix_free</text>
<text text-anchor="middle" x="2220" y="-73" font-family="Helvetica,sans-Serif" font-size="10.00">/fe_point_evaluation.h</text>
</a>
</g>
</g>
<!-- Node24&#45;&gt;Node27 -->
<g id="edge29_Node000024_Node000027" class="edge">
<title>Node24&#45;&gt;Node27</title>
<g id="a_edge29_Node000024_Node000027"><a xlink:title=" ">
<path fill="none" stroke="#63b8ff" d="M2346.31,-137.37C2324.73,-127.91 2289.47,-112.45 2261.68,-100.27"/>
<polygon fill="#63b8ff" stroke="#63b8ff" points="2262.77,-96.92 2252.2,-96.12 2259.95,-103.34 2262.77,-96.92"/>
</a>
</g>
</g>
<!-- Node28 -->
<g id="Node000028" class="node">
<title>Node28</title>
<g id="a_Node000028"><a xlink:title=" ">
<polygon fill="#e0e0e0" stroke="#999999" points="2419.5,-96 2300.5,-96 2300.5,-66 2419.5,-66 2419.5,-96"/>
<text text-anchor="start" x="2308.5" y="-84" font-family="Helvetica,sans-Serif" font-size="10.00">deal.II/non_matching</text>
<text text-anchor="middle" x="2360" y="-73" font-family="Helvetica,sans-Serif" font-size="10.00">/mapping_info.h</text>
</a>
</g>
</g>
<!-- Node24&#45;&gt;Node28 -->
<g id="edge31_Node000024_Node000028" class="edge">
<title>Node24&#45;&gt;Node28</title>
<g id="a_edge31_Node000024_Node000028"><a xlink:title=" ">
<path fill="none" stroke="#63b8ff" d="M2365.19,-137.37C2364.45,-129.49 2363.32,-117.45 2362.31,-106.6"/>
<polygon fill="#63b8ff" stroke="#63b8ff" points="2365.76,-105.99 2361.35,-96.36 2358.8,-106.64 2365.76,-105.99"/>
</a>
</g>
</g>
<!-- Node29 -->
<g id="Node000029" class="node">
<title>Node29</title>
<g id="a_Node000029"><a xlink:title=" ">
<polygon fill="#e0e0e0" stroke="#999999" points="2556.5,-96 2437.5,-96 2437.5,-66 2556.5,-66 2556.5,-96"/>
<text text-anchor="start" x="2445.5" y="-84" font-family="Helvetica,sans-Serif" font-size="10.00">deal.II/non_matching</text>
<text text-anchor="middle" x="2497" y="-73" font-family="Helvetica,sans-Serif" font-size="10.00">/mesh_classifier.h</text>
</a>
</g>
</g>
<!-- Node24&#45;&gt;Node29 -->
<g id="edge32_Node000024_Node000029" class="edge">
<title>Node24&#45;&gt;Node29</title>
<g id="a_edge32_Node000024_Node000029"><a xlink:title=" ">
<path fill="none" stroke="#63b8ff" d="M2383.67,-137.37C2402.86,-127.99 2434.12,-112.72 2458.94,-100.59"/>
<polygon fill="#63b8ff" stroke="#63b8ff" points="2460.66,-103.65 2468.11,-96.12 2457.59,-97.36 2460.66,-103.65"/>
</a>
</g>
</g>
<!-- Node30 -->
<g id="Node000030" class="node">
<title>Node30</title>
<g id="a_Node000030"><a xlink:href="enum_8hpp.html" target="_top" xlink:title=" ">
<polygon fill="#fff0f0" stroke="red" points="2750,-96 2638,-96 2638,-66 2750,-66 2750,-96"/>
<text text-anchor="start" x="2646" y="-84" font-family="Helvetica,sans-Serif" font-size="10.00">meltpooldg/utilities</text>
<text text-anchor="middle" x="2694" y="-73" font-family="Helvetica,sans-Serif" font-size="10.00">/enum.hpp</text>
</a>
</g>
</g>
<!-- Node24&#45;&gt;Node30 -->
<g id="edge33_Node000024_Node000030" class="edge">
<title>Node24&#45;&gt;Node30</title>
<g id="a_edge33_Node000024_Node000030"><a xlink:title=" ">
<path fill="none" stroke="#63b8ff" d="M2411.47,-137.49C2471.28,-126.28 2574.2,-106.91 2627.94,-96.18"/>
<polygon fill="#63b8ff" stroke="#63b8ff" points="2628.89,-99.56 2638,-94.15 2627.5,-92.69 2628.89,-99.56"/>
</a>
</g>
</g>
<!-- Node37 -->
<g id="Node000037" class="node">
<title>Node37</title>
<g id="a_Node000037"><a xlink:href="fe__integrator_8hpp.html" target="_top" xlink:title=" ">
<polygon fill="#fff0f0" stroke="red" points="2101,-96 1989,-96 1989,-66 2101,-66 2101,-96"/>
<text text-anchor="start" x="1997" y="-84" font-family="Helvetica,sans-Serif" font-size="10.00">meltpooldg/utilities</text>
<text text-anchor="middle" x="2045" y="-73" font-family="Helvetica,sans-Serif" font-size="10.00">/fe_integrator.hpp</text>
</a>
</g>
</g>
<!-- Node24&#45;&gt;Node37 -->
<g id="edge39_Node000024_Node000037" class="edge">
<title>Node24&#45;&gt;Node37</title>
<g id="a_edge39_Node000024_Node000037"><a xlink:title=" ">
<path fill="none" stroke="#63b8ff" d="M2322.92,-137.43C2272.92,-127.48 2187.98,-110.57 2115,-96 2113.74,-95.75 2112.46,-95.49 2111.17,-95.24"/>
<polygon fill="#63b8ff" stroke="#63b8ff" points="2111.66,-91.76 2101.16,-93.24 2110.28,-98.63 2111.66,-91.76"/>
</a>
</g>
</g>
<!-- Node24&#45;&gt;Node39 -->
<g id="edge41_Node000024_Node000039" class="edge">
<title>Node24&#45;&gt;Node39</title>
<g id="a_edge41_Node000024_Node000039"><a xlink:title=" ">
<path fill="none" stroke="#63b8ff" d="M2323.83,-137.48C2313.45,-135.53 2302.34,-133.57 2292,-132 2154,-111.01 2115.78,-128.36 1980,-96 1977.49,-95.4 1974.91,-94.69 1972.34,-93.9"/>
<polygon fill="#63b8ff" stroke="#63b8ff" points="1973.23,-90.5 1962.63,-90.61 1970.98,-97.13 1973.23,-90.5"/>
</a>
</g>
</g>
<!-- Node40 -->
<g id="Node000040" class="node">
<title>Node40</title>
<g id="a_Node000040"><a xlink:title=" ">
<polygon fill="#e0e0e0" stroke="#999999" points="2619.5,-90.5 2574.5,-90.5 2574.5,-71.5 2619.5,-71.5 2619.5,-90.5"/>
<text text-anchor="middle" x="2597" y="-78.5" font-family="Helvetica,sans-Serif" font-size="10.00">utility</text>
</a>
</g>
</g>
<!-- Node24&#45;&gt;Node40 -->
<g id="edge42_Node000024_Node000040" class="edge">
<title>Node24&#45;&gt;Node40</title>
<g id="a_edge42_Node000024_Node000040"><a xlink:title=" ">
<path fill="none" stroke="#63b8ff" d="M2409.57,-137.47C2450.53,-128.89 2513.26,-114.33 2566,-96 2567.39,-95.52 2568.81,-94.99 2570.24,-94.44"/>
<polygon fill="#63b8ff" stroke="#63b8ff" points="2571.65,-97.65 2579.52,-90.55 2568.94,-91.19 2571.65,-97.65"/>
</a>
</g>
</g>
<!-- Node31 -->
<g id="Node000031" class="node">
<title>Node31</title>
<g id="a_Node000031"><a xlink:title=" ">
<polygon fill="#e0e0e0" stroke="#999999" points="2613.5,-30 2486.5,-30 2486.5,0 2613.5,0 2613.5,-30"/>
<text text-anchor="start" x="2494.5" y="-18" font-family="Helvetica,sans-Serif" font-size="10.00">deal.II/base/parameter</text>
<text text-anchor="middle" x="2550" y="-7" font-family="Helvetica,sans-Serif" font-size="10.00">_handler.h</text>
</a>
</g>
</g>
<!-- Node30&#45;&gt;Node31 -->
<g id="edge34_Node000030_Node000031" class="edge">
<title>Node30&#45;&gt;Node31</title>
<g id="a_edge34_Node000030_Node000031"><a xlink:title=" ">
<path fill="none" stroke="#63b8ff" d="M2662.4,-65.95C2641.39,-56.62 2613.6,-44.27 2590.91,-34.18"/>
<polygon fill="#63b8ff" stroke="#63b8ff" points="2592.09,-30.88 2581.53,-30.01 2589.24,-37.27 2592.09,-30.88"/>
</a>
</g>
</g>
<!-- Node32 -->
<g id="Node000032" class="node">
<title>Node32</title>
<g id="a_Node000032"><a xlink:title=" ">
<polygon fill="#e0e0e0" stroke="#999999" points="2756.5,-24.5 2631.5,-24.5 2631.5,-5.5 2756.5,-5.5 2756.5,-24.5"/>
<text text-anchor="middle" x="2694" y="-12.5" font-family="Helvetica,sans-Serif" font-size="10.00">deal.II/base/patterns.h</text>
</a>
</g>
</g>
<!-- Node30&#45;&gt;Node32 -->
<g id="edge35_Node000030_Node000032" class="edge">
<title>Node30&#45;&gt;Node32</title>
<g id="a_edge35_Node000030_Node000032"><a xlink:title=" ">
<path fill="none" stroke="#63b8ff" d="M2694,-65.8C2694,-56.7 2694,-44.79 2694,-34.9"/>
<polygon fill="#63b8ff" stroke="#63b8ff" points="2697.5,-34.84 2694,-24.84 2690.5,-34.84 2697.5,-34.84"/>
</a>
</g>
</g>
<!-- Node33 -->
<g id="Node000033" class="node">
<title>Node33</title>
<g id="a_Node000033"><a xlink:title=" ">
<polygon fill="#e0e0e0" stroke="#999999" points="2887,-30 2775,-30 2775,0 2887,0 2887,-30"/>
<text text-anchor="start" x="2783" y="-18" font-family="Helvetica,sans-Serif" font-size="10.00">meltpooldg/utilities</text>
<text text-anchor="middle" x="2831" y="-7" font-family="Helvetica,sans-Serif" font-size="10.00">/better_enum.hpp</text>
</a>
</g>
</g>
<!-- Node30&#45;&gt;Node33 -->
<g id="edge36_Node000030_Node000033" class="edge">
<title>Node30&#45;&gt;Node33</title>
<g id="a_edge36_Node000030_Node000033"><a xlink:title=" ">
<path fill="none" stroke="#63b8ff" d="M2724.07,-65.95C2743.96,-56.66 2770.26,-44.38 2791.79,-34.32"/>
<polygon fill="#63b8ff" stroke="#63b8ff" points="2793.43,-37.42 2801,-30.01 2790.46,-31.07 2793.43,-37.42"/>
</a>
</g>
</g>
<!-- Node35 -->
<g id="Node000035" class="node">
<title>Node35</title>
<g id="a_Node000035"><a xlink:title=" ">
<polygon fill="#e0e0e0" stroke="#999999" points="1981,-24.5 1925,-24.5 1925,-5.5 1981,-5.5 1981,-24.5"/>
<text text-anchor="middle" x="1953" y="-12.5" font-family="Helvetica,sans-Serif" font-size="10.00">sstream</text>
</a>
</g>
</g>
<!-- Node30&#45;&gt;Node35 -->
<g id="edge37_Node000030_Node000035" class="edge">
<title>Node30&#45;&gt;Node35</title>
<g id="a_edge37_Node000030_Node000035"><a xlink:title=" ">
<path fill="none" stroke="#63b8ff" d="M2637.72,-67.38C2634.77,-66.88 2631.86,-66.41 2629,-66 2387.97,-31.3 2094.92,-20.03 1991.43,-16.98"/>
<polygon fill="#63b8ff" stroke="#63b8ff" points="1991.26,-13.48 1981.16,-16.69 1991.06,-20.47 1991.26,-13.48"/>
</a>
</g>
</g>
<!-- Node36 -->
<g id="Node000036" class="node">
<title>Node36</title>
<g id="a_Node000036"><a xlink:title=" ">
<polygon fill="#e0e0e0" stroke="#999999" points="2326,-24.5 2282,-24.5 2282,-5.5 2326,-5.5 2326,-24.5"/>
<text text-anchor="middle" x="2304" y="-12.5" font-family="Helvetica,sans-Serif" font-size="10.00">string</text>
</a>
</g>
</g>
<!-- Node30&#45;&gt;Node36 -->
<g id="edge38_Node000030_Node000036" class="edge">
<title>Node30&#45;&gt;Node36</title>
<g id="a_edge38_Node000030_Node000036"><a xlink:title=" ">
<path fill="none" stroke="#63b8ff" d="M2637.67,-67.65C2634.74,-67.08 2631.84,-66.52 2629,-66 2522.24,-46.31 2394.76,-28.28 2336.25,-20.31"/>
<polygon fill="#63b8ff" stroke="#63b8ff" points="2336.52,-16.82 2326.14,-18.94 2335.58,-23.76 2336.52,-16.82"/>
</a>
</g>
</g>
<!-- Node37&#45;&gt;Node15 -->
<g id="edge40_Node000037_Node000015" class="edge">
<title>Node37&#45;&gt;Node15</title>
<g id="a_edge40_Node000037_Node000015"><a xlink:title=" ">
<path fill="none" stroke="#63b8ff" d="M1988.66,-67.72C1985.73,-67.13 1982.83,-66.55 1980,-66 1902.55,-50.97 1812.98,-35.81 1754.34,-26.19"/>
<polygon fill="#63b8ff" stroke="#63b8ff" points="1754.55,-22.68 1744.12,-24.52 1753.42,-29.59 1754.55,-22.68"/>
</a>
</g>
</g>
<!-- Node42 -->
<g id="Node000042" class="node">
<title>Node42</title>
<g id="a_Node000042"><a xlink:title=" ">
<polygon fill="#e0e0e0" stroke="#999999" points="1611,-96 1481,-96 1481,-66 1611,-66 1611,-96"/>
<text text-anchor="start" x="1489" y="-84" font-family="Helvetica,sans-Serif" font-size="10.00">deal.II/base/conditional</text>
<text text-anchor="middle" x="1546" y="-73" font-family="Helvetica,sans-Serif" font-size="10.00">_ostream.h</text>
</a>
</g>
</g>
<!-- Node41&#45;&gt;Node42 -->
<g id="edge45_Node000041_Node000042" class="edge">
<title>Node41&#45;&gt;Node42</title>
<g id="a_edge45_Node000041_Node000042"><a xlink:title=" ">
<path fill="none" stroke="#63b8ff" d="M2142.85,-133.17C2139.86,-132.75 2136.9,-132.36 2134,-132 1910.05,-104.39 1848.9,-124.72 1621.55,-96.09"/>
<polygon fill="#63b8ff" stroke="#63b8ff" points="1621.67,-92.58 1611.3,-94.78 1620.78,-99.52 1621.67,-92.58"/>
</a>
</g>
</g>
<!-- Node45&#45;&gt;Node5 -->
<g id="edge52_Node000045_Node000005" class="edge">
<title>Node45&#45;&gt;Node5</title>
<g id="a_edge52_Node000045_Node000005"><a xlink:title=" ">
<path fill="none" stroke="#63b8ff" d="M523.43,-136.55C461.73,-126.69 362.55,-110.67 277,-96 270.26,-94.84 263.19,-93.61 256.18,-92.37"/>
<polygon fill="#63b8ff" stroke="#63b8ff" points="256.46,-88.86 246,-90.56 255.23,-95.76 256.46,-88.86"/>
</a>
</g>
</g>
<!-- Node45&#45;&gt;Node7 -->
<g id="edge64_Node000045_Node000007" class="edge">
<title>Node45&#45;&gt;Node7</title>
<g id="a_edge64_Node000045_Node000007"><a xlink:title=" ">
<path fill="none" stroke="#63b8ff" d="M642.63,-133.29C645.45,-132.82 648.26,-132.39 651,-132 852.72,-103.4 908.33,-136.51 1108,-96 1111.24,-95.34 1114.57,-94.51 1117.88,-93.58"/>
<polygon fill="#63b8ff" stroke="#63b8ff" points="1119.08,-96.88 1127.61,-90.58 1117.02,-90.19 1119.08,-96.88"/>
</a>
</g>
</g>
<!-- Node45&#45;&gt;Node15 -->
<g id="edge54_Node000045_Node000015" class="edge">
<title>Node45&#45;&gt;Node15</title>
<g id="a_edge54_Node000045_Node000015"><a xlink:title=" ">
<path fill="none" stroke="#63b8ff" d="M642.69,-133.65C645.5,-133.08 648.28,-132.53 651,-132 736.62,-115.2 764.55,-132.09 844,-96 863.59,-87.1 861.9,-73.68 882,-66 948.26,-40.68 1412.06,-24.23 1606.03,-18.38"/>
<polygon fill="#63b8ff" stroke="#63b8ff" points="1606.29,-21.87 1616.18,-18.08 1606.08,-14.88 1606.29,-21.87"/>
</a>
</g>
</g>
<!-- Node45&#45;&gt;Node18 -->
<g id="edge55_Node000045_Node000018" class="edge">
<title>Node45&#45;&gt;Node18</title>
<g id="a_edge55_Node000045_Node000018"><a xlink:title=" ">
<path fill="none" stroke="#63b8ff" d="M642.63,-133.25C645.45,-132.79 648.25,-132.37 651,-132 885.38,-100.08 947.58,-127.59 1182,-96 1188.92,-95.07 1196.18,-93.85 1203.3,-92.53"/>
<polygon fill="#63b8ff" stroke="#63b8ff" points="1204.4,-95.88 1213.55,-90.54 1203.07,-89.01 1204.4,-95.88"/>
</a>
</g>
</g>
<!-- Node45&#45;&gt;Node19 -->
<g id="edge57_Node000045_Node000019" class="edge">
<title>Node45&#45;&gt;Node19</title>
<g id="a_edge57_Node000045_Node000019"><a xlink:title=" ">
<path fill="none" stroke="#63b8ff" d="M642.62,-133.2C645.45,-132.76 648.25,-132.36 651,-132 944.99,-94.01 1022.01,-125.2 1317,-96 1329.43,-94.77 1342.7,-93.09 1355.31,-91.33"/>
<polygon fill="#63b8ff" stroke="#63b8ff" points="1355.85,-94.79 1365.25,-89.9 1354.86,-87.86 1355.85,-94.79"/>
</a>
</g>
</g>
<!-- Node45&#45;&gt;Node35 -->
<g id="edge61_Node000045_Node000035" class="edge">
<title>Node45&#45;&gt;Node35</title>
<g id="a_edge61_Node000045_Node000035"><a xlink:title=" ">
<path fill="none" stroke="#63b8ff" d="M642.64,-133.35C645.46,-132.87 648.26,-132.42 651,-132 811.28,-107.62 857.44,-138.11 1014,-96 1045.12,-87.63 1048.7,-73.63 1080,-66 1230.03,-29.41 1619.9,-40.02 1774,-30 1822.55,-26.84 1878.45,-22.33 1914.68,-19.29"/>
<polygon fill="#63b8ff" stroke="#63b8ff" points="1915.13,-22.76 1924.8,-18.44 1914.55,-15.79 1915.13,-22.76"/>
</a>
</g>
</g>
<!-- Node45&#45;&gt;Node36 -->
<g id="edge62_Node000045_Node000036" class="edge">
<title>Node45&#45;&gt;Node36</title>
<g id="a_edge62_Node000045_Node000036"><a xlink:title=" ">
<path fill="none" stroke="#63b8ff" d="M642.64,-133.32C645.46,-132.84 648.26,-132.4 651,-132 832,-105.51 885.7,-148.25 1061,-96 1088.06,-87.93 1089.76,-73.44 1117,-66 1304.31,-14.86 1796.01,-38.32 1990,-30 2092.95,-25.58 2214.86,-20.06 2271.75,-17.47"/>
<polygon fill="#63b8ff" stroke="#63b8ff" points="2272.09,-20.96 2281.92,-17.01 2271.77,-13.97 2272.09,-20.96"/>
</a>
</g>
</g>
<!-- Node46 -->
<g id="Node000046" class="node">
<title>Node46</title>
<g id="a_Node000046"><a xlink:title=" ">
<polygon fill="#e0e0e0" stroke="#999999" points="1005,-90.5 891,-90.5 891,-71.5 1005,-71.5 1005,-90.5"/>
<text text-anchor="middle" x="948" y="-78.5" font-family="Helvetica,sans-Serif" font-size="10.00">deal.II/base/config.h</text>
</a>
</g>
</g>
<!-- Node45&#45;&gt;Node46 -->
<g id="edge51_Node000045_Node000046" class="edge">
<title>Node45&#45;&gt;Node46</title>
<g id="a_edge51_Node000045_Node000046"><a xlink:title=" ">
<path fill="none" stroke="#63b8ff" d="M642.67,-133.56C645.49,-133.02 648.27,-132.5 651,-132 751.06,-113.74 776.87,-113.84 877,-96 883.17,-94.9 889.63,-93.7 896.03,-92.48"/>
<polygon fill="#63b8ff" stroke="#63b8ff" points="896.85,-95.88 906,-90.55 895.52,-89.01 896.85,-95.88"/>
</a>
</g>
</g>
<!-- Node47 -->
<g id="Node000047" class="node">
<title>Node47</title>
<g id="a_Node000047"><a xlink:title=" ">
<polygon fill="#e0e0e0" stroke="#999999" points="396,-90.5 286,-90.5 286,-71.5 396,-71.5 396,-90.5"/>
<text text-anchor="middle" x="341" y="-78.5" font-family="Helvetica,sans-Serif" font-size="10.00">deal.II/base/point.h</text>
</a>
</g>
</g>
<!-- Node45&#45;&gt;Node47 -->
<g id="edge53_Node000045_Node000047" class="edge">
<title>Node45&#45;&gt;Node47</title>
<g id="a_edge53_Node000045_Node000047"><a xlink:title=" ">
<path fill="none" stroke="#63b8ff" d="M529.89,-131.95C485.77,-120.29 423.84,-103.91 383.09,-93.13"/>
<polygon fill="#63b8ff" stroke="#63b8ff" points="383.77,-89.69 373.21,-90.52 381.98,-96.46 383.77,-89.69"/>
</a>
</g>
</g>
<!-- Node48 -->
<g id="Node000048" class="node">
<title>Node48</title>
<g id="a_Node000048"><a xlink:title=" ">
<polygon fill="#e0e0e0" stroke="#999999" points="533.5,-96 414.5,-96 414.5,-66 533.5,-66 533.5,-96"/>
<text text-anchor="start" x="422.5" y="-84" font-family="Helvetica,sans-Serif" font-size="10.00">deal.II/grid/grid_tools</text>
<text text-anchor="middle" x="474" y="-73" font-family="Helvetica,sans-Serif" font-size="10.00">_geometry.h</text>
</a>
</g>
</g>
<!-- Node45&#45;&gt;Node48 -->
<g id="edge56_Node000045_Node000048" class="edge">
<title>Node45&#45;&gt;Node48</title>
<g id="a_edge56_Node000045_Node000048"><a xlink:title=" ">
<path fill="none" stroke="#63b8ff" d="M559.08,-131.95C543.75,-122.95 523.64,-111.14 506.82,-101.27"/>
<polygon fill="#63b8ff" stroke="#63b8ff" points="508.26,-98.06 497.86,-96.01 504.72,-104.09 508.26,-98.06"/>
</a>
</g>
</g>
<!-- Node49 -->
<g id="Node000049" class="node">
<title>Node49</title>
<g id="a_Node000049"><a xlink:title=" ">
<polygon fill="#e0e0e0" stroke="#999999" points="616,-90.5 552,-90.5 552,-71.5 616,-71.5 616,-90.5"/>
<text text-anchor="middle" x="584" y="-78.5" font-family="Helvetica,sans-Serif" font-size="10.00">algorithm</text>
</a>
</g>
</g>
<!-- Node45&#45;&gt;Node49 -->
<g id="edge58_Node000045_Node000049" class="edge">
<title>Node45&#45;&gt;Node49</title>
<g id="a_edge58_Node000045_Node000049"><a xlink:title=" ">
<path fill="none" stroke="#63b8ff" d="M583.22,-131.8C583.36,-122.7 583.55,-110.79 583.7,-100.9"/>
<polygon fill="#63b8ff" stroke="#63b8ff" points="587.21,-100.9 583.86,-90.84 580.21,-100.79 587.21,-100.9"/>
</a>
</g>
</g>
<!-- Node50 -->
<g id="Node000050" class="node">
<title>Node50</title>
<g id="a_Node000050"><a xlink:title=" ">
<polygon fill="#e0e0e0" stroke="#999999" points="681.5,-90.5 634.5,-90.5 634.5,-71.5 681.5,-71.5 681.5,-90.5"/>
<text text-anchor="middle" x="658" y="-78.5" font-family="Helvetica,sans-Serif" font-size="10.00">cmath</text>
</a>
</g>
</g>
<!-- Node45&#45;&gt;Node50 -->
<g id="edge59_Node000045_Node000050" class="edge">
<title>Node45&#45;&gt;Node50</title>
<g id="a_edge59_Node000045_Node000050"><a xlink:title=" ">
<path fill="none" stroke="#63b8ff" d="M599.64,-131.8C611.57,-121.62 627.61,-107.93 639.86,-97.48"/>
<polygon fill="#63b8ff" stroke="#63b8ff" points="642.3,-100 647.64,-90.84 637.76,-94.67 642.3,-100"/>
</a>
</g>
</g>
<!-- Node51 -->
<g id="Node000051" class="node">
<title>Node51</title>
<g id="a_Node000051"><a xlink:title=" ">
<polygon fill="#e0e0e0" stroke="#999999" points="730.5,-90.5 699.5,-90.5 699.5,-71.5 730.5,-71.5 730.5,-90.5"/>
<text text-anchor="middle" x="715" y="-78.5" font-family="Helvetica,sans-Serif" font-size="10.00">ios</text>
</a>
</g>
</g>
<!-- Node45&#45;&gt;Node51 -->
<g id="edge60_Node000045_Node000051" class="edge">
<title>Node45&#45;&gt;Node51</title>
<g id="a_edge60_Node000045_Node000051"><a xlink:title=" ">
<path fill="none" stroke="#63b8ff" d="M614.66,-131.94C636.12,-122.24 665,-108.82 690,-96 690.31,-95.84 690.62,-95.68 690.93,-95.52"/>
<polygon fill="#63b8ff" stroke="#63b8ff" points="692.88,-98.44 700.03,-90.62 689.56,-92.28 692.88,-98.44"/>
</a>
</g>
</g>
<!-- Node52 -->
<g id="Node000052" class="node">
<title>Node52</title>
<g id="a_Node000052"><a xlink:title=" ">
<polygon fill="#e0e0e0" stroke="#999999" points="835,-90.5 749,-90.5 749,-71.5 835,-71.5 835,-90.5"/>
<text text-anchor="middle" x="792" y="-78.5" font-family="Helvetica,sans-Serif" font-size="10.00">unordered_set</text>
</a>
</g>
</g>
<!-- Node45&#45;&gt;Node52 -->
<g id="edge63_Node000045_Node000052" class="edge">
<title>Node45&#45;&gt;Node52</title>
<g id="a_edge63_Node000045_Node000052"><a xlink:title=" ">
<path fill="none" stroke="#63b8ff" d="M628.87,-131.95C666.49,-120.43 719.1,-104.32 754.3,-93.54"/>
<polygon fill="#63b8ff" stroke="#63b8ff" points="755.65,-96.79 764.19,-90.52 753.6,-90.1 755.65,-96.79"/>
</a>
</g>
</g>
</g>
</svg>
