<?xml version="1.0" encoding="UTF-8" standalone="no"?>
<!DOCTYPE svg PUBLIC "-//W3C//DTD SVG 1.1//EN"
 "http://www.w3.org/Graphics/SVG/1.1/DTD/svg11.dtd">
<!-- Generated by graphviz version 2.43.0 (0)
 -->
<!-- Title: include/meltpooldg/utilities/constraints.hpp Pages: 1 -->
<!--zoomable 324 -->

<svg id="main" version="1.1" xmlns="http://www.w3.org/2000/svg" xmlns:xlink="http://www.w3.org/1999/xlink" xml:space="preserve" onload="init(evt)">
<style type="text/css"><![CDATA[
.node, .edge {opacity: 0.7;}
.node.selected, .edge.selected {opacity: 1;}
.edge:hover path { stroke: red; }
.edge:hover polygon { stroke: red; fill: red; }
]]></style>

<defs>
  <circle id="rim" cx="0" cy="0" r="7"/>
  <circle id="rim2" cx="0" cy="0" r="3.5"/>
  <g id="zoomPlus">
    <use xlink:href="#rim" fill="#404040"><set attributeName="fill" to="#808080" begin="zoomplus.mouseover" end="zoomplus.mouseout"/></use>
    <path d="M-4,0h8M0,-4v8" fill="none" stroke="white" stroke-width="1.5" pointer-events="none"/>
  </g>
  <g id="zoomMin">
    <use xlink:href="#rim" fill="#404040"><set attributeName="fill" to="#808080" begin="zoomminus.mouseover" end="zoomminus.mouseout"/></use>
    <path d="M-4,0h8" fill="none" stroke="white" stroke-width="1.5" pointer-events="none"/>
  </g>
  <g id="arrowUp" transform="translate(30 24)">
    <use xlink:href="#rim"/>
    <path pointer-events="none" fill="none" stroke="white" stroke-width="1.5" d="M0,-3.0v7 M-2.5,-0.5L0,-3.0L2.5,-0.5"/>
  </g>
  <g id="arrowRight" transform="rotate(90) translate(36 -43)">
    <use xlink:href="#rim"/>
    <path pointer-events="none" fill="none" stroke="white" stroke-width="1.5" d="M0,-3.0v7 M-2.5,-0.5L0,-3.0L2.5,-0.5"/>
  </g>
  <g id="arrowDown" transform="rotate(180) translate(-30 -48)">
    <use xlink:href="#rim"/>
    <path pointer-events="none" fill="none" stroke="white" stroke-width="1.5" d="M0,-3.0v7 M-2.5,-0.5L0,-3.0L2.5,-0.5"/>
  </g>
  <g id="arrowLeft" transform="rotate(270) translate(-36 17)">
    <use xlink:href="#rim"/>
    <path pointer-events="none" fill="none" stroke="white" stroke-width="1.5" d="M0,-3.0v7 M-2.5,-0.5L0,-3.0L2.5,-0.5"/>
  </g>
  <g id="resetDef">
    <use xlink:href="#rim2" fill="#404040"><set attributeName="fill" to="#808080" begin="reset.mouseover" end="reset.mouseout"/></use>
  </g>
</defs>
<script type="application/ecmascript">
var viewWidth = 1486;
var viewHeight = 324;
var sectionId = 'dynsection-1';
</script>
<script type="application/ecmascript" xlink:href="svg.min.js"/>
<svg id="graph" class="graph">
<g id="viewport">
<title>include/meltpooldg/utilities/constraints.hpp</title>
<!-- Node1 -->
<g id="Node000001" class="node">
<title>Node1</title>
<g id="a_Node000001"><a xlink:title=" ">
<polygon fill="#999999" stroke="#666666" points="771.94,-316 637.94,-316 637.94,-286 771.94,-286 771.94,-316"/>
<text text-anchor="start" x="645.94" y="-304" font-family="Helvetica,sans-Serif" font-size="10.00">include/meltpooldg</text>
<text text-anchor="middle" x="704.94" y="-293" font-family="Helvetica,sans-Serif" font-size="10.00">/utilities/constraints.hpp</text>
</a>
</g>
</g>
<!-- Node2 -->
<g id="Node000002" class="node">
<title>Node2</title>
<g id="a_Node000002"><a xlink:href="advection__diffusion__application_8cpp.html" target="_top" xlink:title=" ">
<polygon fill="white" stroke="#666666" points="267.94,-173 133.94,-173 133.94,-132 267.94,-132 267.94,-173"/>
<text text-anchor="start" x="141.94" y="-161" font-family="Helvetica,sans-Serif" font-size="10.00">applications/mp&#45;advec</text>
<text text-anchor="start" x="141.94" y="-150" font-family="Helvetica,sans-Serif" font-size="10.00">&#45;diff/advection_diffusion</text>
<text text-anchor="middle" x="200.94" y="-139" font-family="Helvetica,sans-Serif" font-size="10.00">_application.cpp</text>
</a>
</g>
</g>
<!-- Node1&#45;&gt;Node2 -->
<g id="edge1_Node000001_Node000002" class="edge">
<title>Node1&#45;&gt;Node2</title>
<g id="a_edge1_Node000001_Node000002"><a xlink:title=" ">
<path fill="none" stroke="#63b8ff" d="M627.69,-296.96C498.66,-291.17 250.46,-276.67 220.94,-250 199.61,-230.73 197.66,-195.19 198.84,-173.04"/>
<polygon fill="#63b8ff" stroke="#63b8ff" points="627.75,-300.47 637.9,-297.41 628.06,-293.47 627.75,-300.47"/>
</a>
</g>
</g>
<!-- Node3 -->
<g id="Node000003" class="node">
<title>Node3</title>
<g id="a_Node000003"><a xlink:href="heat__transfer__application_8cpp.html" target="_top" xlink:title=" ">
<polygon fill="white" stroke="#666666" points="172.44,-250 45.44,-250 45.44,-209 172.44,-209 172.44,-250"/>
<text text-anchor="start" x="53.44" y="-238" font-family="Helvetica,sans-Serif" font-size="10.00">applications/mp&#45;heat</text>
<text text-anchor="start" x="53.44" y="-227" font-family="Helvetica,sans-Serif" font-size="10.00">&#45;transfer/heat_transfer</text>
<text text-anchor="middle" x="108.94" y="-216" font-family="Helvetica,sans-Serif" font-size="10.00">_application.cpp</text>
</a>
</g>
</g>
<!-- Node1&#45;&gt;Node3 -->
<g id="edge2_Node000001_Node000003" class="edge">
<title>Node1&#45;&gt;Node3</title>
<g id="a_edge2_Node000001_Node000003"><a xlink:title=" ">
<path fill="none" stroke="#63b8ff" d="M627.69,-296.14C526.05,-290.24 342.1,-276.73 186.94,-250 182.26,-249.19 177.45,-248.26 172.62,-247.24"/>
<polygon fill="#63b8ff" stroke="#63b8ff" points="627.69,-299.64 637.87,-296.72 628.09,-292.66 627.69,-299.64"/>
</a>
</g>
</g>
<!-- Node4 -->
<g id="Node000004" class="node">
<title>Node4</title>
<g id="a_Node000004"><a xlink:href="level__set__application_8cpp.html" target="_top" xlink:title=" ">
<polygon fill="white" stroke="#666666" points="429.94,-30 267.94,-30 267.94,0 429.94,0 429.94,-30"/>
<text text-anchor="start" x="275.94" y="-18" font-family="Helvetica,sans-Serif" font-size="10.00">applications/mp&#45;level</text>
<text text-anchor="middle" x="348.94" y="-7" font-family="Helvetica,sans-Serif" font-size="10.00">&#45;set/level_set_application.cpp</text>
</a>
</g>
</g>
<!-- Node1&#45;&gt;Node4 -->
<g id="edge3_Node000001_Node000004" class="edge">
<title>Node1&#45;&gt;Node4</title>
<g id="a_edge3_Node000001_Node000004"><a xlink:title=" ">
<path fill="none" stroke="#63b8ff" d="M627.51,-299.99C459.94,-299.16 75.47,-292.59 35.94,-250 -40.17,-167.99 6.03,-168.27 177.94,-66 206.25,-49.16 240.6,-37.68 271.06,-30.01"/>
<polygon fill="#63b8ff" stroke="#63b8ff" points="627.73,-303.49 637.75,-300.04 627.76,-296.49 627.73,-303.49"/>
</a>
</g>
</g>
<!-- Node5 -->
<g id="Node000005" class="node">
<title>Node5</title>
<g id="a_Node000005"><a xlink:href="melt__pool__application_8cpp.html" target="_top" xlink:title=" ">
<polygon fill="white" stroke="#666666" points="802.44,-30 629.44,-30 629.44,0 802.44,0 802.44,-30"/>
<text text-anchor="start" x="637.44" y="-18" font-family="Helvetica,sans-Serif" font-size="10.00">applications/mp&#45;melt</text>
<text text-anchor="middle" x="715.94" y="-7" font-family="Helvetica,sans-Serif" font-size="10.00">&#45;pool/melt_pool_application.cpp</text>
</a>
</g>
</g>
<!-- Node1&#45;&gt;Node5 -->
<g id="edge4_Node000001_Node000005" class="edge">
<title>Node1&#45;&gt;Node5</title>
<g id="a_edge4_Node000001_Node000005"><a xlink:title=" ">
<path fill="none" stroke="#63b8ff" d="M734.13,-279.58C743.55,-271.47 753.08,-261.35 758.94,-250 774.76,-219.33 766.71,-207.44 768.94,-173 772.05,-124.88 771.41,-109.66 750.94,-66 744.82,-52.95 735.32,-39.66 727.76,-30.06"/>
<polygon fill="#63b8ff" stroke="#63b8ff" points="731.88,-276.89 726.31,-285.9 736.29,-282.33 731.88,-276.89"/>
</a>
</g>
</g>
<!-- Node6 -->
<g id="Node000006" class="node">
<title>Node6</title>
<g id="a_Node000006"><a xlink:href="radiative__transport__application_8cpp.html" target="_top" xlink:title=" ">
<polygon fill="white" stroke="#666666" points="545.44,-250 384.44,-250 384.44,-209 545.44,-209 545.44,-250"/>
<text text-anchor="start" x="392.44" y="-238" font-family="Helvetica,sans-Serif" font-size="10.00">applications/mp&#45;radiative</text>
<text text-anchor="start" x="392.44" y="-227" font-family="Helvetica,sans-Serif" font-size="10.00">&#45;transport/radiative_transport</text>
<text text-anchor="middle" x="464.94" y="-216" font-family="Helvetica,sans-Serif" font-size="10.00">_application.cpp</text>
</a>
</g>
</g>
<!-- Node1&#45;&gt;Node6 -->
<g id="edge5_Node000001_Node000006" class="edge">
<title>Node1&#45;&gt;Node6</title>
<g id="a_edge5_Node000001_Node000006"><a xlink:title=" ">
<path fill="none" stroke="#63b8ff" d="M646.47,-283.07C612.06,-273.11 568.41,-260.46 532.53,-250.07"/>
<polygon fill="#63b8ff" stroke="#63b8ff" points="645.79,-286.52 656.37,-285.94 647.74,-279.79 645.79,-286.52"/>
</a>
</g>
</g>
<!-- Node7 -->
<g id="Node000007" class="node">
<title>Node7</title>
<g id="a_Node000007"><a xlink:href="reinitialization__application_8cpp.html" target="_top" xlink:title=" ">
<polygon fill="white" stroke="#666666" points="733.94,-244.5 563.94,-244.5 563.94,-214.5 733.94,-214.5 733.94,-244.5"/>
<text text-anchor="start" x="571.94" y="-232.5" font-family="Helvetica,sans-Serif" font-size="10.00">applications/mp&#45;reinit</text>
<text text-anchor="middle" x="648.94" y="-221.5" font-family="Helvetica,sans-Serif" font-size="10.00">/reinitialization_application.cpp</text>
</a>
</g>
</g>
<!-- Node1&#45;&gt;Node7 -->
<g id="edge6_Node000001_Node000007" class="edge">
<title>Node1&#45;&gt;Node7</title>
<g id="a_edge6_Node000001_Node000007"><a xlink:title=" ">
<path fill="none" stroke="#63b8ff" d="M687.23,-278.03C678.4,-267.07 667.99,-254.15 660.25,-244.54"/>
<polygon fill="#63b8ff" stroke="#63b8ff" points="684.6,-280.34 693.6,-285.94 690.06,-275.95 684.6,-280.34"/>
</a>
</g>
</g>
<!-- Node8 -->
<g id="Node000008" class="node">
<title>Node8</title>
<g id="a_Node000008"><a xlink:href="advection__diffusion__operation_8hpp.html" target="_top" xlink:title=" ">
<polygon fill="white" stroke="#666666" points="366.44,-250 229.44,-250 229.44,-209 366.44,-209 366.44,-250"/>
<text text-anchor="start" x="237.44" y="-238" font-family="Helvetica,sans-Serif" font-size="10.00">include/meltpooldg</text>
<text text-anchor="start" x="237.44" y="-227" font-family="Helvetica,sans-Serif" font-size="10.00">/level_set/advection</text>
<text text-anchor="middle" x="297.94" y="-216" font-family="Helvetica,sans-Serif" font-size="10.00">_diffusion_operation.hpp</text>
</a>
</g>
</g>
<!-- Node1&#45;&gt;Node8 -->
<g id="edge7_Node000001_Node000008" class="edge">
<title>Node1&#45;&gt;Node8</title>
<g id="a_edge7_Node000001_Node000008"><a xlink:title=" ">
<path fill="none" stroke="#63b8ff" d="M627.78,-290.36C560.88,-281.51 461.61,-267.18 375.94,-250 372.93,-249.4 369.86,-248.75 366.76,-248.08"/>
<polygon fill="#63b8ff" stroke="#63b8ff" points="627.45,-293.85 637.82,-291.68 628.36,-286.91 627.45,-293.85"/>
</a>
</g>
</g>
<!-- Node13 -->
<g id="Node000013" class="node">
<title>Node13</title>
<g id="a_Node000013"><a xlink:href="advection__diffusion__operation_8cpp.html" target="_top" xlink:title=" ">
<polygon fill="white" stroke="#666666" points="759.44,-167.5 612.44,-167.5 612.44,-137.5 759.44,-137.5 759.44,-167.5"/>
<text text-anchor="start" x="620.44" y="-155.5" font-family="Helvetica,sans-Serif" font-size="10.00">source/level_set/advection</text>
<text text-anchor="middle" x="685.94" y="-144.5" font-family="Helvetica,sans-Serif" font-size="10.00">_diffusion_operation.cpp</text>
</a>
</g>
</g>
<!-- Node1&#45;&gt;Node13 -->
<g id="edge20_Node000001_Node000013" class="edge">
<title>Node1&#45;&gt;Node13</title>
<g id="a_edge20_Node000001_Node000013"><a xlink:title=" ">
<path fill="none" stroke="#63b8ff" d="M726.39,-278.19C733.03,-270.02 739.49,-260.23 742.94,-250 748.75,-232.73 750.02,-225.79 742.94,-209 735.74,-191.95 720.46,-177.54 707.53,-167.68"/>
<polygon fill="#63b8ff" stroke="#63b8ff" points="723.73,-275.93 719.81,-285.77 729.01,-280.52 723.73,-275.93"/>
</a>
</g>
</g>
<!-- Node15 -->
<g id="Node000015" class="node">
<title>Node15</title>
<g id="a_Node000015"><a xlink:href="heat__cut__operation_8cpp.html" target="_top" xlink:title=" ">
<polygon fill="white" stroke="#666666" points="947.44,-244.5 828.44,-244.5 828.44,-214.5 947.44,-214.5 947.44,-244.5"/>
<text text-anchor="start" x="836.44" y="-232.5" font-family="Helvetica,sans-Serif" font-size="10.00">source/heat/heat_cut</text>
<text text-anchor="middle" x="887.94" y="-221.5" font-family="Helvetica,sans-Serif" font-size="10.00">_operation.cpp</text>
</a>
</g>
</g>
<!-- Node1&#45;&gt;Node15 -->
<g id="edge18_Node000001_Node000015" class="edge">
<title>Node1&#45;&gt;Node15</title>
<g id="a_edge18_Node000001_Node000015"><a xlink:title=" ">
<path fill="none" stroke="#63b8ff" d="M751.64,-282.26C782.48,-270.55 822.32,-255.42 850.96,-244.54"/>
<polygon fill="#63b8ff" stroke="#63b8ff" points="750.08,-279.11 741.97,-285.94 752.56,-285.66 750.08,-279.11"/>
</a>
</g>
</g>
<!-- Node16 -->
<g id="Node000016" class="node">
<title>Node16</title>
<g id="a_Node000016"><a xlink:href="heat__diffuse__operation_8cpp.html" target="_top" xlink:title=" ">
<polygon fill="white" stroke="#666666" points="1102.44,-244.5 965.44,-244.5 965.44,-214.5 1102.44,-214.5 1102.44,-244.5"/>
<text text-anchor="start" x="973.44" y="-232.5" font-family="Helvetica,sans-Serif" font-size="10.00">source/heat/heat_diffuse</text>
<text text-anchor="middle" x="1033.94" y="-221.5" font-family="Helvetica,sans-Serif" font-size="10.00">_operation.cpp</text>
</a>
</g>
</g>
<!-- Node1&#45;&gt;Node16 -->
<g id="edge19_Node000001_Node000016" class="edge">
<title>Node1&#45;&gt;Node16</title>
<g id="a_edge19_Node000001_Node000016"><a xlink:title=" ">
<path fill="none" stroke="#63b8ff" d="M782.08,-285.77C832.07,-276.29 898.53,-263.18 956.94,-250 964.33,-248.33 972.11,-246.48 979.75,-244.6"/>
<polygon fill="#63b8ff" stroke="#63b8ff" points="781.17,-282.38 771.99,-287.68 782.47,-289.26 781.17,-282.38"/>
</a>
</g>
</g>
<!-- Node17 -->
<g id="Node000017" class="node">
<title>Node17</title>
<g id="a_Node000017"><a xlink:href="source_2phase__change_2melt__front__propagation_8cpp.html" target="_top" xlink:title=" ">
<polygon fill="white" stroke="#666666" points="1275.44,-244.5 1120.44,-244.5 1120.44,-214.5 1275.44,-214.5 1275.44,-244.5"/>
<text text-anchor="start" x="1128.44" y="-232.5" font-family="Helvetica,sans-Serif" font-size="10.00">source/phase_change</text>
<text text-anchor="middle" x="1197.94" y="-221.5" font-family="Helvetica,sans-Serif" font-size="10.00">/melt_front_propagation.cpp</text>
</a>
</g>
</g>
<!-- Node1&#45;&gt;Node17 -->
<g id="edge21_Node000001_Node000017" class="edge">
<title>Node1&#45;&gt;Node17</title>
<g id="a_edge21_Node000001_Node000017"><a xlink:title=" ">
<path fill="none" stroke="#63b8ff" d="M782.22,-292.85C864.35,-284.7 997.82,-269.9 1111.94,-250 1120.99,-248.42 1130.52,-246.51 1139.81,-244.51"/>
<polygon fill="#63b8ff" stroke="#63b8ff" points="781.83,-289.37 772.22,-293.83 782.52,-296.33 781.83,-289.37"/>
</a>
</g>
</g>
<!-- Node18 -->
<g id="Node000018" class="node">
<title>Node18</title>
<g id="a_Node000018"><a xlink:href="radiative__transport__operation_8cpp.html" target="_top" xlink:title=" ">
<polygon fill="white" stroke="#666666" points="1478.44,-244.5 1293.44,-244.5 1293.44,-214.5 1478.44,-214.5 1478.44,-244.5"/>
<text text-anchor="start" x="1301.44" y="-232.5" font-family="Helvetica,sans-Serif" font-size="10.00">source/radiative_transport</text>
<text text-anchor="middle" x="1385.94" y="-221.5" font-family="Helvetica,sans-Serif" font-size="10.00">/radiative_transport_operation.cpp</text>
</a>
</g>
</g>
<!-- Node1&#45;&gt;Node18 -->
<g id="edge22_Node000001_Node000018" class="edge">
<title>Node1&#45;&gt;Node18</title>
<g id="a_edge22_Node000001_Node000018"><a xlink:title=" ">
<path fill="none" stroke="#63b8ff" d="M782.32,-295.91C893.78,-289.44 1105.84,-274.94 1284.94,-250 1295.81,-248.49 1307.29,-246.57 1318.46,-244.54"/>
<polygon fill="#63b8ff" stroke="#63b8ff" points="781.96,-292.43 772.17,-296.5 782.36,-299.42 781.96,-292.43"/>
</a>
</g>
</g>
<!-- Node8&#45;&gt;Node2 -->
<g id="edge8_Node000008_Node000002" class="edge">
<title>Node8&#45;&gt;Node2</title>
<g id="a_edge8_Node000008_Node000002"><a xlink:title=" ">
<path fill="none" stroke="#63b8ff" d="M264.72,-202.82C252.17,-193.11 238.1,-182.24 226.38,-173.17"/>
<polygon fill="#63b8ff" stroke="#63b8ff" points="262.65,-205.64 272.7,-208.99 266.93,-200.1 262.65,-205.64"/>
</a>
</g>
</g>
<!-- Node9 -->
<g id="Node000009" class="node">
<title>Node9</title>
<g id="a_Node000009"><a xlink:href="level__set__operation_8hpp.html" target="_top" xlink:title=" ">
<polygon fill="white" stroke="#666666" points="435.44,-173 324.44,-173 324.44,-132 435.44,-132 435.44,-173"/>
<text text-anchor="start" x="332.44" y="-161" font-family="Helvetica,sans-Serif" font-size="10.00">include/meltpooldg</text>
<text text-anchor="start" x="332.44" y="-150" font-family="Helvetica,sans-Serif" font-size="10.00">/level_set/level_set</text>
<text text-anchor="middle" x="379.94" y="-139" font-family="Helvetica,sans-Serif" font-size="10.00">_operation.hpp</text>
</a>
</g>
</g>
<!-- Node8&#45;&gt;Node9 -->
<g id="edge9_Node000008_Node000009" class="edge">
<title>Node8&#45;&gt;Node9</title>
<g id="a_edge9_Node000008_Node000009"><a xlink:title=" ">
<path fill="none" stroke="#63b8ff" d="M327.14,-201.79C337.49,-192.32 348.95,-181.84 358.54,-173.07"/>
<polygon fill="#63b8ff" stroke="#63b8ff" points="324.5,-199.46 319.48,-208.79 329.22,-204.63 324.5,-199.46"/>
</a>
</g>
</g>
<!-- Node12 -->
<g id="Node000012" class="node">
<title>Node12</title>
<g id="a_Node000012"><a xlink:href="level__set__operation_8cpp.html" target="_top" xlink:title=" ">
<polygon fill="white" stroke="#666666" points="310.44,-96 187.44,-96 187.44,-66 310.44,-66 310.44,-96"/>
<text text-anchor="start" x="195.44" y="-84" font-family="Helvetica,sans-Serif" font-size="10.00">source/level_set/level</text>
<text text-anchor="middle" x="248.94" y="-73" font-family="Helvetica,sans-Serif" font-size="10.00">_set_operation.cpp</text>
</a>
</g>
</g>
<!-- Node8&#45;&gt;Node12 -->
<g id="edge17_Node000008_Node000012" class="edge">
<title>Node8&#45;&gt;Node12</title>
<g id="a_edge17_Node000008_Node000012"><a xlink:title=" ">
<path fill="none" stroke="#63b8ff" d="M293.8,-198.71C290.53,-179.3 285.14,-153.64 276.94,-132 272.14,-119.35 264.54,-106.03 258.46,-96.32"/>
<polygon fill="#63b8ff" stroke="#63b8ff" points="290.37,-199.46 295.39,-208.79 297.29,-198.36 290.37,-199.46"/>
</a>
</g>
</g>
<!-- Node8&#45;&gt;Node13 -->
<g id="edge15_Node000008_Node000013" class="edge">
<title>Node8&#45;&gt;Node13</title>
<g id="a_edge15_Node000008_Node000013"><a xlink:title=" ">
<path fill="none" stroke="#63b8ff" d="M376.63,-208.94C472.91,-189.27 499.35,-190.31 591.94,-173 601.03,-171.3 610.6,-169.42 620.01,-167.52"/>
<polygon fill="#63b8ff" stroke="#63b8ff" points="375.86,-205.52 366.77,-210.97 377.27,-212.38 375.86,-205.52"/>
</a>
</g>
</g>
<!-- Node14 -->
<g id="Node000014" class="node">
<title>Node14</title>
<g id="a_Node000014"><a xlink:href="level__set__DG__operation_8cpp.html" target="_top" xlink:title=" ">
<polygon fill="white" stroke="#666666" points="582.44,-167.5 453.44,-167.5 453.44,-137.5 582.44,-137.5 582.44,-167.5"/>
<text text-anchor="start" x="461.44" y="-155.5" font-family="Helvetica,sans-Serif" font-size="10.00">source/level_set/level</text>
<text text-anchor="middle" x="517.94" y="-144.5" font-family="Helvetica,sans-Serif" font-size="10.00">_set_DG_operation.cpp</text>
</a>
</g>
</g>
<!-- Node8&#45;&gt;Node14 -->
<g id="edge16_Node000008_Node000014" class="edge">
<title>Node8&#45;&gt;Node14</title>
<g id="a_edge16_Node000008_Node000014"><a xlink:title=" ">
<path fill="none" stroke="#63b8ff" d="M364.74,-205.73C401.19,-193.3 445.16,-178.31 476.63,-167.58"/>
<polygon fill="#63b8ff" stroke="#63b8ff" points="363.5,-202.45 355.16,-208.99 365.76,-209.08 363.5,-202.45"/>
</a>
</g>
</g>
<!-- Node10 -->
<g id="Node000010" class="node">
<title>Node10</title>
<g id="a_Node000010"><a xlink:href="level__set__application_8hpp.html" target="_top" xlink:title=" ">
<polygon fill="white" stroke="#666666" points="491.44,-96 328.44,-96 328.44,-66 491.44,-66 491.44,-96"/>
<text text-anchor="start" x="336.44" y="-84" font-family="Helvetica,sans-Serif" font-size="10.00">applications/mp&#45;level</text>
<text text-anchor="middle" x="409.94" y="-73" font-family="Helvetica,sans-Serif" font-size="10.00">&#45;set/level_set_application.hpp</text>
</a>
</g>
</g>
<!-- Node9&#45;&gt;Node10 -->
<g id="edge10_Node000009_Node000010" class="edge">
<title>Node9&#45;&gt;Node10</title>
<g id="a_edge10_Node000009_Node000010"><a xlink:title=" ">
<path fill="none" stroke="#63b8ff" d="M392.44,-122.53C396.39,-113.37 400.59,-103.66 403.88,-96.04"/>
<polygon fill="#63b8ff" stroke="#63b8ff" points="389.2,-121.2 388.45,-131.77 395.63,-123.98 389.2,-121.2"/>
</a>
</g>
</g>
<!-- Node11 -->
<g id="Node000011" class="node">
<title>Node11</title>
<g id="a_Node000011"><a xlink:href="melt__pool__application_8hpp.html" target="_top" xlink:title=" ">
<polygon fill="white" stroke="#666666" points="741.44,-96 568.44,-96 568.44,-66 741.44,-66 741.44,-96"/>
<text text-anchor="start" x="576.44" y="-84" font-family="Helvetica,sans-Serif" font-size="10.00">applications/mp&#45;melt</text>
<text text-anchor="middle" x="654.94" y="-73" font-family="Helvetica,sans-Serif" font-size="10.00">&#45;pool/melt_pool_application.hpp</text>
</a>
</g>
</g>
<!-- Node9&#45;&gt;Node11 -->
<g id="edge12_Node000009_Node000011" class="edge">
<title>Node9&#45;&gt;Node11</title>
<g id="a_edge12_Node000009_Node000011"><a xlink:title=" ">
<path fill="none" stroke="#63b8ff" d="M445.45,-131.93C500.27,-117.33 552.31,-105.04 591.75,-96.04"/>
<polygon fill="#63b8ff" stroke="#63b8ff" points="444.3,-128.62 435.55,-134.59 446.11,-135.38 444.3,-128.62"/>
</a>
</g>
</g>
<!-- Node9&#45;&gt;Node12 -->
<g id="edge14_Node000009_Node000012" class="edge">
<title>Node9&#45;&gt;Node12</title>
<g id="a_edge14_Node000009_Node000012"><a xlink:title=" ">
<path fill="none" stroke="#63b8ff" d="M334.03,-127.14C314.46,-116.76 292.33,-105.02 275.54,-96.11"/>
<polygon fill="#63b8ff" stroke="#63b8ff" points="332.62,-130.36 343.1,-131.96 335.9,-124.18 332.62,-130.36"/>
</a>
</g>
</g>
<!-- Node10&#45;&gt;Node4 -->
<g id="edge11_Node000010_Node000004" class="edge">
<title>Node10&#45;&gt;Node4</title>
<g id="a_edge11_Node000010_Node000004"><a xlink:title=" ">
<path fill="none" stroke="#63b8ff" d="M389.32,-58.37C380.45,-49.06 370.33,-38.44 362.44,-30.16"/>
<polygon fill="#63b8ff" stroke="#63b8ff" points="386.97,-60.97 396.4,-65.8 392.03,-56.14 386.97,-60.97"/>
</a>
</g>
</g>
<!-- Node11&#45;&gt;Node5 -->
<g id="edge13_Node000011_Node000005" class="edge">
<title>Node11&#45;&gt;Node5</title>
<g id="a_edge13_Node000011_Node000005"><a xlink:title=" ">
<path fill="none" stroke="#63b8ff" d="M675.56,-58.37C684.43,-49.06 694.55,-38.44 702.44,-30.16"/>
<polygon fill="#63b8ff" stroke="#63b8ff" points="672.84,-56.14 668.47,-65.8 677.91,-60.97 672.84,-56.14"/>
</a>
</g>
</g>
</g>
</svg>

<g id="navigator" transform="translate(0 0)" fill="#404254">
  <rect fill="#f2f5e9" fill-opacity="0.5" stroke="#606060" stroke-width=".5" x="0" y="0" width="60" height="60"/>
  <use id="zoomplus" xlink:href="#zoomPlus" x="17" y="9" onmousedown="handleZoom(evt,'in')"/>
  <use id="zoomminus" xlink:href="#zoomMin" x="42" y="9" onmousedown="handleZoom(evt,'out')"/>
  <use id="reset" xlink:href="#resetDef" x="30" y="36" onmousedown="handleReset()"/>
   <use id="arrowup" xlink:href="#arrowUp" x="0" y="0" onmousedown="handlePan(0,-1)"/>
  <use id="arrowright" xlink:href="#arrowRight" x="0" y="0" onmousedown="handlePan(1,0)"/>
  <use id="arrowdown" xlink:href="#arrowDown" x="0" y="0" onmousedown="handlePan(0,1)"/>
  <use id="arrowleft" xlink:href="#arrowLeft" x="0" y="0" onmousedown="handlePan(-1,0)"/>
</g>
<svg viewBox="0 0 15 15" width="100%" height="30px" preserveAspectRatio="xMaxYMin meet">
 <g id="arrow_out" transform="scale(0.3 0.3)">
  <a xlink:href="constraints_8hpp__dep__incl_org.svg" target="_base">
   <rect id="button" ry="5" rx="5" y="6" x="6" height="38" width="38"
        fill="#f2f5e9" fill-opacity="0.5" stroke="#606060" stroke-width="1.0"/>
   <path id="arrow"
     d="M 11.500037,31.436501 C 11.940474,20.09759 22.043105,11.32322 32.158766,21.979434 L 37.068811,17.246167 C 37.068811,17.246167 37.088388,32 37.088388,32 L 22.160133,31.978069 C 22.160133,31.978069 26.997745,27.140456 26.997745,27.140456 C 18.528582,18.264221 13.291696,25.230495 11.500037,31.436501 z"
     style="fill:#404040;"/>
  </a>
 </g>
</svg>

<style type='text/css'>
<![CDATA[
[data-mouse-over-selected='false'] { opacity: 0.7; }
[data-mouse-over-selected='true']  { opacity: 1.0; }
]]>
</style>
<script type="application/ecmascript"><![CDATA[
document.addEventListener('DOMContentLoaded', (event) => {
  highlightEdges();
  highlightAdjacentNodes();
});
]]></script>
</svg>
