<?xml version="1.0" encoding="UTF-8" standalone="no"?>
<!DOCTYPE svg PUBLIC "-//W3C//DTD SVG 1.1//EN"
 "http://www.w3.org/Graphics/SVG/1.1/DTD/svg11.dtd">
<!-- Generated by graphviz version 2.43.0 (0)
 -->
<!-- Title: source/core/boundary_conditions.cpp Pages: 1 -->
<svg width="712pt" height="214pt"
 viewBox="0.00 0.00 712.04 214.00" xmlns="http://www.w3.org/2000/svg" xmlns:xlink="http://www.w3.org/1999/xlink">
<g id="graph0" class="graph" transform="scale(1 1) rotate(0) translate(4 210)">
<title>source/core/boundary_conditions.cpp</title>
<!-- Node1 -->
<g id="Node000001" class="node">
<title>Node1</title>
<g id="a_Node000001"><a xlink:title=" ">
<polygon fill="#999999" stroke="#666666" points="558.04,-206 436.04,-206 436.04,-176 558.04,-176 558.04,-206"/>
<text text-anchor="start" x="444.04" y="-194" font-family="Helvetica,sans-Serif" font-size="10.00">source/core/boundary</text>
<text text-anchor="middle" x="497.04" y="-183" font-family="Helvetica,sans-Serif" font-size="10.00">_conditions.cpp</text>
</a>
</g>
</g>
<!-- Node2 -->
<g id="Node000002" class="node">
<title>Node2</title>
<g id="a_Node000002"><a xlink:href="core_2boundary__conditions_8hpp.html" target="_top" xlink:title=" ">
<polygon fill="white" stroke="#666666" points="508.54,-140 363.54,-140 363.54,-110 508.54,-110 508.54,-140"/>
<text text-anchor="start" x="371.54" y="-128" font-family="Helvetica,sans-Serif" font-size="10.00">meltpooldg/core/boundary</text>
<text text-anchor="middle" x="436.04" y="-117" font-family="Helvetica,sans-Serif" font-size="10.00">_conditions.hpp</text>
</a>
</g>
</g>
<!-- Node1&#45;&gt;Node2 -->
<g id="edge1_Node000001_Node000002" class="edge">
<title>Node1&#45;&gt;Node2</title>
<g id="a_edge1_Node000001_Node000002"><a xlink:title=" ">
<path fill="none" stroke="#63b8ff" d="M483.5,-175.8C475.6,-167.51 465.48,-156.89 456.61,-147.59"/>
<polygon fill="#63b8ff" stroke="#63b8ff" points="458.97,-144.99 449.54,-140.16 453.9,-149.82 458.97,-144.99"/>
</a>
</g>
</g>
<!-- Node11 -->
<g id="Node000011" class="node">
<title>Node11</title>
<g id="a_Node000011"><a xlink:title=" ">
<polygon fill="#e0e0e0" stroke="#999999" points="591.04,-134.5 527.04,-134.5 527.04,-115.5 591.04,-115.5 591.04,-134.5"/>
<text text-anchor="middle" x="559.04" y="-122.5" font-family="Helvetica,sans-Serif" font-size="10.00">algorithm</text>
</a>
</g>
</g>
<!-- Node1&#45;&gt;Node11 -->
<g id="edge12_Node000001_Node000011" class="edge">
<title>Node1&#45;&gt;Node11</title>
<g id="a_edge12_Node000001_Node000011"><a xlink:title=" ">
<path fill="none" stroke="#63b8ff" d="M510.8,-175.8C520.46,-165.82 533.41,-152.46 543.45,-142.09"/>
<polygon fill="#63b8ff" stroke="#63b8ff" points="546.03,-144.46 550.47,-134.84 541,-139.59 546.03,-144.46"/>
</a>
</g>
</g>
<!-- Node3 -->
<g id="Node000003" class="node">
<title>Node3</title>
<g id="a_Node000003"><a xlink:title=" ">
<polygon fill="#e0e0e0" stroke="#999999" points="256.04,-19 118.04,-19 118.04,0 256.04,0 256.04,-19"/>
<text text-anchor="middle" x="187.04" y="-7" font-family="Helvetica,sans-Serif" font-size="10.00">deal.II/base/exceptions.h</text>
</a>
</g>
</g>
<!-- Node2&#45;&gt;Node3 -->
<g id="edge2_Node000002_Node000003" class="edge">
<title>Node2&#45;&gt;Node3</title>
<g id="a_edge2_Node000002_Node000003"><a xlink:title=" ">
<path fill="none" stroke="#63b8ff" d="M363.36,-120.67C247.64,-114.61 32.14,-99.96 9.04,-74 -24.33,-36.5 45.75,-21.14 107.55,-14.86"/>
<polygon fill="#63b8ff" stroke="#63b8ff" points="108.15,-18.31 117.78,-13.89 107.49,-11.35 108.15,-18.31"/>
</a>
</g>
</g>
<!-- Node4 -->
<g id="Node000004" class="node">
<title>Node4</title>
<g id="a_Node000004"><a xlink:title=" ">
<polygon fill="#e0e0e0" stroke="#999999" points="143.54,-74 18.54,-74 18.54,-55 143.54,-55 143.54,-74"/>
<text text-anchor="middle" x="81.04" y="-62" font-family="Helvetica,sans-Serif" font-size="10.00">deal.II/base/function.h</text>
</a>
</g>
</g>
<!-- Node2&#45;&gt;Node4 -->
<g id="edge3_Node000002_Node000004" class="edge">
<title>Node2&#45;&gt;Node4</title>
<g id="a_edge3_Node000002_Node000004"><a xlink:title=" ">
<path fill="none" stroke="#63b8ff" d="M363.34,-112.02C298.3,-101.3 204,-85.76 142.6,-75.65"/>
<polygon fill="#63b8ff" stroke="#63b8ff" points="143.1,-72.18 132.66,-74.01 141.96,-79.09 143.1,-72.18"/>
</a>
</g>
</g>
<!-- Node5 -->
<g id="Node000005" class="node">
<title>Node5</title>
<g id="a_Node000005"><a xlink:title=" ">
<polygon fill="#e0e0e0" stroke="#999999" points="274.04,-74 162.04,-74 162.04,-55 274.04,-55 274.04,-74"/>
<text text-anchor="middle" x="218.04" y="-62" font-family="Helvetica,sans-Serif" font-size="10.00">deal.II/base/types.h</text>
</a>
</g>
</g>
<!-- Node2&#45;&gt;Node5 -->
<g id="edge4_Node000002_Node000005" class="edge">
<title>Node2&#45;&gt;Node5</title>
<g id="a_edge4_Node000002_Node000005"><a xlink:title=" ">
<path fill="none" stroke="#63b8ff" d="M383.82,-109.99C345.87,-99.8 295.19,-86.2 259.89,-76.73"/>
<polygon fill="#63b8ff" stroke="#63b8ff" points="260.48,-73.27 249.91,-74.05 258.66,-80.03 260.48,-73.27"/>
</a>
</g>
</g>
<!-- Node6 -->
<g id="Node000006" class="node">
<title>Node6</title>
<g id="a_Node000006"><a xlink:href="exceptions_8hpp.html" target="_top" xlink:title=" ">
<polygon fill="white" stroke="#666666" points="465.54,-74 292.54,-74 292.54,-55 465.54,-55 465.54,-74"/>
<text text-anchor="middle" x="379.04" y="-62" font-family="Helvetica,sans-Serif" font-size="10.00">meltpooldg/core/exceptions.hpp</text>
</a>
</g>
</g>
<!-- Node2&#45;&gt;Node6 -->
<g id="edge5_Node000002_Node000006" class="edge">
<title>Node2&#45;&gt;Node6</title>
<g id="a_edge5_Node000002_Node000006"><a xlink:title=" ">
<path fill="none" stroke="#63b8ff" d="M422.24,-109.84C413.97,-101.35 403.41,-90.52 394.81,-81.69"/>
<polygon fill="#63b8ff" stroke="#63b8ff" points="397.06,-78.99 387.58,-74.27 392.05,-83.87 397.06,-78.99"/>
</a>
</g>
</g>
<!-- Node7 -->
<g id="Node000007" class="node">
<title>Node7</title>
<g id="a_Node000007"><a xlink:title=" ">
<polygon fill="#e0e0e0" stroke="#999999" points="458.04,-19 414.04,-19 414.04,0 458.04,0 458.04,-19"/>
<text text-anchor="middle" x="436.04" y="-7" font-family="Helvetica,sans-Serif" font-size="10.00">string</text>
</a>
</g>
</g>
<!-- Node2&#45;&gt;Node7 -->
<g id="edge11_Node000002_Node000007" class="edge">
<title>Node2&#45;&gt;Node7</title>
<g id="a_edge11_Node000002_Node000007"><a xlink:title=" ">
<path fill="none" stroke="#63b8ff" d="M451.3,-109.84C460.09,-100.61 470.31,-87.74 475.04,-74 477.78,-66.01 478.01,-62.9 475.04,-55 470.86,-43.89 462.51,-33.75 454.61,-25.96"/>
<polygon fill="#63b8ff" stroke="#63b8ff" points="456.76,-23.19 447.02,-19.01 452.03,-28.35 456.76,-23.19"/>
</a>
</g>
</g>
<!-- Node8 -->
<g id="Node000008" class="node">
<title>Node8</title>
<g id="a_Node000008"><a xlink:title=" ">
<polygon fill="#e0e0e0" stroke="#999999" points="560.04,-74 522.04,-74 522.04,-55 560.04,-55 560.04,-74"/>
<text text-anchor="middle" x="541.04" y="-62" font-family="Helvetica,sans-Serif" font-size="10.00">map</text>
</a>
</g>
</g>
<!-- Node2&#45;&gt;Node8 -->
<g id="edge8_Node000002_Node000008" class="edge">
<title>Node2&#45;&gt;Node8</title>
<g id="a_edge8_Node000002_Node000008"><a xlink:title=" ">
<path fill="none" stroke="#63b8ff" d="M461.19,-109.99C477.92,-100.66 499.81,-88.47 516.43,-79.21"/>
<polygon fill="#63b8ff" stroke="#63b8ff" points="518.5,-82.06 525.53,-74.14 515.09,-75.95 518.5,-82.06"/>
</a>
</g>
</g>
<!-- Node9 -->
<g id="Node000009" class="node">
<title>Node9</title>
<g id="a_Node000009"><a xlink:title=" ">
<polygon fill="#e0e0e0" stroke="#999999" points="636.04,-74 578.04,-74 578.04,-55 636.04,-55 636.04,-74"/>
<text text-anchor="middle" x="607.04" y="-62" font-family="Helvetica,sans-Serif" font-size="10.00">memory</text>
</a>
</g>
</g>
<!-- Node2&#45;&gt;Node9 -->
<g id="edge9_Node000002_Node000009" class="edge">
<title>Node2&#45;&gt;Node9</title>
<g id="a_edge9_Node000002_Node000009"><a xlink:title=" ">
<path fill="none" stroke="#63b8ff" d="M477,-109.99C506.04,-100.05 544.59,-86.86 572.16,-77.43"/>
<polygon fill="#63b8ff" stroke="#63b8ff" points="573.46,-80.69 581.78,-74.14 571.19,-74.06 573.46,-80.69"/>
</a>
</g>
</g>
<!-- Node10 -->
<g id="Node000010" class="node">
<title>Node10</title>
<g id="a_Node000010"><a xlink:title=" ">
<polygon fill="#e0e0e0" stroke="#999999" points="704.04,-74 654.04,-74 654.04,-55 704.04,-55 704.04,-74"/>
<text text-anchor="middle" x="679.04" y="-62" font-family="Helvetica,sans-Serif" font-size="10.00">ranges</text>
</a>
</g>
</g>
<!-- Node2&#45;&gt;Node10 -->
<g id="edge10_Node000002_Node000010" class="edge">
<title>Node2&#45;&gt;Node10</title>
<g id="a_edge10_Node000002_Node000010"><a xlink:title=" ">
<path fill="none" stroke="#63b8ff" d="M495.53,-109.94C535.01,-100.57 588.22,-87.86 643.77,-74.29"/>
<polygon fill="#63b8ff" stroke="#63b8ff" points="644.91,-77.62 653.79,-71.84 643.25,-70.82 644.91,-77.62"/>
</a>
</g>
</g>
<!-- Node6&#45;&gt;Node3 -->
<g id="edge6_Node000006_Node000003" class="edge">
<title>Node6&#45;&gt;Node3</title>
<g id="a_edge6_Node000006_Node000003"><a xlink:title=" ">
<path fill="none" stroke="#63b8ff" d="M348.19,-54.98C315.54,-45.97 263.84,-31.7 227.84,-21.76"/>
<polygon fill="#63b8ff" stroke="#63b8ff" points="228.7,-18.37 218.13,-19.08 226.84,-25.12 228.7,-18.37"/>
</a>
</g>
</g>
<!-- Node6&#45;&gt;Node7 -->
<g id="edge7_Node000006_Node000007" class="edge">
<title>Node6&#45;&gt;Node7</title>
<g id="a_edge7_Node000006_Node000007"><a xlink:title=" ">
<path fill="none" stroke="#63b8ff" d="M388.2,-54.98C396.54,-47.23 409.07,-35.58 419.21,-26.14"/>
<polygon fill="#63b8ff" stroke="#63b8ff" points="421.77,-28.54 426.71,-19.17 417.01,-23.42 421.77,-28.54"/>
</a>
</g>
</g>
</g>
</svg>
