<?xml version="1.0" encoding="UTF-8" standalone="no"?>
<!DOCTYPE svg PUBLIC "-//W3C//DTD SVG 1.1//EN"
 "http://www.w3.org/Graphics/SVG/1.1/DTD/svg11.dtd">
<!-- Generated by graphviz version 2.43.0 (0)
 -->
<!-- Title: include/meltpooldg/core/material.hpp Pages: 1 -->
<!--zoomable 291 -->

<svg id="main" version="1.1" xmlns="http://www.w3.org/2000/svg" xmlns:xlink="http://www.w3.org/1999/xlink" xml:space="preserve" onload="init(evt)">
<style type="text/css"><![CDATA[
.node, .edge {opacity: 0.7;}
.node.selected, .edge.selected {opacity: 1;}
.edge:hover path { stroke: red; }
.edge:hover polygon { stroke: red; fill: red; }
]]></style>

<defs>
  <circle id="rim" cx="0" cy="0" r="7"/>
  <circle id="rim2" cx="0" cy="0" r="3.5"/>
  <g id="zoomPlus">
    <use xlink:href="#rim" fill="#404040"><set attributeName="fill" to="#808080" begin="zoomplus.mouseover" end="zoomplus.mouseout"/></use>
    <path d="M-4,0h8M0,-4v8" fill="none" stroke="white" stroke-width="1.5" pointer-events="none"/>
  </g>
  <g id="zoomMin">
    <use xlink:href="#rim" fill="#404040"><set attributeName="fill" to="#808080" begin="zoomminus.mouseover" end="zoomminus.mouseout"/></use>
    <path d="M-4,0h8" fill="none" stroke="white" stroke-width="1.5" pointer-events="none"/>
  </g>
  <g id="arrowUp" transform="translate(30 24)">
    <use xlink:href="#rim"/>
    <path pointer-events="none" fill="none" stroke="white" stroke-width="1.5" d="M0,-3.0v7 M-2.5,-0.5L0,-3.0L2.5,-0.5"/>
  </g>
  <g id="arrowRight" transform="rotate(90) translate(36 -43)">
    <use xlink:href="#rim"/>
    <path pointer-events="none" fill="none" stroke="white" stroke-width="1.5" d="M0,-3.0v7 M-2.5,-0.5L0,-3.0L2.5,-0.5"/>
  </g>
  <g id="arrowDown" transform="rotate(180) translate(-30 -48)">
    <use xlink:href="#rim"/>
    <path pointer-events="none" fill="none" stroke="white" stroke-width="1.5" d="M0,-3.0v7 M-2.5,-0.5L0,-3.0L2.5,-0.5"/>
  </g>
  <g id="arrowLeft" transform="rotate(270) translate(-36 17)">
    <use xlink:href="#rim"/>
    <path pointer-events="none" fill="none" stroke="white" stroke-width="1.5" d="M0,-3.0v7 M-2.5,-0.5L0,-3.0L2.5,-0.5"/>
  </g>
  <g id="resetDef">
    <use xlink:href="#rim2" fill="#404040"><set attributeName="fill" to="#808080" begin="reset.mouseover" end="reset.mouseout"/></use>
  </g>
</defs>
<script type="application/ecmascript">
var viewWidth = 1783;
var viewHeight = 291;
var sectionId = 'dynsection-1';
</script>
<script type="application/ecmascript" xlink:href="svg.min.js"/>
<svg id="graph" class="graph">
<g id="viewport">
<title>include/meltpooldg/core/material.hpp</title>
<!-- Node1 -->
<g id="Node000001" class="node">
<title>Node1</title>
<g id="a_Node000001"><a xlink:title=" ">
<polygon fill="#999999" stroke="#666666" points="1114,-283 1004,-283 1004,-253 1114,-253 1114,-283"/>
<text text-anchor="start" x="1012" y="-271" font-family="Helvetica,sans-Serif" font-size="10.00">include/meltpooldg</text>
<text text-anchor="middle" x="1059" y="-260" font-family="Helvetica,sans-Serif" font-size="10.00">/core/material.hpp</text>
</a>
</g>
</g>
<!-- Node2 -->
<g id="Node000002" class="node">
<title>Node2</title>
<g id="a_Node000002"><a xlink:href="heat__transfer__application_8hpp.html" target="_top" xlink:title=" ">
<polygon fill="white" stroke="#666666" points="1385.5,-217 1258.5,-217 1258.5,-176 1385.5,-176 1385.5,-217"/>
<text text-anchor="start" x="1266.5" y="-205" font-family="Helvetica,sans-Serif" font-size="10.00">applications/mp&#45;heat</text>
<text text-anchor="start" x="1266.5" y="-194" font-family="Helvetica,sans-Serif" font-size="10.00">&#45;transfer/heat_transfer</text>
<text text-anchor="middle" x="1322" y="-183" font-family="Helvetica,sans-Serif" font-size="10.00">_application.hpp</text>
</a>
</g>
</g>
<!-- Node1&#45;&gt;Node2 -->
<g id="edge1_Node000001_Node000002" class="edge">
<title>Node1&#45;&gt;Node2</title>
<g id="a_edge1_Node000001_Node000002"><a xlink:title=" ">
<path fill="none" stroke="#63b8ff" d="M1123.05,-250.38C1160.15,-240.71 1207.74,-228.25 1250,-217 1252.75,-216.27 1255.56,-215.52 1258.4,-214.76"/>
<polygon fill="#63b8ff" stroke="#63b8ff" points="1122.16,-246.99 1113.37,-252.9 1123.93,-253.77 1122.16,-246.99"/>
</a>
</g>
</g>
<!-- Node4 -->
<g id="Node000004" class="node">
<title>Node4</title>
<g id="a_Node000004"><a xlink:href="melt__pool__application_8hpp.html" target="_top" xlink:title=" ">
<polygon fill="white" stroke="#666666" points="1072.5,-129 899.5,-129 899.5,-99 1072.5,-99 1072.5,-129"/>
<text text-anchor="start" x="907.5" y="-117" font-family="Helvetica,sans-Serif" font-size="10.00">applications/mp&#45;melt</text>
<text text-anchor="middle" x="986" y="-106" font-family="Helvetica,sans-Serif" font-size="10.00">&#45;pool/melt_pool_application.hpp</text>
</a>
</g>
</g>
<!-- Node1&#45;&gt;Node4 -->
<g id="edge3_Node000001_Node000004" class="edge">
<title>Node1&#45;&gt;Node4</title>
<g id="a_edge3_Node000001_Node000004"><a xlink:title=" ">
<path fill="none" stroke="#63b8ff" d="M1057.32,-242.49C1055.23,-223.5 1050.53,-196.98 1040,-176 1030.8,-157.67 1014.7,-140.54 1002.46,-129.12"/>
<polygon fill="#63b8ff" stroke="#63b8ff" points="1053.86,-243.07 1058.28,-252.7 1060.83,-242.41 1053.86,-243.07"/>
</a>
</g>
</g>
<!-- Node6 -->
<g id="Node000006" class="node">
<title>Node6</title>
<g id="a_Node000006"><a xlink:href="multiphase__interface__kernels_8hpp.html" target="_top" xlink:title=" ">
<polygon fill="white" stroke="#666666" points="263,-217 95,-217 95,-176 263,-176 263,-217"/>
<text text-anchor="start" x="103" y="-205" font-family="Helvetica,sans-Serif" font-size="10.00">include/meltpooldg</text>
<text text-anchor="start" x="103" y="-194" font-family="Helvetica,sans-Serif" font-size="10.00">/compressible_flow/multiphase</text>
<text text-anchor="middle" x="179" y="-183" font-family="Helvetica,sans-Serif" font-size="10.00">_interface_kernels.hpp</text>
</a>
</g>
</g>
<!-- Node1&#45;&gt;Node6 -->
<g id="edge5_Node000001_Node000006" class="edge">
<title>Node1&#45;&gt;Node6</title>
<g id="a_edge5_Node000001_Node000006"><a xlink:title=" ">
<path fill="none" stroke="#63b8ff" d="M993.8,-262.97C871.03,-255.23 597.21,-237.25 367,-217 333,-214.01 295.6,-210.23 263.17,-206.8"/>
<polygon fill="#63b8ff" stroke="#63b8ff" points="993.59,-266.46 1003.79,-263.6 994.03,-259.48 993.59,-266.46"/>
</a>
</g>
</g>
<!-- Node8 -->
<g id="Node000008" class="node">
<title>Node8</title>
<g id="a_Node000008"><a xlink:href="material_8templates_8hpp.html" target="_top" xlink:title=" ">
<polygon fill="white" stroke="#666666" points="869,-211.5 711,-211.5 711,-181.5 869,-181.5 869,-211.5"/>
<text text-anchor="start" x="719" y="-199.5" font-family="Helvetica,sans-Serif" font-size="10.00">include/meltpooldg</text>
<text text-anchor="middle" x="790" y="-188.5" font-family="Helvetica,sans-Serif" font-size="10.00">/core/material.templates.hpp</text>
</a>
</g>
</g>
<!-- Node1&#45;&gt;Node8 -->
<g id="edge7_Node000001_Node000008" class="edge">
<title>Node1&#45;&gt;Node8</title>
<g id="a_edge7_Node000001_Node000008"><a xlink:title=" ">
<path fill="none" stroke="#63b8ff" d="M994.72,-250.39C948.84,-238.54 887.81,-222.77 844.36,-211.54"/>
<polygon fill="#63b8ff" stroke="#63b8ff" points="994.01,-253.82 1004.56,-252.94 995.76,-247.05 994.01,-253.82"/>
</a>
</g>
</g>
<!-- Node13 -->
<g id="Node000013" class="node">
<title>Node13</title>
<g id="a_Node000013"><a xlink:href="characteristic__numbers_8hpp.html" target="_top" xlink:title=" ">
<polygon fill="white" stroke="#666666" points="486,-217 376,-217 376,-176 486,-176 486,-217"/>
<text text-anchor="start" x="384" y="-205" font-family="Helvetica,sans-Serif" font-size="10.00">include/meltpooldg</text>
<text text-anchor="start" x="384" y="-194" font-family="Helvetica,sans-Serif" font-size="10.00">/flow/characteristic</text>
<text text-anchor="middle" x="431" y="-183" font-family="Helvetica,sans-Serif" font-size="10.00">_numbers.hpp</text>
</a>
</g>
</g>
<!-- Node1&#45;&gt;Node13 -->
<g id="edge13_Node000001_Node000013" class="edge">
<title>Node1&#45;&gt;Node13</title>
<g id="a_edge13_Node000001_Node000013"><a xlink:title=" ">
<path fill="none" stroke="#63b8ff" d="M993.86,-261.28C899.42,-252.78 719.03,-235.8 566,-217 539.68,-213.77 510.55,-209.63 486.1,-206"/>
<polygon fill="#63b8ff" stroke="#63b8ff" points="993.56,-264.77 1003.83,-262.17 994.18,-257.79 993.56,-264.77"/>
</a>
</g>
</g>
<!-- Node17 -->
<g id="Node000017" class="node">
<title>Node17</title>
<g id="a_Node000017"><a xlink:href="darcy__damping__operation_8hpp.html" target="_top" xlink:title=" ">
<polygon fill="white" stroke="#666666" points="693,-217 575,-217 575,-176 693,-176 693,-217"/>
<text text-anchor="start" x="583" y="-205" font-family="Helvetica,sans-Serif" font-size="10.00">include/meltpooldg</text>
<text text-anchor="start" x="583" y="-194" font-family="Helvetica,sans-Serif" font-size="10.00">/flow/darcy_damping</text>
<text text-anchor="middle" x="634" y="-183" font-family="Helvetica,sans-Serif" font-size="10.00">_operation.hpp</text>
</a>
</g>
</g>
<!-- Node1&#45;&gt;Node17 -->
<g id="edge17_Node000001_Node000017" class="edge">
<title>Node1&#45;&gt;Node17</title>
<g id="a_edge17_Node000001_Node000017"><a xlink:title=" ">
<path fill="none" stroke="#63b8ff" d="M993.58,-260.62C921.62,-252.96 802.8,-238.4 702,-217 699.12,-216.39 696.18,-215.72 693.22,-215.01"/>
<polygon fill="#63b8ff" stroke="#63b8ff" points="993.53,-264.13 1003.85,-261.7 994.27,-257.17 993.53,-264.13"/>
</a>
</g>
</g>
<!-- Node18 -->
<g id="Node000018" class="node">
<title>Node18</title>
<g id="a_Node000018"><a xlink:href="heat__cut__operator_8hpp.html" target="_top" xlink:title=" ">
<polygon fill="white" stroke="#666666" points="1240.5,-211.5 1087.5,-211.5 1087.5,-181.5 1240.5,-181.5 1240.5,-211.5"/>
<text text-anchor="start" x="1095.5" y="-199.5" font-family="Helvetica,sans-Serif" font-size="10.00">include/meltpooldg</text>
<text text-anchor="middle" x="1164" y="-188.5" font-family="Helvetica,sans-Serif" font-size="10.00">/heat/heat_cut_operator.hpp</text>
</a>
</g>
</g>
<!-- Node1&#45;&gt;Node18 -->
<g id="edge20_Node000001_Node000018" class="edge">
<title>Node1&#45;&gt;Node18</title>
<g id="a_edge20_Node000001_Node000018"><a xlink:title=" ">
<path fill="none" stroke="#63b8ff" d="M1088.83,-247.25C1106.04,-235.86 1127.28,-221.81 1142.78,-211.54"/>
<polygon fill="#63b8ff" stroke="#63b8ff" points="1086.66,-244.5 1080.25,-252.94 1090.52,-250.33 1086.66,-244.5"/>
</a>
</g>
</g>
<!-- Node21 -->
<g id="Node000021" class="node">
<title>Node21</title>
<g id="a_Node000021"><a xlink:href="heat__diffuse__operation_8hpp.html" target="_top" xlink:title=" ">
<polygon fill="white" stroke="#666666" points="1774.5,-129 1597.5,-129 1597.5,-99 1774.5,-99 1774.5,-129"/>
<text text-anchor="start" x="1605.5" y="-117" font-family="Helvetica,sans-Serif" font-size="10.00">include/meltpooldg</text>
<text text-anchor="middle" x="1686" y="-106" font-family="Helvetica,sans-Serif" font-size="10.00">/heat/heat_diffuse_operation.hpp</text>
</a>
</g>
</g>
<!-- Node1&#45;&gt;Node21 -->
<g id="edge26_Node000001_Node000021" class="edge">
<title>Node1&#45;&gt;Node21</title>
<g id="a_edge26_Node000001_Node000021"><a xlink:title=" ">
<path fill="none" stroke="#63b8ff" d="M1124.53,-266.42C1246.82,-264.43 1504.6,-255.62 1584,-217 1606.62,-206 1605.3,-193.86 1623,-176 1639.18,-159.67 1658.19,-141.38 1671.07,-129.13"/>
<polygon fill="#63b8ff" stroke="#63b8ff" points="1124.14,-262.93 1114.19,-266.58 1124.24,-269.93 1124.14,-262.93"/>
</a>
</g>
</g>
<!-- Node23 -->
<g id="Node000023" class="node">
<title>Node23</title>
<g id="a_Node000023"><a xlink:href="heat__diffuse__operator_8hpp.html" target="_top" xlink:title=" ">
<polygon fill="white" stroke="#666666" points="1574.5,-211.5 1403.5,-211.5 1403.5,-181.5 1574.5,-181.5 1574.5,-211.5"/>
<text text-anchor="start" x="1411.5" y="-199.5" font-family="Helvetica,sans-Serif" font-size="10.00">include/meltpooldg</text>
<text text-anchor="middle" x="1489" y="-188.5" font-family="Helvetica,sans-Serif" font-size="10.00">/heat/heat_diffuse_operator.hpp</text>
</a>
</g>
</g>
<!-- Node1&#45;&gt;Node23 -->
<g id="edge30_Node000001_Node000023" class="edge">
<title>Node1&#45;&gt;Node23</title>
<g id="a_edge30_Node000001_Node000023"><a xlink:title=" ">
<path fill="none" stroke="#63b8ff" d="M1124.27,-258.41C1192.1,-249.21 1301.25,-233.69 1395,-217 1404.35,-215.34 1414.2,-213.45 1423.86,-211.51"/>
<polygon fill="#63b8ff" stroke="#63b8ff" points="1123.6,-254.96 1114.16,-259.77 1124.53,-261.9 1123.6,-254.96"/>
</a>
</g>
</g>
<!-- Node24 -->
<g id="Node000024" class="node">
<title>Node24</title>
<g id="a_Node000024"><a xlink:href="include_2meltpooldg_2phase__change_2melt__front__propagation_8hpp.html" target="_top" xlink:title=" ">
<polygon fill="white" stroke="#666666" points="1030.5,-217 887.5,-217 887.5,-176 1030.5,-176 1030.5,-217"/>
<text text-anchor="start" x="895.5" y="-205" font-family="Helvetica,sans-Serif" font-size="10.00">include/meltpooldg</text>
<text text-anchor="start" x="895.5" y="-194" font-family="Helvetica,sans-Serif" font-size="10.00">/phase_change/melt_front</text>
<text text-anchor="middle" x="959" y="-183" font-family="Helvetica,sans-Serif" font-size="10.00">_propagation.hpp</text>
</a>
</g>
</g>
<!-- Node1&#45;&gt;Node24 -->
<g id="edge33_Node000001_Node000024" class="edge">
<title>Node1&#45;&gt;Node24</title>
<g id="a_edge33_Node000001_Node000024"><a xlink:title=" ">
<path fill="none" stroke="#63b8ff" d="M1030.29,-247.04C1016.74,-237.63 1000.64,-226.44 987.16,-217.07"/>
<polygon fill="#63b8ff" stroke="#63b8ff" points="1028.55,-250.1 1038.76,-252.94 1032.55,-244.35 1028.55,-250.1"/>
</a>
</g>
</g>
<!-- Node25 -->
<g id="Node000025" class="node">
<title>Node25</title>
<g id="a_Node000025"><a xlink:href="core_2material_8cpp.html" target="_top" xlink:title=" ">
<polygon fill="white" stroke="#666666" points="1768.5,-206 1631.5,-206 1631.5,-187 1768.5,-187 1768.5,-206"/>
<text text-anchor="middle" x="1700" y="-194" font-family="Helvetica,sans-Serif" font-size="10.00">source/core/material.cpp</text>
</a>
</g>
</g>
<!-- Node1&#45;&gt;Node25 -->
<g id="edge36_Node000001_Node000025" class="edge">
<title>Node1&#45;&gt;Node25</title>
<g id="a_edge36_Node000001_Node000025"><a xlink:title=" ">
<path fill="none" stroke="#63b8ff" d="M1124.46,-264.14C1229.08,-258.89 1440.21,-245.54 1617,-217 1634.1,-214.24 1652.9,-209.93 1668.28,-206.06"/>
<polygon fill="#63b8ff" stroke="#63b8ff" points="1124.18,-260.65 1114.37,-264.64 1124.53,-267.64 1124.18,-260.65"/>
</a>
</g>
</g>
<!-- Node3 -->
<g id="Node000003" class="node">
<title>Node3</title>
<g id="a_Node000003"><a xlink:href="heat__transfer__application_8cpp.html" target="_top" xlink:title=" ">
<polygon fill="white" stroke="#666666" points="1616.5,-46.5 1489.5,-46.5 1489.5,-5.5 1616.5,-5.5 1616.5,-46.5"/>
<text text-anchor="start" x="1497.5" y="-34.5" font-family="Helvetica,sans-Serif" font-size="10.00">applications/mp&#45;heat</text>
<text text-anchor="start" x="1497.5" y="-23.5" font-family="Helvetica,sans-Serif" font-size="10.00">&#45;transfer/heat_transfer</text>
<text text-anchor="middle" x="1553" y="-12.5" font-family="Helvetica,sans-Serif" font-size="10.00">_application.cpp</text>
</a>
</g>
</g>
<!-- Node2&#45;&gt;Node3 -->
<g id="edge2_Node000002_Node000003" class="edge">
<title>Node2&#45;&gt;Node3</title>
<g id="a_edge2_Node000002_Node000003"><a xlink:title=" ">
<path fill="none" stroke="#63b8ff" d="M1395.57,-176.14C1467.68,-161.78 1508.14,-192.91 1551,-140 1572.37,-113.62 1565.77,-71.29 1559.24,-46.61"/>
<polygon fill="#63b8ff" stroke="#63b8ff" points="1394.66,-172.75 1385.67,-178.36 1396.19,-179.58 1394.66,-172.75"/>
</a>
</g>
</g>
<!-- Node5 -->
<g id="Node000005" class="node">
<title>Node5</title>
<g id="a_Node000005"><a xlink:href="melt__pool__application_8cpp.html" target="_top" xlink:title=" ">
<polygon fill="white" stroke="#666666" points="1150.5,-41 977.5,-41 977.5,-11 1150.5,-11 1150.5,-41"/>
<text text-anchor="start" x="985.5" y="-29" font-family="Helvetica,sans-Serif" font-size="10.00">applications/mp&#45;melt</text>
<text text-anchor="middle" x="1064" y="-18" font-family="Helvetica,sans-Serif" font-size="10.00">&#45;pool/melt_pool_application.cpp</text>
</a>
</g>
</g>
<!-- Node4&#45;&gt;Node5 -->
<g id="edge4_Node000004_Node000005" class="edge">
<title>Node4&#45;&gt;Node5</title>
<g id="a_edge4_Node000004_Node000005"><a xlink:title=" ">
<path fill="none" stroke="#63b8ff" d="M1005.84,-91.12C1020.06,-75.45 1038.79,-54.8 1051.1,-41.22"/>
<polygon fill="#63b8ff" stroke="#63b8ff" points="1003.01,-89.04 998.88,-98.8 1008.19,-93.74 1003.01,-89.04"/>
</a>
</g>
</g>
<!-- Node7 -->
<g id="Node000007" class="node">
<title>Node7</title>
<g id="a_Node000007"><a xlink:href="multiphase__operator_8cpp.html" target="_top" xlink:title=" ">
<polygon fill="white" stroke="#666666" points="166,-129 0,-129 0,-99 166,-99 166,-129"/>
<text text-anchor="start" x="8" y="-117" font-family="Helvetica,sans-Serif" font-size="10.00">source/compressible</text>
<text text-anchor="middle" x="83" y="-106" font-family="Helvetica,sans-Serif" font-size="10.00">_flow/multiphase_operator.cpp</text>
</a>
</g>
</g>
<!-- Node6&#45;&gt;Node7 -->
<g id="edge6_Node000006_Node000007" class="edge">
<title>Node6&#45;&gt;Node7</title>
<g id="a_edge6_Node000006_Node000007"><a xlink:title=" ">
<path fill="none" stroke="#63b8ff" d="M147.27,-168.9C131.44,-155.61 112.91,-140.08 99.83,-129.12"/>
<polygon fill="#63b8ff" stroke="#63b8ff" points="145.36,-171.86 155.27,-175.6 149.86,-166.49 145.36,-171.86"/>
</a>
</g>
</g>
<!-- Node8&#45;&gt;Node5 -->
<g id="edge8_Node000008_Node000005" class="edge">
<title>Node8&#45;&gt;Node5</title>
<g id="a_edge8_Node000008_Node000005"><a xlink:title=" ">
<path fill="none" stroke="#63b8ff" d="M752.03,-175.87C738.74,-166.88 725.31,-154.87 718,-140 707.8,-119.26 703.14,-105.7 718,-88 750.49,-49.28 885.96,-35.13 977.43,-29.96"/>
<polygon fill="#63b8ff" stroke="#63b8ff" points="750.36,-178.96 760.69,-181.35 754.11,-173.04 750.36,-178.96"/>
</a>
</g>
</g>
<!-- Node9 -->
<g id="Node000009" class="node">
<title>Node9</title>
<g id="a_Node000009"><a xlink:href="darcy__damping__operation_8cpp.html" target="_top" xlink:title=" ">
<polygon fill="white" stroke="#666666" points="670,-129 520,-129 520,-99 670,-99 670,-129"/>
<text text-anchor="start" x="528" y="-117" font-family="Helvetica,sans-Serif" font-size="10.00">source/flow/darcy_damping</text>
<text text-anchor="middle" x="595" y="-106" font-family="Helvetica,sans-Serif" font-size="10.00">_operation.cpp</text>
</a>
</g>
</g>
<!-- Node8&#45;&gt;Node9 -->
<g id="edge9_Node000008_Node000009" class="edge">
<title>Node8&#45;&gt;Node9</title>
<g id="a_edge9_Node000008_Node000009"><a xlink:title=" ">
<path fill="none" stroke="#63b8ff" d="M746.45,-177.52C711.06,-162.91 661.84,-142.59 629.23,-129.13"/>
<polygon fill="#63b8ff" stroke="#63b8ff" points="745.45,-180.9 756.03,-181.48 748.13,-174.43 745.45,-180.9"/>
</a>
</g>
</g>
<!-- Node10 -->
<g id="Node000010" class="node">
<title>Node10</title>
<g id="a_Node000010"><a xlink:href="heat__cut__operator_8cpp.html" target="_top" xlink:title=" ">
<polygon fill="white" stroke="#666666" points="1209.5,-129 1090.5,-129 1090.5,-99 1209.5,-99 1209.5,-129"/>
<text text-anchor="start" x="1098.5" y="-117" font-family="Helvetica,sans-Serif" font-size="10.00">source/heat/heat_cut</text>
<text text-anchor="middle" x="1150" y="-106" font-family="Helvetica,sans-Serif" font-size="10.00">_operator.cpp</text>
</a>
</g>
</g>
<!-- Node8&#45;&gt;Node10 -->
<g id="edge10_Node000008_Node000010" class="edge">
<title>Node8&#45;&gt;Node10</title>
<g id="a_edge10_Node000008_Node000010"><a xlink:title=" ">
<path fill="none" stroke="#63b8ff" d="M862.62,-179.34C868.16,-178.18 873.67,-177.06 879,-176 968.88,-158.19 993.54,-163.9 1082,-140 1093.05,-137.01 1104.84,-132.99 1115.44,-129.05"/>
<polygon fill="#63b8ff" stroke="#63b8ff" points="861.72,-175.95 852.66,-181.44 863.17,-182.8 861.72,-175.95"/>
</a>
</g>
</g>
<!-- Node11 -->
<g id="Node000011" class="node">
<title>Node11</title>
<g id="a_Node000011"><a xlink:href="heat__diffuse__operator_8cpp.html" target="_top" xlink:title=" ">
<polygon fill="white" stroke="#666666" points="1541.5,-129 1404.5,-129 1404.5,-99 1541.5,-99 1541.5,-129"/>
<text text-anchor="start" x="1412.5" y="-117" font-family="Helvetica,sans-Serif" font-size="10.00">source/heat/heat_diffuse</text>
<text text-anchor="middle" x="1473" y="-106" font-family="Helvetica,sans-Serif" font-size="10.00">_operator.cpp</text>
</a>
</g>
</g>
<!-- Node8&#45;&gt;Node11 -->
<g id="edge11_Node000008_Node000011" class="edge">
<title>Node8&#45;&gt;Node11</title>
<g id="a_edge11_Node000008_Node000011"><a xlink:title=" ">
<path fill="none" stroke="#63b8ff" d="M858.33,-179.47C865.29,-178.16 872.27,-176.97 879,-176 1107,-143.26 1169.89,-183.89 1396,-140 1409.25,-137.43 1423.39,-133.27 1435.89,-129.08"/>
<polygon fill="#63b8ff" stroke="#63b8ff" points="857.32,-176.11 848.18,-181.47 858.67,-182.97 857.32,-176.11"/>
</a>
</g>
</g>
<!-- Node12 -->
<g id="Node000012" class="node">
<title>Node12</title>
<g id="a_Node000012"><a xlink:href="source_2phase__change_2melt__front__propagation_8cpp.html" target="_top" xlink:title=" ">
<polygon fill="white" stroke="#666666" points="881.5,-129 726.5,-129 726.5,-99 881.5,-99 881.5,-129"/>
<text text-anchor="start" x="734.5" y="-117" font-family="Helvetica,sans-Serif" font-size="10.00">source/phase_change</text>
<text text-anchor="middle" x="804" y="-106" font-family="Helvetica,sans-Serif" font-size="10.00">/melt_front_propagation.cpp</text>
</a>
</g>
</g>
<!-- Node8&#45;&gt;Node12 -->
<g id="edge12_Node000008_Node000012" class="edge">
<title>Node8&#45;&gt;Node12</title>
<g id="a_edge12_Node000008_Node000012"><a xlink:title=" ">
<path fill="none" stroke="#63b8ff" d="M794.22,-171.24C796.61,-157.48 799.52,-140.75 801.54,-129.13"/>
<polygon fill="#63b8ff" stroke="#63b8ff" points="790.7,-171.03 792.44,-181.48 797.6,-172.23 790.7,-171.03"/>
</a>
</g>
</g>
<!-- Node14 -->
<g id="Node000014" class="node">
<title>Node14</title>
<g id="a_Node000014"><a xlink:href="thermo__capillary__droplet_8hpp.html" target="_top" xlink:title=" ">
<polygon fill="white" stroke="#666666" points="342,-140 184,-140 184,-88 342,-88 342,-140"/>
<text text-anchor="start" x="192" y="-128" font-family="Helvetica,sans-Serif" font-size="10.00">applications/mp&#45;melt</text>
<text text-anchor="start" x="192" y="-117" font-family="Helvetica,sans-Serif" font-size="10.00">&#45;pool/cases/thermo_capillary</text>
<text text-anchor="start" x="192" y="-106" font-family="Helvetica,sans-Serif" font-size="10.00">_droplet/thermo_capillary</text>
<text text-anchor="middle" x="263" y="-95" font-family="Helvetica,sans-Serif" font-size="10.00">_droplet.hpp</text>
</a>
</g>
</g>
<!-- Node13&#45;&gt;Node14 -->
<g id="edge14_Node000013_Node000014" class="edge">
<title>Node13&#45;&gt;Node14</title>
<g id="a_edge14_Node000013_Node000014"><a xlink:title=" ">
<path fill="none" stroke="#63b8ff" d="M380.69,-171.39C360.09,-161.52 336.25,-150.1 315.44,-140.13"/>
<polygon fill="#63b8ff" stroke="#63b8ff" points="379.37,-174.64 389.9,-175.81 382.4,-168.33 379.37,-174.64"/>
</a>
</g>
</g>
<!-- Node16 -->
<g id="Node000016" class="node">
<title>Node16</title>
<g id="a_Node000016"><a xlink:href="characteristic__numbers_8cpp.html" target="_top" xlink:title=" ">
<polygon fill="white" stroke="#666666" points="501.5,-129 360.5,-129 360.5,-99 501.5,-99 501.5,-129"/>
<text text-anchor="start" x="368.5" y="-117" font-family="Helvetica,sans-Serif" font-size="10.00">source/flow/characteristic</text>
<text text-anchor="middle" x="431" y="-106" font-family="Helvetica,sans-Serif" font-size="10.00">_numbers.cpp</text>
</a>
</g>
</g>
<!-- Node13&#45;&gt;Node16 -->
<g id="edge16_Node000013_Node000016" class="edge">
<title>Node13&#45;&gt;Node16</title>
<g id="a_edge16_Node000013_Node000016"><a xlink:title=" ">
<path fill="none" stroke="#63b8ff" d="M431,-165.26C431,-152.96 431,-139.33 431,-129.37"/>
<polygon fill="#63b8ff" stroke="#63b8ff" points="427.5,-165.6 431,-175.6 434.5,-165.6 427.5,-165.6"/>
</a>
</g>
</g>
<!-- Node15 -->
<g id="Node000015" class="node">
<title>Node15</title>
<g id="a_Node000015"><a xlink:href="thermo__capillary__droplet_8cpp.html" target="_top" xlink:title=" ">
<polygon fill="white" stroke="#666666" points="342,-52 184,-52 184,0 342,0 342,-52"/>
<text text-anchor="start" x="192" y="-40" font-family="Helvetica,sans-Serif" font-size="10.00">applications/mp&#45;melt</text>
<text text-anchor="start" x="192" y="-29" font-family="Helvetica,sans-Serif" font-size="10.00">&#45;pool/cases/thermo_capillary</text>
<text text-anchor="start" x="192" y="-18" font-family="Helvetica,sans-Serif" font-size="10.00">_droplet/thermo_capillary</text>
<text text-anchor="middle" x="263" y="-7" font-family="Helvetica,sans-Serif" font-size="10.00">_droplet.cpp</text>
</a>
</g>
</g>
<!-- Node14&#45;&gt;Node15 -->
<g id="edge15_Node000014_Node000015" class="edge">
<title>Node14&#45;&gt;Node15</title>
<g id="a_edge15_Node000014_Node000015"><a xlink:title=" ">
<path fill="none" stroke="#63b8ff" d="M263,-77.56C263,-69.04 263,-60.1 263,-52.16"/>
<polygon fill="#63b8ff" stroke="#63b8ff" points="259.5,-77.66 263,-87.66 266.5,-77.66 259.5,-77.66"/>
</a>
</g>
</g>
<!-- Node17&#45;&gt;Node4 -->
<g id="edge18_Node000017_Node000004" class="edge">
<title>Node17&#45;&gt;Node4</title>
<g id="a_edge18_Node000017_Node000004"><a xlink:title=" ">
<path fill="none" stroke="#63b8ff" d="M703.21,-175.82C786.93,-156.36 810.7,-158.19 891,-140 905.47,-136.72 921.08,-132.78 935.38,-129.01"/>
<polygon fill="#63b8ff" stroke="#63b8ff" points="702.18,-172.46 693.25,-178.16 703.79,-179.28 702.18,-172.46"/>
</a>
</g>
</g>
<!-- Node17&#45;&gt;Node9 -->
<g id="edge19_Node000017_Node000009" class="edge">
<title>Node17&#45;&gt;Node9</title>
<g id="a_edge19_Node000017_Node000009"><a xlink:title=" ">
<path fill="none" stroke="#63b8ff" d="M619.89,-166.37C613.79,-153.79 606.93,-139.63 601.96,-129.37"/>
<polygon fill="#63b8ff" stroke="#63b8ff" points="616.85,-168.13 624.36,-175.6 623.15,-165.08 616.85,-168.13"/>
</a>
</g>
</g>
<!-- Node18&#45;&gt;Node10 -->
<g id="edge25_Node000018_Node000010" class="edge">
<title>Node18&#45;&gt;Node10</title>
<g id="a_edge25_Node000018_Node000010"><a xlink:title=" ">
<path fill="none" stroke="#63b8ff" d="M1159.78,-171.24C1157.39,-157.48 1154.48,-140.75 1152.46,-129.13"/>
<polygon fill="#63b8ff" stroke="#63b8ff" points="1156.4,-172.23 1161.56,-181.48 1163.3,-171.03 1156.4,-172.23"/>
</a>
</g>
</g>
<!-- Node19 -->
<g id="Node000019" class="node">
<title>Node19</title>
<g id="a_Node000019"><a xlink:href="heat__cut__operation_8hpp.html" target="_top" xlink:title=" ">
<polygon fill="white" stroke="#666666" points="1386.5,-129 1227.5,-129 1227.5,-99 1386.5,-99 1386.5,-129"/>
<text text-anchor="start" x="1235.5" y="-117" font-family="Helvetica,sans-Serif" font-size="10.00">include/meltpooldg</text>
<text text-anchor="middle" x="1307" y="-106" font-family="Helvetica,sans-Serif" font-size="10.00">/heat/heat_cut_operation.hpp</text>
</a>
</g>
</g>
<!-- Node18&#45;&gt;Node19 -->
<g id="edge21_Node000018_Node000019" class="edge">
<title>Node18&#45;&gt;Node19</title>
<g id="a_edge21_Node000018_Node000019"><a xlink:title=" ">
<path fill="none" stroke="#63b8ff" d="M1197.96,-176.38C1223.73,-161.87 1258.6,-142.25 1281.9,-129.13"/>
<polygon fill="#63b8ff" stroke="#63b8ff" points="1195.91,-173.52 1188.91,-181.48 1199.34,-179.62 1195.91,-173.52"/>
</a>
</g>
</g>
<!-- Node19&#45;&gt;Node3 -->
<g id="edge22_Node000019_Node000003" class="edge">
<title>Node19&#45;&gt;Node3</title>
<g id="a_edge22_Node000019_Node000003"><a xlink:title=" ">
<path fill="none" stroke="#63b8ff" d="M1356.75,-95.61C1397.33,-81.42 1454.65,-61.38 1496.87,-46.62"/>
<polygon fill="#63b8ff" stroke="#63b8ff" points="1355.36,-92.39 1347.07,-98.99 1357.67,-98.99 1355.36,-92.39"/>
</a>
</g>
</g>
<!-- Node19&#45;&gt;Node5 -->
<g id="edge23_Node000019_Node000005" class="edge">
<title>Node19&#45;&gt;Node5</title>
<g id="a_edge23_Node000019_Node000005"><a xlink:title=" ">
<path fill="none" stroke="#63b8ff" d="M1257.77,-95.58C1212.32,-79.49 1145.66,-55.9 1103.57,-41"/>
<polygon fill="#63b8ff" stroke="#63b8ff" points="1256.82,-98.95 1267.42,-98.99 1259.16,-92.36 1256.82,-98.95"/>
</a>
</g>
</g>
<!-- Node20 -->
<g id="Node000020" class="node">
<title>Node20</title>
<g id="a_Node000020"><a xlink:href="heat__cut__operation_8cpp.html" target="_top" xlink:title=" ">
<polygon fill="white" stroke="#666666" points="1366.5,-41 1247.5,-41 1247.5,-11 1366.5,-11 1366.5,-41"/>
<text text-anchor="start" x="1255.5" y="-29" font-family="Helvetica,sans-Serif" font-size="10.00">source/heat/heat_cut</text>
<text text-anchor="middle" x="1307" y="-18" font-family="Helvetica,sans-Serif" font-size="10.00">_operation.cpp</text>
</a>
</g>
</g>
<!-- Node19&#45;&gt;Node20 -->
<g id="edge24_Node000019_Node000020" class="edge">
<title>Node19&#45;&gt;Node20</title>
<g id="a_edge24_Node000019_Node000020"><a xlink:title=" ">
<path fill="none" stroke="#63b8ff" d="M1307,-88.49C1307,-73.2 1307,-54.05 1307,-41.22"/>
<polygon fill="#63b8ff" stroke="#63b8ff" points="1303.5,-88.8 1307,-98.8 1310.5,-88.8 1303.5,-88.8"/>
</a>
</g>
</g>
<!-- Node21&#45;&gt;Node3 -->
<g id="edge27_Node000021_Node000003" class="edge">
<title>Node21&#45;&gt;Node3</title>
<g id="a_edge27_Node000021_Node000003"><a xlink:title=" ">
<path fill="none" stroke="#63b8ff" d="M1655.87,-93.52C1634.28,-79.55 1605.29,-60.81 1583.6,-46.78"/>
<polygon fill="#63b8ff" stroke="#63b8ff" points="1654.04,-96.5 1664.34,-98.99 1657.84,-90.62 1654.04,-96.5"/>
</a>
</g>
</g>
<!-- Node21&#45;&gt;Node5 -->
<g id="edge28_Node000021_Node000005" class="edge">
<title>Node21&#45;&gt;Node5</title>
<g id="a_edge28_Node000021_Node000005"><a xlink:title=" ">
<path fill="none" stroke="#63b8ff" d="M1605.55,-97.17C1587.63,-93.91 1568.7,-90.66 1551,-88 1412.96,-67.28 1377.44,-69.87 1239,-52 1210.24,-48.29 1178.86,-43.91 1150.72,-39.86"/>
<polygon fill="#63b8ff" stroke="#63b8ff" points="1604.92,-100.61 1615.39,-98.98 1606.19,-93.73 1604.92,-100.61"/>
</a>
</g>
</g>
<!-- Node22 -->
<g id="Node000022" class="node">
<title>Node22</title>
<g id="a_Node000022"><a xlink:href="heat__diffuse__operation_8cpp.html" target="_top" xlink:title=" ">
<polygon fill="white" stroke="#666666" points="1771.5,-41 1634.5,-41 1634.5,-11 1771.5,-11 1771.5,-41"/>
<text text-anchor="start" x="1642.5" y="-29" font-family="Helvetica,sans-Serif" font-size="10.00">source/heat/heat_diffuse</text>
<text text-anchor="middle" x="1703" y="-18" font-family="Helvetica,sans-Serif" font-size="10.00">_operation.cpp</text>
</a>
</g>
</g>
<!-- Node21&#45;&gt;Node22 -->
<g id="edge29_Node000021_Node000022" class="edge">
<title>Node21&#45;&gt;Node22</title>
<g id="a_edge29_Node000021_Node000022"><a xlink:title=" ">
<path fill="none" stroke="#63b8ff" d="M1690.76,-88.93C1693.79,-73.57 1697.63,-54.18 1700.19,-41.22"/>
<polygon fill="#63b8ff" stroke="#63b8ff" points="1687.31,-88.31 1688.81,-98.8 1694.18,-89.67 1687.31,-88.31"/>
</a>
</g>
</g>
<!-- Node23&#45;&gt;Node11 -->
<g id="edge32_Node000023_Node000011" class="edge">
<title>Node23&#45;&gt;Node11</title>
<g id="a_edge32_Node000023_Node000011"><a xlink:title=" ">
<path fill="none" stroke="#63b8ff" d="M1484.26,-171.65C1481.51,-157.81 1478.14,-140.87 1475.81,-129.13"/>
<polygon fill="#63b8ff" stroke="#63b8ff" points="1480.83,-172.35 1486.21,-181.48 1487.7,-170.99 1480.83,-172.35"/>
</a>
</g>
</g>
<!-- Node23&#45;&gt;Node21 -->
<g id="edge31_Node000023_Node000021" class="edge">
<title>Node23&#45;&gt;Node21</title>
<g id="a_edge31_Node000023_Node000021"><a xlink:title=" ">
<path fill="none" stroke="#63b8ff" d="M1533,-177.52C1568.75,-162.91 1618.48,-142.59 1651.42,-129.13"/>
<polygon fill="#63b8ff" stroke="#63b8ff" points="1531.25,-174.46 1523.31,-181.48 1533.9,-180.94 1531.25,-174.46"/>
</a>
</g>
</g>
<!-- Node24&#45;&gt;Node4 -->
<g id="edge34_Node000024_Node000004" class="edge">
<title>Node24&#45;&gt;Node4</title>
<g id="a_edge34_Node000024_Node000004"><a xlink:title=" ">
<path fill="none" stroke="#63b8ff" d="M968.89,-166C973.08,-153.51 977.77,-139.53 981.18,-129.37"/>
<polygon fill="#63b8ff" stroke="#63b8ff" points="965.54,-165.01 965.67,-175.6 972.17,-167.23 965.54,-165.01"/>
</a>
</g>
</g>
<!-- Node24&#45;&gt;Node12 -->
<g id="edge35_Node000024_Node000012" class="edge">
<title>Node24&#45;&gt;Node12</title>
<g id="a_edge35_Node000024_Node000012"><a xlink:title=" ">
<path fill="none" stroke="#63b8ff" d="M912.01,-171.09C885.62,-157.39 853.61,-140.77 831.32,-129.19"/>
<polygon fill="#63b8ff" stroke="#63b8ff" points="910.6,-174.3 921.08,-175.81 913.82,-168.09 910.6,-174.3"/>
</a>
</g>
</g>
</g>
</svg>

<g id="navigator" transform="translate(0 0)" fill="#404254">
  <rect fill="#f2f5e9" fill-opacity="0.5" stroke="#606060" stroke-width=".5" x="0" y="0" width="60" height="60"/>
  <use id="zoomplus" xlink:href="#zoomPlus" x="17" y="9" onmousedown="handleZoom(evt,'in')"/>
  <use id="zoomminus" xlink:href="#zoomMin" x="42" y="9" onmousedown="handleZoom(evt,'out')"/>
  <use id="reset" xlink:href="#resetDef" x="30" y="36" onmousedown="handleReset()"/>
   <use id="arrowup" xlink:href="#arrowUp" x="0" y="0" onmousedown="handlePan(0,-1)"/>
  <use id="arrowright" xlink:href="#arrowRight" x="0" y="0" onmousedown="handlePan(1,0)"/>
  <use id="arrowdown" xlink:href="#arrowDown" x="0" y="0" onmousedown="handlePan(0,1)"/>
  <use id="arrowleft" xlink:href="#arrowLeft" x="0" y="0" onmousedown="handlePan(-1,0)"/>
</g>
<svg viewBox="0 0 15 15" width="100%" height="30px" preserveAspectRatio="xMaxYMin meet">
 <g id="arrow_out" transform="scale(0.3 0.3)">
  <a xlink:href="core_2material_8hpp__dep__incl_org.svg" target="_base">
   <rect id="button" ry="5" rx="5" y="6" x="6" height="38" width="38"
        fill="#f2f5e9" fill-opacity="0.5" stroke="#606060" stroke-width="1.0"/>
   <path id="arrow"
     d="M 11.500037,31.436501 C 11.940474,20.09759 22.043105,11.32322 32.158766,21.979434 L 37.068811,17.246167 C 37.068811,17.246167 37.088388,32 37.088388,32 L 22.160133,31.978069 C 22.160133,31.978069 26.997745,27.140456 26.997745,27.140456 C 18.528582,18.264221 13.291696,25.230495 11.500037,31.436501 z"
     style="fill:#404040;"/>
  </a>
 </g>
</svg>

<style type='text/css'>
<![CDATA[
[data-mouse-over-selected='false'] { opacity: 0.7; }
[data-mouse-over-selected='true']  { opacity: 1.0; }
]]>
</style>
<script type="application/ecmascript"><![CDATA[
document.addEventListener('DOMContentLoaded', (event) => {
  highlightEdges();
  highlightAdjacentNodes();
});
]]></script>
</svg>
