<?xml version="1.0" encoding="UTF-8" standalone="no"?>
<!DOCTYPE svg PUBLIC "-//W3C//DTD SVG 1.1//EN"
 "http://www.w3.org/Graphics/SVG/1.1/DTD/svg11.dtd">
<!-- Generated by graphviz version 2.43.0 (0)
 -->
<!-- Title: include/meltpooldg/utilities/create_triangulation_with_marching_cube_algorithm.hpp Pages: 1 -->
<svg width="498pt" height="203pt"
 viewBox="0.00 0.00 497.50 203.00" xmlns="http://www.w3.org/2000/svg" xmlns:xlink="http://www.w3.org/1999/xlink">
<g id="graph0" class="graph" transform="scale(1 1) rotate(0) translate(4 199)">
<title>include/meltpooldg/utilities/create_triangulation_with_marching_cube_algorithm.hpp</title>
<!-- Node1 -->
<g id="Node000001" class="node">
<title>Node1</title>
<g id="a_Node000001"><a xlink:title=" ">
<polygon fill="#999999" stroke="#666666" points="342,-195 146,-195 146,-154 342,-154 342,-195"/>
<text text-anchor="start" x="154" y="-183" font-family="Helvetica,sans-Serif" font-size="10.00">include/meltpooldg</text>
<text text-anchor="start" x="154" y="-172" font-family="Helvetica,sans-Serif" font-size="10.00">/utilities/create_triangulation</text>
<text text-anchor="middle" x="244" y="-161" font-family="Helvetica,sans-Serif" font-size="10.00">_with_marching_cube_algorithm.hpp</text>
</a>
</g>
</g>
<!-- Node2 -->
<g id="Node000002" class="node">
<title>Node2</title>
<g id="a_Node000002"><a xlink:href="vortex__bubble_8hpp.html" target="_top" xlink:title=" ">
<polygon fill="white" stroke="#666666" points="160,-112.5 0,-112.5 0,-82.5 160,-82.5 160,-112.5"/>
<text text-anchor="start" x="8" y="-100.5" font-family="Helvetica,sans-Serif" font-size="10.00">applications/mp&#45;level</text>
<text text-anchor="middle" x="80" y="-89.5" font-family="Helvetica,sans-Serif" font-size="10.00">&#45;set/cases/vortex_bubble.hpp</text>
</a>
</g>
</g>
<!-- Node1&#45;&gt;Node2 -->
<g id="edge1_Node000001_Node000002" class="edge">
<title>Node1&#45;&gt;Node2</title>
<g id="a_edge1_Node000001_Node000002"><a xlink:title=" ">
<path fill="none" stroke="#63b8ff" d="M192.11,-149.77C165.36,-137.54 133.65,-123.04 110.79,-112.58"/>
<polygon fill="#63b8ff" stroke="#63b8ff" points="190.79,-153.01 201.34,-153.99 193.7,-146.65 190.79,-153.01"/>
</a>
</g>
</g>
<!-- Node4 -->
<g id="Node000004" class="node">
<title>Node4</title>
<g id="a_Node000004"><a xlink:href="film__boiling_8hpp.html" target="_top" xlink:title=" ">
<polygon fill="white" stroke="#666666" points="310,-118 178,-118 178,-77 310,-77 310,-118"/>
<text text-anchor="start" x="186" y="-106" font-family="Helvetica,sans-Serif" font-size="10.00">applications/mp&#45;melt</text>
<text text-anchor="start" x="186" y="-95" font-family="Helvetica,sans-Serif" font-size="10.00">&#45;pool/cases/film_boiling</text>
<text text-anchor="middle" x="244" y="-84" font-family="Helvetica,sans-Serif" font-size="10.00">/film_boiling.hpp</text>
</a>
</g>
</g>
<!-- Node1&#45;&gt;Node4 -->
<g id="edge3_Node000001_Node000004" class="edge">
<title>Node1&#45;&gt;Node4</title>
<g id="a_edge3_Node000001_Node000004"><a xlink:title=" ">
<path fill="none" stroke="#63b8ff" d="M244,-143.69C244,-135.08 244,-125.9 244,-118.07"/>
<polygon fill="#63b8ff" stroke="#63b8ff" points="240.5,-143.79 244,-153.79 247.5,-143.79 240.5,-143.79"/>
</a>
</g>
</g>
<!-- Node6 -->
<g id="Node000006" class="node">
<title>Node6</title>
<g id="a_Node000006"><a xlink:href="create__triangulation__with__marching__cube__algorithm_8cpp.html" target="_top" xlink:title=" ">
<polygon fill="white" stroke="#666666" points="489.5,-118 328.5,-118 328.5,-77 489.5,-77 489.5,-118"/>
<text text-anchor="start" x="336.5" y="-106" font-family="Helvetica,sans-Serif" font-size="10.00">source/utilities/create</text>
<text text-anchor="start" x="336.5" y="-95" font-family="Helvetica,sans-Serif" font-size="10.00">_triangulation_with_marching</text>
<text text-anchor="middle" x="409" y="-84" font-family="Helvetica,sans-Serif" font-size="10.00">_cube_algorithm.cpp</text>
</a>
</g>
</g>
<!-- Node1&#45;&gt;Node6 -->
<g id="edge5_Node000001_Node000006" class="edge">
<title>Node1&#45;&gt;Node6</title>
<g id="a_edge5_Node000001_Node000006"><a xlink:title=" ">
<path fill="none" stroke="#63b8ff" d="M296.31,-149.72C318.77,-139.51 344.69,-127.73 366.01,-118.04"/>
<polygon fill="#63b8ff" stroke="#63b8ff" points="294.58,-146.67 286.92,-153.99 297.47,-153.04 294.58,-146.67"/>
</a>
</g>
</g>
<!-- Node3 -->
<g id="Node000003" class="node">
<title>Node3</title>
<g id="a_Node000003"><a xlink:href="vortex__bubble_8cpp.html" target="_top" xlink:title=" ">
<polygon fill="white" stroke="#666666" points="159.5,-35.5 0.5,-35.5 0.5,-5.5 159.5,-5.5 159.5,-35.5"/>
<text text-anchor="start" x="8.5" y="-23.5" font-family="Helvetica,sans-Serif" font-size="10.00">applications/mp&#45;level</text>
<text text-anchor="middle" x="80" y="-12.5" font-family="Helvetica,sans-Serif" font-size="10.00">&#45;set/cases/vortex_bubble.cpp</text>
</a>
</g>
</g>
<!-- Node2&#45;&gt;Node3 -->
<g id="edge2_Node000002_Node000003" class="edge">
<title>Node2&#45;&gt;Node3</title>
<g id="a_edge2_Node000002_Node000003"><a xlink:title=" ">
<path fill="none" stroke="#63b8ff" d="M80,-72.04C80,-59.95 80,-45.79 80,-35.54"/>
<polygon fill="#63b8ff" stroke="#63b8ff" points="76.5,-72.39 80,-82.39 83.5,-72.39 76.5,-72.39"/>
</a>
</g>
</g>
<!-- Node5 -->
<g id="Node000005" class="node">
<title>Node5</title>
<g id="a_Node000005"><a xlink:href="film__boiling_8cpp.html" target="_top" xlink:title=" ">
<polygon fill="white" stroke="#666666" points="310,-41 178,-41 178,0 310,0 310,-41"/>
<text text-anchor="start" x="186" y="-29" font-family="Helvetica,sans-Serif" font-size="10.00">applications/mp&#45;melt</text>
<text text-anchor="start" x="186" y="-18" font-family="Helvetica,sans-Serif" font-size="10.00">&#45;pool/cases/film_boiling</text>
<text text-anchor="middle" x="244" y="-7" font-family="Helvetica,sans-Serif" font-size="10.00">/film_boiling.cpp</text>
</a>
</g>
</g>
<!-- Node4&#45;&gt;Node5 -->
<g id="edge4_Node000004_Node000005" class="edge">
<title>Node4&#45;&gt;Node5</title>
<g id="a_edge4_Node000004_Node000005"><a xlink:title=" ">
<path fill="none" stroke="#63b8ff" d="M244,-66.69C244,-58.08 244,-48.9 244,-41.07"/>
<polygon fill="#63b8ff" stroke="#63b8ff" points="240.5,-66.79 244,-76.79 247.5,-66.79 240.5,-66.79"/>
</a>
</g>
</g>
</g>
</svg>
