<?xml version="1.0" encoding="UTF-8" standalone="no"?>
<!DOCTYPE svg PUBLIC "-//W3C//DTD SVG 1.1//EN"
 "http://www.w3.org/Graphics/SVG/1.1/DTD/svg11.dtd">
<!-- Generated by graphviz version 2.43.0 (0)
 -->
<!-- Title: source/level_set/curvature_data.cpp Pages: 1 -->
<svg width="1097pt" height="434pt"
 viewBox="0.00 0.00 1096.50 434.00" xmlns="http://www.w3.org/2000/svg" xmlns:xlink="http://www.w3.org/1999/xlink">
<g id="graph0" class="graph" transform="scale(1 1) rotate(0) translate(4 430)">
<title>source/level_set/curvature_data.cpp</title>
<!-- Node1 -->
<g id="Node000001" class="node">
<title>Node1</title>
<g id="a_Node000001"><a xlink:title=" ">
<polygon fill="#999999" stroke="#666666" points="538,-426 392,-426 392,-396 538,-396 538,-426"/>
<text text-anchor="start" x="400" y="-414" font-family="Helvetica,sans-Serif" font-size="10.00">source/level_set/curvature</text>
<text text-anchor="middle" x="465" y="-403" font-family="Helvetica,sans-Serif" font-size="10.00">_data.cpp</text>
</a>
</g>
</g>
<!-- Node2 -->
<g id="Node000002" class="node">
<title>Node2</title>
<g id="a_Node000002"><a xlink:title=" ">
<polygon fill="#e0e0e0" stroke="#999999" points="138,-222.5 0,-222.5 0,-203.5 138,-203.5 138,-222.5"/>
<text text-anchor="middle" x="69" y="-210.5" font-family="Helvetica,sans-Serif" font-size="10.00">deal.II/base/exceptions.h</text>
</a>
</g>
</g>
<!-- Node1&#45;&gt;Node2 -->
<g id="edge1_Node000001_Node000002" class="edge">
<title>Node1&#45;&gt;Node2</title>
<g id="a_edge1_Node000001_Node000002"><a xlink:title=" ">
<path fill="none" stroke="#63b8ff" d="M436.52,-395.9C362.84,-359.44 166.75,-262.38 95.41,-227.07"/>
<polygon fill="#63b8ff" stroke="#63b8ff" points="96.72,-223.81 86.2,-222.51 93.61,-230.09 96.72,-223.81"/>
</a>
</g>
</g>
<!-- Node3 -->
<g id="Node000003" class="node">
<title>Node3</title>
<g id="a_Node000003"><a xlink:title=" ">
<polygon fill="#e0e0e0" stroke="#999999" points="1088.5,-24.5 963.5,-24.5 963.5,-5.5 1088.5,-5.5 1088.5,-24.5"/>
<text text-anchor="middle" x="1026" y="-12.5" font-family="Helvetica,sans-Serif" font-size="10.00">deal.II/base/patterns.h</text>
</a>
</g>
</g>
<!-- Node1&#45;&gt;Node3 -->
<g id="edge2_Node000001_Node000003" class="edge">
<title>Node1&#45;&gt;Node3</title>
<g id="a_edge2_Node000001_Node000003"><a xlink:title=" ">
<path fill="none" stroke="#63b8ff" d="M538.12,-408.41C691.13,-403.08 1031,-380 1031,-280 1031,-280 1031,-280 1031,-146 1031,-106.42 1028.66,-60.11 1027.18,-34.83"/>
<polygon fill="#63b8ff" stroke="#63b8ff" points="1030.65,-34.28 1026.55,-24.51 1023.66,-34.71 1030.65,-34.28"/>
</a>
</g>
</g>
<!-- Node4 -->
<g id="Node000004" class="node">
<title>Node4</title>
<g id="a_Node000004"><a xlink:href="curvature__data_8hpp.html" target="_top" xlink:title=" ">
<polygon fill="white" stroke="#666666" points="557.5,-360 438.5,-360 438.5,-330 557.5,-330 557.5,-360"/>
<text text-anchor="start" x="446.5" y="-348" font-family="Helvetica,sans-Serif" font-size="10.00">meltpooldg/level_set</text>
<text text-anchor="middle" x="498" y="-337" font-family="Helvetica,sans-Serif" font-size="10.00">/curvature_data.hpp</text>
</a>
</g>
</g>
<!-- Node1&#45;&gt;Node4 -->
<g id="edge3_Node000001_Node000004" class="edge">
<title>Node1&#45;&gt;Node4</title>
<g id="a_edge3_Node000001_Node000004"><a xlink:title=" ">
<path fill="none" stroke="#63b8ff" d="M472.32,-395.8C476.34,-388.01 481.42,-378.16 486,-369.28"/>
<polygon fill="#63b8ff" stroke="#63b8ff" points="489.22,-370.66 490.7,-360.16 483,-367.45 489.22,-370.66"/>
</a>
</g>
</g>
<!-- Node6 -->
<g id="Node000006" class="node">
<title>Node6</title>
<g id="a_Node000006"><a xlink:href="reinitialization__data_8hpp.html" target="_top" xlink:title=" ">
<polygon fill="white" stroke="#666666" points="444,-294 306,-294 306,-264 444,-264 444,-294"/>
<text text-anchor="start" x="314" y="-282" font-family="Helvetica,sans-Serif" font-size="10.00">meltpooldg/level_set</text>
<text text-anchor="middle" x="375" y="-271" font-family="Helvetica,sans-Serif" font-size="10.00">/reinitialization_data.hpp</text>
</a>
</g>
</g>
<!-- Node1&#45;&gt;Node6 -->
<g id="edge36_Node000001_Node000006" class="edge">
<title>Node1&#45;&gt;Node6</title>
<g id="a_edge36_Node000001_Node000006"><a xlink:title=" ">
<path fill="none" stroke="#63b8ff" d="M454.49,-395.64C447.24,-385.69 437.44,-372.11 429,-360 415.7,-340.93 400.95,-319.02 390.23,-302.97"/>
<polygon fill="#63b8ff" stroke="#63b8ff" points="392.89,-300.63 384.43,-294.25 387.06,-304.51 392.89,-300.63"/>
</a>
</g>
</g>
<!-- Node5 -->
<g id="Node000005" class="node">
<title>Node5</title>
<g id="a_Node000005"><a xlink:title=" ">
<polygon fill="#e0e0e0" stroke="#999999" points="456.5,-30 329.5,-30 329.5,0 456.5,0 456.5,-30"/>
<text text-anchor="start" x="337.5" y="-18" font-family="Helvetica,sans-Serif" font-size="10.00">deal.II/base/parameter</text>
<text text-anchor="middle" x="393" y="-7" font-family="Helvetica,sans-Serif" font-size="10.00">_handler.h</text>
</a>
</g>
</g>
<!-- Node4&#45;&gt;Node5 -->
<g id="edge4_Node000004_Node000005" class="edge">
<title>Node4&#45;&gt;Node5</title>
<g id="a_edge4_Node000004_Node000005"><a xlink:title=" ">
<path fill="none" stroke="#63b8ff" d="M501.98,-329.93C511.36,-293.69 531.07,-195.58 490,-132 470.8,-102.28 442.01,-122.88 419,-96 405.47,-80.2 398.95,-57.21 395.82,-39.93"/>
<polygon fill="#63b8ff" stroke="#63b8ff" points="399.28,-39.37 394.29,-30.02 392.36,-40.44 399.28,-39.37"/>
</a>
</g>
</g>
<!-- Node4&#45;&gt;Node6 -->
<g id="edge5_Node000004_Node000006" class="edge">
<title>Node4&#45;&gt;Node6</title>
<g id="a_edge5_Node000004_Node000006"><a xlink:title=" ">
<path fill="none" stroke="#63b8ff" d="M471.01,-329.95C453.38,-320.78 430.17,-308.71 410.98,-298.72"/>
<polygon fill="#63b8ff" stroke="#63b8ff" points="412.42,-295.52 401.93,-294.01 409.19,-301.73 412.42,-295.52"/>
</a>
</g>
</g>
<!-- Node12 -->
<g id="Node000012" class="node">
<title>Node12</title>
<g id="a_Node000012"><a xlink:title=" ">
<polygon fill="#e0e0e0" stroke="#999999" points="927,-24.5 883,-24.5 883,-5.5 927,-5.5 927,-24.5"/>
<text text-anchor="middle" x="905" y="-12.5" font-family="Helvetica,sans-Serif" font-size="10.00">string</text>
</a>
</g>
</g>
<!-- Node4&#45;&gt;Node12 -->
<g id="edge35_Node000004_Node000012" class="edge">
<title>Node4&#45;&gt;Node12</title>
<g id="a_edge35_Node000004_Node000012"><a xlink:title=" ">
<path fill="none" stroke="#63b8ff" d="M557.71,-340.88C689.36,-332.36 993,-303.07 993,-214 993,-214 993,-214 993,-146 993,-97.31 950.14,-53.26 924.24,-31.09"/>
<polygon fill="#63b8ff" stroke="#63b8ff" points="926.44,-28.37 916.5,-24.69 921.97,-33.76 926.44,-28.37"/>
</a>
</g>
</g>
<!-- Node13 -->
<g id="Node000013" class="node">
<title>Node13</title>
<g id="a_Node000013"><a xlink:href="linear__solver__data_8hpp.html" target="_top" xlink:title=" ">
<polygon fill="white" stroke="#666666" points="926.5,-162 781.5,-162 781.5,-132 926.5,-132 926.5,-162"/>
<text text-anchor="start" x="789.5" y="-150" font-family="Helvetica,sans-Serif" font-size="10.00">meltpooldg/linear_algebra</text>
<text text-anchor="middle" x="854" y="-139" font-family="Helvetica,sans-Serif" font-size="10.00">/linear_solver_data.hpp</text>
</a>
</g>
</g>
<!-- Node4&#45;&gt;Node13 -->
<g id="edge33_Node000004_Node000013" class="edge">
<title>Node4&#45;&gt;Node13</title>
<g id="a_edge33_Node000004_Node000013"><a xlink:title=" ">
<path fill="none" stroke="#63b8ff" d="M557.64,-340.66C633.7,-333.09 763.95,-308.39 836,-228 849.53,-212.9 853.58,-189.84 854.51,-172.35"/>
<polygon fill="#63b8ff" stroke="#63b8ff" points="858.01,-172.38 854.74,-162.3 851.01,-172.21 858.01,-172.38"/>
</a>
</g>
</g>
<!-- Node14 -->
<g id="Node000014" class="node">
<title>Node14</title>
<g id="a_Node000014"><a xlink:href="predictor__data_8hpp.html" target="_top" xlink:title=" ">
<polygon fill="white" stroke="#666666" points="481.5,-162 336.5,-162 336.5,-132 481.5,-132 481.5,-162"/>
<text text-anchor="start" x="344.5" y="-150" font-family="Helvetica,sans-Serif" font-size="10.00">meltpooldg/linear_algebra</text>
<text text-anchor="middle" x="409" y="-139" font-family="Helvetica,sans-Serif" font-size="10.00">/predictor_data.hpp</text>
</a>
</g>
</g>
<!-- Node4&#45;&gt;Node14 -->
<g id="edge34_Node000004_Node000014" class="edge">
<title>Node4&#45;&gt;Node14</title>
<g id="a_edge34_Node000004_Node000014"><a xlink:title=" ">
<path fill="none" stroke="#63b8ff" d="M495.71,-329.94C490.88,-302.97 478,-242.67 453,-198 447.26,-187.75 439.16,-177.77 431.46,-169.45"/>
<polygon fill="#63b8ff" stroke="#63b8ff" points="433.76,-166.8 424.3,-162.03 428.72,-171.66 433.76,-166.8"/>
</a>
</g>
</g>
<!-- Node6&#45;&gt;Node2 -->
<g id="edge6_Node000006_Node000002" class="edge">
<title>Node6&#45;&gt;Node2</title>
<g id="a_edge6_Node000006_Node000002"><a xlink:title=" ">
<path fill="none" stroke="#63b8ff" d="M307.85,-263.95C251.11,-252.09 171.08,-235.35 119.62,-224.59"/>
<polygon fill="#63b8ff" stroke="#63b8ff" points="120.23,-221.14 109.72,-222.52 118.8,-227.99 120.23,-221.14"/>
</a>
</g>
</g>
<!-- Node6&#45;&gt;Node5 -->
<g id="edge7_Node000006_Node000005" class="edge">
<title>Node6&#45;&gt;Node5</title>
<g id="a_edge7_Node000006_Node000005"><a xlink:title=" ">
<path fill="none" stroke="#63b8ff" d="M324.11,-263.93C255.81,-242.26 147.18,-196.39 185,-132 215.43,-80.19 278.33,-49.82 327.04,-33.25"/>
<polygon fill="#63b8ff" stroke="#63b8ff" points="328.17,-36.56 336.57,-30.12 325.98,-29.91 328.17,-36.56"/>
</a>
</g>
</g>
<!-- Node7 -->
<g id="Node000007" class="node">
<title>Node7</title>
<g id="a_Node000007"><a xlink:href="finite__element__data_8hpp.html" target="_top" xlink:title=" ">
<polygon fill="white" stroke="#666666" points="318,-162 194,-162 194,-132 318,-132 318,-162"/>
<text text-anchor="start" x="202" y="-150" font-family="Helvetica,sans-Serif" font-size="10.00">meltpooldg/core/finite</text>
<text text-anchor="middle" x="256" y="-139" font-family="Helvetica,sans-Serif" font-size="10.00">_element_data.hpp</text>
</a>
</g>
</g>
<!-- Node6&#45;&gt;Node7 -->
<g id="edge8_Node000006_Node000007" class="edge">
<title>Node6&#45;&gt;Node7</title>
<g id="a_edge8_Node000006_Node000007"><a xlink:title=" ">
<path fill="none" stroke="#63b8ff" d="M362.04,-263.84C341.29,-241.18 300.48,-196.6 275.98,-169.83"/>
<polygon fill="#63b8ff" stroke="#63b8ff" points="278.28,-167.16 268.95,-162.14 273.12,-171.88 278.28,-167.16"/>
</a>
</g>
</g>
<!-- Node8 -->
<g id="Node000008" class="node">
<title>Node8</title>
<g id="a_Node000008"><a xlink:href="enum_8hpp.html" target="_top" xlink:title=" ">
<polygon fill="white" stroke="#666666" points="737,-96 625,-96 625,-66 737,-66 737,-96"/>
<text text-anchor="start" x="633" y="-84" font-family="Helvetica,sans-Serif" font-size="10.00">meltpooldg/utilities</text>
<text text-anchor="middle" x="681" y="-73" font-family="Helvetica,sans-Serif" font-size="10.00">/enum.hpp</text>
</a>
</g>
</g>
<!-- Node6&#45;&gt;Node8 -->
<g id="edge30_Node000006_Node000008" class="edge">
<title>Node6&#45;&gt;Node8</title>
<g id="a_edge30_Node000006_Node000008"><a xlink:title=" ">
<path fill="none" stroke="#63b8ff" d="M397.01,-263.9C450.69,-229.52 588.47,-141.27 650.24,-101.7"/>
<polygon fill="#63b8ff" stroke="#63b8ff" points="652.25,-104.57 658.78,-96.23 648.47,-98.68 652.25,-104.57"/>
</a>
</g>
</g>
<!-- Node6&#45;&gt;Node12 -->
<g id="edge32_Node000006_Node000012" class="edge">
<title>Node6&#45;&gt;Node12</title>
<g id="a_edge32_Node000006_Node000012"><a xlink:title=" ">
<path fill="none" stroke="#63b8ff" d="M444.2,-274.49C554.69,-268.23 765.66,-253.34 836,-228 886.1,-209.96 910.76,-208.89 936,-162 958.74,-119.75 932.36,-62.23 916.03,-33.64"/>
<polygon fill="#63b8ff" stroke="#63b8ff" points="918.89,-31.61 910.77,-24.81 912.88,-35.19 918.89,-31.61"/>
</a>
</g>
</g>
<!-- Node6&#45;&gt;Node13 -->
<g id="edge17_Node000006_Node000013" class="edge">
<title>Node6&#45;&gt;Node13</title>
<g id="a_edge17_Node000006_Node000013"><a xlink:title=" ">
<path fill="none" stroke="#63b8ff" d="M444.22,-277.62C551.53,-275.8 751.78,-267.09 810,-228 829.43,-214.96 841.09,-190.34 847.47,-171.85"/>
<polygon fill="#63b8ff" stroke="#63b8ff" points="850.81,-172.91 850.49,-162.32 844.13,-170.79 850.81,-172.91"/>
</a>
</g>
</g>
<!-- Node6&#45;&gt;Node14 -->
<g id="edge19_Node000006_Node000014" class="edge">
<title>Node6&#45;&gt;Node14</title>
<g id="a_edge19_Node000006_Node000014"><a xlink:title=" ">
<path fill="none" stroke="#63b8ff" d="M377.16,-263.98C379.78,-247.89 384.66,-220.79 391,-198 393.43,-189.28 396.64,-179.9 399.67,-171.65"/>
<polygon fill="#63b8ff" stroke="#63b8ff" points="402.96,-172.85 403.23,-162.26 396.41,-170.37 402.96,-172.85"/>
</a>
</g>
</g>
<!-- Node15 -->
<g id="Node000015" class="node">
<title>Node15</title>
<g id="a_Node000015"><a xlink:href="time__integrator__data_8hpp.html" target="_top" xlink:title=" ">
<polygon fill="white" stroke="#666666" points="801,-228 645,-228 645,-198 801,-198 801,-228"/>
<text text-anchor="start" x="653" y="-216" font-family="Helvetica,sans-Serif" font-size="10.00">meltpooldg/time_integration</text>
<text text-anchor="middle" x="723" y="-205" font-family="Helvetica,sans-Serif" font-size="10.00">/time_integrator_data.hpp</text>
</a>
</g>
</g>
<!-- Node6&#45;&gt;Node15 -->
<g id="edge22_Node000006_Node000015" class="edge">
<title>Node6&#45;&gt;Node15</title>
<g id="a_edge22_Node000006_Node000015"><a xlink:title=" ">
<path fill="none" stroke="#63b8ff" d="M444.17,-265.28C499.45,-255.11 577.23,-240.81 636.6,-229.89"/>
<polygon fill="#63b8ff" stroke="#63b8ff" points="637.51,-233.28 646.71,-228.03 636.24,-226.4 637.51,-233.28"/>
</a>
</g>
</g>
<!-- Node17 -->
<g id="Node000017" class="node">
<title>Node17</title>
<g id="a_Node000017"><a xlink:title=" ">
<polygon fill="#e0e0e0" stroke="#999999" points="444,-222.5 400,-222.5 400,-203.5 444,-203.5 444,-222.5"/>
<text text-anchor="middle" x="422" y="-210.5" font-family="Helvetica,sans-Serif" font-size="10.00">limits</text>
</a>
</g>
</g>
<!-- Node6&#45;&gt;Node17 -->
<g id="edge31_Node000006_Node000017" class="edge">
<title>Node6&#45;&gt;Node17</title>
<g id="a_edge31_Node000006_Node000017"><a xlink:title=" ">
<path fill="none" stroke="#63b8ff" d="M385.43,-263.8C392.54,-254.11 402,-241.24 409.51,-231.01"/>
<polygon fill="#63b8ff" stroke="#63b8ff" points="412.41,-232.98 415.5,-222.84 406.76,-228.83 412.41,-232.98"/>
</a>
</g>
</g>
<!-- Node7&#45;&gt;Node5 -->
<g id="edge9_Node000007_Node000005" class="edge">
<title>Node7&#45;&gt;Node5</title>
<g id="a_edge9_Node000007_Node000005"><a xlink:title=" ">
<path fill="none" stroke="#63b8ff" d="M270.92,-131.84C295.01,-108.98 342.6,-63.82 370.72,-37.14"/>
<polygon fill="#63b8ff" stroke="#63b8ff" points="373.25,-39.56 378.1,-30.14 368.43,-34.49 373.25,-39.56"/>
</a>
</g>
</g>
<!-- Node7&#45;&gt;Node8 -->
<g id="edge10_Node000007_Node000008" class="edge">
<title>Node7&#45;&gt;Node8</title>
<g id="a_edge10_Node000007_Node000008"><a xlink:title=" ">
<path fill="none" stroke="#63b8ff" d="M318.29,-133.46C321.23,-132.95 324.15,-132.46 327,-132 451.55,-111.99 486.62,-117.35 614.5,-96.16"/>
<polygon fill="#63b8ff" stroke="#63b8ff" points="615.41,-99.56 624.69,-94.45 614.25,-92.65 615.41,-99.56"/>
</a>
</g>
</g>
<!-- Node8&#45;&gt;Node3 -->
<g id="edge12_Node000008_Node000003" class="edge">
<title>Node8&#45;&gt;Node3</title>
<g id="a_edge12_Node000008_Node000003"><a xlink:title=" ">
<path fill="none" stroke="#63b8ff" d="M737.2,-69.57C801.45,-57.66 905.99,-38.26 970.11,-26.37"/>
<polygon fill="#63b8ff" stroke="#63b8ff" points="970.85,-29.79 980.04,-24.53 969.57,-22.91 970.85,-29.79"/>
</a>
</g>
</g>
<!-- Node8&#45;&gt;Node5 -->
<g id="edge11_Node000008_Node000005" class="edge">
<title>Node8&#45;&gt;Node5</title>
<g id="a_edge11_Node000008_Node000005"><a xlink:title=" ">
<path fill="none" stroke="#63b8ff" d="M624.79,-67.51C579.46,-57.43 515.35,-43.19 466.05,-32.23"/>
<polygon fill="#63b8ff" stroke="#63b8ff" points="466.6,-28.77 456.08,-30.02 465.08,-35.6 466.6,-28.77"/>
</a>
</g>
</g>
<!-- Node9 -->
<g id="Node000009" class="node">
<title>Node9</title>
<g id="a_Node000009"><a xlink:title=" ">
<polygon fill="#e0e0e0" stroke="#999999" points="830,-30 718,-30 718,0 830,0 830,-30"/>
<text text-anchor="start" x="726" y="-18" font-family="Helvetica,sans-Serif" font-size="10.00">meltpooldg/utilities</text>
<text text-anchor="middle" x="774" y="-7" font-family="Helvetica,sans-Serif" font-size="10.00">/better_enum.hpp</text>
</a>
</g>
</g>
<!-- Node8&#45;&gt;Node9 -->
<g id="edge13_Node000008_Node000009" class="edge">
<title>Node8&#45;&gt;Node9</title>
<g id="a_edge13_Node000008_Node000009"><a xlink:title=" ">
<path fill="none" stroke="#63b8ff" d="M701.64,-65.8C714.4,-57.01 730.98,-45.61 745.04,-35.93"/>
<polygon fill="#63b8ff" stroke="#63b8ff" points="747.16,-38.72 753.42,-30.16 743.2,-32.95 747.16,-38.72"/>
</a>
</g>
</g>
<!-- Node10 -->
<g id="Node000010" class="node">
<title>Node10</title>
<g id="a_Node000010"><a xlink:title=" ">
<polygon fill="#e0e0e0" stroke="#999999" points="625.5,-30 500.5,-30 500.5,0 625.5,0 625.5,-30"/>
<text text-anchor="start" x="508.5" y="-18" font-family="Helvetica,sans-Serif" font-size="10.00">boost/algorithm/string</text>
<text text-anchor="middle" x="563" y="-7" font-family="Helvetica,sans-Serif" font-size="10.00">/join.hpp</text>
</a>
</g>
</g>
<!-- Node8&#45;&gt;Node10 -->
<g id="edge14_Node000008_Node000010" class="edge">
<title>Node8&#45;&gt;Node10</title>
<g id="a_edge14_Node000008_Node000010"><a xlink:title=" ">
<path fill="none" stroke="#63b8ff" d="M655.1,-65.95C638.27,-56.83 616.13,-44.82 597.77,-34.86"/>
<polygon fill="#63b8ff" stroke="#63b8ff" points="599.29,-31.7 588.84,-30.01 595.96,-37.86 599.29,-31.7"/>
</a>
</g>
</g>
<!-- Node11 -->
<g id="Node000011" class="node">
<title>Node11</title>
<g id="a_Node000011"><a xlink:title=" ">
<polygon fill="#e0e0e0" stroke="#999999" points="700,-24.5 644,-24.5 644,-5.5 700,-5.5 700,-24.5"/>
<text text-anchor="middle" x="672" y="-12.5" font-family="Helvetica,sans-Serif" font-size="10.00">sstream</text>
</a>
</g>
</g>
<!-- Node8&#45;&gt;Node11 -->
<g id="edge15_Node000008_Node000011" class="edge">
<title>Node8&#45;&gt;Node11</title>
<g id="a_edge15_Node000008_Node000011"><a xlink:title=" ">
<path fill="none" stroke="#63b8ff" d="M679,-65.8C677.72,-56.7 676.05,-44.79 674.66,-34.9"/>
<polygon fill="#63b8ff" stroke="#63b8ff" points="678.1,-34.26 673.24,-24.84 671.17,-35.23 678.1,-34.26"/>
</a>
</g>
</g>
<!-- Node8&#45;&gt;Node12 -->
<g id="edge16_Node000008_Node000012" class="edge">
<title>Node8&#45;&gt;Node12</title>
<g id="a_edge16_Node000008_Node000012"><a xlink:title=" ">
<path fill="none" stroke="#63b8ff" d="M730.16,-65.95C773.6,-53.54 835.68,-35.81 872.99,-25.15"/>
<polygon fill="#63b8ff" stroke="#63b8ff" points="874.17,-28.45 882.82,-22.34 872.25,-21.72 874.17,-28.45"/>
</a>
</g>
</g>
<!-- Node13&#45;&gt;Node8 -->
<g id="edge18_Node000013_Node000008" class="edge">
<title>Node13&#45;&gt;Node8</title>
<g id="a_edge18_Node000013_Node000008"><a xlink:title=" ">
<path fill="none" stroke="#63b8ff" d="M816.03,-131.95C790.23,-122.41 755.91,-109.71 728.33,-99.51"/>
<polygon fill="#63b8ff" stroke="#63b8ff" points="729.47,-96.2 718.88,-96.01 727.04,-102.76 729.47,-96.2"/>
</a>
</g>
</g>
<!-- Node14&#45;&gt;Node5 -->
<g id="edge20_Node000014_Node000005" class="edge">
<title>Node14&#45;&gt;Node5</title>
<g id="a_edge20_Node000014_Node000005"><a xlink:title=" ">
<path fill="none" stroke="#63b8ff" d="M397.52,-131.66C390.67,-122.16 382.62,-109.07 379,-96 373.84,-77.39 378.22,-55.78 383.39,-39.72"/>
<polygon fill="#63b8ff" stroke="#63b8ff" points="386.78,-40.65 386.82,-30.06 380.18,-38.31 386.78,-40.65"/>
</a>
</g>
</g>
<!-- Node14&#45;&gt;Node8 -->
<g id="edge21_Node000014_Node000008" class="edge">
<title>Node14&#45;&gt;Node8</title>
<g id="a_edge21_Node000014_Node000008"><a xlink:title=" ">
<path fill="none" stroke="#63b8ff" d="M468.69,-131.95C511.87,-121.79 570.22,-108.06 614.83,-97.57"/>
<polygon fill="#63b8ff" stroke="#63b8ff" points="615.77,-100.94 624.7,-95.25 614.16,-94.13 615.77,-100.94"/>
</a>
</g>
</g>
<!-- Node15&#45;&gt;Node5 -->
<g id="edge23_Node000015_Node000005" class="edge">
<title>Node15&#45;&gt;Node5</title>
<g id="a_edge23_Node000015_Node000005"><a xlink:title=" ">
<path fill="none" stroke="#63b8ff" d="M686.95,-197.95C617.35,-170.65 469.55,-111.7 450,-96 430.71,-80.5 414.97,-56.86 404.96,-39.3"/>
<polygon fill="#63b8ff" stroke="#63b8ff" points="407.87,-37.34 400,-30.25 401.74,-40.71 407.87,-37.34"/>
</a>
</g>
</g>
<!-- Node15&#45;&gt;Node8 -->
<g id="edge28_Node000015_Node000008" class="edge">
<title>Node15&#45;&gt;Node8</title>
<g id="a_edge28_Node000015_Node000008"><a xlink:title=" ">
<path fill="none" stroke="#63b8ff" d="M715.99,-197.82C711.3,-187.94 705.24,-174.38 701,-162 694.71,-143.62 689.47,-122.25 685.93,-106.22"/>
<polygon fill="#63b8ff" stroke="#63b8ff" points="689.28,-105.13 683.76,-96.08 682.43,-106.59 689.28,-105.13"/>
</a>
</g>
</g>
<!-- Node15&#45;&gt;Node9 -->
<g id="edge27_Node000015_Node000009" class="edge">
<title>Node15&#45;&gt;Node9</title>
<g id="a_edge27_Node000015_Node000009"><a xlink:title=" ">
<path fill="none" stroke="#63b8ff" d="M725.43,-197.75C728.26,-181.68 733.29,-154.81 739,-132 747.06,-99.79 758.48,-63.21 766.06,-39.88"/>
<polygon fill="#63b8ff" stroke="#63b8ff" points="769.46,-40.76 769.25,-30.16 762.81,-38.58 769.46,-40.76"/>
</a>
</g>
</g>
<!-- Node15&#45;&gt;Node12 -->
<g id="edge29_Node000015_Node000012" class="edge">
<title>Node15&#45;&gt;Node12</title>
<g id="a_edge29_Node000015_Node000012"><a xlink:title=" ">
<path fill="none" stroke="#63b8ff" d="M730.19,-197.87C739.03,-181.2 755.08,-153.1 773,-132 807.93,-90.88 857.6,-51.21 884.97,-30.61"/>
<polygon fill="#63b8ff" stroke="#63b8ff" points="887.09,-33.4 893.03,-24.62 882.91,-27.78 887.09,-33.4"/>
</a>
</g>
</g>
<!-- Node15&#45;&gt;Node13 -->
<g id="edge24_Node000015_Node000013" class="edge">
<title>Node15&#45;&gt;Node13</title>
<g id="a_edge24_Node000015_Node000013"><a xlink:title=" ">
<path fill="none" stroke="#63b8ff" d="M751.75,-197.95C770.69,-188.7 795.69,-176.49 816.23,-166.45"/>
<polygon fill="#63b8ff" stroke="#63b8ff" points="817.87,-169.55 825.32,-162.01 814.8,-163.26 817.87,-169.55"/>
</a>
</g>
</g>
<!-- Node16 -->
<g id="Node000016" class="node">
<title>Node16</title>
<g id="a_Node000016"><a xlink:href="nonlinear__solver__data_8hpp.html" target="_top" xlink:title=" ">
<polygon fill="white" stroke="#666666" points="607.5,-96 458.5,-96 458.5,-66 607.5,-66 607.5,-96"/>
<text text-anchor="start" x="466.5" y="-84" font-family="Helvetica,sans-Serif" font-size="10.00">meltpooldg/linear_algebra</text>
<text text-anchor="middle" x="533" y="-73" font-family="Helvetica,sans-Serif" font-size="10.00">/nonlinear_solver_data.hpp</text>
</a>
</g>
</g>
<!-- Node15&#45;&gt;Node16 -->
<g id="edge25_Node000015_Node000016" class="edge">
<title>Node15&#45;&gt;Node16</title>
<g id="a_edge25_Node000015_Node000016"><a xlink:title=" ">
<path fill="none" stroke="#63b8ff" d="M702.3,-197.84C668.33,-174.59 600.63,-128.27 561.93,-101.79"/>
<polygon fill="#63b8ff" stroke="#63b8ff" points="563.9,-98.9 553.67,-96.14 559.95,-104.68 563.9,-98.9"/>
</a>
</g>
</g>
<!-- Node16&#45;&gt;Node5 -->
<g id="edge26_Node000016_Node000005" class="edge">
<title>Node16&#45;&gt;Node5</title>
<g id="a_edge26_Node000016_Node000005"><a xlink:title=" ">
<path fill="none" stroke="#63b8ff" d="M502.28,-65.95C481.85,-56.62 454.83,-44.27 432.77,-34.18"/>
<polygon fill="#63b8ff" stroke="#63b8ff" points="434.2,-30.99 423.65,-30.01 431.29,-37.35 434.2,-30.99"/>
</a>
</g>
</g>
</g>
</svg>
