<?xml version="1.0" encoding="UTF-8" standalone="no"?>
<!DOCTYPE svg PUBLIC "-//W3C//DTD SVG 1.1//EN"
 "http://www.w3.org/Graphics/SVG/1.1/DTD/svg11.dtd">
<!-- Generated by graphviz version 2.43.0 (0)
 -->
<!-- Title: include/meltpooldg/level_set/curvature_data.hpp Pages: 1 -->
<!--zoomable 379 -->

<svg id="main" version="1.1" xmlns="http://www.w3.org/2000/svg" xmlns:xlink="http://www.w3.org/1999/xlink" xml:space="preserve" onload="init(evt)">
<style type="text/css"><![CDATA[
.node, .edge {opacity: 0.7;}
.node.selected, .edge.selected {opacity: 1;}
.edge:hover path { stroke: red; }
.edge:hover polygon { stroke: red; fill: red; }
]]></style>

<defs>
  <circle id="rim" cx="0" cy="0" r="7"/>
  <circle id="rim2" cx="0" cy="0" r="3.5"/>
  <g id="zoomPlus">
    <use xlink:href="#rim" fill="#404040"><set attributeName="fill" to="#808080" begin="zoomplus.mouseover" end="zoomplus.mouseout"/></use>
    <path d="M-4,0h8M0,-4v8" fill="none" stroke="white" stroke-width="1.5" pointer-events="none"/>
  </g>
  <g id="zoomMin">
    <use xlink:href="#rim" fill="#404040"><set attributeName="fill" to="#808080" begin="zoomminus.mouseover" end="zoomminus.mouseout"/></use>
    <path d="M-4,0h8" fill="none" stroke="white" stroke-width="1.5" pointer-events="none"/>
  </g>
  <g id="arrowUp" transform="translate(30 24)">
    <use xlink:href="#rim"/>
    <path pointer-events="none" fill="none" stroke="white" stroke-width="1.5" d="M0,-3.0v7 M-2.5,-0.5L0,-3.0L2.5,-0.5"/>
  </g>
  <g id="arrowRight" transform="rotate(90) translate(36 -43)">
    <use xlink:href="#rim"/>
    <path pointer-events="none" fill="none" stroke="white" stroke-width="1.5" d="M0,-3.0v7 M-2.5,-0.5L0,-3.0L2.5,-0.5"/>
  </g>
  <g id="arrowDown" transform="rotate(180) translate(-30 -48)">
    <use xlink:href="#rim"/>
    <path pointer-events="none" fill="none" stroke="white" stroke-width="1.5" d="M0,-3.0v7 M-2.5,-0.5L0,-3.0L2.5,-0.5"/>
  </g>
  <g id="arrowLeft" transform="rotate(270) translate(-36 17)">
    <use xlink:href="#rim"/>
    <path pointer-events="none" fill="none" stroke="white" stroke-width="1.5" d="M0,-3.0v7 M-2.5,-0.5L0,-3.0L2.5,-0.5"/>
  </g>
  <g id="resetDef">
    <use xlink:href="#rim2" fill="#404040"><set attributeName="fill" to="#808080" begin="reset.mouseover" end="reset.mouseout"/></use>
  </g>
</defs>
<script type="application/ecmascript">
var viewWidth = 930;
var viewHeight = 379;
var sectionId = 'dynsection-0';
</script>
<script type="application/ecmascript" xlink:href="svg.min.js"/>
<svg id="graph" class="graph">
<g id="viewport">
<title>include/meltpooldg/level_set/curvature_data.hpp</title>
<!-- Node1 -->
<g id="Node000001" class="node">
<title>Node1</title>
<g id="a_Node000001"><a xlink:title=" ">
<polygon fill="#999999" stroke="#666666" points="496.5,-371 383.5,-371 383.5,-330 496.5,-330 496.5,-371"/>
<text text-anchor="start" x="391.5" y="-359" font-family="Helvetica,sans-Serif" font-size="10.00">include/meltpooldg</text>
<text text-anchor="start" x="391.5" y="-348" font-family="Helvetica,sans-Serif" font-size="10.00">/level_set/curvature</text>
<text text-anchor="middle" x="440" y="-337" font-family="Helvetica,sans-Serif" font-size="10.00">_data.hpp</text>
</a>
</g>
</g>
<!-- Node2 -->
<g id="Node000002" class="node">
<title>Node2</title>
<g id="a_Node000002"><a xlink:title=" ">
<polygon fill="#e0e0e0" stroke="#999999" points="284.5,-30 157.5,-30 157.5,0 284.5,0 284.5,-30"/>
<text text-anchor="start" x="165.5" y="-18" font-family="Helvetica,sans-Serif" font-size="10.00">deal.II/base/parameter</text>
<text text-anchor="middle" x="221" y="-7" font-family="Helvetica,sans-Serif" font-size="10.00">_handler.h</text>
</a>
</g>
</g>
<!-- Node1&#45;&gt;Node2 -->
<g id="edge1_Node000001_Node000002" class="edge">
<title>Node1&#45;&gt;Node2</title>
<g id="a_edge1_Node000001_Node000002"><a xlink:title=" ">
<path fill="none" stroke="#63b8ff" d="M383.38,-344.07C264.54,-331.1 0,-293.33 0,-214 0,-214 0,-214 0,-146 0,-76.18 82.97,-43.11 147.24,-27.97"/>
<polygon fill="#63b8ff" stroke="#63b8ff" points="148.39,-31.3 157.37,-25.7 146.85,-24.47 148.39,-31.3"/>
</a>
</g>
</g>
<!-- Node3 -->
<g id="Node000003" class="node">
<title>Node3</title>
<g id="a_Node000003"><a xlink:href="reinitialization__data_8hpp.html" target="_top" xlink:title=" ">
<polygon fill="white" stroke="#666666" points="509,-294 371,-294 371,-264 509,-264 509,-294"/>
<text text-anchor="start" x="379" y="-282" font-family="Helvetica,sans-Serif" font-size="10.00">meltpooldg/level_set</text>
<text text-anchor="middle" x="440" y="-271" font-family="Helvetica,sans-Serif" font-size="10.00">/reinitialization_data.hpp</text>
</a>
</g>
</g>
<!-- Node1&#45;&gt;Node3 -->
<g id="edge2_Node000001_Node000003" class="edge">
<title>Node1&#45;&gt;Node3</title>
<g id="a_edge2_Node000001_Node000003"><a xlink:title=" ">
<path fill="none" stroke="#63b8ff" d="M440,-329.77C440,-321.85 440,-312.63 440,-304.3"/>
<polygon fill="#63b8ff" stroke="#63b8ff" points="443.5,-304.04 440,-294.04 436.5,-304.04 443.5,-304.04"/>
</a>
</g>
</g>
<!-- Node11 -->
<g id="Node000011" class="node">
<title>Node11</title>
<g id="a_Node000011"><a xlink:title=" ">
<polygon fill="#e0e0e0" stroke="#999999" points="856,-24.5 812,-24.5 812,-5.5 856,-5.5 856,-24.5"/>
<text text-anchor="middle" x="834" y="-12.5" font-family="Helvetica,sans-Serif" font-size="10.00">string</text>
</a>
</g>
</g>
<!-- Node1&#45;&gt;Node11 -->
<g id="edge32_Node000001_Node000011" class="edge">
<title>Node1&#45;&gt;Node11</title>
<g id="a_edge32_Node000001_Node000011"><a xlink:title=" ">
<path fill="none" stroke="#63b8ff" d="M496.71,-345.56C624.12,-335.15 922,-301.47 922,-214 922,-214 922,-214 922,-146 922,-97.31 879.14,-53.26 853.24,-31.09"/>
<polygon fill="#63b8ff" stroke="#63b8ff" points="855.44,-28.37 845.5,-24.69 850.97,-33.76 855.44,-28.37"/>
</a>
</g>
</g>
<!-- Node12 -->
<g id="Node000012" class="node">
<title>Node12</title>
<g id="a_Node000012"><a xlink:href="linear__solver__data_8hpp.html" target="_top" xlink:title=" ">
<polygon fill="white" stroke="#666666" points="823.5,-162 678.5,-162 678.5,-132 823.5,-132 823.5,-162"/>
<text text-anchor="start" x="686.5" y="-150" font-family="Helvetica,sans-Serif" font-size="10.00">meltpooldg/linear_algebra</text>
<text text-anchor="middle" x="751" y="-139" font-family="Helvetica,sans-Serif" font-size="10.00">/linear_solver_data.hpp</text>
</a>
</g>
</g>
<!-- Node1&#45;&gt;Node12 -->
<g id="edge30_Node000001_Node000012" class="edge">
<title>Node1&#45;&gt;Node12</title>
<g id="a_edge30_Node000001_Node000012"><a xlink:title=" ">
<path fill="none" stroke="#63b8ff" d="M496.54,-349.67C580.21,-346.48 734.79,-326.67 806,-228 820.48,-207.94 800.27,-184.58 780.4,-168.31"/>
<polygon fill="#63b8ff" stroke="#63b8ff" points="782.34,-165.38 772.29,-162.01 778.04,-170.91 782.34,-165.38"/>
</a>
</g>
</g>
<!-- Node13 -->
<g id="Node000013" class="node">
<title>Node13</title>
<g id="a_Node000013"><a xlink:href="predictor__data_8hpp.html" target="_top" xlink:title=" ">
<polygon fill="white" stroke="#666666" points="173.5,-162 28.5,-162 28.5,-132 173.5,-132 173.5,-162"/>
<text text-anchor="start" x="36.5" y="-150" font-family="Helvetica,sans-Serif" font-size="10.00">meltpooldg/linear_algebra</text>
<text text-anchor="middle" x="101" y="-139" font-family="Helvetica,sans-Serif" font-size="10.00">/predictor_data.hpp</text>
</a>
</g>
</g>
<!-- Node1&#45;&gt;Node13 -->
<g id="edge31_Node000001_Node000013" class="edge">
<title>Node1&#45;&gt;Node13</title>
<g id="a_edge31_Node000001_Node000013"><a xlink:title=" ">
<path fill="none" stroke="#63b8ff" d="M383.38,-338.86C318.22,-324.04 211.28,-291.54 142,-228 125.37,-212.75 114.44,-189.2 108.08,-171.59"/>
<polygon fill="#63b8ff" stroke="#63b8ff" points="111.37,-170.38 104.86,-162.02 104.74,-172.61 111.37,-170.38"/>
</a>
</g>
</g>
<!-- Node3&#45;&gt;Node2 -->
<g id="edge4_Node000003_Node000002" class="edge">
<title>Node3&#45;&gt;Node2</title>
<g id="a_edge4_Node000003_Node000002"><a xlink:title=" ">
<path fill="none" stroke="#63b8ff" d="M373.92,-263.96C321.28,-248.79 251.53,-218.74 221,-162 200.26,-123.47 207.5,-70.5 214.4,-40.1"/>
<polygon fill="#63b8ff" stroke="#63b8ff" points="217.81,-40.89 216.79,-30.35 211.01,-39.23 217.81,-40.89"/>
</a>
</g>
</g>
<!-- Node4 -->
<g id="Node000004" class="node">
<title>Node4</title>
<g id="a_Node000004"><a xlink:title=" ">
<polygon fill="#e0e0e0" stroke="#999999" points="780,-222.5 642,-222.5 642,-203.5 780,-203.5 780,-222.5"/>
<text text-anchor="middle" x="711" y="-210.5" font-family="Helvetica,sans-Serif" font-size="10.00">deal.II/base/exceptions.h</text>
</a>
</g>
</g>
<!-- Node3&#45;&gt;Node4 -->
<g id="edge3_Node000003_Node000004" class="edge">
<title>Node3&#45;&gt;Node4</title>
<g id="a_edge3_Node000003_Node000004"><a xlink:title=" ">
<path fill="none" stroke="#63b8ff" d="M499.47,-263.95C549.3,-252.19 619.41,-235.63 665.03,-224.86"/>
<polygon fill="#63b8ff" stroke="#63b8ff" points="666.01,-228.22 674.93,-222.52 664.4,-221.41 666.01,-228.22"/>
</a>
</g>
</g>
<!-- Node5 -->
<g id="Node000005" class="node">
<title>Node5</title>
<g id="a_Node000005"><a xlink:href="finite__element__data_8hpp.html" target="_top" xlink:title=" ">
<polygon fill="white" stroke="#666666" points="354,-162 230,-162 230,-132 354,-132 354,-162"/>
<text text-anchor="start" x="238" y="-150" font-family="Helvetica,sans-Serif" font-size="10.00">meltpooldg/core/finite</text>
<text text-anchor="middle" x="292" y="-139" font-family="Helvetica,sans-Serif" font-size="10.00">_element_data.hpp</text>
</a>
</g>
</g>
<!-- Node3&#45;&gt;Node5 -->
<g id="edge5_Node000003_Node000005" class="edge">
<title>Node3&#45;&gt;Node5</title>
<g id="a_edge5_Node000003_Node000005"><a xlink:title=" ">
<path fill="none" stroke="#63b8ff" d="M432.53,-263.81C422.9,-246.57 404.79,-217.38 383,-198 368.93,-185.48 351.18,-174.85 335.11,-166.65"/>
<polygon fill="#63b8ff" stroke="#63b8ff" points="336.39,-163.39 325.87,-162.11 333.3,-169.67 336.39,-163.39"/>
</a>
</g>
</g>
<!-- Node6 -->
<g id="Node000006" class="node">
<title>Node6</title>
<g id="a_Node000006"><a xlink:href="enum_8hpp.html" target="_top" xlink:title=" ">
<polygon fill="white" stroke="#666666" points="584,-96 472,-96 472,-66 584,-66 584,-96"/>
<text text-anchor="start" x="480" y="-84" font-family="Helvetica,sans-Serif" font-size="10.00">meltpooldg/utilities</text>
<text text-anchor="middle" x="528" y="-73" font-family="Helvetica,sans-Serif" font-size="10.00">/enum.hpp</text>
</a>
</g>
</g>
<!-- Node3&#45;&gt;Node6 -->
<g id="edge27_Node000003_Node000006" class="edge">
<title>Node3&#45;&gt;Node6</title>
<g id="a_edge27_Node000003_Node000006"><a xlink:title=" ">
<path fill="none" stroke="#63b8ff" d="M442.05,-263.73C444.69,-247.41 450.05,-220.1 459,-198 472.98,-163.49 496.19,-127.13 511.79,-104.51"/>
<polygon fill="#63b8ff" stroke="#63b8ff" points="514.69,-106.46 517.55,-96.26 508.95,-102.45 514.69,-106.46"/>
</a>
</g>
</g>
<!-- Node3&#45;&gt;Node11 -->
<g id="edge29_Node000003_Node000011" class="edge">
<title>Node3&#45;&gt;Node11</title>
<g id="a_edge29_Node000003_Node000011"><a xlink:title=" ">
<path fill="none" stroke="#63b8ff" d="M509.05,-276.63C602.01,-273.44 760.94,-262.91 806,-228 865,-182.29 848.6,-77.63 838.84,-34.8"/>
<polygon fill="#63b8ff" stroke="#63b8ff" points="842.2,-33.78 836.44,-24.89 835.39,-35.43 842.2,-33.78"/>
</a>
</g>
</g>
<!-- Node3&#45;&gt;Node12 -->
<g id="edge14_Node000003_Node000012" class="edge">
<title>Node3&#45;&gt;Node12</title>
<g id="a_edge14_Node000003_Node000012"><a xlink:title=" ">
<path fill="none" stroke="#63b8ff" d="M509.06,-278.35C600.26,-277.16 753.52,-268.93 789,-228 803.94,-210.77 788.82,-186.66 773.45,-169.42"/>
<polygon fill="#63b8ff" stroke="#63b8ff" points="775.89,-166.9 766.48,-162.03 770.8,-171.71 775.89,-166.9"/>
</a>
</g>
</g>
<!-- Node3&#45;&gt;Node13 -->
<g id="edge16_Node000003_Node000013" class="edge">
<title>Node3&#45;&gt;Node13</title>
<g id="a_edge16_Node000003_Node000013"><a xlink:title=" ">
<path fill="none" stroke="#63b8ff" d="M370.94,-274.41C318.35,-269.34 245.47,-257.17 188,-228 160.23,-213.91 134.81,-188.41 118.72,-169.98"/>
<polygon fill="#63b8ff" stroke="#63b8ff" points="121.14,-167.43 112,-162.08 115.81,-171.96 121.14,-167.43"/>
</a>
</g>
</g>
<!-- Node14 -->
<g id="Node000014" class="node">
<title>Node14</title>
<g id="a_Node000014"><a xlink:href="time__integrator__data_8hpp.html" target="_top" xlink:title=" ">
<polygon fill="white" stroke="#666666" points="624,-228 468,-228 468,-198 624,-198 624,-228"/>
<text text-anchor="start" x="476" y="-216" font-family="Helvetica,sans-Serif" font-size="10.00">meltpooldg/time_integration</text>
<text text-anchor="middle" x="546" y="-205" font-family="Helvetica,sans-Serif" font-size="10.00">/time_integrator_data.hpp</text>
</a>
</g>
</g>
<!-- Node3&#45;&gt;Node14 -->
<g id="edge19_Node000003_Node000014" class="edge">
<title>Node3&#45;&gt;Node14</title>
<g id="a_edge19_Node000003_Node000014"><a xlink:title=" ">
<path fill="none" stroke="#63b8ff" d="M463.26,-263.95C478.17,-254.95 497.73,-243.14 514.09,-233.27"/>
<polygon fill="#63b8ff" stroke="#63b8ff" points="516.04,-236.18 522.79,-228.01 512.42,-230.18 516.04,-236.18"/>
</a>
</g>
</g>
<!-- Node16 -->
<g id="Node000016" class="node">
<title>Node16</title>
<g id="a_Node000016"><a xlink:title=" ">
<polygon fill="#e0e0e0" stroke="#999999" points="374,-222.5 330,-222.5 330,-203.5 374,-203.5 374,-222.5"/>
<text text-anchor="middle" x="352" y="-210.5" font-family="Helvetica,sans-Serif" font-size="10.00">limits</text>
</a>
</g>
</g>
<!-- Node3&#45;&gt;Node16 -->
<g id="edge28_Node000003_Node000016" class="edge">
<title>Node3&#45;&gt;Node16</title>
<g id="a_edge28_Node000003_Node000016"><a xlink:title=" ">
<path fill="none" stroke="#63b8ff" d="M420.47,-263.8C406.13,-253.37 386.7,-239.24 372.21,-228.69"/>
<polygon fill="#63b8ff" stroke="#63b8ff" points="374.05,-225.71 363.91,-222.66 369.93,-231.37 374.05,-225.71"/>
</a>
</g>
</g>
<!-- Node5&#45;&gt;Node2 -->
<g id="edge6_Node000005_Node000002" class="edge">
<title>Node5&#45;&gt;Node2</title>
<g id="a_edge6_Node000005_Node000002"><a xlink:title=" ">
<path fill="none" stroke="#63b8ff" d="M283.85,-131.6C278.23,-121.63 270.6,-108.04 264,-96 253.57,-77 241.94,-55.33 233.41,-39.35"/>
<polygon fill="#63b8ff" stroke="#63b8ff" points="236.33,-37.38 228.54,-30.2 230.15,-40.67 236.33,-37.38"/>
</a>
</g>
</g>
<!-- Node5&#45;&gt;Node6 -->
<g id="edge7_Node000005_Node000006" class="edge">
<title>Node5&#45;&gt;Node6</title>
<g id="a_edge7_Node000005_Node000006"><a xlink:title=" ">
<path fill="none" stroke="#63b8ff" d="M343.79,-131.95C379.91,-122.16 428.27,-109.05 466.38,-98.71"/>
<polygon fill="#63b8ff" stroke="#63b8ff" points="467.59,-102.01 476.33,-96.01 465.76,-95.25 467.59,-102.01"/>
</a>
</g>
</g>
<!-- Node6&#45;&gt;Node2 -->
<g id="edge8_Node000006_Node000002" class="edge">
<title>Node6&#45;&gt;Node2</title>
<g id="a_edge8_Node000006_Node000002"><a xlink:title=" ">
<path fill="none" stroke="#63b8ff" d="M471.82,-67.67C469.17,-67.1 466.56,-66.54 464,-66 407.26,-53.96 342.97,-40.75 294.78,-30.93"/>
<polygon fill="#63b8ff" stroke="#63b8ff" points="295.24,-27.46 284.74,-28.89 293.84,-34.31 295.24,-27.46"/>
</a>
</g>
</g>
<!-- Node7 -->
<g id="Node000007" class="node">
<title>Node7</title>
<g id="a_Node000007"><a xlink:title=" ">
<polygon fill="#e0e0e0" stroke="#999999" points="502.5,-24.5 377.5,-24.5 377.5,-5.5 502.5,-5.5 502.5,-24.5"/>
<text text-anchor="middle" x="440" y="-12.5" font-family="Helvetica,sans-Serif" font-size="10.00">deal.II/base/patterns.h</text>
</a>
</g>
</g>
<!-- Node6&#45;&gt;Node7 -->
<g id="edge9_Node000006_Node000007" class="edge">
<title>Node6&#45;&gt;Node7</title>
<g id="a_edge9_Node000006_Node000007"><a xlink:title=" ">
<path fill="none" stroke="#63b8ff" d="M508.47,-65.8C494.13,-55.37 474.7,-41.24 460.21,-30.69"/>
<polygon fill="#63b8ff" stroke="#63b8ff" points="462.05,-27.71 451.91,-24.66 457.93,-33.37 462.05,-27.71"/>
</a>
</g>
</g>
<!-- Node8 -->
<g id="Node000008" class="node">
<title>Node8</title>
<g id="a_Node000008"><a xlink:title=" ">
<polygon fill="#e0e0e0" stroke="#999999" points="776,-30 664,-30 664,0 776,0 776,-30"/>
<text text-anchor="start" x="672" y="-18" font-family="Helvetica,sans-Serif" font-size="10.00">meltpooldg/utilities</text>
<text text-anchor="middle" x="720" y="-7" font-family="Helvetica,sans-Serif" font-size="10.00">/better_enum.hpp</text>
</a>
</g>
</g>
<!-- Node6&#45;&gt;Node8 -->
<g id="edge10_Node000006_Node000008" class="edge">
<title>Node6&#45;&gt;Node8</title>
<g id="a_edge10_Node000006_Node000008"><a xlink:title=" ">
<path fill="none" stroke="#63b8ff" d="M570.14,-65.95C599.02,-56.33 637.53,-43.49 668.27,-33.24"/>
<polygon fill="#63b8ff" stroke="#63b8ff" points="669.58,-36.5 677.96,-30.01 667.37,-29.85 669.58,-36.5"/>
</a>
</g>
</g>
<!-- Node9 -->
<g id="Node000009" class="node">
<title>Node9</title>
<g id="a_Node000009"><a xlink:title=" ">
<polygon fill="#e0e0e0" stroke="#999999" points="645.5,-30 520.5,-30 520.5,0 645.5,0 645.5,-30"/>
<text text-anchor="start" x="528.5" y="-18" font-family="Helvetica,sans-Serif" font-size="10.00">boost/algorithm/string</text>
<text text-anchor="middle" x="583" y="-7" font-family="Helvetica,sans-Serif" font-size="10.00">/join.hpp</text>
</a>
</g>
</g>
<!-- Node6&#45;&gt;Node9 -->
<g id="edge11_Node000006_Node000009" class="edge">
<title>Node6&#45;&gt;Node9</title>
<g id="a_edge11_Node000006_Node000009"><a xlink:title=" ">
<path fill="none" stroke="#63b8ff" d="M540.21,-65.8C547.26,-57.59 556.27,-47.1 564.21,-37.87"/>
<polygon fill="#63b8ff" stroke="#63b8ff" points="566.96,-40.03 570.83,-30.16 561.66,-35.47 566.96,-40.03"/>
</a>
</g>
</g>
<!-- Node10 -->
<g id="Node000010" class="node">
<title>Node10</title>
<g id="a_Node000010"><a xlink:title=" ">
<polygon fill="#e0e0e0" stroke="#999999" points="359,-24.5 303,-24.5 303,-5.5 359,-5.5 359,-24.5"/>
<text text-anchor="middle" x="331" y="-12.5" font-family="Helvetica,sans-Serif" font-size="10.00">sstream</text>
</a>
</g>
</g>
<!-- Node6&#45;&gt;Node10 -->
<g id="edge12_Node000006_Node000010" class="edge">
<title>Node6&#45;&gt;Node10</title>
<g id="a_edge12_Node000006_Node000010"><a xlink:title=" ">
<path fill="none" stroke="#63b8ff" d="M481.19,-65.93C449.42,-56.22 406.52,-42.8 369,-30 367.15,-29.37 365.26,-28.71 363.35,-28.04"/>
<polygon fill="#63b8ff" stroke="#63b8ff" points="364.44,-24.71 353.84,-24.62 362.07,-31.3 364.44,-24.71"/>
</a>
</g>
</g>
<!-- Node6&#45;&gt;Node11 -->
<g id="edge13_Node000006_Node000011" class="edge">
<title>Node6&#45;&gt;Node11</title>
<g id="a_edge13_Node000006_Node000011"><a xlink:title=" ">
<path fill="none" stroke="#63b8ff" d="M584.2,-70.5C636.47,-61.33 716.38,-46.45 785,-30 790.48,-28.69 796.28,-27.16 801.88,-25.6"/>
<polygon fill="#63b8ff" stroke="#63b8ff" points="803,-28.92 811.67,-22.82 801.09,-22.19 803,-28.92"/>
</a>
</g>
</g>
<!-- Node12&#45;&gt;Node6 -->
<g id="edge15_Node000012_Node000006" class="edge">
<title>Node12&#45;&gt;Node6</title>
<g id="a_edge15_Node000012_Node000006"><a xlink:title=" ">
<path fill="none" stroke="#63b8ff" d="M702.06,-131.95C668.08,-122.2 622.62,-109.16 586.69,-98.84"/>
<polygon fill="#63b8ff" stroke="#63b8ff" points="587.4,-95.41 576.82,-96.01 585.47,-102.14 587.4,-95.41"/>
</a>
</g>
</g>
<!-- Node13&#45;&gt;Node2 -->
<g id="edge17_Node000013_Node000002" class="edge">
<title>Node13&#45;&gt;Node2</title>
<g id="a_edge17_Node000013_Node000002"><a xlink:title=" ">
<path fill="none" stroke="#63b8ff" d="M114.07,-131.84C134.99,-109.18 176.14,-64.6 200.85,-37.83"/>
<polygon fill="#63b8ff" stroke="#63b8ff" points="203.73,-39.86 207.95,-30.14 198.59,-35.12 203.73,-39.86"/>
</a>
</g>
</g>
<!-- Node13&#45;&gt;Node6 -->
<g id="edge18_Node000013_Node000006" class="edge">
<title>Node13&#45;&gt;Node6</title>
<g id="a_edge18_Node000013_Node000006"><a xlink:title=" ">
<path fill="none" stroke="#63b8ff" d="M173.58,-137.7C244.75,-129.18 356.53,-114.77 461.7,-96.34"/>
<polygon fill="#63b8ff" stroke="#63b8ff" points="462.62,-99.73 471.86,-94.54 461.4,-92.84 462.62,-99.73"/>
</a>
</g>
</g>
<!-- Node14&#45;&gt;Node2 -->
<g id="edge20_Node000014_Node000002" class="edge">
<title>Node14&#45;&gt;Node2</title>
<g id="a_edge20_Node000014_Node000002"><a xlink:title=" ">
<path fill="none" stroke="#63b8ff" d="M514.02,-197.91C451.16,-170.08 315.92,-109.61 297,-96 284.64,-87.11 258.34,-58.43 240.17,-37.96"/>
<polygon fill="#63b8ff" stroke="#63b8ff" points="242.66,-35.49 233.42,-30.3 237.41,-40.12 242.66,-35.49"/>
</a>
</g>
</g>
<!-- Node14&#45;&gt;Node6 -->
<g id="edge25_Node000014_Node000006" class="edge">
<title>Node14&#45;&gt;Node6</title>
<g id="a_edge25_Node000014_Node000006"><a xlink:title=" ">
<path fill="none" stroke="#63b8ff" d="M544.04,-197.84C541,-175.86 535.1,-133.27 531.36,-106.3"/>
<polygon fill="#63b8ff" stroke="#63b8ff" points="534.8,-105.57 529.96,-96.14 527.86,-106.53 534.8,-105.57"/>
</a>
</g>
</g>
<!-- Node14&#45;&gt;Node8 -->
<g id="edge24_Node000014_Node000008" class="edge">
<title>Node14&#45;&gt;Node8</title>
<g id="a_edge24_Node000014_Node000008"><a xlink:title=" ">
<path fill="none" stroke="#63b8ff" d="M552.04,-197.59C564.38,-169.48 594.84,-106.53 636,-66 648.52,-53.67 664.65,-43.14 679.42,-34.97"/>
<polygon fill="#63b8ff" stroke="#63b8ff" points="681.22,-37.98 688.4,-30.19 677.93,-31.8 681.22,-37.98"/>
</a>
</g>
</g>
<!-- Node14&#45;&gt;Node11 -->
<g id="edge26_Node000014_Node000011" class="edge">
<title>Node14&#45;&gt;Node11</title>
<g id="a_edge26_Node000014_Node000011"><a xlink:title=" ">
<path fill="none" stroke="#63b8ff" d="M566.71,-197.9C619.75,-161.81 760.01,-66.36 813.17,-30.18"/>
<polygon fill="#63b8ff" stroke="#63b8ff" points="815.19,-33.03 821.49,-24.51 811.25,-27.25 815.19,-33.03"/>
</a>
</g>
</g>
<!-- Node14&#45;&gt;Node12 -->
<g id="edge21_Node000014_Node000012" class="edge">
<title>Node14&#45;&gt;Node12</title>
<g id="a_edge21_Node000014_Node000012"><a xlink:title=" ">
<path fill="none" stroke="#63b8ff" d="M590.99,-197.95C621.96,-188.28 663.3,-175.38 696.2,-165.11"/>
<polygon fill="#63b8ff" stroke="#63b8ff" points="697.61,-168.33 706.12,-162.01 695.53,-161.65 697.61,-168.33"/>
</a>
</g>
</g>
<!-- Node15 -->
<g id="Node000015" class="node">
<title>Node15</title>
<g id="a_Node000015"><a xlink:href="nonlinear__solver__data_8hpp.html" target="_top" xlink:title=" ">
<polygon fill="white" stroke="#666666" points="454.5,-96 305.5,-96 305.5,-66 454.5,-66 454.5,-96"/>
<text text-anchor="start" x="313.5" y="-84" font-family="Helvetica,sans-Serif" font-size="10.00">meltpooldg/linear_algebra</text>
<text text-anchor="middle" x="380" y="-73" font-family="Helvetica,sans-Serif" font-size="10.00">/nonlinear_solver_data.hpp</text>
</a>
</g>
</g>
<!-- Node14&#45;&gt;Node15 -->
<g id="edge22_Node000014_Node000015" class="edge">
<title>Node14&#45;&gt;Node15</title>
<g id="a_edge22_Node000014_Node000015"><a xlink:title=" ">
<path fill="none" stroke="#63b8ff" d="M527.92,-197.84C498.48,-174.79 440.08,-129.05 406.13,-102.46"/>
<polygon fill="#63b8ff" stroke="#63b8ff" points="408.09,-99.55 398.06,-96.14 403.77,-105.06 408.09,-99.55"/>
</a>
</g>
</g>
<!-- Node15&#45;&gt;Node2 -->
<g id="edge23_Node000015_Node000002" class="edge">
<title>Node15&#45;&gt;Node2</title>
<g id="a_edge23_Node000015_Node000002"><a xlink:title=" ">
<path fill="none" stroke="#63b8ff" d="M345.11,-65.95C321.6,-56.49 290.4,-43.93 265.16,-33.78"/>
<polygon fill="#63b8ff" stroke="#63b8ff" points="266.4,-30.5 255.81,-30.01 263.78,-36.99 266.4,-30.5"/>
</a>
</g>
</g>
</g>
</svg>

<g id="navigator" transform="translate(0 0)" fill="#404254">
  <rect fill="#f2f5e9" fill-opacity="0.5" stroke="#606060" stroke-width=".5" x="0" y="0" width="60" height="60"/>
  <use id="zoomplus" xlink:href="#zoomPlus" x="17" y="9" onmousedown="handleZoom(evt,'in')"/>
  <use id="zoomminus" xlink:href="#zoomMin" x="42" y="9" onmousedown="handleZoom(evt,'out')"/>
  <use id="reset" xlink:href="#resetDef" x="30" y="36" onmousedown="handleReset()"/>
   <use id="arrowup" xlink:href="#arrowUp" x="0" y="0" onmousedown="handlePan(0,-1)"/>
  <use id="arrowright" xlink:href="#arrowRight" x="0" y="0" onmousedown="handlePan(1,0)"/>
  <use id="arrowdown" xlink:href="#arrowDown" x="0" y="0" onmousedown="handlePan(0,1)"/>
  <use id="arrowleft" xlink:href="#arrowLeft" x="0" y="0" onmousedown="handlePan(-1,0)"/>
</g>
<svg viewBox="0 0 15 15" width="100%" height="30px" preserveAspectRatio="xMaxYMin meet">
 <g id="arrow_out" transform="scale(0.3 0.3)">
  <a xlink:href="curvature__data_8hpp__incl_org.svg" target="_base">
   <rect id="button" ry="5" rx="5" y="6" x="6" height="38" width="38"
        fill="#f2f5e9" fill-opacity="0.5" stroke="#606060" stroke-width="1.0"/>
   <path id="arrow"
     d="M 11.500037,31.436501 C 11.940474,20.09759 22.043105,11.32322 32.158766,21.979434 L 37.068811,17.246167 C 37.068811,17.246167 37.088388,32 37.088388,32 L 22.160133,31.978069 C 22.160133,31.978069 26.997745,27.140456 26.997745,27.140456 C 18.528582,18.264221 13.291696,25.230495 11.500037,31.436501 z"
     style="fill:#404040;"/>
  </a>
 </g>
</svg>

<style type='text/css'>
<![CDATA[
[data-mouse-over-selected='false'] { opacity: 0.7; }
[data-mouse-over-selected='true']  { opacity: 1.0; }
]]>
</style>
<script type="application/ecmascript"><![CDATA[
document.addEventListener('DOMContentLoaded', (event) => {
  highlightEdges();
  highlightAdjacentNodes();
});
]]></script>
</svg>
