<?xml version="1.0" encoding="UTF-8" standalone="no"?>
<!DOCTYPE svg PUBLIC "-//W3C//DTD SVG 1.1//EN"
 "http://www.w3.org/Graphics/SVG/1.1/DTD/svg11.dtd">
<!-- Generated by graphviz version 2.43.0 (0)
 -->
<!-- Title: include/meltpooldg/cut/amr.hpp Pages: 1 -->
<!--zoomable 236 -->

<svg id="main" version="1.1" xmlns="http://www.w3.org/2000/svg" xmlns:xlink="http://www.w3.org/1999/xlink" xml:space="preserve" onload="init(evt)">
<style type="text/css"><![CDATA[
.node, .edge {opacity: 0.7;}
.node.selected, .edge.selected {opacity: 1;}
.edge:hover path { stroke: red; }
.edge:hover polygon { stroke: red; fill: red; }
]]></style>

<defs>
  <circle id="rim" cx="0" cy="0" r="7"/>
  <circle id="rim2" cx="0" cy="0" r="3.5"/>
  <g id="zoomPlus">
    <use xlink:href="#rim" fill="#404040"><set attributeName="fill" to="#808080" begin="zoomplus.mouseover" end="zoomplus.mouseout"/></use>
    <path d="M-4,0h8M0,-4v8" fill="none" stroke="white" stroke-width="1.5" pointer-events="none"/>
  </g>
  <g id="zoomMin">
    <use xlink:href="#rim" fill="#404040"><set attributeName="fill" to="#808080" begin="zoomminus.mouseover" end="zoomminus.mouseout"/></use>
    <path d="M-4,0h8" fill="none" stroke="white" stroke-width="1.5" pointer-events="none"/>
  </g>
  <g id="arrowUp" transform="translate(30 24)">
    <use xlink:href="#rim"/>
    <path pointer-events="none" fill="none" stroke="white" stroke-width="1.5" d="M0,-3.0v7 M-2.5,-0.5L0,-3.0L2.5,-0.5"/>
  </g>
  <g id="arrowRight" transform="rotate(90) translate(36 -43)">
    <use xlink:href="#rim"/>
    <path pointer-events="none" fill="none" stroke="white" stroke-width="1.5" d="M0,-3.0v7 M-2.5,-0.5L0,-3.0L2.5,-0.5"/>
  </g>
  <g id="arrowDown" transform="rotate(180) translate(-30 -48)">
    <use xlink:href="#rim"/>
    <path pointer-events="none" fill="none" stroke="white" stroke-width="1.5" d="M0,-3.0v7 M-2.5,-0.5L0,-3.0L2.5,-0.5"/>
  </g>
  <g id="arrowLeft" transform="rotate(270) translate(-36 17)">
    <use xlink:href="#rim"/>
    <path pointer-events="none" fill="none" stroke="white" stroke-width="1.5" d="M0,-3.0v7 M-2.5,-0.5L0,-3.0L2.5,-0.5"/>
  </g>
  <g id="resetDef">
    <use xlink:href="#rim2" fill="#404040"><set attributeName="fill" to="#808080" begin="reset.mouseover" end="reset.mouseout"/></use>
  </g>
</defs>
<script type="application/ecmascript">
var viewWidth = 545;
var viewHeight = 236;
var sectionId = 'dynsection-0';
</script>
<script type="application/ecmascript" xlink:href="svg.min.js"/>
<svg id="graph" class="graph">
<g id="viewport">
<title>include/meltpooldg/cut/amr.hpp</title>
<!-- Node1 -->
<g id="Node000001" class="node">
<title>Node1</title>
<g id="a_Node000001"><a xlink:title=" ">
<polygon fill="#999999" stroke="#666666" points="315.32,-228 205.32,-228 205.32,-198 315.32,-198 315.32,-228"/>
<text text-anchor="start" x="213.32" y="-216" font-family="Helvetica,sans-Serif" font-size="10.00">include/meltpooldg</text>
<text text-anchor="middle" x="260.32" y="-205" font-family="Helvetica,sans-Serif" font-size="10.00">/cut/amr.hpp</text>
</a>
</g>
</g>
<!-- Node2 -->
<g id="Node000002" class="node">
<title>Node2</title>
<g id="a_Node000002"><a xlink:title=" ">
<polygon fill="#e0e0e0" stroke="#999999" points="180.32,-24.5 40.32,-24.5 40.32,-5.5 180.32,-5.5 180.32,-24.5"/>
<text text-anchor="middle" x="110.32" y="-12.5" font-family="Helvetica,sans-Serif" font-size="10.00">deal.II/dofs/dof_handler.h</text>
</a>
</g>
</g>
<!-- Node1&#45;&gt;Node2 -->
<g id="edge1_Node000001_Node000002" class="edge">
<title>Node1&#45;&gt;Node2</title>
<g id="a_edge1_Node000001_Node000002"><a xlink:title=" ">
<path fill="none" stroke="#63b8ff" d="M205.16,-204.72C144.03,-193.36 48.4,-165 5.32,-96 -1.74,-84.69 -1.79,-77.27 5.32,-66 17.28,-47.06 38.59,-35.15 58.91,-27.73"/>
<polygon fill="#63b8ff" stroke="#63b8ff" points="60.07,-31.03 68.44,-24.53 57.85,-24.39 60.07,-31.03"/>
</a>
</g>
</g>
<!-- Node3 -->
<g id="Node000003" class="node">
<title>Node3</title>
<g id="a_Node000003"><a xlink:title=" ">
<polygon fill="#e0e0e0" stroke="#999999" points="111.82,-90.5 14.82,-90.5 14.82,-71.5 111.82,-71.5 111.82,-90.5"/>
<text text-anchor="middle" x="63.32" y="-78.5" font-family="Helvetica,sans-Serif" font-size="10.00">deal.II/grid/tria.h</text>
</a>
</g>
</g>
<!-- Node1&#45;&gt;Node3 -->
<g id="edge2_Node000001_Node000003" class="edge">
<title>Node1&#45;&gt;Node3</title>
<g id="a_edge2_Node000001_Node000003"><a xlink:title=" ">
<path fill="none" stroke="#63b8ff" d="M238.87,-197.84C201.17,-172.97 123.47,-121.69 85.37,-96.55"/>
<polygon fill="#63b8ff" stroke="#63b8ff" points="86.86,-93.33 76.58,-90.75 83,-99.18 86.86,-93.33"/>
</a>
</g>
</g>
<!-- Node4 -->
<g id="Node000004" class="node">
<title>Node4</title>
<g id="a_Node000004"><a xlink:href="utilities_2amr_8hpp.html" target="_top" xlink:title=" ">
<polygon fill="white" stroke="#666666" points="358.32,-162 246.32,-162 246.32,-132 358.32,-132 358.32,-162"/>
<text text-anchor="start" x="254.32" y="-150" font-family="Helvetica,sans-Serif" font-size="10.00">meltpooldg/utilities</text>
<text text-anchor="middle" x="302.32" y="-139" font-family="Helvetica,sans-Serif" font-size="10.00">/amr.hpp</text>
</a>
</g>
</g>
<!-- Node1&#45;&gt;Node4 -->
<g id="edge3_Node000001_Node000004" class="edge">
<title>Node1&#45;&gt;Node4</title>
<g id="a_edge3_Node000001_Node000004"><a xlink:title=" ">
<path fill="none" stroke="#63b8ff" d="M269.65,-197.8C274.87,-189.84 281.5,-179.74 287.42,-170.71"/>
<polygon fill="#63b8ff" stroke="#63b8ff" points="290.47,-172.44 293.03,-162.16 284.62,-168.6 290.47,-172.44"/>
</a>
</g>
</g>
<!-- Node5 -->
<g id="Node000005" class="node">
<title>Node5</title>
<g id="a_Node000005"><a xlink:href="amr__data_8hpp.html" target="_top" xlink:title=" ">
<polygon fill="white" stroke="#666666" points="526.32,-96 414.32,-96 414.32,-66 526.32,-66 526.32,-96"/>
<text text-anchor="start" x="422.32" y="-84" font-family="Helvetica,sans-Serif" font-size="10.00">meltpooldg/utilities</text>
<text text-anchor="middle" x="470.32" y="-73" font-family="Helvetica,sans-Serif" font-size="10.00">/amr_data.hpp</text>
</a>
</g>
</g>
<!-- Node1&#45;&gt;Node5 -->
<g id="edge15_Node000001_Node000005" class="edge">
<title>Node1&#45;&gt;Node5</title>
<g id="a_edge15_Node000001_Node000005"><a xlink:title=" ">
<path fill="none" stroke="#63b8ff" d="M315.54,-199.31C342.63,-191.4 374.83,-179.35 400.32,-162 422.8,-146.7 442.59,-122.52 455.34,-104.74"/>
<polygon fill="#63b8ff" stroke="#63b8ff" points="458.51,-106.32 461.34,-96.11 452.76,-102.32 458.51,-106.32"/>
</a>
</g>
</g>
<!-- Node7 -->
<g id="Node000007" class="node">
<title>Node7</title>
<g id="a_Node000007"><a xlink:href="attach__vectors_8hpp.html" target="_top" xlink:title=" ">
<polygon fill="white" stroke="#666666" points="281.82,-96 168.82,-96 168.82,-66 281.82,-66 281.82,-96"/>
<text text-anchor="start" x="176.82" y="-84" font-family="Helvetica,sans-Serif" font-size="10.00">meltpooldg/utilities</text>
<text text-anchor="middle" x="225.32" y="-73" font-family="Helvetica,sans-Serif" font-size="10.00">/attach_vectors.hpp</text>
</a>
</g>
</g>
<!-- Node1&#45;&gt;Node7 -->
<g id="edge16_Node000001_Node000007" class="edge">
<title>Node1&#45;&gt;Node7</title>
<g id="a_edge16_Node000001_Node000007"><a xlink:title=" ">
<path fill="none" stroke="#63b8ff" d="M252.57,-197.98C247.48,-188.18 241.09,-174.64 237.32,-162 231.87,-143.74 228.83,-122.36 227.17,-106.3"/>
<polygon fill="#63b8ff" stroke="#63b8ff" points="230.64,-105.77 226.24,-96.14 223.67,-106.41 230.64,-105.77"/>
</a>
</g>
</g>
<!-- Node8 -->
<g id="Node000008" class="node">
<title>Node8</title>
<g id="a_Node000008"><a xlink:title=" ">
<polygon fill="#e0e0e0" stroke="#999999" points="391.82,-24.5 326.82,-24.5 326.82,-5.5 391.82,-5.5 391.82,-24.5"/>
<text text-anchor="middle" x="359.32" y="-12.5" font-family="Helvetica,sans-Serif" font-size="10.00">functional</text>
</a>
</g>
</g>
<!-- Node1&#45;&gt;Node8 -->
<g id="edge17_Node000001_Node000008" class="edge">
<title>Node1&#45;&gt;Node8</title>
<g id="a_edge17_Node000001_Node000008"><a xlink:title=" ">
<path fill="none" stroke="#63b8ff" d="M315.46,-199.5C335.3,-192.06 355.65,-180.34 367.32,-162 392.58,-122.33 377.09,-63.62 366.61,-34.2"/>
<polygon fill="#63b8ff" stroke="#63b8ff" points="369.86,-32.9 363.05,-24.78 363.31,-35.37 369.86,-32.9"/>
</a>
</g>
</g>
<!-- Node4&#45;&gt;Node2 -->
<g id="edge4_Node000004_Node000002" class="edge">
<title>Node4&#45;&gt;Node2</title>
<g id="a_edge4_Node000004_Node000002"><a xlink:title=" ">
<path fill="none" stroke="#63b8ff" d="M245.98,-135.71C217.67,-128.34 184.2,-116.06 159.32,-96 138.98,-79.59 124.88,-52.31 117.2,-34.24"/>
<polygon fill="#63b8ff" stroke="#63b8ff" points="120.39,-32.79 113.42,-24.82 113.89,-35.4 120.39,-32.79"/>
</a>
</g>
</g>
<!-- Node4&#45;&gt;Node3 -->
<g id="edge5_Node000004_Node000003" class="edge">
<title>Node4&#45;&gt;Node3</title>
<g id="a_edge5_Node000004_Node000003"><a xlink:title=" ">
<path fill="none" stroke="#63b8ff" d="M249.87,-131.95C206.3,-120.29 145.14,-103.91 104.89,-93.13"/>
<polygon fill="#63b8ff" stroke="#63b8ff" points="105.7,-89.72 95.13,-90.52 103.89,-96.48 105.7,-89.72"/>
</a>
</g>
</g>
<!-- Node4&#45;&gt;Node5 -->
<g id="edge6_Node000004_Node000005" class="edge">
<title>Node4&#45;&gt;Node5</title>
<g id="a_edge6_Node000004_Node000005"><a xlink:title=" ">
<path fill="none" stroke="#63b8ff" d="M339.19,-131.95C364.14,-122.45 397.29,-109.82 424.01,-99.64"/>
<polygon fill="#63b8ff" stroke="#63b8ff" points="425.44,-102.84 433.54,-96.01 422.95,-96.3 425.44,-102.84"/>
</a>
</g>
</g>
<!-- Node4&#45;&gt;Node7 -->
<g id="edge8_Node000004_Node000007" class="edge">
<title>Node4&#45;&gt;Node7</title>
<g id="a_edge8_Node000004_Node000007"><a xlink:title=" ">
<path fill="none" stroke="#63b8ff" d="M285.24,-131.8C274.97,-123.26 261.72,-112.25 250.29,-102.75"/>
<polygon fill="#63b8ff" stroke="#63b8ff" points="252.29,-99.86 242.37,-96.16 247.82,-105.25 252.29,-99.86"/>
</a>
</g>
</g>
<!-- Node4&#45;&gt;Node8 -->
<g id="edge13_Node000004_Node000008" class="edge">
<title>Node4&#45;&gt;Node8</title>
<g id="a_edge13_Node000004_Node000008"><a xlink:title=" ">
<path fill="none" stroke="#63b8ff" d="M308.53,-131.84C318.93,-108.13 339.85,-60.41 351.33,-34.23"/>
<polygon fill="#63b8ff" stroke="#63b8ff" points="354.68,-35.31 355.49,-24.75 348.27,-32.5 354.68,-35.31"/>
</a>
</g>
</g>
<!-- Node10 -->
<g id="Node000010" class="node">
<title>Node10</title>
<g id="a_Node000010"><a xlink:title=" ">
<polygon fill="#e0e0e0" stroke="#999999" points="308.82,-24.5 261.82,-24.5 261.82,-5.5 308.82,-5.5 308.82,-24.5"/>
<text text-anchor="middle" x="285.32" y="-12.5" font-family="Helvetica,sans-Serif" font-size="10.00">vector</text>
</a>
</g>
</g>
<!-- Node4&#45;&gt;Node10 -->
<g id="edge14_Node000004_Node000010" class="edge">
<title>Node4&#45;&gt;Node10</title>
<g id="a_edge14_Node000004_Node000010"><a xlink:title=" ">
<path fill="none" stroke="#63b8ff" d="M300.47,-131.84C297.4,-108.34 291.24,-61.26 287.8,-34.93"/>
<polygon fill="#63b8ff" stroke="#63b8ff" points="291.24,-34.21 286.47,-24.75 284.29,-35.12 291.24,-34.21"/>
</a>
</g>
</g>
<!-- Node6 -->
<g id="Node000006" class="node">
<title>Node6</title>
<g id="a_Node000006"><a xlink:title=" ">
<polygon fill="#e0e0e0" stroke="#999999" points="536.82,-30 409.82,-30 409.82,0 536.82,0 536.82,-30"/>
<text text-anchor="start" x="417.82" y="-18" font-family="Helvetica,sans-Serif" font-size="10.00">deal.II/base/parameter</text>
<text text-anchor="middle" x="473.32" y="-7" font-family="Helvetica,sans-Serif" font-size="10.00">_handler.h</text>
</a>
</g>
</g>
<!-- Node5&#45;&gt;Node6 -->
<g id="edge7_Node000005_Node000006" class="edge">
<title>Node5&#45;&gt;Node6</title>
<g id="a_edge7_Node000005_Node000006"><a xlink:title=" ">
<path fill="none" stroke="#63b8ff" d="M470.99,-65.8C471.34,-58.34 471.78,-48.99 472.18,-40.41"/>
<polygon fill="#63b8ff" stroke="#63b8ff" points="475.69,-40.32 472.66,-30.16 468.7,-39.99 475.69,-40.32"/>
</a>
</g>
</g>
<!-- Node7&#45;&gt;Node2 -->
<g id="edge9_Node000007_Node000002" class="edge">
<title>Node7&#45;&gt;Node2</title>
<g id="a_edge9_Node000007_Node000002"><a xlink:title=" ">
<path fill="none" stroke="#63b8ff" d="M200.09,-65.95C180.54,-55.08 153.64,-40.11 134.4,-29.4"/>
<polygon fill="#63b8ff" stroke="#63b8ff" points="136.07,-26.32 125.63,-24.52 132.66,-32.44 136.07,-26.32"/>
</a>
</g>
</g>
<!-- Node7&#45;&gt;Node8 -->
<g id="edge10_Node000007_Node000008" class="edge">
<title>Node7&#45;&gt;Node8</title>
<g id="a_edge10_Node000007_Node000008"><a xlink:title=" ">
<path fill="none" stroke="#63b8ff" d="M254.73,-65.95C277.82,-54.93 309.71,-39.7 332.19,-28.96"/>
<polygon fill="#63b8ff" stroke="#63b8ff" points="333.98,-31.99 341.49,-24.52 330.96,-25.67 333.98,-31.99"/>
</a>
</g>
</g>
<!-- Node9 -->
<g id="Node000009" class="node">
<title>Node9</title>
<g id="a_Node000009"><a xlink:title=" ">
<polygon fill="#e0e0e0" stroke="#999999" points="243.82,-24.5 198.82,-24.5 198.82,-5.5 243.82,-5.5 243.82,-24.5"/>
<text text-anchor="middle" x="221.32" y="-12.5" font-family="Helvetica,sans-Serif" font-size="10.00">utility</text>
</a>
</g>
</g>
<!-- Node7&#45;&gt;Node9 -->
<g id="edge11_Node000007_Node000009" class="edge">
<title>Node7&#45;&gt;Node9</title>
<g id="a_edge11_Node000007_Node000009"><a xlink:title=" ">
<path fill="none" stroke="#63b8ff" d="M224.44,-65.8C223.87,-56.7 223.12,-44.79 222.51,-34.9"/>
<polygon fill="#63b8ff" stroke="#63b8ff" points="225.99,-34.61 221.88,-24.84 219.01,-35.04 225.99,-34.61"/>
</a>
</g>
</g>
<!-- Node7&#45;&gt;Node10 -->
<g id="edge12_Node000007_Node000010" class="edge">
<title>Node7&#45;&gt;Node10</title>
<g id="a_edge12_Node000007_Node000010"><a xlink:title=" ">
<path fill="none" stroke="#63b8ff" d="M238.64,-65.8C247.9,-55.92 260.28,-42.72 269.96,-32.39"/>
<polygon fill="#63b8ff" stroke="#63b8ff" points="272.75,-34.53 277.03,-24.84 267.64,-29.75 272.75,-34.53"/>
</a>
</g>
</g>
</g>
</svg>

<g id="navigator" transform="translate(0 0)" fill="#404254">
  <rect fill="#f2f5e9" fill-opacity="0.5" stroke="#606060" stroke-width=".5" x="0" y="0" width="60" height="60"/>
  <use id="zoomplus" xlink:href="#zoomPlus" x="17" y="9" onmousedown="handleZoom(evt,'in')"/>
  <use id="zoomminus" xlink:href="#zoomMin" x="42" y="9" onmousedown="handleZoom(evt,'out')"/>
  <use id="reset" xlink:href="#resetDef" x="30" y="36" onmousedown="handleReset()"/>
   <use id="arrowup" xlink:href="#arrowUp" x="0" y="0" onmousedown="handlePan(0,-1)"/>
  <use id="arrowright" xlink:href="#arrowRight" x="0" y="0" onmousedown="handlePan(1,0)"/>
  <use id="arrowdown" xlink:href="#arrowDown" x="0" y="0" onmousedown="handlePan(0,1)"/>
  <use id="arrowleft" xlink:href="#arrowLeft" x="0" y="0" onmousedown="handlePan(-1,0)"/>
</g>
<svg viewBox="0 0 15 15" width="100%" height="30px" preserveAspectRatio="xMaxYMin meet">
 <g id="arrow_out" transform="scale(0.3 0.3)">
  <a xlink:href="cut_2amr_8hpp__incl_org.svg" target="_base">
   <rect id="button" ry="5" rx="5" y="6" x="6" height="38" width="38"
        fill="#f2f5e9" fill-opacity="0.5" stroke="#606060" stroke-width="1.0"/>
   <path id="arrow"
     d="M 11.500037,31.436501 C 11.940474,20.09759 22.043105,11.32322 32.158766,21.979434 L 37.068811,17.246167 C 37.068811,17.246167 37.088388,32 37.088388,32 L 22.160133,31.978069 C 22.160133,31.978069 26.997745,27.140456 26.997745,27.140456 C 18.528582,18.264221 13.291696,25.230495 11.500037,31.436501 z"
     style="fill:#404040;"/>
  </a>
 </g>
</svg>

<style type='text/css'>
<![CDATA[
[data-mouse-over-selected='false'] { opacity: 0.7; }
[data-mouse-over-selected='true']  { opacity: 1.0; }
]]>
</style>
<script type="application/ecmascript"><![CDATA[
document.addEventListener('DOMContentLoaded', (event) => {
  highlightEdges();
  highlightAdjacentNodes();
});
]]></script>
</svg>
