<?xml version="1.0" encoding="UTF-8" standalone="no"?>
<!DOCTYPE svg PUBLIC "-//W3C//DTD SVG 1.1//EN"
 "http://www.w3.org/Graphics/SVG/1.1/DTD/svg11.dtd">
<!-- Generated by graphviz version 2.43.0 (0)
 -->
<!-- Title: include/meltpooldg/compressible_flow/cutdg_operator.hpp Pages: 1 -->
<svg width="342pt" height="192pt"
 viewBox="0.00 0.00 342.00 192.00" xmlns="http://www.w3.org/2000/svg" xmlns:xlink="http://www.w3.org/1999/xlink">
<g id="graph0" class="graph" transform="scale(1 1) rotate(0) translate(4 188)">
<title>include/meltpooldg/compressible_flow/cutdg_operator.hpp</title>
<!-- Node1 -->
<g id="Node000001" class="node">
<title>Node1</title>
<g id="a_Node000001"><a xlink:title=" ">
<polygon fill="#999999" stroke="#666666" points="238,-184 98,-184 98,-143 238,-143 238,-184"/>
<text text-anchor="start" x="106" y="-172" font-family="Helvetica,sans-Serif" font-size="10.00">include/meltpooldg</text>
<text text-anchor="start" x="106" y="-161" font-family="Helvetica,sans-Serif" font-size="10.00">/compressible_flow/cutdg</text>
<text text-anchor="middle" x="168" y="-150" font-family="Helvetica,sans-Serif" font-size="10.00">_operator.hpp</text>
</a>
</g>
</g>
<!-- Node2 -->
<g id="Node000002" class="node">
<title>Node2</title>
<g id="a_Node000002"><a xlink:href="cutdg__operation_8hpp.html" target="_top" xlink:title=" ">
<polygon fill="white" stroke="#666666" points="140,-107 0,-107 0,-66 140,-66 140,-107"/>
<text text-anchor="start" x="8" y="-95" font-family="Helvetica,sans-Serif" font-size="10.00">include/meltpooldg</text>
<text text-anchor="start" x="8" y="-84" font-family="Helvetica,sans-Serif" font-size="10.00">/compressible_flow/cutdg</text>
<text text-anchor="middle" x="70" y="-73" font-family="Helvetica,sans-Serif" font-size="10.00">_operation.hpp</text>
</a>
</g>
</g>
<!-- Node1&#45;&gt;Node2 -->
<g id="edge1_Node000001_Node000002" class="edge">
<title>Node1&#45;&gt;Node2</title>
<g id="a_edge1_Node000001_Node000002"><a xlink:title=" ">
<path fill="none" stroke="#63b8ff" d="M134.44,-136.82C121.76,-127.11 107.55,-116.24 95.71,-107.17"/>
<polygon fill="#63b8ff" stroke="#63b8ff" points="132.44,-139.69 142.51,-142.99 136.69,-134.13 132.44,-139.69"/>
</a>
</g>
</g>
<!-- Node3 -->
<g id="Node000003" class="node">
<title>Node3</title>
<g id="a_Node000003"><a xlink:href="cutdg__operation_8cpp.html" target="_top" xlink:title=" ">
<polygon fill="white" stroke="#666666" points="191,-30 47,-30 47,0 191,0 191,-30"/>
<text text-anchor="start" x="55" y="-18" font-family="Helvetica,sans-Serif" font-size="10.00">source/compressible</text>
<text text-anchor="middle" x="119" y="-7" font-family="Helvetica,sans-Serif" font-size="10.00">_flow/cutdg_operation.cpp</text>
</a>
</g>
</g>
<!-- Node1&#45;&gt;Node3 -->
<g id="edge3_Node000001_Node000003" class="edge">
<title>Node1&#45;&gt;Node3</title>
<g id="a_edge3_Node000001_Node000003"><a xlink:title=" ">
<path fill="none" stroke="#63b8ff" d="M164.83,-132.62C162.11,-113.17 157.28,-87.51 149,-66 144.05,-53.15 135.9,-39.84 129.34,-30.19"/>
<polygon fill="#63b8ff" stroke="#63b8ff" points="161.38,-133.25 166.13,-142.72 168.32,-132.36 161.38,-133.25"/>
</a>
</g>
</g>
<!-- Node4 -->
<g id="Node000004" class="node">
<title>Node4</title>
<g id="a_Node000004"><a xlink:href="cutdg__operator_8cpp.html" target="_top" xlink:title=" ">
<polygon fill="white" stroke="#666666" points="334,-101.5 196,-101.5 196,-71.5 334,-71.5 334,-101.5"/>
<text text-anchor="start" x="204" y="-89.5" font-family="Helvetica,sans-Serif" font-size="10.00">source/compressible</text>
<text text-anchor="middle" x="265" y="-78.5" font-family="Helvetica,sans-Serif" font-size="10.00">_flow/cutdg_operator.cpp</text>
</a>
</g>
</g>
<!-- Node1&#45;&gt;Node4 -->
<g id="edge4_Node000001_Node000004" class="edge">
<title>Node1&#45;&gt;Node4</title>
<g id="a_edge4_Node000001_Node000004"><a xlink:title=" ">
<path fill="none" stroke="#63b8ff" d="M201.38,-136.69C216.54,-124.97 233.89,-111.56 246.63,-101.7"/>
<polygon fill="#63b8ff" stroke="#63b8ff" points="199,-134.1 193.23,-142.99 203.28,-139.64 199,-134.1"/>
</a>
</g>
</g>
<!-- Node2&#45;&gt;Node3 -->
<g id="edge2_Node000002_Node000003" class="edge">
<title>Node2&#45;&gt;Node3</title>
<g id="a_edge2_Node000002_Node000003"><a xlink:title=" ">
<path fill="none" stroke="#63b8ff" d="M89.81,-57.4C96.45,-47.99 103.56,-37.9 109.1,-30.04"/>
<polygon fill="#63b8ff" stroke="#63b8ff" points="86.81,-55.58 83.91,-65.77 92.53,-59.61 86.81,-55.58"/>
</a>
</g>
</g>
</g>
</svg>
