<?xml version="1.0" encoding="UTF-8" standalone="no"?>
<!DOCTYPE svg PUBLIC "-//W3C//DTD SVG 1.1//EN"
 "http://www.w3.org/Graphics/SVG/1.1/DTD/svg11.dtd">
<!-- Generated by graphviz version 2.43.0 (0)
 -->
<!-- Title: include/meltpooldg/compressible_flow/data_types.hpp Pages: 1 -->
<svg width="551pt" height="170pt"
 viewBox="0.00 0.00 550.50 170.00" xmlns="http://www.w3.org/2000/svg" xmlns:xlink="http://www.w3.org/1999/xlink">
<g id="graph0" class="graph" transform="scale(1 1) rotate(0) translate(4 166)">
<title>include/meltpooldg/compressible_flow/data_types.hpp</title>
<!-- Node1 -->
<g id="Node000001" class="node">
<title>Node1</title>
<g id="a_Node000001"><a xlink:title=" ">
<polygon fill="#999999" stroke="#666666" points="375,-162 240,-162 240,-121 375,-121 375,-162"/>
<text text-anchor="start" x="248" y="-150" font-family="Helvetica,sans-Serif" font-size="10.00">include/meltpooldg</text>
<text text-anchor="start" x="248" y="-139" font-family="Helvetica,sans-Serif" font-size="10.00">/compressible_flow/data</text>
<text text-anchor="middle" x="307.5" y="-128" font-family="Helvetica,sans-Serif" font-size="10.00">_types.hpp</text>
</a>
</g>
</g>
<!-- Node2 -->
<g id="Node000002" class="node">
<title>Node2</title>
<g id="a_Node000002"><a xlink:title=" ">
<polygon fill="#e0e0e0" stroke="#999999" points="115,-19 0,-19 0,0 115,0 115,-19"/>
<text text-anchor="middle" x="57.5" y="-7" font-family="Helvetica,sans-Serif" font-size="10.00">deal.II/base/tensor.h</text>
</a>
</g>
</g>
<!-- Node1&#45;&gt;Node2 -->
<g id="edge1_Node000001_Node000002" class="edge">
<title>Node1&#45;&gt;Node2</title>
<g id="a_edge1_Node000001_Node000002"><a xlink:title=" ">
<path fill="none" stroke="#63b8ff" d="M269.8,-120.9C218.21,-94.07 126.98,-46.63 82.83,-23.67"/>
<polygon fill="#63b8ff" stroke="#63b8ff" points="84.4,-20.54 73.91,-19.03 81.17,-26.75 84.4,-20.54"/>
</a>
</g>
</g>
<!-- Node3 -->
<g id="Node000003" class="node">
<title>Node3</title>
<g id="a_Node000003"><a xlink:title=" ">
<polygon fill="#e0e0e0" stroke="#999999" points="282,-19 133,-19 133,0 282,0 282,-19"/>
<text text-anchor="middle" x="207.5" y="-7" font-family="Helvetica,sans-Serif" font-size="10.00">deal.II/base/vectorization.h</text>
</a>
</g>
</g>
<!-- Node1&#45;&gt;Node3 -->
<g id="edge2_Node000001_Node000003" class="edge">
<title>Node1&#45;&gt;Node3</title>
<g id="a_edge2_Node000001_Node000003"><a xlink:title=" ">
<path fill="none" stroke="#63b8ff" d="M279.48,-120.88C267.02,-111.15 252.85,-98.57 242.5,-85 229.4,-67.83 219.57,-44.97 213.71,-29.12"/>
<polygon fill="#63b8ff" stroke="#63b8ff" points="216.92,-27.7 210.3,-19.42 210.32,-30.02 216.92,-27.7"/>
</a>
</g>
</g>
<!-- Node4 -->
<g id="Node000004" class="node">
<title>Node4</title>
<g id="a_Node000004"><a xlink:href="concepts_8hpp.html" target="_top" xlink:title=" ">
<polygon fill="white" stroke="#666666" points="542.5,-85 430.5,-85 430.5,-55 542.5,-55 542.5,-85"/>
<text text-anchor="start" x="438.5" y="-73" font-family="Helvetica,sans-Serif" font-size="10.00">meltpooldg/utilities</text>
<text text-anchor="middle" x="486.5" y="-62" font-family="Helvetica,sans-Serif" font-size="10.00">/concepts.hpp</text>
</a>
</g>
</g>
<!-- Node1&#45;&gt;Node4 -->
<g id="edge3_Node000001_Node000004" class="edge">
<title>Node1&#45;&gt;Node4</title>
<g id="a_edge3_Node000001_Node000004"><a xlink:title=" ">
<path fill="none" stroke="#63b8ff" d="M357.84,-120.96C383.97,-110.81 415.65,-98.51 441.04,-88.65"/>
<polygon fill="#63b8ff" stroke="#63b8ff" points="442.38,-91.89 450.43,-85 439.84,-85.36 442.38,-91.89"/>
</a>
</g>
</g>
<!-- Node6 -->
<g id="Node000006" class="node">
<title>Node6</title>
<g id="a_Node000006"><a xlink:href="dealii__tensor_8hpp.html" target="_top" xlink:title=" ">
<polygon fill="white" stroke="#666666" points="363.5,-85 251.5,-85 251.5,-55 363.5,-55 363.5,-85"/>
<text text-anchor="start" x="259.5" y="-73" font-family="Helvetica,sans-Serif" font-size="10.00">meltpooldg/utilities</text>
<text text-anchor="middle" x="307.5" y="-62" font-family="Helvetica,sans-Serif" font-size="10.00">/dealii_tensor.hpp</text>
</a>
</g>
</g>
<!-- Node1&#45;&gt;Node6 -->
<g id="edge5_Node000001_Node000006" class="edge">
<title>Node1&#45;&gt;Node6</title>
<g id="a_edge5_Node000001_Node000006"><a xlink:title=" ">
<path fill="none" stroke="#63b8ff" d="M307.5,-120.77C307.5,-112.85 307.5,-103.63 307.5,-95.3"/>
<polygon fill="#63b8ff" stroke="#63b8ff" points="311,-95.04 307.5,-85.04 304,-95.04 311,-95.04"/>
</a>
</g>
</g>
<!-- Node8 -->
<g id="Node000008" class="node">
<title>Node8</title>
<g id="a_Node000008"><a xlink:title=" ">
<polygon fill="#e0e0e0" stroke="#999999" points="440,-19 371,-19 371,0 440,0 440,-19"/>
<text text-anchor="middle" x="405.5" y="-7" font-family="Helvetica,sans-Serif" font-size="10.00">type_traits</text>
</a>
</g>
</g>
<!-- Node1&#45;&gt;Node8 -->
<g id="edge10_Node000001_Node000008" class="edge">
<title>Node1&#45;&gt;Node8</title>
<g id="a_edge10_Node000001_Node000008"><a xlink:title=" ">
<path fill="none" stroke="#63b8ff" d="M335.65,-120.99C348.15,-111.27 362.3,-98.68 372.5,-85 385.28,-67.86 394.47,-44.99 399.86,-29.14"/>
<polygon fill="#63b8ff" stroke="#63b8ff" points="403.25,-30.02 402.97,-19.43 396.58,-27.88 403.25,-30.02"/>
</a>
</g>
</g>
<!-- Node5 -->
<g id="Node000005" class="node">
<title>Node5</title>
<g id="a_Node000005"><a xlink:title=" ">
<polygon fill="#e0e0e0" stroke="#999999" points="518.5,-19 458.5,-19 458.5,0 518.5,0 518.5,-19"/>
<text text-anchor="middle" x="488.5" y="-7" font-family="Helvetica,sans-Serif" font-size="10.00">concepts</text>
</a>
</g>
</g>
<!-- Node4&#45;&gt;Node5 -->
<g id="edge4_Node000004_Node000005" class="edge">
<title>Node4&#45;&gt;Node5</title>
<g id="a_edge4_Node000004_Node000005"><a xlink:title=" ">
<path fill="none" stroke="#63b8ff" d="M486.98,-54.84C487.24,-47.21 487.57,-37.7 487.85,-29.45"/>
<polygon fill="#63b8ff" stroke="#63b8ff" points="491.36,-29.38 488.2,-19.27 484.36,-29.14 491.36,-29.38"/>
</a>
</g>
</g>
<!-- Node6&#45;&gt;Node2 -->
<g id="edge6_Node000006_Node000002" class="edge">
<title>Node6&#45;&gt;Node2</title>
<g id="a_edge6_Node000006_Node000002"><a xlink:title=" ">
<path fill="none" stroke="#63b8ff" d="M251.4,-55.87C206.97,-45.48 145.67,-31.13 103.97,-21.37"/>
<polygon fill="#63b8ff" stroke="#63b8ff" points="104.61,-17.93 94.08,-19.06 103.02,-24.75 104.61,-17.93"/>
</a>
</g>
</g>
<!-- Node6&#45;&gt;Node3 -->
<g id="edge7_Node000006_Node000003" class="edge">
<title>Node6&#45;&gt;Node3</title>
<g id="a_edge7_Node000006_Node000003"><a xlink:title=" ">
<path fill="none" stroke="#63b8ff" d="M283.55,-54.99C267.61,-45.66 246.77,-33.47 230.94,-24.21"/>
<polygon fill="#63b8ff" stroke="#63b8ff" points="232.67,-21.17 222.27,-19.14 229.13,-27.21 232.67,-21.17"/>
</a>
</g>
</g>
<!-- Node7 -->
<g id="Node000007" class="node">
<title>Node7</title>
<g id="a_Node000007"><a xlink:title=" ">
<polygon fill="#e0e0e0" stroke="#999999" points="353,-19 300,-19 300,0 353,0 353,-19"/>
<text text-anchor="middle" x="326.5" y="-7" font-family="Helvetica,sans-Serif" font-size="10.00">cstddef</text>
</a>
</g>
</g>
<!-- Node6&#45;&gt;Node7 -->
<g id="edge8_Node000006_Node000007" class="edge">
<title>Node6&#45;&gt;Node7</title>
<g id="a_edge8_Node000006_Node000007"><a xlink:title=" ">
<path fill="none" stroke="#63b8ff" d="M312.1,-54.84C314.63,-47.04 317.81,-37.27 320.53,-28.89"/>
<polygon fill="#63b8ff" stroke="#63b8ff" points="323.89,-29.86 323.65,-19.27 317.24,-27.7 323.89,-29.86"/>
</a>
</g>
</g>
<!-- Node6&#45;&gt;Node8 -->
<g id="edge9_Node000006_Node000008" class="edge">
<title>Node6&#45;&gt;Node8</title>
<g id="a_edge9_Node000006_Node000008"><a xlink:title=" ">
<path fill="none" stroke="#63b8ff" d="M331.22,-54.84C346.7,-45.6 366.82,-33.59 382.21,-24.4"/>
<polygon fill="#63b8ff" stroke="#63b8ff" points="384.31,-27.23 391.1,-19.09 380.72,-21.21 384.31,-27.23"/>
</a>
</g>
</g>
</g>
</svg>
