<?xml version="1.0" encoding="UTF-8" standalone="no"?>
<!DOCTYPE svg PUBLIC "-//W3C//DTD SVG 1.1//EN"
 "http://www.w3.org/Graphics/SVG/1.1/DTD/svg11.dtd">
<!-- Generated by graphviz version 2.43.0 (0)
 -->
<!-- Title: source/level_set/delta_approximation_phase_weighted_data.cpp Pages: 1 -->
<!--zoomable 324 -->

<svg id="main" version="1.1" xmlns="http://www.w3.org/2000/svg" xmlns:xlink="http://www.w3.org/1999/xlink" xml:space="preserve" onload="init(evt)">
<style type="text/css"><![CDATA[
.node, .edge {opacity: 0.7;}
.node.selected, .edge.selected {opacity: 1;}
.edge:hover path { stroke: red; }
.edge:hover polygon { stroke: red; fill: red; }
]]></style>

<defs>
  <circle id="rim" cx="0" cy="0" r="7"/>
  <circle id="rim2" cx="0" cy="0" r="3.5"/>
  <g id="zoomPlus">
    <use xlink:href="#rim" fill="#404040"><set attributeName="fill" to="#808080" begin="zoomplus.mouseover" end="zoomplus.mouseout"/></use>
    <path d="M-4,0h8M0,-4v8" fill="none" stroke="white" stroke-width="1.5" pointer-events="none"/>
  </g>
  <g id="zoomMin">
    <use xlink:href="#rim" fill="#404040"><set attributeName="fill" to="#808080" begin="zoomminus.mouseover" end="zoomminus.mouseout"/></use>
    <path d="M-4,0h8" fill="none" stroke="white" stroke-width="1.5" pointer-events="none"/>
  </g>
  <g id="arrowUp" transform="translate(30 24)">
    <use xlink:href="#rim"/>
    <path pointer-events="none" fill="none" stroke="white" stroke-width="1.5" d="M0,-3.0v7 M-2.5,-0.5L0,-3.0L2.5,-0.5"/>
  </g>
  <g id="arrowRight" transform="rotate(90) translate(36 -43)">
    <use xlink:href="#rim"/>
    <path pointer-events="none" fill="none" stroke="white" stroke-width="1.5" d="M0,-3.0v7 M-2.5,-0.5L0,-3.0L2.5,-0.5"/>
  </g>
  <g id="arrowDown" transform="rotate(180) translate(-30 -48)">
    <use xlink:href="#rim"/>
    <path pointer-events="none" fill="none" stroke="white" stroke-width="1.5" d="M0,-3.0v7 M-2.5,-0.5L0,-3.0L2.5,-0.5"/>
  </g>
  <g id="arrowLeft" transform="rotate(270) translate(-36 17)">
    <use xlink:href="#rim"/>
    <path pointer-events="none" fill="none" stroke="white" stroke-width="1.5" d="M0,-3.0v7 M-2.5,-0.5L0,-3.0L2.5,-0.5"/>
  </g>
  <g id="resetDef">
    <use xlink:href="#rim2" fill="#404040"><set attributeName="fill" to="#808080" begin="reset.mouseover" end="reset.mouseout"/></use>
  </g>
</defs>
<script type="application/ecmascript">
var viewWidth = 715;
var viewHeight = 324;
var sectionId = 'dynsection-0';
</script>
<script type="application/ecmascript" xlink:href="svg.min.js"/>
<svg id="graph" class="graph">
<g id="viewport">
<title>source/level_set/delta_approximation_phase_weighted_data.cpp</title>
<!-- Node1 -->
<g id="Node000001" class="node">
<title>Node1</title>
<g id="a_Node000001"><a xlink:title=" ">
<polygon fill="#999999" stroke="#666666" points="532.5,-316 354.5,-316 354.5,-275 532.5,-275 532.5,-316"/>
<text text-anchor="start" x="362.5" y="-304" font-family="Helvetica,sans-Serif" font-size="10.00">source/level_set/delta</text>
<text text-anchor="start" x="362.5" y="-293" font-family="Helvetica,sans-Serif" font-size="10.00">_approximation_phase_weighted</text>
<text text-anchor="middle" x="443.5" y="-282" font-family="Helvetica,sans-Serif" font-size="10.00">_data.cpp</text>
</a>
</g>
</g>
<!-- Node2 -->
<g id="Node000002" class="node">
<title>Node2</title>
<g id="a_Node000002"><a xlink:title=" ">
<polygon fill="#e0e0e0" stroke="#999999" points="431.5,-228 293.5,-228 293.5,-209 431.5,-209 431.5,-228"/>
<text text-anchor="middle" x="362.5" y="-216" font-family="Helvetica,sans-Serif" font-size="10.00">deal.II/base/exceptions.h</text>
</a>
</g>
</g>
<!-- Node1&#45;&gt;Node2 -->
<g id="edge1_Node000001_Node000002" class="edge">
<title>Node1&#45;&gt;Node2</title>
<g id="a_edge1_Node000001_Node000002"><a xlink:title=" ">
<path fill="none" stroke="#63b8ff" d="M422.22,-274.79C408.84,-262.41 391.81,-246.64 379.37,-235.12"/>
<polygon fill="#63b8ff" stroke="#63b8ff" points="381.65,-232.46 371.94,-228.24 376.9,-237.6 381.65,-232.46"/>
</a>
</g>
</g>
<!-- Node3 -->
<g id="Node000003" class="node">
<title>Node3</title>
<g id="a_Node000003"><a xlink:href="delta__approximation__phase__weighted__data_8hpp.html" target="_top" xlink:title=" ">
<polygon fill="white" stroke="#666666" points="599,-239 450,-239 450,-198 599,-198 599,-239"/>
<text text-anchor="start" x="458" y="-227" font-family="Helvetica,sans-Serif" font-size="10.00">meltpooldg/level_set</text>
<text text-anchor="start" x="458" y="-216" font-family="Helvetica,sans-Serif" font-size="10.00">/delta_approximation</text>
<text text-anchor="middle" x="524.5" y="-205" font-family="Helvetica,sans-Serif" font-size="10.00">_phase_weighted_data.hpp</text>
</a>
</g>
</g>
<!-- Node1&#45;&gt;Node3 -->
<g id="edge2_Node000001_Node000003" class="edge">
<title>Node1&#45;&gt;Node3</title>
<g id="a_edge2_Node000001_Node000003"><a xlink:title=" ">
<path fill="none" stroke="#63b8ff" d="M464.78,-274.79C474.27,-266.01 485.59,-255.53 495.81,-246.07"/>
<polygon fill="#63b8ff" stroke="#63b8ff" points="498.4,-248.44 503.36,-239.07 493.64,-243.3 498.4,-248.44"/>
</a>
</g>
</g>
<!-- Node4 -->
<g id="Node000004" class="node">
<title>Node4</title>
<g id="a_Node000004"><a xlink:title=" ">
<polygon fill="#e0e0e0" stroke="#999999" points="707,-30 580,-30 580,0 707,0 707,-30"/>
<text text-anchor="start" x="588" y="-18" font-family="Helvetica,sans-Serif" font-size="10.00">deal.II/base/parameter</text>
<text text-anchor="middle" x="643.5" y="-7" font-family="Helvetica,sans-Serif" font-size="10.00">_handler.h</text>
</a>
</g>
</g>
<!-- Node3&#45;&gt;Node4 -->
<g id="edge3_Node000003_Node000004" class="edge">
<title>Node3&#45;&gt;Node4</title>
<g id="a_edge3_Node000003_Node000004"><a xlink:title=" ">
<path fill="none" stroke="#63b8ff" d="M558.27,-197.97C573.19,-188.33 590.3,-175.82 603.5,-162 627.52,-136.86 635.78,-129.38 645.5,-96 650.77,-77.9 649.89,-56.51 647.9,-40.41"/>
<polygon fill="#63b8ff" stroke="#63b8ff" points="651.32,-39.59 646.41,-30.21 644.39,-40.61 651.32,-39.59"/>
</a>
</g>
</g>
<!-- Node5 -->
<g id="Node000005" class="node">
<title>Node5</title>
<g id="a_Node000005"><a xlink:href="core_2material__data_8hpp.html" target="_top" xlink:title=" ">
<polygon fill="white" stroke="#666666" points="594.5,-162 454.5,-162 454.5,-132 594.5,-132 594.5,-162"/>
<text text-anchor="start" x="462.5" y="-150" font-family="Helvetica,sans-Serif" font-size="10.00">meltpooldg/core/material</text>
<text text-anchor="middle" x="524.5" y="-139" font-family="Helvetica,sans-Serif" font-size="10.00">_data.hpp</text>
</a>
</g>
</g>
<!-- Node3&#45;&gt;Node5 -->
<g id="edge4_Node000003_Node000005" class="edge">
<title>Node3&#45;&gt;Node5</title>
<g id="a_edge4_Node000003_Node000005"><a xlink:title=" ">
<path fill="none" stroke="#63b8ff" d="M524.5,-197.77C524.5,-189.85 524.5,-180.63 524.5,-172.3"/>
<polygon fill="#63b8ff" stroke="#63b8ff" points="528,-172.04 524.5,-162.04 521,-172.04 528,-172.04"/>
</a>
</g>
</g>
<!-- Node6 -->
<g id="Node000006" class="node">
<title>Node6</title>
<g id="a_Node000006"><a xlink:href="enum_8hpp.html" target="_top" xlink:title=" ">
<polygon fill="white" stroke="#666666" points="447.5,-96 335.5,-96 335.5,-66 447.5,-66 447.5,-96"/>
<text text-anchor="start" x="343.5" y="-84" font-family="Helvetica,sans-Serif" font-size="10.00">meltpooldg/utilities</text>
<text text-anchor="middle" x="391.5" y="-73" font-family="Helvetica,sans-Serif" font-size="10.00">/enum.hpp</text>
</a>
</g>
</g>
<!-- Node3&#45;&gt;Node6 -->
<g id="edge15_Node000003_Node000006" class="edge">
<title>Node3&#45;&gt;Node6</title>
<g id="a_edge15_Node000003_Node000006"><a xlink:title=" ">
<path fill="none" stroke="#63b8ff" d="M490.9,-197.8C476.01,-188.13 458.88,-175.64 445.5,-162 428.66,-144.85 413.74,-121.8 403.87,-104.85"/>
<polygon fill="#63b8ff" stroke="#63b8ff" points="406.91,-103.11 398.93,-96.14 400.82,-106.56 406.91,-103.11"/>
</a>
</g>
</g>
<!-- Node5&#45;&gt;Node4 -->
<g id="edge5_Node000005_Node000004" class="edge">
<title>Node5&#45;&gt;Node4</title>
<g id="a_edge5_Node000005_Node000004"><a xlink:title=" ">
<path fill="none" stroke="#63b8ff" d="M572.29,-131.98C591.09,-124.21 611.3,-112.66 624.5,-96 636.94,-80.31 641.45,-57.79 642.99,-40.64"/>
<polygon fill="#63b8ff" stroke="#63b8ff" points="646.5,-40.47 643.62,-30.27 639.52,-40.04 646.5,-40.47"/>
</a>
</g>
</g>
<!-- Node5&#45;&gt;Node6 -->
<g id="edge6_Node000005_Node000006" class="edge">
<title>Node5&#45;&gt;Node6</title>
<g id="a_edge6_Node000005_Node000006"><a xlink:title=" ">
<path fill="none" stroke="#63b8ff" d="M495.31,-131.95C476.08,-122.7 450.7,-110.49 429.84,-100.45"/>
<polygon fill="#63b8ff" stroke="#63b8ff" points="431.15,-97.19 420.62,-96.01 428.11,-103.5 431.15,-97.19"/>
</a>
</g>
</g>
<!-- Node11 -->
<g id="Node000011" class="node">
<title>Node11</title>
<g id="a_Node000011"><a xlink:title=" ">
<polygon fill="#e0e0e0" stroke="#999999" points="535.5,-24.5 491.5,-24.5 491.5,-5.5 535.5,-5.5 535.5,-24.5"/>
<text text-anchor="middle" x="513.5" y="-12.5" font-family="Helvetica,sans-Serif" font-size="10.00">string</text>
</a>
</g>
</g>
<!-- Node5&#45;&gt;Node11 -->
<g id="edge14_Node000005_Node000011" class="edge">
<title>Node5&#45;&gt;Node11</title>
<g id="a_edge14_Node000005_Node000011"><a xlink:title=" ">
<path fill="none" stroke="#63b8ff" d="M513.02,-131.66C506.17,-122.16 498.12,-109.07 494.5,-96 488.69,-75.01 496.55,-50.62 503.86,-34.34"/>
<polygon fill="#63b8ff" stroke="#63b8ff" points="507.21,-35.46 508.43,-24.93 500.91,-32.4 507.21,-35.46"/>
</a>
</g>
</g>
<!-- Node12 -->
<g id="Node000012" class="node">
<title>Node12</title>
<g id="a_Node000012"><a xlink:href="numbers_8hpp.html" target="_top" xlink:title=" ">
<polygon fill="white" stroke="#666666" points="615.5,-96 503.5,-96 503.5,-66 615.5,-66 615.5,-96"/>
<text text-anchor="start" x="511.5" y="-84" font-family="Helvetica,sans-Serif" font-size="10.00">meltpooldg/utilities</text>
<text text-anchor="middle" x="559.5" y="-73" font-family="Helvetica,sans-Serif" font-size="10.00">/numbers.hpp</text>
</a>
</g>
</g>
<!-- Node5&#45;&gt;Node12 -->
<g id="edge13_Node000005_Node000012" class="edge">
<title>Node5&#45;&gt;Node12</title>
<g id="a_edge13_Node000005_Node000012"><a xlink:title=" ">
<path fill="none" stroke="#63b8ff" d="M532.27,-131.8C536.57,-123.92 542.03,-113.95 546.93,-104.99"/>
<polygon fill="#63b8ff" stroke="#63b8ff" points="550.03,-106.62 551.75,-96.16 543.89,-103.26 550.03,-106.62"/>
</a>
</g>
</g>
<!-- Node6&#45;&gt;Node4 -->
<g id="edge7_Node000006_Node000004" class="edge">
<title>Node6&#45;&gt;Node4</title>
<g id="a_edge7_Node000006_Node000004"><a xlink:title=" ">
<path fill="none" stroke="#63b8ff" d="M446.8,-65.95C485.62,-56.1 537.67,-42.88 578.48,-32.51"/>
<polygon fill="#63b8ff" stroke="#63b8ff" points="579.5,-35.87 588.33,-30.01 577.77,-29.08 579.5,-35.87"/>
</a>
</g>
</g>
<!-- Node7 -->
<g id="Node000007" class="node">
<title>Node7</title>
<g id="a_Node000007"><a xlink:title=" ">
<polygon fill="#e0e0e0" stroke="#999999" points="343,-24.5 218,-24.5 218,-5.5 343,-5.5 343,-24.5"/>
<text text-anchor="middle" x="280.5" y="-12.5" font-family="Helvetica,sans-Serif" font-size="10.00">deal.II/base/patterns.h</text>
</a>
</g>
</g>
<!-- Node6&#45;&gt;Node7 -->
<g id="edge8_Node000006_Node000007" class="edge">
<title>Node6&#45;&gt;Node7</title>
<g id="a_edge8_Node000006_Node000007"><a xlink:title=" ">
<path fill="none" stroke="#63b8ff" d="M367.14,-65.95C348.36,-55.13 322.55,-40.24 303.99,-29.54"/>
<polygon fill="#63b8ff" stroke="#63b8ff" points="305.68,-26.48 295.27,-24.52 302.19,-32.54 305.68,-26.48"/>
</a>
</g>
</g>
<!-- Node8 -->
<g id="Node000008" class="node">
<title>Node8</title>
<g id="a_Node000008"><a xlink:title=" ">
<polygon fill="#e0e0e0" stroke="#999999" points="473.5,-30 361.5,-30 361.5,0 473.5,0 473.5,-30"/>
<text text-anchor="start" x="369.5" y="-18" font-family="Helvetica,sans-Serif" font-size="10.00">meltpooldg/utilities</text>
<text text-anchor="middle" x="417.5" y="-7" font-family="Helvetica,sans-Serif" font-size="10.00">/better_enum.hpp</text>
</a>
</g>
</g>
<!-- Node6&#45;&gt;Node8 -->
<g id="edge9_Node000006_Node000008" class="edge">
<title>Node6&#45;&gt;Node8</title>
<g id="a_edge9_Node000006_Node000008"><a xlink:title=" ">
<path fill="none" stroke="#63b8ff" d="M397.27,-65.8C400.4,-58.09 404.35,-48.37 407.93,-39.56"/>
<polygon fill="#63b8ff" stroke="#63b8ff" points="411.22,-40.75 411.75,-30.16 404.74,-38.11 411.22,-40.75"/>
</a>
</g>
</g>
<!-- Node9 -->
<g id="Node000009" class="node">
<title>Node9</title>
<g id="a_Node000009"><a xlink:title=" ">
<polygon fill="#e0e0e0" stroke="#999999" points="125,-30 0,-30 0,0 125,0 125,-30"/>
<text text-anchor="start" x="8" y="-18" font-family="Helvetica,sans-Serif" font-size="10.00">boost/algorithm/string</text>
<text text-anchor="middle" x="62.5" y="-7" font-family="Helvetica,sans-Serif" font-size="10.00">/join.hpp</text>
</a>
</g>
</g>
<!-- Node6&#45;&gt;Node9 -->
<g id="edge10_Node000006_Node000009" class="edge">
<title>Node6&#45;&gt;Node9</title>
<g id="a_edge10_Node000006_Node000009"><a xlink:title=" ">
<path fill="none" stroke="#63b8ff" d="M335.32,-69.07C280.03,-58.32 195.37,-41.85 135.03,-30.11"/>
<polygon fill="#63b8ff" stroke="#63b8ff" points="135.67,-26.67 125.19,-28.19 134.33,-33.54 135.67,-26.67"/>
</a>
</g>
</g>
<!-- Node10 -->
<g id="Node000010" class="node">
<title>Node10</title>
<g id="a_Node000010"><a xlink:title=" ">
<polygon fill="#e0e0e0" stroke="#999999" points="199.5,-24.5 143.5,-24.5 143.5,-5.5 199.5,-5.5 199.5,-24.5"/>
<text text-anchor="middle" x="171.5" y="-12.5" font-family="Helvetica,sans-Serif" font-size="10.00">sstream</text>
</a>
</g>
</g>
<!-- Node6&#45;&gt;Node10 -->
<g id="edge11_Node000006_Node000010" class="edge">
<title>Node6&#45;&gt;Node10</title>
<g id="a_edge11_Node000006_Node000010"><a xlink:title=" ">
<path fill="none" stroke="#63b8ff" d="M335.43,-66.15C299,-56.8 250.63,-43.69 208.5,-30 206.64,-29.4 204.73,-28.75 202.82,-28.08"/>
<polygon fill="#63b8ff" stroke="#63b8ff" points="203.88,-24.75 193.29,-24.64 201.5,-31.33 203.88,-24.75"/>
</a>
</g>
</g>
<!-- Node6&#45;&gt;Node11 -->
<g id="edge12_Node000006_Node000011" class="edge">
<title>Node6&#45;&gt;Node11</title>
<g id="a_edge12_Node000006_Node000011"><a xlink:title=" ">
<path fill="none" stroke="#63b8ff" d="M418.27,-65.95C439.1,-55.03 467.81,-39.97 488.24,-29.25"/>
<polygon fill="#63b8ff" stroke="#63b8ff" points="490.03,-32.26 497.26,-24.52 486.78,-26.06 490.03,-32.26"/>
</a>
</g>
</g>
</g>
</svg>

<g id="navigator" transform="translate(0 0)" fill="#404254">
  <rect fill="#f2f5e9" fill-opacity="0.5" stroke="#606060" stroke-width=".5" x="0" y="0" width="60" height="60"/>
  <use id="zoomplus" xlink:href="#zoomPlus" x="17" y="9" onmousedown="handleZoom(evt,'in')"/>
  <use id="zoomminus" xlink:href="#zoomMin" x="42" y="9" onmousedown="handleZoom(evt,'out')"/>
  <use id="reset" xlink:href="#resetDef" x="30" y="36" onmousedown="handleReset()"/>
   <use id="arrowup" xlink:href="#arrowUp" x="0" y="0" onmousedown="handlePan(0,-1)"/>
  <use id="arrowright" xlink:href="#arrowRight" x="0" y="0" onmousedown="handlePan(1,0)"/>
  <use id="arrowdown" xlink:href="#arrowDown" x="0" y="0" onmousedown="handlePan(0,1)"/>
  <use id="arrowleft" xlink:href="#arrowLeft" x="0" y="0" onmousedown="handlePan(-1,0)"/>
</g>
<svg viewBox="0 0 15 15" width="100%" height="30px" preserveAspectRatio="xMaxYMin meet">
 <g id="arrow_out" transform="scale(0.3 0.3)">
  <a xlink:href="delta__approximation__phase__weighted__data_8cpp__incl_org.svg" target="_base">
   <rect id="button" ry="5" rx="5" y="6" x="6" height="38" width="38"
        fill="#f2f5e9" fill-opacity="0.5" stroke="#606060" stroke-width="1.0"/>
   <path id="arrow"
     d="M 11.500037,31.436501 C 11.940474,20.09759 22.043105,11.32322 32.158766,21.979434 L 37.068811,17.246167 C 37.068811,17.246167 37.088388,32 37.088388,32 L 22.160133,31.978069 C 22.160133,31.978069 26.997745,27.140456 26.997745,27.140456 C 18.528582,18.264221 13.291696,25.230495 11.500037,31.436501 z"
     style="fill:#404040;"/>
  </a>
 </g>
</svg>

<style type='text/css'>
<![CDATA[
[data-mouse-over-selected='false'] { opacity: 0.7; }
[data-mouse-over-selected='true']  { opacity: 1.0; }
]]>
</style>
<script type="application/ecmascript"><![CDATA[
document.addEventListener('DOMContentLoaded', (event) => {
  highlightEdges();
  highlightAdjacentNodes();
});
]]></script>
</svg>
