<?xml version="1.0" encoding="UTF-8" standalone="no"?>
<!DOCTYPE svg PUBLIC "-//W3C//DTD SVG 1.1//EN"
 "http://www.w3.org/Graphics/SVG/1.1/DTD/svg11.dtd">
<!-- Generated by graphviz version 2.43.0 (0)
 -->
<!-- Title: include/meltpooldg/level_set/delta_approximation_phase_weighted_data.hpp Pages: 1 -->
<svg width="831pt" height="247pt"
 viewBox="0.00 0.00 831.00 247.00" xmlns="http://www.w3.org/2000/svg" xmlns:xlink="http://www.w3.org/1999/xlink">
<g id="graph0" class="graph" transform="scale(1 1) rotate(0) translate(4 243)">
<title>include/meltpooldg/level_set/delta_approximation_phase_weighted_data.hpp</title>
<!-- Node1 -->
<g id="Node000001" class="node">
<title>Node1</title>
<g id="a_Node000001"><a xlink:title=" ">
<polygon fill="#999999" stroke="#666666" points="370.5,-239 202.5,-239 202.5,-198 370.5,-198 370.5,-239"/>
<text text-anchor="start" x="210.5" y="-227" font-family="Helvetica,sans-Serif" font-size="10.00">include/meltpooldg</text>
<text text-anchor="start" x="210.5" y="-216" font-family="Helvetica,sans-Serif" font-size="10.00">/level_set/delta_approximation</text>
<text text-anchor="middle" x="286.5" y="-205" font-family="Helvetica,sans-Serif" font-size="10.00">_phase_weighted_data.hpp</text>
</a>
</g>
</g>
<!-- Node2 -->
<g id="Node000002" class="node">
<title>Node2</title>
<g id="a_Node000002"><a xlink:title=" ">
<polygon fill="#e0e0e0" stroke="#999999" points="127,-30 0,-30 0,0 127,0 127,-30"/>
<text text-anchor="start" x="8" y="-18" font-family="Helvetica,sans-Serif" font-size="10.00">deal.II/base/parameter</text>
<text text-anchor="middle" x="63.5" y="-7" font-family="Helvetica,sans-Serif" font-size="10.00">_handler.h</text>
</a>
</g>
</g>
<!-- Node1&#45;&gt;Node2 -->
<g id="edge1_Node000001_Node000002" class="edge">
<title>Node1&#45;&gt;Node2</title>
<g id="a_edge1_Node000001_Node000002"><a xlink:title=" ">
<path fill="none" stroke="#63b8ff" d="M264.71,-197.81C222.51,-159.68 129.99,-76.08 86.7,-36.96"/>
<polygon fill="#63b8ff" stroke="#63b8ff" points="88.98,-34.3 79.21,-30.2 84.28,-39.5 88.98,-34.3"/>
</a>
</g>
</g>
<!-- Node3 -->
<g id="Node000003" class="node">
<title>Node3</title>
<g id="a_Node000003"><a xlink:href="core_2material__data_8hpp.html" target="_top" xlink:title=" ">
<polygon fill="white" stroke="#666666" points="454.5,-162 314.5,-162 314.5,-132 454.5,-132 454.5,-162"/>
<text text-anchor="start" x="322.5" y="-150" font-family="Helvetica,sans-Serif" font-size="10.00">meltpooldg/core/material</text>
<text text-anchor="middle" x="384.5" y="-139" font-family="Helvetica,sans-Serif" font-size="10.00">_data.hpp</text>
</a>
</g>
</g>
<!-- Node1&#45;&gt;Node3 -->
<g id="edge2_Node000001_Node000003" class="edge">
<title>Node1&#45;&gt;Node3</title>
<g id="a_edge2_Node000001_Node000003"><a xlink:title=" ">
<path fill="none" stroke="#63b8ff" d="M314.06,-197.96C327.25,-188.6 343.02,-177.42 356.29,-168.01"/>
<polygon fill="#63b8ff" stroke="#63b8ff" points="358.47,-170.75 364.6,-162.11 354.42,-165.04 358.47,-170.75"/>
</a>
</g>
</g>
<!-- Node4 -->
<g id="Node000004" class="node">
<title>Node4</title>
<g id="a_Node000004"><a xlink:href="enum_8hpp.html" target="_top" xlink:title=" ">
<polygon fill="white" stroke="#666666" points="426.5,-96 314.5,-96 314.5,-66 426.5,-66 426.5,-96"/>
<text text-anchor="start" x="322.5" y="-84" font-family="Helvetica,sans-Serif" font-size="10.00">meltpooldg/utilities</text>
<text text-anchor="middle" x="370.5" y="-73" font-family="Helvetica,sans-Serif" font-size="10.00">/enum.hpp</text>
</a>
</g>
</g>
<!-- Node1&#45;&gt;Node4 -->
<g id="edge15_Node000001_Node000004" class="edge">
<title>Node1&#45;&gt;Node4</title>
<g id="a_edge15_Node000001_Node000004"><a xlink:title=" ">
<path fill="none" stroke="#63b8ff" d="M287.1,-197.71C288.49,-179.38 292.76,-152.01 305.5,-132 313.12,-120.04 324.65,-109.81 335.89,-101.79"/>
<polygon fill="#63b8ff" stroke="#63b8ff" points="338.02,-104.57 344.37,-96.09 334.11,-98.76 338.02,-104.57"/>
</a>
</g>
</g>
<!-- Node3&#45;&gt;Node2 -->
<g id="edge3_Node000003_Node000002" class="edge">
<title>Node3&#45;&gt;Node2</title>
<g id="a_edge3_Node000003_Node000002"><a xlink:title=" ">
<path fill="none" stroke="#63b8ff" d="M358.62,-131.91C326.74,-114.9 270.64,-86.09 220.5,-66 189.13,-53.43 153.27,-41.81 123.76,-32.95"/>
<polygon fill="#63b8ff" stroke="#63b8ff" points="124.59,-29.54 114.01,-30.05 122.59,-36.25 124.59,-29.54"/>
</a>
</g>
</g>
<!-- Node3&#45;&gt;Node4 -->
<g id="edge4_Node000003_Node000004" class="edge">
<title>Node3&#45;&gt;Node4</title>
<g id="a_edge4_Node000003_Node000004"><a xlink:title=" ">
<path fill="none" stroke="#63b8ff" d="M381.39,-131.8C379.74,-124.26 377.67,-114.78 375.78,-106.13"/>
<polygon fill="#63b8ff" stroke="#63b8ff" points="379.15,-105.19 373.6,-96.16 372.32,-106.68 379.15,-105.19"/>
</a>
</g>
</g>
<!-- Node9 -->
<g id="Node000009" class="node">
<title>Node9</title>
<g id="a_Node000009"><a xlink:title=" ">
<polygon fill="#e0e0e0" stroke="#999999" points="680.5,-24.5 636.5,-24.5 636.5,-5.5 680.5,-5.5 680.5,-24.5"/>
<text text-anchor="middle" x="658.5" y="-12.5" font-family="Helvetica,sans-Serif" font-size="10.00">string</text>
</a>
</g>
</g>
<!-- Node3&#45;&gt;Node9 -->
<g id="edge14_Node000003_Node000009" class="edge">
<title>Node3&#45;&gt;Node9</title>
<g id="a_edge14_Node000003_Node000009"><a xlink:title=" ">
<path fill="none" stroke="#63b8ff" d="M414.08,-131.96C467.51,-106.61 579.36,-53.55 631.13,-28.99"/>
<polygon fill="#63b8ff" stroke="#63b8ff" points="632.82,-32.06 640.36,-24.61 629.82,-25.73 632.82,-32.06"/>
</a>
</g>
</g>
<!-- Node10 -->
<g id="Node000010" class="node">
<title>Node10</title>
<g id="a_Node000010"><a xlink:href="numbers_8hpp.html" target="_top" xlink:title=" ">
<polygon fill="white" stroke="#666666" points="784.5,-96 672.5,-96 672.5,-66 784.5,-66 784.5,-96"/>
<text text-anchor="start" x="680.5" y="-84" font-family="Helvetica,sans-Serif" font-size="10.00">meltpooldg/utilities</text>
<text text-anchor="middle" x="728.5" y="-73" font-family="Helvetica,sans-Serif" font-size="10.00">/numbers.hpp</text>
</a>
</g>
</g>
<!-- Node3&#45;&gt;Node10 -->
<g id="edge11_Node000003_Node000010" class="edge">
<title>Node3&#45;&gt;Node10</title>
<g id="a_edge11_Node000003_Node000010"><a xlink:title=" ">
<path fill="none" stroke="#63b8ff" d="M454.53,-132.97C515.35,-121.66 602.79,-105.39 662.41,-94.29"/>
<polygon fill="#63b8ff" stroke="#63b8ff" points="663.28,-97.69 672.47,-92.42 662,-90.81 663.28,-97.69"/>
</a>
</g>
</g>
<!-- Node4&#45;&gt;Node2 -->
<g id="edge5_Node000004_Node000002" class="edge">
<title>Node4&#45;&gt;Node2</title>
<g id="a_edge5_Node000004_Node000002"><a xlink:title=" ">
<path fill="none" stroke="#63b8ff" d="M314.19,-68.26C264.41,-57.88 191.45,-42.67 137.07,-31.34"/>
<polygon fill="#63b8ff" stroke="#63b8ff" points="137.64,-27.88 127.14,-29.27 136.21,-34.73 137.64,-27.88"/>
</a>
</g>
</g>
<!-- Node5 -->
<g id="Node000005" class="node">
<title>Node5</title>
<g id="a_Node000005"><a xlink:title=" ">
<polygon fill="#e0e0e0" stroke="#999999" points="488,-24.5 363,-24.5 363,-5.5 488,-5.5 488,-24.5"/>
<text text-anchor="middle" x="425.5" y="-12.5" font-family="Helvetica,sans-Serif" font-size="10.00">deal.II/base/patterns.h</text>
</a>
</g>
</g>
<!-- Node4&#45;&gt;Node5 -->
<g id="edge6_Node000004_Node000005" class="edge">
<title>Node4&#45;&gt;Node5</title>
<g id="a_edge6_Node000004_Node000005"><a xlink:title=" ">
<path fill="none" stroke="#63b8ff" d="M382.71,-65.8C391.11,-56.01 402.31,-42.98 411.15,-32.7"/>
<polygon fill="#63b8ff" stroke="#63b8ff" points="414.04,-34.71 417.9,-24.84 408.73,-30.15 414.04,-34.71"/>
</a>
</g>
</g>
<!-- Node6 -->
<g id="Node000006" class="node">
<title>Node6</title>
<g id="a_Node000006"><a xlink:title=" ">
<polygon fill="#e0e0e0" stroke="#999999" points="618.5,-30 506.5,-30 506.5,0 618.5,0 618.5,-30"/>
<text text-anchor="start" x="514.5" y="-18" font-family="Helvetica,sans-Serif" font-size="10.00">meltpooldg/utilities</text>
<text text-anchor="middle" x="562.5" y="-7" font-family="Helvetica,sans-Serif" font-size="10.00">/better_enum.hpp</text>
</a>
</g>
</g>
<!-- Node4&#45;&gt;Node6 -->
<g id="edge7_Node000004_Node000006" class="edge">
<title>Node4&#45;&gt;Node6</title>
<g id="a_edge7_Node000004_Node000006"><a xlink:title=" ">
<path fill="none" stroke="#63b8ff" d="M412.64,-65.95C441.52,-56.33 480.03,-43.49 510.77,-33.24"/>
<polygon fill="#63b8ff" stroke="#63b8ff" points="512.08,-36.5 520.46,-30.01 509.87,-29.85 512.08,-36.5"/>
</a>
</g>
</g>
<!-- Node7 -->
<g id="Node000007" class="node">
<title>Node7</title>
<g id="a_Node000007"><a xlink:title=" ">
<polygon fill="#e0e0e0" stroke="#999999" points="270,-30 145,-30 145,0 270,0 270,-30"/>
<text text-anchor="start" x="153" y="-18" font-family="Helvetica,sans-Serif" font-size="10.00">boost/algorithm/string</text>
<text text-anchor="middle" x="207.5" y="-7" font-family="Helvetica,sans-Serif" font-size="10.00">/join.hpp</text>
</a>
</g>
</g>
<!-- Node4&#45;&gt;Node7 -->
<g id="edge8_Node000004_Node000007" class="edge">
<title>Node4&#45;&gt;Node7</title>
<g id="a_edge8_Node000004_Node000007"><a xlink:title=" ">
<path fill="none" stroke="#63b8ff" d="M334.73,-65.95C310.63,-56.49 278.65,-43.93 252.77,-33.78"/>
<polygon fill="#63b8ff" stroke="#63b8ff" points="253.77,-30.41 243.19,-30.01 251.22,-36.93 253.77,-30.41"/>
</a>
</g>
</g>
<!-- Node8 -->
<g id="Node000008" class="node">
<title>Node8</title>
<g id="a_Node000008"><a xlink:title=" ">
<polygon fill="#e0e0e0" stroke="#999999" points="344.5,-24.5 288.5,-24.5 288.5,-5.5 344.5,-5.5 344.5,-24.5"/>
<text text-anchor="middle" x="316.5" y="-12.5" font-family="Helvetica,sans-Serif" font-size="10.00">sstream</text>
</a>
</g>
</g>
<!-- Node4&#45;&gt;Node8 -->
<g id="edge9_Node000004_Node000008" class="edge">
<title>Node4&#45;&gt;Node8</title>
<g id="a_edge9_Node000004_Node000008"><a xlink:title=" ">
<path fill="none" stroke="#63b8ff" d="M358.52,-65.8C350.26,-56.01 339.26,-42.98 330.59,-32.7"/>
<polygon fill="#63b8ff" stroke="#63b8ff" points="333.09,-30.23 323.96,-24.84 327.74,-34.74 333.09,-30.23"/>
</a>
</g>
</g>
<!-- Node4&#45;&gt;Node9 -->
<g id="edge10_Node000004_Node000009" class="edge">
<title>Node4&#45;&gt;Node9</title>
<g id="a_edge10_Node000004_Node000009"><a xlink:title=" ">
<path fill="none" stroke="#63b8ff" d="M426.58,-72.92C479.28,-65.37 559.93,-51.51 627.5,-30 628.94,-29.54 630.41,-29.03 631.87,-28.49"/>
<polygon fill="#63b8ff" stroke="#63b8ff" points="633.48,-31.62 641.4,-24.58 630.82,-25.14 633.48,-31.62"/>
</a>
</g>
</g>
<!-- Node11 -->
<g id="Node000011" class="node">
<title>Node11</title>
<g id="a_Node000011"><a xlink:title=" ">
<polygon fill="#e0e0e0" stroke="#999999" points="823,-24.5 776,-24.5 776,-5.5 823,-5.5 823,-24.5"/>
<text text-anchor="middle" x="799.5" y="-12.5" font-family="Helvetica,sans-Serif" font-size="10.00">cmath</text>
</a>
</g>
</g>
<!-- Node10&#45;&gt;Node11 -->
<g id="edge12_Node000010_Node000011" class="edge">
<title>Node10&#45;&gt;Node11</title>
<g id="a_edge12_Node000010_Node000011"><a xlink:title=" ">
<path fill="none" stroke="#63b8ff" d="M744.26,-65.8C755.43,-55.72 770.44,-42.19 781.99,-31.78"/>
<polygon fill="#63b8ff" stroke="#63b8ff" points="784.6,-34.14 789.69,-24.84 779.92,-28.94 784.6,-34.14"/>
</a>
</g>
</g>
<!-- Node12 -->
<g id="Node000012" class="node">
<title>Node12</title>
<g id="a_Node000012"><a xlink:title=" ">
<polygon fill="#e0e0e0" stroke="#999999" points="758,-24.5 699,-24.5 699,-5.5 758,-5.5 758,-24.5"/>
<text text-anchor="middle" x="728.5" y="-12.5" font-family="Helvetica,sans-Serif" font-size="10.00">numbers</text>
</a>
</g>
</g>
<!-- Node10&#45;&gt;Node12 -->
<g id="edge13_Node000010_Node000012" class="edge">
<title>Node10&#45;&gt;Node12</title>
<g id="a_edge13_Node000010_Node000012"><a xlink:title=" ">
<path fill="none" stroke="#63b8ff" d="M728.5,-65.8C728.5,-56.7 728.5,-44.79 728.5,-34.9"/>
<polygon fill="#63b8ff" stroke="#63b8ff" points="732,-34.84 728.5,-24.84 725,-34.84 732,-34.84"/>
</a>
</g>
</g>
</g>
</svg>
