<?xml version="1.0" encoding="UTF-8" standalone="no"?>
<!DOCTYPE svg PUBLIC "-//W3C//DTD SVG 1.1//EN"
 "http://www.w3.org/Graphics/SVG/1.1/DTD/svg11.dtd">
<!-- Generated by graphviz version 2.43.0 (0)
 -->
<!-- Title: include/meltpooldg/level_set/delta_approximation_phase_weighted.hpp Pages: 1 -->
<svg width="1823pt" height="357pt"
 viewBox="0.00 0.00 1822.50 357.00" xmlns="http://www.w3.org/2000/svg" xmlns:xlink="http://www.w3.org/1999/xlink">
<g id="graph0" class="graph" transform="scale(1 1) rotate(0) translate(4 353)">
<title>include/meltpooldg/level_set/delta_approximation_phase_weighted.hpp</title>
<!-- Node1 -->
<g id="Node000001" class="node">
<title>Node1</title>
<g id="a_Node000001"><a xlink:title=" ">
<polygon fill="#999999" stroke="#666666" points="748.5,-349 580.5,-349 580.5,-308 748.5,-308 748.5,-349"/>
<text text-anchor="start" x="588.5" y="-337" font-family="Helvetica,sans-Serif" font-size="10.00">include/meltpooldg</text>
<text text-anchor="start" x="588.5" y="-326" font-family="Helvetica,sans-Serif" font-size="10.00">/level_set/delta_approximation</text>
<text text-anchor="middle" x="664.5" y="-315" font-family="Helvetica,sans-Serif" font-size="10.00">_phase_weighted.hpp</text>
</a>
</g>
</g>
<!-- Node2 -->
<g id="Node000002" class="node">
<title>Node2</title>
<g id="a_Node000002"><a xlink:href="surface__tension__operation_8hpp.html" target="_top" xlink:title=" ">
<polygon fill="white" stroke="#666666" points="769.5,-272 649.5,-272 649.5,-231 769.5,-231 769.5,-272"/>
<text text-anchor="start" x="657.5" y="-260" font-family="Helvetica,sans-Serif" font-size="10.00">include/meltpooldg</text>
<text text-anchor="start" x="657.5" y="-249" font-family="Helvetica,sans-Serif" font-size="10.00">/flow/surface_tension</text>
<text text-anchor="middle" x="709.5" y="-238" font-family="Helvetica,sans-Serif" font-size="10.00">_operation.hpp</text>
</a>
</g>
</g>
<!-- Node1&#45;&gt;Node2 -->
<g id="edge1_Node000001_Node000002" class="edge">
<title>Node1&#45;&gt;Node2</title>
<g id="a_edge1_Node000001_Node000002"><a xlink:title=" ">
<path fill="none" stroke="#63b8ff" d="M681.53,-299.11C686.94,-290.09 692.8,-280.33 697.76,-272.07"/>
<polygon fill="#63b8ff" stroke="#63b8ff" points="678.47,-297.42 676.32,-307.79 684.47,-301.02 678.47,-297.42"/>
</a>
</g>
</g>
<!-- Node6 -->
<g id="Node000006" class="node">
<title>Node6</title>
<g id="a_Node000006"><a xlink:href="heat__diffuse__operator_8hpp.html" target="_top" xlink:title=" ">
<polygon fill="white" stroke="#666666" points="626,-189.5 455,-189.5 455,-159.5 626,-159.5 626,-189.5"/>
<text text-anchor="start" x="463" y="-177.5" font-family="Helvetica,sans-Serif" font-size="10.00">include/meltpooldg</text>
<text text-anchor="middle" x="540.5" y="-166.5" font-family="Helvetica,sans-Serif" font-size="10.00">/heat/heat_diffuse_operator.hpp</text>
</a>
</g>
</g>
<!-- Node1&#45;&gt;Node6 -->
<g id="edge5_Node000001_Node000006" class="edge">
<title>Node1&#45;&gt;Node6</title>
<g id="a_edge5_Node000001_Node000006"><a xlink:title=" ">
<path fill="none" stroke="#63b8ff" d="M642.19,-300.15C615.68,-267.65 572.47,-214.68 551.98,-189.57"/>
<polygon fill="#63b8ff" stroke="#63b8ff" points="639.51,-302.4 648.54,-307.94 644.93,-297.98 639.51,-302.4"/>
</a>
</g>
</g>
<!-- Node11 -->
<g id="Node000011" class="node">
<title>Node11</title>
<g id="a_Node000011"><a xlink:href="laser__heat__source__projection__based_8hpp.html" target="_top" xlink:title=" ">
<polygon fill="white" stroke="#666666" points="422,-272 289,-272 289,-231 422,-231 422,-272"/>
<text text-anchor="start" x="297" y="-260" font-family="Helvetica,sans-Serif" font-size="10.00">include/meltpooldg</text>
<text text-anchor="start" x="297" y="-249" font-family="Helvetica,sans-Serif" font-size="10.00">/heat/laser_heat_source</text>
<text text-anchor="middle" x="355.5" y="-238" font-family="Helvetica,sans-Serif" font-size="10.00">_projection_based.hpp</text>
</a>
</g>
</g>
<!-- Node1&#45;&gt;Node11 -->
<g id="edge11_Node000001_Node000011" class="edge">
<title>Node1&#45;&gt;Node11</title>
<g id="a_edge11_Node000001_Node000011"><a xlink:title=" ">
<path fill="none" stroke="#63b8ff" d="M574.22,-305.59C525.59,-293.78 466.63,-279.47 422.18,-268.68"/>
<polygon fill="#63b8ff" stroke="#63b8ff" points="573.58,-309.03 584.12,-307.99 575.23,-302.23 573.58,-309.03"/>
</a>
</g>
</g>
<!-- Node16 -->
<g id="Node000016" class="node">
<title>Node16</title>
<g id="a_Node000016"><a xlink:href="recoil__pressure__operation_8hpp.html" target="_top" xlink:title=" ">
<polygon fill="white" stroke="#666666" points="936,-272 799,-272 799,-231 936,-231 936,-272"/>
<text text-anchor="start" x="807" y="-260" font-family="Helvetica,sans-Serif" font-size="10.00">include/meltpooldg</text>
<text text-anchor="start" x="807" y="-249" font-family="Helvetica,sans-Serif" font-size="10.00">/phase_change/recoil</text>
<text text-anchor="middle" x="867.5" y="-238" font-family="Helvetica,sans-Serif" font-size="10.00">_pressure_operation.hpp</text>
</a>
</g>
</g>
<!-- Node1&#45;&gt;Node16 -->
<g id="edge18_Node000001_Node000016" class="edge">
<title>Node1&#45;&gt;Node16</title>
<g id="a_edge18_Node000001_Node000016"><a xlink:title=" ">
<path fill="none" stroke="#63b8ff" d="M727.01,-304.4C755.06,-294.04 787.8,-281.95 814.61,-272.04"/>
<polygon fill="#63b8ff" stroke="#63b8ff" points="725.47,-301.24 717.31,-307.99 727.9,-307.81 725.47,-301.24"/>
</a>
</g>
</g>
<!-- Node3 -->
<g id="Node000003" class="node">
<title>Node3</title>
<g id="a_Node000003"><a xlink:href="melt__pool__application_8hpp.html" target="_top" xlink:title=" ">
<polygon fill="white" stroke="#666666" points="742,-112.5 569,-112.5 569,-82.5 742,-82.5 742,-112.5"/>
<text text-anchor="start" x="577" y="-100.5" font-family="Helvetica,sans-Serif" font-size="10.00">applications/mp&#45;melt</text>
<text text-anchor="middle" x="655.5" y="-89.5" font-family="Helvetica,sans-Serif" font-size="10.00">&#45;pool/melt_pool_application.hpp</text>
</a>
</g>
</g>
<!-- Node2&#45;&gt;Node3 -->
<g id="edge2_Node000002_Node000003" class="edge">
<title>Node2&#45;&gt;Node3</title>
<g id="a_edge2_Node000002_Node000003"><a xlink:title=" ">
<path fill="none" stroke="#63b8ff" d="M757.09,-225.02C767.69,-216.92 777.55,-206.9 783.5,-195 791.65,-178.7 793.5,-169.23 783.5,-154 770.14,-133.65 747.55,-120.72 725.02,-112.53"/>
<polygon fill="#63b8ff" stroke="#63b8ff" points="755.02,-222.2 748.88,-230.84 759.07,-227.9 755.02,-222.2"/>
</a>
</g>
</g>
<!-- Node5 -->
<g id="Node000005" class="node">
<title>Node5</title>
<g id="a_Node000005"><a xlink:href="surface__tension__operation_8cpp.html" target="_top" xlink:title=" ">
<polygon fill="white" stroke="#666666" points="774.5,-189.5 644.5,-189.5 644.5,-159.5 774.5,-159.5 774.5,-189.5"/>
<text text-anchor="start" x="652.5" y="-177.5" font-family="Helvetica,sans-Serif" font-size="10.00">source/flow/surface</text>
<text text-anchor="middle" x="709.5" y="-166.5" font-family="Helvetica,sans-Serif" font-size="10.00">_tension_operation.cpp</text>
</a>
</g>
</g>
<!-- Node2&#45;&gt;Node5 -->
<g id="edge4_Node000002_Node000005" class="edge">
<title>Node2&#45;&gt;Node5</title>
<g id="a_edge4_Node000002_Node000005"><a xlink:title=" ">
<path fill="none" stroke="#63b8ff" d="M709.5,-220.61C709.5,-210.01 709.5,-198.57 709.5,-189.86"/>
<polygon fill="#63b8ff" stroke="#63b8ff" points="706,-220.79 709.5,-230.79 713,-220.79 706,-220.79"/>
</a>
</g>
</g>
<!-- Node4 -->
<g id="Node000004" class="node">
<title>Node4</title>
<g id="a_Node000004"><a xlink:href="melt__pool__application_8cpp.html" target="_top" xlink:title=" ">
<polygon fill="white" stroke="#666666" points="713,-35.5 540,-35.5 540,-5.5 713,-5.5 713,-35.5"/>
<text text-anchor="start" x="548" y="-23.5" font-family="Helvetica,sans-Serif" font-size="10.00">applications/mp&#45;melt</text>
<text text-anchor="middle" x="626.5" y="-12.5" font-family="Helvetica,sans-Serif" font-size="10.00">&#45;pool/melt_pool_application.cpp</text>
</a>
</g>
</g>
<!-- Node3&#45;&gt;Node4 -->
<g id="edge3_Node000003_Node000004" class="edge">
<title>Node3&#45;&gt;Node4</title>
<g id="a_edge3_Node000003_Node000004"><a xlink:title=" ">
<path fill="none" stroke="#63b8ff" d="M646.33,-72.78C641.59,-60.53 635.97,-46 631.93,-35.54"/>
<polygon fill="#63b8ff" stroke="#63b8ff" points="643.17,-74.33 650.05,-82.39 649.7,-71.8 643.17,-74.33"/>
</a>
</g>
</g>
<!-- Node7 -->
<g id="Node000007" class="node">
<title>Node7</title>
<g id="a_Node000007"><a xlink:href="heat__diffuse__operation_8hpp.html" target="_top" xlink:title=" ">
<polygon fill="white" stroke="#666666" points="513,-112.5 336,-112.5 336,-82.5 513,-82.5 513,-112.5"/>
<text text-anchor="start" x="344" y="-100.5" font-family="Helvetica,sans-Serif" font-size="10.00">include/meltpooldg</text>
<text text-anchor="middle" x="424.5" y="-89.5" font-family="Helvetica,sans-Serif" font-size="10.00">/heat/heat_diffuse_operation.hpp</text>
</a>
</g>
</g>
<!-- Node6&#45;&gt;Node7 -->
<g id="edge6_Node000006_Node000007" class="edge">
<title>Node6&#45;&gt;Node7</title>
<g id="a_edge6_Node000006_Node000007"><a xlink:title=" ">
<path fill="none" stroke="#63b8ff" d="M510.19,-153.9C490.12,-140.93 464.26,-124.21 446.22,-112.54"/>
<polygon fill="#63b8ff" stroke="#63b8ff" points="508.38,-156.9 518.68,-159.39 512.18,-151.02 508.38,-156.9"/>
</a>
</g>
</g>
<!-- Node10 -->
<g id="Node000010" class="node">
<title>Node10</title>
<g id="a_Node000010"><a xlink:href="heat__diffuse__operator_8cpp.html" target="_top" xlink:title=" ">
<polygon fill="white" stroke="#666666" points="1087,-35.5 950,-35.5 950,-5.5 1087,-5.5 1087,-35.5"/>
<text text-anchor="start" x="958" y="-23.5" font-family="Helvetica,sans-Serif" font-size="10.00">source/heat/heat_diffuse</text>
<text text-anchor="middle" x="1018.5" y="-12.5" font-family="Helvetica,sans-Serif" font-size="10.00">_operator.cpp</text>
</a>
</g>
</g>
<!-- Node6&#45;&gt;Node10 -->
<g id="edge10_Node000006_Node000010" class="edge">
<title>Node6&#45;&gt;Node10</title>
<g id="a_edge10_Node000006_Node000010"><a xlink:title=" ">
<path fill="none" stroke="#63b8ff" d="M537.99,-149C537.21,-126.87 540.02,-95.09 559.5,-77 587.55,-50.95 828.64,-32.91 949.71,-25.4"/>
<polygon fill="#63b8ff" stroke="#63b8ff" points="534.52,-149.51 538.64,-159.27 541.5,-149.07 534.52,-149.51"/>
</a>
</g>
</g>
<!-- Node7&#45;&gt;Node4 -->
<g id="edge8_Node000007_Node000004" class="edge">
<title>Node7&#45;&gt;Node4</title>
<g id="a_edge8_Node000007_Node000004"><a xlink:title=" ">
<path fill="none" stroke="#63b8ff" d="M472.18,-78.8C507.76,-65.59 555.72,-47.78 588.68,-35.54"/>
<polygon fill="#63b8ff" stroke="#63b8ff" points="470.65,-75.63 462.49,-82.39 473.09,-82.19 470.65,-75.63"/>
</a>
</g>
</g>
<!-- Node8 -->
<g id="Node000008" class="node">
<title>Node8</title>
<g id="a_Node000008"><a xlink:href="heat__transfer__application_8cpp.html" target="_top" xlink:title=" ">
<polygon fill="white" stroke="#666666" points="328,-41 201,-41 201,0 328,0 328,-41"/>
<text text-anchor="start" x="209" y="-29" font-family="Helvetica,sans-Serif" font-size="10.00">applications/mp&#45;heat</text>
<text text-anchor="start" x="209" y="-18" font-family="Helvetica,sans-Serif" font-size="10.00">&#45;transfer/heat_transfer</text>
<text text-anchor="middle" x="264.5" y="-7" font-family="Helvetica,sans-Serif" font-size="10.00">_application.cpp</text>
</a>
</g>
</g>
<!-- Node7&#45;&gt;Node8 -->
<g id="edge7_Node000007_Node000008" class="edge">
<title>Node7&#45;&gt;Node8</title>
<g id="a_edge7_Node000007_Node000008"><a xlink:title=" ">
<path fill="none" stroke="#63b8ff" d="M385.24,-78.1C361.27,-66.86 330.64,-52.5 306.23,-41.06"/>
<polygon fill="#63b8ff" stroke="#63b8ff" points="383.87,-81.32 394.41,-82.39 386.84,-74.98 383.87,-81.32"/>
</a>
</g>
</g>
<!-- Node9 -->
<g id="Node000009" class="node">
<title>Node9</title>
<g id="a_Node000009"><a xlink:href="heat__diffuse__operation_8cpp.html" target="_top" xlink:title=" ">
<polygon fill="white" stroke="#666666" points="493,-35.5 356,-35.5 356,-5.5 493,-5.5 493,-35.5"/>
<text text-anchor="start" x="364" y="-23.5" font-family="Helvetica,sans-Serif" font-size="10.00">source/heat/heat_diffuse</text>
<text text-anchor="middle" x="424.5" y="-12.5" font-family="Helvetica,sans-Serif" font-size="10.00">_operation.cpp</text>
</a>
</g>
</g>
<!-- Node7&#45;&gt;Node9 -->
<g id="edge9_Node000007_Node000009" class="edge">
<title>Node7&#45;&gt;Node9</title>
<g id="a_edge9_Node000007_Node000009"><a xlink:title=" ">
<path fill="none" stroke="#63b8ff" d="M424.5,-72.04C424.5,-59.95 424.5,-45.79 424.5,-35.54"/>
<polygon fill="#63b8ff" stroke="#63b8ff" points="421,-72.39 424.5,-82.39 428,-72.39 421,-72.39"/>
</a>
</g>
</g>
<!-- Node12 -->
<g id="Node000012" class="node">
<title>Node12</title>
<g id="a_Node000012"><a xlink:href="laser__operation_8hpp.html" target="_top" xlink:title=" ">
<polygon fill="white" stroke="#666666" points="256,-189.5 115,-189.5 115,-159.5 256,-159.5 256,-189.5"/>
<text text-anchor="start" x="123" y="-177.5" font-family="Helvetica,sans-Serif" font-size="10.00">include/meltpooldg</text>
<text text-anchor="middle" x="185.5" y="-166.5" font-family="Helvetica,sans-Serif" font-size="10.00">/heat/laser_operation.hpp</text>
</a>
</g>
</g>
<!-- Node11&#45;&gt;Node12 -->
<g id="edge12_Node000011_Node000012" class="edge">
<title>Node11&#45;&gt;Node12</title>
<g id="a_edge12_Node000011_Node000012"><a xlink:title=" ">
<path fill="none" stroke="#63b8ff" d="M302.07,-226.93C274.27,-214.66 241.22,-200.08 217.42,-189.58"/>
<polygon fill="#63b8ff" stroke="#63b8ff" points="300.72,-230.16 311.28,-230.99 303.54,-223.75 300.72,-230.16"/>
</a>
</g>
</g>
<!-- Node15 -->
<g id="Node000015" class="node">
<title>Node15</title>
<g id="a_Node000015"><a xlink:href="laser__heat__source__projection__based_8cpp.html" target="_top" xlink:title=" ">
<polygon fill="white" stroke="#666666" points="437,-189.5 274,-189.5 274,-159.5 437,-159.5 437,-189.5"/>
<text text-anchor="start" x="282" y="-177.5" font-family="Helvetica,sans-Serif" font-size="10.00">source/heat/laser_heat</text>
<text text-anchor="middle" x="355.5" y="-166.5" font-family="Helvetica,sans-Serif" font-size="10.00">_source_projection_based.cpp</text>
</a>
</g>
</g>
<!-- Node11&#45;&gt;Node15 -->
<g id="edge17_Node000011_Node000015" class="edge">
<title>Node11&#45;&gt;Node15</title>
<g id="a_edge17_Node000011_Node000015"><a xlink:title=" ">
<path fill="none" stroke="#63b8ff" d="M355.5,-220.61C355.5,-210.01 355.5,-198.57 355.5,-189.86"/>
<polygon fill="#63b8ff" stroke="#63b8ff" points="352,-220.79 355.5,-230.79 359,-220.79 352,-220.79"/>
</a>
</g>
</g>
<!-- Node12&#45;&gt;Node3 -->
<g id="edge15_Node000012_Node000003" class="edge">
<title>Node12&#45;&gt;Node3</title>
<g id="a_edge15_Node000012_Node000003"><a xlink:title=" ">
<path fill="none" stroke="#63b8ff" d="M249.21,-157.18C254.37,-156.04 259.51,-154.96 264.5,-154 377.75,-132.15 407.32,-134.3 521.5,-118 536.74,-115.82 552.96,-113.48 568.65,-111.21"/>
<polygon fill="#63b8ff" stroke="#63b8ff" points="248.28,-153.8 239.31,-159.43 249.83,-160.63 248.28,-153.8"/>
</a>
</g>
</g>
<!-- Node13 -->
<g id="Node000013" class="node">
<title>Node13</title>
<g id="a_Node000013"><a xlink:href="heat__transfer__application_8hpp.html" target="_top" xlink:title=" ">
<polygon fill="white" stroke="#666666" points="318,-118 191,-118 191,-77 318,-77 318,-118"/>
<text text-anchor="start" x="199" y="-106" font-family="Helvetica,sans-Serif" font-size="10.00">applications/mp&#45;heat</text>
<text text-anchor="start" x="199" y="-95" font-family="Helvetica,sans-Serif" font-size="10.00">&#45;transfer/heat_transfer</text>
<text text-anchor="middle" x="254.5" y="-84" font-family="Helvetica,sans-Serif" font-size="10.00">_application.hpp</text>
</a>
</g>
</g>
<!-- Node12&#45;&gt;Node13 -->
<g id="edge13_Node000012_Node000013" class="edge">
<title>Node12&#45;&gt;Node13</title>
<g id="a_edge13_Node000012_Node000013"><a xlink:title=" ">
<path fill="none" stroke="#63b8ff" d="M205.5,-151.76C215.25,-141.17 226.89,-128.52 236.37,-118.2"/>
<polygon fill="#63b8ff" stroke="#63b8ff" points="202.67,-149.66 198.48,-159.39 207.82,-154.4 202.67,-149.66"/>
</a>
</g>
</g>
<!-- Node14 -->
<g id="Node000014" class="node">
<title>Node14</title>
<g id="a_Node000014"><a xlink:href="laser__operation_8cpp.html" target="_top" xlink:title=" ">
<polygon fill="white" stroke="#666666" points="173,-107 0,-107 0,-88 173,-88 173,-107"/>
<text text-anchor="middle" x="86.5" y="-95" font-family="Helvetica,sans-Serif" font-size="10.00">source/heat/laser_operation.cpp</text>
</a>
</g>
</g>
<!-- Node12&#45;&gt;Node14 -->
<g id="edge16_Node000012_Node000014" class="edge">
<title>Node12&#45;&gt;Node14</title>
<g id="a_edge16_Node000012_Node000014"><a xlink:title=" ">
<path fill="none" stroke="#63b8ff" d="M158.79,-153.26C138.89,-138.19 112.71,-118.35 97.93,-107.16"/>
<polygon fill="#63b8ff" stroke="#63b8ff" points="156.79,-156.14 166.88,-159.39 161.02,-150.56 156.79,-156.14"/>
</a>
</g>
</g>
<!-- Node13&#45;&gt;Node8 -->
<g id="edge14_Node000013_Node000008" class="edge">
<title>Node13&#45;&gt;Node8</title>
<g id="a_edge14_Node000013_Node000008"><a xlink:title=" ">
<path fill="none" stroke="#63b8ff" d="M258.47,-66.69C259.62,-58.08 260.85,-48.9 261.89,-41.07"/>
<polygon fill="#63b8ff" stroke="#63b8ff" points="254.98,-66.42 257.13,-76.79 261.92,-67.34 254.98,-66.42"/>
</a>
</g>
</g>
<!-- Node16&#45;&gt;Node3 -->
<g id="edge19_Node000016_Node000003" class="edge">
<title>Node16&#45;&gt;Node3</title>
<g id="a_edge19_Node000016_Node000003"><a xlink:title=" ">
<path fill="none" stroke="#63b8ff" d="M853.98,-221.9C842.62,-200.59 824.56,-172.16 801.5,-154 776.68,-134.45 744.22,-121.2 716.2,-112.57"/>
<polygon fill="#63b8ff" stroke="#63b8ff" points="850.89,-223.54 858.58,-230.83 857.12,-220.34 850.89,-223.54"/>
</a>
</g>
</g>
<!-- Node17 -->
<g id="Node000017" class="node">
<title>Node17</title>
<g id="a_Node000017"><a xlink:href="evaporation__model__recoil__pressure_8hpp.html" target="_top" xlink:title=" ">
<polygon fill="white" stroke="#666666" points="1550,-195 1397,-195 1397,-154 1550,-154 1550,-195"/>
<text text-anchor="start" x="1405" y="-183" font-family="Helvetica,sans-Serif" font-size="10.00">include/meltpooldg</text>
<text text-anchor="start" x="1405" y="-172" font-family="Helvetica,sans-Serif" font-size="10.00">/phase_change/evaporation</text>
<text text-anchor="middle" x="1473.5" y="-161" font-family="Helvetica,sans-Serif" font-size="10.00">_model_recoil_pressure.hpp</text>
</a>
</g>
</g>
<!-- Node16&#45;&gt;Node17 -->
<g id="edge20_Node000016_Node000017" class="edge">
<title>Node16&#45;&gt;Node17</title>
<g id="a_edge20_Node000016_Node000017"><a xlink:title=" ">
<path fill="none" stroke="#63b8ff" d="M946.09,-240.77C1062.98,-226.31 1281.25,-199.29 1396.95,-184.97"/>
<polygon fill="#63b8ff" stroke="#63b8ff" points="945.63,-237.3 936.13,-242.01 946.49,-244.25 945.63,-237.3"/>
</a>
</g>
</g>
<!-- Node22 -->
<g id="Node000022" class="node">
<title>Node22</title>
<g id="a_Node000022"><a xlink:href="recoil__pressure__operation_8templates_8hpp.html" target="_top" xlink:title=" ">
<polygon fill="white" stroke="#666666" points="1096,-195 907,-195 907,-154 1096,-154 1096,-195"/>
<text text-anchor="start" x="915" y="-183" font-family="Helvetica,sans-Serif" font-size="10.00">include/meltpooldg</text>
<text text-anchor="start" x="915" y="-172" font-family="Helvetica,sans-Serif" font-size="10.00">/phase_change/recoil</text>
<text text-anchor="middle" x="1001.5" y="-161" font-family="Helvetica,sans-Serif" font-size="10.00">_pressure_operation.templates.hpp</text>
</a>
</g>
</g>
<!-- Node16&#45;&gt;Node22 -->
<g id="edge26_Node000016_Node000022" class="edge">
<title>Node16&#45;&gt;Node22</title>
<g id="a_edge26_Node000016_Node000022"><a xlink:title=" ">
<path fill="none" stroke="#63b8ff" d="M911.42,-225.92C929.24,-215.95 949.54,-204.58 966.35,-195.17"/>
<polygon fill="#63b8ff" stroke="#63b8ff" points="909.37,-223.05 902.36,-230.99 912.79,-229.16 909.37,-223.05"/>
</a>
</g>
</g>
<!-- Node18 -->
<g id="Node000018" class="node">
<title>Node18</title>
<g id="a_Node000018"><a xlink:href="evaporative__cooling_8templates_8hpp.html" target="_top" xlink:title=" ">
<polygon fill="white" stroke="#666666" points="1459,-118 1308,-118 1308,-77 1459,-77 1459,-118"/>
<text text-anchor="start" x="1316" y="-106" font-family="Helvetica,sans-Serif" font-size="10.00">include/meltpooldg</text>
<text text-anchor="start" x="1316" y="-95" font-family="Helvetica,sans-Serif" font-size="10.00">/phase_change/evaporative</text>
<text text-anchor="middle" x="1383.5" y="-84" font-family="Helvetica,sans-Serif" font-size="10.00">_cooling.templates.hpp</text>
</a>
</g>
</g>
<!-- Node17&#45;&gt;Node18 -->
<g id="edge21_Node000017_Node000018" class="edge">
<title>Node17&#45;&gt;Node18</title>
<g id="a_edge21_Node000017_Node000018"><a xlink:title=" ">
<path fill="none" stroke="#63b8ff" d="M1442.12,-147.35C1430.58,-137.73 1417.72,-127.01 1406.99,-118.07"/>
<polygon fill="#63b8ff" stroke="#63b8ff" points="1439.93,-150.08 1449.85,-153.79 1444.41,-144.7 1439.93,-150.08"/>
</a>
</g>
</g>
<!-- Node20 -->
<g id="Node000020" class="node">
<title>Node20</title>
<g id="a_Node000020"><a xlink:href="evaporation__model__factory_8cpp.html" target="_top" xlink:title=" ">
<polygon fill="white" stroke="#666666" points="1650,-112.5 1477,-112.5 1477,-82.5 1650,-82.5 1650,-112.5"/>
<text text-anchor="start" x="1485" y="-100.5" font-family="Helvetica,sans-Serif" font-size="10.00">source/phase_change</text>
<text text-anchor="middle" x="1563.5" y="-89.5" font-family="Helvetica,sans-Serif" font-size="10.00">/evaporation_model_factory.cpp</text>
</a>
</g>
</g>
<!-- Node17&#45;&gt;Node20 -->
<g id="edge24_Node000017_Node000020" class="edge">
<title>Node17&#45;&gt;Node20</title>
<g id="a_edge24_Node000017_Node000020"><a xlink:title=" ">
<path fill="none" stroke="#63b8ff" d="M1505.1,-147.17C1519.05,-135.55 1534.89,-122.34 1546.55,-112.63"/>
<polygon fill="#63b8ff" stroke="#63b8ff" points="1502.59,-144.7 1497.15,-153.79 1507.07,-150.08 1502.59,-144.7"/>
</a>
</g>
</g>
<!-- Node21 -->
<g id="Node000021" class="node">
<title>Node21</title>
<g id="a_Node000021"><a xlink:href="evaporation__model__recoil__pressure_8cpp.html" target="_top" xlink:title=" ">
<polygon fill="white" stroke="#666666" points="1814.5,-118 1668.5,-118 1668.5,-77 1814.5,-77 1814.5,-118"/>
<text text-anchor="start" x="1676.5" y="-106" font-family="Helvetica,sans-Serif" font-size="10.00">source/phase_change</text>
<text text-anchor="start" x="1676.5" y="-95" font-family="Helvetica,sans-Serif" font-size="10.00">/evaporation_model_recoil</text>
<text text-anchor="middle" x="1741.5" y="-84" font-family="Helvetica,sans-Serif" font-size="10.00">_pressure.cpp</text>
</a>
</g>
</g>
<!-- Node17&#45;&gt;Node21 -->
<g id="edge25_Node000017_Node000021" class="edge">
<title>Node17&#45;&gt;Node21</title>
<g id="a_edge25_Node000017_Node000021"><a xlink:title=" ">
<path fill="none" stroke="#63b8ff" d="M1553.13,-151.21C1590.79,-140.68 1635.35,-128.21 1671.67,-118.04"/>
<polygon fill="#63b8ff" stroke="#63b8ff" points="1551.9,-147.92 1543.21,-153.99 1553.79,-154.67 1551.9,-147.92"/>
</a>
</g>
</g>
<!-- Node18&#45;&gt;Node10 -->
<g id="edge23_Node000018_Node000010" class="edge">
<title>Node18&#45;&gt;Node10</title>
<g id="a_edge23_Node000018_Node000010"><a xlink:title=" ">
<path fill="none" stroke="#63b8ff" d="M1297.96,-76.91C1219.79,-60.3 1141.51,-44.96 1087.08,-34.5"/>
<polygon fill="#63b8ff" stroke="#63b8ff" points="1297.47,-80.39 1307.98,-79.05 1298.93,-73.54 1297.47,-80.39"/>
</a>
</g>
</g>
<!-- Node19 -->
<g id="Node000019" class="node">
<title>Node19</title>
<g id="a_Node000019"><a xlink:href="heat__cut__operator_8cpp.html" target="_top" xlink:title=" ">
<polygon fill="white" stroke="#666666" points="1443,-35.5 1324,-35.5 1324,-5.5 1443,-5.5 1443,-35.5"/>
<text text-anchor="start" x="1332" y="-23.5" font-family="Helvetica,sans-Serif" font-size="10.00">source/heat/heat_cut</text>
<text text-anchor="middle" x="1383.5" y="-12.5" font-family="Helvetica,sans-Serif" font-size="10.00">_operator.cpp</text>
</a>
</g>
</g>
<!-- Node18&#45;&gt;Node19 -->
<g id="edge22_Node000018_Node000019" class="edge">
<title>Node18&#45;&gt;Node19</title>
<g id="a_edge22_Node000018_Node000019"><a xlink:title=" ">
<path fill="none" stroke="#63b8ff" d="M1383.5,-66.61C1383.5,-56.01 1383.5,-44.57 1383.5,-35.86"/>
<polygon fill="#63b8ff" stroke="#63b8ff" points="1380,-66.79 1383.5,-76.79 1387,-66.79 1380,-66.79"/>
</a>
</g>
</g>
<!-- Node23 -->
<g id="Node000023" class="node">
<title>Node23</title>
<g id="a_Node000023"><a xlink:href="evaporation__model__pressure__aware_8cpp.html" target="_top" xlink:title=" ">
<polygon fill="white" stroke="#666666" points="921,-118 760,-118 760,-77 921,-77 921,-118"/>
<text text-anchor="start" x="768" y="-106" font-family="Helvetica,sans-Serif" font-size="10.00">source/phase_change</text>
<text text-anchor="start" x="768" y="-95" font-family="Helvetica,sans-Serif" font-size="10.00">/evaporation_model_pressure</text>
<text text-anchor="middle" x="840.5" y="-84" font-family="Helvetica,sans-Serif" font-size="10.00">_aware.cpp</text>
</a>
</g>
</g>
<!-- Node22&#45;&gt;Node23 -->
<g id="edge27_Node000022_Node000023" class="edge">
<title>Node22&#45;&gt;Node23</title>
<g id="a_edge27_Node000022_Node000023"><a xlink:title=" ">
<path fill="none" stroke="#63b8ff" d="M950.46,-149.72C928.54,-139.51 903.25,-127.73 882.45,-118.04"/>
<polygon fill="#63b8ff" stroke="#63b8ff" points="949.08,-152.94 959.62,-153.99 952.03,-146.6 949.08,-152.94"/>
</a>
</g>
</g>
<!-- Node24 -->
<g id="Node000024" class="node">
<title>Node24</title>
<g id="a_Node000024"><a xlink:href="evaporation__model__saturated__vapor__pressure_8cpp.html" target="_top" xlink:title=" ">
<polygon fill="white" stroke="#666666" points="1105.5,-118 939.5,-118 939.5,-77 1105.5,-77 1105.5,-118"/>
<text text-anchor="start" x="947.5" y="-106" font-family="Helvetica,sans-Serif" font-size="10.00">source/phase_change</text>
<text text-anchor="start" x="947.5" y="-95" font-family="Helvetica,sans-Serif" font-size="10.00">/evaporation_model_saturated</text>
<text text-anchor="middle" x="1022.5" y="-84" font-family="Helvetica,sans-Serif" font-size="10.00">_vapor_pressure.cpp</text>
</a>
</g>
</g>
<!-- Node22&#45;&gt;Node24 -->
<g id="edge28_Node000022_Node000024" class="edge">
<title>Node22&#45;&gt;Node24</title>
<g id="a_edge28_Node000022_Node000024"><a xlink:title=" ">
<path fill="none" stroke="#63b8ff" d="M1009.77,-143.98C1012.2,-135.28 1014.81,-125.98 1017.02,-118.07"/>
<polygon fill="#63b8ff" stroke="#63b8ff" points="1006.34,-143.22 1007.02,-153.79 1013.08,-145.11 1006.34,-143.22"/>
</a>
</g>
</g>
<!-- Node25 -->
<g id="Node000025" class="node">
<title>Node25</title>
<g id="a_Node000025"><a xlink:href="recoil__pressure__operation_8cpp.html" target="_top" xlink:title=" ">
<polygon fill="white" stroke="#666666" points="1289.5,-112.5 1123.5,-112.5 1123.5,-82.5 1289.5,-82.5 1289.5,-112.5"/>
<text text-anchor="start" x="1131.5" y="-100.5" font-family="Helvetica,sans-Serif" font-size="10.00">source/phase_change</text>
<text text-anchor="middle" x="1206.5" y="-89.5" font-family="Helvetica,sans-Serif" font-size="10.00">/recoil_pressure_operation.cpp</text>
</a>
</g>
</g>
<!-- Node22&#45;&gt;Node25 -->
<g id="edge29_Node000022_Node000025" class="edge">
<title>Node22&#45;&gt;Node25</title>
<g id="a_edge29_Node000022_Node000025"><a xlink:title=" ">
<path fill="none" stroke="#63b8ff" d="M1064.62,-150.41C1098.41,-138.05 1138.94,-123.22 1168.01,-112.58"/>
<polygon fill="#63b8ff" stroke="#63b8ff" points="1063.01,-147.27 1054.83,-153.99 1065.42,-153.84 1063.01,-147.27"/>
</a>
</g>
</g>
</g>
</svg>
