<?xml version="1.0" encoding="UTF-8" standalone="no"?>
<!DOCTYPE svg PUBLIC "-//W3C//DTD SVG 1.1//EN"
 "http://www.w3.org/Graphics/SVG/1.1/DTD/svg11.dtd">
<!-- Generated by graphviz version 2.43.0 (0)
 -->
<!-- Title: include/meltpooldg/particles/dem_util.hpp Pages: 1 -->
<svg width="1438pt" height="764pt"
 viewBox="0.00 0.00 1438.16 764.00" xmlns="http://www.w3.org/2000/svg" xmlns:xlink="http://www.w3.org/1999/xlink">
<g id="graph0" class="graph" transform="scale(1 1) rotate(0) translate(4 760)">
<title>include/meltpooldg/particles/dem_util.hpp</title>
<!-- Node1 -->
<g id="Node000001" class="node">
<title>Node1</title>
<g id="a_Node000001"><a xlink:title=" ">
<polygon fill="#999999" stroke="#666666" points="503.16,-756 375.16,-756 375.16,-726 503.16,-726 503.16,-756"/>
<text text-anchor="start" x="383.16" y="-744" font-family="Helvetica,sans-Serif" font-size="10.00">include/meltpooldg</text>
<text text-anchor="middle" x="439.16" y="-733" font-family="Helvetica,sans-Serif" font-size="10.00">/particles/dem_util.hpp</text>
</a>
</g>
</g>
<!-- Node2 -->
<g id="Node000002" class="node">
<title>Node2</title>
<g id="a_Node000002"><a xlink:href="contact__forces_8hpp.html" target="_top" xlink:title=" ">
<polygon fill="white" stroke="#666666" points="187.66,-371 30.66,-371 30.66,-341 187.66,-341 187.66,-371"/>
<text text-anchor="start" x="38.66" y="-359" font-family="Helvetica,sans-Serif" font-size="10.00">include/meltpooldg</text>
<text text-anchor="middle" x="109.16" y="-348" font-family="Helvetica,sans-Serif" font-size="10.00">/particles/contact_forces.hpp</text>
</a>
</g>
</g>
<!-- Node1&#45;&gt;Node2 -->
<g id="edge1_Node000001_Node000002" class="edge">
<title>Node1&#45;&gt;Node2</title>
<g id="a_edge1_Node000001_Node000002"><a xlink:title=" ">
<path fill="none" stroke="#63b8ff" d="M365,-737.73C269.92,-730.41 117.16,-701.79 117.16,-593.5 117.16,-593.5 117.16,-593.5 117.16,-514.5 117.16,-461.66 112.61,-398.97 110.38,-371.32"/>
<polygon fill="#63b8ff" stroke="#63b8ff" points="364.94,-741.23 375.16,-738.45 365.43,-734.25 364.94,-741.23"/>
</a>
</g>
</g>
<!-- Node3 -->
<g id="Node000003" class="node">
<title>Node3</title>
<g id="a_Node000003"><a xlink:href="contact__forces_8cpp.html" target="_top" xlink:title=" ">
<polygon fill="white" stroke="#666666" points="181.66,-288.5 48.66,-288.5 48.66,-258.5 181.66,-258.5 181.66,-288.5"/>
<text text-anchor="start" x="56.66" y="-276.5" font-family="Helvetica,sans-Serif" font-size="10.00">source/particles/contact</text>
<text text-anchor="middle" x="115.16" y="-265.5" font-family="Helvetica,sans-Serif" font-size="10.00">_forces.cpp</text>
</a>
</g>
</g>
<!-- Node1&#45;&gt;Node3 -->
<g id="edge61_Node000001_Node000003" class="edge">
<title>Node1&#45;&gt;Node3</title>
<g id="a_edge61_Node000001_Node000003"><a xlink:title=" ">
<path fill="none" stroke="#63b8ff" d="M365.03,-737.86C300.87,-733.72 206.77,-722.11 131.16,-690 65.26,-662.01 2.16,-665.1 2.16,-593.5 2.16,-593.5 2.16,-593.5 2.16,-437.5 2.16,-388.98 -6.48,-369.87 21.16,-330 34.33,-311 56.3,-297.5 75.69,-288.58"/>
<polygon fill="#63b8ff" stroke="#63b8ff" points="364.87,-741.35 375.06,-738.46 365.29,-734.36 364.87,-741.35"/>
</a>
</g>
</g>
<!-- Node4 -->
<g id="Node000004" class="node">
<title>Node4</title>
<g id="a_Node000004"><a xlink:href="dem__time__integrators_8hpp.html" target="_top" xlink:title=" ">
<polygon fill="white" stroke="#666666" points="562.16,-536 448.16,-536 448.16,-495 562.16,-495 562.16,-536"/>
<text text-anchor="start" x="456.16" y="-524" font-family="Helvetica,sans-Serif" font-size="10.00">include/meltpooldg</text>
<text text-anchor="start" x="456.16" y="-513" font-family="Helvetica,sans-Serif" font-size="10.00">/particles/dem_time</text>
<text text-anchor="middle" x="505.16" y="-502" font-family="Helvetica,sans-Serif" font-size="10.00">_integrators.hpp</text>
</a>
</g>
</g>
<!-- Node1&#45;&gt;Node4 -->
<g id="edge3_Node000001_Node000004" class="edge">
<title>Node1&#45;&gt;Node4</title>
<g id="a_edge3_Node000001_Node000004"><a xlink:title=" ">
<path fill="none" stroke="#63b8ff" d="M446.25,-716.01C459.36,-671.59 487.2,-577.33 499.32,-536.28"/>
<polygon fill="#63b8ff" stroke="#63b8ff" points="442.87,-715.1 443.39,-725.68 449.58,-717.08 442.87,-715.1"/>
</a>
</g>
</g>
<!-- Node5 -->
<g id="Node000005" class="node">
<title>Node5</title>
<g id="a_Node000005"><a xlink:href="obstacle__field_8hpp.html" target="_top" xlink:title=" ">
<polygon fill="white" stroke="#666666" points="614.16,-459 504.16,-459 504.16,-418 614.16,-418 614.16,-459"/>
<text text-anchor="start" x="512.16" y="-447" font-family="Helvetica,sans-Serif" font-size="10.00">include/meltpooldg</text>
<text text-anchor="start" x="512.16" y="-436" font-family="Helvetica,sans-Serif" font-size="10.00">/particles/obstacle</text>
<text text-anchor="middle" x="559.16" y="-425" font-family="Helvetica,sans-Serif" font-size="10.00">_field.hpp</text>
</a>
</g>
</g>
<!-- Node1&#45;&gt;Node5 -->
<g id="edge31_Node000001_Node000005" class="edge">
<title>Node1&#45;&gt;Node5</title>
<g id="a_edge31_Node000001_Node000005"><a xlink:title=" ">
<path fill="none" stroke="#63b8ff" d="M431.32,-716.01C417.61,-669.26 394.74,-564.49 439.16,-495 453.56,-472.47 479.71,-458.95 503.93,-450.91"/>
<polygon fill="#63b8ff" stroke="#63b8ff" points="428.05,-717.29 434.32,-725.83 434.74,-715.25 428.05,-717.29"/>
</a>
</g>
</g>
<!-- Node18 -->
<g id="Node000018" class="node">
<title>Node18</title>
<g id="a_Node000018"><a xlink:href="particle__accessor_8hpp.html" target="_top" xlink:title=" ">
<polygon fill="white" stroke="#666666" points="717.16,-690 607.16,-690 607.16,-649 717.16,-649 717.16,-690"/>
<text text-anchor="start" x="615.16" y="-678" font-family="Helvetica,sans-Serif" font-size="10.00">include/meltpooldg</text>
<text text-anchor="start" x="615.16" y="-667" font-family="Helvetica,sans-Serif" font-size="10.00">/particles/particle</text>
<text text-anchor="middle" x="662.16" y="-656" font-family="Helvetica,sans-Serif" font-size="10.00">_accessor.hpp</text>
</a>
</g>
</g>
<!-- Node1&#45;&gt;Node18 -->
<g id="edge32_Node000001_Node000018" class="edge">
<title>Node1&#45;&gt;Node18</title>
<g id="a_edge32_Node000001_Node000018"><a xlink:title=" ">
<path fill="none" stroke="#63b8ff" d="M494.15,-722.86C528.45,-712.17 572.46,-698.46 606.83,-687.74"/>
<polygon fill="#63b8ff" stroke="#63b8ff" points="492.79,-719.62 484.29,-725.94 494.88,-726.3 492.79,-719.62"/>
</a>
</g>
</g>
<!-- Node21 -->
<g id="Node000021" class="node">
<title>Node21</title>
<g id="a_Node000021"><a xlink:href="particle__iterator_8hpp.html" target="_top" xlink:title=" ">
<polygon fill="white" stroke="#666666" points="634.16,-613 524.16,-613 524.16,-572 634.16,-572 634.16,-613"/>
<text text-anchor="start" x="532.16" y="-601" font-family="Helvetica,sans-Serif" font-size="10.00">include/meltpooldg</text>
<text text-anchor="start" x="532.16" y="-590" font-family="Helvetica,sans-Serif" font-size="10.00">/particles/particle</text>
<text text-anchor="middle" x="579.16" y="-579" font-family="Helvetica,sans-Serif" font-size="10.00">_iterator.hpp</text>
</a>
</g>
</g>
<!-- Node1&#45;&gt;Node21 -->
<g id="edge60_Node000001_Node000021" class="edge">
<title>Node1&#45;&gt;Node21</title>
<g id="a_edge60_Node000001_Node000021"><a xlink:title=" ">
<path fill="none" stroke="#63b8ff" d="M459.65,-718.56C486.71,-690.24 534.02,-640.74 560.26,-613.27"/>
<polygon fill="#63b8ff" stroke="#63b8ff" points="456.96,-716.31 452.58,-725.95 462.02,-721.14 456.96,-716.31"/>
</a>
</g>
</g>
<!-- Node2&#45;&gt;Node3 -->
<g id="edge2_Node000002_Node000003" class="edge">
<title>Node2&#45;&gt;Node3</title>
<g id="a_edge2_Node000002_Node000003"><a xlink:title=" ">
<path fill="none" stroke="#63b8ff" d="M110.97,-330.74C111.99,-316.98 113.24,-300.25 114.11,-288.63"/>
<polygon fill="#63b8ff" stroke="#63b8ff" points="107.46,-330.75 110.21,-340.98 114.44,-331.27 107.46,-330.75"/>
</a>
</g>
</g>
<!-- Node4&#45;&gt;Node5 -->
<g id="edge4_Node000004_Node000005" class="edge">
<title>Node4&#45;&gt;Node5</title>
<g id="a_edge4_Node000004_Node000005"><a xlink:title=" ">
<path fill="none" stroke="#63b8ff" d="M525.2,-486.67C531.8,-477.5 539,-467.5 545.07,-459.07"/>
<polygon fill="#63b8ff" stroke="#63b8ff" points="522.35,-484.63 519.35,-494.79 528.03,-488.72 522.35,-484.63"/>
</a>
</g>
</g>
<!-- Node5&#45;&gt;Node2 -->
<g id="edge24_Node000005_Node000002" class="edge">
<title>Node5&#45;&gt;Node2</title>
<g id="a_edge24_Node000005_Node000002"><a xlink:title=" ">
<path fill="none" stroke="#63b8ff" d="M493.89,-425.82C412.72,-411.3 274.29,-386.54 187.48,-371.01"/>
<polygon fill="#63b8ff" stroke="#63b8ff" points="493.52,-429.31 503.98,-427.63 494.75,-422.42 493.52,-429.31"/>
</a>
</g>
</g>
<!-- Node5&#45;&gt;Node3 -->
<g id="edge29_Node000005_Node000003" class="edge">
<title>Node5&#45;&gt;Node3</title>
<g id="a_edge29_Node000005_Node000003"><a xlink:title=" ">
<path fill="none" stroke="#63b8ff" d="M493.92,-424.74C452.85,-415.52 399.26,-401.29 354.16,-382 313.09,-364.44 308.46,-349.26 268.16,-330 233.24,-313.3 191.87,-298.58 160.97,-288.51"/>
<polygon fill="#63b8ff" stroke="#63b8ff" points="493.29,-428.18 503.81,-426.91 494.8,-421.35 493.29,-428.18"/>
</a>
</g>
</g>
<!-- Node6 -->
<g id="Node000006" class="node">
<title>Node6</title>
<g id="a_Node000006"><a xlink:href="brinkman__penalization_8hpp.html" target="_top" xlink:title=" ">
<polygon fill="white" stroke="#666666" points="790.16,-211.5 638.16,-211.5 638.16,-170.5 790.16,-170.5 790.16,-211.5"/>
<text text-anchor="start" x="646.16" y="-199.5" font-family="Helvetica,sans-Serif" font-size="10.00">include/meltpooldg</text>
<text text-anchor="start" x="646.16" y="-188.5" font-family="Helvetica,sans-Serif" font-size="10.00">/fluid_structure_interaction</text>
<text text-anchor="middle" x="714.16" y="-177.5" font-family="Helvetica,sans-Serif" font-size="10.00">/brinkman_penalization.hpp</text>
</a>
</g>
</g>
<!-- Node5&#45;&gt;Node6 -->
<g id="edge5_Node000005_Node000006" class="edge">
<title>Node5&#45;&gt;Node6</title>
<g id="a_edge5_Node000005_Node000006"><a xlink:title=" ">
<path fill="none" stroke="#63b8ff" d="M606.66,-412.79C620.88,-404.14 635.93,-393.65 648.16,-382 682.62,-349.18 693.85,-339.06 709.16,-294 718.46,-266.64 717.94,-232.77 716.34,-211.77"/>
<polygon fill="#63b8ff" stroke="#63b8ff" points="604.78,-409.83 597.94,-417.93 608.34,-415.86 604.78,-409.83"/>
</a>
</g>
</g>
<!-- Node7 -->
<g id="Node000007" class="node">
<title>Node7</title>
<g id="a_Node000007"><a xlink:href="fluid__structure__interaction__factory_8hpp.html" target="_top" xlink:title=" ">
<polygon fill="white" stroke="#666666" points="884.66,-52 737.66,-52 737.66,0 884.66,0 884.66,-52"/>
<text text-anchor="start" x="745.66" y="-40" font-family="Helvetica,sans-Serif" font-size="10.00">include/meltpooldg</text>
<text text-anchor="start" x="745.66" y="-29" font-family="Helvetica,sans-Serif" font-size="10.00">/fluid_structure_interaction</text>
<text text-anchor="start" x="745.66" y="-18" font-family="Helvetica,sans-Serif" font-size="10.00">/fluid_structure_interaction</text>
<text text-anchor="middle" x="811.16" y="-7" font-family="Helvetica,sans-Serif" font-size="10.00">_factory.hpp</text>
</a>
</g>
</g>
<!-- Node5&#45;&gt;Node7 -->
<g id="edge8_Node000005_Node000007" class="edge">
<title>Node5&#45;&gt;Node7</title>
<g id="a_edge8_Node000005_Node000007"><a xlink:title=" ">
<path fill="none" stroke="#63b8ff" d="M623.56,-416.75C644.29,-408.11 666.45,-396.61 684.16,-382 701.4,-367.78 791.8,-238.1 799.16,-217 818.82,-160.68 816.72,-89.32 813.78,-52.13"/>
<polygon fill="#63b8ff" stroke="#63b8ff" points="622.14,-413.55 614.16,-420.52 624.75,-420.05 622.14,-413.55"/>
</a>
</g>
</g>
<!-- Node8 -->
<g id="Node000008" class="node">
<title>Node8</title>
<g id="a_Node000008"><a xlink:href="brinkman__penalization_8cpp.html" target="_top" xlink:title=" ">
<polygon fill="white" stroke="#666666" points="672.16,-129 548.16,-129 548.16,-88 672.16,-88 672.16,-129"/>
<text text-anchor="start" x="556.16" y="-117" font-family="Helvetica,sans-Serif" font-size="10.00">source/fluid_structure</text>
<text text-anchor="start" x="556.16" y="-106" font-family="Helvetica,sans-Serif" font-size="10.00">_interaction/brinkman</text>
<text text-anchor="middle" x="610.16" y="-95" font-family="Helvetica,sans-Serif" font-size="10.00">_penalization.cpp</text>
</a>
</g>
</g>
<!-- Node5&#45;&gt;Node8 -->
<g id="edge25_Node000005_Node000008" class="edge">
<title>Node5&#45;&gt;Node8</title>
<g id="a_edge25_Node000005_Node000008"><a xlink:title=" ">
<path fill="none" stroke="#63b8ff" d="M510.15,-412.11C499.11,-404.01 488.73,-393.97 482.16,-382 454.58,-331.69 456.36,-306.47 477.16,-253 485.03,-232.77 496.4,-233.79 510.16,-217 528.3,-194.86 528.95,-186.22 548.16,-165 559.7,-152.26 573.91,-139.37 585.81,-129.22"/>
<polygon fill="#63b8ff" stroke="#63b8ff" points="508.44,-415.18 518.67,-417.93 512.39,-409.4 508.44,-415.18"/>
</a>
</g>
</g>
<!-- Node9 -->
<g id="Node000009" class="node">
<title>Node9</title>
<g id="a_Node000009"><a xlink:href="fluid__structure__interaction__util_8hpp.html" target="_top" xlink:title=" ">
<polygon fill="white" stroke="#666666" points="638.66,-382 491.66,-382 491.66,-330 638.66,-330 638.66,-382"/>
<text text-anchor="start" x="499.66" y="-370" font-family="Helvetica,sans-Serif" font-size="10.00">include/meltpooldg</text>
<text text-anchor="start" x="499.66" y="-359" font-family="Helvetica,sans-Serif" font-size="10.00">/fluid_structure_interaction</text>
<text text-anchor="start" x="499.66" y="-348" font-family="Helvetica,sans-Serif" font-size="10.00">/fluid_structure_interaction</text>
<text text-anchor="middle" x="565.16" y="-337" font-family="Helvetica,sans-Serif" font-size="10.00">_util.hpp</text>
</a>
</g>
</g>
<!-- Node5&#45;&gt;Node9 -->
<g id="edge9_Node000005_Node000009" class="edge">
<title>Node5&#45;&gt;Node9</title>
<g id="a_edge9_Node000005_Node000009"><a xlink:title=" ">
<path fill="none" stroke="#63b8ff" d="M561.4,-407.49C562.02,-399.15 562.69,-390.19 563.29,-382.16"/>
<polygon fill="#63b8ff" stroke="#63b8ff" points="557.9,-407.37 560.64,-417.6 564.88,-407.89 557.9,-407.37"/>
</a>
</g>
</g>
<!-- Node12 -->
<g id="Node000012" class="node">
<title>Node12</title>
<g id="a_Node000012"><a xlink:href="stokes__law_8hpp.html" target="_top" xlink:title=" ">
<polygon fill="white" stroke="#666666" points="467.66,-129 320.66,-129 320.66,-88 467.66,-88 467.66,-129"/>
<text text-anchor="start" x="328.66" y="-117" font-family="Helvetica,sans-Serif" font-size="10.00">include/meltpooldg</text>
<text text-anchor="start" x="328.66" y="-106" font-family="Helvetica,sans-Serif" font-size="10.00">/fluid_structure_interaction</text>
<text text-anchor="middle" x="394.16" y="-95" font-family="Helvetica,sans-Serif" font-size="10.00">/stokes_law.hpp</text>
</a>
</g>
</g>
<!-- Node5&#45;&gt;Node12 -->
<g id="edge21_Node000005_Node000012" class="edge">
<title>Node5&#45;&gt;Node12</title>
<g id="a_edge21_Node000005_Node000012"><a xlink:title=" ">
<path fill="none" stroke="#63b8ff" d="M507.93,-413.31C491.61,-404.51 473.96,-393.8 459.16,-382 382.14,-320.58 346.38,-309 311.16,-217 302.9,-195.42 300.27,-185.38 311.16,-165 319.33,-149.71 333.78,-137.9 348.36,-129.18"/>
<polygon fill="#63b8ff" stroke="#63b8ff" points="506.35,-416.43 516.83,-417.99 509.61,-410.24 506.35,-416.43"/>
</a>
</g>
</g>
<!-- Node13 -->
<g id="Node000013" class="node">
<title>Node13</title>
<g id="a_Node000013"><a xlink:href="stokes__law_8cpp.html" target="_top" xlink:title=" ">
<polygon fill="white" stroke="#666666" points="348.66,-41 197.66,-41 197.66,-11 348.66,-11 348.66,-41"/>
<text text-anchor="start" x="205.66" y="-29" font-family="Helvetica,sans-Serif" font-size="10.00">source/fluid_structure</text>
<text text-anchor="middle" x="273.16" y="-18" font-family="Helvetica,sans-Serif" font-size="10.00">_interaction/stokes_law.cpp</text>
</a>
</g>
</g>
<!-- Node5&#45;&gt;Node13 -->
<g id="edge26_Node000005_Node000013" class="edge">
<title>Node5&#45;&gt;Node13</title>
<g id="a_edge26_Node000005_Node000013"><a xlink:title=" ">
<path fill="none" stroke="#63b8ff" d="M494.15,-426.19C460.5,-418 420.1,-404.32 389.16,-382 349.73,-353.55 346.15,-337.37 324.16,-294 279.35,-205.6 273.74,-82.57 273.17,-41.2"/>
<polygon fill="#63b8ff" stroke="#63b8ff" points="493.37,-429.61 503.91,-428.46 494.96,-422.79 493.37,-429.61"/>
</a>
</g>
</g>
<!-- Node14 -->
<g id="Node000014" class="node">
<title>Node14</title>
<g id="a_Node000014"><a xlink:href="cohesive__forces_8hpp.html" target="_top" xlink:title=" ">
<polygon fill="white" stroke="#666666" points="930.16,-376.5 820.16,-376.5 820.16,-335.5 930.16,-335.5 930.16,-376.5"/>
<text text-anchor="start" x="828.16" y="-364.5" font-family="Helvetica,sans-Serif" font-size="10.00">include/meltpooldg</text>
<text text-anchor="start" x="828.16" y="-353.5" font-family="Helvetica,sans-Serif" font-size="10.00">/particles/cohesive</text>
<text text-anchor="middle" x="875.16" y="-342.5" font-family="Helvetica,sans-Serif" font-size="10.00">_forces.hpp</text>
</a>
</g>
</g>
<!-- Node5&#45;&gt;Node14 -->
<g id="edge22_Node000005_Node000014" class="edge">
<title>Node5&#45;&gt;Node14</title>
<g id="a_edge22_Node000005_Node000014"><a xlink:title=" ">
<path fill="none" stroke="#63b8ff" d="M624,-417.86C672.64,-404.93 761.78,-383.69 820.07,-369.94"/>
<polygon fill="#63b8ff" stroke="#63b8ff" points="623,-414.51 614.26,-420.49 624.83,-421.26 623,-414.51"/>
</a>
</g>
</g>
<!-- Node15 -->
<g id="Node000015" class="node">
<title>Node15</title>
<g id="a_Node000015"><a xlink:href="cohesive__forces_8cpp.html" target="_top" xlink:title=" ">
<polygon fill="white" stroke="#666666" points="986.16,-288.5 846.16,-288.5 846.16,-258.5 986.16,-258.5 986.16,-288.5"/>
<text text-anchor="start" x="854.16" y="-276.5" font-family="Helvetica,sans-Serif" font-size="10.00">source/particles/cohesive</text>
<text text-anchor="middle" x="916.16" y="-265.5" font-family="Helvetica,sans-Serif" font-size="10.00">_forces.cpp</text>
</a>
</g>
</g>
<!-- Node5&#45;&gt;Node15 -->
<g id="edge28_Node000005_Node000015" class="edge">
<title>Node5&#45;&gt;Node15</title>
<g id="a_edge28_Node000005_Node000015"><a xlink:title=" ">
<path fill="none" stroke="#63b8ff" d="M623.8,-417.4C667.9,-403.54 720.08,-386.78 730.16,-382 768.82,-363.69 774.22,-351.57 811.16,-330 836.62,-315.13 866.4,-299.56 887.73,-288.7"/>
<polygon fill="#63b8ff" stroke="#63b8ff" points="622.74,-414.06 614.24,-420.4 624.83,-420.74 622.74,-414.06"/>
</a>
</g>
</g>
<!-- Node16 -->
<g id="Node000016" class="node">
<title>Node16</title>
<g id="a_Node000016"><a xlink:href="cell__batch__particle__cache_8cpp.html" target="_top" xlink:title=" ">
<polygon fill="white" stroke="#666666" points="1131.66,-371 986.66,-371 986.66,-341 1131.66,-341 1131.66,-371"/>
<text text-anchor="start" x="994.66" y="-359" font-family="Helvetica,sans-Serif" font-size="10.00">source/particles/cell</text>
<text text-anchor="middle" x="1059.16" y="-348" font-family="Helvetica,sans-Serif" font-size="10.00">_batch_particle_cache.cpp</text>
</a>
</g>
</g>
<!-- Node5&#45;&gt;Node16 -->
<g id="edge27_Node000005_Node000016" class="edge">
<title>Node5&#45;&gt;Node16</title>
<g id="a_edge27_Node000005_Node000016"><a xlink:title=" ">
<path fill="none" stroke="#63b8ff" d="M624.67,-417.88C763.4,-389.97 802.87,-403.91 939.16,-382 958.18,-378.94 978.74,-374.92 997.39,-371"/>
<polygon fill="#63b8ff" stroke="#63b8ff" points="623.6,-414.53 614.5,-419.96 625,-421.38 623.6,-414.53"/>
</a>
</g>
</g>
<!-- Node17 -->
<g id="Node000017" class="node">
<title>Node17</title>
<g id="a_Node000017"><a xlink:href="obstacle__field_8cpp.html" target="_top" xlink:title=" ">
<polygon fill="white" stroke="#666666" points="1364.16,-371 1226.16,-371 1226.16,-341 1364.16,-341 1364.16,-371"/>
<text text-anchor="start" x="1234.16" y="-359" font-family="Helvetica,sans-Serif" font-size="10.00">source/particles/obstacle</text>
<text text-anchor="middle" x="1295.16" y="-348" font-family="Helvetica,sans-Serif" font-size="10.00">_field.cpp</text>
</a>
</g>
</g>
<!-- Node5&#45;&gt;Node17 -->
<g id="edge30_Node000005_Node000017" class="edge">
<title>Node5&#45;&gt;Node17</title>
<g id="a_edge30_Node000005_Node000017"><a xlink:title=" ">
<path fill="none" stroke="#63b8ff" d="M624.38,-418C851.89,-377.01 915.16,-408.14 1141.16,-382 1169.01,-378.78 1199.51,-374.08 1225.97,-369.62"/>
<polygon fill="#63b8ff" stroke="#63b8ff" points="623.68,-414.57 614.47,-419.81 624.94,-421.45 623.68,-414.57"/>
</a>
</g>
</g>
<!-- Node6&#45;&gt;Node7 -->
<g id="edge6_Node000006_Node000007" class="edge">
<title>Node6&#45;&gt;Node7</title>
<g id="a_edge6_Node000006_Node000007"><a xlink:title=" ">
<path fill="none" stroke="#63b8ff" d="M731.21,-161.35C749.63,-130.39 778.7,-81.55 796.24,-52.07"/>
<polygon fill="#63b8ff" stroke="#63b8ff" points="727.97,-159.96 725.86,-170.34 733.98,-163.53 727.97,-159.96"/>
</a>
</g>
</g>
<!-- Node6&#45;&gt;Node8 -->
<g id="edge7_Node000006_Node000008" class="edge">
<title>Node6&#45;&gt;Node8</title>
<g id="a_edge7_Node000006_Node000008"><a xlink:title=" ">
<path fill="none" stroke="#63b8ff" d="M680.45,-163.91C665.91,-152.65 649.19,-139.71 635.7,-129.27"/>
<polygon fill="#63b8ff" stroke="#63b8ff" points="678.67,-166.95 688.72,-170.31 682.95,-161.42 678.67,-166.95"/>
</a>
</g>
</g>
<!-- Node9&#45;&gt;Node6 -->
<g id="edge10_Node000009_Node000006" class="edge">
<title>Node9&#45;&gt;Node6</title>
<g id="a_edge10_Node000009_Node000006"><a xlink:title=" ">
<path fill="none" stroke="#63b8ff" d="M646.95,-325.03C661.25,-316.79 674.83,-306.55 685.16,-294 704.7,-270.26 711.09,-234.09 713.17,-211.81"/>
<polygon fill="#63b8ff" stroke="#63b8ff" points="645.09,-322.06 637.98,-329.92 648.44,-328.21 645.09,-322.06"/>
</a>
</g>
</g>
<!-- Node9&#45;&gt;Node8 -->
<g id="edge20_Node000009_Node000008" class="edge">
<title>Node9&#45;&gt;Node8</title>
<g id="a_edge20_Node000009_Node000008"><a xlink:title=" ">
<path fill="none" stroke="#63b8ff" d="M511.15,-323.47C501.46,-315.19 492.69,-305.34 487.16,-294 479.18,-277.62 478.13,-268.82 487.16,-253 502.77,-225.66 526.01,-239.37 548.16,-217 573.78,-191.13 592.59,-152.56 602.42,-129.34"/>
<polygon fill="#63b8ff" stroke="#63b8ff" points="509.08,-326.3 519.08,-329.78 513.43,-320.82 509.08,-326.3"/>
</a>
</g>
</g>
<!-- Node10 -->
<g id="Node000010" class="node">
<title>Node10</title>
<g id="a_Node000010"><a xlink:href="brinkman__penalization__data_8hpp.html" target="_top" xlink:title=" ">
<polygon fill="white" stroke="#666666" points="675.66,-294 496.66,-294 496.66,-253 675.66,-253 675.66,-294"/>
<text text-anchor="start" x="504.66" y="-282" font-family="Helvetica,sans-Serif" font-size="10.00">include/meltpooldg</text>
<text text-anchor="start" x="504.66" y="-271" font-family="Helvetica,sans-Serif" font-size="10.00">/fluid_structure_interaction</text>
<text text-anchor="middle" x="586.16" y="-260" font-family="Helvetica,sans-Serif" font-size="10.00">/brinkman_penalization_data.hpp</text>
</a>
</g>
</g>
<!-- Node9&#45;&gt;Node10 -->
<g id="edge11_Node000009_Node000010" class="edge">
<title>Node9&#45;&gt;Node10</title>
<g id="a_edge11_Node000009_Node000010"><a xlink:title=" ">
<path fill="none" stroke="#63b8ff" d="M574.25,-320.16C576.57,-311.25 578.99,-301.99 581.04,-294.15"/>
<polygon fill="#63b8ff" stroke="#63b8ff" points="570.83,-319.41 571.69,-329.97 577.6,-321.18 570.83,-319.41"/>
</a>
</g>
</g>
<!-- Node10&#45;&gt;Node6 -->
<g id="edge12_Node000010_Node000006" class="edge">
<title>Node10&#45;&gt;Node6</title>
<g id="a_edge12_Node000010_Node000006"><a xlink:title=" ">
<path fill="none" stroke="#63b8ff" d="M626.15,-247.35C644.38,-235.88 665.66,-222.5 682.73,-211.77"/>
<polygon fill="#63b8ff" stroke="#63b8ff" points="624.07,-244.52 617.47,-252.81 627.8,-250.45 624.07,-244.52"/>
</a>
</g>
</g>
<!-- Node10&#45;&gt;Node8 -->
<g id="edge19_Node000010_Node000008" class="edge">
<title>Node10&#45;&gt;Node8</title>
<g id="a_edge19_Node000010_Node000008"><a xlink:title=" ">
<path fill="none" stroke="#63b8ff" d="M590.52,-242.87C595.38,-209.9 603.09,-157.54 607.26,-129.23"/>
<polygon fill="#63b8ff" stroke="#63b8ff" points="587.05,-242.44 589.06,-252.84 593.98,-243.45 587.05,-242.44"/>
</a>
</g>
</g>
<!-- Node11 -->
<g id="Node000011" class="node">
<title>Node11</title>
<g id="a_Node000011"><a xlink:href="fluid__structure__interaction__data_8hpp.html" target="_top" xlink:title=" ">
<polygon fill="white" stroke="#666666" points="467.66,-217 320.66,-217 320.66,-165 467.66,-165 467.66,-217"/>
<text text-anchor="start" x="328.66" y="-205" font-family="Helvetica,sans-Serif" font-size="10.00">include/meltpooldg</text>
<text text-anchor="start" x="328.66" y="-194" font-family="Helvetica,sans-Serif" font-size="10.00">/fluid_structure_interaction</text>
<text text-anchor="start" x="328.66" y="-183" font-family="Helvetica,sans-Serif" font-size="10.00">/fluid_structure_interaction</text>
<text text-anchor="middle" x="394.16" y="-172" font-family="Helvetica,sans-Serif" font-size="10.00">_data.hpp</text>
</a>
</g>
</g>
<!-- Node10&#45;&gt;Node11 -->
<g id="edge13_Node000010_Node000011" class="edge">
<title>Node10&#45;&gt;Node11</title>
<g id="a_edge13_Node000010_Node000011"><a xlink:title=" ">
<path fill="none" stroke="#63b8ff" d="M529.93,-248.92C506.1,-238.93 478.31,-227.28 454.09,-217.13"/>
<polygon fill="#63b8ff" stroke="#63b8ff" points="528.62,-252.17 539.19,-252.81 531.32,-245.71 528.62,-252.17"/>
</a>
</g>
</g>
<!-- Node11&#45;&gt;Node7 -->
<g id="edge14_Node000011_Node000007" class="edge">
<title>Node11&#45;&gt;Node7</title>
<g id="a_edge14_Node000011_Node000007"><a xlink:title=" ">
<path fill="none" stroke="#63b8ff" d="M436.72,-158.79C475.39,-130.64 528.04,-92.92 539.16,-88 602.99,-59.74 681.25,-43.96 737.41,-35.57"/>
<polygon fill="#63b8ff" stroke="#63b8ff" points="434.23,-156.27 428.21,-164.99 438.35,-161.93 434.23,-156.27"/>
</a>
</g>
</g>
<!-- Node11&#45;&gt;Node12 -->
<g id="edge15_Node000011_Node000012" class="edge">
<title>Node11&#45;&gt;Node12</title>
<g id="a_edge15_Node000011_Node000012"><a xlink:title=" ">
<path fill="none" stroke="#63b8ff" d="M394.16,-154.87C394.16,-146.05 394.16,-136.9 394.16,-129.15"/>
<polygon fill="#63b8ff" stroke="#63b8ff" points="390.66,-154.97 394.16,-164.97 397.66,-154.97 390.66,-154.97"/>
</a>
</g>
</g>
<!-- Node11&#45;&gt;Node13 -->
<g id="edge18_Node000011_Node000013" class="edge">
<title>Node11&#45;&gt;Node13</title>
<g id="a_edge18_Node000011_Node000013"><a xlink:title=" ">
<path fill="none" stroke="#63b8ff" d="M342.14,-158.96C330.8,-150.36 319.66,-140.25 311.16,-129 290.55,-101.7 280.09,-62.02 275.73,-41.11"/>
<polygon fill="#63b8ff" stroke="#63b8ff" points="340.26,-161.92 350.41,-164.96 344.37,-156.25 340.26,-161.92"/>
</a>
</g>
</g>
<!-- Node12&#45;&gt;Node7 -->
<g id="edge16_Node000012_Node000007" class="edge">
<title>Node12&#45;&gt;Node7</title>
<g id="a_edge16_Node000012_Node000007"><a xlink:title=" ">
<path fill="none" stroke="#63b8ff" d="M477.84,-91.17C483.37,-90.09 488.84,-89.03 494.16,-88 577.52,-71.85 673.24,-53.45 737.49,-41.12"/>
<polygon fill="#63b8ff" stroke="#63b8ff" points="477.03,-87.76 467.88,-93.1 478.37,-94.63 477.03,-87.76"/>
</a>
</g>
</g>
<!-- Node12&#45;&gt;Node13 -->
<g id="edge17_Node000012_Node000013" class="edge">
<title>Node12&#45;&gt;Node13</title>
<g id="a_edge17_Node000012_Node000013"><a xlink:title=" ">
<path fill="none" stroke="#63b8ff" d="M356.12,-82.19C335.79,-68.66 311.51,-52.51 294.49,-41.19"/>
<polygon fill="#63b8ff" stroke="#63b8ff" points="354.3,-85.18 364.56,-87.81 358.17,-79.35 354.3,-85.18"/>
</a>
</g>
</g>
<!-- Node14&#45;&gt;Node15 -->
<g id="edge23_Node000014_Node000015" class="edge">
<title>Node14&#45;&gt;Node15</title>
<g id="a_edge23_Node000014_Node000015"><a xlink:title=" ">
<path fill="none" stroke="#63b8ff" d="M889.99,-325.87C896.41,-313.29 903.62,-299.13 908.84,-288.87"/>
<polygon fill="#63b8ff" stroke="#63b8ff" points="886.72,-324.6 885.3,-335.1 892.95,-327.78 886.72,-324.6"/>
</a>
</g>
</g>
<!-- Node18&#45;&gt;Node2 -->
<g id="edge38_Node000018_Node000002" class="edge">
<title>Node18&#45;&gt;Node2</title>
<g id="a_edge38_Node000018_Node000002"><a xlink:title=" ">
<path fill="none" stroke="#63b8ff" d="M597.04,-667.2C493.25,-663.94 296.26,-652.57 240.16,-613 196,-581.85 132.84,-420.29 114.4,-371.18"/>
<polygon fill="#63b8ff" stroke="#63b8ff" points="596.99,-670.7 607.09,-667.49 597.2,-663.7 596.99,-670.7"/>
</a>
</g>
</g>
<!-- Node18&#45;&gt;Node3 -->
<g id="edge58_Node000018_Node000003" class="edge">
<title>Node18&#45;&gt;Node3</title>
<g id="a_edge58_Node000018_Node000003"><a xlink:title=" ">
<path fill="none" stroke="#63b8ff" d="M597.02,-658.11C481.82,-637.89 254.16,-588.77 254.16,-516.5 254.16,-516.5 254.16,-516.5 254.16,-437.5 254.16,-383.21 232.46,-370.37 196.16,-330 180.77,-312.89 159.09,-298.39 142.03,-288.51"/>
<polygon fill="#63b8ff" stroke="#63b8ff" points="596.69,-661.61 607.14,-659.86 597.88,-654.71 596.69,-661.61"/>
</a>
</g>
</g>
<!-- Node18&#45;&gt;Node4 -->
<g id="edge39_Node000018_Node000004" class="edge">
<title>Node18&#45;&gt;Node4</title>
<g id="a_edge39_Node000018_Node000004"><a xlink:title=" ">
<path fill="none" stroke="#63b8ff" d="M596.96,-659.67C567.41,-652.21 534.76,-638.43 515.16,-613 498.2,-590.99 498.95,-557.26 501.62,-536.07"/>
<polygon fill="#63b8ff" stroke="#63b8ff" points="596.31,-663.12 606.85,-661.97 597.9,-656.3 596.31,-663.12"/>
</a>
</g>
</g>
<!-- Node18&#45;&gt;Node5 -->
<g id="edge40_Node000018_Node000005" class="edge">
<title>Node18&#45;&gt;Node5</title>
<g id="a_edge40_Node000018_Node000005"><a xlink:title=" ">
<path fill="none" stroke="#63b8ff" d="M659.17,-638.55C656.52,-619.07 651.7,-593.41 643.16,-572 625.9,-528.74 594.22,-484.16 575.08,-459.32"/>
<polygon fill="#63b8ff" stroke="#63b8ff" points="655.72,-639.18 660.42,-648.67 662.66,-638.32 655.72,-639.18"/>
</a>
</g>
</g>
<!-- Node18&#45;&gt;Node8 -->
<g id="edge56_Node000018_Node000008" class="edge">
<title>Node18&#45;&gt;Node8</title>
<g id="a_edge56_Node000018_Node000008"><a xlink:title=" ">
<path fill="none" stroke="#63b8ff" d="M695.31,-642.21C723.17,-617.95 761.24,-579.22 779.16,-536 794.97,-497.86 823.9,-198.05 799.16,-165 783.79,-144.47 721.54,-128.94 672.63,-119.61"/>
<polygon fill="#63b8ff" stroke="#63b8ff" points="692.73,-639.82 687.38,-648.97 697.27,-645.15 692.73,-639.82"/>
</a>
</g>
</g>
<!-- Node18&#45;&gt;Node14 -->
<g id="edge37_Node000018_Node000014" class="edge">
<title>Node18&#45;&gt;Node14</title>
<g id="a_edge37_Node000018_Node000014"><a xlink:title=" ">
<path fill="none" stroke="#63b8ff" d="M727.14,-658.75C756.94,-651.07 790.39,-637.38 812.16,-613 873.89,-543.86 877.38,-423.92 876.14,-376.81"/>
<polygon fill="#63b8ff" stroke="#63b8ff" points="726.11,-655.4 717.2,-661.13 727.74,-662.21 726.11,-655.4"/>
</a>
</g>
</g>
<!-- Node18&#45;&gt;Node15 -->
<g id="edge57_Node000018_Node000015" class="edge">
<title>Node18&#45;&gt;Node15</title>
<g id="a_edge57_Node000018_Node000015"><a xlink:title=" ">
<path fill="none" stroke="#63b8ff" d="M727.57,-663.44C814.74,-652.72 958.16,-619.44 958.16,-516.5 958.16,-516.5 958.16,-516.5 958.16,-437.5 958.16,-388.98 952.75,-376.58 939.16,-330 934.95,-315.58 928.2,-299.82 923.1,-288.79"/>
<polygon fill="#63b8ff" stroke="#63b8ff" points="727.02,-659.98 717.49,-664.61 727.83,-666.93 727.02,-659.98"/>
</a>
</g>
</g>
<!-- Node18&#45;&gt;Node17 -->
<g id="edge59_Node000018_Node000017" class="edge">
<title>Node18&#45;&gt;Node17</title>
<g id="a_edge59_Node000018_Node000017"><a xlink:title=" ">
<path fill="none" stroke="#63b8ff" d="M727.51,-668.5C798.77,-666.14 914.6,-655.29 1004.16,-613 1037.32,-597.34 1225.03,-422.71 1280.02,-371.21"/>
<polygon fill="#63b8ff" stroke="#63b8ff" points="727.23,-665 717.33,-668.79 727.42,-672 727.23,-665"/>
</a>
</g>
</g>
<!-- Node19 -->
<g id="Node000019" class="node">
<title>Node19</title>
<g id="a_Node000019"><a xlink:href="cell__batch__particle__cache_8hpp.html" target="_top" xlink:title=" ">
<polygon fill="white" stroke="#666666" points="1116.16,-459 1002.16,-459 1002.16,-418 1116.16,-418 1116.16,-459"/>
<text text-anchor="start" x="1010.16" y="-447" font-family="Helvetica,sans-Serif" font-size="10.00">include/meltpooldg</text>
<text text-anchor="start" x="1010.16" y="-436" font-family="Helvetica,sans-Serif" font-size="10.00">/particles/cell_batch</text>
<text text-anchor="middle" x="1059.16" y="-425" font-family="Helvetica,sans-Serif" font-size="10.00">_particle_cache.hpp</text>
</a>
</g>
</g>
<!-- Node18&#45;&gt;Node19 -->
<g id="edge33_Node000018_Node000019" class="edge">
<title>Node18&#45;&gt;Node19</title>
<g id="a_edge33_Node000018_Node000019"><a xlink:title=" ">
<path fill="none" stroke="#63b8ff" d="M727.85,-663.62C807.11,-656.57 934.43,-641.18 972.16,-613 1024.13,-574.18 1047.13,-495.64 1055.35,-459.06"/>
<polygon fill="#63b8ff" stroke="#63b8ff" points="727.14,-660.17 717.48,-664.52 727.75,-667.14 727.14,-660.17"/>
</a>
</g>
</g>
<!-- Node20 -->
<g id="Node000020" class="node">
<title>Node20</title>
<g id="a_Node000020"><a xlink:href="obstacle__forces_8hpp.html" target="_top" xlink:title=" ">
<polygon fill="white" stroke="#666666" points="392.16,-536 282.16,-536 282.16,-495 392.16,-495 392.16,-536"/>
<text text-anchor="start" x="290.16" y="-524" font-family="Helvetica,sans-Serif" font-size="10.00">include/meltpooldg</text>
<text text-anchor="start" x="290.16" y="-513" font-family="Helvetica,sans-Serif" font-size="10.00">/particles/obstacle</text>
<text text-anchor="middle" x="337.16" y="-502" font-family="Helvetica,sans-Serif" font-size="10.00">_forces.hpp</text>
</a>
</g>
</g>
<!-- Node18&#45;&gt;Node20 -->
<g id="edge41_Node000018_Node000020" class="edge">
<title>Node18&#45;&gt;Node20</title>
<g id="a_edge41_Node000018_Node000020"><a xlink:title=" ">
<path fill="none" stroke="#63b8ff" d="M597.32,-650.29C566.38,-640.69 529.21,-627.84 497.16,-613 448.74,-590.58 396.48,-557.13 365.31,-536.08"/>
<polygon fill="#63b8ff" stroke="#63b8ff" points="596.54,-653.71 607.13,-653.28 598.59,-647.01 596.54,-653.71"/>
</a>
</g>
</g>
<!-- Node18&#45;&gt;Node21 -->
<g id="edge46_Node000018_Node000021" class="edge">
<title>Node18&#45;&gt;Node21</title>
<g id="a_edge46_Node000018_Node000021"><a xlink:title=" ">
<path fill="none" stroke="#63b8ff" d="M632.91,-642.07C622.35,-632.52 610.62,-621.93 600.82,-613.07"/>
<polygon fill="#63b8ff" stroke="#63b8ff" points="630.59,-644.69 640.35,-648.79 635.28,-639.49 630.59,-644.69"/>
</a>
</g>
</g>
<!-- Node24 -->
<g id="Node000024" class="node">
<title>Node24</title>
<g id="a_Node000024"><a xlink:href="particle__tools_8hpp.html" target="_top" xlink:title=" ">
<polygon fill="white" stroke="#666666" points="1350.16,-459 1240.16,-459 1240.16,-418 1350.16,-418 1350.16,-459"/>
<text text-anchor="start" x="1248.16" y="-447" font-family="Helvetica,sans-Serif" font-size="10.00">include/meltpooldg</text>
<text text-anchor="start" x="1248.16" y="-436" font-family="Helvetica,sans-Serif" font-size="10.00">/particles/particle</text>
<text text-anchor="middle" x="1295.16" y="-425" font-family="Helvetica,sans-Serif" font-size="10.00">_tools.hpp</text>
</a>
</g>
</g>
<!-- Node18&#45;&gt;Node24 -->
<g id="edge53_Node000018_Node000024" class="edge">
<title>Node18&#45;&gt;Node24</title>
<g id="a_edge53_Node000018_Node000024"><a xlink:title=" ">
<path fill="none" stroke="#63b8ff" d="M727.45,-668.83C851.73,-668.3 1116.67,-661.35 1192.16,-613 1249.09,-576.53 1278.72,-496.44 1289.86,-459.23"/>
<polygon fill="#63b8ff" stroke="#63b8ff" points="727.3,-665.33 717.31,-668.86 727.32,-672.33 727.3,-665.33"/>
</a>
</g>
</g>
<!-- Node19&#45;&gt;Node6 -->
<g id="edge34_Node000019_Node000006" class="edge">
<title>Node19&#45;&gt;Node6</title>
<g id="a_edge34_Node000019_Node000006"><a xlink:title=" ">
<path fill="none" stroke="#63b8ff" d="M1112.46,-412.48C1123.96,-404.44 1134.61,-394.34 1141.16,-382 1151.99,-361.59 1153.1,-349.79 1141.16,-330 1104.44,-269.13 903.07,-224.91 790.46,-204.54"/>
<polygon fill="#63b8ff" stroke="#63b8ff" points="1110.48,-409.59 1103.99,-417.97 1114.29,-415.47 1110.48,-409.59"/>
</a>
</g>
</g>
<!-- Node19&#45;&gt;Node7 -->
<g id="edge35_Node000019_Node000007" class="edge">
<title>Node19&#45;&gt;Node7</title>
<g id="a_edge35_Node000019_Node000007"><a xlink:title=" ">
<path fill="none" stroke="#63b8ff" d="M1119.46,-413.09C1133.98,-404.94 1148.38,-394.64 1159.16,-382 1192.14,-343.33 1198.16,-325.32 1198.16,-274.5 1198.16,-274.5 1198.16,-274.5 1198.16,-190 1198.16,-55.49 997.15,-30.2 884.86,-26.57"/>
<polygon fill="#63b8ff" stroke="#63b8ff" points="1117.62,-410.1 1110.44,-417.88 1120.91,-416.28 1117.62,-410.1"/>
</a>
</g>
</g>
<!-- Node19&#45;&gt;Node16 -->
<g id="edge36_Node000019_Node000016" class="edge">
<title>Node19&#45;&gt;Node16</title>
<g id="a_edge36_Node000019_Node000016"><a xlink:title=" ">
<path fill="none" stroke="#63b8ff" d="M1059.16,-407.26C1059.16,-394.96 1059.16,-381.33 1059.16,-371.37"/>
<polygon fill="#63b8ff" stroke="#63b8ff" points="1055.66,-407.6 1059.16,-417.6 1062.66,-407.6 1055.66,-407.6"/>
</a>
</g>
</g>
<!-- Node20&#45;&gt;Node5 -->
<g id="edge43_Node000020_Node000005" class="edge">
<title>Node20&#45;&gt;Node5</title>
<g id="a_edge43_Node000020_Node000005"><a xlink:title=" ">
<path fill="none" stroke="#63b8ff" d="M402.13,-492.55C434.42,-481.64 473.04,-468.59 503.9,-458.17"/>
<polygon fill="#63b8ff" stroke="#63b8ff" points="400.68,-489.35 392.32,-495.86 402.92,-495.98 400.68,-489.35"/>
</a>
</g>
</g>
<!-- Node20&#45;&gt;Node7 -->
<g id="edge42_Node000020_Node000007" class="edge">
<title>Node20&#45;&gt;Node7</title>
<g id="a_edge42_Node000020_Node000007"><a xlink:title=" ">
<path fill="none" stroke="#63b8ff" d="M402.35,-500.53C414.53,-498.35 427.2,-496.37 439.16,-495 540.8,-483.36 1269.43,-508.13 1359.16,-459 1407.61,-432.48 1430.16,-412.23 1430.16,-357 1430.16,-357 1430.16,-357 1430.16,-190 1430.16,-78.39 1049.04,-41.57 884.91,-30.89"/>
<polygon fill="#63b8ff" stroke="#63b8ff" points="401.44,-497.14 392.25,-502.41 402.72,-504.03 401.44,-497.14"/>
</a>
</g>
</g>
<!-- Node20&#45;&gt;Node8 -->
<g id="edge44_Node000020_Node000008" class="edge">
<title>Node20&#45;&gt;Node8</title>
<g id="a_edge44_Node000020_Node000008"><a xlink:title=" ">
<path fill="none" stroke="#63b8ff" d="M350.19,-485.52C386.02,-406.21 485.07,-189.84 510.16,-165 525.12,-150.19 544.83,-138.13 562.8,-129.08"/>
<polygon fill="#63b8ff" stroke="#63b8ff" points="346.87,-484.37 345.95,-494.92 353.25,-487.24 346.87,-484.37"/>
</a>
</g>
</g>
<!-- Node20&#45;&gt;Node13 -->
<g id="edge45_Node000020_Node000013" class="edge">
<title>Node20&#45;&gt;Node13</title>
<g id="a_edge45_Node000020_Node000013"><a xlink:title=" ">
<path fill="none" stroke="#63b8ff" d="M299.6,-488.51C264.07,-460.55 216.16,-412.54 216.16,-357 216.16,-357 216.16,-357 216.16,-190 216.16,-132.14 248.56,-68.88 264.5,-41.24"/>
<polygon fill="#63b8ff" stroke="#63b8ff" points="297.8,-491.54 307.87,-494.84 302.06,-485.98 297.8,-491.54"/>
</a>
</g>
</g>
<!-- Node21&#45;&gt;Node4 -->
<g id="edge47_Node000021_Node000004" class="edge">
<title>Node21&#45;&gt;Node4</title>
<g id="a_edge47_Node000021_Node000004"><a xlink:title=" ">
<path fill="none" stroke="#63b8ff" d="M552.53,-564.51C543.26,-555.11 533.04,-544.76 524.47,-536.07"/>
<polygon fill="#63b8ff" stroke="#63b8ff" points="550.2,-567.13 559.72,-571.79 555.19,-562.22 550.2,-567.13"/>
</a>
</g>
</g>
<!-- Node21&#45;&gt;Node5 -->
<g id="edge52_Node000021_Node000005" class="edge">
<title>Node21&#45;&gt;Node5</title>
<g id="a_edge52_Node000021_Node000005"><a xlink:title=" ">
<path fill="none" stroke="#63b8ff" d="M577.69,-561.62C576.5,-542.5 574.47,-517.2 571.16,-495 569.37,-483.01 566.53,-469.73 564.07,-459.16"/>
<polygon fill="#63b8ff" stroke="#63b8ff" points="574.21,-562.04 578.28,-571.82 581.2,-561.64 574.21,-562.04"/>
</a>
</g>
</g>
<!-- Node22 -->
<g id="Node000022" class="node">
<title>Node22</title>
<g id="a_Node000022"><a xlink:href="obstacle__data__structure_8hpp.html" target="_top" xlink:title=" ">
<polygon fill="white" stroke="#666666" points="769.66,-536 656.66,-536 656.66,-495 769.66,-495 769.66,-536"/>
<text text-anchor="start" x="664.66" y="-524" font-family="Helvetica,sans-Serif" font-size="10.00">include/meltpooldg</text>
<text text-anchor="start" x="664.66" y="-513" font-family="Helvetica,sans-Serif" font-size="10.00">/particles/obstacle</text>
<text text-anchor="middle" x="713.16" y="-502" font-family="Helvetica,sans-Serif" font-size="10.00">_data_structure.hpp</text>
</a>
</g>
</g>
<!-- Node21&#45;&gt;Node22 -->
<g id="edge48_Node000021_Node000022" class="edge">
<title>Node21&#45;&gt;Node22</title>
<g id="a_edge48_Node000021_Node000022"><a xlink:title=" ">
<path fill="none" stroke="#63b8ff" d="M623.08,-566.92C640.9,-556.95 661.2,-545.58 678.01,-536.17"/>
<polygon fill="#63b8ff" stroke="#63b8ff" points="621.03,-564.05 614.02,-571.99 624.45,-570.16 621.03,-564.05"/>
</a>
</g>
</g>
<!-- Node22&#45;&gt;Node5 -->
<g id="edge50_Node000022_Node000005" class="edge">
<title>Node22&#45;&gt;Node5</title>
<g id="a_edge50_Node000022_Node000005"><a xlink:title=" ">
<path fill="none" stroke="#63b8ff" d="M664.06,-490.59C643.16,-480.41 619.09,-468.69 599.29,-459.04"/>
<polygon fill="#63b8ff" stroke="#63b8ff" points="662.58,-493.76 673.1,-494.99 665.64,-487.47 662.58,-493.76"/>
</a>
</g>
</g>
<!-- Node22&#45;&gt;Node19 -->
<g id="edge49_Node000022_Node000019" class="edge">
<title>Node22&#45;&gt;Node19</title>
<g id="a_edge49_Node000022_Node000019"><a xlink:title=" ">
<path fill="none" stroke="#63b8ff" d="M779.97,-500.02C844.48,-486.04 941.1,-465.09 1002.09,-451.87"/>
<polygon fill="#63b8ff" stroke="#63b8ff" points="778.94,-496.66 769.91,-502.2 780.42,-503.5 778.94,-496.66"/>
</a>
</g>
</g>
<!-- Node23 -->
<g id="Node000023" class="node">
<title>Node23</title>
<g id="a_Node000023"><a xlink:href="obstacle__data__structure_8cpp.html" target="_top" xlink:title=" ">
<polygon fill="white" stroke="#666666" points="770.16,-453.5 632.16,-453.5 632.16,-423.5 770.16,-423.5 770.16,-453.5"/>
<text text-anchor="start" x="640.16" y="-441.5" font-family="Helvetica,sans-Serif" font-size="10.00">source/particles/obstacle</text>
<text text-anchor="middle" x="701.16" y="-430.5" font-family="Helvetica,sans-Serif" font-size="10.00">_data_structure.cpp</text>
</a>
</g>
</g>
<!-- Node22&#45;&gt;Node23 -->
<g id="edge51_Node000022_Node000023" class="edge">
<title>Node22&#45;&gt;Node23</title>
<g id="a_edge51_Node000022_Node000023"><a xlink:title=" ">
<path fill="none" stroke="#63b8ff" d="M708.38,-484.61C706.68,-474.01 704.85,-462.57 703.46,-453.86"/>
<polygon fill="#63b8ff" stroke="#63b8ff" points="704.97,-485.47 710.01,-494.79 711.88,-484.37 704.97,-485.47"/>
</a>
</g>
</g>
<!-- Node24&#45;&gt;Node8 -->
<g id="edge54_Node000024_Node000008" class="edge">
<title>Node24&#45;&gt;Node8</title>
<g id="a_edge54_Node000024_Node000008"><a xlink:title=" ">
<path fill="none" stroke="#63b8ff" d="M1345.91,-412.01C1356.85,-403.98 1366.97,-394.01 1373.16,-382 1383.75,-361.46 1386.91,-348.57 1373.16,-330 1287.93,-214.89 838.54,-141.4 672.17,-117.78"/>
<polygon fill="#63b8ff" stroke="#63b8ff" points="1343.74,-409.25 1337.44,-417.77 1347.68,-415.04 1343.74,-409.25"/>
</a>
</g>
</g>
<!-- Node24&#45;&gt;Node17 -->
<g id="edge55_Node000024_Node000017" class="edge">
<title>Node24&#45;&gt;Node17</title>
<g id="a_edge55_Node000024_Node000017"><a xlink:title=" ">
<path fill="none" stroke="#63b8ff" d="M1295.16,-407.26C1295.16,-394.96 1295.16,-381.33 1295.16,-371.37"/>
<polygon fill="#63b8ff" stroke="#63b8ff" points="1291.66,-407.6 1295.16,-417.6 1298.66,-407.6 1291.66,-407.6"/>
</a>
</g>
</g>
</g>
</svg>
