<?xml version="1.0" encoding="UTF-8" standalone="no"?>
<!DOCTYPE svg PUBLIC "-//W3C//DTD SVG 1.1//EN"
 "http://www.w3.org/Graphics/SVG/1.1/DTD/svg11.dtd">
<!-- Generated by graphviz version 2.43.0 (0)
 -->
<!-- Title: include/meltpooldg/utilities/dg_generic_convection_diffusion_worker.hpp Pages: 1 -->
<svg width="1099pt" height="280pt"
 viewBox="0.00 0.00 1099.00 280.00" xmlns="http://www.w3.org/2000/svg" xmlns:xlink="http://www.w3.org/1999/xlink">
<g id="graph0" class="graph" transform="scale(1 1) rotate(0) translate(4 276)">
<title>include/meltpooldg/utilities/dg_generic_convection_diffusion_worker.hpp</title>
<!-- Node1 -->
<g id="Node000001" class="node">
<title>Node1</title>
<g id="a_Node000001"><a xlink:title=" ">
<polygon fill="#999999" stroke="#666666" points="597,-272 475,-272 475,-220 597,-220 597,-272"/>
<text text-anchor="start" x="483" y="-260" font-family="Helvetica,sans-Serif" font-size="10.00">include/meltpooldg</text>
<text text-anchor="start" x="483" y="-249" font-family="Helvetica,sans-Serif" font-size="10.00">/utilities/dg_generic</text>
<text text-anchor="start" x="483" y="-238" font-family="Helvetica,sans-Serif" font-size="10.00">_convection_diffusion</text>
<text text-anchor="middle" x="536" y="-227" font-family="Helvetica,sans-Serif" font-size="10.00">_worker.hpp</text>
</a>
</g>
</g>
<!-- Node2 -->
<g id="Node000002" class="node">
<title>Node2</title>
<g id="a_Node000002"><a xlink:href="cutdg__operator_8hpp.html" target="_top" xlink:title=" ">
<polygon fill="white" stroke="#666666" points="287,-184 147,-184 147,-143 287,-143 287,-184"/>
<text text-anchor="start" x="155" y="-172" font-family="Helvetica,sans-Serif" font-size="10.00">include/meltpooldg</text>
<text text-anchor="start" x="155" y="-161" font-family="Helvetica,sans-Serif" font-size="10.00">/compressible_flow/cutdg</text>
<text text-anchor="middle" x="217" y="-150" font-family="Helvetica,sans-Serif" font-size="10.00">_operator.hpp</text>
</a>
</g>
</g>
<!-- Node1&#45;&gt;Node2 -->
<g id="edge1_Node000001_Node000002" class="edge">
<title>Node1&#45;&gt;Node2</title>
<g id="a_edge1_Node000001_Node000002"><a xlink:title=" ">
<path fill="none" stroke="#63b8ff" d="M464.87,-227.05C411.87,-213.67 339.84,-195.5 287.09,-182.19"/>
<polygon fill="#63b8ff" stroke="#63b8ff" points="464.32,-230.52 474.87,-229.57 466.03,-223.73 464.32,-230.52"/>
</a>
</g>
</g>
<!-- Node6 -->
<g id="Node000006" class="node">
<title>Node6</title>
<g id="a_Node000006"><a xlink:href="dg__operator__explicit_8hpp.html" target="_top" xlink:title=" ">
<polygon fill="white" stroke="#666666" points="553.5,-184 428.5,-184 428.5,-143 553.5,-143 553.5,-184"/>
<text text-anchor="start" x="436.5" y="-172" font-family="Helvetica,sans-Serif" font-size="10.00">include/meltpooldg</text>
<text text-anchor="start" x="436.5" y="-161" font-family="Helvetica,sans-Serif" font-size="10.00">/compressible_flow/dg</text>
<text text-anchor="middle" x="491" y="-150" font-family="Helvetica,sans-Serif" font-size="10.00">_operator_explicit.hpp</text>
</a>
</g>
</g>
<!-- Node1&#45;&gt;Node6 -->
<g id="edge6_Node000001_Node000006" class="edge">
<title>Node1&#45;&gt;Node6</title>
<g id="a_edge6_Node000001_Node000006"><a xlink:title=" ">
<path fill="none" stroke="#63b8ff" d="M517.01,-211.02C511.88,-201.85 506.51,-192.24 501.98,-184.15"/>
<polygon fill="#63b8ff" stroke="#63b8ff" points="514.07,-212.95 522.01,-219.97 520.18,-209.53 514.07,-212.95"/>
</a>
</g>
</g>
<!-- Node8 -->
<g id="Node000008" class="node">
<title>Node8</title>
<g id="a_Node000008"><a xlink:href="dg__operator__explicit_8cpp.html" target="_top" xlink:title=" ">
<polygon fill="white" stroke="#666666" points="664.5,-101.5 499.5,-101.5 499.5,-71.5 664.5,-71.5 664.5,-101.5"/>
<text text-anchor="start" x="507.5" y="-89.5" font-family="Helvetica,sans-Serif" font-size="10.00">source/compressible</text>
<text text-anchor="middle" x="582" y="-78.5" font-family="Helvetica,sans-Serif" font-size="10.00">_flow/dg_operator_explicit.cpp</text>
</a>
</g>
</g>
<!-- Node1&#45;&gt;Node8 -->
<g id="edge15_Node000001_Node000008" class="edge">
<title>Node1&#45;&gt;Node8</title>
<g id="a_edge15_Node000001_Node000008"><a xlink:title=" ">
<path fill="none" stroke="#63b8ff" d="M552.08,-210.58C555.68,-202.02 559.25,-192.78 562,-184 570.95,-155.43 577.01,-120.82 579.95,-101.79"/>
<polygon fill="#63b8ff" stroke="#63b8ff" points="548.8,-209.33 548.03,-219.9 555.22,-212.12 548.8,-209.33"/>
</a>
</g>
</g>
<!-- Node9 -->
<g id="Node000009" class="node">
<title>Node9</title>
<g id="a_Node000009"><a xlink:href="multiphase__operator_8hpp.html" target="_top" xlink:title=" ">
<polygon fill="white" stroke="#666666" points="916,-184 748,-184 748,-143 916,-143 916,-184"/>
<text text-anchor="start" x="756" y="-172" font-family="Helvetica,sans-Serif" font-size="10.00">include/meltpooldg</text>
<text text-anchor="start" x="756" y="-161" font-family="Helvetica,sans-Serif" font-size="10.00">/compressible_flow/multiphase</text>
<text text-anchor="middle" x="832" y="-150" font-family="Helvetica,sans-Serif" font-size="10.00">_operator.hpp</text>
</a>
</g>
</g>
<!-- Node1&#45;&gt;Node9 -->
<g id="edge9_Node000001_Node000009" class="edge">
<title>Node1&#45;&gt;Node9</title>
<g id="a_edge9_Node000001_Node000009"><a xlink:title=" ">
<path fill="none" stroke="#63b8ff" d="M606.99,-225.69C653.3,-213.1 713.56,-196.71 760.06,-184.07"/>
<polygon fill="#63b8ff" stroke="#63b8ff" points="606.06,-222.32 597.33,-228.32 607.9,-229.07 606.06,-222.32"/>
</a>
</g>
</g>
<!-- Node3 -->
<g id="Node000003" class="node">
<title>Node3</title>
<g id="a_Node000003"><a xlink:href="cutdg__operation_8hpp.html" target="_top" xlink:title=" ">
<polygon fill="white" stroke="#666666" points="140,-107 0,-107 0,-66 140,-66 140,-107"/>
<text text-anchor="start" x="8" y="-95" font-family="Helvetica,sans-Serif" font-size="10.00">include/meltpooldg</text>
<text text-anchor="start" x="8" y="-84" font-family="Helvetica,sans-Serif" font-size="10.00">/compressible_flow/cutdg</text>
<text text-anchor="middle" x="70" y="-73" font-family="Helvetica,sans-Serif" font-size="10.00">_operation.hpp</text>
</a>
</g>
</g>
<!-- Node2&#45;&gt;Node3 -->
<g id="edge2_Node000002_Node000003" class="edge">
<title>Node2&#45;&gt;Node3</title>
<g id="a_edge2_Node000002_Node000003"><a xlink:title=" ">
<path fill="none" stroke="#63b8ff" d="M169.59,-138.31C149.77,-128.2 127.04,-116.6 108.3,-107.04"/>
<polygon fill="#63b8ff" stroke="#63b8ff" points="168.26,-141.56 178.76,-142.99 171.44,-135.33 168.26,-141.56"/>
</a>
</g>
</g>
<!-- Node4 -->
<g id="Node000004" class="node">
<title>Node4</title>
<g id="a_Node000004"><a xlink:href="cutdg__operation_8cpp.html" target="_top" xlink:title=" ">
<polygon fill="white" stroke="#666666" points="191,-30 47,-30 47,0 191,0 191,-30"/>
<text text-anchor="start" x="55" y="-18" font-family="Helvetica,sans-Serif" font-size="10.00">source/compressible</text>
<text text-anchor="middle" x="119" y="-7" font-family="Helvetica,sans-Serif" font-size="10.00">_flow/cutdg_operation.cpp</text>
</a>
</g>
</g>
<!-- Node2&#45;&gt;Node4 -->
<g id="edge4_Node000002_Node000004" class="edge">
<title>Node2&#45;&gt;Node4</title>
<g id="a_edge4_Node000002_Node000004"><a xlink:title=" ">
<path fill="none" stroke="#63b8ff" d="M197.98,-134.06C177.12,-102.88 144.48,-54.09 128.49,-30.18"/>
<polygon fill="#63b8ff" stroke="#63b8ff" points="195.31,-136.38 203.78,-142.74 201.13,-132.48 195.31,-136.38"/>
</a>
</g>
</g>
<!-- Node5 -->
<g id="Node000005" class="node">
<title>Node5</title>
<g id="a_Node000005"><a xlink:href="cutdg__operator_8cpp.html" target="_top" xlink:title=" ">
<polygon fill="white" stroke="#666666" points="334,-101.5 196,-101.5 196,-71.5 334,-71.5 334,-101.5"/>
<text text-anchor="start" x="204" y="-89.5" font-family="Helvetica,sans-Serif" font-size="10.00">source/compressible</text>
<text text-anchor="middle" x="265" y="-78.5" font-family="Helvetica,sans-Serif" font-size="10.00">_flow/cutdg_operator.cpp</text>
</a>
</g>
</g>
<!-- Node2&#45;&gt;Node5 -->
<g id="edge5_Node000002_Node000005" class="edge">
<title>Node2&#45;&gt;Node5</title>
<g id="a_edge5_Node000002_Node000005"><a xlink:title=" ">
<path fill="none" stroke="#63b8ff" d="M235.07,-134.26C242.14,-123.21 249.94,-111.02 255.81,-101.86"/>
<polygon fill="#63b8ff" stroke="#63b8ff" points="232.05,-132.49 229.61,-142.79 237.95,-136.26 232.05,-132.49"/>
</a>
</g>
</g>
<!-- Node3&#45;&gt;Node4 -->
<g id="edge3_Node000003_Node000004" class="edge">
<title>Node3&#45;&gt;Node4</title>
<g id="a_edge3_Node000003_Node000004"><a xlink:title=" ">
<path fill="none" stroke="#63b8ff" d="M89.81,-57.4C96.45,-47.99 103.56,-37.9 109.1,-30.04"/>
<polygon fill="#63b8ff" stroke="#63b8ff" points="86.81,-55.58 83.91,-65.77 92.53,-59.61 86.81,-55.58"/>
</a>
</g>
</g>
<!-- Node7 -->
<g id="Node000007" class="node">
<title>Node7</title>
<g id="a_Node000007"><a xlink:href="dg__operation_8cpp.html" target="_top" xlink:title=" ">
<polygon fill="white" stroke="#666666" points="481.5,-101.5 352.5,-101.5 352.5,-71.5 481.5,-71.5 481.5,-101.5"/>
<text text-anchor="start" x="360.5" y="-89.5" font-family="Helvetica,sans-Serif" font-size="10.00">source/compressible</text>
<text text-anchor="middle" x="417" y="-78.5" font-family="Helvetica,sans-Serif" font-size="10.00">_flow/dg_operation.cpp</text>
</a>
</g>
</g>
<!-- Node6&#45;&gt;Node7 -->
<g id="edge7_Node000006_Node000007" class="edge">
<title>Node6&#45;&gt;Node7</title>
<g id="a_edge7_Node000006_Node000007"><a xlink:title=" ">
<path fill="none" stroke="#63b8ff" d="M464.43,-135.57C453.2,-124.18 440.57,-111.39 431.17,-101.86"/>
<polygon fill="#63b8ff" stroke="#63b8ff" points="462.04,-138.13 471.56,-142.79 467.03,-133.22 462.04,-138.13"/>
</a>
</g>
</g>
<!-- Node6&#45;&gt;Node8 -->
<g id="edge8_Node000006_Node000008" class="edge">
<title>Node6&#45;&gt;Node8</title>
<g id="a_edge8_Node000006_Node000008"><a xlink:title=" ">
<path fill="none" stroke="#63b8ff" d="M522.95,-136.17C537.05,-124.55 553.07,-111.34 564.86,-101.63"/>
<polygon fill="#63b8ff" stroke="#63b8ff" points="520.4,-133.73 514.91,-142.79 524.85,-139.14 520.4,-133.73"/>
</a>
</g>
</g>
<!-- Node10 -->
<g id="Node000010" class="node">
<title>Node10</title>
<g id="a_Node000010"><a xlink:href="multiphase__operation_8hpp.html" target="_top" xlink:title=" ">
<polygon fill="white" stroke="#666666" points="851,-107 683,-107 683,-66 851,-66 851,-107"/>
<text text-anchor="start" x="691" y="-95" font-family="Helvetica,sans-Serif" font-size="10.00">include/meltpooldg</text>
<text text-anchor="start" x="691" y="-84" font-family="Helvetica,sans-Serif" font-size="10.00">/compressible_flow/multiphase</text>
<text text-anchor="middle" x="767" y="-73" font-family="Helvetica,sans-Serif" font-size="10.00">_operation.hpp</text>
</a>
</g>
</g>
<!-- Node9&#45;&gt;Node10 -->
<g id="edge10_Node000009_Node000010" class="edge">
<title>Node9&#45;&gt;Node10</title>
<g id="a_edge10_Node000009_Node000010"><a xlink:title=" ">
<path fill="none" stroke="#63b8ff" d="M808.37,-135.23C800.29,-125.91 791.41,-115.67 783.96,-107.07"/>
<polygon fill="#63b8ff" stroke="#63b8ff" points="805.73,-137.53 814.92,-142.79 811.02,-132.95 805.73,-137.53"/>
</a>
</g>
</g>
<!-- Node11 -->
<g id="Node000011" class="node">
<title>Node11</title>
<g id="a_Node000011"><a xlink:href="multiphase__operation_8cpp.html" target="_top" xlink:title=" ">
<polygon fill="white" stroke="#666666" points="918,-30 746,-30 746,0 918,0 918,-30"/>
<text text-anchor="start" x="754" y="-18" font-family="Helvetica,sans-Serif" font-size="10.00">source/compressible</text>
<text text-anchor="middle" x="832" y="-7" font-family="Helvetica,sans-Serif" font-size="10.00">_flow/multiphase_operation.cpp</text>
</a>
</g>
</g>
<!-- Node9&#45;&gt;Node11 -->
<g id="edge13_Node000009_Node000011" class="edge">
<title>Node9&#45;&gt;Node11</title>
<g id="a_edge13_Node000009_Node000011"><a xlink:title=" ">
<path fill="none" stroke="#63b8ff" d="M860.81,-135.31C867.79,-126.97 874.3,-117.26 878,-107 884.18,-89.86 884.62,-82.98 878,-66 872.43,-51.71 860.65,-39.04 850.41,-30.03"/>
<polygon fill="#63b8ff" stroke="#63b8ff" points="858.11,-133.07 854.05,-142.86 863.33,-137.74 858.11,-133.07"/>
</a>
</g>
</g>
<!-- Node12 -->
<g id="Node000012" class="node">
<title>Node12</title>
<g id="a_Node000012"><a xlink:href="multiphase__operator_8cpp.html" target="_top" xlink:title=" ">
<polygon fill="white" stroke="#666666" points="1091,-101.5 925,-101.5 925,-71.5 1091,-71.5 1091,-101.5"/>
<text text-anchor="start" x="933" y="-89.5" font-family="Helvetica,sans-Serif" font-size="10.00">source/compressible</text>
<text text-anchor="middle" x="1008" y="-78.5" font-family="Helvetica,sans-Serif" font-size="10.00">_flow/multiphase_operator.cpp</text>
</a>
</g>
</g>
<!-- Node9&#45;&gt;Node12 -->
<g id="edge14_Node000009_Node000012" class="edge">
<title>Node9&#45;&gt;Node12</title>
<g id="a_edge14_Node000009_Node000012"><a xlink:title=" ">
<path fill="none" stroke="#63b8ff" d="M887.31,-138.93C916.1,-126.66 950.32,-112.08 974.95,-101.58"/>
<polygon fill="#63b8ff" stroke="#63b8ff" points="885.61,-135.85 877.78,-142.99 888.35,-142.29 885.61,-135.85"/>
</a>
</g>
</g>
<!-- Node10&#45;&gt;Node10 -->
<g id="edge11_Node000010_Node000010" class="edge">
<title>Node10&#45;&gt;Node10</title>
<g id="a_edge11_Node000010_Node000010"><a xlink:title=" ">
<path fill="none" stroke="#63b8ff" d="M860.75,-95.29C865.92,-93.15 869,-90.22 869,-86.5 869,-80.83 861.85,-76.99 851.03,-75"/>
<polygon fill="#63b8ff" stroke="#63b8ff" points="859.72,-91.95 851.03,-98 861.6,-98.69 859.72,-91.95"/>
</a>
</g>
</g>
<!-- Node10&#45;&gt;Node11 -->
<g id="edge12_Node000010_Node000011" class="edge">
<title>Node10&#45;&gt;Node11</title>
<g id="a_edge12_Node000010_Node000011"><a xlink:title=" ">
<path fill="none" stroke="#63b8ff" d="M792.47,-58.26C801.5,-48.61 811.29,-38.14 818.87,-30.04"/>
<polygon fill="#63b8ff" stroke="#63b8ff" points="789.73,-56.08 785.45,-65.77 794.84,-60.86 789.73,-56.08"/>
</a>
</g>
</g>
</g>
</svg>
