<?xml version="1.0" encoding="UTF-8" standalone="no"?>
<!DOCTYPE svg PUBLIC "-//W3C//DTD SVG 1.1//EN"
 "http://www.w3.org/Graphics/SVG/1.1/DTD/svg11.dtd">
<!-- Generated by graphviz version 2.43.0 (0)
 -->
<!-- Title: include/meltpooldg/heat Pages: 1 -->
<!--zoomable 133 -->

<svg id="main" version="1.1" xmlns="http://www.w3.org/2000/svg" xmlns:xlink="http://www.w3.org/1999/xlink" xml:space="preserve" onload="init(evt)">
<style type="text/css"><![CDATA[
.node, .edge {opacity: 0.7;}
.node.selected, .edge.selected {opacity: 1;}
.edge:hover path { stroke: red; }
.edge:hover polygon { stroke: red; fill: red; }
]]></style>

<defs>
  <circle id="rim" cx="0" cy="0" r="7"/>
  <circle id="rim2" cx="0" cy="0" r="3.5"/>
  <g id="zoomPlus">
    <use xlink:href="#rim" fill="#404040"><set attributeName="fill" to="#808080" begin="zoomplus.mouseover" end="zoomplus.mouseout"/></use>
    <path d="M-4,0h8M0,-4v8" fill="none" stroke="white" stroke-width="1.5" pointer-events="none"/>
  </g>
  <g id="zoomMin">
    <use xlink:href="#rim" fill="#404040"><set attributeName="fill" to="#808080" begin="zoomminus.mouseover" end="zoomminus.mouseout"/></use>
    <path d="M-4,0h8" fill="none" stroke="white" stroke-width="1.5" pointer-events="none"/>
  </g>
  <g id="arrowUp" transform="translate(30 24)">
    <use xlink:href="#rim"/>
    <path pointer-events="none" fill="none" stroke="white" stroke-width="1.5" d="M0,-3.0v7 M-2.5,-0.5L0,-3.0L2.5,-0.5"/>
  </g>
  <g id="arrowRight" transform="rotate(90) translate(36 -43)">
    <use xlink:href="#rim"/>
    <path pointer-events="none" fill="none" stroke="white" stroke-width="1.5" d="M0,-3.0v7 M-2.5,-0.5L0,-3.0L2.5,-0.5"/>
  </g>
  <g id="arrowDown" transform="rotate(180) translate(-30 -48)">
    <use xlink:href="#rim"/>
    <path pointer-events="none" fill="none" stroke="white" stroke-width="1.5" d="M0,-3.0v7 M-2.5,-0.5L0,-3.0L2.5,-0.5"/>
  </g>
  <g id="arrowLeft" transform="rotate(270) translate(-36 17)">
    <use xlink:href="#rim"/>
    <path pointer-events="none" fill="none" stroke="white" stroke-width="1.5" d="M0,-3.0v7 M-2.5,-0.5L0,-3.0L2.5,-0.5"/>
  </g>
  <g id="resetDef">
    <use xlink:href="#rim2" fill="#404040"><set attributeName="fill" to="#808080" begin="reset.mouseover" end="reset.mouseout"/></use>
  </g>
</defs>
<script type="application/ecmascript">
var viewWidth = 845;
var viewHeight = 133;
var sectionId = 'dynsection-0';
</script>
<script type="application/ecmascript" xlink:href="svg.min.js"/>
<svg id="graph" class="graph">
<g id="viewport">
<title>include/meltpooldg/heat</title>
<g id="clust1" class="cluster">
<title>clusterdir_8f99bfadfdcbaa65d0da694c66c754ed</title>
<g id="a_clust1"><a xlink:href="dir_8f99bfadfdcbaa65d0da694c66c754ed.html" target="_top" xlink:title="meltpooldg">
<polygon fill="#edf0f7" stroke="#7f7f7f" stroke-dasharray="5,2" points="8,-8 8,-117 829,-117 829,-8 8,-8"/>
<text text-anchor="middle" x="418.5" y="-105" font-family="Helvetica,sans-Serif" font-size="10.00">meltpooldg</text>
</a>
</g>
</g>
<!-- dir_20597749ce1f45b6168fd991693c8c45 -->
<g id="node1" class="node">
<title>dir_20597749ce1f45b6168fd991693c8c45</title>
<g id="a_node1"><a xlink:href="dir_20597749ce1f45b6168fd991693c8c45.html" target="_top" xlink:title="phase_change">
<polygon fill="#a2b4d6" stroke="#404040" points="102,-35 16,-35 16,-16 102,-16 102,-35"/>
<text text-anchor="middle" x="59" y="-23" font-family="Helvetica,sans-Serif" font-size="10.00">phase_change</text>
</a>
</g>
</g>
<!-- dir_270e08c14b917b5512a0af8e51711095 -->
<g id="node2" class="node">
<title>dir_270e08c14b917b5512a0af8e51711095</title>
<g id="a_node2"><a xlink:href="dir_270e08c14b917b5512a0af8e51711095.html" target="_top" xlink:title="post_processing">
<polygon fill="#a2b4d6" stroke="#404040" points="215.5,-35 120.5,-35 120.5,-16 215.5,-16 215.5,-35"/>
<text text-anchor="middle" x="168" y="-23" font-family="Helvetica,sans-Serif" font-size="10.00">post_processing</text>
</a>
</g>
</g>
<!-- dir_33f297a483115a9e2addf470c6b064fb -->
<g id="node3" class="node">
<title>dir_33f297a483115a9e2addf470c6b064fb</title>
<g id="a_node3"><a xlink:href="dir_33f297a483115a9e2addf470c6b064fb.html" target="_top" xlink:title="utilities">
<polygon fill="#a2b4d6" stroke="#404040" points="286.5,-35 233.5,-35 233.5,-16 286.5,-16 286.5,-35"/>
<text text-anchor="middle" x="260" y="-23" font-family="Helvetica,sans-Serif" font-size="10.00">utilities</text>
</a>
</g>
</g>
<!-- dir_3d83c62cc94644fc7d3192423a0d8c24 -->
<g id="node4" class="node">
<title>dir_3d83c62cc94644fc7d3192423a0d8c24</title>
<g id="a_node4"><a xlink:href="dir_3d83c62cc94644fc7d3192423a0d8c24.html" target="_top" xlink:title="cut">
<polygon fill="#a2b4d6" stroke="#404040" points="337,-35 305,-35 305,-16 337,-16 337,-35"/>
<text text-anchor="middle" x="321" y="-23" font-family="Helvetica,sans-Serif" font-size="10.00">cut</text>
</a>
</g>
</g>
<!-- dir_7408abf3d1459402edeb1922a4712e77 -->
<g id="node5" class="node">
<title>dir_7408abf3d1459402edeb1922a4712e77</title>
<g id="a_node5"><a xlink:href="dir_7408abf3d1459402edeb1922a4712e77.html" target="_top" xlink:title="linear_algebra">
<polygon fill="#a2b4d6" stroke="#404040" points="441,-35 355,-35 355,-16 441,-16 441,-35"/>
<text text-anchor="middle" x="398" y="-23" font-family="Helvetica,sans-Serif" font-size="10.00">linear_algebra</text>
</a>
</g>
</g>
<!-- dir_d8c980f69678bb74c2eb96a617637411 -->
<g id="node6" class="node">
<title>dir_d8c980f69678bb74c2eb96a617637411</title>
<g id="a_node6"><a xlink:href="dir_d8c980f69678bb74c2eb96a617637411.html" target="_top" xlink:title="level_set">
<polygon fill="#a2b4d6" stroke="#404040" points="520.5,-35 459.5,-35 459.5,-16 520.5,-16 520.5,-35"/>
<text text-anchor="middle" x="490" y="-23" font-family="Helvetica,sans-Serif" font-size="10.00">level_set</text>
</a>
</g>
</g>
<!-- dir_e210c3716260b17f672da194eece00e5 -->
<g id="node7" class="node">
<title>dir_e210c3716260b17f672da194eece00e5</title>
<g id="a_node7"><a xlink:href="dir_e210c3716260b17f672da194eece00e5.html" target="_top" xlink:title="time_integration">
<polygon fill="#a2b4d6" stroke="#404040" points="637,-35 539,-35 539,-16 637,-16 637,-35"/>
<text text-anchor="middle" x="588" y="-23" font-family="Helvetica,sans-Serif" font-size="10.00">time_integration</text>
</a>
</g>
</g>
<!-- dir_f103a4bf208ee4357eeb452eadcc1375 -->
<g id="node8" class="node">
<title>dir_f103a4bf208ee4357eeb452eadcc1375</title>
<g id="a_node8"><a xlink:href="dir_f103a4bf208ee4357eeb452eadcc1375.html" target="_top" xlink:title="radiative_transport">
<polygon fill="#a2b4d6" stroke="#404040" points="765,-35 655,-35 655,-16 765,-16 765,-35"/>
<text text-anchor="middle" x="710" y="-23" font-family="Helvetica,sans-Serif" font-size="10.00">radiative_transport</text>
</a>
</g>
</g>
<!-- dir_fe928e0a3314c1b06e0294715d23dc51 -->
<g id="node9" class="node">
<title>dir_fe928e0a3314c1b06e0294715d23dc51</title>
<g id="a_node9"><a xlink:href="dir_fe928e0a3314c1b06e0294715d23dc51.html" target="_top" xlink:title="core">
<polygon fill="#a2b4d6" stroke="#404040" points="821,-35 783,-35 783,-16 821,-16 821,-35"/>
<text text-anchor="middle" x="802" y="-23" font-family="Helvetica,sans-Serif" font-size="10.00">core</text>
</a>
</g>
</g>
<!-- dir_8fea59914ed62cb03361854cdbc2abdc -->
<g id="node10" class="node">
<title>dir_8fea59914ed62cb03361854cdbc2abdc</title>
<g id="a_node10"><a xlink:href="dir_8fea59914ed62cb03361854cdbc2abdc.html" target="_top" xlink:title="heat">
<polygon fill="#edf0f7" stroke="#404040" stroke-width="2" points="417,-90 379,-90 379,-71 417,-71 417,-90"/>
<text text-anchor="middle" x="398" y="-78" font-family="Helvetica,sans-Serif" font-size="10.00">heat</text>
</a>
</g>
</g>
<!-- dir_8fea59914ed62cb03361854cdbc2abdc&#45;&gt;dir_20597749ce1f45b6168fd991693c8c45 -->
<g id="edge1" class="edge">
<title>dir_8fea59914ed62cb03361854cdbc2abdc&#45;&gt;dir_20597749ce1f45b6168fd991693c8c45</title>
<g id="a_edge1"><a xlink:href="dir_000021_000043.html" target="_top">
<path fill="none" stroke="#63b8ff" d="M378.92,-76.56C332.96,-69.48 212.51,-50.88 112,-35 111.9,-34.98 111.8,-34.97 111.7,-34.95"/>
<polygon fill="#63b8ff" stroke="#63b8ff" points="112.52,-31.54 102.1,-33.43 111.42,-38.45 112.52,-31.54"/>
</a>
</g>
<g id="a_edge1&#45;headlabel"><a xlink:href="dir_000021_000043.html" target="_top" xlink:title="6">
<text text-anchor="middle" x="116.52" y="-26.8" font-family="Helvetica,sans-Serif" font-size="10.00" fill="#63b8ff">6</text>
</a>
</g>
</g>
<!-- dir_8fea59914ed62cb03361854cdbc2abdc&#45;&gt;dir_270e08c14b917b5512a0af8e51711095 -->
<g id="edge2" class="edge">
<title>dir_8fea59914ed62cb03361854cdbc2abdc&#45;&gt;dir_270e08c14b917b5512a0af8e51711095</title>
<g id="a_edge2"><a xlink:href="dir_000021_000045.html" target="_top">
<path fill="none" stroke="#63b8ff" d="M378.79,-75.07C343.03,-66.83 265.34,-48.93 214.92,-37.31"/>
<polygon fill="#63b8ff" stroke="#63b8ff" points="215.44,-33.84 204.91,-35.01 213.87,-40.66 215.44,-33.84"/>
</a>
</g>
<g id="a_edge2&#45;headlabel"><a xlink:href="dir_000021_000045.html" target="_top" xlink:title="5">
<text text-anchor="middle" x="219.58" y="-29.38" font-family="Helvetica,sans-Serif" font-size="10.00" fill="#63b8ff">5</text>
</a>
</g>
</g>
<!-- dir_8fea59914ed62cb03361854cdbc2abdc&#45;&gt;dir_33f297a483115a9e2addf470c6b064fb -->
<g id="edge3" class="edge">
<title>dir_8fea59914ed62cb03361854cdbc2abdc&#45;&gt;dir_33f297a483115a9e2addf470c6b064fb</title>
<g id="a_edge3"><a xlink:href="dir_000021_000074.html" target="_top">
<path fill="none" stroke="#63b8ff" d="M378.81,-72.13C356.25,-63.47 318.49,-48.96 291.59,-38.63"/>
<polygon fill="#63b8ff" stroke="#63b8ff" points="292.81,-35.35 282.22,-35.03 290.3,-41.89 292.81,-35.35"/>
</a>
</g>
<g id="a_edge3&#45;headlabel"><a xlink:href="dir_000021_000074.html" target="_top" xlink:title="6">
<text text-anchor="middle" x="297.18" y="-31.49" font-family="Helvetica,sans-Serif" font-size="10.00" fill="#63b8ff">6</text>
</a>
</g>
</g>
<!-- dir_8fea59914ed62cb03361854cdbc2abdc&#45;&gt;dir_3d83c62cc94644fc7d3192423a0d8c24 -->
<g id="edge4" class="edge">
<title>dir_8fea59914ed62cb03361854cdbc2abdc&#45;&gt;dir_3d83c62cc94644fc7d3192423a0d8c24</title>
<g id="a_edge4"><a xlink:href="dir_000021_000011.html" target="_top">
<path fill="none" stroke="#63b8ff" d="M385.63,-70.98C373.91,-62.92 356.08,-50.65 342.11,-41.03"/>
<polygon fill="#63b8ff" stroke="#63b8ff" points="343.82,-37.96 333.6,-35.17 339.85,-43.72 343.82,-37.96"/>
</a>
</g>
<g id="a_edge4&#45;headlabel"><a xlink:href="dir_000021_000011.html" target="_top" xlink:title="2">
<text text-anchor="middle" x="348.39" y="-35.16" font-family="Helvetica,sans-Serif" font-size="10.00" fill="#63b8ff">2</text>
</a>
</g>
</g>
<!-- dir_8fea59914ed62cb03361854cdbc2abdc&#45;&gt;dir_7408abf3d1459402edeb1922a4712e77 -->
<g id="edge5" class="edge">
<title>dir_8fea59914ed62cb03361854cdbc2abdc&#45;&gt;dir_7408abf3d1459402edeb1922a4712e77</title>
<g id="a_edge5"><a xlink:href="dir_000021_000028.html" target="_top">
<path fill="none" stroke="#63b8ff" d="M398,-70.75C398,-63.8 398,-53.85 398,-45.13"/>
<polygon fill="#63b8ff" stroke="#63b8ff" points="401.5,-45.09 398,-35.09 394.5,-45.09 401.5,-45.09"/>
</a>
</g>
<g id="a_edge5&#45;headlabel"><a xlink:href="dir_000021_000028.html" target="_top" xlink:title="8">
<text text-anchor="middle" x="404.34" y="-46.18" font-family="Helvetica,sans-Serif" font-size="10.00" fill="#63b8ff">8</text>
</a>
</g>
</g>
<!-- dir_8fea59914ed62cb03361854cdbc2abdc&#45;&gt;dir_d8c980f69678bb74c2eb96a617637411 -->
<g id="edge6" class="edge">
<title>dir_8fea59914ed62cb03361854cdbc2abdc&#45;&gt;dir_d8c980f69678bb74c2eb96a617637411</title>
<g id="a_edge6"><a xlink:href="dir_000021_000026.html" target="_top">
<path fill="none" stroke="#63b8ff" d="M412.78,-70.98C427.18,-62.69 449.31,-49.94 466.19,-40.22"/>
<polygon fill="#63b8ff" stroke="#63b8ff" points="468.03,-43.19 474.95,-35.17 464.54,-37.13 468.03,-43.19"/>
</a>
</g>
<g id="a_edge6&#45;headlabel"><a xlink:href="dir_000021_000026.html" target="_top" xlink:title="9">
<text text-anchor="middle" x="466.33" y="-44.95" font-family="Helvetica,sans-Serif" font-size="10.00" fill="#63b8ff">9</text>
</a>
</g>
</g>
<!-- dir_8fea59914ed62cb03361854cdbc2abdc&#45;&gt;dir_e210c3716260b17f672da194eece00e5 -->
<g id="edge7" class="edge">
<title>dir_8fea59914ed62cb03361854cdbc2abdc&#45;&gt;dir_e210c3716260b17f672da194eece00e5</title>
<g id="a_edge7"><a xlink:href="dir_000021_000065.html" target="_top">
<path fill="none" stroke="#63b8ff" d="M417.26,-74.13C447.7,-65.64 507.58,-48.93 547.71,-37.74"/>
<polygon fill="#63b8ff" stroke="#63b8ff" points="548.76,-41.08 557.46,-35.02 546.88,-34.34 548.76,-41.08"/>
</a>
</g>
<g id="a_edge7&#45;headlabel"><a xlink:href="dir_000021_000065.html" target="_top" xlink:title="4">
<text text-anchor="middle" x="546.06" y="-42.28" font-family="Helvetica,sans-Serif" font-size="10.00" fill="#63b8ff">4</text>
</a>
</g>
</g>
<!-- dir_8fea59914ed62cb03361854cdbc2abdc&#45;&gt;dir_f103a4bf208ee4357eeb452eadcc1375 -->
<g id="edge8" class="edge">
<title>dir_8fea59914ed62cb03361854cdbc2abdc&#45;&gt;dir_f103a4bf208ee4357eeb452eadcc1375</title>
<g id="a_edge8"><a xlink:href="dir_000021_000051.html" target="_top">
<path fill="none" stroke="#63b8ff" d="M417.05,-76.26C462.32,-68.57 577.92,-48.94 649.63,-36.76"/>
<polygon fill="#63b8ff" stroke="#63b8ff" points="650.61,-40.14 659.88,-35.01 649.43,-33.24 650.61,-40.14"/>
</a>
</g>
<g id="a_edge8&#45;headlabel"><a xlink:href="dir_000021_000051.html" target="_top" xlink:title="2">
<text text-anchor="middle" x="647.54" y="-41.04" font-family="Helvetica,sans-Serif" font-size="10.00" fill="#63b8ff">2</text>
</a>
</g>
</g>
<!-- dir_8fea59914ed62cb03361854cdbc2abdc&#45;&gt;dir_fe928e0a3314c1b06e0294715d23dc51 -->
<g id="edge9" class="edge">
<title>dir_8fea59914ed62cb03361854cdbc2abdc&#45;&gt;dir_fe928e0a3314c1b06e0294715d23dc51</title>
<g id="a_edge9"><a xlink:href="dir_000021_000009.html" target="_top">
<path fill="none" stroke="#63b8ff" d="M417.37,-78.42C471.91,-75.13 631.49,-63.75 772.7,-34.91"/>
<polygon fill="#63b8ff" stroke="#63b8ff" points="773.76,-38.27 782.84,-32.81 772.33,-31.41 773.76,-38.27"/>
</a>
</g>
<g id="a_edge9&#45;headlabel"><a xlink:href="dir_000021_000009.html" target="_top" xlink:title="27">
<text text-anchor="middle" x="770.82" y="-39.28" font-family="Helvetica,sans-Serif" font-size="10.00" fill="#63b8ff">27</text>
</a>
</g>
</g>
</g>
</svg>

<g id="navigator" transform="translate(0 0)" fill="#404254">
  <rect fill="#f2f5e9" fill-opacity="0.5" stroke="#606060" stroke-width=".5" x="0" y="0" width="60" height="60"/>
  <use id="zoomplus" xlink:href="#zoomPlus" x="17" y="9" onmousedown="handleZoom(evt,'in')"/>
  <use id="zoomminus" xlink:href="#zoomMin" x="42" y="9" onmousedown="handleZoom(evt,'out')"/>
  <use id="reset" xlink:href="#resetDef" x="30" y="36" onmousedown="handleReset()"/>
   <use id="arrowup" xlink:href="#arrowUp" x="0" y="0" onmousedown="handlePan(0,-1)"/>
  <use id="arrowright" xlink:href="#arrowRight" x="0" y="0" onmousedown="handlePan(1,0)"/>
  <use id="arrowdown" xlink:href="#arrowDown" x="0" y="0" onmousedown="handlePan(0,1)"/>
  <use id="arrowleft" xlink:href="#arrowLeft" x="0" y="0" onmousedown="handlePan(-1,0)"/>
</g>
<svg viewBox="0 0 15 15" width="100%" height="30px" preserveAspectRatio="xMaxYMin meet">
 <g id="arrow_out" transform="scale(0.3 0.3)">
  <a xlink:href="dir_8fea59914ed62cb03361854cdbc2abdc_dep_org.svg" target="_base">
   <rect id="button" ry="5" rx="5" y="6" x="6" height="38" width="38"
        fill="#f2f5e9" fill-opacity="0.5" stroke="#606060" stroke-width="1.0"/>
   <path id="arrow"
     d="M 11.500037,31.436501 C 11.940474,20.09759 22.043105,11.32322 32.158766,21.979434 L 37.068811,17.246167 C 37.068811,17.246167 37.088388,32 37.088388,32 L 22.160133,31.978069 C 22.160133,31.978069 26.997745,27.140456 26.997745,27.140456 C 18.528582,18.264221 13.291696,25.230495 11.500037,31.436501 z"
     style="fill:#404040;"/>
  </a>
 </g>
</svg>

<style type='text/css'>
<![CDATA[
[data-mouse-over-selected='false'] { opacity: 0.7; }
[data-mouse-over-selected='true']  { opacity: 1.0; }
]]>
</style>
<script type="application/ecmascript"><![CDATA[
document.addEventListener('DOMContentLoaded', (event) => {
  highlightEdges();
  highlightAdjacentNodes();
});
]]></script>
</svg>
