<?xml version="1.0" encoding="UTF-8" standalone="no"?>
<!DOCTYPE svg PUBLIC "-//W3C//DTD SVG 1.1//EN"
 "http://www.w3.org/Graphics/SVG/1.1/DTD/svg11.dtd">
<!-- Generated by graphviz version 2.43.0 (0)
 -->
<!-- Title: source Pages: 1 -->
<svg width="1391pt" height="100pt"
 viewBox="0.00 0.00 1391.00 99.73" xmlns="http://www.w3.org/2000/svg" xmlns:xlink="http://www.w3.org/1999/xlink">
<g id="graph0" class="graph" transform="scale(1 1) rotate(0) translate(4 95.73)">
<title>source</title>
<g id="clust1" class="cluster">
<title>clusterdir_b2f33c71d4aa5e7af42a1ca61ff5af1b</title>
<g id="a_clust1"><a xlink:href="dir_b2f33c71d4aa5e7af42a1ca61ff5af1b.html" target="_top">
<polygon fill="#edf0f7" stroke="#404040" stroke-width="2" points="8,-48.73 8,-83.73 1375,-83.73 1375,-48.73 8,-48.73"/>
</a>
</g>
</g>
<!-- dir_b2f33c71d4aa5e7af42a1ca61ff5af1b -->
<g id="node1" class="node">
<title>dir_b2f33c71d4aa5e7af42a1ca61ff5af1b</title>
<text text-anchor="middle" x="1342" y="-63.73" font-family="Helvetica,sans-Serif" font-size="10.00">source</text>
</g>
<!-- dir_5319b07d9627009b31e563ff00c74b58 -->
<g id="node2" class="node">
<title>dir_5319b07d9627009b31e563ff00c74b58</title>
<g id="a_node2"><a xlink:href="dir_5319b07d9627009b31e563ff00c74b58.html" target="_top" xlink:title="compressible_flow">
<polygon fill="#a2b4d6" stroke="#404040" points="1299.5,-75.73 1192.5,-75.73 1192.5,-56.73 1299.5,-56.73 1299.5,-75.73"/>
<text text-anchor="middle" x="1246" y="-63.73" font-family="Helvetica,sans-Serif" font-size="10.00">compressible_flow</text>
</a>
</g>
</g>
<!-- dir_d44c64559bbebec7f509842c48db8b23 -->
<g id="node16" class="node">
<title>dir_d44c64559bbebec7f509842c48db8b23</title>
<g id="a_node16"><a xlink:href="dir_d44c64559bbebec7f509842c48db8b23.html" target="_top" xlink:title="include">
<polygon fill="#edf0f7" stroke="red" points="743,-20.73 691,-20.73 691,-1.73 743,-1.73 743,-20.73"/>
<text text-anchor="middle" x="717" y="-8.73" font-family="Helvetica,sans-Serif" font-size="10.00">include</text>
</a>
</g>
</g>
<!-- dir_5319b07d9627009b31e563ff00c74b58&#45;&gt;dir_d44c64559bbebec7f509842c48db8b23 -->
<g id="edge1" class="edge">
<title>dir_5319b07d9627009b31e563ff00c74b58&#45;&gt;dir_d44c64559bbebec7f509842c48db8b23</title>
<g id="a_edge1"><a xlink:href="dir_000008_000023.html" target="_top">
<path fill="none" stroke="#63b8ff" d="M1217.69,-56.67C1206.92,-53.72 1194.48,-50.67 1183,-48.73 1024.61,-22 832.56,-14.79 753.59,-12.89"/>
<polygon fill="#63b8ff" stroke="#63b8ff" points="753.29,-9.38 743.22,-12.65 753.14,-16.38 753.29,-9.38"/>
</a>
</g>
<g id="a_edge1&#45;headlabel"><a xlink:href="dir_000008_000023.html" target="_top" xlink:title="86">
<text text-anchor="middle" x="756.95" y="-4.12" font-family="Helvetica,sans-Serif" font-size="10.00" fill="#63b8ff">86</text>
</a>
</g>
</g>
<!-- dir_0d27ce74e9bd514c31e1d63efab6b388 -->
<g id="node3" class="node">
<title>dir_0d27ce74e9bd514c31e1d63efab6b388</title>
<g id="a_node3"><a xlink:href="dir_0d27ce74e9bd514c31e1d63efab6b388.html" target="_top" xlink:title="core">
<polygon fill="#a2b4d6" stroke="#404040" points="1174,-75.73 1136,-75.73 1136,-56.73 1174,-56.73 1174,-75.73"/>
<text text-anchor="middle" x="1155" y="-63.73" font-family="Helvetica,sans-Serif" font-size="10.00">core</text>
</a>
</g>
</g>
<!-- dir_0d27ce74e9bd514c31e1d63efab6b388&#45;&gt;dir_d44c64559bbebec7f509842c48db8b23 -->
<g id="edge2" class="edge">
<title>dir_0d27ce74e9bd514c31e1d63efab6b388&#45;&gt;dir_d44c64559bbebec7f509842c48db8b23</title>
<g id="a_edge2"><a xlink:href="dir_000010_000023.html" target="_top">
<path fill="none" stroke="#63b8ff" d="M1143.02,-56.58C1138.26,-53.58 1132.59,-50.52 1127,-48.73 1057.85,-26.53 840.01,-16.57 753.21,-13.41"/>
<polygon fill="#63b8ff" stroke="#63b8ff" points="753.18,-9.91 743.06,-13.05 752.93,-16.9 753.18,-9.91"/>
</a>
</g>
<g id="a_edge2&#45;headlabel"><a xlink:href="dir_000010_000023.html" target="_top" xlink:title="9">
<text text-anchor="middle" x="756.87" y="-4.7" font-family="Helvetica,sans-Serif" font-size="10.00" fill="#63b8ff">9</text>
</a>
</g>
</g>
<!-- dir_1c49511abafb6c60befb76a1cec97858 -->
<g id="node4" class="node">
<title>dir_1c49511abafb6c60befb76a1cec97858</title>
<g id="a_node4"><a xlink:href="dir_1c49511abafb6c60befb76a1cec97858.html" target="_top" xlink:title="cut">
<polygon fill="#a2b4d6" stroke="#404040" points="1118,-75.73 1086,-75.73 1086,-56.73 1118,-56.73 1118,-75.73"/>
<text text-anchor="middle" x="1102" y="-63.73" font-family="Helvetica,sans-Serif" font-size="10.00">cut</text>
</a>
</g>
</g>
<!-- dir_1c49511abafb6c60befb76a1cec97858&#45;&gt;dir_d44c64559bbebec7f509842c48db8b23 -->
<g id="edge3" class="edge">
<title>dir_1c49511abafb6c60befb76a1cec97858&#45;&gt;dir_d44c64559bbebec7f509842c48db8b23</title>
<g id="a_edge3"><a xlink:href="dir_000012_000023.html" target="_top">
<path fill="none" stroke="#63b8ff" d="M1091.41,-56.61C1087.18,-53.61 1082.09,-50.54 1077,-48.73 1018.08,-27.74 833,-17.32 753.68,-13.73"/>
<polygon fill="#63b8ff" stroke="#63b8ff" points="753.36,-10.21 743.21,-13.26 753.05,-17.2 753.36,-10.21"/>
</a>
</g>
<g id="a_edge3&#45;headlabel"><a xlink:href="dir_000012_000023.html" target="_top" xlink:title="10">
<text text-anchor="middle" x="757.07" y="-5.03" font-family="Helvetica,sans-Serif" font-size="10.00" fill="#63b8ff">10</text>
</a>
</g>
</g>
<!-- dir_80073e07b8d132c44ccff1846505339c -->
<g id="node5" class="node">
<title>dir_80073e07b8d132c44ccff1846505339c</title>
<g id="a_node5"><a xlink:href="dir_80073e07b8d132c44ccff1846505339c.html" target="_top" xlink:title="flow">
<polygon fill="#a2b4d6" stroke="#404040" points="1067.5,-75.73 1030.5,-75.73 1030.5,-56.73 1067.5,-56.73 1067.5,-75.73"/>
<text text-anchor="middle" x="1049" y="-63.73" font-family="Helvetica,sans-Serif" font-size="10.00">flow</text>
</a>
</g>
</g>
<!-- dir_80073e07b8d132c44ccff1846505339c&#45;&gt;dir_d44c64559bbebec7f509842c48db8b23 -->
<g id="edge4" class="edge">
<title>dir_80073e07b8d132c44ccff1846505339c&#45;&gt;dir_d44c64559bbebec7f509842c48db8b23</title>
<g id="a_edge4"><a xlink:href="dir_000017_000023.html" target="_top">
<path fill="none" stroke="#63b8ff" d="M1036.99,-56.67C1032.22,-53.68 1026.56,-50.61 1021,-48.73 928.08,-17.32 811.18,-12.23 753.14,-11.83"/>
<polygon fill="#63b8ff" stroke="#63b8ff" points="753.01,-8.33 743,-11.81 753,-15.33 753.01,-8.33"/>
</a>
</g>
<g id="a_edge4&#45;headlabel"><a xlink:href="dir_000017_000023.html" target="_top" xlink:title="18">
<text text-anchor="middle" x="756.61" y="-3" font-family="Helvetica,sans-Serif" font-size="10.00" fill="#63b8ff">18</text>
</a>
</g>
</g>
<!-- dir_f9010d3214bc9bee50ee6cfb88a106d1 -->
<g id="node6" class="node">
<title>dir_f9010d3214bc9bee50ee6cfb88a106d1</title>
<g id="a_node6"><a xlink:href="dir_f9010d3214bc9bee50ee6cfb88a106d1.html" target="_top" xlink:title="fluid_structure_interaction">
<polygon fill="#a2b4d6" stroke="#404040" points="1012,-75.73 868,-75.73 868,-56.73 1012,-56.73 1012,-75.73"/>
<text text-anchor="middle" x="940" y="-63.73" font-family="Helvetica,sans-Serif" font-size="10.00">fluid_structure_interaction</text>
</a>
</g>
</g>
<!-- dir_f9010d3214bc9bee50ee6cfb88a106d1&#45;&gt;dir_d44c64559bbebec7f509842c48db8b23 -->
<g id="edge5" class="edge">
<title>dir_f9010d3214bc9bee50ee6cfb88a106d1&#45;&gt;dir_d44c64559bbebec7f509842c48db8b23</title>
<g id="a_edge5"><a xlink:href="dir_000020_000023.html" target="_top">
<path fill="none" stroke="#63b8ff" d="M904.17,-56.71C862.74,-46.87 794.93,-30.75 753.3,-20.86"/>
<polygon fill="#63b8ff" stroke="#63b8ff" points="753.85,-17.39 743.31,-18.48 752.23,-24.2 753.85,-17.39"/>
</a>
</g>
<g id="a_edge5&#45;headlabel"><a xlink:href="dir_000020_000023.html" target="_top" xlink:title="18">
<text text-anchor="middle" x="758.01" y="-12.96" font-family="Helvetica,sans-Serif" font-size="10.00" fill="#63b8ff">18</text>
</a>
</g>
</g>
<!-- dir_1c9da7fd84b8bf0796dfe72c3442b0ed -->
<g id="node7" class="node">
<title>dir_1c9da7fd84b8bf0796dfe72c3442b0ed</title>
<g id="a_node7"><a xlink:href="dir_1c9da7fd84b8bf0796dfe72c3442b0ed.html" target="_top" xlink:title="heat">
<polygon fill="#a2b4d6" stroke="#404040" points="850,-75.73 812,-75.73 812,-56.73 850,-56.73 850,-75.73"/>
<text text-anchor="middle" x="831" y="-63.73" font-family="Helvetica,sans-Serif" font-size="10.00">heat</text>
</a>
</g>
</g>
<!-- dir_1c9da7fd84b8bf0796dfe72c3442b0ed&#45;&gt;dir_d44c64559bbebec7f509842c48db8b23 -->
<g id="edge6" class="edge">
<title>dir_1c9da7fd84b8bf0796dfe72c3442b0ed&#45;&gt;dir_d44c64559bbebec7f509842c48db8b23</title>
<g id="a_edge6"><a xlink:href="dir_000022_000023.html" target="_top">
<path fill="none" stroke="#63b8ff" d="M817.24,-56.64C812.77,-53.98 807.74,-51.12 803,-48.73 785.49,-39.9 765.34,-31.27 748.94,-24.62"/>
<polygon fill="#63b8ff" stroke="#63b8ff" points="749.86,-21.22 739.28,-20.75 747.26,-27.72 749.86,-21.22"/>
</a>
</g>
<g id="a_edge6&#45;headlabel"><a xlink:href="dir_000022_000023.html" target="_top" xlink:title="62">
<text text-anchor="middle" x="754.25" y="-17.42" font-family="Helvetica,sans-Serif" font-size="10.00" fill="#63b8ff">62</text>
</a>
</g>
</g>
<!-- dir_33bc0ca9384ff5f29fbff97acb744799 -->
<g id="node8" class="node">
<title>dir_33bc0ca9384ff5f29fbff97acb744799</title>
<g id="a_node8"><a xlink:href="dir_33bc0ca9384ff5f29fbff97acb744799.html" target="_top" xlink:title="level_set">
<polygon fill="#a2b4d6" stroke="#404040" points="793.5,-75.73 732.5,-75.73 732.5,-56.73 793.5,-56.73 793.5,-75.73"/>
<text text-anchor="middle" x="763" y="-63.73" font-family="Helvetica,sans-Serif" font-size="10.00">level_set</text>
</a>
</g>
</g>
<!-- dir_33bc0ca9384ff5f29fbff97acb744799&#45;&gt;dir_d44c64559bbebec7f509842c48db8b23 -->
<g id="edge7" class="edge">
<title>dir_33bc0ca9384ff5f29fbff97acb744799&#45;&gt;dir_d44c64559bbebec7f509842c48db8b23</title>
<g id="a_edge7"><a xlink:href="dir_000027_000023.html" target="_top">
<path fill="none" stroke="#63b8ff" d="M755.4,-56.48C748.84,-48.91 739.18,-37.78 731.19,-28.57"/>
<polygon fill="#63b8ff" stroke="#63b8ff" points="733.65,-26.08 724.45,-20.82 728.37,-30.67 733.65,-26.08"/>
</a>
</g>
<g id="a_edge7&#45;headlabel"><a xlink:href="dir_000027_000023.html" target="_top" xlink:title="149">
<text text-anchor="middle" x="738.15" y="-24.43" font-family="Helvetica,sans-Serif" font-size="10.00" fill="#63b8ff">149</text>
</a>
</g>
</g>
<!-- dir_8df6cd3fc2253e3e34cbe21c0380149d -->
<g id="node9" class="node">
<title>dir_8df6cd3fc2253e3e34cbe21c0380149d</title>
<g id="a_node9"><a xlink:href="dir_8df6cd3fc2253e3e34cbe21c0380149d.html" target="_top" xlink:title="linear_algebra">
<polygon fill="#a2b4d6" stroke="#404040" points="714,-75.73 628,-75.73 628,-56.73 714,-56.73 714,-75.73"/>
<text text-anchor="middle" x="671" y="-63.73" font-family="Helvetica,sans-Serif" font-size="10.00">linear_algebra</text>
</a>
</g>
</g>
<!-- dir_8df6cd3fc2253e3e34cbe21c0380149d&#45;&gt;dir_d44c64559bbebec7f509842c48db8b23 -->
<g id="edge8" class="edge">
<title>dir_8df6cd3fc2253e3e34cbe21c0380149d&#45;&gt;dir_d44c64559bbebec7f509842c48db8b23</title>
<g id="a_edge8"><a xlink:href="dir_000029_000023.html" target="_top">
<path fill="none" stroke="#63b8ff" d="M678.6,-56.48C685.16,-48.91 694.82,-37.78 702.81,-28.57"/>
<polygon fill="#63b8ff" stroke="#63b8ff" points="705.63,-30.67 709.55,-20.82 700.35,-26.08 705.63,-30.67"/>
</a>
</g>
<g id="a_edge8&#45;headlabel"><a xlink:href="dir_000029_000023.html" target="_top" xlink:title="10">
<text text-anchor="middle" x="705.42" y="-32.74" font-family="Helvetica,sans-Serif" font-size="10.00" fill="#63b8ff">10</text>
</a>
</g>
</g>
<!-- dir_ca918688fe6ad16dbc1c00f976b7b03f -->
<g id="node10" class="node">
<title>dir_ca918688fe6ad16dbc1c00f976b7b03f</title>
<g id="a_node10"><a xlink:href="dir_ca918688fe6ad16dbc1c00f976b7b03f.html" target="_top" xlink:title="particles">
<polygon fill="#a2b4d6" stroke="#404040" points="609.5,-75.73 550.5,-75.73 550.5,-56.73 609.5,-56.73 609.5,-75.73"/>
<text text-anchor="middle" x="580" y="-63.73" font-family="Helvetica,sans-Serif" font-size="10.00">particles</text>
</a>
</g>
</g>
<!-- dir_ca918688fe6ad16dbc1c00f976b7b03f&#45;&gt;dir_d44c64559bbebec7f509842c48db8b23 -->
<g id="edge9" class="edge">
<title>dir_ca918688fe6ad16dbc1c00f976b7b03f&#45;&gt;dir_d44c64559bbebec7f509842c48db8b23</title>
<g id="a_edge9"><a xlink:href="dir_000042_000023.html" target="_top">
<path fill="none" stroke="#63b8ff" d="M599.77,-56.67C605.91,-54.06 612.71,-51.23 619,-48.73 640.41,-40.22 664.67,-31.18 683.7,-24.22"/>
<polygon fill="#63b8ff" stroke="#63b8ff" points="684.93,-27.5 693.13,-20.79 682.53,-20.92 684.93,-27.5"/>
</a>
</g>
<g id="a_edge9&#45;headlabel"><a xlink:href="dir_000042_000023.html" target="_top" xlink:title="19">
<text text-anchor="middle" x="682.52" y="-28.9" font-family="Helvetica,sans-Serif" font-size="10.00" fill="#63b8ff">19</text>
</a>
</g>
</g>
<!-- dir_c3045c6c535847acd65c0add8d0d08c5 -->
<g id="node11" class="node">
<title>dir_c3045c6c535847acd65c0add8d0d08c5</title>
<g id="a_node11"><a xlink:href="dir_c3045c6c535847acd65c0add8d0d08c5.html" target="_top" xlink:title="phase_change">
<polygon fill="#a2b4d6" stroke="#404040" points="532,-75.73 446,-75.73 446,-56.73 532,-56.73 532,-75.73"/>
<text text-anchor="middle" x="489" y="-63.73" font-family="Helvetica,sans-Serif" font-size="10.00">phase_change</text>
</a>
</g>
</g>
<!-- dir_c3045c6c535847acd65c0add8d0d08c5&#45;&gt;dir_d44c64559bbebec7f509842c48db8b23 -->
<g id="edge10" class="edge">
<title>dir_c3045c6c535847acd65c0add8d0d08c5&#45;&gt;dir_d44c64559bbebec7f509842c48db8b23</title>
<g id="a_edge10"><a xlink:href="dir_000044_000023.html" target="_top">
<path fill="none" stroke="#63b8ff" d="M514.74,-56.67C523.35,-53.95 533.04,-51.05 542,-48.73 589.58,-36.39 645.26,-25.35 680.81,-18.72"/>
<polygon fill="#63b8ff" stroke="#63b8ff" points="681.53,-22.15 690.73,-16.89 680.26,-15.27 681.53,-22.15"/>
</a>
</g>
<g id="a_edge10&#45;headlabel"><a xlink:href="dir_000044_000023.html" target="_top" xlink:title="59">
<text text-anchor="middle" x="678.51" y="-23.1" font-family="Helvetica,sans-Serif" font-size="10.00" fill="#63b8ff">59</text>
</a>
</g>
</g>
<!-- dir_c9b45f6e2fbd42b58a27bebc09a11d7b -->
<g id="node12" class="node">
<title>dir_c9b45f6e2fbd42b58a27bebc09a11d7b</title>
<g id="a_node12"><a xlink:href="dir_c9b45f6e2fbd42b58a27bebc09a11d7b.html" target="_top" xlink:title="post_processing">
<polygon fill="#a2b4d6" stroke="#404040" points="427.5,-75.73 332.5,-75.73 332.5,-56.73 427.5,-56.73 427.5,-75.73"/>
<text text-anchor="middle" x="380" y="-63.73" font-family="Helvetica,sans-Serif" font-size="10.00">post_processing</text>
</a>
</g>
</g>
<!-- dir_c9b45f6e2fbd42b58a27bebc09a11d7b&#45;&gt;dir_d44c64559bbebec7f509842c48db8b23 -->
<g id="edge11" class="edge">
<title>dir_c9b45f6e2fbd42b58a27bebc09a11d7b&#45;&gt;dir_d44c64559bbebec7f509842c48db8b23</title>
<g id="a_edge11"><a xlink:href="dir_000046_000023.html" target="_top">
<path fill="none" stroke="#63b8ff" d="M406.47,-56.66C416.01,-53.81 426.92,-50.83 437,-48.73 523.61,-30.66 627.25,-19.93 680.88,-15.17"/>
<polygon fill="#63b8ff" stroke="#63b8ff" points="681.26,-18.65 690.92,-14.3 680.65,-11.67 681.26,-18.65"/>
</a>
</g>
<g id="a_edge11&#45;headlabel"><a xlink:href="dir_000046_000023.html" target="_top" xlink:title="4">
<text text-anchor="middle" x="677.92" y="-19.29" font-family="Helvetica,sans-Serif" font-size="10.00" fill="#63b8ff">4</text>
</a>
</g>
</g>
<!-- dir_f58563add24f02574eaa667dda5deab0 -->
<g id="node13" class="node">
<title>dir_f58563add24f02574eaa667dda5deab0</title>
<g id="a_node13"><a xlink:href="dir_f58563add24f02574eaa667dda5deab0.html" target="_top" xlink:title="radiative_transport">
<polygon fill="#a2b4d6" stroke="#404040" points="314,-75.73 204,-75.73 204,-56.73 314,-56.73 314,-75.73"/>
<text text-anchor="middle" x="259" y="-63.73" font-family="Helvetica,sans-Serif" font-size="10.00">radiative_transport</text>
</a>
</g>
</g>
<!-- dir_f58563add24f02574eaa667dda5deab0&#45;&gt;dir_d44c64559bbebec7f509842c48db8b23 -->
<g id="edge12" class="edge">
<title>dir_f58563add24f02574eaa667dda5deab0&#45;&gt;dir_d44c64559bbebec7f509842c48db8b23</title>
<g id="a_edge12"><a xlink:href="dir_000052_000023.html" target="_top">
<path fill="none" stroke="#63b8ff" d="M288.56,-56.69C299.6,-53.78 312.3,-50.75 324,-48.73 454.07,-26.32 610.89,-16.97 680.57,-13.71"/>
<polygon fill="#63b8ff" stroke="#63b8ff" points="680.77,-17.21 690.6,-13.26 680.45,-10.22 680.77,-17.21"/>
</a>
</g>
<g id="a_edge12&#45;headlabel"><a xlink:href="dir_000052_000023.html" target="_top" xlink:title="25">
<text text-anchor="middle" x="677.3" y="-17.71" font-family="Helvetica,sans-Serif" font-size="10.00" fill="#63b8ff">25</text>
</a>
</g>
</g>
<!-- dir_6b0af11853c28e39739bc23365cb1d1f -->
<g id="node14" class="node">
<title>dir_6b0af11853c28e39739bc23365cb1d1f</title>
<g id="a_node14"><a xlink:href="dir_6b0af11853c28e39739bc23365cb1d1f.html" target="_top" xlink:title="time_integration">
<polygon fill="#a2b4d6" stroke="#404040" points="186,-75.73 88,-75.73 88,-56.73 186,-56.73 186,-75.73"/>
<text text-anchor="middle" x="137" y="-63.73" font-family="Helvetica,sans-Serif" font-size="10.00">time_integration</text>
</a>
</g>
</g>
<!-- dir_6b0af11853c28e39739bc23365cb1d1f&#45;&gt;dir_d44c64559bbebec7f509842c48db8b23 -->
<g id="edge13" class="edge">
<title>dir_6b0af11853c28e39739bc23365cb1d1f&#45;&gt;dir_d44c64559bbebec7f509842c48db8b23</title>
<g id="a_edge13"><a xlink:href="dir_000066_000023.html" target="_top">
<path fill="none" stroke="#63b8ff" d="M162.72,-56.67C172.69,-53.68 184.28,-50.61 195,-48.73 375.42,-17.11 595.45,-12.66 680.77,-12.19"/>
<polygon fill="#63b8ff" stroke="#63b8ff" points="680.98,-15.69 690.97,-12.15 680.96,-8.69 680.98,-15.69"/>
</a>
</g>
<g id="a_edge13&#45;headlabel"><a xlink:href="dir_000066_000023.html" target="_top" xlink:title="12">
<text text-anchor="middle" x="677.4" y="-16.04" font-family="Helvetica,sans-Serif" font-size="10.00" fill="#63b8ff">12</text>
</a>
</g>
</g>
<!-- dir_6a3f4a93de6832ab3fcb23711763be58 -->
<g id="node15" class="node">
<title>dir_6a3f4a93de6832ab3fcb23711763be58</title>
<g id="a_node15"><a xlink:href="dir_6a3f4a93de6832ab3fcb23711763be58.html" target="_top" xlink:title="utilities">
<polygon fill="#a2b4d6" stroke="#404040" points="69.5,-75.73 16.5,-75.73 16.5,-56.73 69.5,-56.73 69.5,-75.73"/>
<text text-anchor="middle" x="43" y="-63.73" font-family="Helvetica,sans-Serif" font-size="10.00">utilities</text>
</a>
</g>
</g>
<!-- dir_6a3f4a93de6832ab3fcb23711763be58&#45;&gt;dir_d44c64559bbebec7f509842c48db8b23 -->
<g id="edge14" class="edge">
<title>dir_6a3f4a93de6832ab3fcb23711763be58&#45;&gt;dir_d44c64559bbebec7f509842c48db8b23</title>
<g id="a_edge14"><a xlink:href="dir_000075_000023.html" target="_top">
<path fill="none" stroke="#63b8ff" d="M58.31,-56.68C64.54,-53.62 71.93,-50.49 79,-48.73 194.25,-20.1 562.86,-13.83 680.53,-12.54"/>
<polygon fill="#63b8ff" stroke="#63b8ff" points="680.84,-16.04 690.8,-12.44 680.77,-9.04 680.84,-16.04"/>
</a>
</g>
<g id="a_edge14&#45;headlabel"><a xlink:href="dir_000075_000023.html" target="_top" xlink:title="26">
<text text-anchor="middle" x="677.27" y="-16.42" font-family="Helvetica,sans-Serif" font-size="10.00" fill="#63b8ff">26</text>
</a>
</g>
</g>
</g>
</svg>
