<?xml version="1.0" encoding="UTF-8" standalone="no"?>
<!DOCTYPE svg PUBLIC "-//W3C//DTD SVG 1.1//EN"
 "http://www.w3.org/Graphics/SVG/1.1/DTD/svg11.dtd">
<!-- Generated by graphviz version 2.43.0 (0)
 -->
<!-- Title: applications Pages: 1 -->
<!--zoomable 208 -->

<svg id="main" version="1.1" xmlns="http://www.w3.org/2000/svg" xmlns:xlink="http://www.w3.org/1999/xlink" xml:space="preserve" onload="init(evt)">
<style type="text/css"><![CDATA[
.node, .edge {opacity: 0.7;}
.node.selected, .edge.selected {opacity: 1;}
.edge:hover path { stroke: red; }
.edge:hover polygon { stroke: red; fill: red; }
]]></style>

<defs>
  <circle id="rim" cx="0" cy="0" r="7"/>
  <circle id="rim2" cx="0" cy="0" r="3.5"/>
  <g id="zoomPlus">
    <use xlink:href="#rim" fill="#404040"><set attributeName="fill" to="#808080" begin="zoomplus.mouseover" end="zoomplus.mouseout"/></use>
    <path d="M-4,0h8M0,-4v8" fill="none" stroke="white" stroke-width="1.5" pointer-events="none"/>
  </g>
  <g id="zoomMin">
    <use xlink:href="#rim" fill="#404040"><set attributeName="fill" to="#808080" begin="zoomminus.mouseover" end="zoomminus.mouseout"/></use>
    <path d="M-4,0h8" fill="none" stroke="white" stroke-width="1.5" pointer-events="none"/>
  </g>
  <g id="arrowUp" transform="translate(30 24)">
    <use xlink:href="#rim"/>
    <path pointer-events="none" fill="none" stroke="white" stroke-width="1.5" d="M0,-3.0v7 M-2.5,-0.5L0,-3.0L2.5,-0.5"/>
  </g>
  <g id="arrowRight" transform="rotate(90) translate(36 -43)">
    <use xlink:href="#rim"/>
    <path pointer-events="none" fill="none" stroke="white" stroke-width="1.5" d="M0,-3.0v7 M-2.5,-0.5L0,-3.0L2.5,-0.5"/>
  </g>
  <g id="arrowDown" transform="rotate(180) translate(-30 -48)">
    <use xlink:href="#rim"/>
    <path pointer-events="none" fill="none" stroke="white" stroke-width="1.5" d="M0,-3.0v7 M-2.5,-0.5L0,-3.0L2.5,-0.5"/>
  </g>
  <g id="arrowLeft" transform="rotate(270) translate(-36 17)">
    <use xlink:href="#rim"/>
    <path pointer-events="none" fill="none" stroke="white" stroke-width="1.5" d="M0,-3.0v7 M-2.5,-0.5L0,-3.0L2.5,-0.5"/>
  </g>
  <g id="resetDef">
    <use xlink:href="#rim2" fill="#404040"><set attributeName="fill" to="#808080" begin="reset.mouseover" end="reset.mouseout"/></use>
  </g>
</defs>
<script type="application/ecmascript">
var viewWidth = 542;
var viewHeight = 208;
var sectionId = 'dynsection-0';
</script>
<script type="application/ecmascript" xlink:href="svg.min.js"/>
<svg id="graph" class="graph">
<g id="viewport">
<title>applications</title>
<g id="clust1" class="cluster">
<title>clusterdir_a6e4fee11f07c3b70486e88fe92cbbdc</title>
<g id="a_clust1"><a xlink:href="dir_a6e4fee11f07c3b70486e88fe92cbbdc.html" target="_top">
<polygon fill="#edf0f7" stroke="#404040" stroke-width="2" points="8,-47 8,-192 526,-192 526,-47 8,-47"/>
</a>
</g>
</g>
<!-- dir_a6e4fee11f07c3b70486e88fe92cbbdc -->
<g id="node1" class="node">
<title>dir_a6e4fee11f07c3b70486e88fe92cbbdc</title>
<text text-anchor="middle" x="480" y="-172" font-family="Helvetica,sans-Serif" font-size="10.00">applications</text>
</g>
<!-- dir_1585c032192430cd0526430cb347c9b0 -->
<g id="node2" class="node">
<title>dir_1585c032192430cd0526430cb347c9b0</title>
<g id="a_node2"><a xlink:href="dir_1585c032192430cd0526430cb347c9b0.html" target="_top" xlink:title="mp&#45;advec&#45;diff">
<polygon fill="#a2b4d6" stroke="#404040" points="247.5,-184 162.5,-184 162.5,-165 247.5,-165 247.5,-184"/>
<text text-anchor="middle" x="205" y="-172" font-family="Helvetica,sans-Serif" font-size="10.00">mp&#45;advec&#45;diff</text>
</a>
</g>
</g>
<!-- dir_d44c64559bbebec7f509842c48db8b23 -->
<g id="node8" class="node">
<title>dir_d44c64559bbebec7f509842c48db8b23</title>
<g id="a_node8"><a xlink:href="dir_d44c64559bbebec7f509842c48db8b23.html" target="_top" xlink:title="include">
<polygon fill="#edf0f7" stroke="red" points="233,-19 181,-19 181,0 233,0 233,-19"/>
<text text-anchor="middle" x="207" y="-7" font-family="Helvetica,sans-Serif" font-size="10.00">include</text>
</a>
</g>
</g>
<!-- dir_1585c032192430cd0526430cb347c9b0&#45;&gt;dir_d44c64559bbebec7f509842c48db8b23 -->
<g id="edge1" class="edge">
<title>dir_1585c032192430cd0526430cb347c9b0&#45;&gt;dir_d44c64559bbebec7f509842c48db8b23</title>
<g id="a_edge1"><a xlink:href="dir_000034_000023.html" target="_top">
<path fill="none" stroke="#63b8ff" d="M205.11,-164.74C205.42,-139.31 206.33,-65.08 206.76,-29.69"/>
<polygon fill="#63b8ff" stroke="#63b8ff" points="210.27,-29.35 206.89,-19.31 203.27,-29.26 210.27,-29.35"/>
</a>
</g>
<g id="a_edge1&#45;headlabel"><a xlink:href="dir_000034_000023.html" target="_top" xlink:title="27">
<text text-anchor="middle" x="213.06" y="-30.48" font-family="Helvetica,sans-Serif" font-size="10.00" fill="#63b8ff">27</text>
</a>
</g>
</g>
<!-- dir_e8c76512a25727abaa31cd0ebdd0b0f2 -->
<g id="node3" class="node">
<title>dir_e8c76512a25727abaa31cd0ebdd0b0f2</title>
<g id="a_node3"><a xlink:href="dir_e8c76512a25727abaa31cd0ebdd0b0f2.html" target="_top" xlink:title="mp&#45;heat&#45;transfer">
<polygon fill="#a2b4d6" stroke="#404040" points="130,-129 30,-129 30,-110 130,-110 130,-129"/>
<text text-anchor="middle" x="80" y="-117" font-family="Helvetica,sans-Serif" font-size="10.00">mp&#45;heat&#45;transfer</text>
</a>
</g>
</g>
<!-- dir_79d1e0021fbebcbd79a9635c1d40cf2f -->
<g id="node5" class="node">
<title>dir_79d1e0021fbebcbd79a9635c1d40cf2f</title>
<g id="a_node5"><a xlink:href="dir_79d1e0021fbebcbd79a9635c1d40cf2f.html" target="_top" xlink:title="mp&#45;melt&#45;pool">
<polygon fill="#a2b4d6" stroke="#404040" points="121.5,-74 38.5,-74 38.5,-55 121.5,-55 121.5,-74"/>
<text text-anchor="middle" x="80" y="-62" font-family="Helvetica,sans-Serif" font-size="10.00">mp&#45;melt&#45;pool</text>
</a>
</g>
</g>
<!-- dir_e8c76512a25727abaa31cd0ebdd0b0f2&#45;&gt;dir_79d1e0021fbebcbd79a9635c1d40cf2f -->
<g id="edge2" class="edge">
<title>dir_e8c76512a25727abaa31cd0ebdd0b0f2&#45;&gt;dir_79d1e0021fbebcbd79a9635c1d40cf2f</title>
<g id="a_edge2"><a xlink:href="dir_000035_000037.html" target="_top">
<path fill="none" stroke="#63b8ff" d="M74.83,-109.75C73.34,-102.8 72.9,-92.85 73.52,-84.13"/>
<polygon fill="#63b8ff" stroke="#63b8ff" points="77.01,-84.47 74.87,-74.09 70.07,-83.53 77.01,-84.47"/>
</a>
</g>
<g id="a_edge2&#45;headlabel"><a xlink:href="dir_000035_000037.html" target="_top" xlink:title="4">
<text text-anchor="middle" x="79.34" y="-85.91" font-family="Helvetica,sans-Serif" font-size="10.00" fill="#63b8ff">4</text>
</a>
</g>
</g>
<!-- dir_e8c76512a25727abaa31cd0ebdd0b0f2&#45;&gt;dir_d44c64559bbebec7f509842c48db8b23 -->
<g id="edge3" class="edge">
<title>dir_e8c76512a25727abaa31cd0ebdd0b0f2&#45;&gt;dir_d44c64559bbebec7f509842c48db8b23</title>
<g id="a_edge3"><a xlink:href="dir_000035_000023.html" target="_top">
<path fill="none" stroke="#63b8ff" d="M90.39,-109.66C111.99,-91.3 161.95,-48.81 188.93,-25.87"/>
<polygon fill="#63b8ff" stroke="#63b8ff" points="191.47,-28.3 196.82,-19.16 186.93,-22.97 191.47,-28.3"/>
</a>
</g>
<g id="a_edge3&#45;headlabel"><a xlink:href="dir_000035_000023.html" target="_top" xlink:title="63">
<text text-anchor="middle" x="190.57" y="-30.29" font-family="Helvetica,sans-Serif" font-size="10.00" fill="#63b8ff">63</text>
</a>
</g>
</g>
<!-- dir_a5a415dddaf71bc0ad059e9ef37a828e -->
<g id="node4" class="node">
<title>dir_a5a415dddaf71bc0ad059e9ef37a828e</title>
<g id="a_node4"><a xlink:href="dir_a5a415dddaf71bc0ad059e9ef37a828e.html" target="_top" xlink:title="mp&#45;level&#45;set">
<polygon fill="#a2b4d6" stroke="#404040" points="344.5,-184 265.5,-184 265.5,-165 344.5,-165 344.5,-184"/>
<text text-anchor="middle" x="305" y="-172" font-family="Helvetica,sans-Serif" font-size="10.00">mp&#45;level&#45;set</text>
</a>
</g>
</g>
<!-- dir_a5a415dddaf71bc0ad059e9ef37a828e&#45;&gt;dir_d44c64559bbebec7f509842c48db8b23 -->
<g id="edge4" class="edge">
<title>dir_a5a415dddaf71bc0ad059e9ef37a828e&#45;&gt;dir_d44c64559bbebec7f509842c48db8b23</title>
<g id="a_edge4"><a xlink:href="dir_000036_000023.html" target="_top">
<path fill="none" stroke="#63b8ff" d="M299.73,-164.74C284.18,-138.87 238.25,-62.48 217.45,-27.88"/>
<polygon fill="#63b8ff" stroke="#63b8ff" points="220.45,-26.07 212.29,-19.31 214.45,-29.68 220.45,-26.07"/>
</a>
</g>
<g id="a_edge4&#45;headlabel"><a xlink:href="dir_000036_000023.html" target="_top" xlink:title="48">
<text text-anchor="middle" x="224.73" y="-25.19" font-family="Helvetica,sans-Serif" font-size="10.00" fill="#63b8ff">48</text>
</a>
</g>
</g>
<!-- dir_79d1e0021fbebcbd79a9635c1d40cf2f&#45;&gt;dir_e8c76512a25727abaa31cd0ebdd0b0f2 -->
<g id="edge6" class="edge">
<title>dir_79d1e0021fbebcbd79a9635c1d40cf2f&#45;&gt;dir_e8c76512a25727abaa31cd0ebdd0b0f2</title>
<g id="a_edge6"><a xlink:href="dir_000037_000035.html" target="_top">
<path fill="none" stroke="#63b8ff" d="M85.13,-74.09C86.64,-80.99 87.09,-90.93 86.49,-99.66"/>
<polygon fill="#63b8ff" stroke="#63b8ff" points="83,-99.38 85.17,-109.75 89.94,-100.29 83,-99.38"/>
</a>
</g>
<g id="a_edge6&#45;headlabel"><a xlink:href="dir_000037_000035.html" target="_top" xlink:title="5">
<text text-anchor="middle" x="80.65" y="-92.94" font-family="Helvetica,sans-Serif" font-size="10.00" fill="#63b8ff">5</text>
</a>
</g>
</g>
<!-- dir_79d1e0021fbebcbd79a9635c1d40cf2f&#45;&gt;dir_d44c64559bbebec7f509842c48db8b23 -->
<g id="edge5" class="edge">
<title>dir_79d1e0021fbebcbd79a9635c1d40cf2f&#45;&gt;dir_d44c64559bbebec7f509842c48db8b23</title>
<g id="a_edge5"><a xlink:href="dir_000037_000023.html" target="_top">
<path fill="none" stroke="#63b8ff" d="M100.4,-54.98C121.02,-46.38 153.11,-32.99 176.69,-23.15"/>
<polygon fill="#63b8ff" stroke="#63b8ff" points="178.34,-26.25 186.22,-19.17 175.65,-19.79 178.34,-26.25"/>
</a>
</g>
<g id="a_edge5&#45;headlabel"><a xlink:href="dir_000037_000023.html" target="_top" xlink:title="135">
<text text-anchor="middle" x="176.12" y="-27.76" font-family="Helvetica,sans-Serif" font-size="10.00" fill="#63b8ff">135</text>
</a>
</g>
</g>
<!-- dir_82caaf4808e36f5aa7f02e1197c49993 -->
<g id="node6" class="node">
<title>dir_82caaf4808e36f5aa7f02e1197c49993</title>
<g id="a_node6"><a xlink:href="dir_82caaf4808e36f5aa7f02e1197c49993.html" target="_top" xlink:title="mp&#45;radiative&#45;transport">
<polygon fill="#a2b4d6" stroke="#404040" points="144,-184 16,-184 16,-165 144,-165 144,-184"/>
<text text-anchor="middle" x="80" y="-172" font-family="Helvetica,sans-Serif" font-size="10.00">mp&#45;radiative&#45;transport</text>
</a>
</g>
</g>
<!-- dir_82caaf4808e36f5aa7f02e1197c49993&#45;&gt;dir_e8c76512a25727abaa31cd0ebdd0b0f2 -->
<g id="edge8" class="edge">
<title>dir_82caaf4808e36f5aa7f02e1197c49993&#45;&gt;dir_e8c76512a25727abaa31cd0ebdd0b0f2</title>
<g id="a_edge8"><a xlink:href="dir_000038_000035.html" target="_top">
<path fill="none" stroke="#63b8ff" d="M80,-164.75C80,-157.8 80,-147.85 80,-139.13"/>
<polygon fill="#63b8ff" stroke="#63b8ff" points="83.5,-139.09 80,-129.09 76.5,-139.09 83.5,-139.09"/>
</a>
</g>
<g id="a_edge8&#45;headlabel"><a xlink:href="dir_000038_000035.html" target="_top" xlink:title="1">
<text text-anchor="middle" x="86.34" y="-140.18" font-family="Helvetica,sans-Serif" font-size="10.00" fill="#63b8ff">1</text>
</a>
</g>
</g>
<!-- dir_82caaf4808e36f5aa7f02e1197c49993&#45;&gt;dir_d44c64559bbebec7f509842c48db8b23 -->
<g id="edge7" class="edge">
<title>dir_82caaf4808e36f5aa7f02e1197c49993&#45;&gt;dir_d44c64559bbebec7f509842c48db8b23</title>
<g id="a_edge7"><a xlink:href="dir_000038_000023.html" target="_top">
<path fill="none" stroke="#63b8ff" d="M94.41,-164.99C107.23,-156.91 125.93,-143.82 139,-129 166.73,-97.56 188.58,-53.04 199.46,-28.5"/>
<polygon fill="#63b8ff" stroke="#63b8ff" points="202.68,-29.87 203.43,-19.3 196.25,-27.09 202.68,-29.87"/>
</a>
</g>
<g id="a_edge7&#45;headlabel"><a xlink:href="dir_000038_000023.html" target="_top" xlink:title="27">
<text text-anchor="middle" x="203.86" y="-31.79" font-family="Helvetica,sans-Serif" font-size="10.00" fill="#63b8ff">27</text>
</a>
</g>
</g>
<!-- dir_bc3395763845b05993d3f8e6e57d2f52 -->
<g id="node7" class="node">
<title>dir_bc3395763845b05993d3f8e6e57d2f52</title>
<g id="a_node7"><a xlink:href="dir_bc3395763845b05993d3f8e6e57d2f52.html" target="_top" xlink:title="mp&#45;reinit">
<polygon fill="#a2b4d6" stroke="#404040" points="424,-184 362,-184 362,-165 424,-165 424,-184"/>
<text text-anchor="middle" x="393" y="-172" font-family="Helvetica,sans-Serif" font-size="10.00">mp&#45;reinit</text>
</a>
</g>
</g>
<!-- dir_bc3395763845b05993d3f8e6e57d2f52&#45;&gt;dir_d44c64559bbebec7f509842c48db8b23 -->
<g id="edge9" class="edge">
<title>dir_bc3395763845b05993d3f8e6e57d2f52&#45;&gt;dir_d44c64559bbebec7f509842c48db8b23</title>
<g id="a_edge9"><a xlink:href="dir_000039_000023.html" target="_top">
<path fill="none" stroke="#63b8ff" d="M383.46,-164.79C360.75,-144.1 301.57,-90.48 251,-47 242.71,-39.87 233.41,-32.12 225.5,-25.6"/>
<polygon fill="#63b8ff" stroke="#63b8ff" points="227.53,-22.74 217.58,-19.1 223.09,-28.15 227.53,-22.74"/>
</a>
</g>
<g id="a_edge9&#45;headlabel"><a xlink:href="dir_000039_000023.html" target="_top" xlink:title="46">
<text text-anchor="middle" x="232.11" y="-20.33" font-family="Helvetica,sans-Serif" font-size="10.00" fill="#63b8ff">46</text>
</a>
</g>
</g>
</g>
</svg>

<g id="navigator" transform="translate(0 0)" fill="#404254">
  <rect fill="#f2f5e9" fill-opacity="0.5" stroke="#606060" stroke-width=".5" x="0" y="0" width="60" height="60"/>
  <use id="zoomplus" xlink:href="#zoomPlus" x="17" y="9" onmousedown="handleZoom(evt,'in')"/>
  <use id="zoomminus" xlink:href="#zoomMin" x="42" y="9" onmousedown="handleZoom(evt,'out')"/>
  <use id="reset" xlink:href="#resetDef" x="30" y="36" onmousedown="handleReset()"/>
   <use id="arrowup" xlink:href="#arrowUp" x="0" y="0" onmousedown="handlePan(0,-1)"/>
  <use id="arrowright" xlink:href="#arrowRight" x="0" y="0" onmousedown="handlePan(1,0)"/>
  <use id="arrowdown" xlink:href="#arrowDown" x="0" y="0" onmousedown="handlePan(0,1)"/>
  <use id="arrowleft" xlink:href="#arrowLeft" x="0" y="0" onmousedown="handlePan(-1,0)"/>
</g>
<svg viewBox="0 0 15 15" width="100%" height="30px" preserveAspectRatio="xMaxYMin meet">
 <g id="arrow_out" transform="scale(0.3 0.3)">
  <a xlink:href="dir_a6e4fee11f07c3b70486e88fe92cbbdc_dep_org.svg" target="_base">
   <rect id="button" ry="5" rx="5" y="6" x="6" height="38" width="38"
        fill="#f2f5e9" fill-opacity="0.5" stroke="#606060" stroke-width="1.0"/>
   <path id="arrow"
     d="M 11.500037,31.436501 C 11.940474,20.09759 22.043105,11.32322 32.158766,21.979434 L 37.068811,17.246167 C 37.068811,17.246167 37.088388,32 37.088388,32 L 22.160133,31.978069 C 22.160133,31.978069 26.997745,27.140456 26.997745,27.140456 C 18.528582,18.264221 13.291696,25.230495 11.500037,31.436501 z"
     style="fill:#404040;"/>
  </a>
 </g>
</svg>

<style type='text/css'>
<![CDATA[
[data-mouse-over-selected='false'] { opacity: 0.7; }
[data-mouse-over-selected='true']  { opacity: 1.0; }
]]>
</style>
<script type="application/ecmascript"><![CDATA[
document.addEventListener('DOMContentLoaded', (event) => {
  highlightEdges();
  highlightAdjacentNodes();
});
]]></script>
</svg>
