<?xml version="1.0" encoding="UTF-8" standalone="no"?>
<!DOCTYPE svg PUBLIC "-//W3C//DTD SVG 1.1//EN"
 "http://www.w3.org/Graphics/SVG/1.1/DTD/svg11.dtd">
<!-- Generated by graphviz version 2.43.0 (0)
 -->
<!-- Title: include/meltpooldg/level_set Pages: 1 -->
<!--zoomable 133 -->

<svg id="main" version="1.1" xmlns="http://www.w3.org/2000/svg" xmlns:xlink="http://www.w3.org/1999/xlink" xml:space="preserve" onload="init(evt)">
<style type="text/css"><![CDATA[
.node, .edge {opacity: 0.7;}
.node.selected, .edge.selected {opacity: 1;}
.edge:hover path { stroke: red; }
.edge:hover polygon { stroke: red; fill: red; }
]]></style>

<defs>
  <circle id="rim" cx="0" cy="0" r="7"/>
  <circle id="rim2" cx="0" cy="0" r="3.5"/>
  <g id="zoomPlus">
    <use xlink:href="#rim" fill="#404040"><set attributeName="fill" to="#808080" begin="zoomplus.mouseover" end="zoomplus.mouseout"/></use>
    <path d="M-4,0h8M0,-4v8" fill="none" stroke="white" stroke-width="1.5" pointer-events="none"/>
  </g>
  <g id="zoomMin">
    <use xlink:href="#rim" fill="#404040"><set attributeName="fill" to="#808080" begin="zoomminus.mouseover" end="zoomminus.mouseout"/></use>
    <path d="M-4,0h8" fill="none" stroke="white" stroke-width="1.5" pointer-events="none"/>
  </g>
  <g id="arrowUp" transform="translate(30 24)">
    <use xlink:href="#rim"/>
    <path pointer-events="none" fill="none" stroke="white" stroke-width="1.5" d="M0,-3.0v7 M-2.5,-0.5L0,-3.0L2.5,-0.5"/>
  </g>
  <g id="arrowRight" transform="rotate(90) translate(36 -43)">
    <use xlink:href="#rim"/>
    <path pointer-events="none" fill="none" stroke="white" stroke-width="1.5" d="M0,-3.0v7 M-2.5,-0.5L0,-3.0L2.5,-0.5"/>
  </g>
  <g id="arrowDown" transform="rotate(180) translate(-30 -48)">
    <use xlink:href="#rim"/>
    <path pointer-events="none" fill="none" stroke="white" stroke-width="1.5" d="M0,-3.0v7 M-2.5,-0.5L0,-3.0L2.5,-0.5"/>
  </g>
  <g id="arrowLeft" transform="rotate(270) translate(-36 17)">
    <use xlink:href="#rim"/>
    <path pointer-events="none" fill="none" stroke="white" stroke-width="1.5" d="M0,-3.0v7 M-2.5,-0.5L0,-3.0L2.5,-0.5"/>
  </g>
  <g id="resetDef">
    <use xlink:href="#rim2" fill="#404040"><set attributeName="fill" to="#808080" begin="reset.mouseover" end="reset.mouseout"/></use>
  </g>
</defs>
<script type="application/ecmascript">
var viewWidth = 533;
var viewHeight = 133;
var sectionId = 'dynsection-0';
</script>
<script type="application/ecmascript" xlink:href="svg.min.js"/>
<svg id="graph" class="graph">
<g id="viewport">
<title>include/meltpooldg/level_set</title>
<g id="clust1" class="cluster">
<title>clusterdir_8f99bfadfdcbaa65d0da694c66c754ed</title>
<g id="a_clust1"><a xlink:href="dir_8f99bfadfdcbaa65d0da694c66c754ed.html" target="_top" xlink:title="meltpooldg">
<polygon fill="#edf0f7" stroke="#7f7f7f" stroke-dasharray="5,2" points="8,-8 8,-117 517,-117 517,-8 8,-8"/>
<text text-anchor="middle" x="262.5" y="-105" font-family="Helvetica,sans-Serif" font-size="10.00">meltpooldg</text>
</a>
</g>
</g>
<!-- dir_270e08c14b917b5512a0af8e51711095 -->
<g id="node1" class="node">
<title>dir_270e08c14b917b5512a0af8e51711095</title>
<g id="a_node1"><a xlink:href="dir_270e08c14b917b5512a0af8e51711095.html" target="_top" xlink:title="post_processing">
<polygon fill="#a2b4d6" stroke="#404040" points="111.5,-35 16.5,-35 16.5,-16 111.5,-16 111.5,-35"/>
<text text-anchor="middle" x="64" y="-23" font-family="Helvetica,sans-Serif" font-size="10.00">post_processing</text>
</a>
</g>
</g>
<!-- dir_33f297a483115a9e2addf470c6b064fb -->
<g id="node2" class="node">
<title>dir_33f297a483115a9e2addf470c6b064fb</title>
<g id="a_node2"><a xlink:href="dir_33f297a483115a9e2addf470c6b064fb.html" target="_top" xlink:title="utilities">
<polygon fill="#a2b4d6" stroke="#404040" points="182.5,-35 129.5,-35 129.5,-16 182.5,-16 182.5,-35"/>
<text text-anchor="middle" x="156" y="-23" font-family="Helvetica,sans-Serif" font-size="10.00">utilities</text>
</a>
</g>
</g>
<!-- dir_3d83c62cc94644fc7d3192423a0d8c24 -->
<g id="node3" class="node">
<title>dir_3d83c62cc94644fc7d3192423a0d8c24</title>
<g id="a_node3"><a xlink:href="dir_3d83c62cc94644fc7d3192423a0d8c24.html" target="_top" xlink:title="cut">
<polygon fill="#a2b4d6" stroke="#404040" points="233,-35 201,-35 201,-16 233,-16 233,-35"/>
<text text-anchor="middle" x="217" y="-23" font-family="Helvetica,sans-Serif" font-size="10.00">cut</text>
</a>
</g>
</g>
<!-- dir_7408abf3d1459402edeb1922a4712e77 -->
<g id="node4" class="node">
<title>dir_7408abf3d1459402edeb1922a4712e77</title>
<g id="a_node4"><a xlink:href="dir_7408abf3d1459402edeb1922a4712e77.html" target="_top" xlink:title="linear_algebra">
<polygon fill="#a2b4d6" stroke="#404040" points="337,-35 251,-35 251,-16 337,-16 337,-35"/>
<text text-anchor="middle" x="294" y="-23" font-family="Helvetica,sans-Serif" font-size="10.00">linear_algebra</text>
</a>
</g>
</g>
<!-- dir_e210c3716260b17f672da194eece00e5 -->
<g id="node5" class="node">
<title>dir_e210c3716260b17f672da194eece00e5</title>
<g id="a_node5"><a xlink:href="dir_e210c3716260b17f672da194eece00e5.html" target="_top" xlink:title="time_integration">
<polygon fill="#a2b4d6" stroke="#404040" points="453,-35 355,-35 355,-16 453,-16 453,-35"/>
<text text-anchor="middle" x="404" y="-23" font-family="Helvetica,sans-Serif" font-size="10.00">time_integration</text>
</a>
</g>
</g>
<!-- dir_fe928e0a3314c1b06e0294715d23dc51 -->
<g id="node6" class="node">
<title>dir_fe928e0a3314c1b06e0294715d23dc51</title>
<g id="a_node6"><a xlink:href="dir_fe928e0a3314c1b06e0294715d23dc51.html" target="_top" xlink:title="core">
<polygon fill="#a2b4d6" stroke="#404040" points="509,-35 471,-35 471,-16 509,-16 509,-35"/>
<text text-anchor="middle" x="490" y="-23" font-family="Helvetica,sans-Serif" font-size="10.00">core</text>
</a>
</g>
</g>
<!-- dir_d8c980f69678bb74c2eb96a617637411 -->
<g id="node7" class="node">
<title>dir_d8c980f69678bb74c2eb96a617637411</title>
<g id="a_node7"><a xlink:href="dir_d8c980f69678bb74c2eb96a617637411.html" target="_top" xlink:title="level_set">
<polygon fill="#edf0f7" stroke="#404040" stroke-width="2" points="285.5,-90 224.5,-90 224.5,-71 285.5,-71 285.5,-90"/>
<text text-anchor="middle" x="255" y="-78" font-family="Helvetica,sans-Serif" font-size="10.00">level_set</text>
</a>
</g>
</g>
<!-- dir_d8c980f69678bb74c2eb96a617637411&#45;&gt;dir_270e08c14b917b5512a0af8e51711095 -->
<g id="edge1" class="edge">
<title>dir_d8c980f69678bb74c2eb96a617637411&#45;&gt;dir_270e08c14b917b5512a0af8e51711095</title>
<g id="a_edge1"><a xlink:href="dir_000026_000045.html" target="_top">
<path fill="none" stroke="#63b8ff" d="M224.31,-70.98C191.83,-61.97 140.4,-47.7 104.59,-37.76"/>
<polygon fill="#63b8ff" stroke="#63b8ff" points="105.5,-34.38 94.93,-35.08 103.63,-41.13 105.5,-34.38"/>
</a>
</g>
<g id="a_edge1&#45;headlabel"><a xlink:href="dir_000026_000045.html" target="_top" xlink:title="9">
<text text-anchor="middle" x="109.72" y="-30.11" font-family="Helvetica,sans-Serif" font-size="10.00" fill="#63b8ff">9</text>
</a>
</g>
</g>
<!-- dir_d8c980f69678bb74c2eb96a617637411&#45;&gt;dir_33f297a483115a9e2addf470c6b064fb -->
<g id="edge2" class="edge">
<title>dir_d8c980f69678bb74c2eb96a617637411&#45;&gt;dir_33f297a483115a9e2addf470c6b064fb</title>
<g id="a_edge2"><a xlink:href="dir_000026_000074.html" target="_top">
<path fill="none" stroke="#63b8ff" d="M239.09,-70.98C223.45,-62.61 199.34,-49.7 181.12,-39.95"/>
<polygon fill="#63b8ff" stroke="#63b8ff" points="182.66,-36.8 172.2,-35.17 179.36,-42.98 182.66,-36.8"/>
</a>
</g>
<g id="a_edge2&#45;headlabel"><a xlink:href="dir_000026_000074.html" target="_top" xlink:title="27">
<text text-anchor="middle" x="187.17" y="-33.5" font-family="Helvetica,sans-Serif" font-size="10.00" fill="#63b8ff">27</text>
</a>
</g>
</g>
<!-- dir_d8c980f69678bb74c2eb96a617637411&#45;&gt;dir_3d83c62cc94644fc7d3192423a0d8c24 -->
<g id="edge3" class="edge">
<title>dir_d8c980f69678bb74c2eb96a617637411&#45;&gt;dir_3d83c62cc94644fc7d3192423a0d8c24</title>
<g id="a_edge3"><a xlink:href="dir_000026_000011.html" target="_top">
<path fill="none" stroke="#63b8ff" d="M248.73,-70.75C243.41,-63.34 235.64,-52.5 229.12,-43.41"/>
<polygon fill="#63b8ff" stroke="#63b8ff" points="231.83,-41.18 223.16,-35.09 226.14,-45.26 231.83,-41.18"/>
</a>
</g>
<g id="a_edge3&#45;headlabel"><a xlink:href="dir_000026_000011.html" target="_top" xlink:title="1">
<text text-anchor="middle" x="236.23" y="-39.94" font-family="Helvetica,sans-Serif" font-size="10.00" fill="#63b8ff">1</text>
</a>
</g>
</g>
<!-- dir_d8c980f69678bb74c2eb96a617637411&#45;&gt;dir_7408abf3d1459402edeb1922a4712e77 -->
<g id="edge4" class="edge">
<title>dir_d8c980f69678bb74c2eb96a617637411&#45;&gt;dir_7408abf3d1459402edeb1922a4712e77</title>
<g id="a_edge4"><a xlink:href="dir_000026_000028.html" target="_top">
<path fill="none" stroke="#63b8ff" d="M261.44,-70.75C266.89,-63.34 274.86,-52.5 281.56,-43.41"/>
<polygon fill="#63b8ff" stroke="#63b8ff" points="284.57,-45.22 287.68,-35.09 278.93,-41.07 284.57,-45.22"/>
</a>
</g>
<g id="a_edge4&#45;headlabel"><a xlink:href="dir_000026_000028.html" target="_top" xlink:title="22">
<text text-anchor="middle" x="284.73" y="-47.3" font-family="Helvetica,sans-Serif" font-size="10.00" fill="#63b8ff">22</text>
</a>
</g>
</g>
<!-- dir_d8c980f69678bb74c2eb96a617637411&#45;&gt;dir_e210c3716260b17f672da194eece00e5 -->
<g id="edge5" class="edge">
<title>dir_d8c980f69678bb74c2eb96a617637411&#45;&gt;dir_e210c3716260b17f672da194eece00e5</title>
<g id="a_edge5"><a xlink:href="dir_000026_000065.html" target="_top">
<path fill="none" stroke="#63b8ff" d="M278.94,-70.98C303.56,-62.23 342.12,-48.51 369.92,-38.62"/>
<polygon fill="#63b8ff" stroke="#63b8ff" points="371.38,-41.82 379.62,-35.17 369.03,-35.22 371.38,-41.82"/>
</a>
</g>
<g id="a_edge5&#45;headlabel"><a xlink:href="dir_000026_000065.html" target="_top" xlink:title="23">
<text text-anchor="middle" x="368.94" y="-43.2" font-family="Helvetica,sans-Serif" font-size="10.00" fill="#63b8ff">23</text>
</a>
</g>
</g>
<!-- dir_d8c980f69678bb74c2eb96a617637411&#45;&gt;dir_fe928e0a3314c1b06e0294715d23dc51 -->
<g id="edge6" class="edge">
<title>dir_d8c980f69678bb74c2eb96a617637411&#45;&gt;dir_fe928e0a3314c1b06e0294715d23dc51</title>
<g id="a_edge6"><a xlink:href="dir_000026_000009.html" target="_top">
<path fill="none" stroke="#63b8ff" d="M285.7,-73.73C324.38,-66.28 393.07,-52.45 460.8,-35.14"/>
<polygon fill="#63b8ff" stroke="#63b8ff" points="461.97,-38.45 470.78,-32.56 460.22,-31.68 461.97,-38.45"/>
</a>
</g>
<g id="a_edge6&#45;headlabel"><a xlink:href="dir_000026_000009.html" target="_top" xlink:title="33">
<text text-anchor="middle" x="459.2" y="-39.6" font-family="Helvetica,sans-Serif" font-size="10.00" fill="#63b8ff">33</text>
</a>
</g>
</g>
</g>
</svg>

<g id="navigator" transform="translate(0 0)" fill="#404254">
  <rect fill="#f2f5e9" fill-opacity="0.5" stroke="#606060" stroke-width=".5" x="0" y="0" width="60" height="60"/>
  <use id="zoomplus" xlink:href="#zoomPlus" x="17" y="9" onmousedown="handleZoom(evt,'in')"/>
  <use id="zoomminus" xlink:href="#zoomMin" x="42" y="9" onmousedown="handleZoom(evt,'out')"/>
  <use id="reset" xlink:href="#resetDef" x="30" y="36" onmousedown="handleReset()"/>
   <use id="arrowup" xlink:href="#arrowUp" x="0" y="0" onmousedown="handlePan(0,-1)"/>
  <use id="arrowright" xlink:href="#arrowRight" x="0" y="0" onmousedown="handlePan(1,0)"/>
  <use id="arrowdown" xlink:href="#arrowDown" x="0" y="0" onmousedown="handlePan(0,1)"/>
  <use id="arrowleft" xlink:href="#arrowLeft" x="0" y="0" onmousedown="handlePan(-1,0)"/>
</g>
<svg viewBox="0 0 15 15" width="100%" height="30px" preserveAspectRatio="xMaxYMin meet">
 <g id="arrow_out" transform="scale(0.3 0.3)">
  <a xlink:href="dir_d8c980f69678bb74c2eb96a617637411_dep_org.svg" target="_base">
   <rect id="button" ry="5" rx="5" y="6" x="6" height="38" width="38"
        fill="#f2f5e9" fill-opacity="0.5" stroke="#606060" stroke-width="1.0"/>
   <path id="arrow"
     d="M 11.500037,31.436501 C 11.940474,20.09759 22.043105,11.32322 32.158766,21.979434 L 37.068811,17.246167 C 37.068811,17.246167 37.088388,32 37.088388,32 L 22.160133,31.978069 C 22.160133,31.978069 26.997745,27.140456 26.997745,27.140456 C 18.528582,18.264221 13.291696,25.230495 11.500037,31.436501 z"
     style="fill:#404040;"/>
  </a>
 </g>
</svg>

<style type='text/css'>
<![CDATA[
[data-mouse-over-selected='false'] { opacity: 0.7; }
[data-mouse-over-selected='true']  { opacity: 1.0; }
]]>
</style>
<script type="application/ecmascript"><![CDATA[
document.addEventListener('DOMContentLoaded', (event) => {
  highlightEdges();
  highlightAdjacentNodes();
});
]]></script>
</svg>
