<?xml version="1.0" encoding="UTF-8" standalone="no"?>
<!DOCTYPE svg PUBLIC "-//W3C//DTD SVG 1.1//EN"
 "http://www.w3.org/Graphics/SVG/1.1/DTD/svg11.dtd">
<!-- Generated by graphviz version 2.43.0 (0)
 -->
<!-- Title: include/meltpooldg/compressible_flow Pages: 1 -->
<!--zoomable 133 -->

<svg id="main" version="1.1" xmlns="http://www.w3.org/2000/svg" xmlns:xlink="http://www.w3.org/1999/xlink" xml:space="preserve" onload="init(evt)">
<style type="text/css"><![CDATA[
.node, .edge {opacity: 0.7;}
.node.selected, .edge.selected {opacity: 1;}
.edge:hover path { stroke: red; }
.edge:hover polygon { stroke: red; fill: red; }
]]></style>

<defs>
  <circle id="rim" cx="0" cy="0" r="7"/>
  <circle id="rim2" cx="0" cy="0" r="3.5"/>
  <g id="zoomPlus">
    <use xlink:href="#rim" fill="#404040"><set attributeName="fill" to="#808080" begin="zoomplus.mouseover" end="zoomplus.mouseout"/></use>
    <path d="M-4,0h8M0,-4v8" fill="none" stroke="white" stroke-width="1.5" pointer-events="none"/>
  </g>
  <g id="zoomMin">
    <use xlink:href="#rim" fill="#404040"><set attributeName="fill" to="#808080" begin="zoomminus.mouseover" end="zoomminus.mouseout"/></use>
    <path d="M-4,0h8" fill="none" stroke="white" stroke-width="1.5" pointer-events="none"/>
  </g>
  <g id="arrowUp" transform="translate(30 24)">
    <use xlink:href="#rim"/>
    <path pointer-events="none" fill="none" stroke="white" stroke-width="1.5" d="M0,-3.0v7 M-2.5,-0.5L0,-3.0L2.5,-0.5"/>
  </g>
  <g id="arrowRight" transform="rotate(90) translate(36 -43)">
    <use xlink:href="#rim"/>
    <path pointer-events="none" fill="none" stroke="white" stroke-width="1.5" d="M0,-3.0v7 M-2.5,-0.5L0,-3.0L2.5,-0.5"/>
  </g>
  <g id="arrowDown" transform="rotate(180) translate(-30 -48)">
    <use xlink:href="#rim"/>
    <path pointer-events="none" fill="none" stroke="white" stroke-width="1.5" d="M0,-3.0v7 M-2.5,-0.5L0,-3.0L2.5,-0.5"/>
  </g>
  <g id="arrowLeft" transform="rotate(270) translate(-36 17)">
    <use xlink:href="#rim"/>
    <path pointer-events="none" fill="none" stroke="white" stroke-width="1.5" d="M0,-3.0v7 M-2.5,-0.5L0,-3.0L2.5,-0.5"/>
  </g>
  <g id="resetDef">
    <use xlink:href="#rim2" fill="#404040"><set attributeName="fill" to="#808080" begin="reset.mouseover" end="reset.mouseout"/></use>
  </g>
</defs>
<script type="application/ecmascript">
var viewWidth = 711;
var viewHeight = 133;
var sectionId = 'dynsection-0';
</script>
<script type="application/ecmascript" xlink:href="svg.min.js"/>
<svg id="graph" class="graph">
<g id="viewport">
<title>include/meltpooldg/compressible_flow</title>
<g id="clust1" class="cluster">
<title>clusterdir_8f99bfadfdcbaa65d0da694c66c754ed</title>
<g id="a_clust1"><a xlink:href="dir_8f99bfadfdcbaa65d0da694c66c754ed.html" target="_top" xlink:title="meltpooldg">
<polygon fill="#edf0f7" stroke="#7f7f7f" stroke-dasharray="5,2" points="8,-8 8,-117 695,-117 695,-8 8,-8"/>
<text text-anchor="middle" x="351.5" y="-105" font-family="Helvetica,sans-Serif" font-size="10.00">meltpooldg</text>
</a>
</g>
</g>
<!-- dir_039686281a67abccd75d5178e86105cb -->
<g id="node1" class="node">
<title>dir_039686281a67abccd75d5178e86105cb</title>
<g id="a_node1"><a xlink:href="dir_039686281a67abccd75d5178e86105cb.html" target="_top" xlink:title="species_transport">
<polygon fill="#a2b4d6" stroke="#404040" points="119.5,-35 16.5,-35 16.5,-16 119.5,-16 119.5,-35"/>
<text text-anchor="middle" x="68" y="-23" font-family="Helvetica,sans-Serif" font-size="10.00">species_transport</text>
</a>
</g>
</g>
<!-- dir_20597749ce1f45b6168fd991693c8c45 -->
<g id="node2" class="node">
<title>dir_20597749ce1f45b6168fd991693c8c45</title>
<g id="a_node2"><a xlink:href="dir_20597749ce1f45b6168fd991693c8c45.html" target="_top" xlink:title="phase_change">
<polygon fill="#a2b4d6" stroke="#404040" points="224,-35 138,-35 138,-16 224,-16 224,-35"/>
<text text-anchor="middle" x="181" y="-23" font-family="Helvetica,sans-Serif" font-size="10.00">phase_change</text>
</a>
</g>
</g>
<!-- dir_270e08c14b917b5512a0af8e51711095 -->
<g id="node3" class="node">
<title>dir_270e08c14b917b5512a0af8e51711095</title>
<g id="a_node3"><a xlink:href="dir_270e08c14b917b5512a0af8e51711095.html" target="_top" xlink:title="post_processing">
<polygon fill="#a2b4d6" stroke="#404040" points="337.5,-35 242.5,-35 242.5,-16 337.5,-16 337.5,-35"/>
<text text-anchor="middle" x="290" y="-23" font-family="Helvetica,sans-Serif" font-size="10.00">post_processing</text>
</a>
</g>
</g>
<!-- dir_33f297a483115a9e2addf470c6b064fb -->
<g id="node4" class="node">
<title>dir_33f297a483115a9e2addf470c6b064fb</title>
<g id="a_node4"><a xlink:href="dir_33f297a483115a9e2addf470c6b064fb.html" target="_top" xlink:title="utilities">
<polygon fill="#a2b4d6" stroke="#404040" points="408.5,-35 355.5,-35 355.5,-16 408.5,-16 408.5,-35"/>
<text text-anchor="middle" x="382" y="-23" font-family="Helvetica,sans-Serif" font-size="10.00">utilities</text>
</a>
</g>
</g>
<!-- dir_3d83c62cc94644fc7d3192423a0d8c24 -->
<g id="node5" class="node">
<title>dir_3d83c62cc94644fc7d3192423a0d8c24</title>
<g id="a_node5"><a xlink:href="dir_3d83c62cc94644fc7d3192423a0d8c24.html" target="_top" xlink:title="cut">
<polygon fill="#a2b4d6" stroke="#404040" points="459,-35 427,-35 427,-16 459,-16 459,-35"/>
<text text-anchor="middle" x="443" y="-23" font-family="Helvetica,sans-Serif" font-size="10.00">cut</text>
</a>
</g>
</g>
<!-- dir_e210c3716260b17f672da194eece00e5 -->
<g id="node6" class="node">
<title>dir_e210c3716260b17f672da194eece00e5</title>
<g id="a_node6"><a xlink:href="dir_e210c3716260b17f672da194eece00e5.html" target="_top" xlink:title="time_integration">
<polygon fill="#a2b4d6" stroke="#404040" points="575,-35 477,-35 477,-16 575,-16 575,-35"/>
<text text-anchor="middle" x="526" y="-23" font-family="Helvetica,sans-Serif" font-size="10.00">time_integration</text>
</a>
</g>
</g>
<!-- dir_e71d216056fb13ff2a67c48841417c25 -->
<g id="node7" class="node">
<title>dir_e71d216056fb13ff2a67c48841417c25</title>
<g id="a_node7"><a xlink:href="dir_e71d216056fb13ff2a67c48841417c25.html" target="_top" xlink:title="flow">
<polygon fill="#a2b4d6" stroke="#404040" points="630.5,-35 593.5,-35 593.5,-16 630.5,-16 630.5,-35"/>
<text text-anchor="middle" x="612" y="-23" font-family="Helvetica,sans-Serif" font-size="10.00">flow</text>
</a>
</g>
</g>
<!-- dir_fe928e0a3314c1b06e0294715d23dc51 -->
<g id="node8" class="node">
<title>dir_fe928e0a3314c1b06e0294715d23dc51</title>
<g id="a_node8"><a xlink:href="dir_fe928e0a3314c1b06e0294715d23dc51.html" target="_top" xlink:title="core">
<polygon fill="#a2b4d6" stroke="#404040" points="687,-35 649,-35 649,-16 687,-16 687,-35"/>
<text text-anchor="middle" x="668" y="-23" font-family="Helvetica,sans-Serif" font-size="10.00">core</text>
</a>
</g>
</g>
<!-- dir_bb77f7f27cd899d864c2a9921966d6b9 -->
<g id="node9" class="node">
<title>dir_bb77f7f27cd899d864c2a9921966d6b9</title>
<g id="a_node9"><a xlink:href="dir_bb77f7f27cd899d864c2a9921966d6b9.html" target="_top" xlink:title="compressible_flow">
<polygon fill="#edf0f7" stroke="#404040" stroke-width="2" points="465.5,-90 358.5,-90 358.5,-71 465.5,-71 465.5,-90"/>
<text text-anchor="middle" x="412" y="-78" font-family="Helvetica,sans-Serif" font-size="10.00">compressible_flow</text>
</a>
</g>
</g>
<!-- dir_bb77f7f27cd899d864c2a9921966d6b9&#45;&gt;dir_039686281a67abccd75d5178e86105cb -->
<g id="edge1" class="edge">
<title>dir_bb77f7f27cd899d864c2a9921966d6b9&#45;&gt;dir_039686281a67abccd75d5178e86105cb</title>
<g id="a_edge1"><a xlink:href="dir_000007_000061.html" target="_top">
<path fill="none" stroke="#63b8ff" d="M358.25,-71.22C296.37,-61.68 194.9,-46.05 129.81,-36.02"/>
<polygon fill="#63b8ff" stroke="#63b8ff" points="130.1,-32.53 119.69,-34.46 129.04,-39.45 130.1,-32.53"/>
</a>
</g>
<g id="a_edge1&#45;headlabel"><a xlink:href="dir_000007_000061.html" target="_top" xlink:title="5">
<text text-anchor="middle" x="134.09" y="-27.77" font-family="Helvetica,sans-Serif" font-size="10.00" fill="#63b8ff">5</text>
</a>
</g>
</g>
<!-- dir_bb77f7f27cd899d864c2a9921966d6b9&#45;&gt;dir_20597749ce1f45b6168fd991693c8c45 -->
<g id="edge2" class="edge">
<title>dir_bb77f7f27cd899d864c2a9921966d6b9&#45;&gt;dir_20597749ce1f45b6168fd991693c8c45</title>
<g id="a_edge2"><a xlink:href="dir_000007_000043.html" target="_top">
<path fill="none" stroke="#63b8ff" d="M374.89,-70.98C335.01,-61.84 271.54,-47.27 228.16,-37.32"/>
<polygon fill="#63b8ff" stroke="#63b8ff" points="228.93,-33.91 218.41,-35.08 227.37,-40.73 228.93,-33.91"/>
</a>
</g>
<g id="a_edge2&#45;headlabel"><a xlink:href="dir_000007_000043.html" target="_top" xlink:title="4">
<text text-anchor="middle" x="233.07" y="-29.44" font-family="Helvetica,sans-Serif" font-size="10.00" fill="#63b8ff">4</text>
</a>
</g>
</g>
<!-- dir_bb77f7f27cd899d864c2a9921966d6b9&#45;&gt;dir_270e08c14b917b5512a0af8e51711095 -->
<g id="edge3" class="edge">
<title>dir_bb77f7f27cd899d864c2a9921966d6b9&#45;&gt;dir_270e08c14b917b5512a0af8e51711095</title>
<g id="a_edge3"><a xlink:href="dir_000007_000045.html" target="_top">
<path fill="none" stroke="#63b8ff" d="M392.4,-70.98C372.68,-62.42 342.05,-49.11 319.42,-39.28"/>
<polygon fill="#63b8ff" stroke="#63b8ff" points="320.52,-35.94 309.96,-35.17 317.74,-42.37 320.52,-35.94"/>
</a>
</g>
<g id="a_edge3&#45;headlabel"><a xlink:href="dir_000007_000045.html" target="_top" xlink:title="5">
<text text-anchor="middle" x="324.95" y="-32.27" font-family="Helvetica,sans-Serif" font-size="10.00" fill="#63b8ff">5</text>
</a>
</g>
</g>
<!-- dir_bb77f7f27cd899d864c2a9921966d6b9&#45;&gt;dir_33f297a483115a9e2addf470c6b064fb -->
<g id="edge4" class="edge">
<title>dir_bb77f7f27cd899d864c2a9921966d6b9&#45;&gt;dir_33f297a483115a9e2addf470c6b064fb</title>
<g id="a_edge4"><a xlink:href="dir_000007_000074.html" target="_top">
<path fill="none" stroke="#63b8ff" d="M407.05,-70.75C402.94,-63.49 396.97,-52.95 391.9,-43.98"/>
<polygon fill="#63b8ff" stroke="#63b8ff" points="394.83,-42.07 386.86,-35.09 388.74,-45.52 394.83,-42.07"/>
</a>
</g>
<g id="a_edge4&#45;headlabel"><a xlink:href="dir_000007_000074.html" target="_top" xlink:title="23">
<text text-anchor="middle" x="399.08" y="-41.3" font-family="Helvetica,sans-Serif" font-size="10.00" fill="#63b8ff">23</text>
</a>
</g>
</g>
<!-- dir_bb77f7f27cd899d864c2a9921966d6b9&#45;&gt;dir_3d83c62cc94644fc7d3192423a0d8c24 -->
<g id="edge5" class="edge">
<title>dir_bb77f7f27cd899d864c2a9921966d6b9&#45;&gt;dir_3d83c62cc94644fc7d3192423a0d8c24</title>
<g id="a_edge5"><a xlink:href="dir_000007_000011.html" target="_top">
<path fill="none" stroke="#63b8ff" d="M417.12,-70.75C421.36,-63.49 427.53,-52.95 432.78,-43.98"/>
<polygon fill="#63b8ff" stroke="#63b8ff" points="435.95,-45.49 437.98,-35.09 429.91,-41.95 435.95,-45.49"/>
</a>
</g>
<g id="a_edge5&#45;headlabel"><a xlink:href="dir_000007_000011.html" target="_top" xlink:title="6">
<text text-anchor="middle" x="436.58" y="-47.52" font-family="Helvetica,sans-Serif" font-size="10.00" fill="#63b8ff">6</text>
</a>
</g>
</g>
<!-- dir_bb77f7f27cd899d864c2a9921966d6b9&#45;&gt;dir_e210c3716260b17f672da194eece00e5 -->
<g id="edge6" class="edge">
<title>dir_bb77f7f27cd899d864c2a9921966d6b9&#45;&gt;dir_e210c3716260b17f672da194eece00e5</title>
<g id="a_edge6"><a xlink:href="dir_000007_000065.html" target="_top">
<path fill="none" stroke="#63b8ff" d="M430.32,-70.98C448.66,-62.46 477.11,-49.23 498.23,-39.41"/>
<polygon fill="#63b8ff" stroke="#63b8ff" points="499.76,-42.56 507.35,-35.17 496.81,-36.21 499.76,-42.56"/>
</a>
</g>
<g id="a_edge6&#45;headlabel"><a xlink:href="dir_000007_000065.html" target="_top" xlink:title="12">
<text text-anchor="middle" x="497.7" y="-44.15" font-family="Helvetica,sans-Serif" font-size="10.00" fill="#63b8ff">12</text>
</a>
</g>
</g>
<!-- dir_bb77f7f27cd899d864c2a9921966d6b9&#45;&gt;dir_e71d216056fb13ff2a67c48841417c25 -->
<g id="edge7" class="edge">
<title>dir_bb77f7f27cd899d864c2a9921966d6b9&#45;&gt;dir_e71d216056fb13ff2a67c48841417c25</title>
<g id="a_edge7"><a xlink:href="dir_000007_000016.html" target="_top">
<path fill="none" stroke="#63b8ff" d="M446.71,-70.97C479.48,-62.82 530.25,-49.93 583.41,-35.07"/>
<polygon fill="#63b8ff" stroke="#63b8ff" points="584.68,-38.35 593.36,-32.28 582.78,-31.61 584.68,-38.35"/>
</a>
</g>
<g id="a_edge7&#45;headlabel"><a xlink:href="dir_000007_000016.html" target="_top" xlink:title="1">
<text text-anchor="middle" x="581.98" y="-39.56" font-family="Helvetica,sans-Serif" font-size="10.00" fill="#63b8ff">1</text>
</a>
</g>
</g>
<!-- dir_bb77f7f27cd899d864c2a9921966d6b9&#45;&gt;dir_fe928e0a3314c1b06e0294715d23dc51 -->
<g id="edge8" class="edge">
<title>dir_bb77f7f27cd899d864c2a9921966d6b9&#45;&gt;dir_fe928e0a3314c1b06e0294715d23dc51</title>
<g id="a_edge8"><a xlink:href="dir_000007_000009.html" target="_top">
<path fill="none" stroke="#63b8ff" d="M463.49,-71C507.65,-63.36 573.14,-51.2 638.7,-35.12"/>
<polygon fill="#63b8ff" stroke="#63b8ff" points="639.93,-38.42 648.79,-32.61 638.24,-31.63 639.93,-38.42"/>
</a>
</g>
<g id="a_edge8&#45;headlabel"><a xlink:href="dir_000007_000009.html" target="_top" xlink:title="9">
<text text-anchor="middle" x="637.13" y="-39.54" font-family="Helvetica,sans-Serif" font-size="10.00" fill="#63b8ff">9</text>
</a>
</g>
</g>
</g>
</svg>

<g id="navigator" transform="translate(0 0)" fill="#404254">
  <rect fill="#f2f5e9" fill-opacity="0.5" stroke="#606060" stroke-width=".5" x="0" y="0" width="60" height="60"/>
  <use id="zoomplus" xlink:href="#zoomPlus" x="17" y="9" onmousedown="handleZoom(evt,'in')"/>
  <use id="zoomminus" xlink:href="#zoomMin" x="42" y="9" onmousedown="handleZoom(evt,'out')"/>
  <use id="reset" xlink:href="#resetDef" x="30" y="36" onmousedown="handleReset()"/>
   <use id="arrowup" xlink:href="#arrowUp" x="0" y="0" onmousedown="handlePan(0,-1)"/>
  <use id="arrowright" xlink:href="#arrowRight" x="0" y="0" onmousedown="handlePan(1,0)"/>
  <use id="arrowdown" xlink:href="#arrowDown" x="0" y="0" onmousedown="handlePan(0,1)"/>
  <use id="arrowleft" xlink:href="#arrowLeft" x="0" y="0" onmousedown="handlePan(-1,0)"/>
</g>
<svg viewBox="0 0 15 15" width="100%" height="30px" preserveAspectRatio="xMaxYMin meet">
 <g id="arrow_out" transform="scale(0.3 0.3)">
  <a xlink:href="dir_bb77f7f27cd899d864c2a9921966d6b9_dep_org.svg" target="_base">
   <rect id="button" ry="5" rx="5" y="6" x="6" height="38" width="38"
        fill="#f2f5e9" fill-opacity="0.5" stroke="#606060" stroke-width="1.0"/>
   <path id="arrow"
     d="M 11.500037,31.436501 C 11.940474,20.09759 22.043105,11.32322 32.158766,21.979434 L 37.068811,17.246167 C 37.068811,17.246167 37.088388,32 37.088388,32 L 22.160133,31.978069 C 22.160133,31.978069 26.997745,27.140456 26.997745,27.140456 C 18.528582,18.264221 13.291696,25.230495 11.500037,31.436501 z"
     style="fill:#404040;"/>
  </a>
 </g>
</svg>

<style type='text/css'>
<![CDATA[
[data-mouse-over-selected='false'] { opacity: 0.7; }
[data-mouse-over-selected='true']  { opacity: 1.0; }
]]>
</style>
<script type="application/ecmascript"><![CDATA[
document.addEventListener('DOMContentLoaded', (event) => {
  highlightEdges();
  highlightAdjacentNodes();
});
]]></script>
</svg>
