<?xml version="1.0" encoding="UTF-8" standalone="no"?>
<!DOCTYPE svg PUBLIC "-//W3C//DTD SVG 1.1//EN"
 "http://www.w3.org/Graphics/SVG/1.1/DTD/svg11.dtd">
<!-- Generated by graphviz version 2.43.0 (0)
 -->
<!-- Title: include/meltpooldg/utilities/dof_tools.hpp Pages: 1 -->
<svg width="932pt" height="115pt"
 viewBox="0.00 0.00 931.50 115.00" xmlns="http://www.w3.org/2000/svg" xmlns:xlink="http://www.w3.org/1999/xlink">
<g id="graph0" class="graph" transform="scale(1 1) rotate(0) translate(4 111)">
<title>include/meltpooldg/utilities/dof_tools.hpp</title>
<!-- Node1 -->
<g id="Node000001" class="node">
<title>Node1</title>
<g id="a_Node000001"><a xlink:title=" ">
<polygon fill="#999999" stroke="#666666" points="529.5,-107 404.5,-107 404.5,-77 529.5,-77 529.5,-107"/>
<text text-anchor="start" x="412.5" y="-95" font-family="Helvetica,sans-Serif" font-size="10.00">include/meltpooldg</text>
<text text-anchor="middle" x="467" y="-84" font-family="Helvetica,sans-Serif" font-size="10.00">/utilities/dof_tools.hpp</text>
</a>
</g>
</g>
<!-- Node2 -->
<g id="Node000002" class="node">
<title>Node2</title>
<g id="a_Node000002"><a xlink:href="surface__tension__operation_8cpp.html" target="_top" xlink:title=" ">
<polygon fill="white" stroke="#666666" points="130,-35.5 0,-35.5 0,-5.5 130,-5.5 130,-35.5"/>
<text text-anchor="start" x="8" y="-23.5" font-family="Helvetica,sans-Serif" font-size="10.00">source/flow/surface</text>
<text text-anchor="middle" x="65" y="-12.5" font-family="Helvetica,sans-Serif" font-size="10.00">_tension_operation.cpp</text>
</a>
</g>
</g>
<!-- Node1&#45;&gt;Node2 -->
<g id="edge1_Node000001_Node000002" class="edge">
<title>Node1&#45;&gt;Node2</title>
<g id="a_edge1_Node000001_Node000002"><a xlink:title=" ">
<path fill="none" stroke="#63b8ff" d="M394.38,-82.19C327.65,-73.55 226.18,-59.08 139,-41 131.32,-39.41 123.26,-37.51 115.38,-35.54"/>
<polygon fill="#63b8ff" stroke="#63b8ff" points="394.01,-85.67 404.38,-83.47 394.9,-78.72 394.01,-85.67"/>
</a>
</g>
</g>
<!-- Node3 -->
<g id="Node000003" class="node">
<title>Node3</title>
<g id="a_Node000003"><a xlink:href="heat__diffuse__operator_8cpp.html" target="_top" xlink:title=" ">
<polygon fill="white" stroke="#666666" points="285.5,-35.5 148.5,-35.5 148.5,-5.5 285.5,-5.5 285.5,-35.5"/>
<text text-anchor="start" x="156.5" y="-23.5" font-family="Helvetica,sans-Serif" font-size="10.00">source/heat/heat_diffuse</text>
<text text-anchor="middle" x="217" y="-12.5" font-family="Helvetica,sans-Serif" font-size="10.00">_operator.cpp</text>
</a>
</g>
</g>
<!-- Node1&#45;&gt;Node3 -->
<g id="edge2_Node000001_Node000003" class="edge">
<title>Node1&#45;&gt;Node3</title>
<g id="a_edge2_Node000001_Node000003"><a xlink:title=" ">
<path fill="none" stroke="#63b8ff" d="M406.73,-74.24C364.15,-62.41 307.74,-46.72 267.52,-35.54"/>
<polygon fill="#63b8ff" stroke="#63b8ff" points="405.84,-77.63 416.41,-76.94 407.71,-70.89 405.84,-77.63"/>
</a>
</g>
</g>
<!-- Node4 -->
<g id="Node000004" class="node">
<title>Node4</title>
<g id="a_Node000004"><a xlink:href="laser__heat__source__projection__based_8cpp.html" target="_top" xlink:title=" ">
<polygon fill="white" stroke="#666666" points="466.5,-35.5 303.5,-35.5 303.5,-5.5 466.5,-5.5 466.5,-35.5"/>
<text text-anchor="start" x="311.5" y="-23.5" font-family="Helvetica,sans-Serif" font-size="10.00">source/heat/laser_heat</text>
<text text-anchor="middle" x="385" y="-12.5" font-family="Helvetica,sans-Serif" font-size="10.00">_source_projection_based.cpp</text>
</a>
</g>
</g>
<!-- Node1&#45;&gt;Node4 -->
<g id="edge3_Node000001_Node000004" class="edge">
<title>Node1&#45;&gt;Node4</title>
<g id="a_edge3_Node000001_Node000004"><a xlink:title=" ">
<path fill="none" stroke="#63b8ff" d="M442.59,-70.31C429.35,-59.09 413.34,-45.52 401.57,-35.54"/>
<polygon fill="#63b8ff" stroke="#63b8ff" points="440.51,-73.14 450.41,-76.94 445.04,-67.8 440.51,-73.14"/>
</a>
</g>
</g>
<!-- Node5 -->
<g id="Node000005" class="node">
<title>Node5</title>
<g id="a_Node000005"><a xlink:href="evaporation__source__terms__continuous_8cpp.html" target="_top" xlink:title=" ">
<polygon fill="white" stroke="#666666" points="613.5,-41 484.5,-41 484.5,0 613.5,0 613.5,-41"/>
<text text-anchor="start" x="492.5" y="-29" font-family="Helvetica,sans-Serif" font-size="10.00">source/phase_change</text>
<text text-anchor="start" x="492.5" y="-18" font-family="Helvetica,sans-Serif" font-size="10.00">/evaporation_source</text>
<text text-anchor="middle" x="549" y="-7" font-family="Helvetica,sans-Serif" font-size="10.00">_terms_continuous.cpp</text>
</a>
</g>
</g>
<!-- Node1&#45;&gt;Node5 -->
<g id="edge4_Node000001_Node000005" class="edge">
<title>Node1&#45;&gt;Node5</title>
<g id="a_edge4_Node000001_Node000005"><a xlink:title=" ">
<path fill="none" stroke="#63b8ff" d="M491.5,-70.23C502.4,-60.99 515.17,-50.17 525.91,-41.07"/>
<polygon fill="#63b8ff" stroke="#63b8ff" points="488.96,-67.8 483.59,-76.94 493.49,-73.14 488.96,-67.8"/>
</a>
</g>
</g>
<!-- Node6 -->
<g id="Node000006" class="node">
<title>Node6</title>
<g id="a_Node000006"><a xlink:href="recoil__pressure__operation_8cpp.html" target="_top" xlink:title=" ">
<polygon fill="white" stroke="#666666" points="798,-35.5 632,-35.5 632,-5.5 798,-5.5 798,-35.5"/>
<text text-anchor="start" x="640" y="-23.5" font-family="Helvetica,sans-Serif" font-size="10.00">source/phase_change</text>
<text text-anchor="middle" x="715" y="-12.5" font-family="Helvetica,sans-Serif" font-size="10.00">/recoil_pressure_operation.cpp</text>
</a>
</g>
</g>
<!-- Node1&#45;&gt;Node6 -->
<g id="edge5_Node000001_Node000006" class="edge">
<title>Node1&#45;&gt;Node6</title>
<g id="a_edge5_Node000001_Node000006"><a xlink:title=" ">
<path fill="none" stroke="#63b8ff" d="M527.06,-74.17C569.26,-62.34 625.07,-46.7 664.89,-35.54"/>
<polygon fill="#63b8ff" stroke="#63b8ff" points="525.87,-70.87 517.19,-76.94 527.76,-77.61 525.87,-70.87"/>
</a>
</g>
</g>
<!-- Node7 -->
<g id="Node000007" class="node">
<title>Node7</title>
<g id="a_Node000007"><a xlink:href="dof__tools_8cpp.html" target="_top" xlink:title=" ">
<polygon fill="white" stroke="#666666" points="923.5,-35.5 816.5,-35.5 816.5,-5.5 923.5,-5.5 923.5,-35.5"/>
<text text-anchor="start" x="824.5" y="-23.5" font-family="Helvetica,sans-Serif" font-size="10.00">source/utilities/dof</text>
<text text-anchor="middle" x="870" y="-12.5" font-family="Helvetica,sans-Serif" font-size="10.00">_tools.cpp</text>
</a>
</g>
</g>
<!-- Node1&#45;&gt;Node7 -->
<g id="edge6_Node000001_Node000007" class="edge">
<title>Node1&#45;&gt;Node7</title>
<g id="a_edge6_Node000001_Node000007"><a xlink:title=" ">
<path fill="none" stroke="#63b8ff" d="M539.94,-83.57C609.2,-75.74 715.96,-61.65 807,-41 813.81,-39.45 820.95,-37.54 827.88,-35.52"/>
<polygon fill="#63b8ff" stroke="#63b8ff" points="539.12,-80.14 529.57,-84.73 539.9,-87.09 539.12,-80.14"/>
</a>
</g>
</g>
</g>
</svg>
