<?xml version="1.0" encoding="UTF-8" standalone="no"?>
<!DOCTYPE svg PUBLIC "-//W3C//DTD SVG 1.1//EN"
 "http://www.w3.org/Graphics/SVG/1.1/DTD/svg11.dtd">
<!-- Generated by graphviz version 2.43.0 (0)
 -->
<!-- Title: source/utilities/dof_tools.cpp Pages: 1 -->
<!--zoomable 236 -->

<svg id="main" version="1.1" xmlns="http://www.w3.org/2000/svg" xmlns:xlink="http://www.w3.org/1999/xlink" xml:space="preserve" onload="init(evt)">
<style type="text/css"><![CDATA[
.node, .edge {opacity: 0.7;}
.node.selected, .edge.selected {opacity: 1;}
.edge:hover path { stroke: red; }
.edge:hover polygon { stroke: red; fill: red; }
]]></style>

<defs>
  <circle id="rim" cx="0" cy="0" r="7"/>
  <circle id="rim2" cx="0" cy="0" r="3.5"/>
  <g id="zoomPlus">
    <use xlink:href="#rim" fill="#404040"><set attributeName="fill" to="#808080" begin="zoomplus.mouseover" end="zoomplus.mouseout"/></use>
    <path d="M-4,0h8M0,-4v8" fill="none" stroke="white" stroke-width="1.5" pointer-events="none"/>
  </g>
  <g id="zoomMin">
    <use xlink:href="#rim" fill="#404040"><set attributeName="fill" to="#808080" begin="zoomminus.mouseover" end="zoomminus.mouseout"/></use>
    <path d="M-4,0h8" fill="none" stroke="white" stroke-width="1.5" pointer-events="none"/>
  </g>
  <g id="arrowUp" transform="translate(30 24)">
    <use xlink:href="#rim"/>
    <path pointer-events="none" fill="none" stroke="white" stroke-width="1.5" d="M0,-3.0v7 M-2.5,-0.5L0,-3.0L2.5,-0.5"/>
  </g>
  <g id="arrowRight" transform="rotate(90) translate(36 -43)">
    <use xlink:href="#rim"/>
    <path pointer-events="none" fill="none" stroke="white" stroke-width="1.5" d="M0,-3.0v7 M-2.5,-0.5L0,-3.0L2.5,-0.5"/>
  </g>
  <g id="arrowDown" transform="rotate(180) translate(-30 -48)">
    <use xlink:href="#rim"/>
    <path pointer-events="none" fill="none" stroke="white" stroke-width="1.5" d="M0,-3.0v7 M-2.5,-0.5L0,-3.0L2.5,-0.5"/>
  </g>
  <g id="arrowLeft" transform="rotate(270) translate(-36 17)">
    <use xlink:href="#rim"/>
    <path pointer-events="none" fill="none" stroke="white" stroke-width="1.5" d="M0,-3.0v7 M-2.5,-0.5L0,-3.0L2.5,-0.5"/>
  </g>
  <g id="resetDef">
    <use xlink:href="#rim2" fill="#404040"><set attributeName="fill" to="#808080" begin="reset.mouseover" end="reset.mouseout"/></use>
  </g>
</defs>
<script type="application/ecmascript">
var viewWidth = 1332;
var viewHeight = 236;
var sectionId = 'dynsection-0';
</script>
<script type="application/ecmascript" xlink:href="svg.min.js"/>
<svg id="graph" class="graph">
<g id="viewport">
<title>source/utilities/dof_tools.cpp</title>
<!-- Node1 -->
<g id="Node000001" class="node">
<title>Node1</title>
<g id="a_Node000001"><a xlink:title=" ">
<polygon fill="#999999" stroke="#666666" points="857.5,-228 750.5,-228 750.5,-198 857.5,-198 857.5,-228"/>
<text text-anchor="start" x="758.5" y="-216" font-family="Helvetica,sans-Serif" font-size="10.00">source/utilities/dof</text>
<text text-anchor="middle" x="804" y="-205" font-family="Helvetica,sans-Serif" font-size="10.00">_tools.cpp</text>
</a>
</g>
</g>
<!-- Node2 -->
<g id="Node000002" class="node">
<title>Node2</title>
<g id="a_Node000002"><a xlink:href="dof__tools_8hpp.html" target="_top" xlink:title=" ">
<polygon fill="white" stroke="#666666" points="349,-162 237,-162 237,-132 349,-132 349,-162"/>
<text text-anchor="start" x="245" y="-150" font-family="Helvetica,sans-Serif" font-size="10.00">meltpooldg/utilities</text>
<text text-anchor="middle" x="293" y="-139" font-family="Helvetica,sans-Serif" font-size="10.00">/dof_tools.hpp</text>
</a>
</g>
</g>
<!-- Node1&#45;&gt;Node2 -->
<g id="edge1_Node000001_Node000002" class="edge">
<title>Node1&#45;&gt;Node2</title>
<g id="a_edge1_Node000001_Node000002"><a xlink:title=" ">
<path fill="none" stroke="#63b8ff" d="M750.28,-205.27C656.14,-193.48 461.66,-169.12 359.31,-156.3"/>
<polygon fill="#63b8ff" stroke="#63b8ff" points="359.45,-152.8 349.09,-155.03 358.58,-159.74 359.45,-152.8"/>
</a>
</g>
</g>
<!-- Node6 -->
<g id="Node000006" class="node">
<title>Node6</title>
<g id="a_Node000006"><a xlink:title=" ">
<polygon fill="#e0e0e0" stroke="#999999" points="520.5,-24.5 371.5,-24.5 371.5,-5.5 520.5,-5.5 520.5,-24.5"/>
<text text-anchor="middle" x="446" y="-12.5" font-family="Helvetica,sans-Serif" font-size="10.00">deal.II/base/vectorization.h</text>
</a>
</g>
</g>
<!-- Node1&#45;&gt;Node6 -->
<g id="edge9_Node000001_Node000006" class="edge">
<title>Node1&#45;&gt;Node6</title>
<g id="a_edge9_Node000001_Node000006"><a xlink:title=" ">
<path fill="none" stroke="#63b8ff" d="M750.18,-211.67C664.73,-209.95 503.74,-201.4 465,-162 431.48,-127.91 436.8,-65.7 442.1,-34.66"/>
<polygon fill="#63b8ff" stroke="#63b8ff" points="445.55,-35.22 443.97,-24.74 438.67,-33.91 445.55,-35.22"/>
</a>
</g>
</g>
<!-- Node8 -->
<g id="Node000008" class="node">
<title>Node8</title>
<g id="a_Node000008"><a xlink:title=" ">
<polygon fill="#e0e0e0" stroke="#999999" points="612,-156.5 474,-156.5 474,-137.5 612,-137.5 612,-156.5"/>
<text text-anchor="middle" x="543" y="-144.5" font-family="Helvetica,sans-Serif" font-size="10.00">deal.II/base/exceptions.h</text>
</a>
</g>
</g>
<!-- Node1&#45;&gt;Node8 -->
<g id="edge7_Node000001_Node000008" class="edge">
<title>Node1&#45;&gt;Node8</title>
<g id="a_edge7_Node000001_Node000008"><a xlink:title=" ">
<path fill="none" stroke="#63b8ff" d="M750.24,-198.82C702.23,-187.05 632.75,-170.01 587.72,-158.97"/>
<polygon fill="#63b8ff" stroke="#63b8ff" points="588.49,-155.55 577.94,-156.57 586.82,-162.35 588.49,-155.55"/>
</a>
</g>
</g>
<!-- Node9 -->
<g id="Node000009" class="node">
<title>Node9</title>
<g id="a_Node000009"><a xlink:title=" ">
<polygon fill="#e0e0e0" stroke="#999999" points="740,-156.5 630,-156.5 630,-137.5 740,-137.5 740,-156.5"/>
<text text-anchor="middle" x="685" y="-144.5" font-family="Helvetica,sans-Serif" font-size="10.00">deal.II/base/point.h</text>
</a>
</g>
</g>
<!-- Node1&#45;&gt;Node9 -->
<g id="edge8_Node000001_Node000009" class="edge">
<title>Node1&#45;&gt;Node9</title>
<g id="a_edge8_Node000001_Node000009"><a xlink:title=" ">
<path fill="none" stroke="#63b8ff" d="M777.88,-197.95C757.66,-187.08 729.82,-172.11 709.91,-161.4"/>
<polygon fill="#63b8ff" stroke="#63b8ff" points="711.3,-158.17 700.84,-156.52 707.99,-164.34 711.3,-158.17"/>
</a>
</g>
</g>
<!-- Node10 -->
<g id="Node000010" class="node">
<title>Node10</title>
<g id="a_Node000010"><a xlink:title=" ">
<polygon fill="#e0e0e0" stroke="#999999" points="850,-156.5 758,-156.5 758,-137.5 850,-137.5 850,-156.5"/>
<text text-anchor="middle" x="804" y="-144.5" font-family="Helvetica,sans-Serif" font-size="10.00">deal.II/fe/fe_q.h</text>
</a>
</g>
</g>
<!-- Node1&#45;&gt;Node10 -->
<g id="edge10_Node000001_Node000010" class="edge">
<title>Node1&#45;&gt;Node10</title>
<g id="a_edge10_Node000001_Node000010"><a xlink:title=" ">
<path fill="none" stroke="#63b8ff" d="M804,-197.8C804,-188.7 804,-176.79 804,-166.9"/>
<polygon fill="#63b8ff" stroke="#63b8ff" points="807.5,-166.84 804,-156.84 800.5,-166.84 807.5,-166.84"/>
</a>
</g>
</g>
<!-- Node11 -->
<g id="Node000011" class="node">
<title>Node11</title>
<g id="a_Node000011"><a xlink:title=" ">
<polygon fill="#e0e0e0" stroke="#999999" points="984,-156.5 868,-156.5 868,-137.5 984,-137.5 984,-156.5"/>
<text text-anchor="middle" x="926" y="-144.5" font-family="Helvetica,sans-Serif" font-size="10.00">deal.II/fe/fe_q_dg0.h</text>
</a>
</g>
</g>
<!-- Node1&#45;&gt;Node11 -->
<g id="edge11_Node000001_Node000011" class="edge">
<title>Node1&#45;&gt;Node11</title>
<g id="a_edge11_Node000001_Node000011"><a xlink:title=" ">
<path fill="none" stroke="#63b8ff" d="M830.77,-197.95C851.6,-187.03 880.31,-171.97 900.74,-161.25"/>
<polygon fill="#63b8ff" stroke="#63b8ff" points="902.53,-164.26 909.76,-156.52 899.28,-158.06 902.53,-164.26"/>
</a>
</g>
</g>
<!-- Node12 -->
<g id="Node000012" class="node">
<title>Node12</title>
<g id="a_Node000012"><a xlink:title=" ">
<polygon fill="#e0e0e0" stroke="#999999" points="1131.5,-156.5 1002.5,-156.5 1002.5,-137.5 1131.5,-137.5 1131.5,-156.5"/>
<text text-anchor="middle" x="1067" y="-144.5" font-family="Helvetica,sans-Serif" font-size="10.00">deal.II/fe/fe_q_iso_q1.h</text>
</a>
</g>
</g>
<!-- Node1&#45;&gt;Node12 -->
<g id="edge12_Node000001_Node000012" class="edge">
<title>Node1&#45;&gt;Node12</title>
<g id="a_edge12_Node000001_Node000012"><a xlink:title=" ">
<path fill="none" stroke="#63b8ff" d="M857.54,-198.97C905.99,-187.18 976.54,-170.01 1022.11,-158.92"/>
<polygon fill="#63b8ff" stroke="#63b8ff" points="1023.11,-162.28 1032,-156.52 1021.45,-155.48 1023.11,-162.28"/>
</a>
</g>
</g>
<!-- Node13 -->
<g id="Node000013" class="node">
<title>Node13</title>
<g id="a_Node000013"><a xlink:title=" ">
<polygon fill="#e0e0e0" stroke="#999999" points="1258.5,-162 1149.5,-162 1149.5,-132 1258.5,-132 1258.5,-162"/>
<text text-anchor="start" x="1157.5" y="-150" font-family="Helvetica,sans-Serif" font-size="10.00">deal.II/matrix_free</text>
<text text-anchor="middle" x="1204" y="-139" font-family="Helvetica,sans-Serif" font-size="10.00">/evaluation_flags.h</text>
</a>
</g>
</g>
<!-- Node1&#45;&gt;Node13 -->
<g id="edge13_Node000001_Node000013" class="edge">
<title>Node1&#45;&gt;Node13</title>
<g id="a_edge13_Node000001_Node000013"><a xlink:title=" ">
<path fill="none" stroke="#63b8ff" d="M857.6,-205.25C922.17,-196.85 1034.13,-181.43 1139.26,-162.25"/>
<polygon fill="#63b8ff" stroke="#63b8ff" points="1140.21,-165.63 1149.41,-160.38 1138.94,-158.75 1140.21,-165.63"/>
</a>
</g>
</g>
<!-- Node14 -->
<g id="Node000014" class="node">
<title>Node14</title>
<g id="a_Node000014"><a xlink:title=" ">
<polygon fill="#e0e0e0" stroke="#999999" points="1323.5,-156.5 1276.5,-156.5 1276.5,-137.5 1323.5,-137.5 1323.5,-156.5"/>
<text text-anchor="middle" x="1300" y="-144.5" font-family="Helvetica,sans-Serif" font-size="10.00">vector</text>
</a>
</g>
</g>
<!-- Node1&#45;&gt;Node14 -->
<g id="edge14_Node000001_Node000014" class="edge">
<title>Node1&#45;&gt;Node14</title>
<g id="a_edge14_Node000001_Node000014"><a xlink:title=" ">
<path fill="none" stroke="#63b8ff" d="M857.85,-211.48C945.33,-209.48 1123.14,-200.52 1268,-162 1269.89,-161.5 1271.81,-160.9 1273.73,-160.24"/>
<polygon fill="#63b8ff" stroke="#63b8ff" points="1275.06,-163.48 1283.08,-156.55 1272.49,-156.96 1275.06,-163.48"/>
</a>
</g>
</g>
<!-- Node3 -->
<g id="Node000003" class="node">
<title>Node3</title>
<g id="a_Node000003"><a xlink:title=" ">
<polygon fill="#e0e0e0" stroke="#999999" points="140,-90.5 0,-90.5 0,-71.5 140,-71.5 140,-90.5"/>
<text text-anchor="middle" x="70" y="-78.5" font-family="Helvetica,sans-Serif" font-size="10.00">deal.II/dofs/dof_handler.h</text>
</a>
</g>
</g>
<!-- Node2&#45;&gt;Node3 -->
<g id="edge2_Node000002_Node000003" class="edge">
<title>Node2&#45;&gt;Node3</title>
<g id="a_edge2_Node000002_Node000003"><a xlink:title=" ">
<path fill="none" stroke="#63b8ff" d="M244.06,-131.95C203.75,-120.38 147.3,-104.18 109.74,-93.41"/>
<polygon fill="#63b8ff" stroke="#63b8ff" points="110.26,-89.91 99.68,-90.52 108.32,-96.64 110.26,-89.91"/>
</a>
</g>
</g>
<!-- Node4 -->
<g id="Node000004" class="node">
<title>Node4</title>
<g id="a_Node000004"><a xlink:title=" ">
<polygon fill="#e0e0e0" stroke="#999999" points="287.5,-90.5 158.5,-90.5 158.5,-71.5 287.5,-71.5 287.5,-90.5"/>
<text text-anchor="middle" x="223" y="-78.5" font-family="Helvetica,sans-Serif" font-size="10.00">deal.II/lac/full_matrix.h</text>
</a>
</g>
</g>
<!-- Node2&#45;&gt;Node4 -->
<g id="edge3_Node000002_Node000004" class="edge">
<title>Node2&#45;&gt;Node4</title>
<g id="a_edge3_Node000002_Node000004"><a xlink:title=" ">
<path fill="none" stroke="#63b8ff" d="M277.46,-131.8C266.44,-121.72 251.65,-108.19 240.26,-97.78"/>
<polygon fill="#63b8ff" stroke="#63b8ff" points="242.42,-95.01 232.67,-90.84 237.69,-100.18 242.42,-95.01"/>
</a>
</g>
</g>
<!-- Node5 -->
<g id="Node000005" class="node">
<title>Node5</title>
<g id="a_Node000005"><a xlink:href="fe__integrator_8hpp.html" target="_top" xlink:title=" ">
<polygon fill="white" stroke="#666666" points="418,-96 306,-96 306,-66 418,-66 418,-96"/>
<text text-anchor="start" x="314" y="-84" font-family="Helvetica,sans-Serif" font-size="10.00">meltpooldg/utilities</text>
<text text-anchor="middle" x="362" y="-73" font-family="Helvetica,sans-Serif" font-size="10.00">/fe_integrator.hpp</text>
</a>
</g>
</g>
<!-- Node2&#45;&gt;Node5 -->
<g id="edge4_Node000002_Node000005" class="edge">
<title>Node2&#45;&gt;Node5</title>
<g id="a_edge4_Node000002_Node000005"><a xlink:title=" ">
<path fill="none" stroke="#63b8ff" d="M308.31,-131.8C317.43,-123.34 329.16,-112.46 339.33,-103.03"/>
<polygon fill="#63b8ff" stroke="#63b8ff" points="341.78,-105.53 346.73,-96.16 337.02,-100.4 341.78,-105.53"/>
</a>
</g>
</g>
<!-- Node5&#45;&gt;Node6 -->
<g id="edge5_Node000005_Node000006" class="edge">
<title>Node5&#45;&gt;Node6</title>
<g id="a_edge5_Node000005_Node000006"><a xlink:title=" ">
<path fill="none" stroke="#63b8ff" d="M380.64,-65.8C394.12,-55.53 412.31,-41.67 426.08,-31.18"/>
<polygon fill="#63b8ff" stroke="#63b8ff" points="428.56,-33.69 434.39,-24.84 424.32,-28.12 428.56,-33.69"/>
</a>
</g>
</g>
<!-- Node7 -->
<g id="Node000007" class="node">
<title>Node7</title>
<g id="a_Node000007"><a xlink:title=" ">
<polygon fill="#e0e0e0" stroke="#999999" points="353.5,-30 246.5,-30 246.5,0 353.5,0 353.5,-30"/>
<text text-anchor="start" x="254.5" y="-18" font-family="Helvetica,sans-Serif" font-size="10.00">deal.II/matrix_free</text>
<text text-anchor="middle" x="300" y="-7" font-family="Helvetica,sans-Serif" font-size="10.00">/fe_evaluation.h</text>
</a>
</g>
</g>
<!-- Node5&#45;&gt;Node7 -->
<g id="edge6_Node000005_Node000007" class="edge">
<title>Node5&#45;&gt;Node7</title>
<g id="a_edge6_Node000005_Node000007"><a xlink:title=" ">
<path fill="none" stroke="#63b8ff" d="M348.24,-65.8C340.21,-57.51 329.93,-46.89 320.91,-37.59"/>
<polygon fill="#63b8ff" stroke="#63b8ff" points="323.19,-34.91 313.72,-30.16 318.17,-39.78 323.19,-34.91"/>
</a>
</g>
</g>
</g>
</svg>

<g id="navigator" transform="translate(0 0)" fill="#404254">
  <rect fill="#f2f5e9" fill-opacity="0.5" stroke="#606060" stroke-width=".5" x="0" y="0" width="60" height="60"/>
  <use id="zoomplus" xlink:href="#zoomPlus" x="17" y="9" onmousedown="handleZoom(evt,'in')"/>
  <use id="zoomminus" xlink:href="#zoomMin" x="42" y="9" onmousedown="handleZoom(evt,'out')"/>
  <use id="reset" xlink:href="#resetDef" x="30" y="36" onmousedown="handleReset()"/>
   <use id="arrowup" xlink:href="#arrowUp" x="0" y="0" onmousedown="handlePan(0,-1)"/>
  <use id="arrowright" xlink:href="#arrowRight" x="0" y="0" onmousedown="handlePan(1,0)"/>
  <use id="arrowdown" xlink:href="#arrowDown" x="0" y="0" onmousedown="handlePan(0,1)"/>
  <use id="arrowleft" xlink:href="#arrowLeft" x="0" y="0" onmousedown="handlePan(-1,0)"/>
</g>
<svg viewBox="0 0 15 15" width="100%" height="30px" preserveAspectRatio="xMaxYMin meet">
 <g id="arrow_out" transform="scale(0.3 0.3)">
  <a xlink:href="dof__tools_8cpp__incl_org.svg" target="_base">
   <rect id="button" ry="5" rx="5" y="6" x="6" height="38" width="38"
        fill="#f2f5e9" fill-opacity="0.5" stroke="#606060" stroke-width="1.0"/>
   <path id="arrow"
     d="M 11.500037,31.436501 C 11.940474,20.09759 22.043105,11.32322 32.158766,21.979434 L 37.068811,17.246167 C 37.068811,17.246167 37.088388,32 37.088388,32 L 22.160133,31.978069 C 22.160133,31.978069 26.997745,27.140456 26.997745,27.140456 C 18.528582,18.264221 13.291696,25.230495 11.500037,31.436501 z"
     style="fill:#404040;"/>
  </a>
 </g>
</svg>

<style type='text/css'>
<![CDATA[
[data-mouse-over-selected='false'] { opacity: 0.7; }
[data-mouse-over-selected='true']  { opacity: 1.0; }
]]>
</style>
<script type="application/ecmascript"><![CDATA[
document.addEventListener('DOMContentLoaded', (event) => {
  highlightEdges();
  highlightAdjacentNodes();
});
]]></script>
</svg>
