<?xml version="1.0" encoding="UTF-8" standalone="no"?>
<!DOCTYPE svg PUBLIC "-//W3C//DTD SVG 1.1//EN"
 "http://www.w3.org/Graphics/SVG/1.1/DTD/svg11.dtd">
<!-- Generated by graphviz version 2.43.0 (0)
 -->
<!-- Title: include/meltpooldg/phase_change/evaporation_model_factory.hpp Pages: 1 -->
<svg width="1447pt" height="456pt"
 viewBox="0.00 0.00 1447.00 456.00" xmlns="http://www.w3.org/2000/svg" xmlns:xlink="http://www.w3.org/1999/xlink">
<g id="graph0" class="graph" transform="scale(1 1) rotate(0) translate(4 452)">
<title>include/meltpooldg/phase_change/evaporation_model_factory.hpp</title>
<!-- Node1 -->
<g id="Node000001" class="node">
<title>Node1</title>
<g id="a_Node000001"><a xlink:title=" ">
<polygon fill="#999999" stroke="#666666" points="474,-448 323,-448 323,-407 474,-407 474,-448"/>
<text text-anchor="start" x="331" y="-436" font-family="Helvetica,sans-Serif" font-size="10.00">include/meltpooldg</text>
<text text-anchor="start" x="331" y="-425" font-family="Helvetica,sans-Serif" font-size="10.00">/phase_change/evaporation</text>
<text text-anchor="middle" x="398.5" y="-414" font-family="Helvetica,sans-Serif" font-size="10.00">_model_factory.hpp</text>
</a>
</g>
</g>
<!-- Node2 -->
<g id="Node000002" class="node">
<title>Node2</title>
<g id="a_Node000002"><a xlink:href="core_2material__data_8hpp.html" target="_top" xlink:title=" ">
<polygon fill="white" stroke="#666666" points="308.5,-162 168.5,-162 168.5,-132 308.5,-132 308.5,-162"/>
<text text-anchor="start" x="176.5" y="-150" font-family="Helvetica,sans-Serif" font-size="10.00">meltpooldg/core/material</text>
<text text-anchor="middle" x="238.5" y="-139" font-family="Helvetica,sans-Serif" font-size="10.00">_data.hpp</text>
</a>
</g>
</g>
<!-- Node1&#45;&gt;Node2 -->
<g id="edge1_Node000001_Node000002" class="edge">
<title>Node1&#45;&gt;Node2</title>
<g id="a_edge1_Node000001_Node000002"><a xlink:title=" ">
<path fill="none" stroke="#63b8ff" d="M343.83,-407C300.33,-388.24 242.45,-355.24 215.5,-305 192.49,-262.1 212.21,-203.61 226.63,-171.5"/>
<polygon fill="#63b8ff" stroke="#63b8ff" points="229.8,-172.97 230.88,-162.43 223.47,-170 229.8,-172.97"/>
</a>
</g>
</g>
<!-- Node13 -->
<g id="Node000013" class="node">
<title>Node13</title>
<g id="a_Node000013"><a xlink:href="evaporation__data_8hpp.html" target="_top" xlink:title=" ">
<polygon fill="white" stroke="#666666" points="471,-371 326,-371 326,-341 471,-341 471,-371"/>
<text text-anchor="start" x="334" y="-359" font-family="Helvetica,sans-Serif" font-size="10.00">meltpooldg/phase_change</text>
<text text-anchor="middle" x="398.5" y="-348" font-family="Helvetica,sans-Serif" font-size="10.00">/evaporation_data.hpp</text>
</a>
</g>
</g>
<!-- Node1&#45;&gt;Node13 -->
<g id="edge14_Node000001_Node000013" class="edge">
<title>Node1&#45;&gt;Node13</title>
<g id="a_edge14_Node000001_Node000013"><a xlink:title=" ">
<path fill="none" stroke="#63b8ff" d="M398.5,-406.77C398.5,-398.85 398.5,-389.63 398.5,-381.3"/>
<polygon fill="#63b8ff" stroke="#63b8ff" points="402,-381.04 398.5,-371.04 395,-381.04 402,-381.04"/>
</a>
</g>
</g>
<!-- Node24 -->
<g id="Node000024" class="node">
<title>Node24</title>
<g id="a_Node000024"><a xlink:href="evaporation__model__base_8hpp.html" target="_top" xlink:title=" ">
<polygon fill="white" stroke="#666666" points="1043.5,-371 879.5,-371 879.5,-341 1043.5,-341 1043.5,-371"/>
<text text-anchor="start" x="887.5" y="-359" font-family="Helvetica,sans-Serif" font-size="10.00">meltpooldg/phase_change</text>
<text text-anchor="middle" x="961.5" y="-348" font-family="Helvetica,sans-Serif" font-size="10.00">/evaporation_model_base.hpp</text>
</a>
</g>
</g>
<!-- Node1&#45;&gt;Node24 -->
<g id="edge50_Node000001_Node000024" class="edge">
<title>Node1&#45;&gt;Node24</title>
<g id="a_edge50_Node000001_Node000024"><a xlink:title=" ">
<path fill="none" stroke="#63b8ff" d="M474.14,-417.16C576.5,-404.53 759,-382 869.28,-368.38"/>
<polygon fill="#63b8ff" stroke="#63b8ff" points="869.89,-371.83 879.39,-367.14 869.04,-364.89 869.89,-371.83"/>
</a>
</g>
</g>
<!-- Node3 -->
<g id="Node000003" class="node">
<title>Node3</title>
<g id="a_Node000003"><a xlink:title=" ">
<polygon fill="#e0e0e0" stroke="#999999" points="1048,-30 921,-30 921,0 1048,0 1048,-30"/>
<text text-anchor="start" x="929" y="-18" font-family="Helvetica,sans-Serif" font-size="10.00">deal.II/base/parameter</text>
<text text-anchor="middle" x="984.5" y="-7" font-family="Helvetica,sans-Serif" font-size="10.00">_handler.h</text>
</a>
</g>
</g>
<!-- Node2&#45;&gt;Node3 -->
<g id="edge2_Node000002_Node000003" class="edge">
<title>Node2&#45;&gt;Node3</title>
<g id="a_edge2_Node000002_Node000003"><a xlink:title=" ">
<path fill="none" stroke="#63b8ff" d="M275.94,-131.99C326.1,-113.81 418.22,-82.48 499.5,-66 538.74,-58.04 784.84,-34.54 910.64,-22.81"/>
<polygon fill="#63b8ff" stroke="#63b8ff" points="911.33,-26.27 920.96,-21.85 910.68,-19.3 911.33,-26.27"/>
</a>
</g>
</g>
<!-- Node4 -->
<g id="Node000004" class="node">
<title>Node4</title>
<g id="a_Node000004"><a xlink:href="enum_8hpp.html" target="_top" xlink:title=" ">
<polygon fill="white" stroke="#666666" points="620.5,-96 508.5,-96 508.5,-66 620.5,-66 620.5,-96"/>
<text text-anchor="start" x="516.5" y="-84" font-family="Helvetica,sans-Serif" font-size="10.00">meltpooldg/utilities</text>
<text text-anchor="middle" x="564.5" y="-73" font-family="Helvetica,sans-Serif" font-size="10.00">/enum.hpp</text>
</a>
</g>
</g>
<!-- Node2&#45;&gt;Node4 -->
<g id="edge3_Node000002_Node000004" class="edge">
<title>Node2&#45;&gt;Node4</title>
<g id="a_edge3_Node000002_Node000004"><a xlink:title=" ">
<path fill="none" stroke="#63b8ff" d="M308.84,-132.19C365.05,-121.16 443.27,-105.8 498.35,-94.99"/>
<polygon fill="#63b8ff" stroke="#63b8ff" points="499.22,-98.38 508.36,-93.02 497.87,-91.51 499.22,-98.38"/>
</a>
</g>
</g>
<!-- Node9 -->
<g id="Node000009" class="node">
<title>Node9</title>
<g id="a_Node000009"><a xlink:title=" ">
<polygon fill="#e0e0e0" stroke="#999999" points="319.5,-24.5 275.5,-24.5 275.5,-5.5 319.5,-5.5 319.5,-24.5"/>
<text text-anchor="middle" x="297.5" y="-12.5" font-family="Helvetica,sans-Serif" font-size="10.00">string</text>
</a>
</g>
</g>
<!-- Node2&#45;&gt;Node9 -->
<g id="edge13_Node000002_Node000009" class="edge">
<title>Node2&#45;&gt;Node9</title>
<g id="a_edge13_Node000002_Node000009"><a xlink:title=" ">
<path fill="none" stroke="#63b8ff" d="M244.93,-131.84C255.74,-108.02 277.54,-59.99 289.39,-33.88"/>
<polygon fill="#63b8ff" stroke="#63b8ff" points="292.58,-35.3 293.53,-24.75 286.21,-32.41 292.58,-35.3"/>
</a>
</g>
</g>
<!-- Node10 -->
<g id="Node000010" class="node">
<title>Node10</title>
<g id="a_Node000010"><a xlink:href="numbers_8hpp.html" target="_top" xlink:title=" ">
<polygon fill="white" stroke="#666666" points="114.5,-96 2.5,-96 2.5,-66 114.5,-66 114.5,-96"/>
<text text-anchor="start" x="10.5" y="-84" font-family="Helvetica,sans-Serif" font-size="10.00">meltpooldg/utilities</text>
<text text-anchor="middle" x="58.5" y="-73" font-family="Helvetica,sans-Serif" font-size="10.00">/numbers.hpp</text>
</a>
</g>
</g>
<!-- Node2&#45;&gt;Node10 -->
<g id="edge10_Node000002_Node000010" class="edge">
<title>Node2&#45;&gt;Node10</title>
<g id="a_edge10_Node000002_Node000010"><a xlink:title=" ">
<path fill="none" stroke="#63b8ff" d="M199,-131.95C172.03,-122.37 136.13,-109.6 107.37,-99.37"/>
<polygon fill="#63b8ff" stroke="#63b8ff" points="108.5,-96.06 97.91,-96.01 106.16,-102.66 108.5,-96.06"/>
</a>
</g>
</g>
<!-- Node4&#45;&gt;Node3 -->
<g id="edge4_Node000004_Node000003" class="edge">
<title>Node4&#45;&gt;Node3</title>
<g id="a_edge4_Node000004_Node000003"><a xlink:title=" ">
<path fill="none" stroke="#63b8ff" d="M620.71,-71.44C695.49,-60.04 827.86,-39.87 910.64,-27.25"/>
<polygon fill="#63b8ff" stroke="#63b8ff" points="911.37,-30.68 920.73,-25.72 910.32,-23.76 911.37,-30.68"/>
</a>
</g>
</g>
<!-- Node5 -->
<g id="Node000005" class="node">
<title>Node5</title>
<g id="a_Node000005"><a xlink:title=" ">
<polygon fill="#e0e0e0" stroke="#999999" points="681,-24.5 556,-24.5 556,-5.5 681,-5.5 681,-24.5"/>
<text text-anchor="middle" x="618.5" y="-12.5" font-family="Helvetica,sans-Serif" font-size="10.00">deal.II/base/patterns.h</text>
</a>
</g>
</g>
<!-- Node4&#45;&gt;Node5 -->
<g id="edge5_Node000004_Node000005" class="edge">
<title>Node4&#45;&gt;Node5</title>
<g id="a_edge5_Node000004_Node000005"><a xlink:title=" ">
<path fill="none" stroke="#63b8ff" d="M576.48,-65.8C584.74,-56.01 595.74,-42.98 604.41,-32.7"/>
<polygon fill="#63b8ff" stroke="#63b8ff" points="607.26,-34.74 611.04,-24.84 601.91,-30.23 607.26,-34.74"/>
</a>
</g>
</g>
<!-- Node6 -->
<g id="Node000006" class="node">
<title>Node6</title>
<g id="a_Node000006"><a xlink:title=" ">
<polygon fill="#e0e0e0" stroke="#999999" points="811.5,-30 699.5,-30 699.5,0 811.5,0 811.5,-30"/>
<text text-anchor="start" x="707.5" y="-18" font-family="Helvetica,sans-Serif" font-size="10.00">meltpooldg/utilities</text>
<text text-anchor="middle" x="755.5" y="-7" font-family="Helvetica,sans-Serif" font-size="10.00">/better_enum.hpp</text>
</a>
</g>
</g>
<!-- Node4&#45;&gt;Node6 -->
<g id="edge6_Node000004_Node000006" class="edge">
<title>Node4&#45;&gt;Node6</title>
<g id="a_edge6_Node000004_Node000006"><a xlink:title=" ">
<path fill="none" stroke="#63b8ff" d="M606.42,-65.95C635.15,-56.33 673.46,-43.49 704.04,-33.24"/>
<polygon fill="#63b8ff" stroke="#63b8ff" points="705.31,-36.51 713.68,-30.01 703.09,-29.87 705.31,-36.51"/>
</a>
</g>
</g>
<!-- Node7 -->
<g id="Node000007" class="node">
<title>Node7</title>
<g id="a_Node000007"><a xlink:title=" ">
<polygon fill="#e0e0e0" stroke="#999999" points="463,-30 338,-30 338,0 463,0 463,-30"/>
<text text-anchor="start" x="346" y="-18" font-family="Helvetica,sans-Serif" font-size="10.00">boost/algorithm/string</text>
<text text-anchor="middle" x="400.5" y="-7" font-family="Helvetica,sans-Serif" font-size="10.00">/join.hpp</text>
</a>
</g>
</g>
<!-- Node4&#45;&gt;Node7 -->
<g id="edge7_Node000004_Node000007" class="edge">
<title>Node4&#45;&gt;Node7</title>
<g id="a_edge7_Node000004_Node000007"><a xlink:title=" ">
<path fill="none" stroke="#63b8ff" d="M528.51,-65.95C504.26,-56.49 472.08,-43.93 446.05,-33.78"/>
<polygon fill="#63b8ff" stroke="#63b8ff" points="446.99,-30.39 436.41,-30.01 444.45,-36.91 446.99,-30.39"/>
</a>
</g>
</g>
<!-- Node8 -->
<g id="Node000008" class="node">
<title>Node8</title>
<g id="a_Node000008"><a xlink:title=" ">
<polygon fill="#e0e0e0" stroke="#999999" points="537.5,-24.5 481.5,-24.5 481.5,-5.5 537.5,-5.5 537.5,-24.5"/>
<text text-anchor="middle" x="509.5" y="-12.5" font-family="Helvetica,sans-Serif" font-size="10.00">sstream</text>
</a>
</g>
</g>
<!-- Node4&#45;&gt;Node8 -->
<g id="edge8_Node000004_Node000008" class="edge">
<title>Node4&#45;&gt;Node8</title>
<g id="a_edge8_Node000004_Node000008"><a xlink:title=" ">
<path fill="none" stroke="#63b8ff" d="M552.29,-65.8C543.89,-56.01 532.69,-42.98 523.85,-32.7"/>
<polygon fill="#63b8ff" stroke="#63b8ff" points="526.27,-30.15 517.1,-24.84 520.96,-34.71 526.27,-30.15"/>
</a>
</g>
</g>
<!-- Node4&#45;&gt;Node9 -->
<g id="edge9_Node000004_Node000009" class="edge">
<title>Node4&#45;&gt;Node9</title>
<g id="a_edge9_Node000004_Node000009"><a xlink:title=" ">
<path fill="none" stroke="#63b8ff" d="M508.29,-71.6C459.91,-63.54 388.6,-49.68 328.5,-30 327.06,-29.53 325.6,-29.01 324.14,-28.46"/>
<polygon fill="#63b8ff" stroke="#63b8ff" points="325.2,-25.11 314.62,-24.52 322.52,-31.58 325.2,-25.11"/>
</a>
</g>
</g>
<!-- Node11 -->
<g id="Node000011" class="node">
<title>Node11</title>
<g id="a_Node000011"><a xlink:title=" ">
<polygon fill="#e0e0e0" stroke="#999999" points="47,-24.5 0,-24.5 0,-5.5 47,-5.5 47,-24.5"/>
<text text-anchor="middle" x="23.5" y="-12.5" font-family="Helvetica,sans-Serif" font-size="10.00">cmath</text>
</a>
</g>
</g>
<!-- Node10&#45;&gt;Node11 -->
<g id="edge11_Node000010_Node000011" class="edge">
<title>Node10&#45;&gt;Node11</title>
<g id="a_edge11_Node000010_Node000011"><a xlink:title=" ">
<path fill="none" stroke="#63b8ff" d="M50.73,-65.8C45.54,-56.31 38.68,-43.76 33.14,-33.63"/>
<polygon fill="#63b8ff" stroke="#63b8ff" points="36.21,-31.94 28.34,-24.84 30.06,-35.3 36.21,-31.94"/>
</a>
</g>
</g>
<!-- Node12 -->
<g id="Node000012" class="node">
<title>Node12</title>
<g id="a_Node000012"><a xlink:title=" ">
<polygon fill="#e0e0e0" stroke="#999999" points="124,-24.5 65,-24.5 65,-5.5 124,-5.5 124,-24.5"/>
<text text-anchor="middle" x="94.5" y="-12.5" font-family="Helvetica,sans-Serif" font-size="10.00">numbers</text>
</a>
</g>
</g>
<!-- Node10&#45;&gt;Node12 -->
<g id="edge12_Node000010_Node000012" class="edge">
<title>Node10&#45;&gt;Node12</title>
<g id="a_edge12_Node000010_Node000012"><a xlink:title=" ">
<path fill="none" stroke="#63b8ff" d="M66.49,-65.8C71.83,-56.31 78.89,-43.76 84.58,-33.63"/>
<polygon fill="#63b8ff" stroke="#63b8ff" points="87.67,-35.28 89.53,-24.84 81.57,-31.84 87.67,-35.28"/>
</a>
</g>
</g>
<!-- Node13&#45;&gt;Node3 -->
<g id="edge15_Node000013_Node000003" class="edge">
<title>Node13&#45;&gt;Node3</title>
<g id="a_edge15_Node000013_Node000003"><a xlink:title=" ">
<path fill="none" stroke="#63b8ff" d="M471.05,-351.23C679.03,-339.47 1262.5,-299.35 1262.5,-219.5 1262.5,-219.5 1262.5,-219.5 1262.5,-146 1262.5,-55.73 1140.72,-28 1058.37,-19.57"/>
<polygon fill="#63b8ff" stroke="#63b8ff" points="1058.56,-16.08 1048.28,-18.62 1057.9,-23.05 1058.56,-16.08"/>
</a>
</g>
</g>
<!-- Node13&#45;&gt;Node4 -->
<g id="edge47_Node000013_Node000004" class="edge">
<title>Node13&#45;&gt;Node4</title>
<g id="a_edge47_Node000013_Node000004"><a xlink:title=" ">
<path fill="none" stroke="#63b8ff" d="M407.27,-340.73C420.7,-318.85 447.16,-275.71 469.5,-239 498.47,-191.4 532.2,-135.56 550.66,-104.95"/>
<polygon fill="#63b8ff" stroke="#63b8ff" points="553.71,-106.67 555.88,-96.3 547.72,-103.06 553.71,-106.67"/>
</a>
</g>
</g>
<!-- Node13&#45;&gt;Node9 -->
<g id="edge49_Node000013_Node000009" class="edge">
<title>Node13&#45;&gt;Node9</title>
<g id="a_edge49_Node000013_Node000009"><a xlink:title=" ">
<path fill="none" stroke="#63b8ff" d="M325.59,-350.39C288.7,-344.58 245.51,-331.97 215.5,-305 164.74,-259.37 172.16,-229.07 159.5,-162 157.03,-148.9 153.87,-144.09 159.5,-132 182.23,-83.2 236.72,-47.6 270.03,-29.5"/>
<polygon fill="#63b8ff" stroke="#63b8ff" points="272.01,-32.42 279.22,-24.66 268.74,-26.22 272.01,-32.42"/>
</a>
</g>
</g>
<!-- Node13&#45;&gt;Node10 -->
<g id="edge48_Node000013_Node000010" class="edge">
<title>Node13&#45;&gt;Node10</title>
<g id="a_edge48_Node000013_Node000010"><a xlink:title=" ">
<path fill="none" stroke="#63b8ff" d="M325.95,-348.65C282.15,-342.36 226.49,-329.84 182.5,-305 107.02,-262.37 74.48,-154.6 63.33,-106.19"/>
<polygon fill="#63b8ff" stroke="#63b8ff" points="66.72,-105.3 61.16,-96.28 59.88,-106.8 66.72,-105.3"/>
</a>
</g>
</g>
<!-- Node14 -->
<g id="Node000014" class="node">
<title>Node14</title>
<g id="a_Node000014"><a xlink:href="delta__approximation__phase__weighted__data_8hpp.html" target="_top" xlink:title=" ">
<polygon fill="white" stroke="#666666" points="461,-239 312,-239 312,-198 461,-198 461,-239"/>
<text text-anchor="start" x="320" y="-227" font-family="Helvetica,sans-Serif" font-size="10.00">meltpooldg/level_set</text>
<text text-anchor="start" x="320" y="-216" font-family="Helvetica,sans-Serif" font-size="10.00">/delta_approximation</text>
<text text-anchor="middle" x="386.5" y="-205" font-family="Helvetica,sans-Serif" font-size="10.00">_phase_weighted_data.hpp</text>
</a>
</g>
</g>
<!-- Node13&#45;&gt;Node14 -->
<g id="edge16_Node000013_Node000014" class="edge">
<title>Node13&#45;&gt;Node14</title>
<g id="a_edge16_Node000013_Node000014"><a xlink:title=" ">
<path fill="none" stroke="#63b8ff" d="M397.24,-340.76C395.33,-319.19 391.66,-277.75 389.15,-249.38"/>
<polygon fill="#63b8ff" stroke="#63b8ff" points="392.61,-248.86 388.25,-239.21 385.64,-249.48 392.61,-248.86"/>
</a>
</g>
</g>
<!-- Node15 -->
<g id="Node000015" class="node">
<title>Node15</title>
<g id="a_Node000015"><a xlink:href="reinitialization__data_8hpp.html" target="_top" xlink:title=" ">
<polygon fill="white" stroke="#666666" points="913.5,-305 775.5,-305 775.5,-275 913.5,-275 913.5,-305"/>
<text text-anchor="start" x="783.5" y="-293" font-family="Helvetica,sans-Serif" font-size="10.00">meltpooldg/level_set</text>
<text text-anchor="middle" x="844.5" y="-282" font-family="Helvetica,sans-Serif" font-size="10.00">/reinitialization_data.hpp</text>
</a>
</g>
</g>
<!-- Node13&#45;&gt;Node15 -->
<g id="edge20_Node000013_Node000015" class="edge">
<title>Node13&#45;&gt;Node15</title>
<g id="a_edge20_Node000013_Node000015"><a xlink:title=" ">
<path fill="none" stroke="#63b8ff" d="M471.15,-344.57C551.91,-332.99 681.93,-314.33 765.26,-302.37"/>
<polygon fill="#63b8ff" stroke="#63b8ff" points="765.78,-305.83 775.18,-300.95 764.79,-298.9 765.78,-305.83"/>
</a>
</g>
</g>
<!-- Node23 -->
<g id="Node000023" class="node">
<title>Node23</title>
<g id="a_Node000023"><a xlink:href="recoil__pressure__data_8hpp.html" target="_top" xlink:title=" ">
<polygon fill="white" stroke="#666666" points="370,-305 225,-305 225,-275 370,-275 370,-305"/>
<text text-anchor="start" x="233" y="-293" font-family="Helvetica,sans-Serif" font-size="10.00">meltpooldg/phase_change</text>
<text text-anchor="middle" x="297.5" y="-282" font-family="Helvetica,sans-Serif" font-size="10.00">/recoil_pressure_data.hpp</text>
</a>
</g>
</g>
<!-- Node13&#45;&gt;Node23 -->
<g id="edge42_Node000013_Node000023" class="edge">
<title>Node13&#45;&gt;Node23</title>
<g id="a_edge42_Node000013_Node000023"><a xlink:title=" ">
<path fill="none" stroke="#63b8ff" d="M376.08,-340.8C362.09,-331.93 343.88,-320.39 328.52,-310.66"/>
<polygon fill="#63b8ff" stroke="#63b8ff" points="330.17,-307.56 319.85,-305.16 326.43,-313.47 330.17,-307.56"/>
</a>
</g>
</g>
<!-- Node14&#45;&gt;Node2 -->
<g id="edge18_Node000014_Node000002" class="edge">
<title>Node14&#45;&gt;Node2</title>
<g id="a_edge18_Node000014_Node000002"><a xlink:title=" ">
<path fill="none" stroke="#63b8ff" d="M344.88,-197.96C323.82,-188.07 298.41,-176.13 277.7,-166.41"/>
<polygon fill="#63b8ff" stroke="#63b8ff" points="279.09,-163.2 268.55,-162.11 276.12,-169.53 279.09,-163.2"/>
</a>
</g>
</g>
<!-- Node14&#45;&gt;Node3 -->
<g id="edge17_Node000014_Node000003" class="edge">
<title>Node14&#45;&gt;Node3</title>
<g id="a_edge17_Node000014_Node000003"><a xlink:title=" ">
<path fill="none" stroke="#63b8ff" d="M427.84,-197.95C467.33,-179.66 528.76,-152.21 583.5,-132 677.27,-97.38 702.44,-93.65 798.5,-66 838.89,-54.38 884.45,-42.11 920.37,-32.64"/>
<polygon fill="#63b8ff" stroke="#63b8ff" points="921.46,-35.98 930.24,-30.05 919.67,-29.21 921.46,-35.98"/>
</a>
</g>
</g>
<!-- Node14&#45;&gt;Node4 -->
<g id="edge19_Node000014_Node000004" class="edge">
<title>Node14&#45;&gt;Node4</title>
<g id="a_edge19_Node000014_Node000004"><a xlink:title=" ">
<path fill="none" stroke="#63b8ff" d="M403.76,-197.98C420.64,-179.59 447.66,-151.95 474.5,-132 490.21,-120.33 508.95,-109.49 525.25,-100.91"/>
<polygon fill="#63b8ff" stroke="#63b8ff" points="527.24,-103.82 534.52,-96.13 524.03,-97.6 527.24,-103.82"/>
</a>
</g>
</g>
<!-- Node15&#45;&gt;Node3 -->
<g id="edge22_Node000015_Node000003" class="edge">
<title>Node15&#45;&gt;Node3</title>
<g id="a_edge22_Node000015_Node000003"><a xlink:title=" ">
<path fill="none" stroke="#63b8ff" d="M913.78,-285.81C969.93,-280.99 1049.9,-268.96 1113.5,-239 1161.73,-216.27 1182.94,-210.31 1205.5,-162 1237.95,-92.52 1134.34,-51.61 1058.17,-31.53"/>
<polygon fill="#63b8ff" stroke="#63b8ff" points="1058.65,-28.03 1048.09,-28.95 1056.91,-34.82 1058.65,-28.03"/>
</a>
</g>
</g>
<!-- Node15&#45;&gt;Node4 -->
<g id="edge39_Node000015_Node000004" class="edge">
<title>Node15&#45;&gt;Node4</title>
<g id="a_edge39_Node000015_Node000004"><a xlink:title=" ">
<path fill="none" stroke="#63b8ff" d="M775.26,-279.97C738.1,-272.89 692.65,-260.47 656.5,-239 615.96,-214.92 605.94,-203.48 583.5,-162 574.08,-144.59 569.29,-122.58 566.88,-106.05"/>
<polygon fill="#63b8ff" stroke="#63b8ff" points="570.35,-105.57 565.61,-96.09 563.4,-106.45 570.35,-105.57"/>
</a>
</g>
</g>
<!-- Node15&#45;&gt;Node9 -->
<g id="edge41_Node000015_Node000009" class="edge">
<title>Node15&#45;&gt;Node9</title>
<g id="a_edge41_Node000015_Node000009"><a xlink:title=" ">
<path fill="none" stroke="#63b8ff" d="M775.34,-282.65C725.59,-276.21 657.79,-263.53 602.5,-239 478.57,-184.02 355.95,-72.47 313.3,-31.52"/>
<polygon fill="#63b8ff" stroke="#63b8ff" points="315.69,-28.96 306.07,-24.52 310.82,-33.99 315.69,-28.96"/>
</a>
</g>
</g>
<!-- Node16 -->
<g id="Node000016" class="node">
<title>Node16</title>
<g id="a_Node000016"><a xlink:title=" ">
<polygon fill="#e0e0e0" stroke="#999999" points="995.5,-228 857.5,-228 857.5,-209 995.5,-209 995.5,-228"/>
<text text-anchor="middle" x="926.5" y="-216" font-family="Helvetica,sans-Serif" font-size="10.00">deal.II/base/exceptions.h</text>
</a>
</g>
</g>
<!-- Node15&#45;&gt;Node16 -->
<g id="edge21_Node000015_Node000016" class="edge">
<title>Node15&#45;&gt;Node16</title>
<g id="a_edge21_Node000015_Node000016"><a xlink:title=" ">
<path fill="none" stroke="#63b8ff" d="M861.09,-274.94C874.74,-263.37 894.04,-247.01 908.15,-235.06"/>
<polygon fill="#63b8ff" stroke="#63b8ff" points="910.79,-237.4 916.16,-228.27 906.26,-232.06 910.79,-237.4"/>
</a>
</g>
</g>
<!-- Node17 -->
<g id="Node000017" class="node">
<title>Node17</title>
<g id="a_Node000017"><a xlink:href="finite__element__data_8hpp.html" target="_top" xlink:title=" ">
<polygon fill="white" stroke="#666666" points="994.5,-162 870.5,-162 870.5,-132 994.5,-132 994.5,-162"/>
<text text-anchor="start" x="878.5" y="-150" font-family="Helvetica,sans-Serif" font-size="10.00">meltpooldg/core/finite</text>
<text text-anchor="middle" x="932.5" y="-139" font-family="Helvetica,sans-Serif" font-size="10.00">_element_data.hpp</text>
</a>
</g>
</g>
<!-- Node15&#45;&gt;Node17 -->
<g id="edge23_Node000015_Node000017" class="edge">
<title>Node15&#45;&gt;Node17</title>
<g id="a_edge23_Node000015_Node000017"><a xlink:title=" ">
<path fill="none" stroke="#63b8ff" d="M913.66,-282.76C971.52,-275.94 1047.56,-262.68 1066.5,-239 1077.88,-224.77 1076.89,-212.97 1066.5,-198 1052.13,-177.29 1028.08,-165.15 1004.3,-158.03"/>
<polygon fill="#63b8ff" stroke="#63b8ff" points="1005.07,-154.61 994.5,-155.36 1003.23,-161.37 1005.07,-154.61"/>
</a>
</g>
</g>
<!-- Node18 -->
<g id="Node000018" class="node">
<title>Node18</title>
<g id="a_Node000018"><a xlink:href="linear__solver__data_8hpp.html" target="_top" xlink:title=" ">
<polygon fill="white" stroke="#666666" points="738,-162 593,-162 593,-132 738,-132 738,-162"/>
<text text-anchor="start" x="601" y="-150" font-family="Helvetica,sans-Serif" font-size="10.00">meltpooldg/linear_algebra</text>
<text text-anchor="middle" x="665.5" y="-139" font-family="Helvetica,sans-Serif" font-size="10.00">/linear_solver_data.hpp</text>
</a>
</g>
</g>
<!-- Node15&#45;&gt;Node18 -->
<g id="edge26_Node000015_Node000018" class="edge">
<title>Node15&#45;&gt;Node18</title>
<g id="a_edge26_Node000015_Node000018"><a xlink:title=" ">
<path fill="none" stroke="#63b8ff" d="M775.35,-286.33C739.8,-281.13 698.93,-268.5 674.5,-239 659.22,-220.55 658.83,-192.24 661.08,-172.1"/>
<polygon fill="#63b8ff" stroke="#63b8ff" points="664.55,-172.52 662.48,-162.13 657.62,-171.55 664.55,-172.52"/>
</a>
</g>
</g>
<!-- Node19 -->
<g id="Node000019" class="node">
<title>Node19</title>
<g id="a_Node000019"><a xlink:href="predictor__data_8hpp.html" target="_top" xlink:title=" ">
<polygon fill="white" stroke="#666666" points="1196,-162 1051,-162 1051,-132 1196,-132 1196,-162"/>
<text text-anchor="start" x="1059" y="-150" font-family="Helvetica,sans-Serif" font-size="10.00">meltpooldg/linear_algebra</text>
<text text-anchor="middle" x="1123.5" y="-139" font-family="Helvetica,sans-Serif" font-size="10.00">/predictor_data.hpp</text>
</a>
</g>
</g>
<!-- Node15&#45;&gt;Node19 -->
<g id="edge28_Node000015_Node000019" class="edge">
<title>Node15&#45;&gt;Node19</title>
<g id="a_edge28_Node000015_Node000019"><a xlink:title=" ">
<path fill="none" stroke="#63b8ff" d="M913.73,-281.86C975.38,-274.23 1059.71,-260.28 1085.5,-239 1105.74,-222.3 1115.37,-192.97 1119.83,-172.13"/>
<polygon fill="#63b8ff" stroke="#63b8ff" points="1123.31,-172.59 1121.73,-162.11 1116.43,-171.29 1123.31,-172.59"/>
</a>
</g>
</g>
<!-- Node20 -->
<g id="Node000020" class="node">
<title>Node20</title>
<g id="a_Node000020"><a xlink:href="time__integrator__data_8hpp.html" target="_top" xlink:title=" ">
<polygon fill="white" stroke="#666666" points="839.5,-233.5 683.5,-233.5 683.5,-203.5 839.5,-203.5 839.5,-233.5"/>
<text text-anchor="start" x="691.5" y="-221.5" font-family="Helvetica,sans-Serif" font-size="10.00">meltpooldg/time_integration</text>
<text text-anchor="middle" x="761.5" y="-210.5" font-family="Helvetica,sans-Serif" font-size="10.00">/time_integrator_data.hpp</text>
</a>
</g>
</g>
<!-- Node15&#45;&gt;Node20 -->
<g id="edge31_Node000015_Node000020" class="edge">
<title>Node15&#45;&gt;Node20</title>
<g id="a_edge31_Node000015_Node000020"><a xlink:title=" ">
<path fill="none" stroke="#63b8ff" d="M827.7,-274.94C815.78,-264.95 799.57,-251.38 786.18,-240.17"/>
<polygon fill="#63b8ff" stroke="#63b8ff" points="788.19,-237.28 778.27,-233.54 783.69,-242.65 788.19,-237.28"/>
</a>
</g>
</g>
<!-- Node22 -->
<g id="Node000022" class="node">
<title>Node22</title>
<g id="a_Node000022"><a xlink:title=" ">
<polygon fill="#e0e0e0" stroke="#999999" points="1057.5,-228 1013.5,-228 1013.5,-209 1057.5,-209 1057.5,-228"/>
<text text-anchor="middle" x="1035.5" y="-216" font-family="Helvetica,sans-Serif" font-size="10.00">limits</text>
</a>
</g>
</g>
<!-- Node15&#45;&gt;Node22 -->
<g id="edge40_Node000015_Node000022" class="edge">
<title>Node15&#45;&gt;Node22</title>
<g id="a_edge40_Node000015_Node000022"><a xlink:title=" ">
<path fill="none" stroke="#63b8ff" d="M901.74,-274.99C932.86,-266.42 971.6,-254.18 1004.5,-239 1008,-237.39 1011.57,-235.45 1015,-233.42"/>
<polygon fill="#63b8ff" stroke="#63b8ff" points="1016.95,-236.33 1023.54,-228.04 1013.22,-230.41 1016.95,-236.33"/>
</a>
</g>
</g>
<!-- Node17&#45;&gt;Node3 -->
<g id="edge24_Node000017_Node000003" class="edge">
<title>Node17&#45;&gt;Node3</title>
<g id="a_edge24_Node000017_Node000003"><a xlink:title=" ">
<path fill="none" stroke="#63b8ff" d="M943.75,-131.9C950.92,-122.28 959.88,-108.98 965.5,-96 973.24,-78.12 978.12,-56.56 981,-40.33"/>
<polygon fill="#63b8ff" stroke="#63b8ff" points="984.52,-40.49 982.68,-30.06 977.61,-39.36 984.52,-40.49"/>
</a>
</g>
</g>
<!-- Node17&#45;&gt;Node4 -->
<g id="edge25_Node000017_Node000004" class="edge">
<title>Node17&#45;&gt;Node4</title>
<g id="a_edge25_Node000017_Node000004"><a xlink:title=" ">
<path fill="none" stroke="#63b8ff" d="M870.49,-135.22C804.05,-123.66 698.99,-105.39 630.91,-93.55"/>
<polygon fill="#63b8ff" stroke="#63b8ff" points="631.17,-90.04 620.72,-91.78 629.97,-96.94 631.17,-90.04"/>
</a>
</g>
</g>
<!-- Node18&#45;&gt;Node4 -->
<g id="edge27_Node000018_Node000004" class="edge">
<title>Node18&#45;&gt;Node4</title>
<g id="a_edge27_Node000018_Node000004"><a xlink:title=" ">
<path fill="none" stroke="#63b8ff" d="M643.08,-131.8C629.09,-122.93 610.88,-111.39 595.52,-101.66"/>
<polygon fill="#63b8ff" stroke="#63b8ff" points="597.17,-98.56 586.85,-96.16 593.43,-104.47 597.17,-98.56"/>
</a>
</g>
</g>
<!-- Node19&#45;&gt;Node3 -->
<g id="edge29_Node000019_Node000003" class="edge">
<title>Node19&#45;&gt;Node3</title>
<g id="a_edge29_Node000019_Node000003"><a xlink:title=" ">
<path fill="none" stroke="#63b8ff" d="M1108.36,-131.84C1083.92,-108.98 1035.64,-63.82 1007.11,-37.14"/>
<polygon fill="#63b8ff" stroke="#63b8ff" points="1009.32,-34.42 999.62,-30.14 1004.53,-39.53 1009.32,-34.42"/>
</a>
</g>
</g>
<!-- Node19&#45;&gt;Node4 -->
<g id="edge30_Node000019_Node000004" class="edge">
<title>Node19&#45;&gt;Node4</title>
<g id="a_edge30_Node000019_Node000004"><a xlink:title=" ">
<path fill="none" stroke="#63b8ff" d="M1050.85,-137.49C1035.23,-135.67 1018.81,-133.77 1003.5,-132 871.33,-116.76 716.73,-99.22 630.77,-89.49"/>
<polygon fill="#63b8ff" stroke="#63b8ff" points="630.97,-85.99 620.64,-88.34 630.18,-92.95 630.97,-85.99"/>
</a>
</g>
</g>
<!-- Node20&#45;&gt;Node3 -->
<g id="edge32_Node000020_Node000003" class="edge">
<title>Node20&#45;&gt;Node3</title>
<g id="a_edge32_Node000020_Node000003"><a xlink:title=" ">
<path fill="none" stroke="#63b8ff" d="M823.9,-203.43C895.36,-187.29 1002.78,-162.9 1003.5,-162 1031.52,-126.82 1012.05,-71.03 997.13,-39.58"/>
<polygon fill="#63b8ff" stroke="#63b8ff" points="1000.09,-37.68 992.51,-30.28 993.83,-40.79 1000.09,-37.68"/>
</a>
</g>
</g>
<!-- Node20&#45;&gt;Node4 -->
<g id="edge37_Node000020_Node000004" class="edge">
<title>Node20&#45;&gt;Node4</title>
<g id="a_edge37_Node000020_Node000004"><a xlink:title=" ">
<path fill="none" stroke="#63b8ff" d="M763.25,-203.42C764.75,-184.67 764.35,-151.62 746.5,-132 717.45,-100.07 670.11,-87.76 630.99,-83.34"/>
<polygon fill="#63b8ff" stroke="#63b8ff" points="631.01,-79.82 620.72,-82.33 630.33,-86.79 631.01,-79.82"/>
</a>
</g>
</g>
<!-- Node20&#45;&gt;Node6 -->
<g id="edge36_Node000020_Node000006" class="edge">
<title>Node20&#45;&gt;Node6</title>
<g id="a_edge36_Node000020_Node000006"><a xlink:title=" ">
<path fill="none" stroke="#63b8ff" d="M763.77,-203.4C765.46,-192.21 767.61,-176.15 768.5,-162 771.2,-118.99 764.64,-68.98 759.89,-40.07"/>
<polygon fill="#63b8ff" stroke="#63b8ff" points="763.31,-39.34 758.18,-30.08 756.41,-40.52 763.31,-39.34"/>
</a>
</g>
</g>
<!-- Node20&#45;&gt;Node9 -->
<g id="edge38_Node000020_Node000009" class="edge">
<title>Node20&#45;&gt;Node9</title>
<g id="a_edge38_Node000020_Node000009"><a xlink:title=" ">
<path fill="none" stroke="#63b8ff" d="M704.06,-203.47C668.53,-193.84 622.42,-179.64 583.5,-162 509.01,-128.24 500.13,-101.61 426.5,-66 384.73,-45.8 371.45,-47.56 328.5,-30 327.33,-29.52 326.14,-29.03 324.94,-28.52"/>
<polygon fill="#63b8ff" stroke="#63b8ff" points="326.33,-25.31 315.76,-24.51 323.53,-31.72 326.33,-25.31"/>
</a>
</g>
</g>
<!-- Node20&#45;&gt;Node18 -->
<g id="edge33_Node000020_Node000018" class="edge">
<title>Node20&#45;&gt;Node18</title>
<g id="a_edge33_Node000020_Node000018"><a xlink:title=" ">
<path fill="none" stroke="#63b8ff" d="M742.07,-203.44C728.02,-193.26 708.83,-179.37 693.18,-168.04"/>
<polygon fill="#63b8ff" stroke="#63b8ff" points="695.05,-165.07 684.9,-162.04 690.95,-170.74 695.05,-165.07"/>
</a>
</g>
</g>
<!-- Node21 -->
<g id="Node000021" class="node">
<title>Node21</title>
<g id="a_Node000021"><a xlink:href="nonlinear__solver__data_8hpp.html" target="_top" xlink:title=" ">
<polygon fill="white" stroke="#666666" points="957,-96 808,-96 808,-66 957,-66 957,-96"/>
<text text-anchor="start" x="816" y="-84" font-family="Helvetica,sans-Serif" font-size="10.00">meltpooldg/linear_algebra</text>
<text text-anchor="middle" x="882.5" y="-73" font-family="Helvetica,sans-Serif" font-size="10.00">/nonlinear_solver_data.hpp</text>
</a>
</g>
</g>
<!-- Node20&#45;&gt;Node21 -->
<g id="edge34_Node000020_Node000021" class="edge">
<title>Node20&#45;&gt;Node21</title>
<g id="a_edge34_Node000020_Node000021"><a xlink:title=" ">
<path fill="none" stroke="#63b8ff" d="M777.01,-203.38C788.77,-192.45 805.14,-176.73 818.5,-162 835.44,-143.33 853.24,-120.8 865.76,-104.42"/>
<polygon fill="#63b8ff" stroke="#63b8ff" points="868.88,-106.1 872.13,-96.01 863.3,-101.87 868.88,-106.1"/>
</a>
</g>
</g>
<!-- Node21&#45;&gt;Node3 -->
<g id="edge35_Node000021_Node000003" class="edge">
<title>Node21&#45;&gt;Node3</title>
<g id="a_edge35_Node000021_Node000003"><a xlink:title=" ">
<path fill="none" stroke="#63b8ff" d="M904.88,-65.95C919.1,-57.03 937.7,-45.36 953.35,-35.54"/>
<polygon fill="#63b8ff" stroke="#63b8ff" points="955.56,-38.29 962.17,-30.01 951.84,-32.36 955.56,-38.29"/>
</a>
</g>
</g>
<!-- Node23&#45;&gt;Node2 -->
<g id="edge43_Node000023_Node000002" class="edge">
<title>Node23&#45;&gt;Node2</title>
<g id="a_edge43_Node000023_Node000002"><a xlink:title=" ">
<path fill="none" stroke="#63b8ff" d="M289.09,-274.86C283.42,-265.01 276.01,-251.45 270.5,-239 260.65,-216.75 251.68,-190.44 245.75,-171.85"/>
<polygon fill="#63b8ff" stroke="#63b8ff" points="249.04,-170.64 242.71,-162.14 242.36,-172.73 249.04,-170.64"/>
</a>
</g>
</g>
<!-- Node23&#45;&gt;Node4 -->
<g id="edge45_Node000023_Node000004" class="edge">
<title>Node23&#45;&gt;Node4</title>
<g id="a_edge45_Node000023_Node000004"><a xlink:title=" ">
<path fill="none" stroke="#63b8ff" d="M294.15,-274.69C290.52,-255.52 287.11,-221.21 302.5,-198 346.05,-132.32 436.04,-103.5 498.31,-91.08"/>
<polygon fill="#63b8ff" stroke="#63b8ff" points="499.27,-94.46 508.44,-89.16 497.97,-87.59 499.27,-94.46"/>
</a>
</g>
</g>
<!-- Node23&#45;&gt;Node10 -->
<g id="edge46_Node000023_Node000010" class="edge">
<title>Node23&#45;&gt;Node10</title>
<g id="a_edge46_Node000023_Node000010"><a xlink:title=" ">
<path fill="none" stroke="#63b8ff" d="M281.07,-274.77C239.7,-238.94 131.06,-144.84 82.52,-102.81"/>
<polygon fill="#63b8ff" stroke="#63b8ff" points="84.58,-99.96 74.73,-96.05 79.99,-105.25 84.58,-99.96"/>
</a>
</g>
</g>
<!-- Node23&#45;&gt;Node14 -->
<g id="edge44_Node000023_Node000014" class="edge">
<title>Node23&#45;&gt;Node14</title>
<g id="a_edge44_Node000023_Node000014"><a xlink:title=" ">
<path fill="none" stroke="#63b8ff" d="M315.51,-274.94C326.34,-266.48 340.47,-255.44 353.27,-245.45"/>
<polygon fill="#63b8ff" stroke="#63b8ff" points="355.71,-247.99 361.43,-239.07 351.4,-242.47 355.71,-247.99"/>
</a>
</g>
</g>
<!-- Node25 -->
<g id="Node000025" class="node">
<title>Node25</title>
<g id="a_Node000025"><a xlink:title=" ">
<polygon fill="#e0e0e0" stroke="#999999" points="1439,-299.5 1290,-299.5 1290,-280.5 1439,-280.5 1439,-299.5"/>
<text text-anchor="middle" x="1364.5" y="-287.5" font-family="Helvetica,sans-Serif" font-size="10.00">deal.II/base/vectorization.h</text>
</a>
</g>
</g>
<!-- Node24&#45;&gt;Node25 -->
<g id="edge51_Node000024_Node000025" class="edge">
<title>Node24&#45;&gt;Node25</title>
<g id="a_edge51_Node000024_Node000025"><a xlink:title=" ">
<path fill="none" stroke="#63b8ff" d="M1043.74,-341.95C1107.3,-331.87 1197.48,-317.56 1276.5,-305 1284.43,-303.74 1292.76,-302.42 1301,-301.1"/>
<polygon fill="#63b8ff" stroke="#63b8ff" points="1301.66,-304.54 1310.98,-299.52 1300.56,-297.63 1301.66,-304.54"/>
</a>
</g>
</g>
</g>
</svg>
