<?xml version="1.0" encoding="UTF-8" standalone="no"?>
<!DOCTYPE svg PUBLIC "-//W3C//DTD SVG 1.1//EN"
 "http://www.w3.org/Graphics/SVG/1.1/DTD/svg11.dtd">
<!-- Generated by graphviz version 2.43.0 (0)
 -->
<!-- Title: include/meltpooldg/phase_change/evaporative_cooling.hpp Pages: 1 -->
<svg width="1402pt" height="456pt"
 viewBox="0.00 0.00 1401.50 456.00" xmlns="http://www.w3.org/2000/svg" xmlns:xlink="http://www.w3.org/1999/xlink">
<g id="graph0" class="graph" transform="scale(1 1) rotate(0) translate(4 452)">
<title>include/meltpooldg/phase_change/evaporative_cooling.hpp</title>
<!-- Node1 -->
<g id="Node000001" class="node">
<title>Node1</title>
<g id="a_Node000001"><a xlink:title=" ">
<polygon fill="#999999" stroke="#666666" points="353,-448 202,-448 202,-407 353,-407 353,-448"/>
<text text-anchor="start" x="210" y="-436" font-family="Helvetica,sans-Serif" font-size="10.00">include/meltpooldg</text>
<text text-anchor="start" x="210" y="-425" font-family="Helvetica,sans-Serif" font-size="10.00">/phase_change/evaporative</text>
<text text-anchor="middle" x="277.5" y="-414" font-family="Helvetica,sans-Serif" font-size="10.00">_cooling.hpp</text>
</a>
</g>
</g>
<!-- Node2 -->
<g id="Node000002" class="node">
<title>Node2</title>
<g id="a_Node000002"><a xlink:title=" ">
<polygon fill="#e0e0e0" stroke="#999999" points="149,-299.5 0,-299.5 0,-280.5 149,-280.5 149,-299.5"/>
<text text-anchor="middle" x="74.5" y="-287.5" font-family="Helvetica,sans-Serif" font-size="10.00">deal.II/base/vectorization.h</text>
</a>
</g>
</g>
<!-- Node1&#45;&gt;Node2 -->
<g id="edge1_Node000001_Node000002" class="edge">
<title>Node1&#45;&gt;Node2</title>
<g id="a_edge1_Node000001_Node000002"><a xlink:title=" ">
<path fill="none" stroke="#63b8ff" d="M201.77,-415.14C151.59,-405.91 92.21,-391.11 76.5,-371 62.9,-353.59 65.42,-326.95 69.29,-309.26"/>
<polygon fill="#63b8ff" stroke="#63b8ff" points="72.68,-310.11 71.73,-299.56 65.89,-308.4 72.68,-310.11"/>
</a>
</g>
</g>
<!-- Node3 -->
<g id="Node000003" class="node">
<title>Node3</title>
<g id="a_Node000003"><a xlink:href="core_2material__data_8hpp.html" target="_top" xlink:title=" ">
<polygon fill="white" stroke="#666666" points="439.5,-162 299.5,-162 299.5,-132 439.5,-132 439.5,-162"/>
<text text-anchor="start" x="307.5" y="-150" font-family="Helvetica,sans-Serif" font-size="10.00">meltpooldg/core/material</text>
<text text-anchor="middle" x="369.5" y="-139" font-family="Helvetica,sans-Serif" font-size="10.00">_data.hpp</text>
</a>
</g>
</g>
<!-- Node1&#45;&gt;Node3 -->
<g id="edge2_Node000001_Node000003" class="edge">
<title>Node1&#45;&gt;Node3</title>
<g id="a_edge2_Node000001_Node000003"><a xlink:title=" ">
<path fill="none" stroke="#63b8ff" d="M283.97,-406.92C300.42,-357.12 343.8,-225.79 361.65,-171.75"/>
<polygon fill="#63b8ff" stroke="#63b8ff" points="365.06,-172.61 364.87,-162.02 358.41,-170.42 365.06,-172.61"/>
</a>
</g>
</g>
<!-- Node14 -->
<g id="Node000014" class="node">
<title>Node14</title>
<g id="a_Node000014"><a xlink:href="evaporation__data_8hpp.html" target="_top" xlink:title=" ">
<polygon fill="white" stroke="#666666" points="489,-371 344,-371 344,-341 489,-341 489,-371"/>
<text text-anchor="start" x="352" y="-359" font-family="Helvetica,sans-Serif" font-size="10.00">meltpooldg/phase_change</text>
<text text-anchor="middle" x="416.5" y="-348" font-family="Helvetica,sans-Serif" font-size="10.00">/evaporation_data.hpp</text>
</a>
</g>
</g>
<!-- Node1&#45;&gt;Node14 -->
<g id="edge15_Node000001_Node000014" class="edge">
<title>Node1&#45;&gt;Node14</title>
<g id="a_edge15_Node000001_Node000014"><a xlink:title=" ">
<path fill="none" stroke="#63b8ff" d="M316.59,-406.96C336.19,-397.16 359.8,-385.35 379.15,-375.67"/>
<polygon fill="#63b8ff" stroke="#63b8ff" points="380.9,-378.72 388.27,-371.11 377.76,-372.45 380.9,-378.72"/>
</a>
</g>
</g>
<!-- Node25 -->
<g id="Node000025" class="node">
<title>Node25</title>
<g id="a_Node000025"><a xlink:href="evaporation__model__base_8hpp.html" target="_top" xlink:title=" ">
<polygon fill="white" stroke="#666666" points="249.5,-371 85.5,-371 85.5,-341 249.5,-341 249.5,-371"/>
<text text-anchor="start" x="93.5" y="-359" font-family="Helvetica,sans-Serif" font-size="10.00">meltpooldg/phase_change</text>
<text text-anchor="middle" x="167.5" y="-348" font-family="Helvetica,sans-Serif" font-size="10.00">/evaporation_model_base.hpp</text>
</a>
</g>
</g>
<!-- Node1&#45;&gt;Node25 -->
<g id="edge51_Node000001_Node000025" class="edge">
<title>Node1&#45;&gt;Node25</title>
<g id="a_edge51_Node000001_Node000025"><a xlink:title=" ">
<path fill="none" stroke="#63b8ff" d="M246.57,-406.96C231.48,-397.42 213.38,-385.99 198.31,-376.47"/>
<polygon fill="#63b8ff" stroke="#63b8ff" points="200.16,-373.5 189.84,-371.11 196.42,-379.41 200.16,-373.5"/>
</a>
</g>
</g>
<!-- Node26 -->
<g id="Node000026" class="node">
<title>Node26</title>
<g id="a_Node000026"><a xlink:title=" ">
<polygon fill="#e0e0e0" stroke="#999999" points="565.5,-365.5 507.5,-365.5 507.5,-346.5 565.5,-346.5 565.5,-365.5"/>
<text text-anchor="middle" x="536.5" y="-353.5" font-family="Helvetica,sans-Serif" font-size="10.00">memory</text>
</a>
</g>
</g>
<!-- Node1&#45;&gt;Node26 -->
<g id="edge53_Node000001_Node000026" class="edge">
<title>Node1&#45;&gt;Node26</title>
<g id="a_edge53_Node000001_Node000026"><a xlink:title=" ">
<path fill="none" stroke="#63b8ff" d="M353.1,-409.36C395.77,-399.2 449.93,-385.5 497.5,-371 499.76,-370.31 502.09,-369.57 504.43,-368.79"/>
<polygon fill="#63b8ff" stroke="#63b8ff" points="505.62,-372.08 513.94,-365.52 503.35,-365.46 505.62,-372.08"/>
</a>
</g>
</g>
<!-- Node4 -->
<g id="Node000004" class="node">
<title>Node4</title>
<g id="a_Node000004"><a xlink:title=" ">
<polygon fill="#e0e0e0" stroke="#999999" points="1179,-30 1052,-30 1052,0 1179,0 1179,-30"/>
<text text-anchor="start" x="1060" y="-18" font-family="Helvetica,sans-Serif" font-size="10.00">deal.II/base/parameter</text>
<text text-anchor="middle" x="1115.5" y="-7" font-family="Helvetica,sans-Serif" font-size="10.00">_handler.h</text>
</a>
</g>
</g>
<!-- Node3&#45;&gt;Node4 -->
<g id="edge3_Node000003_Node000004" class="edge">
<title>Node3&#45;&gt;Node4</title>
<g id="a_edge3_Node000003_Node000004"><a xlink:title=" ">
<path fill="none" stroke="#63b8ff" d="M406.94,-131.99C457.1,-113.81 549.22,-82.48 630.5,-66 669.74,-58.04 915.84,-34.54 1041.64,-22.81"/>
<polygon fill="#63b8ff" stroke="#63b8ff" points="1042.33,-26.27 1051.96,-21.85 1041.68,-19.3 1042.33,-26.27"/>
</a>
</g>
</g>
<!-- Node5 -->
<g id="Node000005" class="node">
<title>Node5</title>
<g id="a_Node000005"><a xlink:href="enum_8hpp.html" target="_top" xlink:title=" ">
<polygon fill="white" stroke="#666666" points="751.5,-96 639.5,-96 639.5,-66 751.5,-66 751.5,-96"/>
<text text-anchor="start" x="647.5" y="-84" font-family="Helvetica,sans-Serif" font-size="10.00">meltpooldg/utilities</text>
<text text-anchor="middle" x="695.5" y="-73" font-family="Helvetica,sans-Serif" font-size="10.00">/enum.hpp</text>
</a>
</g>
</g>
<!-- Node3&#45;&gt;Node5 -->
<g id="edge4_Node000003_Node000005" class="edge">
<title>Node3&#45;&gt;Node5</title>
<g id="a_edge4_Node000003_Node000005"><a xlink:title=" ">
<path fill="none" stroke="#63b8ff" d="M439.84,-132.19C496.05,-121.16 574.27,-105.8 629.35,-94.99"/>
<polygon fill="#63b8ff" stroke="#63b8ff" points="630.22,-98.38 639.36,-93.02 628.87,-91.51 630.22,-98.38"/>
</a>
</g>
</g>
<!-- Node10 -->
<g id="Node000010" class="node">
<title>Node10</title>
<g id="a_Node000010"><a xlink:title=" ">
<polygon fill="#e0e0e0" stroke="#999999" points="450.5,-24.5 406.5,-24.5 406.5,-5.5 450.5,-5.5 450.5,-24.5"/>
<text text-anchor="middle" x="428.5" y="-12.5" font-family="Helvetica,sans-Serif" font-size="10.00">string</text>
</a>
</g>
</g>
<!-- Node3&#45;&gt;Node10 -->
<g id="edge14_Node000003_Node000010" class="edge">
<title>Node3&#45;&gt;Node10</title>
<g id="a_edge14_Node000003_Node000010"><a xlink:title=" ">
<path fill="none" stroke="#63b8ff" d="M375.93,-131.84C386.74,-108.02 408.54,-59.99 420.39,-33.88"/>
<polygon fill="#63b8ff" stroke="#63b8ff" points="423.58,-35.3 424.53,-24.75 417.21,-32.41 423.58,-35.3"/>
</a>
</g>
</g>
<!-- Node11 -->
<g id="Node000011" class="node">
<title>Node11</title>
<g id="a_Node000011"><a xlink:href="numbers_8hpp.html" target="_top" xlink:title=" ">
<polygon fill="white" stroke="#666666" points="245.5,-96 133.5,-96 133.5,-66 245.5,-66 245.5,-96"/>
<text text-anchor="start" x="141.5" y="-84" font-family="Helvetica,sans-Serif" font-size="10.00">meltpooldg/utilities</text>
<text text-anchor="middle" x="189.5" y="-73" font-family="Helvetica,sans-Serif" font-size="10.00">/numbers.hpp</text>
</a>
</g>
</g>
<!-- Node3&#45;&gt;Node11 -->
<g id="edge11_Node000003_Node000011" class="edge">
<title>Node3&#45;&gt;Node11</title>
<g id="a_edge11_Node000003_Node000011"><a xlink:title=" ">
<path fill="none" stroke="#63b8ff" d="M330,-131.95C303.03,-122.37 267.13,-109.6 238.37,-99.37"/>
<polygon fill="#63b8ff" stroke="#63b8ff" points="239.5,-96.06 228.91,-96.01 237.16,-102.66 239.5,-96.06"/>
</a>
</g>
</g>
<!-- Node5&#45;&gt;Node4 -->
<g id="edge5_Node000005_Node000004" class="edge">
<title>Node5&#45;&gt;Node4</title>
<g id="a_edge5_Node000005_Node000004"><a xlink:title=" ">
<path fill="none" stroke="#63b8ff" d="M751.71,-71.44C826.49,-60.04 958.86,-39.87 1041.64,-27.25"/>
<polygon fill="#63b8ff" stroke="#63b8ff" points="1042.37,-30.68 1051.73,-25.72 1041.32,-23.76 1042.37,-30.68"/>
</a>
</g>
</g>
<!-- Node6 -->
<g id="Node000006" class="node">
<title>Node6</title>
<g id="a_Node000006"><a xlink:title=" ">
<polygon fill="#e0e0e0" stroke="#999999" points="812,-24.5 687,-24.5 687,-5.5 812,-5.5 812,-24.5"/>
<text text-anchor="middle" x="749.5" y="-12.5" font-family="Helvetica,sans-Serif" font-size="10.00">deal.II/base/patterns.h</text>
</a>
</g>
</g>
<!-- Node5&#45;&gt;Node6 -->
<g id="edge6_Node000005_Node000006" class="edge">
<title>Node5&#45;&gt;Node6</title>
<g id="a_edge6_Node000005_Node000006"><a xlink:title=" ">
<path fill="none" stroke="#63b8ff" d="M707.48,-65.8C715.74,-56.01 726.74,-42.98 735.41,-32.7"/>
<polygon fill="#63b8ff" stroke="#63b8ff" points="738.26,-34.74 742.04,-24.84 732.91,-30.23 738.26,-34.74"/>
</a>
</g>
</g>
<!-- Node7 -->
<g id="Node000007" class="node">
<title>Node7</title>
<g id="a_Node000007"><a xlink:title=" ">
<polygon fill="#e0e0e0" stroke="#999999" points="942.5,-30 830.5,-30 830.5,0 942.5,0 942.5,-30"/>
<text text-anchor="start" x="838.5" y="-18" font-family="Helvetica,sans-Serif" font-size="10.00">meltpooldg/utilities</text>
<text text-anchor="middle" x="886.5" y="-7" font-family="Helvetica,sans-Serif" font-size="10.00">/better_enum.hpp</text>
</a>
</g>
</g>
<!-- Node5&#45;&gt;Node7 -->
<g id="edge7_Node000005_Node000007" class="edge">
<title>Node5&#45;&gt;Node7</title>
<g id="a_edge7_Node000005_Node000007"><a xlink:title=" ">
<path fill="none" stroke="#63b8ff" d="M737.42,-65.95C766.15,-56.33 804.46,-43.49 835.04,-33.24"/>
<polygon fill="#63b8ff" stroke="#63b8ff" points="836.31,-36.51 844.68,-30.01 834.09,-29.87 836.31,-36.51"/>
</a>
</g>
</g>
<!-- Node8 -->
<g id="Node000008" class="node">
<title>Node8</title>
<g id="a_Node000008"><a xlink:title=" ">
<polygon fill="#e0e0e0" stroke="#999999" points="594,-30 469,-30 469,0 594,0 594,-30"/>
<text text-anchor="start" x="477" y="-18" font-family="Helvetica,sans-Serif" font-size="10.00">boost/algorithm/string</text>
<text text-anchor="middle" x="531.5" y="-7" font-family="Helvetica,sans-Serif" font-size="10.00">/join.hpp</text>
</a>
</g>
</g>
<!-- Node5&#45;&gt;Node8 -->
<g id="edge8_Node000005_Node000008" class="edge">
<title>Node5&#45;&gt;Node8</title>
<g id="a_edge8_Node000005_Node000008"><a xlink:title=" ">
<path fill="none" stroke="#63b8ff" d="M659.51,-65.95C635.26,-56.49 603.08,-43.93 577.05,-33.78"/>
<polygon fill="#63b8ff" stroke="#63b8ff" points="577.99,-30.39 567.41,-30.01 575.45,-36.91 577.99,-30.39"/>
</a>
</g>
</g>
<!-- Node9 -->
<g id="Node000009" class="node">
<title>Node9</title>
<g id="a_Node000009"><a xlink:title=" ">
<polygon fill="#e0e0e0" stroke="#999999" points="668.5,-24.5 612.5,-24.5 612.5,-5.5 668.5,-5.5 668.5,-24.5"/>
<text text-anchor="middle" x="640.5" y="-12.5" font-family="Helvetica,sans-Serif" font-size="10.00">sstream</text>
</a>
</g>
</g>
<!-- Node5&#45;&gt;Node9 -->
<g id="edge9_Node000005_Node000009" class="edge">
<title>Node5&#45;&gt;Node9</title>
<g id="a_edge9_Node000005_Node000009"><a xlink:title=" ">
<path fill="none" stroke="#63b8ff" d="M683.29,-65.8C674.89,-56.01 663.69,-42.98 654.85,-32.7"/>
<polygon fill="#63b8ff" stroke="#63b8ff" points="657.27,-30.15 648.1,-24.84 651.96,-34.71 657.27,-30.15"/>
</a>
</g>
</g>
<!-- Node5&#45;&gt;Node10 -->
<g id="edge10_Node000005_Node000010" class="edge">
<title>Node5&#45;&gt;Node10</title>
<g id="a_edge10_Node000005_Node000010"><a xlink:title=" ">
<path fill="none" stroke="#63b8ff" d="M639.29,-71.6C590.91,-63.54 519.6,-49.68 459.5,-30 458.06,-29.53 456.6,-29.01 455.14,-28.46"/>
<polygon fill="#63b8ff" stroke="#63b8ff" points="456.2,-25.11 445.62,-24.52 453.52,-31.58 456.2,-25.11"/>
</a>
</g>
</g>
<!-- Node12 -->
<g id="Node000012" class="node">
<title>Node12</title>
<g id="a_Node000012"><a xlink:title=" ">
<polygon fill="#e0e0e0" stroke="#999999" points="178,-24.5 131,-24.5 131,-5.5 178,-5.5 178,-24.5"/>
<text text-anchor="middle" x="154.5" y="-12.5" font-family="Helvetica,sans-Serif" font-size="10.00">cmath</text>
</a>
</g>
</g>
<!-- Node11&#45;&gt;Node12 -->
<g id="edge12_Node000011_Node000012" class="edge">
<title>Node11&#45;&gt;Node12</title>
<g id="a_edge12_Node000011_Node000012"><a xlink:title=" ">
<path fill="none" stroke="#63b8ff" d="M181.73,-65.8C176.54,-56.31 169.68,-43.76 164.14,-33.63"/>
<polygon fill="#63b8ff" stroke="#63b8ff" points="167.21,-31.94 159.34,-24.84 161.06,-35.3 167.21,-31.94"/>
</a>
</g>
</g>
<!-- Node13 -->
<g id="Node000013" class="node">
<title>Node13</title>
<g id="a_Node000013"><a xlink:title=" ">
<polygon fill="#e0e0e0" stroke="#999999" points="255,-24.5 196,-24.5 196,-5.5 255,-5.5 255,-24.5"/>
<text text-anchor="middle" x="225.5" y="-12.5" font-family="Helvetica,sans-Serif" font-size="10.00">numbers</text>
</a>
</g>
</g>
<!-- Node11&#45;&gt;Node13 -->
<g id="edge13_Node000011_Node000013" class="edge">
<title>Node11&#45;&gt;Node13</title>
<g id="a_edge13_Node000011_Node000013"><a xlink:title=" ">
<path fill="none" stroke="#63b8ff" d="M197.49,-65.8C202.83,-56.31 209.89,-43.76 215.58,-33.63"/>
<polygon fill="#63b8ff" stroke="#63b8ff" points="218.67,-35.28 220.53,-24.84 212.57,-31.84 218.67,-35.28"/>
</a>
</g>
</g>
<!-- Node14&#45;&gt;Node4 -->
<g id="edge16_Node000014_Node000004" class="edge">
<title>Node14&#45;&gt;Node4</title>
<g id="a_edge16_Node000014_Node000004"><a xlink:title=" ">
<path fill="none" stroke="#63b8ff" d="M489.32,-342.16C492.42,-341.74 495.49,-341.35 498.5,-341 598.17,-329.29 1393.5,-319.86 1393.5,-219.5 1393.5,-219.5 1393.5,-219.5 1393.5,-146 1393.5,-55.73 1271.72,-28 1189.37,-19.57"/>
<polygon fill="#63b8ff" stroke="#63b8ff" points="1189.56,-16.08 1179.28,-18.62 1188.9,-23.05 1189.56,-16.08"/>
</a>
</g>
</g>
<!-- Node14&#45;&gt;Node5 -->
<g id="edge48_Node000014_Node000005" class="edge">
<title>Node14&#45;&gt;Node5</title>
<g id="a_edge48_Node000014_Node000005"><a xlink:title=" ">
<path fill="none" stroke="#63b8ff" d="M450.12,-340.8C470.51,-331.64 496.7,-318.87 518.5,-305 557.97,-279.88 569.7,-274.21 600.5,-239 637.76,-196.41 669.05,-137.34 684.71,-105.16"/>
<polygon fill="#63b8ff" stroke="#63b8ff" points="687.9,-106.61 689.07,-96.08 681.59,-103.59 687.9,-106.61"/>
</a>
</g>
</g>
<!-- Node14&#45;&gt;Node10 -->
<g id="edge50_Node000014_Node000010" class="edge">
<title>Node14&#45;&gt;Node10</title>
<g id="a_edge50_Node000014_Node000010"><a xlink:title=" ">
<path fill="none" stroke="#63b8ff" d="M381.65,-340.83C365.25,-332.57 346.68,-320.66 334.5,-305 285.8,-242.37 257,-203.92 290.5,-132 313.23,-83.2 367.72,-47.6 401.03,-29.5"/>
<polygon fill="#63b8ff" stroke="#63b8ff" points="403.01,-32.42 410.22,-24.66 399.74,-26.22 403.01,-32.42"/>
</a>
</g>
</g>
<!-- Node14&#45;&gt;Node11 -->
<g id="edge49_Node000014_Node000011" class="edge">
<title>Node14&#45;&gt;Node11</title>
<g id="a_edge49_Node000014_Node000011"><a xlink:title=" ">
<path fill="none" stroke="#63b8ff" d="M370.57,-340.96C348.31,-332.73 322.02,-320.82 301.5,-305 235.11,-253.82 205.1,-152.61 194.4,-106.24"/>
<polygon fill="#63b8ff" stroke="#63b8ff" points="197.76,-105.21 192.19,-96.2 190.92,-106.72 197.76,-105.21"/>
</a>
</g>
</g>
<!-- Node15 -->
<g id="Node000015" class="node">
<title>Node15</title>
<g id="a_Node000015"><a xlink:href="delta__approximation__phase__weighted__data_8hpp.html" target="_top" xlink:title=" ">
<polygon fill="white" stroke="#666666" points="592,-239 443,-239 443,-198 592,-198 592,-239"/>
<text text-anchor="start" x="451" y="-227" font-family="Helvetica,sans-Serif" font-size="10.00">meltpooldg/level_set</text>
<text text-anchor="start" x="451" y="-216" font-family="Helvetica,sans-Serif" font-size="10.00">/delta_approximation</text>
<text text-anchor="middle" x="517.5" y="-205" font-family="Helvetica,sans-Serif" font-size="10.00">_phase_weighted_data.hpp</text>
</a>
</g>
</g>
<!-- Node14&#45;&gt;Node15 -->
<g id="edge17_Node000014_Node000015" class="edge">
<title>Node14&#45;&gt;Node15</title>
<g id="a_edge17_Node000014_Node000015"><a xlink:title=" ">
<path fill="none" stroke="#63b8ff" d="M451.81,-340.87C468.01,-332.69 486.11,-320.83 497.5,-305 509.08,-288.91 514.05,-267.11 516.15,-249.55"/>
<polygon fill="#63b8ff" stroke="#63b8ff" points="519.66,-249.54 517.11,-239.25 512.69,-248.88 519.66,-249.54"/>
</a>
</g>
</g>
<!-- Node16 -->
<g id="Node000016" class="node">
<title>Node16</title>
<g id="a_Node000016"><a xlink:href="reinitialization__data_8hpp.html" target="_top" xlink:title=" ">
<polygon fill="white" stroke="#666666" points="1043.5,-305 905.5,-305 905.5,-275 1043.5,-275 1043.5,-305"/>
<text text-anchor="start" x="913.5" y="-293" font-family="Helvetica,sans-Serif" font-size="10.00">meltpooldg/level_set</text>
<text text-anchor="middle" x="974.5" y="-282" font-family="Helvetica,sans-Serif" font-size="10.00">/reinitialization_data.hpp</text>
</a>
</g>
</g>
<!-- Node14&#45;&gt;Node16 -->
<g id="edge21_Node000014_Node000016" class="edge">
<title>Node14&#45;&gt;Node16</title>
<g id="a_edge21_Node000014_Node000016"><a xlink:title=" ">
<path fill="none" stroke="#63b8ff" d="M489.34,-342.31C492.43,-341.85 495.5,-341.41 498.5,-341 637.69,-321.83 800.67,-306.17 895.29,-297.75"/>
<polygon fill="#63b8ff" stroke="#63b8ff" points="895.7,-301.22 905.36,-296.85 895.09,-294.25 895.7,-301.22"/>
</a>
</g>
</g>
<!-- Node24 -->
<g id="Node000024" class="node">
<title>Node24</title>
<g id="a_Node000024"><a xlink:href="recoil__pressure__data_8hpp.html" target="_top" xlink:title=" ">
<polygon fill="white" stroke="#666666" points="489,-305 344,-305 344,-275 489,-275 489,-305"/>
<text text-anchor="start" x="352" y="-293" font-family="Helvetica,sans-Serif" font-size="10.00">meltpooldg/phase_change</text>
<text text-anchor="middle" x="416.5" y="-282" font-family="Helvetica,sans-Serif" font-size="10.00">/recoil_pressure_data.hpp</text>
</a>
</g>
</g>
<!-- Node14&#45;&gt;Node24 -->
<g id="edge43_Node000014_Node000024" class="edge">
<title>Node14&#45;&gt;Node24</title>
<g id="a_edge43_Node000014_Node000024"><a xlink:title=" ">
<path fill="none" stroke="#63b8ff" d="M416.5,-340.8C416.5,-333.34 416.5,-323.99 416.5,-315.41"/>
<polygon fill="#63b8ff" stroke="#63b8ff" points="420,-315.16 416.5,-305.16 413,-315.16 420,-315.16"/>
</a>
</g>
</g>
<!-- Node15&#45;&gt;Node3 -->
<g id="edge19_Node000015_Node000003" class="edge">
<title>Node15&#45;&gt;Node3</title>
<g id="a_edge19_Node000015_Node000003"><a xlink:title=" ">
<path fill="none" stroke="#63b8ff" d="M475.88,-197.96C454.82,-188.07 429.41,-176.13 408.7,-166.41"/>
<polygon fill="#63b8ff" stroke="#63b8ff" points="410.09,-163.2 399.55,-162.11 407.12,-169.53 410.09,-163.2"/>
</a>
</g>
</g>
<!-- Node15&#45;&gt;Node4 -->
<g id="edge18_Node000015_Node000004" class="edge">
<title>Node15&#45;&gt;Node4</title>
<g id="a_edge18_Node000015_Node000004"><a xlink:title=" ">
<path fill="none" stroke="#63b8ff" d="M558.83,-197.93C598.32,-179.63 659.75,-152.17 714.5,-132 808.69,-97.3 834.03,-93.77 930.5,-66 970.68,-54.43 1016,-42.17 1051.73,-32.69"/>
<polygon fill="#63b8ff" stroke="#63b8ff" points="1052.77,-36.03 1061.54,-30.09 1050.97,-29.27 1052.77,-36.03"/>
</a>
</g>
</g>
<!-- Node15&#45;&gt;Node5 -->
<g id="edge20_Node000015_Node000005" class="edge">
<title>Node15&#45;&gt;Node5</title>
<g id="a_edge20_Node000015_Node000005"><a xlink:title=" ">
<path fill="none" stroke="#63b8ff" d="M534.76,-197.98C551.64,-179.59 578.66,-151.95 605.5,-132 621.21,-120.33 639.95,-109.49 656.25,-100.91"/>
<polygon fill="#63b8ff" stroke="#63b8ff" points="658.24,-103.82 665.52,-96.13 655.03,-97.6 658.24,-103.82"/>
</a>
</g>
</g>
<!-- Node16&#45;&gt;Node4 -->
<g id="edge23_Node000016_Node000004" class="edge">
<title>Node16&#45;&gt;Node4</title>
<g id="a_edge23_Node000016_Node000004"><a xlink:title=" ">
<path fill="none" stroke="#63b8ff" d="M1043.72,-285.56C1099.61,-280.6 1179.09,-268.49 1242.5,-239 1291.47,-216.22 1313.39,-210.81 1336.5,-162 1369.32,-92.69 1265.6,-51.73 1189.3,-31.59"/>
<polygon fill="#63b8ff" stroke="#63b8ff" points="1189.76,-28.09 1179.21,-29 1188.03,-34.87 1189.76,-28.09"/>
</a>
</g>
</g>
<!-- Node16&#45;&gt;Node5 -->
<g id="edge40_Node000016_Node000005" class="edge">
<title>Node16&#45;&gt;Node5</title>
<g id="a_edge40_Node000016_Node000005"><a xlink:title=" ">
<path fill="none" stroke="#63b8ff" d="M905.18,-279.82C868.31,-272.7 823.31,-260.31 787.5,-239 746.97,-214.89 736.94,-203.48 714.5,-162 705.08,-144.59 700.29,-122.58 697.88,-106.05"/>
<polygon fill="#63b8ff" stroke="#63b8ff" points="701.35,-105.57 696.61,-96.09 694.4,-106.45 701.35,-105.57"/>
</a>
</g>
</g>
<!-- Node16&#45;&gt;Node10 -->
<g id="edge42_Node000016_Node000010" class="edge">
<title>Node16&#45;&gt;Node10</title>
<g id="a_edge42_Node000016_Node000010"><a xlink:title=" ">
<path fill="none" stroke="#63b8ff" d="M905.37,-282.57C855.84,-276.09 788.47,-263.41 733.5,-239 609.6,-183.97 486.96,-72.45 444.3,-31.51"/>
<polygon fill="#63b8ff" stroke="#63b8ff" points="446.69,-28.96 437.07,-24.51 441.82,-33.99 446.69,-28.96"/>
</a>
</g>
</g>
<!-- Node17 -->
<g id="Node000017" class="node">
<title>Node17</title>
<g id="a_Node000017"><a xlink:title=" ">
<polygon fill="#e0e0e0" stroke="#999999" points="1126.5,-228 988.5,-228 988.5,-209 1126.5,-209 1126.5,-228"/>
<text text-anchor="middle" x="1057.5" y="-216" font-family="Helvetica,sans-Serif" font-size="10.00">deal.II/base/exceptions.h</text>
</a>
</g>
</g>
<!-- Node16&#45;&gt;Node17 -->
<g id="edge22_Node000016_Node000017" class="edge">
<title>Node16&#45;&gt;Node17</title>
<g id="a_edge22_Node000016_Node000017"><a xlink:title=" ">
<path fill="none" stroke="#63b8ff" d="M991.3,-274.94C1005.23,-263.26 1025.02,-246.7 1039.32,-234.72"/>
<polygon fill="#63b8ff" stroke="#63b8ff" points="1041.61,-237.37 1047.03,-228.27 1037.12,-232 1041.61,-237.37"/>
</a>
</g>
</g>
<!-- Node18 -->
<g id="Node000018" class="node">
<title>Node18</title>
<g id="a_Node000018"><a xlink:href="finite__element__data_8hpp.html" target="_top" xlink:title=" ">
<polygon fill="white" stroke="#666666" points="1125.5,-162 1001.5,-162 1001.5,-132 1125.5,-132 1125.5,-162"/>
<text text-anchor="start" x="1009.5" y="-150" font-family="Helvetica,sans-Serif" font-size="10.00">meltpooldg/core/finite</text>
<text text-anchor="middle" x="1063.5" y="-139" font-family="Helvetica,sans-Serif" font-size="10.00">_element_data.hpp</text>
</a>
</g>
</g>
<!-- Node16&#45;&gt;Node18 -->
<g id="edge24_Node000016_Node000018" class="edge">
<title>Node16&#45;&gt;Node18</title>
<g id="a_edge24_Node000016_Node000018"><a xlink:title=" ">
<path fill="none" stroke="#63b8ff" d="M1043.68,-282.84C1101.84,-276.06 1178.44,-262.81 1197.5,-239 1208.89,-224.78 1207.89,-212.97 1197.5,-198 1183.13,-177.29 1159.08,-165.15 1135.3,-158.03"/>
<polygon fill="#63b8ff" stroke="#63b8ff" points="1136.07,-154.61 1125.5,-155.36 1134.23,-161.37 1136.07,-154.61"/>
</a>
</g>
</g>
<!-- Node19 -->
<g id="Node000019" class="node">
<title>Node19</title>
<g id="a_Node000019"><a xlink:href="linear__solver__data_8hpp.html" target="_top" xlink:title=" ">
<polygon fill="white" stroke="#666666" points="869,-162 724,-162 724,-132 869,-132 869,-162"/>
<text text-anchor="start" x="732" y="-150" font-family="Helvetica,sans-Serif" font-size="10.00">meltpooldg/linear_algebra</text>
<text text-anchor="middle" x="796.5" y="-139" font-family="Helvetica,sans-Serif" font-size="10.00">/linear_solver_data.hpp</text>
</a>
</g>
</g>
<!-- Node16&#45;&gt;Node19 -->
<g id="edge27_Node000016_Node000019" class="edge">
<title>Node16&#45;&gt;Node19</title>
<g id="a_edge27_Node000016_Node000019"><a xlink:title=" ">
<path fill="none" stroke="#63b8ff" d="M905.32,-286.15C870.08,-280.89 829.68,-268.24 805.5,-239 790.24,-220.54 789.84,-192.23 792.09,-172.09"/>
<polygon fill="#63b8ff" stroke="#63b8ff" points="795.56,-172.52 793.48,-162.13 788.63,-171.55 795.56,-172.52"/>
</a>
</g>
</g>
<!-- Node20 -->
<g id="Node000020" class="node">
<title>Node20</title>
<g id="a_Node000020"><a xlink:href="predictor__data_8hpp.html" target="_top" xlink:title=" ">
<polygon fill="white" stroke="#666666" points="1327,-162 1182,-162 1182,-132 1327,-132 1327,-162"/>
<text text-anchor="start" x="1190" y="-150" font-family="Helvetica,sans-Serif" font-size="10.00">meltpooldg/linear_algebra</text>
<text text-anchor="middle" x="1254.5" y="-139" font-family="Helvetica,sans-Serif" font-size="10.00">/predictor_data.hpp</text>
</a>
</g>
</g>
<!-- Node16&#45;&gt;Node20 -->
<g id="edge29_Node000016_Node000020" class="edge">
<title>Node16&#45;&gt;Node20</title>
<g id="a_edge29_Node000016_Node000020"><a xlink:title=" ">
<path fill="none" stroke="#63b8ff" d="M1043.69,-281.8C1105.31,-274.14 1189.61,-260.16 1215.5,-239 1235.9,-222.33 1245.85,-193 1250.55,-172.14"/>
<polygon fill="#63b8ff" stroke="#63b8ff" points="1254.03,-172.61 1252.56,-162.12 1247.17,-171.24 1254.03,-172.61"/>
</a>
</g>
</g>
<!-- Node21 -->
<g id="Node000021" class="node">
<title>Node21</title>
<g id="a_Node000021"><a xlink:href="time__integrator__data_8hpp.html" target="_top" xlink:title=" ">
<polygon fill="white" stroke="#666666" points="970.5,-233.5 814.5,-233.5 814.5,-203.5 970.5,-203.5 970.5,-233.5"/>
<text text-anchor="start" x="822.5" y="-221.5" font-family="Helvetica,sans-Serif" font-size="10.00">meltpooldg/time_integration</text>
<text text-anchor="middle" x="892.5" y="-210.5" font-family="Helvetica,sans-Serif" font-size="10.00">/time_integrator_data.hpp</text>
</a>
</g>
</g>
<!-- Node16&#45;&gt;Node21 -->
<g id="edge32_Node000016_Node000021" class="edge">
<title>Node16&#45;&gt;Node21</title>
<g id="a_edge32_Node000016_Node000021"><a xlink:title=" ">
<path fill="none" stroke="#63b8ff" d="M957.91,-274.94C946.12,-264.95 930.12,-251.38 916.89,-240.17"/>
<polygon fill="#63b8ff" stroke="#63b8ff" points="918.96,-237.34 909.07,-233.54 914.43,-242.68 918.96,-237.34"/>
</a>
</g>
</g>
<!-- Node23 -->
<g id="Node000023" class="node">
<title>Node23</title>
<g id="a_Node000023"><a xlink:title=" ">
<polygon fill="#e0e0e0" stroke="#999999" points="1188.5,-228 1144.5,-228 1144.5,-209 1188.5,-209 1188.5,-228"/>
<text text-anchor="middle" x="1166.5" y="-216" font-family="Helvetica,sans-Serif" font-size="10.00">limits</text>
</a>
</g>
</g>
<!-- Node16&#45;&gt;Node23 -->
<g id="edge41_Node000016_Node000023" class="edge">
<title>Node16&#45;&gt;Node23</title>
<g id="a_edge41_Node000016_Node000023"><a xlink:title=" ">
<path fill="none" stroke="#63b8ff" d="M1032.48,-274.93C1063.73,-266.38 1102.53,-254.17 1135.5,-239 1139,-237.39 1142.58,-235.45 1146,-233.43"/>
<polygon fill="#63b8ff" stroke="#63b8ff" points="1147.95,-236.34 1154.54,-228.05 1144.22,-230.41 1147.95,-236.34"/>
</a>
</g>
</g>
<!-- Node18&#45;&gt;Node4 -->
<g id="edge25_Node000018_Node000004" class="edge">
<title>Node18&#45;&gt;Node4</title>
<g id="a_edge25_Node000018_Node000004"><a xlink:title=" ">
<path fill="none" stroke="#63b8ff" d="M1074.75,-131.9C1081.92,-122.28 1090.88,-108.98 1096.5,-96 1104.24,-78.12 1109.12,-56.56 1112,-40.33"/>
<polygon fill="#63b8ff" stroke="#63b8ff" points="1115.52,-40.49 1113.68,-30.06 1108.61,-39.36 1115.52,-40.49"/>
</a>
</g>
</g>
<!-- Node18&#45;&gt;Node5 -->
<g id="edge26_Node000018_Node000005" class="edge">
<title>Node18&#45;&gt;Node5</title>
<g id="a_edge26_Node000018_Node000005"><a xlink:title=" ">
<path fill="none" stroke="#63b8ff" d="M1001.49,-135.22C935.05,-123.66 829.99,-105.39 761.91,-93.55"/>
<polygon fill="#63b8ff" stroke="#63b8ff" points="762.17,-90.04 751.72,-91.78 760.97,-96.94 762.17,-90.04"/>
</a>
</g>
</g>
<!-- Node19&#45;&gt;Node5 -->
<g id="edge28_Node000019_Node000005" class="edge">
<title>Node19&#45;&gt;Node5</title>
<g id="a_edge28_Node000019_Node000005"><a xlink:title=" ">
<path fill="none" stroke="#63b8ff" d="M774.08,-131.8C760.09,-122.93 741.88,-111.39 726.52,-101.66"/>
<polygon fill="#63b8ff" stroke="#63b8ff" points="728.17,-98.56 717.85,-96.16 724.43,-104.47 728.17,-98.56"/>
</a>
</g>
</g>
<!-- Node20&#45;&gt;Node4 -->
<g id="edge30_Node000020_Node000004" class="edge">
<title>Node20&#45;&gt;Node4</title>
<g id="a_edge30_Node000020_Node000004"><a xlink:title=" ">
<path fill="none" stroke="#63b8ff" d="M1239.36,-131.84C1214.92,-108.98 1166.64,-63.82 1138.11,-37.14"/>
<polygon fill="#63b8ff" stroke="#63b8ff" points="1140.32,-34.42 1130.62,-30.14 1135.53,-39.53 1140.32,-34.42"/>
</a>
</g>
</g>
<!-- Node20&#45;&gt;Node5 -->
<g id="edge31_Node000020_Node000005" class="edge">
<title>Node20&#45;&gt;Node5</title>
<g id="a_edge31_Node000020_Node000005"><a xlink:title=" ">
<path fill="none" stroke="#63b8ff" d="M1181.85,-137.49C1166.23,-135.67 1149.81,-133.77 1134.5,-132 1002.33,-116.76 847.73,-99.22 761.77,-89.49"/>
<polygon fill="#63b8ff" stroke="#63b8ff" points="761.97,-85.99 751.64,-88.34 761.18,-92.95 761.97,-85.99"/>
</a>
</g>
</g>
<!-- Node21&#45;&gt;Node4 -->
<g id="edge33_Node000021_Node000004" class="edge">
<title>Node21&#45;&gt;Node4</title>
<g id="a_edge33_Node000021_Node000004"><a xlink:title=" ">
<path fill="none" stroke="#63b8ff" d="M954.9,-203.43C1026.36,-187.29 1133.78,-162.9 1134.5,-162 1162.52,-126.82 1143.05,-71.03 1128.13,-39.58"/>
<polygon fill="#63b8ff" stroke="#63b8ff" points="1131.09,-37.68 1123.51,-30.28 1124.83,-40.79 1131.09,-37.68"/>
</a>
</g>
</g>
<!-- Node21&#45;&gt;Node5 -->
<g id="edge38_Node000021_Node000005" class="edge">
<title>Node21&#45;&gt;Node5</title>
<g id="a_edge38_Node000021_Node000005"><a xlink:title=" ">
<path fill="none" stroke="#63b8ff" d="M894.25,-203.42C895.75,-184.67 895.35,-151.62 877.5,-132 848.45,-100.07 801.11,-87.76 761.99,-83.34"/>
<polygon fill="#63b8ff" stroke="#63b8ff" points="762.01,-79.82 751.72,-82.33 761.33,-86.79 762.01,-79.82"/>
</a>
</g>
</g>
<!-- Node21&#45;&gt;Node7 -->
<g id="edge37_Node000021_Node000007" class="edge">
<title>Node21&#45;&gt;Node7</title>
<g id="a_edge37_Node000021_Node000007"><a xlink:title=" ">
<path fill="none" stroke="#63b8ff" d="M894.77,-203.4C896.46,-192.21 898.61,-176.15 899.5,-162 902.2,-118.99 895.64,-68.98 890.89,-40.07"/>
<polygon fill="#63b8ff" stroke="#63b8ff" points="894.31,-39.34 889.18,-30.08 887.41,-40.52 894.31,-39.34"/>
</a>
</g>
</g>
<!-- Node21&#45;&gt;Node10 -->
<g id="edge39_Node000021_Node000010" class="edge">
<title>Node21&#45;&gt;Node10</title>
<g id="a_edge39_Node000021_Node000010"><a xlink:title=" ">
<path fill="none" stroke="#63b8ff" d="M835.06,-203.47C799.53,-193.84 753.42,-179.64 714.5,-162 640.01,-128.24 631.13,-101.61 557.5,-66 515.73,-45.8 502.45,-47.56 459.5,-30 458.33,-29.52 457.14,-29.03 455.94,-28.52"/>
<polygon fill="#63b8ff" stroke="#63b8ff" points="457.33,-25.31 446.76,-24.51 454.53,-31.72 457.33,-25.31"/>
</a>
</g>
</g>
<!-- Node21&#45;&gt;Node19 -->
<g id="edge34_Node000021_Node000019" class="edge">
<title>Node21&#45;&gt;Node19</title>
<g id="a_edge34_Node000021_Node000019"><a xlink:title=" ">
<path fill="none" stroke="#63b8ff" d="M873.07,-203.44C859.02,-193.26 839.83,-179.37 824.18,-168.04"/>
<polygon fill="#63b8ff" stroke="#63b8ff" points="826.05,-165.07 815.9,-162.04 821.95,-170.74 826.05,-165.07"/>
</a>
</g>
</g>
<!-- Node22 -->
<g id="Node000022" class="node">
<title>Node22</title>
<g id="a_Node000022"><a xlink:href="nonlinear__solver__data_8hpp.html" target="_top" xlink:title=" ">
<polygon fill="white" stroke="#666666" points="1088,-96 939,-96 939,-66 1088,-66 1088,-96"/>
<text text-anchor="start" x="947" y="-84" font-family="Helvetica,sans-Serif" font-size="10.00">meltpooldg/linear_algebra</text>
<text text-anchor="middle" x="1013.5" y="-73" font-family="Helvetica,sans-Serif" font-size="10.00">/nonlinear_solver_data.hpp</text>
</a>
</g>
</g>
<!-- Node21&#45;&gt;Node22 -->
<g id="edge35_Node000021_Node000022" class="edge">
<title>Node21&#45;&gt;Node22</title>
<g id="a_edge35_Node000021_Node000022"><a xlink:title=" ">
<path fill="none" stroke="#63b8ff" d="M908.01,-203.38C919.77,-192.45 936.14,-176.73 949.5,-162 966.44,-143.33 984.24,-120.8 996.76,-104.42"/>
<polygon fill="#63b8ff" stroke="#63b8ff" points="999.88,-106.1 1003.13,-96.01 994.3,-101.87 999.88,-106.1"/>
</a>
</g>
</g>
<!-- Node22&#45;&gt;Node4 -->
<g id="edge36_Node000022_Node000004" class="edge">
<title>Node22&#45;&gt;Node4</title>
<g id="a_edge36_Node000022_Node000004"><a xlink:title=" ">
<path fill="none" stroke="#63b8ff" d="M1035.88,-65.95C1050.1,-57.03 1068.7,-45.36 1084.35,-35.54"/>
<polygon fill="#63b8ff" stroke="#63b8ff" points="1086.56,-38.29 1093.17,-30.01 1082.84,-32.36 1086.56,-38.29"/>
</a>
</g>
</g>
<!-- Node24&#45;&gt;Node3 -->
<g id="edge44_Node000024_Node000003" class="edge">
<title>Node24&#45;&gt;Node3</title>
<g id="a_edge44_Node000024_Node000003"><a xlink:title=" ">
<path fill="none" stroke="#63b8ff" d="M411.82,-274.96C403.8,-250.91 387.35,-201.56 377.49,-171.97"/>
<polygon fill="#63b8ff" stroke="#63b8ff" points="380.78,-170.78 374.3,-162.4 374.14,-172.99 380.78,-170.78"/>
</a>
</g>
</g>
<!-- Node24&#45;&gt;Node5 -->
<g id="edge46_Node000024_Node000005" class="edge">
<title>Node24&#45;&gt;Node5</title>
<g id="a_edge46_Node000024_Node000005"><a xlink:title=" ">
<path fill="none" stroke="#63b8ff" d="M415.44,-274.82C414.74,-255.47 416.28,-220.64 433.5,-198 480.79,-135.84 568.63,-106.29 629.48,-92.74"/>
<polygon fill="#63b8ff" stroke="#63b8ff" points="630.34,-96.13 639.39,-90.62 628.88,-89.29 630.34,-96.13"/>
</a>
</g>
</g>
<!-- Node24&#45;&gt;Node11 -->
<g id="edge47_Node000024_Node000011" class="edge">
<title>Node24&#45;&gt;Node11</title>
<g id="a_edge47_Node000024_Node000011"><a xlink:title=" ">
<path fill="none" stroke="#63b8ff" d="M400.9,-274.77C361.6,-238.94 258.41,-144.84 212.32,-102.81"/>
<polygon fill="#63b8ff" stroke="#63b8ff" points="214.66,-100.21 204.91,-96.05 209.94,-105.38 214.66,-100.21"/>
</a>
</g>
</g>
<!-- Node24&#45;&gt;Node15 -->
<g id="edge45_Node000024_Node000015" class="edge">
<title>Node24&#45;&gt;Node15</title>
<g id="a_edge45_Node000024_Node000015"><a xlink:title=" ">
<path fill="none" stroke="#63b8ff" d="M436.94,-274.94C449.47,-266.31 465.88,-255.02 480.61,-244.88"/>
<polygon fill="#63b8ff" stroke="#63b8ff" points="482.8,-247.63 489.06,-239.07 478.83,-241.86 482.8,-247.63"/>
</a>
</g>
</g>
<!-- Node25&#45;&gt;Node2 -->
<g id="edge52_Node000025_Node000002" class="edge">
<title>Node25&#45;&gt;Node2</title>
<g id="a_edge52_Node000025_Node000002"><a xlink:title=" ">
<path fill="none" stroke="#63b8ff" d="M146.86,-340.8C131.56,-330.27 110.79,-315.97 95.42,-305.4"/>
<polygon fill="#63b8ff" stroke="#63b8ff" points="97.3,-302.44 87.08,-299.66 93.34,-308.21 97.3,-302.44"/>
</a>
</g>
</g>
</g>
</svg>
