<?xml version="1.0" encoding="UTF-8" standalone="no"?>
<!DOCTYPE svg PUBLIC "-//W3C//DTD SVG 1.1//EN"
 "http://www.w3.org/Graphics/SVG/1.1/DTD/svg11.dtd">
<!-- Generated by graphviz version 2.43.0 (0)
 -->
<!-- Title: include/meltpooldg/phase_change/evaporation_model_saturated_vapor_pressure.hpp Pages: 1 -->
<svg width="709pt" height="390pt"
 viewBox="0.00 0.00 708.50 390.00" xmlns="http://www.w3.org/2000/svg" xmlns:xlink="http://www.w3.org/1999/xlink">
<g id="graph0" class="graph" transform="scale(1 1) rotate(0) translate(4 386)">
<title>include/meltpooldg/phase_change/evaporation_model_saturated_vapor_pressure.hpp</title>
<!-- Node1 -->
<g id="Node000001" class="node">
<title>Node1</title>
<g id="a_Node000001"><a xlink:title=" ">
<polygon fill="#999999" stroke="#666666" points="279.5,-382 73.5,-382 73.5,-341 279.5,-341 279.5,-382"/>
<text text-anchor="start" x="81.5" y="-370" font-family="Helvetica,sans-Serif" font-size="10.00">include/meltpooldg</text>
<text text-anchor="start" x="81.5" y="-359" font-family="Helvetica,sans-Serif" font-size="10.00">/phase_change/evaporation</text>
<text text-anchor="middle" x="176.5" y="-348" font-family="Helvetica,sans-Serif" font-size="10.00">_model_saturated_vapor_pressure.hpp</text>
</a>
</g>
</g>
<!-- Node2 -->
<g id="Node000002" class="node">
<title>Node2</title>
<g id="a_Node000002"><a xlink:href="evaporation__model__base_8hpp.html" target="_top" xlink:title=" ">
<polygon fill="white" stroke="#666666" points="172.5,-305 8.5,-305 8.5,-275 172.5,-275 172.5,-305"/>
<text text-anchor="start" x="16.5" y="-293" font-family="Helvetica,sans-Serif" font-size="10.00">meltpooldg/phase_change</text>
<text text-anchor="middle" x="90.5" y="-282" font-family="Helvetica,sans-Serif" font-size="10.00">/evaporation_model_base.hpp</text>
</a>
</g>
</g>
<!-- Node1&#45;&gt;Node2 -->
<g id="edge1_Node000001_Node000002" class="edge">
<title>Node1&#45;&gt;Node2</title>
<g id="a_edge1_Node000001_Node000002"><a xlink:title=" ">
<path fill="none" stroke="#63b8ff" d="M152.09,-340.77C140.74,-331.6 127.25,-320.7 115.79,-311.44"/>
<polygon fill="#63b8ff" stroke="#63b8ff" points="117.85,-308.6 107.87,-305.04 113.45,-314.05 117.85,-308.6"/>
</a>
</g>
</g>
<!-- Node4 -->
<g id="Node000004" class="node">
<title>Node4</title>
<g id="a_Node000004"><a xlink:href="recoil__pressure__data_8hpp.html" target="_top" xlink:title=" ">
<polygon fill="white" stroke="#666666" points="351,-305 206,-305 206,-275 351,-275 351,-305"/>
<text text-anchor="start" x="214" y="-293" font-family="Helvetica,sans-Serif" font-size="10.00">meltpooldg/phase_change</text>
<text text-anchor="middle" x="278.5" y="-282" font-family="Helvetica,sans-Serif" font-size="10.00">/recoil_pressure_data.hpp</text>
</a>
</g>
</g>
<!-- Node1&#45;&gt;Node4 -->
<g id="edge3_Node000001_Node000004" class="edge">
<title>Node1&#45;&gt;Node4</title>
<g id="a_edge3_Node000001_Node000004"><a xlink:title=" ">
<path fill="none" stroke="#63b8ff" d="M205.18,-340.96C218.91,-331.6 235.33,-320.42 249.14,-311.01"/>
<polygon fill="#63b8ff" stroke="#63b8ff" points="251.49,-313.64 257.79,-305.11 247.55,-307.85 251.49,-313.64"/>
</a>
</g>
</g>
<!-- Node3 -->
<g id="Node000003" class="node">
<title>Node3</title>
<g id="a_Node000003"><a xlink:title=" ">
<polygon fill="#e0e0e0" stroke="#999999" points="149,-228 0,-228 0,-209 149,-209 149,-228"/>
<text text-anchor="middle" x="74.5" y="-216" font-family="Helvetica,sans-Serif" font-size="10.00">deal.II/base/vectorization.h</text>
</a>
</g>
</g>
<!-- Node2&#45;&gt;Node3 -->
<g id="edge2_Node000002_Node000003" class="edge">
<title>Node2&#45;&gt;Node3</title>
<g id="a_edge2_Node000002_Node000003"><a xlink:title=" ">
<path fill="none" stroke="#63b8ff" d="M87.26,-274.94C84.83,-264.36 81.46,-249.75 78.8,-238.19"/>
<polygon fill="#63b8ff" stroke="#63b8ff" points="82.17,-237.23 76.52,-228.27 75.35,-238.8 82.17,-237.23"/>
</a>
</g>
</g>
<!-- Node5 -->
<g id="Node000005" class="node">
<title>Node5</title>
<g id="a_Node000005"><a xlink:href="core_2material__data_8hpp.html" target="_top" xlink:title=" ">
<polygon fill="white" stroke="#666666" points="448.5,-162 308.5,-162 308.5,-132 448.5,-132 448.5,-162"/>
<text text-anchor="start" x="316.5" y="-150" font-family="Helvetica,sans-Serif" font-size="10.00">meltpooldg/core/material</text>
<text text-anchor="middle" x="378.5" y="-139" font-family="Helvetica,sans-Serif" font-size="10.00">_data.hpp</text>
</a>
</g>
</g>
<!-- Node4&#45;&gt;Node5 -->
<g id="edge4_Node000004_Node000005" class="edge">
<title>Node4&#45;&gt;Node5</title>
<g id="a_edge4_Node000004_Node000005"><a xlink:title=" ">
<path fill="none" stroke="#63b8ff" d="M315.84,-274.88C332.29,-266.8 350.37,-255.03 361.5,-239 375.04,-219.48 378.61,-192.17 379.21,-172.56"/>
<polygon fill="#63b8ff" stroke="#63b8ff" points="382.72,-172.32 379.28,-162.3 375.72,-172.27 382.72,-172.32"/>
</a>
</g>
</g>
<!-- Node7 -->
<g id="Node000007" class="node">
<title>Node7</title>
<g id="a_Node000007"><a xlink:href="enum_8hpp.html" target="_top" xlink:title=" ">
<polygon fill="white" stroke="#666666" points="392.5,-96 280.5,-96 280.5,-66 392.5,-66 392.5,-96"/>
<text text-anchor="start" x="288.5" y="-84" font-family="Helvetica,sans-Serif" font-size="10.00">meltpooldg/utilities</text>
<text text-anchor="middle" x="336.5" y="-73" font-family="Helvetica,sans-Serif" font-size="10.00">/enum.hpp</text>
</a>
</g>
</g>
<!-- Node4&#45;&gt;Node7 -->
<g id="edge19_Node000004_Node000007" class="edge">
<title>Node4&#45;&gt;Node7</title>
<g id="a_edge19_Node000004_Node000007"><a xlink:title=" ">
<path fill="none" stroke="#63b8ff" d="M237.14,-274.81C220.84,-266.95 203.81,-255.38 194.5,-239 185.49,-223.16 186.69,-214.46 194.5,-198 215.73,-153.25 263.61,-120.04 297.9,-100.88"/>
<polygon fill="#63b8ff" stroke="#63b8ff" points="299.62,-103.93 306.74,-96.08 296.28,-97.78 299.62,-103.93"/>
</a>
</g>
</g>
<!-- Node13 -->
<g id="Node000013" class="node">
<title>Node13</title>
<g id="a_Node000013"><a xlink:href="numbers_8hpp.html" target="_top" xlink:title=" ">
<polygon fill="white" stroke="#666666" points="560.5,-96 448.5,-96 448.5,-66 560.5,-66 560.5,-96"/>
<text text-anchor="start" x="456.5" y="-84" font-family="Helvetica,sans-Serif" font-size="10.00">meltpooldg/utilities</text>
<text text-anchor="middle" x="504.5" y="-73" font-family="Helvetica,sans-Serif" font-size="10.00">/numbers.hpp</text>
</a>
</g>
</g>
<!-- Node4&#45;&gt;Node13 -->
<g id="edge20_Node000004_Node000013" class="edge">
<title>Node4&#45;&gt;Node13</title>
<g id="a_edge20_Node000004_Node000013"><a xlink:title=" ">
<path fill="none" stroke="#63b8ff" d="M316.27,-274.93C337.11,-266.23 362.87,-253.88 383.5,-239 422,-211.24 428.84,-199.83 457.5,-162 471.16,-143.97 483.98,-121.64 492.77,-105.16"/>
<polygon fill="#63b8ff" stroke="#63b8ff" points="495.91,-106.7 497.45,-96.21 489.71,-103.45 495.91,-106.7"/>
</a>
</g>
</g>
<!-- Node14 -->
<g id="Node000014" class="node">
<title>Node14</title>
<g id="a_Node000014"><a xlink:href="delta__approximation__phase__weighted__data_8hpp.html" target="_top" xlink:title=" ">
<polygon fill="white" stroke="#666666" points="353,-239 204,-239 204,-198 353,-198 353,-239"/>
<text text-anchor="start" x="212" y="-227" font-family="Helvetica,sans-Serif" font-size="10.00">meltpooldg/level_set</text>
<text text-anchor="start" x="212" y="-216" font-family="Helvetica,sans-Serif" font-size="10.00">/delta_approximation</text>
<text text-anchor="middle" x="278.5" y="-205" font-family="Helvetica,sans-Serif" font-size="10.00">_phase_weighted_data.hpp</text>
</a>
</g>
</g>
<!-- Node4&#45;&gt;Node14 -->
<g id="edge15_Node000004_Node000014" class="edge">
<title>Node4&#45;&gt;Node14</title>
<g id="a_edge15_Node000004_Node000014"><a xlink:title=" ">
<path fill="none" stroke="#63b8ff" d="M278.5,-274.94C278.5,-267.52 278.5,-258.14 278.5,-249.2"/>
<polygon fill="#63b8ff" stroke="#63b8ff" points="282,-249.07 278.5,-239.07 275,-249.07 282,-249.07"/>
</a>
</g>
</g>
<!-- Node6 -->
<g id="Node000006" class="node">
<title>Node6</title>
<g id="a_Node000006"><a xlink:title=" ">
<polygon fill="#e0e0e0" stroke="#999999" points="147,-30 20,-30 20,0 147,0 147,-30"/>
<text text-anchor="start" x="28" y="-18" font-family="Helvetica,sans-Serif" font-size="10.00">deal.II/base/parameter</text>
<text text-anchor="middle" x="83.5" y="-7" font-family="Helvetica,sans-Serif" font-size="10.00">_handler.h</text>
</a>
</g>
</g>
<!-- Node5&#45;&gt;Node6 -->
<g id="edge5_Node000005_Node000006" class="edge">
<title>Node5&#45;&gt;Node6</title>
<g id="a_edge5_Node000005_Node000006"><a xlink:title=" ">
<path fill="none" stroke="#63b8ff" d="M344.49,-131.9C323.08,-122.59 295.12,-109.62 271.5,-96 251.31,-84.36 249.27,-76.57 228.5,-66 202.19,-52.62 171.49,-41.45 145.12,-33.09"/>
<polygon fill="#63b8ff" stroke="#63b8ff" points="145.83,-29.65 135.24,-30.02 143.76,-36.33 145.83,-29.65"/>
</a>
</g>
</g>
<!-- Node5&#45;&gt;Node7 -->
<g id="edge6_Node000005_Node000007" class="edge">
<title>Node5&#45;&gt;Node7</title>
<g id="a_edge6_Node000005_Node000007"><a xlink:title=" ">
<path fill="none" stroke="#63b8ff" d="M369.18,-131.8C363.96,-123.84 357.33,-113.74 351.4,-104.71"/>
<polygon fill="#63b8ff" stroke="#63b8ff" points="354.21,-102.6 345.8,-96.16 348.36,-106.44 354.21,-102.6"/>
</a>
</g>
</g>
<!-- Node12 -->
<g id="Node000012" class="node">
<title>Node12</title>
<g id="a_Node000012"><a xlink:title=" ">
<polygon fill="#e0e0e0" stroke="#999999" points="700.5,-24.5 656.5,-24.5 656.5,-5.5 700.5,-5.5 700.5,-24.5"/>
<text text-anchor="middle" x="678.5" y="-12.5" font-family="Helvetica,sans-Serif" font-size="10.00">string</text>
</a>
</g>
</g>
<!-- Node5&#45;&gt;Node12 -->
<g id="edge14_Node000005_Node000012" class="edge">
<title>Node5&#45;&gt;Node12</title>
<g id="a_edge14_Node000005_Node000012"><a xlink:title=" ">
<path fill="none" stroke="#63b8ff" d="M385.11,-131.8C394.46,-113.42 413.37,-81.85 439.5,-66 519.71,-17.33 557.81,-57.53 647.5,-30 648.95,-29.56 650.41,-29.06 651.88,-28.53"/>
<polygon fill="#63b8ff" stroke="#63b8ff" points="653.48,-31.66 661.42,-24.64 650.84,-25.18 653.48,-31.66"/>
</a>
</g>
</g>
<!-- Node5&#45;&gt;Node13 -->
<g id="edge13_Node000005_Node000013" class="edge">
<title>Node5&#45;&gt;Node13</title>
<g id="a_edge13_Node000005_Node000013"><a xlink:title=" ">
<path fill="none" stroke="#63b8ff" d="M406.15,-131.95C424.29,-122.74 448.2,-110.6 467.91,-100.59"/>
<polygon fill="#63b8ff" stroke="#63b8ff" points="469.58,-103.66 476.91,-96.01 466.41,-97.42 469.58,-103.66"/>
</a>
</g>
</g>
<!-- Node7&#45;&gt;Node6 -->
<g id="edge7_Node000007_Node000006" class="edge">
<title>Node7&#45;&gt;Node6</title>
<g id="a_edge7_Node000007_Node000006"><a xlink:title=" ">
<path fill="none" stroke="#63b8ff" d="M280.98,-65.95C242.01,-56.1 189.75,-42.88 148.78,-32.51"/>
<polygon fill="#63b8ff" stroke="#63b8ff" points="149.45,-29.07 138.89,-30.01 147.73,-35.86 149.45,-29.07"/>
</a>
</g>
</g>
<!-- Node8 -->
<g id="Node000008" class="node">
<title>Node8</title>
<g id="a_Node000008"><a xlink:title=" ">
<polygon fill="#e0e0e0" stroke="#999999" points="508,-24.5 383,-24.5 383,-5.5 508,-5.5 508,-24.5"/>
<text text-anchor="middle" x="445.5" y="-12.5" font-family="Helvetica,sans-Serif" font-size="10.00">deal.II/base/patterns.h</text>
</a>
</g>
</g>
<!-- Node7&#45;&gt;Node8 -->
<g id="edge8_Node000007_Node000008" class="edge">
<title>Node7&#45;&gt;Node8</title>
<g id="a_edge8_Node000007_Node000008"><a xlink:title=" ">
<path fill="none" stroke="#63b8ff" d="M360.42,-65.95C378.78,-55.18 403.98,-40.38 422.19,-29.69"/>
<polygon fill="#63b8ff" stroke="#63b8ff" points="424.14,-32.6 430.99,-24.52 420.6,-26.56 424.14,-32.6"/>
</a>
</g>
</g>
<!-- Node9 -->
<g id="Node000009" class="node">
<title>Node9</title>
<g id="a_Node000009"><a xlink:title=" ">
<polygon fill="#e0e0e0" stroke="#999999" points="638.5,-30 526.5,-30 526.5,0 638.5,0 638.5,-30"/>
<text text-anchor="start" x="534.5" y="-18" font-family="Helvetica,sans-Serif" font-size="10.00">meltpooldg/utilities</text>
<text text-anchor="middle" x="582.5" y="-7" font-family="Helvetica,sans-Serif" font-size="10.00">/better_enum.hpp</text>
</a>
</g>
</g>
<!-- Node7&#45;&gt;Node9 -->
<g id="edge9_Node000007_Node000009" class="edge">
<title>Node7&#45;&gt;Node9</title>
<g id="a_edge9_Node000007_Node000009"><a xlink:title=" ">
<path fill="none" stroke="#63b8ff" d="M390.49,-65.95C428.3,-56.12 478.97,-42.93 518.77,-32.58"/>
<polygon fill="#63b8ff" stroke="#63b8ff" points="519.84,-35.92 528.64,-30.01 518.08,-29.14 519.84,-35.92"/>
</a>
</g>
</g>
<!-- Node10 -->
<g id="Node000010" class="node">
<title>Node10</title>
<g id="a_Node000010"><a xlink:title=" ">
<polygon fill="#e0e0e0" stroke="#999999" points="290,-30 165,-30 165,0 290,0 290,-30"/>
<text text-anchor="start" x="173" y="-18" font-family="Helvetica,sans-Serif" font-size="10.00">boost/algorithm/string</text>
<text text-anchor="middle" x="227.5" y="-7" font-family="Helvetica,sans-Serif" font-size="10.00">/join.hpp</text>
</a>
</g>
</g>
<!-- Node7&#45;&gt;Node10 -->
<g id="edge10_Node000007_Node000010" class="edge">
<title>Node7&#45;&gt;Node10</title>
<g id="a_edge10_Node000007_Node000010"><a xlink:title=" ">
<path fill="none" stroke="#63b8ff" d="M312.58,-65.95C297.25,-56.95 277.14,-45.14 260.32,-35.27"/>
<polygon fill="#63b8ff" stroke="#63b8ff" points="261.76,-32.06 251.36,-30.01 258.22,-38.09 261.76,-32.06"/>
</a>
</g>
</g>
<!-- Node11 -->
<g id="Node000011" class="node">
<title>Node11</title>
<g id="a_Node000011"><a xlink:title=" ">
<polygon fill="#e0e0e0" stroke="#999999" points="364.5,-24.5 308.5,-24.5 308.5,-5.5 364.5,-5.5 364.5,-24.5"/>
<text text-anchor="middle" x="336.5" y="-12.5" font-family="Helvetica,sans-Serif" font-size="10.00">sstream</text>
</a>
</g>
</g>
<!-- Node7&#45;&gt;Node11 -->
<g id="edge11_Node000007_Node000011" class="edge">
<title>Node7&#45;&gt;Node11</title>
<g id="a_edge11_Node000007_Node000011"><a xlink:title=" ">
<path fill="none" stroke="#63b8ff" d="M336.5,-65.8C336.5,-56.7 336.5,-44.79 336.5,-34.9"/>
<polygon fill="#63b8ff" stroke="#63b8ff" points="340,-34.84 336.5,-24.84 333,-34.84 340,-34.84"/>
</a>
</g>
</g>
<!-- Node7&#45;&gt;Node12 -->
<g id="edge12_Node000007_Node000012" class="edge">
<title>Node7&#45;&gt;Node12</title>
<g id="a_edge12_Node000007_Node000012"><a xlink:title=" ">
<path fill="none" stroke="#63b8ff" d="M392.62,-68.52C397.31,-67.64 401.98,-66.79 406.5,-66 513.19,-47.37 543.61,-60.58 647.5,-30 649.14,-29.52 650.8,-28.97 652.46,-28.37"/>
<polygon fill="#63b8ff" stroke="#63b8ff" points="653.83,-31.59 661.77,-24.57 651.19,-25.11 653.83,-31.59"/>
</a>
</g>
</g>
<!-- Node14&#45;&gt;Node5 -->
<g id="edge17_Node000014_Node000005" class="edge">
<title>Node14&#45;&gt;Node5</title>
<g id="a_edge17_Node000014_Node000005"><a xlink:title=" ">
<path fill="none" stroke="#63b8ff" d="M306.62,-197.96C320.08,-188.6 336.17,-177.42 349.72,-168.01"/>
<polygon fill="#63b8ff" stroke="#63b8ff" points="351.98,-170.69 358.19,-162.11 347.98,-164.95 351.98,-170.69"/>
</a>
</g>
</g>
<!-- Node14&#45;&gt;Node6 -->
<g id="edge16_Node000014_Node000006" class="edge">
<title>Node14&#45;&gt;Node6</title>
<g id="a_edge16_Node000014_Node000006"><a xlink:title=" ">
<path fill="none" stroke="#63b8ff" d="M259.45,-197.81C222.7,-159.84 142.31,-76.77 104.26,-37.45"/>
<polygon fill="#63b8ff" stroke="#63b8ff" points="106.71,-34.95 97.24,-30.2 101.68,-39.82 106.71,-34.95"/>
</a>
</g>
</g>
<!-- Node14&#45;&gt;Node7 -->
<g id="edge18_Node000014_Node000007" class="edge">
<title>Node14&#45;&gt;Node7</title>
<g id="a_edge18_Node000014_Node000007"><a xlink:title=" ">
<path fill="none" stroke="#63b8ff" d="M281.08,-197.74C283.93,-179.92 289.5,-153.31 299.5,-132 304.06,-122.28 310.67,-112.56 317.03,-104.32"/>
<polygon fill="#63b8ff" stroke="#63b8ff" points="319.93,-106.3 323.49,-96.32 314.49,-101.9 319.93,-106.3"/>
</a>
</g>
</g>
</g>
</svg>
