<?xml version="1.0" encoding="UTF-8" standalone="no"?>
<!DOCTYPE svg PUBLIC "-//W3C//DTD SVG 1.1//EN"
 "http://www.w3.org/Graphics/SVG/1.1/DTD/svg11.dtd">
<!-- Generated by graphviz version 2.43.0 (0)
 -->
<!-- Title: source/phase_change/evaporation_data.cpp Pages: 1 -->
<!--zoomable 445 -->

<svg id="main" version="1.1" xmlns="http://www.w3.org/2000/svg" xmlns:xlink="http://www.w3.org/1999/xlink" xml:space="preserve" onload="init(evt)">
<style type="text/css"><![CDATA[
.node, .edge {opacity: 0.7;}
.node.selected, .edge.selected {opacity: 1;}
.edge:hover path { stroke: red; }
.edge:hover polygon { stroke: red; fill: red; }
]]></style>

<defs>
  <circle id="rim" cx="0" cy="0" r="7"/>
  <circle id="rim2" cx="0" cy="0" r="3.5"/>
  <g id="zoomPlus">
    <use xlink:href="#rim" fill="#404040"><set attributeName="fill" to="#808080" begin="zoomplus.mouseover" end="zoomplus.mouseout"/></use>
    <path d="M-4,0h8M0,-4v8" fill="none" stroke="white" stroke-width="1.5" pointer-events="none"/>
  </g>
  <g id="zoomMin">
    <use xlink:href="#rim" fill="#404040"><set attributeName="fill" to="#808080" begin="zoomminus.mouseover" end="zoomminus.mouseout"/></use>
    <path d="M-4,0h8" fill="none" stroke="white" stroke-width="1.5" pointer-events="none"/>
  </g>
  <g id="arrowUp" transform="translate(30 24)">
    <use xlink:href="#rim"/>
    <path pointer-events="none" fill="none" stroke="white" stroke-width="1.5" d="M0,-3.0v7 M-2.5,-0.5L0,-3.0L2.5,-0.5"/>
  </g>
  <g id="arrowRight" transform="rotate(90) translate(36 -43)">
    <use xlink:href="#rim"/>
    <path pointer-events="none" fill="none" stroke="white" stroke-width="1.5" d="M0,-3.0v7 M-2.5,-0.5L0,-3.0L2.5,-0.5"/>
  </g>
  <g id="arrowDown" transform="rotate(180) translate(-30 -48)">
    <use xlink:href="#rim"/>
    <path pointer-events="none" fill="none" stroke="white" stroke-width="1.5" d="M0,-3.0v7 M-2.5,-0.5L0,-3.0L2.5,-0.5"/>
  </g>
  <g id="arrowLeft" transform="rotate(270) translate(-36 17)">
    <use xlink:href="#rim"/>
    <path pointer-events="none" fill="none" stroke="white" stroke-width="1.5" d="M0,-3.0v7 M-2.5,-0.5L0,-3.0L2.5,-0.5"/>
  </g>
  <g id="resetDef">
    <use xlink:href="#rim2" fill="#404040"><set attributeName="fill" to="#808080" begin="reset.mouseover" end="reset.mouseout"/></use>
  </g>
</defs>
<script type="application/ecmascript">
var viewWidth = 1472;
var viewHeight = 445;
var sectionId = 'dynsection-0';
</script>
<script type="application/ecmascript" xlink:href="svg.min.js"/>
<svg id="graph" class="graph">
<g id="viewport">
<title>source/phase_change/evaporation_data.cpp</title>
<!-- Node1 -->
<g id="Node000001" class="node">
<title>Node1</title>
<g id="a_Node000001"><a xlink:title=" ">
<polygon fill="#999999" stroke="#666666" points="623.5,-437 498.5,-437 498.5,-407 623.5,-407 623.5,-437"/>
<text text-anchor="start" x="506.5" y="-425" font-family="Helvetica,sans-Serif" font-size="10.00">source/phase_change</text>
<text text-anchor="middle" x="561" y="-414" font-family="Helvetica,sans-Serif" font-size="10.00">/evaporation_data.cpp</text>
</a>
</g>
</g>
<!-- Node2 -->
<g id="Node000002" class="node">
<title>Node2</title>
<g id="a_Node000002"><a xlink:title=" ">
<polygon fill="#e0e0e0" stroke="#999999" points="166,-228 28,-228 28,-209 166,-209 166,-228"/>
<text text-anchor="middle" x="97" y="-216" font-family="Helvetica,sans-Serif" font-size="10.00">deal.II/base/exceptions.h</text>
</a>
</g>
</g>
<!-- Node1&#45;&gt;Node2 -->
<g id="edge1_Node000001_Node000002" class="edge">
<title>Node1&#45;&gt;Node2</title>
<g id="a_edge1_Node000001_Node000002"><a xlink:title=" ">
<path fill="none" stroke="#63b8ff" d="M498.34,-411.86C419.41,-398.2 281.81,-367.13 180,-305 150.27,-286.86 123.75,-255.61 109.07,-236.33"/>
<polygon fill="#63b8ff" stroke="#63b8ff" points="111.79,-234.12 103.03,-228.17 106.17,-238.29 111.79,-234.12"/>
</a>
</g>
</g>
<!-- Node3 -->
<g id="Node000003" class="node">
<title>Node3</title>
<g id="a_Node000003"><a xlink:title=" ">
<polygon fill="#e0e0e0" stroke="#999999" points="252.5,-24.5 127.5,-24.5 127.5,-5.5 252.5,-5.5 252.5,-24.5"/>
<text text-anchor="middle" x="190" y="-12.5" font-family="Helvetica,sans-Serif" font-size="10.00">deal.II/base/patterns.h</text>
</a>
</g>
</g>
<!-- Node1&#45;&gt;Node3 -->
<g id="edge2_Node000001_Node000003" class="edge">
<title>Node1&#45;&gt;Node3</title>
<g id="a_edge2_Node000001_Node000003"><a xlink:title=" ">
<path fill="none" stroke="#63b8ff" d="M498.28,-419.62C351.89,-414.71 0,-392.35 0,-291 0,-291 0,-291 0,-146 0,-78.13 83.59,-43.1 139.89,-27.21"/>
<polygon fill="#63b8ff" stroke="#63b8ff" points="140.97,-30.54 149.71,-24.55 139.14,-23.78 140.97,-30.54"/>
</a>
</g>
</g>
<!-- Node4 -->
<g id="Node000004" class="node">
<title>Node4</title>
<g id="a_Node000004"><a xlink:href="evaporation__data_8hpp.html" target="_top" xlink:title=" ">
<polygon fill="white" stroke="#666666" points="1050.5,-371 905.5,-371 905.5,-341 1050.5,-341 1050.5,-371"/>
<text text-anchor="start" x="913.5" y="-359" font-family="Helvetica,sans-Serif" font-size="10.00">meltpooldg/phase_change</text>
<text text-anchor="middle" x="978" y="-348" font-family="Helvetica,sans-Serif" font-size="10.00">/evaporation_data.hpp</text>
</a>
</g>
</g>
<!-- Node1&#45;&gt;Node4 -->
<g id="edge3_Node000001_Node000004" class="edge">
<title>Node1&#45;&gt;Node4</title>
<g id="a_edge3_Node000001_Node000004"><a xlink:title=" ">
<path fill="none" stroke="#63b8ff" d="M623.88,-411.35C696.32,-400.23 815.6,-381.92 895.46,-369.67"/>
<polygon fill="#63b8ff" stroke="#63b8ff" points="896.13,-373.11 905.48,-368.13 895.06,-366.19 896.13,-373.11"/>
</a>
</g>
</g>
<!-- Node23 -->
<g id="Node000023" class="node">
<title>Node23</title>
<g id="a_Node000023"><a xlink:href="recoil__pressure__data_8hpp.html" target="_top" xlink:title=" ">
<polygon fill="white" stroke="#666666" points="1180.5,-305 1035.5,-305 1035.5,-275 1180.5,-275 1180.5,-305"/>
<text text-anchor="start" x="1043.5" y="-293" font-family="Helvetica,sans-Serif" font-size="10.00">meltpooldg/phase_change</text>
<text text-anchor="middle" x="1108" y="-282" font-family="Helvetica,sans-Serif" font-size="10.00">/recoil_pressure_data.hpp</text>
</a>
</g>
</g>
<!-- Node1&#45;&gt;Node23 -->
<g id="edge51_Node000001_Node000023" class="edge">
<title>Node1&#45;&gt;Node23</title>
<g id="a_edge51_Node000001_Node000023"><a xlink:title=" ">
<path fill="none" stroke="#63b8ff" d="M623.73,-421.51C741,-421.36 987.99,-415.59 1059,-371 1079.48,-358.14 1092.69,-333.28 1100.17,-314.67"/>
<polygon fill="#63b8ff" stroke="#63b8ff" points="1103.53,-315.68 1103.75,-305.09 1096.97,-313.23 1103.53,-315.68"/>
</a>
</g>
</g>
<!-- Node5 -->
<g id="Node000005" class="node">
<title>Node5</title>
<g id="a_Node000005"><a xlink:title=" ">
<polygon fill="#e0e0e0" stroke="#999999" points="581.5,-30 454.5,-30 454.5,0 581.5,0 581.5,-30"/>
<text text-anchor="start" x="462.5" y="-18" font-family="Helvetica,sans-Serif" font-size="10.00">deal.II/base/parameter</text>
<text text-anchor="middle" x="518" y="-7" font-family="Helvetica,sans-Serif" font-size="10.00">_handler.h</text>
</a>
</g>
</g>
<!-- Node4&#45;&gt;Node5 -->
<g id="edge4_Node000004_Node000005" class="edge">
<title>Node4&#45;&gt;Node5</title>
<g id="a_edge4_Node000004_Node000005"><a xlink:title=" ">
<path fill="none" stroke="#63b8ff" d="M905.3,-350.05C710.94,-335.83 194,-291.28 194,-219.5 194,-219.5 194,-219.5 194,-146 194,-101.56 216.28,-89.5 254,-66 285.11,-46.61 377.54,-32.18 444.27,-23.93"/>
<polygon fill="#63b8ff" stroke="#63b8ff" points="444.82,-27.39 454.33,-22.71 443.98,-20.44 444.82,-27.39"/>
</a>
</g>
</g>
<!-- Node6 -->
<g id="Node000006" class="node">
<title>Node6</title>
<g id="a_Node000006"><a xlink:href="delta__approximation__phase__weighted__data_8hpp.html" target="_top" xlink:title=" ">
<polygon fill="white" stroke="#666666" points="1182.5,-239 1033.5,-239 1033.5,-198 1182.5,-198 1182.5,-239"/>
<text text-anchor="start" x="1041.5" y="-227" font-family="Helvetica,sans-Serif" font-size="10.00">meltpooldg/level_set</text>
<text text-anchor="start" x="1041.5" y="-216" font-family="Helvetica,sans-Serif" font-size="10.00">/delta_approximation</text>
<text text-anchor="middle" x="1108" y="-205" font-family="Helvetica,sans-Serif" font-size="10.00">_phase_weighted_data.hpp</text>
</a>
</g>
</g>
<!-- Node4&#45;&gt;Node6 -->
<g id="edge5_Node000004_Node000006" class="edge">
<title>Node4&#45;&gt;Node6</title>
<g id="a_edge5_Node000004_Node000006"><a xlink:title=" ">
<path fill="none" stroke="#63b8ff" d="M984.2,-340.75C992.11,-323.71 1007.07,-294.99 1026,-275 1036.86,-263.53 1050.49,-253.15 1063.49,-244.54"/>
<polygon fill="#63b8ff" stroke="#63b8ff" points="1065.38,-247.49 1071.92,-239.16 1061.61,-241.6 1065.38,-247.49"/>
</a>
</g>
</g>
<!-- Node8 -->
<g id="Node000008" class="node">
<title>Node8</title>
<g id="a_Node000008"><a xlink:href="enum_8hpp.html" target="_top" xlink:title=" ">
<polygon fill="white" stroke="#666666" points="880,-96 768,-96 768,-66 880,-66 880,-96"/>
<text text-anchor="start" x="776" y="-84" font-family="Helvetica,sans-Serif" font-size="10.00">meltpooldg/utilities</text>
<text text-anchor="middle" x="824" y="-73" font-family="Helvetica,sans-Serif" font-size="10.00">/enum.hpp</text>
</a>
</g>
</g>
<!-- Node4&#45;&gt;Node8 -->
<g id="edge48_Node000004_Node000008" class="edge">
<title>Node4&#45;&gt;Node8</title>
<g id="a_edge48_Node000004_Node000008"><a xlink:title=" ">
<path fill="none" stroke="#63b8ff" d="M975.02,-340.94C966.62,-303.73 939.87,-200.86 888,-132 879.35,-120.51 867.43,-110.24 856.22,-102.04"/>
<polygon fill="#63b8ff" stroke="#63b8ff" points="858.06,-99.05 847.86,-96.19 854.04,-104.79 858.06,-99.05"/>
</a>
</g>
</g>
<!-- Node12 -->
<g id="Node000012" class="node">
<title>Node12</title>
<g id="a_Node000012"><a xlink:title=" ">
<polygon fill="#e0e0e0" stroke="#999999" points="1142,-24.5 1098,-24.5 1098,-5.5 1142,-5.5 1142,-24.5"/>
<text text-anchor="middle" x="1120" y="-12.5" font-family="Helvetica,sans-Serif" font-size="10.00">string</text>
</a>
</g>
</g>
<!-- Node4&#45;&gt;Node12 -->
<g id="edge50_Node000004_Node000012" class="edge">
<title>Node4&#45;&gt;Node12</title>
<g id="a_edge50_Node000004_Node000012"><a xlink:title=" ">
<path fill="none" stroke="#63b8ff" d="M1050.75,-350.09C1093.83,-344.32 1147.86,-331.85 1189,-305 1255.69,-261.47 1271.69,-237.52 1297,-162 1321.36,-89.32 1209.07,-43.4 1151.82,-25.09"/>
<polygon fill="#63b8ff" stroke="#63b8ff" points="1152.73,-21.71 1142.14,-22.09 1150.65,-28.39 1152.73,-21.71"/>
</a>
</g>
</g>
<!-- Node13 -->
<g id="Node000013" class="node">
<title>Node13</title>
<g id="a_Node000013"><a xlink:href="numbers_8hpp.html" target="_top" xlink:title=" ">
<polygon fill="white" stroke="#666666" points="1455,-96 1343,-96 1343,-66 1455,-66 1455,-96"/>
<text text-anchor="start" x="1351" y="-84" font-family="Helvetica,sans-Serif" font-size="10.00">meltpooldg/utilities</text>
<text text-anchor="middle" x="1399" y="-73" font-family="Helvetica,sans-Serif" font-size="10.00">/numbers.hpp</text>
</a>
</g>
</g>
<!-- Node4&#45;&gt;Node13 -->
<g id="edge49_Node000004_Node000013" class="edge">
<title>Node4&#45;&gt;Node13</title>
<g id="a_edge49_Node000004_Node000013"><a xlink:title=" ">
<path fill="none" stroke="#63b8ff" d="M1050.63,-353.62C1141.2,-350.42 1289.13,-339.84 1330,-305 1389.67,-254.13 1398.56,-152.77 1399.34,-106.3"/>
<polygon fill="#63b8ff" stroke="#63b8ff" points="1402.84,-106.25 1399.39,-96.23 1395.84,-106.21 1402.84,-106.25"/>
</a>
</g>
</g>
<!-- Node16 -->
<g id="Node000016" class="node">
<title>Node16</title>
<g id="a_Node000016"><a xlink:href="reinitialization__data_8hpp.html" target="_top" xlink:title=" ">
<polygon fill="white" stroke="#666666" points="766,-305 628,-305 628,-275 766,-275 766,-305"/>
<text text-anchor="start" x="636" y="-293" font-family="Helvetica,sans-Serif" font-size="10.00">meltpooldg/level_set</text>
<text text-anchor="middle" x="697" y="-282" font-family="Helvetica,sans-Serif" font-size="10.00">/reinitialization_data.hpp</text>
</a>
</g>
</g>
<!-- Node4&#45;&gt;Node16 -->
<g id="edge21_Node000004_Node000016" class="edge">
<title>Node4&#45;&gt;Node16</title>
<g id="a_edge21_Node000004_Node000016"><a xlink:title=" ">
<path fill="none" stroke="#63b8ff" d="M916.33,-340.95C872.68,-331.01 814.03,-317.65 768.36,-307.25"/>
<polygon fill="#63b8ff" stroke="#63b8ff" points="769.05,-303.82 758.52,-305.01 767.5,-310.65 769.05,-303.82"/>
</a>
</g>
</g>
<!-- Node4&#45;&gt;Node23 -->
<g id="edge43_Node000004_Node000023" class="edge">
<title>Node4&#45;&gt;Node23</title>
<g id="a_edge43_Node000004_Node000023"><a xlink:title=" ">
<path fill="none" stroke="#63b8ff" d="M1006.53,-340.95C1025.33,-331.7 1050.14,-319.49 1070.52,-309.45"/>
<polygon fill="#63b8ff" stroke="#63b8ff" points="1072.11,-312.57 1079.54,-305.01 1069.02,-306.29 1072.11,-312.57"/>
</a>
</g>
</g>
<!-- Node6&#45;&gt;Node5 -->
<g id="edge6_Node000006_Node000005" class="edge">
<title>Node6&#45;&gt;Node5</title>
<g id="a_edge6_Node000006_Node000005"><a xlink:title=" ">
<path fill="none" stroke="#63b8ff" d="M1100.04,-197.72C1091.26,-178.32 1075.37,-149.23 1053,-132 1011.91,-100.35 989.47,-116.88 942,-96 917.22,-85.1 914.65,-74.63 889,-66 861.49,-56.75 691.76,-36.07 591.66,-24.41"/>
<polygon fill="#63b8ff" stroke="#63b8ff" points="591.94,-20.92 581.61,-23.24 591.14,-27.87 591.94,-20.92"/>
</a>
</g>
</g>
<!-- Node7 -->
<g id="Node000007" class="node">
<title>Node7</title>
<g id="a_Node000007"><a xlink:href="core_2material__data_8hpp.html" target="_top" xlink:title=" ">
<polygon fill="white" stroke="#666666" points="1288,-162 1148,-162 1148,-132 1288,-132 1288,-162"/>
<text text-anchor="start" x="1156" y="-150" font-family="Helvetica,sans-Serif" font-size="10.00">meltpooldg/core/material</text>
<text text-anchor="middle" x="1218" y="-139" font-family="Helvetica,sans-Serif" font-size="10.00">_data.hpp</text>
</a>
</g>
</g>
<!-- Node6&#45;&gt;Node7 -->
<g id="edge7_Node000006_Node000007" class="edge">
<title>Node6&#45;&gt;Node7</title>
<g id="a_edge7_Node000006_Node000007"><a xlink:title=" ">
<path fill="none" stroke="#63b8ff" d="M1138.93,-197.96C1154.02,-188.42 1172.12,-176.99 1187.19,-167.47"/>
<polygon fill="#63b8ff" stroke="#63b8ff" points="1189.08,-170.41 1195.66,-162.11 1185.34,-164.5 1189.08,-170.41"/>
</a>
</g>
</g>
<!-- Node6&#45;&gt;Node8 -->
<g id="edge20_Node000006_Node000008" class="edge">
<title>Node6&#45;&gt;Node8</title>
<g id="a_edge20_Node000006_Node000008"><a xlink:title=" ">
<path fill="none" stroke="#63b8ff" d="M1093,-197.84C1077.02,-178.25 1049.92,-148.75 1020,-132 997.83,-119.59 938.1,-105.23 890.35,-95.1"/>
<polygon fill="#63b8ff" stroke="#63b8ff" points="890.87,-91.63 880.36,-93 889.43,-98.48 890.87,-91.63"/>
</a>
</g>
</g>
<!-- Node7&#45;&gt;Node5 -->
<g id="edge8_Node000007_Node000005" class="edge">
<title>Node7&#45;&gt;Node5</title>
<g id="a_edge8_Node000007_Node000005"><a xlink:title=" ">
<path fill="none" stroke="#63b8ff" d="M1177.38,-131.94C1124.01,-113.99 1027.08,-83.22 942,-66 908.58,-59.23 704.15,-36.36 591.81,-24.03"/>
<polygon fill="#63b8ff" stroke="#63b8ff" points="591.89,-20.52 581.57,-22.91 591.13,-27.48 591.89,-20.52"/>
</a>
</g>
</g>
<!-- Node7&#45;&gt;Node8 -->
<g id="edge9_Node000007_Node000008" class="edge">
<title>Node7&#45;&gt;Node8</title>
<g id="a_edge9_Node000007_Node000008"><a xlink:title=" ">
<path fill="none" stroke="#63b8ff" d="M1147.56,-134.56C1074.67,-122.72 961.69,-104.37 890.35,-92.78"/>
<polygon fill="#63b8ff" stroke="#63b8ff" points="890.57,-89.27 880.14,-91.12 889.44,-96.18 890.57,-89.27"/>
</a>
</g>
</g>
<!-- Node7&#45;&gt;Node12 -->
<g id="edge19_Node000007_Node000012" class="edge">
<title>Node7&#45;&gt;Node12</title>
<g id="a_edge19_Node000007_Node000012"><a xlink:title=" ">
<path fill="none" stroke="#63b8ff" d="M1207.33,-131.84C1189.13,-107.71 1152.19,-58.71 1132.7,-32.85"/>
<polygon fill="#63b8ff" stroke="#63b8ff" points="1135.41,-30.63 1126.59,-24.75 1129.82,-34.84 1135.41,-30.63"/>
</a>
</g>
</g>
<!-- Node7&#45;&gt;Node13 -->
<g id="edge16_Node000007_Node000013" class="edge">
<title>Node7&#45;&gt;Node13</title>
<g id="a_edge16_Node000007_Node000013"><a xlink:title=" ">
<path fill="none" stroke="#63b8ff" d="M1257.72,-131.95C1284.83,-122.37 1320.94,-109.6 1349.86,-99.37"/>
<polygon fill="#63b8ff" stroke="#63b8ff" points="1351.11,-102.65 1359.37,-96.01 1348.78,-96.05 1351.11,-102.65"/>
</a>
</g>
</g>
<!-- Node8&#45;&gt;Node3 -->
<g id="edge11_Node000008_Node000003" class="edge">
<title>Node8&#45;&gt;Node3</title>
<g id="a_edge11_Node000008_Node000003"><a xlink:title=" ">
<path fill="none" stroke="#63b8ff" d="M768,-73.31C747.55,-70.92 724.24,-68.26 703,-66 546.38,-49.31 362.61,-31.93 263.07,-22.7"/>
<polygon fill="#63b8ff" stroke="#63b8ff" points="263.1,-19.19 252.82,-21.75 262.45,-26.16 263.1,-19.19"/>
</a>
</g>
</g>
<!-- Node8&#45;&gt;Node5 -->
<g id="edge10_Node000008_Node000005" class="edge">
<title>Node8&#45;&gt;Node5</title>
<g id="a_edge10_Node000008_Node000005"><a xlink:title=" ">
<path fill="none" stroke="#63b8ff" d="M767.87,-68.26C718.33,-57.9 645.77,-42.72 591.59,-31.39"/>
<polygon fill="#63b8ff" stroke="#63b8ff" points="592.2,-27.94 581.7,-29.32 590.77,-34.8 592.2,-27.94"/>
</a>
</g>
</g>
<!-- Node9 -->
<g id="Node000009" class="node">
<title>Node9</title>
<g id="a_Node000009"><a xlink:title=" ">
<polygon fill="#e0e0e0" stroke="#999999" points="778,-30 666,-30 666,0 778,0 778,-30"/>
<text text-anchor="start" x="674" y="-18" font-family="Helvetica,sans-Serif" font-size="10.00">meltpooldg/utilities</text>
<text text-anchor="middle" x="722" y="-7" font-family="Helvetica,sans-Serif" font-size="10.00">/better_enum.hpp</text>
</a>
</g>
</g>
<!-- Node8&#45;&gt;Node9 -->
<g id="edge12_Node000008_Node000009" class="edge">
<title>Node8&#45;&gt;Node9</title>
<g id="a_edge12_Node000008_Node000009"><a xlink:title=" ">
<path fill="none" stroke="#63b8ff" d="M801.62,-65.95C787.4,-57.03 768.8,-45.36 753.15,-35.54"/>
<polygon fill="#63b8ff" stroke="#63b8ff" points="754.66,-32.36 744.33,-30.01 750.94,-38.29 754.66,-32.36"/>
</a>
</g>
</g>
<!-- Node10 -->
<g id="Node000010" class="node">
<title>Node10</title>
<g id="a_Node000010"><a xlink:title=" ">
<polygon fill="#e0e0e0" stroke="#999999" points="995.5,-30 870.5,-30 870.5,0 995.5,0 995.5,-30"/>
<text text-anchor="start" x="878.5" y="-18" font-family="Helvetica,sans-Serif" font-size="10.00">boost/algorithm/string</text>
<text text-anchor="middle" x="933" y="-7" font-family="Helvetica,sans-Serif" font-size="10.00">/join.hpp</text>
</a>
</g>
</g>
<!-- Node8&#45;&gt;Node10 -->
<g id="edge13_Node000008_Node000010" class="edge">
<title>Node8&#45;&gt;Node10</title>
<g id="a_edge13_Node000008_Node000010"><a xlink:title=" ">
<path fill="none" stroke="#63b8ff" d="M847.92,-65.95C863.25,-56.95 883.36,-45.14 900.18,-35.27"/>
<polygon fill="#63b8ff" stroke="#63b8ff" points="902.28,-38.09 909.14,-30.01 898.74,-32.06 902.28,-38.09"/>
</a>
</g>
</g>
<!-- Node11 -->
<g id="Node000011" class="node">
<title>Node11</title>
<g id="a_Node000011"><a xlink:title=" ">
<polygon fill="#e0e0e0" stroke="#999999" points="852,-24.5 796,-24.5 796,-5.5 852,-5.5 852,-24.5"/>
<text text-anchor="middle" x="824" y="-12.5" font-family="Helvetica,sans-Serif" font-size="10.00">sstream</text>
</a>
</g>
</g>
<!-- Node8&#45;&gt;Node11 -->
<g id="edge14_Node000008_Node000011" class="edge">
<title>Node8&#45;&gt;Node11</title>
<g id="a_edge14_Node000008_Node000011"><a xlink:title=" ">
<path fill="none" stroke="#63b8ff" d="M824,-65.8C824,-56.7 824,-44.79 824,-34.9"/>
<polygon fill="#63b8ff" stroke="#63b8ff" points="827.5,-34.84 824,-24.84 820.5,-34.84 827.5,-34.84"/>
</a>
</g>
</g>
<!-- Node8&#45;&gt;Node12 -->
<g id="edge15_Node000008_Node000012" class="edge">
<title>Node8&#45;&gt;Node12</title>
<g id="a_edge15_Node000008_Node000012"><a xlink:title=" ">
<path fill="none" stroke="#63b8ff" d="M880.02,-67.89C941.52,-54.59 1038.11,-33.71 1087.92,-22.94"/>
<polygon fill="#63b8ff" stroke="#63b8ff" points="1088.78,-26.33 1097.81,-20.8 1087.3,-19.49 1088.78,-26.33"/>
</a>
</g>
</g>
<!-- Node14 -->
<g id="Node000014" class="node">
<title>Node14</title>
<g id="a_Node000014"><a xlink:title=" ">
<polygon fill="#e0e0e0" stroke="#999999" points="1386.5,-24.5 1339.5,-24.5 1339.5,-5.5 1386.5,-5.5 1386.5,-24.5"/>
<text text-anchor="middle" x="1363" y="-12.5" font-family="Helvetica,sans-Serif" font-size="10.00">cmath</text>
</a>
</g>
</g>
<!-- Node13&#45;&gt;Node14 -->
<g id="edge17_Node000013_Node000014" class="edge">
<title>Node13&#45;&gt;Node14</title>
<g id="a_edge17_Node000013_Node000014"><a xlink:title=" ">
<path fill="none" stroke="#63b8ff" d="M1391.01,-65.8C1385.67,-56.31 1378.61,-43.76 1372.92,-33.63"/>
<polygon fill="#63b8ff" stroke="#63b8ff" points="1375.93,-31.84 1367.97,-24.84 1369.83,-35.28 1375.93,-31.84"/>
</a>
</g>
</g>
<!-- Node15 -->
<g id="Node000015" class="node">
<title>Node15</title>
<g id="a_Node000015"><a xlink:title=" ">
<polygon fill="#e0e0e0" stroke="#999999" points="1463.5,-24.5 1404.5,-24.5 1404.5,-5.5 1463.5,-5.5 1463.5,-24.5"/>
<text text-anchor="middle" x="1434" y="-12.5" font-family="Helvetica,sans-Serif" font-size="10.00">numbers</text>
</a>
</g>
</g>
<!-- Node13&#45;&gt;Node15 -->
<g id="edge18_Node000013_Node000015" class="edge">
<title>Node13&#45;&gt;Node15</title>
<g id="a_edge18_Node000013_Node000015"><a xlink:title=" ">
<path fill="none" stroke="#63b8ff" d="M1406.77,-65.8C1411.96,-56.31 1418.82,-43.76 1424.36,-33.63"/>
<polygon fill="#63b8ff" stroke="#63b8ff" points="1427.44,-35.3 1429.16,-24.84 1421.29,-31.94 1427.44,-35.3"/>
</a>
</g>
</g>
<!-- Node16&#45;&gt;Node2 -->
<g id="edge22_Node000016_Node000002" class="edge">
<title>Node16&#45;&gt;Node2</title>
<g id="a_edge22_Node000016_Node000002"><a xlink:title=" ">
<path fill="none" stroke="#63b8ff" d="M627.85,-283C534.6,-274.64 363.46,-258.3 218,-239 197.79,-236.32 175.76,-232.91 156.11,-229.7"/>
<polygon fill="#63b8ff" stroke="#63b8ff" points="156.5,-226.22 146.07,-228.04 155.36,-233.13 156.5,-226.22"/>
</a>
</g>
</g>
<!-- Node16&#45;&gt;Node5 -->
<g id="edge23_Node000016_Node000005" class="edge">
<title>Node16&#45;&gt;Node5</title>
<g id="a_edge23_Node000016_Node000005"><a xlink:title=" ">
<path fill="none" stroke="#63b8ff" d="M627.57,-280.26C512.8,-264.13 292.1,-225.43 251,-162 199.88,-83.1 348.84,-43.34 444.43,-26.44"/>
<polygon fill="#63b8ff" stroke="#63b8ff" points="445.1,-29.87 454.36,-24.73 443.91,-22.97 445.1,-29.87"/>
</a>
</g>
</g>
<!-- Node16&#45;&gt;Node8 -->
<g id="edge40_Node000016_Node000008" class="edge">
<title>Node16&#45;&gt;Node8</title>
<g id="a_edge40_Node000016_Node000008"><a xlink:title=" ">
<path fill="none" stroke="#63b8ff" d="M739.09,-274.94C760.66,-266.53 786.6,-254.45 807,-239 842.7,-211.96 856.62,-204.06 872,-162 876.58,-149.48 876.98,-144.37 872,-132 867.6,-121.06 859.53,-111.17 851.25,-103.13"/>
<polygon fill="#63b8ff" stroke="#63b8ff" points="853.45,-100.4 843.69,-96.28 848.76,-105.59 853.45,-100.4"/>
</a>
</g>
</g>
<!-- Node16&#45;&gt;Node12 -->
<g id="edge42_Node000016_Node000012" class="edge">
<title>Node16&#45;&gt;Node12</title>
<g id="a_edge42_Node000016_Node000012"><a xlink:title=" ">
<path fill="none" stroke="#63b8ff" d="M751.76,-274.98C780.42,-266.54 815.58,-254.43 845,-239 956.53,-180.51 1065.68,-72.81 1104.83,-32.13"/>
<polygon fill="#63b8ff" stroke="#63b8ff" points="1107.53,-34.36 1111.9,-24.71 1102.46,-29.53 1107.53,-34.36"/>
</a>
</g>
</g>
<!-- Node17 -->
<g id="Node000017" class="node">
<title>Node17</title>
<g id="a_Node000017"><a xlink:href="finite__element__data_8hpp.html" target="_top" xlink:title=" ">
<polygon fill="white" stroke="#666666" points="548,-162 424,-162 424,-132 548,-132 548,-162"/>
<text text-anchor="start" x="432" y="-150" font-family="Helvetica,sans-Serif" font-size="10.00">meltpooldg/core/finite</text>
<text text-anchor="middle" x="486" y="-139" font-family="Helvetica,sans-Serif" font-size="10.00">_element_data.hpp</text>
</a>
</g>
</g>
<!-- Node16&#45;&gt;Node17 -->
<g id="edge24_Node000016_Node000017" class="edge">
<title>Node16&#45;&gt;Node17</title>
<g id="a_edge24_Node000016_Node000017"><a xlink:title=" ">
<path fill="none" stroke="#63b8ff" d="M628.45,-274.98C602.45,-267.35 573.67,-255.89 551,-239 526.94,-221.08 508.24,-191.63 497.2,-171.11"/>
<polygon fill="#63b8ff" stroke="#63b8ff" points="500.25,-169.38 492.54,-162.11 494.03,-172.6 500.25,-169.38"/>
</a>
</g>
</g>
<!-- Node18 -->
<g id="Node000018" class="node">
<title>Node18</title>
<g id="a_Node000018"><a xlink:href="linear__solver__data_8hpp.html" target="_top" xlink:title=" ">
<polygon fill="white" stroke="#666666" points="863.5,-162 718.5,-162 718.5,-132 863.5,-132 863.5,-162"/>
<text text-anchor="start" x="726.5" y="-150" font-family="Helvetica,sans-Serif" font-size="10.00">meltpooldg/linear_algebra</text>
<text text-anchor="middle" x="791" y="-139" font-family="Helvetica,sans-Serif" font-size="10.00">/linear_solver_data.hpp</text>
</a>
</g>
</g>
<!-- Node16&#45;&gt;Node18 -->
<g id="edge27_Node000016_Node000018" class="edge">
<title>Node16&#45;&gt;Node18</title>
<g id="a_edge27_Node000016_Node000018"><a xlink:title=" ">
<path fill="none" stroke="#63b8ff" d="M741.81,-274.87C758.92,-267.1 776.75,-255.57 787,-239 799.35,-219.03 798.72,-191.6 796.01,-172.1"/>
<polygon fill="#63b8ff" stroke="#63b8ff" points="799.45,-171.46 794.36,-162.17 792.55,-172.61 799.45,-171.46"/>
</a>
</g>
</g>
<!-- Node19 -->
<g id="Node000019" class="node">
<title>Node19</title>
<g id="a_Node000019"><a xlink:href="predictor__data_8hpp.html" target="_top" xlink:title=" ">
<polygon fill="white" stroke="#666666" points="405.5,-162 260.5,-162 260.5,-132 405.5,-132 405.5,-162"/>
<text text-anchor="start" x="268.5" y="-150" font-family="Helvetica,sans-Serif" font-size="10.00">meltpooldg/linear_algebra</text>
<text text-anchor="middle" x="333" y="-139" font-family="Helvetica,sans-Serif" font-size="10.00">/predictor_data.hpp</text>
</a>
</g>
</g>
<!-- Node16&#45;&gt;Node19 -->
<g id="edge29_Node000016_Node000019" class="edge">
<title>Node16&#45;&gt;Node19</title>
<g id="a_edge29_Node000016_Node000019"><a xlink:title=" ">
<path fill="none" stroke="#63b8ff" d="M631.37,-274.92C595.27,-266.29 550.01,-254.02 511,-239 458.08,-218.62 400.2,-187.18 365.25,-167.11"/>
<polygon fill="#63b8ff" stroke="#63b8ff" points="366.86,-163.99 356.45,-162.01 363.35,-170.05 366.86,-163.99"/>
</a>
</g>
</g>
<!-- Node20 -->
<g id="Node000020" class="node">
<title>Node20</title>
<g id="a_Node000020"><a xlink:href="time__integrator__data_8hpp.html" target="_top" xlink:title=" ">
<polygon fill="white" stroke="#666666" points="716,-233.5 560,-233.5 560,-203.5 716,-203.5 716,-233.5"/>
<text text-anchor="start" x="568" y="-221.5" font-family="Helvetica,sans-Serif" font-size="10.00">meltpooldg/time_integration</text>
<text text-anchor="middle" x="638" y="-210.5" font-family="Helvetica,sans-Serif" font-size="10.00">/time_integrator_data.hpp</text>
</a>
</g>
</g>
<!-- Node16&#45;&gt;Node20 -->
<g id="edge32_Node000016_Node000020" class="edge">
<title>Node16&#45;&gt;Node20</title>
<g id="a_edge32_Node000016_Node000020"><a xlink:title=" ">
<path fill="none" stroke="#63b8ff" d="M685.06,-274.94C676.9,-265.33 665.93,-252.4 656.63,-241.45"/>
<polygon fill="#63b8ff" stroke="#63b8ff" points="659.06,-238.9 649.92,-233.54 653.73,-243.43 659.06,-238.9"/>
</a>
</g>
</g>
<!-- Node22 -->
<g id="Node000022" class="node">
<title>Node22</title>
<g id="a_Node000022"><a xlink:title=" ">
<polygon fill="#e0e0e0" stroke="#999999" points="778,-228 734,-228 734,-209 778,-209 778,-228"/>
<text text-anchor="middle" x="756" y="-216" font-family="Helvetica,sans-Serif" font-size="10.00">limits</text>
</a>
</g>
</g>
<!-- Node16&#45;&gt;Node22 -->
<g id="edge41_Node000016_Node000022" class="edge">
<title>Node16&#45;&gt;Node22</title>
<g id="a_edge41_Node000016_Node000022"><a xlink:title=" ">
<path fill="none" stroke="#63b8ff" d="M708.94,-274.94C718.48,-263.7 731.86,-247.93 741.92,-236.08"/>
<polygon fill="#63b8ff" stroke="#63b8ff" points="744.75,-238.16 748.56,-228.27 739.42,-233.63 744.75,-238.16"/>
</a>
</g>
</g>
<!-- Node17&#45;&gt;Node5 -->
<g id="edge25_Node000017_Node000005" class="edge">
<title>Node17&#45;&gt;Node5</title>
<g id="a_edge25_Node000017_Node000005"><a xlink:title=" ">
<path fill="none" stroke="#63b8ff" d="M488.97,-131.79C492.37,-115.75 498.22,-88.91 504,-66 506.14,-57.52 508.67,-48.28 510.98,-40.08"/>
<polygon fill="#63b8ff" stroke="#63b8ff" points="514.37,-40.97 513.76,-30.39 507.64,-39.04 514.37,-40.97"/>
</a>
</g>
</g>
<!-- Node17&#45;&gt;Node8 -->
<g id="edge26_Node000017_Node000008" class="edge">
<title>Node17&#45;&gt;Node8</title>
<g id="a_edge26_Node000017_Node000008"><a xlink:title=" ">
<path fill="none" stroke="#63b8ff" d="M548.39,-134.19C607.93,-122.91 697.3,-105.99 758.01,-94.5"/>
<polygon fill="#63b8ff" stroke="#63b8ff" points="758.69,-97.93 767.87,-92.63 757.39,-91.05 758.69,-97.93"/>
</a>
</g>
</g>
<!-- Node18&#45;&gt;Node8 -->
<g id="edge28_Node000018_Node000008" class="edge">
<title>Node18&#45;&gt;Node8</title>
<g id="a_edge28_Node000018_Node000008"><a xlink:title=" ">
<path fill="none" stroke="#63b8ff" d="M798.32,-131.8C802.34,-124.01 807.42,-114.16 812,-105.28"/>
<polygon fill="#63b8ff" stroke="#63b8ff" points="815.22,-106.66 816.7,-96.16 809,-103.45 815.22,-106.66"/>
</a>
</g>
</g>
<!-- Node19&#45;&gt;Node5 -->
<g id="edge30_Node000019_Node000005" class="edge">
<title>Node19&#45;&gt;Node5</title>
<g id="a_edge30_Node000019_Node000005"><a xlink:title=" ">
<path fill="none" stroke="#63b8ff" d="M353.15,-131.84C386.1,-108.69 451.59,-62.66 489.36,-36.13"/>
<polygon fill="#63b8ff" stroke="#63b8ff" points="491.7,-38.76 497.87,-30.14 487.68,-33.03 491.7,-38.76"/>
</a>
</g>
</g>
<!-- Node19&#45;&gt;Node8 -->
<g id="edge31_Node000019_Node000008" class="edge">
<title>Node19&#45;&gt;Node8</title>
<g id="a_edge31_Node000019_Node000008"><a xlink:title=" ">
<path fill="none" stroke="#63b8ff" d="M405.85,-133.38C408.94,-132.9 412,-132.44 415,-132 479.52,-122.55 659.55,-101.21 757.86,-89.7"/>
<polygon fill="#63b8ff" stroke="#63b8ff" points="758.46,-93.15 767.98,-88.51 757.65,-86.2 758.46,-93.15"/>
</a>
</g>
</g>
<!-- Node20&#45;&gt;Node5 -->
<g id="edge33_Node000020_Node000005" class="edge">
<title>Node20&#45;&gt;Node5</title>
<g id="a_edge33_Node000020_Node000005"><a xlink:title=" ">
<path fill="none" stroke="#63b8ff" d="M622.19,-203.48C599.49,-182.45 558,-140.42 536,-96 527.38,-78.59 522.83,-57 520.47,-40.64"/>
<polygon fill="#63b8ff" stroke="#63b8ff" points="523.88,-39.74 519.16,-30.26 516.94,-40.62 523.88,-39.74"/>
</a>
</g>
</g>
<!-- Node20&#45;&gt;Node8 -->
<g id="edge38_Node000020_Node000008" class="edge">
<title>Node20&#45;&gt;Node8</title>
<g id="a_edge38_Node000020_Node000008"><a xlink:title=" ">
<path fill="none" stroke="#63b8ff" d="M646.72,-203.33C658.73,-184.78 682,-152.27 709,-132 727.04,-118.46 749.31,-107.69 769.43,-99.67"/>
<polygon fill="#63b8ff" stroke="#63b8ff" points="770.73,-102.92 778.81,-96.06 768.22,-96.38 770.73,-102.92"/>
</a>
</g>
</g>
<!-- Node20&#45;&gt;Node9 -->
<g id="edge37_Node000020_Node000009" class="edge">
<title>Node20&#45;&gt;Node9</title>
<g id="a_edge37_Node000020_Node000009"><a xlink:title=" ">
<path fill="none" stroke="#63b8ff" d="M642.87,-203.35C649.13,-185.95 660.91,-155.8 675,-132 685.33,-114.56 694.24,-114.28 703,-96 711.42,-78.43 716.27,-56.85 718.95,-40.54"/>
<polygon fill="#63b8ff" stroke="#63b8ff" points="722.48,-40.6 720.48,-30.19 715.56,-39.57 722.48,-40.6"/>
</a>
</g>
</g>
<!-- Node20&#45;&gt;Node12 -->
<g id="edge39_Node000020_Node000012" class="edge">
<title>Node20&#45;&gt;Node12</title>
<g id="a_edge39_Node000020_Node000012"><a xlink:title=" ">
<path fill="none" stroke="#63b8ff" d="M699.06,-203.49C765.63,-188.15 863.87,-165.27 872,-162 962.5,-125.59 1059.2,-59.8 1100.01,-30.62"/>
<polygon fill="#63b8ff" stroke="#63b8ff" points="1102.22,-33.34 1108.28,-24.65 1098.13,-27.66 1102.22,-33.34"/>
</a>
</g>
</g>
<!-- Node20&#45;&gt;Node18 -->
<g id="edge34_Node000020_Node000018" class="edge">
<title>Node20&#45;&gt;Node18</title>
<g id="a_edge34_Node000020_Node000018"><a xlink:title=" ">
<path fill="none" stroke="#63b8ff" d="M668.96,-203.44C692.5,-192.74 725.08,-177.94 750.66,-166.33"/>
<polygon fill="#63b8ff" stroke="#63b8ff" points="752.43,-169.37 760.08,-162.04 749.53,-162.99 752.43,-169.37"/>
</a>
</g>
</g>
<!-- Node21 -->
<g id="Node000021" class="node">
<title>Node21</title>
<g id="a_Node000021"><a xlink:href="nonlinear__solver__data_8hpp.html" target="_top" xlink:title=" ">
<polygon fill="white" stroke="#666666" points="694.5,-96 545.5,-96 545.5,-66 694.5,-66 694.5,-96"/>
<text text-anchor="start" x="553.5" y="-84" font-family="Helvetica,sans-Serif" font-size="10.00">meltpooldg/linear_algebra</text>
<text text-anchor="middle" x="620" y="-73" font-family="Helvetica,sans-Serif" font-size="10.00">/nonlinear_solver_data.hpp</text>
</a>
</g>
</g>
<!-- Node20&#45;&gt;Node21 -->
<g id="edge35_Node000020_Node000021" class="edge">
<title>Node20&#45;&gt;Node21</title>
<g id="a_edge35_Node000020_Node000021"><a xlink:title=" ">
<path fill="none" stroke="#63b8ff" d="M636.11,-203.26C633.05,-180.22 626.98,-134.53 623.23,-106.29"/>
<polygon fill="#63b8ff" stroke="#63b8ff" points="626.65,-105.51 621.87,-96.05 619.71,-106.43 626.65,-105.51"/>
</a>
</g>
</g>
<!-- Node21&#45;&gt;Node5 -->
<g id="edge36_Node000021_Node000005" class="edge">
<title>Node21&#45;&gt;Node5</title>
<g id="a_edge36_Node000021_Node000005"><a xlink:title=" ">
<path fill="none" stroke="#63b8ff" d="M597.62,-65.95C583.4,-57.03 564.8,-45.36 549.15,-35.54"/>
<polygon fill="#63b8ff" stroke="#63b8ff" points="550.66,-32.36 540.33,-30.01 546.94,-38.29 550.66,-32.36"/>
</a>
</g>
</g>
<!-- Node23&#45;&gt;Node6 -->
<g id="edge45_Node000023_Node000006" class="edge">
<title>Node23&#45;&gt;Node6</title>
<g id="a_edge45_Node000023_Node000006"><a xlink:title=" ">
<path fill="none" stroke="#63b8ff" d="M1108,-274.94C1108,-267.52 1108,-258.14 1108,-249.2"/>
<polygon fill="#63b8ff" stroke="#63b8ff" points="1111.5,-249.07 1108,-239.07 1104.5,-249.07 1111.5,-249.07"/>
</a>
</g>
</g>
<!-- Node23&#45;&gt;Node7 -->
<g id="edge44_Node000023_Node000007" class="edge">
<title>Node23&#45;&gt;Node7</title>
<g id="a_edge44_Node000023_Node000007"><a xlink:title=" ">
<path fill="none" stroke="#63b8ff" d="M1143.34,-274.97C1159.95,-266.75 1178.75,-254.83 1191,-239 1206.06,-219.54 1212.74,-191.81 1215.69,-172.09"/>
<polygon fill="#63b8ff" stroke="#63b8ff" points="1219.17,-172.42 1216.97,-162.06 1212.23,-171.53 1219.17,-172.42"/>
</a>
</g>
</g>
<!-- Node23&#45;&gt;Node8 -->
<g id="edge46_Node000023_Node000008" class="edge">
<title>Node23&#45;&gt;Node8</title>
<g id="a_edge46_Node000023_Node000008"><a xlink:title=" ">
<path fill="none" stroke="#63b8ff" d="M1073.23,-274.8C1056.46,-266.48 1037.18,-254.52 1024,-239 990.93,-200.06 1019.32,-166.88 982,-132 968.2,-119.11 927.01,-106.29 890.15,-96.86"/>
<polygon fill="#63b8ff" stroke="#63b8ff" points="890.94,-93.45 880.39,-94.42 889.24,-100.24 890.94,-93.45"/>
</a>
</g>
</g>
<!-- Node23&#45;&gt;Node13 -->
<g id="edge47_Node000023_Node000013" class="edge">
<title>Node23&#45;&gt;Node13</title>
<g id="a_edge47_Node000023_Node000013"><a xlink:title=" ">
<path fill="none" stroke="#63b8ff" d="M1144.45,-274.86C1165.76,-265.9 1192.76,-253.31 1215,-239 1279.4,-197.56 1345.43,-135.48 1378.08,-103.2"/>
<polygon fill="#63b8ff" stroke="#63b8ff" points="1380.66,-105.58 1385.27,-96.04 1375.72,-100.62 1380.66,-105.58"/>
</a>
</g>
</g>
</g>
</svg>

<g id="navigator" transform="translate(0 0)" fill="#404254">
  <rect fill="#f2f5e9" fill-opacity="0.5" stroke="#606060" stroke-width=".5" x="0" y="0" width="60" height="60"/>
  <use id="zoomplus" xlink:href="#zoomPlus" x="17" y="9" onmousedown="handleZoom(evt,'in')"/>
  <use id="zoomminus" xlink:href="#zoomMin" x="42" y="9" onmousedown="handleZoom(evt,'out')"/>
  <use id="reset" xlink:href="#resetDef" x="30" y="36" onmousedown="handleReset()"/>
   <use id="arrowup" xlink:href="#arrowUp" x="0" y="0" onmousedown="handlePan(0,-1)"/>
  <use id="arrowright" xlink:href="#arrowRight" x="0" y="0" onmousedown="handlePan(1,0)"/>
  <use id="arrowdown" xlink:href="#arrowDown" x="0" y="0" onmousedown="handlePan(0,1)"/>
  <use id="arrowleft" xlink:href="#arrowLeft" x="0" y="0" onmousedown="handlePan(-1,0)"/>
</g>
<svg viewBox="0 0 15 15" width="100%" height="30px" preserveAspectRatio="xMaxYMin meet">
 <g id="arrow_out" transform="scale(0.3 0.3)">
  <a xlink:href="evaporation__data_8cpp__incl_org.svg" target="_base">
   <rect id="button" ry="5" rx="5" y="6" x="6" height="38" width="38"
        fill="#f2f5e9" fill-opacity="0.5" stroke="#606060" stroke-width="1.0"/>
   <path id="arrow"
     d="M 11.500037,31.436501 C 11.940474,20.09759 22.043105,11.32322 32.158766,21.979434 L 37.068811,17.246167 C 37.068811,17.246167 37.088388,32 37.088388,32 L 22.160133,31.978069 C 22.160133,31.978069 26.997745,27.140456 26.997745,27.140456 C 18.528582,18.264221 13.291696,25.230495 11.500037,31.436501 z"
     style="fill:#404040;"/>
  </a>
 </g>
</svg>

<style type='text/css'>
<![CDATA[
[data-mouse-over-selected='false'] { opacity: 0.7; }
[data-mouse-over-selected='true']  { opacity: 1.0; }
]]>
</style>
<script type="application/ecmascript"><![CDATA[
document.addEventListener('DOMContentLoaded', (event) => {
  highlightEdges();
  highlightAdjacentNodes();
});
]]></script>
</svg>
