<?xml version="1.0" encoding="UTF-8" standalone="no"?>
<!DOCTYPE svg PUBLIC "-//W3C//DTD SVG 1.1//EN"
 "http://www.w3.org/Graphics/SVG/1.1/DTD/svg11.dtd">
<!-- Generated by graphviz version 2.43.0 (0)
 -->
<!-- Title: include/meltpooldg/phase_change/evaporation_model_pressure_aware.hpp Pages: 1 -->
<!--zoomable 456 -->

<svg id="main" version="1.1" xmlns="http://www.w3.org/2000/svg" xmlns:xlink="http://www.w3.org/1999/xlink" xml:space="preserve" onload="init(evt)">
<style type="text/css"><![CDATA[
.node, .edge {opacity: 0.7;}
.node.selected, .edge.selected {opacity: 1;}
.edge:hover path { stroke: red; }
.edge:hover polygon { stroke: red; fill: red; }
]]></style>

<defs>
  <circle id="rim" cx="0" cy="0" r="7"/>
  <circle id="rim2" cx="0" cy="0" r="3.5"/>
  <g id="zoomPlus">
    <use xlink:href="#rim" fill="#404040"><set attributeName="fill" to="#808080" begin="zoomplus.mouseover" end="zoomplus.mouseout"/></use>
    <path d="M-4,0h8M0,-4v8" fill="none" stroke="white" stroke-width="1.5" pointer-events="none"/>
  </g>
  <g id="zoomMin">
    <use xlink:href="#rim" fill="#404040"><set attributeName="fill" to="#808080" begin="zoomminus.mouseover" end="zoomminus.mouseout"/></use>
    <path d="M-4,0h8" fill="none" stroke="white" stroke-width="1.5" pointer-events="none"/>
  </g>
  <g id="arrowUp" transform="translate(30 24)">
    <use xlink:href="#rim"/>
    <path pointer-events="none" fill="none" stroke="white" stroke-width="1.5" d="M0,-3.0v7 M-2.5,-0.5L0,-3.0L2.5,-0.5"/>
  </g>
  <g id="arrowRight" transform="rotate(90) translate(36 -43)">
    <use xlink:href="#rim"/>
    <path pointer-events="none" fill="none" stroke="white" stroke-width="1.5" d="M0,-3.0v7 M-2.5,-0.5L0,-3.0L2.5,-0.5"/>
  </g>
  <g id="arrowDown" transform="rotate(180) translate(-30 -48)">
    <use xlink:href="#rim"/>
    <path pointer-events="none" fill="none" stroke="white" stroke-width="1.5" d="M0,-3.0v7 M-2.5,-0.5L0,-3.0L2.5,-0.5"/>
  </g>
  <g id="arrowLeft" transform="rotate(270) translate(-36 17)">
    <use xlink:href="#rim"/>
    <path pointer-events="none" fill="none" stroke="white" stroke-width="1.5" d="M0,-3.0v7 M-2.5,-0.5L0,-3.0L2.5,-0.5"/>
  </g>
  <g id="resetDef">
    <use xlink:href="#rim2" fill="#404040"><set attributeName="fill" to="#808080" begin="reset.mouseover" end="reset.mouseout"/></use>
  </g>
</defs>
<script type="application/ecmascript">
var viewWidth = 1384;
var viewHeight = 456;
var sectionId = 'dynsection-0';
</script>
<script type="application/ecmascript" xlink:href="svg.min.js"/>
<svg id="graph" class="graph">
<g id="viewport">
<title>include/meltpooldg/phase_change/evaporation_model_pressure_aware.hpp</title>
<!-- Node1 -->
<g id="Node000001" class="node">
<title>Node1</title>
<g id="a_Node000001"><a xlink:title=" ">
<polygon fill="#999999" stroke="#666666" points="478.88,-448 322.88,-448 322.88,-407 478.88,-407 478.88,-448"/>
<text text-anchor="start" x="330.88" y="-436" font-family="Helvetica,sans-Serif" font-size="10.00">include/meltpooldg</text>
<text text-anchor="start" x="330.88" y="-425" font-family="Helvetica,sans-Serif" font-size="10.00">/phase_change/evaporation</text>
<text text-anchor="middle" x="400.88" y="-414" font-family="Helvetica,sans-Serif" font-size="10.00">_model_pressure_aware.hpp</text>
</a>
</g>
</g>
<!-- Node2 -->
<g id="Node000002" class="node">
<title>Node2</title>
<g id="a_Node000002"><a xlink:href="evaporation__data_8hpp.html" target="_top" xlink:title=" ">
<polygon fill="white" stroke="#666666" points="387.38,-371 242.38,-371 242.38,-341 387.38,-341 387.38,-371"/>
<text text-anchor="start" x="250.38" y="-359" font-family="Helvetica,sans-Serif" font-size="10.00">meltpooldg/phase_change</text>
<text text-anchor="middle" x="314.88" y="-348" font-family="Helvetica,sans-Serif" font-size="10.00">/evaporation_data.hpp</text>
</a>
</g>
</g>
<!-- Node1&#45;&gt;Node2 -->
<g id="edge1_Node000001_Node000002" class="edge">
<title>Node1&#45;&gt;Node2</title>
<g id="a_edge1_Node000001_Node000002"><a xlink:title=" ">
<path fill="none" stroke="#63b8ff" d="M376.46,-406.77C365.11,-397.6 351.63,-386.7 340.17,-377.44"/>
<polygon fill="#63b8ff" stroke="#63b8ff" points="342.22,-374.6 332.25,-371.04 337.82,-380.05 342.22,-374.6"/>
</a>
</g>
</g>
<!-- Node22 -->
<g id="Node000022" class="node">
<title>Node22</title>
<g id="a_Node000022"><a xlink:href="evaporation__model__base_8hpp.html" target="_top" xlink:title=" ">
<polygon fill="white" stroke="#666666" points="978.88,-371 814.88,-371 814.88,-341 978.88,-341 978.88,-371"/>
<text text-anchor="start" x="822.88" y="-359" font-family="Helvetica,sans-Serif" font-size="10.00">meltpooldg/phase_change</text>
<text text-anchor="middle" x="896.88" y="-348" font-family="Helvetica,sans-Serif" font-size="10.00">/evaporation_model_base.hpp</text>
</a>
</g>
</g>
<!-- Node1&#45;&gt;Node22 -->
<g id="edge47_Node000001_Node000022" class="edge">
<title>Node1&#45;&gt;Node22</title>
<g id="a_edge47_Node000001_Node000022"><a xlink:title=" ">
<path fill="none" stroke="#63b8ff" d="M478.92,-415.56C567.23,-403.19 710.94,-383.05 804.7,-369.92"/>
<polygon fill="#63b8ff" stroke="#63b8ff" points="805.33,-373.36 814.75,-368.51 804.36,-366.43 805.33,-373.36"/>
</a>
</g>
</g>
<!-- Node3 -->
<g id="Node000003" class="node">
<title>Node3</title>
<g id="a_Node000003"><a xlink:title=" ">
<polygon fill="#e0e0e0" stroke="#999999" points="973.38,-30 846.38,-30 846.38,0 973.38,0 973.38,-30"/>
<text text-anchor="start" x="854.38" y="-18" font-family="Helvetica,sans-Serif" font-size="10.00">deal.II/base/parameter</text>
<text text-anchor="middle" x="909.88" y="-7" font-family="Helvetica,sans-Serif" font-size="10.00">_handler.h</text>
</a>
</g>
</g>
<!-- Node2&#45;&gt;Node3 -->
<g id="edge2_Node000002_Node000003" class="edge">
<title>Node2&#45;&gt;Node3</title>
<g id="a_edge2_Node000002_Node000003"><a xlink:title=" ">
<path fill="none" stroke="#63b8ff" d="M387.68,-351.49C599.38,-340.33 1199.88,-301.44 1199.88,-219.5 1199.88,-219.5 1199.88,-219.5 1199.88,-146 1199.88,-51.26 1069.42,-25.13 983.5,-18.19"/>
<polygon fill="#63b8ff" stroke="#63b8ff" points="983.75,-14.7 973.52,-17.45 983.23,-21.68 983.75,-14.7"/>
</a>
</g>
</g>
<!-- Node4 -->
<g id="Node000004" class="node">
<title>Node4</title>
<g id="a_Node000004"><a xlink:href="delta__approximation__phase__weighted__data_8hpp.html" target="_top" xlink:title=" ">
<polygon fill="white" stroke="#666666" points="436.38,-239 287.38,-239 287.38,-198 436.38,-198 436.38,-239"/>
<text text-anchor="start" x="295.38" y="-227" font-family="Helvetica,sans-Serif" font-size="10.00">meltpooldg/level_set</text>
<text text-anchor="start" x="295.38" y="-216" font-family="Helvetica,sans-Serif" font-size="10.00">/delta_approximation</text>
<text text-anchor="middle" x="361.88" y="-205" font-family="Helvetica,sans-Serif" font-size="10.00">_phase_weighted_data.hpp</text>
</a>
</g>
</g>
<!-- Node2&#45;&gt;Node4 -->
<g id="edge3_Node000002_Node000004" class="edge">
<title>Node2&#45;&gt;Node4</title>
<g id="a_edge3_Node000002_Node000004"><a xlink:title=" ">
<path fill="none" stroke="#63b8ff" d="M319.82,-340.76C327.33,-319.09 341.8,-277.39 351.64,-249"/>
<polygon fill="#63b8ff" stroke="#63b8ff" points="355.07,-249.8 355.04,-239.21 348.46,-247.51 355.07,-249.8"/>
</a>
</g>
</g>
<!-- Node6 -->
<g id="Node000006" class="node">
<title>Node6</title>
<g id="a_Node000006"><a xlink:href="enum_8hpp.html" target="_top" xlink:title=" ">
<polygon fill="white" stroke="#666666" points="603.88,-96 491.88,-96 491.88,-66 603.88,-66 603.88,-96"/>
<text text-anchor="start" x="499.88" y="-84" font-family="Helvetica,sans-Serif" font-size="10.00">meltpooldg/utilities</text>
<text text-anchor="middle" x="547.88" y="-73" font-family="Helvetica,sans-Serif" font-size="10.00">/enum.hpp</text>
</a>
</g>
</g>
<!-- Node2&#45;&gt;Node6 -->
<g id="edge44_Node000002_Node000006" class="edge">
<title>Node2&#45;&gt;Node6</title>
<g id="a_edge44_Node000002_Node000006"><a xlink:title=" ">
<path fill="none" stroke="#63b8ff" d="M305.06,-340.64C286.71,-311.84 251.36,-245.74 277.88,-198 318.05,-125.67 415.68,-98.43 481.84,-88.18"/>
<polygon fill="#63b8ff" stroke="#63b8ff" points="482.38,-91.63 491.77,-86.73 481.37,-84.71 482.38,-91.63"/>
</a>
</g>
</g>
<!-- Node11 -->
<g id="Node000011" class="node">
<title>Node11</title>
<g id="a_Node000011"><a xlink:title=" ">
<polygon fill="#e0e0e0" stroke="#999999" points="315.88,-24.5 271.88,-24.5 271.88,-5.5 315.88,-5.5 315.88,-24.5"/>
<text text-anchor="middle" x="293.88" y="-12.5" font-family="Helvetica,sans-Serif" font-size="10.00">string</text>
</a>
</g>
</g>
<!-- Node2&#45;&gt;Node11 -->
<g id="edge46_Node000002_Node000011" class="edge">
<title>Node2&#45;&gt;Node11</title>
<g id="a_edge46_Node000002_Node000011"><a xlink:title=" ">
<path fill="none" stroke="#63b8ff" d="M242.28,-354.11C149.82,-348.68 1.88,-323.72 1.88,-219.5 1.88,-219.5 1.88,-219.5 1.88,-146 1.88,-109.46 -5.63,-91.16 20.88,-66 55.14,-33.48 197.08,-21.44 261.64,-17.59"/>
<polygon fill="#63b8ff" stroke="#63b8ff" points="261.89,-21.08 271.68,-17.02 261.49,-14.09 261.89,-21.08"/>
</a>
</g>
</g>
<!-- Node12 -->
<g id="Node000012" class="node">
<title>Node12</title>
<g id="a_Node000012"><a xlink:href="numbers_8hpp.html" target="_top" xlink:title=" ">
<polygon fill="white" stroke="#666666" points="141.88,-96 29.88,-96 29.88,-66 141.88,-66 141.88,-96"/>
<text text-anchor="start" x="37.88" y="-84" font-family="Helvetica,sans-Serif" font-size="10.00">meltpooldg/utilities</text>
<text text-anchor="middle" x="85.88" y="-73" font-family="Helvetica,sans-Serif" font-size="10.00">/numbers.hpp</text>
</a>
</g>
</g>
<!-- Node2&#45;&gt;Node12 -->
<g id="edge45_Node000002_Node000012" class="edge">
<title>Node2&#45;&gt;Node12</title>
<g id="a_edge45_Node000002_Node000012"><a xlink:title=" ">
<path fill="none" stroke="#63b8ff" d="M242.32,-349.33C181.32,-342.87 100.96,-329.83 80.88,-305 33.99,-247.04 60.45,-150.15 76.45,-105.65"/>
<polygon fill="#63b8ff" stroke="#63b8ff" points="79.74,-106.84 79.96,-96.25 73.19,-104.4 79.74,-106.84"/>
</a>
</g>
</g>
<!-- Node13 -->
<g id="Node000013" class="node">
<title>Node13</title>
<g id="a_Node000013"><a xlink:href="reinitialization__data_8hpp.html" target="_top" xlink:title=" ">
<polygon fill="white" stroke="#666666" points="801.88,-305 663.88,-305 663.88,-275 801.88,-275 801.88,-305"/>
<text text-anchor="start" x="671.88" y="-293" font-family="Helvetica,sans-Serif" font-size="10.00">meltpooldg/level_set</text>
<text text-anchor="middle" x="732.88" y="-282" font-family="Helvetica,sans-Serif" font-size="10.00">/reinitialization_data.hpp</text>
</a>
</g>
</g>
<!-- Node2&#45;&gt;Node13 -->
<g id="edge17_Node000002_Node000013" class="edge">
<title>Node2&#45;&gt;Node13</title>
<g id="a_edge17_Node000002_Node000013"><a xlink:title=" ">
<path fill="none" stroke="#63b8ff" d="M387.69,-343.85C462.01,-332.47 577.02,-314.86 653.6,-303.14"/>
<polygon fill="#63b8ff" stroke="#63b8ff" points="654.32,-306.57 663.68,-301.6 653.26,-299.65 654.32,-306.57"/>
</a>
</g>
</g>
<!-- Node21 -->
<g id="Node000021" class="node">
<title>Node21</title>
<g id="a_Node000021"><a xlink:href="recoil__pressure__data_8hpp.html" target="_top" xlink:title=" ">
<polygon fill="white" stroke="#666666" points="235.38,-305 90.38,-305 90.38,-275 235.38,-275 235.38,-305"/>
<text text-anchor="start" x="98.38" y="-293" font-family="Helvetica,sans-Serif" font-size="10.00">meltpooldg/phase_change</text>
<text text-anchor="middle" x="162.88" y="-282" font-family="Helvetica,sans-Serif" font-size="10.00">/recoil_pressure_data.hpp</text>
</a>
</g>
</g>
<!-- Node2&#45;&gt;Node21 -->
<g id="edge39_Node000002_Node000021" class="edge">
<title>Node2&#45;&gt;Node21</title>
<g id="a_edge39_Node000002_Node000021"><a xlink:title=" ">
<path fill="none" stroke="#63b8ff" d="M281.52,-340.95C259.15,-331.53 229.48,-319.04 205.41,-308.91"/>
<polygon fill="#63b8ff" stroke="#63b8ff" points="206.73,-305.67 196.16,-305.01 204.01,-312.12 206.73,-305.67"/>
</a>
</g>
</g>
<!-- Node4&#45;&gt;Node3 -->
<g id="edge4_Node000004_Node000003" class="edge">
<title>Node4&#45;&gt;Node3</title>
<g id="a_edge4_Node000004_Node000003"><a xlink:title=" ">
<path fill="none" stroke="#63b8ff" d="M393.52,-197.99C424.95,-179.22 474.96,-150.96 520.88,-132 628.94,-87.38 760.32,-51.87 839.4,-32.41"/>
<polygon fill="#63b8ff" stroke="#63b8ff" points="840.37,-35.77 849.26,-30 838.71,-28.97 840.37,-35.77"/>
</a>
</g>
</g>
<!-- Node5 -->
<g id="Node000005" class="node">
<title>Node5</title>
<g id="a_Node000005"><a xlink:href="core_2material__data_8hpp.html" target="_top" xlink:title=" ">
<polygon fill="white" stroke="#666666" points="245.88,-162 105.88,-162 105.88,-132 245.88,-132 245.88,-162"/>
<text text-anchor="start" x="113.88" y="-150" font-family="Helvetica,sans-Serif" font-size="10.00">meltpooldg/core/material</text>
<text text-anchor="middle" x="175.88" y="-139" font-family="Helvetica,sans-Serif" font-size="10.00">_data.hpp</text>
</a>
</g>
</g>
<!-- Node4&#45;&gt;Node5 -->
<g id="edge5_Node000004_Node000005" class="edge">
<title>Node4&#45;&gt;Node5</title>
<g id="a_edge5_Node000004_Node000005"><a xlink:title=" ">
<path fill="none" stroke="#63b8ff" d="M309.57,-197.96C282.3,-187.76 249.21,-175.4 222.77,-165.52"/>
<polygon fill="#63b8ff" stroke="#63b8ff" points="223.95,-162.23 213.35,-162 221.5,-168.78 223.95,-162.23"/>
</a>
</g>
</g>
<!-- Node4&#45;&gt;Node6 -->
<g id="edge16_Node000004_Node000006" class="edge">
<title>Node4&#45;&gt;Node6</title>
<g id="a_edge16_Node000004_Node000006"><a xlink:title=" ">
<path fill="none" stroke="#63b8ff" d="M368.8,-197.9C376.52,-178.64 390.78,-149.66 411.88,-132 431.88,-115.25 458,-103.87 481.99,-96.25"/>
<polygon fill="#63b8ff" stroke="#63b8ff" points="483.2,-99.54 491.77,-93.31 481.18,-92.84 483.2,-99.54"/>
</a>
</g>
</g>
<!-- Node5&#45;&gt;Node3 -->
<g id="edge6_Node000005_Node000003" class="edge">
<title>Node5&#45;&gt;Node3</title>
<g id="a_edge6_Node000005_Node000003"><a xlink:title=" ">
<path fill="none" stroke="#63b8ff" d="M221.18,-131.95C280.66,-114.02 388.61,-83.27 482.88,-66 629.74,-39.1 668.8,-49.12 816.88,-30 823.09,-29.2 829.54,-28.32 836,-27.41"/>
<polygon fill="#63b8ff" stroke="#63b8ff" points="836.74,-30.84 846.14,-25.96 835.75,-23.91 836.74,-30.84"/>
</a>
</g>
</g>
<!-- Node5&#45;&gt;Node6 -->
<g id="edge7_Node000005_Node000006" class="edge">
<title>Node5&#45;&gt;Node6</title>
<g id="a_edge7_Node000005_Node000006"><a xlink:title=" ">
<path fill="none" stroke="#63b8ff" d="M246.28,-133.89C314,-122.24 415.59,-104.76 481.81,-93.37"/>
<polygon fill="#63b8ff" stroke="#63b8ff" points="482.46,-96.81 491.72,-91.66 481.27,-89.91 482.46,-96.81"/>
</a>
</g>
</g>
<!-- Node5&#45;&gt;Node11 -->
<g id="edge15_Node000005_Node000011" class="edge">
<title>Node5&#45;&gt;Node11</title>
<g id="a_edge15_Node000005_Node000011"><a xlink:title=" ">
<path fill="none" stroke="#63b8ff" d="M188.73,-131.84C210.83,-107.49 255.89,-57.85 279.19,-32.18"/>
<polygon fill="#63b8ff" stroke="#63b8ff" points="281.81,-34.51 285.94,-24.75 276.62,-29.8 281.81,-34.51"/>
</a>
</g>
</g>
<!-- Node5&#45;&gt;Node12 -->
<g id="edge14_Node000005_Node000012" class="edge">
<title>Node5&#45;&gt;Node12</title>
<g id="a_edge14_Node000005_Node000012"><a xlink:title=" ">
<path fill="none" stroke="#63b8ff" d="M155.9,-131.8C143.67,-123.1 127.81,-111.82 114.29,-102.2"/>
<polygon fill="#63b8ff" stroke="#63b8ff" points="115.97,-99.11 105.79,-96.16 111.92,-104.81 115.97,-99.11"/>
</a>
</g>
</g>
<!-- Node6&#45;&gt;Node3 -->
<g id="edge8_Node000006_Node000003" class="edge">
<title>Node6&#45;&gt;Node3</title>
<g id="a_edge8_Node000006_Node000003"><a xlink:title=" ">
<path fill="none" stroke="#63b8ff" d="M604.01,-68.63C608.7,-67.72 613.37,-66.84 617.88,-66 692.09,-52.23 777.18,-37.81 836.28,-28.02"/>
<polygon fill="#63b8ff" stroke="#63b8ff" points="836.98,-31.45 846.27,-26.37 835.84,-24.55 836.98,-31.45"/>
</a>
</g>
</g>
<!-- Node7 -->
<g id="Node000007" class="node">
<title>Node7</title>
<g id="a_Node000007"><a xlink:title=" ">
<polygon fill="#e0e0e0" stroke="#999999" points="677.38,-24.5 552.38,-24.5 552.38,-5.5 677.38,-5.5 677.38,-24.5"/>
<text text-anchor="middle" x="614.88" y="-12.5" font-family="Helvetica,sans-Serif" font-size="10.00">deal.II/base/patterns.h</text>
</a>
</g>
</g>
<!-- Node6&#45;&gt;Node7 -->
<g id="edge9_Node000006_Node000007" class="edge">
<title>Node6&#45;&gt;Node7</title>
<g id="a_edge9_Node000006_Node000007"><a xlink:title=" ">
<path fill="none" stroke="#63b8ff" d="M562.75,-65.8C573.29,-55.72 587.45,-42.19 598.35,-31.78"/>
<polygon fill="#63b8ff" stroke="#63b8ff" points="600.8,-34.28 605.62,-24.84 595.97,-29.22 600.8,-34.28"/>
</a>
</g>
</g>
<!-- Node8 -->
<g id="Node000008" class="node">
<title>Node8</title>
<g id="a_Node000008"><a xlink:title=" ">
<polygon fill="#e0e0e0" stroke="#999999" points="807.88,-30 695.88,-30 695.88,0 807.88,0 807.88,-30"/>
<text text-anchor="start" x="703.88" y="-18" font-family="Helvetica,sans-Serif" font-size="10.00">meltpooldg/utilities</text>
<text text-anchor="middle" x="751.88" y="-7" font-family="Helvetica,sans-Serif" font-size="10.00">/better_enum.hpp</text>
</a>
</g>
</g>
<!-- Node6&#45;&gt;Node8 -->
<g id="edge10_Node000006_Node000008" class="edge">
<title>Node6&#45;&gt;Node8</title>
<g id="a_edge10_Node000006_Node000008"><a xlink:title=" ">
<path fill="none" stroke="#63b8ff" d="M592.64,-65.95C623.47,-56.28 664.6,-43.38 697.34,-33.11"/>
<polygon fill="#63b8ff" stroke="#63b8ff" points="698.72,-36.35 707.21,-30.01 696.62,-29.67 698.72,-36.35"/>
</a>
</g>
</g>
<!-- Node9 -->
<g id="Node000009" class="node">
<title>Node9</title>
<g id="a_Node000009"><a xlink:title=" ">
<polygon fill="#e0e0e0" stroke="#999999" points="459.38,-30 334.38,-30 334.38,0 459.38,0 459.38,-30"/>
<text text-anchor="start" x="342.38" y="-18" font-family="Helvetica,sans-Serif" font-size="10.00">boost/algorithm/string</text>
<text text-anchor="middle" x="396.88" y="-7" font-family="Helvetica,sans-Serif" font-size="10.00">/join.hpp</text>
</a>
</g>
</g>
<!-- Node6&#45;&gt;Node9 -->
<g id="edge11_Node000006_Node000009" class="edge">
<title>Node6&#45;&gt;Node9</title>
<g id="a_edge11_Node000006_Node000009"><a xlink:title=" ">
<path fill="none" stroke="#63b8ff" d="M514.74,-65.95C492.61,-56.58 463.31,-44.16 439.45,-34.05"/>
<polygon fill="#63b8ff" stroke="#63b8ff" points="440.51,-30.69 429.94,-30.01 437.78,-37.14 440.51,-30.69"/>
</a>
</g>
</g>
<!-- Node10 -->
<g id="Node000010" class="node">
<title>Node10</title>
<g id="a_Node000010"><a xlink:title=" ">
<polygon fill="#e0e0e0" stroke="#999999" points="533.88,-24.5 477.88,-24.5 477.88,-5.5 533.88,-5.5 533.88,-24.5"/>
<text text-anchor="middle" x="505.88" y="-12.5" font-family="Helvetica,sans-Serif" font-size="10.00">sstream</text>
</a>
</g>
</g>
<!-- Node6&#45;&gt;Node10 -->
<g id="edge12_Node000006_Node000010" class="edge">
<title>Node6&#45;&gt;Node10</title>
<g id="a_edge12_Node000006_Node000010"><a xlink:title=" ">
<path fill="none" stroke="#63b8ff" d="M538.55,-65.8C532.26,-56.21 523.92,-43.5 517.24,-33.32"/>
<polygon fill="#63b8ff" stroke="#63b8ff" points="520.09,-31.28 511.68,-24.84 514.24,-35.13 520.09,-31.28"/>
</a>
</g>
</g>
<!-- Node6&#45;&gt;Node11 -->
<g id="edge13_Node000006_Node000011" class="edge">
<title>Node6&#45;&gt;Node11</title>
<g id="a_edge13_Node000006_Node000011"><a xlink:title=" ">
<path fill="none" stroke="#63b8ff" d="M491.83,-68.79C436.31,-57.45 355.31,-40.17 324.88,-30 323.48,-29.53 322.05,-29.02 320.63,-28.48"/>
<polygon fill="#63b8ff" stroke="#63b8ff" points="321.91,-25.23 311.33,-24.63 319.23,-31.69 321.91,-25.23"/>
</a>
</g>
</g>
<!-- Node13&#45;&gt;Node3 -->
<g id="edge19_Node000013_Node000003" class="edge">
<title>Node13&#45;&gt;Node3</title>
<g id="a_edge19_Node000013_Node000003"><a xlink:title=" ">
<path fill="none" stroke="#63b8ff" d="M802.08,-283.09C858.96,-276.67 940.96,-263.82 1008.88,-239 1073.39,-215.42 1108.47,-221.45 1142.88,-162 1165.4,-123.07 1145.8,-94.33 1110.88,-66 1075.15,-37.01 1024.92,-24.51 983.62,-19.26"/>
<polygon fill="#63b8ff" stroke="#63b8ff" points="983.93,-15.77 973.59,-18.1 983.13,-22.72 983.93,-15.77"/>
</a>
</g>
</g>
<!-- Node13&#45;&gt;Node6 -->
<g id="edge36_Node000013_Node000006" class="edge">
<title>Node13&#45;&gt;Node6</title>
<g id="a_edge36_Node000013_Node000006"><a xlink:title=" ">
<path fill="none" stroke="#63b8ff" d="M663.81,-281.93C608.94,-274.71 538.57,-261.35 520.88,-239 491.36,-201.71 509.22,-178.11 520.88,-132 523.26,-122.55 527.83,-112.94 532.54,-104.71"/>
<polygon fill="#63b8ff" stroke="#63b8ff" points="535.58,-106.44 537.81,-96.08 529.61,-102.8 535.58,-106.44"/>
</a>
</g>
</g>
<!-- Node13&#45;&gt;Node11 -->
<g id="edge38_Node000013_Node000011" class="edge">
<title>Node13&#45;&gt;Node11</title>
<g id="a_edge38_Node000013_Node000011"><a xlink:title=" ">
<path fill="none" stroke="#63b8ff" d="M663.76,-285.05C615.46,-279.77 550.92,-267.48 500.88,-239 452.79,-211.63 344.78,-79.71 307.13,-32.69"/>
<polygon fill="#63b8ff" stroke="#63b8ff" points="309.73,-30.34 300.76,-24.71 304.26,-34.71 309.73,-30.34"/>
</a>
</g>
</g>
<!-- Node14 -->
<g id="Node000014" class="node">
<title>Node14</title>
<g id="a_Node000014"><a xlink:title=" ">
<polygon fill="#e0e0e0" stroke="#999999" points="667.88,-228 529.88,-228 529.88,-209 667.88,-209 667.88,-228"/>
<text text-anchor="middle" x="598.88" y="-216" font-family="Helvetica,sans-Serif" font-size="10.00">deal.II/base/exceptions.h</text>
</a>
</g>
</g>
<!-- Node13&#45;&gt;Node14 -->
<g id="edge18_Node000013_Node000014" class="edge">
<title>Node13&#45;&gt;Node14</title>
<g id="a_edge18_Node000013_Node000014"><a xlink:title=" ">
<path fill="none" stroke="#63b8ff" d="M705.76,-274.94C681.97,-262.59 647.62,-244.78 624.33,-232.7"/>
<polygon fill="#63b8ff" stroke="#63b8ff" points="625.88,-229.57 615.4,-228.07 622.66,-235.78 625.88,-229.57"/>
</a>
</g>
</g>
<!-- Node15 -->
<g id="Node000015" class="node">
<title>Node15</title>
<g id="a_Node000015"><a xlink:href="finite__element__data_8hpp.html" target="_top" xlink:title=" ">
<polygon fill="white" stroke="#666666" points="893.88,-162 769.88,-162 769.88,-132 893.88,-132 893.88,-162"/>
<text text-anchor="start" x="777.88" y="-150" font-family="Helvetica,sans-Serif" font-size="10.00">meltpooldg/core/finite</text>
<text text-anchor="middle" x="831.88" y="-139" font-family="Helvetica,sans-Serif" font-size="10.00">_element_data.hpp</text>
</a>
</g>
</g>
<!-- Node13&#45;&gt;Node15 -->
<g id="edge20_Node000013_Node000015" class="edge">
<title>Node13&#45;&gt;Node15</title>
<g id="a_edge20_Node000013_Node000015"><a xlink:title=" ">
<path fill="none" stroke="#63b8ff" d="M801.92,-282.45C858.6,-275.47 932.43,-262.16 950.88,-239 962.23,-224.75 960.96,-213.18 950.88,-198 939.79,-181.31 921.93,-170.19 903.39,-162.77"/>
<polygon fill="#63b8ff" stroke="#63b8ff" points="904.55,-159.47 893.96,-159.32 902.15,-166.04 904.55,-159.47"/>
</a>
</g>
</g>
<!-- Node16 -->
<g id="Node000016" class="node">
<title>Node16</title>
<g id="a_Node000016"><a xlink:href="linear__solver__data_8hpp.html" target="_top" xlink:title=" ">
<polygon fill="white" stroke="#666666" points="675.38,-162 530.38,-162 530.38,-132 675.38,-132 675.38,-162"/>
<text text-anchor="start" x="538.38" y="-150" font-family="Helvetica,sans-Serif" font-size="10.00">meltpooldg/linear_algebra</text>
<text text-anchor="middle" x="602.88" y="-139" font-family="Helvetica,sans-Serif" font-size="10.00">/linear_solver_data.hpp</text>
</a>
</g>
</g>
<!-- Node13&#45;&gt;Node16 -->
<g id="edge23_Node000013_Node000016" class="edge">
<title>Node13&#45;&gt;Node16</title>
<g id="a_edge23_Node000013_Node000016"><a xlink:title=" ">
<path fill="none" stroke="#63b8ff" d="M738.82,-274.92C745.91,-255.69 754.91,-220.98 738.88,-198 726.21,-179.84 706.17,-168.26 685.33,-160.88"/>
<polygon fill="#63b8ff" stroke="#63b8ff" points="686.32,-157.52 675.73,-157.77 684.16,-164.18 686.32,-157.52"/>
</a>
</g>
</g>
<!-- Node17 -->
<g id="Node000017" class="node">
<title>Node17</title>
<g id="a_Node000017"><a xlink:href="predictor__data_8hpp.html" target="_top" xlink:title=" ">
<polygon fill="white" stroke="#666666" points="1133.38,-162 988.38,-162 988.38,-132 1133.38,-132 1133.38,-162"/>
<text text-anchor="start" x="996.38" y="-150" font-family="Helvetica,sans-Serif" font-size="10.00">meltpooldg/linear_algebra</text>
<text text-anchor="middle" x="1060.88" y="-139" font-family="Helvetica,sans-Serif" font-size="10.00">/predictor_data.hpp</text>
</a>
</g>
</g>
<!-- Node13&#45;&gt;Node17 -->
<g id="edge25_Node000013_Node000017" class="edge">
<title>Node13&#45;&gt;Node17</title>
<g id="a_edge25_Node000013_Node000017"><a xlink:title=" ">
<path fill="none" stroke="#63b8ff" d="M802.09,-284.87C851.38,-279.51 917.84,-267.2 969.88,-239 1000.95,-222.16 1028.37,-191.38 1044.79,-170.32"/>
<polygon fill="#63b8ff" stroke="#63b8ff" points="1047.67,-172.31 1050.93,-162.23 1042.09,-168.08 1047.67,-172.31"/>
</a>
</g>
</g>
<!-- Node18 -->
<g id="Node000018" class="node">
<title>Node18</title>
<g id="a_Node000018"><a xlink:href="time__integrator__data_8hpp.html" target="_top" xlink:title=" ">
<polygon fill="white" stroke="#666666" points="941.88,-233.5 785.88,-233.5 785.88,-203.5 941.88,-203.5 941.88,-233.5"/>
<text text-anchor="start" x="793.88" y="-221.5" font-family="Helvetica,sans-Serif" font-size="10.00">meltpooldg/time_integration</text>
<text text-anchor="middle" x="863.88" y="-210.5" font-family="Helvetica,sans-Serif" font-size="10.00">/time_integrator_data.hpp</text>
</a>
</g>
</g>
<!-- Node13&#45;&gt;Node18 -->
<g id="edge28_Node000013_Node000018" class="edge">
<title>Node13&#45;&gt;Node18</title>
<g id="a_edge28_Node000013_Node000018"><a xlink:title=" ">
<path fill="none" stroke="#63b8ff" d="M759.39,-274.94C779.27,-264.38 806.7,-249.83 828.46,-238.29"/>
<polygon fill="#63b8ff" stroke="#63b8ff" points="830.21,-241.32 837.41,-233.54 826.93,-235.14 830.21,-241.32"/>
</a>
</g>
</g>
<!-- Node20 -->
<g id="Node000020" class="node">
<title>Node20</title>
<g id="a_Node000020"><a xlink:title=" ">
<polygon fill="#e0e0e0" stroke="#999999" points="729.88,-228 685.88,-228 685.88,-209 729.88,-209 729.88,-228"/>
<text text-anchor="middle" x="707.88" y="-216" font-family="Helvetica,sans-Serif" font-size="10.00">limits</text>
</a>
</g>
</g>
<!-- Node13&#45;&gt;Node20 -->
<g id="edge37_Node000013_Node000020" class="edge">
<title>Node13&#45;&gt;Node20</title>
<g id="a_edge37_Node000013_Node000020"><a xlink:title=" ">
<path fill="none" stroke="#63b8ff" d="M727.82,-274.94C723.97,-264.25 718.65,-249.45 714.47,-237.83"/>
<polygon fill="#63b8ff" stroke="#63b8ff" points="717.71,-236.49 711.03,-228.27 711.12,-238.86 717.71,-236.49"/>
</a>
</g>
</g>
<!-- Node15&#45;&gt;Node3 -->
<g id="edge21_Node000015_Node000003" class="edge">
<title>Node15&#45;&gt;Node3</title>
<g id="a_edge21_Node000015_Node000003"><a xlink:title=" ">
<path fill="none" stroke="#63b8ff" d="M840.37,-131.84C853.79,-109.47 880.03,-65.74 896.15,-38.88"/>
<polygon fill="#63b8ff" stroke="#63b8ff" points="899.25,-40.52 901.39,-30.14 893.24,-36.92 899.25,-40.52"/>
</a>
</g>
</g>
<!-- Node15&#45;&gt;Node6 -->
<g id="edge22_Node000015_Node000006" class="edge">
<title>Node15&#45;&gt;Node6</title>
<g id="a_edge22_Node000015_Node000006"><a xlink:title=" ">
<path fill="none" stroke="#63b8ff" d="M769.55,-131.95C723.51,-121.58 660.96,-107.48 614.04,-96.91"/>
<polygon fill="#63b8ff" stroke="#63b8ff" points="614.8,-93.49 604.27,-94.71 613.26,-100.32 614.8,-93.49"/>
</a>
</g>
</g>
<!-- Node16&#45;&gt;Node6 -->
<g id="edge24_Node000016_Node000006" class="edge">
<title>Node16&#45;&gt;Node6</title>
<g id="a_edge24_Node000016_Node000006"><a xlink:title=" ">
<path fill="none" stroke="#63b8ff" d="M590.67,-131.8C583.62,-123.59 574.6,-113.1 566.67,-103.87"/>
<polygon fill="#63b8ff" stroke="#63b8ff" points="569.22,-101.47 560.05,-96.16 563.91,-106.03 569.22,-101.47"/>
</a>
</g>
</g>
<!-- Node17&#45;&gt;Node3 -->
<g id="edge26_Node000017_Node000003" class="edge">
<title>Node17&#45;&gt;Node3</title>
<g id="a_edge26_Node000017_Node000003"><a xlink:title=" ">
<path fill="none" stroke="#63b8ff" d="M1075.09,-131.88C1090.36,-114.96 1110.47,-86.37 1094.88,-66 1081.03,-47.91 1029.05,-34.87 983.7,-26.65"/>
<polygon fill="#63b8ff" stroke="#63b8ff" points="984.3,-23.2 973.85,-24.91 983.09,-30.09 984.3,-23.2"/>
</a>
</g>
</g>
<!-- Node17&#45;&gt;Node6 -->
<g id="edge27_Node000017_Node000006" class="edge">
<title>Node17&#45;&gt;Node6</title>
<g id="a_edge27_Node000017_Node000006"><a xlink:title=" ">
<path fill="none" stroke="#63b8ff" d="M988.19,-136.93C888.45,-124.49 710.59,-102.3 614.26,-90.28"/>
<polygon fill="#63b8ff" stroke="#63b8ff" points="614.42,-86.78 604.07,-89.01 613.56,-93.72 614.42,-86.78"/>
</a>
</g>
</g>
<!-- Node18&#45;&gt;Node3 -->
<g id="edge29_Node000018_Node000003" class="edge">
<title>Node18&#45;&gt;Node3</title>
<g id="a_edge29_Node000018_Node000003"><a xlink:title=" ">
<path fill="none" stroke="#63b8ff" d="M877.35,-203.25C886.37,-192.73 897.53,-177.6 902.88,-162 916.88,-121.13 915.36,-70.05 912.76,-40.41"/>
<polygon fill="#63b8ff" stroke="#63b8ff" points="916.22,-39.78 911.74,-30.17 909.25,-40.47 916.22,-39.78"/>
</a>
</g>
</g>
<!-- Node18&#45;&gt;Node6 -->
<g id="edge34_Node000018_Node000006" class="edge">
<title>Node18&#45;&gt;Node6</title>
<g id="a_edge34_Node000018_Node000006"><a xlink:title=" ">
<path fill="none" stroke="#63b8ff" d="M823.29,-203.5C795.71,-193.37 758.77,-178.59 727.88,-162 707.03,-150.8 704.92,-142.83 683.88,-132 658.7,-119.04 629.37,-107.81 604.41,-99.3"/>
<polygon fill="#63b8ff" stroke="#63b8ff" points="605.31,-95.91 594.72,-96.05 603.09,-102.55 605.31,-95.91"/>
</a>
</g>
</g>
<!-- Node18&#45;&gt;Node8 -->
<g id="edge33_Node000018_Node000008" class="edge">
<title>Node18&#45;&gt;Node8</title>
<g id="a_edge33_Node000018_Node000008"><a xlink:title=" ">
<path fill="none" stroke="#63b8ff" d="M816.01,-203.45C795.53,-194.88 773.46,-181.68 760.88,-162 737.13,-124.87 741.44,-70.99 746.68,-40.13"/>
<polygon fill="#63b8ff" stroke="#63b8ff" points="750.14,-40.71 748.53,-30.24 743.25,-39.43 750.14,-40.71"/>
</a>
</g>
</g>
<!-- Node18&#45;&gt;Node11 -->
<g id="edge35_Node000018_Node000011" class="edge">
<title>Node18&#45;&gt;Node11</title>
<g id="a_edge35_Node000018_Node000011"><a xlink:title=" ">
<path fill="none" stroke="#63b8ff" d="M785.64,-205.09C685.35,-189.15 523.91,-163.35 520.88,-162 458.82,-134.31 459.59,-101.88 401.88,-66 398.19,-63.71 352.92,-42.93 322.17,-28.89"/>
<polygon fill="#63b8ff" stroke="#63b8ff" points="323.32,-25.57 312.77,-24.6 320.41,-31.94 323.32,-25.57"/>
</a>
</g>
</g>
<!-- Node18&#45;&gt;Node16 -->
<g id="edge30_Node000018_Node000016" class="edge">
<title>Node18&#45;&gt;Node16</title>
<g id="a_edge30_Node000018_Node000016"><a xlink:title=" ">
<path fill="none" stroke="#63b8ff" d="M811.06,-203.44C768.96,-192.23 709.9,-176.5 665.44,-164.66"/>
<polygon fill="#63b8ff" stroke="#63b8ff" points="666.18,-161.23 655.61,-162.04 664.38,-168 666.18,-161.23"/>
</a>
</g>
</g>
<!-- Node19 -->
<g id="Node000019" class="node">
<title>Node19</title>
<g id="a_Node000019"><a xlink:href="nonlinear__solver__data_8hpp.html" target="_top" xlink:title=" ">
<polygon fill="white" stroke="#666666" points="1086.38,-96 937.38,-96 937.38,-66 1086.38,-66 1086.38,-96"/>
<text text-anchor="start" x="945.38" y="-84" font-family="Helvetica,sans-Serif" font-size="10.00">meltpooldg/linear_algebra</text>
<text text-anchor="middle" x="1011.88" y="-73" font-family="Helvetica,sans-Serif" font-size="10.00">/nonlinear_solver_data.hpp</text>
</a>
</g>
</g>
<!-- Node18&#45;&gt;Node19 -->
<g id="edge31_Node000018_Node000019" class="edge">
<title>Node18&#45;&gt;Node19</title>
<g id="a_edge31_Node000018_Node000019"><a xlink:title=" ">
<path fill="none" stroke="#63b8ff" d="M883.78,-203.44C898.61,-192.66 919.12,-177.12 935.88,-162 956.41,-143.48 977.96,-120.4 992.84,-103.8"/>
<polygon fill="#63b8ff" stroke="#63b8ff" points="995.55,-106.02 999.58,-96.22 990.32,-101.37 995.55,-106.02"/>
</a>
</g>
</g>
<!-- Node19&#45;&gt;Node3 -->
<g id="edge32_Node000019_Node000003" class="edge">
<title>Node19&#45;&gt;Node3</title>
<g id="a_edge32_Node000019_Node000003"><a xlink:title=" ">
<path fill="none" stroke="#63b8ff" d="M989.49,-65.95C975.28,-57.03 956.67,-45.36 941.02,-35.54"/>
<polygon fill="#63b8ff" stroke="#63b8ff" points="942.54,-32.36 932.21,-30.01 938.82,-38.29 942.54,-32.36"/>
</a>
</g>
</g>
<!-- Node21&#45;&gt;Node4 -->
<g id="edge41_Node000021_Node000004" class="edge">
<title>Node21&#45;&gt;Node4</title>
<g id="a_edge41_Node000021_Node000004"><a xlink:title=" ">
<path fill="none" stroke="#63b8ff" d="M203.15,-274.94C229.79,-265.63 265.35,-253.21 296.05,-242.49"/>
<polygon fill="#63b8ff" stroke="#63b8ff" points="297.54,-245.68 305.83,-239.07 295.24,-239.07 297.54,-245.68"/>
</a>
</g>
</g>
<!-- Node21&#45;&gt;Node5 -->
<g id="edge40_Node000021_Node000005" class="edge">
<title>Node21&#45;&gt;Node5</title>
<g id="a_edge40_Node000021_Node000005"><a xlink:title=" ">
<path fill="none" stroke="#63b8ff" d="M164.17,-274.96C166.37,-251.12 170.86,-202.42 173.59,-172.75"/>
<polygon fill="#63b8ff" stroke="#63b8ff" points="177.12,-172.68 174.55,-162.4 170.15,-172.03 177.12,-172.68"/>
</a>
</g>
</g>
<!-- Node21&#45;&gt;Node6 -->
<g id="edge42_Node000021_Node000006" class="edge">
<title>Node21&#45;&gt;Node6</title>
<g id="a_edge42_Node000021_Node000006"><a xlink:title=" ">
<path fill="none" stroke="#63b8ff" d="M170.52,-274.96C188.32,-243.7 235.81,-168.28 297.88,-132 328.42,-114.15 418.29,-99.09 481.49,-90.31"/>
<polygon fill="#63b8ff" stroke="#63b8ff" points="482.35,-93.72 491.79,-88.9 481.4,-86.79 482.35,-93.72"/>
</a>
</g>
</g>
<!-- Node21&#45;&gt;Node12 -->
<g id="edge43_Node000021_Node000012" class="edge">
<title>Node21&#45;&gt;Node12</title>
<g id="a_edge43_Node000021_Node000012"><a xlink:title=" ">
<path fill="none" stroke="#63b8ff" d="M153.44,-274.85C138.77,-252.12 110.73,-205.57 96.88,-162 91.11,-143.87 88.37,-122.49 87.06,-106.39"/>
<polygon fill="#63b8ff" stroke="#63b8ff" points="90.54,-105.93 86.37,-96.19 83.55,-106.41 90.54,-105.93"/>
</a>
</g>
</g>
<!-- Node23 -->
<g id="Node000023" class="node">
<title>Node23</title>
<g id="a_Node000023"><a xlink:title=" ">
<polygon fill="#e0e0e0" stroke="#999999" points="1376.38,-299.5 1227.38,-299.5 1227.38,-280.5 1376.38,-280.5 1376.38,-299.5"/>
<text text-anchor="middle" x="1301.88" y="-287.5" font-family="Helvetica,sans-Serif" font-size="10.00">deal.II/base/vectorization.h</text>
</a>
</g>
</g>
<!-- Node22&#45;&gt;Node23 -->
<g id="edge48_Node000022_Node000023" class="edge">
<title>Node22&#45;&gt;Node23</title>
<g id="a_edge48_Node000022_Node000023"><a xlink:title=" ">
<path fill="none" stroke="#63b8ff" d="M978.98,-342.08C1042.98,-332 1134.08,-317.64 1213.88,-305 1221.81,-303.74 1230.14,-302.42 1238.38,-301.11"/>
<polygon fill="#63b8ff" stroke="#63b8ff" points="1239.03,-304.55 1248.36,-299.53 1237.94,-297.64 1239.03,-304.55"/>
</a>
</g>
</g>
</g>
</svg>

<g id="navigator" transform="translate(0 0)" fill="#404254">
  <rect fill="#f2f5e9" fill-opacity="0.5" stroke="#606060" stroke-width=".5" x="0" y="0" width="60" height="60"/>
  <use id="zoomplus" xlink:href="#zoomPlus" x="17" y="9" onmousedown="handleZoom(evt,'in')"/>
  <use id="zoomminus" xlink:href="#zoomMin" x="42" y="9" onmousedown="handleZoom(evt,'out')"/>
  <use id="reset" xlink:href="#resetDef" x="30" y="36" onmousedown="handleReset()"/>
   <use id="arrowup" xlink:href="#arrowUp" x="0" y="0" onmousedown="handlePan(0,-1)"/>
  <use id="arrowright" xlink:href="#arrowRight" x="0" y="0" onmousedown="handlePan(1,0)"/>
  <use id="arrowdown" xlink:href="#arrowDown" x="0" y="0" onmousedown="handlePan(0,1)"/>
  <use id="arrowleft" xlink:href="#arrowLeft" x="0" y="0" onmousedown="handlePan(-1,0)"/>
</g>
<svg viewBox="0 0 15 15" width="100%" height="30px" preserveAspectRatio="xMaxYMin meet">
 <g id="arrow_out" transform="scale(0.3 0.3)">
  <a xlink:href="evaporation__model__pressure__aware_8hpp__incl_org.svg" target="_base">
   <rect id="button" ry="5" rx="5" y="6" x="6" height="38" width="38"
        fill="#f2f5e9" fill-opacity="0.5" stroke="#606060" stroke-width="1.0"/>
   <path id="arrow"
     d="M 11.500037,31.436501 C 11.940474,20.09759 22.043105,11.32322 32.158766,21.979434 L 37.068811,17.246167 C 37.068811,17.246167 37.088388,32 37.088388,32 L 22.160133,31.978069 C 22.160133,31.978069 26.997745,27.140456 26.997745,27.140456 C 18.528582,18.264221 13.291696,25.230495 11.500037,31.436501 z"
     style="fill:#404040;"/>
  </a>
 </g>
</svg>

<style type='text/css'>
<![CDATA[
[data-mouse-over-selected='false'] { opacity: 0.7; }
[data-mouse-over-selected='true']  { opacity: 1.0; }
]]>
</style>
<script type="application/ecmascript"><![CDATA[
document.addEventListener('DOMContentLoaded', (event) => {
  highlightEdges();
  highlightAdjacentNodes();
});
]]></script>
</svg>
