<?xml version="1.0" encoding="UTF-8" standalone="no"?>
<!DOCTYPE svg PUBLIC "-//W3C//DTD SVG 1.1//EN"
 "http://www.w3.org/Graphics/SVG/1.1/DTD/svg11.dtd">
<!-- Generated by graphviz version 2.43.0 (0)
 -->
<!-- Title: include/meltpooldg/phase_change/evaporation_tools.hpp Pages: 1 -->
<!--zoomable 203 -->

<svg id="main" version="1.1" xmlns="http://www.w3.org/2000/svg" xmlns:xlink="http://www.w3.org/1999/xlink" xml:space="preserve" onload="init(evt)">
<style type="text/css"><![CDATA[
.node, .edge {opacity: 0.7;}
.node.selected, .edge.selected {opacity: 1;}
.edge:hover path { stroke: red; }
.edge:hover polygon { stroke: red; fill: red; }
]]></style>

<defs>
  <circle id="rim" cx="0" cy="0" r="7"/>
  <circle id="rim2" cx="0" cy="0" r="3.5"/>
  <g id="zoomPlus">
    <use xlink:href="#rim" fill="#404040"><set attributeName="fill" to="#808080" begin="zoomplus.mouseover" end="zoomplus.mouseout"/></use>
    <path d="M-4,0h8M0,-4v8" fill="none" stroke="white" stroke-width="1.5" pointer-events="none"/>
  </g>
  <g id="zoomMin">
    <use xlink:href="#rim" fill="#404040"><set attributeName="fill" to="#808080" begin="zoomminus.mouseover" end="zoomminus.mouseout"/></use>
    <path d="M-4,0h8" fill="none" stroke="white" stroke-width="1.5" pointer-events="none"/>
  </g>
  <g id="arrowUp" transform="translate(30 24)">
    <use xlink:href="#rim"/>
    <path pointer-events="none" fill="none" stroke="white" stroke-width="1.5" d="M0,-3.0v7 M-2.5,-0.5L0,-3.0L2.5,-0.5"/>
  </g>
  <g id="arrowRight" transform="rotate(90) translate(36 -43)">
    <use xlink:href="#rim"/>
    <path pointer-events="none" fill="none" stroke="white" stroke-width="1.5" d="M0,-3.0v7 M-2.5,-0.5L0,-3.0L2.5,-0.5"/>
  </g>
  <g id="arrowDown" transform="rotate(180) translate(-30 -48)">
    <use xlink:href="#rim"/>
    <path pointer-events="none" fill="none" stroke="white" stroke-width="1.5" d="M0,-3.0v7 M-2.5,-0.5L0,-3.0L2.5,-0.5"/>
  </g>
  <g id="arrowLeft" transform="rotate(270) translate(-36 17)">
    <use xlink:href="#rim"/>
    <path pointer-events="none" fill="none" stroke="white" stroke-width="1.5" d="M0,-3.0v7 M-2.5,-0.5L0,-3.0L2.5,-0.5"/>
  </g>
  <g id="resetDef">
    <use xlink:href="#rim2" fill="#404040"><set attributeName="fill" to="#808080" begin="reset.mouseover" end="reset.mouseout"/></use>
  </g>
</defs>
<script type="application/ecmascript">
var viewWidth = 884;
var viewHeight = 203;
var sectionId = 'dynsection-1';
</script>
<script type="application/ecmascript" xlink:href="svg.min.js"/>
<svg id="graph" class="graph">
<g id="viewport">
<title>include/meltpooldg/phase_change/evaporation_tools.hpp</title>
<!-- Node1 -->
<g id="Node000001" class="node">
<title>Node1</title>
<g id="a_Node000001"><a xlink:title=" ">
<polygon fill="#999999" stroke="#666666" points="691,-195 540,-195 540,-154 691,-154 691,-195"/>
<text text-anchor="start" x="548" y="-183" font-family="Helvetica,sans-Serif" font-size="10.00">include/meltpooldg</text>
<text text-anchor="start" x="548" y="-172" font-family="Helvetica,sans-Serif" font-size="10.00">/phase_change/evaporation</text>
<text text-anchor="middle" x="615.5" y="-161" font-family="Helvetica,sans-Serif" font-size="10.00">_tools.hpp</text>
</a>
</g>
</g>
<!-- Node2 -->
<g id="Node000002" class="node">
<title>Node2</title>
<g id="a_Node000002"><a xlink:href="evaporative__cooling_8templates_8hpp.html" target="_top" xlink:title=" ">
<polygon fill="white" stroke="#666666" points="281,-118 130,-118 130,-77 281,-77 281,-118"/>
<text text-anchor="start" x="138" y="-106" font-family="Helvetica,sans-Serif" font-size="10.00">include/meltpooldg</text>
<text text-anchor="start" x="138" y="-95" font-family="Helvetica,sans-Serif" font-size="10.00">/phase_change/evaporative</text>
<text text-anchor="middle" x="205.5" y="-84" font-family="Helvetica,sans-Serif" font-size="10.00">_cooling.templates.hpp</text>
</a>
</g>
</g>
<!-- Node1&#45;&gt;Node2 -->
<g id="edge1_Node000001_Node000002" class="edge">
<title>Node1&#45;&gt;Node2</title>
<g id="a_edge1_Node000001_Node000002"><a xlink:title=" ">
<path fill="none" stroke="#63b8ff" d="M529.67,-157.8C456.2,-144.36 351.44,-125.2 281.08,-112.33"/>
<polygon fill="#63b8ff" stroke="#63b8ff" points="529.36,-161.3 539.82,-159.66 530.61,-154.41 529.36,-161.3"/>
</a>
</g>
</g>
<!-- Node5 -->
<g id="Node000005" class="node">
<title>Node5</title>
<g id="a_Node000005"><a xlink:href="recoil__pressure__operation_8templates_8hpp.html" target="_top" xlink:title=" ">
<polygon fill="white" stroke="#666666" points="649,-118 460,-118 460,-77 649,-77 649,-118"/>
<text text-anchor="start" x="468" y="-106" font-family="Helvetica,sans-Serif" font-size="10.00">include/meltpooldg</text>
<text text-anchor="start" x="468" y="-95" font-family="Helvetica,sans-Serif" font-size="10.00">/phase_change/recoil</text>
<text text-anchor="middle" x="554.5" y="-84" font-family="Helvetica,sans-Serif" font-size="10.00">_pressure_operation.templates.hpp</text>
</a>
</g>
</g>
<!-- Node1&#45;&gt;Node5 -->
<g id="edge4_Node000001_Node000005" class="edge">
<title>Node1&#45;&gt;Node5</title>
<g id="a_edge4_Node000001_Node000005"><a xlink:title=" ">
<path fill="none" stroke="#63b8ff" d="M593.1,-145.95C585.57,-136.7 577.34,-126.58 570.42,-118.07"/>
<polygon fill="#63b8ff" stroke="#63b8ff" points="590.45,-148.25 599.47,-153.79 595.88,-143.83 590.45,-148.25"/>
</a>
</g>
</g>
<!-- Node8 -->
<g id="Node000008" class="node">
<title>Node8</title>
<g id="a_Node000008"><a xlink:href="recoil__pressure__operation_8cpp.html" target="_top" xlink:title=" ">
<polygon fill="white" stroke="#666666" points="821.5,-35.5 655.5,-35.5 655.5,-5.5 821.5,-5.5 821.5,-35.5"/>
<text text-anchor="start" x="663.5" y="-23.5" font-family="Helvetica,sans-Serif" font-size="10.00">source/phase_change</text>
<text text-anchor="middle" x="738.5" y="-12.5" font-family="Helvetica,sans-Serif" font-size="10.00">/recoil_pressure_operation.cpp</text>
</a>
</g>
</g>
<!-- Node1&#45;&gt;Node8 -->
<g id="edge9_Node000001_Node000008" class="edge">
<title>Node1&#45;&gt;Node8</title>
<g id="a_edge9_Node000001_Node000008"><a xlink:title=" ">
<path fill="none" stroke="#63b8ff" d="M637.63,-146.15C663.93,-113.65 706.79,-60.68 727.12,-35.57"/>
<polygon fill="#63b8ff" stroke="#63b8ff" points="634.9,-143.96 631.33,-153.94 640.34,-148.37 634.9,-143.96"/>
</a>
</g>
</g>
<!-- Node9 -->
<g id="Node000009" class="node">
<title>Node9</title>
<g id="a_Node000009"><a xlink:href="evaporation__model__knight_8cpp.html" target="_top" xlink:title=" ">
<polygon fill="white" stroke="#666666" points="875.5,-112.5 705.5,-112.5 705.5,-82.5 875.5,-82.5 875.5,-112.5"/>
<text text-anchor="start" x="713.5" y="-100.5" font-family="Helvetica,sans-Serif" font-size="10.00">source/phase_change</text>
<text text-anchor="middle" x="790.5" y="-89.5" font-family="Helvetica,sans-Serif" font-size="10.00">/evaporation_model_knight.cpp</text>
</a>
</g>
</g>
<!-- Node1&#45;&gt;Node9 -->
<g id="edge8_Node000001_Node000009" class="edge">
<title>Node1&#45;&gt;Node9</title>
<g id="a_edge8_Node000001_Node000009"><a xlink:title=" ">
<path fill="none" stroke="#63b8ff" d="M670.5,-149.93C699.12,-137.66 733.14,-123.08 757.64,-112.58"/>
<polygon fill="#63b8ff" stroke="#63b8ff" points="668.84,-146.83 661.02,-153.99 671.59,-153.27 668.84,-146.83"/>
</a>
</g>
</g>
<!-- Node3 -->
<g id="Node000003" class="node">
<title>Node3</title>
<g id="a_Node000003"><a xlink:href="heat__cut__operator_8cpp.html" target="_top" xlink:title=" ">
<polygon fill="white" stroke="#666666" points="119,-35.5 0,-35.5 0,-5.5 119,-5.5 119,-35.5"/>
<text text-anchor="start" x="8" y="-23.5" font-family="Helvetica,sans-Serif" font-size="10.00">source/heat/heat_cut</text>
<text text-anchor="middle" x="59.5" y="-12.5" font-family="Helvetica,sans-Serif" font-size="10.00">_operator.cpp</text>
</a>
</g>
</g>
<!-- Node2&#45;&gt;Node3 -->
<g id="edge2_Node000002_Node000003" class="edge">
<title>Node2&#45;&gt;Node3</title>
<g id="a_edge2_Node000002_Node000003"><a xlink:title=" ">
<path fill="none" stroke="#63b8ff" d="M158.4,-72.3C134.87,-60.22 107.22,-46.01 87.14,-35.7"/>
<polygon fill="#63b8ff" stroke="#63b8ff" points="157.03,-75.53 167.52,-76.99 160.23,-69.31 157.03,-75.53"/>
</a>
</g>
</g>
<!-- Node4 -->
<g id="Node000004" class="node">
<title>Node4</title>
<g id="a_Node000004"><a xlink:href="heat__diffuse__operator_8cpp.html" target="_top" xlink:title=" ">
<polygon fill="white" stroke="#666666" points="274,-35.5 137,-35.5 137,-5.5 274,-5.5 274,-35.5"/>
<text text-anchor="start" x="145" y="-23.5" font-family="Helvetica,sans-Serif" font-size="10.00">source/heat/heat_diffuse</text>
<text text-anchor="middle" x="205.5" y="-12.5" font-family="Helvetica,sans-Serif" font-size="10.00">_operator.cpp</text>
</a>
</g>
</g>
<!-- Node2&#45;&gt;Node4 -->
<g id="edge3_Node000002_Node000004" class="edge">
<title>Node2&#45;&gt;Node4</title>
<g id="a_edge3_Node000002_Node000004"><a xlink:title=" ">
<path fill="none" stroke="#63b8ff" d="M205.5,-66.61C205.5,-56.01 205.5,-44.57 205.5,-35.86"/>
<polygon fill="#63b8ff" stroke="#63b8ff" points="202,-66.79 205.5,-76.79 209,-66.79 202,-66.79"/>
</a>
</g>
</g>
<!-- Node6 -->
<g id="Node000006" class="node">
<title>Node6</title>
<g id="a_Node000006"><a xlink:href="evaporation__model__pressure__aware_8cpp.html" target="_top" xlink:title=" ">
<polygon fill="white" stroke="#666666" points="453,-41 292,-41 292,0 453,0 453,-41"/>
<text text-anchor="start" x="300" y="-29" font-family="Helvetica,sans-Serif" font-size="10.00">source/phase_change</text>
<text text-anchor="start" x="300" y="-18" font-family="Helvetica,sans-Serif" font-size="10.00">/evaporation_model_pressure</text>
<text text-anchor="middle" x="372.5" y="-7" font-family="Helvetica,sans-Serif" font-size="10.00">_aware.cpp</text>
</a>
</g>
</g>
<!-- Node5&#45;&gt;Node6 -->
<g id="edge5_Node000005_Node000006" class="edge">
<title>Node5&#45;&gt;Node6</title>
<g id="a_edge5_Node000005_Node000006"><a xlink:title=" ">
<path fill="none" stroke="#63b8ff" d="M497.79,-73.13C472.79,-62.83 443.75,-50.86 419.92,-41.04"/>
<polygon fill="#63b8ff" stroke="#63b8ff" points="496.58,-76.42 507.16,-76.99 499.24,-69.94 496.58,-76.42"/>
</a>
</g>
</g>
<!-- Node7 -->
<g id="Node000007" class="node">
<title>Node7</title>
<g id="a_Node000007"><a xlink:href="evaporation__model__saturated__vapor__pressure_8cpp.html" target="_top" xlink:title=" ">
<polygon fill="white" stroke="#666666" points="637.5,-41 471.5,-41 471.5,0 637.5,0 637.5,-41"/>
<text text-anchor="start" x="479.5" y="-29" font-family="Helvetica,sans-Serif" font-size="10.00">source/phase_change</text>
<text text-anchor="start" x="479.5" y="-18" font-family="Helvetica,sans-Serif" font-size="10.00">/evaporation_model_saturated</text>
<text text-anchor="middle" x="554.5" y="-7" font-family="Helvetica,sans-Serif" font-size="10.00">_vapor_pressure.cpp</text>
</a>
</g>
</g>
<!-- Node5&#45;&gt;Node7 -->
<g id="edge6_Node000005_Node000007" class="edge">
<title>Node5&#45;&gt;Node7</title>
<g id="a_edge6_Node000005_Node000007"><a xlink:title=" ">
<path fill="none" stroke="#63b8ff" d="M554.5,-66.69C554.5,-58.08 554.5,-48.9 554.5,-41.07"/>
<polygon fill="#63b8ff" stroke="#63b8ff" points="551,-66.79 554.5,-76.79 558,-66.79 551,-66.79"/>
</a>
</g>
</g>
<!-- Node5&#45;&gt;Node8 -->
<g id="edge7_Node000005_Node000008" class="edge">
<title>Node5&#45;&gt;Node8</title>
<g id="a_edge7_Node000005_Node000008"><a xlink:title=" ">
<path fill="none" stroke="#63b8ff" d="M611.94,-73.09C642.11,-60.79 678.08,-46.13 703.95,-35.58"/>
<polygon fill="#63b8ff" stroke="#63b8ff" points="610.3,-69.97 602.36,-76.99 612.94,-76.46 610.3,-69.97"/>
</a>
</g>
</g>
</g>
</svg>

<g id="navigator" transform="translate(0 0)" fill="#404254">
  <rect fill="#f2f5e9" fill-opacity="0.5" stroke="#606060" stroke-width=".5" x="0" y="0" width="60" height="60"/>
  <use id="zoomplus" xlink:href="#zoomPlus" x="17" y="9" onmousedown="handleZoom(evt,'in')"/>
  <use id="zoomminus" xlink:href="#zoomMin" x="42" y="9" onmousedown="handleZoom(evt,'out')"/>
  <use id="reset" xlink:href="#resetDef" x="30" y="36" onmousedown="handleReset()"/>
   <use id="arrowup" xlink:href="#arrowUp" x="0" y="0" onmousedown="handlePan(0,-1)"/>
  <use id="arrowright" xlink:href="#arrowRight" x="0" y="0" onmousedown="handlePan(1,0)"/>
  <use id="arrowdown" xlink:href="#arrowDown" x="0" y="0" onmousedown="handlePan(0,1)"/>
  <use id="arrowleft" xlink:href="#arrowLeft" x="0" y="0" onmousedown="handlePan(-1,0)"/>
</g>
<svg viewBox="0 0 15 15" width="100%" height="30px" preserveAspectRatio="xMaxYMin meet">
 <g id="arrow_out" transform="scale(0.3 0.3)">
  <a xlink:href="evaporation__tools_8hpp__dep__incl_org.svg" target="_base">
   <rect id="button" ry="5" rx="5" y="6" x="6" height="38" width="38"
        fill="#f2f5e9" fill-opacity="0.5" stroke="#606060" stroke-width="1.0"/>
   <path id="arrow"
     d="M 11.500037,31.436501 C 11.940474,20.09759 22.043105,11.32322 32.158766,21.979434 L 37.068811,17.246167 C 37.068811,17.246167 37.088388,32 37.088388,32 L 22.160133,31.978069 C 22.160133,31.978069 26.997745,27.140456 26.997745,27.140456 C 18.528582,18.264221 13.291696,25.230495 11.500037,31.436501 z"
     style="fill:#404040;"/>
  </a>
 </g>
</svg>

<style type='text/css'>
<![CDATA[
[data-mouse-over-selected='false'] { opacity: 0.7; }
[data-mouse-over-selected='true']  { opacity: 1.0; }
]]>
</style>
<script type="application/ecmascript"><![CDATA[
document.addEventListener('DOMContentLoaded', (event) => {
  highlightEdges();
  highlightAdjacentNodes();
});
]]></script>
</svg>
