<?xml version="1.0" encoding="UTF-8" standalone="no"?>
<!DOCTYPE svg PUBLIC "-//W3C//DTD SVG 1.1//EN"
 "http://www.w3.org/Graphics/SVG/1.1/DTD/svg11.dtd">
<!-- Generated by graphviz version 2.43.0 (0)
 -->
<!-- Title: include/meltpooldg/phase_change/evaporation_model_constant.hpp Pages: 1 -->
<svg width="782pt" height="170pt"
 viewBox="0.00 0.00 782.00 170.00" xmlns="http://www.w3.org/2000/svg" xmlns:xlink="http://www.w3.org/1999/xlink">
<g id="graph0" class="graph" transform="scale(1 1) rotate(0) translate(4 166)">
<title>include/meltpooldg/phase_change/evaporation_model_constant.hpp</title>
<!-- Node1 -->
<g id="Node000001" class="node">
<title>Node1</title>
<g id="a_Node000001"><a xlink:title=" ">
<polygon fill="#999999" stroke="#666666" points="497.5,-162 346.5,-162 346.5,-121 497.5,-121 497.5,-162"/>
<text text-anchor="start" x="354.5" y="-150" font-family="Helvetica,sans-Serif" font-size="10.00">include/meltpooldg</text>
<text text-anchor="start" x="354.5" y="-139" font-family="Helvetica,sans-Serif" font-size="10.00">/phase_change/evaporation</text>
<text text-anchor="middle" x="422" y="-128" font-family="Helvetica,sans-Serif" font-size="10.00">_model_constant.hpp</text>
</a>
</g>
</g>
<!-- Node2 -->
<g id="Node000002" class="node">
<title>Node2</title>
<g id="a_Node000002"><a xlink:title=" ">
<polygon fill="#e0e0e0" stroke="#999999" points="138,-79.5 0,-79.5 0,-60.5 138,-60.5 138,-79.5"/>
<text text-anchor="middle" x="69" y="-67.5" font-family="Helvetica,sans-Serif" font-size="10.00">deal.II/base/exceptions.h</text>
</a>
</g>
</g>
<!-- Node1&#45;&gt;Node2 -->
<g id="edge1_Node000001_Node000002" class="edge">
<title>Node1&#45;&gt;Node2</title>
<g id="a_edge1_Node000001_Node000002"><a xlink:title=" ">
<path fill="none" stroke="#63b8ff" d="M346.27,-125.59C278.86,-112.32 181.96,-93.24 122.37,-81.51"/>
<polygon fill="#63b8ff" stroke="#63b8ff" points="122.91,-78.05 112.42,-79.55 121.55,-84.91 122.91,-78.05"/>
</a>
</g>
</g>
<!-- Node3 -->
<g id="Node000003" class="node">
<title>Node3</title>
<g id="a_Node000003"><a xlink:title=" ">
<polygon fill="#e0e0e0" stroke="#999999" points="272,-85 156,-85 156,-55 272,-55 272,-85"/>
<text text-anchor="start" x="164" y="-73" font-family="Helvetica,sans-Serif" font-size="10.00">deal.II/base/function</text>
<text text-anchor="middle" x="214" y="-62" font-family="Helvetica,sans-Serif" font-size="10.00">_parser.h</text>
</a>
</g>
</g>
<!-- Node1&#45;&gt;Node3 -->
<g id="edge2_Node000001_Node000003" class="edge">
<title>Node1&#45;&gt;Node3</title>
<g id="a_edge2_Node000001_Node000003"><a xlink:title=" ">
<path fill="none" stroke="#63b8ff" d="M363.51,-120.96C332.74,-110.68 295.35,-98.18 265.66,-88.26"/>
<polygon fill="#63b8ff" stroke="#63b8ff" points="266.5,-84.85 255.91,-85 264.29,-91.49 266.5,-84.85"/>
</a>
</g>
</g>
<!-- Node4 -->
<g id="Node000004" class="node">
<title>Node4</title>
<g id="a_Node000004"><a xlink:title=" ">
<polygon fill="#e0e0e0" stroke="#999999" points="400,-79.5 290,-79.5 290,-60.5 400,-60.5 400,-79.5"/>
<text text-anchor="middle" x="345" y="-67.5" font-family="Helvetica,sans-Serif" font-size="10.00">deal.II/base/point.h</text>
</a>
</g>
</g>
<!-- Node1&#45;&gt;Node4 -->
<g id="edge3_Node000001_Node000004" class="edge">
<title>Node1&#45;&gt;Node4</title>
<g id="a_edge3_Node000001_Node000004"><a xlink:title=" ">
<path fill="none" stroke="#63b8ff" d="M400.14,-120.77C388.12,-109.92 373.42,-96.65 362.22,-86.54"/>
<polygon fill="#63b8ff" stroke="#63b8ff" points="364.54,-83.92 354.77,-79.82 359.85,-89.12 364.54,-83.92"/>
</a>
</g>
</g>
<!-- Node5 -->
<g id="Node000005" class="node">
<title>Node5</title>
<g id="a_Node000005"><a xlink:href="evaporation__model__base_8hpp.html" target="_top" xlink:title=" ">
<polygon fill="white" stroke="#666666" points="582,-85 418,-85 418,-55 582,-55 582,-85"/>
<text text-anchor="start" x="426" y="-73" font-family="Helvetica,sans-Serif" font-size="10.00">meltpooldg/phase_change</text>
<text text-anchor="middle" x="500" y="-62" font-family="Helvetica,sans-Serif" font-size="10.00">/evaporation_model_base.hpp</text>
</a>
</g>
</g>
<!-- Node1&#45;&gt;Node5 -->
<g id="edge4_Node000001_Node000005" class="edge">
<title>Node1&#45;&gt;Node5</title>
<g id="a_edge4_Node000001_Node000005"><a xlink:title=" ">
<path fill="none" stroke="#63b8ff" d="M444.14,-120.77C454.34,-111.69 466.43,-100.91 476.76,-91.71"/>
<polygon fill="#63b8ff" stroke="#63b8ff" points="479.11,-94.3 484.24,-85.04 474.45,-89.08 479.11,-94.3"/>
</a>
</g>
</g>
<!-- Node7 -->
<g id="Node000007" class="node">
<title>Node7</title>
<g id="a_Node000007"><a xlink:href="numbers_8hpp.html" target="_top" xlink:title=" ">
<polygon fill="white" stroke="#666666" points="712,-85 600,-85 600,-55 712,-55 712,-85"/>
<text text-anchor="start" x="608" y="-73" font-family="Helvetica,sans-Serif" font-size="10.00">meltpooldg/utilities</text>
<text text-anchor="middle" x="656" y="-62" font-family="Helvetica,sans-Serif" font-size="10.00">/numbers.hpp</text>
</a>
</g>
</g>
<!-- Node1&#45;&gt;Node7 -->
<g id="edge6_Node000001_Node000007" class="edge">
<title>Node1&#45;&gt;Node7</title>
<g id="a_edge6_Node000001_Node000007"><a xlink:title=" ">
<path fill="none" stroke="#63b8ff" d="M487.8,-120.96C522.87,-110.54 565.58,-97.86 599.18,-87.88"/>
<polygon fill="#63b8ff" stroke="#63b8ff" points="600.26,-91.21 608.85,-85 598.27,-84.5 600.26,-91.21"/>
</a>
</g>
</g>
<!-- Node10 -->
<g id="Node000010" class="node">
<title>Node10</title>
<g id="a_Node000010"><a xlink:title=" ">
<polygon fill="#e0e0e0" stroke="#999999" points="774,-79.5 730,-79.5 730,-60.5 774,-60.5 774,-79.5"/>
<text text-anchor="middle" x="752" y="-67.5" font-family="Helvetica,sans-Serif" font-size="10.00">string</text>
</a>
</g>
</g>
<!-- Node1&#45;&gt;Node10 -->
<g id="edge9_Node000001_Node000010" class="edge">
<title>Node1&#45;&gt;Node10</title>
<g id="a_edge9_Node000001_Node000010"><a xlink:title=" ">
<path fill="none" stroke="#63b8ff" d="M497.56,-131.6C558.75,-123.18 646.69,-108.3 721,-85 722.44,-84.55 723.91,-84.04 725.38,-83.51"/>
<polygon fill="#63b8ff" stroke="#63b8ff" points="726.98,-86.63 734.91,-79.6 724.33,-80.16 726.98,-86.63"/>
</a>
</g>
</g>
<!-- Node6 -->
<g id="Node000006" class="node">
<title>Node6</title>
<g id="a_Node000006"><a xlink:title=" ">
<polygon fill="#e0e0e0" stroke="#999999" points="574.5,-19 425.5,-19 425.5,0 574.5,0 574.5,-19"/>
<text text-anchor="middle" x="500" y="-7" font-family="Helvetica,sans-Serif" font-size="10.00">deal.II/base/vectorization.h</text>
</a>
</g>
</g>
<!-- Node5&#45;&gt;Node6 -->
<g id="edge5_Node000005_Node000006" class="edge">
<title>Node5&#45;&gt;Node6</title>
<g id="a_edge5_Node000005_Node000006"><a xlink:title=" ">
<path fill="none" stroke="#63b8ff" d="M500,-54.84C500,-47.21 500,-37.7 500,-29.45"/>
<polygon fill="#63b8ff" stroke="#63b8ff" points="503.5,-29.27 500,-19.27 496.5,-29.27 503.5,-29.27"/>
</a>
</g>
</g>
<!-- Node8 -->
<g id="Node000008" class="node">
<title>Node8</title>
<g id="a_Node000008"><a xlink:title=" ">
<polygon fill="#e0e0e0" stroke="#999999" points="659.5,-19 612.5,-19 612.5,0 659.5,0 659.5,-19"/>
<text text-anchor="middle" x="636" y="-7" font-family="Helvetica,sans-Serif" font-size="10.00">cmath</text>
</a>
</g>
</g>
<!-- Node7&#45;&gt;Node8 -->
<g id="edge7_Node000007_Node000008" class="edge">
<title>Node7&#45;&gt;Node8</title>
<g id="a_edge7_Node000007_Node000008"><a xlink:title=" ">
<path fill="none" stroke="#63b8ff" d="M651.16,-54.84C648.49,-47.04 645.15,-37.27 642.29,-28.89"/>
<polygon fill="#63b8ff" stroke="#63b8ff" points="645.54,-27.6 639,-19.27 638.92,-29.86 645.54,-27.6"/>
</a>
</g>
</g>
<!-- Node9 -->
<g id="Node000009" class="node">
<title>Node9</title>
<g id="a_Node000009"><a xlink:title=" ">
<polygon fill="#e0e0e0" stroke="#999999" points="736.5,-19 677.5,-19 677.5,0 736.5,0 736.5,-19"/>
<text text-anchor="middle" x="707" y="-7" font-family="Helvetica,sans-Serif" font-size="10.00">numbers</text>
</a>
</g>
</g>
<!-- Node7&#45;&gt;Node9 -->
<g id="edge8_Node000007_Node000009" class="edge">
<title>Node7&#45;&gt;Node9</title>
<g id="a_edge8_Node000007_Node000009"><a xlink:title=" ">
<path fill="none" stroke="#63b8ff" d="M668.35,-54.84C675.67,-46.43 685,-35.74 692.65,-26.96"/>
<polygon fill="#63b8ff" stroke="#63b8ff" points="695.42,-29.1 699.36,-19.27 690.15,-24.5 695.42,-29.1"/>
</a>
</g>
</g>
</g>
</svg>
