<?xml version="1.0" encoding="UTF-8" standalone="no"?>
<!DOCTYPE svg PUBLIC "-//W3C//DTD SVG 1.1//EN"
 "http://www.w3.org/Graphics/SVG/1.1/DTD/svg11.dtd">
<!-- Generated by graphviz version 2.43.0 (0)
 -->
<!-- Title: include/meltpooldg/phase_change/evaporation_mass_flux_operator_base.hpp Pages: 1 -->
<!--zoomable 280 -->

<svg id="main" version="1.1" xmlns="http://www.w3.org/2000/svg" xmlns:xlink="http://www.w3.org/1999/xlink" xml:space="preserve" onload="init(evt)">
<style type="text/css"><![CDATA[
.node, .edge {opacity: 0.7;}
.node.selected, .edge.selected {opacity: 1;}
.edge:hover path { stroke: red; }
.edge:hover polygon { stroke: red; fill: red; }
]]></style>

<defs>
  <circle id="rim" cx="0" cy="0" r="7"/>
  <circle id="rim2" cx="0" cy="0" r="3.5"/>
  <g id="zoomPlus">
    <use xlink:href="#rim" fill="#404040"><set attributeName="fill" to="#808080" begin="zoomplus.mouseover" end="zoomplus.mouseout"/></use>
    <path d="M-4,0h8M0,-4v8" fill="none" stroke="white" stroke-width="1.5" pointer-events="none"/>
  </g>
  <g id="zoomMin">
    <use xlink:href="#rim" fill="#404040"><set attributeName="fill" to="#808080" begin="zoomminus.mouseover" end="zoomminus.mouseout"/></use>
    <path d="M-4,0h8" fill="none" stroke="white" stroke-width="1.5" pointer-events="none"/>
  </g>
  <g id="arrowUp" transform="translate(30 24)">
    <use xlink:href="#rim"/>
    <path pointer-events="none" fill="none" stroke="white" stroke-width="1.5" d="M0,-3.0v7 M-2.5,-0.5L0,-3.0L2.5,-0.5"/>
  </g>
  <g id="arrowRight" transform="rotate(90) translate(36 -43)">
    <use xlink:href="#rim"/>
    <path pointer-events="none" fill="none" stroke="white" stroke-width="1.5" d="M0,-3.0v7 M-2.5,-0.5L0,-3.0L2.5,-0.5"/>
  </g>
  <g id="arrowDown" transform="rotate(180) translate(-30 -48)">
    <use xlink:href="#rim"/>
    <path pointer-events="none" fill="none" stroke="white" stroke-width="1.5" d="M0,-3.0v7 M-2.5,-0.5L0,-3.0L2.5,-0.5"/>
  </g>
  <g id="arrowLeft" transform="rotate(270) translate(-36 17)">
    <use xlink:href="#rim"/>
    <path pointer-events="none" fill="none" stroke="white" stroke-width="1.5" d="M0,-3.0v7 M-2.5,-0.5L0,-3.0L2.5,-0.5"/>
  </g>
  <g id="resetDef">
    <use xlink:href="#rim2" fill="#404040"><set attributeName="fill" to="#808080" begin="reset.mouseover" end="reset.mouseout"/></use>
  </g>
</defs>
<script type="application/ecmascript">
var viewWidth = 897;
var viewHeight = 280;
var sectionId = 'dynsection-1';
</script>
<script type="application/ecmascript" xlink:href="svg.min.js"/>
<svg id="graph" class="graph">
<g id="viewport">
<title>include/meltpooldg/phase_change/evaporation_mass_flux_operator_base.hpp</title>
<!-- Node1 -->
<g id="Node000001" class="node">
<title>Node1</title>
<g id="a_Node000001"><a xlink:title=" ">
<polygon fill="#999999" stroke="#666666" points="479.5,-272 312.5,-272 312.5,-231 479.5,-231 479.5,-272"/>
<text text-anchor="start" x="320.5" y="-260" font-family="Helvetica,sans-Serif" font-size="10.00">include/meltpooldg</text>
<text text-anchor="start" x="320.5" y="-249" font-family="Helvetica,sans-Serif" font-size="10.00">/phase_change/evaporation</text>
<text text-anchor="middle" x="396" y="-238" font-family="Helvetica,sans-Serif" font-size="10.00">_mass_flux_operator_base.hpp</text>
</a>
</g>
</g>
<!-- Node2 -->
<g id="Node000002" class="node">
<title>Node2</title>
<g id="a_Node000002"><a xlink:href="evaporation__mass__flux__operator__continuous_8hpp.html" target="_top" xlink:title=" ">
<polygon fill="white" stroke="#666666" points="494.5,-189.5 297.5,-189.5 297.5,-148.5 494.5,-148.5 494.5,-189.5"/>
<text text-anchor="start" x="305.5" y="-177.5" font-family="Helvetica,sans-Serif" font-size="10.00">include/meltpooldg</text>
<text text-anchor="start" x="305.5" y="-166.5" font-family="Helvetica,sans-Serif" font-size="10.00">/phase_change/evaporation</text>
<text text-anchor="middle" x="396" y="-155.5" font-family="Helvetica,sans-Serif" font-size="10.00">_mass_flux_operator_continuous.hpp</text>
</a>
</g>
</g>
<!-- Node1&#45;&gt;Node2 -->
<g id="edge1_Node000001_Node000002" class="edge">
<title>Node1&#45;&gt;Node2</title>
<g id="a_edge1_Node000001_Node000002"><a xlink:title=" ">
<path fill="none" stroke="#63b8ff" d="M396,-220.37C396,-210.1 396,-198.9 396,-189.67"/>
<polygon fill="#63b8ff" stroke="#63b8ff" points="392.5,-220.6 396,-230.6 399.5,-220.6 392.5,-220.6"/>
</a>
</g>
</g>
<!-- Node5 -->
<g id="Node000005" class="node">
<title>Node5</title>
<g id="a_Node000005"><a xlink:href="evaporation__mass__flux__operator__thickness__integration_8hpp.html" target="_top" xlink:title=" ">
<polygon fill="white" stroke="#666666" points="247,-195 77,-195 77,-143 247,-143 247,-195"/>
<text text-anchor="start" x="85" y="-183" font-family="Helvetica,sans-Serif" font-size="10.00">include/meltpooldg</text>
<text text-anchor="start" x="85" y="-172" font-family="Helvetica,sans-Serif" font-size="10.00">/phase_change/evaporation</text>
<text text-anchor="start" x="85" y="-161" font-family="Helvetica,sans-Serif" font-size="10.00">_mass_flux_operator_thickness</text>
<text text-anchor="middle" x="162" y="-150" font-family="Helvetica,sans-Serif" font-size="10.00">_integration.hpp</text>
</a>
</g>
</g>
<!-- Node1&#45;&gt;Node5 -->
<g id="edge4_Node000001_Node000005" class="edge">
<title>Node1&#45;&gt;Node5</title>
<g id="a_edge4_Node000001_Node000005"><a xlink:title=" ">
<path fill="none" stroke="#63b8ff" d="M329.26,-227.54C299.75,-217.39 264.96,-205.42 234.78,-195.04"/>
<polygon fill="#63b8ff" stroke="#63b8ff" points="328.46,-230.97 339.06,-230.91 330.74,-224.35 328.46,-230.97"/>
</a>
</g>
</g>
<!-- Node7 -->
<g id="Node000007" class="node">
<title>Node7</title>
<g id="a_Node000007"><a xlink:href="evaporation__operation_8hpp.html" target="_top" xlink:title=" ">
<polygon fill="white" stroke="#666666" points="679.5,-189.5 528.5,-189.5 528.5,-148.5 679.5,-148.5 679.5,-189.5"/>
<text text-anchor="start" x="536.5" y="-177.5" font-family="Helvetica,sans-Serif" font-size="10.00">include/meltpooldg</text>
<text text-anchor="start" x="536.5" y="-166.5" font-family="Helvetica,sans-Serif" font-size="10.00">/phase_change/evaporation</text>
<text text-anchor="middle" x="604" y="-155.5" font-family="Helvetica,sans-Serif" font-size="10.00">_operation.hpp</text>
</a>
</g>
</g>
<!-- Node1&#45;&gt;Node7 -->
<g id="edge6_Node000001_Node000007" class="edge">
<title>Node1&#45;&gt;Node7</title>
<g id="a_edge6_Node000001_Node000007"><a xlink:title=" ">
<path fill="none" stroke="#63b8ff" d="M455.98,-227.29C486.87,-215.33 524.12,-200.92 553.52,-189.54"/>
<polygon fill="#63b8ff" stroke="#63b8ff" points="454.68,-224.04 446.62,-230.91 457.21,-230.57 454.68,-224.04"/>
</a>
</g>
</g>
<!-- Node3 -->
<g id="Node000003" class="node">
<title>Node3</title>
<g id="a_Node000003"><a xlink:href="evaporation__mass__flux__operator__continous_8cpp.html" target="_top" xlink:title=" ">
<polygon fill="white" stroke="#666666" points="348,-107 212,-107 212,-66 348,-66 348,-107"/>
<text text-anchor="start" x="220" y="-95" font-family="Helvetica,sans-Serif" font-size="10.00">source/phase_change</text>
<text text-anchor="start" x="220" y="-84" font-family="Helvetica,sans-Serif" font-size="10.00">/evaporation_mass_flux</text>
<text text-anchor="middle" x="280" y="-73" font-family="Helvetica,sans-Serif" font-size="10.00">_operator_continous.cpp</text>
</a>
</g>
</g>
<!-- Node2&#45;&gt;Node3 -->
<g id="edge2_Node000002_Node000003" class="edge">
<title>Node2&#45;&gt;Node3</title>
<g id="a_edge2_Node000002_Node000003"><a xlink:title=" ">
<path fill="none" stroke="#63b8ff" d="M359.31,-142.54C342.88,-131.14 323.81,-117.9 308.49,-107.27"/>
<polygon fill="#63b8ff" stroke="#63b8ff" points="357.41,-145.48 367.62,-148.31 361.4,-139.73 357.41,-145.48"/>
</a>
</g>
</g>
<!-- Node4 -->
<g id="Node000004" class="node">
<title>Node4</title>
<g id="a_Node000004"><a xlink:href="evaporation__operation_8cpp.html" target="_top" xlink:title=" ">
<polygon fill="white" stroke="#666666" points="516,-101.5 366,-101.5 366,-71.5 516,-71.5 516,-101.5"/>
<text text-anchor="start" x="374" y="-89.5" font-family="Helvetica,sans-Serif" font-size="10.00">source/phase_change</text>
<text text-anchor="middle" x="441" y="-78.5" font-family="Helvetica,sans-Serif" font-size="10.00">/evaporation_operation.cpp</text>
</a>
</g>
</g>
<!-- Node2&#45;&gt;Node4 -->
<g id="edge3_Node000002_Node000004" class="edge">
<title>Node2&#45;&gt;Node4</title>
<g id="a_edge3_Node000002_Node000004"><a xlink:title=" ">
<path fill="none" stroke="#63b8ff" d="M412.07,-139.24C419.16,-126.57 427.18,-112.23 432.97,-101.87"/>
<polygon fill="#63b8ff" stroke="#63b8ff" points="408.95,-137.66 407.12,-148.1 415.06,-141.08 408.95,-137.66"/>
</a>
</g>
</g>
<!-- Node6 -->
<g id="Node000006" class="node">
<title>Node6</title>
<g id="a_Node000006"><a xlink:href="evaporation__mass__flux__operator__thickness__integration_8cpp.html" target="_top" xlink:title=" ">
<polygon fill="white" stroke="#666666" points="194,-107 0,-107 0,-66 194,-66 194,-107"/>
<text text-anchor="start" x="8" y="-95" font-family="Helvetica,sans-Serif" font-size="10.00">source/phase_change</text>
<text text-anchor="start" x="8" y="-84" font-family="Helvetica,sans-Serif" font-size="10.00">/evaporation_mass_flux</text>
<text text-anchor="middle" x="97" y="-73" font-family="Helvetica,sans-Serif" font-size="10.00">_operator_thickness_integration.cpp</text>
</a>
</g>
</g>
<!-- Node5&#45;&gt;Node6 -->
<g id="edge5_Node000005_Node000006" class="edge">
<title>Node5&#45;&gt;Node6</title>
<g id="a_edge5_Node000005_Node000006"><a xlink:title=" ">
<path fill="none" stroke="#63b8ff" d="M135.49,-135.17C127.81,-125.66 119.67,-115.58 112.86,-107.15"/>
<polygon fill="#63b8ff" stroke="#63b8ff" points="132.78,-137.39 141.79,-142.97 138.23,-132.99 132.78,-137.39"/>
</a>
</g>
</g>
<!-- Node7&#45;&gt;Node4 -->
<g id="edge11_Node000007_Node000004" class="edge">
<title>Node7&#45;&gt;Node4</title>
<g id="a_edge11_Node000007_Node000004"><a xlink:title=" ">
<path fill="none" stroke="#63b8ff" d="M554.91,-143.76C527,-129.97 493.02,-113.19 469.48,-101.56"/>
<polygon fill="#63b8ff" stroke="#63b8ff" points="553.61,-147.02 564.13,-148.31 556.71,-140.74 553.61,-147.02"/>
</a>
</g>
</g>
<!-- Node8 -->
<g id="Node000008" class="node">
<title>Node8</title>
<g id="a_Node000008"><a xlink:href="level__set__application_8hpp.html" target="_top" xlink:title=" ">
<polygon fill="white" stroke="#666666" points="888.5,-101.5 725.5,-101.5 725.5,-71.5 888.5,-71.5 888.5,-101.5"/>
<text text-anchor="start" x="733.5" y="-89.5" font-family="Helvetica,sans-Serif" font-size="10.00">applications/mp&#45;level</text>
<text text-anchor="middle" x="807" y="-78.5" font-family="Helvetica,sans-Serif" font-size="10.00">&#45;set/level_set_application.hpp</text>
</a>
</g>
</g>
<!-- Node7&#45;&gt;Node8 -->
<g id="edge7_Node000007_Node000008" class="edge">
<title>Node7&#45;&gt;Node8</title>
<g id="a_edge7_Node000007_Node000008"><a xlink:title=" ">
<path fill="none" stroke="#63b8ff" d="M663.06,-144.58C698.17,-130.66 741.54,-113.46 771.44,-101.6"/>
<polygon fill="#63b8ff" stroke="#63b8ff" points="661.41,-141.47 653.4,-148.41 663.99,-147.98 661.41,-141.47"/>
</a>
</g>
</g>
<!-- Node10 -->
<g id="Node000010" class="node">
<title>Node10</title>
<g id="a_Node000010"><a xlink:href="melt__pool__application_8hpp.html" target="_top" xlink:title=" ">
<polygon fill="white" stroke="#666666" points="707.5,-101.5 534.5,-101.5 534.5,-71.5 707.5,-71.5 707.5,-101.5"/>
<text text-anchor="start" x="542.5" y="-89.5" font-family="Helvetica,sans-Serif" font-size="10.00">applications/mp&#45;melt</text>
<text text-anchor="middle" x="621" y="-78.5" font-family="Helvetica,sans-Serif" font-size="10.00">&#45;pool/melt_pool_application.hpp</text>
</a>
</g>
</g>
<!-- Node7&#45;&gt;Node10 -->
<g id="edge9_Node000007_Node000010" class="edge">
<title>Node7&#45;&gt;Node10</title>
<g id="a_edge9_Node000007_Node000010"><a xlink:title=" ">
<path fill="none" stroke="#63b8ff" d="M610.31,-138.13C612.93,-125.73 615.84,-111.93 617.97,-101.87"/>
<polygon fill="#63b8ff" stroke="#63b8ff" points="606.84,-137.59 608.2,-148.1 613.69,-139.04 606.84,-137.59"/>
</a>
</g>
</g>
<!-- Node9 -->
<g id="Node000009" class="node">
<title>Node9</title>
<g id="a_Node000009"><a xlink:href="level__set__application_8cpp.html" target="_top" xlink:title=" ">
<polygon fill="white" stroke="#666666" points="888,-30 726,-30 726,0 888,0 888,-30"/>
<text text-anchor="start" x="734" y="-18" font-family="Helvetica,sans-Serif" font-size="10.00">applications/mp&#45;level</text>
<text text-anchor="middle" x="807" y="-7" font-family="Helvetica,sans-Serif" font-size="10.00">&#45;set/level_set_application.cpp</text>
</a>
</g>
</g>
<!-- Node8&#45;&gt;Node9 -->
<g id="edge8_Node000008_Node000009" class="edge">
<title>Node8&#45;&gt;Node9</title>
<g id="a_edge8_Node000008_Node000009"><a xlink:title=" ">
<path fill="none" stroke="#63b8ff" d="M807,-61.25C807,-50.81 807,-38.99 807,-30.04"/>
<polygon fill="#63b8ff" stroke="#63b8ff" points="803.5,-61.44 807,-71.44 810.5,-61.44 803.5,-61.44"/>
</a>
</g>
</g>
<!-- Node11 -->
<g id="Node000011" class="node">
<title>Node11</title>
<g id="a_Node000011"><a xlink:href="melt__pool__application_8cpp.html" target="_top" xlink:title=" ">
<polygon fill="white" stroke="#666666" points="707.5,-30 534.5,-30 534.5,0 707.5,0 707.5,-30"/>
<text text-anchor="start" x="542.5" y="-18" font-family="Helvetica,sans-Serif" font-size="10.00">applications/mp&#45;melt</text>
<text text-anchor="middle" x="621" y="-7" font-family="Helvetica,sans-Serif" font-size="10.00">&#45;pool/melt_pool_application.cpp</text>
</a>
</g>
</g>
<!-- Node10&#45;&gt;Node11 -->
<g id="edge10_Node000010_Node000011" class="edge">
<title>Node10&#45;&gt;Node11</title>
<g id="a_edge10_Node000010_Node000011"><a xlink:title=" ">
<path fill="none" stroke="#63b8ff" d="M621,-61.25C621,-50.81 621,-38.99 621,-30.04"/>
<polygon fill="#63b8ff" stroke="#63b8ff" points="617.5,-61.44 621,-71.44 624.5,-61.44 617.5,-61.44"/>
</a>
</g>
</g>
</g>
</svg>

<g id="navigator" transform="translate(0 0)" fill="#404254">
  <rect fill="#f2f5e9" fill-opacity="0.5" stroke="#606060" stroke-width=".5" x="0" y="0" width="60" height="60"/>
  <use id="zoomplus" xlink:href="#zoomPlus" x="17" y="9" onmousedown="handleZoom(evt,'in')"/>
  <use id="zoomminus" xlink:href="#zoomMin" x="42" y="9" onmousedown="handleZoom(evt,'out')"/>
  <use id="reset" xlink:href="#resetDef" x="30" y="36" onmousedown="handleReset()"/>
   <use id="arrowup" xlink:href="#arrowUp" x="0" y="0" onmousedown="handlePan(0,-1)"/>
  <use id="arrowright" xlink:href="#arrowRight" x="0" y="0" onmousedown="handlePan(1,0)"/>
  <use id="arrowdown" xlink:href="#arrowDown" x="0" y="0" onmousedown="handlePan(0,1)"/>
  <use id="arrowleft" xlink:href="#arrowLeft" x="0" y="0" onmousedown="handlePan(-1,0)"/>
</g>
<svg viewBox="0 0 15 15" width="100%" height="30px" preserveAspectRatio="xMaxYMin meet">
 <g id="arrow_out" transform="scale(0.3 0.3)">
  <a xlink:href="evaporation__mass__flux__operator__base_8hpp__dep__incl_org.svg" target="_base">
   <rect id="button" ry="5" rx="5" y="6" x="6" height="38" width="38"
        fill="#f2f5e9" fill-opacity="0.5" stroke="#606060" stroke-width="1.0"/>
   <path id="arrow"
     d="M 11.500037,31.436501 C 11.940474,20.09759 22.043105,11.32322 32.158766,21.979434 L 37.068811,17.246167 C 37.068811,17.246167 37.088388,32 37.088388,32 L 22.160133,31.978069 C 22.160133,31.978069 26.997745,27.140456 26.997745,27.140456 C 18.528582,18.264221 13.291696,25.230495 11.500037,31.436501 z"
     style="fill:#404040;"/>
  </a>
 </g>
</svg>

<style type='text/css'>
<![CDATA[
[data-mouse-over-selected='false'] { opacity: 0.7; }
[data-mouse-over-selected='true']  { opacity: 1.0; }
]]>
</style>
<script type="application/ecmascript"><![CDATA[
document.addEventListener('DOMContentLoaded', (event) => {
  highlightEdges();
  highlightAdjacentNodes();
});
]]></script>
</svg>
