<?xml version="1.0" encoding="UTF-8" standalone="no"?>
<!DOCTYPE svg PUBLIC "-//W3C//DTD SVG 1.1//EN"
 "http://www.w3.org/Graphics/SVG/1.1/DTD/svg11.dtd">
<!-- Generated by graphviz version 2.43.0 (0)
 -->
<!-- Title: source/phase_change/evaporation_model_knight.cpp Pages: 1 -->
<svg width="1717pt" height="170pt"
 viewBox="0.00 0.00 1716.50 170.00" xmlns="http://www.w3.org/2000/svg" xmlns:xlink="http://www.w3.org/1999/xlink">
<g id="graph0" class="graph" transform="scale(1 1) rotate(0) translate(4 166)">
<title>source/phase_change/evaporation_model_knight.cpp</title>
<!-- Node1 -->
<g id="Node000001" class="node">
<title>Node1</title>
<g id="a_Node000001"><a xlink:title=" ">
<polygon fill="#999999" stroke="#666666" points="573.5,-162 403.5,-162 403.5,-132 573.5,-132 573.5,-162"/>
<text text-anchor="start" x="411.5" y="-150" font-family="Helvetica,sans-Serif" font-size="10.00">source/phase_change</text>
<text text-anchor="middle" x="488.5" y="-139" font-family="Helvetica,sans-Serif" font-size="10.00">/evaporation_model_knight.cpp</text>
</a>
</g>
</g>
<!-- Node2 -->
<g id="Node000002" class="node">
<title>Node2</title>
<g id="a_Node000002"><a xlink:title=" ">
<polygon fill="#e0e0e0" stroke="#999999" points="625.5,-24.5 487.5,-24.5 487.5,-5.5 625.5,-5.5 625.5,-24.5"/>
<text text-anchor="middle" x="556.5" y="-12.5" font-family="Helvetica,sans-Serif" font-size="10.00">deal.II/base/exceptions.h</text>
</a>
</g>
</g>
<!-- Node1&#45;&gt;Node2 -->
<g id="edge1_Node000001_Node000002" class="edge">
<title>Node1&#45;&gt;Node2</title>
<g id="a_edge1_Node000001_Node000002"><a xlink:title=" ">
<path fill="none" stroke="#63b8ff" d="M501.4,-131.98C509.7,-122.39 520.26,-109.1 527.5,-96 538.52,-76.06 546.79,-51.11 551.62,-34.43"/>
<polygon fill="#63b8ff" stroke="#63b8ff" points="554.99,-35.36 554.29,-24.79 548.25,-33.49 554.99,-35.36"/>
</a>
</g>
</g>
<!-- Node3 -->
<g id="Node000003" class="node">
<title>Node3</title>
<g id="a_Node000003"><a xlink:title=" ">
<polygon fill="#e0e0e0" stroke="#999999" points="1232.5,-90.5 1104.5,-90.5 1104.5,-71.5 1232.5,-71.5 1232.5,-90.5"/>
<text text-anchor="middle" x="1168.5" y="-78.5" font-family="Helvetica,sans-Serif" font-size="10.00">deal.II/base/numbers.h</text>
</a>
</g>
</g>
<!-- Node1&#45;&gt;Node3 -->
<g id="edge2_Node000001_Node000003" class="edge">
<title>Node1&#45;&gt;Node3</title>
<g id="a_edge2_Node000001_Node000003"><a xlink:title=" ">
<path fill="none" stroke="#63b8ff" d="M573.51,-141.88C691.19,-135.52 910.2,-121.33 1095.5,-96 1102.88,-94.99 1110.64,-93.73 1118.24,-92.37"/>
<polygon fill="#63b8ff" stroke="#63b8ff" points="1118.89,-95.81 1128.08,-90.55 1117.61,-88.93 1118.89,-95.81"/>
</a>
</g>
</g>
<!-- Node4 -->
<g id="Node000004" class="node">
<title>Node4</title>
<g id="a_Node000004"><a xlink:href="evaporation__model__knight_8hpp.html" target="_top" xlink:title=" ">
<polygon fill="white" stroke="#666666" points="171,-96 0,-96 0,-66 171,-66 171,-96"/>
<text text-anchor="start" x="8" y="-84" font-family="Helvetica,sans-Serif" font-size="10.00">meltpooldg/phase_change</text>
<text text-anchor="middle" x="85.5" y="-73" font-family="Helvetica,sans-Serif" font-size="10.00">/evaporation_model_knight.hpp</text>
</a>
</g>
</g>
<!-- Node1&#45;&gt;Node4 -->
<g id="edge3_Node000001_Node000004" class="edge">
<title>Node1&#45;&gt;Node4</title>
<g id="a_edge3_Node000001_Node000004"><a xlink:title=" ">
<path fill="none" stroke="#63b8ff" d="M403.03,-132.43C338.09,-122.11 248.76,-107.93 181.39,-97.23"/>
<polygon fill="#63b8ff" stroke="#63b8ff" points="181.61,-93.72 171.19,-95.61 180.52,-100.63 181.61,-93.72"/>
</a>
</g>
</g>
<!-- Node6 -->
<g id="Node000006" class="node">
<title>Node6</title>
<g id="a_Node000006"><a xlink:href="evaporation__tools_8hpp.html" target="_top" xlink:title=" ">
<polygon fill="white" stroke="#666666" points="334,-96 189,-96 189,-66 334,-66 334,-96"/>
<text text-anchor="start" x="197" y="-84" font-family="Helvetica,sans-Serif" font-size="10.00">meltpooldg/phase_change</text>
<text text-anchor="middle" x="261.5" y="-73" font-family="Helvetica,sans-Serif" font-size="10.00">/evaporation_tools.hpp</text>
</a>
</g>
</g>
<!-- Node1&#45;&gt;Node6 -->
<g id="edge5_Node000001_Node000006" class="edge">
<title>Node1&#45;&gt;Node6</title>
<g id="a_edge5_Node000001_Node000006"><a xlink:title=" ">
<path fill="none" stroke="#63b8ff" d="M438.68,-131.95C404.09,-122.2 357.82,-109.16 321.24,-98.84"/>
<polygon fill="#63b8ff" stroke="#63b8ff" points="321.77,-95.36 311.2,-96.01 319.87,-102.09 321.77,-95.36"/>
</a>
</g>
</g>
<!-- Node7 -->
<g id="Node000007" class="node">
<title>Node7</title>
<g id="a_Node000007"><a xlink:title=" ">
<polygon fill="#e0e0e0" stroke="#999999" points="392,-24.5 345,-24.5 345,-5.5 392,-5.5 392,-24.5"/>
<text text-anchor="middle" x="368.5" y="-12.5" font-family="Helvetica,sans-Serif" font-size="10.00">cmath</text>
</a>
</g>
</g>
<!-- Node1&#45;&gt;Node7 -->
<g id="edge26_Node000001_Node000007" class="edge">
<title>Node1&#45;&gt;Node7</title>
<g id="a_edge26_Node000001_Node000007"><a xlink:title=" ">
<path fill="none" stroke="#63b8ff" d="M433.45,-131.93C414.24,-124.34 394.3,-112.93 381.5,-96 368.2,-78.41 366.31,-52.39 366.85,-34.84"/>
<polygon fill="#63b8ff" stroke="#63b8ff" points="370.35,-34.9 367.45,-24.71 363.36,-34.48 370.35,-34.9"/>
</a>
</g>
</g>
<!-- Node8 -->
<g id="Node000008" class="node">
<title>Node8</title>
<g id="a_Node000008"><a xlink:href="numbers_8hpp.html" target="_top" xlink:title=" ">
<polygon fill="white" stroke="#666666" points="502.5,-96 390.5,-96 390.5,-66 502.5,-66 502.5,-96"/>
<text text-anchor="start" x="398.5" y="-84" font-family="Helvetica,sans-Serif" font-size="10.00">meltpooldg/utilities</text>
<text text-anchor="middle" x="446.5" y="-73" font-family="Helvetica,sans-Serif" font-size="10.00">/numbers.hpp</text>
</a>
</g>
</g>
<!-- Node1&#45;&gt;Node8 -->
<g id="edge8_Node000001_Node000008" class="edge">
<title>Node1&#45;&gt;Node8</title>
<g id="a_edge8_Node000001_Node000008"><a xlink:title=" ">
<path fill="none" stroke="#63b8ff" d="M479.18,-131.8C473.96,-123.84 467.33,-113.74 461.4,-104.71"/>
<polygon fill="#63b8ff" stroke="#63b8ff" points="464.21,-102.6 455.8,-96.16 458.36,-106.44 464.21,-102.6"/>
</a>
</g>
</g>
<!-- Node9 -->
<g id="Node000009" class="node">
<title>Node9</title>
<g id="a_Node000009"><a xlink:title=" ">
<polygon fill="#e0e0e0" stroke="#999999" points="469,-24.5 410,-24.5 410,-5.5 469,-5.5 469,-24.5"/>
<text text-anchor="middle" x="439.5" y="-12.5" font-family="Helvetica,sans-Serif" font-size="10.00">numbers</text>
</a>
</g>
</g>
<!-- Node1&#45;&gt;Node9 -->
<g id="edge27_Node000001_Node000009" class="edge">
<title>Node1&#45;&gt;Node9</title>
<g id="a_edge27_Node000001_Node000009"><a xlink:title=" ">
<path fill="none" stroke="#63b8ff" d="M498.77,-131.77C509.33,-115.24 522.75,-87.51 511.5,-66 502.86,-49.47 485.98,-37.31 470.75,-29.12"/>
<polygon fill="#63b8ff" stroke="#63b8ff" points="472.07,-25.87 461.56,-24.53 468.94,-32.13 472.07,-25.87"/>
</a>
</g>
</g>
<!-- Node10 -->
<g id="Node000010" class="node">
<title>Node10</title>
<g id="a_Node000010"><a xlink:href="utilities_2utility__functions_8hpp.html" target="_top" xlink:title=" ">
<polygon fill="white" stroke="#666666" points="1086,-96 967,-96 967,-66 1086,-66 1086,-96"/>
<text text-anchor="start" x="975" y="-84" font-family="Helvetica,sans-Serif" font-size="10.00">meltpooldg/utilities</text>
<text text-anchor="middle" x="1026.5" y="-73" font-family="Helvetica,sans-Serif" font-size="10.00">/utility_functions.hpp</text>
</a>
</g>
</g>
<!-- Node1&#45;&gt;Node10 -->
<g id="edge11_Node000001_Node000010" class="edge">
<title>Node1&#45;&gt;Node10</title>
<g id="a_edge11_Node000001_Node000010"><a xlink:title=" ">
<path fill="none" stroke="#63b8ff" d="M573.75,-135.86C679.63,-123.26 858.26,-102.01 956.52,-90.33"/>
<polygon fill="#63b8ff" stroke="#63b8ff" points="957.12,-93.78 966.64,-89.12 956.29,-86.83 957.12,-93.78"/>
</a>
</g>
</g>
<!-- Node5 -->
<g id="Node000005" class="node">
<title>Node5</title>
<g id="a_Node000005"><a xlink:title=" ">
<polygon fill="#e0e0e0" stroke="#999999" points="327,-24.5 178,-24.5 178,-5.5 327,-5.5 327,-24.5"/>
<text text-anchor="middle" x="252.5" y="-12.5" font-family="Helvetica,sans-Serif" font-size="10.00">deal.II/base/vectorization.h</text>
</a>
</g>
</g>
<!-- Node4&#45;&gt;Node5 -->
<g id="edge4_Node000004_Node000005" class="edge">
<title>Node4&#45;&gt;Node5</title>
<g id="a_edge4_Node000004_Node000005"><a xlink:title=" ">
<path fill="none" stroke="#63b8ff" d="M122.15,-65.95C151.69,-54.63 192.81,-38.88 220.92,-28.1"/>
<polygon fill="#63b8ff" stroke="#63b8ff" points="222.19,-31.36 230.28,-24.52 219.68,-24.83 222.19,-31.36"/>
</a>
</g>
</g>
<!-- Node6&#45;&gt;Node5 -->
<g id="edge6_Node000006_Node000005" class="edge">
<title>Node6&#45;&gt;Node5</title>
<g id="a_edge6_Node000006_Node000005"><a xlink:title=" ">
<path fill="none" stroke="#63b8ff" d="M259.5,-65.8C258.22,-56.7 256.55,-44.79 255.16,-34.9"/>
<polygon fill="#63b8ff" stroke="#63b8ff" points="258.6,-34.26 253.74,-24.84 251.67,-35.23 258.6,-34.26"/>
</a>
</g>
</g>
<!-- Node6&#45;&gt;Node7 -->
<g id="edge7_Node000006_Node000007" class="edge">
<title>Node6&#45;&gt;Node7</title>
<g id="a_edge7_Node000006_Node000007"><a xlink:title=" ">
<path fill="none" stroke="#63b8ff" d="M284.98,-65.95C303,-55.18 327.74,-40.38 345.61,-29.69"/>
<polygon fill="#63b8ff" stroke="#63b8ff" points="347.47,-32.65 354.26,-24.52 343.88,-26.65 347.47,-32.65"/>
</a>
</g>
</g>
<!-- Node8&#45;&gt;Node7 -->
<g id="edge9_Node000008_Node000007" class="edge">
<title>Node8&#45;&gt;Node7</title>
<g id="a_edge9_Node000008_Node000007"><a xlink:title=" ">
<path fill="none" stroke="#63b8ff" d="M429.19,-65.8C416.79,-55.62 400.1,-41.93 387.37,-31.48"/>
<polygon fill="#63b8ff" stroke="#63b8ff" points="389.23,-28.48 379.28,-24.84 384.79,-33.89 389.23,-28.48"/>
</a>
</g>
</g>
<!-- Node8&#45;&gt;Node9 -->
<g id="edge10_Node000008_Node000009" class="edge">
<title>Node8&#45;&gt;Node9</title>
<g id="a_edge10_Node000008_Node000009"><a xlink:title=" ">
<path fill="none" stroke="#63b8ff" d="M444.95,-65.8C443.95,-56.7 442.65,-44.79 441.57,-34.9"/>
<polygon fill="#63b8ff" stroke="#63b8ff" points="445.03,-34.4 440.47,-24.84 438.08,-35.17 445.03,-34.4"/>
</a>
</g>
</g>
<!-- Node10&#45;&gt;Node2 -->
<g id="edge13_Node000010_Node000002" class="edge">
<title>Node10&#45;&gt;Node2</title>
<g id="a_edge13_Node000010_Node000002"><a xlink:title=" ">
<path fill="none" stroke="#63b8ff" d="M966.93,-73.35C889.99,-64.55 751.99,-48.02 634.5,-30 627.12,-28.87 619.37,-27.59 611.74,-26.27"/>
<polygon fill="#63b8ff" stroke="#63b8ff" points="612.26,-22.81 601.8,-24.53 611.05,-29.71 612.26,-22.81"/>
</a>
</g>
</g>
<!-- Node10&#45;&gt;Node5 -->
<g id="edge15_Node000010_Node000005" class="edge">
<title>Node10&#45;&gt;Node5</title>
<g id="a_edge15_Node000010_Node000005"><a xlink:title=" ">
<path fill="none" stroke="#63b8ff" d="M966.7,-77.59C846.69,-72.32 568.07,-57.96 335.5,-30 326.75,-28.95 317.52,-27.61 308.51,-26.19"/>
<polygon fill="#63b8ff" stroke="#63b8ff" points="308.92,-22.71 298.48,-24.56 307.79,-29.62 308.92,-22.71"/>
</a>
</g>
</g>
<!-- Node10&#45;&gt;Node7 -->
<g id="edge20_Node000010_Node000007" class="edge">
<title>Node10&#45;&gt;Node7</title>
<g id="a_edge20_Node000010_Node000007"><a xlink:title=" ">
<path fill="none" stroke="#63b8ff" d="M966.95,-77.76C832.07,-72.29 506.77,-56.69 400.5,-30 398.6,-29.52 396.68,-28.95 394.76,-28.3"/>
<polygon fill="#63b8ff" stroke="#63b8ff" points="395.99,-25.02 385.4,-24.64 393.44,-31.54 395.99,-25.02"/>
</a>
</g>
</g>
<!-- Node11 -->
<g id="Node000011" class="node">
<title>Node11</title>
<g id="a_Node000011"><a xlink:title=" ">
<polygon fill="#e0e0e0" stroke="#999999" points="1708.5,-24.5 1594.5,-24.5 1594.5,-5.5 1708.5,-5.5 1708.5,-24.5"/>
<text text-anchor="middle" x="1651.5" y="-12.5" font-family="Helvetica,sans-Serif" font-size="10.00">deal.II/base/config.h</text>
</a>
</g>
</g>
<!-- Node10&#45;&gt;Node11 -->
<g id="edge12_Node000010_Node000011" class="edge">
<title>Node10&#45;&gt;Node11</title>
<g id="a_edge12_Node000010_Node000011"><a xlink:title=" ">
<path fill="none" stroke="#63b8ff" d="M1086.26,-67.39C1089.38,-66.89 1092.47,-66.42 1095.5,-66 1311.83,-36.23 1369.31,-60.73 1585.5,-30 1592.12,-29.06 1599.08,-27.84 1605.88,-26.52"/>
<polygon fill="#63b8ff" stroke="#63b8ff" points="1606.59,-29.94 1615.69,-24.52 1605.19,-23.08 1606.59,-29.94"/>
</a>
</g>
</g>
<!-- Node12 -->
<g id="Node000012" class="node">
<title>Node12</title>
<g id="a_Node000012"><a xlink:title=" ">
<polygon fill="#e0e0e0" stroke="#999999" points="753.5,-24.5 643.5,-24.5 643.5,-5.5 753.5,-5.5 753.5,-24.5"/>
<text text-anchor="middle" x="698.5" y="-12.5" font-family="Helvetica,sans-Serif" font-size="10.00">deal.II/base/point.h</text>
</a>
</g>
</g>
<!-- Node10&#45;&gt;Node12 -->
<g id="edge14_Node000010_Node000012" class="edge">
<title>Node10&#45;&gt;Node12</title>
<g id="a_edge14_Node000010_Node000012"><a xlink:title=" ">
<path fill="none" stroke="#63b8ff" d="M966.9,-69.21C913.34,-59.39 832.55,-44.29 762.5,-30 757.41,-28.96 752.09,-27.85 746.8,-26.72"/>
<polygon fill="#63b8ff" stroke="#63b8ff" points="747.22,-23.23 736.7,-24.54 745.74,-30.07 747.22,-23.23"/>
</a>
</g>
</g>
<!-- Node13 -->
<g id="Node000013" class="node">
<title>Node13</title>
<g id="a_Node000013"><a xlink:title=" ">
<polygon fill="#e0e0e0" stroke="#999999" points="885.5,-24.5 771.5,-24.5 771.5,-5.5 885.5,-5.5 885.5,-24.5"/>
<text text-anchor="middle" x="828.5" y="-12.5" font-family="Helvetica,sans-Serif" font-size="10.00">deal.II/fe/mapping.h</text>
</a>
</g>
</g>
<!-- Node10&#45;&gt;Node13 -->
<g id="edge16_Node000010_Node000013" class="edge">
<title>Node10&#45;&gt;Node13</title>
<g id="a_edge16_Node000010_Node000013"><a xlink:title=" ">
<path fill="none" stroke="#63b8ff" d="M983.05,-65.95C947.56,-54.48 897.99,-38.46 864.64,-27.68"/>
<polygon fill="#63b8ff" stroke="#63b8ff" points="865.44,-24.26 854.85,-24.52 863.29,-30.92 865.44,-24.26"/>
</a>
</g>
</g>
<!-- Node14 -->
<g id="Node000014" class="node">
<title>Node14</title>
<g id="a_Node000014"><a xlink:title=" ">
<polygon fill="#e0e0e0" stroke="#999999" points="1023,-30 904,-30 904,0 1023,0 1023,-30"/>
<text text-anchor="start" x="912" y="-18" font-family="Helvetica,sans-Serif" font-size="10.00">deal.II/grid/grid_tools</text>
<text text-anchor="middle" x="963.5" y="-7" font-family="Helvetica,sans-Serif" font-size="10.00">_geometry.h</text>
</a>
</g>
</g>
<!-- Node10&#45;&gt;Node14 -->
<g id="edge17_Node000010_Node000014" class="edge">
<title>Node10&#45;&gt;Node14</title>
<g id="a_edge17_Node000010_Node000014"><a xlink:title=" ">
<path fill="none" stroke="#63b8ff" d="M1012.52,-65.8C1004.28,-57.43 993.7,-46.68 984.48,-37.31"/>
<polygon fill="#63b8ff" stroke="#63b8ff" points="986.95,-34.84 977.44,-30.16 981.96,-39.75 986.95,-34.84"/>
</a>
</g>
</g>
<!-- Node15 -->
<g id="Node000015" class="node">
<title>Node15</title>
<g id="a_Node000015"><a xlink:title=" ">
<polygon fill="#e0e0e0" stroke="#999999" points="1138,-24.5 1041,-24.5 1041,-5.5 1138,-5.5 1138,-24.5"/>
<text text-anchor="middle" x="1089.5" y="-12.5" font-family="Helvetica,sans-Serif" font-size="10.00">deal.II/grid/tria.h</text>
</a>
</g>
</g>
<!-- Node10&#45;&gt;Node15 -->
<g id="edge18_Node000010_Node000015" class="edge">
<title>Node10&#45;&gt;Node15</title>
<g id="a_edge18_Node000010_Node000015"><a xlink:title=" ">
<path fill="none" stroke="#63b8ff" d="M1040.48,-65.8C1050.3,-55.82 1063.46,-42.46 1073.67,-32.09"/>
<polygon fill="#63b8ff" stroke="#63b8ff" points="1076.27,-34.43 1080.79,-24.84 1071.28,-29.52 1076.27,-34.43"/>
</a>
</g>
</g>
<!-- Node16 -->
<g id="Node000016" class="node">
<title>Node16</title>
<g id="a_Node000016"><a xlink:title=" ">
<polygon fill="#e0e0e0" stroke="#999999" points="1220.5,-24.5 1156.5,-24.5 1156.5,-5.5 1220.5,-5.5 1220.5,-24.5"/>
<text text-anchor="middle" x="1188.5" y="-12.5" font-family="Helvetica,sans-Serif" font-size="10.00">algorithm</text>
</a>
</g>
</g>
<!-- Node10&#45;&gt;Node16 -->
<g id="edge19_Node000010_Node000016" class="edge">
<title>Node10&#45;&gt;Node16</title>
<g id="a_edge19_Node000010_Node000016"><a xlink:title=" ">
<path fill="none" stroke="#63b8ff" d="M1062.05,-65.95C1090.59,-54.68 1130.25,-39.01 1157.5,-28.25"/>
<polygon fill="#63b8ff" stroke="#63b8ff" points="1158.93,-31.45 1166.94,-24.52 1156.35,-24.94 1158.93,-31.45"/>
</a>
</g>
</g>
<!-- Node17 -->
<g id="Node000017" class="node">
<title>Node17</title>
<g id="a_Node000017"><a xlink:title=" ">
<polygon fill="#e0e0e0" stroke="#999999" points="1270,-24.5 1239,-24.5 1239,-5.5 1270,-5.5 1270,-24.5"/>
<text text-anchor="middle" x="1254.5" y="-12.5" font-family="Helvetica,sans-Serif" font-size="10.00">ios</text>
</a>
</g>
</g>
<!-- Node10&#45;&gt;Node17 -->
<g id="edge21_Node000010_Node000017" class="edge">
<title>Node10&#45;&gt;Node17</title>
<g id="a_edge21_Node000010_Node000017"><a xlink:title=" ">
<path fill="none" stroke="#63b8ff" d="M1086.1,-67.18C1136.21,-56.06 1203.67,-40.2 1229.5,-30 1230.21,-29.72 1230.93,-29.42 1231.65,-29.11"/>
<polygon fill="#63b8ff" stroke="#63b8ff" points="1233.43,-32.13 1240.81,-24.54 1230.3,-25.87 1233.43,-32.13"/>
</a>
</g>
</g>
<!-- Node18 -->
<g id="Node000018" class="node">
<title>Node18</title>
<g id="a_Node000018"><a xlink:title=" ">
<polygon fill="#e0e0e0" stroke="#999999" points="1344.5,-24.5 1288.5,-24.5 1288.5,-5.5 1344.5,-5.5 1344.5,-24.5"/>
<text text-anchor="middle" x="1316.5" y="-12.5" font-family="Helvetica,sans-Serif" font-size="10.00">sstream</text>
</a>
</g>
</g>
<!-- Node10&#45;&gt;Node18 -->
<g id="edge22_Node000010_Node000018" class="edge">
<title>Node10&#45;&gt;Node18</title>
<g id="a_edge22_Node000010_Node000018"><a xlink:title=" ">
<path fill="none" stroke="#63b8ff" d="M1086.33,-67.83C1089.43,-67.21 1092.5,-66.6 1095.5,-66 1177.22,-49.72 1199.36,-52.83 1279.5,-30 1281.65,-29.39 1283.84,-28.71 1286.05,-27.98"/>
<polygon fill="#63b8ff" stroke="#63b8ff" points="1287.31,-31.25 1295.57,-24.62 1284.98,-24.65 1287.31,-31.25"/>
</a>
</g>
</g>
<!-- Node19 -->
<g id="Node000019" class="node">
<title>Node19</title>
<g id="a_Node000019"><a xlink:title=" ">
<polygon fill="#e0e0e0" stroke="#999999" points="1406.5,-24.5 1362.5,-24.5 1362.5,-5.5 1406.5,-5.5 1406.5,-24.5"/>
<text text-anchor="middle" x="1384.5" y="-12.5" font-family="Helvetica,sans-Serif" font-size="10.00">string</text>
</a>
</g>
</g>
<!-- Node10&#45;&gt;Node19 -->
<g id="edge23_Node000010_Node000019" class="edge">
<title>Node10&#45;&gt;Node19</title>
<g id="a_edge23_Node000010_Node000019"><a xlink:title=" ">
<path fill="none" stroke="#63b8ff" d="M1086.3,-67.63C1089.41,-67.06 1092.49,-66.52 1095.5,-66 1209.62,-46.48 1242.28,-62.15 1353.5,-30 1355.14,-29.53 1356.8,-28.98 1358.46,-28.39"/>
<polygon fill="#63b8ff" stroke="#63b8ff" points="1359.83,-31.61 1367.78,-24.6 1357.19,-25.13 1359.83,-31.61"/>
</a>
</g>
</g>
<!-- Node20 -->
<g id="Node000020" class="node">
<title>Node20</title>
<g id="a_Node000020"><a xlink:title=" ">
<polygon fill="#e0e0e0" stroke="#999999" points="1510.5,-24.5 1424.5,-24.5 1424.5,-5.5 1510.5,-5.5 1510.5,-24.5"/>
<text text-anchor="middle" x="1467.5" y="-12.5" font-family="Helvetica,sans-Serif" font-size="10.00">unordered_set</text>
</a>
</g>
</g>
<!-- Node10&#45;&gt;Node20 -->
<g id="edge24_Node000010_Node000020" class="edge">
<title>Node10&#45;&gt;Node20</title>
<g id="a_edge24_Node000010_Node000020"><a xlink:title=" ">
<path fill="none" stroke="#63b8ff" d="M1086.28,-67.53C1089.39,-66.99 1092.48,-66.48 1095.5,-66 1236.88,-43.75 1274.89,-56.68 1415.5,-30 1419.91,-29.16 1424.49,-28.15 1429.03,-27.05"/>
<polygon fill="#63b8ff" stroke="#63b8ff" points="1429.98,-30.42 1438.8,-24.56 1428.24,-23.64 1429.98,-30.42"/>
</a>
</g>
</g>
<!-- Node21 -->
<g id="Node000021" class="node">
<title>Node21</title>
<g id="a_Node000021"><a xlink:title=" ">
<polygon fill="#e0e0e0" stroke="#999999" points="1576,-24.5 1529,-24.5 1529,-5.5 1576,-5.5 1576,-24.5"/>
<text text-anchor="middle" x="1552.5" y="-12.5" font-family="Helvetica,sans-Serif" font-size="10.00">vector</text>
</a>
</g>
</g>
<!-- Node10&#45;&gt;Node21 -->
<g id="edge25_Node000010_Node000021" class="edge">
<title>Node10&#45;&gt;Node21</title>
<g id="a_edge25_Node000010_Node000021"><a xlink:title=" ">
<path fill="none" stroke="#63b8ff" d="M1086.27,-67.43C1089.38,-66.92 1092.48,-66.43 1095.5,-66 1282.71,-39.15 1335.93,-75.5 1519.5,-30 1521.45,-29.52 1523.43,-28.93 1525.4,-28.28"/>
<polygon fill="#63b8ff" stroke="#63b8ff" points="1526.94,-31.44 1535.04,-24.62 1524.45,-24.9 1526.94,-31.44"/>
</a>
</g>
</g>
</g>
</svg>
