<?xml version="1.0" encoding="UTF-8" standalone="no"?>
<!DOCTYPE svg PUBLIC "-//W3C//DTD SVG 1.1//EN"
 "http://www.w3.org/Graphics/SVG/1.1/DTD/svg11.dtd">
<!-- Generated by graphviz version 2.43.0 (0)
 -->
<!-- Title: source/time_integration/explicit_low_storage_runge_kutta_integrator.cpp Pages: 1 -->
<!--zoomable 456 -->

<svg id="main" version="1.1" xmlns="http://www.w3.org/2000/svg" xmlns:xlink="http://www.w3.org/1999/xlink" xml:space="preserve" onload="init(evt)">
<style type="text/css"><![CDATA[
.node, .edge {opacity: 0.7;}
.node.selected, .edge.selected {opacity: 1;}
.edge:hover path { stroke: red; }
.edge:hover polygon { stroke: red; fill: red; }
]]></style>

<defs>
  <circle id="rim" cx="0" cy="0" r="7"/>
  <circle id="rim2" cx="0" cy="0" r="3.5"/>
  <g id="zoomPlus">
    <use xlink:href="#rim" fill="#404040"><set attributeName="fill" to="#808080" begin="zoomplus.mouseover" end="zoomplus.mouseout"/></use>
    <path d="M-4,0h8M0,-4v8" fill="none" stroke="white" stroke-width="1.5" pointer-events="none"/>
  </g>
  <g id="zoomMin">
    <use xlink:href="#rim" fill="#404040"><set attributeName="fill" to="#808080" begin="zoomminus.mouseover" end="zoomminus.mouseout"/></use>
    <path d="M-4,0h8" fill="none" stroke="white" stroke-width="1.5" pointer-events="none"/>
  </g>
  <g id="arrowUp" transform="translate(30 24)">
    <use xlink:href="#rim"/>
    <path pointer-events="none" fill="none" stroke="white" stroke-width="1.5" d="M0,-3.0v7 M-2.5,-0.5L0,-3.0L2.5,-0.5"/>
  </g>
  <g id="arrowRight" transform="rotate(90) translate(36 -43)">
    <use xlink:href="#rim"/>
    <path pointer-events="none" fill="none" stroke="white" stroke-width="1.5" d="M0,-3.0v7 M-2.5,-0.5L0,-3.0L2.5,-0.5"/>
  </g>
  <g id="arrowDown" transform="rotate(180) translate(-30 -48)">
    <use xlink:href="#rim"/>
    <path pointer-events="none" fill="none" stroke="white" stroke-width="1.5" d="M0,-3.0v7 M-2.5,-0.5L0,-3.0L2.5,-0.5"/>
  </g>
  <g id="arrowLeft" transform="rotate(270) translate(-36 17)">
    <use xlink:href="#rim"/>
    <path pointer-events="none" fill="none" stroke="white" stroke-width="1.5" d="M0,-3.0v7 M-2.5,-0.5L0,-3.0L2.5,-0.5"/>
  </g>
  <g id="resetDef">
    <use xlink:href="#rim2" fill="#404040"><set attributeName="fill" to="#808080" begin="reset.mouseover" end="reset.mouseout"/></use>
  </g>
</defs>
<script type="application/ecmascript">
var viewWidth = 989;
var viewHeight = 456;
var sectionId = 'dynsection-0';
</script>
<script type="application/ecmascript" xlink:href="svg.min.js"/>
<svg id="graph" class="graph">
<g id="viewport">
<title>source/time_integration/explicit_low_storage_runge_kutta_integrator.cpp</title>
<!-- Node1 -->
<g id="Node000001" class="node">
<title>Node1</title>
<g id="a_Node000001"><a xlink:title=" ">
<polygon fill="#999999" stroke="#666666" points="808.5,-448 656.5,-448 656.5,-407 808.5,-407 808.5,-448"/>
<text text-anchor="start" x="664.5" y="-436" font-family="Helvetica,sans-Serif" font-size="10.00">source/time_integration</text>
<text text-anchor="start" x="664.5" y="-425" font-family="Helvetica,sans-Serif" font-size="10.00">/explicit_low_storage</text>
<text text-anchor="middle" x="732.5" y="-414" font-family="Helvetica,sans-Serif" font-size="10.00">_runge_kutta_integrator.cpp</text>
</a>
</g>
</g>
<!-- Node2 -->
<g id="Node000002" class="node">
<title>Node2</title>
<g id="a_Node000002"><a xlink:title=" ">
<polygon fill="#e0e0e0" stroke="#999999" points="654.5,-156.5 516.5,-156.5 516.5,-137.5 654.5,-137.5 654.5,-156.5"/>
<text text-anchor="middle" x="585.5" y="-144.5" font-family="Helvetica,sans-Serif" font-size="10.00">deal.II/base/exceptions.h</text>
</a>
</g>
</g>
<!-- Node1&#45;&gt;Node2 -->
<g id="edge1_Node000001_Node000002" class="edge">
<title>Node1&#45;&gt;Node2</title>
<g id="a_edge1_Node000001_Node000002"><a xlink:title=" ">
<path fill="none" stroke="#63b8ff" d="M688.8,-406.75C673.21,-397.81 656.74,-385.86 645.5,-371 597.41,-307.42 587.83,-208.07 585.95,-166.88"/>
<polygon fill="#63b8ff" stroke="#63b8ff" points="589.44,-166.55 585.59,-156.67 582.44,-166.79 589.44,-166.55"/>
</a>
</g>
</g>
<!-- Node3 -->
<g id="Node000003" class="node">
<title>Node3</title>
<g id="a_Node000003"><a xlink:href="explicit__low__storage__runge__kutta__integrator_8hpp.html" target="_top" xlink:title=" ">
<polygon fill="white" stroke="#666666" points="810.5,-371 654.5,-371 654.5,-330 810.5,-330 810.5,-371"/>
<text text-anchor="start" x="662.5" y="-359" font-family="Helvetica,sans-Serif" font-size="10.00">meltpooldg/time_integration</text>
<text text-anchor="start" x="662.5" y="-348" font-family="Helvetica,sans-Serif" font-size="10.00">/explicit_low_storage_runge</text>
<text text-anchor="middle" x="732.5" y="-337" font-family="Helvetica,sans-Serif" font-size="10.00">_kutta_integrator.hpp</text>
</a>
</g>
</g>
<!-- Node1&#45;&gt;Node3 -->
<g id="edge2_Node000001_Node000003" class="edge">
<title>Node1&#45;&gt;Node3</title>
<g id="a_edge2_Node000001_Node000003"><a xlink:title=" ">
<path fill="none" stroke="#63b8ff" d="M732.5,-406.79C732.5,-398.96 732.5,-389.77 732.5,-381.16"/>
<polygon fill="#63b8ff" stroke="#63b8ff" points="736,-381.07 732.5,-371.07 729,-381.07 736,-381.07"/>
</a>
</g>
</g>
<!-- Node6 -->
<g id="Node000006" class="node">
<title>Node6</title>
<g id="a_Node000006"><a xlink:title=" ">
<polygon fill="#e0e0e0" stroke="#999999" points="946,-156.5 881,-156.5 881,-137.5 946,-137.5 946,-156.5"/>
<text text-anchor="middle" x="913.5" y="-144.5" font-family="Helvetica,sans-Serif" font-size="10.00">functional</text>
</a>
</g>
</g>
<!-- Node1&#45;&gt;Node6 -->
<g id="edge31_Node000001_Node000006" class="edge">
<title>Node1&#45;&gt;Node6</title>
<g id="a_edge31_Node000001_Node000006"><a xlink:title=" ">
<path fill="none" stroke="#63b8ff" d="M772.9,-406.8C816.42,-384.12 885.82,-343.54 933.5,-294 965.67,-260.57 994.35,-239.93 974.5,-198 967.22,-182.61 952.62,-170.38 939.54,-161.87"/>
<polygon fill="#63b8ff" stroke="#63b8ff" points="941.19,-158.77 930.83,-156.57 937.55,-164.76 941.19,-158.77"/>
</a>
</g>
</g>
<!-- Node4 -->
<g id="Node000004" class="node">
<title>Node4</title>
<g id="a_Node000004"><a xlink:title=" ">
<polygon fill="#e0e0e0" stroke="#999999" points="950.5,-228 832.5,-228 832.5,-198 950.5,-198 950.5,-228"/>
<text text-anchor="start" x="840.5" y="-216" font-family="Helvetica,sans-Serif" font-size="10.00">deal.II/lac/la_parallel</text>
<text text-anchor="middle" x="891.5" y="-205" font-family="Helvetica,sans-Serif" font-size="10.00">_vector.h</text>
</a>
</g>
</g>
<!-- Node3&#45;&gt;Node4 -->
<g id="edge3_Node000003_Node000004" class="edge">
<title>Node3&#45;&gt;Node4</title>
<g id="a_edge3_Node000003_Node000004"><a xlink:title=" ">
<path fill="none" stroke="#63b8ff" d="M810.78,-333.15C833.52,-324.87 856.5,-312.49 872.5,-294 885.8,-278.62 890.19,-255.59 891.45,-238.18"/>
<polygon fill="#63b8ff" stroke="#63b8ff" points="894.95,-238.33 891.89,-228.19 887.96,-238.03 894.95,-238.33"/>
</a>
</g>
</g>
<!-- Node5 -->
<g id="Node000005" class="node">
<title>Node5</title>
<g id="a_Node000005"><a xlink:href="solution__history_8hpp.html" target="_top" xlink:title=" ">
<polygon fill="white" stroke="#666666" points="776.5,-228 620.5,-228 620.5,-198 776.5,-198 776.5,-228"/>
<text text-anchor="start" x="628.5" y="-216" font-family="Helvetica,sans-Serif" font-size="10.00">meltpooldg/time_integration</text>
<text text-anchor="middle" x="698.5" y="-205" font-family="Helvetica,sans-Serif" font-size="10.00">/solution_history.hpp</text>
</a>
</g>
</g>
<!-- Node3&#45;&gt;Node5 -->
<g id="edge4_Node000003_Node000005" class="edge">
<title>Node3&#45;&gt;Node5</title>
<g id="a_edge4_Node000003_Node000005"><a xlink:title=" ">
<path fill="none" stroke="#63b8ff" d="M716.85,-329.95C709.75,-319.84 702.15,-306.94 698.5,-294 693.39,-275.86 693.69,-254.48 695.11,-238.38"/>
<polygon fill="#63b8ff" stroke="#63b8ff" points="698.62,-238.51 696.22,-228.19 691.66,-237.75 698.62,-238.51"/>
</a>
</g>
</g>
<!-- Node3&#45;&gt;Node6 -->
<g id="edge29_Node000003_Node000006" class="edge">
<title>Node3&#45;&gt;Node6</title>
<g id="a_edge29_Node000003_Node000006"><a xlink:title=" ">
<path fill="none" stroke="#63b8ff" d="M810.69,-334.23C866.12,-318.48 934.87,-287.47 959.5,-228 964.6,-215.68 964.34,-210.42 959.5,-198 954.21,-184.44 943.33,-172.33 933.47,-163.42"/>
<polygon fill="#63b8ff" stroke="#63b8ff" points="935.48,-160.53 925.58,-156.74 930.95,-165.87 935.48,-160.53"/>
</a>
</g>
</g>
<!-- Node8 -->
<g id="Node000008" class="node">
<title>Node8</title>
<g id="a_Node000008"><a xlink:title=" ">
<polygon fill="#e0e0e0" stroke="#999999" points="720,-156.5 673,-156.5 673,-137.5 720,-137.5 720,-156.5"/>
<text text-anchor="middle" x="696.5" y="-144.5" font-family="Helvetica,sans-Serif" font-size="10.00">vector</text>
</a>
</g>
</g>
<!-- Node3&#45;&gt;Node8 -->
<g id="edge30_Node000003_Node000008" class="edge">
<title>Node3&#45;&gt;Node8</title>
<g id="a_edge30_Node000003_Node000008"><a xlink:title=" ">
<path fill="none" stroke="#63b8ff" d="M702.16,-329.83C672.67,-308.71 629.74,-272.16 611.5,-228 606.41,-215.68 604.88,-209.57 611.5,-198 617.86,-186.88 645.82,-171.68 667.96,-160.97"/>
<polygon fill="#63b8ff" stroke="#63b8ff" points="669.48,-164.12 677.01,-156.67 666.48,-157.8 669.48,-164.12"/>
</a>
</g>
</g>
<!-- Node9 -->
<g id="Node000009" class="node">
<title>Node9</title>
<g id="a_Node000009"><a xlink:href="time__integrator__base_8hpp.html" target="_top" xlink:title=" ">
<polygon fill="white" stroke="#666666" points="863.5,-294 707.5,-294 707.5,-264 863.5,-264 863.5,-294"/>
<text text-anchor="start" x="715.5" y="-282" font-family="Helvetica,sans-Serif" font-size="10.00">meltpooldg/time_integration</text>
<text text-anchor="middle" x="785.5" y="-271" font-family="Helvetica,sans-Serif" font-size="10.00">/time_integrator_base.hpp</text>
</a>
</g>
</g>
<!-- Node3&#45;&gt;Node9 -->
<g id="edge9_Node000003_Node000009" class="edge">
<title>Node3&#45;&gt;Node9</title>
<g id="a_edge9_Node000003_Node000009"><a xlink:title=" ">
<path fill="none" stroke="#63b8ff" d="M747.55,-329.77C754.13,-321.13 761.89,-310.96 768.67,-302.08"/>
<polygon fill="#63b8ff" stroke="#63b8ff" points="771.51,-304.11 774.79,-294.04 765.95,-299.87 771.51,-304.11"/>
</a>
</g>
</g>
<!-- Node10 -->
<g id="Node000010" class="node">
<title>Node10</title>
<g id="a_Node000010"><a xlink:href="time__integrator__data_8hpp.html" target="_top" xlink:title=" ">
<polygon fill="white" stroke="#666666" points="490.5,-228 334.5,-228 334.5,-198 490.5,-198 490.5,-228"/>
<text text-anchor="start" x="342.5" y="-216" font-family="Helvetica,sans-Serif" font-size="10.00">meltpooldg/time_integration</text>
<text text-anchor="middle" x="412.5" y="-205" font-family="Helvetica,sans-Serif" font-size="10.00">/time_integrator_data.hpp</text>
</a>
</g>
</g>
<!-- Node3&#45;&gt;Node10 -->
<g id="edge28_Node000003_Node000010" class="edge">
<title>Node3&#45;&gt;Node10</title>
<g id="a_edge28_Node000003_Node000010"><a xlink:title=" ">
<path fill="none" stroke="#63b8ff" d="M674.98,-329.94C646.34,-319.84 611.33,-306.93 580.5,-294 534.48,-274.69 482.83,-249.56 449.1,-232.66"/>
<polygon fill="#63b8ff" stroke="#63b8ff" points="450.58,-229.49 440.08,-228.12 447.44,-235.74 450.58,-229.49"/>
</a>
</g>
</g>
<!-- Node5&#45;&gt;Node2 -->
<g id="edge5_Node000005_Node000002" class="edge">
<title>Node5&#45;&gt;Node2</title>
<g id="a_edge5_Node000005_Node000002"><a xlink:title=" ">
<path fill="none" stroke="#63b8ff" d="M673.7,-197.95C654.58,-187.13 628.3,-172.24 609.41,-161.54"/>
<polygon fill="#63b8ff" stroke="#63b8ff" points="610.96,-158.4 600.54,-156.52 607.51,-164.49 610.96,-158.4"/>
</a>
</g>
</g>
<!-- Node5&#45;&gt;Node6 -->
<g id="edge6_Node000005_Node000006" class="edge">
<title>Node5&#45;&gt;Node6</title>
<g id="a_edge6_Node000005_Node000006"><a xlink:title=" ">
<path fill="none" stroke="#63b8ff" d="M745.68,-197.95C784.55,-186.38 838.97,-170.18 875.18,-159.41"/>
<polygon fill="#63b8ff" stroke="#63b8ff" points="876.3,-162.72 884.89,-156.52 874.3,-156.02 876.3,-162.72"/>
</a>
</g>
</g>
<!-- Node7 -->
<g id="Node000007" class="node">
<title>Node7</title>
<g id="a_Node000007"><a xlink:title=" ">
<polygon fill="#e0e0e0" stroke="#999999" points="796.5,-156.5 738.5,-156.5 738.5,-137.5 796.5,-137.5 796.5,-156.5"/>
<text text-anchor="middle" x="767.5" y="-144.5" font-family="Helvetica,sans-Serif" font-size="10.00">memory</text>
</a>
</g>
</g>
<!-- Node5&#45;&gt;Node7 -->
<g id="edge7_Node000005_Node000007" class="edge">
<title>Node5&#45;&gt;Node7</title>
<g id="a_edge7_Node000005_Node000007"><a xlink:title=" ">
<path fill="none" stroke="#63b8ff" d="M713.81,-197.8C724.68,-187.72 739.26,-174.19 750.49,-163.78"/>
<polygon fill="#63b8ff" stroke="#63b8ff" points="753.01,-166.21 757.96,-156.84 748.25,-161.08 753.01,-166.21"/>
</a>
</g>
</g>
<!-- Node5&#45;&gt;Node8 -->
<g id="edge8_Node000005_Node000008" class="edge">
<title>Node5&#45;&gt;Node8</title>
<g id="a_edge8_Node000005_Node000008"><a xlink:title=" ">
<path fill="none" stroke="#63b8ff" d="M698.06,-197.8C697.77,-188.7 697.4,-176.79 697.09,-166.9"/>
<polygon fill="#63b8ff" stroke="#63b8ff" points="700.59,-166.73 696.78,-156.84 693.59,-166.95 700.59,-166.73"/>
</a>
</g>
</g>
<!-- Node9&#45;&gt;Node4 -->
<g id="edge10_Node000009_Node000004" class="edge">
<title>Node9&#45;&gt;Node4</title>
<g id="a_edge10_Node000009_Node000004"><a xlink:title=" ">
<path fill="none" stroke="#63b8ff" d="M808.76,-263.95C823.67,-254.95 843.23,-243.14 859.59,-233.27"/>
<polygon fill="#63b8ff" stroke="#63b8ff" points="861.54,-236.18 868.29,-228.01 857.92,-230.18 861.54,-236.18"/>
</a>
</g>
</g>
<!-- Node9&#45;&gt;Node5 -->
<g id="edge11_Node000009_Node000005" class="edge">
<title>Node9&#45;&gt;Node5</title>
<g id="a_edge11_Node000009_Node000005"><a xlink:title=" ">
<path fill="none" stroke="#63b8ff" d="M766.19,-263.8C754.37,-255.1 739.04,-243.82 725.96,-234.2"/>
<polygon fill="#63b8ff" stroke="#63b8ff" points="727.88,-231.27 717.75,-228.16 723.74,-236.91 727.88,-231.27"/>
</a>
</g>
</g>
<!-- Node9&#45;&gt;Node6 -->
<g id="edge27_Node000009_Node000006" class="edge">
<title>Node9&#45;&gt;Node6</title>
<g id="a_edge27_Node000009_Node000006"><a xlink:title=" ">
<path fill="none" stroke="#63b8ff" d="M789.34,-263.74C794.6,-246.43 805.51,-217.17 823.5,-198 839.12,-181.35 861.56,-168.87 880.13,-160.54"/>
<polygon fill="#63b8ff" stroke="#63b8ff" points="881.61,-163.71 889.42,-156.56 878.85,-157.28 881.61,-163.71"/>
</a>
</g>
</g>
<!-- Node9&#45;&gt;Node10 -->
<g id="edge12_Node000009_Node000010" class="edge">
<title>Node9&#45;&gt;Node10</title>
<g id="a_edge12_Node000009_Node000010"><a xlink:title=" ">
<path fill="none" stroke="#63b8ff" d="M707.31,-264.58C646.88,-254.22 563.24,-239.86 500.48,-229.1"/>
<polygon fill="#63b8ff" stroke="#63b8ff" points="501.04,-225.64 490.59,-227.4 499.85,-232.54 501.04,-225.64"/>
</a>
</g>
</g>
<!-- Node11 -->
<g id="Node000011" class="node">
<title>Node11</title>
<g id="a_Node000011"><a xlink:title=" ">
<polygon fill="#e0e0e0" stroke="#999999" points="127,-30 0,-30 0,0 127,0 127,-30"/>
<text text-anchor="start" x="8" y="-18" font-family="Helvetica,sans-Serif" font-size="10.00">deal.II/base/parameter</text>
<text text-anchor="middle" x="63.5" y="-7" font-family="Helvetica,sans-Serif" font-size="10.00">_handler.h</text>
</a>
</g>
</g>
<!-- Node10&#45;&gt;Node11 -->
<g id="edge13_Node000010_Node000011" class="edge">
<title>Node10&#45;&gt;Node11</title>
<g id="a_edge13_Node000010_Node000011"><a xlink:title=" ">
<path fill="none" stroke="#63b8ff" d="M334.38,-208.16C257.05,-199.77 142.01,-174 83.5,-96 71.45,-79.94 66.6,-57.46 64.68,-40.42"/>
<polygon fill="#63b8ff" stroke="#63b8ff" points="68.14,-39.79 63.79,-30.12 61.16,-40.39 68.14,-39.79"/>
</a>
</g>
</g>
<!-- Node12 -->
<g id="Node000012" class="node">
<title>Node12</title>
<g id="a_Node000012"><a xlink:href="linear__solver__data_8hpp.html" target="_top" xlink:title=" ">
<polygon fill="white" stroke="#666666" points="384,-162 239,-162 239,-132 384,-132 384,-162"/>
<text text-anchor="start" x="247" y="-150" font-family="Helvetica,sans-Serif" font-size="10.00">meltpooldg/linear_algebra</text>
<text text-anchor="middle" x="311.5" y="-139" font-family="Helvetica,sans-Serif" font-size="10.00">/linear_solver_data.hpp</text>
</a>
</g>
</g>
<!-- Node10&#45;&gt;Node12 -->
<g id="edge14_Node000010_Node000012" class="edge">
<title>Node10&#45;&gt;Node12</title>
<g id="a_edge14_Node000010_Node000012"><a xlink:title=" ">
<path fill="none" stroke="#63b8ff" d="M390.08,-197.8C376.09,-188.93 357.88,-177.39 342.52,-167.66"/>
<polygon fill="#63b8ff" stroke="#63b8ff" points="344.17,-164.56 333.85,-162.16 340.43,-170.47 344.17,-164.56"/>
</a>
</g>
</g>
<!-- Node13 -->
<g id="Node000013" class="node">
<title>Node13</title>
<g id="a_Node000013"><a xlink:href="enum_8hpp.html" target="_top" xlink:title=" ">
<polygon fill="white" stroke="#666666" points="387.5,-96 275.5,-96 275.5,-66 387.5,-66 387.5,-96"/>
<text text-anchor="start" x="283.5" y="-84" font-family="Helvetica,sans-Serif" font-size="10.00">meltpooldg/utilities</text>
<text text-anchor="middle" x="331.5" y="-73" font-family="Helvetica,sans-Serif" font-size="10.00">/enum.hpp</text>
</a>
</g>
</g>
<!-- Node10&#45;&gt;Node13 -->
<g id="edge25_Node000010_Node000013" class="edge">
<title>Node10&#45;&gt;Node13</title>
<g id="a_edge25_Node000010_Node000013"><a xlink:title=" ">
<path fill="none" stroke="#63b8ff" d="M411.65,-197.94C410.07,-181.09 405.52,-152.56 392.5,-132 385.16,-120.41 374.22,-110.23 363.62,-102.13"/>
<polygon fill="#63b8ff" stroke="#63b8ff" points="365.42,-99.12 355.27,-96.1 361.33,-104.79 365.42,-99.12"/>
</a>
</g>
</g>
<!-- Node15 -->
<g id="Node000015" class="node">
<title>Node15</title>
<g id="a_Node000015"><a xlink:title=" ">
<polygon fill="#e0e0e0" stroke="#999999" points="618.5,-30 506.5,-30 506.5,0 618.5,0 618.5,-30"/>
<text text-anchor="start" x="514.5" y="-18" font-family="Helvetica,sans-Serif" font-size="10.00">meltpooldg/utilities</text>
<text text-anchor="middle" x="562.5" y="-7" font-family="Helvetica,sans-Serif" font-size="10.00">/better_enum.hpp</text>
</a>
</g>
</g>
<!-- Node10&#45;&gt;Node15 -->
<g id="edge24_Node000010_Node000015" class="edge">
<title>Node10&#45;&gt;Node15</title>
<g id="a_edge24_Node000010_Node000015"><a xlink:title=" ">
<path fill="none" stroke="#63b8ff" d="M415.3,-197.91C421.5,-169.82 438.78,-106.09 474.5,-66 486.12,-52.96 501.97,-42.51 517.03,-34.61"/>
<polygon fill="#63b8ff" stroke="#63b8ff" points="518.87,-37.6 526.26,-30.01 515.75,-31.34 518.87,-37.6"/>
</a>
</g>
</g>
<!-- Node18 -->
<g id="Node000018" class="node">
<title>Node18</title>
<g id="a_Node000018"><a xlink:title=" ">
<polygon fill="#e0e0e0" stroke="#999999" points="680.5,-24.5 636.5,-24.5 636.5,-5.5 680.5,-5.5 680.5,-24.5"/>
<text text-anchor="middle" x="658.5" y="-12.5" font-family="Helvetica,sans-Serif" font-size="10.00">string</text>
</a>
</g>
</g>
<!-- Node10&#45;&gt;Node18 -->
<g id="edge26_Node000010_Node000018" class="edge">
<title>Node10&#45;&gt;Node18</title>
<g id="a_edge26_Node000010_Node000018"><a xlink:title=" ">
<path fill="none" stroke="#63b8ff" d="M428.79,-197.9C447.56,-181.74 479.44,-154.57 507.5,-132 553.95,-94.63 609.89,-52.34 638.9,-30.61"/>
<polygon fill="#63b8ff" stroke="#63b8ff" points="641.09,-33.35 647,-24.56 636.89,-27.74 641.09,-33.35"/>
</a>
</g>
</g>
<!-- Node19 -->
<g id="Node000019" class="node">
<title>Node19</title>
<g id="a_Node000019"><a xlink:href="nonlinear__solver__data_8hpp.html" target="_top" xlink:title=" ">
<polygon fill="white" stroke="#666666" points="242,-96 93,-96 93,-66 242,-66 242,-96"/>
<text text-anchor="start" x="101" y="-84" font-family="Helvetica,sans-Serif" font-size="10.00">meltpooldg/linear_algebra</text>
<text text-anchor="middle" x="167.5" y="-73" font-family="Helvetica,sans-Serif" font-size="10.00">/nonlinear_solver_data.hpp</text>
</a>
</g>
</g>
<!-- Node10&#45;&gt;Node19 -->
<g id="edge22_Node000010_Node000019" class="edge">
<title>Node10&#45;&gt;Node19</title>
<g id="a_edge22_Node000010_Node000019"><a xlink:title=" ">
<path fill="none" stroke="#63b8ff" d="M334.41,-202.08C300.07,-194.95 260.58,-182.77 229.5,-162 207.85,-147.53 190.49,-123.01 179.71,-104.92"/>
<polygon fill="#63b8ff" stroke="#63b8ff" points="182.69,-103.08 174.68,-96.14 176.61,-106.55 182.69,-103.08"/>
</a>
</g>
</g>
<!-- Node12&#45;&gt;Node13 -->
<g id="edge15_Node000012_Node000013" class="edge">
<title>Node12&#45;&gt;Node13</title>
<g id="a_edge15_Node000012_Node000013"><a xlink:title=" ">
<path fill="none" stroke="#63b8ff" d="M315.94,-131.8C318.32,-124.17 321.32,-114.57 324.05,-105.84"/>
<polygon fill="#63b8ff" stroke="#63b8ff" points="327.43,-106.75 327.07,-96.16 320.75,-104.66 327.43,-106.75"/>
</a>
</g>
</g>
<!-- Node13&#45;&gt;Node11 -->
<g id="edge16_Node000013_Node000011" class="edge">
<title>Node13&#45;&gt;Node11</title>
<g id="a_edge16_Node000013_Node000011"><a xlink:title=" ">
<path fill="none" stroke="#63b8ff" d="M275.32,-66.58C233.65,-56.63 176.62,-43.01 132.23,-32.41"/>
<polygon fill="#63b8ff" stroke="#63b8ff" points="132.93,-28.98 122.39,-30.06 131.3,-35.79 132.93,-28.98"/>
</a>
</g>
</g>
<!-- Node14 -->
<g id="Node000014" class="node">
<title>Node14</title>
<g id="a_Node000014"><a xlink:title=" ">
<polygon fill="#e0e0e0" stroke="#999999" points="488,-24.5 363,-24.5 363,-5.5 488,-5.5 488,-24.5"/>
<text text-anchor="middle" x="425.5" y="-12.5" font-family="Helvetica,sans-Serif" font-size="10.00">deal.II/base/patterns.h</text>
</a>
</g>
</g>
<!-- Node13&#45;&gt;Node14 -->
<g id="edge17_Node000013_Node000014" class="edge">
<title>Node13&#45;&gt;Node14</title>
<g id="a_edge17_Node000013_Node000014"><a xlink:title=" ">
<path fill="none" stroke="#63b8ff" d="M352.36,-65.8C367.82,-55.27 388.82,-40.97 404.35,-30.4"/>
<polygon fill="#63b8ff" stroke="#63b8ff" points="406.49,-33.18 412.78,-24.66 402.55,-27.39 406.49,-33.18"/>
</a>
</g>
</g>
<!-- Node13&#45;&gt;Node15 -->
<g id="edge18_Node000013_Node000015" class="edge">
<title>Node13&#45;&gt;Node15</title>
<g id="a_edge18_Node000013_Node000015"><a xlink:title=" ">
<path fill="none" stroke="#63b8ff" d="M382.19,-65.95C417.55,-56.16 464.88,-43.05 502.18,-32.71"/>
<polygon fill="#63b8ff" stroke="#63b8ff" points="503.22,-36.06 511.92,-30.01 501.35,-29.31 503.22,-36.06"/>
</a>
</g>
</g>
<!-- Node16 -->
<g id="Node000016" class="node">
<title>Node16</title>
<g id="a_Node000016"><a xlink:title=" ">
<polygon fill="#e0e0e0" stroke="#999999" points="270,-30 145,-30 145,0 270,0 270,-30"/>
<text text-anchor="start" x="153" y="-18" font-family="Helvetica,sans-Serif" font-size="10.00">boost/algorithm/string</text>
<text text-anchor="middle" x="207.5" y="-7" font-family="Helvetica,sans-Serif" font-size="10.00">/join.hpp</text>
</a>
</g>
</g>
<!-- Node13&#45;&gt;Node16 -->
<g id="edge19_Node000013_Node000016" class="edge">
<title>Node13&#45;&gt;Node16</title>
<g id="a_edge19_Node000013_Node000016"><a xlink:title=" ">
<path fill="none" stroke="#63b8ff" d="M304.29,-65.95C286.52,-56.78 263.12,-44.71 243.78,-34.72"/>
<polygon fill="#63b8ff" stroke="#63b8ff" points="245.14,-31.49 234.65,-30.01 241.93,-37.71 245.14,-31.49"/>
</a>
</g>
</g>
<!-- Node17 -->
<g id="Node000017" class="node">
<title>Node17</title>
<g id="a_Node000017"><a xlink:title=" ">
<polygon fill="#e0e0e0" stroke="#999999" points="344.5,-24.5 288.5,-24.5 288.5,-5.5 344.5,-5.5 344.5,-24.5"/>
<text text-anchor="middle" x="316.5" y="-12.5" font-family="Helvetica,sans-Serif" font-size="10.00">sstream</text>
</a>
</g>
</g>
<!-- Node13&#45;&gt;Node17 -->
<g id="edge20_Node000013_Node000017" class="edge">
<title>Node13&#45;&gt;Node17</title>
<g id="a_edge20_Node000013_Node000017"><a xlink:title=" ">
<path fill="none" stroke="#63b8ff" d="M328.17,-65.8C326.04,-56.7 323.25,-44.79 320.93,-34.9"/>
<polygon fill="#63b8ff" stroke="#63b8ff" points="324.26,-33.78 318.57,-24.84 317.45,-35.38 324.26,-33.78"/>
</a>
</g>
</g>
<!-- Node13&#45;&gt;Node18 -->
<g id="edge21_Node000013_Node000018" class="edge">
<title>Node13&#45;&gt;Node18</title>
<g id="a_edge21_Node000013_Node000018"><a xlink:title=" ">
<path fill="none" stroke="#63b8ff" d="M387.58,-74.86C447.86,-68.34 545.99,-54.84 627.5,-30 629.13,-29.5 630.79,-28.94 632.45,-28.33"/>
<polygon fill="#63b8ff" stroke="#63b8ff" points="633.83,-31.55 641.75,-24.51 631.17,-25.07 633.83,-31.55"/>
</a>
</g>
</g>
<!-- Node19&#45;&gt;Node11 -->
<g id="edge23_Node000019_Node000011" class="edge">
<title>Node19&#45;&gt;Node11</title>
<g id="a_edge23_Node000019_Node000011"><a xlink:title=" ">
<path fill="none" stroke="#63b8ff" d="M144.68,-65.95C130.05,-56.95 110.86,-45.14 94.81,-35.27"/>
<polygon fill="#63b8ff" stroke="#63b8ff" points="96.62,-32.27 86.27,-30.01 92.95,-38.23 96.62,-32.27"/>
</a>
</g>
</g>
</g>
</svg>

<g id="navigator" transform="translate(0 0)" fill="#404254">
  <rect fill="#f2f5e9" fill-opacity="0.5" stroke="#606060" stroke-width=".5" x="0" y="0" width="60" height="60"/>
  <use id="zoomplus" xlink:href="#zoomPlus" x="17" y="9" onmousedown="handleZoom(evt,'in')"/>
  <use id="zoomminus" xlink:href="#zoomMin" x="42" y="9" onmousedown="handleZoom(evt,'out')"/>
  <use id="reset" xlink:href="#resetDef" x="30" y="36" onmousedown="handleReset()"/>
   <use id="arrowup" xlink:href="#arrowUp" x="0" y="0" onmousedown="handlePan(0,-1)"/>
  <use id="arrowright" xlink:href="#arrowRight" x="0" y="0" onmousedown="handlePan(1,0)"/>
  <use id="arrowdown" xlink:href="#arrowDown" x="0" y="0" onmousedown="handlePan(0,1)"/>
  <use id="arrowleft" xlink:href="#arrowLeft" x="0" y="0" onmousedown="handlePan(-1,0)"/>
</g>
<svg viewBox="0 0 15 15" width="100%" height="30px" preserveAspectRatio="xMaxYMin meet">
 <g id="arrow_out" transform="scale(0.3 0.3)">
  <a xlink:href="explicit__low__storage__runge__kutta__integrator_8cpp__incl_org.svg" target="_base">
   <rect id="button" ry="5" rx="5" y="6" x="6" height="38" width="38"
        fill="#f2f5e9" fill-opacity="0.5" stroke="#606060" stroke-width="1.0"/>
   <path id="arrow"
     d="M 11.500037,31.436501 C 11.940474,20.09759 22.043105,11.32322 32.158766,21.979434 L 37.068811,17.246167 C 37.068811,17.246167 37.088388,32 37.088388,32 L 22.160133,31.978069 C 22.160133,31.978069 26.997745,27.140456 26.997745,27.140456 C 18.528582,18.264221 13.291696,25.230495 11.500037,31.436501 z"
     style="fill:#404040;"/>
  </a>
 </g>
</svg>

<style type='text/css'>
<![CDATA[
[data-mouse-over-selected='false'] { opacity: 0.7; }
[data-mouse-over-selected='true']  { opacity: 1.0; }
]]>
</style>
<script type="application/ecmascript"><![CDATA[
document.addEventListener('DOMContentLoaded', (event) => {
  highlightEdges();
  highlightAdjacentNodes();
});
]]></script>
</svg>
