<?xml version="1.0" encoding="UTF-8" standalone="no"?>
<!DOCTYPE svg PUBLIC "-//W3C//DTD SVG 1.1//EN"
 "http://www.w3.org/Graphics/SVG/1.1/DTD/svg11.dtd">
<!-- Generated by graphviz version 2.43.0 (0)
 -->
<!-- Title: source/time_integration/explicit_low_storage_runge_kutta_integrator.cpp Pages: 1 -->
<!--zoomable 456 -->

<svg id="main" version="1.1" xmlns="http://www.w3.org/2000/svg" xmlns:xlink="http://www.w3.org/1999/xlink" xml:space="preserve" onload="init(evt)">
<style type="text/css"><![CDATA[
.node, .edge {opacity: 0.7;}
.node.selected, .edge.selected {opacity: 1;}
.edge:hover path { stroke: red; }
.edge:hover polygon { stroke: red; fill: red; }
]]></style>

<defs>
  <circle id="rim" cx="0" cy="0" r="7"/>
  <circle id="rim2" cx="0" cy="0" r="3.5"/>
  <g id="zoomPlus">
    <use xlink:href="#rim" fill="#404040"><set attributeName="fill" to="#808080" begin="zoomplus.mouseover" end="zoomplus.mouseout"/></use>
    <path d="M-4,0h8M0,-4v8" fill="none" stroke="white" stroke-width="1.5" pointer-events="none"/>
  </g>
  <g id="zoomMin">
    <use xlink:href="#rim" fill="#404040"><set attributeName="fill" to="#808080" begin="zoomminus.mouseover" end="zoomminus.mouseout"/></use>
    <path d="M-4,0h8" fill="none" stroke="white" stroke-width="1.5" pointer-events="none"/>
  </g>
  <g id="arrowUp" transform="translate(30 24)">
    <use xlink:href="#rim"/>
    <path pointer-events="none" fill="none" stroke="white" stroke-width="1.5" d="M0,-3.0v7 M-2.5,-0.5L0,-3.0L2.5,-0.5"/>
  </g>
  <g id="arrowRight" transform="rotate(90) translate(36 -43)">
    <use xlink:href="#rim"/>
    <path pointer-events="none" fill="none" stroke="white" stroke-width="1.5" d="M0,-3.0v7 M-2.5,-0.5L0,-3.0L2.5,-0.5"/>
  </g>
  <g id="arrowDown" transform="rotate(180) translate(-30 -48)">
    <use xlink:href="#rim"/>
    <path pointer-events="none" fill="none" stroke="white" stroke-width="1.5" d="M0,-3.0v7 M-2.5,-0.5L0,-3.0L2.5,-0.5"/>
  </g>
  <g id="arrowLeft" transform="rotate(270) translate(-36 17)">
    <use xlink:href="#rim"/>
    <path pointer-events="none" fill="none" stroke="white" stroke-width="1.5" d="M0,-3.0v7 M-2.5,-0.5L0,-3.0L2.5,-0.5"/>
  </g>
  <g id="resetDef">
    <use xlink:href="#rim2" fill="#404040"><set attributeName="fill" to="#808080" begin="reset.mouseover" end="reset.mouseout"/></use>
  </g>
</defs>
<script type="application/ecmascript">
var viewWidth = 860;
var viewHeight = 456;
var sectionId = 'dynsection-0';
</script>
<script type="application/ecmascript" xlink:href="svg.min.js"/>
<svg id="graph" class="graph">
<g id="viewport">
<title>source/time_integration/explicit_low_storage_runge_kutta_integrator.cpp</title>
<!-- Node1 -->
<g id="Node000001" class="node">
<title>Node1</title>
<g id="a_Node000001"><a xlink:title=" ">
<polygon fill="#999999" stroke="#666666" points="425,-448 273,-448 273,-407 425,-407 425,-448"/>
<text text-anchor="start" x="281" y="-436" font-family="Helvetica,sans-Serif" font-size="10.00">source/time_integration</text>
<text text-anchor="start" x="281" y="-425" font-family="Helvetica,sans-Serif" font-size="10.00">/explicit_low_storage</text>
<text text-anchor="middle" x="349" y="-414" font-family="Helvetica,sans-Serif" font-size="10.00">_runge_kutta_integrator.cpp</text>
</a>
</g>
</g>
<!-- Node2 -->
<g id="Node000002" class="node">
<title>Node2</title>
<g id="a_Node000002"><a xlink:title=" ">
<polygon fill="#e0e0e0" stroke="#999999" points="138,-156.5 0,-156.5 0,-137.5 138,-137.5 138,-156.5"/>
<text text-anchor="middle" x="69" y="-144.5" font-family="Helvetica,sans-Serif" font-size="10.00">deal.II/base/exceptions.h</text>
</a>
</g>
</g>
<!-- Node1&#45;&gt;Node2 -->
<g id="edge1_Node000001_Node000002" class="edge">
<title>Node1&#45;&gt;Node2</title>
<g id="a_edge1_Node000001_Node000002"><a xlink:title=" ">
<path fill="none" stroke="#63b8ff" d="M307.01,-406.89C248.06,-377.05 141.96,-314.44 88,-228 76.33,-209.31 71.83,-184.07 70.09,-166.97"/>
<polygon fill="#63b8ff" stroke="#63b8ff" points="73.55,-166.32 69.27,-156.62 66.57,-166.87 73.55,-166.32"/>
</a>
</g>
</g>
<!-- Node3 -->
<g id="Node000003" class="node">
<title>Node3</title>
<g id="a_Node000003"><a xlink:href="explicit__low__storage__runge__kutta__integrator_8hpp.html" target="_top" xlink:title=" ">
<polygon fill="white" stroke="#666666" points="427,-371 271,-371 271,-330 427,-330 427,-371"/>
<text text-anchor="start" x="279" y="-359" font-family="Helvetica,sans-Serif" font-size="10.00">meltpooldg/time_integration</text>
<text text-anchor="start" x="279" y="-348" font-family="Helvetica,sans-Serif" font-size="10.00">/explicit_low_storage_runge</text>
<text text-anchor="middle" x="349" y="-337" font-family="Helvetica,sans-Serif" font-size="10.00">_kutta_integrator.hpp</text>
</a>
</g>
</g>
<!-- Node1&#45;&gt;Node3 -->
<g id="edge2_Node000001_Node000003" class="edge">
<title>Node1&#45;&gt;Node3</title>
<g id="a_edge2_Node000001_Node000003"><a xlink:title=" ">
<path fill="none" stroke="#63b8ff" d="M349,-406.79C349,-398.96 349,-389.77 349,-381.16"/>
<polygon fill="#63b8ff" stroke="#63b8ff" points="352.5,-381.07 349,-371.07 345.5,-381.07 352.5,-381.07"/>
</a>
</g>
</g>
<!-- Node20 -->
<g id="Node000020" class="node">
<title>Node20</title>
<g id="a_Node000020"><a xlink:title=" ">
<polygon fill="#e0e0e0" stroke="#999999" points="490.5,-360 445.5,-360 445.5,-341 490.5,-341 490.5,-360"/>
<text text-anchor="middle" x="468" y="-348" font-family="Helvetica,sans-Serif" font-size="10.00">utility</text>
</a>
</g>
</g>
<!-- Node1&#45;&gt;Node20 -->
<g id="edge31_Node000001_Node000020" class="edge">
<title>Node1&#45;&gt;Node20</title>
<g id="a_edge31_Node000001_Node000020"><a xlink:title=" ">
<path fill="none" stroke="#63b8ff" d="M379.96,-406.99C400.57,-394 427.19,-377.22 445.73,-365.53"/>
<polygon fill="#63b8ff" stroke="#63b8ff" points="447.78,-368.38 454.37,-360.09 444.05,-362.46 447.78,-368.38"/>
</a>
</g>
</g>
<!-- Node4 -->
<g id="Node000004" class="node">
<title>Node4</title>
<g id="a_Node000004"><a xlink:title=" ">
<polygon fill="#e0e0e0" stroke="#999999" points="389,-228 271,-228 271,-198 389,-198 389,-228"/>
<text text-anchor="start" x="279" y="-216" font-family="Helvetica,sans-Serif" font-size="10.00">deal.II/lac/la_parallel</text>
<text text-anchor="middle" x="330" y="-205" font-family="Helvetica,sans-Serif" font-size="10.00">_vector.h</text>
</a>
</g>
</g>
<!-- Node3&#45;&gt;Node4 -->
<g id="edge3_Node000003_Node000004" class="edge">
<title>Node3&#45;&gt;Node4</title>
<g id="a_edge3_Node000003_Node000004"><a xlink:title=" ">
<path fill="none" stroke="#63b8ff" d="M300.13,-329.77C285.17,-321.14 270.44,-309.4 262,-294 255.59,-282.31 255.98,-275.9 262,-264 268.33,-251.5 279.41,-241.36 290.82,-233.56"/>
<polygon fill="#63b8ff" stroke="#63b8ff" points="292.95,-236.36 299.54,-228.06 289.21,-230.44 292.95,-236.36"/>
</a>
</g>
</g>
<!-- Node5 -->
<g id="Node000005" class="node">
<title>Node5</title>
<g id="a_Node000005"><a xlink:href="solution__history_8hpp.html" target="_top" xlink:title=" ">
<polygon fill="white" stroke="#666666" points="253,-228 97,-228 97,-198 253,-198 253,-228"/>
<text text-anchor="start" x="105" y="-216" font-family="Helvetica,sans-Serif" font-size="10.00">meltpooldg/time_integration</text>
<text text-anchor="middle" x="175" y="-205" font-family="Helvetica,sans-Serif" font-size="10.00">/solution_history.hpp</text>
</a>
</g>
</g>
<!-- Node3&#45;&gt;Node5 -->
<g id="edge4_Node000003_Node000005" class="edge">
<title>Node3&#45;&gt;Node5</title>
<g id="a_edge4_Node000003_Node000005"><a xlink:title=" ">
<path fill="none" stroke="#63b8ff" d="M310.08,-329.8C292.28,-320.04 271.35,-307.47 254,-294 231.48,-276.51 208.93,-252.93 193.73,-235.9"/>
<polygon fill="#63b8ff" stroke="#63b8ff" points="196.12,-233.32 186.88,-228.13 190.86,-237.95 196.12,-233.32"/>
</a>
</g>
</g>
<!-- Node6 -->
<g id="Node000006" class="node">
<title>Node6</title>
<g id="a_Node000006"><a xlink:title=" ">
<polygon fill="#e0e0e0" stroke="#999999" points="303.5,-156.5 238.5,-156.5 238.5,-137.5 303.5,-137.5 303.5,-156.5"/>
<text text-anchor="middle" x="271" y="-144.5" font-family="Helvetica,sans-Serif" font-size="10.00">functional</text>
</a>
</g>
</g>
<!-- Node3&#45;&gt;Node6 -->
<g id="edge29_Node000003_Node000006" class="edge">
<title>Node3&#45;&gt;Node6</title>
<g id="a_edge29_Node000003_Node000006"><a xlink:title=" ">
<path fill="none" stroke="#63b8ff" d="M397.87,-329.77C412.83,-321.14 427.56,-309.4 436,-294 450.86,-266.89 414.92,-198.94 414,-198 413,-196.98 347.61,-174.36 305.61,-159.89"/>
<polygon fill="#63b8ff" stroke="#63b8ff" points="306.6,-156.53 296,-156.59 304.32,-163.15 306.6,-156.53"/>
</a>
</g>
</g>
<!-- Node8 -->
<g id="Node000008" class="node">
<title>Node8</title>
<g id="a_Node000008"><a xlink:title=" ">
<polygon fill="#e0e0e0" stroke="#999999" points="368.5,-156.5 321.5,-156.5 321.5,-137.5 368.5,-137.5 368.5,-156.5"/>
<text text-anchor="middle" x="345" y="-144.5" font-family="Helvetica,sans-Serif" font-size="10.00">vector</text>
</a>
</g>
</g>
<!-- Node3&#45;&gt;Node8 -->
<g id="edge30_Node000003_Node000008" class="edge">
<title>Node3&#45;&gt;Node8</title>
<g id="a_edge30_Node000003_Node000008"><a xlink:title=" ">
<path fill="none" stroke="#63b8ff" d="M424.97,-329.86C442.32,-321.67 458.68,-310.15 469,-294 491.98,-258.05 492.87,-233.36 469,-198 458.47,-182.4 411.49,-166.49 378.49,-156.93"/>
<polygon fill="#63b8ff" stroke="#63b8ff" points="379.33,-153.53 368.75,-154.18 377.42,-160.27 379.33,-153.53"/>
</a>
</g>
</g>
<!-- Node9 -->
<g id="Node000009" class="node">
<title>Node9</title>
<g id="a_Node000009"><a xlink:href="time__integrator__base_8hpp.html" target="_top" xlink:title=" ">
<polygon fill="white" stroke="#666666" points="427,-294 271,-294 271,-264 427,-264 427,-294"/>
<text text-anchor="start" x="279" y="-282" font-family="Helvetica,sans-Serif" font-size="10.00">meltpooldg/time_integration</text>
<text text-anchor="middle" x="349" y="-271" font-family="Helvetica,sans-Serif" font-size="10.00">/time_integrator_base.hpp</text>
</a>
</g>
</g>
<!-- Node3&#45;&gt;Node9 -->
<g id="edge9_Node000003_Node000009" class="edge">
<title>Node3&#45;&gt;Node9</title>
<g id="a_edge9_Node000003_Node000009"><a xlink:title=" ">
<path fill="none" stroke="#63b8ff" d="M349,-329.77C349,-321.85 349,-312.63 349,-304.3"/>
<polygon fill="#63b8ff" stroke="#63b8ff" points="352.5,-304.04 349,-294.04 345.5,-304.04 352.5,-304.04"/>
</a>
</g>
</g>
<!-- Node10 -->
<g id="Node000010" class="node">
<title>Node10</title>
<g id="a_Node000010"><a xlink:href="time__integrator__data_8hpp.html" target="_top" xlink:title=" ">
<polygon fill="white" stroke="#666666" points="677,-228 521,-228 521,-198 677,-198 677,-228"/>
<text text-anchor="start" x="529" y="-216" font-family="Helvetica,sans-Serif" font-size="10.00">meltpooldg/time_integration</text>
<text text-anchor="middle" x="599" y="-205" font-family="Helvetica,sans-Serif" font-size="10.00">/time_integrator_data.hpp</text>
</a>
</g>
</g>
<!-- Node3&#45;&gt;Node10 -->
<g id="edge28_Node000003_Node000010" class="edge">
<title>Node3&#45;&gt;Node10</title>
<g id="a_edge28_Node000003_Node000010"><a xlink:title=" ">
<path fill="none" stroke="#63b8ff" d="M422.71,-329.99C450.18,-321.1 480.99,-309.13 507,-294 534.29,-278.13 561.01,-253.59 578.56,-235.88"/>
<polygon fill="#63b8ff" stroke="#63b8ff" points="581.49,-237.89 585.95,-228.28 576.47,-233.01 581.49,-237.89"/>
</a>
</g>
</g>
<!-- Node5&#45;&gt;Node2 -->
<g id="edge5_Node000005_Node000002" class="edge">
<title>Node5&#45;&gt;Node2</title>
<g id="a_edge5_Node000005_Node000002"><a xlink:title=" ">
<path fill="none" stroke="#63b8ff" d="M151.74,-197.95C133.89,-187.18 109.38,-172.38 91.67,-161.69"/>
<polygon fill="#63b8ff" stroke="#63b8ff" points="93.48,-158.69 83.11,-156.52 89.86,-164.68 93.48,-158.69"/>
</a>
</g>
</g>
<!-- Node5&#45;&gt;Node6 -->
<g id="edge6_Node000005_Node000006" class="edge">
<title>Node5&#45;&gt;Node6</title>
<g id="a_edge6_Node000005_Node000006"><a xlink:title=" ">
<path fill="none" stroke="#63b8ff" d="M196.31,-197.8C212.1,-187.27 233.54,-172.97 249.4,-162.4"/>
<polygon fill="#63b8ff" stroke="#63b8ff" points="251.63,-165.12 258.01,-156.66 247.75,-159.29 251.63,-165.12"/>
</a>
</g>
</g>
<!-- Node7 -->
<g id="Node000007" class="node">
<title>Node7</title>
<g id="a_Node000007"><a xlink:title=" ">
<polygon fill="#e0e0e0" stroke="#999999" points="214,-156.5 156,-156.5 156,-137.5 214,-137.5 214,-156.5"/>
<text text-anchor="middle" x="185" y="-144.5" font-family="Helvetica,sans-Serif" font-size="10.00">memory</text>
</a>
</g>
</g>
<!-- Node5&#45;&gt;Node7 -->
<g id="edge7_Node000005_Node000007" class="edge">
<title>Node5&#45;&gt;Node7</title>
<g id="a_edge7_Node000005_Node000007"><a xlink:title=" ">
<path fill="none" stroke="#63b8ff" d="M177.22,-197.8C178.64,-188.7 180.5,-176.79 182.05,-166.9"/>
<polygon fill="#63b8ff" stroke="#63b8ff" points="185.53,-167.26 183.62,-156.84 178.62,-166.18 185.53,-167.26"/>
</a>
</g>
</g>
<!-- Node5&#45;&gt;Node8 -->
<g id="edge8_Node000005_Node000008" class="edge">
<title>Node5&#45;&gt;Node8</title>
<g id="a_edge8_Node000005_Node000008"><a xlink:title=" ">
<path fill="none" stroke="#63b8ff" d="M215.07,-197.99C242.49,-188.25 279.61,-174.77 312,-162 313.2,-161.52 314.43,-161.03 315.67,-160.53"/>
<polygon fill="#63b8ff" stroke="#63b8ff" points="317.27,-163.66 325.17,-156.61 314.6,-157.19 317.27,-163.66"/>
</a>
</g>
</g>
<!-- Node9&#45;&gt;Node4 -->
<g id="edge10_Node000009_Node000004" class="edge">
<title>Node9&#45;&gt;Node4</title>
<g id="a_edge10_Node000009_Node000004"><a xlink:title=" ">
<path fill="none" stroke="#63b8ff" d="M344.78,-263.8C342.52,-256.17 339.67,-246.57 337.08,-237.84"/>
<polygon fill="#63b8ff" stroke="#63b8ff" points="340.41,-236.75 334.2,-228.16 333.7,-238.75 340.41,-236.75"/>
</a>
</g>
</g>
<!-- Node9&#45;&gt;Node5 -->
<g id="edge11_Node000009_Node000005" class="edge">
<title>Node9&#45;&gt;Node5</title>
<g id="a_edge11_Node000009_Node000005"><a xlink:title=" ">
<path fill="none" stroke="#63b8ff" d="M310.81,-263.95C284.86,-254.41 250.34,-241.71 222.6,-231.51"/>
<polygon fill="#63b8ff" stroke="#63b8ff" points="223.69,-228.18 213.1,-228.01 221.27,-234.75 223.69,-228.18"/>
</a>
</g>
</g>
<!-- Node9&#45;&gt;Node6 -->
<g id="edge27_Node000009_Node000006" class="edge">
<title>Node9&#45;&gt;Node6</title>
<g id="a_edge27_Node000009_Node000006"><a xlink:title=" ">
<path fill="none" stroke="#63b8ff" d="M368.2,-263.87C387.79,-247.68 413.31,-220.48 398,-198 395.2,-193.88 341.26,-173.59 304.59,-160.16"/>
<polygon fill="#63b8ff" stroke="#63b8ff" points="305.35,-156.71 294.76,-156.57 302.95,-163.29 305.35,-156.71"/>
</a>
</g>
</g>
<!-- Node9&#45;&gt;Node10 -->
<g id="edge12_Node000009_Node000010" class="edge">
<title>Node9&#45;&gt;Node10</title>
<g id="a_edge12_Node000009_Node000010"><a xlink:title=" ">
<path fill="none" stroke="#63b8ff" d="M403.86,-263.95C442.37,-254.1 494.01,-240.88 534.49,-230.51"/>
<polygon fill="#63b8ff" stroke="#63b8ff" points="535.44,-233.88 544.26,-228.01 533.71,-227.1 535.44,-233.88"/>
</a>
</g>
</g>
<!-- Node11 -->
<g id="Node000011" class="node">
<title>Node11</title>
<g id="a_Node000011"><a xlink:title=" ">
<polygon fill="#e0e0e0" stroke="#999999" points="822.5,-30 695.5,-30 695.5,0 822.5,0 822.5,-30"/>
<text text-anchor="start" x="703.5" y="-18" font-family="Helvetica,sans-Serif" font-size="10.00">deal.II/base/parameter</text>
<text text-anchor="middle" x="759" y="-7" font-family="Helvetica,sans-Serif" font-size="10.00">_handler.h</text>
</a>
</g>
</g>
<!-- Node10&#45;&gt;Node11 -->
<g id="edge13_Node000010_Node000011" class="edge">
<title>Node10&#45;&gt;Node11</title>
<g id="a_edge13_Node000010_Node000011"><a xlink:title=" ">
<path fill="none" stroke="#63b8ff" d="M608.15,-197.79C631.45,-161.66 691.36,-68.86 694,-66 704.26,-54.89 717.2,-44.4 728.82,-35.91"/>
<polygon fill="#63b8ff" stroke="#63b8ff" points="730.87,-38.75 737,-30.11 726.82,-33.05 730.87,-38.75"/>
</a>
</g>
</g>
<!-- Node12 -->
<g id="Node000012" class="node">
<title>Node12</title>
<g id="a_Node000012"><a xlink:href="linear__solver__data_8hpp.html" target="_top" xlink:title=" ">
<polygon fill="white" stroke="#666666" points="570.5,-162 425.5,-162 425.5,-132 570.5,-132 570.5,-162"/>
<text text-anchor="start" x="433.5" y="-150" font-family="Helvetica,sans-Serif" font-size="10.00">meltpooldg/linear_algebra</text>
<text text-anchor="middle" x="498" y="-139" font-family="Helvetica,sans-Serif" font-size="10.00">/linear_solver_data.hpp</text>
</a>
</g>
</g>
<!-- Node10&#45;&gt;Node12 -->
<g id="edge14_Node000010_Node000012" class="edge">
<title>Node10&#45;&gt;Node12</title>
<g id="a_edge14_Node000010_Node000012"><a xlink:title=" ">
<path fill="none" stroke="#63b8ff" d="M576.58,-197.8C562.59,-188.93 544.38,-177.39 529.02,-167.66"/>
<polygon fill="#63b8ff" stroke="#63b8ff" points="530.67,-164.56 520.35,-162.16 526.93,-170.47 530.67,-164.56"/>
</a>
</g>
</g>
<!-- Node13 -->
<g id="Node000013" class="node">
<title>Node13</title>
<g id="a_Node000013"><a xlink:href="enum_8hpp.html" target="_top" xlink:title=" ">
<polygon fill="white" stroke="#666666" points="524,-96 412,-96 412,-66 524,-66 524,-96"/>
<text text-anchor="start" x="420" y="-84" font-family="Helvetica,sans-Serif" font-size="10.00">meltpooldg/utilities</text>
<text text-anchor="middle" x="468" y="-73" font-family="Helvetica,sans-Serif" font-size="10.00">/enum.hpp</text>
</a>
</g>
</g>
<!-- Node10&#45;&gt;Node13 -->
<g id="edge25_Node000010_Node000013" class="edge">
<title>Node10&#45;&gt;Node13</title>
<g id="a_edge25_Node000010_Node000013"><a xlink:title=" ">
<path fill="none" stroke="#63b8ff" d="M521,-200.18C477.73,-191.86 430.06,-179.13 417,-162 402.26,-142.66 421.49,-119.01 440.4,-102.47"/>
<polygon fill="#63b8ff" stroke="#63b8ff" points="442.66,-105.14 448.12,-96.06 438.19,-99.76 442.66,-105.14"/>
</a>
</g>
</g>
<!-- Node15 -->
<g id="Node000015" class="node">
<title>Node15</title>
<g id="a_Node000015"><a xlink:title=" ">
<polygon fill="#e0e0e0" stroke="#999999" points="615,-30 503,-30 503,0 615,0 615,-30"/>
<text text-anchor="start" x="511" y="-18" font-family="Helvetica,sans-Serif" font-size="10.00">meltpooldg/utilities</text>
<text text-anchor="middle" x="559" y="-7" font-family="Helvetica,sans-Serif" font-size="10.00">/better_enum.hpp</text>
</a>
</g>
</g>
<!-- Node10&#45;&gt;Node15 -->
<g id="edge24_Node000010_Node000015" class="edge">
<title>Node10&#45;&gt;Node15</title>
<g id="a_edge24_Node000010_Node000015"><a xlink:title=" ">
<path fill="none" stroke="#63b8ff" d="M596.12,-197.9C589.36,-164.79 572.41,-81.7 563.95,-40.27"/>
<polygon fill="#63b8ff" stroke="#63b8ff" points="567.33,-39.33 561.9,-30.23 560.47,-40.73 567.33,-39.33"/>
</a>
</g>
</g>
<!-- Node18 -->
<g id="Node000018" class="node">
<title>Node18</title>
<g id="a_Node000018"><a xlink:title=" ">
<polygon fill="#e0e0e0" stroke="#999999" points="677,-24.5 633,-24.5 633,-5.5 677,-5.5 677,-24.5"/>
<text text-anchor="middle" x="655" y="-12.5" font-family="Helvetica,sans-Serif" font-size="10.00">string</text>
</a>
</g>
</g>
<!-- Node10&#45;&gt;Node18 -->
<g id="edge26_Node000010_Node000018" class="edge">
<title>Node10&#45;&gt;Node18</title>
<g id="a_edge26_Node000010_Node000018"><a xlink:title=" ">
<path fill="none" stroke="#63b8ff" d="M603.03,-197.9C612.95,-163.16 638.6,-73.4 649.72,-34.47"/>
<polygon fill="#63b8ff" stroke="#63b8ff" points="653.12,-35.3 652.51,-24.73 646.39,-33.38 653.12,-35.3"/>
</a>
</g>
</g>
<!-- Node19 -->
<g id="Node000019" class="node">
<title>Node19</title>
<g id="a_Node000019"><a xlink:href="nonlinear__solver__data_8hpp.html" target="_top" xlink:title=" ">
<polygon fill="white" stroke="#666666" points="851.5,-96 702.5,-96 702.5,-66 851.5,-66 851.5,-96"/>
<text text-anchor="start" x="710.5" y="-84" font-family="Helvetica,sans-Serif" font-size="10.00">meltpooldg/linear_algebra</text>
<text text-anchor="middle" x="777" y="-73" font-family="Helvetica,sans-Serif" font-size="10.00">/nonlinear_solver_data.hpp</text>
</a>
</g>
</g>
<!-- Node10&#45;&gt;Node19 -->
<g id="edge22_Node000010_Node000019" class="edge">
<title>Node10&#45;&gt;Node19</title>
<g id="a_edge22_Node000010_Node000019"><a xlink:title=" ">
<path fill="none" stroke="#63b8ff" d="M628.4,-197.85C646.5,-188.62 669.83,-175.76 689,-162 713.73,-144.25 739.16,-120.42 756.28,-103.39"/>
<polygon fill="#63b8ff" stroke="#63b8ff" points="758.97,-105.65 763.53,-96.09 754,-100.72 758.97,-105.65"/>
</a>
</g>
</g>
<!-- Node12&#45;&gt;Node13 -->
<g id="edge15_Node000012_Node000013" class="edge">
<title>Node12&#45;&gt;Node13</title>
<g id="a_edge15_Node000012_Node000013"><a xlink:title=" ">
<path fill="none" stroke="#63b8ff" d="M491.34,-131.8C487.69,-124.01 483.07,-114.16 478.91,-105.28"/>
<polygon fill="#63b8ff" stroke="#63b8ff" points="482.05,-103.73 474.64,-96.16 475.71,-106.7 482.05,-103.73"/>
</a>
</g>
</g>
<!-- Node13&#45;&gt;Node11 -->
<g id="edge16_Node000013_Node000011" class="edge">
<title>Node13&#45;&gt;Node11</title>
<g id="a_edge16_Node000013_Node000011"><a xlink:title=" ">
<path fill="none" stroke="#63b8ff" d="M524.11,-67.66C570.09,-57.55 635.53,-43.15 685.66,-32.13"/>
<polygon fill="#63b8ff" stroke="#63b8ff" points="686.46,-35.54 695.48,-29.97 684.96,-28.7 686.46,-35.54"/>
</a>
</g>
</g>
<!-- Node14 -->
<g id="Node000014" class="node">
<title>Node14</title>
<g id="a_Node000014"><a xlink:title=" ">
<polygon fill="#e0e0e0" stroke="#999999" points="267.5,-24.5 142.5,-24.5 142.5,-5.5 267.5,-5.5 267.5,-24.5"/>
<text text-anchor="middle" x="205" y="-12.5" font-family="Helvetica,sans-Serif" font-size="10.00">deal.II/base/patterns.h</text>
</a>
</g>
</g>
<!-- Node13&#45;&gt;Node14 -->
<g id="edge17_Node000013_Node000014" class="edge">
<title>Node13&#45;&gt;Node14</title>
<g id="a_edge17_Node000013_Node000014"><a xlink:title=" ">
<path fill="none" stroke="#63b8ff" d="M411.9,-66.35C363.52,-54.57 294.56,-37.79 249.79,-26.9"/>
<polygon fill="#63b8ff" stroke="#63b8ff" points="250.61,-23.5 240.07,-24.53 248.95,-30.3 250.61,-23.5"/>
</a>
</g>
</g>
<!-- Node13&#45;&gt;Node15 -->
<g id="edge18_Node000013_Node000015" class="edge">
<title>Node13&#45;&gt;Node15</title>
<g id="a_edge18_Node000013_Node000015"><a xlink:title=" ">
<path fill="none" stroke="#63b8ff" d="M488.2,-65.8C500.68,-57.01 516.9,-45.61 530.66,-35.93"/>
<polygon fill="#63b8ff" stroke="#63b8ff" points="532.69,-38.78 538.86,-30.16 528.67,-33.05 532.69,-38.78"/>
</a>
</g>
</g>
<!-- Node16 -->
<g id="Node000016" class="node">
<title>Node16</title>
<g id="a_Node000016"><a xlink:title=" ">
<polygon fill="#e0e0e0" stroke="#999999" points="410.5,-30 285.5,-30 285.5,0 410.5,0 410.5,-30"/>
<text text-anchor="start" x="293.5" y="-18" font-family="Helvetica,sans-Serif" font-size="10.00">boost/algorithm/string</text>
<text text-anchor="middle" x="348" y="-7" font-family="Helvetica,sans-Serif" font-size="10.00">/join.hpp</text>
</a>
</g>
</g>
<!-- Node13&#45;&gt;Node16 -->
<g id="edge19_Node000013_Node000016" class="edge">
<title>Node13&#45;&gt;Node16</title>
<g id="a_edge19_Node000013_Node000016"><a xlink:title=" ">
<path fill="none" stroke="#63b8ff" d="M441.67,-65.95C424.47,-56.78 401.82,-44.71 383.11,-34.72"/>
<polygon fill="#63b8ff" stroke="#63b8ff" points="384.74,-31.63 374.27,-30.01 381.45,-37.81 384.74,-31.63"/>
</a>
</g>
</g>
<!-- Node17 -->
<g id="Node000017" class="node">
<title>Node17</title>
<g id="a_Node000017"><a xlink:title=" ">
<polygon fill="#e0e0e0" stroke="#999999" points="485,-24.5 429,-24.5 429,-5.5 485,-5.5 485,-24.5"/>
<text text-anchor="middle" x="457" y="-12.5" font-family="Helvetica,sans-Serif" font-size="10.00">sstream</text>
</a>
</g>
</g>
<!-- Node13&#45;&gt;Node17 -->
<g id="edge20_Node000013_Node000017" class="edge">
<title>Node13&#45;&gt;Node17</title>
<g id="a_edge20_Node000013_Node000017"><a xlink:title=" ">
<path fill="none" stroke="#63b8ff" d="M465.56,-65.8C464,-56.7 461.95,-44.79 460.25,-34.9"/>
<polygon fill="#63b8ff" stroke="#63b8ff" points="463.66,-34.11 458.52,-24.84 456.76,-35.29 463.66,-34.11"/>
</a>
</g>
</g>
<!-- Node13&#45;&gt;Node18 -->
<g id="edge21_Node000013_Node000018" class="edge">
<title>Node13&#45;&gt;Node18</title>
<g id="a_edge21_Node000013_Node000018"><a xlink:title=" ">
<path fill="none" stroke="#63b8ff" d="M516.63,-65.97C547.66,-56.64 588.56,-43.63 624,-30 625.18,-29.55 626.38,-29.07 627.58,-28.58"/>
<polygon fill="#63b8ff" stroke="#63b8ff" points="628.97,-31.79 636.79,-24.64 626.22,-25.36 628.97,-31.79"/>
</a>
</g>
</g>
<!-- Node19&#45;&gt;Node11 -->
<g id="edge23_Node000019_Node000011" class="edge">
<title>Node19&#45;&gt;Node11</title>
<g id="a_edge23_Node000019_Node000011"><a xlink:title=" ">
<path fill="none" stroke="#63b8ff" d="M773.01,-65.8C770.86,-58.17 768.16,-48.57 765.71,-39.84"/>
<polygon fill="#63b8ff" stroke="#63b8ff" points="769.06,-38.84 762.98,-30.16 762.32,-40.74 769.06,-38.84"/>
</a>
</g>
</g>
</g>
</svg>

<g id="navigator" transform="translate(0 0)" fill="#404254">
  <rect fill="#f2f5e9" fill-opacity="0.5" stroke="#606060" stroke-width=".5" x="0" y="0" width="60" height="60"/>
  <use id="zoomplus" xlink:href="#zoomPlus" x="17" y="9" onmousedown="handleZoom(evt,'in')"/>
  <use id="zoomminus" xlink:href="#zoomMin" x="42" y="9" onmousedown="handleZoom(evt,'out')"/>
  <use id="reset" xlink:href="#resetDef" x="30" y="36" onmousedown="handleReset()"/>
   <use id="arrowup" xlink:href="#arrowUp" x="0" y="0" onmousedown="handlePan(0,-1)"/>
  <use id="arrowright" xlink:href="#arrowRight" x="0" y="0" onmousedown="handlePan(1,0)"/>
  <use id="arrowdown" xlink:href="#arrowDown" x="0" y="0" onmousedown="handlePan(0,1)"/>
  <use id="arrowleft" xlink:href="#arrowLeft" x="0" y="0" onmousedown="handlePan(-1,0)"/>
</g>
<svg viewBox="0 0 15 15" width="100%" height="30px" preserveAspectRatio="xMaxYMin meet">
 <g id="arrow_out" transform="scale(0.3 0.3)">
  <a xlink:href="explicit__low__storage__runge__kutta__integrator_8cpp__incl_org.svg" target="_base">
   <rect id="button" ry="5" rx="5" y="6" x="6" height="38" width="38"
        fill="#f2f5e9" fill-opacity="0.5" stroke="#606060" stroke-width="1.0"/>
   <path id="arrow"
     d="M 11.500037,31.436501 C 11.940474,20.09759 22.043105,11.32322 32.158766,21.979434 L 37.068811,17.246167 C 37.068811,17.246167 37.088388,32 37.088388,32 L 22.160133,31.978069 C 22.160133,31.978069 26.997745,27.140456 26.997745,27.140456 C 18.528582,18.264221 13.291696,25.230495 11.500037,31.436501 z"
     style="fill:#404040;"/>
  </a>
 </g>
</svg>

<style type='text/css'>
<![CDATA[
[data-mouse-over-selected='false'] { opacity: 0.7; }
[data-mouse-over-selected='true']  { opacity: 1.0; }
]]>
</style>
<script type="application/ecmascript"><![CDATA[
document.addEventListener('DOMContentLoaded', (event) => {
  highlightEdges();
  highlightAdjacentNodes();
});
]]></script>
</svg>
