<?xml version="1.0" encoding="UTF-8" standalone="no"?>
<!DOCTYPE svg PUBLIC "-//W3C//DTD SVG 1.1//EN"
 "http://www.w3.org/Graphics/SVG/1.1/DTD/svg11.dtd">
<!-- Generated by graphviz version 2.43.0 (0)
 -->
<!-- Title: include/meltpooldg/time_integration/explicit_low_storage_runge_kutta_integrator.hpp Pages: 1 -->
<svg width="1056pt" height="390pt"
 viewBox="0.00 0.00 1056.14 390.00" xmlns="http://www.w3.org/2000/svg" xmlns:xlink="http://www.w3.org/1999/xlink">
<g id="graph0" class="graph" transform="scale(1 1) rotate(0) translate(4 386)">
<title>include/meltpooldg/time_integration/explicit_low_storage_runge_kutta_integrator.hpp</title>
<!-- Node1 -->
<g id="Node000001" class="node">
<title>Node1</title>
<g id="a_Node000001"><a xlink:title=" ">
<polygon fill="#999999" stroke="#666666" points="303.14,-382 159.14,-382 159.14,-330 303.14,-330 303.14,-382"/>
<text text-anchor="start" x="167.14" y="-370" font-family="Helvetica,sans-Serif" font-size="10.00">include/meltpooldg</text>
<text text-anchor="start" x="167.14" y="-359" font-family="Helvetica,sans-Serif" font-size="10.00">/time_integration/explicit</text>
<text text-anchor="start" x="167.14" y="-348" font-family="Helvetica,sans-Serif" font-size="10.00">_low_storage_runge_kutta</text>
<text text-anchor="middle" x="231.14" y="-337" font-family="Helvetica,sans-Serif" font-size="10.00">_integrator.hpp</text>
</a>
</g>
</g>
<!-- Node2 -->
<g id="Node000002" class="node">
<title>Node2</title>
<g id="a_Node000002"><a xlink:title=" ">
<polygon fill="#e0e0e0" stroke="#999999" points="131.14,-228 13.14,-228 13.14,-198 131.14,-198 131.14,-228"/>
<text text-anchor="start" x="21.14" y="-216" font-family="Helvetica,sans-Serif" font-size="10.00">deal.II/lac/la_parallel</text>
<text text-anchor="middle" x="72.14" y="-205" font-family="Helvetica,sans-Serif" font-size="10.00">_vector.h</text>
</a>
</g>
</g>
<!-- Node1&#45;&gt;Node2 -->
<g id="edge1_Node000001_Node000002" class="edge">
<title>Node1&#45;&gt;Node2</title>
<g id="a_edge1_Node000001_Node000002"><a xlink:title=" ">
<path fill="none" stroke="#63b8ff" d="M158.94,-337.85C134.24,-328.64 108.49,-314.74 91.14,-294 78.22,-278.55 73.77,-255.83 72.37,-238.55"/>
<polygon fill="#63b8ff" stroke="#63b8ff" points="75.85,-237.91 71.84,-228.1 68.86,-238.27 75.85,-237.91"/>
</a>
</g>
</g>
<!-- Node3 -->
<g id="Node000003" class="node">
<title>Node3</title>
<g id="a_Node000003"><a xlink:href="solution__history_8hpp.html" target="_top" xlink:title=" ">
<polygon fill="white" stroke="#666666" points="343.14,-228 187.14,-228 187.14,-198 343.14,-198 343.14,-228"/>
<text text-anchor="start" x="195.14" y="-216" font-family="Helvetica,sans-Serif" font-size="10.00">meltpooldg/time_integration</text>
<text text-anchor="middle" x="265.14" y="-205" font-family="Helvetica,sans-Serif" font-size="10.00">/solution_history.hpp</text>
</a>
</g>
</g>
<!-- Node1&#45;&gt;Node3 -->
<g id="edge2_Node000001_Node000003" class="edge">
<title>Node1&#45;&gt;Node3</title>
<g id="a_edge2_Node000001_Node000003"><a xlink:title=" ">
<path fill="none" stroke="#63b8ff" d="M248.97,-329.82C255.4,-319.27 261.87,-306.56 265.14,-294 269.88,-275.76 269.59,-254.38 268.28,-238.31"/>
<polygon fill="#63b8ff" stroke="#63b8ff" points="271.74,-237.74 267.25,-228.14 264.77,-238.45 271.74,-237.74"/>
</a>
</g>
</g>
<!-- Node5 -->
<g id="Node000005" class="node">
<title>Node5</title>
<g id="a_Node000005"><a xlink:title=" ">
<polygon fill="#e0e0e0" stroke="#999999" points="96.64,-156.5 31.64,-156.5 31.64,-137.5 96.64,-137.5 96.64,-156.5"/>
<text text-anchor="middle" x="64.14" y="-144.5" font-family="Helvetica,sans-Serif" font-size="10.00">functional</text>
</a>
</g>
</g>
<!-- Node1&#45;&gt;Node5 -->
<g id="edge27_Node000001_Node000005" class="edge">
<title>Node1&#45;&gt;Node5</title>
<g id="a_edge27_Node000001_Node000005"><a xlink:title=" ">
<path fill="none" stroke="#63b8ff" d="M158.89,-339.33C102.89,-322.64 30.53,-289.77 4.14,-228 -1.1,-215.74 -1.52,-210.07 4.14,-198 11.29,-182.74 25.64,-170.51 38.52,-161.96"/>
<polygon fill="#63b8ff" stroke="#63b8ff" points="40.44,-164.89 47.09,-156.65 36.75,-158.94 40.44,-164.89"/>
</a>
</g>
</g>
<!-- Node7 -->
<g id="Node000007" class="node">
<title>Node7</title>
<g id="a_Node000007"><a xlink:title=" ">
<polygon fill="#e0e0e0" stroke="#999999" points="394.64,-156.5 347.64,-156.5 347.64,-137.5 394.64,-137.5 394.64,-156.5"/>
<text text-anchor="middle" x="371.14" y="-144.5" font-family="Helvetica,sans-Serif" font-size="10.00">vector</text>
</a>
</g>
</g>
<!-- Node1&#45;&gt;Node7 -->
<g id="edge28_Node000001_Node000007" class="edge">
<title>Node1&#45;&gt;Node7</title>
<g id="a_edge28_Node000001_Node000007"><a xlink:title=" ">
<path fill="none" stroke="#63b8ff" d="M263.07,-329.98C290.78,-306.56 329.84,-269.09 352.14,-228 362.54,-208.83 367.29,-184.06 369.43,-167.19"/>
<polygon fill="#63b8ff" stroke="#63b8ff" points="372.95,-167.26 370.54,-156.94 365.99,-166.51 372.95,-167.26"/>
</a>
</g>
</g>
<!-- Node8 -->
<g id="Node000008" class="node">
<title>Node8</title>
<g id="a_Node000008"><a xlink:href="time__integrator__base_8hpp.html" target="_top" xlink:title=" ">
<polygon fill="white" stroke="#666666" points="256.14,-294 100.14,-294 100.14,-264 256.14,-264 256.14,-294"/>
<text text-anchor="start" x="108.14" y="-282" font-family="Helvetica,sans-Serif" font-size="10.00">meltpooldg/time_integration</text>
<text text-anchor="middle" x="178.14" y="-271" font-family="Helvetica,sans-Serif" font-size="10.00">/time_integrator_base.hpp</text>
</a>
</g>
</g>
<!-- Node1&#45;&gt;Node8 -->
<g id="edge7_Node000001_Node000008" class="edge">
<title>Node1&#45;&gt;Node8</title>
<g id="a_edge7_Node000001_Node000008"><a xlink:title=" ">
<path fill="none" stroke="#63b8ff" d="M213.19,-329.61C207.04,-320.9 200.2,-311.22 194.21,-302.74"/>
<polygon fill="#63b8ff" stroke="#63b8ff" points="196.96,-300.57 188.33,-294.43 191.25,-304.61 196.96,-300.57"/>
</a>
</g>
</g>
<!-- Node9 -->
<g id="Node000009" class="node">
<title>Node9</title>
<g id="a_Node000009"><a xlink:href="time__integrator__data_8hpp.html" target="_top" xlink:title=" ">
<polygon fill="white" stroke="#666666" points="567.14,-228 411.14,-228 411.14,-198 567.14,-198 567.14,-228"/>
<text text-anchor="start" x="419.14" y="-216" font-family="Helvetica,sans-Serif" font-size="10.00">meltpooldg/time_integration</text>
<text text-anchor="middle" x="489.14" y="-205" font-family="Helvetica,sans-Serif" font-size="10.00">/time_integrator_data.hpp</text>
</a>
</g>
</g>
<!-- Node1&#45;&gt;Node9 -->
<g id="edge26_Node000001_Node000009" class="edge">
<title>Node1&#45;&gt;Node9</title>
<g id="a_edge26_Node000001_Node000009"><a xlink:title=" ">
<path fill="none" stroke="#63b8ff" d="M303.2,-331.2C329.71,-321.23 359.51,-308.55 385.14,-294 414.91,-277.1 445.57,-252.47 465.81,-235.01"/>
<polygon fill="#63b8ff" stroke="#63b8ff" points="468.33,-237.46 473.56,-228.24 463.72,-232.19 468.33,-237.46"/>
</a>
</g>
</g>
<!-- Node4 -->
<g id="Node000004" class="node">
<title>Node4</title>
<g id="a_Node000004"><a xlink:title=" ">
<polygon fill="#e0e0e0" stroke="#999999" points="329.14,-156.5 191.14,-156.5 191.14,-137.5 329.14,-137.5 329.14,-156.5"/>
<text text-anchor="middle" x="260.14" y="-144.5" font-family="Helvetica,sans-Serif" font-size="10.00">deal.II/base/exceptions.h</text>
</a>
</g>
</g>
<!-- Node3&#45;&gt;Node4 -->
<g id="edge3_Node000003_Node000004" class="edge">
<title>Node3&#45;&gt;Node4</title>
<g id="a_edge3_Node000003_Node000004"><a xlink:title=" ">
<path fill="none" stroke="#63b8ff" d="M264.03,-197.8C263.32,-188.7 262.39,-176.79 261.61,-166.9"/>
<polygon fill="#63b8ff" stroke="#63b8ff" points="265.1,-166.54 260.83,-156.84 258.12,-167.09 265.1,-166.54"/>
</a>
</g>
</g>
<!-- Node3&#45;&gt;Node5 -->
<g id="edge4_Node000003_Node000005" class="edge">
<title>Node3&#45;&gt;Node5</title>
<g id="a_edge4_Node000003_Node000005"><a xlink:title=" ">
<path fill="none" stroke="#63b8ff" d="M219.84,-197.98C187.99,-188.07 144.4,-174.39 106.14,-162 103.85,-161.26 101.5,-160.49 99.14,-159.72"/>
<polygon fill="#63b8ff" stroke="#63b8ff" points="100.03,-156.32 89.43,-156.51 97.83,-162.97 100.03,-156.32"/>
</a>
</g>
</g>
<!-- Node6 -->
<g id="Node000006" class="node">
<title>Node6</title>
<g id="a_Node000006"><a xlink:title=" ">
<polygon fill="#e0e0e0" stroke="#999999" points="173.14,-156.5 115.14,-156.5 115.14,-137.5 173.14,-137.5 173.14,-156.5"/>
<text text-anchor="middle" x="144.14" y="-144.5" font-family="Helvetica,sans-Serif" font-size="10.00">memory</text>
</a>
</g>
</g>
<!-- Node3&#45;&gt;Node6 -->
<g id="edge5_Node000003_Node000006" class="edge">
<title>Node3&#45;&gt;Node6</title>
<g id="a_edge5_Node000003_Node000006"><a xlink:title=" ">
<path fill="none" stroke="#63b8ff" d="M238.58,-197.95C217.92,-187.03 189.46,-171.97 169.19,-161.25"/>
<polygon fill="#63b8ff" stroke="#63b8ff" points="170.72,-158.1 160.24,-156.52 167.44,-164.29 170.72,-158.1"/>
</a>
</g>
</g>
<!-- Node3&#45;&gt;Node7 -->
<g id="edge6_Node000003_Node000007" class="edge">
<title>Node3&#45;&gt;Node7</title>
<g id="a_edge6_Node000003_Node000007"><a xlink:title=" ">
<path fill="none" stroke="#63b8ff" d="M288.4,-197.95C306.25,-187.18 330.76,-172.38 348.46,-161.69"/>
<polygon fill="#63b8ff" stroke="#63b8ff" points="350.28,-164.68 357.03,-156.52 346.66,-158.69 350.28,-164.68"/>
</a>
</g>
</g>
<!-- Node8&#45;&gt;Node2 -->
<g id="edge8_Node000008_Node000002" class="edge">
<title>Node8&#45;&gt;Node2</title>
<g id="a_edge8_Node000008_Node000002"><a xlink:title=" ">
<path fill="none" stroke="#63b8ff" d="M154.88,-263.95C139.96,-254.95 120.41,-243.14 104.05,-233.27"/>
<polygon fill="#63b8ff" stroke="#63b8ff" points="105.72,-230.18 95.35,-228.01 102.1,-236.18 105.72,-230.18"/>
</a>
</g>
</g>
<!-- Node8&#45;&gt;Node3 -->
<g id="edge9_Node000008_Node000003" class="edge">
<title>Node8&#45;&gt;Node3</title>
<g id="a_edge9_Node000008_Node000003"><a xlink:title=" ">
<path fill="none" stroke="#63b8ff" d="M197.45,-263.8C209.27,-255.1 224.6,-243.82 237.67,-234.2"/>
<polygon fill="#63b8ff" stroke="#63b8ff" points="239.9,-236.91 245.88,-228.16 235.75,-231.27 239.9,-236.91"/>
</a>
</g>
</g>
<!-- Node8&#45;&gt;Node5 -->
<g id="edge25_Node000008_Node000005" class="edge">
<title>Node8&#45;&gt;Node5</title>
<g id="a_edge25_Node000008_Node000005"><a xlink:title=" ">
<path fill="none" stroke="#63b8ff" d="M174.06,-263.96C168.56,-246.87 157.4,-217.83 140.14,-198 126.83,-182.71 107.76,-170.18 92.05,-161.49"/>
<polygon fill="#63b8ff" stroke="#63b8ff" points="93.26,-158.17 82.79,-156.58 89.99,-164.36 93.26,-158.17"/>
</a>
</g>
</g>
<!-- Node8&#45;&gt;Node9 -->
<g id="edge10_Node000008_Node000009" class="edge">
<title>Node8&#45;&gt;Node9</title>
<g id="a_edge10_Node000008_Node000009"><a xlink:title=" ">
<path fill="none" stroke="#63b8ff" d="M246.39,-263.95C295,-253.95 360.43,-240.49 411.12,-230.06"/>
<polygon fill="#63b8ff" stroke="#63b8ff" points="411.96,-233.46 421.05,-228.01 410.55,-226.6 411.96,-233.46"/>
</a>
</g>
</g>
<!-- Node10 -->
<g id="Node000010" class="node">
<title>Node10</title>
<g id="a_Node000010"><a xlink:title=" ">
<polygon fill="#e0e0e0" stroke="#999999" points="557.64,-30 430.64,-30 430.64,0 557.64,0 557.64,-30"/>
<text text-anchor="start" x="438.64" y="-18" font-family="Helvetica,sans-Serif" font-size="10.00">deal.II/base/parameter</text>
<text text-anchor="middle" x="494.14" y="-7" font-family="Helvetica,sans-Serif" font-size="10.00">_handler.h</text>
</a>
</g>
</g>
<!-- Node9&#45;&gt;Node10 -->
<g id="edge11_Node000009_Node000010" class="edge">
<title>Node9&#45;&gt;Node10</title>
<g id="a_edge11_Node000009_Node000010"><a xlink:title=" ">
<path fill="none" stroke="#63b8ff" d="M486.41,-197.84C481.8,-171.67 473.54,-114.05 480.14,-66 481.33,-57.33 483.63,-48.05 486.02,-39.87"/>
<polygon fill="#63b8ff" stroke="#63b8ff" points="489.4,-40.81 489.04,-30.22 482.71,-38.72 489.4,-40.81"/>
</a>
</g>
</g>
<!-- Node11 -->
<g id="Node000011" class="node">
<title>Node11</title>
<g id="a_Node000011"><a xlink:href="linear__solver__data_8hpp.html" target="_top" xlink:title=" ">
<polygon fill="white" stroke="#666666" points="676.64,-162 531.64,-162 531.64,-132 676.64,-132 676.64,-162"/>
<text text-anchor="start" x="539.64" y="-150" font-family="Helvetica,sans-Serif" font-size="10.00">meltpooldg/linear_algebra</text>
<text text-anchor="middle" x="604.14" y="-139" font-family="Helvetica,sans-Serif" font-size="10.00">/linear_solver_data.hpp</text>
</a>
</g>
</g>
<!-- Node9&#45;&gt;Node11 -->
<g id="edge12_Node000009_Node000011" class="edge">
<title>Node9&#45;&gt;Node11</title>
<g id="a_edge12_Node000009_Node000011"><a xlink:title=" ">
<path fill="none" stroke="#63b8ff" d="M514.37,-197.95C530.7,-188.87 552.16,-176.93 570,-167"/>
<polygon fill="#63b8ff" stroke="#63b8ff" points="571.92,-169.93 578.96,-162.01 568.52,-163.82 571.92,-169.93"/>
</a>
</g>
</g>
<!-- Node12 -->
<g id="Node000012" class="node">
<title>Node12</title>
<g id="a_Node000012"><a xlink:href="enum_8hpp.html" target="_top" xlink:title=" ">
<polygon fill="white" stroke="#666666" points="767.14,-96 655.14,-96 655.14,-66 767.14,-66 767.14,-96"/>
<text text-anchor="start" x="663.14" y="-84" font-family="Helvetica,sans-Serif" font-size="10.00">meltpooldg/utilities</text>
<text text-anchor="middle" x="711.14" y="-73" font-family="Helvetica,sans-Serif" font-size="10.00">/enum.hpp</text>
</a>
</g>
</g>
<!-- Node9&#45;&gt;Node12 -->
<g id="edge23_Node000009_Node000012" class="edge">
<title>Node9&#45;&gt;Node12</title>
<g id="a_edge23_Node000009_Node000012"><a xlink:title=" ">
<path fill="none" stroke="#63b8ff" d="M567.4,-209.76C607.54,-204.66 654.5,-191.97 686.14,-162 701.43,-147.51 707.42,-123.83 709.74,-105.98"/>
<polygon fill="#63b8ff" stroke="#63b8ff" points="713.23,-106.31 710.74,-96.01 706.26,-105.61 713.23,-106.31"/>
</a>
</g>
</g>
<!-- Node14 -->
<g id="Node000014" class="node">
<title>Node14</title>
<g id="a_Node000014"><a xlink:title=" ">
<polygon fill="#e0e0e0" stroke="#999999" points="1048.14,-30 936.14,-30 936.14,0 1048.14,0 1048.14,-30"/>
<text text-anchor="start" x="944.14" y="-18" font-family="Helvetica,sans-Serif" font-size="10.00">meltpooldg/utilities</text>
<text text-anchor="middle" x="992.14" y="-7" font-family="Helvetica,sans-Serif" font-size="10.00">/better_enum.hpp</text>
</a>
</g>
</g>
<!-- Node9&#45;&gt;Node14 -->
<g id="edge22_Node000009_Node000014" class="edge">
<title>Node9&#45;&gt;Node14</title>
<g id="a_edge22_Node000009_Node000014"><a xlink:title=" ">
<path fill="none" stroke="#63b8ff" d="M567.27,-199.09C609.69,-190.86 662.61,-178.6 708.14,-162 804.44,-126.88 909.78,-66.33 960.87,-35.4"/>
<polygon fill="#63b8ff" stroke="#63b8ff" points="962.75,-38.36 969.47,-30.17 959.11,-32.38 962.75,-38.36"/>
</a>
</g>
</g>
<!-- Node17 -->
<g id="Node000017" class="node">
<title>Node17</title>
<g id="a_Node000017"><a xlink:title=" ">
<polygon fill="#e0e0e0" stroke="#999999" points="412.14,-24.5 368.14,-24.5 368.14,-5.5 412.14,-5.5 412.14,-24.5"/>
<text text-anchor="middle" x="390.14" y="-12.5" font-family="Helvetica,sans-Serif" font-size="10.00">string</text>
</a>
</g>
</g>
<!-- Node9&#45;&gt;Node17 -->
<g id="edge24_Node000009_Node000017" class="edge">
<title>Node9&#45;&gt;Node17</title>
<g id="a_edge24_Node000009_Node000017"><a xlink:title=" ">
<path fill="none" stroke="#63b8ff" d="M482.02,-197.9C464.35,-162.93 418.55,-72.25 399.09,-33.73"/>
<polygon fill="#63b8ff" stroke="#63b8ff" points="402.18,-32.07 394.55,-24.73 395.93,-35.23 402.18,-32.07"/>
</a>
</g>
</g>
<!-- Node18 -->
<g id="Node000018" class="node">
<title>Node18</title>
<g id="a_Node000018"><a xlink:href="nonlinear__solver__data_8hpp.html" target="_top" xlink:title=" ">
<polygon fill="white" stroke="#666666" points="637.64,-96 488.64,-96 488.64,-66 637.64,-66 637.64,-96"/>
<text text-anchor="start" x="496.64" y="-84" font-family="Helvetica,sans-Serif" font-size="10.00">meltpooldg/linear_algebra</text>
<text text-anchor="middle" x="563.14" y="-73" font-family="Helvetica,sans-Serif" font-size="10.00">/nonlinear_solver_data.hpp</text>
</a>
</g>
</g>
<!-- Node9&#45;&gt;Node18 -->
<g id="edge20_Node000009_Node000018" class="edge">
<title>Node9&#45;&gt;Node18</title>
<g id="a_edge20_Node000009_Node000018"><a xlink:title=" ">
<path fill="none" stroke="#63b8ff" d="M493.56,-197.82C499.02,-181.35 509.18,-153.66 522.14,-132 528.08,-122.07 535.88,-112.03 543.08,-103.58"/>
<polygon fill="#63b8ff" stroke="#63b8ff" points="545.75,-105.85 549.72,-96.02 540.49,-101.23 545.75,-105.85"/>
</a>
</g>
</g>
<!-- Node11&#45;&gt;Node12 -->
<g id="edge13_Node000011_Node000012" class="edge">
<title>Node11&#45;&gt;Node12</title>
<g id="a_edge13_Node000011_Node000012"><a xlink:title=" ">
<path fill="none" stroke="#63b8ff" d="M627.62,-131.95C642.67,-122.95 662.41,-111.14 678.92,-101.27"/>
<polygon fill="#63b8ff" stroke="#63b8ff" points="680.93,-104.15 687.71,-96.01 677.33,-98.14 680.93,-104.15"/>
</a>
</g>
</g>
<!-- Node12&#45;&gt;Node10 -->
<g id="edge14_Node000012_Node000010" class="edge">
<title>Node12&#45;&gt;Node10</title>
<g id="a_edge14_Node000012_Node000010"><a xlink:title=" ">
<path fill="none" stroke="#63b8ff" d="M663.52,-65.95C630.44,-56.2 586.22,-43.16 551.25,-32.84"/>
<polygon fill="#63b8ff" stroke="#63b8ff" points="552.23,-29.48 541.65,-30.01 550.25,-36.2 552.23,-29.48"/>
</a>
</g>
</g>
<!-- Node13 -->
<g id="Node000013" class="node">
<title>Node13</title>
<g id="a_Node000013"><a xlink:title=" ">
<polygon fill="#e0e0e0" stroke="#999999" points="700.64,-24.5 575.64,-24.5 575.64,-5.5 700.64,-5.5 700.64,-24.5"/>
<text text-anchor="middle" x="638.14" y="-12.5" font-family="Helvetica,sans-Serif" font-size="10.00">deal.II/base/patterns.h</text>
</a>
</g>
</g>
<!-- Node12&#45;&gt;Node13 -->
<g id="edge15_Node000012_Node000013" class="edge">
<title>Node12&#45;&gt;Node13</title>
<g id="a_edge15_Node000012_Node000013"><a xlink:title=" ">
<path fill="none" stroke="#63b8ff" d="M694.94,-65.8C683.33,-55.62 667.72,-41.93 655.79,-31.48"/>
<polygon fill="#63b8ff" stroke="#63b8ff" points="658.05,-28.8 648.23,-24.84 653.44,-34.07 658.05,-28.8"/>
</a>
</g>
</g>
<!-- Node12&#45;&gt;Node14 -->
<g id="edge16_Node000012_Node000014" class="edge">
<title>Node12&#45;&gt;Node14</title>
<g id="a_edge16_Node000012_Node000014"><a xlink:title=" ">
<path fill="none" stroke="#63b8ff" d="M767.33,-67.2C813.08,-56.78 877.77,-42.05 926.01,-31.06"/>
<polygon fill="#63b8ff" stroke="#63b8ff" points="927.07,-34.41 936.05,-28.78 925.52,-27.58 927.07,-34.41"/>
</a>
</g>
</g>
<!-- Node15 -->
<g id="Node000015" class="node">
<title>Node15</title>
<g id="a_Node000015"><a xlink:title=" ">
<polygon fill="#e0e0e0" stroke="#999999" points="843.64,-30 718.64,-30 718.64,0 843.64,0 843.64,-30"/>
<text text-anchor="start" x="726.64" y="-18" font-family="Helvetica,sans-Serif" font-size="10.00">boost/algorithm/string</text>
<text text-anchor="middle" x="781.14" y="-7" font-family="Helvetica,sans-Serif" font-size="10.00">/join.hpp</text>
</a>
</g>
</g>
<!-- Node12&#45;&gt;Node15 -->
<g id="edge17_Node000012_Node000015" class="edge">
<title>Node12&#45;&gt;Node15</title>
<g id="a_edge17_Node000012_Node000015"><a xlink:title=" ">
<path fill="none" stroke="#63b8ff" d="M726.67,-65.8C735.92,-57.34 747.82,-46.46 758.13,-37.03"/>
<polygon fill="#63b8ff" stroke="#63b8ff" points="760.63,-39.49 765.65,-30.16 755.9,-34.33 760.63,-39.49"/>
</a>
</g>
</g>
<!-- Node16 -->
<g id="Node000016" class="node">
<title>Node16</title>
<g id="a_Node000016"><a xlink:title=" ">
<polygon fill="#e0e0e0" stroke="#999999" points="918.14,-24.5 862.14,-24.5 862.14,-5.5 918.14,-5.5 918.14,-24.5"/>
<text text-anchor="middle" x="890.14" y="-12.5" font-family="Helvetica,sans-Serif" font-size="10.00">sstream</text>
</a>
</g>
</g>
<!-- Node12&#45;&gt;Node16 -->
<g id="edge18_Node000012_Node000016" class="edge">
<title>Node12&#45;&gt;Node16</title>
<g id="a_edge18_Node000012_Node000016"><a xlink:title=" ">
<path fill="none" stroke="#63b8ff" d="M751.93,-65.92C780.36,-56.03 819.13,-42.42 853.14,-30 854.78,-29.4 856.46,-28.78 858.15,-28.15"/>
<polygon fill="#63b8ff" stroke="#63b8ff" points="859.72,-31.3 867.86,-24.52 857.27,-24.75 859.72,-31.3"/>
</a>
</g>
</g>
<!-- Node12&#45;&gt;Node17 -->
<g id="edge19_Node000012_Node000017" class="edge">
<title>Node12&#45;&gt;Node17</title>
<g id="a_edge19_Node000012_Node000017"><a xlink:title=" ">
<path fill="none" stroke="#63b8ff" d="M654.8,-67.67C651.88,-67.09 648.97,-66.53 646.14,-66 546.6,-47.33 518.14,-59.1 421.14,-30 419.5,-29.51 417.84,-28.95 416.19,-28.35"/>
<polygon fill="#63b8ff" stroke="#63b8ff" points="417.46,-25.09 406.88,-24.54 414.81,-31.57 417.46,-25.09"/>
</a>
</g>
</g>
<!-- Node18&#45;&gt;Node10 -->
<g id="edge21_Node000018_Node000010" class="edge">
<title>Node18&#45;&gt;Node10</title>
<g id="a_edge21_Node000018_Node000010"><a xlink:title=" ">
<path fill="none" stroke="#63b8ff" d="M547.82,-65.8C538.71,-57.34 526.98,-46.46 516.81,-37.03"/>
<polygon fill="#63b8ff" stroke="#63b8ff" points="519.12,-34.4 509.41,-30.16 514.36,-39.53 519.12,-34.4"/>
</a>
</g>
</g>
</g>
</svg>
