<?xml version="1.0" encoding="UTF-8" standalone="no"?>
<!DOCTYPE svg PUBLIC "-//W3C//DTD SVG 1.1//EN"
 "http://www.w3.org/Graphics/SVG/1.1/DTD/svg11.dtd">
<!-- Generated by graphviz version 2.43.0 (0)
 -->
<!-- Title: source/utilities/fe_util.cpp Pages: 1 -->
<!--zoomable 302 -->

<svg id="main" version="1.1" xmlns="http://www.w3.org/2000/svg" xmlns:xlink="http://www.w3.org/1999/xlink" xml:space="preserve" onload="init(evt)">
<style type="text/css"><![CDATA[
.node, .edge {opacity: 0.7;}
.node.selected, .edge.selected {opacity: 1;}
.edge:hover path { stroke: red; }
.edge:hover polygon { stroke: red; fill: red; }
]]></style>

<defs>
  <circle id="rim" cx="0" cy="0" r="7"/>
  <circle id="rim2" cx="0" cy="0" r="3.5"/>
  <g id="zoomPlus">
    <use xlink:href="#rim" fill="#404040"><set attributeName="fill" to="#808080" begin="zoomplus.mouseover" end="zoomplus.mouseout"/></use>
    <path d="M-4,0h8M0,-4v8" fill="none" stroke="white" stroke-width="1.5" pointer-events="none"/>
  </g>
  <g id="zoomMin">
    <use xlink:href="#rim" fill="#404040"><set attributeName="fill" to="#808080" begin="zoomminus.mouseover" end="zoomminus.mouseout"/></use>
    <path d="M-4,0h8" fill="none" stroke="white" stroke-width="1.5" pointer-events="none"/>
  </g>
  <g id="arrowUp" transform="translate(30 24)">
    <use xlink:href="#rim"/>
    <path pointer-events="none" fill="none" stroke="white" stroke-width="1.5" d="M0,-3.0v7 M-2.5,-0.5L0,-3.0L2.5,-0.5"/>
  </g>
  <g id="arrowRight" transform="rotate(90) translate(36 -43)">
    <use xlink:href="#rim"/>
    <path pointer-events="none" fill="none" stroke="white" stroke-width="1.5" d="M0,-3.0v7 M-2.5,-0.5L0,-3.0L2.5,-0.5"/>
  </g>
  <g id="arrowDown" transform="rotate(180) translate(-30 -48)">
    <use xlink:href="#rim"/>
    <path pointer-events="none" fill="none" stroke="white" stroke-width="1.5" d="M0,-3.0v7 M-2.5,-0.5L0,-3.0L2.5,-0.5"/>
  </g>
  <g id="arrowLeft" transform="rotate(270) translate(-36 17)">
    <use xlink:href="#rim"/>
    <path pointer-events="none" fill="none" stroke="white" stroke-width="1.5" d="M0,-3.0v7 M-2.5,-0.5L0,-3.0L2.5,-0.5"/>
  </g>
  <g id="resetDef">
    <use xlink:href="#rim2" fill="#404040"><set attributeName="fill" to="#808080" begin="reset.mouseover" end="reset.mouseout"/></use>
  </g>
</defs>
<script type="application/ecmascript">
var viewWidth = 1485;
var viewHeight = 302;
var sectionId = 'dynsection-0';
</script>
<script type="application/ecmascript" xlink:href="svg.min.js"/>
<svg id="graph" class="graph">
<g id="viewport">
<title>source/utilities/fe_util.cpp</title>
<!-- Node1 -->
<g id="Node000001" class="node">
<title>Node1</title>
<g id="a_Node000001"><a xlink:title=" ">
<polygon fill="#999999" stroke="#666666" points="612.5,-294 511.5,-294 511.5,-264 612.5,-264 612.5,-294"/>
<text text-anchor="start" x="519.5" y="-282" font-family="Helvetica,sans-Serif" font-size="10.00">source/utilities/fe</text>
<text text-anchor="middle" x="562" y="-271" font-family="Helvetica,sans-Serif" font-size="10.00">_util.cpp</text>
</a>
</g>
</g>
<!-- Node2 -->
<g id="Node000002" class="node">
<title>Node2</title>
<g id="a_Node000002"><a xlink:title=" ">
<polygon fill="#e0e0e0" stroke="#999999" points="138,-156.5 0,-156.5 0,-137.5 138,-137.5 138,-156.5"/>
<text text-anchor="middle" x="69" y="-144.5" font-family="Helvetica,sans-Serif" font-size="10.00">deal.II/base/exceptions.h</text>
</a>
</g>
</g>
<!-- Node1&#45;&gt;Node2 -->
<g id="edge1_Node000001_Node000002" class="edge">
<title>Node1&#45;&gt;Node2</title>
<g id="a_edge1_Node000001_Node000002"><a xlink:title=" ">
<path fill="none" stroke="#63b8ff" d="M511.28,-267.65C465.93,-258.15 397.75,-243.27 339,-228 254.72,-206.09 157,-175.94 105.36,-159.62"/>
<polygon fill="#63b8ff" stroke="#63b8ff" points="106.25,-156.23 95.66,-156.55 104.13,-162.91 106.25,-156.23"/>
</a>
</g>
</g>
<!-- Node3 -->
<g id="Node000003" class="node">
<title>Node3</title>
<g id="a_Node000003"><a xlink:title=" ">
<polygon fill="#e0e0e0" stroke="#999999" points="845.5,-228 716.5,-228 716.5,-198 845.5,-198 845.5,-228"/>
<text text-anchor="start" x="724.5" y="-216" font-family="Helvetica,sans-Serif" font-size="10.00">deal.II/base/quadrature</text>
<text text-anchor="middle" x="781" y="-205" font-family="Helvetica,sans-Serif" font-size="10.00">_lib.h</text>
</a>
</g>
</g>
<!-- Node1&#45;&gt;Node3 -->
<g id="edge2_Node000001_Node000003" class="edge">
<title>Node1&#45;&gt;Node3</title>
<g id="a_edge2_Node000001_Node000003"><a xlink:title=" ">
<path fill="none" stroke="#63b8ff" d="M610.06,-263.95C643.44,-254.2 688.07,-241.16 723.36,-230.84"/>
<polygon fill="#63b8ff" stroke="#63b8ff" points="724.43,-234.18 733.05,-228.01 722.47,-227.46 724.43,-234.18"/>
</a>
</g>
</g>
<!-- Node4 -->
<g id="Node000004" class="node">
<title>Node4</title>
<g id="a_Node000004"><a xlink:title=" ">
<polygon fill="#e0e0e0" stroke="#999999" points="260,-156.5 156,-156.5 156,-137.5 260,-137.5 260,-156.5"/>
<text text-anchor="middle" x="208" y="-144.5" font-family="Helvetica,sans-Serif" font-size="10.00">deal.II/fe/fe_dgq.h</text>
</a>
</g>
</g>
<!-- Node1&#45;&gt;Node4 -->
<g id="edge3_Node000001_Node000004" class="edge">
<title>Node1&#45;&gt;Node4</title>
<g id="a_edge3_Node000001_Node000004"><a xlink:title=" ">
<path fill="none" stroke="#63b8ff" d="M520.61,-263.99C491.77,-254.14 452.44,-240.54 418,-228 354.16,-204.76 280,-176.12 239.1,-160.18"/>
<polygon fill="#63b8ff" stroke="#63b8ff" points="240.28,-156.88 229.69,-156.51 237.73,-163.4 240.28,-156.88"/>
</a>
</g>
</g>
<!-- Node5 -->
<g id="Node000005" class="node">
<title>Node5</title>
<g id="a_Node000005"><a xlink:title=" ">
<polygon fill="#e0e0e0" stroke="#999999" points="370,-156.5 278,-156.5 278,-137.5 370,-137.5 370,-156.5"/>
<text text-anchor="middle" x="324" y="-144.5" font-family="Helvetica,sans-Serif" font-size="10.00">deal.II/fe/fe_q.h</text>
</a>
</g>
</g>
<!-- Node1&#45;&gt;Node5 -->
<g id="edge4_Node000001_Node000005" class="edge">
<title>Node1&#45;&gt;Node5</title>
<g id="a_edge4_Node000001_Node000005"><a xlink:title=" ">
<path fill="none" stroke="#63b8ff" d="M536.08,-263.84C489.85,-238.59 393.8,-186.13 348.57,-161.42"/>
<polygon fill="#63b8ff" stroke="#63b8ff" points="350.18,-158.31 339.72,-156.59 346.82,-164.45 350.18,-158.31"/>
</a>
</g>
</g>
<!-- Node6 -->
<g id="Node000006" class="node">
<title>Node6</title>
<g id="a_Node000006"><a xlink:title=" ">
<polygon fill="#e0e0e0" stroke="#999999" points="517.5,-156.5 388.5,-156.5 388.5,-137.5 517.5,-137.5 517.5,-156.5"/>
<text text-anchor="middle" x="453" y="-144.5" font-family="Helvetica,sans-Serif" font-size="10.00">deal.II/fe/fe_q_iso_q1.h</text>
</a>
</g>
</g>
<!-- Node1&#45;&gt;Node6 -->
<g id="edge5_Node000001_Node000006" class="edge">
<title>Node1&#45;&gt;Node6</title>
<g id="a_edge5_Node000001_Node000006"><a xlink:title=" ">
<path fill="none" stroke="#63b8ff" d="M550.13,-263.84C529.8,-239.6 488.45,-190.28 466.85,-164.51"/>
<polygon fill="#63b8ff" stroke="#63b8ff" points="469.44,-162.16 460.34,-156.75 464.08,-166.66 469.44,-162.16"/>
</a>
</g>
</g>
<!-- Node7 -->
<g id="Node000007" class="node">
<title>Node7</title>
<g id="a_Node000007"><a xlink:title=" ">
<polygon fill="#e0e0e0" stroke="#999999" points="672.5,-156.5 535.5,-156.5 535.5,-137.5 672.5,-137.5 672.5,-156.5"/>
<text text-anchor="middle" x="604" y="-144.5" font-family="Helvetica,sans-Serif" font-size="10.00">deal.II/fe/fe_simplex_p.h</text>
</a>
</g>
</g>
<!-- Node1&#45;&gt;Node7 -->
<g id="edge6_Node000001_Node000007" class="edge">
<title>Node1&#45;&gt;Node7</title>
<g id="a_edge6_Node000001_Node000007"><a xlink:title=" ">
<path fill="none" stroke="#63b8ff" d="M551.91,-263.86C541.53,-247.43 528.27,-219.78 539,-198 546.79,-182.18 562.26,-169.96 576.15,-161.57"/>
<polygon fill="#63b8ff" stroke="#63b8ff" points="577.97,-164.56 584.96,-156.6 574.53,-158.46 577.97,-164.56"/>
</a>
</g>
</g>
<!-- Node8 -->
<g id="Node000008" class="node">
<title>Node8</title>
<g id="a_Node000008"><a xlink:title=" ">
<polygon fill="#e0e0e0" stroke="#999999" points="1477,-156.5 1355,-156.5 1355,-137.5 1477,-137.5 1477,-156.5"/>
<text text-anchor="middle" x="1416" y="-144.5" font-family="Helvetica,sans-Serif" font-size="10.00">deal.II/fe/fe_system.h</text>
</a>
</g>
</g>
<!-- Node1&#45;&gt;Node8 -->
<g id="edge7_Node000001_Node000008" class="edge">
<title>Node1&#45;&gt;Node8</title>
<g id="a_edge7_Node000001_Node000008"><a xlink:title=" ">
<path fill="none" stroke="#63b8ff" d="M597.27,-263.97C618.66,-254.86 646.14,-242.1 669,-228 687.31,-216.7 686.88,-205.63 707,-198 839.99,-147.59 1204.92,-179.99 1346,-162 1353.27,-161.07 1360.91,-159.83 1368.37,-158.46"/>
<polygon fill="#63b8ff" stroke="#63b8ff" points="1369.22,-161.86 1378.38,-156.54 1367.9,-154.99 1369.22,-161.86"/>
</a>
</g>
</g>
<!-- Node9 -->
<g id="Node000009" class="node">
<title>Node9</title>
<g id="a_Node000009"><a xlink:title=" ">
<polygon fill="#e0e0e0" stroke="#999999" points="992.5,-222.5 863.5,-222.5 863.5,-203.5 992.5,-203.5 992.5,-222.5"/>
<text text-anchor="middle" x="928" y="-210.5" font-family="Helvetica,sans-Serif" font-size="10.00">deal.II/fe/mapping_fe.h</text>
</a>
</g>
</g>
<!-- Node1&#45;&gt;Node9 -->
<g id="edge8_Node000001_Node000009" class="edge">
<title>Node1&#45;&gt;Node9</title>
<g id="a_edge8_Node000001_Node000009"><a xlink:title=" ">
<path fill="none" stroke="#63b8ff" d="M612.61,-269.69C671.06,-260.01 770.08,-243.39 855,-228 861.25,-226.87 867.79,-225.65 874.29,-224.43"/>
<polygon fill="#63b8ff" stroke="#63b8ff" points="875.23,-227.81 884.41,-222.51 873.93,-220.94 875.23,-227.81"/>
</a>
</g>
</g>
<!-- Node10 -->
<g id="Node000010" class="node">
<title>Node10</title>
<g id="a_Node000010"><a xlink:title=" ">
<polygon fill="#e0e0e0" stroke="#999999" points="1115.5,-228 1010.5,-228 1010.5,-198 1115.5,-198 1115.5,-228"/>
<text text-anchor="start" x="1018.5" y="-216" font-family="Helvetica,sans-Serif" font-size="10.00">deal.II/fe/mapping</text>
<text text-anchor="middle" x="1063" y="-205" font-family="Helvetica,sans-Serif" font-size="10.00">_q_generic.h</text>
</a>
</g>
</g>
<!-- Node1&#45;&gt;Node10 -->
<g id="edge9_Node000001_Node000010" class="edge">
<title>Node1&#45;&gt;Node10</title>
<g id="a_edge9_Node000001_Node000010"><a xlink:title=" ">
<path fill="none" stroke="#63b8ff" d="M612.74,-274.1C693.06,-267.52 854.53,-252.63 1000.16,-228.21"/>
<polygon fill="#63b8ff" stroke="#63b8ff" points="1000.9,-231.63 1010.17,-226.51 999.73,-224.73 1000.9,-231.63"/>
</a>
</g>
</g>
<!-- Node11 -->
<g id="Node000011" class="node">
<title>Node11</title>
<g id="a_Node000011"><a xlink:href="fe__util_8hpp.html" target="_top" xlink:title=" ">
<polygon fill="white" stroke="#666666" points="660,-228 548,-228 548,-198 660,-198 660,-228"/>
<text text-anchor="start" x="556" y="-216" font-family="Helvetica,sans-Serif" font-size="10.00">meltpooldg/utilities</text>
<text text-anchor="middle" x="604" y="-205" font-family="Helvetica,sans-Serif" font-size="10.00">/fe_util.hpp</text>
</a>
</g>
</g>
<!-- Node1&#45;&gt;Node11 -->
<g id="edge10_Node000001_Node000011" class="edge">
<title>Node1&#45;&gt;Node11</title>
<g id="a_edge10_Node000001_Node000011"><a xlink:title=" ">
<path fill="none" stroke="#63b8ff" d="M571.32,-263.8C576.54,-255.84 583.17,-245.74 589.1,-236.71"/>
<polygon fill="#63b8ff" stroke="#63b8ff" points="592.14,-238.44 594.7,-228.16 586.29,-234.6 592.14,-238.44"/>
</a>
</g>
</g>
<!-- Node11&#45;&gt;Node2 -->
<g id="edge11_Node000011_Node000002" class="edge">
<title>Node11&#45;&gt;Node2</title>
<g id="a_edge11_Node000011_Node000002"><a xlink:title=" ">
<path fill="none" stroke="#63b8ff" d="M547.91,-207.11C461.57,-199.31 290.97,-182.77 147,-162 139.34,-160.89 131.28,-159.6 123.37,-158.25"/>
<polygon fill="#63b8ff" stroke="#63b8ff" points="123.91,-154.79 113.46,-156.52 122.71,-161.69 123.91,-154.79"/>
</a>
</g>
</g>
<!-- Node11&#45;&gt;Node4 -->
<g id="edge14_Node000011_Node000004" class="edge">
<title>Node11&#45;&gt;Node4</title>
<g id="a_edge14_Node000011_Node000004"><a xlink:title=" ">
<path fill="none" stroke="#63b8ff" d="M547.76,-204.96C481.03,-196.29 366.5,-180.44 269,-162 263.86,-161.03 258.5,-159.93 253.17,-158.78"/>
<polygon fill="#63b8ff" stroke="#63b8ff" points="253.58,-155.28 243.06,-156.54 252.07,-162.12 253.58,-155.28"/>
</a>
</g>
</g>
<!-- Node11&#45;&gt;Node5 -->
<g id="edge15_Node000011_Node000005" class="edge">
<title>Node11&#45;&gt;Node5</title>
<g id="a_edge15_Node000011_Node000005"><a xlink:title=" ">
<path fill="none" stroke="#63b8ff" d="M547.95,-200.04C502.36,-190.2 436.41,-175.68 379,-162 374.96,-161.04 370.75,-160.01 366.55,-158.97"/>
<polygon fill="#63b8ff" stroke="#63b8ff" points="367.37,-155.57 356.82,-156.53 365.67,-162.36 367.37,-155.57"/>
</a>
</g>
</g>
<!-- Node11&#45;&gt;Node6 -->
<g id="edge16_Node000011_Node000006" class="edge">
<title>Node11&#45;&gt;Node6</title>
<g id="a_edge16_Node000011_Node000006"><a xlink:title=" ">
<path fill="none" stroke="#63b8ff" d="M570.86,-197.95C544.5,-186.78 507.94,-171.29 482.56,-160.53"/>
<polygon fill="#63b8ff" stroke="#63b8ff" points="483.67,-157.2 473.1,-156.52 480.94,-163.64 483.67,-157.2"/>
</a>
</g>
</g>
<!-- Node11&#45;&gt;Node7 -->
<g id="edge17_Node000011_Node000007" class="edge">
<title>Node11&#45;&gt;Node7</title>
<g id="a_edge17_Node000011_Node000007"><a xlink:title=" ">
<path fill="none" stroke="#63b8ff" d="M604,-197.8C604,-188.7 604,-176.79 604,-166.9"/>
<polygon fill="#63b8ff" stroke="#63b8ff" points="607.5,-166.84 604,-156.84 600.5,-166.84 607.5,-166.84"/>
</a>
</g>
</g>
<!-- Node11&#45;&gt;Node8 -->
<g id="edge18_Node000011_Node000008" class="edge">
<title>Node11&#45;&gt;Node8</title>
<g id="a_edge18_Node000011_Node000008"><a xlink:title=" ">
<path fill="none" stroke="#63b8ff" d="M660.05,-200.05C664.75,-199.27 669.45,-198.57 674,-198 970.74,-160.57 1049.26,-199.43 1346,-162 1353.27,-161.08 1360.92,-159.84 1368.38,-158.48"/>
<polygon fill="#63b8ff" stroke="#63b8ff" points="1369.22,-161.88 1378.38,-156.56 1367.9,-155.01 1369.22,-161.88"/>
</a>
</g>
</g>
<!-- Node12 -->
<g id="Node000012" class="node">
<title>Node12</title>
<g id="a_Node000012"><a xlink:title=" ">
<polygon fill="#e0e0e0" stroke="#999999" points="1047,-156.5 909,-156.5 909,-137.5 1047,-137.5 1047,-156.5"/>
<text text-anchor="middle" x="978" y="-144.5" font-family="Helvetica,sans-Serif" font-size="10.00">deal.II/base/quadrature.h</text>
</a>
</g>
</g>
<!-- Node11&#45;&gt;Node12 -->
<g id="edge12_Node000011_Node000012" class="edge">
<title>Node11&#45;&gt;Node12</title>
<g id="a_edge12_Node000011_Node000012"><a xlink:title=" ">
<path fill="none" stroke="#63b8ff" d="M660.13,-200.57C664.82,-199.68 669.49,-198.81 674,-198 774.11,-180.02 799.72,-178.99 900,-162 906.84,-160.84 914,-159.6 921.1,-158.35"/>
<polygon fill="#63b8ff" stroke="#63b8ff" points="922.18,-161.71 931.42,-156.52 920.96,-154.82 922.18,-161.71"/>
</a>
</g>
</g>
<!-- Node13 -->
<g id="Node000013" class="node">
<title>Node13</title>
<g id="a_Node000013"><a xlink:title=" ">
<polygon fill="#e0e0e0" stroke="#999999" points="1205,-156.5 1065,-156.5 1065,-137.5 1205,-137.5 1205,-156.5"/>
<text text-anchor="middle" x="1135" y="-144.5" font-family="Helvetica,sans-Serif" font-size="10.00">deal.II/dofs/dof_handler.h</text>
</a>
</g>
</g>
<!-- Node11&#45;&gt;Node13 -->
<g id="edge13_Node000011_Node000013" class="edge">
<title>Node11&#45;&gt;Node13</title>
<g id="a_edge13_Node000011_Node000013"><a xlink:title=" ">
<path fill="none" stroke="#63b8ff" d="M660.08,-200.25C664.78,-199.43 669.46,-198.67 674,-198 842.72,-173.25 887.01,-184.9 1056,-162 1063.95,-160.92 1072.32,-159.62 1080.52,-158.25"/>
<polygon fill="#63b8ff" stroke="#63b8ff" points="1081.13,-161.7 1090.4,-156.56 1079.95,-154.8 1081.13,-161.7"/>
</a>
</g>
</g>
<!-- Node14 -->
<g id="Node000014" class="node">
<title>Node14</title>
<g id="a_Node000014"><a xlink:title=" ">
<polygon fill="#e0e0e0" stroke="#999999" points="1337,-156.5 1223,-156.5 1223,-137.5 1337,-137.5 1337,-156.5"/>
<text text-anchor="middle" x="1280" y="-144.5" font-family="Helvetica,sans-Serif" font-size="10.00">deal.II/fe/mapping.h</text>
</a>
</g>
</g>
<!-- Node11&#45;&gt;Node14 -->
<g id="edge19_Node000011_Node000014" class="edge">
<title>Node11&#45;&gt;Node14</title>
<g id="a_edge19_Node000011_Node000014"><a xlink:title=" ">
<path fill="none" stroke="#63b8ff" d="M660.06,-200.12C664.76,-199.32 669.45,-198.6 674,-198 912.44,-166.35 975.75,-195.04 1214,-162 1220.63,-161.08 1227.58,-159.88 1234.39,-158.56"/>
<polygon fill="#63b8ff" stroke="#63b8ff" points="1235.09,-161.98 1244.2,-156.56 1233.7,-155.12 1235.09,-161.98"/>
</a>
</g>
</g>
<!-- Node15 -->
<g id="Node000015" class="node">
<title>Node15</title>
<g id="a_Node000015"><a xlink:href="finite__element__data_8hpp.html" target="_top" xlink:title=" ">
<polygon fill="white" stroke="#666666" points="815,-162 691,-162 691,-132 815,-132 815,-162"/>
<text text-anchor="start" x="699" y="-150" font-family="Helvetica,sans-Serif" font-size="10.00">meltpooldg/core/finite</text>
<text text-anchor="middle" x="753" y="-139" font-family="Helvetica,sans-Serif" font-size="10.00">_element_data.hpp</text>
</a>
</g>
</g>
<!-- Node11&#45;&gt;Node15 -->
<g id="edge20_Node000011_Node000015" class="edge">
<title>Node11&#45;&gt;Node15</title>
<g id="a_edge20_Node000011_Node000015"><a xlink:title=" ">
<path fill="none" stroke="#63b8ff" d="M636.7,-197.95C658.53,-188.58 687.45,-176.16 710.99,-166.05"/>
<polygon fill="#63b8ff" stroke="#63b8ff" points="712.57,-169.17 720.38,-162.01 709.81,-162.74 712.57,-169.17"/>
</a>
</g>
</g>
<!-- Node23 -->
<g id="Node000023" class="node">
<title>Node23</title>
<g id="a_Node000023"><a xlink:title=" ">
<polygon fill="#e0e0e0" stroke="#999999" points="891,-156.5 833,-156.5 833,-137.5 891,-137.5 891,-156.5"/>
<text text-anchor="middle" x="862" y="-144.5" font-family="Helvetica,sans-Serif" font-size="10.00">memory</text>
</a>
</g>
</g>
<!-- Node11&#45;&gt;Node23 -->
<g id="edge29_Node000011_Node000023" class="edge">
<title>Node11&#45;&gt;Node23</title>
<g id="a_edge29_Node000011_Node000023"><a xlink:title=" ">
<path fill="none" stroke="#63b8ff" d="M660.17,-200.1C714.79,-188.37 793.82,-170.95 824,-162 826.14,-161.37 828.33,-160.68 830.52,-159.95"/>
<polygon fill="#63b8ff" stroke="#63b8ff" points="831.77,-163.22 840.06,-156.63 829.46,-156.61 831.77,-163.22"/>
</a>
</g>
</g>
<!-- Node16 -->
<g id="Node000016" class="node">
<title>Node16</title>
<g id="a_Node000016"><a xlink:title=" ">
<polygon fill="#e0e0e0" stroke="#999999" points="704.5,-30 577.5,-30 577.5,0 704.5,0 704.5,-30"/>
<text text-anchor="start" x="585.5" y="-18" font-family="Helvetica,sans-Serif" font-size="10.00">deal.II/base/parameter</text>
<text text-anchor="middle" x="641" y="-7" font-family="Helvetica,sans-Serif" font-size="10.00">_handler.h</text>
</a>
</g>
</g>
<!-- Node15&#45;&gt;Node16 -->
<g id="edge21_Node000015_Node000016" class="edge">
<title>Node15&#45;&gt;Node16</title>
<g id="a_edge21_Node000015_Node000016"><a xlink:title=" ">
<path fill="none" stroke="#63b8ff" d="M740.8,-131.84C721.28,-109.18 682.87,-64.6 659.81,-37.83"/>
<polygon fill="#63b8ff" stroke="#63b8ff" points="662.36,-35.43 653.18,-30.14 657.06,-40 662.36,-35.43"/>
</a>
</g>
</g>
<!-- Node17 -->
<g id="Node000017" class="node">
<title>Node17</title>
<g id="a_Node000017"><a xlink:href="enum_8hpp.html" target="_top" xlink:title=" ">
<polygon fill="white" stroke="#666666" points="875,-96 763,-96 763,-66 875,-66 875,-96"/>
<text text-anchor="start" x="771" y="-84" font-family="Helvetica,sans-Serif" font-size="10.00">meltpooldg/utilities</text>
<text text-anchor="middle" x="819" y="-73" font-family="Helvetica,sans-Serif" font-size="10.00">/enum.hpp</text>
</a>
</g>
</g>
<!-- Node15&#45;&gt;Node17 -->
<g id="edge22_Node000015_Node000017" class="edge">
<title>Node15&#45;&gt;Node17</title>
<g id="a_edge22_Node000015_Node000017"><a xlink:title=" ">
<path fill="none" stroke="#63b8ff" d="M767.65,-131.8C776.28,-123.43 787.36,-112.68 797.02,-103.31"/>
<polygon fill="#63b8ff" stroke="#63b8ff" points="799.65,-105.64 804.39,-96.16 794.78,-100.61 799.65,-105.64"/>
</a>
</g>
</g>
<!-- Node17&#45;&gt;Node16 -->
<g id="edge23_Node000017_Node000016" class="edge">
<title>Node17&#45;&gt;Node16</title>
<g id="a_edge23_Node000017_Node000016"><a xlink:title=" ">
<path fill="none" stroke="#63b8ff" d="M779.94,-65.95C753.39,-56.41 718.08,-43.71 689.7,-33.51"/>
<polygon fill="#63b8ff" stroke="#63b8ff" points="690.57,-30.1 679.97,-30.01 688.2,-36.69 690.57,-30.1"/>
</a>
</g>
</g>
<!-- Node18 -->
<g id="Node000018" class="node">
<title>Node18</title>
<g id="a_Node000018"><a xlink:title=" ">
<polygon fill="#e0e0e0" stroke="#999999" points="984.5,-24.5 859.5,-24.5 859.5,-5.5 984.5,-5.5 984.5,-24.5"/>
<text text-anchor="middle" x="922" y="-12.5" font-family="Helvetica,sans-Serif" font-size="10.00">deal.II/base/patterns.h</text>
</a>
</g>
</g>
<!-- Node17&#45;&gt;Node18 -->
<g id="edge24_Node000017_Node000018" class="edge">
<title>Node17&#45;&gt;Node18</title>
<g id="a_edge24_Node000017_Node000018"><a xlink:title=" ">
<path fill="none" stroke="#63b8ff" d="M841.6,-65.95C858.79,-55.27 882.33,-40.65 899.49,-29.98"/>
<polygon fill="#63b8ff" stroke="#63b8ff" points="901.65,-32.77 908.29,-24.52 897.95,-26.82 901.65,-32.77"/>
</a>
</g>
</g>
<!-- Node19 -->
<g id="Node000019" class="node">
<title>Node19</title>
<g id="a_Node000019"><a xlink:title=" ">
<polygon fill="#e0e0e0" stroke="#999999" points="1115,-30 1003,-30 1003,0 1115,0 1115,-30"/>
<text text-anchor="start" x="1011" y="-18" font-family="Helvetica,sans-Serif" font-size="10.00">meltpooldg/utilities</text>
<text text-anchor="middle" x="1059" y="-7" font-family="Helvetica,sans-Serif" font-size="10.00">/better_enum.hpp</text>
</a>
</g>
</g>
<!-- Node17&#45;&gt;Node19 -->
<g id="edge25_Node000017_Node000019" class="edge">
<title>Node17&#45;&gt;Node19</title>
<g id="a_edge25_Node000017_Node000019"><a xlink:title=" ">
<path fill="none" stroke="#63b8ff" d="M871.67,-65.95C908.4,-56.16 957.58,-43.05 996.33,-32.71"/>
<polygon fill="#63b8ff" stroke="#63b8ff" points="997.69,-35.97 1006.45,-30.01 995.89,-29.21 997.69,-35.97"/>
</a>
</g>
</g>
<!-- Node20 -->
<g id="Node000020" class="node">
<title>Node20</title>
<g id="a_Node000020"><a xlink:title=" ">
<polygon fill="#e0e0e0" stroke="#999999" points="1258.5,-30 1133.5,-30 1133.5,0 1258.5,0 1258.5,-30"/>
<text text-anchor="start" x="1141.5" y="-18" font-family="Helvetica,sans-Serif" font-size="10.00">boost/algorithm/string</text>
<text text-anchor="middle" x="1196" y="-7" font-family="Helvetica,sans-Serif" font-size="10.00">/join.hpp</text>
</a>
</g>
</g>
<!-- Node17&#45;&gt;Node20 -->
<g id="edge26_Node000017_Node000020" class="edge">
<title>Node17&#45;&gt;Node20</title>
<g id="a_edge26_Node000017_Node000020"><a xlink:title=" ">
<path fill="none" stroke="#63b8ff" d="M875.02,-71.33C934.17,-62.05 1030.39,-46.64 1123.34,-30.09"/>
<polygon fill="#63b8ff" stroke="#63b8ff" points="1123.96,-33.53 1133.19,-28.33 1122.73,-26.64 1123.96,-33.53"/>
</a>
</g>
</g>
<!-- Node21 -->
<g id="Node000021" class="node">
<title>Node21</title>
<g id="a_Node000021"><a xlink:title=" ">
<polygon fill="#e0e0e0" stroke="#999999" points="779,-24.5 723,-24.5 723,-5.5 779,-5.5 779,-24.5"/>
<text text-anchor="middle" x="751" y="-12.5" font-family="Helvetica,sans-Serif" font-size="10.00">sstream</text>
</a>
</g>
</g>
<!-- Node17&#45;&gt;Node21 -->
<g id="edge27_Node000017_Node000021" class="edge">
<title>Node17&#45;&gt;Node21</title>
<g id="a_edge27_Node000017_Node000021"><a xlink:title=" ">
<path fill="none" stroke="#63b8ff" d="M803.91,-65.8C793.2,-55.72 778.83,-42.19 767.77,-31.78"/>
<polygon fill="#63b8ff" stroke="#63b8ff" points="770.08,-29.15 760.4,-24.84 765.28,-34.25 770.08,-29.15"/>
</a>
</g>
</g>
<!-- Node22 -->
<g id="Node000022" class="node">
<title>Node22</title>
<g id="a_Node000022"><a xlink:title=" ">
<polygon fill="#e0e0e0" stroke="#999999" points="841,-24.5 797,-24.5 797,-5.5 841,-5.5 841,-24.5"/>
<text text-anchor="middle" x="819" y="-12.5" font-family="Helvetica,sans-Serif" font-size="10.00">string</text>
</a>
</g>
</g>
<!-- Node17&#45;&gt;Node22 -->
<g id="edge28_Node000017_Node000022" class="edge">
<title>Node17&#45;&gt;Node22</title>
<g id="a_edge28_Node000017_Node000022"><a xlink:title=" ">
<path fill="none" stroke="#63b8ff" d="M819,-65.8C819,-56.7 819,-44.79 819,-34.9"/>
<polygon fill="#63b8ff" stroke="#63b8ff" points="822.5,-34.84 819,-24.84 815.5,-34.84 822.5,-34.84"/>
</a>
</g>
</g>
</g>
</svg>

<g id="navigator" transform="translate(0 0)" fill="#404254">
  <rect fill="#f2f5e9" fill-opacity="0.5" stroke="#606060" stroke-width=".5" x="0" y="0" width="60" height="60"/>
  <use id="zoomplus" xlink:href="#zoomPlus" x="17" y="9" onmousedown="handleZoom(evt,'in')"/>
  <use id="zoomminus" xlink:href="#zoomMin" x="42" y="9" onmousedown="handleZoom(evt,'out')"/>
  <use id="reset" xlink:href="#resetDef" x="30" y="36" onmousedown="handleReset()"/>
   <use id="arrowup" xlink:href="#arrowUp" x="0" y="0" onmousedown="handlePan(0,-1)"/>
  <use id="arrowright" xlink:href="#arrowRight" x="0" y="0" onmousedown="handlePan(1,0)"/>
  <use id="arrowdown" xlink:href="#arrowDown" x="0" y="0" onmousedown="handlePan(0,1)"/>
  <use id="arrowleft" xlink:href="#arrowLeft" x="0" y="0" onmousedown="handlePan(-1,0)"/>
</g>
<svg viewBox="0 0 15 15" width="100%" height="30px" preserveAspectRatio="xMaxYMin meet">
 <g id="arrow_out" transform="scale(0.3 0.3)">
  <a xlink:href="fe__util_8cpp__incl_org.svg" target="_base">
   <rect id="button" ry="5" rx="5" y="6" x="6" height="38" width="38"
        fill="#f2f5e9" fill-opacity="0.5" stroke="#606060" stroke-width="1.0"/>
   <path id="arrow"
     d="M 11.500037,31.436501 C 11.940474,20.09759 22.043105,11.32322 32.158766,21.979434 L 37.068811,17.246167 C 37.068811,17.246167 37.088388,32 37.088388,32 L 22.160133,31.978069 C 22.160133,31.978069 26.997745,27.140456 26.997745,27.140456 C 18.528582,18.264221 13.291696,25.230495 11.500037,31.436501 z"
     style="fill:#404040;"/>
  </a>
 </g>
</svg>

<style type='text/css'>
<![CDATA[
[data-mouse-over-selected='false'] { opacity: 0.7; }
[data-mouse-over-selected='true']  { opacity: 1.0; }
]]>
</style>
<script type="application/ecmascript"><![CDATA[
document.addEventListener('DOMContentLoaded', (event) => {
  highlightEdges();
  highlightAdjacentNodes();
});
]]></script>
</svg>
