<?xml version="1.0" encoding="UTF-8" standalone="no"?>
<!DOCTYPE svg PUBLIC "-//W3C//DTD SVG 1.1//EN"
 "http://www.w3.org/Graphics/SVG/1.1/DTD/svg11.dtd">
<!-- Generated by graphviz version 2.43.0 (0)
 -->
<!-- Title: include/meltpooldg/fluid_structure_interaction/fluid_structure_interaction_util.hpp Pages: 1 -->
<svg width="505pt" height="390pt"
 viewBox="0.00 0.00 505.00 390.00" xmlns="http://www.w3.org/2000/svg" xmlns:xlink="http://www.w3.org/1999/xlink">
<g id="graph0" class="graph" transform="scale(1 1) rotate(0) translate(4 386)">
<title>include/meltpooldg/fluid_structure_interaction/fluid_structure_interaction_util.hpp</title>
<!-- Node1 -->
<g id="Node000001" class="node">
<title>Node1</title>
<g id="a_Node000001"><a xlink:title=" ">
<polygon fill="#999999" stroke="#666666" points="147,-382 0,-382 0,-330 147,-330 147,-382"/>
<text text-anchor="start" x="8" y="-370" font-family="Helvetica,sans-Serif" font-size="10.00">include/meltpooldg</text>
<text text-anchor="start" x="8" y="-359" font-family="Helvetica,sans-Serif" font-size="10.00">/fluid_structure_interaction</text>
<text text-anchor="start" x="8" y="-348" font-family="Helvetica,sans-Serif" font-size="10.00">/fluid_structure_interaction</text>
<text text-anchor="middle" x="73.5" y="-337" font-family="Helvetica,sans-Serif" font-size="10.00">_util.hpp</text>
</a>
</g>
</g>
<!-- Node2 -->
<g id="Node000002" class="node">
<title>Node2</title>
<g id="a_Node000002"><a xlink:href="brinkman__penalization_8hpp.html" target="_top" xlink:title=" ">
<polygon fill="white" stroke="#666666" points="253.5,-211.5 101.5,-211.5 101.5,-170.5 253.5,-170.5 253.5,-211.5"/>
<text text-anchor="start" x="109.5" y="-199.5" font-family="Helvetica,sans-Serif" font-size="10.00">include/meltpooldg</text>
<text text-anchor="start" x="109.5" y="-188.5" font-family="Helvetica,sans-Serif" font-size="10.00">/fluid_structure_interaction</text>
<text text-anchor="middle" x="177.5" y="-177.5" font-family="Helvetica,sans-Serif" font-size="10.00">/brinkman_penalization.hpp</text>
</a>
</g>
</g>
<!-- Node1&#45;&gt;Node2 -->
<g id="edge1_Node000001_Node000002" class="edge">
<title>Node1&#45;&gt;Node2</title>
<g id="a_edge1_Node000001_Node000002"><a xlink:title=" ">
<path fill="none" stroke="#63b8ff" d="M73.65,-319.57C75.23,-298.77 79.93,-272.77 92.5,-253 103.51,-235.68 121.36,-221.76 137.87,-211.62"/>
<polygon fill="#63b8ff" stroke="#63b8ff" points="70.15,-319.44 73.09,-329.62 77.14,-319.83 70.15,-319.44"/>
</a>
</g>
</g>
<!-- Node4 -->
<g id="Node000004" class="node">
<title>Node4</title>
<g id="a_Node000004"><a xlink:href="brinkman__penalization_8cpp.html" target="_top" xlink:title=" ">
<polygon fill="white" stroke="#666666" points="135.5,-129 11.5,-129 11.5,-88 135.5,-88 135.5,-129"/>
<text text-anchor="start" x="19.5" y="-117" font-family="Helvetica,sans-Serif" font-size="10.00">source/fluid_structure</text>
<text text-anchor="start" x="19.5" y="-106" font-family="Helvetica,sans-Serif" font-size="10.00">_interaction/brinkman</text>
<text text-anchor="middle" x="73.5" y="-95" font-family="Helvetica,sans-Serif" font-size="10.00">_penalization.cpp</text>
</a>
</g>
</g>
<!-- Node1&#45;&gt;Node4 -->
<g id="edge13_Node000001_Node000004" class="edge">
<title>Node1&#45;&gt;Node4</title>
<g id="a_edge13_Node000001_Node000004"><a xlink:title=" ">
<path fill="none" stroke="#63b8ff" d="M72.04,-319.71C70.67,-281.56 69.04,-218.96 70.5,-165 70.82,-153.04 71.54,-139.64 72.19,-129.01"/>
<polygon fill="#63b8ff" stroke="#63b8ff" points="68.55,-319.93 72.42,-329.79 75.54,-319.67 68.55,-319.93"/>
</a>
</g>
</g>
<!-- Node5 -->
<g id="Node000005" class="node">
<title>Node5</title>
<g id="a_Node000005"><a xlink:href="brinkman__penalization__data_8hpp.html" target="_top" xlink:title=" ">
<polygon fill="white" stroke="#666666" points="281,-294 102,-294 102,-253 281,-253 281,-294"/>
<text text-anchor="start" x="110" y="-282" font-family="Helvetica,sans-Serif" font-size="10.00">include/meltpooldg</text>
<text text-anchor="start" x="110" y="-271" font-family="Helvetica,sans-Serif" font-size="10.00">/fluid_structure_interaction</text>
<text text-anchor="middle" x="191.5" y="-260" font-family="Helvetica,sans-Serif" font-size="10.00">/brinkman_penalization_data.hpp</text>
</a>
</g>
</g>
<!-- Node1&#45;&gt;Node5 -->
<g id="edge4_Node000001_Node000005" class="edge">
<title>Node1&#45;&gt;Node5</title>
<g id="a_edge4_Node000001_Node000005"><a xlink:title=" ">
<path fill="none" stroke="#63b8ff" d="M118.72,-324.15C133.49,-314.08 149.48,-303.17 162.7,-294.15"/>
<polygon fill="#63b8ff" stroke="#63b8ff" points="116.48,-321.44 110.19,-329.97 120.42,-327.23 116.48,-321.44"/>
</a>
</g>
</g>
<!-- Node3 -->
<g id="Node000003" class="node">
<title>Node3</title>
<g id="a_Node000003"><a xlink:href="fluid__structure__interaction__factory_8hpp.html" target="_top" xlink:title=" ">
<polygon fill="white" stroke="#666666" points="310,-52 163,-52 163,0 310,0 310,-52"/>
<text text-anchor="start" x="171" y="-40" font-family="Helvetica,sans-Serif" font-size="10.00">include/meltpooldg</text>
<text text-anchor="start" x="171" y="-29" font-family="Helvetica,sans-Serif" font-size="10.00">/fluid_structure_interaction</text>
<text text-anchor="start" x="171" y="-18" font-family="Helvetica,sans-Serif" font-size="10.00">/fluid_structure_interaction</text>
<text text-anchor="middle" x="236.5" y="-7" font-family="Helvetica,sans-Serif" font-size="10.00">_factory.hpp</text>
</a>
</g>
</g>
<!-- Node2&#45;&gt;Node3 -->
<g id="edge2_Node000002_Node000003" class="edge">
<title>Node2&#45;&gt;Node3</title>
<g id="a_edge2_Node000002_Node000003"><a xlink:title=" ">
<path fill="none" stroke="#63b8ff" d="M188.16,-160.54C199.38,-129.55 216.85,-81.3 227.43,-52.07"/>
<polygon fill="#63b8ff" stroke="#63b8ff" points="184.73,-159.74 184.62,-170.34 191.31,-162.13 184.73,-159.74"/>
</a>
</g>
</g>
<!-- Node2&#45;&gt;Node4 -->
<g id="edge3_Node000002_Node000004" class="edge">
<title>Node2&#45;&gt;Node4</title>
<g id="a_edge3_Node000002_Node000004"><a xlink:title=" ">
<path fill="none" stroke="#63b8ff" d="M143.79,-163.91C129.25,-152.65 112.53,-139.71 99.04,-129.27"/>
<polygon fill="#63b8ff" stroke="#63b8ff" points="142.01,-166.95 152.06,-170.31 146.29,-161.42 142.01,-166.95"/>
</a>
</g>
</g>
<!-- Node5&#45;&gt;Node2 -->
<g id="edge5_Node000005_Node000002" class="edge">
<title>Node5&#45;&gt;Node2</title>
<g id="a_edge5_Node000005_Node000002"><a xlink:title=" ">
<path fill="none" stroke="#63b8ff" d="M186.32,-242.69C184.52,-232.34 182.54,-221 180.92,-211.67"/>
<polygon fill="#63b8ff" stroke="#63b8ff" points="182.88,-243.35 188.04,-252.6 189.77,-242.15 182.88,-243.35"/>
</a>
</g>
</g>
<!-- Node5&#45;&gt;Node4 -->
<g id="edge12_Node000005_Node000004" class="edge">
<title>Node5&#45;&gt;Node4</title>
<g id="a_edge12_Node000005_Node000004"><a xlink:title=" ">
<path fill="none" stroke="#63b8ff" d="M128.18,-247.97C114.58,-239.98 101.58,-229.78 92.5,-217 73.96,-190.88 71.62,-152.4 72.17,-129.26"/>
<polygon fill="#63b8ff" stroke="#63b8ff" points="126.72,-251.16 137.17,-252.9 130.09,-245.02 126.72,-251.16"/>
</a>
</g>
</g>
<!-- Node6 -->
<g id="Node000006" class="node">
<title>Node6</title>
<g id="a_Node000006"><a xlink:href="fluid__structure__interaction__data_8hpp.html" target="_top" xlink:title=" ">
<polygon fill="white" stroke="#666666" points="419,-217 272,-217 272,-165 419,-165 419,-217"/>
<text text-anchor="start" x="280" y="-205" font-family="Helvetica,sans-Serif" font-size="10.00">include/meltpooldg</text>
<text text-anchor="start" x="280" y="-194" font-family="Helvetica,sans-Serif" font-size="10.00">/fluid_structure_interaction</text>
<text text-anchor="start" x="280" y="-183" font-family="Helvetica,sans-Serif" font-size="10.00">/fluid_structure_interaction</text>
<text text-anchor="middle" x="345.5" y="-172" font-family="Helvetica,sans-Serif" font-size="10.00">_data.hpp</text>
</a>
</g>
</g>
<!-- Node5&#45;&gt;Node6 -->
<g id="edge6_Node000005_Node000006" class="edge">
<title>Node5&#45;&gt;Node6</title>
<g id="a_edge6_Node000005_Node000006"><a xlink:title=" ">
<path fill="none" stroke="#63b8ff" d="M238.13,-248.13C256.89,-238.32 278.52,-227.01 297.43,-217.13"/>
<polygon fill="#63b8ff" stroke="#63b8ff" points="236.41,-245.07 229.17,-252.81 239.66,-251.28 236.41,-245.07"/>
</a>
</g>
</g>
<!-- Node6&#45;&gt;Node3 -->
<g id="edge7_Node000006_Node000003" class="edge">
<title>Node6&#45;&gt;Node3</title>
<g id="a_edge7_Node000006_Node000003"><a xlink:title=" ">
<path fill="none" stroke="#63b8ff" d="M286.07,-158.92C274.78,-150.57 264.12,-140.59 256.5,-129 241.33,-105.93 237.15,-74 236.24,-52.05"/>
<polygon fill="#63b8ff" stroke="#63b8ff" points="284.17,-161.86 294.38,-164.7 288.17,-156.11 284.17,-161.86"/>
</a>
</g>
</g>
<!-- Node7 -->
<g id="Node000007" class="node">
<title>Node7</title>
<g id="a_Node000007"><a xlink:href="stokes__law_8hpp.html" target="_top" xlink:title=" ">
<polygon fill="white" stroke="#666666" points="412,-129 265,-129 265,-88 412,-88 412,-129"/>
<text text-anchor="start" x="273" y="-117" font-family="Helvetica,sans-Serif" font-size="10.00">include/meltpooldg</text>
<text text-anchor="start" x="273" y="-106" font-family="Helvetica,sans-Serif" font-size="10.00">/fluid_structure_interaction</text>
<text text-anchor="middle" x="338.5" y="-95" font-family="Helvetica,sans-Serif" font-size="10.00">/stokes_law.hpp</text>
</a>
</g>
</g>
<!-- Node6&#45;&gt;Node7 -->
<g id="edge8_Node000006_Node000007" class="edge">
<title>Node6&#45;&gt;Node7</title>
<g id="a_edge8_Node000006_Node000007"><a xlink:title=" ">
<path fill="none" stroke="#63b8ff" d="M342.45,-154.87C341.68,-146.05 340.88,-136.9 340.21,-129.15"/>
<polygon fill="#63b8ff" stroke="#63b8ff" points="338.97,-155.31 343.32,-164.97 345.94,-154.7 338.97,-155.31"/>
</a>
</g>
</g>
<!-- Node8 -->
<g id="Node000008" class="node">
<title>Node8</title>
<g id="a_Node000008"><a xlink:href="stokes__law_8cpp.html" target="_top" xlink:title=" ">
<polygon fill="white" stroke="#666666" points="497,-41 346,-41 346,-11 497,-11 497,-41"/>
<text text-anchor="start" x="354" y="-29" font-family="Helvetica,sans-Serif" font-size="10.00">source/fluid_structure</text>
<text text-anchor="middle" x="421.5" y="-18" font-family="Helvetica,sans-Serif" font-size="10.00">_interaction/stokes_law.cpp</text>
</a>
</g>
</g>
<!-- Node6&#45;&gt;Node8 -->
<g id="edge11_Node000006_Node000008" class="edge">
<title>Node6&#45;&gt;Node8</title>
<g id="a_edge11_Node000006_Node000008"><a xlink:title=" ">
<path fill="none" stroke="#63b8ff" d="M397.84,-158.52C407.41,-150.19 416.07,-140.31 421.5,-129 435.28,-100.26 429.68,-61.51 425.14,-41.03"/>
<polygon fill="#63b8ff" stroke="#63b8ff" points="395.59,-155.84 390.02,-164.86 399.99,-161.28 395.59,-155.84"/>
</a>
</g>
</g>
<!-- Node7&#45;&gt;Node3 -->
<g id="edge9_Node000007_Node000003" class="edge">
<title>Node7&#45;&gt;Node3</title>
<g id="a_edge9_Node000007_Node000003"><a xlink:title=" ">
<path fill="none" stroke="#63b8ff" d="M305.6,-81.54C293.72,-72.16 280.33,-61.59 268.53,-52.28"/>
<polygon fill="#63b8ff" stroke="#63b8ff" points="303.53,-84.36 313.55,-87.81 307.87,-78.86 303.53,-84.36"/>
</a>
</g>
</g>
<!-- Node7&#45;&gt;Node8 -->
<g id="edge10_Node000007_Node000008" class="edge">
<title>Node7&#45;&gt;Node8</title>
<g id="a_edge10_Node000007_Node000008"><a xlink:title=" ">
<path fill="none" stroke="#63b8ff" d="M366.31,-80.53C379.92,-67.33 395.74,-51.98 406.95,-41.12"/>
<polygon fill="#63b8ff" stroke="#63b8ff" points="363.76,-78.13 359.02,-87.6 368.63,-83.15 363.76,-78.13"/>
</a>
</g>
</g>
</g>
</svg>
