<?xml version="1.0" encoding="UTF-8" standalone="no"?>
<!DOCTYPE svg PUBLIC "-//W3C//DTD SVG 1.1//EN"
 "http://www.w3.org/Graphics/SVG/1.1/DTD/svg11.dtd">
<!-- Generated by graphviz version 2.43.0 (0)
 -->
<!-- Title: include/meltpooldg/utilities/functions.hpp Pages: 1 -->
<svg width="774pt" height="104pt"
 viewBox="0.00 0.00 774.00 104.00" xmlns="http://www.w3.org/2000/svg" xmlns:xlink="http://www.w3.org/1999/xlink">
<g id="graph0" class="graph" transform="scale(1 1) rotate(0) translate(4 100)">
<title>include/meltpooldg/utilities/functions.hpp</title>
<!-- Node1 -->
<g id="Node000001" class="node">
<title>Node1</title>
<g id="a_Node000001"><a xlink:title=" ">
<polygon fill="#999999" stroke="#666666" points="485.5,-96 360.5,-96 360.5,-66 485.5,-66 485.5,-96"/>
<text text-anchor="start" x="368.5" y="-84" font-family="Helvetica,sans-Serif" font-size="10.00">include/meltpooldg</text>
<text text-anchor="middle" x="423" y="-73" font-family="Helvetica,sans-Serif" font-size="10.00">/utilities/functions.hpp</text>
</a>
</g>
</g>
<!-- Node2 -->
<g id="Node000002" class="node">
<title>Node2</title>
<g id="a_Node000002"><a xlink:title=" ">
<polygon fill="#e0e0e0" stroke="#999999" points="138,-24.5 0,-24.5 0,-5.5 138,-5.5 138,-24.5"/>
<text text-anchor="middle" x="69" y="-12.5" font-family="Helvetica,sans-Serif" font-size="10.00">deal.II/base/exceptions.h</text>
</a>
</g>
</g>
<!-- Node1&#45;&gt;Node2 -->
<g id="edge1_Node000001_Node000002" class="edge">
<title>Node1&#45;&gt;Node2</title>
<g id="a_edge1_Node000001_Node000002"><a xlink:title=" ">
<path fill="none" stroke="#63b8ff" d="M360.12,-68.63C293.73,-56.63 190.01,-37.88 125.96,-26.3"/>
<polygon fill="#63b8ff" stroke="#63b8ff" points="126.49,-22.84 116.03,-24.5 125.25,-29.73 126.49,-22.84"/>
</a>
</g>
</g>
<!-- Node3 -->
<g id="Node000003" class="node">
<title>Node3</title>
<g id="a_Node000003"><a xlink:title=" ">
<polygon fill="#e0e0e0" stroke="#999999" points="281.5,-24.5 156.5,-24.5 156.5,-5.5 281.5,-5.5 281.5,-24.5"/>
<text text-anchor="middle" x="219" y="-12.5" font-family="Helvetica,sans-Serif" font-size="10.00">deal.II/base/function.h</text>
</a>
</g>
</g>
<!-- Node1&#45;&gt;Node3 -->
<g id="edge2_Node000001_Node000003" class="edge">
<title>Node1&#45;&gt;Node3</title>
<g id="a_edge2_Node000001_Node000003"><a xlink:title=" ">
<path fill="none" stroke="#63b8ff" d="M378.23,-65.95C341.51,-54.43 290.16,-38.32 255.8,-27.54"/>
<polygon fill="#63b8ff" stroke="#63b8ff" points="256.74,-24.17 246.15,-24.52 254.64,-30.85 256.74,-24.17"/>
</a>
</g>
</g>
<!-- Node4 -->
<g id="Node000004" class="node">
<title>Node4</title>
<g id="a_Node000004"><a xlink:title=" ">
<polygon fill="#e0e0e0" stroke="#999999" points="410,-24.5 300,-24.5 300,-5.5 410,-5.5 410,-24.5"/>
<text text-anchor="middle" x="355" y="-12.5" font-family="Helvetica,sans-Serif" font-size="10.00">deal.II/base/point.h</text>
</a>
</g>
</g>
<!-- Node1&#45;&gt;Node4 -->
<g id="edge3_Node000001_Node000004" class="edge">
<title>Node1&#45;&gt;Node4</title>
<g id="a_edge3_Node000001_Node000004"><a xlink:title=" ">
<path fill="none" stroke="#63b8ff" d="M407.91,-65.8C397.2,-55.72 382.83,-42.19 371.77,-31.78"/>
<polygon fill="#63b8ff" stroke="#63b8ff" points="374.08,-29.15 364.4,-24.84 369.28,-34.25 374.08,-29.15"/>
</a>
</g>
</g>
<!-- Node5 -->
<g id="Node000005" class="node">
<title>Node5</title>
<g id="a_Node000005"><a xlink:title=" ">
<polygon fill="#e0e0e0" stroke="#999999" points="556,-30 428,-30 428,0 556,0 556,-30"/>
<text text-anchor="start" x="436" y="-18" font-family="Helvetica,sans-Serif" font-size="10.00">deal.II/base/symmetric</text>
<text text-anchor="middle" x="492" y="-7" font-family="Helvetica,sans-Serif" font-size="10.00">_tensor.h</text>
</a>
</g>
</g>
<!-- Node1&#45;&gt;Node5 -->
<g id="edge4_Node000001_Node000005" class="edge">
<title>Node1&#45;&gt;Node5</title>
<g id="a_edge4_Node000001_Node000005"><a xlink:title=" ">
<path fill="none" stroke="#63b8ff" d="M438.31,-65.8C447.43,-57.34 459.16,-46.46 469.33,-37.03"/>
<polygon fill="#63b8ff" stroke="#63b8ff" points="471.78,-39.53 476.73,-30.16 467.02,-34.4 471.78,-39.53"/>
</a>
</g>
</g>
<!-- Node6 -->
<g id="Node000006" class="node">
<title>Node6</title>
<g id="a_Node000006"><a xlink:title=" ">
<polygon fill="#e0e0e0" stroke="#999999" points="689.5,-24.5 574.5,-24.5 574.5,-5.5 689.5,-5.5 689.5,-24.5"/>
<text text-anchor="middle" x="632" y="-12.5" font-family="Helvetica,sans-Serif" font-size="10.00">deal.II/base/tensor.h</text>
</a>
</g>
</g>
<!-- Node1&#45;&gt;Node6 -->
<g id="edge5_Node000001_Node000006" class="edge">
<title>Node1&#45;&gt;Node6</title>
<g id="a_edge5_Node000001_Node000006"><a xlink:title=" ">
<path fill="none" stroke="#63b8ff" d="M468.87,-65.95C506.49,-54.43 559.1,-38.32 594.3,-27.54"/>
<polygon fill="#63b8ff" stroke="#63b8ff" points="595.65,-30.79 604.19,-24.52 593.6,-24.1 595.65,-30.79"/>
</a>
</g>
</g>
<!-- Node7 -->
<g id="Node000007" class="node">
<title>Node7</title>
<g id="a_Node000007"><a xlink:title=" ">
<polygon fill="#e0e0e0" stroke="#999999" points="766,-24.5 708,-24.5 708,-5.5 766,-5.5 766,-24.5"/>
<text text-anchor="middle" x="737" y="-12.5" font-family="Helvetica,sans-Serif" font-size="10.00">memory</text>
</a>
</g>
</g>
<!-- Node1&#45;&gt;Node7 -->
<g id="edge6_Node000001_Node000007" class="edge">
<title>Node1&#45;&gt;Node7</title>
<g id="a_edge6_Node000001_Node000007"><a xlink:title=" ">
<path fill="none" stroke="#63b8ff" d="M485.62,-71.83C542.02,-63.72 626.88,-49.66 699,-30 701.43,-29.34 703.93,-28.58 706.43,-27.78"/>
<polygon fill="#63b8ff" stroke="#63b8ff" points="707.6,-31.08 715.91,-24.51 705.31,-24.46 707.6,-31.08"/>
</a>
</g>
</g>
</g>
</svg>
