<?xml version="1.0" encoding="UTF-8" standalone="no"?>
<!DOCTYPE svg PUBLIC "-//W3C//DTD SVG 1.1//EN"
 "http://www.w3.org/Graphics/SVG/1.1/DTD/svg11.dtd">
<!-- Generated by graphviz version 2.43.0 (0)
 -->
<!-- Title: include/meltpooldg/utilities/functions.hpp Pages: 1 -->
<svg width="318pt" height="192pt"
 viewBox="0.00 0.00 317.50 192.00" xmlns="http://www.w3.org/2000/svg" xmlns:xlink="http://www.w3.org/1999/xlink">
<g id="graph0" class="graph" transform="scale(1 1) rotate(0) translate(4 188)">
<title>include/meltpooldg/utilities/functions.hpp</title>
<!-- Node1 -->
<g id="Node000001" class="node">
<title>Node1</title>
<g id="a_Node000001"><a xlink:title=" ">
<polygon fill="#999999" stroke="#666666" points="230.5,-184 105.5,-184 105.5,-154 230.5,-154 230.5,-184"/>
<text text-anchor="start" x="113.5" y="-172" font-family="Helvetica,sans-Serif" font-size="10.00">include/meltpooldg</text>
<text text-anchor="middle" x="168" y="-161" font-family="Helvetica,sans-Serif" font-size="10.00">/utilities/functions.hpp</text>
</a>
</g>
</g>
<!-- Node2 -->
<g id="Node000002" class="node">
<title>Node2</title>
<g id="a_Node000002"><a xlink:href="spurious__currents_8hpp.html" target="_top" xlink:title=" ">
<polygon fill="white" stroke="#666666" points="172,-118 0,-118 0,-77 172,-77 172,-118"/>
<text text-anchor="start" x="8" y="-106" font-family="Helvetica,sans-Serif" font-size="10.00">applications/mp&#45;melt</text>
<text text-anchor="start" x="8" y="-95" font-family="Helvetica,sans-Serif" font-size="10.00">&#45;pool/cases/spurious</text>
<text text-anchor="middle" x="86" y="-84" font-family="Helvetica,sans-Serif" font-size="10.00">_currents/spurious_currents.hpp</text>
</a>
</g>
</g>
<!-- Node1&#45;&gt;Node2 -->
<g id="edge1_Node000001_Node000002" class="edge">
<title>Node1&#45;&gt;Node2</title>
<g id="a_edge1_Node000001_Node000002"><a xlink:title=" ">
<path fill="none" stroke="#63b8ff" d="M143.5,-147.23C132.6,-137.99 119.83,-127.17 109.09,-118.07"/>
<polygon fill="#63b8ff" stroke="#63b8ff" points="141.51,-150.14 151.41,-153.94 146.04,-144.8 141.51,-150.14"/>
</a>
</g>
</g>
<!-- Node4 -->
<g id="Node000004" class="node">
<title>Node4</title>
<g id="a_Node000004"><a xlink:href="heat__cut__operation_8cpp.html" target="_top" xlink:title=" ">
<polygon fill="white" stroke="#666666" points="309.5,-112.5 190.5,-112.5 190.5,-82.5 309.5,-82.5 309.5,-112.5"/>
<text text-anchor="start" x="198.5" y="-100.5" font-family="Helvetica,sans-Serif" font-size="10.00">source/heat/heat_cut</text>
<text text-anchor="middle" x="250" y="-89.5" font-family="Helvetica,sans-Serif" font-size="10.00">_operation.cpp</text>
</a>
</g>
</g>
<!-- Node1&#45;&gt;Node4 -->
<g id="edge3_Node000001_Node000004" class="edge">
<title>Node1&#45;&gt;Node4</title>
<g id="a_edge3_Node000001_Node000004"><a xlink:title=" ">
<path fill="none" stroke="#63b8ff" d="M192.41,-147.31C205.65,-136.09 221.66,-122.52 233.43,-112.54"/>
<polygon fill="#63b8ff" stroke="#63b8ff" points="189.96,-144.8 184.59,-153.94 194.49,-150.14 189.96,-144.8"/>
</a>
</g>
</g>
<!-- Node3 -->
<g id="Node000003" class="node">
<title>Node3</title>
<g id="a_Node000003"><a xlink:href="spurious__currents_8cpp.html" target="_top" xlink:title=" ">
<polygon fill="white" stroke="#666666" points="171.5,-41 0.5,-41 0.5,0 171.5,0 171.5,-41"/>
<text text-anchor="start" x="8.5" y="-29" font-family="Helvetica,sans-Serif" font-size="10.00">applications/mp&#45;melt</text>
<text text-anchor="start" x="8.5" y="-18" font-family="Helvetica,sans-Serif" font-size="10.00">&#45;pool/cases/spurious</text>
<text text-anchor="middle" x="86" y="-7" font-family="Helvetica,sans-Serif" font-size="10.00">_currents/spurious_currents.cpp</text>
</a>
</g>
</g>
<!-- Node2&#45;&gt;Node3 -->
<g id="edge2_Node000002_Node000003" class="edge">
<title>Node2&#45;&gt;Node3</title>
<g id="a_edge2_Node000002_Node000003"><a xlink:title=" ">
<path fill="none" stroke="#63b8ff" d="M86,-66.69C86,-58.08 86,-48.9 86,-41.07"/>
<polygon fill="#63b8ff" stroke="#63b8ff" points="82.5,-66.79 86,-76.79 89.5,-66.79 82.5,-66.79"/>
</a>
</g>
</g>
</g>
</svg>
