<?xml version="1.0" encoding="UTF-8" standalone="no"?>
<!DOCTYPE svg PUBLIC "-//W3C//DTD SVG 1.1//EN"
 "http://www.w3.org/Graphics/SVG/1.1/DTD/svg11.dtd">
<!-- Generated by graphviz version 2.43.0 (0)
 -->
<!-- Title: applications/mp&#45;heat&#45;transfer/heat_transfer_case.hpp Pages: 1 -->
<svg width="2129pt" height="313pt"
 viewBox="0.00 0.00 2128.50 313.00" xmlns="http://www.w3.org/2000/svg" xmlns:xlink="http://www.w3.org/1999/xlink">
<g id="graph0" class="graph" transform="scale(1 1) rotate(0) translate(4 309)">
<title>applications/mp&#45;heat&#45;transfer/heat_transfer_case.hpp</title>
<!-- Node1 -->
<g id="Node000001" class="node">
<title>Node1</title>
<g id="a_Node000001"><a xlink:title=" ">
<polygon fill="#999999" stroke="#666666" points="1055,-305 928,-305 928,-264 1055,-264 1055,-305"/>
<text text-anchor="start" x="936" y="-293" font-family="Helvetica,sans-Serif" font-size="10.00">applications/mp&#45;heat</text>
<text text-anchor="start" x="936" y="-282" font-family="Helvetica,sans-Serif" font-size="10.00">&#45;transfer/heat_transfer</text>
<text text-anchor="middle" x="991.5" y="-271" font-family="Helvetica,sans-Serif" font-size="10.00">_case.hpp</text>
</a>
</g>
</g>
<!-- Node2 -->
<g id="Node000002" class="node">
<title>Node2</title>
<g id="a_Node000002"><a xlink:href="fixed__melt__pool_8hpp.html" target="_top" xlink:title=" ">
<polygon fill="white" stroke="#666666" points="194,-228 45,-228 45,-176 194,-176 194,-228"/>
<text text-anchor="start" x="53" y="-216" font-family="Helvetica,sans-Serif" font-size="10.00">applications/mp&#45;heat</text>
<text text-anchor="start" x="53" y="-205" font-family="Helvetica,sans-Serif" font-size="10.00">&#45;transfer/cases/fixed</text>
<text text-anchor="start" x="53" y="-194" font-family="Helvetica,sans-Serif" font-size="10.00">_melt_pool_geometry/fixed</text>
<text text-anchor="middle" x="119.5" y="-183" font-family="Helvetica,sans-Serif" font-size="10.00">_melt_pool.hpp</text>
</a>
</g>
</g>
<!-- Node1&#45;&gt;Node2 -->
<g id="edge1_Node000001_Node000002" class="edge">
<title>Node1&#45;&gt;Node2</title>
<g id="a_edge1_Node000001_Node000002"><a xlink:title=" ">
<path fill="none" stroke="#63b8ff" d="M917.27,-281.42C781.52,-276.86 484.4,-263.43 236.5,-228 222.72,-226.03 208.14,-223.38 194.13,-220.54"/>
<polygon fill="#63b8ff" stroke="#63b8ff" points="917.44,-284.93 927.55,-281.76 917.67,-277.93 917.44,-284.93"/>
</a>
</g>
</g>
<!-- Node4 -->
<g id="Node000004" class="node">
<title>Node4</title>
<g id="a_Node000004"><a xlink:href="mp-heat-transfer_2cases_2laser__melting__simonds_2laser__melting__simonds_8cpp.html" target="_top" xlink:title=" ">
<polygon fill="white" stroke="#666666" points="1114,-140 981,-140 981,-88 1114,-88 1114,-140"/>
<text text-anchor="start" x="989" y="-128" font-family="Helvetica,sans-Serif" font-size="10.00">applications/mp&#45;heat</text>
<text text-anchor="start" x="989" y="-117" font-family="Helvetica,sans-Serif" font-size="10.00">&#45;transfer/cases/laser</text>
<text text-anchor="start" x="989" y="-106" font-family="Helvetica,sans-Serif" font-size="10.00">_melting_simonds/laser</text>
<text text-anchor="middle" x="1047.5" y="-95" font-family="Helvetica,sans-Serif" font-size="10.00">_melting_simonds.cpp</text>
</a>
</g>
</g>
<!-- Node1&#45;&gt;Node4 -->
<g id="edge3_Node000001_Node000004" class="edge">
<title>Node1&#45;&gt;Node4</title>
<g id="a_edge3_Node000001_Node000004"><a xlink:title=" ">
<path fill="none" stroke="#63b8ff" d="M993.77,-253.82C996.16,-231.79 1000.97,-201.3 1010.5,-176 1015.21,-163.48 1022.54,-150.67 1029.43,-140.04"/>
<polygon fill="#63b8ff" stroke="#63b8ff" points="990.28,-253.61 992.78,-263.9 997.24,-254.29 990.28,-253.61"/>
</a>
</g>
</g>
<!-- Node5 -->
<g id="Node000005" class="node">
<title>Node5</title>
<g id="a_Node000005"><a xlink:href="applications_2mp-heat-transfer_2cases_2melt__front__propagation_2melt__front__propagation_8cpp.html" target="_top" xlink:title=" ">
<polygon fill="white" stroke="#666666" points="301.5,-140 167.5,-140 167.5,-88 301.5,-88 301.5,-140"/>
<text text-anchor="start" x="175.5" y="-128" font-family="Helvetica,sans-Serif" font-size="10.00">applications/mp&#45;heat</text>
<text text-anchor="start" x="175.5" y="-117" font-family="Helvetica,sans-Serif" font-size="10.00">&#45;transfer/cases/melt</text>
<text text-anchor="start" x="175.5" y="-106" font-family="Helvetica,sans-Serif" font-size="10.00">_front_propagation/melt</text>
<text text-anchor="middle" x="234.5" y="-95" font-family="Helvetica,sans-Serif" font-size="10.00">_front_propagation.cpp</text>
</a>
</g>
</g>
<!-- Node1&#45;&gt;Node5 -->
<g id="edge4_Node000001_Node000005" class="edge">
<title>Node1&#45;&gt;Node5</title>
<g id="a_edge4_Node000001_Node000005"><a xlink:title=" ">
<path fill="none" stroke="#63b8ff" d="M917.72,-281.88C747.39,-277.54 337.38,-263.49 286.5,-228 257.45,-207.74 244.28,-167.06 238.57,-140.44"/>
<polygon fill="#63b8ff" stroke="#63b8ff" points="917.77,-285.38 927.86,-282.13 917.95,-278.38 917.77,-285.38"/>
</a>
</g>
</g>
<!-- Node6 -->
<g id="Node000006" class="node">
<title>Node6</title>
<g id="a_Node000006"><a xlink:href="melt__front__propagation_8templates_8hpp.html" target="_top" xlink:title=" ">
<polygon fill="white" stroke="#666666" points="477.5,-228 295.5,-228 295.5,-176 477.5,-176 477.5,-228"/>
<text text-anchor="start" x="303.5" y="-216" font-family="Helvetica,sans-Serif" font-size="10.00">applications/mp&#45;heat</text>
<text text-anchor="start" x="303.5" y="-205" font-family="Helvetica,sans-Serif" font-size="10.00">&#45;transfer/cases/melt</text>
<text text-anchor="start" x="303.5" y="-194" font-family="Helvetica,sans-Serif" font-size="10.00">_front_propagation/melt</text>
<text text-anchor="middle" x="386.5" y="-183" font-family="Helvetica,sans-Serif" font-size="10.00">_front_propagation.templates.hpp</text>
</a>
</g>
</g>
<!-- Node1&#45;&gt;Node6 -->
<g id="edge5_Node000001_Node000006" class="edge">
<title>Node1&#45;&gt;Node6</title>
<g id="a_edge5_Node000001_Node000006"><a xlink:title=" ">
<path fill="none" stroke="#63b8ff" d="M917.92,-276C826.27,-266.35 664.99,-248.4 527.5,-228 511.39,-225.61 494.3,-222.81 477.77,-219.96"/>
<polygon fill="#63b8ff" stroke="#63b8ff" points="917.62,-279.48 927.93,-277.04 918.35,-272.52 917.62,-279.48"/>
</a>
</g>
</g>
<!-- Node8 -->
<g id="Node000008" class="node">
<title>Node8</title>
<g id="a_Node000008"><a xlink:href="applications_2mp-heat-transfer_2cases_2powder__bed_2powder__bed_8cpp.html" target="_top" xlink:title=" ">
<polygon fill="white" stroke="#666666" points="599.5,-134.5 471.5,-134.5 471.5,-93.5 599.5,-93.5 599.5,-134.5"/>
<text text-anchor="start" x="479.5" y="-122.5" font-family="Helvetica,sans-Serif" font-size="10.00">applications/mp&#45;heat</text>
<text text-anchor="start" x="479.5" y="-111.5" font-family="Helvetica,sans-Serif" font-size="10.00">&#45;transfer/cases/powder</text>
<text text-anchor="middle" x="535.5" y="-100.5" font-family="Helvetica,sans-Serif" font-size="10.00">_bed/powder_bed.cpp</text>
</a>
</g>
</g>
<!-- Node1&#45;&gt;Node8 -->
<g id="edge8_Node000001_Node000008" class="edge">
<title>Node1&#45;&gt;Node8</title>
<g id="a_edge8_Node000001_Node000008"><a xlink:title=" ">
<path fill="none" stroke="#63b8ff" d="M917.66,-283.41C810.07,-281.72 617.47,-272.38 566.5,-228 539.65,-204.62 535.02,-160.4 534.78,-134.76"/>
<polygon fill="#63b8ff" stroke="#63b8ff" points="917.75,-286.91 927.8,-283.55 917.85,-279.91 917.75,-286.91"/>
</a>
</g>
</g>
<!-- Node9 -->
<g id="Node000009" class="node">
<title>Node9</title>
<g id="a_Node000009"><a xlink:href="powder__bed_8templates_8hpp.html" target="_top" xlink:title=" ">
<polygon fill="white" stroke="#666666" points="751.5,-222.5 575.5,-222.5 575.5,-181.5 751.5,-181.5 751.5,-222.5"/>
<text text-anchor="start" x="583.5" y="-210.5" font-family="Helvetica,sans-Serif" font-size="10.00">applications/mp&#45;heat</text>
<text text-anchor="start" x="583.5" y="-199.5" font-family="Helvetica,sans-Serif" font-size="10.00">&#45;transfer/cases/powder</text>
<text text-anchor="middle" x="663.5" y="-188.5" font-family="Helvetica,sans-Serif" font-size="10.00">_bed/powder_bed.templates.hpp</text>
</a>
</g>
</g>
<!-- Node1&#45;&gt;Node9 -->
<g id="edge9_Node000001_Node000009" class="edge">
<title>Node1&#45;&gt;Node9</title>
<g id="a_edge9_Node000001_Node000009"><a xlink:title=" ">
<path fill="none" stroke="#63b8ff" d="M918.05,-265.47C866.11,-252.73 796.5,-235.64 743.21,-222.56"/>
<polygon fill="#63b8ff" stroke="#63b8ff" points="917.32,-268.9 927.87,-267.88 918.99,-262.1 917.32,-268.9"/>
</a>
</g>
</g>
<!-- Node11 -->
<g id="Node000011" class="node">
<title>Node11</title>
<g id="a_Node000011"><a xlink:href="mp-heat-transfer_2cases_2single__track__melt_2single__track__melt_8cpp.html" target="_top" xlink:title=" ">
<polygon fill="white" stroke="#666666" points="1304,-52 1167,-52 1167,0 1304,0 1304,-52"/>
<text text-anchor="start" x="1175" y="-40" font-family="Helvetica,sans-Serif" font-size="10.00">applications/mp&#45;heat</text>
<text text-anchor="start" x="1175" y="-29" font-family="Helvetica,sans-Serif" font-size="10.00">&#45;transfer/cases/single</text>
<text text-anchor="start" x="1175" y="-18" font-family="Helvetica,sans-Serif" font-size="10.00">_track_melt/single_track</text>
<text text-anchor="middle" x="1235.5" y="-7" font-family="Helvetica,sans-Serif" font-size="10.00">_melt.cpp</text>
</a>
</g>
</g>
<!-- Node1&#45;&gt;Node11 -->
<g id="edge12_Node000001_Node000011" class="edge">
<title>Node1&#45;&gt;Node11</title>
<g id="a_edge12_Node000001_Node000011"><a xlink:title=" ">
<path fill="none" stroke="#63b8ff" d="M917.61,-271.66C869.56,-262.28 813.18,-247.5 798.5,-228 761.07,-178.29 757.66,-134.94 798.5,-88 845.39,-34.11 1055.89,-26.37 1166.73,-26.13"/>
<polygon fill="#63b8ff" stroke="#63b8ff" points="917.25,-275.15 927.72,-273.58 918.55,-268.27 917.25,-275.15"/>
</a>
</g>
</g>
<!-- Node12 -->
<g id="Node000012" class="node">
<title>Node12</title>
<g id="a_Node000012"><a xlink:href="solidification__slab_8hpp.html" target="_top" xlink:title=" ">
<polygon fill="white" stroke="#666666" points="963,-222.5 808,-222.5 808,-181.5 963,-181.5 963,-222.5"/>
<text text-anchor="start" x="816" y="-210.5" font-family="Helvetica,sans-Serif" font-size="10.00">applications/mp&#45;heat</text>
<text text-anchor="start" x="816" y="-199.5" font-family="Helvetica,sans-Serif" font-size="10.00">&#45;transfer/cases/solidification</text>
<text text-anchor="middle" x="885.5" y="-188.5" font-family="Helvetica,sans-Serif" font-size="10.00">_slab/solidification_slab.hpp</text>
</a>
</g>
</g>
<!-- Node1&#45;&gt;Node12 -->
<g id="edge13_Node000001_Node000012" class="edge">
<title>Node1&#45;&gt;Node12</title>
<g id="a_edge13_Node000001_Node000012"><a xlink:title=" ">
<path fill="none" stroke="#63b8ff" d="M957.56,-257.72C942.64,-246.4 925.41,-233.31 911.53,-222.77"/>
<polygon fill="#63b8ff" stroke="#63b8ff" points="955.49,-260.55 965.57,-263.81 959.72,-254.97 955.49,-260.55"/>
</a>
</g>
</g>
<!-- Node14 -->
<g id="Node000014" class="node">
<title>Node14</title>
<g id="a_Node000014"><a xlink:href="unidirectional__heat__transfer_8hpp.html" target="_top" xlink:title=" ">
<polygon fill="white" stroke="#666666" points="1450,-228 1291,-228 1291,-176 1450,-176 1450,-228"/>
<text text-anchor="start" x="1299" y="-216" font-family="Helvetica,sans-Serif" font-size="10.00">applications/mp&#45;heat</text>
<text text-anchor="start" x="1299" y="-205" font-family="Helvetica,sans-Serif" font-size="10.00">&#45;transfer/cases/unidirectional</text>
<text text-anchor="start" x="1299" y="-194" font-family="Helvetica,sans-Serif" font-size="10.00">_heat_transfer/unidirectional</text>
<text text-anchor="middle" x="1370.5" y="-183" font-family="Helvetica,sans-Serif" font-size="10.00">_heat_transfer.hpp</text>
</a>
</g>
</g>
<!-- Node1&#45;&gt;Node14 -->
<g id="edge15_Node000001_Node000014" class="edge">
<title>Node1&#45;&gt;Node14</title>
<g id="a_edge15_Node000001_Node000014"><a xlink:title=" ">
<path fill="none" stroke="#63b8ff" d="M1065.14,-271.18C1123.97,-260.92 1208.39,-245.23 1281.5,-228 1284.47,-227.3 1287.49,-226.57 1290.53,-225.81"/>
<polygon fill="#63b8ff" stroke="#63b8ff" points="1064.44,-267.75 1055.19,-272.91 1065.64,-274.65 1064.44,-267.75"/>
</a>
</g>
</g>
<!-- Node16 -->
<g id="Node000016" class="node">
<title>Node16</title>
<g id="a_Node000016"><a xlink:href="heat__transfer__application_8hpp.html" target="_top" xlink:title=" ">
<polygon fill="white" stroke="#666666" points="1748,-222.5 1621,-222.5 1621,-181.5 1748,-181.5 1748,-222.5"/>
<text text-anchor="start" x="1629" y="-210.5" font-family="Helvetica,sans-Serif" font-size="10.00">applications/mp&#45;heat</text>
<text text-anchor="start" x="1629" y="-199.5" font-family="Helvetica,sans-Serif" font-size="10.00">&#45;transfer/heat_transfer</text>
<text text-anchor="middle" x="1684.5" y="-188.5" font-family="Helvetica,sans-Serif" font-size="10.00">_application.hpp</text>
</a>
</g>
</g>
<!-- Node1&#45;&gt;Node16 -->
<g id="edge17_Node000001_Node000016" class="edge">
<title>Node1&#45;&gt;Node16</title>
<g id="a_edge17_Node000001_Node000016"><a xlink:title=" ">
<path fill="none" stroke="#63b8ff" d="M1065.45,-282.6C1182.56,-279.91 1417.32,-269.31 1611.5,-228 1618.31,-226.55 1625.37,-224.66 1632.29,-222.56"/>
<polygon fill="#63b8ff" stroke="#63b8ff" points="1065.09,-279.11 1055.17,-282.83 1065.25,-286.11 1065.09,-279.11"/>
</a>
</g>
</g>
<!-- Node18 -->
<g id="Node000018" class="node">
<title>Node18</title>
<g id="a_Node000018"><a xlink:href="mp-heat-transfer_2unit__tests_2detailed__parameters_8cc.html" target="_top" xlink:title=" ">
<polygon fill="white" stroke="#666666" points="1602.5,-222.5 1468.5,-222.5 1468.5,-181.5 1602.5,-181.5 1602.5,-222.5"/>
<text text-anchor="start" x="1476.5" y="-210.5" font-family="Helvetica,sans-Serif" font-size="10.00">applications/mp&#45;heat</text>
<text text-anchor="start" x="1476.5" y="-199.5" font-family="Helvetica,sans-Serif" font-size="10.00">&#45;transfer/unit_tests</text>
<text text-anchor="middle" x="1535.5" y="-188.5" font-family="Helvetica,sans-Serif" font-size="10.00">/detailed_parameters.cc</text>
</a>
</g>
</g>
<!-- Node1&#45;&gt;Node18 -->
<g id="edge19_Node000001_Node000018" class="edge">
<title>Node1&#45;&gt;Node18</title>
<g id="a_edge19_Node000001_Node000018"><a xlink:title=" ">
<path fill="none" stroke="#63b8ff" d="M1065.35,-279.2C1158.04,-272.78 1321.49,-258.08 1458.5,-228 1465.36,-226.49 1472.48,-224.62 1479.5,-222.58"/>
<polygon fill="#63b8ff" stroke="#63b8ff" points="1064.97,-275.72 1055.23,-279.89 1065.44,-282.7 1064.97,-275.72"/>
</a>
</g>
</g>
<!-- Node19 -->
<g id="Node000019" class="node">
<title>Node19</title>
<g id="a_Node000019"><a xlink:href="laser__melting__simonds_8templates_8hpp.html" target="_top" xlink:title=" ">
<polygon fill="white" stroke="#666666" points="1273,-222.5 1020,-222.5 1020,-181.5 1273,-181.5 1273,-222.5"/>
<text text-anchor="start" x="1028" y="-210.5" font-family="Helvetica,sans-Serif" font-size="10.00">applications/mp&#45;melt</text>
<text text-anchor="start" x="1028" y="-199.5" font-family="Helvetica,sans-Serif" font-size="10.00">&#45;pool/cases/laser_melting</text>
<text text-anchor="middle" x="1146.5" y="-188.5" font-family="Helvetica,sans-Serif" font-size="10.00">_simonds/laser_melting_simonds.templates.hpp</text>
</a>
</g>
</g>
<!-- Node1&#45;&gt;Node19 -->
<g id="edge20_Node000001_Node000019" class="edge">
<title>Node1&#45;&gt;Node19</title>
<g id="a_edge20_Node000001_Node000019"><a xlink:title=" ">
<path fill="none" stroke="#63b8ff" d="M1038.46,-259.11C1060.95,-247.43 1087.54,-233.62 1108.71,-222.63"/>
<polygon fill="#63b8ff" stroke="#63b8ff" points="1036.68,-256.09 1029.42,-263.81 1039.9,-262.3 1036.68,-256.09"/>
</a>
</g>
</g>
<!-- Node21 -->
<g id="Node000021" class="node">
<title>Node21</title>
<g id="a_Node000021"><a xlink:href="single__track__melt_8hpp.html" target="_top" xlink:title=" ">
<polygon fill="white" stroke="#666666" points="1960,-222.5 1805,-222.5 1805,-181.5 1960,-181.5 1960,-222.5"/>
<text text-anchor="start" x="1813" y="-210.5" font-family="Helvetica,sans-Serif" font-size="10.00">applications/mp&#45;melt</text>
<text text-anchor="start" x="1813" y="-199.5" font-family="Helvetica,sans-Serif" font-size="10.00">&#45;pool/cases/single_track</text>
<text text-anchor="middle" x="1882.5" y="-188.5" font-family="Helvetica,sans-Serif" font-size="10.00">_melt/single_track_melt.hpp</text>
</a>
</g>
</g>
<!-- Node1&#45;&gt;Node21 -->
<g id="edge23_Node000001_Node000021" class="edge">
<title>Node1&#45;&gt;Node21</title>
<g id="a_edge23_Node000001_Node000021"><a xlink:title=" ">
<path fill="none" stroke="#63b8ff" d="M1065.48,-283.18C1207.19,-281.52 1526.32,-272.62 1790.5,-228 1799.07,-226.55 1807.99,-224.65 1816.76,-222.53"/>
<polygon fill="#63b8ff" stroke="#63b8ff" points="1065.14,-279.69 1055.18,-283.3 1065.22,-286.69 1065.14,-279.69"/>
</a>
</g>
</g>
<!-- Node22 -->
<g id="Node000022" class="node">
<title>Node22</title>
<g id="a_Node000022"><a xlink:href="single__track__melt_8templates_8hpp.html" target="_top" xlink:title=" ">
<polygon fill="white" stroke="#666666" points="1920.5,-134.5 1712.5,-134.5 1712.5,-93.5 1920.5,-93.5 1920.5,-134.5"/>
<text text-anchor="start" x="1720.5" y="-122.5" font-family="Helvetica,sans-Serif" font-size="10.00">applications/mp&#45;melt</text>
<text text-anchor="start" x="1720.5" y="-111.5" font-family="Helvetica,sans-Serif" font-size="10.00">&#45;pool/cases/single_track</text>
<text text-anchor="middle" x="1816.5" y="-100.5" font-family="Helvetica,sans-Serif" font-size="10.00">_melt/single_track_melt.templates.hpp</text>
</a>
</g>
</g>
<!-- Node1&#45;&gt;Node22 -->
<g id="edge27_Node000001_Node000022" class="edge">
<title>Node1&#45;&gt;Node22</title>
<g id="a_edge27_Node000001_Node000022"><a xlink:title=" ">
<path fill="none" stroke="#63b8ff" d="M1065.36,-282.2C1246.18,-278.46 1700.54,-265.4 1757.5,-228 1774.43,-216.89 1797.3,-163.92 1808.97,-134.61"/>
<polygon fill="#63b8ff" stroke="#63b8ff" points="1065.07,-278.71 1055.14,-282.41 1065.21,-285.71 1065.07,-278.71"/>
</a>
</g>
</g>
<!-- Node24 -->
<g id="Node000024" class="node">
<title>Node24</title>
<g id="a_Node000024"><a xlink:href="radiative__transport_8templates_8hpp.html" target="_top" xlink:title=" ">
<polygon fill="white" stroke="#666666" points="2120.5,-222.5 1978.5,-222.5 1978.5,-181.5 2120.5,-181.5 2120.5,-222.5"/>
<text text-anchor="start" x="1986.5" y="-210.5" font-family="Helvetica,sans-Serif" font-size="10.00">applications/mp&#45;radiative</text>
<text text-anchor="start" x="1986.5" y="-199.5" font-family="Helvetica,sans-Serif" font-size="10.00">&#45;transport/cases/radiative</text>
<text text-anchor="middle" x="2049.5" y="-188.5" font-family="Helvetica,sans-Serif" font-size="10.00">_transport.templates.hpp</text>
</a>
</g>
</g>
<!-- Node1&#45;&gt;Node24 -->
<g id="edge28_Node000001_Node000024" class="edge">
<title>Node1&#45;&gt;Node24</title>
<g id="a_edge28_Node000001_Node000024"><a xlink:title=" ">
<path fill="none" stroke="#63b8ff" d="M1065.41,-281.66C1262.27,-276.38 1796.08,-259.52 1969.5,-228 1977.23,-226.59 1985.26,-224.67 1993.12,-222.51"/>
<polygon fill="#63b8ff" stroke="#63b8ff" points="1065.07,-278.17 1055.17,-281.93 1065.26,-285.17 1065.07,-278.17"/>
</a>
</g>
</g>
<!-- Node3 -->
<g id="Node000003" class="node">
<title>Node3</title>
<g id="a_Node000003"><a xlink:href="fixed__melt__pool_8cpp.html" target="_top" xlink:title=" ">
<polygon fill="white" stroke="#666666" points="149,-140 0,-140 0,-88 149,-88 149,-140"/>
<text text-anchor="start" x="8" y="-128" font-family="Helvetica,sans-Serif" font-size="10.00">applications/mp&#45;heat</text>
<text text-anchor="start" x="8" y="-117" font-family="Helvetica,sans-Serif" font-size="10.00">&#45;transfer/cases/fixed</text>
<text text-anchor="start" x="8" y="-106" font-family="Helvetica,sans-Serif" font-size="10.00">_melt_pool_geometry/fixed</text>
<text text-anchor="middle" x="74.5" y="-95" font-family="Helvetica,sans-Serif" font-size="10.00">_melt_pool.cpp</text>
</a>
</g>
</g>
<!-- Node2&#45;&gt;Node3 -->
<g id="edge2_Node000002_Node000003" class="edge">
<title>Node2&#45;&gt;Node3</title>
<g id="a_edge2_Node000002_Node000003"><a xlink:title=" ">
<path fill="none" stroke="#63b8ff" d="M101.54,-166.68C96.91,-157.82 92,-148.45 87.66,-140.16"/>
<polygon fill="#63b8ff" stroke="#63b8ff" points="98.5,-168.42 106.24,-175.66 104.71,-165.18 98.5,-168.42"/>
</a>
</g>
</g>
<!-- Node6&#45;&gt;Node5 -->
<g id="edge6_Node000006_Node000005" class="edge">
<title>Node6&#45;&gt;Node5</title>
<g id="a_edge6_Node000006_Node000005"><a xlink:title=" ">
<path fill="none" stroke="#63b8ff" d="M333.06,-170.76C315.36,-160.75 295.87,-149.72 278.93,-140.14"/>
<polygon fill="#63b8ff" stroke="#63b8ff" points="331.7,-174.02 342.13,-175.89 335.15,-167.92 331.7,-174.02"/>
</a>
</g>
</g>
<!-- Node7 -->
<g id="Node000007" class="node">
<title>Node7</title>
<g id="a_Node000007"><a xlink:href="applications_2mp-melt-pool_2cases_2melt__front__propagation_2melt__front__propagation_8cpp.html" target="_top" xlink:title=" ">
<polygon fill="white" stroke="#666666" points="453.5,-140 319.5,-140 319.5,-88 453.5,-88 453.5,-140"/>
<text text-anchor="start" x="327.5" y="-128" font-family="Helvetica,sans-Serif" font-size="10.00">applications/mp&#45;melt</text>
<text text-anchor="start" x="327.5" y="-117" font-family="Helvetica,sans-Serif" font-size="10.00">&#45;pool/cases/melt_front</text>
<text text-anchor="start" x="327.5" y="-106" font-family="Helvetica,sans-Serif" font-size="10.00">_propagation/melt_front</text>
<text text-anchor="middle" x="386.5" y="-95" font-family="Helvetica,sans-Serif" font-size="10.00">_propagation.cpp</text>
</a>
</g>
</g>
<!-- Node6&#45;&gt;Node7 -->
<g id="edge7_Node000006_Node000007" class="edge">
<title>Node6&#45;&gt;Node7</title>
<g id="a_edge7_Node000006_Node000007"><a xlink:title=" ">
<path fill="none" stroke="#63b8ff" d="M386.5,-165.56C386.5,-157.04 386.5,-148.1 386.5,-140.16"/>
<polygon fill="#63b8ff" stroke="#63b8ff" points="383,-165.66 386.5,-175.66 390,-165.66 383,-165.66"/>
</a>
</g>
</g>
<!-- Node9&#45;&gt;Node8 -->
<g id="edge10_Node000009_Node000008" class="edge">
<title>Node9&#45;&gt;Node8</title>
<g id="a_edge10_Node000009_Node000008"><a xlink:title=" ">
<path fill="none" stroke="#63b8ff" d="M626.09,-175.86C606.58,-162.75 583.06,-146.95 564.87,-134.74"/>
<polygon fill="#63b8ff" stroke="#63b8ff" points="624.2,-178.81 634.45,-181.49 628.11,-173 624.2,-178.81"/>
</a>
</g>
</g>
<!-- Node10 -->
<g id="Node000010" class="node">
<title>Node10</title>
<g id="a_Node000010"><a xlink:href="applications_2mp-melt-pool_2cases_2powder__bed_2powder__bed_8cpp.html" target="_top" xlink:title=" ">
<polygon fill="white" stroke="#666666" points="751.5,-134.5 617.5,-134.5 617.5,-93.5 751.5,-93.5 751.5,-134.5"/>
<text text-anchor="start" x="625.5" y="-122.5" font-family="Helvetica,sans-Serif" font-size="10.00">applications/mp&#45;melt</text>
<text text-anchor="start" x="625.5" y="-111.5" font-family="Helvetica,sans-Serif" font-size="10.00">&#45;pool/cases/powder_bed</text>
<text text-anchor="middle" x="684.5" y="-100.5" font-family="Helvetica,sans-Serif" font-size="10.00">/powder_bed.cpp</text>
</a>
</g>
</g>
<!-- Node9&#45;&gt;Node10 -->
<g id="edge11_Node000009_Node000010" class="edge">
<title>Node9&#45;&gt;Node10</title>
<g id="a_edge11_Node000009_Node000010"><a xlink:title=" ">
<path fill="none" stroke="#63b8ff" d="M670.65,-171.73C673.63,-159.53 677.01,-145.69 679.68,-134.74"/>
<polygon fill="#63b8ff" stroke="#63b8ff" points="667.24,-170.94 668.27,-181.49 674.04,-172.6 667.24,-170.94"/>
</a>
</g>
</g>
<!-- Node13 -->
<g id="Node000013" class="node">
<title>Node13</title>
<g id="a_Node000013"><a xlink:href="solidification__slab_8cpp.html" target="_top" xlink:title=" ">
<polygon fill="white" stroke="#666666" points="963,-134.5 808,-134.5 808,-93.5 963,-93.5 963,-134.5"/>
<text text-anchor="start" x="816" y="-122.5" font-family="Helvetica,sans-Serif" font-size="10.00">applications/mp&#45;heat</text>
<text text-anchor="start" x="816" y="-111.5" font-family="Helvetica,sans-Serif" font-size="10.00">&#45;transfer/cases/solidification</text>
<text text-anchor="middle" x="885.5" y="-100.5" font-family="Helvetica,sans-Serif" font-size="10.00">_slab/solidification_slab.cpp</text>
</a>
</g>
</g>
<!-- Node12&#45;&gt;Node13 -->
<g id="edge14_Node000012_Node000013" class="edge">
<title>Node12&#45;&gt;Node13</title>
<g id="a_edge14_Node000012_Node000013"><a xlink:title=" ">
<path fill="none" stroke="#63b8ff" d="M885.5,-171.36C885.5,-159.26 885.5,-145.58 885.5,-134.74"/>
<polygon fill="#63b8ff" stroke="#63b8ff" points="882,-171.49 885.5,-181.49 889,-171.49 882,-171.49"/>
</a>
</g>
</g>
<!-- Node15 -->
<g id="Node000015" class="node">
<title>Node15</title>
<g id="a_Node000015"><a xlink:href="unidirectional__heat__transfer_8cpp.html" target="_top" xlink:title=" ">
<polygon fill="white" stroke="#666666" points="1510,-140 1351,-140 1351,-88 1510,-88 1510,-140"/>
<text text-anchor="start" x="1359" y="-128" font-family="Helvetica,sans-Serif" font-size="10.00">applications/mp&#45;heat</text>
<text text-anchor="start" x="1359" y="-117" font-family="Helvetica,sans-Serif" font-size="10.00">&#45;transfer/cases/unidirectional</text>
<text text-anchor="start" x="1359" y="-106" font-family="Helvetica,sans-Serif" font-size="10.00">_heat_transfer/unidirectional</text>
<text text-anchor="middle" x="1430.5" y="-95" font-family="Helvetica,sans-Serif" font-size="10.00">_heat_transfer.cpp</text>
</a>
</g>
</g>
<!-- Node14&#45;&gt;Node15 -->
<g id="edge16_Node000014_Node000015" class="edge">
<title>Node14&#45;&gt;Node15</title>
<g id="a_edge16_Node000014_Node000015"><a xlink:title=" ">
<path fill="none" stroke="#63b8ff" d="M1394.05,-167.24C1400.35,-158.22 1407.04,-148.63 1412.95,-140.16"/>
<polygon fill="#63b8ff" stroke="#63b8ff" points="1391.03,-165.46 1388.18,-175.66 1396.77,-169.46 1391.03,-165.46"/>
</a>
</g>
</g>
<!-- Node17 -->
<g id="Node000017" class="node">
<title>Node17</title>
<g id="a_Node000017"><a xlink:href="heat__transfer__application_8cpp.html" target="_top" xlink:title=" ">
<polygon fill="white" stroke="#666666" points="1694,-134.5 1567,-134.5 1567,-93.5 1694,-93.5 1694,-134.5"/>
<text text-anchor="start" x="1575" y="-122.5" font-family="Helvetica,sans-Serif" font-size="10.00">applications/mp&#45;heat</text>
<text text-anchor="start" x="1575" y="-111.5" font-family="Helvetica,sans-Serif" font-size="10.00">&#45;transfer/heat_transfer</text>
<text text-anchor="middle" x="1630.5" y="-100.5" font-family="Helvetica,sans-Serif" font-size="10.00">_application.cpp</text>
</a>
</g>
</g>
<!-- Node16&#45;&gt;Node17 -->
<g id="edge18_Node000016_Node000017" class="edge">
<title>Node16&#45;&gt;Node17</title>
<g id="a_edge18_Node000016_Node000017"><a xlink:title=" ">
<path fill="none" stroke="#63b8ff" d="M1666.81,-172.82C1658.99,-160.37 1649.98,-146.02 1642.89,-134.74"/>
<polygon fill="#63b8ff" stroke="#63b8ff" points="1663.96,-174.88 1672.25,-181.49 1669.89,-171.16 1663.96,-174.88"/>
</a>
</g>
</g>
<!-- Node19&#45;&gt;Node4 -->
<g id="edge21_Node000019_Node000004" class="edge">
<title>Node19&#45;&gt;Node4</title>
<g id="a_edge21_Node000019_Node000004"><a xlink:title=" ">
<path fill="none" stroke="#63b8ff" d="M1116.47,-174.91C1103.83,-163.93 1089.18,-151.21 1076.64,-140.32"/>
<polygon fill="#63b8ff" stroke="#63b8ff" points="1114.19,-177.57 1124.04,-181.49 1118.78,-172.28 1114.19,-177.57"/>
</a>
</g>
</g>
<!-- Node20 -->
<g id="Node000020" class="node">
<title>Node20</title>
<g id="a_Node000020"><a xlink:href="mp-melt-pool_2cases_2laser__melting__simonds_2laser__melting__simonds_8cpp.html" target="_top" xlink:title=" ">
<polygon fill="white" stroke="#666666" points="1332.5,-134.5 1132.5,-134.5 1132.5,-93.5 1332.5,-93.5 1332.5,-134.5"/>
<text text-anchor="start" x="1140.5" y="-122.5" font-family="Helvetica,sans-Serif" font-size="10.00">applications/mp&#45;melt</text>
<text text-anchor="start" x="1140.5" y="-111.5" font-family="Helvetica,sans-Serif" font-size="10.00">&#45;pool/cases/laser_melting</text>
<text text-anchor="middle" x="1232.5" y="-100.5" font-family="Helvetica,sans-Serif" font-size="10.00">_simonds/laser_melting_simonds.cpp</text>
</a>
</g>
</g>
<!-- Node19&#45;&gt;Node20 -->
<g id="edge22_Node000019_Node000020" class="edge">
<title>Node19&#45;&gt;Node20</title>
<g id="a_edge22_Node000019_Node000020"><a xlink:title=" ">
<path fill="none" stroke="#63b8ff" d="M1173.24,-174.26C1186.02,-161.48 1201.04,-146.46 1212.76,-134.74"/>
<polygon fill="#63b8ff" stroke="#63b8ff" points="1170.61,-171.94 1166.01,-181.49 1175.56,-176.89 1170.61,-171.94"/>
</a>
</g>
</g>
<!-- Node21&#45;&gt;Node22 -->
<g id="edge24_Node000021_Node000022" class="edge">
<title>Node21&#45;&gt;Node22</title>
<g id="a_edge24_Node000021_Node000022"><a xlink:title=" ">
<path fill="none" stroke="#63b8ff" d="M1861.43,-173.54C1851.74,-160.92 1840.48,-146.24 1831.65,-134.74"/>
<polygon fill="#63b8ff" stroke="#63b8ff" points="1858.66,-175.68 1867.52,-181.49 1864.21,-171.42 1858.66,-175.68"/>
</a>
</g>
</g>
<!-- Node22&#45;&gt;Node11 -->
<g id="edge25_Node000022_Node000011" class="edge">
<title>Node22&#45;&gt;Node11</title>
<g id="a_edge25_Node000022_Node000011"><a xlink:title=" ">
<path fill="none" stroke="#63b8ff" d="M1722.19,-91.49C1715.88,-90.25 1709.6,-89.07 1703.5,-88 1562.47,-63.26 1395.91,-43.87 1304.38,-34.06"/>
<polygon fill="#63b8ff" stroke="#63b8ff" points="1721.63,-94.94 1732.13,-93.48 1723.01,-88.08 1721.63,-94.94"/>
</a>
</g>
</g>
<!-- Node23 -->
<g id="Node000023" class="node">
<title>Node23</title>
<g id="a_Node000023"><a xlink:href="mp-melt-pool_2cases_2single__track__melt_2single__track__melt_8cpp.html" target="_top" xlink:title=" ">
<polygon fill="white" stroke="#666666" points="1894,-46.5 1739,-46.5 1739,-5.5 1894,-5.5 1894,-46.5"/>
<text text-anchor="start" x="1747" y="-34.5" font-family="Helvetica,sans-Serif" font-size="10.00">applications/mp&#45;melt</text>
<text text-anchor="start" x="1747" y="-23.5" font-family="Helvetica,sans-Serif" font-size="10.00">&#45;pool/cases/single_track</text>
<text text-anchor="middle" x="1816.5" y="-12.5" font-family="Helvetica,sans-Serif" font-size="10.00">_melt/single_track_melt.cpp</text>
</a>
</g>
</g>
<!-- Node22&#45;&gt;Node23 -->
<g id="edge26_Node000022_Node000023" class="edge">
<title>Node22&#45;&gt;Node23</title>
<g id="a_edge26_Node000022_Node000023"><a xlink:title=" ">
<path fill="none" stroke="#63b8ff" d="M1816.5,-83.36C1816.5,-71.26 1816.5,-57.58 1816.5,-46.74"/>
<polygon fill="#63b8ff" stroke="#63b8ff" points="1813,-83.49 1816.5,-93.49 1820,-83.49 1813,-83.49"/>
</a>
</g>
</g>
<!-- Node25 -->
<g id="Node000025" class="node">
<title>Node25</title>
<g id="a_Node000025"><a xlink:href="mp-radiative-transport_2cases_2radiative__transport_8cpp.html" target="_top" xlink:title=" ">
<polygon fill="white" stroke="#666666" points="2120.5,-134.5 1978.5,-134.5 1978.5,-93.5 2120.5,-93.5 2120.5,-134.5"/>
<text text-anchor="start" x="1986.5" y="-122.5" font-family="Helvetica,sans-Serif" font-size="10.00">applications/mp&#45;radiative</text>
<text text-anchor="start" x="1986.5" y="-111.5" font-family="Helvetica,sans-Serif" font-size="10.00">&#45;transport/cases/radiative</text>
<text text-anchor="middle" x="2049.5" y="-100.5" font-family="Helvetica,sans-Serif" font-size="10.00">_transport.cpp</text>
</a>
</g>
</g>
<!-- Node24&#45;&gt;Node25 -->
<g id="edge29_Node000024_Node000025" class="edge">
<title>Node24&#45;&gt;Node25</title>
<g id="a_edge29_Node000024_Node000025"><a xlink:title=" ">
<path fill="none" stroke="#63b8ff" d="M2049.5,-171.36C2049.5,-159.26 2049.5,-145.58 2049.5,-134.74"/>
<polygon fill="#63b8ff" stroke="#63b8ff" points="2046,-171.49 2049.5,-181.49 2053,-171.49 2046,-171.49"/>
</a>
</g>
</g>
</g>
</svg>
