<?xml version="1.0" encoding="UTF-8" standalone="no"?>
<!DOCTYPE svg PUBLIC "-//W3C//DTD SVG 1.1//EN"
 "http://www.w3.org/Graphics/SVG/1.1/DTD/svg11.dtd">
<!-- Generated by graphviz version 2.43.0 (0)
 -->
<!-- Title: include/meltpooldg/heat/heat_operation_base.hpp Pages: 1 -->
<svg width="698pt" height="203pt"
 viewBox="0.00 0.00 698.00 203.00" xmlns="http://www.w3.org/2000/svg" xmlns:xlink="http://www.w3.org/1999/xlink">
<g id="graph0" class="graph" transform="scale(1 1) rotate(0) translate(4 199)">
<title>include/meltpooldg/heat/heat_operation_base.hpp</title>
<!-- Node1 -->
<g id="Node000001" class="node">
<title>Node1</title>
<g id="a_Node000001"><a xlink:title=" ">
<polygon fill="#999999" stroke="#666666" points="385.5,-195 267.5,-195 267.5,-154 385.5,-154 385.5,-195"/>
<text text-anchor="start" x="275.5" y="-183" font-family="Helvetica,sans-Serif" font-size="10.00">include/meltpooldg</text>
<text text-anchor="start" x="275.5" y="-172" font-family="Helvetica,sans-Serif" font-size="10.00">/heat/heat_operation</text>
<text text-anchor="middle" x="326.5" y="-161" font-family="Helvetica,sans-Serif" font-size="10.00">_base.hpp</text>
</a>
</g>
</g>
<!-- Node2 -->
<g id="Node000002" class="node">
<title>Node2</title>
<g id="a_Node000002"><a xlink:href="heat__transfer__application_8hpp.html" target="_top" xlink:title=" ">
<polygon fill="white" stroke="#666666" points="127,-118 0,-118 0,-77 127,-77 127,-118"/>
<text text-anchor="start" x="8" y="-106" font-family="Helvetica,sans-Serif" font-size="10.00">applications/mp&#45;heat</text>
<text text-anchor="start" x="8" y="-95" font-family="Helvetica,sans-Serif" font-size="10.00">&#45;transfer/heat_transfer</text>
<text text-anchor="middle" x="63.5" y="-84" font-family="Helvetica,sans-Serif" font-size="10.00">_application.hpp</text>
</a>
</g>
</g>
<!-- Node1&#45;&gt;Node2 -->
<g id="edge1_Node000001_Node000002" class="edge">
<title>Node1&#45;&gt;Node2</title>
<g id="a_edge1_Node000001_Node000002"><a xlink:title=" ">
<path fill="none" stroke="#63b8ff" d="M257.73,-153.89C217.41,-142.39 166.82,-127.97 127.38,-116.72"/>
<polygon fill="#63b8ff" stroke="#63b8ff" points="256.9,-157.29 267.48,-156.67 258.82,-150.56 256.9,-157.29"/>
</a>
</g>
</g>
<!-- Node4 -->
<g id="Node000004" class="node">
<title>Node4</title>
<g id="a_Node000004"><a xlink:href="melt__pool__application_8hpp.html" target="_top" xlink:title=" ">
<polygon fill="white" stroke="#666666" points="690,-112.5 517,-112.5 517,-82.5 690,-82.5 690,-112.5"/>
<text text-anchor="start" x="525" y="-100.5" font-family="Helvetica,sans-Serif" font-size="10.00">applications/mp&#45;melt</text>
<text text-anchor="middle" x="603.5" y="-89.5" font-family="Helvetica,sans-Serif" font-size="10.00">&#45;pool/melt_pool_application.hpp</text>
</a>
</g>
</g>
<!-- Node1&#45;&gt;Node4 -->
<g id="edge3_Node000001_Node000004" class="edge">
<title>Node1&#45;&gt;Node4</title>
<g id="a_edge3_Node000001_Node000004"><a xlink:title=" ">
<path fill="none" stroke="#63b8ff" d="M395.35,-154.86C443.71,-141.77 507.38,-124.53 551.51,-112.58"/>
<polygon fill="#63b8ff" stroke="#63b8ff" points="394.32,-151.51 385.58,-157.5 396.15,-158.27 394.32,-151.51"/>
</a>
</g>
</g>
<!-- Node6 -->
<g id="Node000006" class="node">
<title>Node6</title>
<g id="a_Node000006"><a xlink:href="heat__cut__operation_8hpp.html" target="_top" xlink:title=" ">
<polygon fill="white" stroke="#666666" points="499,-112.5 340,-112.5 340,-82.5 499,-82.5 499,-112.5"/>
<text text-anchor="start" x="348" y="-100.5" font-family="Helvetica,sans-Serif" font-size="10.00">include/meltpooldg</text>
<text text-anchor="middle" x="419.5" y="-89.5" font-family="Helvetica,sans-Serif" font-size="10.00">/heat/heat_cut_operation.hpp</text>
</a>
</g>
</g>
<!-- Node1&#45;&gt;Node6 -->
<g id="edge5_Node000001_Node000006" class="edge">
<title>Node1&#45;&gt;Node6</title>
<g id="a_edge5_Node000001_Node000006"><a xlink:title=" ">
<path fill="none" stroke="#63b8ff" d="M358.75,-147.5C373.26,-135.79 389.82,-122.44 401.98,-112.63"/>
<polygon fill="#63b8ff" stroke="#63b8ff" points="356.52,-144.79 350.93,-153.79 360.92,-150.24 356.52,-144.79"/>
</a>
</g>
</g>
<!-- Node8 -->
<g id="Node000008" class="node">
<title>Node8</title>
<g id="a_Node000008"><a xlink:href="heat__diffuse__operation_8hpp.html" target="_top" xlink:title=" ">
<polygon fill="white" stroke="#666666" points="322,-112.5 145,-112.5 145,-82.5 322,-82.5 322,-112.5"/>
<text text-anchor="start" x="153" y="-100.5" font-family="Helvetica,sans-Serif" font-size="10.00">include/meltpooldg</text>
<text text-anchor="middle" x="233.5" y="-89.5" font-family="Helvetica,sans-Serif" font-size="10.00">/heat/heat_diffuse_operation.hpp</text>
</a>
</g>
</g>
<!-- Node1&#45;&gt;Node8 -->
<g id="edge9_Node000001_Node000008" class="edge">
<title>Node1&#45;&gt;Node8</title>
<g id="a_edge9_Node000001_Node000008"><a xlink:title=" ">
<path fill="none" stroke="#63b8ff" d="M294.25,-147.5C279.74,-135.79 263.18,-122.44 251.02,-112.63"/>
<polygon fill="#63b8ff" stroke="#63b8ff" points="292.08,-150.24 302.07,-153.79 296.48,-144.79 292.08,-150.24"/>
</a>
</g>
</g>
<!-- Node3 -->
<g id="Node000003" class="node">
<title>Node3</title>
<g id="a_Node000003"><a xlink:href="heat__transfer__application_8cpp.html" target="_top" xlink:title=" ">
<polygon fill="white" stroke="#666666" points="153,-41 26,-41 26,0 153,0 153,-41"/>
<text text-anchor="start" x="34" y="-29" font-family="Helvetica,sans-Serif" font-size="10.00">applications/mp&#45;heat</text>
<text text-anchor="start" x="34" y="-18" font-family="Helvetica,sans-Serif" font-size="10.00">&#45;transfer/heat_transfer</text>
<text text-anchor="middle" x="89.5" y="-7" font-family="Helvetica,sans-Serif" font-size="10.00">_application.cpp</text>
</a>
</g>
</g>
<!-- Node2&#45;&gt;Node3 -->
<g id="edge2_Node000002_Node000003" class="edge">
<title>Node2&#45;&gt;Node3</title>
<g id="a_edge2_Node000002_Node000003"><a xlink:title=" ">
<path fill="none" stroke="#63b8ff" d="M73.64,-67.26C76.68,-58.48 79.94,-49.07 82.71,-41.07"/>
<polygon fill="#63b8ff" stroke="#63b8ff" points="70.3,-66.2 70.33,-76.79 76.91,-68.49 70.3,-66.2"/>
</a>
</g>
</g>
<!-- Node5 -->
<g id="Node000005" class="node">
<title>Node5</title>
<g id="a_Node000005"><a xlink:href="melt__pool__application_8cpp.html" target="_top" xlink:title=" ">
<polygon fill="white" stroke="#666666" points="502,-35.5 329,-35.5 329,-5.5 502,-5.5 502,-35.5"/>
<text text-anchor="start" x="337" y="-23.5" font-family="Helvetica,sans-Serif" font-size="10.00">applications/mp&#45;melt</text>
<text text-anchor="middle" x="415.5" y="-12.5" font-family="Helvetica,sans-Serif" font-size="10.00">&#45;pool/melt_pool_application.cpp</text>
</a>
</g>
</g>
<!-- Node4&#45;&gt;Node5 -->
<g id="edge4_Node000004_Node000005" class="edge">
<title>Node4&#45;&gt;Node5</title>
<g id="a_edge4_Node000004_Node000005"><a xlink:title=" ">
<path fill="none" stroke="#63b8ff" d="M558.7,-78.63C525.63,-65.43 481.25,-47.73 450.7,-35.54"/>
<polygon fill="#63b8ff" stroke="#63b8ff" points="557.55,-81.94 568.14,-82.39 560.15,-75.44 557.55,-81.94"/>
</a>
</g>
</g>
<!-- Node6&#45;&gt;Node3 -->
<g id="edge6_Node000006_Node000003" class="edge">
<title>Node6&#45;&gt;Node3</title>
<g id="a_edge6_Node000006_Node000003"><a xlink:title=" ">
<path fill="none" stroke="#63b8ff" d="M346.66,-80.31C341.53,-79.19 336.44,-78.07 331.5,-77 256.46,-60.69 237.18,-58.92 162.5,-41 159.44,-40.27 156.31,-39.5 153.15,-38.71"/>
<polygon fill="#63b8ff" stroke="#63b8ff" points="346.02,-83.75 356.54,-82.48 347.53,-76.92 346.02,-83.75"/>
</a>
</g>
</g>
<!-- Node6&#45;&gt;Node5 -->
<g id="edge7_Node000006_Node000005" class="edge">
<title>Node6&#45;&gt;Node5</title>
<g id="a_edge7_Node000006_Node000005"><a xlink:title=" ">
<path fill="none" stroke="#63b8ff" d="M418.2,-72.04C417.55,-59.95 416.8,-45.79 416.25,-35.54"/>
<polygon fill="#63b8ff" stroke="#63b8ff" points="414.72,-72.59 418.75,-82.39 421.71,-72.22 414.72,-72.59"/>
</a>
</g>
</g>
<!-- Node7 -->
<g id="Node000007" class="node">
<title>Node7</title>
<g id="a_Node000007"><a xlink:href="heat__cut__operation_8cpp.html" target="_top" xlink:title=" ">
<polygon fill="white" stroke="#666666" points="639,-35.5 520,-35.5 520,-5.5 639,-5.5 639,-35.5"/>
<text text-anchor="start" x="528" y="-23.5" font-family="Helvetica,sans-Serif" font-size="10.00">source/heat/heat_cut</text>
<text text-anchor="middle" x="579.5" y="-12.5" font-family="Helvetica,sans-Serif" font-size="10.00">_operation.cpp</text>
</a>
</g>
</g>
<!-- Node6&#45;&gt;Node7 -->
<g id="edge8_Node000006_Node000007" class="edge">
<title>Node6&#45;&gt;Node7</title>
<g id="a_edge8_Node000006_Node000007"><a xlink:title=" ">
<path fill="none" stroke="#63b8ff" d="M458.72,-78.12C486.74,-64.98 523.88,-47.57 549.54,-35.54"/>
<polygon fill="#63b8ff" stroke="#63b8ff" points="457.16,-74.98 449.59,-82.39 460.13,-81.32 457.16,-74.98"/>
</a>
</g>
</g>
<!-- Node8&#45;&gt;Node3 -->
<g id="edge10_Node000008_Node000003" class="edge">
<title>Node8&#45;&gt;Node3</title>
<g id="a_edge10_Node000008_Node000003"><a xlink:title=" ">
<path fill="none" stroke="#63b8ff" d="M197.3,-77.65C175.86,-66.48 148.74,-52.35 127.06,-41.06"/>
<polygon fill="#63b8ff" stroke="#63b8ff" points="195.93,-80.88 206.41,-82.39 199.16,-74.67 195.93,-80.88"/>
</a>
</g>
</g>
<!-- Node8&#45;&gt;Node5 -->
<g id="edge11_Node000008_Node000005" class="edge">
<title>Node8&#45;&gt;Node5</title>
<g id="a_edge11_Node000008_Node000005"><a xlink:title=" ">
<path fill="none" stroke="#63b8ff" d="M277.28,-78.46C309.25,-65.28 351.98,-47.68 381.42,-35.54"/>
<polygon fill="#63b8ff" stroke="#63b8ff" points="275.65,-75.35 267.73,-82.39 278.31,-81.82 275.65,-75.35"/>
</a>
</g>
</g>
<!-- Node9 -->
<g id="Node000009" class="node">
<title>Node9</title>
<g id="a_Node000009"><a xlink:href="heat__diffuse__operation_8cpp.html" target="_top" xlink:title=" ">
<polygon fill="white" stroke="#666666" points="308,-35.5 171,-35.5 171,-5.5 308,-5.5 308,-35.5"/>
<text text-anchor="start" x="179" y="-23.5" font-family="Helvetica,sans-Serif" font-size="10.00">source/heat/heat_diffuse</text>
<text text-anchor="middle" x="239.5" y="-12.5" font-family="Helvetica,sans-Serif" font-size="10.00">_operation.cpp</text>
</a>
</g>
</g>
<!-- Node8&#45;&gt;Node9 -->
<g id="edge12_Node000008_Node000009" class="edge">
<title>Node8&#45;&gt;Node9</title>
<g id="a_edge12_Node000008_Node000009"><a xlink:title=" ">
<path fill="none" stroke="#63b8ff" d="M235.43,-72.41C236.4,-60.24 237.55,-45.9 238.38,-35.54"/>
<polygon fill="#63b8ff" stroke="#63b8ff" points="231.94,-72.15 234.63,-82.39 238.91,-72.7 231.94,-72.15"/>
</a>
</g>
</g>
</g>
</svg>
