<?xml version="1.0" encoding="UTF-8" standalone="no"?>
<!DOCTYPE svg PUBLIC "-//W3C//DTD SVG 1.1//EN"
 "http://www.w3.org/Graphics/SVG/1.1/DTD/svg11.dtd">
<!-- Generated by graphviz version 2.43.0 (0)
 -->
<!-- Title: include/meltpooldg/level_set/helmholtz_DG_operator.hpp Pages: 1 -->
<!--zoomable 412 -->

<svg id="main" version="1.1" xmlns="http://www.w3.org/2000/svg" xmlns:xlink="http://www.w3.org/1999/xlink" xml:space="preserve" onload="init(evt)">
<style type="text/css"><![CDATA[
.node, .edge {opacity: 0.7;}
.node.selected, .edge.selected {opacity: 1;}
.edge:hover path { stroke: red; }
.edge:hover polygon { stroke: red; fill: red; }
]]></style>

<defs>
  <circle id="rim" cx="0" cy="0" r="7"/>
  <circle id="rim2" cx="0" cy="0" r="3.5"/>
  <g id="zoomPlus">
    <use xlink:href="#rim" fill="#404040"><set attributeName="fill" to="#808080" begin="zoomplus.mouseover" end="zoomplus.mouseout"/></use>
    <path d="M-4,0h8M0,-4v8" fill="none" stroke="white" stroke-width="1.5" pointer-events="none"/>
  </g>
  <g id="zoomMin">
    <use xlink:href="#rim" fill="#404040"><set attributeName="fill" to="#808080" begin="zoomminus.mouseover" end="zoomminus.mouseout"/></use>
    <path d="M-4,0h8" fill="none" stroke="white" stroke-width="1.5" pointer-events="none"/>
  </g>
  <g id="arrowUp" transform="translate(30 24)">
    <use xlink:href="#rim"/>
    <path pointer-events="none" fill="none" stroke="white" stroke-width="1.5" d="M0,-3.0v7 M-2.5,-0.5L0,-3.0L2.5,-0.5"/>
  </g>
  <g id="arrowRight" transform="rotate(90) translate(36 -43)">
    <use xlink:href="#rim"/>
    <path pointer-events="none" fill="none" stroke="white" stroke-width="1.5" d="M0,-3.0v7 M-2.5,-0.5L0,-3.0L2.5,-0.5"/>
  </g>
  <g id="arrowDown" transform="rotate(180) translate(-30 -48)">
    <use xlink:href="#rim"/>
    <path pointer-events="none" fill="none" stroke="white" stroke-width="1.5" d="M0,-3.0v7 M-2.5,-0.5L0,-3.0L2.5,-0.5"/>
  </g>
  <g id="arrowLeft" transform="rotate(270) translate(-36 17)">
    <use xlink:href="#rim"/>
    <path pointer-events="none" fill="none" stroke="white" stroke-width="1.5" d="M0,-3.0v7 M-2.5,-0.5L0,-3.0L2.5,-0.5"/>
  </g>
  <g id="resetDef">
    <use xlink:href="#rim2" fill="#404040"><set attributeName="fill" to="#808080" begin="reset.mouseover" end="reset.mouseout"/></use>
  </g>
</defs>
<script type="application/ecmascript">
var viewWidth = 614;
var viewHeight = 412;
var sectionId = 'dynsection-1';
</script>
<script type="application/ecmascript" xlink:href="svg.min.js"/>
<svg id="graph" class="graph">
<g id="viewport">
<title>include/meltpooldg/level_set/helmholtz_DG_operator.hpp</title>
<!-- Node1 -->
<g id="Node000001" class="node">
<title>Node1</title>
<g id="a_Node000001"><a xlink:title=" ">
<polygon fill="#999999" stroke="#666666" points="379,-404 263,-404 263,-363 379,-363 379,-404"/>
<text text-anchor="start" x="271" y="-392" font-family="Helvetica,sans-Serif" font-size="10.00">include/meltpooldg</text>
<text text-anchor="start" x="271" y="-381" font-family="Helvetica,sans-Serif" font-size="10.00">/level_set/helmholtz</text>
<text text-anchor="middle" x="321" y="-370" font-family="Helvetica,sans-Serif" font-size="10.00">_DG_operator.hpp</text>
</a>
</g>
</g>
<!-- Node2 -->
<g id="Node000002" class="node">
<title>Node2</title>
<g id="a_Node000002"><a xlink:href="curvature__DG__operation_8hpp.html" target="_top" xlink:title=" ">
<polygon fill="white" stroke="#666666" points="233.5,-327 120.5,-327 120.5,-286 233.5,-286 233.5,-327"/>
<text text-anchor="start" x="128.5" y="-315" font-family="Helvetica,sans-Serif" font-size="10.00">include/meltpooldg</text>
<text text-anchor="start" x="128.5" y="-304" font-family="Helvetica,sans-Serif" font-size="10.00">/level_set/curvature</text>
<text text-anchor="middle" x="177" y="-293" font-family="Helvetica,sans-Serif" font-size="10.00">_DG_operation.hpp</text>
</a>
</g>
</g>
<!-- Node1&#45;&gt;Node2 -->
<g id="edge1_Node000001_Node000002" class="edge">
<title>Node1&#45;&gt;Node2</title>
<g id="a_edge1_Node000001_Node000002"><a xlink:title=" ">
<path fill="none" stroke="#63b8ff" d="M274.56,-358.31C255.14,-348.2 232.87,-336.6 214.52,-327.04"/>
<polygon fill="#63b8ff" stroke="#63b8ff" points="273.06,-361.48 283.54,-362.99 276.29,-355.27 273.06,-361.48"/>
</a>
</g>
</g>
<!-- Node11 -->
<g id="Node000011" class="node">
<title>Node11</title>
<g id="a_Node000011"><a xlink:href="normal__vector__DG__operation_8hpp.html" target="_top" xlink:title=" ">
<polygon fill="white" stroke="#666666" points="389.5,-327 252.5,-327 252.5,-286 389.5,-286 389.5,-327"/>
<text text-anchor="start" x="260.5" y="-315" font-family="Helvetica,sans-Serif" font-size="10.00">include/meltpooldg</text>
<text text-anchor="start" x="260.5" y="-304" font-family="Helvetica,sans-Serif" font-size="10.00">/level_set/normal_vector</text>
<text text-anchor="middle" x="321" y="-293" font-family="Helvetica,sans-Serif" font-size="10.00">_DG_operation.hpp</text>
</a>
</g>
</g>
<!-- Node1&#45;&gt;Node11 -->
<g id="edge11_Node000001_Node000011" class="edge">
<title>Node1&#45;&gt;Node11</title>
<g id="a_edge11_Node000001_Node000011"><a xlink:title=" ">
<path fill="none" stroke="#63b8ff" d="M321,-352.69C321,-344.08 321,-334.9 321,-327.07"/>
<polygon fill="#63b8ff" stroke="#63b8ff" points="317.5,-352.79 321,-362.79 324.5,-352.79 317.5,-352.79"/>
</a>
</g>
</g>
<!-- Node13 -->
<g id="Node000013" class="node">
<title>Node13</title>
<g id="a_Node000013"><a xlink:href="helmholtz__DG__operator_8cpp.html" target="_top" xlink:title=" ">
<polygon fill="white" stroke="#666666" points="556,-321.5 408,-321.5 408,-291.5 556,-291.5 556,-321.5"/>
<text text-anchor="start" x="416" y="-309.5" font-family="Helvetica,sans-Serif" font-size="10.00">source/level_set/helmholtz</text>
<text text-anchor="middle" x="482" y="-298.5" font-family="Helvetica,sans-Serif" font-size="10.00">_DG_operator.cpp</text>
</a>
</g>
</g>
<!-- Node1&#45;&gt;Node13 -->
<g id="edge15_Node000001_Node000013" class="edge">
<title>Node1&#45;&gt;Node13</title>
<g id="a_edge15_Node000001_Node000013"><a xlink:title=" ">
<path fill="none" stroke="#63b8ff" d="M372.29,-358.61C398.47,-346.41 429.43,-331.99 451.77,-321.58"/>
<polygon fill="#63b8ff" stroke="#63b8ff" points="370.47,-355.6 362.88,-362.99 373.42,-361.94 370.47,-355.6"/>
</a>
</g>
</g>
<!-- Node3 -->
<g id="Node000003" class="node">
<title>Node3</title>
<g id="a_Node000003"><a xlink:href="level__set__DG__operation_8hpp.html" target="_top" xlink:title=" ">
<polygon fill="white" stroke="#666666" points="229.5,-173 118.5,-173 118.5,-132 229.5,-132 229.5,-173"/>
<text text-anchor="start" x="126.5" y="-161" font-family="Helvetica,sans-Serif" font-size="10.00">include/meltpooldg</text>
<text text-anchor="start" x="126.5" y="-150" font-family="Helvetica,sans-Serif" font-size="10.00">/level_set/level_set</text>
<text text-anchor="middle" x="174" y="-139" font-family="Helvetica,sans-Serif" font-size="10.00">_DG_operation.hpp</text>
</a>
</g>
</g>
<!-- Node2&#45;&gt;Node3 -->
<g id="edge2_Node000002_Node000003" class="edge">
<title>Node2&#45;&gt;Node3</title>
<g id="a_edge2_Node000002_Node000003"><a xlink:title=" ">
<path fill="none" stroke="#63b8ff" d="M176.41,-275.58C175.81,-245.36 174.91,-199.53 174.39,-173.47"/>
<polygon fill="#63b8ff" stroke="#63b8ff" points="172.92,-276.01 176.61,-285.94 179.92,-275.87 172.92,-276.01"/>
</a>
</g>
</g>
<!-- Node7 -->
<g id="Node000007" class="node">
<title>Node7</title>
<g id="a_Node000007"><a xlink:href="reinitialization__hyperbolic__DG__operation_8hpp.html" target="_top" xlink:title=" ">
<polygon fill="white" stroke="#666666" points="406,-250 240,-250 240,-209 406,-209 406,-250"/>
<text text-anchor="start" x="248" y="-238" font-family="Helvetica,sans-Serif" font-size="10.00">include/meltpooldg</text>
<text text-anchor="start" x="248" y="-227" font-family="Helvetica,sans-Serif" font-size="10.00">/level_set/reinitialization</text>
<text text-anchor="middle" x="323" y="-216" font-family="Helvetica,sans-Serif" font-size="10.00">_hyperbolic_DG_operation.hpp</text>
</a>
</g>
</g>
<!-- Node2&#45;&gt;Node7 -->
<g id="edge6_Node000002_Node000007" class="edge">
<title>Node2&#45;&gt;Node7</title>
<g id="a_edge6_Node000002_Node000007"><a xlink:title=" ">
<path fill="none" stroke="#63b8ff" d="M224.09,-281.31C243.77,-271.2 266.35,-259.6 284.96,-250.04"/>
<polygon fill="#63b8ff" stroke="#63b8ff" points="222.27,-278.31 214.98,-285.99 225.47,-284.53 222.27,-278.31"/>
</a>
</g>
</g>
<!-- Node10 -->
<g id="Node000010" class="node">
<title>Node10</title>
<g id="a_Node000010"><a xlink:href="curvature__DG__operation_8cpp.html" target="_top" xlink:title=" ">
<polygon fill="white" stroke="#666666" points="146,-244.5 0,-244.5 0,-214.5 146,-214.5 146,-244.5"/>
<text text-anchor="start" x="8" y="-232.5" font-family="Helvetica,sans-Serif" font-size="10.00">source/level_set/curvature</text>
<text text-anchor="middle" x="73" y="-221.5" font-family="Helvetica,sans-Serif" font-size="10.00">_DG_operation.cpp</text>
</a>
</g>
</g>
<!-- Node2&#45;&gt;Node10 -->
<g id="edge10_Node000002_Node000010" class="edge">
<title>Node2&#45;&gt;Node10</title>
<g id="a_edge10_Node000002_Node000010"><a xlink:title=" ">
<path fill="none" stroke="#63b8ff" d="M141.66,-280.01C125.3,-268.22 106.48,-254.65 92.69,-244.7"/>
<polygon fill="#63b8ff" stroke="#63b8ff" points="139.79,-282.98 149.95,-285.99 143.88,-277.3 139.79,-282.98"/>
</a>
</g>
</g>
<!-- Node4 -->
<g id="Node000004" class="node">
<title>Node4</title>
<g id="a_Node000004"><a xlink:href="level__set__application_8hpp.html" target="_top" xlink:title=" ">
<polygon fill="white" stroke="#666666" points="173.5,-96 10.5,-96 10.5,-66 173.5,-66 173.5,-96"/>
<text text-anchor="start" x="18.5" y="-84" font-family="Helvetica,sans-Serif" font-size="10.00">applications/mp&#45;level</text>
<text text-anchor="middle" x="92" y="-73" font-family="Helvetica,sans-Serif" font-size="10.00">&#45;set/level_set_application.hpp</text>
</a>
</g>
</g>
<!-- Node3&#45;&gt;Node4 -->
<g id="edge3_Node000003_Node000004" class="edge">
<title>Node3&#45;&gt;Node4</title>
<g id="a_edge3_Node000003_Node000004"><a xlink:title=" ">
<path fill="none" stroke="#63b8ff" d="M142.88,-125.12C131.21,-115.23 118.41,-104.38 108.56,-96.04"/>
<polygon fill="#63b8ff" stroke="#63b8ff" points="140.83,-127.97 150.72,-131.77 145.36,-122.63 140.83,-127.97"/>
</a>
</g>
</g>
<!-- Node6 -->
<g id="Node000006" class="node">
<title>Node6</title>
<g id="a_Node000006"><a xlink:href="level__set__DG__operation_8cpp.html" target="_top" xlink:title=" ">
<polygon fill="white" stroke="#666666" points="320.5,-96 191.5,-96 191.5,-66 320.5,-66 320.5,-96"/>
<text text-anchor="start" x="199.5" y="-84" font-family="Helvetica,sans-Serif" font-size="10.00">source/level_set/level</text>
<text text-anchor="middle" x="256" y="-73" font-family="Helvetica,sans-Serif" font-size="10.00">_set_DG_operation.cpp</text>
</a>
</g>
</g>
<!-- Node3&#45;&gt;Node6 -->
<g id="edge5_Node000003_Node000006" class="edge">
<title>Node3&#45;&gt;Node6</title>
<g id="a_edge5_Node000003_Node000006"><a xlink:title=" ">
<path fill="none" stroke="#63b8ff" d="M205.12,-125.12C216.79,-115.23 229.59,-104.38 239.44,-96.04"/>
<polygon fill="#63b8ff" stroke="#63b8ff" points="202.64,-122.63 197.28,-131.77 207.17,-127.97 202.64,-122.63"/>
</a>
</g>
</g>
<!-- Node5 -->
<g id="Node000005" class="node">
<title>Node5</title>
<g id="a_Node000005"><a xlink:href="level__set__application_8cpp.html" target="_top" xlink:title=" ">
<polygon fill="white" stroke="#666666" points="173,-30 11,-30 11,0 173,0 173,-30"/>
<text text-anchor="start" x="19" y="-18" font-family="Helvetica,sans-Serif" font-size="10.00">applications/mp&#45;level</text>
<text text-anchor="middle" x="92" y="-7" font-family="Helvetica,sans-Serif" font-size="10.00">&#45;set/level_set_application.cpp</text>
</a>
</g>
</g>
<!-- Node4&#45;&gt;Node5 -->
<g id="edge4_Node000004_Node000005" class="edge">
<title>Node4&#45;&gt;Node5</title>
<g id="a_edge4_Node000004_Node000005"><a xlink:title=" ">
<path fill="none" stroke="#63b8ff" d="M92,-55.54C92,-46.96 92,-37.61 92,-30.16"/>
<polygon fill="#63b8ff" stroke="#63b8ff" points="88.5,-55.8 92,-65.8 95.5,-55.8 88.5,-55.8"/>
</a>
</g>
</g>
<!-- Node7&#45;&gt;Node3 -->
<g id="edge8_Node000007_Node000003" class="edge">
<title>Node7&#45;&gt;Node3</title>
<g id="a_edge8_Node000007_Node000003"><a xlink:title=" ">
<path fill="none" stroke="#63b8ff" d="M275.22,-204.45C255.06,-194.3 231.9,-182.64 212.82,-173.04"/>
<polygon fill="#63b8ff" stroke="#63b8ff" points="273.74,-207.62 284.24,-208.99 276.88,-201.37 273.74,-207.62"/>
</a>
</g>
</g>
<!-- Node8 -->
<g id="Node000008" class="node">
<title>Node8</title>
<g id="a_Node000008"><a xlink:href="reinitialization__application_8cpp.html" target="_top" xlink:title=" ">
<polygon fill="white" stroke="#666666" points="418,-167.5 248,-167.5 248,-137.5 418,-137.5 418,-167.5"/>
<text text-anchor="start" x="256" y="-155.5" font-family="Helvetica,sans-Serif" font-size="10.00">applications/mp&#45;reinit</text>
<text text-anchor="middle" x="333" y="-144.5" font-family="Helvetica,sans-Serif" font-size="10.00">/reinitialization_application.cpp</text>
</a>
</g>
</g>
<!-- Node7&#45;&gt;Node8 -->
<g id="edge7_Node000007_Node000008" class="edge">
<title>Node7&#45;&gt;Node8</title>
<g id="a_edge7_Node000007_Node000008"><a xlink:title=" ">
<path fill="none" stroke="#63b8ff" d="M326.99,-198.61C328.4,-188.01 329.92,-176.57 331.09,-167.86"/>
<polygon fill="#63b8ff" stroke="#63b8ff" points="323.48,-198.42 325.63,-208.79 330.42,-199.34 323.48,-198.42"/>
</a>
</g>
</g>
<!-- Node9 -->
<g id="Node000009" class="node">
<title>Node9</title>
<g id="a_Node000009"><a xlink:href="reinitialization__hyperbolic__DG__operation_8cpp.html" target="_top" xlink:title=" ">
<polygon fill="white" stroke="#666666" points="606,-167.5 436,-167.5 436,-137.5 606,-137.5 606,-167.5"/>
<text text-anchor="start" x="444" y="-155.5" font-family="Helvetica,sans-Serif" font-size="10.00">source/level_set/reinitialization</text>
<text text-anchor="middle" x="521" y="-144.5" font-family="Helvetica,sans-Serif" font-size="10.00">_hyperbolic_DG_operation.cpp</text>
</a>
</g>
</g>
<!-- Node7&#45;&gt;Node9 -->
<g id="edge9_Node000007_Node000009" class="edge">
<title>Node7&#45;&gt;Node9</title>
<g id="a_edge9_Node000007_Node000009"><a xlink:title=" ">
<path fill="none" stroke="#63b8ff" d="M383.96,-205.41C416.6,-193.05 455.74,-178.22 483.82,-167.58"/>
<polygon fill="#63b8ff" stroke="#63b8ff" points="382.62,-202.18 374.51,-208.99 385.1,-208.72 382.62,-202.18"/>
</a>
</g>
</g>
<!-- Node11&#45;&gt;Node3 -->
<g id="edge12_Node000011_Node000003" class="edge">
<title>Node11&#45;&gt;Node3</title>
<g id="a_edge12_Node000011_Node000003"><a xlink:title=" ">
<path fill="none" stroke="#63b8ff" d="M271.66,-280.94C257.48,-272.41 242.71,-261.94 231,-250 208.65,-227.22 191.54,-194.02 182.13,-173.11"/>
<polygon fill="#63b8ff" stroke="#63b8ff" points="269.96,-284 280.37,-286 273.48,-277.95 269.96,-284"/>
</a>
</g>
</g>
<!-- Node11&#45;&gt;Node7 -->
<g id="edge13_Node000011_Node000007" class="edge">
<title>Node11&#45;&gt;Node7</title>
<g id="a_edge13_Node000011_Node000007"><a xlink:title=" ">
<path fill="none" stroke="#63b8ff" d="M321.79,-275.69C322.02,-267.08 322.27,-257.9 322.48,-250.07"/>
<polygon fill="#63b8ff" stroke="#63b8ff" points="318.29,-275.7 321.53,-285.79 325.29,-275.89 318.29,-275.7"/>
</a>
</g>
</g>
<!-- Node12 -->
<g id="Node000012" class="node">
<title>Node12</title>
<g id="a_Node000012"><a xlink:href="normal__vector__DG__operation_8cpp.html" target="_top" xlink:title=" ">
<polygon fill="white" stroke="#666666" points="569.5,-244.5 424.5,-244.5 424.5,-214.5 569.5,-214.5 569.5,-244.5"/>
<text text-anchor="start" x="432.5" y="-232.5" font-family="Helvetica,sans-Serif" font-size="10.00">source/level_set/normal</text>
<text text-anchor="middle" x="497" y="-221.5" font-family="Helvetica,sans-Serif" font-size="10.00">_vector_DG_operation.cpp</text>
</a>
</g>
</g>
<!-- Node11&#45;&gt;Node12 -->
<g id="edge14_Node000011_Node000012" class="edge">
<title>Node11&#45;&gt;Node12</title>
<g id="a_edge14_Node000011_Node000012"><a xlink:title=" ">
<path fill="none" stroke="#63b8ff" d="M376.31,-281.93C405.1,-269.66 439.32,-255.08 463.95,-244.58"/>
<polygon fill="#63b8ff" stroke="#63b8ff" points="374.61,-278.85 366.78,-285.99 377.35,-285.29 374.61,-278.85"/>
</a>
</g>
</g>
</g>
</svg>

<g id="navigator" transform="translate(0 0)" fill="#404254">
  <rect fill="#f2f5e9" fill-opacity="0.5" stroke="#606060" stroke-width=".5" x="0" y="0" width="60" height="60"/>
  <use id="zoomplus" xlink:href="#zoomPlus" x="17" y="9" onmousedown="handleZoom(evt,'in')"/>
  <use id="zoomminus" xlink:href="#zoomMin" x="42" y="9" onmousedown="handleZoom(evt,'out')"/>
  <use id="reset" xlink:href="#resetDef" x="30" y="36" onmousedown="handleReset()"/>
   <use id="arrowup" xlink:href="#arrowUp" x="0" y="0" onmousedown="handlePan(0,-1)"/>
  <use id="arrowright" xlink:href="#arrowRight" x="0" y="0" onmousedown="handlePan(1,0)"/>
  <use id="arrowdown" xlink:href="#arrowDown" x="0" y="0" onmousedown="handlePan(0,1)"/>
  <use id="arrowleft" xlink:href="#arrowLeft" x="0" y="0" onmousedown="handlePan(-1,0)"/>
</g>
<svg viewBox="0 0 15 15" width="100%" height="30px" preserveAspectRatio="xMaxYMin meet">
 <g id="arrow_out" transform="scale(0.3 0.3)">
  <a xlink:href="helmholtz__DG__operator_8hpp__dep__incl_org.svg" target="_base">
   <rect id="button" ry="5" rx="5" y="6" x="6" height="38" width="38"
        fill="#f2f5e9" fill-opacity="0.5" stroke="#606060" stroke-width="1.0"/>
   <path id="arrow"
     d="M 11.500037,31.436501 C 11.940474,20.09759 22.043105,11.32322 32.158766,21.979434 L 37.068811,17.246167 C 37.068811,17.246167 37.088388,32 37.088388,32 L 22.160133,31.978069 C 22.160133,31.978069 26.997745,27.140456 26.997745,27.140456 C 18.528582,18.264221 13.291696,25.230495 11.500037,31.436501 z"
     style="fill:#404040;"/>
  </a>
 </g>
</svg>

<style type='text/css'>
<![CDATA[
[data-mouse-over-selected='false'] { opacity: 0.7; }
[data-mouse-over-selected='true']  { opacity: 1.0; }
]]>
</style>
<script type="application/ecmascript"><![CDATA[
document.addEventListener('DOMContentLoaded', (event) => {
  highlightEdges();
  highlightAdjacentNodes();
});
]]></script>
</svg>
