<?xml version="1.0" encoding="UTF-8" standalone="no"?>
<!DOCTYPE svg PUBLIC "-//W3C//DTD SVG 1.1//EN"
 "http://www.w3.org/Graphics/SVG/1.1/DTD/svg11.dtd">
<!-- Generated by graphviz version 2.43.0 (0)
 -->
<!-- Title: include/meltpooldg/time_integration/implicit_explicit_integrator.hpp Pages: 1 -->
<svg width="427pt" height="203pt"
 viewBox="0.00 0.00 426.50 203.00" xmlns="http://www.w3.org/2000/svg" xmlns:xlink="http://www.w3.org/1999/xlink">

<svg id="main" version="1.1" xmlns="http://www.w3.org/2000/svg" xmlns:xlink="http://www.w3.org/1999/xlink" xml:space="preserve" onload="init(evt)">
<style type="text/css"><![CDATA[
.node, .edge {opacity: 0.7;}
.node.selected, .edge.selected {opacity: 1;}
.edge:hover path { stroke: red; }
.edge:hover polygon { stroke: red; fill: red; }
]]></style>
<script type="application/ecmascript" xlink:href="svg.min.js"/>
<svg id="graph" class="graph">
<g id="graph0" class="graph" transform="scale(1 1) rotate(0) translate(4 199)">
<title>include/meltpooldg/time_integration/implicit_explicit_integrator.hpp</title>
<!-- Node1 -->
<g id="Node000001" class="node">
<title>Node1</title>
<g id="a_Node000001"><a xlink:title=" ">
<polygon fill="#999999" stroke="#666666" points="290.5,-195 150.5,-195 150.5,-154 290.5,-154 290.5,-195"/>
<text text-anchor="start" x="158.5" y="-183" font-family="Helvetica,sans-Serif" font-size="10.00">include/meltpooldg</text>
<text text-anchor="start" x="158.5" y="-172" font-family="Helvetica,sans-Serif" font-size="10.00">/time_integration/implicit</text>
<text text-anchor="middle" x="220.5" y="-161" font-family="Helvetica,sans-Serif" font-size="10.00">_explicit_integrator.hpp</text>
</a>
</g>
</g>
<!-- Node2 -->
<g id="Node000002" class="node">
<title>Node2</title>
<g id="a_Node000002"><a xlink:href="dg__operator__implicit__explicit_8hpp.html" target="_top" xlink:title=" ">
<polygon fill="white" stroke="#666666" points="193,-118 26,-118 26,-77 193,-77 193,-118"/>
<text text-anchor="start" x="34" y="-106" font-family="Helvetica,sans-Serif" font-size="10.00">include/meltpooldg</text>
<text text-anchor="start" x="34" y="-95" font-family="Helvetica,sans-Serif" font-size="10.00">/compressible_flow/dg</text>
<text text-anchor="middle" x="109.5" y="-84" font-family="Helvetica,sans-Serif" font-size="10.00">_operator_implicit_explicit.hpp</text>
</a>
</g>
</g>
<!-- Node1&#45;&gt;Node2 -->
<g id="edge1_Node000001_Node000002" class="edge">
<title>Node1&#45;&gt;Node2</title>
<g id="a_edge1_Node000001_Node000002"><a xlink:title=" ">
<path fill="none" stroke="#63b8ff" d="M183.31,-148.37C168.74,-138.53 152.29,-127.41 138.62,-118.17"/>
<polygon fill="#63b8ff" stroke="#63b8ff" points="181.38,-151.29 191.63,-153.99 185.3,-145.49 181.38,-151.29"/>
</a>
</g>
</g>
<!-- Node4 -->
<g id="Node000004" class="node">
<title>Node4</title>
<g id="a_Node000004"><a xlink:href="dg__operator__implicit__explicit_8cpp.html" target="_top" xlink:title=" ">
<polygon fill="white" stroke="#666666" points="293.5,-41 147.5,-41 147.5,0 293.5,0 293.5,-41"/>
<text text-anchor="start" x="155.5" y="-29" font-family="Helvetica,sans-Serif" font-size="10.00">source/compressible</text>
<text text-anchor="start" x="155.5" y="-18" font-family="Helvetica,sans-Serif" font-size="10.00">_flow/dg_operator_implicit</text>
<text text-anchor="middle" x="220.5" y="-7" font-family="Helvetica,sans-Serif" font-size="10.00">_explicit.cpp</text>
</a>
</g>
</g>
<!-- Node1&#45;&gt;Node4 -->
<g id="edge4_Node000001_Node000004" class="edge">
<title>Node1&#45;&gt;Node4</title>
<g id="a_edge4_Node000001_Node000004"><a xlink:title=" ">
<path fill="none" stroke="#63b8ff" d="M220.5,-143.58C220.5,-113.36 220.5,-67.53 220.5,-41.47"/>
<polygon fill="#63b8ff" stroke="#63b8ff" points="217,-143.94 220.5,-153.94 224,-143.94 217,-143.94"/>
</a>
</g>
</g>
<!-- Node5 -->
<g id="Node000005" class="node">
<title>Node5</title>
<g id="a_Node000005"><a xlink:href="implicit__explicit__integrator_8cpp.html" target="_top" xlink:title=" ">
<polygon fill="white" stroke="#666666" points="418.5,-112.5 248.5,-112.5 248.5,-82.5 418.5,-82.5 418.5,-112.5"/>
<text text-anchor="start" x="256.5" y="-100.5" font-family="Helvetica,sans-Serif" font-size="10.00">source/time_integration</text>
<text text-anchor="middle" x="333.5" y="-89.5" font-family="Helvetica,sans-Serif" font-size="10.00">/implicit_explicit_integrator.cpp</text>
</a>
</g>
</g>
<!-- Node1&#45;&gt;Node5 -->
<g id="edge5_Node000001_Node000005" class="edge">
<title>Node1&#45;&gt;Node5</title>
<g id="a_edge5_Node000001_Node000005"><a xlink:title=" ">
<path fill="none" stroke="#63b8ff" d="M258.41,-148.34C276.3,-136.47 296.98,-122.74 312.11,-112.7"/>
<polygon fill="#63b8ff" stroke="#63b8ff" points="256.29,-145.54 249.89,-153.99 260.16,-151.38 256.29,-145.54"/>
</a>
</g>
</g>
<!-- Node3 -->
<g id="Node000003" class="node">
<title>Node3</title>
<g id="a_Node000003"><a xlink:href="dg__operation_8cpp.html" target="_top" xlink:title=" ">
<polygon fill="white" stroke="#666666" points="129,-35.5 0,-35.5 0,-5.5 129,-5.5 129,-35.5"/>
<text text-anchor="start" x="8" y="-23.5" font-family="Helvetica,sans-Serif" font-size="10.00">source/compressible</text>
<text text-anchor="middle" x="64.5" y="-12.5" font-family="Helvetica,sans-Serif" font-size="10.00">_flow/dg_operation.cpp</text>
</a>
</g>
</g>
<!-- Node2&#45;&gt;Node3 -->
<g id="edge2_Node000002_Node000003" class="edge">
<title>Node2&#45;&gt;Node3</title>
<g id="a_edge2_Node000002_Node000003"><a xlink:title=" ">
<path fill="none" stroke="#63b8ff" d="M92.36,-67.93C85.78,-56.97 78.56,-44.93 73.12,-35.86"/>
<polygon fill="#63b8ff" stroke="#63b8ff" points="89.53,-70.02 97.68,-76.79 95.53,-66.42 89.53,-70.02"/>
</a>
</g>
</g>
<!-- Node2&#45;&gt;Node4 -->
<g id="edge3_Node000002_Node000004" class="edge">
<title>Node2&#45;&gt;Node4</title>
<g id="a_edge3_Node000002_Node000004"><a xlink:title=" ">
<path fill="none" stroke="#63b8ff" d="M146.69,-71.37C161.26,-61.53 177.71,-50.41 191.38,-41.17"/>
<polygon fill="#63b8ff" stroke="#63b8ff" points="144.7,-68.49 138.37,-76.99 148.62,-74.29 144.7,-68.49"/>
</a>
</g>
</g>
</g>
</svg>
</svg>

<style type='text/css'>
<![CDATA[
[data-mouse-over-selected='false'] { opacity: 0.7; }
[data-mouse-over-selected='true']  { opacity: 1.0; }
]]>
</style>
<script type="application/ecmascript"><![CDATA[
document.addEventListener('DOMContentLoaded', (event) => {
  highlightEdges();
  highlightAdjacentNodes();
});
]]></script>
</svg>
