<?xml version="1.0" encoding="UTF-8" standalone="no"?>
<!DOCTYPE svg PUBLIC "-//W3C//DTD SVG 1.1//EN"
 "http://www.w3.org/Graphics/SVG/1.1/DTD/svg11.dtd">
<!-- Generated by graphviz version 2.43.0 (0)
 -->
<!-- Title: include/meltpooldg/utilities/powder_bed.hpp Pages: 1 -->
<svg width="526pt" height="269pt"
 viewBox="0.00 0.00 526.00 269.00" xmlns="http://www.w3.org/2000/svg" xmlns:xlink="http://www.w3.org/1999/xlink">
<g id="graph0" class="graph" transform="scale(1 1) rotate(0) translate(4 265)">
<title>include/meltpooldg/utilities/powder_bed.hpp</title>
<!-- Node1 -->
<g id="Node000001" class="node">
<title>Node1</title>
<g id="a_Node000001"><a xlink:title=" ">
<polygon fill="#999999" stroke="#666666" points="375,-261 235,-261 235,-231 375,-231 375,-261"/>
<text text-anchor="start" x="243" y="-249" font-family="Helvetica,sans-Serif" font-size="10.00">include/meltpooldg</text>
<text text-anchor="middle" x="305" y="-238" font-family="Helvetica,sans-Serif" font-size="10.00">/utilities/powder_bed.hpp</text>
</a>
</g>
</g>
<!-- Node2 -->
<g id="Node000002" class="node">
<title>Node2</title>
<g id="a_Node000002"><a xlink:href="applications_2mp-heat-transfer_2cases_2powder__bed_2powder__bed_8hpp.html" target="_top" xlink:title=" ">
<polygon fill="white" stroke="#666666" points="208,-195 80,-195 80,-154 208,-154 208,-195"/>
<text text-anchor="start" x="88" y="-183" font-family="Helvetica,sans-Serif" font-size="10.00">applications/mp&#45;heat</text>
<text text-anchor="start" x="88" y="-172" font-family="Helvetica,sans-Serif" font-size="10.00">&#45;transfer/cases/powder</text>
<text text-anchor="middle" x="144" y="-161" font-family="Helvetica,sans-Serif" font-size="10.00">_bed/powder_bed.hpp</text>
</a>
</g>
</g>
<!-- Node1&#45;&gt;Node2 -->
<g id="edge1_Node000001_Node000002" class="edge">
<title>Node1&#45;&gt;Node2</title>
<g id="a_edge1_Node000001_Node000002"><a xlink:title=" ">
<path fill="none" stroke="#63b8ff" d="M263.08,-226.9C240.44,-217.13 212.48,-205.06 189.34,-195.07"/>
<polygon fill="#63b8ff" stroke="#63b8ff" points="261.85,-230.19 272.42,-230.94 264.63,-223.76 261.85,-230.19"/>
</a>
</g>
</g>
<!-- Node6 -->
<g id="Node000006" class="node">
<title>Node6</title>
<g id="a_Node000006"><a xlink:href="powder__particles_8hpp.html" target="_top" xlink:title=" ">
<polygon fill="white" stroke="#666666" points="372,-195 238,-195 238,-154 372,-154 372,-195"/>
<text text-anchor="start" x="246" y="-183" font-family="Helvetica,sans-Serif" font-size="10.00">applications/mp&#45;reinit</text>
<text text-anchor="start" x="246" y="-172" font-family="Helvetica,sans-Serif" font-size="10.00">/cases/powder_particles</text>
<text text-anchor="middle" x="305" y="-161" font-family="Helvetica,sans-Serif" font-size="10.00">/powder_particles.hpp</text>
</a>
</g>
</g>
<!-- Node1&#45;&gt;Node6 -->
<g id="edge5_Node000001_Node000006" class="edge">
<title>Node1&#45;&gt;Node6</title>
<g id="a_edge5_Node000001_Node000006"><a xlink:title=" ">
<path fill="none" stroke="#63b8ff" d="M305,-220.91C305,-212.47 305,-203.1 305,-195.07"/>
<polygon fill="#63b8ff" stroke="#63b8ff" points="301.5,-220.94 305,-230.94 308.5,-220.94 301.5,-220.94"/>
</a>
</g>
</g>
<!-- Node8 -->
<g id="Node000008" class="node">
<title>Node8</title>
<g id="a_Node000008"><a xlink:href="source_2utilities_2powder__bed_8cpp.html" target="_top" xlink:title=" ">
<polygon fill="white" stroke="#666666" points="518,-189.5 390,-189.5 390,-159.5 518,-159.5 518,-189.5"/>
<text text-anchor="start" x="398" y="-177.5" font-family="Helvetica,sans-Serif" font-size="10.00">source/utilities/powder</text>
<text text-anchor="middle" x="454" y="-166.5" font-family="Helvetica,sans-Serif" font-size="10.00">_bed.cpp</text>
</a>
</g>
</g>
<!-- Node1&#45;&gt;Node8 -->
<g id="edge7_Node000001_Node000008" class="edge">
<title>Node1&#45;&gt;Node8</title>
<g id="a_edge7_Node000001_Node000008"><a xlink:title=" ">
<path fill="none" stroke="#63b8ff" d="M344.34,-226.65C369.25,-215.03 400.98,-200.23 423.89,-189.54"/>
<polygon fill="#63b8ff" stroke="#63b8ff" points="342.74,-223.54 335.15,-230.94 345.69,-229.88 342.74,-223.54"/>
</a>
</g>
</g>
<!-- Node3 -->
<g id="Node000003" class="node">
<title>Node3</title>
<g id="a_Node000003"><a xlink:href="powder__bed_8templates_8hpp.html" target="_top" xlink:title=" ">
<polygon fill="white" stroke="#666666" points="226,-118 50,-118 50,-77 226,-77 226,-118"/>
<text text-anchor="start" x="58" y="-106" font-family="Helvetica,sans-Serif" font-size="10.00">applications/mp&#45;heat</text>
<text text-anchor="start" x="58" y="-95" font-family="Helvetica,sans-Serif" font-size="10.00">&#45;transfer/cases/powder</text>
<text text-anchor="middle" x="138" y="-84" font-family="Helvetica,sans-Serif" font-size="10.00">_bed/powder_bed.templates.hpp</text>
</a>
</g>
</g>
<!-- Node2&#45;&gt;Node3 -->
<g id="edge2_Node000002_Node000003" class="edge">
<title>Node2&#45;&gt;Node3</title>
<g id="a_edge2_Node000002_Node000003"><a xlink:title=" ">
<path fill="none" stroke="#63b8ff" d="M141.62,-143.69C140.93,-135.08 140.19,-125.9 139.57,-118.07"/>
<polygon fill="#63b8ff" stroke="#63b8ff" points="138.14,-144.11 142.42,-153.79 145.11,-143.55 138.14,-144.11"/>
</a>
</g>
</g>
<!-- Node4 -->
<g id="Node000004" class="node">
<title>Node4</title>
<g id="a_Node000004"><a xlink:href="applications_2mp-heat-transfer_2cases_2powder__bed_2powder__bed_8cpp.html" target="_top" xlink:title=" ">
<polygon fill="white" stroke="#666666" points="128,-41 0,-41 0,0 128,0 128,-41"/>
<text text-anchor="start" x="8" y="-29" font-family="Helvetica,sans-Serif" font-size="10.00">applications/mp&#45;heat</text>
<text text-anchor="start" x="8" y="-18" font-family="Helvetica,sans-Serif" font-size="10.00">&#45;transfer/cases/powder</text>
<text text-anchor="middle" x="64" y="-7" font-family="Helvetica,sans-Serif" font-size="10.00">_bed/powder_bed.cpp</text>
</a>
</g>
</g>
<!-- Node3&#45;&gt;Node4 -->
<g id="edge3_Node000003_Node000004" class="edge">
<title>Node3&#45;&gt;Node4</title>
<g id="a_edge3_Node000003_Node000004"><a xlink:title=" ">
<path fill="none" stroke="#63b8ff" d="M111.37,-69.51C102.1,-60.11 91.88,-49.76 83.31,-41.07"/>
<polygon fill="#63b8ff" stroke="#63b8ff" points="109.04,-72.13 118.56,-76.79 114.03,-67.22 109.04,-72.13"/>
</a>
</g>
</g>
<!-- Node5 -->
<g id="Node000005" class="node">
<title>Node5</title>
<g id="a_Node000005"><a xlink:href="applications_2mp-melt-pool_2cases_2powder__bed_2powder__bed_8cpp.html" target="_top" xlink:title=" ">
<polygon fill="white" stroke="#666666" points="280,-41 146,-41 146,0 280,0 280,-41"/>
<text text-anchor="start" x="154" y="-29" font-family="Helvetica,sans-Serif" font-size="10.00">applications/mp&#45;melt</text>
<text text-anchor="start" x="154" y="-18" font-family="Helvetica,sans-Serif" font-size="10.00">&#45;pool/cases/powder_bed</text>
<text text-anchor="middle" x="213" y="-7" font-family="Helvetica,sans-Serif" font-size="10.00">/powder_bed.cpp</text>
</a>
</g>
</g>
<!-- Node3&#45;&gt;Node5 -->
<g id="edge4_Node000003_Node000005" class="edge">
<title>Node3&#45;&gt;Node5</title>
<g id="a_edge4_Node000003_Node000005"><a xlink:title=" ">
<path fill="none" stroke="#63b8ff" d="M164.99,-69.51C174.39,-60.11 184.74,-49.76 193.43,-41.07"/>
<polygon fill="#63b8ff" stroke="#63b8ff" points="162.3,-67.25 157.71,-76.79 167.25,-72.2 162.3,-67.25"/>
</a>
</g>
</g>
<!-- Node7 -->
<g id="Node000007" class="node">
<title>Node7</title>
<g id="a_Node000007"><a xlink:href="powder__particles_8cpp.html" target="_top" xlink:title=" ">
<polygon fill="white" stroke="#666666" points="378,-118 244,-118 244,-77 378,-77 378,-118"/>
<text text-anchor="start" x="252" y="-106" font-family="Helvetica,sans-Serif" font-size="10.00">applications/mp&#45;reinit</text>
<text text-anchor="start" x="252" y="-95" font-family="Helvetica,sans-Serif" font-size="10.00">/cases/powder_particles</text>
<text text-anchor="middle" x="311" y="-84" font-family="Helvetica,sans-Serif" font-size="10.00">/powder_particles.cpp</text>
</a>
</g>
</g>
<!-- Node6&#45;&gt;Node7 -->
<g id="edge6_Node000006_Node000007" class="edge">
<title>Node6&#45;&gt;Node7</title>
<g id="a_edge6_Node000006_Node000007"><a xlink:title=" ">
<path fill="none" stroke="#63b8ff" d="M307.38,-143.69C308.07,-135.08 308.81,-125.9 309.43,-118.07"/>
<polygon fill="#63b8ff" stroke="#63b8ff" points="303.89,-143.55 306.58,-153.79 310.86,-144.11 303.89,-143.55"/>
</a>
</g>
</g>
</g>
</svg>
