<?xml version="1.0" encoding="UTF-8" standalone="no"?>
<!DOCTYPE svg PUBLIC "-//W3C//DTD SVG 1.1//EN"
 "http://www.w3.org/Graphics/SVG/1.1/DTD/svg11.dtd">
<!-- Generated by graphviz version 2.43.0 (0)
 -->
<!-- Title: include/meltpooldg/phase_change/incompressible_newtonian_evaporation_material.hpp Pages: 1 -->
<svg width="212pt" height="181pt"
 viewBox="0.00 0.00 212.00 181.00" xmlns="http://www.w3.org/2000/svg" xmlns:xlink="http://www.w3.org/1999/xlink">
<g id="graph0" class="graph" transform="scale(1 1) rotate(0) translate(4 177)">
<title>include/meltpooldg/phase_change/incompressible_newtonian_evaporation_material.hpp</title>
<!-- Node1 -->
<g id="Node000001" class="node">
<title>Node1</title>
<g id="a_Node000001"><a xlink:title=" ">
<polygon fill="#999999" stroke="#666666" points="204,-173 0,-173 0,-132 204,-132 204,-173"/>
<text text-anchor="start" x="8" y="-161" font-family="Helvetica,sans-Serif" font-size="10.00">include/meltpooldg</text>
<text text-anchor="start" x="8" y="-150" font-family="Helvetica,sans-Serif" font-size="10.00">/phase_change/incompressible</text>
<text text-anchor="middle" x="102" y="-139" font-family="Helvetica,sans-Serif" font-size="10.00">_newtonian_evaporation_material.hpp</text>
</a>
</g>
</g>
<!-- Node2 -->
<g id="Node000002" class="node">
<title>Node2</title>
<g id="a_Node000002"><a xlink:href="melt__pool__application_8hpp.html" target="_top" xlink:title=" ">
<polygon fill="white" stroke="#666666" points="188.5,-96 15.5,-96 15.5,-66 188.5,-66 188.5,-96"/>
<text text-anchor="start" x="23.5" y="-84" font-family="Helvetica,sans-Serif" font-size="10.00">applications/mp&#45;melt</text>
<text text-anchor="middle" x="102" y="-73" font-family="Helvetica,sans-Serif" font-size="10.00">&#45;pool/melt_pool_application.hpp</text>
</a>
</g>
</g>
<!-- Node1&#45;&gt;Node2 -->
<g id="edge1_Node000001_Node000002" class="edge">
<title>Node1&#45;&gt;Node2</title>
<g id="a_edge1_Node000001_Node000002"><a xlink:title=" ">
<path fill="none" stroke="#63b8ff" d="M102,-121.66C102,-112.76 102,-103.42 102,-96.04"/>
<polygon fill="#63b8ff" stroke="#63b8ff" points="98.5,-121.77 102,-131.77 105.5,-121.77 98.5,-121.77"/>
</a>
</g>
</g>
<!-- Node3 -->
<g id="Node000003" class="node">
<title>Node3</title>
<g id="a_Node000003"><a xlink:href="melt__pool__application_8cpp.html" target="_top" xlink:title=" ">
<polygon fill="white" stroke="#666666" points="188.5,-30 15.5,-30 15.5,0 188.5,0 188.5,-30"/>
<text text-anchor="start" x="23.5" y="-18" font-family="Helvetica,sans-Serif" font-size="10.00">applications/mp&#45;melt</text>
<text text-anchor="middle" x="102" y="-7" font-family="Helvetica,sans-Serif" font-size="10.00">&#45;pool/melt_pool_application.cpp</text>
</a>
</g>
</g>
<!-- Node2&#45;&gt;Node3 -->
<g id="edge2_Node000002_Node000003" class="edge">
<title>Node2&#45;&gt;Node3</title>
<g id="a_edge2_Node000002_Node000003"><a xlink:title=" ">
<path fill="none" stroke="#63b8ff" d="M102,-55.54C102,-46.96 102,-37.61 102,-30.16"/>
<polygon fill="#63b8ff" stroke="#63b8ff" points="98.5,-55.8 102,-65.8 105.5,-55.8 98.5,-55.8"/>
</a>
</g>
</g>
</g>
</svg>
