<?xml version="1.0" encoding="UTF-8" standalone="no"?>
<!DOCTYPE svg PUBLIC "-//W3C//DTD SVG 1.1//EN"
 "http://www.w3.org/Graphics/SVG/1.1/DTD/svg11.dtd">
<!-- Generated by graphviz version 2.43.0 (0)
 -->
<!-- Title: include/meltpooldg/flow/incompressible_flow_operation_base.hpp Pages: 1 -->
<svg width="973pt" height="181pt"
 viewBox="0.00 0.00 972.50 181.00" xmlns="http://www.w3.org/2000/svg" xmlns:xlink="http://www.w3.org/1999/xlink">
<g id="graph0" class="graph" transform="scale(1 1) rotate(0) translate(4 177)">
<title>include/meltpooldg/flow/incompressible_flow_operation_base.hpp</title>
<!-- Node1 -->
<g id="Node000001" class="node">
<title>Node1</title>
<g id="a_Node000001"><a xlink:title=" ">
<polygon fill="#999999" stroke="#666666" points="659.5,-173 516.5,-173 516.5,-132 659.5,-132 659.5,-173"/>
<text text-anchor="start" x="524.5" y="-161" font-family="Helvetica,sans-Serif" font-size="10.00">include/meltpooldg</text>
<text text-anchor="start" x="524.5" y="-150" font-family="Helvetica,sans-Serif" font-size="10.00">/flow/incompressible</text>
<text text-anchor="middle" x="588" y="-139" font-family="Helvetica,sans-Serif" font-size="10.00">_flow_operation_base.hpp</text>
</a>
</g>
</g>
<!-- Node2 -->
<g id="Node000002" class="node">
<title>Node2</title>
<g id="a_Node000002"><a xlink:title=" ">
<polygon fill="#e0e0e0" stroke="#999999" points="566.5,-96 463.5,-96 463.5,-66 566.5,-66 566.5,-96"/>
<text text-anchor="start" x="471.5" y="-84" font-family="Helvetica,sans-Serif" font-size="10.00">deal.II/lac/generic</text>
<text text-anchor="middle" x="515" y="-73" font-family="Helvetica,sans-Serif" font-size="10.00">_linear_algebra.h</text>
</a>
</g>
</g>
<!-- Node1&#45;&gt;Node2 -->
<g id="edge1_Node000001_Node000002" class="edge">
<title>Node1&#45;&gt;Node2</title>
<g id="a_edge1_Node000001_Node000002"><a xlink:title=" ">
<path fill="none" stroke="#63b8ff" d="M567.28,-131.77C557.83,-122.78 546.64,-112.12 537.04,-102.98"/>
<polygon fill="#63b8ff" stroke="#63b8ff" points="539.4,-100.4 529.75,-96.04 534.57,-105.47 539.4,-100.4"/>
</a>
</g>
</g>
<!-- Node3 -->
<g id="Node000003" class="node">
<title>Node3</title>
<g id="a_Node000003"><a xlink:href="generic__data__out_8hpp.html" target="_top" xlink:title=" ">
<polygon fill="white" stroke="#666666" points="739,-96 585,-96 585,-66 739,-66 739,-96"/>
<text text-anchor="start" x="593" y="-84" font-family="Helvetica,sans-Serif" font-size="10.00">meltpooldg/post_processing</text>
<text text-anchor="middle" x="662" y="-73" font-family="Helvetica,sans-Serif" font-size="10.00">/generic_data_out.hpp</text>
</a>
</g>
</g>
<!-- Node1&#45;&gt;Node3 -->
<g id="edge2_Node000001_Node000003" class="edge">
<title>Node1&#45;&gt;Node3</title>
<g id="a_edge2_Node000001_Node000003"><a xlink:title=" ">
<path fill="none" stroke="#63b8ff" d="M609.01,-131.77C618.58,-122.78 629.93,-112.12 639.66,-102.98"/>
<polygon fill="#63b8ff" stroke="#63b8ff" points="642.16,-105.44 647.05,-96.04 637.37,-100.33 642.16,-105.44"/>
</a>
</g>
</g>
<!-- Node4 -->
<g id="Node000004" class="node">
<title>Node4</title>
<g id="a_Node000004"><a xlink:title=" ">
<polygon fill="#e0e0e0" stroke="#999999" points="140,-24.5 0,-24.5 0,-5.5 140,-5.5 140,-24.5"/>
<text text-anchor="middle" x="70" y="-12.5" font-family="Helvetica,sans-Serif" font-size="10.00">deal.II/dofs/dof_handler.h</text>
</a>
</g>
</g>
<!-- Node3&#45;&gt;Node4 -->
<g id="edge3_Node000003_Node000004" class="edge">
<title>Node3&#45;&gt;Node4</title>
<g id="a_edge3_Node000003_Node000004"><a xlink:title=" ">
<path fill="none" stroke="#63b8ff" d="M584.72,-67.25C581.44,-66.81 578.19,-66.39 575,-66 386.4,-42.89 337.41,-54.6 149,-30 140.95,-28.95 132.47,-27.65 124.17,-26.27"/>
<polygon fill="#63b8ff" stroke="#63b8ff" points="124.63,-22.8 114.18,-24.56 123.45,-29.7 124.63,-22.8"/>
</a>
</g>
</g>
<!-- Node5 -->
<g id="Node000005" class="node">
<title>Node5</title>
<g id="a_Node000005"><a xlink:title=" ">
<polygon fill="#e0e0e0" stroke="#999999" points="272,-24.5 158,-24.5 158,-5.5 272,-5.5 272,-24.5"/>
<text text-anchor="middle" x="215" y="-12.5" font-family="Helvetica,sans-Serif" font-size="10.00">deal.II/fe/mapping.h</text>
</a>
</g>
</g>
<!-- Node3&#45;&gt;Node5 -->
<g id="edge4_Node000003_Node000005" class="edge">
<title>Node3&#45;&gt;Node5</title>
<g id="a_edge4_Node000003_Node000005"><a xlink:title=" ">
<path fill="none" stroke="#63b8ff" d="M584.7,-67.41C581.43,-66.92 578.18,-66.45 575,-66 444.66,-47.54 410.85,-51.68 281,-30 275.08,-29.01 268.88,-27.86 262.76,-26.64"/>
<polygon fill="#63b8ff" stroke="#63b8ff" points="263.08,-23.14 252.59,-24.56 261.68,-30 263.08,-23.14"/>
</a>
</g>
</g>
<!-- Node6 -->
<g id="Node000006" class="node">
<title>Node6</title>
<g id="a_Node000006"><a xlink:title=" ">
<polygon fill="#e0e0e0" stroke="#999999" points="408,-30 290,-30 290,0 408,0 408,-30"/>
<text text-anchor="start" x="298" y="-18" font-family="Helvetica,sans-Serif" font-size="10.00">deal.II/lac/la_parallel</text>
<text text-anchor="middle" x="349" y="-7" font-family="Helvetica,sans-Serif" font-size="10.00">_vector.h</text>
</a>
</g>
</g>
<!-- Node3&#45;&gt;Node6 -->
<g id="edge5_Node000003_Node000006" class="edge">
<title>Node3&#45;&gt;Node6</title>
<g id="a_edge5_Node000003_Node000006"><a xlink:title=" ">
<path fill="none" stroke="#63b8ff" d="M593.09,-65.97C546.38,-56.45 482.98,-43.52 418.31,-30.27"/>
<polygon fill="#63b8ff" stroke="#63b8ff" points="418.84,-26.8 408.34,-28.22 417.43,-33.66 418.84,-26.8"/>
</a>
</g>
</g>
<!-- Node7 -->
<g id="Node000007" class="node">
<title>Node7</title>
<g id="a_Node000007"><a xlink:title=" ">
<polygon fill="#e0e0e0" stroke="#999999" points="584,-30 426,-30 426,0 584,0 584,-30"/>
<text text-anchor="start" x="434" y="-18" font-family="Helvetica,sans-Serif" font-size="10.00">deal.II/numerics/data</text>
<text text-anchor="middle" x="505" y="-7" font-family="Helvetica,sans-Serif" font-size="10.00">_component_interpretation.h</text>
</a>
</g>
</g>
<!-- Node3&#45;&gt;Node7 -->
<g id="edge6_Node000003_Node000007" class="edge">
<title>Node3&#45;&gt;Node7</title>
<g id="a_edge6_Node000003_Node000007"><a xlink:title=" ">
<path fill="none" stroke="#63b8ff" d="M627.55,-65.95C604.44,-56.53 573.8,-44.04 548.94,-33.91"/>
<polygon fill="#63b8ff" stroke="#63b8ff" points="549.96,-30.55 539.37,-30.01 547.31,-37.03 549.96,-30.55"/>
</a>
</g>
</g>
<!-- Node8 -->
<g id="Node000008" class="node">
<title>Node8</title>
<g id="a_Node000008"><a xlink:title=" ">
<polygon fill="#e0e0e0" stroke="#999999" points="721.5,-30 602.5,-30 602.5,0 721.5,0 721.5,-30"/>
<text text-anchor="start" x="610.5" y="-18" font-family="Helvetica,sans-Serif" font-size="10.00">deal.II/numerics/data</text>
<text text-anchor="middle" x="662" y="-7" font-family="Helvetica,sans-Serif" font-size="10.00">_out.h</text>
</a>
</g>
</g>
<!-- Node3&#45;&gt;Node8 -->
<g id="edge7_Node000003_Node000008" class="edge">
<title>Node3&#45;&gt;Node8</title>
<g id="a_edge7_Node000003_Node000008"><a xlink:title=" ">
<path fill="none" stroke="#63b8ff" d="M662,-65.8C662,-58.34 662,-48.99 662,-40.41"/>
<polygon fill="#63b8ff" stroke="#63b8ff" points="665.5,-40.16 662,-30.16 658.5,-40.16 665.5,-40.16"/>
</a>
</g>
</g>
<!-- Node9 -->
<g id="Node000009" class="node">
<title>Node9</title>
<g id="a_Node000009"><a xlink:title=" ">
<polygon fill="#e0e0e0" stroke="#999999" points="778,-24.5 740,-24.5 740,-5.5 778,-5.5 778,-24.5"/>
<text text-anchor="middle" x="759" y="-12.5" font-family="Helvetica,sans-Serif" font-size="10.00">map</text>
</a>
</g>
</g>
<!-- Node3&#45;&gt;Node9 -->
<g id="edge8_Node000003_Node000009" class="edge">
<title>Node3&#45;&gt;Node9</title>
<g id="a_edge8_Node000003_Node000009"><a xlink:title=" ">
<path fill="none" stroke="#63b8ff" d="M683.53,-65.8C699.48,-55.27 721.15,-40.97 737.18,-30.4"/>
<polygon fill="#63b8ff" stroke="#63b8ff" points="739.46,-33.09 745.88,-24.66 735.6,-27.24 739.46,-33.09"/>
</a>
</g>
</g>
<!-- Node10 -->
<g id="Node000010" class="node">
<title>Node10</title>
<g id="a_Node000010"><a xlink:title=" ">
<polygon fill="#e0e0e0" stroke="#999999" points="840,-24.5 796,-24.5 796,-5.5 840,-5.5 840,-24.5"/>
<text text-anchor="middle" x="818" y="-12.5" font-family="Helvetica,sans-Serif" font-size="10.00">string</text>
</a>
</g>
</g>
<!-- Node3&#45;&gt;Node10 -->
<g id="edge9_Node000003_Node000010" class="edge">
<title>Node3&#45;&gt;Node10</title>
<g id="a_edge9_Node000003_Node000010"><a xlink:title=" ">
<path fill="none" stroke="#63b8ff" d="M698.27,-65.97C723.32,-56.17 757.32,-42.63 787,-30 788.01,-29.57 789.03,-29.13 790.06,-28.69"/>
<polygon fill="#63b8ff" stroke="#63b8ff" points="791.64,-31.82 799.37,-24.57 788.81,-25.41 791.64,-31.82"/>
</a>
</g>
</g>
<!-- Node11 -->
<g id="Node000011" class="node">
<title>Node11</title>
<g id="a_Node000011"><a xlink:title=" ">
<polygon fill="#e0e0e0" stroke="#999999" points="899.5,-24.5 858.5,-24.5 858.5,-5.5 899.5,-5.5 899.5,-24.5"/>
<text text-anchor="middle" x="879" y="-12.5" font-family="Helvetica,sans-Serif" font-size="10.00">tuple</text>
</a>
</g>
</g>
<!-- Node3&#45;&gt;Node11 -->
<g id="edge10_Node000003_Node000011" class="edge">
<title>Node3&#45;&gt;Node11</title>
<g id="a_edge10_Node000003_Node000011"><a xlink:title=" ">
<path fill="none" stroke="#63b8ff" d="M725.61,-65.93C762.19,-57.11 808.73,-44.65 849,-30 850.22,-29.56 851.45,-29.09 852.69,-28.59"/>
<polygon fill="#63b8ff" stroke="#63b8ff" points="854.3,-31.71 862.08,-24.52 851.52,-25.28 854.3,-31.71"/>
</a>
</g>
</g>
<!-- Node12 -->
<g id="Node000012" class="node">
<title>Node12</title>
<g id="a_Node000012"><a xlink:title=" ">
<polygon fill="#e0e0e0" stroke="#999999" points="964.5,-24.5 917.5,-24.5 917.5,-5.5 964.5,-5.5 964.5,-24.5"/>
<text text-anchor="middle" x="941" y="-12.5" font-family="Helvetica,sans-Serif" font-size="10.00">vector</text>
</a>
</g>
</g>
<!-- Node3&#45;&gt;Node12 -->
<g id="edge11_Node000003_Node000012" class="edge">
<title>Node3&#45;&gt;Node12</title>
<g id="a_edge11_Node000003_Node000012"><a xlink:title=" ">
<path fill="none" stroke="#63b8ff" d="M739.01,-68.75C788.29,-60.49 853.2,-47.63 909,-30 910.63,-29.48 912.29,-28.91 913.95,-28.3"/>
<polygon fill="#63b8ff" stroke="#63b8ff" points="915.35,-31.52 923.32,-24.53 912.73,-25.02 915.35,-31.52"/>
</a>
</g>
</g>
</g>
</svg>
