<?xml version="1.0" encoding="UTF-8" standalone="no"?>
<!DOCTYPE svg PUBLIC "-//W3C//DTD SVG 1.1//EN"
 "http://www.w3.org/Graphics/SVG/1.1/DTD/svg11.dtd">
<!-- Generated by graphviz version 2.43.0 (0)
 -->
<!-- Title: Graphical Class Hierarchy Pages: 1 -->
<svg width="291pt" height="260pt"
 viewBox="0.00 0.00 291.00 260.00" xmlns="http://www.w3.org/2000/svg" xmlns:xlink="http://www.w3.org/1999/xlink">
<g id="graph0" class="graph" transform="scale(1 1) rotate(0) translate(4 256)">
<title>Graphical Class Hierarchy</title>
<!-- Node0 -->
<g id="Node000000" class="node">
<title>Node0</title>
<g id="a_Node000000"><a xlink:title=" ">
<polygon fill="#e0e0e0" stroke="#999999" points="67,-132.5 0,-132.5 0,-113.5 67,-113.5 67,-132.5"/>
<text text-anchor="middle" x="33.5" y="-120.5" font-family="Helvetica,sans-Serif" font-size="10.00">CaseClass</text>
</a>
</g>
</g>
<!-- Node1 -->
<g id="Node000001" class="node">
<title>Node1</title>
<g id="a_Node000001"><a xlink:href="classMeltPoolDG_1_1Simulation_1_1LaserMeltingSimonds_1_1SimulationLaserMeltingSimonds.html" target="_top" xlink:title="Simulation setup for the Simonds laser&#45;melting benchmark.">
<polygon fill="white" stroke="#666666" points="283,-252 103,-252 103,-200 283,-200 283,-252"/>
<text text-anchor="start" x="111" y="-240" font-family="Helvetica,sans-Serif" font-size="10.00">MeltPoolDG::Simulation</text>
<text text-anchor="start" x="111" y="-229" font-family="Helvetica,sans-Serif" font-size="10.00">::LaserMeltingSimonds</text>
<text text-anchor="start" x="111" y="-218" font-family="Helvetica,sans-Serif" font-size="10.00">::SimulationLaserMeltingSimonds</text>
<text text-anchor="middle" x="193" y="-207" font-family="Helvetica,sans-Serif" font-size="10.00">&lt; dim, Number, CaseClass &gt;</text>
</a>
</g>
</g>
<!-- Node0&#45;&gt;Node1 -->
<g id="edge1_Node000000_Node000001" class="edge">
<title>Node0&#45;&gt;Node1</title>
<g id="a_edge1_Node000000_Node000001"><a xlink:title=" ">
<path fill="none" stroke="#63b8ff" d="M48.63,-140.62C61.48,-155.68 81.65,-177.07 103,-191 107.87,-194.18 113.07,-197.14 118.42,-199.88"/>
<polygon fill="#63b8ff" stroke="#63b8ff" points="51.04,-138.04 41.96,-132.58 45.66,-142.51 51.04,-138.04"/>
</a>
</g>
</g>
<!-- Node2 -->
<g id="Node000002" class="node">
<title>Node2</title>
<g id="a_Node000002"><a xlink:href="classMeltPoolDG_1_1Simulation_1_1MeltFrontPropagation_1_1SimulationMeltFrontPropagation.html" target="_top" xlink:title=" ">
<polygon fill="white" stroke="#666666" points="283,-182 103,-182 103,-130 283,-130 283,-182"/>
<text text-anchor="start" x="111" y="-170" font-family="Helvetica,sans-Serif" font-size="10.00">MeltPoolDG::Simulation</text>
<text text-anchor="start" x="111" y="-159" font-family="Helvetica,sans-Serif" font-size="10.00">::MeltFrontPropagation</text>
<text text-anchor="start" x="111" y="-148" font-family="Helvetica,sans-Serif" font-size="10.00">::SimulationMeltFrontPropagation</text>
<text text-anchor="middle" x="193" y="-137" font-family="Helvetica,sans-Serif" font-size="10.00">&lt; dim, number, CaseClass &gt;</text>
</a>
</g>
</g>
<!-- Node0&#45;&gt;Node2 -->
<g id="edge2_Node000000_Node000002" class="edge">
<title>Node0&#45;&gt;Node2</title>
<g id="a_edge2_Node000000_Node000002"><a xlink:title=" ">
<path fill="none" stroke="#63b8ff" d="M77.03,-131.91C85.14,-133.61 93.91,-135.45 102.86,-137.32"/>
<polygon fill="#63b8ff" stroke="#63b8ff" points="77.64,-128.46 67.13,-129.84 76.2,-135.31 77.64,-128.46"/>
</a>
</g>
</g>
<!-- Node3 -->
<g id="Node000003" class="node">
<title>Node3</title>
<g id="a_Node000003"><a xlink:href="classMeltPoolDG_1_1Simulation_1_1PowderBed_1_1SimulationPowderBed.html" target="_top" xlink:title=" ">
<polygon fill="white" stroke="#666666" points="281,-111.5 105,-111.5 105,-70.5 281,-70.5 281,-111.5"/>
<text text-anchor="start" x="113" y="-99.5" font-family="Helvetica,sans-Serif" font-size="10.00">MeltPoolDG::Simulation</text>
<text text-anchor="start" x="113" y="-88.5" font-family="Helvetica,sans-Serif" font-size="10.00">::PowderBed::SimulationPowder</text>
<text text-anchor="middle" x="193" y="-77.5" font-family="Helvetica,sans-Serif" font-size="10.00">Bed&lt; dim, number, CaseClass &gt;</text>
</a>
</g>
</g>
<!-- Node0&#45;&gt;Node3 -->
<g id="edge3_Node000000_Node000003" class="edge">
<title>Node0&#45;&gt;Node3</title>
<g id="a_edge3_Node000000_Node000003"><a xlink:title=" ">
<path fill="none" stroke="#63b8ff" d="M76.98,-114.37C85.69,-112.6 95.16,-110.67 104.81,-108.72"/>
<polygon fill="#63b8ff" stroke="#63b8ff" points="76.24,-110.95 67.13,-116.37 77.63,-117.81 76.24,-110.95"/>
</a>
</g>
</g>
<!-- Node4 -->
<g id="Node000004" class="node">
<title>Node4</title>
<g id="a_Node000004"><a xlink:href="classMeltPoolDG_1_1Simulation_1_1SingleTrackMelt_1_1SimulationSingleTrackMelt.html" target="_top" xlink:title="Simulation case for a single&#45;track melt problem.">
<polygon fill="white" stroke="#666666" points="279,-52 107,-52 107,0 279,0 279,-52"/>
<text text-anchor="start" x="115" y="-40" font-family="Helvetica,sans-Serif" font-size="10.00">MeltPoolDG::Simulation</text>
<text text-anchor="start" x="115" y="-29" font-family="Helvetica,sans-Serif" font-size="10.00">::SingleTrackMelt::Simulation</text>
<text text-anchor="start" x="115" y="-18" font-family="Helvetica,sans-Serif" font-size="10.00">SingleTrackMelt&lt; dim, Number,</text>
<text text-anchor="middle" x="193" y="-7" font-family="Helvetica,sans-Serif" font-size="10.00"> CaseClass &gt;</text>
</a>
</g>
</g>
<!-- Node0&#45;&gt;Node4 -->
<g id="edge4_Node000000_Node000004" class="edge">
<title>Node0&#45;&gt;Node4</title>
<g id="a_edge4_Node000000_Node000004"><a xlink:title=" ">
<path fill="none" stroke="#63b8ff" d="M50.7,-105.62C63.82,-92.32 83.29,-74.25 103,-62 108.66,-58.48 114.73,-55.18 120.93,-52.12"/>
<polygon fill="#63b8ff" stroke="#63b8ff" points="47.83,-103.56 43.41,-113.19 52.87,-108.41 47.83,-103.56"/>
</a>
</g>
</g>
</g>
</svg>
