<?xml version="1.0" encoding="UTF-8" standalone="no"?>
<!DOCTYPE svg PUBLIC "-//W3C//DTD SVG 1.1//EN"
 "http://www.w3.org/Graphics/SVG/1.1/DTD/svg11.dtd">
<!-- Generated by graphviz version 2.43.0 (0)
 -->
<!-- Title: Graphical Class Hierarchy Pages: 1 -->
<svg width="309pt" height="108pt"
 viewBox="0.00 0.00 309.00 108.00" xmlns="http://www.w3.org/2000/svg" xmlns:xlink="http://www.w3.org/1999/xlink">
<g id="graph0" class="graph" transform="scale(1 1) rotate(0) translate(4 104)">
<title>Graphical Class Hierarchy</title>
<!-- Node0 -->
<g id="Node000000" class="node">
<title>Node0</title>
<g id="a_Node000000"><a xlink:href="classMeltPoolDG_1_1LevelSet_1_1LevelSetOperationBase.html" target="_top" xlink:title=" ">
<polygon fill="white" stroke="#666666" points="137,-70 0,-70 0,-29 137,-29 137,-70"/>
<text text-anchor="start" x="8" y="-58" font-family="Helvetica,sans-Serif" font-size="10.00">MeltPoolDG::LevelSet</text>
<text text-anchor="start" x="8" y="-47" font-family="Helvetica,sans-Serif" font-size="10.00">::LevelSetOperationBase</text>
<text text-anchor="middle" x="68.5" y="-36" font-family="Helvetica,sans-Serif" font-size="10.00">&lt; dim, number &gt;</text>
</a>
</g>
</g>
<!-- Node1 -->
<g id="Node000001" class="node">
<title>Node1</title>
<g id="a_Node000001"><a xlink:href="classMeltPoolDG_1_1LevelSet_1_1LevelSetDGOperation.html" target="_top" xlink:title=" ">
<polygon fill="white" stroke="#666666" points="301,-100 173,-100 173,-59 301,-59 301,-100"/>
<text text-anchor="start" x="181" y="-88" font-family="Helvetica,sans-Serif" font-size="10.00">MeltPoolDG::LevelSet</text>
<text text-anchor="start" x="181" y="-77" font-family="Helvetica,sans-Serif" font-size="10.00">::LevelSetDGOperation</text>
<text text-anchor="middle" x="237" y="-66" font-family="Helvetica,sans-Serif" font-size="10.00">&lt; dim, number &gt;</text>
</a>
</g>
</g>
<!-- Node0&#45;&gt;Node1 -->
<g id="edge135_Node000000_Node000001" class="edge">
<title>Node0&#45;&gt;Node1</title>
<g id="a_edge135_Node000000_Node000001"><a xlink:title=" ">
<path fill="none" stroke="#63b8ff" d="M147.25,-63.51C155.85,-65.06 164.52,-66.62 172.91,-68.13"/>
<polygon fill="#63b8ff" stroke="#63b8ff" points="147.68,-60.03 137.22,-61.7 146.44,-66.92 147.68,-60.03"/>
</a>
</g>
</g>
<!-- Node2 -->
<g id="Node000002" class="node">
<title>Node2</title>
<g id="a_Node000002"><a xlink:href="classMeltPoolDG_1_1LevelSet_1_1LevelSetOperation.html" target="_top" xlink:title=" ">
<polygon fill="white" stroke="#666666" points="298,-41 176,-41 176,0 298,0 298,-41"/>
<text text-anchor="start" x="184" y="-29" font-family="Helvetica,sans-Serif" font-size="10.00">MeltPoolDG::LevelSet</text>
<text text-anchor="start" x="184" y="-18" font-family="Helvetica,sans-Serif" font-size="10.00">::LevelSetOperation&lt;</text>
<text text-anchor="middle" x="237" y="-7" font-family="Helvetica,sans-Serif" font-size="10.00"> dim, number &gt;</text>
</a>
</g>
</g>
<!-- Node0&#45;&gt;Node2 -->
<g id="edge136_Node000000_Node000002" class="edge">
<title>Node0&#45;&gt;Node2</title>
<g id="a_edge136_Node000000_Node000002"><a xlink:title=" ">
<path fill="none" stroke="#63b8ff" d="M147.19,-35.97C156.81,-34.29 166.53,-32.6 175.83,-30.98"/>
<polygon fill="#63b8ff" stroke="#63b8ff" points="146.47,-32.54 137.22,-37.7 147.67,-39.44 146.47,-32.54"/>
</a>
</g>
</g>
</g>
</svg>
