<?xml version="1.0" encoding="UTF-8" standalone="no"?>
<!DOCTYPE svg PUBLIC "-//W3C//DTD SVG 1.1//EN"
 "http://www.w3.org/Graphics/SVG/1.1/DTD/svg11.dtd">
<!-- Generated by graphviz version 2.43.0 (0)
 -->
<!-- Title: Graphical Class Hierarchy Pages: 1 -->
<svg width="410pt" height="226pt"
 viewBox="0.00 0.00 410.00 226.00" xmlns="http://www.w3.org/2000/svg" xmlns:xlink="http://www.w3.org/1999/xlink">
<g id="graph0" class="graph" transform="scale(1 1) rotate(0) translate(4 222)">
<title>Graphical Class Hierarchy</title>
<!-- Node0 -->
<g id="Node000000" class="node">
<title>Node0</title>
<g id="a_Node000000"><a xlink:href="classMeltPoolDG_1_1LevelSet_1_1ReinitializationHyperbolicOperationCapable.html" target="_top" xlink:title=" ">
<polygon fill="white" stroke="#666666" points="189,-203 0,-203 0,-162 189,-162 189,-203"/>
<text text-anchor="start" x="8" y="-191" font-family="Helvetica,sans-Serif" font-size="10.00">MeltPoolDG::LevelSet</text>
<text text-anchor="start" x="8" y="-180" font-family="Helvetica,sans-Serif" font-size="10.00">::ReinitializationHyperbolic</text>
<text text-anchor="middle" x="94.5" y="-169" font-family="Helvetica,sans-Serif" font-size="10.00">OperationCapable&lt; dim, number &gt;</text>
</a>
</g>
</g>
<!-- Node1 -->
<g id="Node000001" class="node">
<title>Node1</title>
<g id="a_Node000001"><a xlink:href="classMeltPoolDG_1_1LevelSet_1_1ReinitializationHyperbolicCGOperation.html" target="_top" xlink:title=" ">
<polygon fill="white" stroke="#666666" points="395.5,-218 231.5,-218 231.5,-177 395.5,-177 395.5,-218"/>
<text text-anchor="start" x="239.5" y="-206" font-family="Helvetica,sans-Serif" font-size="10.00">MeltPoolDG::LevelSet</text>
<text text-anchor="start" x="239.5" y="-195" font-family="Helvetica,sans-Serif" font-size="10.00">::ReinitializationHyperbolic</text>
<text text-anchor="middle" x="313.5" y="-184" font-family="Helvetica,sans-Serif" font-size="10.00">CGOperation&lt; dim, number &gt;</text>
</a>
</g>
</g>
<!-- Node0&#45;&gt;Node1 -->
<g id="edge139_Node000000_Node000001" class="edge">
<title>Node0&#45;&gt;Node1</title>
<g id="a_edge139_Node000000_Node000001"><a xlink:title=" ">
<path fill="none" stroke="#63b8ff" d="M199.4,-189.68C210.17,-190.43 221.01,-191.18 231.48,-191.9"/>
<polygon fill="#63b8ff" stroke="#63b8ff" points="199.32,-186.17 189.1,-188.97 198.84,-193.15 199.32,-186.17"/>
</a>
</g>
</g>
<!-- Node5 -->
<g id="Node000005" class="node">
<title>Node5</title>
<g id="a_Node000005"><a xlink:href="classMeltPoolDG_1_1LevelSet_1_1ReinitializationHyperbolicDGOperation.html" target="_top" xlink:title=" ">
<polygon fill="white" stroke="#666666" points="395.5,-159 231.5,-159 231.5,-118 395.5,-118 395.5,-159"/>
<text text-anchor="start" x="239.5" y="-147" font-family="Helvetica,sans-Serif" font-size="10.00">MeltPoolDG::LevelSet</text>
<text text-anchor="start" x="239.5" y="-136" font-family="Helvetica,sans-Serif" font-size="10.00">::ReinitializationHyperbolic</text>
<text text-anchor="middle" x="313.5" y="-125" font-family="Helvetica,sans-Serif" font-size="10.00">DGOperation&lt; dim, number &gt;</text>
</a>
</g>
</g>
<!-- Node0&#45;&gt;Node5 -->
<g id="edge140_Node000000_Node000005" class="edge">
<title>Node0&#45;&gt;Node5</title>
<g id="a_edge140_Node000000_Node000005"><a xlink:title=" ">
<path fill="none" stroke="#63b8ff" d="M199.07,-161.5C209.95,-159.29 220.9,-157.07 231.48,-154.93"/>
<polygon fill="#63b8ff" stroke="#63b8ff" points="198.21,-158.1 189.1,-163.52 199.6,-164.96 198.21,-158.1"/>
</a>
</g>
</g>
<!-- Node2 -->
<g id="Node000002" class="node">
<title>Node2</title>
<g id="a_Node000002"><a xlink:href="classMeltPoolDG_1_1LevelSet_1_1ReinitializationOperationBase.html" target="_top" xlink:title=" ">
<polygon fill="white" stroke="#666666" points="166.5,-129 22.5,-129 22.5,-88 166.5,-88 166.5,-129"/>
<text text-anchor="start" x="30.5" y="-117" font-family="Helvetica,sans-Serif" font-size="10.00">MeltPoolDG::LevelSet</text>
<text text-anchor="start" x="30.5" y="-106" font-family="Helvetica,sans-Serif" font-size="10.00">::ReinitializationOperation</text>
<text text-anchor="middle" x="94.5" y="-95" font-family="Helvetica,sans-Serif" font-size="10.00">Base&lt; dim, number &gt;</text>
</a>
</g>
</g>
<!-- Node2&#45;&gt;Node1 -->
<g id="edge143_Node000002_Node000001" class="edge">
<title>Node2&#45;&gt;Node1</title>
<g id="a_edge143_Node000002_Node000001"><a xlink:title=" ">
<path fill="none" stroke="#63b8ff" d="M145.84,-133.45C169.58,-144.79 198.46,-157.99 225,-168.5 232.29,-171.39 240,-174.23 247.69,-176.94"/>
<polygon fill="#63b8ff" stroke="#63b8ff" points="147.21,-130.22 136.68,-129.04 144.17,-136.53 147.21,-130.22"/>
</a>
</g>
</g>
<!-- Node2&#45;&gt;Node5 -->
<g id="edge144_Node000002_Node000005" class="edge">
<title>Node2&#45;&gt;Node5</title>
<g id="a_edge144_Node000002_Node000005"><a xlink:title=" ">
<path fill="none" stroke="#63b8ff" d="M176.86,-119.75C194.61,-122.2 213.38,-124.8 231.12,-127.25"/>
<polygon fill="#63b8ff" stroke="#63b8ff" points="176.94,-116.23 166.55,-118.32 175.98,-123.16 176.94,-116.23"/>
</a>
</g>
</g>
<!-- Node3 -->
<g id="Node000003" class="node">
<title>Node3</title>
<g id="a_Node000003"><a xlink:href="classMeltPoolDG_1_1LevelSet_1_1ReinitializationEllipticOperation.html" target="_top" xlink:title="Operation that performs the elliptic reinitialization process.">
<polygon fill="white" stroke="#666666" points="402,-100 225,-100 225,-59 402,-59 402,-100"/>
<text text-anchor="start" x="233" y="-88" font-family="Helvetica,sans-Serif" font-size="10.00">MeltPoolDG::LevelSet</text>
<text text-anchor="start" x="233" y="-77" font-family="Helvetica,sans-Serif" font-size="10.00">::ReinitializationEllipticOperation</text>
<text text-anchor="middle" x="313.5" y="-66" font-family="Helvetica,sans-Serif" font-size="10.00">&lt; dim, number &gt;</text>
</a>
</g>
</g>
<!-- Node2&#45;&gt;Node3 -->
<g id="edge141_Node000002_Node000003" class="edge">
<title>Node2&#45;&gt;Node3</title>
<g id="a_edge141_Node000002_Node000003"><a xlink:title=" ">
<path fill="none" stroke="#63b8ff" d="M176.76,-97.64C192.5,-95.54 209.06,-93.32 224.99,-91.2"/>
<polygon fill="#63b8ff" stroke="#63b8ff" points="176,-94.21 166.55,-99 176.93,-101.15 176,-94.21"/>
</a>
</g>
</g>
<!-- Node4 -->
<g id="Node000004" class="node">
<title>Node4</title>
<g id="a_Node000004"><a xlink:href="classMeltPoolDG_1_1LevelSet_1_1ReinitializationGeometricOperation.html" target="_top" xlink:title="Geometric level&#45;set reinitialization operation.">
<polygon fill="white" stroke="#666666" points="388,-41 239,-41 239,0 388,0 388,-41"/>
<text text-anchor="start" x="247" y="-29" font-family="Helvetica,sans-Serif" font-size="10.00">MeltPoolDG::LevelSet</text>
<text text-anchor="start" x="247" y="-18" font-family="Helvetica,sans-Serif" font-size="10.00">::ReinitializationGeometric</text>
<text text-anchor="middle" x="313.5" y="-7" font-family="Helvetica,sans-Serif" font-size="10.00">Operation&lt; dim, number &gt;</text>
</a>
</g>
</g>
<!-- Node2&#45;&gt;Node4 -->
<g id="edge142_Node000002_Node000004" class="edge">
<title>Node2&#45;&gt;Node4</title>
<g id="a_edge142_Node000002_Node000004"><a xlink:title=" ">
<path fill="none" stroke="#63b8ff" d="M148.2,-83.59C171.53,-72.91 199.42,-60.59 225,-50.5 233.07,-47.32 241.62,-44.14 250.11,-41.12"/>
<polygon fill="#63b8ff" stroke="#63b8ff" points="146.46,-80.54 138.84,-87.9 149.39,-86.9 146.46,-80.54"/>
</a>
</g>
</g>
</g>
</svg>
