<?xml version="1.0" encoding="UTF-8" standalone="no"?>
<!DOCTYPE svg PUBLIC "-//W3C//DTD SVG 1.1//EN"
 "http://www.w3.org/Graphics/SVG/1.1/DTD/svg11.dtd">
<!-- Generated by graphviz version 2.43.0 (0)
 -->
<!-- Title: Graphical Class Hierarchy Pages: 1 -->
<svg width="392pt" height="86pt"
 viewBox="0.00 0.00 392.00 86.00" xmlns="http://www.w3.org/2000/svg" xmlns:xlink="http://www.w3.org/1999/xlink">
<g id="graph0" class="graph" transform="scale(1 1) rotate(0) translate(4 82)">
<title>Graphical Class Hierarchy</title>
<!-- Node0 -->
<g id="Node000000" class="node">
<title>Node0</title>
<g id="a_Node000000"><a xlink:href="classMeltPoolDG_1_1Heat_1_1HeatOperationBase.html" target="_top" xlink:title=" ">
<polygon fill="white" stroke="#666666" points="181,-54 0,-54 0,-24 181,-24 181,-54"/>
<text text-anchor="start" x="8" y="-42" font-family="Helvetica,sans-Serif" font-size="10.00">MeltPoolDG::Heat::HeatOperation</text>
<text text-anchor="middle" x="90.5" y="-31" font-family="Helvetica,sans-Serif" font-size="10.00">Base&lt; dim, number &gt;</text>
</a>
</g>
</g>
<!-- Node1 -->
<g id="Node000001" class="node">
<title>Node1</title>
<g id="a_Node000001"><a xlink:href="classMeltPoolDG_1_1Heat_1_1HeatCutOperation.html" target="_top" xlink:title=" ">
<polygon fill="white" stroke="#666666" points="375,-78 226,-78 226,-48 375,-48 375,-78"/>
<text text-anchor="start" x="234" y="-66" font-family="Helvetica,sans-Serif" font-size="10.00">MeltPoolDG::Heat::HeatCut</text>
<text text-anchor="middle" x="300.5" y="-55" font-family="Helvetica,sans-Serif" font-size="10.00">Operation&lt; dim, number &gt;</text>
</a>
</g>
</g>
<!-- Node0&#45;&gt;Node1 -->
<g id="edge128_Node000000_Node000001" class="edge">
<title>Node0&#45;&gt;Node1</title>
<g id="a_edge128_Node000000_Node000001"><a xlink:title=" ">
<path fill="none" stroke="#63b8ff" d="M191.36,-50.52C202.93,-51.86 214.56,-53.2 225.7,-54.48"/>
<polygon fill="#63b8ff" stroke="#63b8ff" points="191.56,-47.02 181.22,-49.35 190.75,-53.98 191.56,-47.02"/>
</a>
</g>
</g>
<!-- Node2 -->
<g id="Node000002" class="node">
<title>Node2</title>
<g id="a_Node000002"><a xlink:href="classMeltPoolDG_1_1Heat_1_1HeatDiffuseOperation.html" target="_top" xlink:title=" ">
<polygon fill="white" stroke="#666666" points="384,-30 217,-30 217,0 384,0 384,-30"/>
<text text-anchor="start" x="225" y="-18" font-family="Helvetica,sans-Serif" font-size="10.00">MeltPoolDG::Heat::HeatDiffuse</text>
<text text-anchor="middle" x="300.5" y="-7" font-family="Helvetica,sans-Serif" font-size="10.00">Operation&lt; dim, number &gt;</text>
</a>
</g>
</g>
<!-- Node0&#45;&gt;Node2 -->
<g id="edge129_Node000000_Node000002" class="edge">
<title>Node0&#45;&gt;Node2</title>
<g id="a_edge129_Node000000_Node000002"><a xlink:title=" ">
<path fill="none" stroke="#63b8ff" d="M191.29,-27.49C199.89,-26.49 208.53,-25.5 216.97,-24.52"/>
<polygon fill="#63b8ff" stroke="#63b8ff" points="190.75,-24.02 181.22,-28.65 191.56,-30.98 190.75,-24.02"/>
</a>
</g>
</g>
</g>
</svg>
