<?xml version="1.0" encoding="UTF-8" standalone="no"?>
<!DOCTYPE svg PUBLIC "-//W3C//DTD SVG 1.1//EN"
 "http://www.w3.org/Graphics/SVG/1.1/DTD/svg11.dtd">
<!-- Generated by graphviz version 2.43.0 (0)
 -->
<!-- Title: Graphical Class Hierarchy Pages: 1 -->
<svg width="370pt" height="190pt"
 viewBox="0.00 0.00 370.00 189.50" xmlns="http://www.w3.org/2000/svg" xmlns:xlink="http://www.w3.org/1999/xlink">
<g id="graph0" class="graph" transform="scale(1 1) rotate(0) translate(4 185.5)">
<title>Graphical Class Hierarchy</title>
<!-- Node0 -->
<g id="Node000000" class="node">
<title>Node0</title>
<g id="a_Node000000"><a xlink:href="structMeltPoolDG_1_1CompressibleFlow_1_1DofValueMixin.html" target="_top" xlink:title=" ">
<polygon fill="white" stroke="#666666" points="179,-181.5 0,-181.5 0,-129.5 179,-129.5 179,-181.5"/>
<text text-anchor="start" x="8" y="-169.5" font-family="Helvetica,sans-Serif" font-size="10.00">MeltPoolDG::Compressible</text>
<text text-anchor="start" x="8" y="-158.5" font-family="Helvetica,sans-Serif" font-size="10.00">Flow::DofValueMixin&lt; dim,</text>
<text text-anchor="start" x="8" y="-147.5" font-family="Helvetica,sans-Serif" font-size="10.00"> Value::value_type, DofStateView</text>
<text text-anchor="middle" x="89.5" y="-136.5" font-family="Helvetica,sans-Serif" font-size="10.00">&lt; dim, number, Value &gt; &gt;</text>
</a>
</g>
</g>
<!-- Node1 -->
<g id="Node000001" class="node">
<title>Node1</title>
<g id="a_Node000001"><a xlink:href="structMeltPoolDG_1_1CompressibleFlow_1_1DofStateView.html" target="_top" xlink:title=" ">
<polygon fill="white" stroke="#666666" points="362,-106 215,-106 215,-65 362,-65 362,-106"/>
<text text-anchor="start" x="223" y="-94" font-family="Helvetica,sans-Serif" font-size="10.00">MeltPoolDG::Compressible</text>
<text text-anchor="start" x="223" y="-83" font-family="Helvetica,sans-Serif" font-size="10.00">Flow::DofStateView&lt; dim,</text>
<text text-anchor="middle" x="288.5" y="-72" font-family="Helvetica,sans-Serif" font-size="10.00"> number, Value &gt;</text>
</a>
</g>
</g>
<!-- Node0&#45;&gt;Node1 -->
<g id="edge98_Node000000_Node000001" class="edge">
<title>Node0&#45;&gt;Node1</title>
<g id="a_edge98_Node000000_Node000001"><a xlink:title=" ">
<path fill="none" stroke="#63b8ff" d="M173.39,-126.05C192.36,-119.3 212.13,-112.28 229.78,-106.01"/>
<polygon fill="#63b8ff" stroke="#63b8ff" points="172.11,-122.79 163.86,-129.43 174.45,-129.38 172.11,-122.79"/>
</a>
</g>
</g>
<!-- Node2 -->
<g id="Node000002" class="node">
<title>Node2</title>
<g id="a_Node000002"><a xlink:href="structMeltPoolDG_1_1Flow_1_1EOSValueMixin.html" target="_top" xlink:title=" ">
<polygon fill="white" stroke="#666666" points="167,-111.5 12,-111.5 12,-59.5 167,-59.5 167,-111.5"/>
<text text-anchor="start" x="20" y="-99.5" font-family="Helvetica,sans-Serif" font-size="10.00">MeltPoolDG::Flow::EOSValue</text>
<text text-anchor="start" x="20" y="-88.5" font-family="Helvetica,sans-Serif" font-size="10.00">Mixin&lt; dim, Value::value</text>
<text text-anchor="start" x="20" y="-77.5" font-family="Helvetica,sans-Serif" font-size="10.00">_type, DofStateView&lt; dim,</text>
<text text-anchor="middle" x="89.5" y="-66.5" font-family="Helvetica,sans-Serif" font-size="10.00"> number, Value &gt; &gt;</text>
</a>
</g>
</g>
<!-- Node2&#45;&gt;Node1 -->
<g id="edge99_Node000002_Node000001" class="edge">
<title>Node2&#45;&gt;Node1</title>
<g id="a_edge99_Node000002_Node000001"><a xlink:title=" ">
<path fill="none" stroke="#63b8ff" d="M177.23,-85.5C189.79,-85.5 202.61,-85.5 214.85,-85.5"/>
<polygon fill="#63b8ff" stroke="#63b8ff" points="177.23,-82 167.23,-85.5 177.23,-89 177.23,-82"/>
</a>
</g>
</g>
<!-- Node3 -->
<g id="Node000003" class="node">
<title>Node3</title>
<g id="a_Node000003"><a xlink:href="structMeltPoolDG_1_1CompressibleFlow_1_1MaterialMixin.html" target="_top" xlink:title=" ">
<polygon fill="white" stroke="#666666" points="174.5,-41 4.5,-41 4.5,0 174.5,0 174.5,-41"/>
<text text-anchor="start" x="12.5" y="-29" font-family="Helvetica,sans-Serif" font-size="10.00">MeltPoolDG::Compressible</text>
<text text-anchor="start" x="12.5" y="-18" font-family="Helvetica,sans-Serif" font-size="10.00">Flow::MaterialMixin&lt; DofState</text>
<text text-anchor="middle" x="89.5" y="-7" font-family="Helvetica,sans-Serif" font-size="10.00">View&lt; dim, number, Value &gt; &gt;</text>
</a>
</g>
</g>
<!-- Node3&#45;&gt;Node1 -->
<g id="edge100_Node000003_Node000001" class="edge">
<title>Node3&#45;&gt;Node1</title>
<g id="a_edge100_Node000003_Node000001"><a xlink:title=" ">
<path fill="none" stroke="#63b8ff" d="M162.47,-44.25C183.04,-51.04 205.29,-58.38 225.24,-64.96"/>
<polygon fill="#63b8ff" stroke="#63b8ff" points="163.43,-40.88 152.83,-41.07 161.23,-47.52 163.43,-40.88"/>
</a>
</g>
</g>
</g>
</svg>
