<?xml version="1.0" encoding="UTF-8" standalone="no"?>
<!DOCTYPE svg PUBLIC "-//W3C//DTD SVG 1.1//EN"
 "http://www.w3.org/Graphics/SVG/1.1/DTD/svg11.dtd">
<!-- Generated by graphviz version 2.43.0 (0)
 -->
<!-- Title: Graphical Class Hierarchy Pages: 1 -->
<svg width="696pt" height="1160pt"
 viewBox="0.00 0.00 696.00 1160.00" xmlns="http://www.w3.org/2000/svg" xmlns:xlink="http://www.w3.org/1999/xlink">
<g id="graph0" class="graph" transform="scale(1 1) rotate(0) translate(4 1156)">
<title>Graphical Class Hierarchy</title>
<!-- Node0 -->
<g id="Node000000" class="node">
<title>Node0</title>
<g id="a_Node000000"><a xlink:href="structMeltPoolDG_1_1SpeciesTransport_1_1DerivedPartialValueMixin.html" target="_top" xlink:title=" ">
<polygon fill="white" stroke="#666666" points="434.5,-768 237.5,-768 237.5,-705 434.5,-705 434.5,-768"/>
<text text-anchor="start" x="245.5" y="-756" font-family="Helvetica,sans-Serif" font-size="10.00">MeltPoolDG::SpeciesTransport</text>
<text text-anchor="start" x="245.5" y="-745" font-family="Helvetica,sans-Serif" font-size="10.00">::DerivedPartialValueMixin</text>
<text text-anchor="start" x="245.5" y="-734" font-family="Helvetica,sans-Serif" font-size="10.00">&lt; n_species, Value, MultiSpeciesDof</text>
<text text-anchor="start" x="245.5" y="-723" font-family="Helvetica,sans-Serif" font-size="10.00">StateView&lt; dim, n_species, number,</text>
<text text-anchor="middle" x="336" y="-712" font-family="Helvetica,sans-Serif" font-size="10.00"> Value &gt; &gt;</text>
</a>
</g>
</g>
<!-- Node1 -->
<g id="Node000001" class="node">
<title>Node1</title>
<g id="a_Node000001"><a xlink:href="structMeltPoolDG_1_1CompressibleFlow_1_1MultiSpeciesDofStateView.html" target="_top" xlink:title=" ">
<polygon fill="white" stroke="#666666" points="685,-979 497,-979 497,-938 685,-938 685,-979"/>
<text text-anchor="start" x="505" y="-967" font-family="Helvetica,sans-Serif" font-size="10.00">MeltPoolDG::Compressible</text>
<text text-anchor="start" x="505" y="-956" font-family="Helvetica,sans-Serif" font-size="10.00">Flow::MultiSpeciesDofStateView</text>
<text text-anchor="middle" x="591" y="-945" font-family="Helvetica,sans-Serif" font-size="10.00">&lt; dim, n_species, number, Value &gt;</text>
</a>
</g>
</g>
<!-- Node0&#45;&gt;Node1 -->
<g id="edge208_Node000000_Node000001" class="edge">
<title>Node0&#45;&gt;Node1</title>
<g id="a_edge208_Node000000_Node000001"><a xlink:title=" ">
<path fill="none" stroke="#63b8ff" d="M443.85,-768.38C448.78,-771.18 453.53,-774.22 458,-777.5 517.86,-821.49 561.88,-900.59 580.37,-937.93"/>
<polygon fill="#63b8ff" stroke="#63b8ff" points="445.27,-765.17 434.79,-763.59 441.99,-771.36 445.27,-765.17"/>
</a>
</g>
</g>
<!-- Node8 -->
<g id="Node000008" class="node">
<title>Node8</title>
<g id="a_Node000008"><a xlink:href="structMeltPoolDG_1_1SpeciesTransport_1_1DerivedPartialValueMixin.html" target="_top" xlink:title=" ">
<polygon fill="white" stroke="#666666" points="443.5,-63 228.5,-63 228.5,0 443.5,0 443.5,-63"/>
<text text-anchor="start" x="236.5" y="-51" font-family="Helvetica,sans-Serif" font-size="10.00">MeltPoolDG::SpeciesTransport</text>
<text text-anchor="start" x="236.5" y="-40" font-family="Helvetica,sans-Serif" font-size="10.00">::DerivedPartialValueMixin</text>
<text text-anchor="start" x="236.5" y="-29" font-family="Helvetica,sans-Serif" font-size="10.00">&lt; n_species, Value, MultiSpeciesDof</text>
<text text-anchor="start" x="236.5" y="-18" font-family="Helvetica,sans-Serif" font-size="10.00">ValueAndGradientStateView&lt; dim,</text>
<text text-anchor="middle" x="336" y="-7" font-family="Helvetica,sans-Serif" font-size="10.00"> n_species, number, Value, Gradient &gt; &gt;</text>
</a>
</g>
</g>
<!-- Node7 -->
<g id="Node000007" class="node">
<title>Node7</title>
<g id="a_Node000007"><a xlink:href="structMeltPoolDG_1_1CompressibleFlow_1_1MultiSpeciesDofValueAndGradientStateView.html" target="_top" xlink:title=" ">
<polygon fill="white" stroke="#666666" points="688,-359.5 494,-359.5 494,-307.5 688,-307.5 688,-359.5"/>
<text text-anchor="start" x="502" y="-347.5" font-family="Helvetica,sans-Serif" font-size="10.00">MeltPoolDG::Compressible</text>
<text text-anchor="start" x="502" y="-336.5" font-family="Helvetica,sans-Serif" font-size="10.00">Flow::MultiSpeciesDofValueAnd</text>
<text text-anchor="start" x="502" y="-325.5" font-family="Helvetica,sans-Serif" font-size="10.00">GradientStateView&lt; dim, n</text>
<text text-anchor="middle" x="591" y="-314.5" font-family="Helvetica,sans-Serif" font-size="10.00">_species, number, Value, Gradient &gt;</text>
</a>
</g>
</g>
<!-- Node8&#45;&gt;Node7 -->
<g id="edge209_Node000008_Node000007" class="edge">
<title>Node8&#45;&gt;Node7</title>
<g id="a_edge209_Node000008_Node000007"><a xlink:title=" ">
<path fill="none" stroke="#63b8ff" d="M451.97,-67.65C454.04,-69.2 456.06,-70.81 458,-72.5 532.79,-137.39 570.23,-254.86 583.83,-307.16"/>
<polygon fill="#63b8ff" stroke="#63b8ff" points="453.91,-64.73 443.67,-61.99 449.96,-70.51 453.91,-64.73"/>
</a>
</g>
</g>
<!-- Node9 -->
<g id="Node000009" class="node">
<title>Node9</title>
<g id="a_Node000009"><a xlink:href="structMeltPoolDG_1_1CompressibleFlow_1_1DofGradientMixin.html" target="_top" xlink:title=" ">
<polygon fill="white" stroke="#666666" points="426,-687 246,-687 246,-602 426,-602 426,-687"/>
<text text-anchor="start" x="254" y="-675" font-family="Helvetica,sans-Serif" font-size="10.00">MeltPoolDG::Compressible</text>
<text text-anchor="start" x="254" y="-664" font-family="Helvetica,sans-Serif" font-size="10.00">Flow::DofGradientMixin</text>
<text text-anchor="start" x="254" y="-653" font-family="Helvetica,sans-Serif" font-size="10.00">&lt; dim, Gradient::value</text>
<text text-anchor="start" x="254" y="-642" font-family="Helvetica,sans-Serif" font-size="10.00">_type::value_type, MultiSpecies</text>
<text text-anchor="start" x="254" y="-631" font-family="Helvetica,sans-Serif" font-size="10.00">DofValueAndGradientStateView</text>
<text text-anchor="start" x="254" y="-620" font-family="Helvetica,sans-Serif" font-size="10.00">&lt; dim, n_species, number, Value,</text>
<text text-anchor="middle" x="336" y="-609" font-family="Helvetica,sans-Serif" font-size="10.00"> Gradient &gt; &gt;</text>
</a>
</g>
</g>
<!-- Node9&#45;&gt;Node7 -->
<g id="edge210_Node000009_Node000007" class="edge">
<title>Node9&#45;&gt;Node7</title>
<g id="a_edge210_Node000009_Node000007"><a xlink:title=" ">
<path fill="none" stroke="#63b8ff" d="M434.87,-609.84C443.19,-604.75 451.06,-599 458,-592.5 529.64,-525.4 568.62,-410.75 583.21,-359.54"/>
<polygon fill="#63b8ff" stroke="#63b8ff" points="432.98,-606.89 426.05,-614.9 436.47,-612.96 432.98,-606.89"/>
</a>
</g>
</g>
<!-- Node2 -->
<g id="Node000002" class="node">
<title>Node2</title>
<g id="a_Node000002"><a xlink:href="structMeltPoolDG_1_1CompressibleFlow_1_1DofValueMixin.html" target="_top" xlink:title=" ">
<polygon fill="white" stroke="#666666" points="423.5,-1152 248.5,-1152 248.5,-1089 423.5,-1089 423.5,-1152"/>
<text text-anchor="start" x="256.5" y="-1140" font-family="Helvetica,sans-Serif" font-size="10.00">MeltPoolDG::Compressible</text>
<text text-anchor="start" x="256.5" y="-1129" font-family="Helvetica,sans-Serif" font-size="10.00">Flow::DofValueMixin&lt; dim,</text>
<text text-anchor="start" x="256.5" y="-1118" font-family="Helvetica,sans-Serif" font-size="10.00"> Value::value_type, MultiSpecies</text>
<text text-anchor="start" x="256.5" y="-1107" font-family="Helvetica,sans-Serif" font-size="10.00">DofStateView&lt; dim, n_species,</text>
<text text-anchor="middle" x="336" y="-1096" font-family="Helvetica,sans-Serif" font-size="10.00"> number, Value &gt; &gt;</text>
</a>
</g>
</g>
<!-- Node2&#45;&gt;Node1 -->
<g id="edge211_Node000002_Node000001" class="edge">
<title>Node2&#45;&gt;Node1</title>
<g id="a_edge211_Node000002_Node000001"><a xlink:title=" ">
<path fill="none" stroke="#63b8ff" d="M433.07,-1093.03C441.72,-1089.29 450.16,-1085.12 458,-1080.5 505.04,-1052.77 549.45,-1005.94 572.85,-979.08"/>
<polygon fill="#63b8ff" stroke="#63b8ff" points="431.53,-1089.88 423.62,-1096.93 434.2,-1096.35 431.53,-1089.88"/>
</a>
</g>
</g>
<!-- Node10 -->
<g id="Node000010" class="node">
<title>Node10</title>
<g id="a_Node000010"><a xlink:href="structMeltPoolDG_1_1CompressibleFlow_1_1DofValueMixin.html" target="_top" xlink:title=" ">
<polygon fill="white" stroke="#666666" points="426,-583.5 246,-583.5 246,-509.5 426,-509.5 426,-583.5"/>
<text text-anchor="start" x="254" y="-571.5" font-family="Helvetica,sans-Serif" font-size="10.00">MeltPoolDG::Compressible</text>
<text text-anchor="start" x="254" y="-560.5" font-family="Helvetica,sans-Serif" font-size="10.00">Flow::DofValueMixin&lt; dim,</text>
<text text-anchor="start" x="254" y="-549.5" font-family="Helvetica,sans-Serif" font-size="10.00"> Value::value_type, MultiSpecies</text>
<text text-anchor="start" x="254" y="-538.5" font-family="Helvetica,sans-Serif" font-size="10.00">DofValueAndGradientStateView</text>
<text text-anchor="start" x="254" y="-527.5" font-family="Helvetica,sans-Serif" font-size="10.00">&lt; dim, n_species, number, Value,</text>
<text text-anchor="middle" x="336" y="-516.5" font-family="Helvetica,sans-Serif" font-size="10.00"> Gradient &gt; &gt;</text>
</a>
</g>
</g>
<!-- Node10&#45;&gt;Node7 -->
<g id="edge212_Node000010_Node000007" class="edge">
<title>Node10&#45;&gt;Node7</title>
<g id="a_edge212_Node000010_Node000007"><a xlink:title=" ">
<path fill="none" stroke="#63b8ff" d="M435.27,-514.51C443.26,-510.32 450.95,-505.67 458,-500.5 511.05,-461.61 554.15,-396.06 575.48,-359.73"/>
<polygon fill="#63b8ff" stroke="#63b8ff" points="433.56,-511.45 426.15,-519.03 436.67,-517.72 433.56,-511.45"/>
</a>
</g>
</g>
<!-- Node3 -->
<g id="Node000003" class="node">
<title>Node3</title>
<g id="a_Node000003"><a xlink:href="structMeltPoolDG_1_1SpeciesTransport_1_1DofValueMixin.html" target="_top" xlink:title=" ">
<polygon fill="white" stroke="#666666" points="436,-1071 236,-1071 236,-1008 436,-1008 436,-1071"/>
<text text-anchor="start" x="244" y="-1059" font-family="Helvetica,sans-Serif" font-size="10.00">MeltPoolDG::SpeciesTransport</text>
<text text-anchor="start" x="244" y="-1048" font-family="Helvetica,sans-Serif" font-size="10.00">::DofValueMixin&lt; n_conserved</text>
<text text-anchor="start" x="244" y="-1037" font-family="Helvetica,sans-Serif" font-size="10.00">_variables&lt; dim &gt;, n_species,</text>
<text text-anchor="start" x="244" y="-1026" font-family="Helvetica,sans-Serif" font-size="10.00"> Value, MultiSpeciesDofStateView</text>
<text text-anchor="middle" x="336" y="-1015" font-family="Helvetica,sans-Serif" font-size="10.00">&lt; dim, n_species, number, Value &gt; &gt;</text>
</a>
</g>
</g>
<!-- Node3&#45;&gt;Node1 -->
<g id="edge213_Node000003_Node000001" class="edge">
<title>Node3&#45;&gt;Node1</title>
<g id="a_edge213_Node000003_Node000001"><a xlink:title=" ">
<path fill="none" stroke="#63b8ff" d="M445.18,-1004.87C472.58,-996.09 501.16,-986.94 525.62,-979.11"/>
<polygon fill="#63b8ff" stroke="#63b8ff" points="444,-1001.57 435.54,-1007.95 446.13,-1008.24 444,-1001.57"/>
</a>
</g>
</g>
<!-- Node11 -->
<g id="Node000011" class="node">
<title>Node11</title>
<g id="a_Node000011"><a xlink:href="structMeltPoolDG_1_1SpeciesTransport_1_1DofValueMixin.html" target="_top" xlink:title=" ">
<polygon fill="white" stroke="#666666" points="446,-491.5 226,-491.5 226,-417.5 446,-417.5 446,-491.5"/>
<text text-anchor="start" x="234" y="-479.5" font-family="Helvetica,sans-Serif" font-size="10.00">MeltPoolDG::SpeciesTransport</text>
<text text-anchor="start" x="234" y="-468.5" font-family="Helvetica,sans-Serif" font-size="10.00">::DofValueMixin&lt; n_conserved</text>
<text text-anchor="start" x="234" y="-457.5" font-family="Helvetica,sans-Serif" font-size="10.00">_variables&lt; dim &gt;, n_species,</text>
<text text-anchor="start" x="234" y="-446.5" font-family="Helvetica,sans-Serif" font-size="10.00"> Value, MultiSpeciesDofValueAndGradient</text>
<text text-anchor="start" x="234" y="-435.5" font-family="Helvetica,sans-Serif" font-size="10.00">StateView&lt; dim, n_species, number,</text>
<text text-anchor="middle" x="336" y="-424.5" font-family="Helvetica,sans-Serif" font-size="10.00"> Value, Gradient &gt; &gt;</text>
</a>
</g>
</g>
<!-- Node11&#45;&gt;Node7 -->
<g id="edge214_Node000011_Node000007" class="edge">
<title>Node11&#45;&gt;Node7</title>
<g id="a_edge214_Node000011_Node000007"><a xlink:title=" ">
<path fill="none" stroke="#63b8ff" d="M447.6,-413.26C451.12,-411.69 454.6,-410.1 458,-408.5 489,-393.91 522.56,-374.79 548.08,-359.51"/>
<polygon fill="#63b8ff" stroke="#63b8ff" points="445.94,-410.17 438.18,-417.37 448.74,-416.58 445.94,-410.17"/>
</a>
</g>
</g>
<!-- Node5 -->
<g id="Node000005" class="node">
<title>Node5</title>
<g id="a_Node000005"><a xlink:href="structMeltPoolDG_1_1SpeciesTransport_1_1EffectiveMaterialMixin.html" target="_top" xlink:title=" ">
<polygon fill="white" stroke="#666666" points="178,-838.5 0,-838.5 0,-786.5 178,-786.5 178,-838.5"/>
<text text-anchor="start" x="8" y="-826.5" font-family="Helvetica,sans-Serif" font-size="10.00">MeltPoolDG::SpeciesTransport</text>
<text text-anchor="start" x="8" y="-815.5" font-family="Helvetica,sans-Serif" font-size="10.00">::EffectiveMaterialMixin</text>
<text text-anchor="start" x="8" y="-804.5" font-family="Helvetica,sans-Serif" font-size="10.00">&lt; n_species, number, ValueType,</text>
<text text-anchor="middle" x="89" y="-793.5" font-family="Helvetica,sans-Serif" font-size="10.00"> Derived &gt;</text>
</a>
</g>
</g>
<!-- Node4 -->
<g id="Node000004" class="node">
<title>Node4</title>
<g id="a_Node000004"><a xlink:href="structMeltPoolDG_1_1CompressibleFlow_1_1MultiSpeciesMaterialMixin.html" target="_top" xlink:title=" ">
<polygon fill="white" stroke="#666666" points="439,-990 233,-990 233,-927 439,-927 439,-990"/>
<text text-anchor="start" x="241" y="-978" font-family="Helvetica,sans-Serif" font-size="10.00">MeltPoolDG::Compressible</text>
<text text-anchor="start" x="241" y="-967" font-family="Helvetica,sans-Serif" font-size="10.00">Flow::MultiSpeciesMaterialMixin</text>
<text text-anchor="start" x="241" y="-956" font-family="Helvetica,sans-Serif" font-size="10.00">&lt; n_species, number, Value::</text>
<text text-anchor="start" x="241" y="-945" font-family="Helvetica,sans-Serif" font-size="10.00">value_type, MultiSpeciesDofStateView</text>
<text text-anchor="middle" x="336" y="-934" font-family="Helvetica,sans-Serif" font-size="10.00">&lt; dim, n_species, number, Value &gt; &gt;</text>
</a>
</g>
</g>
<!-- Node5&#45;&gt;Node4 -->
<g id="edge215_Node000005_Node000004" class="edge">
<title>Node5&#45;&gt;Node4</title>
<g id="a_edge215_Node000005_Node000004"><a xlink:title=" ">
<path fill="none" stroke="#63b8ff" d="M122.2,-845.73C145.83,-868.54 179.66,-898.08 214,-917.5 219.99,-920.88 226.3,-924.05 232.76,-927"/>
<polygon fill="#63b8ff" stroke="#63b8ff" points="124.5,-843.08 114.9,-838.58 119.6,-848.08 124.5,-843.08"/>
</a>
</g>
</g>
<!-- Node6 -->
<g id="Node000006" class="node">
<title>Node6</title>
<g id="a_Node000006"><a xlink:href="structMeltPoolDG_1_1CompressibleFlow_1_1MultiSpeciesMaterialMixin.html" target="_top" xlink:title=" ">
<polygon fill="white" stroke="#666666" points="458,-329.5 214,-329.5 214,-255.5 458,-255.5 458,-329.5"/>
<text text-anchor="start" x="222" y="-317.5" font-family="Helvetica,sans-Serif" font-size="10.00">MeltPoolDG::Compressible</text>
<text text-anchor="start" x="222" y="-306.5" font-family="Helvetica,sans-Serif" font-size="10.00">Flow::MultiSpeciesMaterialMixin</text>
<text text-anchor="start" x="222" y="-295.5" font-family="Helvetica,sans-Serif" font-size="10.00">&lt; n_species, number, Value::</text>
<text text-anchor="start" x="222" y="-284.5" font-family="Helvetica,sans-Serif" font-size="10.00">value_type, MultiSpeciesDofValueAndGradient</text>
<text text-anchor="start" x="222" y="-273.5" font-family="Helvetica,sans-Serif" font-size="10.00">StateView&lt; dim, n_species, number, Value,</text>
<text text-anchor="middle" x="336" y="-262.5" font-family="Helvetica,sans-Serif" font-size="10.00"> Gradient &gt; &gt;</text>
</a>
</g>
</g>
<!-- Node5&#45;&gt;Node6 -->
<g id="edge217_Node000005_Node000006" class="edge">
<title>Node5&#45;&gt;Node6</title>
<g id="a_edge217_Node000005_Node000006"><a xlink:title=" ">
<path fill="none" stroke="#63b8ff" d="M95.12,-776.28C109.8,-677.16 154.78,-404.45 214,-338.5 216.85,-335.32 219.95,-332.36 223.24,-329.61"/>
<polygon fill="#63b8ff" stroke="#63b8ff" points="91.63,-776 93.64,-786.41 98.55,-777.02 91.63,-776"/>
</a>
</g>
</g>
<!-- Node15 -->
<g id="Node000015" class="node">
<title>Node15</title>
<g id="a_Node000015"><a xlink:href="structMeltPoolDG_1_1CompressibleFlow_1_1MultiSpeciesMaterialMixin.html" target="_top" xlink:title=" ">
<polygon fill="white" stroke="#666666" points="425,-838.5 247,-838.5 247,-786.5 425,-786.5 425,-838.5"/>
<text text-anchor="start" x="255" y="-826.5" font-family="Helvetica,sans-Serif" font-size="10.00">MeltPoolDG::Compressible</text>
<text text-anchor="start" x="255" y="-815.5" font-family="Helvetica,sans-Serif" font-size="10.00">Flow::MultiSpeciesMaterialMixin</text>
<text text-anchor="start" x="255" y="-804.5" font-family="Helvetica,sans-Serif" font-size="10.00">&lt; n_species, number, ValueType,</text>
<text text-anchor="middle" x="336" y="-793.5" font-family="Helvetica,sans-Serif" font-size="10.00"> Derived &gt;</text>
</a>
</g>
</g>
<!-- Node5&#45;&gt;Node15 -->
<g id="edge219_Node000005_Node000015" class="edge">
<title>Node5&#45;&gt;Node15</title>
<g id="a_edge219_Node000005_Node000015"><a xlink:title=" ">
<path fill="none" stroke="#63b8ff" d="M188.16,-812.5C207.56,-812.5 227.81,-812.5 246.85,-812.5"/>
<polygon fill="#63b8ff" stroke="#63b8ff" points="188.1,-809 178.1,-812.5 188.1,-816 188.1,-809"/>
</a>
</g>
</g>
<!-- Node4&#45;&gt;Node1 -->
<g id="edge216_Node000004_Node000001" class="edge">
<title>Node4&#45;&gt;Node1</title>
<g id="a_edge216_Node000004_Node000001"><a xlink:title=" ">
<path fill="none" stroke="#63b8ff" d="M449.52,-958.5C465.33,-958.5 481.44,-958.5 496.84,-958.5"/>
<polygon fill="#63b8ff" stroke="#63b8ff" points="449.18,-955 439.18,-958.5 449.18,-962 449.18,-955"/>
</a>
</g>
</g>
<!-- Node6&#45;&gt;Node7 -->
<g id="edge218_Node000006_Node000007" class="edge">
<title>Node6&#45;&gt;Node7</title>
<g id="a_edge218_Node000006_Node000007"><a xlink:title=" ">
<path fill="none" stroke="#63b8ff" d="M468.38,-313.79C476.95,-315.18 485.48,-316.56 493.84,-317.92"/>
<polygon fill="#63b8ff" stroke="#63b8ff" points="468.74,-310.3 458.31,-312.16 467.62,-317.21 468.74,-310.3"/>
</a>
</g>
</g>
<!-- Node12 -->
<g id="Node000012" class="node">
<title>Node12</title>
<g id="a_Node000012"><a xlink:href="structMeltPoolDG_1_1Flow_1_1EOSGradientMixin.html" target="_top" xlink:title=" ">
<polygon fill="white" stroke="#666666" points="439,-399.5 233,-399.5 233,-347.5 439,-347.5 439,-399.5"/>
<text text-anchor="start" x="241" y="-387.5" font-family="Helvetica,sans-Serif" font-size="10.00">MeltPoolDG::Flow::EOSGradient</text>
<text text-anchor="start" x="241" y="-376.5" font-family="Helvetica,sans-Serif" font-size="10.00">Mixin&lt; dim, MultiSpeciesDofValue</text>
<text text-anchor="start" x="241" y="-365.5" font-family="Helvetica,sans-Serif" font-size="10.00">AndGradientStateView&lt; dim, n</text>
<text text-anchor="middle" x="336" y="-354.5" font-family="Helvetica,sans-Serif" font-size="10.00">_species, number, Value, Gradient &gt; &gt;</text>
</a>
</g>
</g>
<!-- Node12&#45;&gt;Node7 -->
<g id="edge220_Node000012_Node000007" class="edge">
<title>Node12&#45;&gt;Node7</title>
<g id="a_edge220_Node000012_Node000007"><a xlink:title=" ">
<path fill="none" stroke="#63b8ff" d="M449.42,-355.73C464.3,-353.37 479.43,-350.98 494,-348.68"/>
<polygon fill="#63b8ff" stroke="#63b8ff" points="448.51,-352.33 439.18,-357.35 449.6,-359.24 448.51,-352.33"/>
</a>
</g>
</g>
<!-- Node16 -->
<g id="Node000016" class="node">
<title>Node16</title>
<g id="a_Node000016"><a xlink:href="structMeltPoolDG_1_1Flow_1_1EOSValueMixin.html" target="_top" xlink:title=" ">
<polygon fill="white" stroke="#666666" points="436,-908.5 236,-908.5 236,-856.5 436,-856.5 436,-908.5"/>
<text text-anchor="start" x="244" y="-896.5" font-family="Helvetica,sans-Serif" font-size="10.00">MeltPoolDG::Flow::EOSValue</text>
<text text-anchor="start" x="244" y="-885.5" font-family="Helvetica,sans-Serif" font-size="10.00">Mixin&lt; dim, Value::value</text>
<text text-anchor="start" x="244" y="-874.5" font-family="Helvetica,sans-Serif" font-size="10.00">_type, MultiSpeciesDofStateView</text>
<text text-anchor="middle" x="336" y="-863.5" font-family="Helvetica,sans-Serif" font-size="10.00">&lt; dim, n_species, number, Value &gt; &gt;</text>
</a>
</g>
</g>
<!-- Node16&#45;&gt;Node1 -->
<g id="edge221_Node000016_Node000001" class="edge">
<title>Node16&#45;&gt;Node1</title>
<g id="a_edge221_Node000016_Node000001"><a xlink:title=" ">
<path fill="none" stroke="#63b8ff" d="M434.35,-911.42C442.35,-913.81 450.31,-916.19 458,-918.5 478.98,-924.8 501.83,-931.71 522.53,-937.98"/>
<polygon fill="#63b8ff" stroke="#63b8ff" points="435.17,-908.01 424.58,-908.5 433.16,-914.72 435.17,-908.01"/>
</a>
</g>
</g>
<!-- Node13 -->
<g id="Node000013" class="node">
<title>Node13</title>
<g id="a_Node000013"><a xlink:href="structMeltPoolDG_1_1Flow_1_1EOSValueMixin.html" target="_top" xlink:title=" ">
<polygon fill="white" stroke="#666666" points="444.5,-237 227.5,-237 227.5,-174 444.5,-174 444.5,-237"/>
<text text-anchor="start" x="235.5" y="-225" font-family="Helvetica,sans-Serif" font-size="10.00">MeltPoolDG::Flow::EOSValue</text>
<text text-anchor="start" x="235.5" y="-214" font-family="Helvetica,sans-Serif" font-size="10.00">Mixin&lt; dim, Value::value</text>
<text text-anchor="start" x="235.5" y="-203" font-family="Helvetica,sans-Serif" font-size="10.00">_type, MultiSpeciesDofValueAndGradient</text>
<text text-anchor="start" x="235.5" y="-192" font-family="Helvetica,sans-Serif" font-size="10.00">StateView&lt; dim, n_species, number,</text>
<text text-anchor="middle" x="336" y="-181" font-family="Helvetica,sans-Serif" font-size="10.00"> Value, Gradient &gt; &gt;</text>
</a>
</g>
</g>
<!-- Node13&#45;&gt;Node7 -->
<g id="edge222_Node000013_Node000007" class="edge">
<title>Node13&#45;&gt;Node7</title>
<g id="a_edge222_Node000013_Node000007"><a xlink:title=" ">
<path fill="none" stroke="#63b8ff" d="M446.29,-241.06C450.27,-242.82 454.19,-244.64 458,-246.5 493.14,-263.68 530.06,-288.69 555.89,-307.49"/>
<polygon fill="#63b8ff" stroke="#63b8ff" points="447.45,-237.75 436.88,-237.05 444.7,-244.19 447.45,-237.75"/>
</a>
</g>
</g>
<!-- Node14 -->
<g id="Node000014" class="node">
<title>Node14</title>
<g id="a_Node000014"><a xlink:href="structMeltPoolDG_1_1SpeciesTransport_1_1GradientValueMixin.html" target="_top" xlink:title=" ">
<polygon fill="white" stroke="#666666" points="455.5,-155.5 216.5,-155.5 216.5,-81.5 455.5,-81.5 455.5,-155.5"/>
<text text-anchor="start" x="224.5" y="-143.5" font-family="Helvetica,sans-Serif" font-size="10.00">MeltPoolDG::SpeciesTransport</text>
<text text-anchor="start" x="224.5" y="-132.5" font-family="Helvetica,sans-Serif" font-size="10.00">::GradientValueMixin&lt; n_conserved</text>
<text text-anchor="start" x="224.5" y="-121.5" font-family="Helvetica,sans-Serif" font-size="10.00">_variables&lt; dim &gt;, n_species,</text>
<text text-anchor="start" x="224.5" y="-110.5" font-family="Helvetica,sans-Serif" font-size="10.00"> Value, Gradient, MultiSpeciesDofValueAnd</text>
<text text-anchor="start" x="224.5" y="-99.5" font-family="Helvetica,sans-Serif" font-size="10.00">GradientStateView&lt; dim, n_species, number,</text>
<text text-anchor="middle" x="336" y="-88.5" font-family="Helvetica,sans-Serif" font-size="10.00"> Value, Gradient &gt; &gt;</text>
</a>
</g>
</g>
<!-- Node14&#45;&gt;Node7 -->
<g id="edge223_Node000014_Node000007" class="edge">
<title>Node14&#45;&gt;Node7</title>
<g id="a_edge223_Node000014_Node000007"><a xlink:title=" ">
<path fill="none" stroke="#63b8ff" d="M453.12,-161.05C454.78,-162.18 456.41,-163.32 458,-164.5 511.48,-203.95 554.56,-270.55 575.74,-307.26"/>
<polygon fill="#63b8ff" stroke="#63b8ff" points="454.93,-158.05 444.61,-155.65 451.18,-163.96 454.93,-158.05"/>
</a>
</g>
</g>
</g>
</svg>
