<?xml version="1.0" encoding="UTF-8" standalone="no"?>
<!DOCTYPE svg PUBLIC "-//W3C//DTD SVG 1.1//EN"
 "http://www.w3.org/Graphics/SVG/1.1/DTD/svg11.dtd">
<!-- Generated by graphviz version 2.43.0 (0)
 -->
<!-- Title: Graphical Class Hierarchy Pages: 1 -->
<svg width="384pt" height="285pt"
 viewBox="0.00 0.00 384.00 285.00" xmlns="http://www.w3.org/2000/svg" xmlns:xlink="http://www.w3.org/1999/xlink">
<g id="graph0" class="graph" transform="scale(1 1) rotate(0) translate(4 281)">
<title>Graphical Class Hierarchy</title>
<!-- Node0 -->
<g id="Node000000" class="node">
<title>Node0</title>
<g id="a_Node000000"><a xlink:title=" ">
<polygon fill="#e0e0e0" stroke="#999999" points="141,-148 0,-148 0,-129 141,-129 141,-148"/>
<text text-anchor="middle" x="70.5" y="-136" font-family="Helvetica,sans-Serif" font-size="10.00">dealii::DataPostprocessor</text>
</a>
</g>
</g>
<!-- Node1 -->
<g id="Node000001" class="node">
<title>Node1</title>
<g id="a_Node000001"><a xlink:href="classMeltPoolDG_1_1CompressibleFlow_1_1ConservedVariablesPostProcessor.html" target="_top" xlink:title=" ">
<polygon fill="white" stroke="#666666" points="366,-277 187,-277 187,-236 366,-236 366,-277"/>
<text text-anchor="start" x="195" y="-265" font-family="Helvetica,sans-Serif" font-size="10.00">MeltPoolDG::Compressible</text>
<text text-anchor="start" x="195" y="-254" font-family="Helvetica,sans-Serif" font-size="10.00">Flow::ConservedVariablesPost</text>
<text text-anchor="middle" x="276.5" y="-243" font-family="Helvetica,sans-Serif" font-size="10.00">Processor&lt; dim, number, View &gt;</text>
</a>
</g>
</g>
<!-- Node0&#45;&gt;Node1 -->
<g id="edge7_Node000000_Node000001" class="edge">
<title>Node0&#45;&gt;Node1</title>
<g id="a_edge7_Node000000_Node000001"><a xlink:title=" ">
<path fill="none" stroke="#63b8ff" d="M87.2,-155.48C106.52,-175.43 141.2,-208.24 177,-227.5 182.73,-230.58 188.83,-233.38 195.07,-235.9"/>
<polygon fill="#63b8ff" stroke="#63b8ff" points="89.55,-152.87 80.12,-148.04 84.48,-157.7 89.55,-152.87"/>
</a>
</g>
</g>
<!-- Node2 -->
<g id="Node000002" class="node">
<title>Node2</title>
<g id="a_Node000002"><a xlink:href="classMeltPoolDG_1_1CompressibleFlow_1_1MaterialVariablesPostProcessor.html" target="_top" xlink:title=" ">
<polygon fill="white" stroke="#666666" points="376,-218 177,-218 177,-177 376,-177 376,-218"/>
<text text-anchor="start" x="185" y="-206" font-family="Helvetica,sans-Serif" font-size="10.00">MeltPoolDG::Compressible</text>
<text text-anchor="start" x="185" y="-195" font-family="Helvetica,sans-Serif" font-size="10.00">Flow::MaterialVariablesPostProcessor</text>
<text text-anchor="middle" x="276.5" y="-184" font-family="Helvetica,sans-Serif" font-size="10.00">&lt; dim, number, View &gt;</text>
</a>
</g>
</g>
<!-- Node0&#45;&gt;Node2 -->
<g id="edge8_Node000000_Node000002" class="edge">
<title>Node0&#45;&gt;Node2</title>
<g id="a_edge8_Node000000_Node000002"><a xlink:title=" ">
<path fill="none" stroke="#63b8ff" d="M114.64,-150.98C140.62,-158.49 174.35,-168.25 204.21,-176.88"/>
<polygon fill="#63b8ff" stroke="#63b8ff" points="115.31,-147.53 104.73,-148.11 113.36,-154.25 115.31,-147.53"/>
</a>
</g>
</g>
<!-- Node3 -->
<g id="Node000003" class="node">
<title>Node3</title>
<g id="a_Node000003"><a xlink:href="classMeltPoolDG_1_1CompressibleFlow_1_1PrimitiveVariablesPostProcessor.html" target="_top" xlink:title=" ">
<polygon fill="white" stroke="#666666" points="366,-159 187,-159 187,-118 366,-118 366,-159"/>
<text text-anchor="start" x="195" y="-147" font-family="Helvetica,sans-Serif" font-size="10.00">MeltPoolDG::Compressible</text>
<text text-anchor="start" x="195" y="-136" font-family="Helvetica,sans-Serif" font-size="10.00">Flow::PrimitiveVariablesPost</text>
<text text-anchor="middle" x="276.5" y="-125" font-family="Helvetica,sans-Serif" font-size="10.00">Processor&lt; dim, number, View &gt;</text>
</a>
</g>
</g>
<!-- Node0&#45;&gt;Node3 -->
<g id="edge9_Node000000_Node000003" class="edge">
<title>Node0&#45;&gt;Node3</title>
<g id="a_edge9_Node000000_Node000003"><a xlink:title=" ">
<path fill="none" stroke="#63b8ff" d="M151.24,-138.5C162.87,-138.5 174.9,-138.5 186.7,-138.5"/>
<polygon fill="#63b8ff" stroke="#63b8ff" points="151.13,-135 141.13,-138.5 151.13,-142 151.13,-135"/>
</a>
</g>
</g>
<!-- Node4 -->
<g id="Node000004" class="node">
<title>Node4</title>
<g id="a_Node000004"><a xlink:href="classMeltPoolDG_1_1SpeciesTransport_1_1MassFractionPostProcessor.html" target="_top" xlink:title=" ">
<polygon fill="white" stroke="#666666" points="369,-100 184,-100 184,-59 369,-59 369,-100"/>
<text text-anchor="start" x="192" y="-88" font-family="Helvetica,sans-Serif" font-size="10.00">MeltPoolDG::SpeciesTransport</text>
<text text-anchor="start" x="192" y="-77" font-family="Helvetica,sans-Serif" font-size="10.00">::MassFractionPostProcessor</text>
<text text-anchor="middle" x="276.5" y="-66" font-family="Helvetica,sans-Serif" font-size="10.00">&lt; dim, n_species, number, View &gt;</text>
</a>
</g>
</g>
<!-- Node0&#45;&gt;Node4 -->
<g id="edge10_Node000000_Node000004" class="edge">
<title>Node0&#45;&gt;Node4</title>
<g id="a_edge10_Node000000_Node000004"><a xlink:title=" ">
<path fill="none" stroke="#63b8ff" d="M114.64,-126.02C140.62,-118.51 174.35,-108.75 204.21,-100.12"/>
<polygon fill="#63b8ff" stroke="#63b8ff" points="113.36,-122.75 104.73,-128.89 115.31,-129.47 113.36,-122.75"/>
</a>
</g>
</g>
<!-- Node5 -->
<g id="Node000005" class="node">
<title>Node5</title>
<g id="a_Node000005"><a xlink:href="classMeltPoolDG_1_1SpeciesTransport_1_1PartialDensityPostProcessor.html" target="_top" xlink:title=" ">
<polygon fill="white" stroke="#666666" points="369,-41 184,-41 184,0 369,0 369,-41"/>
<text text-anchor="start" x="192" y="-29" font-family="Helvetica,sans-Serif" font-size="10.00">MeltPoolDG::SpeciesTransport</text>
<text text-anchor="start" x="192" y="-18" font-family="Helvetica,sans-Serif" font-size="10.00">::PartialDensityPostProcessor</text>
<text text-anchor="middle" x="276.5" y="-7" font-family="Helvetica,sans-Serif" font-size="10.00">&lt; dim, n_species, number, View &gt;</text>
</a>
</g>
</g>
<!-- Node0&#45;&gt;Node5 -->
<g id="edge11_Node000000_Node000005" class="edge">
<title>Node0&#45;&gt;Node5</title>
<g id="a_edge11_Node000000_Node000005"><a xlink:title=" ">
<path fill="none" stroke="#63b8ff" d="M87.57,-121.47C107.02,-101.78 141.59,-69.63 177,-50.5 183.45,-47.02 190.36,-43.88 197.41,-41.07"/>
<polygon fill="#63b8ff" stroke="#63b8ff" points="84.88,-119.22 80.43,-128.83 89.91,-124.09 84.88,-119.22"/>
</a>
</g>
</g>
</g>
</svg>
