<?xml version="1.0" encoding="UTF-8" standalone="no"?>
<!DOCTYPE svg PUBLIC "-//W3C//DTD SVG 1.1//EN"
 "http://www.w3.org/Graphics/SVG/1.1/DTD/svg11.dtd">
<!-- Generated by graphviz version 2.43.0 (0)
 -->
<!-- Title: Graphical Class Hierarchy Pages: 1 -->
<svg width="493pt" height="352pt"
 viewBox="0.00 0.00 493.00 351.50" xmlns="http://www.w3.org/2000/svg" xmlns:xlink="http://www.w3.org/1999/xlink">
<g id="graph0" class="graph" transform="scale(1 1) rotate(0) translate(4 347.5)">
<title>Graphical Class Hierarchy</title>
<!-- Node0 -->
<g id="Node000000" class="node">
<title>Node0</title>
<g id="a_Node000000"><a xlink:href="structMeltPoolDG_1_1CompressibleFlow_1_1DofGradientMixin.html" target="_top" xlink:title=" ">
<polygon fill="white" stroke="#666666" points="243,-343.5 0,-343.5 0,-280.5 243,-280.5 243,-343.5"/>
<text text-anchor="start" x="8" y="-331.5" font-family="Helvetica,sans-Serif" font-size="10.00">MeltPoolDG::Compressible</text>
<text text-anchor="start" x="8" y="-320.5" font-family="Helvetica,sans-Serif" font-size="10.00">Flow::DofGradientMixin</text>
<text text-anchor="start" x="8" y="-309.5" font-family="Helvetica,sans-Serif" font-size="10.00">&lt; dim, Gradient::value</text>
<text text-anchor="start" x="8" y="-298.5" font-family="Helvetica,sans-Serif" font-size="10.00">_type::value_type, DofValueAndGradient</text>
<text text-anchor="middle" x="121.5" y="-287.5" font-family="Helvetica,sans-Serif" font-size="10.00">StateView&lt; dim, number, Value, Gradient &gt; &gt;</text>
</a>
</g>
</g>
<!-- Node1 -->
<g id="Node000001" class="node">
<title>Node1</title>
<g id="a_Node000001"><a xlink:href="structMeltPoolDG_1_1CompressibleFlow_1_1DofValueAndGradientStateView.html" target="_top" xlink:title=" ">
<polygon fill="white" stroke="#666666" points="485,-181.5 279,-181.5 279,-140.5 485,-140.5 485,-181.5"/>
<text text-anchor="start" x="287" y="-169.5" font-family="Helvetica,sans-Serif" font-size="10.00">MeltPoolDG::Compressible</text>
<text text-anchor="start" x="287" y="-158.5" font-family="Helvetica,sans-Serif" font-size="10.00">Flow::DofValueAndGradientState</text>
<text text-anchor="middle" x="382" y="-147.5" font-family="Helvetica,sans-Serif" font-size="10.00">View&lt; dim, number, Value, Gradient &gt;</text>
</a>
</g>
</g>
<!-- Node0&#45;&gt;Node1 -->
<g id="edge92_Node000000_Node000001" class="edge">
<title>Node0&#45;&gt;Node1</title>
<g id="a_edge92_Node000000_Node000001"><a xlink:title=" ">
<path fill="none" stroke="#63b8ff" d="M235.08,-276.11C237.77,-274.78 240.41,-273.41 243,-272 288.9,-246.99 334.69,-206.25 360.28,-181.7"/>
<polygon fill="#63b8ff" stroke="#63b8ff" points="233.33,-273.07 225.78,-280.5 236.32,-279.4 233.33,-273.07"/>
</a>
</g>
</g>
<!-- Node2 -->
<g id="Node000002" class="node">
<title>Node2</title>
<g id="a_Node000002"><a xlink:href="structMeltPoolDG_1_1CompressibleFlow_1_1DofValueMixin.html" target="_top" xlink:title=" ">
<polygon fill="white" stroke="#666666" points="214,-262.5 29,-262.5 29,-199.5 214,-199.5 214,-262.5"/>
<text text-anchor="start" x="37" y="-250.5" font-family="Helvetica,sans-Serif" font-size="10.00">MeltPoolDG::Compressible</text>
<text text-anchor="start" x="37" y="-239.5" font-family="Helvetica,sans-Serif" font-size="10.00">Flow::DofValueMixin&lt; dim,</text>
<text text-anchor="start" x="37" y="-228.5" font-family="Helvetica,sans-Serif" font-size="10.00"> Value::value_type, DofValueAnd</text>
<text text-anchor="start" x="37" y="-217.5" font-family="Helvetica,sans-Serif" font-size="10.00">GradientStateView&lt; dim, number,</text>
<text text-anchor="middle" x="121.5" y="-206.5" font-family="Helvetica,sans-Serif" font-size="10.00"> Value, Gradient &gt; &gt;</text>
</a>
</g>
</g>
<!-- Node2&#45;&gt;Node1 -->
<g id="edge93_Node000002_Node000001" class="edge">
<title>Node2&#45;&gt;Node1</title>
<g id="a_edge93_Node000002_Node000001"><a xlink:title=" ">
<path fill="none" stroke="#63b8ff" d="M223.87,-203.55C250.88,-196.24 279.6,-188.46 304.99,-181.58"/>
<polygon fill="#63b8ff" stroke="#63b8ff" points="222.74,-200.23 214,-206.22 224.57,-206.99 222.74,-200.23"/>
</a>
</g>
</g>
<!-- Node3 -->
<g id="Node000003" class="node">
<title>Node3</title>
<g id="a_Node000003"><a xlink:href="structMeltPoolDG_1_1Flow_1_1EOSGradientMixin.html" target="_top" xlink:title=" ">
<polygon fill="white" stroke="#666666" points="230.5,-181.5 12.5,-181.5 12.5,-140.5 230.5,-140.5 230.5,-181.5"/>
<text text-anchor="start" x="20.5" y="-169.5" font-family="Helvetica,sans-Serif" font-size="10.00">MeltPoolDG::Flow::EOSGradient</text>
<text text-anchor="start" x="20.5" y="-158.5" font-family="Helvetica,sans-Serif" font-size="10.00">Mixin&lt; dim, DofValueAndGradientState</text>
<text text-anchor="middle" x="121.5" y="-147.5" font-family="Helvetica,sans-Serif" font-size="10.00">View&lt; dim, number, Value, Gradient &gt; &gt;</text>
</a>
</g>
</g>
<!-- Node3&#45;&gt;Node1 -->
<g id="edge94_Node000003_Node000001" class="edge">
<title>Node3&#45;&gt;Node1</title>
<g id="a_edge94_Node000003_Node000001"><a xlink:title=" ">
<path fill="none" stroke="#63b8ff" d="M240.75,-161C253.41,-161 266.22,-161 278.68,-161"/>
<polygon fill="#63b8ff" stroke="#63b8ff" points="240.63,-157.5 230.63,-161 240.63,-164.5 240.63,-157.5"/>
</a>
</g>
</g>
<!-- Node4 -->
<g id="Node000004" class="node">
<title>Node4</title>
<g id="a_Node000004"><a xlink:href="structMeltPoolDG_1_1Flow_1_1EOSValueMixin.html" target="_top" xlink:title=" ">
<polygon fill="white" stroke="#666666" points="223.5,-122 19.5,-122 19.5,-70 223.5,-70 223.5,-122"/>
<text text-anchor="start" x="27.5" y="-110" font-family="Helvetica,sans-Serif" font-size="10.00">MeltPoolDG::Flow::EOSValue</text>
<text text-anchor="start" x="27.5" y="-99" font-family="Helvetica,sans-Serif" font-size="10.00">Mixin&lt; dim, Value::value</text>
<text text-anchor="start" x="27.5" y="-88" font-family="Helvetica,sans-Serif" font-size="10.00">_type, DofValueAndGradientStateView</text>
<text text-anchor="middle" x="121.5" y="-77" font-family="Helvetica,sans-Serif" font-size="10.00">&lt; dim, number, Value, Gradient &gt; &gt;</text>
</a>
</g>
</g>
<!-- Node4&#45;&gt;Node1 -->
<g id="edge95_Node000004_Node000001" class="edge">
<title>Node4&#45;&gt;Node1</title>
<g id="a_edge95_Node000004_Node000001"><a xlink:title=" ">
<path fill="none" stroke="#63b8ff" d="M233.31,-123.86C255.42,-129.42 278.26,-135.17 299.18,-140.43"/>
<polygon fill="#63b8ff" stroke="#63b8ff" points="234.11,-120.45 223.55,-121.41 232.4,-127.24 234.11,-120.45"/>
</a>
</g>
</g>
<!-- Node5 -->
<g id="Node000005" class="node">
<title>Node5</title>
<g id="a_Node000005"><a xlink:href="structMeltPoolDG_1_1CompressibleFlow_1_1MaterialMixin.html" target="_top" xlink:title=" ">
<polygon fill="white" stroke="#666666" points="205.5,-52 37.5,-52 37.5,0 205.5,0 205.5,-52"/>
<text text-anchor="start" x="45.5" y="-40" font-family="Helvetica,sans-Serif" font-size="10.00">MeltPoolDG::Compressible</text>
<text text-anchor="start" x="45.5" y="-29" font-family="Helvetica,sans-Serif" font-size="10.00">Flow::MaterialMixin&lt; DofValue</text>
<text text-anchor="start" x="45.5" y="-18" font-family="Helvetica,sans-Serif" font-size="10.00">AndGradientStateView&lt; dim,</text>
<text text-anchor="middle" x="121.5" y="-7" font-family="Helvetica,sans-Serif" font-size="10.00"> number, Value, Gradient &gt; &gt;</text>
</a>
</g>
</g>
<!-- Node5&#45;&gt;Node1 -->
<g id="edge96_Node000005_Node000001" class="edge">
<title>Node5&#45;&gt;Node1</title>
<g id="a_edge96_Node000005_Node000001"><a xlink:title=" ">
<path fill="none" stroke="#63b8ff" d="M215.19,-49.36C224.76,-52.82 234.19,-56.69 243,-61 286.85,-82.45 331.51,-117.79 357.71,-140.21"/>
<polygon fill="#63b8ff" stroke="#63b8ff" points="216.19,-46 205.6,-46.03 213.9,-52.61 216.19,-46"/>
</a>
</g>
</g>
</g>
</svg>
