<?xml version="1.0" encoding="UTF-8" standalone="no"?>
<!DOCTYPE svg PUBLIC "-//W3C//DTD SVG 1.1//EN"
 "http://www.w3.org/Graphics/SVG/1.1/DTD/svg11.dtd">
<!-- Generated by graphviz version 2.43.0 (0)
 -->
<!-- Title: include/meltpooldg/utilities/iteration_monitor.hpp Pages: 1 -->
<svg width="1914pt" height="115pt"
 viewBox="0.00 0.00 1914.00 115.00" xmlns="http://www.w3.org/2000/svg" xmlns:xlink="http://www.w3.org/1999/xlink">
<g id="graph0" class="graph" transform="scale(1 1) rotate(0) translate(4 111)">
<title>include/meltpooldg/utilities/iteration_monitor.hpp</title>
<!-- Node1 -->
<g id="Node000001" class="node">
<title>Node1</title>
<g id="a_Node000001"><a xlink:title=" ">
<polygon fill="#999999" stroke="#666666" points="974.5,-107 864.5,-107 864.5,-66 974.5,-66 974.5,-107"/>
<text text-anchor="start" x="872.5" y="-95" font-family="Helvetica,sans-Serif" font-size="10.00">include/meltpooldg</text>
<text text-anchor="start" x="872.5" y="-84" font-family="Helvetica,sans-Serif" font-size="10.00">/utilities/iteration</text>
<text text-anchor="middle" x="919.5" y="-73" font-family="Helvetica,sans-Serif" font-size="10.00">_monitor.hpp</text>
</a>
</g>
</g>
<!-- Node2 -->
<g id="Node000002" class="node">
<title>Node2</title>
<g id="a_Node000002"><a xlink:href="advection__DG__operation_8cpp.html" target="_top" xlink:title=" ">
<polygon fill="white" stroke="#666666" points="147,-30 0,-30 0,0 147,0 147,-30"/>
<text text-anchor="start" x="8" y="-18" font-family="Helvetica,sans-Serif" font-size="10.00">source/level_set/advection</text>
<text text-anchor="middle" x="73.5" y="-7" font-family="Helvetica,sans-Serif" font-size="10.00">_DG_operation.cpp</text>
</a>
</g>
</g>
<!-- Node1&#45;&gt;Node2 -->
<g id="edge1_Node000001_Node000002" class="edge">
<title>Node1&#45;&gt;Node2</title>
<g id="a_edge1_Node000001_Node000002"><a xlink:title=" ">
<path fill="none" stroke="#63b8ff" d="M853.83,-82.87C721.37,-77.09 412.9,-61.25 155.5,-30 152.78,-29.67 150,-29.31 147.21,-28.93"/>
<polygon fill="#63b8ff" stroke="#63b8ff" points="854.05,-86.38 864.2,-83.32 854.36,-79.39 854.05,-86.38"/>
</a>
</g>
</g>
<!-- Node3 -->
<g id="Node000003" class="node">
<title>Node3</title>
<g id="a_Node000003"><a xlink:href="advection__diffusion__operation_8cpp.html" target="_top" xlink:title=" ">
<polygon fill="white" stroke="#666666" points="312,-30 165,-30 165,0 312,0 312,-30"/>
<text text-anchor="start" x="173" y="-18" font-family="Helvetica,sans-Serif" font-size="10.00">source/level_set/advection</text>
<text text-anchor="middle" x="238.5" y="-7" font-family="Helvetica,sans-Serif" font-size="10.00">_diffusion_operation.cpp</text>
</a>
</g>
</g>
<!-- Node1&#45;&gt;Node3 -->
<g id="edge2_Node000001_Node000003" class="edge">
<title>Node1&#45;&gt;Node3</title>
<g id="a_edge2_Node000001_Node000003"><a xlink:title=" ">
<path fill="none" stroke="#63b8ff" d="M853.81,-81.01C743.54,-73.12 514.3,-55.17 321.5,-30 318.46,-29.6 315.35,-29.18 312.22,-28.73"/>
<polygon fill="#63b8ff" stroke="#63b8ff" points="853.89,-84.53 864.11,-81.75 854.38,-77.55 853.89,-84.53"/>
</a>
</g>
</g>
<!-- Node4 -->
<g id="Node000004" class="node">
<title>Node4</title>
<g id="a_Node000004"><a xlink:href="curvature__operation_8cpp.html" target="_top" xlink:title=" ">
<polygon fill="white" stroke="#666666" points="476.5,-30 330.5,-30 330.5,0 476.5,0 476.5,-30"/>
<text text-anchor="start" x="338.5" y="-18" font-family="Helvetica,sans-Serif" font-size="10.00">source/level_set/curvature</text>
<text text-anchor="middle" x="403.5" y="-7" font-family="Helvetica,sans-Serif" font-size="10.00">_operation.cpp</text>
</a>
</g>
</g>
<!-- Node1&#45;&gt;Node4 -->
<g id="edge3_Node000001_Node000004" class="edge">
<title>Node1&#45;&gt;Node4</title>
<g id="a_edge3_Node000001_Node000004"><a xlink:title=" ">
<path fill="none" stroke="#63b8ff" d="M854.22,-78.02C769.19,-68.07 615.99,-49.47 485.5,-30 482.64,-29.57 479.73,-29.13 476.79,-28.67"/>
<polygon fill="#63b8ff" stroke="#63b8ff" points="853.91,-81.5 864.25,-79.19 854.72,-74.55 853.91,-81.5"/>
</a>
</g>
</g>
<!-- Node5 -->
<g id="Node000005" class="node">
<title>Node5</title>
<g id="a_Node000005"><a xlink:href="normal__vector__operation_8cpp.html" target="_top" xlink:title=" ">
<polygon fill="white" stroke="#666666" points="628.5,-30 494.5,-30 494.5,0 628.5,0 628.5,-30"/>
<text text-anchor="start" x="502.5" y="-18" font-family="Helvetica,sans-Serif" font-size="10.00">source/level_set/normal</text>
<text text-anchor="middle" x="561.5" y="-7" font-family="Helvetica,sans-Serif" font-size="10.00">_vector_operation.cpp</text>
</a>
</g>
</g>
<!-- Node1&#45;&gt;Node5 -->
<g id="edge4_Node000001_Node000005" class="edge">
<title>Node1&#45;&gt;Node5</title>
<g id="a_edge4_Node000001_Node000005"><a xlink:title=" ">
<path fill="none" stroke="#63b8ff" d="M854.38,-72.86C790.41,-60.44 693.27,-41.58 628.62,-29.03"/>
<polygon fill="#63b8ff" stroke="#63b8ff" points="853.86,-76.32 864.35,-74.79 855.2,-69.45 853.86,-76.32"/>
</a>
</g>
</g>
<!-- Node6 -->
<g id="Node000006" class="node">
<title>Node6</title>
<g id="a_Node000006"><a xlink:href="reinitialization__elliptic__operation_8cpp.html" target="_top" xlink:title=" ">
<polygon fill="white" stroke="#666666" points="816.5,-30 646.5,-30 646.5,0 816.5,0 816.5,-30"/>
<text text-anchor="start" x="654.5" y="-18" font-family="Helvetica,sans-Serif" font-size="10.00">source/level_set/reinitialization</text>
<text text-anchor="middle" x="731.5" y="-7" font-family="Helvetica,sans-Serif" font-size="10.00">_elliptic_operation.cpp</text>
</a>
</g>
</g>
<!-- Node1&#45;&gt;Node6 -->
<g id="edge5_Node000001_Node000006" class="edge">
<title>Node1&#45;&gt;Node6</title>
<g id="a_edge5_Node000001_Node000006"><a xlink:title=" ">
<path fill="none" stroke="#63b8ff" d="M856.99,-62.39C827.99,-51.67 794.48,-39.28 769.38,-30"/>
<polygon fill="#63b8ff" stroke="#63b8ff" points="856.04,-65.77 866.63,-65.96 858.47,-59.21 856.04,-65.77"/>
</a>
</g>
</g>
<!-- Node7 -->
<g id="Node000007" class="node">
<title>Node7</title>
<g id="a_Node000007"><a xlink:href="reinitialization__geometric__operation_8cpp.html" target="_top" xlink:title=" ">
<polygon fill="white" stroke="#666666" points="1004.5,-30 834.5,-30 834.5,0 1004.5,0 1004.5,-30"/>
<text text-anchor="start" x="842.5" y="-18" font-family="Helvetica,sans-Serif" font-size="10.00">source/level_set/reinitialization</text>
<text text-anchor="middle" x="919.5" y="-7" font-family="Helvetica,sans-Serif" font-size="10.00">_geometric_operation.cpp</text>
</a>
</g>
</g>
<!-- Node1&#45;&gt;Node7 -->
<g id="edge6_Node000001_Node000007" class="edge">
<title>Node1&#45;&gt;Node7</title>
<g id="a_edge6_Node000001_Node000007"><a xlink:title=" ">
<path fill="none" stroke="#63b8ff" d="M919.5,-55.66C919.5,-46.76 919.5,-37.42 919.5,-30.04"/>
<polygon fill="#63b8ff" stroke="#63b8ff" points="916,-55.77 919.5,-65.77 923,-55.77 916,-55.77"/>
</a>
</g>
</g>
<!-- Node8 -->
<g id="Node000008" class="node">
<title>Node8</title>
<g id="a_Node000008"><a xlink:href="reinitialization__hyperbolic__CG__operation_8cpp.html" target="_top" xlink:title=" ">
<polygon fill="white" stroke="#666666" points="1192.5,-30 1022.5,-30 1022.5,0 1192.5,0 1192.5,-30"/>
<text text-anchor="start" x="1030.5" y="-18" font-family="Helvetica,sans-Serif" font-size="10.00">source/level_set/reinitialization</text>
<text text-anchor="middle" x="1107.5" y="-7" font-family="Helvetica,sans-Serif" font-size="10.00">_hyperbolic_CG_operation.cpp</text>
</a>
</g>
</g>
<!-- Node1&#45;&gt;Node8 -->
<g id="edge7_Node000001_Node000008" class="edge">
<title>Node1&#45;&gt;Node8</title>
<g id="a_edge7_Node000001_Node000008"><a xlink:title=" ">
<path fill="none" stroke="#63b8ff" d="M982.01,-62.39C1011.01,-51.67 1044.52,-39.28 1069.62,-30"/>
<polygon fill="#63b8ff" stroke="#63b8ff" points="980.53,-59.21 972.37,-65.96 982.96,-65.77 980.53,-59.21"/>
</a>
</g>
</g>
<!-- Node9 -->
<g id="Node000009" class="node">
<title>Node9</title>
<g id="a_Node000009"><a xlink:href="reinitialization__hyperbolic__DG__operation_8cpp.html" target="_top" xlink:title=" ">
<polygon fill="white" stroke="#666666" points="1380.5,-30 1210.5,-30 1210.5,0 1380.5,0 1380.5,-30"/>
<text text-anchor="start" x="1218.5" y="-18" font-family="Helvetica,sans-Serif" font-size="10.00">source/level_set/reinitialization</text>
<text text-anchor="middle" x="1295.5" y="-7" font-family="Helvetica,sans-Serif" font-size="10.00">_hyperbolic_DG_operation.cpp</text>
</a>
</g>
</g>
<!-- Node1&#45;&gt;Node9 -->
<g id="edge8_Node000001_Node000009" class="edge">
<title>Node1&#45;&gt;Node9</title>
<g id="a_edge8_Node000001_Node000009"><a xlink:title=" ">
<path fill="none" stroke="#63b8ff" d="M984.75,-73.44C1050.08,-61.36 1150.54,-42.79 1219.44,-30.06"/>
<polygon fill="#63b8ff" stroke="#63b8ff" points="983.77,-70.06 974.58,-75.32 985.05,-76.94 983.77,-70.06"/>
</a>
</g>
</g>
<!-- Node10 -->
<g id="Node000010" class="node">
<title>Node10</title>
<g id="a_Node000010"><a xlink:href="newton__raphson__solver_8cpp.html" target="_top" xlink:title=" ">
<polygon fill="white" stroke="#666666" points="1554,-30 1399,-30 1399,0 1554,0 1554,-30"/>
<text text-anchor="start" x="1407" y="-18" font-family="Helvetica,sans-Serif" font-size="10.00">source/linear_algebra</text>
<text text-anchor="middle" x="1476.5" y="-7" font-family="Helvetica,sans-Serif" font-size="10.00">/newton_raphson_solver.cpp</text>
</a>
</g>
</g>
<!-- Node1&#45;&gt;Node10 -->
<g id="edge9_Node000001_Node000010" class="edge">
<title>Node1&#45;&gt;Node10</title>
<g id="a_edge9_Node000001_Node000010"><a xlink:title=" ">
<path fill="none" stroke="#63b8ff" d="M984.74,-78.67C1075.59,-68.96 1245.32,-50.1 1389.5,-30 1392.53,-29.58 1395.62,-29.14 1398.74,-28.68"/>
<polygon fill="#63b8ff" stroke="#63b8ff" points="984.16,-75.21 974.59,-79.75 984.9,-82.17 984.16,-75.21"/>
</a>
</g>
</g>
<!-- Node11 -->
<g id="Node000011" class="node">
<title>Node11</title>
<g id="a_Node000011"><a xlink:href="radiative__transport__operation_8cpp.html" target="_top" xlink:title=" ">
<polygon fill="white" stroke="#666666" points="1757,-30 1572,-30 1572,0 1757,0 1757,-30"/>
<text text-anchor="start" x="1580" y="-18" font-family="Helvetica,sans-Serif" font-size="10.00">source/radiative_transport</text>
<text text-anchor="middle" x="1664.5" y="-7" font-family="Helvetica,sans-Serif" font-size="10.00">/radiative_transport_operation.cpp</text>
</a>
</g>
</g>
<!-- Node1&#45;&gt;Node11 -->
<g id="edge10_Node000001_Node000011" class="edge">
<title>Node1&#45;&gt;Node11</title>
<g id="a_edge10_Node000001_Node000011"><a xlink:title=" ">
<path fill="none" stroke="#63b8ff" d="M984.9,-80.99C1101.4,-72.7 1352.41,-53.71 1563.5,-30 1566.23,-29.69 1568.99,-29.37 1571.79,-29.04"/>
<polygon fill="#63b8ff" stroke="#63b8ff" points="984.46,-77.51 974.73,-81.71 984.95,-84.49 984.46,-77.51"/>
</a>
</g>
</g>
<!-- Node12 -->
<g id="Node000012" class="node">
<title>Node12</title>
<g id="a_Node000012"><a xlink:href="profiling__monitor_8cpp.html" target="_top" xlink:title=" ">
<polygon fill="white" stroke="#666666" points="1906,-30 1775,-30 1775,0 1906,0 1906,-30"/>
<text text-anchor="start" x="1783" y="-18" font-family="Helvetica,sans-Serif" font-size="10.00">source/utilities/profiling</text>
<text text-anchor="middle" x="1840.5" y="-7" font-family="Helvetica,sans-Serif" font-size="10.00">_monitor.cpp</text>
</a>
</g>
</g>
<!-- Node1&#45;&gt;Node12 -->
<g id="edge11_Node000001_Node000012" class="edge">
<title>Node1&#45;&gt;Node12</title>
<g id="a_edge11_Node000001_Node000012"><a xlink:title=" ">
<path fill="none" stroke="#63b8ff" d="M985.03,-83.92C1127.65,-79.88 1476.62,-66.78 1766.5,-30 1769.22,-29.65 1772,-29.27 1774.8,-28.86"/>
<polygon fill="#63b8ff" stroke="#63b8ff" points="984.62,-80.43 974.72,-84.2 984.81,-87.42 984.62,-80.43"/>
</a>
</g>
</g>
</g>
</svg>
