<?xml version="1.0" encoding="UTF-8" standalone="no"?>
<!DOCTYPE svg PUBLIC "-//W3C//DTD SVG 1.1//EN"
 "http://www.w3.org/Graphics/SVG/1.1/DTD/svg11.dtd">
<!-- Generated by graphviz version 2.43.0 (0)
 -->
<!-- Title: source/utilities/journal.cpp Pages: 1 -->
<svg width="306pt" height="225pt"
 viewBox="0.00 0.00 306.00 225.00" xmlns="http://www.w3.org/2000/svg" xmlns:xlink="http://www.w3.org/1999/xlink">
<g id="graph0" class="graph" transform="scale(1 1) rotate(0) translate(4 221)">
<title>source/utilities/journal.cpp</title>
<!-- Node1 -->
<g id="Node000001" class="node">
<title>Node1</title>
<g id="a_Node000001"><a xlink:title=" ">
<polygon fill="#999999" stroke="#666666" points="203,-217 57,-217 57,-198 203,-198 203,-217"/>
<text text-anchor="middle" x="130" y="-205" font-family="Helvetica,sans-Serif" font-size="10.00">source/utilities/journal.cpp</text>
</a>
</g>
</g>
<!-- Node2 -->
<g id="Node000002" class="node">
<title>Node2</title>
<g id="a_Node000002"><a xlink:href="conditional__ostream_8hpp.html" target="_top" xlink:title=" ">
<polygon fill="white" stroke="#666666" points="140,-96 0,-96 0,-66 140,-66 140,-96"/>
<text text-anchor="start" x="8" y="-84" font-family="Helvetica,sans-Serif" font-size="10.00">meltpooldg/utilities</text>
<text text-anchor="middle" x="70" y="-73" font-family="Helvetica,sans-Serif" font-size="10.00">/conditional_ostream.hpp</text>
</a>
</g>
</g>
<!-- Node1&#45;&gt;Node2 -->
<g id="edge1_Node000001_Node000002" class="edge">
<title>Node1&#45;&gt;Node2</title>
<g id="a_edge1_Node000001_Node000002"><a xlink:title=" ">
<path fill="none" stroke="#63b8ff" d="M125.88,-197.94C116.78,-179.07 94.74,-133.34 81.22,-105.28"/>
<polygon fill="#63b8ff" stroke="#63b8ff" points="84.32,-103.65 76.82,-96.16 78.01,-106.69 84.32,-103.65"/>
</a>
</g>
</g>
<!-- Node4 -->
<g id="Node000004" class="node">
<title>Node4</title>
<g id="a_Node000004"><a xlink:href="journal_8hpp.html" target="_top" xlink:title=" ">
<polygon fill="white" stroke="#666666" points="237,-162 125,-162 125,-132 237,-132 237,-162"/>
<text text-anchor="start" x="133" y="-150" font-family="Helvetica,sans-Serif" font-size="10.00">meltpooldg/utilities</text>
<text text-anchor="middle" x="181" y="-139" font-family="Helvetica,sans-Serif" font-size="10.00">/journal.hpp</text>
</a>
</g>
</g>
<!-- Node1&#45;&gt;Node4 -->
<g id="edge3_Node000001_Node000004" class="edge">
<title>Node1&#45;&gt;Node4</title>
<g id="a_edge3_Node000001_Node000004"><a xlink:title=" ">
<path fill="none" stroke="#63b8ff" d="M137.53,-197.87C143.93,-190.52 153.42,-179.63 161.9,-169.91"/>
<polygon fill="#63b8ff" stroke="#63b8ff" points="164.76,-171.95 168.69,-162.11 159.49,-167.35 164.76,-171.95"/>
</a>
</g>
</g>
<!-- Node3 -->
<g id="Node000003" class="node">
<title>Node3</title>
<g id="a_Node000003"><a xlink:title=" ">
<polygon fill="#e0e0e0" stroke="#999999" points="135,-30 5,-30 5,0 135,0 135,-30"/>
<text text-anchor="start" x="13" y="-18" font-family="Helvetica,sans-Serif" font-size="10.00">deal.II/base/conditional</text>
<text text-anchor="middle" x="70" y="-7" font-family="Helvetica,sans-Serif" font-size="10.00">_ostream.h</text>
</a>
</g>
</g>
<!-- Node2&#45;&gt;Node3 -->
<g id="edge2_Node000002_Node000003" class="edge">
<title>Node2&#45;&gt;Node3</title>
<g id="a_edge2_Node000002_Node000003"><a xlink:title=" ">
<path fill="none" stroke="#63b8ff" d="M70,-65.8C70,-58.34 70,-48.99 70,-40.41"/>
<polygon fill="#63b8ff" stroke="#63b8ff" points="73.5,-40.16 70,-30.16 66.5,-40.16 73.5,-40.16"/>
</a>
</g>
</g>
<!-- Node4&#45;&gt;Node2 -->
<g id="edge4_Node000004_Node000002" class="edge">
<title>Node4&#45;&gt;Node2</title>
<g id="a_edge4_Node000004_Node000002"><a xlink:title=" ">
<path fill="none" stroke="#63b8ff" d="M156.64,-131.95C141.03,-122.95 120.55,-111.14 103.42,-101.27"/>
<polygon fill="#63b8ff" stroke="#63b8ff" points="104.71,-97.98 94.3,-96.01 101.22,-104.04 104.71,-97.98"/>
</a>
</g>
</g>
<!-- Node5 -->
<g id="Node000005" class="node">
<title>Node5</title>
<g id="a_Node000005"><a xlink:title=" ">
<polygon fill="#e0e0e0" stroke="#999999" points="223.5,-90.5 158.5,-90.5 158.5,-71.5 223.5,-71.5 223.5,-90.5"/>
<text text-anchor="middle" x="191" y="-78.5" font-family="Helvetica,sans-Serif" font-size="10.00">functional</text>
</a>
</g>
</g>
<!-- Node4&#45;&gt;Node5 -->
<g id="edge5_Node000004_Node000005" class="edge">
<title>Node4&#45;&gt;Node5</title>
<g id="a_edge5_Node000004_Node000005"><a xlink:title=" ">
<path fill="none" stroke="#63b8ff" d="M183.22,-131.8C184.64,-122.7 186.5,-110.79 188.05,-100.9"/>
<polygon fill="#63b8ff" stroke="#63b8ff" points="191.53,-101.26 189.62,-90.84 184.62,-100.18 191.53,-101.26"/>
</a>
</g>
</g>
<!-- Node6 -->
<g id="Node000006" class="node">
<title>Node6</title>
<g id="a_Node000006"><a xlink:title=" ">
<polygon fill="#e0e0e0" stroke="#999999" points="298,-90.5 242,-90.5 242,-71.5 298,-71.5 298,-90.5"/>
<text text-anchor="middle" x="270" y="-78.5" font-family="Helvetica,sans-Serif" font-size="10.00">iomanip</text>
</a>
</g>
</g>
<!-- Node4&#45;&gt;Node6 -->
<g id="edge6_Node000004_Node000006" class="edge">
<title>Node4&#45;&gt;Node6</title>
<g id="a_edge6_Node000004_Node000006"><a xlink:title=" ">
<path fill="none" stroke="#63b8ff" d="M200.75,-131.8C215.26,-121.37 234.9,-107.24 249.56,-96.69"/>
<polygon fill="#63b8ff" stroke="#63b8ff" points="251.88,-99.34 257.96,-90.66 247.8,-93.66 251.88,-99.34"/>
</a>
</g>
</g>
</g>
</svg>
