<?xml version="1.0" encoding="UTF-8" standalone="no"?>
<!DOCTYPE svg PUBLIC "-//W3C//DTD SVG 1.1//EN"
 "http://www.w3.org/Graphics/SVG/1.1/DTD/svg11.dtd">
<!-- Generated by graphviz version 2.43.0 (0)
 -->
<!-- Title: include/meltpooldg/compressible_flow/kernels_multi_species.hpp Pages: 1 -->
<svg width="320pt" height="269pt"
 viewBox="0.00 0.00 320.00 269.00" xmlns="http://www.w3.org/2000/svg" xmlns:xlink="http://www.w3.org/1999/xlink">

<svg id="main" version="1.1" xmlns="http://www.w3.org/2000/svg" xmlns:xlink="http://www.w3.org/1999/xlink" xml:space="preserve" onload="init(evt)">
<style type="text/css"><![CDATA[
.node, .edge {opacity: 0.7;}
.node.selected, .edge.selected {opacity: 1;}
.edge:hover path { stroke: red; }
.edge:hover polygon { stroke: red; fill: red; }
]]></style>
<script type="application/ecmascript" xlink:href="svg.min.js"/>
<svg id="graph" class="graph">
<g id="graph0" class="graph" transform="scale(1 1) rotate(0) translate(4 265)">
<title>include/meltpooldg/compressible_flow/kernels_multi_species.hpp</title>
<!-- Node1 -->
<g id="Node000001" class="node">
<title>Node1</title>
<g id="a_Node000001"><a xlink:title=" ">
<polygon fill="#999999" stroke="#666666" points="221,-261 72,-261 72,-220 221,-220 221,-261"/>
<text text-anchor="start" x="80" y="-249" font-family="Helvetica,sans-Serif" font-size="10.00">include/meltpooldg</text>
<text text-anchor="start" x="80" y="-238" font-family="Helvetica,sans-Serif" font-size="10.00">/compressible_flow/kernels</text>
<text text-anchor="middle" x="146.5" y="-227" font-family="Helvetica,sans-Serif" font-size="10.00">_multi_species.hpp</text>
</a>
</g>
</g>
<!-- Node2 -->
<g id="Node000002" class="node">
<title>Node2</title>
<g id="a_Node000002"><a xlink:href="kernels__n__species_8hpp.html" target="_top" xlink:title=" ">
<polygon fill="white" stroke="#666666" points="221,-184 72,-184 72,-143 221,-143 221,-184"/>
<text text-anchor="start" x="80" y="-172" font-family="Helvetica,sans-Serif" font-size="10.00">include/meltpooldg</text>
<text text-anchor="start" x="80" y="-161" font-family="Helvetica,sans-Serif" font-size="10.00">/compressible_flow/kernels</text>
<text text-anchor="middle" x="146.5" y="-150" font-family="Helvetica,sans-Serif" font-size="10.00">_n_species.hpp</text>
</a>
</g>
</g>
<!-- Node1&#45;&gt;Node2 -->
<g id="edge1_Node000001_Node000002" class="edge">
<title>Node1&#45;&gt;Node2</title>
<g id="a_edge1_Node000001_Node000002"><a xlink:title=" ">
<path fill="none" stroke="#63b8ff" d="M146.5,-209.69C146.5,-201.08 146.5,-191.9 146.5,-184.07"/>
<polygon fill="#63b8ff" stroke="#63b8ff" points="143,-209.79 146.5,-219.79 150,-209.79 143,-209.79"/>
</a>
</g>
</g>
<!-- Node3 -->
<g id="Node000003" class="node">
<title>Node3</title>
<g id="a_Node000003"><a xlink:href="dg__operator__explicit_8hpp.html" target="_top" xlink:title=" ">
<polygon fill="white" stroke="#666666" points="209,-107 84,-107 84,-66 209,-66 209,-107"/>
<text text-anchor="start" x="92" y="-95" font-family="Helvetica,sans-Serif" font-size="10.00">include/meltpooldg</text>
<text text-anchor="start" x="92" y="-84" font-family="Helvetica,sans-Serif" font-size="10.00">/compressible_flow/dg</text>
<text text-anchor="middle" x="146.5" y="-73" font-family="Helvetica,sans-Serif" font-size="10.00">_operator_explicit.hpp</text>
</a>
</g>
</g>
<!-- Node2&#45;&gt;Node3 -->
<g id="edge2_Node000002_Node000003" class="edge">
<title>Node2&#45;&gt;Node3</title>
<g id="a_edge2_Node000002_Node000003"><a xlink:title=" ">
<path fill="none" stroke="#63b8ff" d="M146.5,-132.69C146.5,-124.08 146.5,-114.9 146.5,-107.07"/>
<polygon fill="#63b8ff" stroke="#63b8ff" points="143,-132.79 146.5,-142.79 150,-132.79 143,-132.79"/>
</a>
</g>
</g>
<!-- Node4 -->
<g id="Node000004" class="node">
<title>Node4</title>
<g id="a_Node000004"><a xlink:href="dg__operation_8cpp.html" target="_top" xlink:title=" ">
<polygon fill="white" stroke="#666666" points="129,-30 0,-30 0,0 129,0 129,-30"/>
<text text-anchor="start" x="8" y="-18" font-family="Helvetica,sans-Serif" font-size="10.00">source/compressible</text>
<text text-anchor="middle" x="64.5" y="-7" font-family="Helvetica,sans-Serif" font-size="10.00">_flow/dg_operation.cpp</text>
</a>
</g>
</g>
<!-- Node3&#45;&gt;Node4 -->
<g id="edge3_Node000003_Node000004" class="edge">
<title>Node3&#45;&gt;Node4</title>
<g id="a_edge3_Node000003_Node000004"><a xlink:title=" ">
<path fill="none" stroke="#63b8ff" d="M115.38,-59.12C103.71,-49.23 90.91,-38.38 81.06,-30.04"/>
<polygon fill="#63b8ff" stroke="#63b8ff" points="113.33,-61.97 123.22,-65.77 117.86,-56.63 113.33,-61.97"/>
</a>
</g>
</g>
<!-- Node5 -->
<g id="Node000005" class="node">
<title>Node5</title>
<g id="a_Node000005"><a xlink:href="dg__operator__explicit_8cpp.html" target="_top" xlink:title=" ">
<polygon fill="white" stroke="#666666" points="312,-30 147,-30 147,0 312,0 312,-30"/>
<text text-anchor="start" x="155" y="-18" font-family="Helvetica,sans-Serif" font-size="10.00">source/compressible</text>
<text text-anchor="middle" x="229.5" y="-7" font-family="Helvetica,sans-Serif" font-size="10.00">_flow/dg_operator_explicit.cpp</text>
</a>
</g>
</g>
<!-- Node3&#45;&gt;Node5 -->
<g id="edge4_Node000003_Node000005" class="edge">
<title>Node3&#45;&gt;Node5</title>
<g id="a_edge4_Node000003_Node000005"><a xlink:title=" ">
<path fill="none" stroke="#63b8ff" d="M178,-59.12C189.81,-49.23 202.77,-38.38 212.73,-30.04"/>
<polygon fill="#63b8ff" stroke="#63b8ff" points="175.48,-56.67 170.06,-65.77 179.98,-62.03 175.48,-56.67"/>
</a>
</g>
</g>
</g>
</svg>
</svg>

<style type='text/css'>
<![CDATA[
[data-mouse-over-selected='false'] { opacity: 0.7; }
[data-mouse-over-selected='true']  { opacity: 1.0; }
]]>
</style>
<script type="application/ecmascript"><![CDATA[
document.addEventListener('DOMContentLoaded', (event) => {
  highlightEdges();
  highlightAdjacentNodes();
});
]]></script>
</svg>
