<?xml version="1.0" encoding="UTF-8" standalone="no"?>
<!DOCTYPE svg PUBLIC "-//W3C//DTD SVG 1.1//EN"
 "http://www.w3.org/Graphics/SVG/1.1/DTD/svg11.dtd">
<!-- Generated by graphviz version 2.43.0 (0)
 -->
<!-- Title: include/meltpooldg/heat/laser_data.hpp Pages: 1 -->
<svg width="817pt" height="313pt"
 viewBox="0.00 0.00 816.84 313.00" xmlns="http://www.w3.org/2000/svg" xmlns:xlink="http://www.w3.org/1999/xlink">
<g id="graph0" class="graph" transform="scale(1 1) rotate(0) translate(4 309)">
<title>include/meltpooldg/heat/laser_data.hpp</title>
<!-- Node1 -->
<g id="Node000001" class="node">
<title>Node1</title>
<g id="a_Node000001"><a xlink:title=" ">
<polygon fill="#999999" stroke="#666666" points="538.34,-305 422.34,-305 422.34,-275 538.34,-275 538.34,-305"/>
<text text-anchor="start" x="430.34" y="-293" font-family="Helvetica,sans-Serif" font-size="10.00">include/meltpooldg</text>
<text text-anchor="middle" x="480.34" y="-282" font-family="Helvetica,sans-Serif" font-size="10.00">/heat/laser_data.hpp</text>
</a>
</g>
</g>
<!-- Node2 -->
<g id="Node000002" class="node">
<title>Node2</title>
<g id="a_Node000002"><a xlink:title=" ">
<polygon fill="#e0e0e0" stroke="#999999" points="176.84,-30 49.84,-30 49.84,0 176.84,0 176.84,-30"/>
<text text-anchor="start" x="57.84" y="-18" font-family="Helvetica,sans-Serif" font-size="10.00">deal.II/base/parameter</text>
<text text-anchor="middle" x="113.34" y="-7" font-family="Helvetica,sans-Serif" font-size="10.00">_handler.h</text>
</a>
</g>
</g>
<!-- Node1&#45;&gt;Node2 -->
<g id="edge1_Node000001_Node000002" class="edge">
<title>Node1&#45;&gt;Node2</title>
<g id="a_edge1_Node000001_Node000002"><a xlink:title=" ">
<path fill="none" stroke="#63b8ff" d="M422.26,-286.97C304.16,-282.24 44.88,-268.57 18.34,-239 -36.55,-177.85 47.57,-80.23 90.57,-37.37"/>
<polygon fill="#63b8ff" stroke="#63b8ff" points="93.14,-39.75 97.83,-30.26 88.24,-34.75 93.14,-39.75"/>
</a>
</g>
</g>
<!-- Node3 -->
<g id="Node000003" class="node">
<title>Node3</title>
<g id="a_Node000003"><a xlink:title=" ">
<polygon fill="#e0e0e0" stroke="#999999" points="137.34,-228 27.34,-228 27.34,-209 137.34,-209 137.34,-228"/>
<text text-anchor="middle" x="82.34" y="-216" font-family="Helvetica,sans-Serif" font-size="10.00">deal.II/base/point.h</text>
</a>
</g>
</g>
<!-- Node1&#45;&gt;Node3 -->
<g id="edge2_Node000001_Node000003" class="edge">
<title>Node1&#45;&gt;Node3</title>
<g id="a_edge2_Node000001_Node000003"><a xlink:title=" ">
<path fill="none" stroke="#63b8ff" d="M422.23,-282.93C355.22,-275.32 241.99,-260.61 146.34,-239 136.77,-236.84 126.55,-233.98 117.15,-231.12"/>
<polygon fill="#63b8ff" stroke="#63b8ff" points="117.93,-227.7 107.34,-228.05 115.84,-234.38 117.93,-227.7"/>
</a>
</g>
</g>
<!-- Node4 -->
<g id="Node000004" class="node">
<title>Node4</title>
<g id="a_Node000004"><a xlink:title=" ">
<polygon fill="#e0e0e0" stroke="#999999" points="270.84,-228 155.84,-228 155.84,-209 270.84,-209 270.84,-228"/>
<text text-anchor="middle" x="213.34" y="-216" font-family="Helvetica,sans-Serif" font-size="10.00">deal.II/base/tensor.h</text>
</a>
</g>
</g>
<!-- Node1&#45;&gt;Node4 -->
<g id="edge3_Node000001_Node000004" class="edge">
<title>Node1&#45;&gt;Node4</title>
<g id="a_edge3_Node000001_Node000004"><a xlink:title=" ">
<path fill="none" stroke="#63b8ff" d="M421.99,-275.04C382.02,-265.32 327.84,-251.85 280.34,-239 271.06,-236.49 261.1,-233.67 251.77,-230.96"/>
<polygon fill="#63b8ff" stroke="#63b8ff" points="252.54,-227.54 241.96,-228.09 250.58,-234.26 252.54,-227.54"/>
</a>
</g>
</g>
<!-- Node5 -->
<g id="Node000005" class="node">
<title>Node5</title>
<g id="a_Node000005"><a xlink:title=" ">
<polygon fill="#e0e0e0" stroke="#999999" points="401.34,-228 289.34,-228 289.34,-209 401.34,-209 401.34,-228"/>
<text text-anchor="middle" x="345.34" y="-216" font-family="Helvetica,sans-Serif" font-size="10.00">deal.II/base/types.h</text>
</a>
</g>
</g>
<!-- Node1&#45;&gt;Node5 -->
<g id="edge4_Node000001_Node000005" class="edge">
<title>Node1&#45;&gt;Node5</title>
<g id="a_edge4_Node000001_Node000005"><a xlink:title=" ">
<path fill="none" stroke="#63b8ff" d="M453.02,-274.94C429.05,-262.59 394.45,-244.78 370.99,-232.7"/>
<polygon fill="#63b8ff" stroke="#63b8ff" points="372.47,-229.53 361.98,-228.07 369.27,-235.76 372.47,-229.53"/>
</a>
</g>
</g>
<!-- Node6 -->
<g id="Node000006" class="node">
<title>Node6</title>
<g id="a_Node000006"><a xlink:href="core_2material__data_8hpp.html" target="_top" xlink:title=" ">
<polygon fill="white" stroke="#666666" points="501.34,-162 361.34,-162 361.34,-132 501.34,-132 501.34,-162"/>
<text text-anchor="start" x="369.34" y="-150" font-family="Helvetica,sans-Serif" font-size="10.00">meltpooldg/core/material</text>
<text text-anchor="middle" x="431.34" y="-139" font-family="Helvetica,sans-Serif" font-size="10.00">_data.hpp</text>
</a>
</g>
</g>
<!-- Node1&#45;&gt;Node6 -->
<g id="edge5_Node000001_Node000006" class="edge">
<title>Node1&#45;&gt;Node6</title>
<g id="a_edge5_Node000001_Node000006"><a xlink:title=" ">
<path fill="none" stroke="#63b8ff" d="M469.24,-274.93C462.21,-265.33 453.5,-252.03 448.34,-239 439.73,-217.26 435.42,-190.85 433.3,-172.09"/>
<polygon fill="#63b8ff" stroke="#63b8ff" points="436.77,-171.63 432.28,-162.03 429.8,-172.33 436.77,-171.63"/>
</a>
</g>
</g>
<!-- Node7 -->
<g id="Node000007" class="node">
<title>Node7</title>
<g id="a_Node000007"><a xlink:href="enum_8hpp.html" target="_top" xlink:title=" ">
<polygon fill="white" stroke="#666666" points="587.34,-96 475.34,-96 475.34,-66 587.34,-66 587.34,-96"/>
<text text-anchor="start" x="483.34" y="-84" font-family="Helvetica,sans-Serif" font-size="10.00">meltpooldg/utilities</text>
<text text-anchor="middle" x="531.34" y="-73" font-family="Helvetica,sans-Serif" font-size="10.00">/enum.hpp</text>
</a>
</g>
</g>
<!-- Node1&#45;&gt;Node7 -->
<g id="edge20_Node000001_Node000007" class="edge">
<title>Node1&#45;&gt;Node7</title>
<g id="a_edge20_Node000001_Node000007"><a xlink:title=" ">
<path fill="none" stroke="#63b8ff" d="M538.61,-282.74C566.7,-276.45 597.99,-263.92 615.34,-239 647.22,-193.2 592.36,-133.92 557.25,-102.95"/>
<polygon fill="#63b8ff" stroke="#63b8ff" points="559.1,-99.93 549.24,-96.07 554.54,-105.24 559.1,-99.93"/>
</a>
</g>
</g>
<!-- Node12 -->
<g id="Node000012" class="node">
<title>Node12</title>
<g id="a_Node000012"><a xlink:title=" ">
<polygon fill="#e0e0e0" stroke="#999999" points="730.34,-24.5 686.34,-24.5 686.34,-5.5 730.34,-5.5 730.34,-24.5"/>
<text text-anchor="middle" x="708.34" y="-12.5" font-family="Helvetica,sans-Serif" font-size="10.00">string</text>
</a>
</g>
</g>
<!-- Node1&#45;&gt;Node12 -->
<g id="edge22_Node000001_Node000012" class="edge">
<title>Node1&#45;&gt;Node12</title>
<g id="a_edge22_Node000001_Node000012"><a xlink:title=" ">
<path fill="none" stroke="#63b8ff" d="M538.54,-282.74C570.28,-276.49 608.13,-263.99 633.34,-239 691.53,-181.31 704.57,-77.1 707.5,-34.7"/>
<polygon fill="#63b8ff" stroke="#63b8ff" points="710.99,-34.87 708.07,-24.68 704,-34.46 710.99,-34.87"/>
</a>
</g>
</g>
<!-- Node14 -->
<g id="Node000014" class="node">
<title>Node14</title>
<g id="a_Node000014"><a xlink:href="delta__approximation__phase__weighted__data_8hpp.html" target="_top" xlink:title=" ">
<polygon fill="white" stroke="#666666" points="605.84,-239 456.84,-239 456.84,-198 605.84,-198 605.84,-239"/>
<text text-anchor="start" x="464.84" y="-227" font-family="Helvetica,sans-Serif" font-size="10.00">meltpooldg/level_set</text>
<text text-anchor="start" x="464.84" y="-216" font-family="Helvetica,sans-Serif" font-size="10.00">/delta_approximation</text>
<text text-anchor="middle" x="531.34" y="-205" font-family="Helvetica,sans-Serif" font-size="10.00">_phase_weighted_data.hpp</text>
</a>
</g>
</g>
<!-- Node1&#45;&gt;Node14 -->
<g id="edge16_Node000001_Node000014" class="edge">
<title>Node1&#45;&gt;Node14</title>
<g id="a_edge16_Node000001_Node000014"><a xlink:title=" ">
<path fill="none" stroke="#63b8ff" d="M490.66,-274.94C496.51,-266.96 504.04,-256.7 511.03,-247.17"/>
<polygon fill="#63b8ff" stroke="#63b8ff" points="513.88,-249.21 516.97,-239.07 508.24,-245.07 513.88,-249.21"/>
</a>
</g>
</g>
<!-- Node15 -->
<g id="Node000015" class="node">
<title>Node15</title>
<g id="a_Node000015"><a xlink:title=" ">
<polygon fill="#e0e0e0" stroke="#999999" points="743.34,-228 699.34,-228 699.34,-209 743.34,-209 743.34,-228"/>
<text text-anchor="middle" x="721.34" y="-216" font-family="Helvetica,sans-Serif" font-size="10.00">limits</text>
</a>
</g>
</g>
<!-- Node1&#45;&gt;Node15 -->
<g id="edge21_Node000001_Node000015" class="edge">
<title>Node1&#45;&gt;Node15</title>
<g id="a_edge21_Node000001_Node000015"><a xlink:title=" ">
<path fill="none" stroke="#63b8ff" d="M538.54,-278.95C580.25,-270.76 637.31,-257.51 685.34,-239 689.71,-237.32 694.22,-235.21 698.5,-233"/>
<polygon fill="#63b8ff" stroke="#63b8ff" points="700.28,-236.02 707.38,-228.15 696.92,-229.87 700.28,-236.02"/>
</a>
</g>
</g>
<!-- Node16 -->
<g id="Node000016" class="node">
<title>Node16</title>
<g id="a_Node000016"><a xlink:title=" ">
<polygon fill="#e0e0e0" stroke="#999999" points="808.84,-228 761.84,-228 761.84,-209 808.84,-209 808.84,-228"/>
<text text-anchor="middle" x="785.34" y="-216" font-family="Helvetica,sans-Serif" font-size="10.00">vector</text>
</a>
</g>
</g>
<!-- Node1&#45;&gt;Node16 -->
<g id="edge23_Node000001_Node000016" class="edge">
<title>Node1&#45;&gt;Node16</title>
<g id="a_edge23_Node000001_Node000016"><a xlink:title=" ">
<path fill="none" stroke="#63b8ff" d="M538.43,-284.28C594.6,-278.34 681.39,-265.52 752.34,-239 756.29,-237.52 760.31,-235.58 764.12,-233.49"/>
<polygon fill="#63b8ff" stroke="#63b8ff" points="766.22,-236.32 773.01,-228.19 762.63,-230.31 766.22,-236.32"/>
</a>
</g>
</g>
<!-- Node6&#45;&gt;Node2 -->
<g id="edge6_Node000006_Node000002" class="edge">
<title>Node6&#45;&gt;Node2</title>
<g id="a_edge6_Node000006_Node000002"><a xlink:title=" ">
<path fill="none" stroke="#63b8ff" d="M397,-131.96C338.96,-108.23 221.5,-60.22 157.44,-34.03"/>
<polygon fill="#63b8ff" stroke="#63b8ff" points="158.59,-30.72 148.01,-30.17 155.94,-37.2 158.59,-30.72"/>
</a>
</g>
</g>
<!-- Node6&#45;&gt;Node7 -->
<g id="edge7_Node000006_Node000007" class="edge">
<title>Node6&#45;&gt;Node7</title>
<g id="a_edge7_Node000006_Node000007"><a xlink:title=" ">
<path fill="none" stroke="#63b8ff" d="M453.53,-131.8C467.38,-122.93 485.41,-111.39 500.63,-101.66"/>
<polygon fill="#63b8ff" stroke="#63b8ff" points="502.67,-104.5 509.21,-96.16 498.9,-98.61 502.67,-104.5"/>
</a>
</g>
</g>
<!-- Node6&#45;&gt;Node12 -->
<g id="edge15_Node000006_Node000012" class="edge">
<title>Node6&#45;&gt;Node12</title>
<g id="a_edge15_Node000006_Node000012"><a xlink:title=" ">
<path fill="none" stroke="#63b8ff" d="M494.67,-131.98C526.16,-123.73 564.24,-111.79 596.34,-96 632.52,-78.2 669.67,-49.1 690.78,-31.34"/>
<polygon fill="#63b8ff" stroke="#63b8ff" points="693.23,-33.86 698.56,-24.7 688.68,-28.54 693.23,-33.86"/>
</a>
</g>
</g>
<!-- Node13 -->
<g id="Node000013" class="node">
<title>Node13</title>
<g id="a_Node000013"><a xlink:href="numbers_8hpp.html" target="_top" xlink:title=" ">
<polygon fill="white" stroke="#666666" points="457.34,-96 345.34,-96 345.34,-66 457.34,-66 457.34,-96"/>
<text text-anchor="start" x="353.34" y="-84" font-family="Helvetica,sans-Serif" font-size="10.00">meltpooldg/utilities</text>
<text text-anchor="middle" x="401.34" y="-73" font-family="Helvetica,sans-Serif" font-size="10.00">/numbers.hpp</text>
</a>
</g>
</g>
<!-- Node6&#45;&gt;Node13 -->
<g id="edge14_Node000006_Node000013" class="edge">
<title>Node6&#45;&gt;Node13</title>
<g id="a_edge14_Node000006_Node000013"><a xlink:title=" ">
<path fill="none" stroke="#63b8ff" d="M424.68,-131.8C421.03,-124.01 416.41,-114.16 412.25,-105.28"/>
<polygon fill="#63b8ff" stroke="#63b8ff" points="415.39,-103.73 407.98,-96.16 409.05,-106.7 415.39,-103.73"/>
</a>
</g>
</g>
<!-- Node7&#45;&gt;Node2 -->
<g id="edge8_Node000007_Node000002" class="edge">
<title>Node7&#45;&gt;Node2</title>
<g id="a_edge8_Node000007_Node000002"><a xlink:title=" ">
<path fill="none" stroke="#63b8ff" d="M475.02,-67.57C472.09,-67.01 469.18,-66.49 466.34,-66 345.39,-45.27 311.36,-49.77 186.82,-30.17"/>
<polygon fill="#63b8ff" stroke="#63b8ff" points="187.33,-26.71 176.9,-28.59 186.23,-33.62 187.33,-26.71"/>
</a>
</g>
</g>
<!-- Node8 -->
<g id="Node000008" class="node">
<title>Node8</title>
<g id="a_Node000008"><a xlink:title=" ">
<polygon fill="#e0e0e0" stroke="#999999" points="319.84,-24.5 194.84,-24.5 194.84,-5.5 319.84,-5.5 319.84,-24.5"/>
<text text-anchor="middle" x="257.34" y="-12.5" font-family="Helvetica,sans-Serif" font-size="10.00">deal.II/base/patterns.h</text>
</a>
</g>
</g>
<!-- Node7&#45;&gt;Node8 -->
<g id="edge9_Node000007_Node000008" class="edge">
<title>Node7&#45;&gt;Node8</title>
<g id="a_edge9_Node000007_Node000008"><a xlink:title=" ">
<path fill="none" stroke="#63b8ff" d="M475.23,-66.89C424.76,-55.11 351.47,-37.99 304.1,-26.92"/>
<polygon fill="#63b8ff" stroke="#63b8ff" points="304.65,-23.46 294.11,-24.59 303.06,-30.27 304.65,-23.46"/>
</a>
</g>
</g>
<!-- Node9 -->
<g id="Node000009" class="node">
<title>Node9</title>
<g id="a_Node000009"><a xlink:title=" ">
<polygon fill="#e0e0e0" stroke="#999999" points="450.34,-30 338.34,-30 338.34,0 450.34,0 450.34,-30"/>
<text text-anchor="start" x="346.34" y="-18" font-family="Helvetica,sans-Serif" font-size="10.00">meltpooldg/utilities</text>
<text text-anchor="middle" x="394.34" y="-7" font-family="Helvetica,sans-Serif" font-size="10.00">/better_enum.hpp</text>
</a>
</g>
</g>
<!-- Node7&#45;&gt;Node9 -->
<g id="edge10_Node000007_Node000009" class="edge">
<title>Node7&#45;&gt;Node9</title>
<g id="a_edge10_Node000007_Node000009"><a xlink:title=" ">
<path fill="none" stroke="#63b8ff" d="M501.27,-65.95C481.37,-56.66 455.08,-44.38 433.54,-34.32"/>
<polygon fill="#63b8ff" stroke="#63b8ff" points="434.87,-31.07 424.33,-30.01 431.91,-37.42 434.87,-31.07"/>
</a>
</g>
</g>
<!-- Node10 -->
<g id="Node000010" class="node">
<title>Node10</title>
<g id="a_Node000010"><a xlink:title=" ">
<polygon fill="#e0e0e0" stroke="#999999" points="593.84,-30 468.84,-30 468.84,0 593.84,0 593.84,-30"/>
<text text-anchor="start" x="476.84" y="-18" font-family="Helvetica,sans-Serif" font-size="10.00">boost/algorithm/string</text>
<text text-anchor="middle" x="531.34" y="-7" font-family="Helvetica,sans-Serif" font-size="10.00">/join.hpp</text>
</a>
</g>
</g>
<!-- Node7&#45;&gt;Node10 -->
<g id="edge11_Node000007_Node000010" class="edge">
<title>Node7&#45;&gt;Node10</title>
<g id="a_edge11_Node000007_Node000010"><a xlink:title=" ">
<path fill="none" stroke="#63b8ff" d="M531.34,-65.8C531.34,-58.34 531.34,-48.99 531.34,-40.41"/>
<polygon fill="#63b8ff" stroke="#63b8ff" points="534.84,-40.16 531.34,-30.16 527.84,-40.16 534.84,-40.16"/>
</a>
</g>
</g>
<!-- Node11 -->
<g id="Node000011" class="node">
<title>Node11</title>
<g id="a_Node000011"><a xlink:title=" ">
<polygon fill="#e0e0e0" stroke="#999999" points="668.34,-24.5 612.34,-24.5 612.34,-5.5 668.34,-5.5 668.34,-24.5"/>
<text text-anchor="middle" x="640.34" y="-12.5" font-family="Helvetica,sans-Serif" font-size="10.00">sstream</text>
</a>
</g>
</g>
<!-- Node7&#45;&gt;Node11 -->
<g id="edge12_Node000007_Node000011" class="edge">
<title>Node7&#45;&gt;Node11</title>
<g id="a_edge12_Node000007_Node000011"><a xlink:title=" ">
<path fill="none" stroke="#63b8ff" d="M555.26,-65.95C573.62,-55.18 598.82,-40.38 617.02,-29.69"/>
<polygon fill="#63b8ff" stroke="#63b8ff" points="618.98,-32.6 625.83,-24.52 615.44,-26.56 618.98,-32.6"/>
</a>
</g>
</g>
<!-- Node7&#45;&gt;Node12 -->
<g id="edge13_Node000007_Node000012" class="edge">
<title>Node7&#45;&gt;Node12</title>
<g id="a_edge13_Node000007_Node000012"><a xlink:title=" ">
<path fill="none" stroke="#63b8ff" d="M575.82,-65.97C604.95,-56.49 643.71,-43.32 677.34,-30 678.51,-29.54 679.7,-29.05 680.91,-28.55"/>
<polygon fill="#63b8ff" stroke="#63b8ff" points="682.31,-31.76 690.1,-24.58 679.53,-25.33 682.31,-31.76"/>
</a>
</g>
</g>
<!-- Node14&#45;&gt;Node2 -->
<g id="edge17_Node000014_Node000002" class="edge">
<title>Node14&#45;&gt;Node2</title>
<g id="a_edge17_Node000014_Node000002"><a xlink:title=" ">
<path fill="none" stroke="#63b8ff" d="M456.78,-198.57C424.09,-189.21 385.66,-176.74 352.34,-162 299.5,-138.62 289.68,-126.07 240.34,-96 207.1,-75.74 169.4,-51.89 143.78,-35.53"/>
<polygon fill="#63b8ff" stroke="#63b8ff" points="145.55,-32.51 135.24,-30.07 141.78,-38.41 145.55,-32.51"/>
</a>
</g>
</g>
<!-- Node14&#45;&gt;Node6 -->
<g id="edge18_Node000014_Node000006" class="edge">
<title>Node14&#45;&gt;Node6</title>
<g id="a_edge18_Node000014_Node000006"><a xlink:title=" ">
<path fill="none" stroke="#63b8ff" d="M503.22,-197.96C489.76,-188.6 473.67,-177.42 460.12,-168.01"/>
<polygon fill="#63b8ff" stroke="#63b8ff" points="461.85,-164.95 451.64,-162.11 457.86,-170.69 461.85,-164.95"/>
</a>
</g>
</g>
<!-- Node14&#45;&gt;Node7 -->
<g id="edge19_Node000014_Node000007" class="edge">
<title>Node14&#45;&gt;Node7</title>
<g id="a_edge19_Node000014_Node000007"><a xlink:title=" ">
<path fill="none" stroke="#63b8ff" d="M531.34,-197.8C531.34,-173.65 531.34,-132.72 531.34,-106.55"/>
<polygon fill="#63b8ff" stroke="#63b8ff" points="534.84,-106.33 531.34,-96.33 527.84,-106.33 534.84,-106.33"/>
</a>
</g>
</g>
</g>
</svg>
