<?xml version="1.0" encoding="UTF-8" standalone="no"?>
<!DOCTYPE svg PUBLIC "-//W3C//DTD SVG 1.1//EN"
 "http://www.w3.org/Graphics/SVG/1.1/DTD/svg11.dtd">
<!-- Generated by graphviz version 2.43.0 (0)
 -->
<!-- Title: source/heat/laser_data.cpp Pages: 1 -->
<svg width="2155pt" height="368pt"
 viewBox="0.00 0.00 2154.50 368.00" xmlns="http://www.w3.org/2000/svg" xmlns:xlink="http://www.w3.org/1999/xlink">
<g id="graph0" class="graph" transform="scale(1 1) rotate(0) translate(4 364)">
<title>source/heat/laser_data.cpp</title>
<!-- Node1 -->
<g id="Node000001" class="node">
<title>Node1</title>
<g id="a_Node000001"><a xlink:title=" ">
<polygon fill="#999999" stroke="#666666" points="1450,-360 1302,-360 1302,-341 1450,-341 1450,-360"/>
<text text-anchor="middle" x="1376" y="-348" font-family="Helvetica,sans-Serif" font-size="10.00">source/heat/laser_data.cpp</text>
</a>
</g>
</g>
<!-- Node2 -->
<g id="Node000002" class="node">
<title>Node2</title>
<g id="a_Node000002"><a xlink:title=" ">
<polygon fill="#e0e0e0" stroke="#999999" points="1005,-228 867,-228 867,-209 1005,-209 1005,-228"/>
<text text-anchor="middle" x="936" y="-216" font-family="Helvetica,sans-Serif" font-size="10.00">deal.II/base/exceptions.h</text>
</a>
</g>
</g>
<!-- Node1&#45;&gt;Node2 -->
<g id="edge1_Node000001_Node000002" class="edge">
<title>Node1&#45;&gt;Node2</title>
<g id="a_edge1_Node000001_Node000002"><a xlink:title=" ">
<path fill="none" stroke="#63b8ff" d="M1371.52,-340.76C1362.74,-324.64 1341.61,-290.46 1313,-275 1197.18,-212.43 1148.6,-262.09 1019,-239 1005.78,-236.64 991.5,-233.51 978.58,-230.44"/>
<polygon fill="#63b8ff" stroke="#63b8ff" points="979.09,-226.97 968.55,-228.01 977.44,-233.77 979.09,-226.97"/>
</a>
</g>
</g>
<!-- Node3 -->
<g id="Node000003" class="node">
<title>Node3</title>
<g id="a_Node000003"><a xlink:title=" ">
<polygon fill="#e0e0e0" stroke="#999999" points="156.5,-24.5 31.5,-24.5 31.5,-5.5 156.5,-5.5 156.5,-24.5"/>
<text text-anchor="middle" x="94" y="-12.5" font-family="Helvetica,sans-Serif" font-size="10.00">deal.II/base/patterns.h</text>
</a>
</g>
</g>
<!-- Node1&#45;&gt;Node3 -->
<g id="edge2_Node000001_Node000003" class="edge">
<title>Node1&#45;&gt;Node3</title>
<g id="a_edge2_Node000001_Node000003"><a xlink:title=" ">
<path fill="none" stroke="#63b8ff" d="M1301.86,-348.36C1147.47,-345.42 780.37,-335.56 474,-305 260.99,-283.75 0,-433.57 0,-219.5 0,-219.5 0,-219.5 0,-146 0,-96.24 45.78,-52.62 73.45,-30.8"/>
<polygon fill="#63b8ff" stroke="#63b8ff" points="75.88,-33.35 81.71,-24.5 71.64,-27.78 75.88,-33.35"/>
</a>
</g>
</g>
<!-- Node4 -->
<g id="Node000004" class="node">
<title>Node4</title>
<g id="a_Node000004"><a xlink:title=" ">
<polygon fill="#e0e0e0" stroke="#999999" points="1304,-299.5 1128,-299.5 1128,-280.5 1304,-280.5 1304,-299.5"/>
<text text-anchor="middle" x="1216" y="-287.5" font-family="Helvetica,sans-Serif" font-size="10.00">deal.II/physics/transformations.h</text>
</a>
</g>
</g>
<!-- Node1&#45;&gt;Node4 -->
<g id="edge3_Node000001_Node000004" class="edge">
<title>Node1&#45;&gt;Node4</title>
<g id="a_edge3_Node000001_Node000004"><a xlink:title=" ">
<path fill="none" stroke="#63b8ff" d="M1352.73,-340.99C1325.36,-330.99 1279.73,-314.3 1248.78,-302.99"/>
<polygon fill="#63b8ff" stroke="#63b8ff" points="1249.89,-299.66 1239.29,-299.52 1247.48,-306.24 1249.89,-299.66"/>
</a>
</g>
</g>
<!-- Node5 -->
<g id="Node000005" class="node">
<title>Node5</title>
<g id="a_Node000005"><a xlink:href="laser__data_8hpp.html" target="_top" xlink:title=" ">
<polygon fill="white" stroke="#666666" points="607,-305 483,-305 483,-275 607,-275 607,-305"/>
<text text-anchor="start" x="491" y="-293" font-family="Helvetica,sans-Serif" font-size="10.00">meltpooldg/heat/laser</text>
<text text-anchor="middle" x="545" y="-282" font-family="Helvetica,sans-Serif" font-size="10.00">_data.hpp</text>
</a>
</g>
</g>
<!-- Node1&#45;&gt;Node5 -->
<g id="edge4_Node000001_Node000005" class="edge">
<title>Node1&#45;&gt;Node5</title>
<g id="a_edge4_Node000001_Node000005"><a xlink:title=" ">
<path fill="none" stroke="#63b8ff" d="M1301.89,-344.28C1143.46,-333.13 773.55,-307.09 617.01,-296.07"/>
<polygon fill="#63b8ff" stroke="#63b8ff" points="617.23,-292.58 607.01,-295.37 616.74,-299.56 617.23,-292.58"/>
</a>
</g>
</g>
<!-- Node16 -->
<g id="Node000016" class="node">
<title>Node16</title>
<g id="a_Node000016"><a xlink:href="numbers_8hpp.html" target="_top" xlink:title=" ">
<polygon fill="white" stroke="#666666" points="1751,-96 1639,-96 1639,-66 1751,-66 1751,-96"/>
<text text-anchor="start" x="1647" y="-84" font-family="Helvetica,sans-Serif" font-size="10.00">meltpooldg/utilities</text>
<text text-anchor="middle" x="1695" y="-73" font-family="Helvetica,sans-Serif" font-size="10.00">/numbers.hpp</text>
</a>
</g>
</g>
<!-- Node1&#45;&gt;Node16 -->
<g id="edge30_Node000001_Node000016" class="edge">
<title>Node1&#45;&gt;Node16</title>
<g id="a_edge30_Node000001_Node000016"><a xlink:title=" ">
<path fill="none" stroke="#63b8ff" d="M1450.11,-349.25C1608.96,-346.92 1973.73,-331.39 2046,-239 2125.71,-137.1 1883.57,-99.51 1761.21,-87.25"/>
<polygon fill="#63b8ff" stroke="#63b8ff" points="1761.47,-83.76 1751.18,-86.28 1760.8,-90.73 1761.47,-83.76"/>
</a>
</g>
</g>
<!-- Node22 -->
<g id="Node000022" class="node">
<title>Node22</title>
<g id="a_Node000022"><a xlink:href="utilities_2utility__functions_8hpp.html" target="_top" xlink:title=" ">
<polygon fill="white" stroke="#666666" points="1479.5,-305 1360.5,-305 1360.5,-275 1479.5,-275 1479.5,-305"/>
<text text-anchor="start" x="1368.5" y="-293" font-family="Helvetica,sans-Serif" font-size="10.00">meltpooldg/utilities</text>
<text text-anchor="middle" x="1420" y="-282" font-family="Helvetica,sans-Serif" font-size="10.00">/utility_functions.hpp</text>
</a>
</g>
</g>
<!-- Node1&#45;&gt;Node22 -->
<g id="edge31_Node000001_Node000022" class="edge">
<title>Node1&#45;&gt;Node22</title>
<g id="a_edge31_Node000001_Node000022"><a xlink:title=" ">
<path fill="none" stroke="#63b8ff" d="M1382.49,-340.87C1387.97,-333.59 1396.04,-322.85 1403.3,-313.2"/>
<polygon fill="#63b8ff" stroke="#63b8ff" points="1406.17,-315.21 1409.38,-305.11 1400.58,-311 1406.17,-315.21"/>
</a>
</g>
</g>
<!-- Node28 -->
<g id="Node000028" class="node">
<title>Node28</title>
<g id="a_Node000028"><a xlink:title=" ">
<polygon fill="#e0e0e0" stroke="#999999" points="2037,-228 1973,-228 1973,-209 2037,-209 2037,-228"/>
<text text-anchor="middle" x="2005" y="-216" font-family="Helvetica,sans-Serif" font-size="10.00">algorithm</text>
</a>
</g>
</g>
<!-- Node1&#45;&gt;Node28 -->
<g id="edge46_Node000001_Node000028" class="edge">
<title>Node1&#45;&gt;Node28</title>
<g id="a_edge46_Node000001_Node000028"><a xlink:title=" ">
<path fill="none" stroke="#63b8ff" d="M1450.13,-342.05C1563.37,-329.24 1785.23,-298.48 1965,-239 1970.18,-237.28 1975.56,-235.03 1980.62,-232.66"/>
<polygon fill="#63b8ff" stroke="#63b8ff" points="1982.43,-235.67 1989.83,-228.09 1979.32,-229.4 1982.43,-235.67"/>
</a>
</g>
</g>
<!-- Node31 -->
<g id="Node000031" class="node">
<title>Node31</title>
<g id="a_Node000031"><a xlink:title=" ">
<polygon fill="#e0e0e0" stroke="#999999" points="2146.5,-299.5 2093.5,-299.5 2093.5,-280.5 2146.5,-280.5 2146.5,-299.5"/>
<text text-anchor="middle" x="2120" y="-287.5" font-family="Helvetica,sans-Serif" font-size="10.00">iterator</text>
</a>
</g>
</g>
<!-- Node1&#45;&gt;Node31 -->
<g id="edge47_Node000001_Node000031" class="edge">
<title>Node1&#45;&gt;Node31</title>
<g id="a_edge47_Node000001_Node000031"><a xlink:title=" ">
<path fill="none" stroke="#63b8ff" d="M1450.21,-347.3C1605.55,-342.28 1960.4,-328.56 2079,-305 2082.25,-304.36 2085.59,-303.52 2088.9,-302.57"/>
<polygon fill="#63b8ff" stroke="#63b8ff" points="2090.11,-305.86 2098.59,-299.51 2088,-299.19 2090.11,-305.86"/>
</a>
</g>
</g>
<!-- Node6 -->
<g id="Node000006" class="node">
<title>Node6</title>
<g id="a_Node000006"><a xlink:title=" ">
<polygon fill="#e0e0e0" stroke="#999999" points="369.5,-30 242.5,-30 242.5,0 369.5,0 369.5,-30"/>
<text text-anchor="start" x="250.5" y="-18" font-family="Helvetica,sans-Serif" font-size="10.00">deal.II/base/parameter</text>
<text text-anchor="middle" x="306" y="-7" font-family="Helvetica,sans-Serif" font-size="10.00">_handler.h</text>
</a>
</g>
</g>
<!-- Node5&#45;&gt;Node6 -->
<g id="edge5_Node000005_Node000006" class="edge">
<title>Node5&#45;&gt;Node6</title>
<g id="a_edge5_Node000005_Node000006"><a xlink:title=" ">
<path fill="none" stroke="#63b8ff" d="M482.71,-287.19C357.55,-282.89 85.04,-270.05 57,-239 -18.77,-155.07 165.06,-69.71 257.2,-33.72"/>
<polygon fill="#63b8ff" stroke="#63b8ff" points="258.55,-36.95 266.62,-30.09 256.03,-30.42 258.55,-36.95"/>
</a>
</g>
</g>
<!-- Node7 -->
<g id="Node000007" class="node">
<title>Node7</title>
<g id="a_Node000007"><a xlink:title=" ">
<polygon fill="#e0e0e0" stroke="#999999" points="849,-228 739,-228 739,-209 849,-209 849,-228"/>
<text text-anchor="middle" x="794" y="-216" font-family="Helvetica,sans-Serif" font-size="10.00">deal.II/base/point.h</text>
</a>
</g>
</g>
<!-- Node5&#45;&gt;Node7 -->
<g id="edge6_Node000005_Node000007" class="edge">
<title>Node5&#45;&gt;Node7</title>
<g id="a_edge6_Node000005_Node000007"><a xlink:title=" ">
<path fill="none" stroke="#63b8ff" d="M598.24,-274.93C635.04,-265.1 685.08,-251.55 729,-239 737.89,-236.46 747.44,-233.64 756.4,-230.96"/>
<polygon fill="#63b8ff" stroke="#63b8ff" points="757.64,-234.24 766.21,-228.01 755.63,-227.54 757.64,-234.24"/>
</a>
</g>
</g>
<!-- Node8 -->
<g id="Node000008" class="node">
<title>Node8</title>
<g id="a_Node000008"><a xlink:title=" ">
<polygon fill="#e0e0e0" stroke="#999999" points="181.5,-228 66.5,-228 66.5,-209 181.5,-209 181.5,-228"/>
<text text-anchor="middle" x="124" y="-216" font-family="Helvetica,sans-Serif" font-size="10.00">deal.II/base/tensor.h</text>
</a>
</g>
</g>
<!-- Node5&#45;&gt;Node8 -->
<g id="edge7_Node000005_Node000008" class="edge">
<title>Node5&#45;&gt;Node8</title>
<g id="a_edge7_Node000005_Node000008"><a xlink:title=" ">
<path fill="none" stroke="#63b8ff" d="M482.82,-282.94C411.75,-275.38 292.19,-260.75 191,-239 180.78,-236.8 169.85,-233.87 159.83,-230.95"/>
<polygon fill="#63b8ff" stroke="#63b8ff" points="160.77,-227.58 150.19,-228.07 158.77,-234.29 160.77,-227.58"/>
</a>
</g>
</g>
<!-- Node9 -->
<g id="Node000009" class="node">
<title>Node9</title>
<g id="a_Node000009"><a xlink:title=" ">
<polygon fill="#e0e0e0" stroke="#999999" points="312,-228 200,-228 200,-209 312,-209 312,-228"/>
<text text-anchor="middle" x="256" y="-216" font-family="Helvetica,sans-Serif" font-size="10.00">deal.II/base/types.h</text>
</a>
</g>
</g>
<!-- Node5&#45;&gt;Node9 -->
<g id="edge8_Node000005_Node000009" class="edge">
<title>Node5&#45;&gt;Node9</title>
<g id="a_edge8_Node000005_Node000009"><a xlink:title=" ">
<path fill="none" stroke="#63b8ff" d="M482.91,-276.39C437.79,-266.93 375.36,-253.2 321,-239 311.79,-236.59 301.92,-233.77 292.73,-231.02"/>
<polygon fill="#63b8ff" stroke="#63b8ff" points="293.66,-227.65 283.08,-228.1 291.63,-234.34 293.66,-227.65"/>
</a>
</g>
</g>
<!-- Node10 -->
<g id="Node000010" class="node">
<title>Node10</title>
<g id="a_Node000010"><a xlink:href="core_2material__data_8hpp.html" target="_top" xlink:title=" ">
<polygon fill="white" stroke="#666666" points="675,-162 535,-162 535,-132 675,-132 675,-162"/>
<text text-anchor="start" x="543" y="-150" font-family="Helvetica,sans-Serif" font-size="10.00">meltpooldg/core/material</text>
<text text-anchor="middle" x="605" y="-139" font-family="Helvetica,sans-Serif" font-size="10.00">_data.hpp</text>
</a>
</g>
</g>
<!-- Node5&#45;&gt;Node10 -->
<g id="edge9_Node000005_Node000010" class="edge">
<title>Node5&#45;&gt;Node10</title>
<g id="a_edge9_Node000005_Node000010"><a xlink:title=" ">
<path fill="none" stroke="#63b8ff" d="M545.87,-274.77C547.46,-256.27 551.88,-223.33 564,-198 568.8,-187.98 576.02,-178.23 583.07,-170.04"/>
<polygon fill="#63b8ff" stroke="#63b8ff" points="585.85,-172.18 589.96,-162.42 580.66,-167.48 585.85,-172.18"/>
</a>
</g>
</g>
<!-- Node11 -->
<g id="Node000011" class="node">
<title>Node11</title>
<g id="a_Node000011"><a xlink:href="enum_8hpp.html" target="_top" xlink:title=" ">
<polygon fill="white" stroke="#666666" points="563,-96 451,-96 451,-66 563,-66 563,-96"/>
<text text-anchor="start" x="459" y="-84" font-family="Helvetica,sans-Serif" font-size="10.00">meltpooldg/utilities</text>
<text text-anchor="middle" x="507" y="-73" font-family="Helvetica,sans-Serif" font-size="10.00">/enum.hpp</text>
</a>
</g>
</g>
<!-- Node5&#45;&gt;Node11 -->
<g id="edge26_Node000005_Node000011" class="edge">
<title>Node5&#45;&gt;Node11</title>
<g id="a_edge26_Node000005_Node000011"><a xlink:title=" ">
<path fill="none" stroke="#63b8ff" d="M542.39,-274.77C535.97,-239.83 519.39,-149.47 511.41,-106.03"/>
<polygon fill="#63b8ff" stroke="#63b8ff" points="514.83,-105.26 509.58,-96.05 507.94,-106.52 514.83,-105.26"/>
</a>
</g>
</g>
<!-- Node15 -->
<g id="Node000015" class="node">
<title>Node15</title>
<g id="a_Node000015"><a xlink:title=" ">
<polygon fill="#e0e0e0" stroke="#999999" points="782,-24.5 738,-24.5 738,-5.5 782,-5.5 782,-24.5"/>
<text text-anchor="middle" x="760" y="-12.5" font-family="Helvetica,sans-Serif" font-size="10.00">string</text>
</a>
</g>
</g>
<!-- Node5&#45;&gt;Node15 -->
<g id="edge28_Node000005_Node000015" class="edge">
<title>Node5&#45;&gt;Node15</title>
<g id="a_edge28_Node000005_Node000015"><a xlink:title=" ">
<path fill="none" stroke="#63b8ff" d="M573.39,-274.9C589.8,-265.94 610.24,-253.36 626,-239 692.94,-177.98 737.24,-75.71 753.28,-34.27"/>
<polygon fill="#63b8ff" stroke="#63b8ff" points="756.57,-35.49 756.83,-24.9 750.02,-33.01 756.57,-35.49"/>
</a>
</g>
</g>
<!-- Node19 -->
<g id="Node000019" class="node">
<title>Node19</title>
<g id="a_Node000019"><a xlink:href="delta__approximation__phase__weighted__data_8hpp.html" target="_top" xlink:title=" ">
<polygon fill="white" stroke="#666666" points="479.5,-239 330.5,-239 330.5,-198 479.5,-198 479.5,-239"/>
<text text-anchor="start" x="338.5" y="-227" font-family="Helvetica,sans-Serif" font-size="10.00">meltpooldg/level_set</text>
<text text-anchor="start" x="338.5" y="-216" font-family="Helvetica,sans-Serif" font-size="10.00">/delta_approximation</text>
<text text-anchor="middle" x="405" y="-205" font-family="Helvetica,sans-Serif" font-size="10.00">_phase_weighted_data.hpp</text>
</a>
</g>
</g>
<!-- Node5&#45;&gt;Node19 -->
<g id="edge22_Node000005_Node000019" class="edge">
<title>Node5&#45;&gt;Node19</title>
<g id="a_edge22_Node000005_Node000019"><a xlink:title=" ">
<path fill="none" stroke="#63b8ff" d="M516.67,-274.94C498.57,-265.95 474.64,-254.07 453.57,-243.61"/>
<polygon fill="#63b8ff" stroke="#63b8ff" points="454.94,-240.39 444.43,-239.07 451.83,-246.66 454.94,-240.39"/>
</a>
</g>
</g>
<!-- Node20 -->
<g id="Node000020" class="node">
<title>Node20</title>
<g id="a_Node000020"><a xlink:title=" ">
<polygon fill="#e0e0e0" stroke="#999999" points="617,-228 573,-228 573,-209 617,-209 617,-228"/>
<text text-anchor="middle" x="595" y="-216" font-family="Helvetica,sans-Serif" font-size="10.00">limits</text>
</a>
</g>
</g>
<!-- Node5&#45;&gt;Node20 -->
<g id="edge27_Node000005_Node000020" class="edge">
<title>Node5&#45;&gt;Node20</title>
<g id="a_edge27_Node000005_Node000020"><a xlink:title=" ">
<path fill="none" stroke="#63b8ff" d="M555.12,-274.94C563.12,-263.81 574.33,-248.24 582.82,-236.43"/>
<polygon fill="#63b8ff" stroke="#63b8ff" points="585.69,-238.43 588.69,-228.27 580.01,-234.34 585.69,-238.43"/>
</a>
</g>
</g>
<!-- Node21 -->
<g id="Node000021" class="node">
<title>Node21</title>
<g id="a_Node000021"><a xlink:title=" ">
<polygon fill="#e0e0e0" stroke="#999999" points="720.5,-228 673.5,-228 673.5,-209 720.5,-209 720.5,-228"/>
<text text-anchor="middle" x="697" y="-216" font-family="Helvetica,sans-Serif" font-size="10.00">vector</text>
</a>
</g>
</g>
<!-- Node5&#45;&gt;Node21 -->
<g id="edge29_Node000005_Node000021" class="edge">
<title>Node5&#45;&gt;Node21</title>
<g id="a_edge29_Node000005_Node000021"><a xlink:title=" ">
<path fill="none" stroke="#63b8ff" d="M578.66,-274.87C601.49,-265.14 632.26,-251.71 659,-239 663.18,-237.01 667.58,-234.83 671.85,-232.68"/>
<polygon fill="#63b8ff" stroke="#63b8ff" points="673.53,-235.75 680.84,-228.07 670.34,-229.52 673.53,-235.75"/>
</a>
</g>
</g>
<!-- Node10&#45;&gt;Node6 -->
<g id="edge10_Node000010_Node000006" class="edge">
<title>Node10&#45;&gt;Node6</title>
<g id="a_edge10_Node000010_Node000006"><a xlink:title=" ">
<path fill="none" stroke="#63b8ff" d="M547.62,-131.94C515.84,-123.28 476,-110.97 442,-96 403.26,-78.94 361.73,-53.33 334.9,-35.7"/>
<polygon fill="#63b8ff" stroke="#63b8ff" points="336.66,-32.67 326.39,-30.06 332.79,-38.5 336.66,-32.67"/>
</a>
</g>
</g>
<!-- Node10&#45;&gt;Node11 -->
<g id="edge11_Node000010_Node000011" class="edge">
<title>Node10&#45;&gt;Node11</title>
<g id="a_edge11_Node000010_Node000011"><a xlink:title=" ">
<path fill="none" stroke="#63b8ff" d="M583.25,-131.8C569.67,-122.93 552.01,-111.39 537.1,-101.66"/>
<polygon fill="#63b8ff" stroke="#63b8ff" points="538.98,-98.7 528.69,-96.16 535.15,-104.56 538.98,-98.7"/>
</a>
</g>
</g>
<!-- Node10&#45;&gt;Node15 -->
<g id="edge21_Node000010_Node000015" class="edge">
<title>Node10&#45;&gt;Node15</title>
<g id="a_edge21_Node000010_Node000015"><a xlink:title=" ">
<path fill="none" stroke="#63b8ff" d="M621.88,-131.84C651.29,-107.18 711.65,-56.56 741.89,-31.19"/>
<polygon fill="#63b8ff" stroke="#63b8ff" points="744.16,-33.86 749.57,-24.75 739.66,-28.49 744.16,-33.86"/>
</a>
</g>
</g>
<!-- Node10&#45;&gt;Node16 -->
<g id="edge18_Node000010_Node000016" class="edge">
<title>Node10&#45;&gt;Node16</title>
<g id="a_edge18_Node000010_Node000016"><a xlink:title=" ">
<path fill="none" stroke="#63b8ff" d="M675.26,-141.87C873.57,-130.23 1435.76,-97.22 1628.89,-85.88"/>
<polygon fill="#63b8ff" stroke="#63b8ff" points="1629.12,-89.37 1638.9,-85.29 1628.71,-82.39 1629.12,-89.37"/>
</a>
</g>
</g>
<!-- Node11&#45;&gt;Node3 -->
<g id="edge13_Node000011_Node000003" class="edge">
<title>Node11&#45;&gt;Node3</title>
<g id="a_edge13_Node000011_Node000003"><a xlink:title=" ">
<path fill="none" stroke="#63b8ff" d="M450.87,-71.3C374.84,-59.52 239.39,-38.53 159.02,-26.08"/>
<polygon fill="#63b8ff" stroke="#63b8ff" points="159.44,-22.6 149.02,-24.53 158.36,-29.52 159.44,-22.6"/>
</a>
</g>
</g>
<!-- Node11&#45;&gt;Node6 -->
<g id="edge12_Node000011_Node000006" class="edge">
<title>Node11&#45;&gt;Node6</title>
<g id="a_edge12_Node000011_Node000006"><a xlink:title=" ">
<path fill="none" stroke="#63b8ff" d="M462.89,-65.95C432.52,-56.28 391.99,-43.38 359.73,-33.11"/>
<polygon fill="#63b8ff" stroke="#63b8ff" points="360.6,-29.71 350.01,-30.01 358.47,-36.38 360.6,-29.71"/>
</a>
</g>
</g>
<!-- Node12 -->
<g id="Node000012" class="node">
<title>Node12</title>
<g id="a_Node000012"><a xlink:title=" ">
<polygon fill="#e0e0e0" stroke="#999999" points="500,-30 388,-30 388,0 500,0 500,-30"/>
<text text-anchor="start" x="396" y="-18" font-family="Helvetica,sans-Serif" font-size="10.00">meltpooldg/utilities</text>
<text text-anchor="middle" x="444" y="-7" font-family="Helvetica,sans-Serif" font-size="10.00">/better_enum.hpp</text>
</a>
</g>
</g>
<!-- Node11&#45;&gt;Node12 -->
<g id="edge14_Node000011_Node000012" class="edge">
<title>Node11&#45;&gt;Node12</title>
<g id="a_edge14_Node000011_Node000012"><a xlink:title=" ">
<path fill="none" stroke="#63b8ff" d="M493.02,-65.8C484.78,-57.43 474.2,-46.68 464.98,-37.31"/>
<polygon fill="#63b8ff" stroke="#63b8ff" points="467.45,-34.84 457.94,-30.16 462.46,-39.75 467.45,-34.84"/>
</a>
</g>
</g>
<!-- Node13 -->
<g id="Node000013" class="node">
<title>Node13</title>
<g id="a_Node000013"><a xlink:title=" ">
<polygon fill="#e0e0e0" stroke="#999999" points="643.5,-30 518.5,-30 518.5,0 643.5,0 643.5,-30"/>
<text text-anchor="start" x="526.5" y="-18" font-family="Helvetica,sans-Serif" font-size="10.00">boost/algorithm/string</text>
<text text-anchor="middle" x="581" y="-7" font-family="Helvetica,sans-Serif" font-size="10.00">/join.hpp</text>
</a>
</g>
</g>
<!-- Node11&#45;&gt;Node13 -->
<g id="edge15_Node000011_Node000013" class="edge">
<title>Node11&#45;&gt;Node13</title>
<g id="a_edge15_Node000011_Node000013"><a xlink:title=" ">
<path fill="none" stroke="#63b8ff" d="M523.42,-65.8C533.29,-57.26 546.02,-46.25 557,-36.75"/>
<polygon fill="#63b8ff" stroke="#63b8ff" points="559.35,-39.35 564.62,-30.16 554.77,-34.06 559.35,-39.35"/>
</a>
</g>
</g>
<!-- Node14 -->
<g id="Node000014" class="node">
<title>Node14</title>
<g id="a_Node000014"><a xlink:title=" ">
<polygon fill="#e0e0e0" stroke="#999999" points="718,-24.5 662,-24.5 662,-5.5 718,-5.5 718,-24.5"/>
<text text-anchor="middle" x="690" y="-12.5" font-family="Helvetica,sans-Serif" font-size="10.00">sstream</text>
</a>
</g>
</g>
<!-- Node11&#45;&gt;Node14 -->
<g id="edge16_Node000011_Node000014" class="edge">
<title>Node11&#45;&gt;Node14</title>
<g id="a_edge16_Node000011_Node000014"><a xlink:title=" ">
<path fill="none" stroke="#63b8ff" d="M548.64,-65.9C577.67,-56.01 617.26,-42.39 652,-30 653.84,-29.34 655.72,-28.67 657.63,-27.98"/>
<polygon fill="#63b8ff" stroke="#63b8ff" points="658.92,-31.23 667.12,-24.52 656.53,-24.65 658.92,-31.23"/>
</a>
</g>
</g>
<!-- Node11&#45;&gt;Node15 -->
<g id="edge17_Node000011_Node000015" class="edge">
<title>Node11&#45;&gt;Node15</title>
<g id="a_edge17_Node000011_Node000015"><a xlink:title=" ">
<path fill="none" stroke="#63b8ff" d="M563.35,-70.06C608.24,-61.46 672.39,-47.63 727,-30 728.63,-29.47 730.29,-28.9 731.95,-28.29"/>
<polygon fill="#63b8ff" stroke="#63b8ff" points="733.35,-31.5 741.37,-24.58 730.78,-24.99 733.35,-31.5"/>
</a>
</g>
</g>
<!-- Node17 -->
<g id="Node000017" class="node">
<title>Node17</title>
<g id="a_Node000017"><a xlink:title=" ">
<polygon fill="#e0e0e0" stroke="#999999" points="1796.5,-24.5 1749.5,-24.5 1749.5,-5.5 1796.5,-5.5 1796.5,-24.5"/>
<text text-anchor="middle" x="1773" y="-12.5" font-family="Helvetica,sans-Serif" font-size="10.00">cmath</text>
</a>
</g>
</g>
<!-- Node16&#45;&gt;Node17 -->
<g id="edge19_Node000016_Node000017" class="edge">
<title>Node16&#45;&gt;Node17</title>
<g id="a_edge19_Node000016_Node000017"><a xlink:title=" ">
<path fill="none" stroke="#63b8ff" d="M1712.31,-65.8C1724.71,-55.62 1741.4,-41.93 1754.13,-31.48"/>
<polygon fill="#63b8ff" stroke="#63b8ff" points="1756.71,-33.89 1762.22,-24.84 1752.27,-28.48 1756.71,-33.89"/>
</a>
</g>
</g>
<!-- Node18 -->
<g id="Node000018" class="node">
<title>Node18</title>
<g id="a_Node000018"><a xlink:title=" ">
<polygon fill="#e0e0e0" stroke="#999999" points="1724.5,-24.5 1665.5,-24.5 1665.5,-5.5 1724.5,-5.5 1724.5,-24.5"/>
<text text-anchor="middle" x="1695" y="-12.5" font-family="Helvetica,sans-Serif" font-size="10.00">numbers</text>
</a>
</g>
</g>
<!-- Node16&#45;&gt;Node18 -->
<g id="edge20_Node000016_Node000018" class="edge">
<title>Node16&#45;&gt;Node18</title>
<g id="a_edge20_Node000016_Node000018"><a xlink:title=" ">
<path fill="none" stroke="#63b8ff" d="M1695,-65.8C1695,-56.7 1695,-44.79 1695,-34.9"/>
<polygon fill="#63b8ff" stroke="#63b8ff" points="1698.5,-34.84 1695,-24.84 1691.5,-34.84 1698.5,-34.84"/>
</a>
</g>
</g>
<!-- Node19&#45;&gt;Node6 -->
<g id="edge23_Node000019_Node000006" class="edge">
<title>Node19&#45;&gt;Node6</title>
<g id="a_edge23_Node000019_Node000006"><a xlink:title=" ">
<path fill="none" stroke="#63b8ff" d="M395.33,-197.81C376.94,-160.39 337.04,-79.19 317.4,-39.2"/>
<polygon fill="#63b8ff" stroke="#63b8ff" points="320.53,-37.63 312.97,-30.2 314.24,-40.71 320.53,-37.63"/>
</a>
</g>
</g>
<!-- Node19&#45;&gt;Node10 -->
<g id="edge24_Node000019_Node000010" class="edge">
<title>Node19&#45;&gt;Node10</title>
<g id="a_edge24_Node000019_Node000010"><a xlink:title=" ">
<path fill="none" stroke="#63b8ff" d="M461.24,-197.96C490.7,-187.72 526.46,-175.29 554.95,-165.39"/>
<polygon fill="#63b8ff" stroke="#63b8ff" points="556.4,-168.59 564.7,-162 554.11,-161.98 556.4,-168.59"/>
</a>
</g>
</g>
<!-- Node19&#45;&gt;Node11 -->
<g id="edge25_Node000019_Node000011" class="edge">
<title>Node19&#45;&gt;Node11</title>
<g id="a_edge25_Node000019_Node000011"><a xlink:title=" ">
<path fill="none" stroke="#63b8ff" d="M419.83,-197.8C438.5,-173 470.48,-130.52 490.08,-104.48"/>
<polygon fill="#63b8ff" stroke="#63b8ff" points="493,-106.42 496.21,-96.33 487.4,-102.21 493,-106.42"/>
</a>
</g>
</g>
<!-- Node22&#45;&gt;Node2 -->
<g id="edge33_Node000022_Node000002" class="edge">
<title>Node22&#45;&gt;Node2</title>
<g id="a_edge33_Node000022_Node000002"><a xlink:title=" ">
<path fill="none" stroke="#63b8ff" d="M1360.29,-277.29C1355.46,-276.47 1350.66,-275.7 1346,-275 1201.39,-253.39 1163.1,-263.77 1019,-239 1005.65,-236.71 991.23,-233.56 978.22,-230.46"/>
<polygon fill="#63b8ff" stroke="#63b8ff" points="978.68,-226.97 968.14,-228.01 977.02,-233.77 978.68,-226.97"/>
</a>
</g>
</g>
<!-- Node22&#45;&gt;Node7 -->
<g id="edge34_Node000022_Node000007" class="edge">
<title>Node22&#45;&gt;Node7</title>
<g id="a_edge34_Node000022_Node000007"><a xlink:title=" ">
<path fill="none" stroke="#63b8ff" d="M1360.36,-280.65C1344.95,-278.64 1328.37,-276.61 1313,-275 1111.25,-253.83 1057.3,-276.78 858,-239 847.92,-237.09 837.18,-234.18 827.43,-231.18"/>
<polygon fill="#63b8ff" stroke="#63b8ff" points="828.29,-227.78 817.7,-228.06 826.16,-234.45 828.29,-227.78"/>
</a>
</g>
</g>
<!-- Node22&#45;&gt;Node14 -->
<g id="edge42_Node000022_Node000014" class="edge">
<title>Node22&#45;&gt;Node14</title>
<g id="a_edge42_Node000022_Node000014"><a xlink:title=" ">
<path fill="none" stroke="#63b8ff" d="M1360.32,-277.66C1354.81,-276.72 1349.3,-275.81 1344,-275 1214.76,-255.15 1168.4,-298.57 1052,-239 1029.88,-227.68 1033.51,-213.38 1014,-198 915.1,-120.03 778.64,-55.15 719.4,-28.73"/>
<polygon fill="#63b8ff" stroke="#63b8ff" points="720.48,-25.38 709.92,-24.53 717.65,-31.78 720.48,-25.38"/>
</a>
</g>
</g>
<!-- Node22&#45;&gt;Node15 -->
<g id="edge43_Node000022_Node000015" class="edge">
<title>Node22&#45;&gt;Node15</title>
<g id="a_edge43_Node000022_Node000015"><a xlink:title=" ">
<path fill="none" stroke="#63b8ff" d="M1479.74,-279.2C1523.14,-270.72 1576.55,-256.98 1590,-239 1600.92,-224.41 1601.42,-212.2 1590,-198 1486.81,-69.73 932.69,-26.78 792.33,-17.88"/>
<polygon fill="#63b8ff" stroke="#63b8ff" points="792.41,-14.38 782.22,-17.25 791.98,-21.37 792.41,-14.38"/>
</a>
</g>
</g>
<!-- Node22&#45;&gt;Node17 -->
<g id="edge40_Node000022_Node000017" class="edge">
<title>Node22&#45;&gt;Node17</title>
<g id="a_edge40_Node000022_Node000017"><a xlink:title=" ">
<path fill="none" stroke="#63b8ff" d="M1479.61,-288.92C1566.95,-287.42 1723.33,-279.04 1760,-239 1812.66,-181.51 1790.63,-76.79 1778.74,-34.47"/>
<polygon fill="#63b8ff" stroke="#63b8ff" points="1782.05,-33.3 1775.86,-24.7 1775.33,-35.29 1782.05,-33.3"/>
</a>
</g>
</g>
<!-- Node22&#45;&gt;Node21 -->
<g id="edge45_Node000022_Node000021" class="edge">
<title>Node22&#45;&gt;Node21</title>
<g id="a_edge45_Node000022_Node000021"><a xlink:title=" ">
<path fill="none" stroke="#63b8ff" d="M1360.38,-280.46C1344.97,-278.46 1328.39,-276.48 1313,-275 1183.79,-262.57 854.09,-277.07 730,-239 725.71,-237.68 721.38,-235.7 717.34,-233.5"/>
<polygon fill="#63b8ff" stroke="#63b8ff" points="718.94,-230.38 708.58,-228.18 715.31,-236.36 718.94,-230.38"/>
</a>
</g>
</g>
<!-- Node23 -->
<g id="Node000023" class="node">
<title>Node23</title>
<g id="a_Node000023"><a xlink:title=" ">
<polygon fill="#e0e0e0" stroke="#999999" points="1751,-228 1637,-228 1637,-209 1751,-209 1751,-228"/>
<text text-anchor="middle" x="1694" y="-216" font-family="Helvetica,sans-Serif" font-size="10.00">deal.II/base/config.h</text>
</a>
</g>
</g>
<!-- Node22&#45;&gt;Node23 -->
<g id="edge32_Node000022_Node000023" class="edge">
<title>Node22&#45;&gt;Node23</title>
<g id="a_edge32_Node000022_Node000023"><a xlink:title=" ">
<path fill="none" stroke="#63b8ff" d="M1478.73,-274.97C1519.33,-265.17 1574.53,-251.62 1623,-239 1633.02,-236.39 1643.81,-233.48 1653.87,-230.72"/>
<polygon fill="#63b8ff" stroke="#63b8ff" points="1654.93,-234.06 1663.64,-228.03 1653.07,-227.31 1654.93,-234.06"/>
</a>
</g>
</g>
<!-- Node24 -->
<g id="Node000024" class="node">
<title>Node24</title>
<g id="a_Node000024"><a xlink:title=" ">
<polygon fill="#e0e0e0" stroke="#999999" points="1955.5,-228 1806.5,-228 1806.5,-209 1955.5,-209 1955.5,-228"/>
<text text-anchor="middle" x="1881" y="-216" font-family="Helvetica,sans-Serif" font-size="10.00">deal.II/base/vectorization.h</text>
</a>
</g>
</g>
<!-- Node22&#45;&gt;Node24 -->
<g id="edge35_Node000022_Node000024" class="edge">
<title>Node22&#45;&gt;Node24</title>
<g id="a_edge35_Node000022_Node000024"><a xlink:title=" ">
<path fill="none" stroke="#63b8ff" d="M1479.67,-282.58C1553.52,-274.27 1682.99,-258.52 1793,-239 1806.87,-236.54 1821.88,-233.39 1835.49,-230.35"/>
<polygon fill="#63b8ff" stroke="#63b8ff" points="1836.62,-233.69 1845.6,-228.06 1835.07,-226.86 1836.62,-233.69"/>
</a>
</g>
</g>
<!-- Node25 -->
<g id="Node000025" class="node">
<title>Node25</title>
<g id="a_Node000025"><a xlink:title=" ">
<polygon fill="#e0e0e0" stroke="#999999" points="1175,-228 1061,-228 1061,-209 1175,-209 1175,-228"/>
<text text-anchor="middle" x="1118" y="-216" font-family="Helvetica,sans-Serif" font-size="10.00">deal.II/fe/mapping.h</text>
</a>
</g>
</g>
<!-- Node22&#45;&gt;Node25 -->
<g id="edge36_Node000022_Node000025" class="edge">
<title>Node22&#45;&gt;Node25</title>
<g id="a_edge36_Node000022_Node000025"><a xlink:title=" ">
<path fill="none" stroke="#63b8ff" d="M1360.05,-277.65C1312.17,-268.26 1243.48,-254.06 1184,-239 1174.56,-236.61 1164.44,-233.76 1155.03,-231"/>
<polygon fill="#63b8ff" stroke="#63b8ff" points="1155.75,-227.56 1145.16,-228.05 1153.74,-234.26 1155.75,-227.56"/>
</a>
</g>
</g>
<!-- Node26 -->
<g id="Node000026" class="node">
<title>Node26</title>
<g id="a_Node000026"><a xlink:title=" ">
<polygon fill="#e0e0e0" stroke="#999999" points="1312.5,-233.5 1193.5,-233.5 1193.5,-203.5 1312.5,-203.5 1312.5,-233.5"/>
<text text-anchor="start" x="1201.5" y="-221.5" font-family="Helvetica,sans-Serif" font-size="10.00">deal.II/grid/grid_tools</text>
<text text-anchor="middle" x="1253" y="-210.5" font-family="Helvetica,sans-Serif" font-size="10.00">_geometry.h</text>
</a>
</g>
</g>
<!-- Node22&#45;&gt;Node26 -->
<g id="edge37_Node000022_Node000026" class="edge">
<title>Node22&#45;&gt;Node26</title>
<g id="a_edge37_Node000022_Node000026"><a xlink:title=" ">
<path fill="none" stroke="#63b8ff" d="M1386.21,-274.94C1360.29,-264.15 1324.32,-249.18 1296.3,-237.52"/>
<polygon fill="#63b8ff" stroke="#63b8ff" points="1297.32,-234.15 1286.74,-233.54 1294.63,-240.62 1297.32,-234.15"/>
</a>
</g>
</g>
<!-- Node27 -->
<g id="Node000027" class="node">
<title>Node27</title>
<g id="a_Node000027"><a xlink:title=" ">
<polygon fill="#e0e0e0" stroke="#999999" points="1427.5,-228 1330.5,-228 1330.5,-209 1427.5,-209 1427.5,-228"/>
<text text-anchor="middle" x="1379" y="-216" font-family="Helvetica,sans-Serif" font-size="10.00">deal.II/grid/tria.h</text>
</a>
</g>
</g>
<!-- Node22&#45;&gt;Node27 -->
<g id="edge38_Node000022_Node000027" class="edge">
<title>Node22&#45;&gt;Node27</title>
<g id="a_edge38_Node000022_Node000027"><a xlink:title=" ">
<path fill="none" stroke="#63b8ff" d="M1411.7,-274.94C1405.27,-264.03 1396.31,-248.85 1389.4,-237.13"/>
<polygon fill="#63b8ff" stroke="#63b8ff" points="1392.27,-235.1 1384.17,-228.27 1386.24,-238.66 1392.27,-235.1"/>
</a>
</g>
</g>
<!-- Node22&#45;&gt;Node28 -->
<g id="edge39_Node000022_Node000028" class="edge">
<title>Node22&#45;&gt;Node28</title>
<g id="a_edge39_Node000022_Node000028"><a xlink:title=" ">
<path fill="none" stroke="#63b8ff" d="M1479.6,-286.25C1601.41,-280.18 1874.98,-264.16 1965,-239 1970.58,-237.44 1976.32,-235.12 1981.66,-232.62"/>
<polygon fill="#63b8ff" stroke="#63b8ff" points="1983.35,-235.69 1990.69,-228.05 1980.18,-229.44 1983.35,-235.69"/>
</a>
</g>
</g>
<!-- Node29 -->
<g id="Node000029" class="node">
<title>Node29</title>
<g id="a_Node000029"><a xlink:title=" ">
<polygon fill="#e0e0e0" stroke="#999999" points="1476.5,-228 1445.5,-228 1445.5,-209 1476.5,-209 1476.5,-228"/>
<text text-anchor="middle" x="1461" y="-216" font-family="Helvetica,sans-Serif" font-size="10.00">ios</text>
</a>
</g>
</g>
<!-- Node22&#45;&gt;Node29 -->
<g id="edge41_Node000022_Node000029" class="edge">
<title>Node22&#45;&gt;Node29</title>
<g id="a_edge41_Node000022_Node000029"><a xlink:title=" ">
<path fill="none" stroke="#63b8ff" d="M1428.3,-274.94C1434.73,-264.03 1443.69,-248.85 1450.6,-237.13"/>
<polygon fill="#63b8ff" stroke="#63b8ff" points="1453.76,-238.66 1455.83,-228.27 1447.73,-235.1 1453.76,-238.66"/>
</a>
</g>
</g>
<!-- Node30 -->
<g id="Node000030" class="node">
<title>Node30</title>
<g id="a_Node000030"><a xlink:title=" ">
<polygon fill="#e0e0e0" stroke="#999999" points="1581,-228 1495,-228 1495,-209 1581,-209 1581,-228"/>
<text text-anchor="middle" x="1538" y="-216" font-family="Helvetica,sans-Serif" font-size="10.00">unordered_set</text>
</a>
</g>
</g>
<!-- Node22&#45;&gt;Node30 -->
<g id="edge44_Node000022_Node000030" class="edge">
<title>Node22&#45;&gt;Node30</title>
<g id="a_edge44_Node000022_Node000030"><a xlink:title=" ">
<path fill="none" stroke="#63b8ff" d="M1443.88,-274.94C1464.55,-262.76 1494.27,-245.26 1514.76,-233.19"/>
<polygon fill="#63b8ff" stroke="#63b8ff" points="1516.61,-236.16 1523.45,-228.07 1513.06,-230.13 1516.61,-236.16"/>
</a>
</g>
</g>
</g>
</svg>
