<?xml version="1.0" encoding="UTF-8" standalone="no"?>
<!DOCTYPE svg PUBLIC "-//W3C//DTD SVG 1.1//EN"
 "http://www.w3.org/Graphics/SVG/1.1/DTD/svg11.dtd">
<!-- Generated by graphviz version 2.43.0 (0)
 -->
<!-- Title: source/heat/laser_heat_source_volumetric.cpp Pages: 1 -->
<!--zoomable 368 -->

<svg id="main" version="1.1" xmlns="http://www.w3.org/2000/svg" xmlns:xlink="http://www.w3.org/1999/xlink" xml:space="preserve" onload="init(evt)">
<style type="text/css"><![CDATA[
.node, .edge {opacity: 0.7;}
.node.selected, .edge.selected {opacity: 1;}
.edge:hover path { stroke: red; }
.edge:hover polygon { stroke: red; fill: red; }
]]></style>

<defs>
  <circle id="rim" cx="0" cy="0" r="7"/>
  <circle id="rim2" cx="0" cy="0" r="3.5"/>
  <g id="zoomPlus">
    <use xlink:href="#rim" fill="#404040"><set attributeName="fill" to="#808080" begin="zoomplus.mouseover" end="zoomplus.mouseout"/></use>
    <path d="M-4,0h8M0,-4v8" fill="none" stroke="white" stroke-width="1.5" pointer-events="none"/>
  </g>
  <g id="zoomMin">
    <use xlink:href="#rim" fill="#404040"><set attributeName="fill" to="#808080" begin="zoomminus.mouseover" end="zoomminus.mouseout"/></use>
    <path d="M-4,0h8" fill="none" stroke="white" stroke-width="1.5" pointer-events="none"/>
  </g>
  <g id="arrowUp" transform="translate(30 24)">
    <use xlink:href="#rim"/>
    <path pointer-events="none" fill="none" stroke="white" stroke-width="1.5" d="M0,-3.0v7 M-2.5,-0.5L0,-3.0L2.5,-0.5"/>
  </g>
  <g id="arrowRight" transform="rotate(90) translate(36 -43)">
    <use xlink:href="#rim"/>
    <path pointer-events="none" fill="none" stroke="white" stroke-width="1.5" d="M0,-3.0v7 M-2.5,-0.5L0,-3.0L2.5,-0.5"/>
  </g>
  <g id="arrowDown" transform="rotate(180) translate(-30 -48)">
    <use xlink:href="#rim"/>
    <path pointer-events="none" fill="none" stroke="white" stroke-width="1.5" d="M0,-3.0v7 M-2.5,-0.5L0,-3.0L2.5,-0.5"/>
  </g>
  <g id="arrowLeft" transform="rotate(270) translate(-36 17)">
    <use xlink:href="#rim"/>
    <path pointer-events="none" fill="none" stroke="white" stroke-width="1.5" d="M0,-3.0v7 M-2.5,-0.5L0,-3.0L2.5,-0.5"/>
  </g>
  <g id="resetDef">
    <use xlink:href="#rim2" fill="#404040"><set attributeName="fill" to="#808080" begin="reset.mouseover" end="reset.mouseout"/></use>
  </g>
</defs>
<script type="application/ecmascript">
var viewWidth = 2461;
var viewHeight = 368;
var sectionId = 'dynsection-0';
</script>
<script type="application/ecmascript" xlink:href="svg.min.js"/>
<svg id="graph" class="graph">
<g id="viewport">
<title>source/heat/laser_heat_source_volumetric.cpp</title>
<!-- Node1 -->
<g id="Node000001" class="node">
<title>Node1</title>
<g id="a_Node000001"><a xlink:title=" ">
<polygon fill="#999999" stroke="#666666" points="2241,-360 2109,-360 2109,-330 2241,-330 2241,-360"/>
<text text-anchor="start" x="2117" y="-348" font-family="Helvetica,sans-Serif" font-size="10.00">source/heat/laser_heat</text>
<text text-anchor="middle" x="2175" y="-337" font-family="Helvetica,sans-Serif" font-size="10.00">_source_volumetric.cpp</text>
</a>
</g>
</g>
<!-- Node2 -->
<g id="Node000002" class="node">
<title>Node2</title>
<g id="a_Node000002"><a xlink:title=" ">
<polygon fill="#e0e0e0" stroke="#999999" points="138,-156.5 0,-156.5 0,-137.5 138,-137.5 138,-156.5"/>
<text text-anchor="middle" x="69" y="-144.5" font-family="Helvetica,sans-Serif" font-size="10.00">deal.II/base/quadrature.h</text>
</a>
</g>
</g>
<!-- Node1&#45;&gt;Node2 -->
<g id="edge1_Node000001_Node000002" class="edge">
<title>Node1&#45;&gt;Node2</title>
<g id="a_edge1_Node000001_Node000002"><a xlink:title=" ">
<path fill="none" stroke="#63b8ff" d="M2108.81,-342.91C1941.81,-339.72 1489.96,-328.34 1115,-294 682.61,-254.4 575.89,-229.7 147,-162 139.81,-160.86 132.25,-159.6 124.79,-158.31"/>
<polygon fill="#63b8ff" stroke="#63b8ff" points="125.18,-154.82 114.73,-156.54 123.97,-161.72 125.18,-154.82"/>
</a>
</g>
</g>
<!-- Node3 -->
<g id="Node000003" class="node">
<title>Node3</title>
<g id="a_Node000003"><a xlink:title=" ">
<polygon fill="#e0e0e0" stroke="#999999" points="2315,-288.5 2203,-288.5 2203,-269.5 2315,-269.5 2315,-288.5"/>
<text text-anchor="middle" x="2259" y="-276.5" font-family="Helvetica,sans-Serif" font-size="10.00">deal.II/base/types.h</text>
</a>
</g>
</g>
<!-- Node1&#45;&gt;Node3 -->
<g id="edge2_Node000001_Node000003" class="edge">
<title>Node1&#45;&gt;Node3</title>
<g id="a_edge2_Node000001_Node000003"><a xlink:title=" ">
<path fill="none" stroke="#63b8ff" d="M2193.64,-329.8C2207.12,-319.53 2225.31,-305.67 2239.08,-295.18"/>
<polygon fill="#63b8ff" stroke="#63b8ff" points="2241.56,-297.69 2247.39,-288.84 2237.32,-292.12 2241.56,-297.69"/>
</a>
</g>
</g>
<!-- Node4 -->
<g id="Node000004" class="node">
<title>Node4</title>
<g id="a_Node000004"><a xlink:title=" ">
<polygon fill="#e0e0e0" stroke="#999999" points="2452.5,-288.5 2333.5,-288.5 2333.5,-269.5 2452.5,-269.5 2452.5,-288.5"/>
<text text-anchor="middle" x="2393" y="-276.5" font-family="Helvetica,sans-Serif" font-size="10.00">deal.II/fe/fe_values.h</text>
</a>
</g>
</g>
<!-- Node1&#45;&gt;Node4 -->
<g id="edge3_Node000001_Node000004" class="edge">
<title>Node1&#45;&gt;Node4</title>
<g id="a_edge3_Node000001_Node000004"><a xlink:title=" ">
<path fill="none" stroke="#63b8ff" d="M2222.84,-329.95C2262.25,-318.38 2317.43,-302.18 2354.15,-291.41"/>
<polygon fill="#63b8ff" stroke="#63b8ff" points="2355.38,-294.69 2363.99,-288.52 2353.41,-287.98 2355.38,-294.69"/>
</a>
</g>
</g>
<!-- Node5 -->
<g id="Node000005" class="node">
<title>Node5</title>
<g id="a_Node000005"><a xlink:href="laser__heat__source__volumetric_8hpp.html" target="_top" xlink:title=" ">
<polygon fill="white" stroke="#666666" points="1284,-294 1124,-294 1124,-264 1284,-264 1284,-294"/>
<text text-anchor="start" x="1132" y="-282" font-family="Helvetica,sans-Serif" font-size="10.00">meltpooldg/heat/laser</text>
<text text-anchor="middle" x="1204" y="-271" font-family="Helvetica,sans-Serif" font-size="10.00">_heat_source_volumetric.hpp</text>
</a>
</g>
</g>
<!-- Node1&#45;&gt;Node5 -->
<g id="edge4_Node000001_Node000005" class="edge">
<title>Node1&#45;&gt;Node5</title>
<g id="a_edge4_Node000001_Node000005"><a xlink:title=" ">
<path fill="none" stroke="#63b8ff" d="M2108.64,-339.63C1938.69,-328.42 1487.59,-298.69 1294.15,-285.94"/>
<polygon fill="#63b8ff" stroke="#63b8ff" points="1294.22,-282.44 1284.02,-285.27 1293.76,-289.42 1294.22,-282.44"/>
</a>
</g>
</g>
<!-- Node39 -->
<g id="Node000039" class="node">
<title>Node39</title>
<g id="a_Node000039"><a xlink:title=" ">
<polygon fill="#e0e0e0" stroke="#999999" points="2160.5,-90.5 2113.5,-90.5 2113.5,-71.5 2160.5,-71.5 2160.5,-90.5"/>
<text text-anchor="middle" x="2137" y="-78.5" font-family="Helvetica,sans-Serif" font-size="10.00">vector</text>
</a>
</g>
</g>
<!-- Node1&#45;&gt;Node39 -->
<g id="edge53_Node000001_Node000039" class="edge">
<title>Node1&#45;&gt;Node39</title>
<g id="a_edge53_Node000001_Node000039"><a xlink:title=" ">
<path fill="none" stroke="#63b8ff" d="M2172.96,-329.91C2166.56,-285.84 2146.94,-150.52 2139.71,-100.68"/>
<polygon fill="#63b8ff" stroke="#63b8ff" points="2143.16,-100.07 2138.26,-90.68 2136.23,-101.07 2143.16,-100.07"/>
</a>
</g>
</g>
<!-- Node6 -->
<g id="Node000006" class="node">
<title>Node6</title>
<g id="a_Node000006"><a xlink:title=" ">
<polygon fill="#e0e0e0" stroke="#999999" points="1080.5,-222.5 955.5,-222.5 955.5,-203.5 1080.5,-203.5 1080.5,-222.5"/>
<text text-anchor="middle" x="1018" y="-210.5" font-family="Helvetica,sans-Serif" font-size="10.00">deal.II/base/function.h</text>
</a>
</g>
</g>
<!-- Node5&#45;&gt;Node6 -->
<g id="edge5_Node000005_Node000006" class="edge">
<title>Node5&#45;&gt;Node6</title>
<g id="a_edge5_Node000005_Node000006"><a xlink:title=" ">
<path fill="none" stroke="#63b8ff" d="M1163.18,-263.95C1129.99,-252.53 1083.68,-236.6 1052.36,-225.82"/>
<polygon fill="#63b8ff" stroke="#63b8ff" points="1053.35,-222.46 1042.75,-222.52 1051.07,-229.08 1053.35,-222.46"/>
</a>
</g>
</g>
<!-- Node7 -->
<g id="Node000007" class="node">
<title>Node7</title>
<g id="a_Node000007"><a xlink:title=" ">
<polygon fill="#e0e0e0" stroke="#999999" points="274,-162 156,-162 156,-132 274,-132 274,-162"/>
<text text-anchor="start" x="164" y="-150" font-family="Helvetica,sans-Serif" font-size="10.00">deal.II/lac/la_parallel</text>
<text text-anchor="middle" x="215" y="-139" font-family="Helvetica,sans-Serif" font-size="10.00">_vector.h</text>
</a>
</g>
</g>
<!-- Node5&#45;&gt;Node7 -->
<g id="edge6_Node000005_Node000007" class="edge">
<title>Node5&#45;&gt;Node7</title>
<g id="a_edge6_Node000005_Node000007"><a xlink:title=" ">
<path fill="none" stroke="#63b8ff" d="M1181.76,-263.98C1166.45,-254.18 1145.75,-240.64 1128,-228 1110.19,-215.32 1109.54,-205.5 1089,-198 923.55,-137.58 476.99,-182.51 284.34,-161.94"/>
<polygon fill="#63b8ff" stroke="#63b8ff" points="284.58,-158.45 274.25,-160.77 283.78,-165.4 284.58,-158.45"/>
</a>
</g>
</g>
<!-- Node8 -->
<g id="Node000008" class="node">
<title>Node8</title>
<g id="a_Node000008"><a xlink:href="scratch__data_8hpp.html" target="_top" xlink:title=" ">
<polygon fill="white" stroke="#666666" points="1271,-228 1137,-228 1137,-198 1271,-198 1271,-228"/>
<text text-anchor="start" x="1145" y="-216" font-family="Helvetica,sans-Serif" font-size="10.00">meltpooldg/core/scratch</text>
<text text-anchor="middle" x="1204" y="-205" font-family="Helvetica,sans-Serif" font-size="10.00">_data.hpp</text>
</a>
</g>
</g>
<!-- Node5&#45;&gt;Node8 -->
<g id="edge7_Node000005_Node000008" class="edge">
<title>Node5&#45;&gt;Node8</title>
<g id="a_edge7_Node000005_Node000008"><a xlink:title=" ">
<path fill="none" stroke="#63b8ff" d="M1204,-263.8C1204,-256.34 1204,-246.99 1204,-238.41"/>
<polygon fill="#63b8ff" stroke="#63b8ff" points="1207.5,-238.16 1204,-228.16 1200.5,-238.16 1207.5,-238.16"/>
</a>
</g>
</g>
<!-- Node37 -->
<g id="Node000037" class="node">
<title>Node37</title>
<g id="a_Node000037"><a xlink:title=" ">
<polygon fill="#e0e0e0" stroke="#999999" points="2033,-90.5 1975,-90.5 1975,-71.5 2033,-71.5 2033,-90.5"/>
<text text-anchor="middle" x="2004" y="-78.5" font-family="Helvetica,sans-Serif" font-size="10.00">memory</text>
</a>
</g>
</g>
<!-- Node5&#45;&gt;Node37 -->
<g id="edge52_Node000005_Node000037" class="edge">
<title>Node5&#45;&gt;Node37</title>
<g id="a_edge52_Node000005_Node000037"><a xlink:title=" ">
<path fill="none" stroke="#63b8ff" d="M1284.27,-272.81C1484.31,-259.05 1992.53,-218.79 2042,-162 2058.73,-142.8 2037.9,-114.95 2021.12,-97.69"/>
<polygon fill="#63b8ff" stroke="#63b8ff" points="2023.43,-95.06 2013.84,-90.57 2018.54,-100.06 2023.43,-95.06"/>
</a>
</g>
</g>
<!-- Node8&#45;&gt;Node2 -->
<g id="edge12_Node000008_Node000002" class="edge">
<title>Node8&#45;&gt;Node2</title>
<g id="a_edge12_Node000008_Node000002"><a xlink:title=" ">
<path fill="none" stroke="#63b8ff" d="M1136.9,-202.88C1121.21,-201.01 1104.54,-199.24 1089,-198 671.36,-164.66 563.54,-207.12 147,-162 138.45,-161.07 129.42,-159.76 120.66,-158.31"/>
<polygon fill="#63b8ff" stroke="#63b8ff" points="120.99,-154.82 110.54,-156.56 119.8,-161.72 120.99,-154.82"/>
</a>
</g>
</g>
<!-- Node8&#45;&gt;Node7 -->
<g id="edge21_Node000008_Node000007" class="edge">
<title>Node8&#45;&gt;Node7</title>
<g id="a_edge21_Node000008_Node000007"><a xlink:title=" ">
<path fill="none" stroke="#63b8ff" d="M1136.91,-199.72C1132.21,-199.07 1127.54,-198.49 1123,-198 754.73,-158.45 655.59,-206.96 284.19,-162"/>
<polygon fill="#63b8ff" stroke="#63b8ff" points="284.6,-158.52 274.25,-160.78 283.75,-165.47 284.6,-158.52"/>
</a>
</g>
</g>
<!-- Node9 -->
<g id="Node000009" class="node">
<title>Node9</title>
<g id="a_Node000009"><a xlink:title=" ">
<polygon fill="#e0e0e0" stroke="#999999" points="1603.5,-162 1500.5,-162 1500.5,-132 1603.5,-132 1603.5,-162"/>
<text text-anchor="start" x="1508.5" y="-150" font-family="Helvetica,sans-Serif" font-size="10.00">deal.II/base/index</text>
<text text-anchor="middle" x="1552" y="-139" font-family="Helvetica,sans-Serif" font-size="10.00">_set.h</text>
</a>
</g>
</g>
<!-- Node8&#45;&gt;Node9 -->
<g id="edge8_Node000008_Node000009" class="edge">
<title>Node8&#45;&gt;Node9</title>
<g id="a_edge8_Node000008_Node000009"><a xlink:title=" ">
<path fill="none" stroke="#63b8ff" d="M1271.07,-200.76C1328.28,-191.02 1412.67,-176.27 1486,-162 1487.29,-161.75 1488.6,-161.49 1489.92,-161.23"/>
<polygon fill="#63b8ff" stroke="#63b8ff" points="1491.04,-164.58 1500.15,-159.17 1489.66,-157.71 1491.04,-164.58"/>
</a>
</g>
</g>
<!-- Node10 -->
<g id="Node000010" class="node">
<title>Node10</title>
<g id="a_Node000010"><a xlink:title=" ">
<polygon fill="#e0e0e0" stroke="#999999" points="1726,-156.5 1622,-156.5 1622,-137.5 1726,-137.5 1726,-156.5"/>
<text text-anchor="middle" x="1674" y="-144.5" font-family="Helvetica,sans-Serif" font-size="10.00">deal.II/base/mpi.h</text>
</a>
</g>
</g>
<!-- Node8&#45;&gt;Node10 -->
<g id="edge9_Node000008_Node000010" class="edge">
<title>Node8&#45;&gt;Node10</title>
<g id="a_edge9_Node000008_Node000010"><a xlink:title=" ">
<path fill="none" stroke="#63b8ff" d="M1271.09,-205.86C1352.19,-197.96 1492.65,-182.73 1612,-162 1617.5,-161.04 1623.26,-159.92 1628.94,-158.73"/>
<polygon fill="#63b8ff" stroke="#63b8ff" points="1630.01,-162.08 1639.04,-156.54 1628.52,-155.24 1630.01,-162.08"/>
</a>
</g>
</g>
<!-- Node11 -->
<g id="Node000011" class="node">
<title>Node11</title>
<g id="a_Node000011"><a xlink:title=" ">
<polygon fill="#e0e0e0" stroke="#999999" points="1879.5,-162 1744.5,-162 1744.5,-132 1879.5,-132 1879.5,-162"/>
<text text-anchor="start" x="1752.5" y="-150" font-family="Helvetica,sans-Serif" font-size="10.00">deal.II/base/mpi_remote</text>
<text text-anchor="middle" x="1812" y="-139" font-family="Helvetica,sans-Serif" font-size="10.00">_point_evaluation.h</text>
</a>
</g>
</g>
<!-- Node8&#45;&gt;Node11 -->
<g id="edge10_Node000008_Node000011" class="edge">
<title>Node8&#45;&gt;Node11</title>
<g id="a_edge10_Node000008_Node000011"><a xlink:title=" ">
<path fill="none" stroke="#63b8ff" d="M1271.27,-207.53C1370.35,-200.53 1561.51,-185.46 1734.4,-162"/>
<polygon fill="#63b8ff" stroke="#63b8ff" points="1735.01,-165.45 1744.45,-160.62 1734.06,-158.51 1735.01,-165.45"/>
</a>
</g>
</g>
<!-- Node12 -->
<g id="Node000012" class="node">
<title>Node12</title>
<g id="a_Node000012"><a xlink:title=" ">
<polygon fill="#e0e0e0" stroke="#999999" points="2032.5,-156.5 1897.5,-156.5 1897.5,-137.5 2032.5,-137.5 2032.5,-156.5"/>
<text text-anchor="middle" x="1965" y="-144.5" font-family="Helvetica,sans-Serif" font-size="10.00">deal.II/base/partitioner.h</text>
</a>
</g>
</g>
<!-- Node8&#45;&gt;Node12 -->
<g id="edge11_Node000008_Node000012" class="edge">
<title>Node8&#45;&gt;Node12</title>
<g id="a_edge11_Node000008_Node000012"><a xlink:title=" ">
<path fill="none" stroke="#63b8ff" d="M1271.23,-209.47C1394.1,-204.32 1662.99,-190.6 1888,-162 1896.05,-160.98 1904.53,-159.67 1912.81,-158.27"/>
<polygon fill="#63b8ff" stroke="#63b8ff" points="1913.52,-161.7 1922.76,-156.52 1912.31,-154.8 1913.52,-161.7"/>
</a>
</g>
</g>
<!-- Node13 -->
<g id="Node000013" class="node">
<title>Node13</title>
<g id="a_Node000013"><a xlink:title=" ">
<polygon fill="#e0e0e0" stroke="#999999" points="560,-156.5 450,-156.5 450,-137.5 560,-137.5 560,-156.5"/>
<text text-anchor="middle" x="505" y="-144.5" font-family="Helvetica,sans-Serif" font-size="10.00">deal.II/base/timer.h</text>
</a>
</g>
</g>
<!-- Node8&#45;&gt;Node13 -->
<g id="edge13_Node000008_Node000013" class="edge">
<title>Node8&#45;&gt;Node13</title>
<g id="a_edge13_Node000008_Node000013"><a xlink:title=" ">
<path fill="none" stroke="#63b8ff" d="M1136.9,-199.84C1132.2,-199.16 1127.53,-198.54 1123,-198 877.97,-168.95 813.32,-196.46 569,-162 562.64,-161.1 555.98,-159.92 549.45,-158.62"/>
<polygon fill="#63b8ff" stroke="#63b8ff" points="549.88,-155.14 539.37,-156.51 548.44,-161.99 549.88,-155.14"/>
</a>
</g>
</g>
<!-- Node14 -->
<g id="Node000014" class="node">
<title>Node14</title>
<g id="a_Node000014"><a xlink:title=" ">
<polygon fill="#e0e0e0" stroke="#999999" points="1901.5,-24.5 1752.5,-24.5 1752.5,-5.5 1901.5,-5.5 1901.5,-24.5"/>
<text text-anchor="middle" x="1827" y="-12.5" font-family="Helvetica,sans-Serif" font-size="10.00">deal.II/base/vectorization.h</text>
</a>
</g>
</g>
<!-- Node8&#45;&gt;Node14 -->
<g id="edge14_Node000008_Node000014" class="edge">
<title>Node8&#45;&gt;Node14</title>
<g id="a_edge14_Node000008_Node000014"><a xlink:title=" ">
<path fill="none" stroke="#63b8ff" d="M1271.17,-210.48C1465.41,-205.75 2015.69,-189.93 2042,-162 2071.26,-130.94 2068.53,-99.41 2042,-66 2025.6,-45.35 1964.69,-32.45 1911.87,-24.94"/>
<polygon fill="#63b8ff" stroke="#63b8ff" points="1912.16,-21.44 1901.77,-23.55 1911.21,-28.38 1912.16,-21.44"/>
</a>
</g>
</g>
<!-- Node15 -->
<g id="Node000015" class="node">
<title>Node15</title>
<g id="a_Node000015"><a xlink:title=" ">
<polygon fill="#e0e0e0" stroke="#999999" points="689,-90.5 549,-90.5 549,-71.5 689,-71.5 689,-90.5"/>
<text text-anchor="middle" x="619" y="-78.5" font-family="Helvetica,sans-Serif" font-size="10.00">deal.II/dofs/dof_handler.h</text>
</a>
</g>
</g>
<!-- Node8&#45;&gt;Node15 -->
<g id="edge15_Node000008_Node000015" class="edge">
<title>Node8&#45;&gt;Node15</title>
<g id="a_edge15_Node000008_Node000015"><a xlink:title=" ">
<path fill="none" stroke="#63b8ff" d="M1160.31,-197.91C1136.74,-189.31 1107.71,-177.08 1084,-162 1067.27,-151.37 1069.1,-140.08 1051,-132 906.99,-67.73 854.19,-117.77 698,-96 690.24,-94.92 682.08,-93.64 674.06,-92.29"/>
<polygon fill="#63b8ff" stroke="#63b8ff" points="674.48,-88.81 664.03,-90.57 673.29,-95.71 674.48,-88.81"/>
</a>
</g>
</g>
<!-- Node16 -->
<g id="Node000016" class="node">
<title>Node16</title>
<g id="a_Node000016"><a xlink:title=" ">
<polygon fill="#e0e0e0" stroke="#999999" points="659.5,-156.5 578.5,-156.5 578.5,-137.5 659.5,-137.5 659.5,-156.5"/>
<text text-anchor="middle" x="619" y="-144.5" font-family="Helvetica,sans-Serif" font-size="10.00">deal.II/fe/fe.h</text>
</a>
</g>
</g>
<!-- Node8&#45;&gt;Node16 -->
<g id="edge16_Node000008_Node000016" class="edge">
<title>Node8&#45;&gt;Node16</title>
<g id="a_edge16_Node000008_Node000016"><a xlink:title=" ">
<path fill="none" stroke="#63b8ff" d="M1136.89,-199.91C1132.19,-199.22 1127.53,-198.57 1123,-198 922.17,-172.74 868.28,-197.45 669,-162 664.59,-161.21 660,-160.21 655.48,-159.09"/>
<polygon fill="#63b8ff" stroke="#63b8ff" points="656.33,-155.7 645.77,-156.53 654.54,-162.46 656.33,-155.7"/>
</a>
</g>
</g>
<!-- Node17 -->
<g id="Node000017" class="node">
<title>Node17</title>
<g id="a_Node000017"><a xlink:title=" ">
<polygon fill="#e0e0e0" stroke="#999999" points="792,-156.5 678,-156.5 678,-137.5 792,-137.5 792,-156.5"/>
<text text-anchor="middle" x="735" y="-144.5" font-family="Helvetica,sans-Serif" font-size="10.00">deal.II/fe/mapping.h</text>
</a>
</g>
</g>
<!-- Node8&#45;&gt;Node17 -->
<g id="edge17_Node000008_Node000017" class="edge">
<title>Node8&#45;&gt;Node17</title>
<g id="a_edge17_Node000008_Node000017"><a xlink:title=" ">
<path fill="none" stroke="#63b8ff" d="M1136.87,-200.08C1132.18,-199.34 1127.52,-198.64 1123,-198 980.43,-177.73 943.16,-184.97 801,-162 794.85,-161.01 788.41,-159.82 782.07,-158.57"/>
<polygon fill="#63b8ff" stroke="#63b8ff" points="782.73,-155.13 772.23,-156.56 781.33,-161.99 782.73,-155.13"/>
</a>
</g>
</g>
<!-- Node18 -->
<g id="Node000018" class="node">
<title>Node18</title>
<g id="a_Node000018"><a xlink:title=" ">
<polygon fill="#e0e0e0" stroke="#999999" points="804.5,-90.5 707.5,-90.5 707.5,-71.5 804.5,-71.5 804.5,-90.5"/>
<text text-anchor="middle" x="756" y="-78.5" font-family="Helvetica,sans-Serif" font-size="10.00">deal.II/grid/tria.h</text>
</a>
</g>
</g>
<!-- Node8&#45;&gt;Node18 -->
<g id="edge18_Node000008_Node000018" class="edge">
<title>Node8&#45;&gt;Node18</title>
<g id="a_edge18_Node000008_Node000018"><a xlink:title=" ">
<path fill="none" stroke="#63b8ff" d="M1181.97,-197.97C1166.5,-188.05 1145.38,-174.37 1127,-162 1107.67,-148.99 1105.72,-140.44 1084,-132 970.75,-87.99 932.4,-118.52 813,-96 808.18,-95.09 803.17,-94.03 798.19,-92.91"/>
<polygon fill="#63b8ff" stroke="#63b8ff" points="798.66,-89.42 788.12,-90.54 797.05,-96.23 798.66,-89.42"/>
</a>
</g>
</g>
<!-- Node19 -->
<g id="Node000019" class="node">
<title>Node19</title>
<g id="a_Node000019"><a xlink:title=" ">
<polygon fill="#e0e0e0" stroke="#999999" points="905.5,-162 810.5,-162 810.5,-132 905.5,-132 905.5,-162"/>
<text text-anchor="start" x="818.5" y="-150" font-family="Helvetica,sans-Serif" font-size="10.00">deal.II/lac/affine</text>
<text text-anchor="middle" x="858" y="-139" font-family="Helvetica,sans-Serif" font-size="10.00">_constraints.h</text>
</a>
</g>
</g>
<!-- Node8&#45;&gt;Node19 -->
<g id="edge19_Node000008_Node000019" class="edge">
<title>Node8&#45;&gt;Node19</title>
<g id="a_edge19_Node000008_Node000019"><a xlink:title=" ">
<path fill="none" stroke="#63b8ff" d="M1136.65,-200.36C1062.63,-187.57 950.42,-168.17 915.55,-161.83"/>
<polygon fill="#63b8ff" stroke="#63b8ff" points="916.01,-158.35 905.53,-159.94 914.71,-165.23 916.01,-158.35"/>
</a>
</g>
</g>
<!-- Node20 -->
<g id="Node000020" class="node">
<title>Node20</title>
<g id="a_Node000020"><a xlink:title=" ">
<polygon fill="#e0e0e0" stroke="#999999" points="1042,-162 924,-162 924,-132 1042,-132 1042,-162"/>
<text text-anchor="start" x="932" y="-150" font-family="Helvetica,sans-Serif" font-size="10.00">deal.II/lac/la_parallel</text>
<text text-anchor="middle" x="983" y="-139" font-family="Helvetica,sans-Serif" font-size="10.00">_block_vector.h</text>
</a>
</g>
</g>
<!-- Node8&#45;&gt;Node20 -->
<g id="edge20_Node000008_Node000020" class="edge">
<title>Node8&#45;&gt;Node20</title>
<g id="a_edge20_Node000008_Node000020"><a xlink:title=" ">
<path fill="none" stroke="#63b8ff" d="M1155.5,-197.95C1121.82,-188.2 1076.78,-175.16 1041.16,-164.84"/>
<polygon fill="#63b8ff" stroke="#63b8ff" points="1041.97,-161.43 1031.39,-162.01 1040.02,-168.16 1041.97,-161.43"/>
</a>
</g>
</g>
<!-- Node21 -->
<g id="Node000021" class="node">
<title>Node21</title>
<g id="a_Node000021"><a xlink:title=" ">
<polygon fill="#e0e0e0" stroke="#999999" points="929.5,-96 822.5,-96 822.5,-66 929.5,-66 929.5,-96"/>
<text text-anchor="start" x="830.5" y="-84" font-family="Helvetica,sans-Serif" font-size="10.00">deal.II/matrix_free</text>
<text text-anchor="middle" x="876" y="-73" font-family="Helvetica,sans-Serif" font-size="10.00">/matrix_free.h</text>
</a>
</g>
</g>
<!-- Node8&#45;&gt;Node21 -->
<g id="edge22_Node000008_Node000021" class="edge">
<title>Node8&#45;&gt;Node21</title>
<g id="a_edge22_Node000008_Node000021"><a xlink:title=" ">
<path fill="none" stroke="#63b8ff" d="M1228.24,-197.98C1253.5,-181.66 1286.82,-154.12 1267,-132 1219.97,-79.53 1027.25,-105.71 939.68,-95.72"/>
<polygon fill="#63b8ff" stroke="#63b8ff" points="939.92,-92.22 929.54,-94.32 938.96,-99.16 939.92,-92.22"/>
</a>
</g>
</g>
<!-- Node22 -->
<g id="Node000022" class="node">
<title>Node22</title>
<g id="a_Node000022"><a xlink:href="util_8hpp.html" target="_top" xlink:title=" ">
<polygon fill="white" stroke="#666666" points="1444,-156.5 1314,-156.5 1314,-137.5 1444,-137.5 1444,-156.5"/>
<text text-anchor="middle" x="1379" y="-144.5" font-family="Helvetica,sans-Serif" font-size="10.00">meltpooldg/cut/util.hpp</text>
</a>
</g>
</g>
<!-- Node8&#45;&gt;Node22 -->
<g id="edge23_Node000008_Node000022" class="edge">
<title>Node8&#45;&gt;Node22</title>
<g id="a_edge23_Node000008_Node000022"><a xlink:title=" ">
<path fill="none" stroke="#63b8ff" d="M1242.4,-197.95C1273.5,-186.58 1316.83,-170.74 1346.29,-159.96"/>
<polygon fill="#63b8ff" stroke="#63b8ff" points="1347.52,-163.24 1355.71,-156.52 1345.12,-156.66 1347.52,-163.24"/>
</a>
</g>
</g>
<!-- Node8&#45;&gt;Node37 -->
<g id="edge50_Node000008_Node000037" class="edge">
<title>Node8&#45;&gt;Node37</title>
<g id="a_edge50_Node000008_Node000037"><a xlink:title=" ">
<path fill="none" stroke="#63b8ff" d="M1271.12,-207.09C1322.8,-201.32 1394.97,-188.84 1453,-162 1472.53,-152.97 1470.95,-139.82 1491,-132 1687.82,-55.2 1758.38,-140.09 1965,-96 1967.84,-95.39 1970.75,-94.63 1973.64,-93.78"/>
<polygon fill="#63b8ff" stroke="#63b8ff" points="1974.85,-97.07 1983.25,-90.61 1972.66,-90.42 1974.85,-97.07"/>
</a>
</g>
</g>
<!-- Node8&#45;&gt;Node39 -->
<g id="edge51_Node000008_Node000039" class="edge">
<title>Node8&#45;&gt;Node39</title>
<g id="a_edge51_Node000008_Node000039"><a xlink:title=" ">
<path fill="none" stroke="#63b8ff" d="M1271.1,-211.33C1462.96,-208.97 2004.59,-199.05 2075,-162 2100.7,-148.47 2119.06,-119.06 2128.85,-99.92"/>
<polygon fill="#63b8ff" stroke="#63b8ff" points="2132.08,-101.27 2133.28,-90.74 2125.78,-98.22 2132.08,-101.27"/>
</a>
</g>
</g>
<!-- Node40 -->
<g id="Node000040" class="node">
<title>Node40</title>
<g id="a_Node000040"><a xlink:href="conditional__ostream_8hpp.html" target="_top" xlink:title=" ">
<polygon fill="white" stroke="#666666" points="432,-162 292,-162 292,-132 432,-132 432,-162"/>
<text text-anchor="start" x="300" y="-150" font-family="Helvetica,sans-Serif" font-size="10.00">meltpooldg/utilities</text>
<text text-anchor="middle" x="362" y="-139" font-family="Helvetica,sans-Serif" font-size="10.00">/conditional_ostream.hpp</text>
</a>
</g>
</g>
<!-- Node8&#45;&gt;Node40 -->
<g id="edge46_Node000008_Node000040" class="edge">
<title>Node8&#45;&gt;Node40</title>
<g id="a_edge46_Node000008_Node000040"><a xlink:title=" ">
<path fill="none" stroke="#63b8ff" d="M1136.9,-199.77C1132.21,-199.11 1127.54,-198.51 1123,-198 824.75,-164.47 744.36,-195.83 442.52,-162.07"/>
<polygon fill="#63b8ff" stroke="#63b8ff" points="442.48,-158.54 432.15,-160.89 441.69,-165.5 442.48,-158.54"/>
</a>
</g>
</g>
<!-- Node42 -->
<g id="Node000042" class="node">
<title>Node42</title>
<g id="a_Node000042"><a xlink:title=" ">
<polygon fill="#e0e0e0" stroke="#999999" points="1201.5,-156.5 1136.5,-156.5 1136.5,-137.5 1201.5,-137.5 1201.5,-156.5"/>
<text text-anchor="middle" x="1169" y="-144.5" font-family="Helvetica,sans-Serif" font-size="10.00">functional</text>
</a>
</g>
</g>
<!-- Node8&#45;&gt;Node42 -->
<g id="edge48_Node000008_Node000042" class="edge">
<title>Node8&#45;&gt;Node42</title>
<g id="a_edge48_Node000008_Node000042"><a xlink:title=" ">
<path fill="none" stroke="#63b8ff" d="M1196.23,-197.8C1191.04,-188.31 1184.18,-175.76 1178.64,-165.63"/>
<polygon fill="#63b8ff" stroke="#63b8ff" points="1181.71,-163.94 1173.84,-156.84 1175.56,-167.3 1181.71,-163.94"/>
</a>
</g>
</g>
<!-- Node43 -->
<g id="Node000043" class="node">
<title>Node43</title>
<g id="a_Node000043"><a xlink:title=" ">
<polygon fill="#e0e0e0" stroke="#999999" points="1258,-156.5 1220,-156.5 1220,-137.5 1258,-137.5 1258,-156.5"/>
<text text-anchor="middle" x="1239" y="-144.5" font-family="Helvetica,sans-Serif" font-size="10.00">map</text>
</a>
</g>
</g>
<!-- Node8&#45;&gt;Node43 -->
<g id="edge49_Node000008_Node000043" class="edge">
<title>Node8&#45;&gt;Node43</title>
<g id="a_edge49_Node000008_Node000043"><a xlink:title=" ">
<path fill="none" stroke="#63b8ff" d="M1211.77,-197.8C1216.96,-188.31 1223.82,-175.76 1229.36,-165.63"/>
<polygon fill="#63b8ff" stroke="#63b8ff" points="1232.44,-167.3 1234.16,-156.84 1226.29,-163.94 1232.44,-167.3"/>
</a>
</g>
</g>
<!-- Node22&#45;&gt;Node14 -->
<g id="edge25_Node000022_Node000014" class="edge">
<title>Node22&#45;&gt;Node14</title>
<g id="a_edge25_Node000022_Node000014"><a xlink:title=" ">
<path fill="none" stroke="#63b8ff" d="M1424.03,-137.44C1435.11,-135.49 1446.96,-133.54 1458,-132 1535.21,-121.19 1748.09,-147.08 1807,-96 1824.38,-80.93 1827.82,-53.27 1827.98,-34.75"/>
<polygon fill="#63b8ff" stroke="#63b8ff" points="1831.47,-34.52 1827.74,-24.6 1824.47,-34.68 1831.47,-34.52"/>
</a>
</g>
</g>
<!-- Node22&#45;&gt;Node15 -->
<g id="edge26_Node000022_Node000015" class="edge">
<title>Node22&#45;&gt;Node15</title>
<g id="a_edge26_Node000022_Node000015"><a xlink:title=" ">
<path fill="none" stroke="#63b8ff" d="M1316.28,-137.47C1300.24,-135.48 1283,-133.5 1267,-132 1014.72,-108.27 949.59,-126.16 698,-96 689.55,-94.99 680.64,-93.66 671.96,-92.23"/>
<polygon fill="#63b8ff" stroke="#63b8ff" points="672.37,-88.75 661.92,-90.51 671.19,-95.65 672.37,-88.75"/>
</a>
</g>
</g>
<!-- Node22&#45;&gt;Node18 -->
<g id="edge27_Node000022_Node000018" class="edge">
<title>Node22&#45;&gt;Node18</title>
<g id="a_edge27_Node000022_Node000018"><a xlink:title=" ">
<path fill="none" stroke="#63b8ff" d="M1314.8,-137.47C1299.17,-135.53 1282.5,-133.58 1267,-132 1065.64,-111.44 1012.83,-128.25 813,-96 807.79,-95.16 802.35,-94.09 797,-92.91"/>
<polygon fill="#63b8ff" stroke="#63b8ff" points="797.41,-89.41 786.88,-90.55 795.82,-96.23 797.41,-89.41"/>
</a>
</g>
</g>
<!-- Node22&#45;&gt;Node21 -->
<g id="edge30_Node000022_Node000021" class="edge">
<title>Node22&#45;&gt;Node21</title>
<g id="a_edge30_Node000022_Node000021"><a xlink:title=" ">
<path fill="none" stroke="#63b8ff" d="M1334.39,-137.48C1323.19,-135.51 1311.18,-133.55 1300,-132 1143.55,-110.37 1099.98,-121.07 939.75,-95.98"/>
<polygon fill="#63b8ff" stroke="#63b8ff" points="939.96,-92.46 929.53,-94.35 938.86,-99.38 939.96,-92.46"/>
</a>
</g>
</g>
<!-- Node23 -->
<g id="Node000023" class="node">
<title>Node23</title>
<g id="a_Node000023"><a xlink:title=" ">
<polygon fill="#e0e0e0" stroke="#999999" points="1956.5,-96 1855.5,-96 1855.5,-66 1956.5,-66 1956.5,-96"/>
<text text-anchor="start" x="1863.5" y="-84" font-family="Helvetica,sans-Serif" font-size="10.00">deal.II/base/array</text>
<text text-anchor="middle" x="1906" y="-73" font-family="Helvetica,sans-Serif" font-size="10.00">_view.h</text>
</a>
</g>
</g>
<!-- Node22&#45;&gt;Node23 -->
<g id="edge24_Node000022_Node000023" class="edge">
<title>Node22&#45;&gt;Node23</title>
<g id="a_edge24_Node000022_Node000023"><a xlink:title=" ">
<path fill="none" stroke="#63b8ff" d="M1423.6,-137.44C1434.81,-135.47 1446.82,-133.51 1458,-132 1627.43,-109.06 1672.02,-122.05 1841,-96 1842.46,-95.77 1843.94,-95.54 1845.43,-95.29"/>
<polygon fill="#63b8ff" stroke="#63b8ff" points="1846.14,-98.72 1855.37,-93.51 1844.91,-91.83 1846.14,-98.72"/>
</a>
</g>
</g>
<!-- Node24 -->
<g id="Node000024" class="node">
<title>Node24</title>
<g id="a_Node000024"><a xlink:title=" ">
<polygon fill="#e0e0e0" stroke="#999999" points="1187.5,-96 1078.5,-96 1078.5,-66 1187.5,-66 1187.5,-96"/>
<text text-anchor="start" x="1086.5" y="-84" font-family="Helvetica,sans-Serif" font-size="10.00">deal.II/matrix_free</text>
<text text-anchor="middle" x="1133" y="-73" font-family="Helvetica,sans-Serif" font-size="10.00">/evaluation_flags.h</text>
</a>
</g>
</g>
<!-- Node22&#45;&gt;Node24 -->
<g id="edge28_Node000022_Node000024" class="edge">
<title>Node22&#45;&gt;Node24</title>
<g id="a_edge28_Node000022_Node000024"><a xlink:title=" ">
<path fill="none" stroke="#63b8ff" d="M1346.08,-137.44C1308.07,-127.55 1244.64,-111.05 1196.85,-98.61"/>
<polygon fill="#63b8ff" stroke="#63b8ff" points="1197.47,-95.16 1186.91,-96.02 1195.7,-101.93 1197.47,-95.16"/>
</a>
</g>
</g>
<!-- Node25 -->
<g id="Node000025" class="node">
<title>Node25</title>
<g id="a_Node000025"><a xlink:title=" ">
<polygon fill="#e0e0e0" stroke="#999999" points="1330.5,-96 1205.5,-96 1205.5,-66 1330.5,-66 1330.5,-96"/>
<text text-anchor="start" x="1213.5" y="-84" font-family="Helvetica,sans-Serif" font-size="10.00">deal.II/matrix_free</text>
<text text-anchor="middle" x="1268" y="-73" font-family="Helvetica,sans-Serif" font-size="10.00">/fe_point_evaluation.h</text>
</a>
</g>
</g>
<!-- Node22&#45;&gt;Node25 -->
<g id="edge29_Node000022_Node000025" class="edge">
<title>Node22&#45;&gt;Node25</title>
<g id="a_edge29_Node000022_Node000025"><a xlink:title=" ">
<path fill="none" stroke="#63b8ff" d="M1364.03,-137.37C1348.05,-128.16 1322.21,-113.26 1301.36,-101.24"/>
<polygon fill="#63b8ff" stroke="#63b8ff" points="1302.89,-98.08 1292.48,-96.12 1299.4,-104.14 1302.89,-98.08"/>
</a>
</g>
</g>
<!-- Node26 -->
<g id="Node000026" class="node">
<title>Node26</title>
<g id="a_Node000026"><a xlink:title=" ">
<polygon fill="#e0e0e0" stroke="#999999" points="1467.5,-96 1348.5,-96 1348.5,-66 1467.5,-66 1467.5,-96"/>
<text text-anchor="start" x="1356.5" y="-84" font-family="Helvetica,sans-Serif" font-size="10.00">deal.II/non_matching</text>
<text text-anchor="middle" x="1408" y="-73" font-family="Helvetica,sans-Serif" font-size="10.00">/mapping_info.h</text>
</a>
</g>
</g>
<!-- Node22&#45;&gt;Node26 -->
<g id="edge31_Node000022_Node000026" class="edge">
<title>Node22&#45;&gt;Node26</title>
<g id="a_edge31_Node000022_Node000026"><a xlink:title=" ">
<path fill="none" stroke="#63b8ff" d="M1382.91,-137.37C1386.59,-129.24 1392.28,-116.69 1397.31,-105.59"/>
<polygon fill="#63b8ff" stroke="#63b8ff" points="1400.55,-106.91 1401.49,-96.36 1394.18,-104.02 1400.55,-106.91"/>
</a>
</g>
</g>
<!-- Node27 -->
<g id="Node000027" class="node">
<title>Node27</title>
<g id="a_Node000027"><a xlink:title=" ">
<polygon fill="#e0e0e0" stroke="#999999" points="1604.5,-96 1485.5,-96 1485.5,-66 1604.5,-66 1604.5,-96"/>
<text text-anchor="start" x="1493.5" y="-84" font-family="Helvetica,sans-Serif" font-size="10.00">deal.II/non_matching</text>
<text text-anchor="middle" x="1545" y="-73" font-family="Helvetica,sans-Serif" font-size="10.00">/mesh_classifier.h</text>
</a>
</g>
</g>
<!-- Node22&#45;&gt;Node27 -->
<g id="edge32_Node000022_Node000027" class="edge">
<title>Node22&#45;&gt;Node27</title>
<g id="a_edge32_Node000022_Node000027"><a xlink:title=" ">
<path fill="none" stroke="#63b8ff" d="M1401.39,-137.37C1426.25,-127.78 1467.07,-112.05 1498.84,-99.8"/>
<polygon fill="#63b8ff" stroke="#63b8ff" points="1500.32,-102.98 1508.39,-96.12 1497.8,-96.45 1500.32,-102.98"/>
</a>
</g>
</g>
<!-- Node28 -->
<g id="Node000028" class="node">
<title>Node28</title>
<g id="a_Node000028"><a xlink:href="enum_8hpp.html" target="_top" xlink:title=" ">
<polygon fill="white" stroke="#666666" points="1060,-96 948,-96 948,-66 1060,-66 1060,-96"/>
<text text-anchor="start" x="956" y="-84" font-family="Helvetica,sans-Serif" font-size="10.00">meltpooldg/utilities</text>
<text text-anchor="middle" x="1004" y="-73" font-family="Helvetica,sans-Serif" font-size="10.00">/enum.hpp</text>
</a>
</g>
</g>
<!-- Node22&#45;&gt;Node28 -->
<g id="edge33_Node000022_Node000028" class="edge">
<title>Node22&#45;&gt;Node28</title>
<g id="a_edge33_Node000022_Node000028"><a xlink:title=" ">
<path fill="none" stroke="#63b8ff" d="M1331.82,-137.47C1321.35,-135.63 1310.3,-133.72 1300,-132 1200.61,-115.45 1172.83,-114.96 1070.17,-96.16"/>
<polygon fill="#63b8ff" stroke="#63b8ff" points="1070.8,-92.71 1060.33,-94.34 1069.53,-99.6 1070.8,-92.71"/>
</a>
</g>
</g>
<!-- Node35 -->
<g id="Node000035" class="node">
<title>Node35</title>
<g id="a_Node000035"><a xlink:href="fe__integrator_8hpp.html" target="_top" xlink:title=" ">
<polygon fill="white" stroke="#666666" points="1735,-96 1623,-96 1623,-66 1735,-66 1735,-96"/>
<text text-anchor="start" x="1631" y="-84" font-family="Helvetica,sans-Serif" font-size="10.00">meltpooldg/utilities</text>
<text text-anchor="middle" x="1679" y="-73" font-family="Helvetica,sans-Serif" font-size="10.00">/fe_integrator.hpp</text>
</a>
</g>
</g>
<!-- Node22&#45;&gt;Node35 -->
<g id="edge40_Node000022_Node000035" class="edge">
<title>Node22&#45;&gt;Node35</title>
<g id="a_edge40_Node000022_Node000035"><a xlink:title=" ">
<path fill="none" stroke="#63b8ff" d="M1419.15,-137.44C1468.65,-126.87 1553.5,-108.77 1612.72,-96.14"/>
<polygon fill="#63b8ff" stroke="#63b8ff" points="1613.68,-99.51 1622.73,-94 1612.22,-92.67 1613.68,-99.51"/>
</a>
</g>
</g>
<!-- Node22&#45;&gt;Node37 -->
<g id="edge43_Node000022_Node000037" class="edge">
<title>Node22&#45;&gt;Node37</title>
<g id="a_edge43_Node000022_Node000037"><a xlink:title=" ">
<path fill="none" stroke="#63b8ff" d="M1422.34,-137.48C1433.89,-135.44 1446.39,-133.44 1458,-132 1682.19,-104.25 1743.96,-142.6 1965,-96 1967.84,-95.4 1970.75,-94.64 1973.64,-93.79"/>
<polygon fill="#63b8ff" stroke="#63b8ff" points="1974.85,-97.08 1983.26,-90.63 1972.66,-90.43 1974.85,-97.08"/>
</a>
</g>
</g>
<!-- Node38 -->
<g id="Node000038" class="node">
<title>Node38</title>
<g id="a_Node000038"><a xlink:title=" ">
<polygon fill="#e0e0e0" stroke="#999999" points="1798.5,-90.5 1753.5,-90.5 1753.5,-71.5 1798.5,-71.5 1798.5,-90.5"/>
<text text-anchor="middle" x="1776" y="-78.5" font-family="Helvetica,sans-Serif" font-size="10.00">utility</text>
</a>
</g>
</g>
<!-- Node22&#45;&gt;Node38 -->
<g id="edge44_Node000022_Node000038" class="edge">
<title>Node22&#45;&gt;Node38</title>
<g id="a_edge44_Node000022_Node000038"><a xlink:title=" ">
<path fill="none" stroke="#63b8ff" d="M1424.89,-137.47C1435.73,-135.56 1447.26,-133.63 1458,-132 1584.67,-112.82 1620.49,-130.03 1744,-96 1745.69,-95.53 1747.4,-95 1749.12,-94.41"/>
<polygon fill="#63b8ff" stroke="#63b8ff" points="1750.7,-97.55 1758.73,-90.64 1748.14,-91.03 1750.7,-97.55"/>
</a>
</g>
</g>
<!-- Node22&#45;&gt;Node39 -->
<g id="edge45_Node000022_Node000039" class="edge">
<title>Node22&#45;&gt;Node39</title>
<g id="a_edge45_Node000022_Node000039"><a xlink:title=" ">
<path fill="none" stroke="#63b8ff" d="M1441.72,-137.5C1457.76,-135.5 1475,-133.52 1491,-132 1735.31,-108.77 1797.96,-121.91 2042,-96 2062.37,-93.84 2085.07,-90.52 2103.18,-87.67"/>
<polygon fill="#63b8ff" stroke="#63b8ff" points="2103.93,-91.09 2113.25,-86.05 2102.82,-84.18 2103.93,-91.09"/>
</a>
</g>
</g>
<!-- Node29 -->
<g id="Node000029" class="node">
<title>Node29</title>
<g id="a_Node000029"><a xlink:title=" ">
<polygon fill="#e0e0e0" stroke="#999999" points="995.5,-30 868.5,-30 868.5,0 995.5,0 995.5,-30"/>
<text text-anchor="start" x="876.5" y="-18" font-family="Helvetica,sans-Serif" font-size="10.00">deal.II/base/parameter</text>
<text text-anchor="middle" x="932" y="-7" font-family="Helvetica,sans-Serif" font-size="10.00">_handler.h</text>
</a>
</g>
</g>
<!-- Node28&#45;&gt;Node29 -->
<g id="edge34_Node000028_Node000029" class="edge">
<title>Node28&#45;&gt;Node29</title>
<g id="a_edge34_Node000028_Node000029"><a xlink:title=" ">
<path fill="none" stroke="#63b8ff" d="M988.02,-65.8C978.51,-57.34 966.27,-46.46 955.66,-37.03"/>
<polygon fill="#63b8ff" stroke="#63b8ff" points="957.73,-34.19 947.93,-30.16 953.08,-39.42 957.73,-34.19"/>
</a>
</g>
</g>
<!-- Node30 -->
<g id="Node000030" class="node">
<title>Node30</title>
<g id="a_Node000030"><a xlink:title=" ">
<polygon fill="#e0e0e0" stroke="#999999" points="1138.5,-24.5 1013.5,-24.5 1013.5,-5.5 1138.5,-5.5 1138.5,-24.5"/>
<text text-anchor="middle" x="1076" y="-12.5" font-family="Helvetica,sans-Serif" font-size="10.00">deal.II/base/patterns.h</text>
</a>
</g>
</g>
<!-- Node28&#45;&gt;Node30 -->
<g id="edge35_Node000028_Node000030" class="edge">
<title>Node28&#45;&gt;Node30</title>
<g id="a_edge35_Node000028_Node000030"><a xlink:title=" ">
<path fill="none" stroke="#63b8ff" d="M1019.98,-65.8C1031.31,-55.72 1046.53,-42.19 1058.25,-31.78"/>
<polygon fill="#63b8ff" stroke="#63b8ff" points="1060.9,-34.1 1066.05,-24.84 1056.25,-28.87 1060.9,-34.1"/>
</a>
</g>
</g>
<!-- Node31 -->
<g id="Node000031" class="node">
<title>Node31</title>
<g id="a_Node000031"><a xlink:title=" ">
<polygon fill="#e0e0e0" stroke="#999999" points="1269,-30 1157,-30 1157,0 1269,0 1269,-30"/>
<text text-anchor="start" x="1165" y="-18" font-family="Helvetica,sans-Serif" font-size="10.00">meltpooldg/utilities</text>
<text text-anchor="middle" x="1213" y="-7" font-family="Helvetica,sans-Serif" font-size="10.00">/better_enum.hpp</text>
</a>
</g>
</g>
<!-- Node28&#45;&gt;Node31 -->
<g id="edge36_Node000028_Node000031" class="edge">
<title>Node28&#45;&gt;Node31</title>
<g id="a_edge36_Node000028_Node000031"><a xlink:title=" ">
<path fill="none" stroke="#63b8ff" d="M1049.87,-65.95C1081.58,-56.24 1123.95,-43.27 1157.56,-32.98"/>
<polygon fill="#63b8ff" stroke="#63b8ff" points="1158.7,-36.29 1167.24,-30.01 1156.65,-29.59 1158.7,-36.29"/>
</a>
</g>
</g>
<!-- Node32 -->
<g id="Node000032" class="node">
<title>Node32</title>
<g id="a_Node000032"><a xlink:title=" ">
<polygon fill="#e0e0e0" stroke="#999999" points="1412.5,-30 1287.5,-30 1287.5,0 1412.5,0 1412.5,-30"/>
<text text-anchor="start" x="1295.5" y="-18" font-family="Helvetica,sans-Serif" font-size="10.00">boost/algorithm/string</text>
<text text-anchor="middle" x="1350" y="-7" font-family="Helvetica,sans-Serif" font-size="10.00">/join.hpp</text>
</a>
</g>
</g>
<!-- Node28&#45;&gt;Node32 -->
<g id="edge37_Node000028_Node000032" class="edge">
<title>Node28&#45;&gt;Node32</title>
<g id="a_edge37_Node000028_Node000032"><a xlink:title=" ">
<path fill="none" stroke="#63b8ff" d="M1060.34,-67.72C1063.27,-67.12 1066.17,-66.55 1069,-66 1158.46,-48.67 1183.64,-47.09 1277.29,-30.1"/>
<polygon fill="#63b8ff" stroke="#63b8ff" points="1277.98,-33.53 1287.19,-28.3 1276.72,-26.65 1277.98,-33.53"/>
</a>
</g>
</g>
<!-- Node33 -->
<g id="Node000033" class="node">
<title>Node33</title>
<g id="a_Node000033"><a xlink:title=" ">
<polygon fill="#e0e0e0" stroke="#999999" points="788,-24.5 732,-24.5 732,-5.5 788,-5.5 788,-24.5"/>
<text text-anchor="middle" x="760" y="-12.5" font-family="Helvetica,sans-Serif" font-size="10.00">sstream</text>
</a>
</g>
</g>
<!-- Node28&#45;&gt;Node33 -->
<g id="edge38_Node000028_Node000033" class="edge">
<title>Node28&#45;&gt;Node33</title>
<g id="a_edge38_Node000028_Node000033"><a xlink:title=" ">
<path fill="none" stroke="#63b8ff" d="M947.51,-67.19C896.3,-55.43 824.73,-38.56 797,-30 795.08,-29.41 793.12,-28.77 791.14,-28.1"/>
<polygon fill="#63b8ff" stroke="#63b8ff" points="791.96,-24.67 781.36,-24.6 789.6,-31.26 791.96,-24.67"/>
</a>
</g>
</g>
<!-- Node34 -->
<g id="Node000034" class="node">
<title>Node34</title>
<g id="a_Node000034"><a xlink:title=" ">
<polygon fill="#e0e0e0" stroke="#999999" points="850,-24.5 806,-24.5 806,-5.5 850,-5.5 850,-24.5"/>
<text text-anchor="middle" x="828" y="-12.5" font-family="Helvetica,sans-Serif" font-size="10.00">string</text>
</a>
</g>
</g>
<!-- Node28&#45;&gt;Node34 -->
<g id="edge39_Node000028_Node000034" class="edge">
<title>Node28&#45;&gt;Node34</title>
<g id="a_edge39_Node000028_Node000034"><a xlink:title=" ">
<path fill="none" stroke="#63b8ff" d="M959.83,-65.94C930.9,-56.45 892.41,-43.27 859,-30 857.83,-29.53 856.63,-29.05 855.43,-28.55"/>
<polygon fill="#63b8ff" stroke="#63b8ff" points="856.81,-25.33 846.24,-24.57 854.03,-31.76 856.81,-25.33"/>
</a>
</g>
</g>
<!-- Node35&#45;&gt;Node14 -->
<g id="edge41_Node000035_Node000014" class="edge">
<title>Node35&#45;&gt;Node14</title>
<g id="a_edge41_Node000035_Node000014"><a xlink:title=" ">
<path fill="none" stroke="#63b8ff" d="M1711.48,-65.95C1737.32,-54.78 1773.15,-39.29 1798.03,-28.53"/>
<polygon fill="#63b8ff" stroke="#63b8ff" points="1799.51,-31.7 1807.3,-24.52 1796.74,-25.27 1799.51,-31.7"/>
</a>
</g>
</g>
<!-- Node36 -->
<g id="Node000036" class="node">
<title>Node36</title>
<g id="a_Node000036"><a xlink:title=" ">
<polygon fill="#e0e0e0" stroke="#999999" points="1732.5,-30 1625.5,-30 1625.5,0 1732.5,0 1732.5,-30"/>
<text text-anchor="start" x="1633.5" y="-18" font-family="Helvetica,sans-Serif" font-size="10.00">deal.II/matrix_free</text>
<text text-anchor="middle" x="1679" y="-7" font-family="Helvetica,sans-Serif" font-size="10.00">/fe_evaluation.h</text>
</a>
</g>
</g>
<!-- Node35&#45;&gt;Node36 -->
<g id="edge42_Node000035_Node000036" class="edge">
<title>Node35&#45;&gt;Node36</title>
<g id="a_edge42_Node000035_Node000036"><a xlink:title=" ">
<path fill="none" stroke="#63b8ff" d="M1679,-65.8C1679,-58.34 1679,-48.99 1679,-40.41"/>
<polygon fill="#63b8ff" stroke="#63b8ff" points="1682.5,-40.16 1679,-30.16 1675.5,-40.16 1682.5,-40.16"/>
</a>
</g>
</g>
<!-- Node41 -->
<g id="Node000041" class="node">
<title>Node41</title>
<g id="a_Node000041"><a xlink:title=" ">
<polygon fill="#e0e0e0" stroke="#999999" points="427,-96 297,-96 297,-66 427,-66 427,-96"/>
<text text-anchor="start" x="305" y="-84" font-family="Helvetica,sans-Serif" font-size="10.00">deal.II/base/conditional</text>
<text text-anchor="middle" x="362" y="-73" font-family="Helvetica,sans-Serif" font-size="10.00">_ostream.h</text>
</a>
</g>
</g>
<!-- Node40&#45;&gt;Node41 -->
<g id="edge47_Node000040_Node000041" class="edge">
<title>Node40&#45;&gt;Node41</title>
<g id="a_edge47_Node000040_Node000041"><a xlink:title=" ">
<path fill="none" stroke="#63b8ff" d="M362,-131.8C362,-124.34 362,-114.99 362,-106.41"/>
<polygon fill="#63b8ff" stroke="#63b8ff" points="365.5,-106.16 362,-96.16 358.5,-106.16 365.5,-106.16"/>
</a>
</g>
</g>
</g>
</svg>

<g id="navigator" transform="translate(0 0)" fill="#404254">
  <rect fill="#f2f5e9" fill-opacity="0.5" stroke="#606060" stroke-width=".5" x="0" y="0" width="60" height="60"/>
  <use id="zoomplus" xlink:href="#zoomPlus" x="17" y="9" onmousedown="handleZoom(evt,'in')"/>
  <use id="zoomminus" xlink:href="#zoomMin" x="42" y="9" onmousedown="handleZoom(evt,'out')"/>
  <use id="reset" xlink:href="#resetDef" x="30" y="36" onmousedown="handleReset()"/>
   <use id="arrowup" xlink:href="#arrowUp" x="0" y="0" onmousedown="handlePan(0,-1)"/>
  <use id="arrowright" xlink:href="#arrowRight" x="0" y="0" onmousedown="handlePan(1,0)"/>
  <use id="arrowdown" xlink:href="#arrowDown" x="0" y="0" onmousedown="handlePan(0,1)"/>
  <use id="arrowleft" xlink:href="#arrowLeft" x="0" y="0" onmousedown="handlePan(-1,0)"/>
</g>
<svg viewBox="0 0 15 15" width="100%" height="30px" preserveAspectRatio="xMaxYMin meet">
 <g id="arrow_out" transform="scale(0.3 0.3)">
  <a xlink:href="laser__heat__source__volumetric_8cpp__incl_org.svg" target="_base">
   <rect id="button" ry="5" rx="5" y="6" x="6" height="38" width="38"
        fill="#f2f5e9" fill-opacity="0.5" stroke="#606060" stroke-width="1.0"/>
   <path id="arrow"
     d="M 11.500037,31.436501 C 11.940474,20.09759 22.043105,11.32322 32.158766,21.979434 L 37.068811,17.246167 C 37.068811,17.246167 37.088388,32 37.088388,32 L 22.160133,31.978069 C 22.160133,31.978069 26.997745,27.140456 26.997745,27.140456 C 18.528582,18.264221 13.291696,25.230495 11.500037,31.436501 z"
     style="fill:#404040;"/>
  </a>
 </g>
</svg>

<style type='text/css'>
<![CDATA[
[data-mouse-over-selected='false'] { opacity: 0.7; }
[data-mouse-over-selected='true']  { opacity: 1.0; }
]]>
</style>
<script type="application/ecmascript"><![CDATA[
document.addEventListener('DOMContentLoaded', (event) => {
  highlightEdges();
  highlightAdjacentNodes();
});
]]></script>
</svg>
