<?xml version="1.0" encoding="UTF-8" standalone="no"?>
<!DOCTYPE svg PUBLIC "-//W3C//DTD SVG 1.1//EN"
 "http://www.w3.org/Graphics/SVG/1.1/DTD/svg11.dtd">
<!-- Generated by graphviz version 2.43.0 (0)
 -->
<!-- Title: include/meltpooldg/heat/laser_operation.hpp Pages: 1 -->
<svg width="517pt" height="192pt"
 viewBox="0.00 0.00 517.00 192.00" xmlns="http://www.w3.org/2000/svg" xmlns:xlink="http://www.w3.org/1999/xlink">
<g id="graph0" class="graph" transform="scale(1 1) rotate(0) translate(4 188)">
<title>include/meltpooldg/heat/laser_operation.hpp</title>
<!-- Node1 -->
<g id="Node000001" class="node">
<title>Node1</title>
<g id="a_Node000001"><a xlink:title=" ">
<polygon fill="#999999" stroke="#666666" points="302,-184 161,-184 161,-154 302,-154 302,-184"/>
<text text-anchor="start" x="169" y="-172" font-family="Helvetica,sans-Serif" font-size="10.00">include/meltpooldg</text>
<text text-anchor="middle" x="231.5" y="-161" font-family="Helvetica,sans-Serif" font-size="10.00">/heat/laser_operation.hpp</text>
</a>
</g>
</g>
<!-- Node2 -->
<g id="Node000002" class="node">
<title>Node2</title>
<g id="a_Node000002"><a xlink:href="heat__transfer__application_8hpp.html" target="_top" xlink:title=" ">
<polygon fill="white" stroke="#666666" points="127,-118 0,-118 0,-77 127,-77 127,-118"/>
<text text-anchor="start" x="8" y="-106" font-family="Helvetica,sans-Serif" font-size="10.00">applications/mp&#45;heat</text>
<text text-anchor="start" x="8" y="-95" font-family="Helvetica,sans-Serif" font-size="10.00">&#45;transfer/heat_transfer</text>
<text text-anchor="middle" x="63.5" y="-84" font-family="Helvetica,sans-Serif" font-size="10.00">_application.hpp</text>
</a>
</g>
</g>
<!-- Node1&#45;&gt;Node2 -->
<g id="edge1_Node000001_Node000002" class="edge">
<title>Node1&#45;&gt;Node2</title>
<g id="a_edge1_Node000001_Node000002"><a xlink:title=" ">
<path fill="none" stroke="#63b8ff" d="M188.07,-150.03C164.4,-140.24 135.07,-128.11 110.81,-118.07"/>
<polygon fill="#63b8ff" stroke="#63b8ff" points="186.92,-153.35 197.5,-153.94 189.6,-146.88 186.92,-153.35"/>
</a>
</g>
</g>
<!-- Node4 -->
<g id="Node000004" class="node">
<title>Node4</title>
<g id="a_Node000004"><a xlink:href="melt__pool__application_8hpp.html" target="_top" xlink:title=" ">
<polygon fill="white" stroke="#666666" points="318,-112.5 145,-112.5 145,-82.5 318,-82.5 318,-112.5"/>
<text text-anchor="start" x="153" y="-100.5" font-family="Helvetica,sans-Serif" font-size="10.00">applications/mp&#45;melt</text>
<text text-anchor="middle" x="231.5" y="-89.5" font-family="Helvetica,sans-Serif" font-size="10.00">&#45;pool/melt_pool_application.hpp</text>
</a>
</g>
</g>
<!-- Node1&#45;&gt;Node4 -->
<g id="edge3_Node000001_Node000004" class="edge">
<title>Node1&#45;&gt;Node4</title>
<g id="a_edge3_Node000001_Node000004"><a xlink:title=" ">
<path fill="none" stroke="#63b8ff" d="M231.5,-143.75C231.5,-133.31 231.5,-121.49 231.5,-112.54"/>
<polygon fill="#63b8ff" stroke="#63b8ff" points="228,-143.94 231.5,-153.94 235,-143.94 228,-143.94"/>
</a>
</g>
</g>
<!-- Node6 -->
<g id="Node000006" class="node">
<title>Node6</title>
<g id="a_Node000006"><a xlink:href="laser__operation_8cpp.html" target="_top" xlink:title=" ">
<polygon fill="white" stroke="#666666" points="509,-107 336,-107 336,-88 509,-88 509,-107"/>
<text text-anchor="middle" x="422.5" y="-95" font-family="Helvetica,sans-Serif" font-size="10.00">source/heat/laser_operation.cpp</text>
</a>
</g>
</g>
<!-- Node1&#45;&gt;Node6 -->
<g id="edge5_Node000001_Node000006" class="edge">
<title>Node1&#45;&gt;Node6</title>
<g id="a_edge5_Node000001_Node000006"><a xlink:title=" ">
<path fill="none" stroke="#63b8ff" d="M280.02,-150.35C318.09,-136.49 369.43,-117.81 398.95,-107.07"/>
<polygon fill="#63b8ff" stroke="#63b8ff" points="278.35,-147.23 270.15,-153.94 280.75,-153.81 278.35,-147.23"/>
</a>
</g>
</g>
<!-- Node3 -->
<g id="Node000003" class="node">
<title>Node3</title>
<g id="a_Node000003"><a xlink:href="heat__transfer__application_8cpp.html" target="_top" xlink:title=" ">
<polygon fill="white" stroke="#666666" points="127,-41 0,-41 0,0 127,0 127,-41"/>
<text text-anchor="start" x="8" y="-29" font-family="Helvetica,sans-Serif" font-size="10.00">applications/mp&#45;heat</text>
<text text-anchor="start" x="8" y="-18" font-family="Helvetica,sans-Serif" font-size="10.00">&#45;transfer/heat_transfer</text>
<text text-anchor="middle" x="63.5" y="-7" font-family="Helvetica,sans-Serif" font-size="10.00">_application.cpp</text>
</a>
</g>
</g>
<!-- Node2&#45;&gt;Node3 -->
<g id="edge2_Node000002_Node000003" class="edge">
<title>Node2&#45;&gt;Node3</title>
<g id="a_edge2_Node000002_Node000003"><a xlink:title=" ">
<path fill="none" stroke="#63b8ff" d="M63.5,-66.69C63.5,-58.08 63.5,-48.9 63.5,-41.07"/>
<polygon fill="#63b8ff" stroke="#63b8ff" points="60,-66.79 63.5,-76.79 67,-66.79 60,-66.79"/>
</a>
</g>
</g>
<!-- Node5 -->
<g id="Node000005" class="node">
<title>Node5</title>
<g id="a_Node000005"><a xlink:href="melt__pool__application_8cpp.html" target="_top" xlink:title=" ">
<polygon fill="white" stroke="#666666" points="318,-35.5 145,-35.5 145,-5.5 318,-5.5 318,-35.5"/>
<text text-anchor="start" x="153" y="-23.5" font-family="Helvetica,sans-Serif" font-size="10.00">applications/mp&#45;melt</text>
<text text-anchor="middle" x="231.5" y="-12.5" font-family="Helvetica,sans-Serif" font-size="10.00">&#45;pool/melt_pool_application.cpp</text>
</a>
</g>
</g>
<!-- Node4&#45;&gt;Node5 -->
<g id="edge4_Node000004_Node000005" class="edge">
<title>Node4&#45;&gt;Node5</title>
<g id="a_edge4_Node000004_Node000005"><a xlink:title=" ">
<path fill="none" stroke="#63b8ff" d="M231.5,-72.04C231.5,-59.95 231.5,-45.79 231.5,-35.54"/>
<polygon fill="#63b8ff" stroke="#63b8ff" points="228,-72.39 231.5,-82.39 235,-72.39 228,-72.39"/>
</a>
</g>
</g>
</g>
</svg>
