<?xml version="1.0" encoding="UTF-8" standalone="no"?>
<!DOCTYPE svg PUBLIC "-//W3C//DTD SVG 1.1//EN"
 "http://www.w3.org/Graphics/SVG/1.1/DTD/svg11.dtd">
<!-- Generated by graphviz version 2.43.0 (0)
 -->
<!-- Title: include/meltpooldg/heat/laser_heat_source_volumetric.hpp Pages: 1 -->
<!--zoomable 313 -->

<svg id="main" version="1.1" xmlns="http://www.w3.org/2000/svg" xmlns:xlink="http://www.w3.org/1999/xlink" xml:space="preserve" onload="init(evt)">
<style type="text/css"><![CDATA[
.node, .edge {opacity: 0.7;}
.node.selected, .edge.selected {opacity: 1;}
.edge:hover path { stroke: red; }
.edge:hover polygon { stroke: red; fill: red; }
]]></style>

<defs>
  <circle id="rim" cx="0" cy="0" r="7"/>
  <circle id="rim2" cx="0" cy="0" r="3.5"/>
  <g id="zoomPlus">
    <use xlink:href="#rim" fill="#404040"><set attributeName="fill" to="#808080" begin="zoomplus.mouseover" end="zoomplus.mouseout"/></use>
    <path d="M-4,0h8M0,-4v8" fill="none" stroke="white" stroke-width="1.5" pointer-events="none"/>
  </g>
  <g id="zoomMin">
    <use xlink:href="#rim" fill="#404040"><set attributeName="fill" to="#808080" begin="zoomminus.mouseover" end="zoomminus.mouseout"/></use>
    <path d="M-4,0h8" fill="none" stroke="white" stroke-width="1.5" pointer-events="none"/>
  </g>
  <g id="arrowUp" transform="translate(30 24)">
    <use xlink:href="#rim"/>
    <path pointer-events="none" fill="none" stroke="white" stroke-width="1.5" d="M0,-3.0v7 M-2.5,-0.5L0,-3.0L2.5,-0.5"/>
  </g>
  <g id="arrowRight" transform="rotate(90) translate(36 -43)">
    <use xlink:href="#rim"/>
    <path pointer-events="none" fill="none" stroke="white" stroke-width="1.5" d="M0,-3.0v7 M-2.5,-0.5L0,-3.0L2.5,-0.5"/>
  </g>
  <g id="arrowDown" transform="rotate(180) translate(-30 -48)">
    <use xlink:href="#rim"/>
    <path pointer-events="none" fill="none" stroke="white" stroke-width="1.5" d="M0,-3.0v7 M-2.5,-0.5L0,-3.0L2.5,-0.5"/>
  </g>
  <g id="arrowLeft" transform="rotate(270) translate(-36 17)">
    <use xlink:href="#rim"/>
    <path pointer-events="none" fill="none" stroke="white" stroke-width="1.5" d="M0,-3.0v7 M-2.5,-0.5L0,-3.0L2.5,-0.5"/>
  </g>
  <g id="resetDef">
    <use xlink:href="#rim2" fill="#404040"><set attributeName="fill" to="#808080" begin="reset.mouseover" end="reset.mouseout"/></use>
  </g>
</defs>
<script type="application/ecmascript">
var viewWidth = 2449;
var viewHeight = 313;
var sectionId = 'dynsection-0';
</script>
<script type="application/ecmascript" xlink:href="svg.min.js"/>
<svg id="graph" class="graph">
<g id="viewport">
<title>include/meltpooldg/heat/laser_heat_source_volumetric.hpp</title>
<!-- Node1 -->
<g id="Node000001" class="node">
<title>Node1</title>
<g id="a_Node000001"><a xlink:title=" ">
<polygon fill="#999999" stroke="#666666" points="1139.5,-305 1006.5,-305 1006.5,-264 1139.5,-264 1139.5,-305"/>
<text text-anchor="start" x="1014.5" y="-293" font-family="Helvetica,sans-Serif" font-size="10.00">include/meltpooldg</text>
<text text-anchor="start" x="1014.5" y="-282" font-family="Helvetica,sans-Serif" font-size="10.00">/heat/laser_heat_source</text>
<text text-anchor="middle" x="1073" y="-271" font-family="Helvetica,sans-Serif" font-size="10.00">_volumetric.hpp</text>
</a>
</g>
</g>
<!-- Node2 -->
<g id="Node000002" class="node">
<title>Node2</title>
<g id="a_Node000002"><a xlink:title=" ">
<polygon fill="#e0e0e0" stroke="#999999" points="997.5,-222.5 872.5,-222.5 872.5,-203.5 997.5,-203.5 997.5,-222.5"/>
<text text-anchor="middle" x="935" y="-210.5" font-family="Helvetica,sans-Serif" font-size="10.00">deal.II/base/function.h</text>
</a>
</g>
</g>
<!-- Node1&#45;&gt;Node2 -->
<g id="edge1_Node000001_Node000002" class="edge">
<title>Node1&#45;&gt;Node2</title>
<g id="a_edge1_Node000001_Node000002"><a xlink:title=" ">
<path fill="none" stroke="#63b8ff" d="M1034.19,-263.96C1010.79,-252.17 981.62,-237.48 960.99,-227.09"/>
<polygon fill="#63b8ff" stroke="#63b8ff" points="962.39,-223.88 951.88,-222.5 959.24,-230.13 962.39,-223.88"/>
</a>
</g>
</g>
<!-- Node3 -->
<g id="Node000003" class="node">
<title>Node3</title>
<g id="a_Node000003"><a xlink:title=" ">
<polygon fill="#e0e0e0" stroke="#999999" points="118,-162 0,-162 0,-132 118,-132 118,-162"/>
<text text-anchor="start" x="8" y="-150" font-family="Helvetica,sans-Serif" font-size="10.00">deal.II/lac/la_parallel</text>
<text text-anchor="middle" x="59" y="-139" font-family="Helvetica,sans-Serif" font-size="10.00">_vector.h</text>
</a>
</g>
</g>
<!-- Node1&#45;&gt;Node3 -->
<g id="edge2_Node000001_Node000003" class="edge">
<title>Node1&#45;&gt;Node3</title>
<g id="a_edge2_Node000001_Node000003"><a xlink:title=" ">
<path fill="none" stroke="#63b8ff" d="M1063.92,-263.77C1053.28,-243.23 1033.52,-212.1 1006,-198 921.39,-154.64 261.57,-172.82 128.22,-161.79"/>
<polygon fill="#63b8ff" stroke="#63b8ff" points="128.54,-158.3 118.24,-160.79 127.84,-165.27 128.54,-158.3"/>
</a>
</g>
</g>
<!-- Node4 -->
<g id="Node000004" class="node">
<title>Node4</title>
<g id="a_Node000004"><a xlink:href="scratch__data_8hpp.html" target="_top" xlink:title=" ">
<polygon fill="white" stroke="#666666" points="1188,-228 1054,-228 1054,-198 1188,-198 1188,-228"/>
<text text-anchor="start" x="1062" y="-216" font-family="Helvetica,sans-Serif" font-size="10.00">meltpooldg/core/scratch</text>
<text text-anchor="middle" x="1121" y="-205" font-family="Helvetica,sans-Serif" font-size="10.00">_data.hpp</text>
</a>
</g>
</g>
<!-- Node1&#45;&gt;Node4 -->
<g id="edge3_Node000001_Node000004" class="edge">
<title>Node1&#45;&gt;Node4</title>
<g id="a_edge3_Node000001_Node000004"><a xlink:title=" ">
<path fill="none" stroke="#63b8ff" d="M1086.63,-263.77C1092.53,-255.22 1099.47,-245.17 1105.56,-236.35"/>
<polygon fill="#63b8ff" stroke="#63b8ff" points="1108.5,-238.26 1111.3,-228.04 1102.74,-234.28 1108.5,-238.26"/>
</a>
</g>
</g>
<!-- Node34 -->
<g id="Node000034" class="node">
<title>Node34</title>
<g id="a_Node000034"><a xlink:title=" ">
<polygon fill="#e0e0e0" stroke="#999999" points="2293,-90.5 2235,-90.5 2235,-71.5 2293,-71.5 2293,-90.5"/>
<text text-anchor="middle" x="2264" y="-78.5" font-family="Helvetica,sans-Serif" font-size="10.00">memory</text>
</a>
</g>
</g>
<!-- Node1&#45;&gt;Node34 -->
<g id="edge48_Node000001_Node000034" class="edge">
<title>Node1&#45;&gt;Node34</title>
<g id="a_edge48_Node000001_Node000034"><a xlink:title=" ">
<path fill="none" stroke="#63b8ff" d="M1139.71,-279.1C1340.04,-265.37 1933.86,-220.68 2118,-162 2166.25,-146.62 2216.84,-114.83 2243.96,-96.28"/>
<polygon fill="#63b8ff" stroke="#63b8ff" points="2246.01,-99.13 2252.23,-90.55 2242.02,-93.37 2246.01,-99.13"/>
</a>
</g>
</g>
<!-- Node4&#45;&gt;Node3 -->
<g id="edge17_Node000004_Node000003" class="edge">
<title>Node4&#45;&gt;Node3</title>
<g id="a_edge17_Node000004_Node000003"><a xlink:title=" ">
<path fill="none" stroke="#63b8ff" d="M1053.91,-199.7C1049.21,-199.06 1044.54,-198.48 1040,-198 639.51,-155.68 531.89,-210.19 128.44,-162.02"/>
<polygon fill="#63b8ff" stroke="#63b8ff" points="128.59,-158.52 118.24,-160.79 127.75,-165.47 128.59,-158.52"/>
</a>
</g>
</g>
<!-- Node5 -->
<g id="Node000005" class="node">
<title>Node5</title>
<g id="a_Node000005"><a xlink:title=" ">
<polygon fill="#e0e0e0" stroke="#999999" points="1986.5,-162 1883.5,-162 1883.5,-132 1986.5,-132 1986.5,-162"/>
<text text-anchor="start" x="1891.5" y="-150" font-family="Helvetica,sans-Serif" font-size="10.00">deal.II/base/index</text>
<text text-anchor="middle" x="1935" y="-139" font-family="Helvetica,sans-Serif" font-size="10.00">_set.h</text>
</a>
</g>
</g>
<!-- Node4&#45;&gt;Node5 -->
<g id="edge4_Node000004_Node000005" class="edge">
<title>Node4&#45;&gt;Node5</title>
<g id="a_edge4_Node000004_Node000005"><a xlink:title=" ">
<path fill="none" stroke="#63b8ff" d="M1188.11,-211.12C1318.48,-208.64 1615.04,-199.19 1873.25,-161.93"/>
<polygon fill="#63b8ff" stroke="#63b8ff" points="1873.8,-165.39 1883.19,-160.48 1872.79,-158.46 1873.8,-165.39"/>
</a>
</g>
</g>
<!-- Node6 -->
<g id="Node000006" class="node">
<title>Node6</title>
<g id="a_Node000006"><a xlink:title=" ">
<polygon fill="#e0e0e0" stroke="#999999" points="2109,-156.5 2005,-156.5 2005,-137.5 2109,-137.5 2109,-156.5"/>
<text text-anchor="middle" x="2057" y="-144.5" font-family="Helvetica,sans-Serif" font-size="10.00">deal.II/base/mpi.h</text>
</a>
</g>
</g>
<!-- Node4&#45;&gt;Node6 -->
<g id="edge5_Node000004_Node000006" class="edge">
<title>Node4&#45;&gt;Node6</title>
<g id="a_edge5_Node000004_Node000006"><a xlink:title=" ">
<path fill="none" stroke="#63b8ff" d="M1188.07,-212.01C1335.14,-211.18 1696.79,-204.57 1996,-162 2002,-161.15 2008.27,-160 2014.42,-158.73"/>
<polygon fill="#63b8ff" stroke="#63b8ff" points="2015.56,-162.07 2024.58,-156.51 2014.07,-155.23 2015.56,-162.07"/>
</a>
</g>
</g>
<!-- Node7 -->
<g id="Node000007" class="node">
<title>Node7</title>
<g id="a_Node000007"><a xlink:title=" ">
<polygon fill="#e0e0e0" stroke="#999999" points="271.5,-162 136.5,-162 136.5,-132 271.5,-132 271.5,-162"/>
<text text-anchor="start" x="144.5" y="-150" font-family="Helvetica,sans-Serif" font-size="10.00">deal.II/base/mpi_remote</text>
<text text-anchor="middle" x="204" y="-139" font-family="Helvetica,sans-Serif" font-size="10.00">_point_evaluation.h</text>
</a>
</g>
</g>
<!-- Node4&#45;&gt;Node7 -->
<g id="edge6_Node000004_Node000007" class="edge">
<title>Node4&#45;&gt;Node7</title>
<g id="a_edge6_Node000004_Node000007"><a xlink:title=" ">
<path fill="none" stroke="#63b8ff" d="M1053.91,-199.75C1049.21,-199.09 1044.54,-198.5 1040,-198 707.14,-161.49 617.67,-199.95 281.89,-162.12"/>
<polygon fill="#63b8ff" stroke="#63b8ff" points="282.22,-158.63 271.88,-160.97 281.42,-165.58 282.22,-158.63"/>
</a>
</g>
</g>
<!-- Node8 -->
<g id="Node000008" class="node">
<title>Node8</title>
<g id="a_Node000008"><a xlink:title=" ">
<polygon fill="#e0e0e0" stroke="#999999" points="424.5,-156.5 289.5,-156.5 289.5,-137.5 424.5,-137.5 424.5,-156.5"/>
<text text-anchor="middle" x="357" y="-144.5" font-family="Helvetica,sans-Serif" font-size="10.00">deal.II/base/partitioner.h</text>
</a>
</g>
</g>
<!-- Node4&#45;&gt;Node8 -->
<g id="edge7_Node000004_Node000008" class="edge">
<title>Node4&#45;&gt;Node8</title>
<g id="a_edge7_Node000004_Node000008"><a xlink:title=" ">
<path fill="none" stroke="#63b8ff" d="M1053.9,-199.81C1049.2,-199.14 1044.54,-198.53 1040,-198 771.98,-166.98 701.88,-194.19 434,-162 425.85,-161.02 417.25,-159.72 408.88,-158.31"/>
<polygon fill="#63b8ff" stroke="#63b8ff" points="409.28,-154.83 398.82,-156.55 408.07,-161.72 409.28,-154.83"/>
</a>
</g>
</g>
<!-- Node9 -->
<g id="Node000009" class="node">
<title>Node9</title>
<g id="a_Node000009"><a xlink:title=" ">
<polygon fill="#e0e0e0" stroke="#999999" points="581,-156.5 443,-156.5 443,-137.5 581,-137.5 581,-156.5"/>
<text text-anchor="middle" x="512" y="-144.5" font-family="Helvetica,sans-Serif" font-size="10.00">deal.II/base/quadrature.h</text>
</a>
</g>
</g>
<!-- Node4&#45;&gt;Node9 -->
<g id="edge8_Node000004_Node000009" class="edge">
<title>Node4&#45;&gt;Node9</title>
<g id="a_edge8_Node000004_Node000009"><a xlink:title=" ">
<path fill="none" stroke="#63b8ff" d="M1053.89,-199.91C1049.19,-199.22 1044.53,-198.57 1040,-198 840.94,-172.89 788.98,-187.75 590,-162 581.95,-160.96 573.47,-159.65 565.18,-158.26"/>
<polygon fill="#63b8ff" stroke="#63b8ff" points="565.65,-154.79 555.2,-156.53 564.46,-161.69 565.65,-154.79"/>
</a>
</g>
</g>
<!-- Node10 -->
<g id="Node000010" class="node">
<title>Node10</title>
<g id="a_Node000010"><a xlink:title=" ">
<polygon fill="#e0e0e0" stroke="#999999" points="709,-156.5 599,-156.5 599,-137.5 709,-137.5 709,-156.5"/>
<text text-anchor="middle" x="654" y="-144.5" font-family="Helvetica,sans-Serif" font-size="10.00">deal.II/base/timer.h</text>
</a>
</g>
</g>
<!-- Node4&#45;&gt;Node10 -->
<g id="edge9_Node000004_Node000010" class="edge">
<title>Node4&#45;&gt;Node10</title>
<g id="a_edge9_Node000004_Node000010"><a xlink:title=" ">
<path fill="none" stroke="#63b8ff" d="M1053.86,-200.09C1049.18,-199.35 1044.52,-198.65 1040,-198 899.63,-177.92 863.06,-184.12 723,-162 716.58,-160.99 709.85,-159.79 703.22,-158.53"/>
<polygon fill="#63b8ff" stroke="#63b8ff" points="703.42,-155 692.94,-156.52 702.08,-161.87 703.42,-155"/>
</a>
</g>
</g>
<!-- Node11 -->
<g id="Node000011" class="node">
<title>Node11</title>
<g id="a_Node000011"><a xlink:title=" ">
<polygon fill="#e0e0e0" stroke="#999999" points="1200.5,-24.5 1051.5,-24.5 1051.5,-5.5 1200.5,-5.5 1200.5,-24.5"/>
<text text-anchor="middle" x="1126" y="-12.5" font-family="Helvetica,sans-Serif" font-size="10.00">deal.II/base/vectorization.h</text>
</a>
</g>
</g>
<!-- Node4&#45;&gt;Node11 -->
<g id="edge10_Node000004_Node000011" class="edge">
<title>Node4&#45;&gt;Node11</title>
<g id="a_edge10_Node000004_Node000011"><a xlink:title=" ">
<path fill="none" stroke="#63b8ff" d="M1053.63,-200.62C1048,-199.72 1042.41,-198.83 1037,-198 924.31,-180.63 880.71,-220.76 783,-162 742.12,-137.42 703.48,-101.81 735,-66 754.9,-43.4 932.25,-28.24 1041.15,-20.97"/>
<polygon fill="#63b8ff" stroke="#63b8ff" points="1041.4,-24.47 1051.14,-20.32 1040.94,-17.48 1041.4,-24.47"/>
</a>
</g>
</g>
<!-- Node12 -->
<g id="Node000012" class="node">
<title>Node12</title>
<g id="a_Node000012"><a xlink:title=" ">
<polygon fill="#e0e0e0" stroke="#999999" points="884,-90.5 744,-90.5 744,-71.5 884,-71.5 884,-90.5"/>
<text text-anchor="middle" x="814" y="-78.5" font-family="Helvetica,sans-Serif" font-size="10.00">deal.II/dofs/dof_handler.h</text>
</a>
</g>
</g>
<!-- Node4&#45;&gt;Node12 -->
<g id="edge11_Node000004_Node000012" class="edge">
<title>Node4&#45;&gt;Node12</title>
<g id="a_edge11_Node000004_Node000012"><a xlink:title=" ">
<path fill="none" stroke="#63b8ff" d="M1053.84,-200.25C1049.16,-199.48 1044.51,-198.72 1040,-198 985.44,-189.29 830.13,-203.8 794,-162 778.83,-144.45 790.87,-117.08 801.76,-99.34"/>
<polygon fill="#63b8ff" stroke="#63b8ff" points="804.93,-100.88 807.5,-90.6 799.09,-97.03 804.93,-100.88"/>
</a>
</g>
</g>
<!-- Node13 -->
<g id="Node000013" class="node">
<title>Node13</title>
<g id="a_Node000013"><a xlink:title=" ">
<polygon fill="#e0e0e0" stroke="#999999" points="884.5,-156.5 803.5,-156.5 803.5,-137.5 884.5,-137.5 884.5,-156.5"/>
<text text-anchor="middle" x="844" y="-144.5" font-family="Helvetica,sans-Serif" font-size="10.00">deal.II/fe/fe.h</text>
</a>
</g>
</g>
<!-- Node4&#45;&gt;Node13 -->
<g id="edge12_Node000004_Node000013" class="edge">
<title>Node4&#45;&gt;Node13</title>
<g id="a_edge12_Node000004_Node000013"><a xlink:title=" ">
<path fill="none" stroke="#63b8ff" d="M1053.72,-198.22C1008.43,-188.68 947.44,-175.36 894,-162 890.57,-161.14 887.02,-160.22 883.47,-159.27"/>
<polygon fill="#63b8ff" stroke="#63b8ff" points="884.11,-155.82 873.54,-156.57 882.27,-162.57 884.11,-155.82"/>
</a>
</g>
</g>
<!-- Node14 -->
<g id="Node000014" class="node">
<title>Node14</title>
<g id="a_Node000014"><a xlink:title=" ">
<polygon fill="#e0e0e0" stroke="#999999" points="1017,-156.5 903,-156.5 903,-137.5 1017,-137.5 1017,-156.5"/>
<text text-anchor="middle" x="960" y="-144.5" font-family="Helvetica,sans-Serif" font-size="10.00">deal.II/fe/mapping.h</text>
</a>
</g>
</g>
<!-- Node4&#45;&gt;Node14 -->
<g id="edge13_Node000004_Node000014" class="edge">
<title>Node4&#45;&gt;Node14</title>
<g id="a_edge13_Node000004_Node000014"><a xlink:title=" ">
<path fill="none" stroke="#63b8ff" d="M1085.67,-197.95C1057.31,-186.68 1017.89,-171.01 990.8,-160.25"/>
<polygon fill="#63b8ff" stroke="#63b8ff" points="992.01,-156.96 981.43,-156.52 989.43,-163.46 992.01,-156.96"/>
</a>
</g>
</g>
<!-- Node15 -->
<g id="Node000015" class="node">
<title>Node15</title>
<g id="a_Node000015"><a xlink:title=" ">
<polygon fill="#e0e0e0" stroke="#999999" points="999.5,-90.5 902.5,-90.5 902.5,-71.5 999.5,-71.5 999.5,-90.5"/>
<text text-anchor="middle" x="951" y="-78.5" font-family="Helvetica,sans-Serif" font-size="10.00">deal.II/grid/tria.h</text>
</a>
</g>
</g>
<!-- Node4&#45;&gt;Node15 -->
<g id="edge14_Node000004_Node000015" class="edge">
<title>Node4&#45;&gt;Node15</title>
<g id="a_edge14_Node000004_Node000015"><a xlink:title=" ">
<path fill="none" stroke="#63b8ff" d="M1105.31,-197.85C1086.83,-181.4 1054.97,-153.75 1026,-132 1008.9,-119.16 988.69,-105.78 973.56,-96.1"/>
<polygon fill="#63b8ff" stroke="#63b8ff" points="975.18,-92.99 964.87,-90.59 971.43,-98.9 975.18,-92.99"/>
</a>
</g>
</g>
<!-- Node16 -->
<g id="Node000016" class="node">
<title>Node16</title>
<g id="a_Node000016"><a xlink:title=" ">
<polygon fill="#e0e0e0" stroke="#999999" points="1168.5,-162 1073.5,-162 1073.5,-132 1168.5,-132 1168.5,-162"/>
<text text-anchor="start" x="1081.5" y="-150" font-family="Helvetica,sans-Serif" font-size="10.00">deal.II/lac/affine</text>
<text text-anchor="middle" x="1121" y="-139" font-family="Helvetica,sans-Serif" font-size="10.00">_constraints.h</text>
</a>
</g>
</g>
<!-- Node4&#45;&gt;Node16 -->
<g id="edge15_Node000004_Node000016" class="edge">
<title>Node4&#45;&gt;Node16</title>
<g id="a_edge15_Node000004_Node000016"><a xlink:title=" ">
<path fill="none" stroke="#63b8ff" d="M1121,-197.8C1121,-190.34 1121,-180.99 1121,-172.41"/>
<polygon fill="#63b8ff" stroke="#63b8ff" points="1124.5,-172.16 1121,-162.16 1117.5,-172.16 1124.5,-172.16"/>
</a>
</g>
</g>
<!-- Node17 -->
<g id="Node000017" class="node">
<title>Node17</title>
<g id="a_Node000017"><a xlink:title=" ">
<polygon fill="#e0e0e0" stroke="#999999" points="1305,-162 1187,-162 1187,-132 1305,-132 1305,-162"/>
<text text-anchor="start" x="1195" y="-150" font-family="Helvetica,sans-Serif" font-size="10.00">deal.II/lac/la_parallel</text>
<text text-anchor="middle" x="1246" y="-139" font-family="Helvetica,sans-Serif" font-size="10.00">_block_vector.h</text>
</a>
</g>
</g>
<!-- Node4&#45;&gt;Node17 -->
<g id="edge16_Node000004_Node000017" class="edge">
<title>Node4&#45;&gt;Node17</title>
<g id="a_edge16_Node000004_Node000017"><a xlink:title=" ">
<path fill="none" stroke="#63b8ff" d="M1148.43,-197.95C1166.42,-188.74 1190.15,-176.6 1209.7,-166.59"/>
<polygon fill="#63b8ff" stroke="#63b8ff" points="1211.33,-169.69 1218.63,-162.01 1208.14,-163.45 1211.33,-169.69"/>
</a>
</g>
</g>
<!-- Node18 -->
<g id="Node000018" class="node">
<title>Node18</title>
<g id="a_Node000018"><a xlink:title=" ">
<polygon fill="#e0e0e0" stroke="#999999" points="1124.5,-96 1017.5,-96 1017.5,-66 1124.5,-66 1124.5,-96"/>
<text text-anchor="start" x="1025.5" y="-84" font-family="Helvetica,sans-Serif" font-size="10.00">deal.II/matrix_free</text>
<text text-anchor="middle" x="1071" y="-73" font-family="Helvetica,sans-Serif" font-size="10.00">/matrix_free.h</text>
</a>
</g>
</g>
<!-- Node4&#45;&gt;Node18 -->
<g id="edge18_Node000004_Node000018" class="edge">
<title>Node4&#45;&gt;Node18</title>
<g id="a_edge18_Node000004_Node000018"><a xlink:title=" ">
<path fill="none" stroke="#63b8ff" d="M1188.06,-206.77C1258.01,-198.73 1352.52,-178.98 1314,-132 1264.25,-71.31 1217.52,-109.66 1134.62,-95.88"/>
<polygon fill="#63b8ff" stroke="#63b8ff" points="1135.08,-92.41 1124.6,-93.99 1133.78,-99.29 1135.08,-92.41"/>
</a>
</g>
</g>
<!-- Node19 -->
<g id="Node000019" class="node">
<title>Node19</title>
<g id="a_Node000019"><a xlink:href="util_8hpp.html" target="_top" xlink:title=" ">
<polygon fill="white" stroke="#666666" points="1491,-156.5 1361,-156.5 1361,-137.5 1491,-137.5 1491,-156.5"/>
<text text-anchor="middle" x="1426" y="-144.5" font-family="Helvetica,sans-Serif" font-size="10.00">meltpooldg/cut/util.hpp</text>
</a>
</g>
</g>
<!-- Node4&#45;&gt;Node19 -->
<g id="edge19_Node000004_Node000019" class="edge">
<title>Node4&#45;&gt;Node19</title>
<g id="a_edge19_Node000004_Node000019"><a xlink:title=" ">
<path fill="none" stroke="#63b8ff" d="M1187.93,-197.95C1244.49,-186.09 1324.25,-169.35 1375.55,-158.59"/>
<polygon fill="#63b8ff" stroke="#63b8ff" points="1376.34,-162 1385.41,-156.52 1374.9,-155.15 1376.34,-162"/>
</a>
</g>
</g>
<!-- Node4&#45;&gt;Node34 -->
<g id="edge46_Node000004_Node000034" class="edge">
<title>Node4&#45;&gt;Node34</title>
<g id="a_edge46_Node000004_Node000034"><a xlink:title=" ">
<path fill="none" stroke="#63b8ff" d="M1188.17,-208.03C1288.81,-201.38 1473.47,-186.29 1535,-162 1556,-153.71 1554.74,-139.6 1576,-132 1712.21,-83.28 2084.34,-125.33 2226,-96 2228.84,-95.41 2231.75,-94.65 2234.64,-93.79"/>
<polygon fill="#63b8ff" stroke="#63b8ff" points="2235.86,-97.07 2244.21,-90.55 2233.62,-90.44 2235.86,-97.07"/>
</a>
</g>
</g>
<!-- Node36 -->
<g id="Node000036" class="node">
<title>Node36</title>
<g id="a_Node000036"><a xlink:title=" ">
<polygon fill="#e0e0e0" stroke="#999999" points="2216.5,-90.5 2169.5,-90.5 2169.5,-71.5 2216.5,-71.5 2216.5,-90.5"/>
<text text-anchor="middle" x="2193" y="-78.5" font-family="Helvetica,sans-Serif" font-size="10.00">vector</text>
</a>
</g>
</g>
<!-- Node4&#45;&gt;Node36 -->
<g id="edge47_Node000004_Node000036" class="edge">
<title>Node4&#45;&gt;Node36</title>
<g id="a_edge47_Node000004_Node000036"><a xlink:title=" ">
<path fill="none" stroke="#63b8ff" d="M1188.06,-212.63C1265.7,-211.24 1396.21,-202.28 1500,-162 1521.72,-153.57 1520.98,-139.63 1543,-132 1802.53,-42.02 1892.53,-158.56 2160,-96 2162.17,-95.49 2164.37,-94.86 2166.56,-94.13"/>
<polygon fill="#63b8ff" stroke="#63b8ff" points="2167.81,-97.4 2175.91,-90.56 2165.32,-90.86 2167.81,-97.4"/>
</a>
</g>
</g>
<!-- Node37 -->
<g id="Node000037" class="node">
<title>Node37</title>
<g id="a_Node000037"><a xlink:href="conditional__ostream_8hpp.html" target="_top" xlink:title=" ">
<polygon fill="white" stroke="#666666" points="1725,-162 1585,-162 1585,-132 1725,-132 1725,-162"/>
<text text-anchor="start" x="1593" y="-150" font-family="Helvetica,sans-Serif" font-size="10.00">meltpooldg/utilities</text>
<text text-anchor="middle" x="1655" y="-139" font-family="Helvetica,sans-Serif" font-size="10.00">/conditional_ostream.hpp</text>
</a>
</g>
</g>
<!-- Node4&#45;&gt;Node37 -->
<g id="edge42_Node000004_Node000037" class="edge">
<title>Node4&#45;&gt;Node37</title>
<g id="a_edge42_Node000004_Node000037"><a xlink:title=" ">
<path fill="none" stroke="#63b8ff" d="M1188.23,-205.68C1276.32,-197.14 1435.52,-180.8 1571,-162 1572.28,-161.82 1573.56,-161.64 1574.86,-161.46"/>
<polygon fill="#63b8ff" stroke="#63b8ff" points="1575.53,-164.89 1584.92,-159.97 1574.51,-157.97 1575.53,-164.89"/>
</a>
</g>
</g>
<!-- Node39 -->
<g id="Node000039" class="node">
<title>Node39</title>
<g id="a_Node000039"><a xlink:title=" ">
<polygon fill="#e0e0e0" stroke="#999999" points="1808.5,-156.5 1743.5,-156.5 1743.5,-137.5 1808.5,-137.5 1808.5,-156.5"/>
<text text-anchor="middle" x="1776" y="-144.5" font-family="Helvetica,sans-Serif" font-size="10.00">functional</text>
</a>
</g>
</g>
<!-- Node4&#45;&gt;Node39 -->
<g id="edge44_Node000004_Node000039" class="edge">
<title>Node4&#45;&gt;Node39</title>
<g id="a_edge44_Node000004_Node000039"><a xlink:title=" ">
<path fill="none" stroke="#63b8ff" d="M1188.41,-211.77C1302.09,-210.21 1538.63,-201.92 1734,-162 1737.24,-161.34 1740.57,-160.5 1743.88,-159.57"/>
<polygon fill="#63b8ff" stroke="#63b8ff" points="1745.08,-162.87 1753.6,-156.57 1743.02,-156.18 1745.08,-162.87"/>
</a>
</g>
</g>
<!-- Node40 -->
<g id="Node000040" class="node">
<title>Node40</title>
<g id="a_Node000040"><a xlink:title=" ">
<polygon fill="#e0e0e0" stroke="#999999" points="1865,-156.5 1827,-156.5 1827,-137.5 1865,-137.5 1865,-156.5"/>
<text text-anchor="middle" x="1846" y="-144.5" font-family="Helvetica,sans-Serif" font-size="10.00">map</text>
</a>
</g>
</g>
<!-- Node4&#45;&gt;Node40 -->
<g id="edge45_Node000004_Node000040" class="edge">
<title>Node4&#45;&gt;Node40</title>
<g id="a_edge45_Node000004_Node000040"><a xlink:title=" ">
<path fill="none" stroke="#63b8ff" d="M1188.25,-210.51C1339.15,-206.63 1700.64,-194.18 1818,-162 1819.44,-161.6 1820.9,-161.13 1822.34,-160.61"/>
<polygon fill="#63b8ff" stroke="#63b8ff" points="1823.86,-163.76 1831.61,-156.54 1821.05,-157.35 1823.86,-163.76"/>
</a>
</g>
</g>
<!-- Node19&#45;&gt;Node11 -->
<g id="edge21_Node000019_Node000011" class="edge">
<title>Node19&#45;&gt;Node11</title>
<g id="a_edge21_Node000019_Node000011"><a xlink:title=" ">
<path fill="none" stroke="#63b8ff" d="M1415.67,-137.45C1391.33,-117.34 1332.02,-68.5 1327,-66 1301.4,-53.26 1230.03,-37.05 1179.64,-26.6"/>
<polygon fill="#63b8ff" stroke="#63b8ff" points="1180.05,-23.11 1169.55,-24.53 1178.64,-29.97 1180.05,-23.11"/>
</a>
</g>
</g>
<!-- Node19&#45;&gt;Node12 -->
<g id="edge22_Node000019_Node000012" class="edge">
<title>Node19&#45;&gt;Node12</title>
<g id="a_edge22_Node000019_Node000012"><a xlink:title=" ">
<path fill="none" stroke="#63b8ff" d="M1361.49,-137.5C1345.96,-135.57 1329.4,-133.62 1314,-132 1127.24,-112.35 1079.2,-120.41 893,-96 884.95,-94.94 876.47,-93.64 868.17,-92.26"/>
<polygon fill="#63b8ff" stroke="#63b8ff" points="868.63,-88.79 858.18,-90.55 867.45,-95.69 868.63,-88.79"/>
</a>
</g>
</g>
<!-- Node19&#45;&gt;Node15 -->
<g id="edge23_Node000019_Node000015" class="edge">
<title>Node19&#45;&gt;Node15</title>
<g id="a_edge23_Node000019_Node000015"><a xlink:title=" ">
<path fill="none" stroke="#63b8ff" d="M1360.86,-137.78C1345.5,-135.86 1329.17,-133.84 1314,-132 1178.06,-115.51 1142.75,-120.38 1008,-96 1002.99,-95.09 997.76,-94.01 992.6,-92.85"/>
<polygon fill="#63b8ff" stroke="#63b8ff" points="993.34,-89.43 982.81,-90.55 991.74,-96.24 993.34,-89.43"/>
</a>
</g>
</g>
<!-- Node19&#45;&gt;Node18 -->
<g id="edge26_Node000019_Node000018" class="edge">
<title>Node19&#45;&gt;Node18</title>
<g id="a_edge26_Node000019_Node000018"><a xlink:title=" ">
<path fill="none" stroke="#63b8ff" d="M1378.39,-137.5C1368.04,-135.67 1357.16,-133.76 1347,-132 1255.54,-116.17 1229.91,-114.52 1134.64,-96.06"/>
<polygon fill="#63b8ff" stroke="#63b8ff" points="1135.06,-92.58 1124.58,-94.1 1133.72,-99.45 1135.06,-92.58"/>
</a>
</g>
</g>
<!-- Node20 -->
<g id="Node000020" class="node">
<title>Node20</title>
<g id="a_Node000020"><a xlink:title=" ">
<polygon fill="#e0e0e0" stroke="#999999" points="1476.5,-96 1375.5,-96 1375.5,-66 1476.5,-66 1476.5,-96"/>
<text text-anchor="start" x="1383.5" y="-84" font-family="Helvetica,sans-Serif" font-size="10.00">deal.II/base/array</text>
<text text-anchor="middle" x="1426" y="-73" font-family="Helvetica,sans-Serif" font-size="10.00">_view.h</text>
</a>
</g>
</g>
<!-- Node19&#45;&gt;Node20 -->
<g id="edge20_Node000019_Node000020" class="edge">
<title>Node19&#45;&gt;Node20</title>
<g id="a_edge20_Node000019_Node000020"><a xlink:title=" ">
<path fill="none" stroke="#63b8ff" d="M1426,-137.37C1426,-129.49 1426,-117.45 1426,-106.6"/>
<polygon fill="#63b8ff" stroke="#63b8ff" points="1429.5,-106.36 1426,-96.36 1422.5,-106.36 1429.5,-106.36"/>
</a>
</g>
</g>
<!-- Node21 -->
<g id="Node000021" class="node">
<title>Node21</title>
<g id="a_Node000021"><a xlink:title=" ">
<polygon fill="#e0e0e0" stroke="#999999" points="1603.5,-96 1494.5,-96 1494.5,-66 1603.5,-66 1603.5,-96"/>
<text text-anchor="start" x="1502.5" y="-84" font-family="Helvetica,sans-Serif" font-size="10.00">deal.II/matrix_free</text>
<text text-anchor="middle" x="1549" y="-73" font-family="Helvetica,sans-Serif" font-size="10.00">/evaluation_flags.h</text>
</a>
</g>
</g>
<!-- Node19&#45;&gt;Node21 -->
<g id="edge24_Node000019_Node000021" class="edge">
<title>Node19&#45;&gt;Node21</title>
<g id="a_edge24_Node000019_Node000021"><a xlink:title=" ">
<path fill="none" stroke="#63b8ff" d="M1442.59,-137.37C1460.53,-128.03 1489.7,-112.86 1512.96,-100.75"/>
<polygon fill="#63b8ff" stroke="#63b8ff" points="1514.62,-103.84 1521.87,-96.12 1511.38,-97.63 1514.62,-103.84"/>
</a>
</g>
</g>
<!-- Node22 -->
<g id="Node000022" class="node">
<title>Node22</title>
<g id="a_Node000022"><a xlink:title=" ">
<polygon fill="#e0e0e0" stroke="#999999" points="1746.5,-96 1621.5,-96 1621.5,-66 1746.5,-66 1746.5,-96"/>
<text text-anchor="start" x="1629.5" y="-84" font-family="Helvetica,sans-Serif" font-size="10.00">deal.II/matrix_free</text>
<text text-anchor="middle" x="1684" y="-73" font-family="Helvetica,sans-Serif" font-size="10.00">/fe_point_evaluation.h</text>
</a>
</g>
</g>
<!-- Node19&#45;&gt;Node22 -->
<g id="edge25_Node000019_Node000022" class="edge">
<title>Node19&#45;&gt;Node22</title>
<g id="a_edge25_Node000019_Node000022"><a xlink:title=" ">
<path fill="none" stroke="#63b8ff" d="M1460.53,-137.44C1500.56,-127.5 1567.47,-110.91 1617.66,-98.46"/>
<polygon fill="#63b8ff" stroke="#63b8ff" points="1618.6,-101.83 1627.46,-96.02 1616.91,-95.04 1618.6,-101.83"/>
</a>
</g>
</g>
<!-- Node23 -->
<g id="Node000023" class="node">
<title>Node23</title>
<g id="a_Node000023"><a xlink:title=" ">
<polygon fill="#e0e0e0" stroke="#999999" points="1883.5,-96 1764.5,-96 1764.5,-66 1883.5,-66 1883.5,-96"/>
<text text-anchor="start" x="1772.5" y="-84" font-family="Helvetica,sans-Serif" font-size="10.00">deal.II/non_matching</text>
<text text-anchor="middle" x="1824" y="-73" font-family="Helvetica,sans-Serif" font-size="10.00">/mapping_info.h</text>
</a>
</g>
</g>
<!-- Node19&#45;&gt;Node23 -->
<g id="edge27_Node000019_Node000023" class="edge">
<title>Node19&#45;&gt;Node23</title>
<g id="a_edge27_Node000019_Node000023"><a xlink:title=" ">
<path fill="none" stroke="#63b8ff" d="M1472.74,-137.45C1483.34,-135.59 1494.55,-133.68 1505,-132 1613.13,-114.67 1643.29,-115.32 1754.41,-96.22"/>
<polygon fill="#63b8ff" stroke="#63b8ff" points="1755.08,-99.65 1764.33,-94.5 1753.88,-92.76 1755.08,-99.65"/>
</a>
</g>
</g>
<!-- Node24 -->
<g id="Node000024" class="node">
<title>Node24</title>
<g id="a_Node000024"><a xlink:title=" ">
<polygon fill="#e0e0e0" stroke="#999999" points="2020.5,-96 1901.5,-96 1901.5,-66 2020.5,-66 2020.5,-96"/>
<text text-anchor="start" x="1909.5" y="-84" font-family="Helvetica,sans-Serif" font-size="10.00">deal.II/non_matching</text>
<text text-anchor="middle" x="1961" y="-73" font-family="Helvetica,sans-Serif" font-size="10.00">/mesh_classifier.h</text>
</a>
</g>
</g>
<!-- Node19&#45;&gt;Node24 -->
<g id="edge28_Node000019_Node000024" class="edge">
<title>Node19&#45;&gt;Node24</title>
<g id="a_edge28_Node000019_Node000024"><a xlink:title=" ">
<path fill="none" stroke="#63b8ff" d="M1470.6,-137.43C1481.8,-135.46 1493.82,-133.51 1505,-132 1673.37,-109.31 1719.94,-121.03 1891.24,-96.16"/>
<polygon fill="#63b8ff" stroke="#63b8ff" points="1891.98,-99.59 1901.36,-94.67 1890.96,-92.66 1891.98,-99.59"/>
</a>
</g>
</g>
<!-- Node25 -->
<g id="Node000025" class="node">
<title>Node25</title>
<g id="a_Node000025"><a xlink:href="enum_8hpp.html" target="_top" xlink:title=" ">
<polygon fill="white" stroke="#666666" points="2151,-96 2039,-96 2039,-66 2151,-66 2151,-96"/>
<text text-anchor="start" x="2047" y="-84" font-family="Helvetica,sans-Serif" font-size="10.00">meltpooldg/utilities</text>
<text text-anchor="middle" x="2095" y="-73" font-family="Helvetica,sans-Serif" font-size="10.00">/enum.hpp</text>
</a>
</g>
</g>
<!-- Node19&#45;&gt;Node25 -->
<g id="edge29_Node000019_Node000025" class="edge">
<title>Node19&#45;&gt;Node25</title>
<g id="a_edge29_Node000019_Node000025"><a xlink:title=" ">
<path fill="none" stroke="#63b8ff" d="M1469.34,-137.46C1480.89,-135.42 1493.39,-133.42 1505,-132 1733.86,-103.96 1796.65,-128.01 2028.62,-96.05"/>
<polygon fill="#63b8ff" stroke="#63b8ff" points="2029.3,-99.49 2038.72,-94.64 2028.33,-92.56 2029.3,-99.49"/>
</a>
</g>
</g>
<!-- Node32 -->
<g id="Node000032" class="node">
<title>Node32</title>
<g id="a_Node000032"><a xlink:href="fe__integrator_8hpp.html" target="_top" xlink:title=" ">
<polygon fill="white" stroke="#666666" points="1255,-96 1143,-96 1143,-66 1255,-66 1255,-96"/>
<text text-anchor="start" x="1151" y="-84" font-family="Helvetica,sans-Serif" font-size="10.00">meltpooldg/utilities</text>
<text text-anchor="middle" x="1199" y="-73" font-family="Helvetica,sans-Serif" font-size="10.00">/fe_integrator.hpp</text>
</a>
</g>
</g>
<!-- Node19&#45;&gt;Node32 -->
<g id="edge36_Node000019_Node000032" class="edge">
<title>Node19&#45;&gt;Node32</title>
<g id="a_edge36_Node000019_Node000032"><a xlink:title=" ">
<path fill="none" stroke="#63b8ff" d="M1395.39,-137.37C1360.51,-127.54 1302.67,-111.23 1258.77,-98.85"/>
<polygon fill="#63b8ff" stroke="#63b8ff" points="1259.64,-95.46 1249.07,-96.12 1257.74,-102.2 1259.64,-95.46"/>
</a>
</g>
</g>
<!-- Node19&#45;&gt;Node34 -->
<g id="edge39_Node000019_Node000034" class="edge">
<title>Node19&#45;&gt;Node34</title>
<g id="a_edge39_Node000019_Node000034"><a xlink:title=" ">
<path fill="none" stroke="#63b8ff" d="M1490.6,-137.49C1507.62,-135.46 1525.98,-133.47 1543,-132 1845.86,-105.93 1928.25,-157.23 2226,-96 2228.84,-95.42 2231.75,-94.66 2234.64,-93.79"/>
<polygon fill="#63b8ff" stroke="#63b8ff" points="2235.86,-97.08 2244.21,-90.56 2233.62,-90.44 2235.86,-97.08"/>
</a>
</g>
</g>
<!-- Node35 -->
<g id="Node000035" class="node">
<title>Node35</title>
<g id="a_Node000035"><a xlink:title=" ">
<polygon fill="#e0e0e0" stroke="#999999" points="1318.5,-90.5 1273.5,-90.5 1273.5,-71.5 1318.5,-71.5 1318.5,-90.5"/>
<text text-anchor="middle" x="1296" y="-78.5" font-family="Helvetica,sans-Serif" font-size="10.00">utility</text>
</a>
</g>
</g>
<!-- Node19&#45;&gt;Node35 -->
<g id="edge40_Node000019_Node000035" class="edge">
<title>Node19&#45;&gt;Node35</title>
<g id="a_edge40_Node000019_Node000035"><a xlink:title=" ">
<path fill="none" stroke="#63b8ff" d="M1408.47,-137.37C1386.47,-126.54 1348.51,-107.85 1322.85,-95.22"/>
<polygon fill="#63b8ff" stroke="#63b8ff" points="1324.19,-91.98 1313.67,-90.7 1321.1,-98.26 1324.19,-91.98"/>
</a>
</g>
</g>
<!-- Node19&#45;&gt;Node36 -->
<g id="edge41_Node000019_Node000036" class="edge">
<title>Node19&#45;&gt;Node36</title>
<g id="a_edge41_Node000019_Node000036"><a xlink:title=" ">
<path fill="none" stroke="#63b8ff" d="M1468.5,-137.5C1480.28,-135.41 1493.1,-133.38 1505,-132 1794.62,-98.5 1876,-161.92 2160,-96 2162.17,-95.5 2164.37,-94.86 2166.56,-94.14"/>
<polygon fill="#63b8ff" stroke="#63b8ff" points="2167.81,-97.41 2175.91,-90.57 2165.32,-90.87 2167.81,-97.41"/>
</a>
</g>
</g>
<!-- Node26 -->
<g id="Node000026" class="node">
<title>Node26</title>
<g id="a_Node000026"><a xlink:title=" ">
<polygon fill="#e0e0e0" stroke="#999999" points="2296.5,-30 2169.5,-30 2169.5,0 2296.5,0 2296.5,-30"/>
<text text-anchor="start" x="2177.5" y="-18" font-family="Helvetica,sans-Serif" font-size="10.00">deal.II/base/parameter</text>
<text text-anchor="middle" x="2233" y="-7" font-family="Helvetica,sans-Serif" font-size="10.00">_handler.h</text>
</a>
</g>
</g>
<!-- Node25&#45;&gt;Node26 -->
<g id="edge30_Node000025_Node000026" class="edge">
<title>Node25&#45;&gt;Node26</title>
<g id="a_edge30_Node000025_Node000026"><a xlink:title=" ">
<path fill="none" stroke="#63b8ff" d="M2125.28,-65.95C2145.33,-56.66 2171.81,-44.38 2193.51,-34.32"/>
<polygon fill="#63b8ff" stroke="#63b8ff" points="2195.19,-37.39 2202.79,-30.01 2192.24,-31.04 2195.19,-37.39"/>
</a>
</g>
</g>
<!-- Node27 -->
<g id="Node000027" class="node">
<title>Node27</title>
<g id="a_Node000027"><a xlink:title=" ">
<polygon fill="#e0e0e0" stroke="#999999" points="2439.5,-24.5 2314.5,-24.5 2314.5,-5.5 2439.5,-5.5 2439.5,-24.5"/>
<text text-anchor="middle" x="2377" y="-12.5" font-family="Helvetica,sans-Serif" font-size="10.00">deal.II/base/patterns.h</text>
</a>
</g>
</g>
<!-- Node25&#45;&gt;Node27 -->
<g id="edge31_Node000025_Node000027" class="edge">
<title>Node25&#45;&gt;Node27</title>
<g id="a_edge31_Node000025_Node000027"><a xlink:title=" ">
<path fill="none" stroke="#63b8ff" d="M2151.05,-67.28C2203.35,-55.41 2280.5,-37.9 2329.74,-26.72"/>
<polygon fill="#63b8ff" stroke="#63b8ff" points="2330.53,-30.14 2339.51,-24.51 2328.98,-23.31 2330.53,-30.14"/>
</a>
</g>
</g>
<!-- Node28 -->
<g id="Node000028" class="node">
<title>Node28</title>
<g id="a_Node000028"><a xlink:title=" ">
<polygon fill="#e0e0e0" stroke="#999999" points="1871,-30 1759,-30 1759,0 1871,0 1871,-30"/>
<text text-anchor="start" x="1767" y="-18" font-family="Helvetica,sans-Serif" font-size="10.00">meltpooldg/utilities</text>
<text text-anchor="middle" x="1815" y="-7" font-family="Helvetica,sans-Serif" font-size="10.00">/better_enum.hpp</text>
</a>
</g>
</g>
<!-- Node25&#45;&gt;Node28 -->
<g id="edge32_Node000025_Node000028" class="edge">
<title>Node25&#45;&gt;Node28</title>
<g id="a_edge32_Node000025_Node000028"><a xlink:title=" ">
<path fill="none" stroke="#63b8ff" d="M2038.67,-67.13C1993.2,-56.73 1929.13,-42.09 1881.2,-31.13"/>
<polygon fill="#63b8ff" stroke="#63b8ff" points="1881.76,-27.67 1871.24,-28.85 1880.2,-34.49 1881.76,-27.67"/>
</a>
</g>
</g>
<!-- Node29 -->
<g id="Node000029" class="node">
<title>Node29</title>
<g id="a_Node000029"><a xlink:title=" ">
<polygon fill="#e0e0e0" stroke="#999999" points="2014.5,-30 1889.5,-30 1889.5,0 2014.5,0 2014.5,-30"/>
<text text-anchor="start" x="1897.5" y="-18" font-family="Helvetica,sans-Serif" font-size="10.00">boost/algorithm/string</text>
<text text-anchor="middle" x="1952" y="-7" font-family="Helvetica,sans-Serif" font-size="10.00">/join.hpp</text>
</a>
</g>
</g>
<!-- Node25&#45;&gt;Node29 -->
<g id="edge33_Node000025_Node000029" class="edge">
<title>Node25&#45;&gt;Node29</title>
<g id="a_edge33_Node000025_Node000029"><a xlink:title=" ">
<path fill="none" stroke="#63b8ff" d="M2063.62,-65.95C2042.76,-56.62 2015.16,-44.27 1992.62,-34.18"/>
<polygon fill="#63b8ff" stroke="#63b8ff" points="1993.87,-30.9 1983.31,-30.01 1991.01,-37.29 1993.87,-30.9"/>
</a>
</g>
</g>
<!-- Node30 -->
<g id="Node000030" class="node">
<title>Node30</title>
<g id="a_Node000030"><a xlink:title=" ">
<polygon fill="#e0e0e0" stroke="#999999" points="2089,-24.5 2033,-24.5 2033,-5.5 2089,-5.5 2089,-24.5"/>
<text text-anchor="middle" x="2061" y="-12.5" font-family="Helvetica,sans-Serif" font-size="10.00">sstream</text>
</a>
</g>
</g>
<!-- Node25&#45;&gt;Node30 -->
<g id="edge34_Node000025_Node000030" class="edge">
<title>Node25&#45;&gt;Node30</title>
<g id="a_edge34_Node000025_Node000030"><a xlink:title=" ">
<path fill="none" stroke="#63b8ff" d="M2087.45,-65.8C2082.47,-56.41 2075.88,-44.02 2070.53,-33.95"/>
<polygon fill="#63b8ff" stroke="#63b8ff" points="2073.48,-32.03 2065.7,-24.84 2067.3,-35.32 2073.48,-32.03"/>
</a>
</g>
</g>
<!-- Node31 -->
<g id="Node000031" class="node">
<title>Node31</title>
<g id="a_Node000031"><a xlink:title=" ">
<polygon fill="#e0e0e0" stroke="#999999" points="2151,-24.5 2107,-24.5 2107,-5.5 2151,-5.5 2151,-24.5"/>
<text text-anchor="middle" x="2129" y="-12.5" font-family="Helvetica,sans-Serif" font-size="10.00">string</text>
</a>
</g>
</g>
<!-- Node25&#45;&gt;Node31 -->
<g id="edge35_Node000025_Node000031" class="edge">
<title>Node25&#45;&gt;Node31</title>
<g id="a_edge35_Node000025_Node000031"><a xlink:title=" ">
<path fill="none" stroke="#63b8ff" d="M2102.55,-65.8C2107.53,-56.41 2114.12,-44.02 2119.47,-33.95"/>
<polygon fill="#63b8ff" stroke="#63b8ff" points="2122.7,-35.32 2124.3,-24.84 2116.52,-32.03 2122.7,-35.32"/>
</a>
</g>
</g>
<!-- Node32&#45;&gt;Node11 -->
<g id="edge37_Node000032_Node000011" class="edge">
<title>Node32&#45;&gt;Node11</title>
<g id="a_edge37_Node000032_Node000011"><a xlink:title=" ">
<path fill="none" stroke="#63b8ff" d="M1182.8,-65.8C1171.2,-55.62 1155.58,-41.93 1143.66,-31.48"/>
<polygon fill="#63b8ff" stroke="#63b8ff" points="1145.91,-28.8 1136.09,-24.84 1141.3,-34.07 1145.91,-28.8"/>
</a>
</g>
</g>
<!-- Node33 -->
<g id="Node000033" class="node">
<title>Node33</title>
<g id="a_Node000033"><a xlink:title=" ">
<polygon fill="#e0e0e0" stroke="#999999" points="1325.5,-30 1218.5,-30 1218.5,0 1325.5,0 1325.5,-30"/>
<text text-anchor="start" x="1226.5" y="-18" font-family="Helvetica,sans-Serif" font-size="10.00">deal.II/matrix_free</text>
<text text-anchor="middle" x="1272" y="-7" font-family="Helvetica,sans-Serif" font-size="10.00">/fe_evaluation.h</text>
</a>
</g>
</g>
<!-- Node32&#45;&gt;Node33 -->
<g id="edge38_Node000032_Node000033" class="edge">
<title>Node32&#45;&gt;Node33</title>
<g id="a_edge38_Node000032_Node000033"><a xlink:title=" ">
<path fill="none" stroke="#63b8ff" d="M1215.2,-65.8C1224.84,-57.34 1237.25,-46.46 1248.01,-37.03"/>
<polygon fill="#63b8ff" stroke="#63b8ff" points="1250.63,-39.39 1255.84,-30.16 1246.02,-34.12 1250.63,-39.39"/>
</a>
</g>
</g>
<!-- Node38 -->
<g id="Node000038" class="node">
<title>Node38</title>
<g id="a_Node000038"><a xlink:title=" ">
<polygon fill="#e0e0e0" stroke="#999999" points="2441,-96 2311,-96 2311,-66 2441,-66 2441,-96"/>
<text text-anchor="start" x="2319" y="-84" font-family="Helvetica,sans-Serif" font-size="10.00">deal.II/base/conditional</text>
<text text-anchor="middle" x="2376" y="-73" font-family="Helvetica,sans-Serif" font-size="10.00">_ostream.h</text>
</a>
</g>
</g>
<!-- Node37&#45;&gt;Node38 -->
<g id="edge43_Node000037_Node000038" class="edge">
<title>Node37&#45;&gt;Node38</title>
<g id="a_edge43_Node000037_Node000038"><a xlink:title=" ">
<path fill="none" stroke="#63b8ff" d="M1725.18,-133.27C1728.49,-132.81 1731.78,-132.38 1735,-132 1982.44,-102.58 2049.7,-126.87 2300.55,-96.07"/>
<polygon fill="#63b8ff" stroke="#63b8ff" points="2301.21,-99.52 2310.7,-94.81 2300.34,-92.57 2301.21,-99.52"/>
</a>
</g>
</g>
</g>
</svg>

<g id="navigator" transform="translate(0 0)" fill="#404254">
  <rect fill="#f2f5e9" fill-opacity="0.5" stroke="#606060" stroke-width=".5" x="0" y="0" width="60" height="60"/>
  <use id="zoomplus" xlink:href="#zoomPlus" x="17" y="9" onmousedown="handleZoom(evt,'in')"/>
  <use id="zoomminus" xlink:href="#zoomMin" x="42" y="9" onmousedown="handleZoom(evt,'out')"/>
  <use id="reset" xlink:href="#resetDef" x="30" y="36" onmousedown="handleReset()"/>
   <use id="arrowup" xlink:href="#arrowUp" x="0" y="0" onmousedown="handlePan(0,-1)"/>
  <use id="arrowright" xlink:href="#arrowRight" x="0" y="0" onmousedown="handlePan(1,0)"/>
  <use id="arrowdown" xlink:href="#arrowDown" x="0" y="0" onmousedown="handlePan(0,1)"/>
  <use id="arrowleft" xlink:href="#arrowLeft" x="0" y="0" onmousedown="handlePan(-1,0)"/>
</g>
<svg viewBox="0 0 15 15" width="100%" height="30px" preserveAspectRatio="xMaxYMin meet">
 <g id="arrow_out" transform="scale(0.3 0.3)">
  <a xlink:href="laser__heat__source__volumetric_8hpp__incl_org.svg" target="_base">
   <rect id="button" ry="5" rx="5" y="6" x="6" height="38" width="38"
        fill="#f2f5e9" fill-opacity="0.5" stroke="#606060" stroke-width="1.0"/>
   <path id="arrow"
     d="M 11.500037,31.436501 C 11.940474,20.09759 22.043105,11.32322 32.158766,21.979434 L 37.068811,17.246167 C 37.068811,17.246167 37.088388,32 37.088388,32 L 22.160133,31.978069 C 22.160133,31.978069 26.997745,27.140456 26.997745,27.140456 C 18.528582,18.264221 13.291696,25.230495 11.500037,31.436501 z"
     style="fill:#404040;"/>
  </a>
 </g>
</svg>

<style type='text/css'>
<![CDATA[
[data-mouse-over-selected='false'] { opacity: 0.7; }
[data-mouse-over-selected='true']  { opacity: 1.0; }
]]>
</style>
<script type="application/ecmascript"><![CDATA[
document.addEventListener('DOMContentLoaded', (event) => {
  highlightEdges();
  highlightAdjacentNodes();
});
]]></script>
</svg>
