<?xml version="1.0" encoding="UTF-8" standalone="no"?>
<!DOCTYPE svg PUBLIC "-//W3C//DTD SVG 1.1//EN"
 "http://www.w3.org/Graphics/SVG/1.1/DTD/svg11.dtd">
<!-- Generated by graphviz version 2.43.0 (0)
 -->
<!-- Title: include/meltpooldg/heat/laser_intensity_profiles.hpp Pages: 1 -->
<svg width="1204pt" height="390pt"
 viewBox="0.00 0.00 1204.00 390.00" xmlns="http://www.w3.org/2000/svg" xmlns:xlink="http://www.w3.org/1999/xlink">
<g id="graph0" class="graph" transform="scale(1 1) rotate(0) translate(4 386)">
<title>include/meltpooldg/heat/laser_intensity_profiles.hpp</title>
<!-- Node1 -->
<g id="Node000001" class="node">
<title>Node1</title>
<g id="a_Node000001"><a xlink:title=" ">
<polygon fill="#999999" stroke="#666666" points="533,-382 417,-382 417,-341 533,-341 533,-382"/>
<text text-anchor="start" x="425" y="-370" font-family="Helvetica,sans-Serif" font-size="10.00">include/meltpooldg</text>
<text text-anchor="start" x="425" y="-359" font-family="Helvetica,sans-Serif" font-size="10.00">/heat/laser_intensity</text>
<text text-anchor="middle" x="475" y="-348" font-family="Helvetica,sans-Serif" font-size="10.00">_profiles.hpp</text>
</a>
</g>
</g>
<!-- Node2 -->
<g id="Node000002" class="node">
<title>Node2</title>
<g id="a_Node000002"><a xlink:title=" ">
<polygon fill="#e0e0e0" stroke="#999999" points="138,-299.5 0,-299.5 0,-280.5 138,-280.5 138,-299.5"/>
<text text-anchor="middle" x="69" y="-287.5" font-family="Helvetica,sans-Serif" font-size="10.00">deal.II/base/exceptions.h</text>
</a>
</g>
</g>
<!-- Node1&#45;&gt;Node2 -->
<g id="edge1_Node000001_Node000002" class="edge">
<title>Node1&#45;&gt;Node2</title>
<g id="a_edge1_Node000001_Node000002"><a xlink:title=" ">
<path fill="none" stroke="#63b8ff" d="M416.91,-350.85C351.32,-339.91 241.45,-321.47 147,-305 140.26,-303.83 133.2,-302.58 126.19,-301.33"/>
<polygon fill="#63b8ff" stroke="#63b8ff" points="126.47,-297.83 116.01,-299.52 125.24,-304.72 126.47,-297.83"/>
</a>
</g>
</g>
<!-- Node3 -->
<g id="Node000003" class="node">
<title>Node3</title>
<g id="a_Node000003"><a xlink:title=" ">
<polygon fill="#e0e0e0" stroke="#999999" points="281.5,-299.5 156.5,-299.5 156.5,-280.5 281.5,-280.5 281.5,-299.5"/>
<text text-anchor="middle" x="219" y="-287.5" font-family="Helvetica,sans-Serif" font-size="10.00">deal.II/base/function.h</text>
</a>
</g>
</g>
<!-- Node1&#45;&gt;Node3 -->
<g id="edge2_Node000001_Node000003" class="edge">
<title>Node1&#45;&gt;Node3</title>
<g id="a_edge2_Node000001_Node000003"><a xlink:title=" ">
<path fill="none" stroke="#63b8ff" d="M416.91,-344.73C369.11,-331.75 302.55,-313.68 260.11,-302.16"/>
<polygon fill="#63b8ff" stroke="#63b8ff" points="260.96,-298.77 250.39,-299.52 259.13,-305.52 260.96,-298.77"/>
</a>
</g>
</g>
<!-- Node4 -->
<g id="Node000004" class="node">
<title>Node4</title>
<g id="a_Node000004"><a xlink:title=" ">
<polygon fill="#e0e0e0" stroke="#999999" points="428,-299.5 300,-299.5 300,-280.5 428,-280.5 428,-299.5"/>
<text text-anchor="middle" x="364" y="-287.5" font-family="Helvetica,sans-Serif" font-size="10.00">deal.II/base/numbers.h</text>
</a>
</g>
</g>
<!-- Node1&#45;&gt;Node4 -->
<g id="edge3_Node000001_Node000004" class="edge">
<title>Node1&#45;&gt;Node4</title>
<g id="a_edge3_Node000001_Node000004"><a xlink:title=" ">
<path fill="none" stroke="#63b8ff" d="M443.78,-340.96C425.56,-329.54 402.98,-315.41 386.5,-305.09"/>
<polygon fill="#63b8ff" stroke="#63b8ff" points="387.91,-301.84 377.58,-299.5 384.2,-307.78 387.91,-301.84"/>
</a>
</g>
</g>
<!-- Node5 -->
<g id="Node000005" class="node">
<title>Node5</title>
<g id="a_Node000005"><a xlink:title=" ">
<polygon fill="#e0e0e0" stroke="#999999" points="418,-228 308,-228 308,-209 418,-209 418,-228"/>
<text text-anchor="middle" x="363" y="-216" font-family="Helvetica,sans-Serif" font-size="10.00">deal.II/base/point.h</text>
</a>
</g>
</g>
<!-- Node1&#45;&gt;Node5 -->
<g id="edge4_Node000001_Node000005" class="edge">
<title>Node1&#45;&gt;Node5</title>
<g id="a_edge4_Node000001_Node000005"><a xlink:title=" ">
<path fill="none" stroke="#63b8ff" d="M469.48,-340.98C463.58,-322.58 452.89,-294.95 437,-275 423.36,-257.89 403.28,-243.27 387.47,-233.34"/>
<polygon fill="#63b8ff" stroke="#63b8ff" points="389.11,-230.23 378.74,-228.05 385.48,-236.22 389.11,-230.23"/>
</a>
</g>
</g>
<!-- Node6 -->
<g id="Node000006" class="node">
<title>Node6</title>
<g id="a_Node000006"><a xlink:title=" ">
<polygon fill="#e0e0e0" stroke="#999999" points="551.5,-228 436.5,-228 436.5,-209 551.5,-209 551.5,-228"/>
<text text-anchor="middle" x="494" y="-216" font-family="Helvetica,sans-Serif" font-size="10.00">deal.II/base/tensor.h</text>
</a>
</g>
</g>
<!-- Node1&#45;&gt;Node6 -->
<g id="edge5_Node000001_Node000006" class="edge">
<title>Node1&#45;&gt;Node6</title>
<g id="a_edge5_Node000001_Node000006"><a xlink:title=" ">
<path fill="none" stroke="#63b8ff" d="M477.64,-340.89C481.32,-313.62 487.93,-264.57 491.52,-237.93"/>
<polygon fill="#63b8ff" stroke="#63b8ff" points="494.99,-238.39 492.85,-228.02 488.05,-237.46 494.99,-238.39"/>
</a>
</g>
</g>
<!-- Node7 -->
<g id="Node000007" class="node">
<title>Node7</title>
<g id="a_Node000007"><a xlink:title=" ">
<polygon fill="#e0e0e0" stroke="#999999" points="644,-299.5 522,-299.5 522,-280.5 644,-280.5 644,-299.5"/>
<text text-anchor="middle" x="583" y="-287.5" font-family="Helvetica,sans-Serif" font-size="10.00">deal.II/base/utilities.h</text>
</a>
</g>
</g>
<!-- Node1&#45;&gt;Node7 -->
<g id="edge6_Node000001_Node000007" class="edge">
<title>Node1&#45;&gt;Node7</title>
<g id="a_edge6_Node000001_Node000007"><a xlink:title=" ">
<path fill="none" stroke="#63b8ff" d="M505.37,-340.96C523.1,-329.54 545.07,-315.41 561.11,-305.09"/>
<polygon fill="#63b8ff" stroke="#63b8ff" points="563.27,-307.86 569.79,-299.5 559.48,-301.97 563.27,-307.86"/>
</a>
</g>
</g>
<!-- Node8 -->
<g id="Node000008" class="node">
<title>Node8</title>
<g id="a_Node000008"><a xlink:href="laser__data_8hpp.html" target="_top" xlink:title=" ">
<polygon fill="white" stroke="#666666" points="786,-305 662,-305 662,-275 786,-275 786,-305"/>
<text text-anchor="start" x="670" y="-293" font-family="Helvetica,sans-Serif" font-size="10.00">meltpooldg/heat/laser</text>
<text text-anchor="middle" x="724" y="-282" font-family="Helvetica,sans-Serif" font-size="10.00">_data.hpp</text>
</a>
</g>
</g>
<!-- Node1&#45;&gt;Node8 -->
<g id="edge7_Node000001_Node000008" class="edge">
<title>Node1&#45;&gt;Node8</title>
<g id="a_edge7_Node000001_Node000008"><a xlink:title=" ">
<path fill="none" stroke="#63b8ff" d="M533.07,-344.29C572.28,-333.35 623.93,-318.93 663.62,-307.85"/>
<polygon fill="#63b8ff" stroke="#63b8ff" points="664.75,-311.17 673.44,-305.11 662.86,-304.43 664.75,-311.17"/>
</a>
</g>
</g>
<!-- Node22 -->
<g id="Node000022" class="node">
<title>Node22</title>
<g id="a_Node000022"><a xlink:title=" ">
<polygon fill="#e0e0e0" stroke="#999999" points="851.5,-299.5 804.5,-299.5 804.5,-280.5 851.5,-280.5 851.5,-299.5"/>
<text text-anchor="middle" x="828" y="-287.5" font-family="Helvetica,sans-Serif" font-size="10.00">cmath</text>
</a>
</g>
</g>
<!-- Node1&#45;&gt;Node22 -->
<g id="edge31_Node000001_Node000022" class="edge">
<title>Node1&#45;&gt;Node22</title>
<g id="a_edge31_Node000001_Node000022"><a xlink:title=" ">
<path fill="none" stroke="#63b8ff" d="M533.14,-354.48C597.97,-346.84 705.49,-331.37 795,-305 796.68,-304.5 798.39,-303.95 800.11,-303.35"/>
<polygon fill="#63b8ff" stroke="#63b8ff" points="801.71,-306.48 809.77,-299.61 799.18,-299.96 801.71,-306.48"/>
</a>
</g>
</g>
<!-- Node8&#45;&gt;Node5 -->
<g id="edge9_Node000008_Node000005" class="edge">
<title>Node8&#45;&gt;Node5</title>
<g id="a_edge9_Node000008_Node000005"><a xlink:title=" ">
<path fill="none" stroke="#63b8ff" d="M661.69,-276.58C658.75,-276.04 655.84,-275.51 653,-275 552.87,-257.16 526.1,-261.88 427,-239 417.52,-236.81 407.4,-233.97 398.07,-231.14"/>
<polygon fill="#63b8ff" stroke="#63b8ff" points="398.91,-227.73 388.32,-228.09 396.82,-234.41 398.91,-227.73"/>
</a>
</g>
</g>
<!-- Node8&#45;&gt;Node6 -->
<g id="edge10_Node000008_Node000006" class="edge">
<title>Node8&#45;&gt;Node6</title>
<g id="a_edge10_Node000008_Node000006"><a xlink:title=" ">
<path fill="none" stroke="#63b8ff" d="M677.46,-274.94C634.62,-261.99 571.86,-243.03 531.97,-230.97"/>
<polygon fill="#63b8ff" stroke="#63b8ff" points="532.94,-227.61 522.35,-228.07 530.91,-234.31 532.94,-227.61"/>
</a>
</g>
</g>
<!-- Node9 -->
<g id="Node000009" class="node">
<title>Node9</title>
<g id="a_Node000009"><a xlink:title=" ">
<polygon fill="#e0e0e0" stroke="#999999" points="1136.5,-30 1009.5,-30 1009.5,0 1136.5,0 1136.5,-30"/>
<text text-anchor="start" x="1017.5" y="-18" font-family="Helvetica,sans-Serif" font-size="10.00">deal.II/base/parameter</text>
<text text-anchor="middle" x="1073" y="-7" font-family="Helvetica,sans-Serif" font-size="10.00">_handler.h</text>
</a>
</g>
</g>
<!-- Node8&#45;&gt;Node9 -->
<g id="edge8_Node000008_Node000009" class="edge">
<title>Node8&#45;&gt;Node9</title>
<g id="a_edge8_Node000008_Node000009"><a xlink:title=" ">
<path fill="none" stroke="#63b8ff" d="M786.31,-276.54C789.24,-276.01 792.15,-275.49 795,-275 848.57,-265.74 998.32,-277.21 1037,-239 1090.86,-185.81 1083.96,-86.05 1077.31,-40.19"/>
<polygon fill="#63b8ff" stroke="#63b8ff" points="1080.76,-39.58 1075.75,-30.25 1073.85,-40.67 1080.76,-39.58"/>
</a>
</g>
</g>
<!-- Node10 -->
<g id="Node000010" class="node">
<title>Node10</title>
<g id="a_Node000010"><a xlink:title=" ">
<polygon fill="#e0e0e0" stroke="#999999" points="1196,-228 1084,-228 1084,-209 1196,-209 1196,-228"/>
<text text-anchor="middle" x="1140" y="-216" font-family="Helvetica,sans-Serif" font-size="10.00">deal.II/base/types.h</text>
</a>
</g>
</g>
<!-- Node8&#45;&gt;Node10 -->
<g id="edge11_Node000008_Node000010" class="edge">
<title>Node8&#45;&gt;Node10</title>
<g id="a_edge11_Node000008_Node000010"><a xlink:title=" ">
<path fill="none" stroke="#63b8ff" d="M786.3,-276.48C789.24,-275.96 792.15,-275.47 795,-275 916.64,-255.07 949.21,-263.6 1070,-239 1080.77,-236.81 1092.32,-233.85 1102.87,-230.9"/>
<polygon fill="#63b8ff" stroke="#63b8ff" points="1103.98,-234.22 1112.62,-228.1 1102.05,-227.49 1103.98,-234.22"/>
</a>
</g>
</g>
<!-- Node11 -->
<g id="Node000011" class="node">
<title>Node11</title>
<g id="a_Node000011"><a xlink:href="core_2material__data_8hpp.html" target="_top" xlink:title=" ">
<polygon fill="white" stroke="#666666" points="756,-162 616,-162 616,-132 756,-132 756,-162"/>
<text text-anchor="start" x="624" y="-150" font-family="Helvetica,sans-Serif" font-size="10.00">meltpooldg/core/material</text>
<text text-anchor="middle" x="686" y="-139" font-family="Helvetica,sans-Serif" font-size="10.00">_data.hpp</text>
</a>
</g>
</g>
<!-- Node8&#45;&gt;Node11 -->
<g id="edge12_Node000008_Node000011" class="edge">
<title>Node8&#45;&gt;Node11</title>
<g id="a_edge12_Node000008_Node000011"><a xlink:title=" ">
<path fill="none" stroke="#63b8ff" d="M719.9,-274.58C717.08,-264.6 713.26,-251 710,-239 703.84,-216.33 697.03,-190.42 692.24,-172.06"/>
<polygon fill="#63b8ff" stroke="#63b8ff" points="695.58,-171 689.68,-162.2 688.81,-172.76 695.58,-171"/>
</a>
</g>
</g>
<!-- Node12 -->
<g id="Node000012" class="node">
<title>Node12</title>
<g id="a_Node000012"><a xlink:href="enum_8hpp.html" target="_top" xlink:title=" ">
<polygon fill="white" stroke="#666666" points="876,-96 764,-96 764,-66 876,-66 876,-96"/>
<text text-anchor="start" x="772" y="-84" font-family="Helvetica,sans-Serif" font-size="10.00">meltpooldg/utilities</text>
<text text-anchor="middle" x="820" y="-73" font-family="Helvetica,sans-Serif" font-size="10.00">/enum.hpp</text>
</a>
</g>
</g>
<!-- Node8&#45;&gt;Node12 -->
<g id="edge27_Node000008_Node000012" class="edge">
<title>Node8&#45;&gt;Node12</title>
<g id="a_edge27_Node000008_Node000012"><a xlink:title=" ">
<path fill="none" stroke="#63b8ff" d="M725.05,-274.94C726.8,-256.62 731.25,-223.88 742,-198 744.11,-192.93 782.22,-137.05 804.37,-104.74"/>
<polygon fill="#63b8ff" stroke="#63b8ff" points="807.39,-106.54 810.16,-96.31 801.61,-102.58 807.39,-106.54"/>
</a>
</g>
</g>
<!-- Node17 -->
<g id="Node000017" class="node">
<title>Node17</title>
<g id="a_Node000017"><a xlink:title=" ">
<polygon fill="#e0e0e0" stroke="#999999" points="500,-24.5 456,-24.5 456,-5.5 500,-5.5 500,-24.5"/>
<text text-anchor="middle" x="478" y="-12.5" font-family="Helvetica,sans-Serif" font-size="10.00">string</text>
</a>
</g>
</g>
<!-- Node8&#45;&gt;Node17 -->
<g id="edge29_Node000008_Node000017" class="edge">
<title>Node8&#45;&gt;Node17</title>
<g id="a_edge29_Node000008_Node000017"><a xlink:title=" ">
<path fill="none" stroke="#63b8ff" d="M710.92,-274.99C689.19,-251.68 644.35,-203.4 607,-162 564.88,-115.32 515.92,-59.45 492.25,-32.35"/>
<polygon fill="#63b8ff" stroke="#63b8ff" points="494.71,-29.85 485.5,-24.61 489.44,-34.45 494.71,-29.85"/>
</a>
</g>
</g>
<!-- Node19 -->
<g id="Node000019" class="node">
<title>Node19</title>
<g id="a_Node000019"><a xlink:href="delta__approximation__phase__weighted__data_8hpp.html" target="_top" xlink:title=" ">
<polygon fill="white" stroke="#666666" points="900.5,-239 751.5,-239 751.5,-198 900.5,-198 900.5,-239"/>
<text text-anchor="start" x="759.5" y="-227" font-family="Helvetica,sans-Serif" font-size="10.00">meltpooldg/level_set</text>
<text text-anchor="start" x="759.5" y="-216" font-family="Helvetica,sans-Serif" font-size="10.00">/delta_approximation</text>
<text text-anchor="middle" x="826" y="-205" font-family="Helvetica,sans-Serif" font-size="10.00">_phase_weighted_data.hpp</text>
</a>
</g>
</g>
<!-- Node8&#45;&gt;Node19 -->
<g id="edge23_Node000008_Node000019" class="edge">
<title>Node8&#45;&gt;Node19</title>
<g id="a_edge23_Node000008_Node000019"><a xlink:title=" ">
<path fill="none" stroke="#63b8ff" d="M744.64,-274.94C757.29,-266.31 773.86,-255.02 788.75,-244.88"/>
<polygon fill="#63b8ff" stroke="#63b8ff" points="790.98,-247.6 797.27,-239.07 787.04,-241.81 790.98,-247.6"/>
</a>
</g>
</g>
<!-- Node20 -->
<g id="Node000020" class="node">
<title>Node20</title>
<g id="a_Node000020"><a xlink:title=" ">
<polygon fill="#e0e0e0" stroke="#999999" points="962,-228 918,-228 918,-209 962,-209 962,-228"/>
<text text-anchor="middle" x="940" y="-216" font-family="Helvetica,sans-Serif" font-size="10.00">limits</text>
</a>
</g>
</g>
<!-- Node8&#45;&gt;Node20 -->
<g id="edge28_Node000008_Node000020" class="edge">
<title>Node8&#45;&gt;Node20</title>
<g id="a_edge28_Node000008_Node000020"><a xlink:title=" ">
<path fill="none" stroke="#63b8ff" d="M783.41,-274.97C828.53,-263.94 886.52,-248.84 909,-239 912.53,-237.46 916.12,-235.55 919.55,-233.54"/>
<polygon fill="#63b8ff" stroke="#63b8ff" points="921.5,-236.45 928.1,-228.16 917.77,-230.53 921.5,-236.45"/>
</a>
</g>
</g>
<!-- Node21 -->
<g id="Node000021" class="node">
<title>Node21</title>
<g id="a_Node000021"><a xlink:title=" ">
<polygon fill="#e0e0e0" stroke="#999999" points="1027.5,-228 980.5,-228 980.5,-209 1027.5,-209 1027.5,-228"/>
<text text-anchor="middle" x="1004" y="-216" font-family="Helvetica,sans-Serif" font-size="10.00">vector</text>
</a>
</g>
</g>
<!-- Node8&#45;&gt;Node21 -->
<g id="edge30_Node000008_Node000021" class="edge">
<title>Node8&#45;&gt;Node21</title>
<g id="a_edge30_Node000008_Node000021"><a xlink:title=" ">
<path fill="none" stroke="#63b8ff" d="M786.16,-276.68C857.89,-262.42 966.63,-240.68 971,-239 974.94,-237.49 978.95,-235.53 982.76,-233.43"/>
<polygon fill="#63b8ff" stroke="#63b8ff" points="984.85,-236.26 991.65,-228.13 981.27,-230.25 984.85,-236.26"/>
</a>
</g>
</g>
<!-- Node11&#45;&gt;Node9 -->
<g id="edge13_Node000011_Node000009" class="edge">
<title>Node11&#45;&gt;Node9</title>
<g id="a_edge13_Node000011_Node000009"><a xlink:title=" ">
<path fill="none" stroke="#63b8ff" d="M752.63,-132C791.64,-123.12 841.61,-110.58 885,-96 938.16,-78.13 997.36,-51.82 1034.87,-34.31"/>
<polygon fill="#63b8ff" stroke="#63b8ff" points="1036.36,-37.48 1043.92,-30.06 1033.38,-31.14 1036.36,-37.48"/>
</a>
</g>
</g>
<!-- Node11&#45;&gt;Node12 -->
<g id="edge14_Node000011_Node000012" class="edge">
<title>Node11&#45;&gt;Node12</title>
<g id="a_edge14_Node000011_Node000012"><a xlink:title=" ">
<path fill="none" stroke="#63b8ff" d="M715.41,-131.95C734.78,-122.7 760.36,-110.49 781.37,-100.45"/>
<polygon fill="#63b8ff" stroke="#63b8ff" points="783.15,-103.48 790.66,-96.01 780.13,-97.16 783.15,-103.48"/>
</a>
</g>
</g>
<!-- Node11&#45;&gt;Node17 -->
<g id="edge22_Node000011_Node000017" class="edge">
<title>Node11&#45;&gt;Node17</title>
<g id="a_edge22_Node000011_Node000017"><a xlink:title=" ">
<path fill="none" stroke="#63b8ff" d="M668.56,-131.88C643.78,-111.93 599.46,-76.75 582,-66 568.61,-57.76 532.55,-40.83 506.65,-28.96"/>
<polygon fill="#63b8ff" stroke="#63b8ff" points="507.84,-25.66 497.29,-24.69 504.93,-32.03 507.84,-25.66"/>
</a>
</g>
</g>
<!-- Node18 -->
<g id="Node000018" class="node">
<title>Node18</title>
<g id="a_Node000018"><a xlink:href="numbers_8hpp.html" target="_top" xlink:title=" ">
<polygon fill="white" stroke="#666666" points="746,-96 634,-96 634,-66 746,-66 746,-96"/>
<text text-anchor="start" x="642" y="-84" font-family="Helvetica,sans-Serif" font-size="10.00">meltpooldg/utilities</text>
<text text-anchor="middle" x="690" y="-73" font-family="Helvetica,sans-Serif" font-size="10.00">/numbers.hpp</text>
</a>
</g>
</g>
<!-- Node11&#45;&gt;Node18 -->
<g id="edge21_Node000011_Node000018" class="edge">
<title>Node11&#45;&gt;Node18</title>
<g id="a_edge21_Node000011_Node000018"><a xlink:title=" ">
<path fill="none" stroke="#63b8ff" d="M686.89,-131.8C687.35,-124.34 687.94,-114.99 688.47,-106.41"/>
<polygon fill="#63b8ff" stroke="#63b8ff" points="691.98,-106.36 689.11,-96.16 685,-105.93 691.98,-106.36"/>
</a>
</g>
</g>
<!-- Node12&#45;&gt;Node9 -->
<g id="edge15_Node000012_Node000009" class="edge">
<title>Node12&#45;&gt;Node9</title>
<g id="a_edge15_Node000012_Node000009"><a xlink:title=" ">
<path fill="none" stroke="#63b8ff" d="M875.52,-65.95C914.49,-56.1 966.75,-42.88 1007.72,-32.51"/>
<polygon fill="#63b8ff" stroke="#63b8ff" points="1008.77,-35.86 1017.61,-30.01 1007.05,-29.07 1008.77,-35.86"/>
</a>
</g>
</g>
<!-- Node13 -->
<g id="Node000013" class="node">
<title>Node13</title>
<g id="a_Node000013"><a xlink:title=" ">
<polygon fill="#e0e0e0" stroke="#999999" points="991.5,-24.5 866.5,-24.5 866.5,-5.5 991.5,-5.5 991.5,-24.5"/>
<text text-anchor="middle" x="929" y="-12.5" font-family="Helvetica,sans-Serif" font-size="10.00">deal.II/base/patterns.h</text>
</a>
</g>
</g>
<!-- Node12&#45;&gt;Node13 -->
<g id="edge16_Node000012_Node000013" class="edge">
<title>Node12&#45;&gt;Node13</title>
<g id="a_edge16_Node000012_Node000013"><a xlink:title=" ">
<path fill="none" stroke="#63b8ff" d="M843.92,-65.95C862.28,-55.18 887.48,-40.38 905.69,-29.69"/>
<polygon fill="#63b8ff" stroke="#63b8ff" points="907.64,-32.6 914.49,-24.52 904.1,-26.56 907.64,-32.6"/>
</a>
</g>
</g>
<!-- Node14 -->
<g id="Node000014" class="node">
<title>Node14</title>
<g id="a_Node000014"><a xlink:title=" ">
<polygon fill="#e0e0e0" stroke="#999999" points="630,-30 518,-30 518,0 630,0 630,-30"/>
<text text-anchor="start" x="526" y="-18" font-family="Helvetica,sans-Serif" font-size="10.00">meltpooldg/utilities</text>
<text text-anchor="middle" x="574" y="-7" font-family="Helvetica,sans-Serif" font-size="10.00">/better_enum.hpp</text>
</a>
</g>
</g>
<!-- Node12&#45;&gt;Node14 -->
<g id="edge17_Node000012_Node000014" class="edge">
<title>Node12&#45;&gt;Node14</title>
<g id="a_edge17_Node000012_Node000014"><a xlink:title=" ">
<path fill="none" stroke="#63b8ff" d="M766.01,-65.95C728.2,-56.12 677.53,-42.93 637.73,-32.58"/>
<polygon fill="#63b8ff" stroke="#63b8ff" points="638.42,-29.14 627.86,-30.01 636.66,-35.92 638.42,-29.14"/>
</a>
</g>
</g>
<!-- Node15 -->
<g id="Node000015" class="node">
<title>Node15</title>
<g id="a_Node000015"><a xlink:title=" ">
<polygon fill="#e0e0e0" stroke="#999999" points="773.5,-30 648.5,-30 648.5,0 773.5,0 773.5,-30"/>
<text text-anchor="start" x="656.5" y="-18" font-family="Helvetica,sans-Serif" font-size="10.00">boost/algorithm/string</text>
<text text-anchor="middle" x="711" y="-7" font-family="Helvetica,sans-Serif" font-size="10.00">/join.hpp</text>
</a>
</g>
</g>
<!-- Node12&#45;&gt;Node15 -->
<g id="edge18_Node000012_Node000015" class="edge">
<title>Node12&#45;&gt;Node15</title>
<g id="a_edge18_Node000012_Node000015"><a xlink:title=" ">
<path fill="none" stroke="#63b8ff" d="M796.08,-65.95C780.75,-56.95 760.64,-45.14 743.82,-35.27"/>
<polygon fill="#63b8ff" stroke="#63b8ff" points="745.26,-32.06 734.86,-30.01 741.72,-38.09 745.26,-32.06"/>
</a>
</g>
</g>
<!-- Node16 -->
<g id="Node000016" class="node">
<title>Node16</title>
<g id="a_Node000016"><a xlink:title=" ">
<polygon fill="#e0e0e0" stroke="#999999" points="848,-24.5 792,-24.5 792,-5.5 848,-5.5 848,-24.5"/>
<text text-anchor="middle" x="820" y="-12.5" font-family="Helvetica,sans-Serif" font-size="10.00">sstream</text>
</a>
</g>
</g>
<!-- Node12&#45;&gt;Node16 -->
<g id="edge19_Node000012_Node000016" class="edge">
<title>Node12&#45;&gt;Node16</title>
<g id="a_edge19_Node000012_Node000016"><a xlink:title=" ">
<path fill="none" stroke="#63b8ff" d="M820,-65.8C820,-56.7 820,-44.79 820,-34.9"/>
<polygon fill="#63b8ff" stroke="#63b8ff" points="823.5,-34.84 820,-24.84 816.5,-34.84 823.5,-34.84"/>
</a>
</g>
</g>
<!-- Node12&#45;&gt;Node17 -->
<g id="edge20_Node000012_Node000017" class="edge">
<title>Node12&#45;&gt;Node17</title>
<g id="a_edge20_Node000012_Node000017"><a xlink:title=" ">
<path fill="none" stroke="#63b8ff" d="M763.68,-67.63C760.75,-67.06 757.84,-66.51 755,-66 646.26,-46.36 615.05,-61.04 509,-30 507.36,-29.52 505.7,-28.97 504.04,-28.37"/>
<polygon fill="#63b8ff" stroke="#63b8ff" points="505.31,-25.11 494.73,-24.58 502.67,-31.6 505.31,-25.11"/>
</a>
</g>
</g>
<!-- Node19&#45;&gt;Node9 -->
<g id="edge24_Node000019_Node000009" class="edge">
<title>Node19&#45;&gt;Node9</title>
<g id="a_edge24_Node000019_Node000009"><a xlink:title=" ">
<path fill="none" stroke="#63b8ff" d="M850.13,-197.81C896.97,-159.6 999.78,-75.73 1047.6,-36.72"/>
<polygon fill="#63b8ff" stroke="#63b8ff" points="1050.06,-39.23 1055.6,-30.2 1045.64,-33.81 1050.06,-39.23"/>
</a>
</g>
</g>
<!-- Node19&#45;&gt;Node11 -->
<g id="edge25_Node000019_Node000011" class="edge">
<title>Node19&#45;&gt;Node11</title>
<g id="a_edge25_Node000019_Node000011"><a xlink:title=" ">
<path fill="none" stroke="#63b8ff" d="M786.63,-197.96C766.89,-188.16 743.1,-176.35 723.61,-166.67"/>
<polygon fill="#63b8ff" stroke="#63b8ff" points="724.94,-163.42 714.43,-162.11 721.83,-169.69 724.94,-163.42"/>
</a>
</g>
</g>
<!-- Node19&#45;&gt;Node12 -->
<g id="edge26_Node000019_Node000012" class="edge">
<title>Node19&#45;&gt;Node12</title>
<g id="a_edge26_Node000019_Node000012"><a xlink:title=" ">
<path fill="none" stroke="#63b8ff" d="M825.13,-197.8C824.06,-173.65 822.25,-132.72 821.09,-106.55"/>
<polygon fill="#63b8ff" stroke="#63b8ff" points="824.57,-106.16 820.63,-96.33 817.58,-106.47 824.57,-106.16"/>
</a>
</g>
</g>
</g>
</svg>
