<?xml version="1.0" encoding="UTF-8" standalone="no"?>
<!DOCTYPE svg PUBLIC "-//W3C//DTD SVG 1.1//EN"
 "http://www.w3.org/Graphics/SVG/1.1/DTD/svg11.dtd">
<!-- Generated by graphviz version 2.43.0 (0)
 -->
<!-- Title: include/meltpooldg/heat/laser_intensity_profiles.hpp Pages: 1 -->
<svg width="831pt" height="203pt"
 viewBox="0.00 0.00 830.50 203.00" xmlns="http://www.w3.org/2000/svg" xmlns:xlink="http://www.w3.org/1999/xlink">
<g id="graph0" class="graph" transform="scale(1 1) rotate(0) translate(4 199)">
<title>include/meltpooldg/heat/laser_intensity_profiles.hpp</title>
<!-- Node1 -->
<g id="Node000001" class="node">
<title>Node1</title>
<g id="a_Node000001"><a xlink:title=" ">
<polygon fill="#999999" stroke="#666666" points="522,-195 406,-195 406,-154 522,-154 522,-195"/>
<text text-anchor="start" x="414" y="-183" font-family="Helvetica,sans-Serif" font-size="10.00">include/meltpooldg</text>
<text text-anchor="start" x="414" y="-172" font-family="Helvetica,sans-Serif" font-size="10.00">/heat/laser_intensity</text>
<text text-anchor="middle" x="464" y="-161" font-family="Helvetica,sans-Serif" font-size="10.00">_profiles.hpp</text>
</a>
</g>
</g>
<!-- Node2 -->
<g id="Node000002" class="node">
<title>Node2</title>
<g id="a_Node000002"><a xlink:href="powder__bed_8templates_8hpp.html" target="_top" xlink:title=" ">
<polygon fill="white" stroke="#666666" points="290,-118 114,-118 114,-77 290,-77 290,-118"/>
<text text-anchor="start" x="122" y="-106" font-family="Helvetica,sans-Serif" font-size="10.00">applications/mp&#45;heat</text>
<text text-anchor="start" x="122" y="-95" font-family="Helvetica,sans-Serif" font-size="10.00">&#45;transfer/cases/powder</text>
<text text-anchor="middle" x="202" y="-84" font-family="Helvetica,sans-Serif" font-size="10.00">_bed/powder_bed.templates.hpp</text>
</a>
</g>
</g>
<!-- Node1&#45;&gt;Node2 -->
<g id="edge1_Node000001_Node000002" class="edge">
<title>Node1&#45;&gt;Node2</title>
<g id="a_edge1_Node000001_Node000002"><a xlink:title=" ">
<path fill="none" stroke="#63b8ff" d="M396.22,-154.1C357.47,-143 309.01,-129.13 270.19,-118.02"/>
<polygon fill="#63b8ff" stroke="#63b8ff" points="395.28,-157.47 405.85,-156.86 397.2,-150.74 395.28,-157.47"/>
</a>
</g>
</g>
<!-- Node5 -->
<g id="Node000005" class="node">
<title>Node5</title>
<g id="a_Node000005"><a xlink:href="radiative__transport_8templates_8hpp.html" target="_top" xlink:title=" ">
<polygon fill="white" stroke="#666666" points="450,-118 308,-118 308,-77 450,-77 450,-118"/>
<text text-anchor="start" x="316" y="-106" font-family="Helvetica,sans-Serif" font-size="10.00">applications/mp&#45;radiative</text>
<text text-anchor="start" x="316" y="-95" font-family="Helvetica,sans-Serif" font-size="10.00">&#45;transport/cases/radiative</text>
<text text-anchor="middle" x="379" y="-84" font-family="Helvetica,sans-Serif" font-size="10.00">_transport.templates.hpp</text>
</a>
</g>
</g>
<!-- Node1&#45;&gt;Node5 -->
<g id="edge4_Node000001_Node000005" class="edge">
<title>Node1&#45;&gt;Node5</title>
<g id="a_edge4_Node000001_Node000005"><a xlink:title=" ">
<path fill="none" stroke="#63b8ff" d="M434.05,-147.07C423.23,-137.52 411.22,-126.93 401.18,-118.07"/>
<polygon fill="#63b8ff" stroke="#63b8ff" points="431.85,-149.8 441.67,-153.79 436.48,-144.55 431.85,-149.8"/>
</a>
</g>
</g>
<!-- Node7 -->
<g id="Node000007" class="node">
<title>Node7</title>
<g id="a_Node000007"><a xlink:href="laser__heat__source__projection__based_8cpp.html" target="_top" xlink:title=" ">
<polygon fill="white" stroke="#666666" points="631.5,-112.5 468.5,-112.5 468.5,-82.5 631.5,-82.5 631.5,-112.5"/>
<text text-anchor="start" x="476.5" y="-100.5" font-family="Helvetica,sans-Serif" font-size="10.00">source/heat/laser_heat</text>
<text text-anchor="middle" x="550" y="-89.5" font-family="Helvetica,sans-Serif" font-size="10.00">_source_projection_based.cpp</text>
</a>
</g>
</g>
<!-- Node1&#45;&gt;Node7 -->
<g id="edge6_Node000001_Node000007" class="edge">
<title>Node1&#45;&gt;Node7</title>
<g id="a_edge6_Node000001_Node000007"><a xlink:title=" ">
<path fill="none" stroke="#63b8ff" d="M494.19,-147.17C507.52,-135.55 522.66,-122.34 533.8,-112.63"/>
<polygon fill="#63b8ff" stroke="#63b8ff" points="491.83,-144.58 486.6,-153.79 496.43,-149.86 491.83,-144.58"/>
</a>
</g>
</g>
<!-- Node8 -->
<g id="Node000008" class="node">
<title>Node8</title>
<g id="a_Node000008"><a xlink:href="laser__operation_8cpp.html" target="_top" xlink:title=" ">
<polygon fill="white" stroke="#666666" points="822.5,-107 649.5,-107 649.5,-88 822.5,-88 822.5,-107"/>
<text text-anchor="middle" x="736" y="-95" font-family="Helvetica,sans-Serif" font-size="10.00">source/heat/laser_operation.cpp</text>
</a>
</g>
</g>
<!-- Node1&#45;&gt;Node8 -->
<g id="edge7_Node000001_Node000008" class="edge">
<title>Node1&#45;&gt;Node8</title>
<g id="a_edge7_Node000001_Node000008"><a xlink:title=" ">
<path fill="none" stroke="#63b8ff" d="M531.78,-154.81C587.27,-139.51 663.21,-118.57 705.1,-107.02"/>
<polygon fill="#63b8ff" stroke="#63b8ff" points="530.73,-151.47 522.02,-157.5 532.59,-158.22 530.73,-151.47"/>
</a>
</g>
</g>
<!-- Node3 -->
<g id="Node000003" class="node">
<title>Node3</title>
<g id="a_Node000003"><a xlink:href="applications_2mp-heat-transfer_2cases_2powder__bed_2powder__bed_8cpp.html" target="_top" xlink:title=" ">
<polygon fill="white" stroke="#666666" points="128,-41 0,-41 0,0 128,0 128,-41"/>
<text text-anchor="start" x="8" y="-29" font-family="Helvetica,sans-Serif" font-size="10.00">applications/mp&#45;heat</text>
<text text-anchor="start" x="8" y="-18" font-family="Helvetica,sans-Serif" font-size="10.00">&#45;transfer/cases/powder</text>
<text text-anchor="middle" x="64" y="-7" font-family="Helvetica,sans-Serif" font-size="10.00">_bed/powder_bed.cpp</text>
</a>
</g>
</g>
<!-- Node2&#45;&gt;Node3 -->
<g id="edge2_Node000002_Node000003" class="edge">
<title>Node2&#45;&gt;Node3</title>
<g id="a_edge2_Node000002_Node000003"><a xlink:title=" ">
<path fill="none" stroke="#63b8ff" d="M157.28,-72.19C138.8,-62.15 117.67,-50.67 100.2,-41.17"/>
<polygon fill="#63b8ff" stroke="#63b8ff" points="155.64,-75.29 166.1,-76.99 158.99,-69.14 155.64,-75.29"/>
</a>
</g>
</g>
<!-- Node4 -->
<g id="Node000004" class="node">
<title>Node4</title>
<g id="a_Node000004"><a xlink:href="applications_2mp-melt-pool_2cases_2powder__bed_2powder__bed_8cpp.html" target="_top" xlink:title=" ">
<polygon fill="white" stroke="#666666" points="280,-41 146,-41 146,0 280,0 280,-41"/>
<text text-anchor="start" x="154" y="-29" font-family="Helvetica,sans-Serif" font-size="10.00">applications/mp&#45;melt</text>
<text text-anchor="start" x="154" y="-18" font-family="Helvetica,sans-Serif" font-size="10.00">&#45;pool/cases/powder_bed</text>
<text text-anchor="middle" x="213" y="-7" font-family="Helvetica,sans-Serif" font-size="10.00">/powder_bed.cpp</text>
</a>
</g>
</g>
<!-- Node2&#45;&gt;Node4 -->
<g id="edge3_Node000002_Node000004" class="edge">
<title>Node2&#45;&gt;Node4</title>
<g id="a_edge3_Node000002_Node000004"><a xlink:title=" ">
<path fill="none" stroke="#63b8ff" d="M206.37,-66.69C207.64,-58.08 208.98,-48.9 210.13,-41.07"/>
<polygon fill="#63b8ff" stroke="#63b8ff" points="202.88,-66.39 204.89,-76.79 209.8,-67.41 202.88,-66.39"/>
</a>
</g>
</g>
<!-- Node6 -->
<g id="Node000006" class="node">
<title>Node6</title>
<g id="a_Node000006"><a xlink:href="mp-radiative-transport_2cases_2radiative__transport_8cpp.html" target="_top" xlink:title=" ">
<polygon fill="white" stroke="#666666" points="450,-41 308,-41 308,0 450,0 450,-41"/>
<text text-anchor="start" x="316" y="-29" font-family="Helvetica,sans-Serif" font-size="10.00">applications/mp&#45;radiative</text>
<text text-anchor="start" x="316" y="-18" font-family="Helvetica,sans-Serif" font-size="10.00">&#45;transport/cases/radiative</text>
<text text-anchor="middle" x="379" y="-7" font-family="Helvetica,sans-Serif" font-size="10.00">_transport.cpp</text>
</a>
</g>
</g>
<!-- Node5&#45;&gt;Node6 -->
<g id="edge5_Node000005_Node000006" class="edge">
<title>Node5&#45;&gt;Node6</title>
<g id="a_edge5_Node000005_Node000006"><a xlink:title=" ">
<path fill="none" stroke="#63b8ff" d="M379,-66.69C379,-58.08 379,-48.9 379,-41.07"/>
<polygon fill="#63b8ff" stroke="#63b8ff" points="375.5,-66.79 379,-76.79 382.5,-66.79 375.5,-66.79"/>
</a>
</g>
</g>
</g>
</svg>
