<?xml version="1.0" encoding="UTF-8" standalone="no"?>
<!DOCTYPE svg PUBLIC "-//W3C//DTD SVG 1.1//EN"
 "http://www.w3.org/Graphics/SVG/1.1/DTD/svg11.dtd">
<!-- Generated by graphviz version 2.43.0 (0)
 -->
<!-- Title: include/meltpooldg/level_set/level_set_operation_base.hpp Pages: 1 -->
<!--zoomable 258 -->

<svg id="main" version="1.1" xmlns="http://www.w3.org/2000/svg" xmlns:xlink="http://www.w3.org/1999/xlink" xml:space="preserve" onload="init(evt)">
<style type="text/css"><![CDATA[
.node, .edge {opacity: 0.7;}
.node.selected, .edge.selected {opacity: 1;}
.edge:hover path { stroke: red; }
.edge:hover polygon { stroke: red; fill: red; }
]]></style>

<defs>
  <circle id="rim" cx="0" cy="0" r="7"/>
  <circle id="rim2" cx="0" cy="0" r="3.5"/>
  <g id="zoomPlus">
    <use xlink:href="#rim" fill="#404040"><set attributeName="fill" to="#808080" begin="zoomplus.mouseover" end="zoomplus.mouseout"/></use>
    <path d="M-4,0h8M0,-4v8" fill="none" stroke="white" stroke-width="1.5" pointer-events="none"/>
  </g>
  <g id="zoomMin">
    <use xlink:href="#rim" fill="#404040"><set attributeName="fill" to="#808080" begin="zoomminus.mouseover" end="zoomminus.mouseout"/></use>
    <path d="M-4,0h8" fill="none" stroke="white" stroke-width="1.5" pointer-events="none"/>
  </g>
  <g id="arrowUp" transform="translate(30 24)">
    <use xlink:href="#rim"/>
    <path pointer-events="none" fill="none" stroke="white" stroke-width="1.5" d="M0,-3.0v7 M-2.5,-0.5L0,-3.0L2.5,-0.5"/>
  </g>
  <g id="arrowRight" transform="rotate(90) translate(36 -43)">
    <use xlink:href="#rim"/>
    <path pointer-events="none" fill="none" stroke="white" stroke-width="1.5" d="M0,-3.0v7 M-2.5,-0.5L0,-3.0L2.5,-0.5"/>
  </g>
  <g id="arrowDown" transform="rotate(180) translate(-30 -48)">
    <use xlink:href="#rim"/>
    <path pointer-events="none" fill="none" stroke="white" stroke-width="1.5" d="M0,-3.0v7 M-2.5,-0.5L0,-3.0L2.5,-0.5"/>
  </g>
  <g id="arrowLeft" transform="rotate(270) translate(-36 17)">
    <use xlink:href="#rim"/>
    <path pointer-events="none" fill="none" stroke="white" stroke-width="1.5" d="M0,-3.0v7 M-2.5,-0.5L0,-3.0L2.5,-0.5"/>
  </g>
  <g id="resetDef">
    <use xlink:href="#rim2" fill="#404040"><set attributeName="fill" to="#808080" begin="reset.mouseover" end="reset.mouseout"/></use>
  </g>
</defs>
<script type="application/ecmascript">
var viewWidth = 650;
var viewHeight = 258;
var sectionId = 'dynsection-1';
</script>
<script type="application/ecmascript" xlink:href="svg.min.js"/>
<svg id="graph" class="graph">
<g id="viewport">
<title>include/meltpooldg/level_set/level_set_operation_base.hpp</title>
<!-- Node1 -->
<g id="Node000001" class="node">
<title>Node1</title>
<g id="a_Node000001"><a xlink:title=" ">
<polygon fill="#999999" stroke="#666666" points="351.5,-250 233.5,-250 233.5,-209 351.5,-209 351.5,-250"/>
<text text-anchor="start" x="241.5" y="-238" font-family="Helvetica,sans-Serif" font-size="10.00">include/meltpooldg</text>
<text text-anchor="start" x="241.5" y="-227" font-family="Helvetica,sans-Serif" font-size="10.00">/level_set/level_set</text>
<text text-anchor="middle" x="292.5" y="-216" font-family="Helvetica,sans-Serif" font-size="10.00">_operation_base.hpp</text>
</a>
</g>
</g>
<!-- Node2 -->
<g id="Node000002" class="node">
<title>Node2</title>
<g id="a_Node000002"><a xlink:href="level__set__DG__operation_8hpp.html" target="_top" xlink:title=" ">
<polygon fill="white" stroke="#666666" points="284,-173 173,-173 173,-132 284,-132 284,-173"/>
<text text-anchor="start" x="181" y="-161" font-family="Helvetica,sans-Serif" font-size="10.00">include/meltpooldg</text>
<text text-anchor="start" x="181" y="-150" font-family="Helvetica,sans-Serif" font-size="10.00">/level_set/level_set</text>
<text text-anchor="middle" x="228.5" y="-139" font-family="Helvetica,sans-Serif" font-size="10.00">_DG_operation.hpp</text>
</a>
</g>
</g>
<!-- Node1&#45;&gt;Node2 -->
<g id="edge1_Node000001_Node000002" class="edge">
<title>Node1&#45;&gt;Node2</title>
<g id="a_edge1_Node000001_Node000002"><a xlink:title=" ">
<path fill="none" stroke="#63b8ff" d="M268.99,-200.95C261.1,-191.7 252.46,-181.58 245.2,-173.07"/>
<polygon fill="#63b8ff" stroke="#63b8ff" points="266.53,-203.46 275.68,-208.79 271.86,-198.92 266.53,-203.46"/>
</a>
</g>
</g>
<!-- Node6 -->
<g id="Node000006" class="node">
<title>Node6</title>
<g id="a_Node000006"><a xlink:href="level__set__operation_8hpp.html" target="_top" xlink:title=" ">
<polygon fill="white" stroke="#666666" points="441,-173 330,-173 330,-132 441,-132 441,-173"/>
<text text-anchor="start" x="338" y="-161" font-family="Helvetica,sans-Serif" font-size="10.00">include/meltpooldg</text>
<text text-anchor="start" x="338" y="-150" font-family="Helvetica,sans-Serif" font-size="10.00">/level_set/level_set</text>
<text text-anchor="middle" x="385.5" y="-139" font-family="Helvetica,sans-Serif" font-size="10.00">_operation.hpp</text>
</a>
</g>
</g>
<!-- Node1&#45;&gt;Node6 -->
<g id="edge5_Node000001_Node000006" class="edge">
<title>Node1&#45;&gt;Node6</title>
<g id="a_edge5_Node000001_Node000006"><a xlink:title=" ">
<path fill="none" stroke="#63b8ff" d="M324.93,-202.35C336.85,-192.73 350.14,-182.01 361.23,-173.07"/>
<polygon fill="#63b8ff" stroke="#63b8ff" points="322.52,-199.79 316.93,-208.79 326.92,-205.24 322.52,-199.79"/>
</a>
</g>
</g>
<!-- Node3 -->
<g id="Node000003" class="node">
<title>Node3</title>
<g id="a_Node000003"><a xlink:href="level__set__application_8hpp.html" target="_top" xlink:title=" ">
<polygon fill="white" stroke="#666666" points="310,-96 147,-96 147,-66 310,-66 310,-96"/>
<text text-anchor="start" x="155" y="-84" font-family="Helvetica,sans-Serif" font-size="10.00">applications/mp&#45;level</text>
<text text-anchor="middle" x="228.5" y="-73" font-family="Helvetica,sans-Serif" font-size="10.00">&#45;set/level_set_application.hpp</text>
</a>
</g>
</g>
<!-- Node2&#45;&gt;Node3 -->
<g id="edge2_Node000002_Node000003" class="edge">
<title>Node2&#45;&gt;Node3</title>
<g id="a_edge2_Node000002_Node000003"><a xlink:title=" ">
<path fill="none" stroke="#63b8ff" d="M228.5,-121.66C228.5,-112.76 228.5,-103.42 228.5,-96.04"/>
<polygon fill="#63b8ff" stroke="#63b8ff" points="225,-121.77 228.5,-131.77 232,-121.77 225,-121.77"/>
</a>
</g>
</g>
<!-- Node5 -->
<g id="Node000005" class="node">
<title>Node5</title>
<g id="a_Node000005"><a xlink:href="level__set__DG__operation_8cpp.html" target="_top" xlink:title=" ">
<polygon fill="white" stroke="#666666" points="129,-96 0,-96 0,-66 129,-66 129,-96"/>
<text text-anchor="start" x="8" y="-84" font-family="Helvetica,sans-Serif" font-size="10.00">source/level_set/level</text>
<text text-anchor="middle" x="64.5" y="-73" font-family="Helvetica,sans-Serif" font-size="10.00">_set_DG_operation.cpp</text>
</a>
</g>
</g>
<!-- Node2&#45;&gt;Node5 -->
<g id="edge4_Node000002_Node000005" class="edge">
<title>Node2&#45;&gt;Node5</title>
<g id="a_edge4_Node000002_Node000005"><a xlink:title=" ">
<path fill="none" stroke="#63b8ff" d="M172.98,-127.97C147.91,-117.35 119.15,-105.16 97.55,-96"/>
<polygon fill="#63b8ff" stroke="#63b8ff" points="171.81,-131.28 182.38,-131.96 174.54,-124.83 171.81,-131.28"/>
</a>
</g>
</g>
<!-- Node4 -->
<g id="Node000004" class="node">
<title>Node4</title>
<g id="a_Node000004"><a xlink:href="level__set__application_8cpp.html" target="_top" xlink:title=" ">
<polygon fill="white" stroke="#666666" points="309.5,-30 147.5,-30 147.5,0 309.5,0 309.5,-30"/>
<text text-anchor="start" x="155.5" y="-18" font-family="Helvetica,sans-Serif" font-size="10.00">applications/mp&#45;level</text>
<text text-anchor="middle" x="228.5" y="-7" font-family="Helvetica,sans-Serif" font-size="10.00">&#45;set/level_set_application.cpp</text>
</a>
</g>
</g>
<!-- Node3&#45;&gt;Node4 -->
<g id="edge3_Node000003_Node000004" class="edge">
<title>Node3&#45;&gt;Node4</title>
<g id="a_edge3_Node000003_Node000004"><a xlink:title=" ">
<path fill="none" stroke="#63b8ff" d="M228.5,-55.54C228.5,-46.96 228.5,-37.61 228.5,-30.16"/>
<polygon fill="#63b8ff" stroke="#63b8ff" points="225,-55.8 228.5,-65.8 232,-55.8 225,-55.8"/>
</a>
</g>
</g>
<!-- Node6&#45;&gt;Node3 -->
<g id="edge6_Node000006_Node000003" class="edge">
<title>Node6&#45;&gt;Node3</title>
<g id="a_edge6_Node000006_Node000003"><a xlink:title=" ">
<path fill="none" stroke="#63b8ff" d="M332.06,-127.85C308.23,-117.3 280.96,-105.22 260.38,-96.11"/>
<polygon fill="#63b8ff" stroke="#63b8ff" points="330.79,-131.11 341.35,-131.96 333.62,-124.71 330.79,-131.11"/>
</a>
</g>
</g>
<!-- Node7 -->
<g id="Node000007" class="node">
<title>Node7</title>
<g id="a_Node000007"><a xlink:href="melt__pool__application_8hpp.html" target="_top" xlink:title=" ">
<polygon fill="white" stroke="#666666" points="501,-96 328,-96 328,-66 501,-66 501,-96"/>
<text text-anchor="start" x="336" y="-84" font-family="Helvetica,sans-Serif" font-size="10.00">applications/mp&#45;melt</text>
<text text-anchor="middle" x="414.5" y="-73" font-family="Helvetica,sans-Serif" font-size="10.00">&#45;pool/melt_pool_application.hpp</text>
</a>
</g>
</g>
<!-- Node6&#45;&gt;Node7 -->
<g id="edge7_Node000006_Node000007" class="edge">
<title>Node6&#45;&gt;Node7</title>
<g id="a_edge7_Node000006_Node000007"><a xlink:title=" ">
<path fill="none" stroke="#63b8ff" d="M397.59,-122.53C401.41,-113.37 405.46,-103.66 408.64,-96.04"/>
<polygon fill="#63b8ff" stroke="#63b8ff" points="394.35,-121.19 393.73,-131.77 400.81,-123.89 394.35,-121.19"/>
</a>
</g>
</g>
<!-- Node9 -->
<g id="Node000009" class="node">
<title>Node9</title>
<g id="a_Node000009"><a xlink:href="level__set__operation_8cpp.html" target="_top" xlink:title=" ">
<polygon fill="white" stroke="#666666" points="642,-96 519,-96 519,-66 642,-66 642,-96"/>
<text text-anchor="start" x="527" y="-84" font-family="Helvetica,sans-Serif" font-size="10.00">source/level_set/level</text>
<text text-anchor="middle" x="580.5" y="-73" font-family="Helvetica,sans-Serif" font-size="10.00">_set_operation.cpp</text>
</a>
</g>
</g>
<!-- Node6&#45;&gt;Node9 -->
<g id="edge9_Node000006_Node000009" class="edge">
<title>Node6&#45;&gt;Node9</title>
<g id="a_edge9_Node000006_Node000009"><a xlink:title=" ">
<path fill="none" stroke="#63b8ff" d="M449.95,-128.53C480.11,-117.78 515.06,-105.32 541.21,-96"/>
<polygon fill="#63b8ff" stroke="#63b8ff" points="448.58,-125.3 440.34,-131.96 450.93,-131.89 448.58,-125.3"/>
</a>
</g>
</g>
<!-- Node8 -->
<g id="Node000008" class="node">
<title>Node8</title>
<g id="a_Node000008"><a xlink:href="melt__pool__application_8cpp.html" target="_top" xlink:title=" ">
<polygon fill="white" stroke="#666666" points="501,-30 328,-30 328,0 501,0 501,-30"/>
<text text-anchor="start" x="336" y="-18" font-family="Helvetica,sans-Serif" font-size="10.00">applications/mp&#45;melt</text>
<text text-anchor="middle" x="414.5" y="-7" font-family="Helvetica,sans-Serif" font-size="10.00">&#45;pool/melt_pool_application.cpp</text>
</a>
</g>
</g>
<!-- Node7&#45;&gt;Node8 -->
<g id="edge8_Node000007_Node000008" class="edge">
<title>Node7&#45;&gt;Node8</title>
<g id="a_edge8_Node000007_Node000008"><a xlink:title=" ">
<path fill="none" stroke="#63b8ff" d="M414.5,-55.54C414.5,-46.96 414.5,-37.61 414.5,-30.16"/>
<polygon fill="#63b8ff" stroke="#63b8ff" points="411,-55.8 414.5,-65.8 418,-55.8 411,-55.8"/>
</a>
</g>
</g>
</g>
</svg>

<g id="navigator" transform="translate(0 0)" fill="#404254">
  <rect fill="#f2f5e9" fill-opacity="0.5" stroke="#606060" stroke-width=".5" x="0" y="0" width="60" height="60"/>
  <use id="zoomplus" xlink:href="#zoomPlus" x="17" y="9" onmousedown="handleZoom(evt,'in')"/>
  <use id="zoomminus" xlink:href="#zoomMin" x="42" y="9" onmousedown="handleZoom(evt,'out')"/>
  <use id="reset" xlink:href="#resetDef" x="30" y="36" onmousedown="handleReset()"/>
   <use id="arrowup" xlink:href="#arrowUp" x="0" y="0" onmousedown="handlePan(0,-1)"/>
  <use id="arrowright" xlink:href="#arrowRight" x="0" y="0" onmousedown="handlePan(1,0)"/>
  <use id="arrowdown" xlink:href="#arrowDown" x="0" y="0" onmousedown="handlePan(0,1)"/>
  <use id="arrowleft" xlink:href="#arrowLeft" x="0" y="0" onmousedown="handlePan(-1,0)"/>
</g>
<svg viewBox="0 0 15 15" width="100%" height="30px" preserveAspectRatio="xMaxYMin meet">
 <g id="arrow_out" transform="scale(0.3 0.3)">
  <a xlink:href="level__set__operation__base_8hpp__dep__incl_org.svg" target="_base">
   <rect id="button" ry="5" rx="5" y="6" x="6" height="38" width="38"
        fill="#f2f5e9" fill-opacity="0.5" stroke="#606060" stroke-width="1.0"/>
   <path id="arrow"
     d="M 11.500037,31.436501 C 11.940474,20.09759 22.043105,11.32322 32.158766,21.979434 L 37.068811,17.246167 C 37.068811,17.246167 37.088388,32 37.088388,32 L 22.160133,31.978069 C 22.160133,31.978069 26.997745,27.140456 26.997745,27.140456 C 18.528582,18.264221 13.291696,25.230495 11.500037,31.436501 z"
     style="fill:#404040;"/>
  </a>
 </g>
</svg>

<style type='text/css'>
<![CDATA[
[data-mouse-over-selected='false'] { opacity: 0.7; }
[data-mouse-over-selected='true']  { opacity: 1.0; }
]]>
</style>
<script type="application/ecmascript"><![CDATA[
document.addEventListener('DOMContentLoaded', (event) => {
  highlightEdges();
  highlightAdjacentNodes();
});
]]></script>
</svg>
