<?xml version="1.0" encoding="UTF-8" standalone="no"?>
<!DOCTYPE svg PUBLIC "-//W3C//DTD SVG 1.1//EN"
 "http://www.w3.org/Graphics/SVG/1.1/DTD/svg11.dtd">
<!-- Generated by graphviz version 2.43.0 (0)
 -->
<!-- Title: source/level_set/level_set_data.cpp Pages: 1 -->
<svg width="1474pt" height="511pt"
 viewBox="0.00 0.00 1474.00 511.00" xmlns="http://www.w3.org/2000/svg" xmlns:xlink="http://www.w3.org/1999/xlink">
<g id="graph0" class="graph" transform="scale(1 1) rotate(0) translate(4 507)">
<title>source/level_set/level_set_data.cpp</title>
<!-- Node1 -->
<g id="Node000001" class="node">
<title>Node1</title>
<g id="a_Node000001"><a xlink:title=" ">
<polygon fill="#999999" stroke="#666666" points="833.5,-503 710.5,-503 710.5,-473 833.5,-473 833.5,-503"/>
<text text-anchor="start" x="718.5" y="-491" font-family="Helvetica,sans-Serif" font-size="10.00">source/level_set/level</text>
<text text-anchor="middle" x="772" y="-480" font-family="Helvetica,sans-Serif" font-size="10.00">_set_data.cpp</text>
</a>
</g>
</g>
<!-- Node2 -->
<g id="Node000002" class="node">
<title>Node2</title>
<g id="a_Node000002"><a xlink:title=" ">
<polygon fill="#e0e0e0" stroke="#999999" points="204,-222.5 66,-222.5 66,-203.5 204,-203.5 204,-222.5"/>
<text text-anchor="middle" x="135" y="-210.5" font-family="Helvetica,sans-Serif" font-size="10.00">deal.II/base/exceptions.h</text>
</a>
</g>
</g>
<!-- Node1&#45;&gt;Node2 -->
<g id="edge1_Node000001_Node000002" class="edge">
<title>Node1&#45;&gt;Node2</title>
<g id="a_edge1_Node000001_Node000002"><a xlink:title=" ">
<path fill="none" stroke="#63b8ff" d="M710.18,-477.34C602.85,-458.35 378.21,-408.68 218,-305 187.33,-285.15 160.63,-251.27 146.26,-230.92"/>
<polygon fill="#63b8ff" stroke="#63b8ff" points="149.11,-228.88 140.56,-222.63 143.34,-232.85 149.11,-228.88"/>
</a>
</g>
</g>
<!-- Node3 -->
<g id="Node000003" class="node">
<title>Node3</title>
<g id="a_Node000003"><a xlink:title=" ">
<polygon fill="#e0e0e0" stroke="#999999" points="1425.5,-24.5 1300.5,-24.5 1300.5,-5.5 1425.5,-5.5 1425.5,-24.5"/>
<text text-anchor="middle" x="1363" y="-12.5" font-family="Helvetica,sans-Serif" font-size="10.00">deal.II/base/patterns.h</text>
</a>
</g>
</g>
<!-- Node1&#45;&gt;Node3 -->
<g id="edge2_Node000001_Node000003" class="edge">
<title>Node1&#45;&gt;Node3</title>
<g id="a_edge2_Node000001_Node000003"><a xlink:title=" ">
<path fill="none" stroke="#63b8ff" d="M833.59,-481.94C1003.44,-467.17 1466,-421.05 1466,-357 1466,-357 1466,-357 1466,-146 1466,-107.37 1456.08,-96.21 1432,-66 1420.2,-51.19 1402.96,-38.7 1388.66,-29.9"/>
<polygon fill="#63b8ff" stroke="#63b8ff" points="1390.17,-26.73 1379.78,-24.67 1386.62,-32.76 1390.17,-26.73"/>
</a>
</g>
</g>
<!-- Node4 -->
<g id="Node000004" class="node">
<title>Node4</title>
<g id="a_Node000004"><a xlink:href="level__set__data_8hpp.html" target="_top" xlink:title=" ">
<polygon fill="white" stroke="#666666" points="831.5,-437 712.5,-437 712.5,-407 831.5,-407 831.5,-437"/>
<text text-anchor="start" x="720.5" y="-425" font-family="Helvetica,sans-Serif" font-size="10.00">meltpooldg/level_set</text>
<text text-anchor="middle" x="772" y="-414" font-family="Helvetica,sans-Serif" font-size="10.00">/level_set_data.hpp</text>
</a>
</g>
</g>
<!-- Node1&#45;&gt;Node4 -->
<g id="edge3_Node000001_Node000004" class="edge">
<title>Node1&#45;&gt;Node4</title>
<g id="a_edge3_Node000001_Node000004"><a xlink:title=" ">
<path fill="none" stroke="#63b8ff" d="M772,-472.8C772,-465.34 772,-455.99 772,-447.41"/>
<polygon fill="#63b8ff" stroke="#63b8ff" points="775.5,-447.16 772,-437.16 768.5,-447.16 775.5,-447.16"/>
</a>
</g>
</g>
<!-- Node5 -->
<g id="Node000005" class="node">
<title>Node5</title>
<g id="a_Node000005"><a xlink:title=" ">
<polygon fill="#e0e0e0" stroke="#999999" points="1160.5,-30 1033.5,-30 1033.5,0 1160.5,0 1160.5,-30"/>
<text text-anchor="start" x="1041.5" y="-18" font-family="Helvetica,sans-Serif" font-size="10.00">deal.II/base/parameter</text>
<text text-anchor="middle" x="1097" y="-7" font-family="Helvetica,sans-Serif" font-size="10.00">_handler.h</text>
</a>
</g>
</g>
<!-- Node4&#45;&gt;Node5 -->
<g id="edge4_Node000004_Node000005" class="edge">
<title>Node4&#45;&gt;Node5</title>
<g id="a_edge4_Node000004_Node000005"><a xlink:title=" ">
<path fill="none" stroke="#63b8ff" d="M831.66,-421.26C993.37,-420.36 1428,-406.66 1428,-285.5 1428,-285.5 1428,-285.5 1428,-146 1428,-109.46 1435.78,-90.86 1409,-66 1391.74,-49.98 1257.28,-32.96 1170.6,-23.48"/>
<polygon fill="#63b8ff" stroke="#63b8ff" points="1170.86,-19.99 1160.54,-22.39 1170.1,-26.95 1170.86,-19.99"/>
</a>
</g>
</g>
<!-- Node6 -->
<g id="Node000006" class="node">
<title>Node6</title>
<g id="a_Node000006"><a xlink:href="finite__element__data_8hpp.html" target="_top" xlink:title=" ">
<polygon fill="white" stroke="#666666" points="1088,-228 964,-228 964,-198 1088,-198 1088,-228"/>
<text text-anchor="start" x="972" y="-216" font-family="Helvetica,sans-Serif" font-size="10.00">meltpooldg/core/finite</text>
<text text-anchor="middle" x="1026" y="-205" font-family="Helvetica,sans-Serif" font-size="10.00">_element_data.hpp</text>
</a>
</g>
</g>
<!-- Node4&#45;&gt;Node6 -->
<g id="edge5_Node000004_Node000006" class="edge">
<title>Node4&#45;&gt;Node6</title>
<g id="a_edge5_Node000004_Node000006"><a xlink:title=" ">
<path fill="none" stroke="#63b8ff" d="M789.46,-406.77C833.52,-370.86 949.37,-276.45 1000.79,-234.55"/>
<polygon fill="#63b8ff" stroke="#63b8ff" points="1003.21,-237.08 1008.76,-228.05 998.79,-231.66 1003.21,-237.08"/>
</a>
</g>
</g>
<!-- Node12 -->
<g id="Node000012" class="node">
<title>Node12</title>
<g id="a_Node000012"><a xlink:href="advection__diffusion__data_8hpp.html" target="_top" xlink:title=" ">
<polygon fill="white" stroke="#666666" points="831.5,-305 712.5,-305 712.5,-264 831.5,-264 831.5,-305"/>
<text text-anchor="start" x="720.5" y="-293" font-family="Helvetica,sans-Serif" font-size="10.00">meltpooldg/level_set</text>
<text text-anchor="start" x="720.5" y="-282" font-family="Helvetica,sans-Serif" font-size="10.00">/advection_diffusion</text>
<text text-anchor="middle" x="772" y="-271" font-family="Helvetica,sans-Serif" font-size="10.00">_data.hpp</text>
</a>
</g>
</g>
<!-- Node4&#45;&gt;Node12 -->
<g id="edge14_Node000004_Node000012" class="edge">
<title>Node4&#45;&gt;Node12</title>
<g id="a_edge14_Node000004_Node000012"><a xlink:title=" ">
<path fill="none" stroke="#63b8ff" d="M772,-406.76C772,-385.19 772,-343.75 772,-315.38"/>
<polygon fill="#63b8ff" stroke="#63b8ff" points="775.5,-315.21 772,-305.21 768.5,-315.21 775.5,-315.21"/>
</a>
</g>
</g>
<!-- Node17 -->
<g id="Node000017" class="node">
<title>Node17</title>
<g id="a_Node000017"><a xlink:href="curvature__data_8hpp.html" target="_top" xlink:title=" ">
<polygon fill="white" stroke="#666666" points="575.5,-371 456.5,-371 456.5,-341 575.5,-341 575.5,-371"/>
<text text-anchor="start" x="464.5" y="-359" font-family="Helvetica,sans-Serif" font-size="10.00">meltpooldg/level_set</text>
<text text-anchor="middle" x="516" y="-348" font-family="Helvetica,sans-Serif" font-size="10.00">/curvature_data.hpp</text>
</a>
</g>
</g>
<!-- Node4&#45;&gt;Node17 -->
<g id="edge32_Node000004_Node000017" class="edge">
<title>Node4&#45;&gt;Node17</title>
<g id="a_edge32_Node000004_Node000017"><a xlink:title=" ">
<path fill="none" stroke="#63b8ff" d="M715.82,-406.95C676.3,-397.08 623.29,-383.82 581.79,-373.45"/>
<polygon fill="#63b8ff" stroke="#63b8ff" points="582.6,-370.04 572.05,-371.01 580.9,-376.83 582.6,-370.04"/>
</a>
</g>
</g>
<!-- Node18 -->
<g id="Node000018" class="node">
<title>Node18</title>
<g id="a_Node000018"><a xlink:href="reinitialization__data_8hpp.html" target="_top" xlink:title=" ">
<polygon fill="white" stroke="#666666" points="477,-299.5 339,-299.5 339,-269.5 477,-269.5 477,-299.5"/>
<text text-anchor="start" x="347" y="-287.5" font-family="Helvetica,sans-Serif" font-size="10.00">meltpooldg/level_set</text>
<text text-anchor="middle" x="408" y="-276.5" font-family="Helvetica,sans-Serif" font-size="10.00">/reinitialization_data.hpp</text>
</a>
</g>
</g>
<!-- Node4&#45;&gt;Node18 -->
<g id="edge58_Node000004_Node000018" class="edge">
<title>Node4&#45;&gt;Node18</title>
<g id="a_edge58_Node000004_Node000018"><a xlink:title=" ">
<path fill="none" stroke="#63b8ff" d="M712.19,-418.5C630.01,-413.96 487.69,-401.79 447,-371 427.37,-356.15 417.33,-329.1 412.4,-309.4"/>
<polygon fill="#63b8ff" stroke="#63b8ff" points="415.8,-308.59 410.21,-299.6 408.97,-310.12 415.8,-308.59"/>
</a>
</g>
</g>
<!-- Node20 -->
<g id="Node000020" class="node">
<title>Node20</title>
<g id="a_Node000020"><a xlink:href="nearest__point__data_8hpp.html" target="_top" xlink:title=" ">
<polygon fill="white" stroke="#666666" points="1354,-162 1220,-162 1220,-132 1354,-132 1354,-162"/>
<text text-anchor="start" x="1228" y="-150" font-family="Helvetica,sans-Serif" font-size="10.00">meltpooldg/level_set</text>
<text text-anchor="middle" x="1287" y="-139" font-family="Helvetica,sans-Serif" font-size="10.00">/nearest_point_data.hpp</text>
</a>
</g>
</g>
<!-- Node4&#45;&gt;Node20 -->
<g id="edge47_Node000004_Node000020" class="edge">
<title>Node4&#45;&gt;Node20</title>
<g id="a_edge47_Node000004_Node000020"><a xlink:title=" ">
<path fill="none" stroke="#63b8ff" d="M817.21,-406.95C899.28,-380.18 1076.24,-316.55 1206,-228 1229.99,-211.63 1253.13,-187.69 1268.49,-170.27"/>
<polygon fill="#63b8ff" stroke="#63b8ff" points="1271.48,-172.16 1275.37,-162.3 1266.19,-167.58 1271.48,-172.16"/>
</a>
</g>
</g>
<!-- Node22 -->
<g id="Node000022" class="node">
<title>Node22</title>
<g id="a_Node000022"><a xlink:href="normal__vector__data_8hpp.html" target="_top" xlink:title=" ">
<polygon fill="white" stroke="#666666" points="740,-371 602,-371 602,-341 740,-341 740,-371"/>
<text text-anchor="start" x="610" y="-359" font-family="Helvetica,sans-Serif" font-size="10.00">meltpooldg/level_set</text>
<text text-anchor="middle" x="671" y="-348" font-family="Helvetica,sans-Serif" font-size="10.00">/normal_vector_data.hpp</text>
</a>
</g>
</g>
<!-- Node4&#45;&gt;Node22 -->
<g id="edge52_Node000004_Node000022" class="edge">
<title>Node4&#45;&gt;Node22</title>
<g id="a_edge52_Node000004_Node000022"><a xlink:title=" ">
<path fill="none" stroke="#63b8ff" d="M749.58,-406.8C735.59,-397.93 717.38,-386.39 702.02,-376.66"/>
<polygon fill="#63b8ff" stroke="#63b8ff" points="703.67,-373.56 693.35,-371.16 699.93,-379.47 703.67,-373.56"/>
</a>
</g>
</g>
<!-- Node6&#45;&gt;Node5 -->
<g id="edge6_Node000006_Node000005" class="edge">
<title>Node6&#45;&gt;Node5</title>
<g id="a_edge6_Node000006_Node000005"><a xlink:title=" ">
<path fill="none" stroke="#63b8ff" d="M1031.11,-197.9C1043.15,-164.65 1073.46,-81 1088.4,-39.75"/>
<polygon fill="#63b8ff" stroke="#63b8ff" points="1091.73,-40.83 1091.84,-30.23 1085.15,-38.44 1091.73,-40.83"/>
</a>
</g>
</g>
<!-- Node7 -->
<g id="Node000007" class="node">
<title>Node7</title>
<g id="a_Node000007"><a xlink:href="enum_8hpp.html" target="_top" xlink:title=" ">
<polygon fill="white" stroke="#666666" points="769,-96 657,-96 657,-66 769,-66 769,-96"/>
<text text-anchor="start" x="665" y="-84" font-family="Helvetica,sans-Serif" font-size="10.00">meltpooldg/utilities</text>
<text text-anchor="middle" x="713" y="-73" font-family="Helvetica,sans-Serif" font-size="10.00">/enum.hpp</text>
</a>
</g>
</g>
<!-- Node6&#45;&gt;Node7 -->
<g id="edge7_Node000006_Node000007" class="edge">
<title>Node6&#45;&gt;Node7</title>
<g id="a_edge7_Node000006_Node000007"><a xlink:title=" ">
<path fill="none" stroke="#63b8ff" d="M992.21,-197.96C935.07,-174.23 819.46,-126.22 756.41,-100.03"/>
<polygon fill="#63b8ff" stroke="#63b8ff" points="757.71,-96.78 747.13,-96.17 755.02,-103.24 757.71,-96.78"/>
</a>
</g>
</g>
<!-- Node7&#45;&gt;Node3 -->
<g id="edge9_Node000007_Node000003" class="edge">
<title>Node7&#45;&gt;Node3</title>
<g id="a_edge9_Node000007_Node000003"><a xlink:title=" ">
<path fill="none" stroke="#63b8ff" d="M769.07,-71.92C784.28,-69.86 800.76,-67.73 816,-66 985.41,-46.75 1185.01,-30 1289.98,-21.65"/>
<polygon fill="#63b8ff" stroke="#63b8ff" points="1290.46,-25.12 1300.15,-20.84 1289.91,-18.14 1290.46,-25.12"/>
</a>
</g>
</g>
<!-- Node7&#45;&gt;Node5 -->
<g id="edge8_Node000007_Node000005" class="edge">
<title>Node7&#45;&gt;Node5</title>
<g id="a_edge8_Node000007_Node000005"><a xlink:title=" ">
<path fill="none" stroke="#63b8ff" d="M769.13,-68.57C773.82,-67.68 778.49,-66.81 783,-66 865.13,-51.25 959.75,-36.49 1023.47,-26.87"/>
<polygon fill="#63b8ff" stroke="#63b8ff" points="1024.06,-30.32 1033.43,-25.37 1023.02,-23.4 1024.06,-30.32"/>
</a>
</g>
</g>
<!-- Node8 -->
<g id="Node000008" class="node">
<title>Node8</title>
<g id="a_Node000008"><a xlink:title=" ">
<polygon fill="#e0e0e0" stroke="#999999" points="658,-30 546,-30 546,0 658,0 658,-30"/>
<text text-anchor="start" x="554" y="-18" font-family="Helvetica,sans-Serif" font-size="10.00">meltpooldg/utilities</text>
<text text-anchor="middle" x="602" y="-7" font-family="Helvetica,sans-Serif" font-size="10.00">/better_enum.hpp</text>
</a>
</g>
</g>
<!-- Node7&#45;&gt;Node8 -->
<g id="edge10_Node000007_Node000008" class="edge">
<title>Node7&#45;&gt;Node8</title>
<g id="a_edge10_Node000007_Node000008"><a xlink:title=" ">
<path fill="none" stroke="#63b8ff" d="M688.64,-65.95C673.03,-56.95 652.55,-45.14 635.42,-35.27"/>
<polygon fill="#63b8ff" stroke="#63b8ff" points="636.71,-31.98 626.3,-30.01 633.22,-38.04 636.71,-31.98"/>
</a>
</g>
</g>
<!-- Node9 -->
<g id="Node000009" class="node">
<title>Node9</title>
<g id="a_Node000009"><a xlink:title=" ">
<polygon fill="#e0e0e0" stroke="#999999" points="801.5,-30 676.5,-30 676.5,0 801.5,0 801.5,-30"/>
<text text-anchor="start" x="684.5" y="-18" font-family="Helvetica,sans-Serif" font-size="10.00">boost/algorithm/string</text>
<text text-anchor="middle" x="739" y="-7" font-family="Helvetica,sans-Serif" font-size="10.00">/join.hpp</text>
</a>
</g>
</g>
<!-- Node7&#45;&gt;Node9 -->
<g id="edge11_Node000007_Node000009" class="edge">
<title>Node7&#45;&gt;Node9</title>
<g id="a_edge11_Node000007_Node000009"><a xlink:title=" ">
<path fill="none" stroke="#63b8ff" d="M718.77,-65.8C721.9,-58.09 725.85,-48.37 729.43,-39.56"/>
<polygon fill="#63b8ff" stroke="#63b8ff" points="732.72,-40.75 733.25,-30.16 726.24,-38.11 732.72,-40.75"/>
</a>
</g>
</g>
<!-- Node10 -->
<g id="Node000010" class="node">
<title>Node10</title>
<g id="a_Node000010"><a xlink:title=" ">
<polygon fill="#e0e0e0" stroke="#999999" points="876,-24.5 820,-24.5 820,-5.5 876,-5.5 876,-24.5"/>
<text text-anchor="middle" x="848" y="-12.5" font-family="Helvetica,sans-Serif" font-size="10.00">sstream</text>
</a>
</g>
</g>
<!-- Node7&#45;&gt;Node10 -->
<g id="edge12_Node000007_Node000010" class="edge">
<title>Node7&#45;&gt;Node10</title>
<g id="a_edge12_Node000007_Node000010"><a xlink:title=" ">
<path fill="none" stroke="#63b8ff" d="M742.63,-65.95C765.99,-54.88 798.3,-39.56 820.97,-28.82"/>
<polygon fill="#63b8ff" stroke="#63b8ff" points="822.5,-31.96 830.03,-24.52 819.5,-25.64 822.5,-31.96"/>
</a>
</g>
</g>
<!-- Node11 -->
<g id="Node000011" class="node">
<title>Node11</title>
<g id="a_Node000011"><a xlink:title=" ">
<polygon fill="#e0e0e0" stroke="#999999" points="351,-24.5 307,-24.5 307,-5.5 351,-5.5 351,-24.5"/>
<text text-anchor="middle" x="329" y="-12.5" font-family="Helvetica,sans-Serif" font-size="10.00">string</text>
</a>
</g>
</g>
<!-- Node7&#45;&gt;Node11 -->
<g id="edge13_Node000007_Node000011" class="edge">
<title>Node7&#45;&gt;Node11</title>
<g id="a_edge13_Node000007_Node000011"><a xlink:title=" ">
<path fill="none" stroke="#63b8ff" d="M656.75,-70.63C575.25,-57.04 426.94,-32.32 361.51,-21.42"/>
<polygon fill="#63b8ff" stroke="#63b8ff" points="361.81,-17.92 351.37,-19.73 360.66,-24.83 361.81,-17.92"/>
</a>
</g>
</g>
<!-- Node12&#45;&gt;Node5 -->
<g id="edge15_Node000012_Node000005" class="edge">
<title>Node12&#45;&gt;Node5</title>
<g id="a_edge15_Node000012_Node000005"><a xlink:title=" ">
<path fill="none" stroke="#63b8ff" d="M831.79,-282.15C916.19,-278.85 1063.73,-267.43 1097,-228 1142.28,-174.33 1120.07,-82.92 1105.82,-39.83"/>
<polygon fill="#63b8ff" stroke="#63b8ff" points="1109.07,-38.51 1102.5,-30.2 1102.45,-40.79 1109.07,-38.51"/>
</a>
</g>
</g>
<!-- Node12&#45;&gt;Node6 -->
<g id="edge16_Node000012_Node000006" class="edge">
<title>Node12&#45;&gt;Node6</title>
<g id="a_edge16_Node000012_Node000006"><a xlink:title=" ">
<path fill="none" stroke="#63b8ff" d="M831.55,-267.21C871.65,-256.23 924.38,-241.81 964.81,-230.74"/>
<polygon fill="#63b8ff" stroke="#63b8ff" points="965.83,-234.09 974.55,-228.08 963.98,-227.34 965.83,-234.09"/>
</a>
</g>
</g>
<!-- Node12&#45;&gt;Node7 -->
<g id="edge30_Node000012_Node000007" class="edge">
<title>Node12&#45;&gt;Node7</title>
<g id="a_edge30_Node000012_Node000007"><a xlink:title=" ">
<path fill="none" stroke="#63b8ff" d="M766.24,-263.81C755.35,-226.63 731.8,-146.21 720.02,-105.96"/>
<polygon fill="#63b8ff" stroke="#63b8ff" points="723.33,-104.81 717.16,-96.2 716.61,-106.78 723.33,-104.81"/>
</a>
</g>
</g>
<!-- Node12&#45;&gt;Node11 -->
<g id="edge31_Node000012_Node000011" class="edge">
<title>Node12&#45;&gt;Node11</title>
<g id="a_edge31_Node000012_Node000011"><a xlink:title=" ">
<path fill="none" stroke="#63b8ff" d="M712.33,-280.61C631.53,-273.41 488.25,-248.41 408,-162 371.67,-122.88 346.55,-63.92 335.44,-34.33"/>
<polygon fill="#63b8ff" stroke="#63b8ff" points="338.7,-33.04 331.99,-24.84 332.12,-35.43 338.7,-33.04"/>
</a>
</g>
</g>
<!-- Node13 -->
<g id="Node000013" class="node">
<title>Node13</title>
<g id="a_Node000013"><a xlink:href="linear__solver__data_8hpp.html" target="_top" xlink:title=" ">
<polygon fill="white" stroke="#666666" points="562.5,-162 417.5,-162 417.5,-132 562.5,-132 562.5,-162"/>
<text text-anchor="start" x="425.5" y="-150" font-family="Helvetica,sans-Serif" font-size="10.00">meltpooldg/linear_algebra</text>
<text text-anchor="middle" x="490" y="-139" font-family="Helvetica,sans-Serif" font-size="10.00">/linear_solver_data.hpp</text>
</a>
</g>
</g>
<!-- Node12&#45;&gt;Node13 -->
<g id="edge17_Node000012_Node000013" class="edge">
<title>Node12&#45;&gt;Node13</title>
<g id="a_edge17_Node000012_Node000013"><a xlink:title=" ">
<path fill="none" stroke="#63b8ff" d="M712.39,-281.36C662.49,-276.89 591.54,-264.04 541,-228 521.31,-213.96 507.43,-189.71 499.17,-171.58"/>
<polygon fill="#63b8ff" stroke="#63b8ff" points="502.33,-170.05 495.16,-162.24 495.89,-172.81 502.33,-170.05"/>
</a>
</g>
</g>
<!-- Node14 -->
<g id="Node000014" class="node">
<title>Node14</title>
<g id="a_Node000014"><a xlink:href="predictor__data_8hpp.html" target="_top" xlink:title=" ">
<polygon fill="white" stroke="#666666" points="945.5,-228 800.5,-228 800.5,-198 945.5,-198 945.5,-228"/>
<text text-anchor="start" x="808.5" y="-216" font-family="Helvetica,sans-Serif" font-size="10.00">meltpooldg/linear_algebra</text>
<text text-anchor="middle" x="873" y="-205" font-family="Helvetica,sans-Serif" font-size="10.00">/predictor_data.hpp</text>
</a>
</g>
</g>
<!-- Node12&#45;&gt;Node14 -->
<g id="edge19_Node000012_Node000014" class="edge">
<title>Node12&#45;&gt;Node14</title>
<g id="a_edge19_Node000012_Node000014"><a xlink:title=" ">
<path fill="none" stroke="#63b8ff" d="M800.4,-263.96C814,-254.6 830.25,-243.42 843.93,-234.01"/>
<polygon fill="#63b8ff" stroke="#63b8ff" points="846.24,-236.66 852.49,-228.11 842.27,-230.9 846.24,-236.66"/>
</a>
</g>
</g>
<!-- Node15 -->
<g id="Node000015" class="node">
<title>Node15</title>
<g id="a_Node000015"><a xlink:href="time__integrator__data_8hpp.html" target="_top" xlink:title=" ">
<polygon fill="white" stroke="#666666" points="706,-228 550,-228 550,-198 706,-198 706,-228"/>
<text text-anchor="start" x="558" y="-216" font-family="Helvetica,sans-Serif" font-size="10.00">meltpooldg/time_integration</text>
<text text-anchor="middle" x="628" y="-205" font-family="Helvetica,sans-Serif" font-size="10.00">/time_integrator_data.hpp</text>
</a>
</g>
</g>
<!-- Node12&#45;&gt;Node15 -->
<g id="edge22_Node000012_Node000015" class="edge">
<title>Node12&#45;&gt;Node15</title>
<g id="a_edge22_Node000012_Node000015"><a xlink:title=" ">
<path fill="none" stroke="#63b8ff" d="M731.5,-263.96C711.11,-254.11 686.51,-242.24 666.42,-232.54"/>
<polygon fill="#63b8ff" stroke="#63b8ff" points="667.77,-229.31 657.24,-228.11 664.73,-235.61 667.77,-229.31"/>
</a>
</g>
</g>
<!-- Node13&#45;&gt;Node7 -->
<g id="edge18_Node000013_Node000007" class="edge">
<title>Node13&#45;&gt;Node7</title>
<g id="a_edge18_Node000013_Node000007"><a xlink:title=" ">
<path fill="none" stroke="#63b8ff" d="M538.94,-131.95C572.92,-122.2 618.38,-109.16 654.31,-98.84"/>
<polygon fill="#63b8ff" stroke="#63b8ff" points="655.53,-102.14 664.18,-96.01 653.6,-95.41 655.53,-102.14"/>
</a>
</g>
</g>
<!-- Node14&#45;&gt;Node5 -->
<g id="edge20_Node000014_Node000005" class="edge">
<title>Node14&#45;&gt;Node5</title>
<g id="a_edge20_Node000014_Node000005"><a xlink:title=" ">
<path fill="none" stroke="#63b8ff" d="M898.53,-197.82C914.5,-188.48 935.17,-175.52 952,-162 1001.14,-122.54 1051.41,-68.13 1077.92,-38.12"/>
<polygon fill="#63b8ff" stroke="#63b8ff" points="1080.79,-40.16 1084.75,-30.33 1075.52,-35.54 1080.79,-40.16"/>
</a>
</g>
</g>
<!-- Node14&#45;&gt;Node7 -->
<g id="edge21_Node000014_Node000007" class="edge">
<title>Node14&#45;&gt;Node7</title>
<g id="a_edge21_Node000014_Node000007"><a xlink:title=" ">
<path fill="none" stroke="#63b8ff" d="M855.57,-197.84C827.2,-174.79 770.91,-129.05 738.19,-102.46"/>
<polygon fill="#63b8ff" stroke="#63b8ff" points="740.37,-99.73 730.41,-96.14 735.96,-105.16 740.37,-99.73"/>
</a>
</g>
</g>
<!-- Node15&#45;&gt;Node5 -->
<g id="edge23_Node000015_Node000005" class="edge">
<title>Node15&#45;&gt;Node5</title>
<g id="a_edge23_Node000015_Node000005"><a xlink:title=" ">
<path fill="none" stroke="#63b8ff" d="M646.52,-197.77C674.89,-175.96 730.79,-132.89 778,-96 794.96,-82.75 796.37,-74.82 816,-66 882.2,-36.26 964.62,-24.19 1023.04,-19.3"/>
<polygon fill="#63b8ff" stroke="#63b8ff" points="1023.6,-22.76 1033.3,-18.49 1023.05,-15.78 1023.6,-22.76"/>
</a>
</g>
</g>
<!-- Node15&#45;&gt;Node7 -->
<g id="edge28_Node000015_Node000007" class="edge">
<title>Node15&#45;&gt;Node7</title>
<g id="a_edge28_Node000015_Node000007"><a xlink:title=" ">
<path fill="none" stroke="#63b8ff" d="M637.26,-197.84C651.95,-175.37 680.72,-131.36 698.27,-104.53"/>
<polygon fill="#63b8ff" stroke="#63b8ff" points="701.21,-106.43 703.75,-96.14 695.35,-102.6 701.21,-106.43"/>
</a>
</g>
</g>
<!-- Node15&#45;&gt;Node8 -->
<g id="edge27_Node000015_Node000008" class="edge">
<title>Node15&#45;&gt;Node8</title>
<g id="a_edge27_Node000015_Node000008"><a xlink:title=" ">
<path fill="none" stroke="#63b8ff" d="M626.13,-197.9C621.74,-164.79 610.72,-81.7 605.22,-40.27"/>
<polygon fill="#63b8ff" stroke="#63b8ff" points="608.67,-39.68 603.89,-30.23 601.73,-40.6 608.67,-39.68"/>
</a>
</g>
</g>
<!-- Node15&#45;&gt;Node11 -->
<g id="edge29_Node000015_Node000011" class="edge">
<title>Node15&#45;&gt;Node11</title>
<g id="a_edge29_Node000015_Node000011"><a xlink:title=" ">
<path fill="none" stroke="#63b8ff" d="M620.87,-197.91C611.46,-180.5 593.45,-150.88 571,-132 505.76,-77.12 410.14,-41.43 360.91,-25.53"/>
<polygon fill="#63b8ff" stroke="#63b8ff" points="361.72,-22.12 351.13,-22.44 359.61,-28.79 361.72,-22.12"/>
</a>
</g>
</g>
<!-- Node15&#45;&gt;Node13 -->
<g id="edge24_Node000015_Node000013" class="edge">
<title>Node15&#45;&gt;Node13</title>
<g id="a_edge24_Node000015_Node000013"><a xlink:title=" ">
<path fill="none" stroke="#63b8ff" d="M597.72,-197.95C577.67,-188.66 551.19,-176.38 529.49,-166.32"/>
<polygon fill="#63b8ff" stroke="#63b8ff" points="530.76,-163.04 520.21,-162.01 527.81,-169.39 530.76,-163.04"/>
</a>
</g>
</g>
<!-- Node16 -->
<g id="Node000016" class="node">
<title>Node16</title>
<g id="a_Node000016"><a xlink:href="nonlinear__solver__data_8hpp.html" target="_top" xlink:title=" ">
<polygon fill="white" stroke="#666666" points="973.5,-96 824.5,-96 824.5,-66 973.5,-66 973.5,-96"/>
<text text-anchor="start" x="832.5" y="-84" font-family="Helvetica,sans-Serif" font-size="10.00">meltpooldg/linear_algebra</text>
<text text-anchor="middle" x="899" y="-73" font-family="Helvetica,sans-Serif" font-size="10.00">/nonlinear_solver_data.hpp</text>
</a>
</g>
</g>
<!-- Node15&#45;&gt;Node16 -->
<g id="edge25_Node000015_Node000016" class="edge">
<title>Node15&#45;&gt;Node16</title>
<g id="a_edge25_Node000015_Node000016"><a xlink:title=" ">
<path fill="none" stroke="#63b8ff" d="M706.33,-199.09C739.95,-191.44 778.81,-179.68 811,-162 838.31,-147 864,-121.89 880.49,-103.8"/>
<polygon fill="#63b8ff" stroke="#63b8ff" points="883.36,-105.84 887.39,-96.04 878.13,-101.19 883.36,-105.84"/>
</a>
</g>
</g>
<!-- Node16&#45;&gt;Node5 -->
<g id="edge26_Node000016_Node000005" class="edge">
<title>Node16&#45;&gt;Node5</title>
<g id="a_edge26_Node000016_Node000005"><a xlink:title=" ">
<path fill="none" stroke="#63b8ff" d="M942.45,-65.95C972.37,-56.28 1012.29,-43.38 1044.07,-33.11"/>
<polygon fill="#63b8ff" stroke="#63b8ff" points="1045.21,-36.42 1053.65,-30.01 1043.06,-29.76 1045.21,-36.42"/>
</a>
</g>
</g>
<!-- Node17&#45;&gt;Node5 -->
<g id="edge33_Node000017_Node000005" class="edge">
<title>Node17&#45;&gt;Node5</title>
<g id="a_edge33_Node000017_Node000005"><a xlink:title=" ">
<path fill="none" stroke="#63b8ff" d="M575.64,-343.86C581.5,-342.85 587.36,-341.88 593,-341 829.24,-304.03 952.5,-399.62 1119,-228 1169.25,-176.2 1154.37,-133.93 1130,-66 1126.54,-56.37 1120.87,-46.75 1115.19,-38.56"/>
<polygon fill="#63b8ff" stroke="#63b8ff" points="1117.87,-36.3 1109.13,-30.31 1112.23,-40.44 1117.87,-36.3"/>
</a>
</g>
</g>
<!-- Node17&#45;&gt;Node11 -->
<g id="edge46_Node000017_Node000011" class="edge">
<title>Node17&#45;&gt;Node11</title>
<g id="a_edge46_Node000017_Node000011"><a xlink:title=" ">
<path fill="none" stroke="#63b8ff" d="M456.47,-352.11C336.01,-345.78 71.97,-329.3 39,-305 3.58,-278.89 0,-258 0,-214 0,-214 0,-214 0,-146 0,-82.54 214.4,-36.82 297.05,-21.55"/>
<polygon fill="#63b8ff" stroke="#63b8ff" points="297.69,-24.99 306.9,-19.76 296.44,-18.11 297.69,-24.99"/>
</a>
</g>
</g>
<!-- Node17&#45;&gt;Node13 -->
<g id="edge44_Node000017_Node000013" class="edge">
<title>Node17&#45;&gt;Node13</title>
<g id="a_edge44_Node000017_Node000013"><a xlink:title=" ">
<path fill="none" stroke="#63b8ff" d="M456.29,-354.17C307.79,-350.17 -58.22,-327.29 57,-198 79.84,-172.37 287.86,-157.95 407.06,-151.73"/>
<polygon fill="#63b8ff" stroke="#63b8ff" points="407.44,-155.22 417.25,-151.21 407.08,-148.22 407.44,-155.22"/>
</a>
</g>
</g>
<!-- Node17&#45;&gt;Node14 -->
<g id="edge45_Node000017_Node000014" class="edge">
<title>Node17&#45;&gt;Node14</title>
<g id="a_edge45_Node000017_Node000014"><a xlink:title=" ">
<path fill="none" stroke="#63b8ff" d="M575.66,-343.94C581.51,-342.92 587.37,-341.92 593,-341 647.96,-332.02 797.99,-340.38 841,-305 860.82,-288.69 868.38,-259.29 871.25,-238.32"/>
<polygon fill="#63b8ff" stroke="#63b8ff" points="874.75,-238.56 872.37,-228.24 867.79,-237.79 874.75,-238.56"/>
</a>
</g>
</g>
<!-- Node17&#45;&gt;Node18 -->
<g id="edge34_Node000017_Node000018" class="edge">
<title>Node17&#45;&gt;Node18</title>
<g id="a_edge34_Node000017_Node000018"><a xlink:title=" ">
<path fill="none" stroke="#63b8ff" d="M494.14,-340.94C478.19,-330.67 456.35,-316.61 438.65,-305.22"/>
<polygon fill="#63b8ff" stroke="#63b8ff" points="440.13,-302.01 429.82,-299.54 436.34,-307.9 440.13,-302.01"/>
</a>
</g>
</g>
<!-- Node18&#45;&gt;Node2 -->
<g id="edge35_Node000018_Node000002" class="edge">
<title>Node18&#45;&gt;Node2</title>
<g id="a_edge35_Node000018_Node000002"><a xlink:title=" ">
<path fill="none" stroke="#63b8ff" d="M352.75,-269.44C301.37,-256.35 225.83,-237.12 178.58,-225.09"/>
<polygon fill="#63b8ff" stroke="#63b8ff" points="179.21,-221.64 168.65,-222.57 177.48,-228.43 179.21,-221.64"/>
</a>
</g>
</g>
<!-- Node18&#45;&gt;Node5 -->
<g id="edge36_Node000018_Node000005" class="edge">
<title>Node18&#45;&gt;Node5</title>
<g id="a_edge36_Node000018_Node000005"><a xlink:title=" ">
<path fill="none" stroke="#63b8ff" d="M477.03,-276.59C540.16,-268.98 635.52,-254.18 715,-228 778.05,-207.23 926.86,-131.43 983,-96 1001.2,-84.52 1003.55,-78.59 1021,-66 1035.39,-55.61 1051.8,-44.71 1065.67,-35.75"/>
<polygon fill="#63b8ff" stroke="#63b8ff" points="1067.85,-38.51 1074.38,-30.16 1064.07,-32.61 1067.85,-38.51"/>
</a>
</g>
</g>
<!-- Node18&#45;&gt;Node6 -->
<g id="edge37_Node000018_Node000006" class="edge">
<title>Node18&#45;&gt;Node6</title>
<g id="a_edge37_Node000018_Node000006"><a xlink:title=" ">
<path fill="none" stroke="#63b8ff" d="M477.34,-278.56C579.5,-270.81 776.63,-254.09 953.7,-228.11"/>
<polygon fill="#63b8ff" stroke="#63b8ff" points="954.34,-231.55 963.72,-226.62 953.31,-224.63 954.34,-231.55"/>
</a>
</g>
</g>
<!-- Node18&#45;&gt;Node7 -->
<g id="edge41_Node000018_Node000007" class="edge">
<title>Node18&#45;&gt;Node7</title>
<g id="a_edge41_Node000018_Node000007"><a xlink:title=" ">
<path fill="none" stroke="#63b8ff" d="M373.46,-269.36C356.17,-260.31 336.86,-246.7 327,-228 300.97,-178.61 357.1,-154.92 408,-132 485.05,-97.3 582.73,-86.37 646.49,-83.1"/>
<polygon fill="#63b8ff" stroke="#63b8ff" points="646.99,-86.58 656.82,-82.62 646.66,-79.59 646.99,-86.58"/>
</a>
</g>
</g>
<!-- Node18&#45;&gt;Node11 -->
<g id="edge43_Node000018_Node000011" class="edge">
<title>Node18&#45;&gt;Node11</title>
<g id="a_edge43_Node000018_Node000011"><a xlink:title=" ">
<path fill="none" stroke="#63b8ff" d="M366.97,-269.33C348.2,-260.54 327.78,-247.2 317,-228 281.37,-164.53 307.84,-72.86 321.81,-34.24"/>
<polygon fill="#63b8ff" stroke="#63b8ff" points="325.11,-35.42 325.36,-24.82 318.56,-32.95 325.11,-35.42"/>
</a>
</g>
</g>
<!-- Node18&#45;&gt;Node13 -->
<g id="edge38_Node000018_Node000013" class="edge">
<title>Node18&#45;&gt;Node13</title>
<g id="a_edge38_Node000018_Node000013"><a xlink:title=" ">
<path fill="none" stroke="#63b8ff" d="M416.62,-269.26C430.81,-245.81 459.19,-198.91 476.2,-170.8"/>
<polygon fill="#63b8ff" stroke="#63b8ff" points="479.31,-172.42 481.5,-162.05 473.32,-168.8 479.31,-172.42"/>
</a>
</g>
</g>
<!-- Node18&#45;&gt;Node14 -->
<g id="edge39_Node000018_Node000014" class="edge">
<title>Node18&#45;&gt;Node14</title>
<g id="a_edge39_Node000018_Node000014"><a xlink:title=" ">
<path fill="none" stroke="#63b8ff" d="M477.11,-273.17C560.67,-260.68 701.16,-239.68 790.36,-226.35"/>
<polygon fill="#63b8ff" stroke="#63b8ff" points="791.07,-229.78 800.44,-224.84 790.03,-222.86 791.07,-229.78"/>
</a>
</g>
</g>
<!-- Node18&#45;&gt;Node15 -->
<g id="edge40_Node000018_Node000015" class="edge">
<title>Node18&#45;&gt;Node15</title>
<g id="a_edge40_Node000018_Node000015"><a xlink:title=" ">
<path fill="none" stroke="#63b8ff" d="M452.52,-269.44C487.56,-258.37 536.53,-242.9 573.84,-231.11"/>
<polygon fill="#63b8ff" stroke="#63b8ff" points="575.06,-234.39 583.55,-228.04 572.96,-227.72 575.06,-234.39"/>
</a>
</g>
</g>
<!-- Node19 -->
<g id="Node000019" class="node">
<title>Node19</title>
<g id="a_Node000019"><a xlink:title=" ">
<polygon fill="#e0e0e0" stroke="#999999" points="380,-222.5 336,-222.5 336,-203.5 380,-203.5 380,-222.5"/>
<text text-anchor="middle" x="358" y="-210.5" font-family="Helvetica,sans-Serif" font-size="10.00">limits</text>
</a>
</g>
</g>
<!-- Node18&#45;&gt;Node19 -->
<g id="edge42_Node000018_Node000019" class="edge">
<title>Node18&#45;&gt;Node19</title>
<g id="a_edge42_Node000018_Node000019"><a xlink:title=" ">
<path fill="none" stroke="#63b8ff" d="M397.88,-269.44C389.88,-258.31 378.67,-242.74 370.18,-230.93"/>
<polygon fill="#63b8ff" stroke="#63b8ff" points="372.99,-228.84 364.31,-222.77 367.31,-232.93 372.99,-228.84"/>
</a>
</g>
</g>
<!-- Node20&#45;&gt;Node5 -->
<g id="edge48_Node000020_Node000005" class="edge">
<title>Node20&#45;&gt;Node5</title>
<g id="a_edge48_Node000020_Node000005"><a xlink:title=" ">
<path fill="none" stroke="#63b8ff" d="M1275.34,-131.75C1260.61,-114.45 1233.81,-85.21 1206,-66 1187.45,-53.18 1165.1,-42.27 1145.47,-33.93"/>
<polygon fill="#63b8ff" stroke="#63b8ff" points="1146.66,-30.64 1136.08,-30.05 1143.99,-37.1 1146.66,-30.64"/>
</a>
</g>
</g>
<!-- Node20&#45;&gt;Node7 -->
<g id="edge51_Node000020_Node000007" class="edge">
<title>Node20&#45;&gt;Node7</title>
<g id="a_edge51_Node000020_Node000007"><a xlink:title=" ">
<path fill="none" stroke="#63b8ff" d="M1219.85,-139.5C1128.42,-130.5 959.68,-113.39 816,-96 804.1,-94.56 791.45,-92.93 779.23,-91.29"/>
<polygon fill="#63b8ff" stroke="#63b8ff" points="779.47,-87.79 769.09,-89.93 778.53,-94.73 779.47,-87.79"/>
</a>
</g>
</g>
<!-- Node21 -->
<g id="Node000021" class="node">
<title>Node21</title>
<g id="a_Node000021"><a xlink:href="marching__cube__data_8hpp.html" target="_top" xlink:title=" ">
<polygon fill="white" stroke="#666666" points="1400,-96 1258,-96 1258,-66 1400,-66 1400,-96"/>
<text text-anchor="start" x="1266" y="-84" font-family="Helvetica,sans-Serif" font-size="10.00">meltpooldg/level_set</text>
<text text-anchor="middle" x="1329" y="-73" font-family="Helvetica,sans-Serif" font-size="10.00">/marching_cube_data.hpp</text>
</a>
</g>
</g>
<!-- Node20&#45;&gt;Node21 -->
<g id="edge49_Node000020_Node000021" class="edge">
<title>Node20&#45;&gt;Node21</title>
<g id="a_edge49_Node000020_Node000021"><a xlink:title=" ">
<path fill="none" stroke="#63b8ff" d="M1296.32,-131.8C1301.54,-123.84 1308.17,-113.74 1314.1,-104.71"/>
<polygon fill="#63b8ff" stroke="#63b8ff" points="1317.14,-106.44 1319.7,-96.16 1311.29,-102.6 1317.14,-106.44"/>
</a>
</g>
</g>
<!-- Node21&#45;&gt;Node5 -->
<g id="edge50_Node000021_Node000005" class="edge">
<title>Node21&#45;&gt;Node5</title>
<g id="a_edge50_Node000021_Node000005"><a xlink:title=" ">
<path fill="none" stroke="#63b8ff" d="M1278.09,-65.95C1242.58,-56.16 1195.04,-43.05 1157.58,-32.71"/>
<polygon fill="#63b8ff" stroke="#63b8ff" points="1158.37,-29.3 1147.79,-30.01 1156.5,-36.05 1158.37,-29.3"/>
</a>
</g>
</g>
<!-- Node22&#45;&gt;Node5 -->
<g id="edge53_Node000022_Node000005" class="edge">
<title>Node22&#45;&gt;Node5</title>
<g id="a_edge53_Node000022_Node000005"><a xlink:title=" ">
<path fill="none" stroke="#63b8ff" d="M740.18,-350.77C881.91,-340.21 1192,-306.53 1192,-214 1192,-214 1192,-214 1192,-146 1192,-108.88 1189.7,-96.12 1168,-66 1159.21,-53.79 1146.48,-43.51 1134.23,-35.5"/>
<polygon fill="#63b8ff" stroke="#63b8ff" points="1135.79,-32.35 1125.45,-30.07 1132.11,-38.31 1135.79,-32.35"/>
</a>
</g>
</g>
<!-- Node22&#45;&gt;Node11 -->
<g id="edge57_Node000022_Node000011" class="edge">
<title>Node22&#45;&gt;Node11</title>
<g id="a_edge57_Node000022_Node000011"><a xlink:title=" ">
<path fill="none" stroke="#63b8ff" d="M601.69,-343.73C595.71,-342.79 589.75,-341.87 584,-341 419.56,-316.12 232,-380.32 232,-214 232,-214 232,-214 232,-146 232,-95.73 279.18,-52.35 307.73,-30.7"/>
<polygon fill="#63b8ff" stroke="#63b8ff" points="309.92,-33.43 315.92,-24.69 305.78,-27.78 309.92,-33.43"/>
</a>
</g>
</g>
<!-- Node22&#45;&gt;Node13 -->
<g id="edge55_Node000022_Node000013" class="edge">
<title>Node22&#45;&gt;Node13</title>
<g id="a_edge55_Node000022_Node000013"><a xlink:title=" ">
<path fill="none" stroke="#63b8ff" d="M643.89,-340.86C607.95,-320.7 545.12,-280.27 511,-228 500.05,-211.23 494.8,-188.99 492.29,-172.22"/>
<polygon fill="#63b8ff" stroke="#63b8ff" points="495.74,-171.58 491,-162.1 488.79,-172.46 495.74,-171.58"/>
</a>
</g>
</g>
<!-- Node22&#45;&gt;Node14 -->
<g id="edge56_Node000022_Node000014" class="edge">
<title>Node22&#45;&gt;Node14</title>
<g id="a_edge56_Node000022_Node000014"><a xlink:title=" ">
<path fill="none" stroke="#63b8ff" d="M740.24,-347.73C794.47,-340.43 863.58,-327.06 881,-305 895.97,-286.05 890.3,-257.45 883.25,-237.38"/>
<polygon fill="#63b8ff" stroke="#63b8ff" points="886.51,-236.1 879.65,-228.03 879.97,-238.62 886.51,-236.1"/>
</a>
</g>
</g>
<!-- Node22&#45;&gt;Node18 -->
<g id="edge54_Node000022_Node000018" class="edge">
<title>Node22&#45;&gt;Node18</title>
<g id="a_edge54_Node000022_Node000018"><a xlink:title=" ">
<path fill="none" stroke="#63b8ff" d="M617.78,-340.94C575.36,-329.73 515.85,-314 471.04,-302.16"/>
<polygon fill="#63b8ff" stroke="#63b8ff" points="471.71,-298.71 461.14,-299.54 469.92,-305.48 471.71,-298.71"/>
</a>
</g>
</g>
</g>
</svg>
