<?xml version="1.0" encoding="UTF-8" standalone="no"?>
<!DOCTYPE svg PUBLIC "-//W3C//DTD SVG 1.1//EN"
 "http://www.w3.org/Graphics/SVG/1.1/DTD/svg11.dtd">
<!-- Generated by graphviz version 2.43.0 (0)
 -->
<!-- Title: include/meltpooldg/level_set/level_set_tools.hpp Pages: 1 -->
<!--zoomable 313 -->

<svg id="main" version="1.1" xmlns="http://www.w3.org/2000/svg" xmlns:xlink="http://www.w3.org/1999/xlink" xml:space="preserve" onload="init(evt)">
<style type="text/css"><![CDATA[
.node, .edge {opacity: 0.7;}
.node.selected, .edge.selected {opacity: 1;}
.edge:hover path { stroke: red; }
.edge:hover polygon { stroke: red; fill: red; }
]]></style>

<defs>
  <circle id="rim" cx="0" cy="0" r="7"/>
  <circle id="rim2" cx="0" cy="0" r="3.5"/>
  <g id="zoomPlus">
    <use xlink:href="#rim" fill="#404040"><set attributeName="fill" to="#808080" begin="zoomplus.mouseover" end="zoomplus.mouseout"/></use>
    <path d="M-4,0h8M0,-4v8" fill="none" stroke="white" stroke-width="1.5" pointer-events="none"/>
  </g>
  <g id="zoomMin">
    <use xlink:href="#rim" fill="#404040"><set attributeName="fill" to="#808080" begin="zoomminus.mouseover" end="zoomminus.mouseout"/></use>
    <path d="M-4,0h8" fill="none" stroke="white" stroke-width="1.5" pointer-events="none"/>
  </g>
  <g id="arrowUp" transform="translate(30 24)">
    <use xlink:href="#rim"/>
    <path pointer-events="none" fill="none" stroke="white" stroke-width="1.5" d="M0,-3.0v7 M-2.5,-0.5L0,-3.0L2.5,-0.5"/>
  </g>
  <g id="arrowRight" transform="rotate(90) translate(36 -43)">
    <use xlink:href="#rim"/>
    <path pointer-events="none" fill="none" stroke="white" stroke-width="1.5" d="M0,-3.0v7 M-2.5,-0.5L0,-3.0L2.5,-0.5"/>
  </g>
  <g id="arrowDown" transform="rotate(180) translate(-30 -48)">
    <use xlink:href="#rim"/>
    <path pointer-events="none" fill="none" stroke="white" stroke-width="1.5" d="M0,-3.0v7 M-2.5,-0.5L0,-3.0L2.5,-0.5"/>
  </g>
  <g id="arrowLeft" transform="rotate(270) translate(-36 17)">
    <use xlink:href="#rim"/>
    <path pointer-events="none" fill="none" stroke="white" stroke-width="1.5" d="M0,-3.0v7 M-2.5,-0.5L0,-3.0L2.5,-0.5"/>
  </g>
  <g id="resetDef">
    <use xlink:href="#rim2" fill="#404040"><set attributeName="fill" to="#808080" begin="reset.mouseover" end="reset.mouseout"/></use>
  </g>
</defs>
<script type="application/ecmascript">
var viewWidth = 2635;
var viewHeight = 313;
var sectionId = 'dynsection-0';
</script>
<script type="application/ecmascript" xlink:href="svg.min.js"/>
<svg id="graph" class="graph">
<g id="viewport">
<title>include/meltpooldg/level_set/level_set_tools.hpp</title>
<!-- Node1 -->
<g id="Node000001" class="node">
<title>Node1</title>
<g id="a_Node000001"><a xlink:title=" ">
<polygon fill="#999999" stroke="#666666" points="624.5,-305 513.5,-305 513.5,-264 624.5,-264 624.5,-305"/>
<text text-anchor="start" x="521.5" y="-293" font-family="Helvetica,sans-Serif" font-size="10.00">include/meltpooldg</text>
<text text-anchor="start" x="521.5" y="-282" font-family="Helvetica,sans-Serif" font-size="10.00">/level_set/level_set</text>
<text text-anchor="middle" x="569" y="-271" font-family="Helvetica,sans-Serif" font-size="10.00">_tools.hpp</text>
</a>
</g>
</g>
<!-- Node2 -->
<g id="Node000002" class="node">
<title>Node2</title>
<g id="a_Node000002"><a xlink:title=" ">
<polygon fill="#e0e0e0" stroke="#999999" points="110,-222.5 0,-222.5 0,-203.5 110,-203.5 110,-222.5"/>
<text text-anchor="middle" x="55" y="-210.5" font-family="Helvetica,sans-Serif" font-size="10.00">deal.II/base/point.h</text>
</a>
</g>
</g>
<!-- Node1&#45;&gt;Node2 -->
<g id="edge1_Node000001_Node000002" class="edge">
<title>Node1&#45;&gt;Node2</title>
<g id="a_edge1_Node000001_Node000002"><a xlink:title=" ">
<path fill="none" stroke="#63b8ff" d="M513.31,-277.93C428.85,-269.17 263.45,-250.81 124,-228 117.67,-226.96 111.03,-225.76 104.48,-224.51"/>
<polygon fill="#63b8ff" stroke="#63b8ff" points="104.8,-221.01 94.31,-222.51 103.45,-227.88 104.8,-221.01"/>
</a>
</g>
</g>
<!-- Node3 -->
<g id="Node000003" class="node">
<title>Node3</title>
<g id="a_Node000003"><a xlink:title=" ">
<polygon fill="#e0e0e0" stroke="#999999" points="1228.5,-24.5 1079.5,-24.5 1079.5,-5.5 1228.5,-5.5 1228.5,-24.5"/>
<text text-anchor="middle" x="1154" y="-12.5" font-family="Helvetica,sans-Serif" font-size="10.00">deal.II/base/vectorization.h</text>
</a>
</g>
</g>
<!-- Node1&#45;&gt;Node3 -->
<g id="edge2_Node000001_Node000003" class="edge">
<title>Node1&#45;&gt;Node3</title>
<g id="a_edge2_Node000001_Node000003"><a xlink:title=" ">
<path fill="none" stroke="#63b8ff" d="M513.47,-284.12C416.3,-283.89 221.64,-277.14 179,-228 151.04,-195.77 151.41,-164.54 179,-132 236.24,-64.49 842.3,-30.17 1069.03,-19.62"/>
<polygon fill="#63b8ff" stroke="#63b8ff" points="1069.39,-23.11 1079.21,-19.15 1069.06,-16.12 1069.39,-23.11"/>
</a>
</g>
</g>
<!-- Node4 -->
<g id="Node000004" class="node">
<title>Node4</title>
<g id="a_Node000004"><a xlink:title=" ">
<polygon fill="#e0e0e0" stroke="#999999" points="726,-90.5 586,-90.5 586,-71.5 726,-71.5 726,-90.5"/>
<text text-anchor="middle" x="656" y="-78.5" font-family="Helvetica,sans-Serif" font-size="10.00">deal.II/dofs/dof_handler.h</text>
</a>
</g>
</g>
<!-- Node1&#45;&gt;Node4 -->
<g id="edge3_Node000001_Node000004" class="edge">
<title>Node1&#45;&gt;Node4</title>
<g id="a_edge3_Node000001_Node000004"><a xlink:title=" ">
<path fill="none" stroke="#63b8ff" d="M513.13,-283.6C420.11,-282.45 239.73,-274.15 200,-228 172.16,-195.66 171.52,-163.77 200,-132 224.56,-104.6 451.3,-90.7 575.51,-85.09"/>
<polygon fill="#63b8ff" stroke="#63b8ff" points="575.9,-88.58 585.74,-84.64 575.59,-81.59 575.9,-88.58"/>
</a>
</g>
</g>
<!-- Node5 -->
<g id="Node000005" class="node">
<title>Node5</title>
<g id="a_Node000005"><a xlink:title=" ">
<polygon fill="#e0e0e0" stroke="#999999" points="2567,-222.5 2445,-222.5 2445,-203.5 2567,-203.5 2567,-222.5"/>
<text text-anchor="middle" x="2506" y="-210.5" font-family="Helvetica,sans-Serif" font-size="10.00">deal.II/fe/fe_system.h</text>
</a>
</g>
</g>
<!-- Node1&#45;&gt;Node5 -->
<g id="edge4_Node000001_Node000005" class="edge">
<title>Node1&#45;&gt;Node5</title>
<g id="a_edge4_Node000001_Node000005"><a xlink:title=" ">
<path fill="none" stroke="#63b8ff" d="M624.75,-283C894.67,-280.42 2067.65,-267.09 2431,-228 2439.24,-227.11 2447.93,-225.82 2456.36,-224.38"/>
<polygon fill="#63b8ff" stroke="#63b8ff" points="2457.25,-227.78 2466.47,-222.56 2456.01,-220.89 2457.25,-227.78"/>
</a>
</g>
</g>
<!-- Node6 -->
<g id="Node000006" class="node">
<title>Node6</title>
<g id="a_Node000006"><a xlink:title=" ">
<polygon fill="#e0e0e0" stroke="#999999" points="356,-156.5 242,-156.5 242,-137.5 356,-137.5 356,-156.5"/>
<text text-anchor="middle" x="299" y="-144.5" font-family="Helvetica,sans-Serif" font-size="10.00">deal.II/fe/mapping.h</text>
</a>
</g>
</g>
<!-- Node1&#45;&gt;Node6 -->
<g id="edge5_Node000001_Node000006" class="edge">
<title>Node1&#45;&gt;Node6</title>
<g id="a_edge5_Node000001_Node000006"><a xlink:title=" ">
<path fill="none" stroke="#63b8ff" d="M530.03,-263.94C474.15,-235.9 372.76,-185.02 325.09,-161.09"/>
<polygon fill="#63b8ff" stroke="#63b8ff" points="326.54,-157.91 316.04,-156.55 323.4,-164.16 326.54,-157.91"/>
</a>
</g>
</g>
<!-- Node7 -->
<g id="Node000007" class="node">
<title>Node7</title>
<g id="a_Node000007"><a xlink:title=" ">
<polygon fill="#e0e0e0" stroke="#999999" points="2491.5,-90.5 2394.5,-90.5 2394.5,-71.5 2491.5,-71.5 2491.5,-90.5"/>
<text text-anchor="middle" x="2443" y="-78.5" font-family="Helvetica,sans-Serif" font-size="10.00">deal.II/grid/tria.h</text>
</a>
</g>
</g>
<!-- Node1&#45;&gt;Node7 -->
<g id="edge6_Node000001_Node000007" class="edge">
<title>Node1&#45;&gt;Node7</title>
<g id="a_edge6_Node000001_Node000007"><a xlink:title=" ">
<path fill="none" stroke="#63b8ff" d="M624.5,-283.44C868.97,-282.86 1851.11,-277.47 2155,-228 2257.02,-211.39 2292.01,-219.34 2378,-162 2402.12,-145.92 2421.74,-118.15 2432.9,-99.93"/>
<polygon fill="#63b8ff" stroke="#63b8ff" points="2436.15,-101.32 2438.2,-90.93 2430.11,-97.77 2436.15,-101.32"/>
</a>
</g>
</g>
<!-- Node8 -->
<g id="Node000008" class="node">
<title>Node8</title>
<g id="a_Node000008"><a xlink:title=" ">
<polygon fill="#e0e0e0" stroke="#999999" points="492,-162 374,-162 374,-132 492,-132 492,-162"/>
<text text-anchor="start" x="382" y="-150" font-family="Helvetica,sans-Serif" font-size="10.00">deal.II/lac/la_parallel</text>
<text text-anchor="middle" x="433" y="-139" font-family="Helvetica,sans-Serif" font-size="10.00">_block_vector.h</text>
</a>
</g>
</g>
<!-- Node1&#45;&gt;Node8 -->
<g id="edge7_Node000001_Node000008" class="edge">
<title>Node1&#45;&gt;Node8</title>
<g id="a_edge7_Node000001_Node000008"><a xlink:title=" ">
<path fill="none" stroke="#63b8ff" d="M549.22,-263.8C524.01,-238.68 480.58,-195.41 454.55,-169.47"/>
<polygon fill="#63b8ff" stroke="#63b8ff" points="456.94,-166.91 447.38,-162.33 452,-171.87 456.94,-166.91"/>
</a>
</g>
</g>
<!-- Node9 -->
<g id="Node000009" class="node">
<title>Node9</title>
<g id="a_Node000009"><a xlink:title=" ">
<polygon fill="#e0e0e0" stroke="#999999" points="628,-162 510,-162 510,-132 628,-132 628,-162"/>
<text text-anchor="start" x="518" y="-150" font-family="Helvetica,sans-Serif" font-size="10.00">deal.II/lac/la_parallel</text>
<text text-anchor="middle" x="569" y="-139" font-family="Helvetica,sans-Serif" font-size="10.00">_vector.h</text>
</a>
</g>
</g>
<!-- Node1&#45;&gt;Node9 -->
<g id="edge8_Node000001_Node000009" class="edge">
<title>Node1&#45;&gt;Node9</title>
<g id="a_edge8_Node000001_Node000009"><a xlink:title=" ">
<path fill="none" stroke="#63b8ff" d="M569,-263.8C569,-239.65 569,-198.72 569,-172.55"/>
<polygon fill="#63b8ff" stroke="#63b8ff" points="572.5,-172.33 569,-162.33 565.5,-172.33 572.5,-172.33"/>
</a>
</g>
</g>
<!-- Node10 -->
<g id="Node000010" class="node">
<title>Node10</title>
<g id="a_Node000010"><a xlink:href="scratch__data_8hpp.html" target="_top" xlink:title=" ">
<polygon fill="white" stroke="#666666" points="1475,-228 1341,-228 1341,-198 1475,-198 1475,-228"/>
<text text-anchor="start" x="1349" y="-216" font-family="Helvetica,sans-Serif" font-size="10.00">meltpooldg/core/scratch</text>
<text text-anchor="middle" x="1408" y="-205" font-family="Helvetica,sans-Serif" font-size="10.00">_data.hpp</text>
</a>
</g>
</g>
<!-- Node1&#45;&gt;Node10 -->
<g id="edge9_Node000001_Node000010" class="edge">
<title>Node1&#45;&gt;Node10</title>
<g id="a_edge9_Node000001_Node000010"><a xlink:title=" ">
<path fill="none" stroke="#63b8ff" d="M624.7,-278.89C770.5,-266.81 1163.6,-234.25 1330.92,-220.39"/>
<polygon fill="#63b8ff" stroke="#63b8ff" points="1331.21,-223.87 1340.88,-219.56 1330.63,-216.9 1331.21,-223.87"/>
</a>
</g>
</g>
<!-- Node36 -->
<g id="Node000036" class="node">
<title>Node36</title>
<g id="a_Node000036"><a xlink:title=" ">
<polygon fill="#e0e0e0" stroke="#999999" points="1146.5,-90.5 1101.5,-90.5 1101.5,-71.5 1146.5,-71.5 1146.5,-90.5"/>
<text text-anchor="middle" x="1124" y="-78.5" font-family="Helvetica,sans-Serif" font-size="10.00">utility</text>
</a>
</g>
</g>
<!-- Node1&#45;&gt;Node36 -->
<g id="edge56_Node000001_Node000036" class="edge">
<title>Node1&#45;&gt;Node36</title>
<g id="a_edge56_Node000001_Node000036"><a xlink:title=" ">
<path fill="none" stroke="#63b8ff" d="M513.35,-277.99C396.82,-264.51 144.95,-223.99 233,-132 264.57,-99.02 1008.68,-101.49 1054,-96 1066.37,-94.5 1079.82,-92.02 1091.6,-89.56"/>
<polygon fill="#63b8ff" stroke="#63b8ff" points="1092.41,-92.96 1101.44,-87.43 1090.93,-86.12 1092.41,-92.96"/>
</a>
</g>
</g>
<!-- Node37 -->
<g id="Node000037" class="node">
<title>Node37</title>
<g id="a_Node000037"><a xlink:title=" ">
<polygon fill="#e0e0e0" stroke="#999999" points="2376.5,-90.5 2329.5,-90.5 2329.5,-71.5 2376.5,-71.5 2376.5,-90.5"/>
<text text-anchor="middle" x="2353" y="-78.5" font-family="Helvetica,sans-Serif" font-size="10.00">vector</text>
</a>
</g>
</g>
<!-- Node1&#45;&gt;Node37 -->
<g id="edge57_Node000001_Node000037" class="edge">
<title>Node1&#45;&gt;Node37</title>
<g id="a_edge57_Node000001_Node000037"><a xlink:title=" ">
<path fill="none" stroke="#63b8ff" d="M624.58,-283.76C812.92,-284.13 1444.04,-281.06 1962,-228 2140.37,-209.73 2244.05,-298.77 2360,-162 2374.47,-144.93 2368.05,-117.82 2361.24,-99.97"/>
<polygon fill="#63b8ff" stroke="#63b8ff" points="2364.43,-98.54 2357.34,-90.67 2357.98,-101.25 2364.43,-98.54"/>
</a>
</g>
</g>
<!-- Node40 -->
<g id="Node000040" class="node">
<title>Node40</title>
<g id="a_Node000040"><a xlink:title=" ">
<polygon fill="#e0e0e0" stroke="#999999" points="2350.5,-156.5 2285.5,-156.5 2285.5,-137.5 2350.5,-137.5 2350.5,-156.5"/>
<text text-anchor="middle" x="2318" y="-144.5" font-family="Helvetica,sans-Serif" font-size="10.00">functional</text>
</a>
</g>
</g>
<!-- Node1&#45;&gt;Node40 -->
<g id="edge54_Node000001_Node000040" class="edge">
<title>Node1&#45;&gt;Node40</title>
<g id="a_edge54_Node000001_Node000040"><a xlink:title=" ">
<path fill="none" stroke="#63b8ff" d="M624.7,-284.16C839.34,-285.71 1632.77,-282.49 2271,-162 2274.93,-161.26 2279.01,-160.31 2283.04,-159.27"/>
<polygon fill="#63b8ff" stroke="#63b8ff" points="2284.18,-162.59 2292.87,-156.52 2282.29,-155.85 2284.18,-162.59"/>
</a>
</g>
</g>
<!-- Node42 -->
<g id="Node000042" class="node">
<title>Node42</title>
<g id="a_Node000042"><a xlink:title=" ">
<polygon fill="#e0e0e0" stroke="#999999" points="2626.5,-222.5 2585.5,-222.5 2585.5,-203.5 2626.5,-203.5 2626.5,-222.5"/>
<text text-anchor="middle" x="2606" y="-210.5" font-family="Helvetica,sans-Serif" font-size="10.00">tuple</text>
</a>
</g>
</g>
<!-- Node1&#45;&gt;Node42 -->
<g id="edge55_Node000001_Node000042" class="edge">
<title>Node1&#45;&gt;Node42</title>
<g id="a_edge55_Node000001_Node000042"><a xlink:title=" ">
<path fill="none" stroke="#63b8ff" d="M624.79,-283.31C929.06,-282.09 2381.8,-273.91 2576,-228 2577.73,-227.59 2579.48,-227.08 2581.22,-226.49"/>
<polygon fill="#63b8ff" stroke="#63b8ff" points="2582.95,-229.56 2590.87,-222.52 2580.29,-223.09 2582.95,-229.56"/>
</a>
</g>
</g>
<!-- Node10&#45;&gt;Node3 -->
<g id="edge16_Node000010_Node000003" class="edge">
<title>Node10&#45;&gt;Node3</title>
<g id="a_edge16_Node000010_Node000003"><a xlink:title=" ">
<path fill="none" stroke="#63b8ff" d="M1469.33,-197.94C1515.91,-184.52 1567.62,-161.93 1540,-132 1472.26,-58.6 1159.74,-169.4 1092,-96 1071.94,-74.26 1105.07,-46.52 1130.11,-30.07"/>
<polygon fill="#63b8ff" stroke="#63b8ff" points="1132.26,-32.85 1138.85,-24.56 1128.53,-26.93 1132.26,-32.85"/>
</a>
</g>
</g>
<!-- Node10&#45;&gt;Node4 -->
<g id="edge17_Node000010_Node000004" class="edge">
<title>Node10&#45;&gt;Node4</title>
<g id="a_edge17_Node000010_Node000004"><a xlink:title=" ">
<path fill="none" stroke="#63b8ff" d="M1340.77,-211.88C1169.21,-210.96 725.12,-204.46 675,-162 657.5,-147.18 654.48,-119.45 654.66,-100.86"/>
<polygon fill="#63b8ff" stroke="#63b8ff" points="658.17,-100.79 655.09,-90.65 651.17,-100.5 658.17,-100.79"/>
</a>
</g>
</g>
<!-- Node10&#45;&gt;Node6 -->
<g id="edge19_Node000010_Node000006" class="edge">
<title>Node10&#45;&gt;Node6</title>
<g id="a_edge19_Node000010_Node000006"><a xlink:title=" ">
<path fill="none" stroke="#63b8ff" d="M1340.86,-212.52C1174.68,-212.98 731.1,-209.29 365,-162 358.21,-161.12 351.08,-159.92 344.12,-158.58"/>
<polygon fill="#63b8ff" stroke="#63b8ff" points="344.6,-155.1 334.1,-156.54 343.2,-161.96 344.6,-155.1"/>
</a>
</g>
</g>
<!-- Node10&#45;&gt;Node7 -->
<g id="edge20_Node000010_Node000007" class="edge">
<title>Node10&#45;&gt;Node7</title>
<g id="a_edge20_Node000010_Node000007"><a xlink:title=" ">
<path fill="none" stroke="#63b8ff" d="M1475.18,-210.22C1660.06,-204.99 2167.44,-188.39 2238,-162 2258.48,-154.34 2257.54,-141.98 2277,-132 2298.46,-120.99 2358.12,-104.16 2399.74,-93.12"/>
<polygon fill="#63b8ff" stroke="#63b8ff" points="2400.85,-96.45 2409.63,-90.52 2399.07,-89.68 2400.85,-96.45"/>
</a>
</g>
</g>
<!-- Node10&#45;&gt;Node8 -->
<g id="edge22_Node000010_Node000008" class="edge">
<title>Node10&#45;&gt;Node8</title>
<g id="a_edge22_Node000010_Node000008"><a xlink:title=" ">
<path fill="none" stroke="#63b8ff" d="M1340.84,-211.69C1191.64,-210.26 821.27,-202.68 502.61,-162.07"/>
<polygon fill="#63b8ff" stroke="#63b8ff" points="502.62,-158.54 492.25,-160.74 501.72,-165.49 502.62,-158.54"/>
</a>
</g>
</g>
<!-- Node10&#45;&gt;Node9 -->
<g id="edge23_Node000010_Node000009" class="edge">
<title>Node10&#45;&gt;Node9</title>
<g id="a_edge23_Node000010_Node000009"><a xlink:title=" ">
<path fill="none" stroke="#63b8ff" d="M1340.87,-210.42C1207.31,-206.66 898.94,-194.89 642,-162 640.74,-161.84 639.47,-161.67 638.19,-161.49"/>
<polygon fill="#63b8ff" stroke="#63b8ff" points="638.67,-158.03 628.26,-160 637.63,-164.95 638.67,-158.03"/>
</a>
</g>
</g>
<!-- Node11 -->
<g id="Node000011" class="node">
<title>Node11</title>
<g id="a_Node000011"><a xlink:title=" ">
<polygon fill="#e0e0e0" stroke="#999999" points="1952.5,-162 1849.5,-162 1849.5,-132 1952.5,-132 1952.5,-162"/>
<text text-anchor="start" x="1857.5" y="-150" font-family="Helvetica,sans-Serif" font-size="10.00">deal.II/base/index</text>
<text text-anchor="middle" x="1901" y="-139" font-family="Helvetica,sans-Serif" font-size="10.00">_set.h</text>
</a>
</g>
</g>
<!-- Node10&#45;&gt;Node11 -->
<g id="edge10_Node000010_Node000011" class="edge">
<title>Node10&#45;&gt;Node11</title>
<g id="a_edge10_Node000010_Node000011"><a xlink:title=" ">
<path fill="none" stroke="#63b8ff" d="M1475.2,-206.07C1559.54,-198.18 1708.5,-182.78 1835,-162 1836.3,-161.79 1837.61,-161.56 1838.94,-161.34"/>
<polygon fill="#63b8ff" stroke="#63b8ff" points="1840,-164.7 1849.2,-159.46 1838.74,-157.81 1840,-164.7"/>
</a>
</g>
</g>
<!-- Node12 -->
<g id="Node000012" class="node">
<title>Node12</title>
<g id="a_Node000012"><a xlink:title=" ">
<polygon fill="#e0e0e0" stroke="#999999" points="2075,-156.5 1971,-156.5 1971,-137.5 2075,-137.5 2075,-156.5"/>
<text text-anchor="middle" x="2023" y="-144.5" font-family="Helvetica,sans-Serif" font-size="10.00">deal.II/base/mpi.h</text>
</a>
</g>
</g>
<!-- Node10&#45;&gt;Node12 -->
<g id="edge11_Node000010_Node000012" class="edge">
<title>Node10&#45;&gt;Node12</title>
<g id="a_edge11_Node000010_Node000012"><a xlink:title=" ">
<path fill="none" stroke="#63b8ff" d="M1475.31,-208.87C1579.94,-203.35 1787.71,-189.73 1962,-162 1967.77,-161.08 1973.82,-159.93 1979.76,-158.68"/>
<polygon fill="#63b8ff" stroke="#63b8ff" points="1980.58,-162.09 1989.6,-156.52 1979.08,-155.25 1980.58,-162.09"/>
</a>
</g>
</g>
<!-- Node13 -->
<g id="Node000013" class="node">
<title>Node13</title>
<g id="a_Node000013"><a xlink:title=" ">
<polygon fill="#e0e0e0" stroke="#999999" points="2228.5,-162 2093.5,-162 2093.5,-132 2228.5,-132 2228.5,-162"/>
<text text-anchor="start" x="2101.5" y="-150" font-family="Helvetica,sans-Serif" font-size="10.00">deal.II/base/mpi_remote</text>
<text text-anchor="middle" x="2161" y="-139" font-family="Helvetica,sans-Serif" font-size="10.00">_point_evaluation.h</text>
</a>
</g>
</g>
<!-- Node10&#45;&gt;Node13 -->
<g id="edge12_Node000010_Node000013" class="edge">
<title>Node10&#45;&gt;Node13</title>
<g id="a_edge12_Node000010_Node000013"><a xlink:title=" ">
<path fill="none" stroke="#63b8ff" d="M1475.4,-209.38C1595.48,-204.2 1854.47,-190.69 2083.27,-161.99"/>
<polygon fill="#63b8ff" stroke="#63b8ff" points="2083.98,-165.43 2093.46,-160.7 2083.1,-158.48 2083.98,-165.43"/>
</a>
</g>
</g>
<!-- Node14 -->
<g id="Node000014" class="node">
<title>Node14</title>
<g id="a_Node000014"><a xlink:title=" ">
<polygon fill="#e0e0e0" stroke="#999999" points="819.5,-156.5 684.5,-156.5 684.5,-137.5 819.5,-137.5 819.5,-156.5"/>
<text text-anchor="middle" x="752" y="-144.5" font-family="Helvetica,sans-Serif" font-size="10.00">deal.II/base/partitioner.h</text>
</a>
</g>
</g>
<!-- Node10&#45;&gt;Node14 -->
<g id="edge13_Node000010_Node000014" class="edge">
<title>Node10&#45;&gt;Node14</title>
<g id="a_edge13_Node000010_Node000014"><a xlink:title=" ">
<path fill="none" stroke="#63b8ff" d="M1340.91,-208.25C1232.8,-201.76 1013.51,-186.68 829,-162 821.24,-160.96 813.06,-159.68 805.06,-158.32"/>
<polygon fill="#63b8ff" stroke="#63b8ff" points="805.51,-154.84 795.06,-156.56 804.3,-161.74 805.51,-154.84"/>
</a>
</g>
</g>
<!-- Node15 -->
<g id="Node000015" class="node">
<title>Node15</title>
<g id="a_Node000015"><a xlink:title=" ">
<polygon fill="#e0e0e0" stroke="#999999" points="976,-156.5 838,-156.5 838,-137.5 976,-137.5 976,-156.5"/>
<text text-anchor="middle" x="907" y="-144.5" font-family="Helvetica,sans-Serif" font-size="10.00">deal.II/base/quadrature.h</text>
</a>
</g>
</g>
<!-- Node10&#45;&gt;Node15 -->
<g id="edge14_Node000010_Node000015" class="edge">
<title>Node10&#45;&gt;Node15</title>
<g id="a_edge14_Node000010_Node000015"><a xlink:title=" ">
<path fill="none" stroke="#63b8ff" d="M1340.8,-205.31C1257.22,-196.71 1110.26,-180.63 985,-162 977.52,-160.89 969.67,-159.61 961.93,-158.29"/>
<polygon fill="#63b8ff" stroke="#63b8ff" points="962.34,-154.8 951.88,-156.53 961.13,-161.7 962.34,-154.8"/>
</a>
</g>
</g>
<!-- Node16 -->
<g id="Node000016" class="node">
<title>Node16</title>
<g id="a_Node000016"><a xlink:title=" ">
<polygon fill="#e0e0e0" stroke="#999999" points="1104,-156.5 994,-156.5 994,-137.5 1104,-137.5 1104,-156.5"/>
<text text-anchor="middle" x="1049" y="-144.5" font-family="Helvetica,sans-Serif" font-size="10.00">deal.II/base/timer.h</text>
</a>
</g>
</g>
<!-- Node10&#45;&gt;Node16 -->
<g id="edge15_Node000010_Node000016" class="edge">
<title>Node10&#45;&gt;Node16</title>
<g id="a_edge15_Node000010_Node000016"><a xlink:title=" ">
<path fill="none" stroke="#63b8ff" d="M1340.76,-201.54C1280.86,-191.99 1190.89,-177.11 1113,-162 1107.63,-160.96 1102.01,-159.81 1096.44,-158.64"/>
<polygon fill="#63b8ff" stroke="#63b8ff" points="1097.01,-155.18 1086.5,-156.52 1095.55,-162.03 1097.01,-155.18"/>
</a>
</g>
</g>
<!-- Node17 -->
<g id="Node000017" class="node">
<title>Node17</title>
<g id="a_Node000017"><a xlink:title=" ">
<polygon fill="#e0e0e0" stroke="#999999" points="1203.5,-156.5 1122.5,-156.5 1122.5,-137.5 1203.5,-137.5 1203.5,-156.5"/>
<text text-anchor="middle" x="1163" y="-144.5" font-family="Helvetica,sans-Serif" font-size="10.00">deal.II/fe/fe.h</text>
</a>
</g>
</g>
<!-- Node10&#45;&gt;Node17 -->
<g id="edge18_Node000010_Node000017" class="edge">
<title>Node10&#45;&gt;Node17</title>
<g id="a_edge18_Node000010_Node000017"><a xlink:title=" ">
<path fill="none" stroke="#63b8ff" d="M1351.28,-197.99C1312.08,-188.19 1258.78,-174.65 1212,-162 1208.8,-161.13 1205.48,-160.22 1202.15,-159.29"/>
<polygon fill="#63b8ff" stroke="#63b8ff" points="1202.82,-155.84 1192.24,-156.5 1200.92,-162.58 1202.82,-155.84"/>
</a>
</g>
</g>
<!-- Node18 -->
<g id="Node000018" class="node">
<title>Node18</title>
<g id="a_Node000018"><a xlink:title=" ">
<polygon fill="#e0e0e0" stroke="#999999" points="1316.5,-162 1221.5,-162 1221.5,-132 1316.5,-132 1316.5,-162"/>
<text text-anchor="start" x="1229.5" y="-150" font-family="Helvetica,sans-Serif" font-size="10.00">deal.II/lac/affine</text>
<text text-anchor="middle" x="1269" y="-139" font-family="Helvetica,sans-Serif" font-size="10.00">_constraints.h</text>
</a>
</g>
</g>
<!-- Node10&#45;&gt;Node18 -->
<g id="edge21_Node000010_Node000018" class="edge">
<title>Node10&#45;&gt;Node18</title>
<g id="a_edge21_Node000010_Node000018"><a xlink:title=" ">
<path fill="none" stroke="#63b8ff" d="M1377.5,-197.95C1357.31,-188.66 1330.63,-176.38 1308.78,-166.32"/>
<polygon fill="#63b8ff" stroke="#63b8ff" points="1309.98,-163.02 1299.43,-162.01 1307.05,-169.37 1309.98,-163.02"/>
</a>
</g>
</g>
<!-- Node19 -->
<g id="Node000019" class="node">
<title>Node19</title>
<g id="a_Node000019"><a xlink:title=" ">
<polygon fill="#e0e0e0" stroke="#999999" points="1271.5,-96 1164.5,-96 1164.5,-66 1271.5,-66 1271.5,-96"/>
<text text-anchor="start" x="1172.5" y="-84" font-family="Helvetica,sans-Serif" font-size="10.00">deal.II/matrix_free</text>
<text text-anchor="middle" x="1218" y="-73" font-family="Helvetica,sans-Serif" font-size="10.00">/matrix_free.h</text>
</a>
</g>
</g>
<!-- Node10&#45;&gt;Node19 -->
<g id="edge24_Node000010_Node000019" class="edge">
<title>Node10&#45;&gt;Node19</title>
<g id="a_edge24_Node000010_Node000019"><a xlink:title=" ">
<path fill="none" stroke="#63b8ff" d="M1475.26,-202.65C1534.5,-191.69 1606.54,-170.01 1573,-132 1530.47,-83.8 1349.42,-106.49 1286,-96 1284.55,-95.76 1283.09,-95.51 1281.61,-95.26"/>
<polygon fill="#63b8ff" stroke="#63b8ff" points="1282.21,-91.81 1271.75,-93.47 1280.97,-98.7 1282.21,-91.81"/>
</a>
</g>
</g>
<!-- Node20 -->
<g id="Node000020" class="node">
<title>Node20</title>
<g id="a_Node000020"><a xlink:href="util_8hpp.html" target="_top" xlink:title=" ">
<polygon fill="white" stroke="#666666" points="1755,-156.5 1625,-156.5 1625,-137.5 1755,-137.5 1755,-156.5"/>
<text text-anchor="middle" x="1690" y="-144.5" font-family="Helvetica,sans-Serif" font-size="10.00">meltpooldg/cut/util.hpp</text>
</a>
</g>
</g>
<!-- Node10&#45;&gt;Node20 -->
<g id="edge25_Node000010_Node000020" class="edge">
<title>Node10&#45;&gt;Node20</title>
<g id="a_edge25_Node000010_Node000020"><a xlink:title=" ">
<path fill="none" stroke="#63b8ff" d="M1469.89,-197.95C1521.85,-186.16 1595,-169.56 1642.46,-158.79"/>
<polygon fill="#63b8ff" stroke="#63b8ff" points="1643.49,-162.14 1652.47,-156.52 1641.94,-155.32 1643.49,-162.14"/>
</a>
</g>
</g>
<!-- Node35 -->
<g id="Node000035" class="node">
<title>Node35</title>
<g id="a_Node000035"><a xlink:title=" ">
<polygon fill="#e0e0e0" stroke="#999999" points="2311,-90.5 2253,-90.5 2253,-71.5 2311,-71.5 2311,-90.5"/>
<text text-anchor="middle" x="2282" y="-78.5" font-family="Helvetica,sans-Serif" font-size="10.00">memory</text>
</a>
</g>
</g>
<!-- Node10&#45;&gt;Node35 -->
<g id="edge52_Node000010_Node000035" class="edge">
<title>Node10&#45;&gt;Node35</title>
<g id="a_edge52_Node000010_Node000035"><a xlink:title=" ">
<path fill="none" stroke="#63b8ff" d="M1475.3,-211.79C1548.7,-209.48 1668.44,-199.54 1764,-162 1785.69,-153.48 1785.08,-139.9 1807,-132 1990.35,-65.97 2053.72,-138.07 2244,-96 2246.68,-95.41 2249.42,-94.67 2252.14,-93.85"/>
<polygon fill="#63b8ff" stroke="#63b8ff" points="2253.44,-97.11 2261.79,-90.59 2251.2,-90.47 2253.44,-97.11"/>
</a>
</g>
</g>
<!-- Node10&#45;&gt;Node37 -->
<g id="edge53_Node000010_Node000037" class="edge">
<title>Node10&#45;&gt;Node37</title>
<g id="a_edge53_Node000010_Node000037"><a xlink:title=" ">
<path fill="none" stroke="#63b8ff" d="M1475.17,-207.5C1571.2,-200.38 1742.48,-184.93 1800,-162 1820.97,-153.64 1819.82,-139.81 1841,-132 2041.3,-58.12 2112.53,-146.36 2320,-96 2322.16,-95.48 2324.36,-94.82 2326.55,-94.09"/>
<polygon fill="#63b8ff" stroke="#63b8ff" points="2327.81,-97.36 2335.89,-90.51 2325.3,-90.82 2327.81,-97.36"/>
</a>
</g>
</g>
<!-- Node38 -->
<g id="Node000038" class="node">
<title>Node38</title>
<g id="a_Node000038"><a xlink:href="conditional__ostream_8hpp.html" target="_top" xlink:title=" ">
<polygon fill="white" stroke="#666666" points="1531,-162 1391,-162 1391,-132 1531,-132 1531,-162"/>
<text text-anchor="start" x="1399" y="-150" font-family="Helvetica,sans-Serif" font-size="10.00">meltpooldg/utilities</text>
<text text-anchor="middle" x="1461" y="-139" font-family="Helvetica,sans-Serif" font-size="10.00">/conditional_ostream.hpp</text>
</a>
</g>
</g>
<!-- Node10&#45;&gt;Node38 -->
<g id="edge48_Node000010_Node000038" class="edge">
<title>Node10&#45;&gt;Node38</title>
<g id="a_edge48_Node000010_Node000038"><a xlink:title=" ">
<path fill="none" stroke="#63b8ff" d="M1419.76,-197.8C1426.56,-189.59 1435.24,-179.1 1442.89,-169.87"/>
<polygon fill="#63b8ff" stroke="#63b8ff" points="1445.59,-172.1 1449.27,-162.16 1440.2,-167.63 1445.59,-172.1"/>
</a>
</g>
</g>
<!-- Node10&#45;&gt;Node40 -->
<g id="edge50_Node000010_Node000040" class="edge">
<title>Node10&#45;&gt;Node40</title>
<g id="a_edge50_Node000010_Node000040"><a xlink:title=" ">
<path fill="none" stroke="#63b8ff" d="M1475.2,-210.12C1650.45,-204.89 2118.38,-188.78 2271,-162 2275.15,-161.27 2279.45,-160.3 2283.69,-159.21"/>
<polygon fill="#63b8ff" stroke="#63b8ff" points="2284.69,-162.57 2293.38,-156.5 2282.8,-155.83 2284.69,-162.57"/>
</a>
</g>
</g>
<!-- Node41 -->
<g id="Node000041" class="node">
<title>Node41</title>
<g id="a_Node000041"><a xlink:title=" ">
<polygon fill="#e0e0e0" stroke="#999999" points="1373,-156.5 1335,-156.5 1335,-137.5 1373,-137.5 1373,-156.5"/>
<text text-anchor="middle" x="1354" y="-144.5" font-family="Helvetica,sans-Serif" font-size="10.00">map</text>
</a>
</g>
</g>
<!-- Node10&#45;&gt;Node41 -->
<g id="edge51_Node000010_Node000041" class="edge">
<title>Node10&#45;&gt;Node41</title>
<g id="a_edge51_Node000010_Node000041"><a xlink:title=" ">
<path fill="none" stroke="#63b8ff" d="M1396.02,-197.8C1387.76,-188.01 1376.76,-174.98 1368.09,-164.7"/>
<polygon fill="#63b8ff" stroke="#63b8ff" points="1370.59,-162.23 1361.46,-156.84 1365.24,-166.74 1370.59,-162.23"/>
</a>
</g>
</g>
<!-- Node20&#45;&gt;Node3 -->
<g id="edge27_Node000020_Node000003" class="edge">
<title>Node20&#45;&gt;Node3</title>
<g id="a_edge27_Node000020_Node000003"><a xlink:title=" ">
<path fill="none" stroke="#63b8ff" d="M1631.2,-137.49C1618.29,-135.66 1604.68,-133.74 1592,-132 1470.75,-115.35 1432.03,-142.91 1319,-96 1298.8,-87.62 1299.01,-76.8 1280,-66 1251.82,-49.99 1217.49,-36.73 1191.79,-27.9"/>
<polygon fill="#63b8ff" stroke="#63b8ff" points="1192.64,-24.5 1182.05,-24.62 1190.41,-31.13 1192.64,-24.5"/>
</a>
</g>
</g>
<!-- Node20&#45;&gt;Node4 -->
<g id="edge28_Node000020_Node000004" class="edge">
<title>Node20&#45;&gt;Node4</title>
<g id="a_edge28_Node000020_Node000004"><a xlink:title=" ">
<path fill="none" stroke="#63b8ff" d="M1624.7,-139.38C1598.4,-136.85 1567.78,-134.08 1540,-132 1520.1,-130.51 950.47,-98.52 736.33,-86.5"/>
<polygon fill="#63b8ff" stroke="#63b8ff" points="736.28,-83 726.1,-85.93 735.89,-89.99 736.28,-83"/>
</a>
</g>
</g>
<!-- Node20&#45;&gt;Node7 -->
<g id="edge29_Node000020_Node000007" class="edge">
<title>Node20&#45;&gt;Node7</title>
<g id="a_edge29_Node000020_Node000007"><a xlink:title=" ">
<path fill="none" stroke="#63b8ff" d="M1755,-139.59C1781.64,-137.07 1812.79,-134.24 1841,-132 2082.99,-112.79 2146.1,-133.09 2386,-96 2391.41,-95.16 2397.07,-94.06 2402.62,-92.84"/>
<polygon fill="#63b8ff" stroke="#63b8ff" points="2403.49,-96.23 2412.43,-90.55 2401.9,-89.41 2403.49,-96.23"/>
</a>
</g>
</g>
<!-- Node20&#45;&gt;Node19 -->
<g id="edge32_Node000020_Node000019" class="edge">
<title>Node20&#45;&gt;Node19</title>
<g id="a_edge32_Node000020_Node000019"><a xlink:title=" ">
<path fill="none" stroke="#63b8ff" d="M1644.96,-137.5C1633.88,-135.55 1622.03,-133.59 1611,-132 1467.15,-111.31 1429.55,-118.68 1286,-96 1284.55,-95.77 1283.08,-95.53 1281.6,-95.28"/>
<polygon fill="#63b8ff" stroke="#63b8ff" points="1282.19,-91.83 1271.74,-93.54 1280.98,-98.73 1282.19,-91.83"/>
</a>
</g>
</g>
<!-- Node21 -->
<g id="Node000021" class="node">
<title>Node21</title>
<g id="a_Node000021"><a xlink:title=" ">
<polygon fill="#e0e0e0" stroke="#999999" points="1827.5,-96 1726.5,-96 1726.5,-66 1827.5,-66 1827.5,-96"/>
<text text-anchor="start" x="1734.5" y="-84" font-family="Helvetica,sans-Serif" font-size="10.00">deal.II/base/array</text>
<text text-anchor="middle" x="1777" y="-73" font-family="Helvetica,sans-Serif" font-size="10.00">_view.h</text>
</a>
</g>
</g>
<!-- Node20&#45;&gt;Node21 -->
<g id="edge26_Node000020_Node000021" class="edge">
<title>Node20&#45;&gt;Node21</title>
<g id="a_edge26_Node000020_Node000021"><a xlink:title=" ">
<path fill="none" stroke="#63b8ff" d="M1701.73,-137.37C1713.98,-128.36 1733.6,-113.92 1749.75,-102.05"/>
<polygon fill="#63b8ff" stroke="#63b8ff" points="1751.83,-104.86 1757.81,-96.12 1747.68,-99.22 1751.83,-104.86"/>
</a>
</g>
</g>
<!-- Node22 -->
<g id="Node000022" class="node">
<title>Node22</title>
<g id="a_Node000022"><a xlink:title=" ">
<polygon fill="#e0e0e0" stroke="#999999" points="1954.5,-96 1845.5,-96 1845.5,-66 1954.5,-66 1954.5,-96"/>
<text text-anchor="start" x="1853.5" y="-84" font-family="Helvetica,sans-Serif" font-size="10.00">deal.II/matrix_free</text>
<text text-anchor="middle" x="1900" y="-73" font-family="Helvetica,sans-Serif" font-size="10.00">/evaluation_flags.h</text>
</a>
</g>
</g>
<!-- Node20&#45;&gt;Node22 -->
<g id="edge30_Node000020_Node000022" class="edge">
<title>Node20&#45;&gt;Node22</title>
<g id="a_edge30_Node000020_Node000022"><a xlink:title=" ">
<path fill="none" stroke="#63b8ff" d="M1718.32,-137.37C1750.38,-127.6 1803.42,-111.43 1843.94,-99.09"/>
<polygon fill="#63b8ff" stroke="#63b8ff" points="1845.14,-102.38 1853.68,-96.12 1843.1,-95.68 1845.14,-102.38"/>
</a>
</g>
</g>
<!-- Node23 -->
<g id="Node000023" class="node">
<title>Node23</title>
<g id="a_Node000023"><a xlink:title=" ">
<polygon fill="#e0e0e0" stroke="#999999" points="2097.5,-96 1972.5,-96 1972.5,-66 2097.5,-66 2097.5,-96"/>
<text text-anchor="start" x="1980.5" y="-84" font-family="Helvetica,sans-Serif" font-size="10.00">deal.II/matrix_free</text>
<text text-anchor="middle" x="2035" y="-73" font-family="Helvetica,sans-Serif" font-size="10.00">/fe_point_evaluation.h</text>
</a>
</g>
</g>
<!-- Node20&#45;&gt;Node23 -->
<g id="edge31_Node000020_Node000023" class="edge">
<title>Node20&#45;&gt;Node23</title>
<g id="a_edge31_Node000020_Node000023"><a xlink:title=" ">
<path fill="none" stroke="#63b8ff" d="M1738.05,-137.44C1790.7,-128.02 1877.94,-112.27 1962.29,-96.31"/>
<polygon fill="#63b8ff" stroke="#63b8ff" points="1963.12,-99.72 1972.29,-94.42 1961.81,-92.84 1963.12,-99.72"/>
</a>
</g>
</g>
<!-- Node24 -->
<g id="Node000024" class="node">
<title>Node24</title>
<g id="a_Node000024"><a xlink:title=" ">
<polygon fill="#e0e0e0" stroke="#999999" points="2234.5,-96 2115.5,-96 2115.5,-66 2234.5,-66 2234.5,-96"/>
<text text-anchor="start" x="2123.5" y="-84" font-family="Helvetica,sans-Serif" font-size="10.00">deal.II/non_matching</text>
<text text-anchor="middle" x="2175" y="-73" font-family="Helvetica,sans-Serif" font-size="10.00">/mapping_info.h</text>
</a>
</g>
</g>
<!-- Node20&#45;&gt;Node24 -->
<g id="edge33_Node000020_Node000024" class="edge">
<title>Node20&#45;&gt;Node24</title>
<g id="a_edge33_Node000020_Node000024"><a xlink:title=" ">
<path fill="none" stroke="#63b8ff" d="M1735.03,-137.46C1746.11,-135.52 1757.97,-133.56 1769,-132 1915.36,-111.26 1956,-118.91 2105.36,-96.16"/>
<polygon fill="#63b8ff" stroke="#63b8ff" points="2106.01,-99.6 2115.36,-94.62 2104.94,-92.69 2106.01,-99.6"/>
</a>
</g>
</g>
<!-- Node25 -->
<g id="Node000025" class="node">
<title>Node25</title>
<g id="a_Node000025"><a xlink:title=" ">
<polygon fill="#e0e0e0" stroke="#999999" points="1577.5,-96 1458.5,-96 1458.5,-66 1577.5,-66 1577.5,-96"/>
<text text-anchor="start" x="1466.5" y="-84" font-family="Helvetica,sans-Serif" font-size="10.00">deal.II/non_matching</text>
<text text-anchor="middle" x="1518" y="-73" font-family="Helvetica,sans-Serif" font-size="10.00">/mesh_classifier.h</text>
</a>
</g>
</g>
<!-- Node20&#45;&gt;Node25 -->
<g id="edge34_Node000020_Node000025" class="edge">
<title>Node20&#45;&gt;Node25</title>
<g id="a_edge34_Node000020_Node000025"><a xlink:title=" ">
<path fill="none" stroke="#63b8ff" d="M1666.8,-137.37C1640.93,-127.74 1598.39,-111.91 1565.4,-99.64"/>
<polygon fill="#63b8ff" stroke="#63b8ff" points="1566.53,-96.32 1555.94,-96.12 1564.09,-102.88 1566.53,-96.32"/>
</a>
</g>
</g>
<!-- Node26 -->
<g id="Node000026" class="node">
<title>Node26</title>
<g id="a_Node000026"><a xlink:href="enum_8hpp.html" target="_top" xlink:title=" ">
<polygon fill="white" stroke="#666666" points="1708,-96 1596,-96 1596,-66 1708,-66 1708,-96"/>
<text text-anchor="start" x="1604" y="-84" font-family="Helvetica,sans-Serif" font-size="10.00">meltpooldg/utilities</text>
<text text-anchor="middle" x="1652" y="-73" font-family="Helvetica,sans-Serif" font-size="10.00">/enum.hpp</text>
</a>
</g>
</g>
<!-- Node20&#45;&gt;Node26 -->
<g id="edge35_Node000020_Node000026" class="edge">
<title>Node20&#45;&gt;Node26</title>
<g id="a_edge35_Node000020_Node000026"><a xlink:title=" ">
<path fill="none" stroke="#63b8ff" d="M1684.88,-137.37C1680,-129.16 1672.45,-116.44 1665.81,-105.26"/>
<polygon fill="#63b8ff" stroke="#63b8ff" points="1668.64,-103.17 1660.53,-96.36 1662.62,-106.75 1668.64,-103.17"/>
</a>
</g>
</g>
<!-- Node33 -->
<g id="Node000033" class="node">
<title>Node33</title>
<g id="a_Node000033"><a xlink:href="fe__integrator_8hpp.html" target="_top" xlink:title=" ">
<polygon fill="white" stroke="#666666" points="1440,-96 1328,-96 1328,-66 1440,-66 1440,-96"/>
<text text-anchor="start" x="1336" y="-84" font-family="Helvetica,sans-Serif" font-size="10.00">meltpooldg/utilities</text>
<text text-anchor="middle" x="1384" y="-73" font-family="Helvetica,sans-Serif" font-size="10.00">/fe_integrator.hpp</text>
</a>
</g>
</g>
<!-- Node20&#45;&gt;Node33 -->
<g id="edge42_Node000020_Node000033" class="edge">
<title>Node20&#45;&gt;Node33</title>
<g id="a_edge42_Node000020_Node000033"><a xlink:title=" ">
<path fill="none" stroke="#63b8ff" d="M1648.18,-137.42C1602.17,-127.97 1525.74,-112.19 1450.18,-96.24"/>
<polygon fill="#63b8ff" stroke="#63b8ff" points="1450.52,-92.74 1440.01,-94.09 1449.07,-99.58 1450.52,-92.74"/>
</a>
</g>
</g>
<!-- Node20&#45;&gt;Node35 -->
<g id="edge45_Node000020_Node000035" class="edge">
<title>Node20&#45;&gt;Node35</title>
<g id="a_edge45_Node000020_Node000035"><a xlink:title=" ">
<path fill="none" stroke="#63b8ff" d="M1733.76,-137.44C1745.19,-135.43 1757.53,-133.45 1769,-132 1979.05,-105.5 2037.13,-141.03 2244,-96 2246.68,-95.42 2249.42,-94.69 2252.15,-93.87"/>
<polygon fill="#63b8ff" stroke="#63b8ff" points="2253.44,-97.13 2261.8,-90.62 2251.21,-90.49 2253.44,-97.13"/>
</a>
</g>
</g>
<!-- Node20&#45;&gt;Node36 -->
<g id="edge46_Node000020_Node000036" class="edge">
<title>Node20&#45;&gt;Node36</title>
<g id="a_edge46_Node000020_Node000036"><a xlink:title=" ">
<path fill="none" stroke="#63b8ff" d="M1624.76,-137.8C1607.91,-135.79 1589.79,-133.73 1573,-132 1387.51,-112.92 1335.43,-143.04 1155,-96 1153.31,-95.56 1151.6,-95.03 1149.89,-94.45"/>
<polygon fill="#63b8ff" stroke="#63b8ff" points="1150.94,-91.1 1140.35,-90.63 1148.33,-97.6 1150.94,-91.1"/>
</a>
</g>
</g>
<!-- Node20&#45;&gt;Node37 -->
<g id="edge47_Node000020_Node000037" class="edge">
<title>Node20&#45;&gt;Node37</title>
<g id="a_edge47_Node000020_Node000037"><a xlink:title=" ">
<path fill="none" stroke="#63b8ff" d="M1755.23,-137.62C1772.07,-135.61 1790.2,-133.59 1807,-132 2034.54,-110.42 2097.76,-149.36 2320,-96 2322.16,-95.48 2324.37,-94.83 2326.55,-94.1"/>
<polygon fill="#63b8ff" stroke="#63b8ff" points="2327.81,-97.37 2335.9,-90.52 2325.31,-90.83 2327.81,-97.37"/>
</a>
</g>
</g>
<!-- Node27 -->
<g id="Node000027" class="node">
<title>Node27</title>
<g id="a_Node000027"><a xlink:title=" ">
<polygon fill="#e0e0e0" stroke="#999999" points="1715.5,-30 1588.5,-30 1588.5,0 1715.5,0 1715.5,-30"/>
<text text-anchor="start" x="1596.5" y="-18" font-family="Helvetica,sans-Serif" font-size="10.00">deal.II/base/parameter</text>
<text text-anchor="middle" x="1652" y="-7" font-family="Helvetica,sans-Serif" font-size="10.00">_handler.h</text>
</a>
</g>
</g>
<!-- Node26&#45;&gt;Node27 -->
<g id="edge36_Node000026_Node000027" class="edge">
<title>Node26&#45;&gt;Node27</title>
<g id="a_edge36_Node000026_Node000027"><a xlink:title=" ">
<path fill="none" stroke="#63b8ff" d="M1652,-65.8C1652,-58.34 1652,-48.99 1652,-40.41"/>
<polygon fill="#63b8ff" stroke="#63b8ff" points="1655.5,-40.16 1652,-30.16 1648.5,-40.16 1655.5,-40.16"/>
</a>
</g>
</g>
<!-- Node28 -->
<g id="Node000028" class="node">
<title>Node28</title>
<g id="a_Node000028"><a xlink:title=" ">
<polygon fill="#e0e0e0" stroke="#999999" points="1858.5,-24.5 1733.5,-24.5 1733.5,-5.5 1858.5,-5.5 1858.5,-24.5"/>
<text text-anchor="middle" x="1796" y="-12.5" font-family="Helvetica,sans-Serif" font-size="10.00">deal.II/base/patterns.h</text>
</a>
</g>
</g>
<!-- Node26&#45;&gt;Node28 -->
<g id="edge37_Node000026_Node000028" class="edge">
<title>Node26&#45;&gt;Node28</title>
<g id="a_edge37_Node000026_Node000028"><a xlink:title=" ">
<path fill="none" stroke="#63b8ff" d="M1683.6,-65.95C1708.63,-54.83 1743.3,-39.42 1767.49,-28.67"/>
<polygon fill="#63b8ff" stroke="#63b8ff" points="1769.12,-31.78 1776.84,-24.52 1766.28,-25.38 1769.12,-31.78"/>
</a>
</g>
</g>
<!-- Node29 -->
<g id="Node000029" class="node">
<title>Node29</title>
<g id="a_Node000029"><a xlink:title=" ">
<polygon fill="#e0e0e0" stroke="#999999" points="1989,-30 1877,-30 1877,0 1989,0 1989,-30"/>
<text text-anchor="start" x="1885" y="-18" font-family="Helvetica,sans-Serif" font-size="10.00">meltpooldg/utilities</text>
<text text-anchor="middle" x="1933" y="-7" font-family="Helvetica,sans-Serif" font-size="10.00">/better_enum.hpp</text>
</a>
</g>
</g>
<!-- Node26&#45;&gt;Node29 -->
<g id="edge38_Node000026_Node000029" class="edge">
<title>Node26&#45;&gt;Node29</title>
<g id="a_edge38_Node000026_Node000029"><a xlink:title=" ">
<path fill="none" stroke="#63b8ff" d="M1708.19,-67.2C1753.94,-56.78 1818.63,-42.05 1866.88,-31.06"/>
<polygon fill="#63b8ff" stroke="#63b8ff" points="1867.94,-34.41 1876.91,-28.78 1866.38,-27.58 1867.94,-34.41"/>
</a>
</g>
</g>
<!-- Node30 -->
<g id="Node000030" class="node">
<title>Node30</title>
<g id="a_Node000030"><a xlink:title=" ">
<polygon fill="#e0e0e0" stroke="#999999" points="2132.5,-30 2007.5,-30 2007.5,0 2132.5,0 2132.5,-30"/>
<text text-anchor="start" x="2015.5" y="-18" font-family="Helvetica,sans-Serif" font-size="10.00">boost/algorithm/string</text>
<text text-anchor="middle" x="2070" y="-7" font-family="Helvetica,sans-Serif" font-size="10.00">/join.hpp</text>
</a>
</g>
</g>
<!-- Node26&#45;&gt;Node30 -->
<g id="edge39_Node000026_Node000030" class="edge">
<title>Node26&#45;&gt;Node30</title>
<g id="a_edge39_Node000026_Node000030"><a xlink:title=" ">
<path fill="none" stroke="#63b8ff" d="M1708.31,-67.57C1711.25,-67.01 1714.16,-66.49 1717,-66 1837.95,-45.27 1871.98,-49.77 1997.24,-30.05"/>
<polygon fill="#63b8ff" stroke="#63b8ff" points="1997.89,-33.49 2007.21,-28.46 1996.79,-26.58 1997.89,-33.49"/>
</a>
</g>
</g>
<!-- Node31 -->
<g id="Node000031" class="node">
<title>Node31</title>
<g id="a_Node000031"><a xlink:title=" ">
<polygon fill="#e0e0e0" stroke="#999999" points="1508,-24.5 1452,-24.5 1452,-5.5 1508,-5.5 1508,-24.5"/>
<text text-anchor="middle" x="1480" y="-12.5" font-family="Helvetica,sans-Serif" font-size="10.00">sstream</text>
</a>
</g>
</g>
<!-- Node26&#45;&gt;Node31 -->
<g id="edge40_Node000026_Node000031" class="edge">
<title>Node26&#45;&gt;Node31</title>
<g id="a_edge40_Node000026_Node000031"><a xlink:title=" ">
<path fill="none" stroke="#63b8ff" d="M1613.86,-65.95C1586.81,-55.97 1549.65,-42.22 1517,-30 1515.41,-29.4 1513.78,-28.79 1512.13,-28.17"/>
<polygon fill="#63b8ff" stroke="#63b8ff" points="1513.28,-24.87 1502.69,-24.61 1510.81,-31.42 1513.28,-24.87"/>
</a>
</g>
</g>
<!-- Node32 -->
<g id="Node000032" class="node">
<title>Node32</title>
<g id="a_Node000032"><a xlink:title=" ">
<polygon fill="#e0e0e0" stroke="#999999" points="1570,-24.5 1526,-24.5 1526,-5.5 1570,-5.5 1570,-24.5"/>
<text text-anchor="middle" x="1548" y="-12.5" font-family="Helvetica,sans-Serif" font-size="10.00">string</text>
</a>
</g>
</g>
<!-- Node26&#45;&gt;Node32 -->
<g id="edge41_Node000026_Node000032" class="edge">
<title>Node26&#45;&gt;Node32</title>
<g id="a_edge41_Node000026_Node000032"><a xlink:title=" ">
<path fill="none" stroke="#63b8ff" d="M1629.18,-65.95C1611.82,-55.27 1588.06,-40.65 1570.73,-29.98"/>
<polygon fill="#63b8ff" stroke="#63b8ff" points="1572.19,-26.78 1561.84,-24.52 1568.52,-32.74 1572.19,-26.78"/>
</a>
</g>
</g>
<!-- Node33&#45;&gt;Node3 -->
<g id="edge43_Node000033_Node000003" class="edge">
<title>Node33&#45;&gt;Node3</title>
<g id="a_edge43_Node000033_Node000003"><a xlink:title=" ">
<path fill="none" stroke="#63b8ff" d="M1333.53,-65.95C1291.77,-54.34 1233.23,-38.05 1194.49,-27.27"/>
<polygon fill="#63b8ff" stroke="#63b8ff" points="1195.18,-23.83 1184.61,-24.52 1193.3,-30.57 1195.18,-23.83"/>
</a>
</g>
</g>
<!-- Node34 -->
<g id="Node000034" class="node">
<title>Node34</title>
<g id="a_Node000034"><a xlink:title=" ">
<polygon fill="#e0e0e0" stroke="#999999" points="1433.5,-30 1326.5,-30 1326.5,0 1433.5,0 1433.5,-30"/>
<text text-anchor="start" x="1334.5" y="-18" font-family="Helvetica,sans-Serif" font-size="10.00">deal.II/matrix_free</text>
<text text-anchor="middle" x="1380" y="-7" font-family="Helvetica,sans-Serif" font-size="10.00">/fe_evaluation.h</text>
</a>
</g>
</g>
<!-- Node33&#45;&gt;Node34 -->
<g id="edge44_Node000033_Node000034" class="edge">
<title>Node33&#45;&gt;Node34</title>
<g id="a_edge44_Node000033_Node000034"><a xlink:title=" ">
<path fill="none" stroke="#63b8ff" d="M1383.11,-65.8C1382.65,-58.34 1382.06,-48.99 1381.53,-40.41"/>
<polygon fill="#63b8ff" stroke="#63b8ff" points="1385,-39.93 1380.89,-30.16 1378.02,-40.36 1385,-39.93"/>
</a>
</g>
</g>
<!-- Node39 -->
<g id="Node000039" class="node">
<title>Node39</title>
<g id="a_Node000039"><a xlink:title=" ">
<polygon fill="#e0e0e0" stroke="#999999" points="1045,-96 915,-96 915,-66 1045,-66 1045,-96"/>
<text text-anchor="start" x="923" y="-84" font-family="Helvetica,sans-Serif" font-size="10.00">deal.II/base/conditional</text>
<text text-anchor="middle" x="980" y="-73" font-family="Helvetica,sans-Serif" font-size="10.00">_ostream.h</text>
</a>
</g>
</g>
<!-- Node38&#45;&gt;Node39 -->
<g id="edge49_Node000038_Node000039" class="edge">
<title>Node38&#45;&gt;Node39</title>
<g id="a_edge49_Node000038_Node000039"><a xlink:title=" ">
<path fill="none" stroke="#63b8ff" d="M1390.83,-133.32C1387.85,-132.86 1384.9,-132.42 1382,-132 1239.03,-111.39 1201.97,-116.61 1059,-96 1057.72,-95.82 1056.43,-95.63 1055.13,-95.43"/>
<polygon fill="#63b8ff" stroke="#63b8ff" points="1055.46,-91.94 1045.04,-93.87 1054.39,-98.86 1055.46,-91.94"/>
</a>
</g>
</g>
</g>
</svg>

<g id="navigator" transform="translate(0 0)" fill="#404254">
  <rect fill="#f2f5e9" fill-opacity="0.5" stroke="#606060" stroke-width=".5" x="0" y="0" width="60" height="60"/>
  <use id="zoomplus" xlink:href="#zoomPlus" x="17" y="9" onmousedown="handleZoom(evt,'in')"/>
  <use id="zoomminus" xlink:href="#zoomMin" x="42" y="9" onmousedown="handleZoom(evt,'out')"/>
  <use id="reset" xlink:href="#resetDef" x="30" y="36" onmousedown="handleReset()"/>
   <use id="arrowup" xlink:href="#arrowUp" x="0" y="0" onmousedown="handlePan(0,-1)"/>
  <use id="arrowright" xlink:href="#arrowRight" x="0" y="0" onmousedown="handlePan(1,0)"/>
  <use id="arrowdown" xlink:href="#arrowDown" x="0" y="0" onmousedown="handlePan(0,1)"/>
  <use id="arrowleft" xlink:href="#arrowLeft" x="0" y="0" onmousedown="handlePan(-1,0)"/>
</g>
<svg viewBox="0 0 15 15" width="100%" height="30px" preserveAspectRatio="xMaxYMin meet">
 <g id="arrow_out" transform="scale(0.3 0.3)">
  <a xlink:href="level__set__tools_8hpp__incl_org.svg" target="_base">
   <rect id="button" ry="5" rx="5" y="6" x="6" height="38" width="38"
        fill="#f2f5e9" fill-opacity="0.5" stroke="#606060" stroke-width="1.0"/>
   <path id="arrow"
     d="M 11.500037,31.436501 C 11.940474,20.09759 22.043105,11.32322 32.158766,21.979434 L 37.068811,17.246167 C 37.068811,17.246167 37.088388,32 37.088388,32 L 22.160133,31.978069 C 22.160133,31.978069 26.997745,27.140456 26.997745,27.140456 C 18.528582,18.264221 13.291696,25.230495 11.500037,31.436501 z"
     style="fill:#404040;"/>
  </a>
 </g>
</svg>

<style type='text/css'>
<![CDATA[
[data-mouse-over-selected='false'] { opacity: 0.7; }
[data-mouse-over-selected='true']  { opacity: 1.0; }
]]>
</style>
<script type="application/ecmascript"><![CDATA[
document.addEventListener('DOMContentLoaded', (event) => {
  highlightEdges();
  highlightAdjacentNodes();
});
]]></script>
</svg>
