<?xml version="1.0" encoding="UTF-8" standalone="no"?>
<!DOCTYPE svg PUBLIC "-//W3C//DTD SVG 1.1//EN"
 "http://www.w3.org/Graphics/SVG/1.1/DTD/svg11.dtd">
<!-- Generated by graphviz version 2.43.0 (0)
 -->
<!-- Title: include/meltpooldg/linear_algebra/linear_solver_data.hpp Pages: 1 -->
<svg width="689pt" height="181pt"
 viewBox="0.00 0.00 688.50 181.00" xmlns="http://www.w3.org/2000/svg" xmlns:xlink="http://www.w3.org/1999/xlink">
<g id="graph0" class="graph" transform="scale(1 1) rotate(0) translate(4 177)">
<title>include/meltpooldg/linear_algebra/linear_solver_data.hpp</title>
<!-- Node1 -->
<g id="Node000001" class="node">
<title>Node1</title>
<g id="a_Node000001"><a xlink:title=" ">
<polygon fill="#999999" stroke="#666666" points="472.5,-173 352.5,-173 352.5,-132 472.5,-132 472.5,-173"/>
<text text-anchor="start" x="360.5" y="-161" font-family="Helvetica,sans-Serif" font-size="10.00">include/meltpooldg</text>
<text text-anchor="start" x="360.5" y="-150" font-family="Helvetica,sans-Serif" font-size="10.00">/linear_algebra/linear</text>
<text text-anchor="middle" x="412.5" y="-139" font-family="Helvetica,sans-Serif" font-size="10.00">_solver_data.hpp</text>
</a>
</g>
</g>
<!-- Node2 -->
<g id="Node000002" class="node">
<title>Node2</title>
<g id="a_Node000002"><a xlink:href="enum_8hpp.html" target="_top" xlink:title=" ">
<polygon fill="white" stroke="#666666" points="468.5,-96 356.5,-96 356.5,-66 468.5,-66 468.5,-96"/>
<text text-anchor="start" x="364.5" y="-84" font-family="Helvetica,sans-Serif" font-size="10.00">meltpooldg/utilities</text>
<text text-anchor="middle" x="412.5" y="-73" font-family="Helvetica,sans-Serif" font-size="10.00">/enum.hpp</text>
</a>
</g>
</g>
<!-- Node1&#45;&gt;Node2 -->
<g id="edge1_Node000001_Node000002" class="edge">
<title>Node1&#45;&gt;Node2</title>
<g id="a_edge1_Node000001_Node000002"><a xlink:title=" ">
<path fill="none" stroke="#63b8ff" d="M412.5,-131.77C412.5,-123.85 412.5,-114.63 412.5,-106.3"/>
<polygon fill="#63b8ff" stroke="#63b8ff" points="416,-106.04 412.5,-96.04 409,-106.04 416,-106.04"/>
</a>
</g>
</g>
<!-- Node3 -->
<g id="Node000003" class="node">
<title>Node3</title>
<g id="a_Node000003"><a xlink:title=" ">
<polygon fill="#e0e0e0" stroke="#999999" points="127,-30 0,-30 0,0 127,0 127,-30"/>
<text text-anchor="start" x="8" y="-18" font-family="Helvetica,sans-Serif" font-size="10.00">deal.II/base/parameter</text>
<text text-anchor="middle" x="63.5" y="-7" font-family="Helvetica,sans-Serif" font-size="10.00">_handler.h</text>
</a>
</g>
</g>
<!-- Node2&#45;&gt;Node3 -->
<g id="edge2_Node000002_Node000003" class="edge">
<title>Node2&#45;&gt;Node3</title>
<g id="a_edge2_Node000002_Node000003"><a xlink:title=" ">
<path fill="none" stroke="#63b8ff" d="M356.49,-70.12C302.69,-60.57 218.85,-45.57 137.06,-30.28"/>
<polygon fill="#63b8ff" stroke="#63b8ff" points="137.57,-26.81 127.09,-28.41 136.28,-33.69 137.57,-26.81"/>
</a>
</g>
</g>
<!-- Node4 -->
<g id="Node000004" class="node">
<title>Node4</title>
<g id="a_Node000004"><a xlink:title=" ">
<polygon fill="#e0e0e0" stroke="#999999" points="270,-24.5 145,-24.5 145,-5.5 270,-5.5 270,-24.5"/>
<text text-anchor="middle" x="207.5" y="-12.5" font-family="Helvetica,sans-Serif" font-size="10.00">deal.II/base/patterns.h</text>
</a>
</g>
</g>
<!-- Node2&#45;&gt;Node4 -->
<g id="edge3_Node000002_Node000004" class="edge">
<title>Node2&#45;&gt;Node4</title>
<g id="a_edge3_Node000002_Node000004"><a xlink:title=" ">
<path fill="none" stroke="#63b8ff" d="M367.51,-65.95C330.61,-54.43 279,-38.32 244.48,-27.54"/>
<polygon fill="#63b8ff" stroke="#63b8ff" points="245.37,-24.16 234.78,-24.52 243.28,-30.84 245.37,-24.16"/>
</a>
</g>
</g>
<!-- Node5 -->
<g id="Node000005" class="node">
<title>Node5</title>
<g id="a_Node000005"><a xlink:title=" ">
<polygon fill="#e0e0e0" stroke="#999999" points="400.5,-30 288.5,-30 288.5,0 400.5,0 400.5,-30"/>
<text text-anchor="start" x="296.5" y="-18" font-family="Helvetica,sans-Serif" font-size="10.00">meltpooldg/utilities</text>
<text text-anchor="middle" x="344.5" y="-7" font-family="Helvetica,sans-Serif" font-size="10.00">/better_enum.hpp</text>
</a>
</g>
</g>
<!-- Node2&#45;&gt;Node5 -->
<g id="edge4_Node000002_Node000005" class="edge">
<title>Node2&#45;&gt;Node5</title>
<g id="a_edge4_Node000002_Node000005"><a xlink:title=" ">
<path fill="none" stroke="#63b8ff" d="M397.41,-65.8C388.43,-57.34 376.87,-46.46 366.85,-37.03"/>
<polygon fill="#63b8ff" stroke="#63b8ff" points="369.23,-34.47 359.55,-30.16 364.43,-39.57 369.23,-34.47"/>
</a>
</g>
</g>
<!-- Node6 -->
<g id="Node000006" class="node">
<title>Node6</title>
<g id="a_Node000006"><a xlink:title=" ">
<polygon fill="#e0e0e0" stroke="#999999" points="544,-30 419,-30 419,0 544,0 544,-30"/>
<text text-anchor="start" x="427" y="-18" font-family="Helvetica,sans-Serif" font-size="10.00">boost/algorithm/string</text>
<text text-anchor="middle" x="481.5" y="-7" font-family="Helvetica,sans-Serif" font-size="10.00">/join.hpp</text>
</a>
</g>
</g>
<!-- Node2&#45;&gt;Node6 -->
<g id="edge5_Node000002_Node000006" class="edge">
<title>Node2&#45;&gt;Node6</title>
<g id="a_edge5_Node000002_Node000006"><a xlink:title=" ">
<path fill="none" stroke="#63b8ff" d="M427.81,-65.8C436.93,-57.34 448.66,-46.46 458.83,-37.03"/>
<polygon fill="#63b8ff" stroke="#63b8ff" points="461.28,-39.53 466.23,-30.16 456.52,-34.4 461.28,-39.53"/>
</a>
</g>
</g>
<!-- Node7 -->
<g id="Node000007" class="node">
<title>Node7</title>
<g id="a_Node000007"><a xlink:title=" ">
<polygon fill="#e0e0e0" stroke="#999999" points="618.5,-24.5 562.5,-24.5 562.5,-5.5 618.5,-5.5 618.5,-24.5"/>
<text text-anchor="middle" x="590.5" y="-12.5" font-family="Helvetica,sans-Serif" font-size="10.00">sstream</text>
</a>
</g>
</g>
<!-- Node2&#45;&gt;Node7 -->
<g id="edge6_Node000002_Node000007" class="edge">
<title>Node2&#45;&gt;Node7</title>
<g id="a_edge6_Node000002_Node000007"><a xlink:title=" ">
<path fill="none" stroke="#63b8ff" d="M452.69,-66C480.95,-56.1 519.6,-42.42 553.5,-30 555.14,-29.4 556.82,-28.78 558.52,-28.15"/>
<polygon fill="#63b8ff" stroke="#63b8ff" points="560.09,-31.3 568.22,-24.52 557.63,-24.74 560.09,-31.3"/>
</a>
</g>
</g>
<!-- Node8 -->
<g id="Node000008" class="node">
<title>Node8</title>
<g id="a_Node000008"><a xlink:title=" ">
<polygon fill="#e0e0e0" stroke="#999999" points="680.5,-24.5 636.5,-24.5 636.5,-5.5 680.5,-5.5 680.5,-24.5"/>
<text text-anchor="middle" x="658.5" y="-12.5" font-family="Helvetica,sans-Serif" font-size="10.00">string</text>
</a>
</g>
</g>
<!-- Node2&#45;&gt;Node8 -->
<g id="edge7_Node000002_Node000008" class="edge">
<title>Node2&#45;&gt;Node8</title>
<g id="a_edge7_Node000002_Node000008"><a xlink:title=" ">
<path fill="none" stroke="#63b8ff" d="M468.57,-70.09C512.45,-61.58 574.68,-47.88 627.5,-30 628.9,-29.53 630.32,-29.01 631.75,-28.47"/>
<polygon fill="#63b8ff" stroke="#63b8ff" points="633.15,-31.68 641.04,-24.61 630.46,-25.21 633.15,-31.68"/>
</a>
</g>
</g>
</g>
</svg>
