<?xml version="1.0" encoding="UTF-8" standalone="no"?>
<!DOCTYPE svg PUBLIC "-//W3C//DTD SVG 1.1//EN"
 "http://www.w3.org/Graphics/SVG/1.1/DTD/svg11.dtd">
<!-- Generated by graphviz version 2.43.0 (0)
 -->
<!-- Title: include/meltpooldg/linear_algebra/linear_solver.hpp Pages: 1 -->
<svg width="1313pt" height="247pt"
 viewBox="0.00 0.00 1312.50 247.00" xmlns="http://www.w3.org/2000/svg" xmlns:xlink="http://www.w3.org/1999/xlink">
<g id="graph0" class="graph" transform="scale(1 1) rotate(0) translate(4 243)">
<title>include/meltpooldg/linear_algebra/linear_solver.hpp</title>
<!-- Node1 -->
<g id="Node000001" class="node">
<title>Node1</title>
<g id="a_Node000001"><a xlink:title=" ">
<polygon fill="#999999" stroke="#666666" points="638.5,-239 518.5,-239 518.5,-198 638.5,-198 638.5,-239"/>
<text text-anchor="start" x="526.5" y="-227" font-family="Helvetica,sans-Serif" font-size="10.00">include/meltpooldg</text>
<text text-anchor="start" x="526.5" y="-216" font-family="Helvetica,sans-Serif" font-size="10.00">/linear_algebra/linear</text>
<text text-anchor="middle" x="578.5" y="-205" font-family="Helvetica,sans-Serif" font-size="10.00">_solver.hpp</text>
</a>
</g>
</g>
<!-- Node2 -->
<g id="Node000002" class="node">
<title>Node2</title>
<g id="a_Node000002"><a xlink:title=" ">
<polygon fill="#e0e0e0" stroke="#999999" points="137,-156.5 0,-156.5 0,-137.5 137,-137.5 137,-156.5"/>
<text text-anchor="middle" x="68.5" y="-144.5" font-family="Helvetica,sans-Serif" font-size="10.00">deal.II/lac/precondition.h</text>
</a>
</g>
</g>
<!-- Node1&#45;&gt;Node2 -->
<g id="edge1_Node000001_Node000002" class="edge">
<title>Node1&#45;&gt;Node2</title>
<g id="a_edge1_Node000001_Node000002"><a xlink:title=" ">
<path fill="none" stroke="#63b8ff" d="M518.47,-210.81C434.75,-201.26 278.25,-182.56 145.5,-162 138.3,-160.88 130.74,-159.62 123.28,-158.32"/>
<polygon fill="#63b8ff" stroke="#63b8ff" points="123.68,-154.84 113.22,-156.54 122.46,-161.73 123.68,-154.84"/>
</a>
</g>
</g>
<!-- Node3 -->
<g id="Node000003" class="node">
<title>Node3</title>
<g id="a_Node000003"><a xlink:title=" ">
<polygon fill="#e0e0e0" stroke="#999999" points="256,-162 155,-162 155,-132 256,-132 256,-162"/>
<text text-anchor="start" x="163" y="-150" font-family="Helvetica,sans-Serif" font-size="10.00">deal.II/lac/trilinos</text>
<text text-anchor="middle" x="205.5" y="-139" font-family="Helvetica,sans-Serif" font-size="10.00">_sparse_matrix.h</text>
</a>
</g>
</g>
<!-- Node1&#45;&gt;Node3 -->
<g id="edge2_Node000001_Node000003" class="edge">
<title>Node1&#45;&gt;Node3</title>
<g id="a_edge2_Node000001_Node000003"><a xlink:title=" ">
<path fill="none" stroke="#63b8ff" d="M518.4,-207.94C457.22,-197.97 359.43,-181.38 266.19,-162.29"/>
<polygon fill="#63b8ff" stroke="#63b8ff" points="266.81,-158.84 256.31,-160.25 265.4,-165.7 266.81,-158.84"/>
</a>
</g>
</g>
<!-- Node4 -->
<g id="Node000004" class="node">
<title>Node4</title>
<g id="a_Node000004"><a xlink:title=" ">
<polygon fill="#e0e0e0" stroke="#999999" points="371,-162 274,-162 274,-132 371,-132 371,-162"/>
<text text-anchor="start" x="282" y="-150" font-family="Helvetica,sans-Serif" font-size="10.00">deal.II/lac/solver</text>
<text text-anchor="middle" x="322.5" y="-139" font-family="Helvetica,sans-Serif" font-size="10.00">_bicgstab.h</text>
</a>
</g>
</g>
<!-- Node1&#45;&gt;Node4 -->
<g id="edge3_Node000001_Node000004" class="edge">
<title>Node1&#45;&gt;Node4</title>
<g id="a_edge3_Node000001_Node000004"><a xlink:title=" ">
<path fill="none" stroke="#63b8ff" d="M518.48,-201.21C476.97,-189.94 422.04,-175.02 380.89,-163.85"/>
<polygon fill="#63b8ff" stroke="#63b8ff" points="381.58,-160.41 371.01,-161.17 379.74,-167.17 381.58,-160.41"/>
</a>
</g>
</g>
<!-- Node5 -->
<g id="Node000005" class="node">
<title>Node5</title>
<g id="a_Node000005"><a xlink:title=" ">
<polygon fill="#e0e0e0" stroke="#999999" points="511.5,-156.5 389.5,-156.5 389.5,-137.5 511.5,-137.5 511.5,-156.5"/>
<text text-anchor="middle" x="450.5" y="-144.5" font-family="Helvetica,sans-Serif" font-size="10.00">deal.II/lac/solver_cg.h</text>
</a>
</g>
</g>
<!-- Node1&#45;&gt;Node5 -->
<g id="edge4_Node000001_Node000005" class="edge">
<title>Node1&#45;&gt;Node5</title>
<g id="a_edge4_Node000001_Node000005"><a xlink:title=" ">
<path fill="none" stroke="#63b8ff" d="M542.5,-197.96C521,-186.28 494.23,-171.75 475.13,-161.37"/>
<polygon fill="#63b8ff" stroke="#63b8ff" points="476.62,-158.2 466.16,-156.5 473.28,-164.35 476.62,-158.2"/>
</a>
</g>
</g>
<!-- Node6 -->
<g id="Node000006" class="node">
<title>Node6</title>
<g id="a_Node000006"><a xlink:title=" ">
<polygon fill="#e0e0e0" stroke="#999999" points="627,-162 530,-162 530,-132 627,-132 627,-162"/>
<text text-anchor="start" x="538" y="-150" font-family="Helvetica,sans-Serif" font-size="10.00">deal.II/lac/solver</text>
<text text-anchor="middle" x="578.5" y="-139" font-family="Helvetica,sans-Serif" font-size="10.00">_gmres.h</text>
</a>
</g>
</g>
<!-- Node1&#45;&gt;Node6 -->
<g id="edge5_Node000001_Node000006" class="edge">
<title>Node1&#45;&gt;Node6</title>
<g id="a_edge5_Node000001_Node000006"><a xlink:title=" ">
<path fill="none" stroke="#63b8ff" d="M578.5,-197.77C578.5,-189.85 578.5,-180.63 578.5,-172.3"/>
<polygon fill="#63b8ff" stroke="#63b8ff" points="582,-172.04 578.5,-162.04 575,-172.04 582,-172.04"/>
</a>
</g>
</g>
<!-- Node7 -->
<g id="Node000007" class="node">
<title>Node7</title>
<g id="a_Node000007"><a xlink:title=" ">
<polygon fill="#e0e0e0" stroke="#999999" points="748,-162 645,-162 645,-132 748,-132 748,-162"/>
<text text-anchor="start" x="653" y="-150" font-family="Helvetica,sans-Serif" font-size="10.00">deal.II/base/index</text>
<text text-anchor="middle" x="696.5" y="-139" font-family="Helvetica,sans-Serif" font-size="10.00">_set.h</text>
</a>
</g>
</g>
<!-- Node1&#45;&gt;Node7 -->
<g id="edge6_Node000001_Node000007" class="edge">
<title>Node1&#45;&gt;Node7</title>
<g id="a_edge6_Node000001_Node000007"><a xlink:title=" ">
<path fill="none" stroke="#63b8ff" d="M611.68,-197.96C628.02,-188.33 647.64,-176.78 663.9,-167.2"/>
<polygon fill="#63b8ff" stroke="#63b8ff" points="665.7,-170.2 672.54,-162.11 662.15,-164.17 665.7,-170.2"/>
</a>
</g>
</g>
<!-- Node8 -->
<g id="Node000008" class="node">
<title>Node8</title>
<g id="a_Node000008"><a xlink:title=" ">
<polygon fill="#e0e0e0" stroke="#999999" points="870.5,-156.5 766.5,-156.5 766.5,-137.5 870.5,-137.5 870.5,-156.5"/>
<text text-anchor="middle" x="818.5" y="-144.5" font-family="Helvetica,sans-Serif" font-size="10.00">deal.II/base/mpi.h</text>
</a>
</g>
</g>
<!-- Node1&#45;&gt;Node8 -->
<g id="edge7_Node000001_Node000008" class="edge">
<title>Node1&#45;&gt;Node8</title>
<g id="a_edge7_Node000001_Node000008"><a xlink:title=" ">
<path fill="none" stroke="#63b8ff" d="M638.75,-200.05C682.73,-187.32 741.07,-170.42 779.19,-159.38"/>
<polygon fill="#63b8ff" stroke="#63b8ff" points="780.26,-162.72 788.9,-156.57 778.32,-155.99 780.26,-162.72"/>
</a>
</g>
</g>
<!-- Node9 -->
<g id="Node000009" class="node">
<title>Node9</title>
<g id="a_Node000009"><a xlink:href="linear__solver__data_8hpp.html" target="_top" xlink:title=" ">
<polygon fill="white" stroke="#666666" points="1034,-162 889,-162 889,-132 1034,-132 1034,-162"/>
<text text-anchor="start" x="897" y="-150" font-family="Helvetica,sans-Serif" font-size="10.00">meltpooldg/linear_algebra</text>
<text text-anchor="middle" x="961.5" y="-139" font-family="Helvetica,sans-Serif" font-size="10.00">/linear_solver_data.hpp</text>
</a>
</g>
</g>
<!-- Node1&#45;&gt;Node9 -->
<g id="edge8_Node000001_Node000009" class="edge">
<title>Node1&#45;&gt;Node9</title>
<g id="a_edge8_Node000001_Node000009"><a xlink:title=" ">
<path fill="none" stroke="#63b8ff" d="M638.77,-206.56C703.45,-194.83 806.63,-176.1 878.86,-163"/>
<polygon fill="#63b8ff" stroke="#63b8ff" points="879.63,-166.41 888.84,-161.19 878.38,-159.53 879.63,-166.41"/>
</a>
</g>
</g>
<!-- Node17 -->
<g id="Node000017" class="node">
<title>Node17</title>
<g id="a_Node000017"><a xlink:href="journal_8hpp.html" target="_top" xlink:title=" ">
<polygon fill="white" stroke="#666666" points="1223.5,-162 1111.5,-162 1111.5,-132 1223.5,-132 1223.5,-162"/>
<text text-anchor="start" x="1119.5" y="-150" font-family="Helvetica,sans-Serif" font-size="10.00">meltpooldg/utilities</text>
<text text-anchor="middle" x="1167.5" y="-139" font-family="Helvetica,sans-Serif" font-size="10.00">/journal.hpp</text>
</a>
</g>
</g>
<!-- Node1&#45;&gt;Node17 -->
<g id="edge16_Node000001_Node000017" class="edge">
<title>Node1&#45;&gt;Node17</title>
<g id="a_edge16_Node000001_Node000017"><a xlink:title=" ">
<path fill="none" stroke="#63b8ff" d="M638.77,-210.39C749.76,-197.29 985.68,-169.45 1101.11,-155.83"/>
<polygon fill="#63b8ff" stroke="#63b8ff" points="1101.7,-159.29 1111.22,-154.64 1100.88,-152.34 1101.7,-159.29"/>
</a>
</g>
</g>
<!-- Node10 -->
<g id="Node000010" class="node">
<title>Node10</title>
<g id="a_Node000010"><a xlink:href="enum_8hpp.html" target="_top" xlink:title=" ">
<polygon fill="white" stroke="#666666" points="987.5,-96 875.5,-96 875.5,-66 987.5,-66 987.5,-96"/>
<text text-anchor="start" x="883.5" y="-84" font-family="Helvetica,sans-Serif" font-size="10.00">meltpooldg/utilities</text>
<text text-anchor="middle" x="931.5" y="-73" font-family="Helvetica,sans-Serif" font-size="10.00">/enum.hpp</text>
</a>
</g>
</g>
<!-- Node9&#45;&gt;Node10 -->
<g id="edge9_Node000009_Node000010" class="edge">
<title>Node9&#45;&gt;Node10</title>
<g id="a_edge9_Node000009_Node000010"><a xlink:title=" ">
<path fill="none" stroke="#63b8ff" d="M954.84,-131.8C951.19,-124.01 946.57,-114.16 942.41,-105.28"/>
<polygon fill="#63b8ff" stroke="#63b8ff" points="945.55,-103.73 938.14,-96.16 939.21,-106.7 945.55,-103.73"/>
</a>
</g>
</g>
<!-- Node11 -->
<g id="Node000011" class="node">
<title>Node11</title>
<g id="a_Node000011"><a xlink:title=" ">
<polygon fill="#e0e0e0" stroke="#999999" points="577,-30 450,-30 450,0 577,0 577,-30"/>
<text text-anchor="start" x="458" y="-18" font-family="Helvetica,sans-Serif" font-size="10.00">deal.II/base/parameter</text>
<text text-anchor="middle" x="513.5" y="-7" font-family="Helvetica,sans-Serif" font-size="10.00">_handler.h</text>
</a>
</g>
</g>
<!-- Node10&#45;&gt;Node11 -->
<g id="edge10_Node000010_Node000011" class="edge">
<title>Node10&#45;&gt;Node11</title>
<g id="a_edge10_Node000010_Node000011"><a xlink:title=" ">
<path fill="none" stroke="#63b8ff" d="M875.34,-72.74C808.85,-63.95 694.56,-48.24 587.11,-30.23"/>
<polygon fill="#63b8ff" stroke="#63b8ff" points="587.52,-26.75 577.07,-28.53 586.35,-33.65 587.52,-26.75"/>
</a>
</g>
</g>
<!-- Node12 -->
<g id="Node000012" class="node">
<title>Node12</title>
<g id="a_Node000012"><a xlink:title=" ">
<polygon fill="#e0e0e0" stroke="#999999" points="720,-24.5 595,-24.5 595,-5.5 720,-5.5 720,-24.5"/>
<text text-anchor="middle" x="657.5" y="-12.5" font-family="Helvetica,sans-Serif" font-size="10.00">deal.II/base/patterns.h</text>
</a>
</g>
</g>
<!-- Node10&#45;&gt;Node12 -->
<g id="edge11_Node000010_Node000012" class="edge">
<title>Node10&#45;&gt;Node12</title>
<g id="a_edge11_Node000010_Node000012"><a xlink:title=" ">
<path fill="none" stroke="#63b8ff" d="M875.39,-66.89C824.92,-55.11 751.63,-37.99 704.27,-26.92"/>
<polygon fill="#63b8ff" stroke="#63b8ff" points="704.81,-23.46 694.28,-24.59 703.22,-30.27 704.81,-23.46"/>
</a>
</g>
</g>
<!-- Node13 -->
<g id="Node000013" class="node">
<title>Node13</title>
<g id="a_Node000013"><a xlink:title=" ">
<polygon fill="#e0e0e0" stroke="#999999" points="850.5,-30 738.5,-30 738.5,0 850.5,0 850.5,-30"/>
<text text-anchor="start" x="746.5" y="-18" font-family="Helvetica,sans-Serif" font-size="10.00">meltpooldg/utilities</text>
<text text-anchor="middle" x="794.5" y="-7" font-family="Helvetica,sans-Serif" font-size="10.00">/better_enum.hpp</text>
</a>
</g>
</g>
<!-- Node10&#45;&gt;Node13 -->
<g id="edge12_Node000010_Node000013" class="edge">
<title>Node10&#45;&gt;Node13</title>
<g id="a_edge12_Node000010_Node000013"><a xlink:title=" ">
<path fill="none" stroke="#63b8ff" d="M901.43,-65.95C881.54,-56.66 855.24,-44.38 833.71,-34.32"/>
<polygon fill="#63b8ff" stroke="#63b8ff" points="835.04,-31.07 824.5,-30.01 832.07,-37.42 835.04,-31.07"/>
</a>
</g>
</g>
<!-- Node14 -->
<g id="Node000014" class="node">
<title>Node14</title>
<g id="a_Node000014"><a xlink:title=" ">
<polygon fill="#e0e0e0" stroke="#999999" points="994,-30 869,-30 869,0 994,0 994,-30"/>
<text text-anchor="start" x="877" y="-18" font-family="Helvetica,sans-Serif" font-size="10.00">boost/algorithm/string</text>
<text text-anchor="middle" x="931.5" y="-7" font-family="Helvetica,sans-Serif" font-size="10.00">/join.hpp</text>
</a>
</g>
</g>
<!-- Node10&#45;&gt;Node14 -->
<g id="edge13_Node000010_Node000014" class="edge">
<title>Node10&#45;&gt;Node14</title>
<g id="a_edge13_Node000010_Node000014"><a xlink:title=" ">
<path fill="none" stroke="#63b8ff" d="M931.5,-65.8C931.5,-58.34 931.5,-48.99 931.5,-40.41"/>
<polygon fill="#63b8ff" stroke="#63b8ff" points="935,-40.16 931.5,-30.16 928,-40.16 935,-40.16"/>
</a>
</g>
</g>
<!-- Node15 -->
<g id="Node000015" class="node">
<title>Node15</title>
<g id="a_Node000015"><a xlink:title=" ">
<polygon fill="#e0e0e0" stroke="#999999" points="1068.5,-24.5 1012.5,-24.5 1012.5,-5.5 1068.5,-5.5 1068.5,-24.5"/>
<text text-anchor="middle" x="1040.5" y="-12.5" font-family="Helvetica,sans-Serif" font-size="10.00">sstream</text>
</a>
</g>
</g>
<!-- Node10&#45;&gt;Node15 -->
<g id="edge14_Node000010_Node000015" class="edge">
<title>Node10&#45;&gt;Node15</title>
<g id="a_edge14_Node000010_Node000015"><a xlink:title=" ">
<path fill="none" stroke="#63b8ff" d="M955.42,-65.95C973.78,-55.18 998.98,-40.38 1017.19,-29.69"/>
<polygon fill="#63b8ff" stroke="#63b8ff" points="1019.14,-32.6 1025.99,-24.52 1015.6,-26.56 1019.14,-32.6"/>
</a>
</g>
</g>
<!-- Node16 -->
<g id="Node000016" class="node">
<title>Node16</title>
<g id="a_Node000016"><a xlink:title=" ">
<polygon fill="#e0e0e0" stroke="#999999" points="1130.5,-24.5 1086.5,-24.5 1086.5,-5.5 1130.5,-5.5 1130.5,-24.5"/>
<text text-anchor="middle" x="1108.5" y="-12.5" font-family="Helvetica,sans-Serif" font-size="10.00">string</text>
</a>
</g>
</g>
<!-- Node10&#45;&gt;Node16 -->
<g id="edge15_Node000010_Node000016" class="edge">
<title>Node10&#45;&gt;Node16</title>
<g id="a_edge15_Node000010_Node000016"><a xlink:title=" ">
<path fill="none" stroke="#63b8ff" d="M975.98,-65.97C1005.11,-56.49 1043.87,-43.32 1077.5,-30 1078.67,-29.54 1079.87,-29.05 1081.07,-28.55"/>
<polygon fill="#63b8ff" stroke="#63b8ff" points="1082.47,-31.76 1090.26,-24.58 1079.7,-25.33 1082.47,-31.76"/>
</a>
</g>
</g>
<!-- Node18 -->
<g id="Node000018" class="node">
<title>Node18</title>
<g id="a_Node000018"><a xlink:href="conditional__ostream_8hpp.html" target="_top" xlink:title=" ">
<polygon fill="white" stroke="#666666" points="1146.5,-96 1006.5,-96 1006.5,-66 1146.5,-66 1146.5,-96"/>
<text text-anchor="start" x="1014.5" y="-84" font-family="Helvetica,sans-Serif" font-size="10.00">meltpooldg/utilities</text>
<text text-anchor="middle" x="1076.5" y="-73" font-family="Helvetica,sans-Serif" font-size="10.00">/conditional_ostream.hpp</text>
</a>
</g>
</g>
<!-- Node17&#45;&gt;Node18 -->
<g id="edge17_Node000017_Node000018" class="edge">
<title>Node17&#45;&gt;Node18</title>
<g id="a_edge17_Node000017_Node000018"><a xlink:title=" ">
<path fill="none" stroke="#63b8ff" d="M1147.3,-131.8C1134.82,-123.01 1118.6,-111.61 1104.84,-101.93"/>
<polygon fill="#63b8ff" stroke="#63b8ff" points="1106.83,-99.05 1096.64,-96.16 1102.81,-104.78 1106.83,-99.05"/>
</a>
</g>
</g>
<!-- Node20 -->
<g id="Node000020" class="node">
<title>Node20</title>
<g id="a_Node000020"><a xlink:title=" ">
<polygon fill="#e0e0e0" stroke="#999999" points="1230,-90.5 1165,-90.5 1165,-71.5 1230,-71.5 1230,-90.5"/>
<text text-anchor="middle" x="1197.5" y="-78.5" font-family="Helvetica,sans-Serif" font-size="10.00">functional</text>
</a>
</g>
</g>
<!-- Node17&#45;&gt;Node20 -->
<g id="edge19_Node000017_Node000020" class="edge">
<title>Node17&#45;&gt;Node20</title>
<g id="a_edge19_Node000017_Node000020"><a xlink:title=" ">
<path fill="none" stroke="#63b8ff" d="M1174.16,-131.8C1178.56,-122.41 1184.37,-110.02 1189.09,-99.95"/>
<polygon fill="#63b8ff" stroke="#63b8ff" points="1192.28,-101.38 1193.35,-90.84 1185.94,-98.41 1192.28,-101.38"/>
</a>
</g>
</g>
<!-- Node21 -->
<g id="Node000021" class="node">
<title>Node21</title>
<g id="a_Node000021"><a xlink:title=" ">
<polygon fill="#e0e0e0" stroke="#999999" points="1304.5,-90.5 1248.5,-90.5 1248.5,-71.5 1304.5,-71.5 1304.5,-90.5"/>
<text text-anchor="middle" x="1276.5" y="-78.5" font-family="Helvetica,sans-Serif" font-size="10.00">iomanip</text>
</a>
</g>
</g>
<!-- Node17&#45;&gt;Node21 -->
<g id="edge20_Node000017_Node000021" class="edge">
<title>Node17&#45;&gt;Node21</title>
<g id="a_edge20_Node000017_Node000021"><a xlink:title=" ">
<path fill="none" stroke="#63b8ff" d="M1191.42,-131.95C1209.78,-121.18 1234.98,-106.38 1253.19,-95.69"/>
<polygon fill="#63b8ff" stroke="#63b8ff" points="1255.14,-98.6 1261.99,-90.52 1251.6,-92.56 1255.14,-98.6"/>
</a>
</g>
</g>
<!-- Node19 -->
<g id="Node000019" class="node">
<title>Node19</title>
<g id="a_Node000019"><a xlink:title=" ">
<polygon fill="#e0e0e0" stroke="#999999" points="1278.5,-30 1148.5,-30 1148.5,0 1278.5,0 1278.5,-30"/>
<text text-anchor="start" x="1156.5" y="-18" font-family="Helvetica,sans-Serif" font-size="10.00">deal.II/base/conditional</text>
<text text-anchor="middle" x="1213.5" y="-7" font-family="Helvetica,sans-Serif" font-size="10.00">_ostream.h</text>
</a>
</g>
</g>
<!-- Node18&#45;&gt;Node19 -->
<g id="edge18_Node000018_Node000019" class="edge">
<title>Node18&#45;&gt;Node19</title>
<g id="a_edge18_Node000018_Node000019"><a xlink:title=" ">
<path fill="none" stroke="#63b8ff" d="M1106.57,-65.95C1126.46,-56.66 1152.76,-44.38 1174.29,-34.32"/>
<polygon fill="#63b8ff" stroke="#63b8ff" points="1175.93,-37.42 1183.5,-30.01 1172.96,-31.07 1175.93,-37.42"/>
</a>
</g>
</g>
</g>
</svg>
