<?xml version="1.0" encoding="UTF-8" standalone="no"?>
<!DOCTYPE svg PUBLIC "-//W3C//DTD SVG 1.1//EN"
 "http://www.w3.org/Graphics/SVG/1.1/DTD/svg11.dtd">
<!-- Generated by graphviz version 2.43.0 (0)
 -->
<!-- Title: include/meltpooldg/utilities/matrix_free_util.hpp Pages: 1 -->
<svg width="870pt" height="181pt"
 viewBox="0.00 0.00 870.00 181.00" xmlns="http://www.w3.org/2000/svg" xmlns:xlink="http://www.w3.org/1999/xlink">
<g id="graph0" class="graph" transform="scale(1 1) rotate(0) translate(4 177)">
<title>include/meltpooldg/utilities/matrix_free_util.hpp</title>
<!-- Node1 -->
<g id="Node000001" class="node">
<title>Node1</title>
<g id="a_Node000001"><a xlink:title=" ">
<polygon fill="#999999" stroke="#666666" points="504.5,-173 388.5,-173 388.5,-132 504.5,-132 504.5,-173"/>
<text text-anchor="start" x="396.5" y="-161" font-family="Helvetica,sans-Serif" font-size="10.00">include/meltpooldg</text>
<text text-anchor="start" x="396.5" y="-150" font-family="Helvetica,sans-Serif" font-size="10.00">/utilities/matrix_free</text>
<text text-anchor="middle" x="446.5" y="-139" font-family="Helvetica,sans-Serif" font-size="10.00">_util.hpp</text>
</a>
</g>
</g>
<!-- Node2 -->
<g id="Node000002" class="node">
<title>Node2</title>
<g id="a_Node000002"><a xlink:title=" ">
<polygon fill="#e0e0e0" stroke="#999999" points="115,-90.5 0,-90.5 0,-71.5 115,-71.5 115,-90.5"/>
<text text-anchor="middle" x="57.5" y="-78.5" font-family="Helvetica,sans-Serif" font-size="10.00">deal.II/base/tensor.h</text>
</a>
</g>
</g>
<!-- Node1&#45;&gt;Node2 -->
<g id="edge1_Node000001_Node000002" class="edge">
<title>Node1&#45;&gt;Node2</title>
<g id="a_edge1_Node000001_Node000002"><a xlink:title=" ">
<path fill="none" stroke="#63b8ff" d="M388.22,-142.09C323.63,-131.51 216.44,-113.52 124.5,-96 118.82,-94.92 112.87,-93.74 106.97,-92.54"/>
<polygon fill="#63b8ff" stroke="#63b8ff" points="107.63,-89.11 97.13,-90.52 106.23,-95.96 107.63,-89.11"/>
</a>
</g>
</g>
<!-- Node3 -->
<g id="Node000003" class="node">
<title>Node3</title>
<g id="a_Node000003"><a xlink:title=" ">
<polygon fill="#e0e0e0" stroke="#999999" points="261.5,-90.5 133.5,-90.5 133.5,-71.5 261.5,-71.5 261.5,-90.5"/>
<text text-anchor="middle" x="197.5" y="-78.5" font-family="Helvetica,sans-Serif" font-size="10.00">deal.II/grid/grid_tools.h</text>
</a>
</g>
</g>
<!-- Node1&#45;&gt;Node3 -->
<g id="edge2_Node000001_Node000003" class="edge">
<title>Node1&#45;&gt;Node3</title>
<g id="a_edge2_Node000001_Node000003"><a xlink:title=" ">
<path fill="none" stroke="#63b8ff" d="M388.43,-135.29C342.2,-122.39 278.68,-104.66 237.85,-93.26"/>
<polygon fill="#63b8ff" stroke="#63b8ff" points="238.56,-89.83 227.98,-90.51 236.67,-96.57 238.56,-89.83"/>
</a>
</g>
</g>
<!-- Node4 -->
<g id="Node000004" class="node">
<title>Node4</title>
<g id="a_Node000004"><a xlink:title=" ">
<polygon fill="#e0e0e0" stroke="#999999" points="377,-90.5 280,-90.5 280,-71.5 377,-71.5 377,-90.5"/>
<text text-anchor="middle" x="328.5" y="-78.5" font-family="Helvetica,sans-Serif" font-size="10.00">deal.II/grid/tria.h</text>
</a>
</g>
</g>
<!-- Node1&#45;&gt;Node4 -->
<g id="edge3_Node000001_Node000004" class="edge">
<title>Node1&#45;&gt;Node4</title>
<g id="a_edge3_Node000001_Node000004"><a xlink:title=" ">
<path fill="none" stroke="#63b8ff" d="M413.32,-131.96C393.76,-120.44 369.49,-106.14 351.93,-95.8"/>
<polygon fill="#63b8ff" stroke="#63b8ff" points="353.33,-92.56 342.94,-90.5 349.78,-98.59 353.33,-92.56"/>
</a>
</g>
</g>
<!-- Node5 -->
<g id="Node000005" class="node">
<title>Node5</title>
<g id="a_Node000005"><a xlink:title=" ">
<polygon fill="#e0e0e0" stroke="#999999" points="554,-30 447,-30 447,0 554,0 554,-30"/>
<text text-anchor="start" x="455" y="-18" font-family="Helvetica,sans-Serif" font-size="10.00">deal.II/matrix_free</text>
<text text-anchor="middle" x="500.5" y="-7" font-family="Helvetica,sans-Serif" font-size="10.00">/fe_evaluation.h</text>
</a>
</g>
</g>
<!-- Node1&#45;&gt;Node5 -->
<g id="edge4_Node000001_Node000005" class="edge">
<title>Node1&#45;&gt;Node5</title>
<g id="a_edge4_Node000001_Node000005"><a xlink:title=" ">
<path fill="none" stroke="#63b8ff" d="M433.66,-131.84C423.67,-113.84 413.23,-86.91 424.5,-66 431.5,-53.02 443.49,-42.86 455.92,-35.19"/>
<polygon fill="#63b8ff" stroke="#63b8ff" points="458.01,-38.02 464.97,-30.04 454.55,-31.94 458.01,-38.02"/>
</a>
</g>
</g>
<!-- Node6 -->
<g id="Node000006" class="node">
<title>Node6</title>
<g id="a_Node000006"><a xlink:title=" ">
<polygon fill="#e0e0e0" stroke="#999999" points="541,-96 434,-96 434,-66 541,-66 541,-96"/>
<text text-anchor="start" x="442" y="-84" font-family="Helvetica,sans-Serif" font-size="10.00">deal.II/matrix_free</text>
<text text-anchor="middle" x="487.5" y="-73" font-family="Helvetica,sans-Serif" font-size="10.00">/matrix_free.h</text>
</a>
</g>
</g>
<!-- Node1&#45;&gt;Node6 -->
<g id="edge5_Node000001_Node000006" class="edge">
<title>Node1&#45;&gt;Node6</title>
<g id="a_edge5_Node000001_Node000006"><a xlink:title=" ">
<path fill="none" stroke="#63b8ff" d="M458.14,-131.77C463.08,-123.4 468.86,-113.59 473.99,-104.9"/>
<polygon fill="#63b8ff" stroke="#63b8ff" points="477.15,-106.43 479.22,-96.04 471.12,-102.87 477.15,-106.43"/>
</a>
</g>
</g>
<!-- Node7 -->
<g id="Node000007" class="node">
<title>Node7</title>
<g id="a_Node000007"><a xlink:title=" ">
<polygon fill="#e0e0e0" stroke="#999999" points="666,-96 559,-96 559,-66 666,-66 666,-96"/>
<text text-anchor="start" x="567" y="-84" font-family="Helvetica,sans-Serif" font-size="10.00">deal.II/matrix_free</text>
<text text-anchor="middle" x="612.5" y="-73" font-family="Helvetica,sans-Serif" font-size="10.00">/tools.h</text>
</a>
</g>
</g>
<!-- Node1&#45;&gt;Node7 -->
<g id="edge6_Node000001_Node000007" class="edge">
<title>Node1&#45;&gt;Node7</title>
<g id="a_edge6_Node000001_Node000007"><a xlink:title=" ">
<path fill="none" stroke="#63b8ff" d="M493.18,-131.96C517.2,-121.9 546.28,-109.73 569.71,-99.91"/>
<polygon fill="#63b8ff" stroke="#63b8ff" points="571.18,-103.09 579.05,-96 568.48,-96.64 571.18,-103.09"/>
</a>
</g>
</g>
<!-- Node8 -->
<g id="Node000008" class="node">
<title>Node8</title>
<g id="a_Node000008"><a xlink:href="fe__integrator_8hpp.html" target="_top" xlink:title=" ">
<polygon fill="white" stroke="#666666" points="796.5,-96 684.5,-96 684.5,-66 796.5,-66 796.5,-96"/>
<text text-anchor="start" x="692.5" y="-84" font-family="Helvetica,sans-Serif" font-size="10.00">meltpooldg/utilities</text>
<text text-anchor="middle" x="740.5" y="-73" font-family="Helvetica,sans-Serif" font-size="10.00">/fe_integrator.hpp</text>
</a>
</g>
</g>
<!-- Node1&#45;&gt;Node8 -->
<g id="edge7_Node000001_Node000008" class="edge">
<title>Node1&#45;&gt;Node8</title>
<g id="a_edge7_Node000001_Node000008"><a xlink:title=" ">
<path fill="none" stroke="#63b8ff" d="M504.58,-137.77C553.38,-126.23 623.1,-109.75 674.1,-97.7"/>
<polygon fill="#63b8ff" stroke="#63b8ff" points="675.11,-101.05 684.03,-95.35 673.5,-94.24 675.11,-101.05"/>
</a>
</g>
</g>
<!-- Node10 -->
<g id="Node000010" class="node">
<title>Node10</title>
<g id="a_Node000010"><a xlink:title=" ">
<polygon fill="#e0e0e0" stroke="#999999" points="862,-90.5 815,-90.5 815,-71.5 862,-71.5 862,-90.5"/>
<text text-anchor="middle" x="838.5" y="-78.5" font-family="Helvetica,sans-Serif" font-size="10.00">vector</text>
</a>
</g>
</g>
<!-- Node1&#45;&gt;Node10 -->
<g id="edge10_Node000001_Node000010" class="edge">
<title>Node1&#45;&gt;Node10</title>
<g id="a_edge10_Node000001_Node000010"><a xlink:title=" ">
<path fill="none" stroke="#63b8ff" d="M504.65,-146.97C576.44,-140.37 701.78,-125.52 805.5,-96 807.39,-95.46 809.31,-94.85 811.23,-94.18"/>
<polygon fill="#63b8ff" stroke="#63b8ff" points="812.58,-97.41 820.64,-90.53 810.05,-90.88 812.58,-97.41"/>
</a>
</g>
</g>
<!-- Node8&#45;&gt;Node5 -->
<g id="edge9_Node000008_Node000005" class="edge">
<title>Node8&#45;&gt;Node5</title>
<g id="a_edge9_Node000008_Node000005"><a xlink:title=" ">
<path fill="none" stroke="#63b8ff" d="M687.83,-65.95C651.1,-56.16 601.92,-43.05 563.17,-32.71"/>
<polygon fill="#63b8ff" stroke="#63b8ff" points="563.61,-29.21 553.05,-30.01 561.81,-35.97 563.61,-29.21"/>
</a>
</g>
</g>
<!-- Node9 -->
<g id="Node000009" class="node">
<title>Node9</title>
<g id="a_Node000009"><a xlink:title=" ">
<polygon fill="#e0e0e0" stroke="#999999" points="815,-24.5 666,-24.5 666,-5.5 815,-5.5 815,-24.5"/>
<text text-anchor="middle" x="740.5" y="-12.5" font-family="Helvetica,sans-Serif" font-size="10.00">deal.II/base/vectorization.h</text>
</a>
</g>
</g>
<!-- Node8&#45;&gt;Node9 -->
<g id="edge8_Node000008_Node000009" class="edge">
<title>Node8&#45;&gt;Node9</title>
<g id="a_edge8_Node000008_Node000009"><a xlink:title=" ">
<path fill="none" stroke="#63b8ff" d="M740.5,-65.8C740.5,-56.7 740.5,-44.79 740.5,-34.9"/>
<polygon fill="#63b8ff" stroke="#63b8ff" points="744,-34.84 740.5,-24.84 737,-34.84 744,-34.84"/>
</a>
</g>
</g>
</g>
</svg>
