<?xml version="1.0" encoding="UTF-8" standalone="no"?>
<!DOCTYPE svg PUBLIC "-//W3C//DTD SVG 1.1//EN"
 "http://www.w3.org/Graphics/SVG/1.1/DTD/svg11.dtd">
<!-- Generated by graphviz version 2.43.0 (0)
 -->
<!-- Title: include/meltpooldg/level_set/nearest_point.hpp Pages: 1 -->
<svg width="1019pt" height="258pt"
 viewBox="0.00 0.00 1019.46 258.00" xmlns="http://www.w3.org/2000/svg" xmlns:xlink="http://www.w3.org/1999/xlink">
<g id="graph0" class="graph" transform="scale(1 1) rotate(0) translate(4 254)">
<title>include/meltpooldg/level_set/nearest_point.hpp</title>
<!-- Node1 -->
<g id="Node000001" class="node">
<title>Node1</title>
<g id="a_Node000001"><a xlink:title=" ">
<polygon fill="#999999" stroke="#666666" points="680.46,-250 525.46,-250 525.46,-220 680.46,-220 680.46,-250"/>
<text text-anchor="start" x="533.46" y="-238" font-family="Helvetica,sans-Serif" font-size="10.00">include/meltpooldg</text>
<text text-anchor="middle" x="602.96" y="-227" font-family="Helvetica,sans-Serif" font-size="10.00">/level_set/nearest_point.hpp</text>
</a>
</g>
</g>
<!-- Node2 -->
<g id="Node000002" class="node">
<title>Node2</title>
<g id="a_Node000002"><a xlink:href="melt__pool__application_8cpp.html" target="_top" xlink:title=" ">
<polygon fill="white" stroke="#666666" points="259.46,-30 86.46,-30 86.46,0 259.46,0 259.46,-30"/>
<text text-anchor="start" x="94.46" y="-18" font-family="Helvetica,sans-Serif" font-size="10.00">applications/mp&#45;melt</text>
<text text-anchor="middle" x="172.96" y="-7" font-family="Helvetica,sans-Serif" font-size="10.00">&#45;pool/melt_pool_application.cpp</text>
</a>
</g>
</g>
<!-- Node1&#45;&gt;Node2 -->
<g id="edge1_Node000001_Node000002" class="edge">
<title>Node1&#45;&gt;Node2</title>
<g id="a_edge1_Node000001_Node000002"><a xlink:title=" ">
<path fill="none" stroke="#63b8ff" d="M515.09,-232.05C364.23,-227.86 68.7,-215.68 33.96,-184 -5.06,-148.42 -11.04,-108.75 19.96,-66 35.63,-44.4 60.9,-31.95 86.43,-24.84"/>
<polygon fill="#63b8ff" stroke="#63b8ff" points="515.17,-235.55 525.26,-232.32 515.36,-228.55 515.17,-235.55"/>
</a>
</g>
</g>
<!-- Node3 -->
<g id="Node000003" class="node">
<title>Node3</title>
<g id="a_Node000003"><a xlink:href="heat__cut__operation_8hpp.html" target="_top" xlink:title=" ">
<polygon fill="white" stroke="#666666" points="202.46,-178.5 43.46,-178.5 43.46,-148.5 202.46,-148.5 202.46,-178.5"/>
<text text-anchor="start" x="51.46" y="-166.5" font-family="Helvetica,sans-Serif" font-size="10.00">include/meltpooldg</text>
<text text-anchor="middle" x="122.96" y="-155.5" font-family="Helvetica,sans-Serif" font-size="10.00">/heat/heat_cut_operation.hpp</text>
</a>
</g>
</g>
<!-- Node1&#45;&gt;Node3 -->
<g id="edge2_Node000001_Node000003" class="edge">
<title>Node1&#45;&gt;Node3</title>
<g id="a_edge2_Node000001_Node000003"><a xlink:title=" ">
<path fill="none" stroke="#63b8ff" d="M515.2,-221.29C425.91,-208.36 288.72,-188.5 202.5,-176.02"/>
<polygon fill="#63b8ff" stroke="#63b8ff" points="514.91,-224.79 525.31,-222.76 515.91,-217.86 514.91,-224.79"/>
</a>
</g>
</g>
<!-- Node6 -->
<g id="Node000006" class="node">
<title>Node6</title>
<g id="a_Node000006"><a xlink:href="heat__diffuse__operation_8hpp.html" target="_top" xlink:title=" ">
<polygon fill="white" stroke="#666666" points="469.46,-178.5 292.46,-178.5 292.46,-148.5 469.46,-148.5 469.46,-178.5"/>
<text text-anchor="start" x="300.46" y="-166.5" font-family="Helvetica,sans-Serif" font-size="10.00">include/meltpooldg</text>
<text text-anchor="middle" x="380.96" y="-155.5" font-family="Helvetica,sans-Serif" font-size="10.00">/heat/heat_diffuse_operation.hpp</text>
</a>
</g>
</g>
<!-- Node1&#45;&gt;Node6 -->
<g id="edge6_Node000001_Node000006" class="edge">
<title>Node1&#45;&gt;Node6</title>
<g id="a_edge6_Node000001_Node000006"><a xlink:title=" ">
<path fill="none" stroke="#63b8ff" d="M548.24,-216.87C510.58,-205.08 461.16,-189.61 425.82,-178.54"/>
<polygon fill="#63b8ff" stroke="#63b8ff" points="547.45,-220.29 558.04,-219.94 549.54,-213.61 547.45,-220.29"/>
</a>
</g>
</g>
<!-- Node8 -->
<g id="Node000008" class="node">
<title>Node8</title>
<g id="a_Node000008"><a xlink:href="level__set__operation_8hpp.html" target="_top" xlink:title=" ">
<polygon fill="white" stroke="#666666" points="658.46,-184 547.46,-184 547.46,-143 658.46,-143 658.46,-184"/>
<text text-anchor="start" x="555.46" y="-172" font-family="Helvetica,sans-Serif" font-size="10.00">include/meltpooldg</text>
<text text-anchor="start" x="555.46" y="-161" font-family="Helvetica,sans-Serif" font-size="10.00">/level_set/level_set</text>
<text text-anchor="middle" x="602.96" y="-150" font-family="Helvetica,sans-Serif" font-size="10.00">_operation.hpp</text>
</a>
</g>
</g>
<!-- Node1&#45;&gt;Node8 -->
<g id="edge10_Node000001_Node000008" class="edge">
<title>Node1&#45;&gt;Node8</title>
<g id="a_edge10_Node000001_Node000008"><a xlink:title=" ">
<path fill="none" stroke="#63b8ff" d="M602.96,-209.91C602.96,-201.47 602.96,-192.1 602.96,-184.07"/>
<polygon fill="#63b8ff" stroke="#63b8ff" points="599.46,-209.94 602.96,-219.94 606.46,-209.94 599.46,-209.94"/>
</a>
</g>
</g>
<!-- Node12 -->
<g id="Node000012" class="node">
<title>Node12</title>
<g id="a_Node000012"><a xlink:href="level__set__operation_8cpp.html" target="_top" xlink:title=" ">
<polygon fill="white" stroke="#666666" points="1011.46,-101.5 888.46,-101.5 888.46,-71.5 1011.46,-71.5 1011.46,-101.5"/>
<text text-anchor="start" x="896.46" y="-89.5" font-family="Helvetica,sans-Serif" font-size="10.00">source/level_set/level</text>
<text text-anchor="middle" x="949.96" y="-78.5" font-family="Helvetica,sans-Serif" font-size="10.00">_set_operation.cpp</text>
</a>
</g>
</g>
<!-- Node1&#45;&gt;Node12 -->
<g id="edge17_Node000001_Node000012" class="edge">
<title>Node1&#45;&gt;Node12</title>
<g id="a_edge17_Node000001_Node000012"><a xlink:title=" ">
<path fill="none" stroke="#63b8ff" d="M631.1,-213.85C642.83,-205.07 656.38,-194.43 667.96,-184 686.65,-167.17 684.99,-155.23 706.96,-143 775.59,-104.81 803.65,-125.55 879.96,-107 886.83,-105.33 894.04,-103.46 901.12,-101.55"/>
<polygon fill="#63b8ff" stroke="#63b8ff" points="628.9,-211.12 622.94,-219.88 633.06,-216.75 628.9,-211.12"/>
</a>
</g>
</g>
<!-- Node13 -->
<g id="Node000013" class="node">
<title>Node13</title>
<g id="a_Node000013"><a xlink:href="level__set__DG__operation_8cpp.html" target="_top" xlink:title=" ">
<polygon fill="white" stroke="#666666" points="844.46,-178.5 715.46,-178.5 715.46,-148.5 844.46,-148.5 844.46,-178.5"/>
<text text-anchor="start" x="723.46" y="-166.5" font-family="Helvetica,sans-Serif" font-size="10.00">source/level_set/level</text>
<text text-anchor="middle" x="779.96" y="-155.5" font-family="Helvetica,sans-Serif" font-size="10.00">_set_DG_operation.cpp</text>
</a>
</g>
</g>
<!-- Node1&#45;&gt;Node13 -->
<g id="edge16_Node000001_Node000013" class="edge">
<title>Node1&#45;&gt;Node13</title>
<g id="a_edge16_Node000001_Node000013"><a xlink:title=" ">
<path fill="none" stroke="#63b8ff" d="M648.13,-216.26C677.96,-204.55 716.5,-189.42 744.2,-178.54"/>
<polygon fill="#63b8ff" stroke="#63b8ff" points="646.81,-213.02 638.78,-219.94 649.37,-219.54 646.81,-213.02"/>
</a>
</g>
</g>
<!-- Node14 -->
<g id="Node000014" class="node">
<title>Node14</title>
<g id="a_Node000014"><a xlink:href="nearest__point_8cpp.html" target="_top" xlink:title=" ">
<polygon fill="white" stroke="#666666" points="998.96,-178.5 862.96,-178.5 862.96,-148.5 998.96,-148.5 998.96,-178.5"/>
<text text-anchor="start" x="870.96" y="-166.5" font-family="Helvetica,sans-Serif" font-size="10.00">source/level_set/nearest</text>
<text text-anchor="middle" x="930.96" y="-155.5" font-family="Helvetica,sans-Serif" font-size="10.00">_point.cpp</text>
</a>
</g>
</g>
<!-- Node1&#45;&gt;Node14 -->
<g id="edge18_Node000001_Node000014" class="edge">
<title>Node1&#45;&gt;Node14</title>
<g id="a_edge18_Node000001_Node000014"><a xlink:title=" ">
<path fill="none" stroke="#63b8ff" d="M688.54,-218.08C737.18,-208.75 799.13,-196.4 853.96,-184 861.36,-182.33 869.13,-180.47 876.78,-178.59"/>
<polygon fill="#63b8ff" stroke="#63b8ff" points="687.85,-214.65 678.69,-219.97 689.17,-221.53 687.85,-214.65"/>
</a>
</g>
</g>
<!-- Node3&#45;&gt;Node2 -->
<g id="edge4_Node000003_Node000002" class="edge">
<title>Node3&#45;&gt;Node2</title>
<g id="a_edge4_Node000003_Node000002"><a xlink:title=" ">
<path fill="none" stroke="#63b8ff" d="M72.52,-143.99C56.31,-135.36 40.17,-123.31 30.96,-107 22,-91.13 20.43,-80.87 30.96,-66 44.1,-47.44 64.71,-35.72 86.2,-28.34"/>
<polygon fill="#63b8ff" stroke="#63b8ff" points="70.98,-147.13 81.5,-148.44 74.09,-140.86 70.98,-147.13"/>
</a>
</g>
</g>
<!-- Node4 -->
<g id="Node000004" class="node">
<title>Node4</title>
<g id="a_Node000004"><a xlink:href="heat__transfer__application_8cpp.html" target="_top" xlink:title=" ">
<polygon fill="white" stroke="#666666" points="304.46,-107 177.46,-107 177.46,-66 304.46,-66 304.46,-107"/>
<text text-anchor="start" x="185.46" y="-95" font-family="Helvetica,sans-Serif" font-size="10.00">applications/mp&#45;heat</text>
<text text-anchor="start" x="185.46" y="-84" font-family="Helvetica,sans-Serif" font-size="10.00">&#45;transfer/heat_transfer</text>
<text text-anchor="middle" x="240.96" y="-73" font-family="Helvetica,sans-Serif" font-size="10.00">_application.cpp</text>
</a>
</g>
</g>
<!-- Node3&#45;&gt;Node4 -->
<g id="edge3_Node000003_Node000004" class="edge">
<title>Node3&#45;&gt;Node4</title>
<g id="a_edge3_Node000003_Node000004"><a xlink:title=" ">
<path fill="none" stroke="#63b8ff" d="M153.78,-142.91C171.09,-131.91 192.62,-118.22 209.96,-107.2"/>
<polygon fill="#63b8ff" stroke="#63b8ff" points="151.72,-140.08 145.16,-148.39 155.48,-145.98 151.72,-140.08"/>
</a>
</g>
</g>
<!-- Node5 -->
<g id="Node000005" class="node">
<title>Node5</title>
<g id="a_Node000005"><a xlink:href="heat__cut__operation_8cpp.html" target="_top" xlink:title=" ">
<polygon fill="white" stroke="#666666" points="159.46,-101.5 40.46,-101.5 40.46,-71.5 159.46,-71.5 159.46,-101.5"/>
<text text-anchor="start" x="48.46" y="-89.5" font-family="Helvetica,sans-Serif" font-size="10.00">source/heat/heat_cut</text>
<text text-anchor="middle" x="99.96" y="-78.5" font-family="Helvetica,sans-Serif" font-size="10.00">_operation.cpp</text>
</a>
</g>
</g>
<!-- Node3&#45;&gt;Node5 -->
<g id="edge5_Node000003_Node000005" class="edge">
<title>Node3&#45;&gt;Node5</title>
<g id="a_edge5_Node000003_Node000005"><a xlink:title=" ">
<path fill="none" stroke="#63b8ff" d="M115.69,-138.78C111.93,-126.53 107.48,-112 104.27,-101.54"/>
<polygon fill="#63b8ff" stroke="#63b8ff" points="112.36,-139.86 118.64,-148.39 119.05,-137.81 112.36,-139.86"/>
</a>
</g>
</g>
<!-- Node6&#45;&gt;Node2 -->
<g id="edge8_Node000006_Node000002" class="edge">
<title>Node6&#45;&gt;Node2</title>
<g id="a_edge8_Node000006_Node000002"><a xlink:title=" ">
<path fill="none" stroke="#63b8ff" d="M369.8,-139.09C358.34,-117.34 338.57,-85.47 312.96,-66 290.88,-49.21 262.65,-37.7 237.34,-30"/>
<polygon fill="#63b8ff" stroke="#63b8ff" points="366.83,-140.96 374.48,-148.29 373.07,-137.79 366.83,-140.96"/>
</a>
</g>
</g>
<!-- Node6&#45;&gt;Node4 -->
<g id="edge7_Node000006_Node000004" class="edge">
<title>Node6&#45;&gt;Node4</title>
<g id="a_edge7_Node000006_Node000004"><a xlink:title=" ">
<path fill="none" stroke="#63b8ff" d="M345.77,-143.65C324.93,-132.48 298.55,-118.35 277.48,-107.06"/>
<polygon fill="#63b8ff" stroke="#63b8ff" points="344.16,-146.76 354.63,-148.39 347.47,-140.59 344.16,-146.76"/>
</a>
</g>
</g>
<!-- Node7 -->
<g id="Node000007" class="node">
<title>Node7</title>
<g id="a_Node000007"><a xlink:href="heat__diffuse__operation_8cpp.html" target="_top" xlink:title=" ">
<polygon fill="white" stroke="#666666" points="498.46,-101.5 361.46,-101.5 361.46,-71.5 498.46,-71.5 498.46,-101.5"/>
<text text-anchor="start" x="369.46" y="-89.5" font-family="Helvetica,sans-Serif" font-size="10.00">source/heat/heat_diffuse</text>
<text text-anchor="middle" x="429.96" y="-78.5" font-family="Helvetica,sans-Serif" font-size="10.00">_operation.cpp</text>
</a>
</g>
</g>
<!-- Node6&#45;&gt;Node7 -->
<g id="edge9_Node000006_Node000007" class="edge">
<title>Node6&#45;&gt;Node7</title>
<g id="a_edge9_Node000006_Node000007"><a xlink:title=" ">
<path fill="none" stroke="#63b8ff" d="M395.74,-139.88C403.89,-127.41 413.75,-112.32 420.79,-101.54"/>
<polygon fill="#63b8ff" stroke="#63b8ff" points="392.72,-138.11 390.18,-148.39 398.58,-141.94 392.72,-138.11"/>
</a>
</g>
</g>
<!-- Node9 -->
<g id="Node000009" class="node">
<title>Node9</title>
<g id="a_Node000009"><a xlink:href="level__set__application_8hpp.html" target="_top" xlink:title=" ">
<polygon fill="white" stroke="#666666" points="870.46,-101.5 707.46,-101.5 707.46,-71.5 870.46,-71.5 870.46,-101.5"/>
<text text-anchor="start" x="715.46" y="-89.5" font-family="Helvetica,sans-Serif" font-size="10.00">applications/mp&#45;level</text>
<text text-anchor="middle" x="788.96" y="-78.5" font-family="Helvetica,sans-Serif" font-size="10.00">&#45;set/level_set_application.hpp</text>
</a>
</g>
</g>
<!-- Node8&#45;&gt;Node9 -->
<g id="edge11_Node000008_Node000009" class="edge">
<title>Node8&#45;&gt;Node9</title>
<g id="a_edge11_Node000008_Node000009"><a xlink:title=" ">
<path fill="none" stroke="#63b8ff" d="M660.63,-139.25C691.21,-126.92 727.77,-112.17 754.04,-101.58"/>
<polygon fill="#63b8ff" stroke="#63b8ff" points="659.31,-136 651.35,-142.99 661.93,-142.5 659.31,-136"/>
</a>
</g>
</g>
<!-- Node11 -->
<g id="Node000011" class="node">
<title>Node11</title>
<g id="a_Node000011"><a xlink:href="melt__pool__application_8hpp.html" target="_top" xlink:title=" ">
<polygon fill="white" stroke="#666666" points="689.46,-101.5 516.46,-101.5 516.46,-71.5 689.46,-71.5 689.46,-101.5"/>
<text text-anchor="start" x="524.46" y="-89.5" font-family="Helvetica,sans-Serif" font-size="10.00">applications/mp&#45;melt</text>
<text text-anchor="middle" x="602.96" y="-78.5" font-family="Helvetica,sans-Serif" font-size="10.00">&#45;pool/melt_pool_application.hpp</text>
</a>
</g>
</g>
<!-- Node8&#45;&gt;Node11 -->
<g id="edge13_Node000008_Node000011" class="edge">
<title>Node8&#45;&gt;Node11</title>
<g id="a_edge13_Node000008_Node000011"><a xlink:title=" ">
<path fill="none" stroke="#63b8ff" d="M602.96,-132.61C602.96,-122.01 602.96,-110.57 602.96,-101.86"/>
<polygon fill="#63b8ff" stroke="#63b8ff" points="599.46,-132.79 602.96,-142.79 606.46,-132.79 599.46,-132.79"/>
</a>
</g>
</g>
<!-- Node8&#45;&gt;Node12 -->
<g id="edge15_Node000008_Node000012" class="edge">
<title>Node8&#45;&gt;Node12</title>
<g id="a_edge15_Node000008_Node000012"><a xlink:title=" ">
<path fill="none" stroke="#63b8ff" d="M668.54,-144.02C670.03,-143.67 671.5,-143.33 672.96,-143 764.05,-122.45 788.87,-127.55 879.96,-107 887.1,-105.39 894.6,-103.51 901.92,-101.56"/>
<polygon fill="#63b8ff" stroke="#63b8ff" points="667.5,-140.67 658.62,-146.46 669.17,-147.47 667.5,-140.67"/>
</a>
</g>
</g>
<!-- Node10 -->
<g id="Node000010" class="node">
<title>Node10</title>
<g id="a_Node000010"><a xlink:href="level__set__application_8cpp.html" target="_top" xlink:title=" ">
<polygon fill="white" stroke="#666666" points="869.96,-30 707.96,-30 707.96,0 869.96,0 869.96,-30"/>
<text text-anchor="start" x="715.96" y="-18" font-family="Helvetica,sans-Serif" font-size="10.00">applications/mp&#45;level</text>
<text text-anchor="middle" x="788.96" y="-7" font-family="Helvetica,sans-Serif" font-size="10.00">&#45;set/level_set_application.cpp</text>
</a>
</g>
</g>
<!-- Node9&#45;&gt;Node10 -->
<g id="edge12_Node000009_Node000010" class="edge">
<title>Node9&#45;&gt;Node10</title>
<g id="a_edge12_Node000009_Node000010"><a xlink:title=" ">
<path fill="none" stroke="#63b8ff" d="M788.96,-61.25C788.96,-50.81 788.96,-38.99 788.96,-30.04"/>
<polygon fill="#63b8ff" stroke="#63b8ff" points="785.46,-61.44 788.96,-71.44 792.46,-61.44 785.46,-61.44"/>
</a>
</g>
</g>
<!-- Node11&#45;&gt;Node2 -->
<g id="edge14_Node000011_Node000002" class="edge">
<title>Node11&#45;&gt;Node2</title>
<g id="a_edge14_Node000011_Node000002"><a xlink:title=" ">
<path fill="none" stroke="#63b8ff" d="M526.85,-69.5C520.47,-68.27 514.11,-67.09 507.96,-66 423.86,-51.1 327.35,-37.01 259.59,-27.61"/>
<polygon fill="#63b8ff" stroke="#63b8ff" points="526.38,-72.97 536.87,-71.45 527.72,-66.1 526.38,-72.97"/>
</a>
</g>
</g>
</g>
</svg>
