<?xml version="1.0" encoding="UTF-8" standalone="no"?>
<!DOCTYPE svg PUBLIC "-//W3C//DTD SVG 1.1//EN"
 "http://www.w3.org/Graphics/SVG/1.1/DTD/svg11.dtd">
<!-- Generated by graphviz version 2.43.0 (0)
 -->
<!-- Title: source/level_set/nearest_point_data.cpp Pages: 1 -->
<svg width="696pt" height="236pt"
 viewBox="0.00 0.00 696.00 236.00" xmlns="http://www.w3.org/2000/svg" xmlns:xlink="http://www.w3.org/1999/xlink">
<g id="graph0" class="graph" transform="scale(1 1) rotate(0) translate(4 232)">
<title>source/level_set/nearest_point_data.cpp</title>
<!-- Node1 -->
<g id="Node000001" class="node">
<title>Node1</title>
<g id="a_Node000001"><a xlink:title=" ">
<polygon fill="#999999" stroke="#666666" points="188,-228 52,-228 52,-198 188,-198 188,-228"/>
<text text-anchor="start" x="60" y="-216" font-family="Helvetica,sans-Serif" font-size="10.00">source/level_set/nearest</text>
<text text-anchor="middle" x="120" y="-205" font-family="Helvetica,sans-Serif" font-size="10.00">_point_data.cpp</text>
</a>
</g>
</g>
<!-- Node2 -->
<g id="Node000002" class="node">
<title>Node2</title>
<g id="a_Node000002"><a xlink:href="marching__cube__data_8hpp.html" target="_top" xlink:title=" ">
<polygon fill="white" stroke="#666666" points="142,-96 0,-96 0,-66 142,-66 142,-96"/>
<text text-anchor="start" x="8" y="-84" font-family="Helvetica,sans-Serif" font-size="10.00">meltpooldg/level_set</text>
<text text-anchor="middle" x="71" y="-73" font-family="Helvetica,sans-Serif" font-size="10.00">/marching_cube_data.hpp</text>
</a>
</g>
</g>
<!-- Node1&#45;&gt;Node2 -->
<g id="edge1_Node000001_Node000002" class="edge">
<title>Node1&#45;&gt;Node2</title>
<g id="a_edge1_Node000001_Node000002"><a xlink:title=" ">
<path fill="none" stroke="#63b8ff" d="M111.31,-197.98C105.52,-188.18 98.07,-174.63 93,-162 85.72,-143.86 79.98,-122.48 76.19,-106.38"/>
<polygon fill="#63b8ff" stroke="#63b8ff" points="79.5,-105.17 73.88,-96.19 72.67,-106.72 79.5,-105.17"/>
</a>
</g>
</g>
<!-- Node4 -->
<g id="Node000004" class="node">
<title>Node4</title>
<g id="a_Node000004"><a xlink:href="nearest__point__data_8hpp.html" target="_top" xlink:title=" ">
<polygon fill="white" stroke="#666666" points="236,-162 102,-162 102,-132 236,-132 236,-162"/>
<text text-anchor="start" x="110" y="-150" font-family="Helvetica,sans-Serif" font-size="10.00">meltpooldg/level_set</text>
<text text-anchor="middle" x="169" y="-139" font-family="Helvetica,sans-Serif" font-size="10.00">/nearest_point_data.hpp</text>
</a>
</g>
</g>
<!-- Node1&#45;&gt;Node4 -->
<g id="edge3_Node000001_Node000004" class="edge">
<title>Node1&#45;&gt;Node4</title>
<g id="a_edge3_Node000001_Node000004"><a xlink:title=" ">
<path fill="none" stroke="#63b8ff" d="M130.87,-197.8C137.09,-189.68 145.02,-179.31 152.04,-170.15"/>
<polygon fill="#63b8ff" stroke="#63b8ff" points="154.86,-172.23 158.16,-162.16 149.3,-167.98 154.86,-172.23"/>
</a>
</g>
</g>
<!-- Node3 -->
<g id="Node000003" class="node">
<title>Node3</title>
<g id="a_Node000003"><a xlink:title=" ">
<polygon fill="#e0e0e0" stroke="#999999" points="134.5,-30 7.5,-30 7.5,0 134.5,0 134.5,-30"/>
<text text-anchor="start" x="15.5" y="-18" font-family="Helvetica,sans-Serif" font-size="10.00">deal.II/base/parameter</text>
<text text-anchor="middle" x="71" y="-7" font-family="Helvetica,sans-Serif" font-size="10.00">_handler.h</text>
</a>
</g>
</g>
<!-- Node2&#45;&gt;Node3 -->
<g id="edge2_Node000002_Node000003" class="edge">
<title>Node2&#45;&gt;Node3</title>
<g id="a_edge2_Node000002_Node000003"><a xlink:title=" ">
<path fill="none" stroke="#63b8ff" d="M71,-65.8C71,-58.34 71,-48.99 71,-40.41"/>
<polygon fill="#63b8ff" stroke="#63b8ff" points="74.5,-40.16 71,-30.16 67.5,-40.16 74.5,-40.16"/>
</a>
</g>
</g>
<!-- Node4&#45;&gt;Node2 -->
<g id="edge5_Node000004_Node000002" class="edge">
<title>Node4&#45;&gt;Node2</title>
<g id="a_edge5_Node000004_Node000002"><a xlink:title=" ">
<path fill="none" stroke="#63b8ff" d="M147.25,-131.8C133.67,-122.93 116.01,-111.39 101.1,-101.66"/>
<polygon fill="#63b8ff" stroke="#63b8ff" points="102.98,-98.7 92.69,-96.16 99.15,-104.56 102.98,-98.7"/>
</a>
</g>
</g>
<!-- Node4&#45;&gt;Node3 -->
<g id="edge4_Node000004_Node000003" class="edge">
<title>Node4&#45;&gt;Node3</title>
<g id="a_edge4_Node000004_Node000003"><a xlink:title=" ">
<path fill="none" stroke="#63b8ff" d="M169.02,-131.97C168.38,-114.88 165.08,-85.86 151,-66 141.92,-53.19 128.42,-42.96 115.08,-35.18"/>
<polygon fill="#63b8ff" stroke="#63b8ff" points="116.39,-31.9 105.93,-30.18 113.03,-38.05 116.39,-31.9"/>
</a>
</g>
</g>
<!-- Node5 -->
<g id="Node000005" class="node">
<title>Node5</title>
<g id="a_Node000005"><a xlink:href="enum_8hpp.html" target="_top" xlink:title=" ">
<polygon fill="white" stroke="#666666" points="408,-96 296,-96 296,-66 408,-66 408,-96"/>
<text text-anchor="start" x="304" y="-84" font-family="Helvetica,sans-Serif" font-size="10.00">meltpooldg/utilities</text>
<text text-anchor="middle" x="352" y="-73" font-family="Helvetica,sans-Serif" font-size="10.00">/enum.hpp</text>
</a>
</g>
</g>
<!-- Node4&#45;&gt;Node5 -->
<g id="edge6_Node000004_Node000005" class="edge">
<title>Node4&#45;&gt;Node5</title>
<g id="a_edge6_Node000004_Node000005"><a xlink:title=" ">
<path fill="none" stroke="#63b8ff" d="M209.16,-131.95C236.57,-122.37 273.08,-109.6 302.32,-99.37"/>
<polygon fill="#63b8ff" stroke="#63b8ff" points="303.65,-102.62 311.93,-96.01 301.34,-96.01 303.65,-102.62"/>
</a>
</g>
</g>
<!-- Node5&#45;&gt;Node3 -->
<g id="edge7_Node000005_Node000003" class="edge">
<title>Node5&#45;&gt;Node3</title>
<g id="a_edge7_Node000005_Node000003"><a xlink:title=" ">
<path fill="none" stroke="#63b8ff" d="M295.81,-67.2C251.85,-57.19 190.41,-43.2 142.87,-32.37"/>
<polygon fill="#63b8ff" stroke="#63b8ff" points="143.48,-28.92 132.95,-30.11 141.92,-35.74 143.48,-28.92"/>
</a>
</g>
</g>
<!-- Node6 -->
<g id="Node000006" class="node">
<title>Node6</title>
<g id="a_Node000006"><a xlink:title=" ">
<polygon fill="#e0e0e0" stroke="#999999" points="277.5,-24.5 152.5,-24.5 152.5,-5.5 277.5,-5.5 277.5,-24.5"/>
<text text-anchor="middle" x="215" y="-12.5" font-family="Helvetica,sans-Serif" font-size="10.00">deal.II/base/patterns.h</text>
</a>
</g>
</g>
<!-- Node5&#45;&gt;Node6 -->
<g id="edge8_Node000005_Node000006" class="edge">
<title>Node5&#45;&gt;Node6</title>
<g id="a_edge8_Node000005_Node000006"><a xlink:title=" ">
<path fill="none" stroke="#63b8ff" d="M321.93,-65.95C298.23,-54.88 265.44,-39.56 242.44,-28.82"/>
<polygon fill="#63b8ff" stroke="#63b8ff" points="243.77,-25.58 233.23,-24.52 240.81,-31.92 243.77,-25.58"/>
</a>
</g>
</g>
<!-- Node7 -->
<g id="Node000007" class="node">
<title>Node7</title>
<g id="a_Node000007"><a xlink:title=" ">
<polygon fill="#e0e0e0" stroke="#999999" points="408,-30 296,-30 296,0 408,0 408,-30"/>
<text text-anchor="start" x="304" y="-18" font-family="Helvetica,sans-Serif" font-size="10.00">meltpooldg/utilities</text>
<text text-anchor="middle" x="352" y="-7" font-family="Helvetica,sans-Serif" font-size="10.00">/better_enum.hpp</text>
</a>
</g>
</g>
<!-- Node5&#45;&gt;Node7 -->
<g id="edge9_Node000005_Node000007" class="edge">
<title>Node5&#45;&gt;Node7</title>
<g id="a_edge9_Node000005_Node000007"><a xlink:title=" ">
<path fill="none" stroke="#63b8ff" d="M352,-65.8C352,-58.34 352,-48.99 352,-40.41"/>
<polygon fill="#63b8ff" stroke="#63b8ff" points="355.5,-40.16 352,-30.16 348.5,-40.16 355.5,-40.16"/>
</a>
</g>
</g>
<!-- Node8 -->
<g id="Node000008" class="node">
<title>Node8</title>
<g id="a_Node000008"><a xlink:title=" ">
<polygon fill="#e0e0e0" stroke="#999999" points="551.5,-30 426.5,-30 426.5,0 551.5,0 551.5,-30"/>
<text text-anchor="start" x="434.5" y="-18" font-family="Helvetica,sans-Serif" font-size="10.00">boost/algorithm/string</text>
<text text-anchor="middle" x="489" y="-7" font-family="Helvetica,sans-Serif" font-size="10.00">/join.hpp</text>
</a>
</g>
</g>
<!-- Node5&#45;&gt;Node8 -->
<g id="edge10_Node000005_Node000008" class="edge">
<title>Node5&#45;&gt;Node8</title>
<g id="a_edge10_Node000005_Node000008"><a xlink:title=" ">
<path fill="none" stroke="#63b8ff" d="M382.07,-65.95C401.96,-56.66 428.26,-44.38 449.79,-34.32"/>
<polygon fill="#63b8ff" stroke="#63b8ff" points="451.43,-37.42 459,-30.01 448.46,-31.07 451.43,-37.42"/>
</a>
</g>
</g>
<!-- Node9 -->
<g id="Node000009" class="node">
<title>Node9</title>
<g id="a_Node000009"><a xlink:title=" ">
<polygon fill="#e0e0e0" stroke="#999999" points="626,-24.5 570,-24.5 570,-5.5 626,-5.5 626,-24.5"/>
<text text-anchor="middle" x="598" y="-12.5" font-family="Helvetica,sans-Serif" font-size="10.00">sstream</text>
</a>
</g>
</g>
<!-- Node5&#45;&gt;Node9 -->
<g id="edge11_Node000005_Node000009" class="edge">
<title>Node5&#45;&gt;Node9</title>
<g id="a_edge11_Node000005_Node000009"><a xlink:title=" ">
<path fill="none" stroke="#63b8ff" d="M408.41,-68.54C450.77,-59.44 510,-45.68 561,-30 562.92,-29.41 564.88,-28.77 566.86,-28.1"/>
<polygon fill="#63b8ff" stroke="#63b8ff" points="568.4,-31.27 576.64,-24.61 566.04,-24.68 568.4,-31.27"/>
</a>
</g>
</g>
<!-- Node10 -->
<g id="Node000010" class="node">
<title>Node10</title>
<g id="a_Node000010"><a xlink:title=" ">
<polygon fill="#e0e0e0" stroke="#999999" points="688,-24.5 644,-24.5 644,-5.5 688,-5.5 688,-24.5"/>
<text text-anchor="middle" x="666" y="-12.5" font-family="Helvetica,sans-Serif" font-size="10.00">string</text>
</a>
</g>
</g>
<!-- Node5&#45;&gt;Node10 -->
<g id="edge12_Node000005_Node000010" class="edge">
<title>Node5&#45;&gt;Node10</title>
<g id="a_edge12_Node000005_Node000010"><a xlink:title=" ">
<path fill="none" stroke="#63b8ff" d="M408.01,-74.28C465.82,-67.41 558.13,-53.74 635,-30 636.45,-29.55 637.91,-29.06 639.38,-28.52"/>
<polygon fill="#63b8ff" stroke="#63b8ff" points="640.98,-31.65 648.92,-24.63 638.34,-25.17 640.98,-31.65"/>
</a>
</g>
</g>
</g>
</svg>
