<?xml version="1.0" encoding="UTF-8" standalone="no"?>
<!DOCTYPE svg PUBLIC "-//W3C//DTD SVG 1.1//EN"
 "http://www.w3.org/Graphics/SVG/1.1/DTD/svg11.dtd">
<!-- Generated by graphviz version 2.43.0 (0)
 -->
<!-- Title: include/meltpooldg/level_set/normal_vector_operator.hpp Pages: 1 -->
<!--zoomable 269 -->

<svg id="main" version="1.1" xmlns="http://www.w3.org/2000/svg" xmlns:xlink="http://www.w3.org/1999/xlink" xml:space="preserve" onload="init(evt)">
<style type="text/css"><![CDATA[
.node, .edge {opacity: 0.7;}
.node.selected, .edge.selected {opacity: 1;}
.edge:hover path { stroke: red; }
.edge:hover polygon { stroke: red; fill: red; }
]]></style>

<defs>
  <circle id="rim" cx="0" cy="0" r="7"/>
  <circle id="rim2" cx="0" cy="0" r="3.5"/>
  <g id="zoomPlus">
    <use xlink:href="#rim" fill="#404040"><set attributeName="fill" to="#808080" begin="zoomplus.mouseover" end="zoomplus.mouseout"/></use>
    <path d="M-4,0h8M0,-4v8" fill="none" stroke="white" stroke-width="1.5" pointer-events="none"/>
  </g>
  <g id="zoomMin">
    <use xlink:href="#rim" fill="#404040"><set attributeName="fill" to="#808080" begin="zoomminus.mouseover" end="zoomminus.mouseout"/></use>
    <path d="M-4,0h8" fill="none" stroke="white" stroke-width="1.5" pointer-events="none"/>
  </g>
  <g id="arrowUp" transform="translate(30 24)">
    <use xlink:href="#rim"/>
    <path pointer-events="none" fill="none" stroke="white" stroke-width="1.5" d="M0,-3.0v7 M-2.5,-0.5L0,-3.0L2.5,-0.5"/>
  </g>
  <g id="arrowRight" transform="rotate(90) translate(36 -43)">
    <use xlink:href="#rim"/>
    <path pointer-events="none" fill="none" stroke="white" stroke-width="1.5" d="M0,-3.0v7 M-2.5,-0.5L0,-3.0L2.5,-0.5"/>
  </g>
  <g id="arrowDown" transform="rotate(180) translate(-30 -48)">
    <use xlink:href="#rim"/>
    <path pointer-events="none" fill="none" stroke="white" stroke-width="1.5" d="M0,-3.0v7 M-2.5,-0.5L0,-3.0L2.5,-0.5"/>
  </g>
  <g id="arrowLeft" transform="rotate(270) translate(-36 17)">
    <use xlink:href="#rim"/>
    <path pointer-events="none" fill="none" stroke="white" stroke-width="1.5" d="M0,-3.0v7 M-2.5,-0.5L0,-3.0L2.5,-0.5"/>
  </g>
  <g id="resetDef">
    <use xlink:href="#rim2" fill="#404040"><set attributeName="fill" to="#808080" begin="reset.mouseover" end="reset.mouseout"/></use>
  </g>
</defs>
<script type="application/ecmascript">
var viewWidth = 1373;
var viewHeight = 269;
var sectionId = 'dynsection-1';
</script>
<script type="application/ecmascript" xlink:href="svg.min.js"/>
<svg id="graph" class="graph">
<g id="viewport">
<title>include/meltpooldg/level_set/normal_vector_operator.hpp</title>
<!-- Node1 -->
<g id="Node000001" class="node">
<title>Node1</title>
<g id="a_Node000001"><a xlink:title=" ">
<polygon fill="#999999" stroke="#666666" points="980.5,-261 843.5,-261 843.5,-220 980.5,-220 980.5,-261"/>
<text text-anchor="start" x="851.5" y="-249" font-family="Helvetica,sans-Serif" font-size="10.00">include/meltpooldg</text>
<text text-anchor="start" x="851.5" y="-238" font-family="Helvetica,sans-Serif" font-size="10.00">/level_set/normal_vector</text>
<text text-anchor="middle" x="912" y="-227" font-family="Helvetica,sans-Serif" font-size="10.00">_operator.hpp</text>
</a>
</g>
</g>
<!-- Node2 -->
<g id="Node000002" class="node">
<title>Node2</title>
<g id="a_Node000002"><a xlink:href="normal__vector__operation_8hpp.html" target="_top" xlink:title=" ">
<polygon fill="white" stroke="#666666" points="670.5,-184 533.5,-184 533.5,-143 670.5,-143 670.5,-184"/>
<text text-anchor="start" x="541.5" y="-172" font-family="Helvetica,sans-Serif" font-size="10.00">include/meltpooldg</text>
<text text-anchor="start" x="541.5" y="-161" font-family="Helvetica,sans-Serif" font-size="10.00">/level_set/normal_vector</text>
<text text-anchor="middle" x="602" y="-150" font-family="Helvetica,sans-Serif" font-size="10.00">_operation.hpp</text>
</a>
</g>
</g>
<!-- Node1&#45;&gt;Node2 -->
<g id="edge1_Node000001_Node000002" class="edge">
<title>Node1&#45;&gt;Node2</title>
<g id="a_edge1_Node000001_Node000002"><a xlink:title=" ">
<path fill="none" stroke="#63b8ff" d="M833.36,-220.47C783.16,-208.33 718.72,-192.74 670.61,-181.1"/>
<polygon fill="#63b8ff" stroke="#63b8ff" points="832.66,-223.91 843.2,-222.86 834.3,-217.1 832.66,-223.91"/>
</a>
</g>
</g>
<!-- Node12 -->
<g id="Node000012" class="node">
<title>Node12</title>
<g id="a_Node000012"><a xlink:href="normal__vector__operation_8cpp.html" target="_top" xlink:title=" ">
<polygon fill="white" stroke="#666666" points="947,-101.5 813,-101.5 813,-71.5 947,-71.5 947,-101.5"/>
<text text-anchor="start" x="821" y="-89.5" font-family="Helvetica,sans-Serif" font-size="10.00">source/level_set/normal</text>
<text text-anchor="middle" x="880" y="-78.5" font-family="Helvetica,sans-Serif" font-size="10.00">_vector_operation.cpp</text>
</a>
</g>
</g>
<!-- Node1&#45;&gt;Node12 -->
<g id="edge21_Node000001_Node000012" class="edge">
<title>Node1&#45;&gt;Node12</title>
<g id="a_edge21_Node000001_Node000012"><a xlink:title=" ">
<path fill="none" stroke="#63b8ff" d="M890.08,-211.49C884.74,-203.11 879.77,-193.58 877,-184 868.81,-155.66 873.3,-120.68 876.9,-101.58"/>
<polygon fill="#63b8ff" stroke="#63b8ff" points="887.19,-213.46 895.71,-219.76 892.98,-209.52 887.19,-213.46"/>
</a>
</g>
</g>
<!-- Node13 -->
<g id="Node000013" class="node">
<title>Node13</title>
<g id="a_Node000013"><a xlink:href="olsson__CG__operator_8hpp.html" target="_top" xlink:title=" ">
<polygon fill="white" stroke="#666666" points="829,-184 711,-184 711,-143 829,-143 829,-184"/>
<text text-anchor="start" x="719" y="-172" font-family="Helvetica,sans-Serif" font-size="10.00">include/meltpooldg</text>
<text text-anchor="start" x="719" y="-161" font-family="Helvetica,sans-Serif" font-size="10.00">/level_set/olsson_CG</text>
<text text-anchor="middle" x="770" y="-150" font-family="Helvetica,sans-Serif" font-size="10.00">_operator.hpp</text>
</a>
</g>
</g>
<!-- Node1&#45;&gt;Node13 -->
<g id="edge16_Node000001_Node000013" class="edge">
<title>Node1&#45;&gt;Node13</title>
<g id="a_edge16_Node000001_Node000013"><a xlink:title=" ">
<path fill="none" stroke="#63b8ff" d="M865.98,-215.19C846.97,-205.15 825.23,-193.67 807.25,-184.17"/>
<polygon fill="#63b8ff" stroke="#63b8ff" points="864.58,-218.41 875.06,-219.99 867.85,-212.23 864.58,-218.41"/>
</a>
</g>
</g>
<!-- Node15 -->
<g id="Node000015" class="node">
<title>Node15</title>
<g id="a_Node000015"><a xlink:href="laser__heat__source__projection__based_8cpp.html" target="_top" xlink:title=" ">
<polygon fill="white" stroke="#666666" points="1048.5,-178.5 885.5,-178.5 885.5,-148.5 1048.5,-148.5 1048.5,-178.5"/>
<text text-anchor="start" x="893.5" y="-166.5" font-family="Helvetica,sans-Serif" font-size="10.00">source/heat/laser_heat</text>
<text text-anchor="middle" x="967" y="-155.5" font-family="Helvetica,sans-Serif" font-size="10.00">_source_projection_based.cpp</text>
</a>
</g>
</g>
<!-- Node1&#45;&gt;Node15 -->
<g id="edge19_Node000001_Node000015" class="edge">
<title>Node1&#45;&gt;Node15</title>
<g id="a_edge19_Node000001_Node000015"><a xlink:title=" ">
<path fill="none" stroke="#63b8ff" d="M932.47,-211.59C940.63,-200.46 949.68,-188.12 956.47,-178.86"/>
<polygon fill="#63b8ff" stroke="#63b8ff" points="929.54,-209.66 926.45,-219.79 935.19,-213.8 929.54,-209.66"/>
</a>
</g>
</g>
<!-- Node16 -->
<g id="Node000016" class="node">
<title>Node16</title>
<g id="a_Node000016"><a xlink:href="curvature__operator_8cpp.html" target="_top" xlink:title=" ">
<polygon fill="white" stroke="#666666" points="1213,-178.5 1067,-178.5 1067,-148.5 1213,-148.5 1213,-178.5"/>
<text text-anchor="start" x="1075" y="-166.5" font-family="Helvetica,sans-Serif" font-size="10.00">source/level_set/curvature</text>
<text text-anchor="middle" x="1140" y="-155.5" font-family="Helvetica,sans-Serif" font-size="10.00">_operator.cpp</text>
</a>
</g>
</g>
<!-- Node1&#45;&gt;Node16 -->
<g id="edge20_Node000001_Node000016" class="edge">
<title>Node1&#45;&gt;Node16</title>
<g id="a_edge20_Node000001_Node000016"><a xlink:title=" ">
<path fill="none" stroke="#63b8ff" d="M981.23,-216.73C1019.01,-204.3 1064.58,-189.31 1097.19,-178.58"/>
<polygon fill="#63b8ff" stroke="#63b8ff" points="979.71,-213.54 971.31,-219.99 981.9,-220.19 979.71,-213.54"/>
</a>
</g>
</g>
<!-- Node17 -->
<g id="Node000017" class="node">
<title>Node17</title>
<g id="a_Node000017"><a xlink:href="normal__vector__operator_8cpp.html" target="_top" xlink:title=" ">
<polygon fill="white" stroke="#666666" points="1365,-178.5 1231,-178.5 1231,-148.5 1365,-148.5 1365,-178.5"/>
<text text-anchor="start" x="1239" y="-166.5" font-family="Helvetica,sans-Serif" font-size="10.00">source/level_set/normal</text>
<text text-anchor="middle" x="1298" y="-155.5" font-family="Helvetica,sans-Serif" font-size="10.00">_vector_operator.cpp</text>
</a>
</g>
</g>
<!-- Node1&#45;&gt;Node17 -->
<g id="edge22_Node000001_Node000017" class="edge">
<title>Node1&#45;&gt;Node17</title>
<g id="a_edge22_Node000001_Node000017"><a xlink:title=" ">
<path fill="none" stroke="#63b8ff" d="M990.86,-227.04C1053.7,-216.71 1143.81,-201.01 1222,-184 1229.59,-182.35 1237.56,-180.47 1245.38,-178.54"/>
<polygon fill="#63b8ff" stroke="#63b8ff" points="989.93,-223.64 980.63,-228.71 991.06,-230.55 989.93,-223.64"/>
</a>
</g>
</g>
<!-- Node3 -->
<g id="Node000003" class="node">
<title>Node3</title>
<g id="a_Node000003"><a xlink:href="curvature__operation_8hpp.html" target="_top" xlink:title=" ">
<polygon fill="white" stroke="#666666" points="456.5,-107 343.5,-107 343.5,-66 456.5,-66 456.5,-107"/>
<text text-anchor="start" x="351.5" y="-95" font-family="Helvetica,sans-Serif" font-size="10.00">include/meltpooldg</text>
<text text-anchor="start" x="351.5" y="-84" font-family="Helvetica,sans-Serif" font-size="10.00">/level_set/curvature</text>
<text text-anchor="middle" x="400" y="-73" font-family="Helvetica,sans-Serif" font-size="10.00">_operation.hpp</text>
</a>
</g>
</g>
<!-- Node2&#45;&gt;Node3 -->
<g id="edge2_Node000002_Node000003" class="edge">
<title>Node2&#45;&gt;Node3</title>
<g id="a_edge2_Node000002_Node000003"><a xlink:title=" ">
<path fill="none" stroke="#63b8ff" d="M539.79,-139.4C511.88,-129.04 479.31,-116.95 452.63,-107.04"/>
<polygon fill="#63b8ff" stroke="#63b8ff" points="538.86,-142.79 549.45,-142.99 541.3,-136.23 538.86,-142.79"/>
</a>
</g>
</g>
<!-- Node7 -->
<g id="Node000007" class="node">
<title>Node7</title>
<g id="a_Node000007"><a xlink:href="reinitialization__elliptic__operation_8hpp.html" target="_top" xlink:title=" ">
<polygon fill="white" stroke="#666666" points="794.5,-107 657.5,-107 657.5,-66 794.5,-66 794.5,-107"/>
<text text-anchor="start" x="665.5" y="-95" font-family="Helvetica,sans-Serif" font-size="10.00">include/meltpooldg</text>
<text text-anchor="start" x="665.5" y="-84" font-family="Helvetica,sans-Serif" font-size="10.00">/level_set/reinitialization</text>
<text text-anchor="middle" x="726" y="-73" font-family="Helvetica,sans-Serif" font-size="10.00">_elliptic_operation.hpp</text>
</a>
</g>
</g>
<!-- Node2&#45;&gt;Node7 -->
<g id="edge6_Node000002_Node000007" class="edge">
<title>Node2&#45;&gt;Node7</title>
<g id="a_edge6_Node000002_Node000007"><a xlink:title=" ">
<path fill="none" stroke="#63b8ff" d="M643.09,-137.64C659.47,-127.74 678.06,-116.5 693.47,-107.17"/>
<polygon fill="#63b8ff" stroke="#63b8ff" points="641,-134.82 634.26,-142.99 644.62,-140.81 641,-134.82"/>
</a>
</g>
</g>
<!-- Node10 -->
<g id="Node000010" class="node">
<title>Node10</title>
<g id="a_Node000010"><a xlink:href="reinitialization__hyperbolic__CG__operation_8hpp.html" target="_top" xlink:title=" ">
<polygon fill="white" stroke="#666666" points="639.5,-107 474.5,-107 474.5,-66 639.5,-66 639.5,-107"/>
<text text-anchor="start" x="482.5" y="-95" font-family="Helvetica,sans-Serif" font-size="10.00">include/meltpooldg</text>
<text text-anchor="start" x="482.5" y="-84" font-family="Helvetica,sans-Serif" font-size="10.00">/level_set/reinitialization</text>
<text text-anchor="middle" x="557" y="-73" font-family="Helvetica,sans-Serif" font-size="10.00">_hyperbolic_CG_operation.hpp</text>
</a>
</g>
</g>
<!-- Node2&#45;&gt;Node10 -->
<g id="edge9_Node000002_Node000010" class="edge">
<title>Node2&#45;&gt;Node10</title>
<g id="a_edge9_Node000002_Node000010"><a xlink:title=" ">
<path fill="none" stroke="#63b8ff" d="M584.97,-134.11C579.56,-125.09 573.7,-115.33 568.74,-107.07"/>
<polygon fill="#63b8ff" stroke="#63b8ff" points="582.03,-136.02 590.18,-142.79 588.03,-132.42 582.03,-136.02"/>
</a>
</g>
</g>
<!-- Node11 -->
<g id="Node000011" class="node">
<title>Node11</title>
<g id="a_Node000011"><a xlink:href="reinitialization__hyperbolic__CG__operation_8cpp.html" target="_top" xlink:title=" ">
<polygon fill="white" stroke="#666666" points="170,-30 0,-30 0,0 170,0 170,-30"/>
<text text-anchor="start" x="8" y="-18" font-family="Helvetica,sans-Serif" font-size="10.00">source/level_set/reinitialization</text>
<text text-anchor="middle" x="85" y="-7" font-family="Helvetica,sans-Serif" font-size="10.00">_hyperbolic_CG_operation.cpp</text>
</a>
</g>
</g>
<!-- Node2&#45;&gt;Node11 -->
<g id="edge15_Node000002_Node000011" class="edge">
<title>Node2&#45;&gt;Node11</title>
<g id="a_edge15_Node000002_Node000011"><a xlink:title=" ">
<path fill="none" stroke="#63b8ff" d="M523.16,-149.31C469.38,-139.55 396.79,-124.87 334,-107 255.43,-84.64 166.11,-49.54 118.72,-30.11"/>
<polygon fill="#63b8ff" stroke="#63b8ff" points="522.85,-152.81 533.32,-151.13 524.09,-145.92 522.85,-152.81"/>
</a>
</g>
</g>
<!-- Node2&#45;&gt;Node12 -->
<g id="edge14_Node000002_Node000012" class="edge">
<title>Node2&#45;&gt;Node12</title>
<g id="a_edge14_Node000002_Node000012"><a xlink:title=" ">
<path fill="none" stroke="#63b8ff" d="M680.59,-141.3C727.7,-128.59 786.31,-112.78 827.77,-101.59"/>
<polygon fill="#63b8ff" stroke="#63b8ff" points="679.46,-137.98 670.72,-143.96 681.29,-144.74 679.46,-137.98"/>
</a>
</g>
</g>
<!-- Node4 -->
<g id="Node000004" class="node">
<title>Node4</title>
<g id="a_Node000004"><a xlink:href="curvature__operation_8cpp.html" target="_top" xlink:title=" ">
<polygon fill="white" stroke="#666666" points="334,-30 188,-30 188,0 334,0 334,-30"/>
<text text-anchor="start" x="196" y="-18" font-family="Helvetica,sans-Serif" font-size="10.00">source/level_set/curvature</text>
<text text-anchor="middle" x="261" y="-7" font-family="Helvetica,sans-Serif" font-size="10.00">_operation.cpp</text>
</a>
</g>
</g>
<!-- Node3&#45;&gt;Node4 -->
<g id="edge3_Node000003_Node000004" class="edge">
<title>Node3&#45;&gt;Node4</title>
<g id="a_edge3_Node000003_Node000004"><a xlink:title=" ">
<path fill="none" stroke="#63b8ff" d="M351.85,-61.42C330.95,-50.98 307.2,-39.1 289.23,-30.11"/>
<polygon fill="#63b8ff" stroke="#63b8ff" points="350.4,-64.61 360.91,-65.96 353.53,-58.35 350.4,-64.61"/>
</a>
</g>
</g>
<!-- Node5 -->
<g id="Node000005" class="node">
<title>Node5</title>
<g id="a_Node000005"><a xlink:href="level__set__DG__operation_8cpp.html" target="_top" xlink:title=" ">
<polygon fill="white" stroke="#666666" points="622.5,-30 493.5,-30 493.5,0 622.5,0 622.5,-30"/>
<text text-anchor="start" x="501.5" y="-18" font-family="Helvetica,sans-Serif" font-size="10.00">source/level_set/level</text>
<text text-anchor="middle" x="558" y="-7" font-family="Helvetica,sans-Serif" font-size="10.00">_set_DG_operation.cpp</text>
</a>
</g>
</g>
<!-- Node3&#45;&gt;Node5 -->
<g id="edge4_Node000003_Node000005" class="edge">
<title>Node3&#45;&gt;Node5</title>
<g id="a_edge4_Node000003_Node000005"><a xlink:title=" ">
<path fill="none" stroke="#63b8ff" d="M453.78,-61.85C477.76,-51.3 505.21,-39.22 525.92,-30.11"/>
<polygon fill="#63b8ff" stroke="#63b8ff" points="452.18,-58.73 444.43,-65.96 455,-65.13 452.18,-58.73"/>
</a>
</g>
</g>
<!-- Node6 -->
<g id="Node000006" class="node">
<title>Node6</title>
<g id="a_Node000006"><a xlink:href="level__set__operation_8cpp.html" target="_top" xlink:title=" ">
<polygon fill="white" stroke="#666666" points="475.5,-30 352.5,-30 352.5,0 475.5,0 475.5,-30"/>
<text text-anchor="start" x="360.5" y="-18" font-family="Helvetica,sans-Serif" font-size="10.00">source/level_set/level</text>
<text text-anchor="middle" x="414" y="-7" font-family="Helvetica,sans-Serif" font-size="10.00">_set_operation.cpp</text>
</a>
</g>
</g>
<!-- Node3&#45;&gt;Node6 -->
<g id="edge5_Node000003_Node000006" class="edge">
<title>Node3&#45;&gt;Node6</title>
<g id="a_edge5_Node000003_Node000006"><a xlink:title=" ">
<path fill="none" stroke="#63b8ff" d="M405.95,-55.95C407.76,-46.96 409.67,-37.5 411.17,-30.04"/>
<polygon fill="#63b8ff" stroke="#63b8ff" points="402.52,-55.28 403.97,-65.77 409.38,-56.66 402.52,-55.28"/>
</a>
</g>
</g>
<!-- Node8 -->
<g id="Node000008" class="node">
<title>Node8</title>
<g id="a_Node000008"><a xlink:href="reinitialization__application_8cpp.html" target="_top" xlink:title=" ">
<polygon fill="white" stroke="#666666" points="811,-30 641,-30 641,0 811,0 811,-30"/>
<text text-anchor="start" x="649" y="-18" font-family="Helvetica,sans-Serif" font-size="10.00">applications/mp&#45;reinit</text>
<text text-anchor="middle" x="726" y="-7" font-family="Helvetica,sans-Serif" font-size="10.00">/reinitialization_application.cpp</text>
</a>
</g>
</g>
<!-- Node7&#45;&gt;Node8 -->
<g id="edge7_Node000007_Node000008" class="edge">
<title>Node7&#45;&gt;Node8</title>
<g id="a_edge7_Node000007_Node000008"><a xlink:title=" ">
<path fill="none" stroke="#63b8ff" d="M726,-55.66C726,-46.76 726,-37.42 726,-30.04"/>
<polygon fill="#63b8ff" stroke="#63b8ff" points="722.5,-55.77 726,-65.77 729.5,-55.77 722.5,-55.77"/>
</a>
</g>
</g>
<!-- Node9 -->
<g id="Node000009" class="node">
<title>Node9</title>
<g id="a_Node000009"><a xlink:href="reinitialization__elliptic__operation_8cpp.html" target="_top" xlink:title=" ">
<polygon fill="white" stroke="#666666" points="999,-30 829,-30 829,0 999,0 999,-30"/>
<text text-anchor="start" x="837" y="-18" font-family="Helvetica,sans-Serif" font-size="10.00">source/level_set/reinitialization</text>
<text text-anchor="middle" x="914" y="-7" font-family="Helvetica,sans-Serif" font-size="10.00">_elliptic_operation.cpp</text>
</a>
</g>
</g>
<!-- Node7&#45;&gt;Node9 -->
<g id="edge8_Node000007_Node000009" class="edge">
<title>Node7&#45;&gt;Node9</title>
<g id="a_edge8_Node000007_Node000009"><a xlink:title=" ">
<path fill="none" stroke="#63b8ff" d="M788.51,-62.39C817.51,-51.67 851.02,-39.28 876.12,-30"/>
<polygon fill="#63b8ff" stroke="#63b8ff" points="787.03,-59.21 778.87,-65.96 789.46,-65.77 787.03,-59.21"/>
</a>
</g>
</g>
<!-- Node10&#45;&gt;Node5 -->
<g id="edge11_Node000010_Node000005" class="edge">
<title>Node10&#45;&gt;Node5</title>
<g id="a_edge11_Node000010_Node000005"><a xlink:title=" ">
<path fill="none" stroke="#63b8ff" d="M557.43,-55.66C557.56,-46.76 557.69,-37.42 557.8,-30.04"/>
<polygon fill="#63b8ff" stroke="#63b8ff" points="553.93,-55.72 557.28,-65.77 560.93,-55.82 553.93,-55.72"/>
</a>
</g>
</g>
<!-- Node10&#45;&gt;Node6 -->
<g id="edge12_Node000010_Node000006" class="edge">
<title>Node10&#45;&gt;Node6</title>
<g id="a_edge12_Node000010_Node000006"><a xlink:title=" ">
<path fill="none" stroke="#63b8ff" d="M507.75,-61.56C486.18,-51.08 461.61,-39.14 443.04,-30.11"/>
<polygon fill="#63b8ff" stroke="#63b8ff" points="506.26,-64.73 516.79,-65.96 509.32,-58.44 506.26,-64.73"/>
</a>
</g>
</g>
<!-- Node10&#45;&gt;Node8 -->
<g id="edge10_Node000010_Node000008" class="edge">
<title>Node10&#45;&gt;Node8</title>
<g id="a_edge10_Node000010_Node000008"><a xlink:title=" ">
<path fill="none" stroke="#63b8ff" d="M613.87,-62.11C639.78,-51.46 669.58,-39.2 691.95,-30"/>
<polygon fill="#63b8ff" stroke="#63b8ff" points="612.44,-58.92 604.53,-65.96 615.11,-65.39 612.44,-58.92"/>
</a>
</g>
</g>
<!-- Node10&#45;&gt;Node11 -->
<g id="edge13_Node000010_Node000011" class="edge">
<title>Node10&#45;&gt;Node11</title>
<g id="a_edge13_Node000010_Node000011"><a xlink:title=" ">
<path fill="none" stroke="#63b8ff" d="M464.17,-65.93C336.95,-44.83 302.7,-46.99 179,-30 176.06,-29.6 173.06,-29.18 170.04,-28.75"/>
<polygon fill="#63b8ff" stroke="#63b8ff" points="463.87,-69.43 474.31,-67.63 465.03,-62.53 463.87,-69.43"/>
</a>
</g>
</g>
<!-- Node13&#45;&gt;Node10 -->
<g id="edge17_Node000013_Node000010" class="edge">
<title>Node13&#45;&gt;Node10</title>
<g id="a_edge17_Node000013_Node000010"><a xlink:title=" ">
<path fill="none" stroke="#63b8ff" d="M704.79,-139.54C675.28,-129.15 640.75,-116.99 612.5,-107.04"/>
<polygon fill="#63b8ff" stroke="#63b8ff" points="704,-142.97 714.59,-142.99 706.32,-136.37 704,-142.97"/>
</a>
</g>
</g>
<!-- Node14 -->
<g id="Node000014" class="node">
<title>Node14</title>
<g id="a_Node000014"><a xlink:href="olsson__CG__operator_8cpp.html" target="_top" xlink:title=" ">
<polygon fill="white" stroke="#666666" points="1096.5,-101.5 965.5,-101.5 965.5,-71.5 1096.5,-71.5 1096.5,-101.5"/>
<text text-anchor="start" x="973.5" y="-89.5" font-family="Helvetica,sans-Serif" font-size="10.00">source/level_set/olsson</text>
<text text-anchor="middle" x="1031" y="-78.5" font-family="Helvetica,sans-Serif" font-size="10.00">_CG_operator.cpp</text>
</a>
</g>
</g>
<!-- Node13&#45;&gt;Node14 -->
<g id="edge18_Node000013_Node000014" class="edge">
<title>Node13&#45;&gt;Node14</title>
<g id="a_edge18_Node000013_Node000014"><a xlink:title=" ">
<path fill="none" stroke="#63b8ff" d="M838.92,-142.69C883.97,-129.75 941.71,-113.16 982.07,-101.56"/>
<polygon fill="#63b8ff" stroke="#63b8ff" points="837.87,-139.36 829.22,-145.48 839.8,-146.08 837.87,-139.36"/>
</a>
</g>
</g>
</g>
</svg>

<g id="navigator" transform="translate(0 0)" fill="#404254">
  <rect fill="#f2f5e9" fill-opacity="0.5" stroke="#606060" stroke-width=".5" x="0" y="0" width="60" height="60"/>
  <use id="zoomplus" xlink:href="#zoomPlus" x="17" y="9" onmousedown="handleZoom(evt,'in')"/>
  <use id="zoomminus" xlink:href="#zoomMin" x="42" y="9" onmousedown="handleZoom(evt,'out')"/>
  <use id="reset" xlink:href="#resetDef" x="30" y="36" onmousedown="handleReset()"/>
   <use id="arrowup" xlink:href="#arrowUp" x="0" y="0" onmousedown="handlePan(0,-1)"/>
  <use id="arrowright" xlink:href="#arrowRight" x="0" y="0" onmousedown="handlePan(1,0)"/>
  <use id="arrowdown" xlink:href="#arrowDown" x="0" y="0" onmousedown="handlePan(0,1)"/>
  <use id="arrowleft" xlink:href="#arrowLeft" x="0" y="0" onmousedown="handlePan(-1,0)"/>
</g>
<svg viewBox="0 0 15 15" width="100%" height="30px" preserveAspectRatio="xMaxYMin meet">
 <g id="arrow_out" transform="scale(0.3 0.3)">
  <a xlink:href="normal__vector__operator_8hpp__dep__incl_org.svg" target="_base">
   <rect id="button" ry="5" rx="5" y="6" x="6" height="38" width="38"
        fill="#f2f5e9" fill-opacity="0.5" stroke="#606060" stroke-width="1.0"/>
   <path id="arrow"
     d="M 11.500037,31.436501 C 11.940474,20.09759 22.043105,11.32322 32.158766,21.979434 L 37.068811,17.246167 C 37.068811,17.246167 37.088388,32 37.088388,32 L 22.160133,31.978069 C 22.160133,31.978069 26.997745,27.140456 26.997745,27.140456 C 18.528582,18.264221 13.291696,25.230495 11.500037,31.436501 z"
     style="fill:#404040;"/>
  </a>
 </g>
</svg>

<style type='text/css'>
<![CDATA[
[data-mouse-over-selected='false'] { opacity: 0.7; }
[data-mouse-over-selected='true']  { opacity: 1.0; }
]]>
</style>
<script type="application/ecmascript"><![CDATA[
document.addEventListener('DOMContentLoaded', (event) => {
  highlightEdges();
  highlightAdjacentNodes();
});
]]></script>
</svg>
