<?xml version="1.0" encoding="UTF-8" standalone="no"?>
<!DOCTYPE svg PUBLIC "-//W3C//DTD SVG 1.1//EN"
 "http://www.w3.org/Graphics/SVG/1.1/DTD/svg11.dtd">
<!-- Generated by graphviz version 2.43.0 (0)
 -->
<!-- Title: include/meltpooldg/level_set/normal_vector_operation_base.hpp Pages: 1 -->
<svg width="1280pt" height="412pt"
 viewBox="0.00 0.00 1279.50 412.00" xmlns="http://www.w3.org/2000/svg" xmlns:xlink="http://www.w3.org/1999/xlink">
<g id="graph0" class="graph" transform="scale(1 1) rotate(0) translate(4 408)">
<title>include/meltpooldg/level_set/normal_vector_operation_base.hpp</title>
<!-- Node1 -->
<g id="Node000001" class="node">
<title>Node1</title>
<g id="a_Node000001"><a xlink:title=" ">
<polygon fill="#999999" stroke="#666666" points="525,-404 388,-404 388,-363 525,-363 525,-404"/>
<text text-anchor="start" x="396" y="-392" font-family="Helvetica,sans-Serif" font-size="10.00">include/meltpooldg</text>
<text text-anchor="start" x="396" y="-381" font-family="Helvetica,sans-Serif" font-size="10.00">/level_set/normal_vector</text>
<text text-anchor="middle" x="456.5" y="-370" font-family="Helvetica,sans-Serif" font-size="10.00">_operation_base.hpp</text>
</a>
</g>
</g>
<!-- Node2 -->
<g id="Node000002" class="node">
<title>Node2</title>
<g id="a_Node000002"><a xlink:href="normal__vector__DG__operation_8hpp.html" target="_top" xlink:title=" ">
<polygon fill="white" stroke="#666666" points="369,-327 232,-327 232,-286 369,-286 369,-327"/>
<text text-anchor="start" x="240" y="-315" font-family="Helvetica,sans-Serif" font-size="10.00">include/meltpooldg</text>
<text text-anchor="start" x="240" y="-304" font-family="Helvetica,sans-Serif" font-size="10.00">/level_set/normal_vector</text>
<text text-anchor="middle" x="300.5" y="-293" font-family="Helvetica,sans-Serif" font-size="10.00">_DG_operation.hpp</text>
</a>
</g>
</g>
<!-- Node1&#45;&gt;Node2 -->
<g id="edge1_Node000001_Node000002" class="edge">
<title>Node1&#45;&gt;Node2</title>
<g id="a_edge1_Node000001_Node000002"><a xlink:title=" ">
<path fill="none" stroke="#63b8ff" d="M406.76,-358.59C385.59,-348.41 361.21,-336.69 341.15,-327.04"/>
<polygon fill="#63b8ff" stroke="#63b8ff" points="405.39,-361.81 415.92,-362.99 408.42,-355.5 405.39,-361.81"/>
</a>
</g>
</g>
<!-- Node11 -->
<g id="Node000011" class="node">
<title>Node11</title>
<g id="a_Node000011"><a xlink:href="normal__vector__operation_8hpp.html" target="_top" xlink:title=" ">
<polygon fill="white" stroke="#666666" points="816,-327 679,-327 679,-286 816,-286 816,-327"/>
<text text-anchor="start" x="687" y="-315" font-family="Helvetica,sans-Serif" font-size="10.00">include/meltpooldg</text>
<text text-anchor="start" x="687" y="-304" font-family="Helvetica,sans-Serif" font-size="10.00">/level_set/normal_vector</text>
<text text-anchor="middle" x="747.5" y="-293" font-family="Helvetica,sans-Serif" font-size="10.00">_operation.hpp</text>
</a>
</g>
</g>
<!-- Node1&#45;&gt;Node11 -->
<g id="edge11_Node000001_Node000011" class="edge">
<title>Node1&#45;&gt;Node11</title>
<g id="a_edge11_Node000001_Node000011"><a xlink:title=" ">
<path fill="none" stroke="#63b8ff" d="M534.8,-362.32C579.74,-350.74 635.65,-336.33 678.86,-325.19"/>
<polygon fill="#63b8ff" stroke="#63b8ff" points="533.9,-358.94 525.09,-364.82 535.65,-365.71 533.9,-358.94"/>
</a>
</g>
</g>
<!-- Node3 -->
<g id="Node000003" class="node">
<title>Node3</title>
<g id="a_Node000003"><a xlink:href="level__set__DG__operation_8hpp.html" target="_top" xlink:title=" ">
<polygon fill="white" stroke="#666666" points="137,-173 26,-173 26,-132 137,-132 137,-173"/>
<text text-anchor="start" x="34" y="-161" font-family="Helvetica,sans-Serif" font-size="10.00">include/meltpooldg</text>
<text text-anchor="start" x="34" y="-150" font-family="Helvetica,sans-Serif" font-size="10.00">/level_set/level_set</text>
<text text-anchor="middle" x="81.5" y="-139" font-family="Helvetica,sans-Serif" font-size="10.00">_DG_operation.hpp</text>
</a>
</g>
</g>
<!-- Node2&#45;&gt;Node3 -->
<g id="edge2_Node000002_Node000003" class="edge">
<title>Node2&#45;&gt;Node3</title>
<g id="a_edge2_Node000002_Node000003"><a xlink:title=" ">
<path fill="none" stroke="#63b8ff" d="M221.88,-296.33C187.56,-288.78 148.96,-275.04 121.5,-250 99.25,-229.72 89.04,-195.16 84.61,-173.37"/>
<polygon fill="#63b8ff" stroke="#63b8ff" points="221.4,-299.8 231.9,-298.38 222.81,-292.94 221.4,-299.8"/>
</a>
</g>
</g>
<!-- Node7 -->
<g id="Node000007" class="node">
<title>Node7</title>
<g id="a_Node000007"><a xlink:href="reinitialization__hyperbolic__DG__operation_8hpp.html" target="_top" xlink:title=" ">
<polygon fill="white" stroke="#666666" points="296.5,-250 130.5,-250 130.5,-209 296.5,-209 296.5,-250"/>
<text text-anchor="start" x="138.5" y="-238" font-family="Helvetica,sans-Serif" font-size="10.00">include/meltpooldg</text>
<text text-anchor="start" x="138.5" y="-227" font-family="Helvetica,sans-Serif" font-size="10.00">/level_set/reinitialization</text>
<text text-anchor="middle" x="213.5" y="-216" font-family="Helvetica,sans-Serif" font-size="10.00">_hyperbolic_DG_operation.hpp</text>
</a>
</g>
</g>
<!-- Node2&#45;&gt;Node7 -->
<g id="edge6_Node000002_Node000007" class="edge">
<title>Node2&#45;&gt;Node7</title>
<g id="a_edge6_Node000002_Node000007"><a xlink:title=" ">
<path fill="none" stroke="#63b8ff" d="M269.84,-279.07C258.77,-269.52 246.48,-258.93 236.21,-250.07"/>
<polygon fill="#63b8ff" stroke="#63b8ff" points="267.78,-281.92 277.64,-285.79 272.35,-276.61 267.78,-281.92"/>
</a>
</g>
</g>
<!-- Node10 -->
<g id="Node000010" class="node">
<title>Node10</title>
<g id="a_Node000010"><a xlink:href="normal__vector__DG__operation_8cpp.html" target="_top" xlink:title=" ">
<polygon fill="white" stroke="#666666" points="460,-244.5 315,-244.5 315,-214.5 460,-214.5 460,-244.5"/>
<text text-anchor="start" x="323" y="-232.5" font-family="Helvetica,sans-Serif" font-size="10.00">source/level_set/normal</text>
<text text-anchor="middle" x="387.5" y="-221.5" font-family="Helvetica,sans-Serif" font-size="10.00">_vector_DG_operation.cpp</text>
</a>
</g>
</g>
<!-- Node2&#45;&gt;Node10 -->
<g id="edge10_Node000002_Node000010" class="edge">
<title>Node2&#45;&gt;Node10</title>
<g id="a_edge10_Node000002_Node000010"><a xlink:title=" ">
<path fill="none" stroke="#63b8ff" d="M331.04,-279.17C344.53,-267.55 359.84,-254.34 371.11,-244.63"/>
<polygon fill="#63b8ff" stroke="#63b8ff" points="328.65,-276.61 323.36,-285.79 333.22,-281.92 328.65,-276.61"/>
</a>
</g>
</g>
<!-- Node4 -->
<g id="Node000004" class="node">
<title>Node4</title>
<g id="a_Node000004"><a xlink:href="level__set__application_8hpp.html" target="_top" xlink:title=" ">
<polygon fill="white" stroke="#666666" points="163,-96 0,-96 0,-66 163,-66 163,-96"/>
<text text-anchor="start" x="8" y="-84" font-family="Helvetica,sans-Serif" font-size="10.00">applications/mp&#45;level</text>
<text text-anchor="middle" x="81.5" y="-73" font-family="Helvetica,sans-Serif" font-size="10.00">&#45;set/level_set_application.hpp</text>
</a>
</g>
</g>
<!-- Node3&#45;&gt;Node4 -->
<g id="edge3_Node000003_Node000004" class="edge">
<title>Node3&#45;&gt;Node4</title>
<g id="a_edge3_Node000003_Node000004"><a xlink:title=" ">
<path fill="none" stroke="#63b8ff" d="M81.5,-121.66C81.5,-112.76 81.5,-103.42 81.5,-96.04"/>
<polygon fill="#63b8ff" stroke="#63b8ff" points="78,-121.77 81.5,-131.77 85,-121.77 78,-121.77"/>
</a>
</g>
</g>
<!-- Node6 -->
<g id="Node000006" class="node">
<title>Node6</title>
<g id="a_Node000006"><a xlink:href="level__set__DG__operation_8cpp.html" target="_top" xlink:title=" ">
<polygon fill="white" stroke="#666666" points="982,-96 853,-96 853,-66 982,-66 982,-96"/>
<text text-anchor="start" x="861" y="-84" font-family="Helvetica,sans-Serif" font-size="10.00">source/level_set/level</text>
<text text-anchor="middle" x="917.5" y="-73" font-family="Helvetica,sans-Serif" font-size="10.00">_set_DG_operation.cpp</text>
</a>
</g>
</g>
<!-- Node3&#45;&gt;Node6 -->
<g id="edge5_Node000003_Node000006" class="edge">
<title>Node3&#45;&gt;Node6</title>
<g id="a_edge5_Node000003_Node000006"><a xlink:title=" ">
<path fill="none" stroke="#63b8ff" d="M147.55,-132.05C413.2,-85.31 721.42,-80.86 852.94,-81.28"/>
<polygon fill="#63b8ff" stroke="#63b8ff" points="146.55,-128.67 137.32,-133.88 147.78,-135.57 146.55,-128.67"/>
</a>
</g>
</g>
<!-- Node5 -->
<g id="Node000005" class="node">
<title>Node5</title>
<g id="a_Node000005"><a xlink:href="level__set__application_8cpp.html" target="_top" xlink:title=" ">
<polygon fill="white" stroke="#666666" points="162.5,-30 0.5,-30 0.5,0 162.5,0 162.5,-30"/>
<text text-anchor="start" x="8.5" y="-18" font-family="Helvetica,sans-Serif" font-size="10.00">applications/mp&#45;level</text>
<text text-anchor="middle" x="81.5" y="-7" font-family="Helvetica,sans-Serif" font-size="10.00">&#45;set/level_set_application.cpp</text>
</a>
</g>
</g>
<!-- Node4&#45;&gt;Node5 -->
<g id="edge4_Node000004_Node000005" class="edge">
<title>Node4&#45;&gt;Node5</title>
<g id="a_edge4_Node000004_Node000005"><a xlink:title=" ">
<path fill="none" stroke="#63b8ff" d="M81.5,-55.54C81.5,-46.96 81.5,-37.61 81.5,-30.16"/>
<polygon fill="#63b8ff" stroke="#63b8ff" points="78,-55.8 81.5,-65.8 85,-55.8 78,-55.8"/>
</a>
</g>
</g>
<!-- Node7&#45;&gt;Node3 -->
<g id="edge8_Node000007_Node000003" class="edge">
<title>Node7&#45;&gt;Node3</title>
<g id="a_edge8_Node000007_Node000003"><a xlink:title=" ">
<path fill="none" stroke="#63b8ff" d="M170.24,-203.92C152.68,-193.95 132.69,-182.58 116.12,-173.17"/>
<polygon fill="#63b8ff" stroke="#63b8ff" points="168.74,-207.09 179.16,-208.99 172.2,-201.01 168.74,-207.09"/>
</a>
</g>
</g>
<!-- Node8 -->
<g id="Node000008" class="node">
<title>Node8</title>
<g id="a_Node000008"><a xlink:href="reinitialization__application_8cpp.html" target="_top" xlink:title=" ">
<polygon fill="white" stroke="#666666" points="701.5,-167.5 531.5,-167.5 531.5,-137.5 701.5,-137.5 701.5,-167.5"/>
<text text-anchor="start" x="539.5" y="-155.5" font-family="Helvetica,sans-Serif" font-size="10.00">applications/mp&#45;reinit</text>
<text text-anchor="middle" x="616.5" y="-144.5" font-family="Helvetica,sans-Serif" font-size="10.00">/reinitialization_application.cpp</text>
</a>
</g>
</g>
<!-- Node7&#45;&gt;Node8 -->
<g id="edge7_Node000007_Node000008" class="edge">
<title>Node7&#45;&gt;Node8</title>
<g id="a_edge7_Node000007_Node000008"><a xlink:title=" ">
<path fill="none" stroke="#63b8ff" d="M306.2,-209.06C306.3,-209.04 306.4,-209.02 306.5,-209 402.15,-191.01 426.83,-190.89 522.5,-173 531.59,-171.3 541.16,-169.42 550.57,-167.52"/>
<polygon fill="#63b8ff" stroke="#63b8ff" points="305.78,-205.57 296.62,-210.89 307.1,-212.45 305.78,-205.57"/>
</a>
</g>
</g>
<!-- Node9 -->
<g id="Node000009" class="node">
<title>Node9</title>
<g id="a_Node000009"><a xlink:href="reinitialization__hyperbolic__DG__operation_8cpp.html" target="_top" xlink:title=" ">
<polygon fill="white" stroke="#666666" points="325.5,-167.5 155.5,-167.5 155.5,-137.5 325.5,-137.5 325.5,-167.5"/>
<text text-anchor="start" x="163.5" y="-155.5" font-family="Helvetica,sans-Serif" font-size="10.00">source/level_set/reinitialization</text>
<text text-anchor="middle" x="240.5" y="-144.5" font-family="Helvetica,sans-Serif" font-size="10.00">_hyperbolic_DG_operation.cpp</text>
</a>
</g>
</g>
<!-- Node7&#45;&gt;Node9 -->
<g id="edge9_Node000007_Node000009" class="edge">
<title>Node7&#45;&gt;Node9</title>
<g id="a_edge9_Node000007_Node000009"><a xlink:title=" ">
<path fill="none" stroke="#63b8ff" d="M224.02,-199.27C227.9,-188.49 232.13,-176.75 235.33,-167.86"/>
<polygon fill="#63b8ff" stroke="#63b8ff" points="220.69,-198.2 220.59,-208.79 227.27,-200.57 220.69,-198.2"/>
</a>
</g>
</g>
<!-- Node12 -->
<g id="Node000012" class="node">
<title>Node12</title>
<g id="a_Node000012"><a xlink:href="curvature__operation_8hpp.html" target="_top" xlink:title=" ">
<polygon fill="white" stroke="#666666" points="1137,-250 1024,-250 1024,-209 1137,-209 1137,-250"/>
<text text-anchor="start" x="1032" y="-238" font-family="Helvetica,sans-Serif" font-size="10.00">include/meltpooldg</text>
<text text-anchor="start" x="1032" y="-227" font-family="Helvetica,sans-Serif" font-size="10.00">/level_set/curvature</text>
<text text-anchor="middle" x="1080.5" y="-216" font-family="Helvetica,sans-Serif" font-size="10.00">_operation.hpp</text>
</a>
</g>
</g>
<!-- Node11&#45;&gt;Node12 -->
<g id="edge12_Node000011_Node000012" class="edge">
<title>Node11&#45;&gt;Node12</title>
<g id="a_edge12_Node000011_Node000012"><a xlink:title=" ">
<path fill="none" stroke="#63b8ff" d="M826.08,-288.6C875.84,-277.81 941.51,-263.37 999.5,-250 1007.39,-248.18 1015.71,-246.22 1023.88,-244.28"/>
<polygon fill="#63b8ff" stroke="#63b8ff" points="825.06,-285.24 816.03,-290.78 826.55,-292.09 825.06,-285.24"/>
</a>
</g>
</g>
<!-- Node15 -->
<g id="Node000015" class="node">
<title>Node15</title>
<g id="a_Node000015"><a xlink:href="reinitialization__elliptic__operation_8hpp.html" target="_top" xlink:title=" ">
<polygon fill="white" stroke="#666666" points="768,-250 631,-250 631,-209 768,-209 768,-250"/>
<text text-anchor="start" x="639" y="-238" font-family="Helvetica,sans-Serif" font-size="10.00">include/meltpooldg</text>
<text text-anchor="start" x="639" y="-227" font-family="Helvetica,sans-Serif" font-size="10.00">/level_set/reinitialization</text>
<text text-anchor="middle" x="699.5" y="-216" font-family="Helvetica,sans-Serif" font-size="10.00">_elliptic_operation.hpp</text>
</a>
</g>
</g>
<!-- Node11&#45;&gt;Node15 -->
<g id="edge16_Node000011_Node000015" class="edge">
<title>Node11&#45;&gt;Node15</title>
<g id="a_edge16_Node000011_Node000015"><a xlink:title=" ">
<path fill="none" stroke="#63b8ff" d="M729.33,-277.11C723.56,-268.09 717.31,-258.33 712.03,-250.07"/>
<polygon fill="#63b8ff" stroke="#63b8ff" points="726.55,-279.26 734.89,-285.79 732.45,-275.49 726.55,-279.26"/>
</a>
</g>
</g>
<!-- Node17 -->
<g id="Node000017" class="node">
<title>Node17</title>
<g id="a_Node000017"><a xlink:href="reinitialization__hyperbolic__CG__operation_8hpp.html" target="_top" xlink:title=" ">
<polygon fill="white" stroke="#666666" points="990,-250 825,-250 825,-209 990,-209 990,-250"/>
<text text-anchor="start" x="833" y="-238" font-family="Helvetica,sans-Serif" font-size="10.00">include/meltpooldg</text>
<text text-anchor="start" x="833" y="-227" font-family="Helvetica,sans-Serif" font-size="10.00">/level_set/reinitialization</text>
<text text-anchor="middle" x="907.5" y="-216" font-family="Helvetica,sans-Serif" font-size="10.00">_hyperbolic_CG_operation.hpp</text>
</a>
</g>
</g>
<!-- Node11&#45;&gt;Node17 -->
<g id="edge19_Node000011_Node000017" class="edge">
<title>Node11&#45;&gt;Node17</title>
<g id="a_edge19_Node000011_Node000017"><a xlink:title=" ">
<path fill="none" stroke="#63b8ff" d="M798.23,-281.72C820,-271.51 845.14,-259.73 865.81,-250.04"/>
<polygon fill="#63b8ff" stroke="#63b8ff" points="796.69,-278.58 789.12,-285.99 799.66,-284.92 796.69,-278.58"/>
</a>
</g>
</g>
<!-- Node18 -->
<g id="Node000018" class="node">
<title>Node18</title>
<g id="a_Node000018"><a xlink:href="reinitialization__hyperbolic__CG__operation_8cpp.html" target="_top" xlink:title=" ">
<polygon fill="white" stroke="#666666" points="889.5,-167.5 719.5,-167.5 719.5,-137.5 889.5,-137.5 889.5,-167.5"/>
<text text-anchor="start" x="727.5" y="-155.5" font-family="Helvetica,sans-Serif" font-size="10.00">source/level_set/reinitialization</text>
<text text-anchor="middle" x="804.5" y="-144.5" font-family="Helvetica,sans-Serif" font-size="10.00">_hyperbolic_CG_operation.cpp</text>
</a>
</g>
</g>
<!-- Node11&#45;&gt;Node18 -->
<g id="edge25_Node000011_Node000018" class="edge">
<title>Node11&#45;&gt;Node18</title>
<g id="a_edge25_Node000011_Node000018"><a xlink:title=" ">
<path fill="none" stroke="#63b8ff" d="M764.39,-277.17C769.04,-268.63 773.82,-259.1 777.5,-250 788.98,-221.61 797.43,-186.65 801.6,-167.57"/>
<polygon fill="#63b8ff" stroke="#63b8ff" points="761.28,-275.55 759.44,-285.98 767.38,-278.98 761.28,-275.55"/>
</a>
</g>
</g>
<!-- Node19 -->
<g id="Node000019" class="node">
<title>Node19</title>
<g id="a_Node000019"><a xlink:href="normal__vector__operation_8cpp.html" target="_top" xlink:title=" ">
<polygon fill="white" stroke="#666666" points="612.5,-244.5 478.5,-244.5 478.5,-214.5 612.5,-214.5 612.5,-244.5"/>
<text text-anchor="start" x="486.5" y="-232.5" font-family="Helvetica,sans-Serif" font-size="10.00">source/level_set/normal</text>
<text text-anchor="middle" x="545.5" y="-221.5" font-family="Helvetica,sans-Serif" font-size="10.00">_vector_operation.cpp</text>
</a>
</g>
</g>
<!-- Node11&#45;&gt;Node19 -->
<g id="edge24_Node000011_Node000019" class="edge">
<title>Node11&#45;&gt;Node19</title>
<g id="a_edge24_Node000011_Node000019"><a xlink:title=" ">
<path fill="none" stroke="#63b8ff" d="M685.3,-282.41C652.01,-270.05 612.08,-255.22 583.43,-244.58"/>
<polygon fill="#63b8ff" stroke="#63b8ff" points="684.36,-285.79 694.95,-285.99 686.8,-279.23 684.36,-285.79"/>
</a>
</g>
</g>
<!-- Node12&#45;&gt;Node6 -->
<g id="edge14_Node000012_Node000006" class="edge">
<title>Node12&#45;&gt;Node6</title>
<g id="a_edge14_Node000012_Node000006"><a xlink:title=" ">
<path fill="none" stroke="#63b8ff" d="M1088.24,-199.07C1091.87,-178.29 1092.72,-150.9 1078.5,-132 1056.24,-102.42 1016.66,-89.86 982.32,-84.73"/>
<polygon fill="#63b8ff" stroke="#63b8ff" points="1084.79,-198.46 1086.22,-208.96 1091.65,-199.86 1084.79,-198.46"/>
</a>
</g>
</g>
<!-- Node13 -->
<g id="Node000013" class="node">
<title>Node13</title>
<g id="a_Node000013"><a xlink:href="curvature__operation_8cpp.html" target="_top" xlink:title=" ">
<polygon fill="white" stroke="#666666" points="1271.5,-167.5 1125.5,-167.5 1125.5,-137.5 1271.5,-137.5 1271.5,-167.5"/>
<text text-anchor="start" x="1133.5" y="-155.5" font-family="Helvetica,sans-Serif" font-size="10.00">source/level_set/curvature</text>
<text text-anchor="middle" x="1198.5" y="-144.5" font-family="Helvetica,sans-Serif" font-size="10.00">_operation.cpp</text>
</a>
</g>
</g>
<!-- Node12&#45;&gt;Node13 -->
<g id="edge13_Node000012_Node000013" class="edge">
<title>Node12&#45;&gt;Node13</title>
<g id="a_edge13_Node000012_Node000013"><a xlink:title=" ">
<path fill="none" stroke="#63b8ff" d="M1119.84,-203.5C1138.57,-191.59 1160.29,-177.78 1176.16,-167.7"/>
<polygon fill="#63b8ff" stroke="#63b8ff" points="1117.76,-200.67 1111.2,-208.99 1121.51,-206.58 1117.76,-200.67"/>
</a>
</g>
</g>
<!-- Node14 -->
<g id="Node000014" class="node">
<title>Node14</title>
<g id="a_Node000014"><a xlink:href="level__set__operation_8cpp.html" target="_top" xlink:title=" ">
<polygon fill="white" stroke="#666666" points="1069,-167.5 946,-167.5 946,-137.5 1069,-137.5 1069,-167.5"/>
<text text-anchor="start" x="954" y="-155.5" font-family="Helvetica,sans-Serif" font-size="10.00">source/level_set/level</text>
<text text-anchor="middle" x="1007.5" y="-144.5" font-family="Helvetica,sans-Serif" font-size="10.00">_set_operation.cpp</text>
</a>
</g>
</g>
<!-- Node12&#45;&gt;Node14 -->
<g id="edge15_Node000012_Node000014" class="edge">
<title>Node12&#45;&gt;Node14</title>
<g id="a_edge15_Node000012_Node000014"><a xlink:title=" ">
<path fill="none" stroke="#63b8ff" d="M1054.29,-201.57C1043.21,-190.18 1030.75,-177.39 1021.48,-167.86"/>
<polygon fill="#63b8ff" stroke="#63b8ff" points="1051.84,-204.07 1061.32,-208.79 1056.85,-199.19 1051.84,-204.07"/>
</a>
</g>
</g>
<!-- Node15&#45;&gt;Node8 -->
<g id="edge17_Node000015_Node000008" class="edge">
<title>Node15&#45;&gt;Node8</title>
<g id="a_edge17_Node000015_Node000008"><a xlink:title=" ">
<path fill="none" stroke="#63b8ff" d="M670,-201.84C657.22,-190.3 642.79,-177.25 632.13,-167.63"/>
<polygon fill="#63b8ff" stroke="#63b8ff" points="667.93,-204.69 677.69,-208.79 672.62,-199.49 667.93,-204.69"/>
</a>
</g>
</g>
<!-- Node16 -->
<g id="Node000016" class="node">
<title>Node16</title>
<g id="a_Node000016"><a xlink:href="reinitialization__elliptic__operation_8cpp.html" target="_top" xlink:title=" ">
<polygon fill="white" stroke="#666666" points="513.5,-167.5 343.5,-167.5 343.5,-137.5 513.5,-137.5 513.5,-167.5"/>
<text text-anchor="start" x="351.5" y="-155.5" font-family="Helvetica,sans-Serif" font-size="10.00">source/level_set/reinitialization</text>
<text text-anchor="middle" x="428.5" y="-144.5" font-family="Helvetica,sans-Serif" font-size="10.00">_elliptic_operation.cpp</text>
</a>
</g>
</g>
<!-- Node15&#45;&gt;Node16 -->
<g id="edge18_Node000015_Node000016" class="edge">
<title>Node15&#45;&gt;Node16</title>
<g id="a_edge18_Node000015_Node000016"><a xlink:title=" ">
<path fill="none" stroke="#63b8ff" d="M620.89,-206.75C575.23,-194.11 519.03,-178.56 479.19,-167.53"/>
<polygon fill="#63b8ff" stroke="#63b8ff" points="620.19,-210.18 630.76,-209.48 622.06,-203.44 620.19,-210.18"/>
</a>
</g>
</g>
<!-- Node17&#45;&gt;Node6 -->
<g id="edge21_Node000017_Node000006" class="edge">
<title>Node17&#45;&gt;Node6</title>
<g id="a_edge21_Node000017_Node000006"><a xlink:title=" ">
<path fill="none" stroke="#63b8ff" d="M909.55,-198.44C911.68,-167.21 914.93,-119.68 916.53,-96.18"/>
<polygon fill="#63b8ff" stroke="#63b8ff" points="906.04,-198.53 908.85,-208.74 913.02,-199 906.04,-198.53"/>
</a>
</g>
</g>
<!-- Node17&#45;&gt;Node8 -->
<g id="edge20_Node000017_Node000008" class="edge">
<title>Node17&#45;&gt;Node8</title>
<g id="a_edge20_Node000017_Node000008"><a xlink:title=" ">
<path fill="none" stroke="#63b8ff" d="M821.89,-206.44C773.16,-193.88 713.56,-178.52 671.14,-167.58"/>
<polygon fill="#63b8ff" stroke="#63b8ff" points="821.25,-209.88 831.8,-208.99 822.99,-203.11 821.25,-209.88"/>
</a>
</g>
</g>
<!-- Node17&#45;&gt;Node14 -->
<g id="edge22_Node000017_Node000014" class="edge">
<title>Node17&#45;&gt;Node14</title>
<g id="a_edge22_Node000017_Node000014"><a xlink:title=" ">
<path fill="none" stroke="#63b8ff" d="M941.92,-202.69C957.54,-190.97 975.43,-177.56 988.57,-167.7"/>
<polygon fill="#63b8ff" stroke="#63b8ff" points="939.41,-200.19 933.51,-208.99 943.61,-205.79 939.41,-200.19"/>
</a>
</g>
</g>
<!-- Node17&#45;&gt;Node18 -->
<g id="edge23_Node000017_Node000018" class="edge">
<title>Node17&#45;&gt;Node18</title>
<g id="a_edge23_Node000017_Node000018"><a xlink:title=" ">
<path fill="none" stroke="#63b8ff" d="M872.5,-203.01C856.3,-191.22 837.66,-177.65 824,-167.7"/>
<polygon fill="#63b8ff" stroke="#63b8ff" points="870.56,-205.93 880.71,-208.99 874.68,-200.27 870.56,-205.93"/>
</a>
</g>
</g>
</g>
</svg>
