<?xml version="1.0" encoding="UTF-8" standalone="no"?>
<!DOCTYPE svg PUBLIC "-//W3C//DTD SVG 1.1//EN"
 "http://www.w3.org/Graphics/SVG/1.1/DTD/svg11.dtd">
<!-- Generated by graphviz version 2.43.0 (0)
 -->
<!-- Title: include/meltpooldg/level_set/normal_vector_operation_base.hpp Pages: 1 -->
<!--zoomable 412 -->

<svg id="main" version="1.1" xmlns="http://www.w3.org/2000/svg" xmlns:xlink="http://www.w3.org/1999/xlink" xml:space="preserve" onload="init(evt)">
<style type="text/css"><![CDATA[
.node, .edge {opacity: 0.7;}
.node.selected, .edge.selected {opacity: 1;}
.edge:hover path { stroke: red; }
.edge:hover polygon { stroke: red; fill: red; }
]]></style>

<defs>
  <circle id="rim" cx="0" cy="0" r="7"/>
  <circle id="rim2" cx="0" cy="0" r="3.5"/>
  <g id="zoomPlus">
    <use xlink:href="#rim" fill="#404040"><set attributeName="fill" to="#808080" begin="zoomplus.mouseover" end="zoomplus.mouseout"/></use>
    <path d="M-4,0h8M0,-4v8" fill="none" stroke="white" stroke-width="1.5" pointer-events="none"/>
  </g>
  <g id="zoomMin">
    <use xlink:href="#rim" fill="#404040"><set attributeName="fill" to="#808080" begin="zoomminus.mouseover" end="zoomminus.mouseout"/></use>
    <path d="M-4,0h8" fill="none" stroke="white" stroke-width="1.5" pointer-events="none"/>
  </g>
  <g id="arrowUp" transform="translate(30 24)">
    <use xlink:href="#rim"/>
    <path pointer-events="none" fill="none" stroke="white" stroke-width="1.5" d="M0,-3.0v7 M-2.5,-0.5L0,-3.0L2.5,-0.5"/>
  </g>
  <g id="arrowRight" transform="rotate(90) translate(36 -43)">
    <use xlink:href="#rim"/>
    <path pointer-events="none" fill="none" stroke="white" stroke-width="1.5" d="M0,-3.0v7 M-2.5,-0.5L0,-3.0L2.5,-0.5"/>
  </g>
  <g id="arrowDown" transform="rotate(180) translate(-30 -48)">
    <use xlink:href="#rim"/>
    <path pointer-events="none" fill="none" stroke="white" stroke-width="1.5" d="M0,-3.0v7 M-2.5,-0.5L0,-3.0L2.5,-0.5"/>
  </g>
  <g id="arrowLeft" transform="rotate(270) translate(-36 17)">
    <use xlink:href="#rim"/>
    <path pointer-events="none" fill="none" stroke="white" stroke-width="1.5" d="M0,-3.0v7 M-2.5,-0.5L0,-3.0L2.5,-0.5"/>
  </g>
  <g id="resetDef">
    <use xlink:href="#rim2" fill="#404040"><set attributeName="fill" to="#808080" begin="reset.mouseover" end="reset.mouseout"/></use>
  </g>
</defs>
<script type="application/ecmascript">
var viewWidth = 1305;
var viewHeight = 412;
var sectionId = 'dynsection-1';
</script>
<script type="application/ecmascript" xlink:href="svg.min.js"/>
<svg id="graph" class="graph">
<g id="viewport">
<title>include/meltpooldg/level_set/normal_vector_operation_base.hpp</title>
<!-- Node1 -->
<g id="Node000001" class="node">
<title>Node1</title>
<g id="a_Node000001"><a xlink:title=" ">
<polygon fill="#999999" stroke="#666666" points="419,-404 282,-404 282,-363 419,-363 419,-404"/>
<text text-anchor="start" x="290" y="-392" font-family="Helvetica,sans-Serif" font-size="10.00">include/meltpooldg</text>
<text text-anchor="start" x="290" y="-381" font-family="Helvetica,sans-Serif" font-size="10.00">/level_set/normal_vector</text>
<text text-anchor="middle" x="350.5" y="-370" font-family="Helvetica,sans-Serif" font-size="10.00">_operation_base.hpp</text>
</a>
</g>
</g>
<!-- Node2 -->
<g id="Node000002" class="node">
<title>Node2</title>
<g id="a_Node000002"><a xlink:href="normal__vector__DG__operation_8hpp.html" target="_top" xlink:title=" ">
<polygon fill="white" stroke="#666666" points="298,-327 161,-327 161,-286 298,-286 298,-327"/>
<text text-anchor="start" x="169" y="-315" font-family="Helvetica,sans-Serif" font-size="10.00">include/meltpooldg</text>
<text text-anchor="start" x="169" y="-304" font-family="Helvetica,sans-Serif" font-size="10.00">/level_set/normal_vector</text>
<text text-anchor="middle" x="229.5" y="-293" font-family="Helvetica,sans-Serif" font-size="10.00">_DG_operation.hpp</text>
</a>
</g>
</g>
<!-- Node1&#45;&gt;Node2 -->
<g id="edge1_Node000001_Node000002" class="edge">
<title>Node1&#45;&gt;Node2</title>
<g id="a_edge1_Node000001_Node000002"><a xlink:title=" ">
<path fill="none" stroke="#63b8ff" d="M310.4,-357.64C294.42,-347.74 276.28,-336.5 261.24,-327.17"/>
<polygon fill="#63b8ff" stroke="#63b8ff" points="308.68,-360.7 319.02,-362.99 312.37,-354.75 308.68,-360.7"/>
</a>
</g>
</g>
<!-- Node11 -->
<g id="Node000011" class="node">
<title>Node11</title>
<g id="a_Node000011"><a xlink:href="normal__vector__operation_8hpp.html" target="_top" xlink:title=" ">
<polygon fill="white" stroke="#666666" points="681,-327 544,-327 544,-286 681,-286 681,-327"/>
<text text-anchor="start" x="552" y="-315" font-family="Helvetica,sans-Serif" font-size="10.00">include/meltpooldg</text>
<text text-anchor="start" x="552" y="-304" font-family="Helvetica,sans-Serif" font-size="10.00">/level_set/normal_vector</text>
<text text-anchor="middle" x="612.5" y="-293" font-family="Helvetica,sans-Serif" font-size="10.00">_operation.hpp</text>
</a>
</g>
</g>
<!-- Node1&#45;&gt;Node11 -->
<g id="edge11_Node000001_Node000011" class="edge">
<title>Node1&#45;&gt;Node11</title>
<g id="a_edge11_Node000001_Node000011"><a xlink:title=" ">
<path fill="none" stroke="#63b8ff" d="M428.35,-360.21C465.17,-349.68 508.72,-337.21 544.23,-327.04"/>
<polygon fill="#63b8ff" stroke="#63b8ff" points="427.3,-356.87 418.65,-362.99 429.23,-363.6 427.3,-356.87"/>
</a>
</g>
</g>
<!-- Node3 -->
<g id="Node000003" class="node">
<title>Node3</title>
<g id="a_Node000003"><a xlink:href="level__set__DG__operation_8hpp.html" target="_top" xlink:title=" ">
<polygon fill="white" stroke="#666666" points="181,-173 70,-173 70,-132 181,-132 181,-173"/>
<text text-anchor="start" x="78" y="-161" font-family="Helvetica,sans-Serif" font-size="10.00">include/meltpooldg</text>
<text text-anchor="start" x="78" y="-150" font-family="Helvetica,sans-Serif" font-size="10.00">/level_set/level_set</text>
<text text-anchor="middle" x="125.5" y="-139" font-family="Helvetica,sans-Serif" font-size="10.00">_DG_operation.hpp</text>
</a>
</g>
</g>
<!-- Node2&#45;&gt;Node3 -->
<g id="edge2_Node000002_Node000003" class="edge">
<title>Node2&#45;&gt;Node3</title>
<g id="a_edge2_Node000002_Node000003"><a xlink:title=" ">
<path fill="none" stroke="#63b8ff" d="M210.37,-277.54C189.73,-247.38 157.38,-200.1 139.16,-173.47"/>
<polygon fill="#63b8ff" stroke="#63b8ff" points="207.58,-279.66 216.12,-285.94 213.36,-275.71 207.58,-279.66"/>
</a>
</g>
</g>
<!-- Node7 -->
<g id="Node000007" class="node">
<title>Node7</title>
<g id="a_Node000007"><a xlink:href="reinitialization__hyperbolic__DG__operation_8hpp.html" target="_top" xlink:title=" ">
<polygon fill="white" stroke="#666666" points="367.5,-250 201.5,-250 201.5,-209 367.5,-209 367.5,-250"/>
<text text-anchor="start" x="209.5" y="-238" font-family="Helvetica,sans-Serif" font-size="10.00">include/meltpooldg</text>
<text text-anchor="start" x="209.5" y="-227" font-family="Helvetica,sans-Serif" font-size="10.00">/level_set/reinitialization</text>
<text text-anchor="middle" x="284.5" y="-216" font-family="Helvetica,sans-Serif" font-size="10.00">_hyperbolic_DG_operation.hpp</text>
</a>
</g>
</g>
<!-- Node2&#45;&gt;Node7 -->
<g id="edge6_Node000002_Node000007" class="edge">
<title>Node2&#45;&gt;Node7</title>
<g id="a_edge6_Node000002_Node000007"><a xlink:title=" ">
<path fill="none" stroke="#63b8ff" d="M249.91,-277.67C256.63,-268.5 263.97,-258.5 270.15,-250.07"/>
<polygon fill="#63b8ff" stroke="#63b8ff" points="247.04,-275.66 243.95,-285.79 252.69,-279.8 247.04,-275.66"/>
</a>
</g>
</g>
<!-- Node10 -->
<g id="Node000010" class="node">
<title>Node10</title>
<g id="a_Node000010"><a xlink:href="normal__vector__DG__operation_8cpp.html" target="_top" xlink:title=" ">
<polygon fill="white" stroke="#666666" points="145,-244.5 0,-244.5 0,-214.5 145,-214.5 145,-244.5"/>
<text text-anchor="start" x="8" y="-232.5" font-family="Helvetica,sans-Serif" font-size="10.00">source/level_set/normal</text>
<text text-anchor="middle" x="72.5" y="-221.5" font-family="Helvetica,sans-Serif" font-size="10.00">_vector_DG_operation.cpp</text>
</a>
</g>
</g>
<!-- Node2&#45;&gt;Node10 -->
<g id="edge10_Node000002_Node000010" class="edge">
<title>Node2&#45;&gt;Node10</title>
<g id="a_edge10_Node000002_Node000010"><a xlink:title=" ">
<path fill="none" stroke="#63b8ff" d="M179.52,-281.62C154.07,-269.47 124,-255.1 102.23,-244.7"/>
<polygon fill="#63b8ff" stroke="#63b8ff" points="178.13,-284.84 188.66,-285.99 181.15,-278.52 178.13,-284.84"/>
</a>
</g>
</g>
<!-- Node4 -->
<g id="Node000004" class="node">
<title>Node4</title>
<g id="a_Node000004"><a xlink:href="level__set__application_8hpp.html" target="_top" xlink:title=" ">
<polygon fill="white" stroke="#666666" points="207,-96 44,-96 44,-66 207,-66 207,-96"/>
<text text-anchor="start" x="52" y="-84" font-family="Helvetica,sans-Serif" font-size="10.00">applications/mp&#45;level</text>
<text text-anchor="middle" x="125.5" y="-73" font-family="Helvetica,sans-Serif" font-size="10.00">&#45;set/level_set_application.hpp</text>
</a>
</g>
</g>
<!-- Node3&#45;&gt;Node4 -->
<g id="edge3_Node000003_Node000004" class="edge">
<title>Node3&#45;&gt;Node4</title>
<g id="a_edge3_Node000003_Node000004"><a xlink:title=" ">
<path fill="none" stroke="#63b8ff" d="M125.5,-121.66C125.5,-112.76 125.5,-103.42 125.5,-96.04"/>
<polygon fill="#63b8ff" stroke="#63b8ff" points="122,-121.77 125.5,-131.77 129,-121.77 122,-121.77"/>
</a>
</g>
</g>
<!-- Node6 -->
<g id="Node000006" class="node">
<title>Node6</title>
<g id="a_Node000006"><a xlink:href="level__set__DG__operation_8cpp.html" target="_top" xlink:title=" ">
<polygon fill="white" stroke="#666666" points="650,-96 521,-96 521,-66 650,-66 650,-96"/>
<text text-anchor="start" x="529" y="-84" font-family="Helvetica,sans-Serif" font-size="10.00">source/level_set/level</text>
<text text-anchor="middle" x="585.5" y="-73" font-family="Helvetica,sans-Serif" font-size="10.00">_set_DG_operation.cpp</text>
</a>
</g>
</g>
<!-- Node3&#45;&gt;Node6 -->
<g id="edge5_Node000003_Node000006" class="edge">
<title>Node3&#45;&gt;Node6</title>
<g id="a_edge5_Node000003_Node000006"><a xlink:title=" ">
<path fill="none" stroke="#63b8ff" d="M190.89,-132.11C312.8,-106.88 444.4,-93.38 520.99,-86.87"/>
<polygon fill="#63b8ff" stroke="#63b8ff" points="190.08,-128.71 181.01,-134.19 191.52,-135.56 190.08,-128.71"/>
</a>
</g>
</g>
<!-- Node5 -->
<g id="Node000005" class="node">
<title>Node5</title>
<g id="a_Node000005"><a xlink:href="level__set__application_8cpp.html" target="_top" xlink:title=" ">
<polygon fill="white" stroke="#666666" points="206.5,-30 44.5,-30 44.5,0 206.5,0 206.5,-30"/>
<text text-anchor="start" x="52.5" y="-18" font-family="Helvetica,sans-Serif" font-size="10.00">applications/mp&#45;level</text>
<text text-anchor="middle" x="125.5" y="-7" font-family="Helvetica,sans-Serif" font-size="10.00">&#45;set/level_set_application.cpp</text>
</a>
</g>
</g>
<!-- Node4&#45;&gt;Node5 -->
<g id="edge4_Node000004_Node000005" class="edge">
<title>Node4&#45;&gt;Node5</title>
<g id="a_edge4_Node000004_Node000005"><a xlink:title=" ">
<path fill="none" stroke="#63b8ff" d="M125.5,-55.54C125.5,-46.96 125.5,-37.61 125.5,-30.16"/>
<polygon fill="#63b8ff" stroke="#63b8ff" points="122,-55.8 125.5,-65.8 129,-55.8 122,-55.8"/>
</a>
</g>
</g>
<!-- Node7&#45;&gt;Node3 -->
<g id="edge8_Node000007_Node000003" class="edge">
<title>Node7&#45;&gt;Node3</title>
<g id="a_edge8_Node000007_Node000003"><a xlink:title=" ">
<path fill="none" stroke="#63b8ff" d="M234.09,-204.72C212.45,-194.51 187.47,-182.73 166.93,-173.04"/>
<polygon fill="#63b8ff" stroke="#63b8ff" points="232.6,-207.89 243.14,-208.99 235.59,-201.56 232.6,-207.89"/>
</a>
</g>
</g>
<!-- Node8 -->
<g id="Node000008" class="node">
<title>Node8</title>
<g id="a_Node000008"><a xlink:href="reinitialization__application_8cpp.html" target="_top" xlink:title=" ">
<polygon fill="white" stroke="#666666" points="783.5,-167.5 613.5,-167.5 613.5,-137.5 783.5,-137.5 783.5,-167.5"/>
<text text-anchor="start" x="621.5" y="-155.5" font-family="Helvetica,sans-Serif" font-size="10.00">applications/mp&#45;reinit</text>
<text text-anchor="middle" x="698.5" y="-144.5" font-family="Helvetica,sans-Serif" font-size="10.00">/reinitialization_application.cpp</text>
</a>
</g>
</g>
<!-- Node7&#45;&gt;Node8 -->
<g id="edge7_Node000007_Node000008" class="edge">
<title>Node7&#45;&gt;Node8</title>
<g id="a_edge7_Node000007_Node000008"><a xlink:title=" ">
<path fill="none" stroke="#63b8ff" d="M377.94,-211.57C451.24,-198.29 552.07,-180.03 620.95,-167.55"/>
<polygon fill="#63b8ff" stroke="#63b8ff" points="377,-208.19 367.78,-213.41 378.24,-215.07 377,-208.19"/>
</a>
</g>
</g>
<!-- Node9 -->
<g id="Node000009" class="node">
<title>Node9</title>
<g id="a_Node000009"><a xlink:href="reinitialization__hyperbolic__DG__operation_8cpp.html" target="_top" xlink:title=" ">
<polygon fill="white" stroke="#666666" points="369.5,-167.5 199.5,-167.5 199.5,-137.5 369.5,-137.5 369.5,-167.5"/>
<text text-anchor="start" x="207.5" y="-155.5" font-family="Helvetica,sans-Serif" font-size="10.00">source/level_set/reinitialization</text>
<text text-anchor="middle" x="284.5" y="-144.5" font-family="Helvetica,sans-Serif" font-size="10.00">_hyperbolic_DG_operation.cpp</text>
</a>
</g>
</g>
<!-- Node7&#45;&gt;Node9 -->
<g id="edge9_Node000007_Node000009" class="edge">
<title>Node7&#45;&gt;Node9</title>
<g id="a_edge9_Node000007_Node000009"><a xlink:title=" ">
<path fill="none" stroke="#63b8ff" d="M284.5,-198.61C284.5,-188.01 284.5,-176.57 284.5,-167.86"/>
<polygon fill="#63b8ff" stroke="#63b8ff" points="281,-198.79 284.5,-208.79 288,-198.79 281,-198.79"/>
</a>
</g>
</g>
<!-- Node12 -->
<g id="Node000012" class="node">
<title>Node12</title>
<g id="a_Node000012"><a xlink:href="curvature__operation_8hpp.html" target="_top" xlink:title=" ">
<polygon fill="white" stroke="#666666" points="1164,-250 1051,-250 1051,-209 1164,-209 1164,-250"/>
<text text-anchor="start" x="1059" y="-238" font-family="Helvetica,sans-Serif" font-size="10.00">include/meltpooldg</text>
<text text-anchor="start" x="1059" y="-227" font-family="Helvetica,sans-Serif" font-size="10.00">/level_set/curvature</text>
<text text-anchor="middle" x="1107.5" y="-216" font-family="Helvetica,sans-Serif" font-size="10.00">_operation.hpp</text>
</a>
</g>
</g>
<!-- Node11&#45;&gt;Node12 -->
<g id="edge12_Node000011_Node000012" class="edge">
<title>Node11&#45;&gt;Node12</title>
<g id="a_edge12_Node000011_Node000012"><a xlink:title=" ">
<path fill="none" stroke="#63b8ff" d="M691.14,-293.58C791.38,-278.4 962.25,-252.51 1050.7,-239.11"/>
<polygon fill="#63b8ff" stroke="#63b8ff" points="690.43,-290.15 681.07,-295.11 691.48,-297.07 690.43,-290.15"/>
</a>
</g>
</g>
<!-- Node15 -->
<g id="Node000015" class="node">
<title>Node15</title>
<g id="a_Node000015"><a xlink:href="reinitialization__elliptic__operation_8hpp.html" target="_top" xlink:title=" ">
<polygon fill="white" stroke="#666666" points="934,-250 797,-250 797,-209 934,-209 934,-250"/>
<text text-anchor="start" x="805" y="-238" font-family="Helvetica,sans-Serif" font-size="10.00">include/meltpooldg</text>
<text text-anchor="start" x="805" y="-227" font-family="Helvetica,sans-Serif" font-size="10.00">/level_set/reinitialization</text>
<text text-anchor="middle" x="865.5" y="-216" font-family="Helvetica,sans-Serif" font-size="10.00">_elliptic_operation.hpp</text>
</a>
</g>
</g>
<!-- Node11&#45;&gt;Node15 -->
<g id="edge16_Node000011_Node000015" class="edge">
<title>Node11&#45;&gt;Node15</title>
<g id="a_edge16_Node000011_Node000015"><a xlink:title=" ">
<path fill="none" stroke="#63b8ff" d="M688.13,-283.08C723.58,-272.57 765.44,-260.16 799.58,-250.04"/>
<polygon fill="#63b8ff" stroke="#63b8ff" points="686.91,-279.79 678.31,-285.99 688.89,-286.5 686.91,-279.79"/>
</a>
</g>
</g>
<!-- Node17 -->
<g id="Node000017" class="node">
<title>Node17</title>
<g id="a_Node000017"><a xlink:href="reinitialization__hyperbolic__CG__operation_8hpp.html" target="_top" xlink:title=" ">
<polygon fill="white" stroke="#666666" points="779,-250 614,-250 614,-209 779,-209 779,-250"/>
<text text-anchor="start" x="622" y="-238" font-family="Helvetica,sans-Serif" font-size="10.00">include/meltpooldg</text>
<text text-anchor="start" x="622" y="-227" font-family="Helvetica,sans-Serif" font-size="10.00">/level_set/reinitialization</text>
<text text-anchor="middle" x="696.5" y="-216" font-family="Helvetica,sans-Serif" font-size="10.00">_hyperbolic_CG_operation.hpp</text>
</a>
</g>
</g>
<!-- Node11&#45;&gt;Node17 -->
<g id="edge20_Node000011_Node000017" class="edge">
<title>Node11&#45;&gt;Node17</title>
<g id="a_edge20_Node000011_Node000017"><a xlink:title=" ">
<path fill="none" stroke="#63b8ff" d="M642.1,-279.07C652.79,-269.52 664.66,-258.93 674.58,-250.07"/>
<polygon fill="#63b8ff" stroke="#63b8ff" points="639.7,-276.52 634.57,-285.79 644.36,-281.75 639.7,-276.52"/>
</a>
</g>
</g>
<!-- Node18 -->
<g id="Node000018" class="node">
<title>Node18</title>
<g id="a_Node000018"><a xlink:href="reinitialization__hyperbolic__CG__operation_8cpp.html" target="_top" xlink:title=" ">
<polygon fill="white" stroke="#666666" points="557.5,-167.5 387.5,-167.5 387.5,-137.5 557.5,-137.5 557.5,-167.5"/>
<text text-anchor="start" x="395.5" y="-155.5" font-family="Helvetica,sans-Serif" font-size="10.00">source/level_set/reinitialization</text>
<text text-anchor="middle" x="472.5" y="-144.5" font-family="Helvetica,sans-Serif" font-size="10.00">_hyperbolic_CG_operation.cpp</text>
</a>
</g>
</g>
<!-- Node11&#45;&gt;Node18 -->
<g id="edge26_Node000011_Node000018" class="edge">
<title>Node11&#45;&gt;Node18</title>
<g id="a_edge26_Node000011_Node000018"><a xlink:title=" ">
<path fill="none" stroke="#63b8ff" d="M534.1,-297.66C503.48,-290.33 471.27,-276.37 452.5,-250 434.74,-225.05 451.6,-187.81 463.34,-167.67"/>
<polygon fill="#63b8ff" stroke="#63b8ff" points="533.46,-301.11 543.97,-299.82 534.95,-294.27 533.46,-301.11"/>
</a>
</g>
</g>
<!-- Node19 -->
<g id="Node000019" class="node">
<title>Node19</title>
<g id="a_Node000019"><a xlink:href="normal__vector__operation_8cpp.html" target="_top" xlink:title=" ">
<polygon fill="white" stroke="#666666" points="595.5,-244.5 461.5,-244.5 461.5,-214.5 595.5,-214.5 595.5,-244.5"/>
<text text-anchor="start" x="469.5" y="-232.5" font-family="Helvetica,sans-Serif" font-size="10.00">source/level_set/normal</text>
<text text-anchor="middle" x="528.5" y="-221.5" font-family="Helvetica,sans-Serif" font-size="10.00">_vector_operation.cpp</text>
</a>
</g>
</g>
<!-- Node11&#45;&gt;Node19 -->
<g id="edge25_Node000011_Node000019" class="edge">
<title>Node11&#45;&gt;Node19</title>
<g id="a_edge25_Node000011_Node000019"><a xlink:title=" ">
<path fill="none" stroke="#63b8ff" d="M582.65,-278.84C569.71,-267.3 555.1,-254.25 544.32,-244.63"/>
<polygon fill="#63b8ff" stroke="#63b8ff" points="580.64,-281.75 590.43,-285.79 585.3,-276.52 580.64,-281.75"/>
</a>
</g>
</g>
<!-- Node12&#45;&gt;Node6 -->
<g id="edge14_Node000012_Node000006" class="edge">
<title>Node12&#45;&gt;Node6</title>
<g id="a_edge14_Node000012_Node000006"><a xlink:title=" ">
<path fill="none" stroke="#63b8ff" d="M1174,-216.82C1240.09,-202.49 1326.26,-174.7 1286.5,-132 1243.65,-85.99 815.34,-81.66 650.08,-81.71"/>
<polygon fill="#63b8ff" stroke="#63b8ff" points="1173.07,-213.44 1164.01,-218.92 1174.51,-220.29 1173.07,-213.44"/>
</a>
</g>
</g>
<!-- Node13 -->
<g id="Node000013" class="node">
<title>Node13</title>
<g id="a_Node000013"><a xlink:href="curvature__operation_8cpp.html" target="_top" xlink:title=" ">
<polygon fill="white" stroke="#666666" points="1277.5,-167.5 1131.5,-167.5 1131.5,-137.5 1277.5,-137.5 1277.5,-167.5"/>
<text text-anchor="start" x="1139.5" y="-155.5" font-family="Helvetica,sans-Serif" font-size="10.00">source/level_set/curvature</text>
<text text-anchor="middle" x="1204.5" y="-144.5" font-family="Helvetica,sans-Serif" font-size="10.00">_operation.cpp</text>
</a>
</g>
</g>
<!-- Node12&#45;&gt;Node13 -->
<g id="edge13_Node000012_Node000013" class="edge">
<title>Node12&#45;&gt;Node13</title>
<g id="a_edge13_Node000012_Node000013"><a xlink:title=" ">
<path fill="none" stroke="#63b8ff" d="M1140.88,-202.69C1156.04,-190.97 1173.39,-177.56 1186.13,-167.7"/>
<polygon fill="#63b8ff" stroke="#63b8ff" points="1138.5,-200.1 1132.73,-208.99 1142.78,-205.64 1138.5,-200.1"/>
</a>
</g>
</g>
<!-- Node14 -->
<g id="Node000014" class="node">
<title>Node14</title>
<g id="a_Node000014"><a xlink:href="level__set__operation_8cpp.html" target="_top" xlink:title=" ">
<polygon fill="white" stroke="#666666" points="925,-167.5 802,-167.5 802,-137.5 925,-137.5 925,-167.5"/>
<text text-anchor="start" x="810" y="-155.5" font-family="Helvetica,sans-Serif" font-size="10.00">source/level_set/level</text>
<text text-anchor="middle" x="863.5" y="-144.5" font-family="Helvetica,sans-Serif" font-size="10.00">_set_operation.cpp</text>
</a>
</g>
</g>
<!-- Node12&#45;&gt;Node14 -->
<g id="edge15_Node000012_Node000014" class="edge">
<title>Node12&#45;&gt;Node14</title>
<g id="a_edge15_Node000012_Node000014"><a xlink:title=" ">
<path fill="none" stroke="#63b8ff" d="M1041.34,-208.16C999.47,-195.29 946.4,-178.98 909.18,-167.54"/>
<polygon fill="#63b8ff" stroke="#63b8ff" points="1040.32,-211.51 1050.91,-211.1 1042.38,-204.82 1040.32,-211.51"/>
</a>
</g>
</g>
<!-- Node15&#45;&gt;Node8 -->
<g id="edge17_Node000015_Node000008" class="edge">
<title>Node15&#45;&gt;Node8</title>
<g id="a_edge17_Node000015_Node000008"><a xlink:title=" ">
<path fill="none" stroke="#63b8ff" d="M812.66,-204.77C785.42,-192.54 753.13,-178.04 729.86,-167.58"/>
<polygon fill="#63b8ff" stroke="#63b8ff" points="811.5,-208.09 822.06,-208.99 814.37,-201.7 811.5,-208.09"/>
</a>
</g>
</g>
<!-- Node15&#45;&gt;Node14 -->
<g id="edge18_Node000015_Node000014" class="edge">
<title>Node15&#45;&gt;Node14</title>
<g id="a_edge18_Node000015_Node000014"><a xlink:title=" ">
<path fill="none" stroke="#63b8ff" d="M864.7,-198.61C864.42,-188.01 864.12,-176.57 863.88,-167.86"/>
<polygon fill="#63b8ff" stroke="#63b8ff" points="861.21,-198.89 864.97,-208.79 868.21,-198.7 861.21,-198.89"/>
</a>
</g>
</g>
<!-- Node16 -->
<g id="Node000016" class="node">
<title>Node16</title>
<g id="a_Node000016"><a xlink:href="reinitialization__elliptic__operation_8cpp.html" target="_top" xlink:title=" ">
<polygon fill="white" stroke="#666666" points="1113.5,-167.5 943.5,-167.5 943.5,-137.5 1113.5,-137.5 1113.5,-167.5"/>
<text text-anchor="start" x="951.5" y="-155.5" font-family="Helvetica,sans-Serif" font-size="10.00">source/level_set/reinitialization</text>
<text text-anchor="middle" x="1028.5" y="-144.5" font-family="Helvetica,sans-Serif" font-size="10.00">_elliptic_operation.cpp</text>
</a>
</g>
</g>
<!-- Node15&#45;&gt;Node16 -->
<g id="edge19_Node000015_Node000016" class="edge">
<title>Node15&#45;&gt;Node16</title>
<g id="a_edge19_Node000015_Node000016"><a xlink:title=" ">
<path fill="none" stroke="#63b8ff" d="M917.08,-204.77C943.66,-192.54 975.18,-178.04 997.89,-167.58"/>
<polygon fill="#63b8ff" stroke="#63b8ff" points="915.52,-201.63 907.9,-208.99 918.45,-207.99 915.52,-201.63"/>
</a>
</g>
</g>
<!-- Node17&#45;&gt;Node6 -->
<g id="edge22_Node000017_Node000006" class="edge">
<title>Node17&#45;&gt;Node6</title>
<g id="a_edge22_Node000017_Node000006"><a xlink:title=" ">
<path fill="none" stroke="#63b8ff" d="M638.68,-203.5C625.74,-195.47 613.27,-185.36 604.5,-173 588.07,-149.83 585.25,-115.51 585.09,-96.32"/>
<polygon fill="#63b8ff" stroke="#63b8ff" points="637.27,-206.73 647.67,-208.74 640.79,-200.68 637.27,-206.73"/>
</a>
</g>
</g>
<!-- Node17&#45;&gt;Node8 -->
<g id="edge21_Node000017_Node000008" class="edge">
<title>Node17&#45;&gt;Node8</title>
<g id="a_edge21_Node000017_Node000008"><a xlink:title=" ">
<path fill="none" stroke="#63b8ff" d="M697.3,-198.61C697.58,-188.01 697.88,-176.57 698.12,-167.86"/>
<polygon fill="#63b8ff" stroke="#63b8ff" points="693.79,-198.7 697.03,-208.79 700.79,-198.89 693.79,-198.7"/>
</a>
</g>
</g>
<!-- Node17&#45;&gt;Node14 -->
<g id="edge23_Node000017_Node000014" class="edge">
<title>Node17&#45;&gt;Node14</title>
<g id="a_edge23_Node000017_Node000014"><a xlink:title=" ">
<path fill="none" stroke="#63b8ff" d="M749.34,-204.77C776.58,-192.54 808.87,-178.04 832.14,-167.58"/>
<polygon fill="#63b8ff" stroke="#63b8ff" points="747.63,-201.7 739.94,-208.99 750.5,-208.09 747.63,-201.7"/>
</a>
</g>
</g>
<!-- Node17&#45;&gt;Node18 -->
<g id="edge24_Node000017_Node000018" class="edge">
<title>Node17&#45;&gt;Node18</title>
<g id="a_edge24_Node000017_Node000018"><a xlink:title=" ">
<path fill="none" stroke="#63b8ff" d="M628.48,-205.73C591.37,-193.3 546.6,-178.31 514.56,-167.58"/>
<polygon fill="#63b8ff" stroke="#63b8ff" points="627.64,-209.13 638.23,-208.99 629.86,-202.5 627.64,-209.13"/>
</a>
</g>
</g>
</g>
</svg>

<g id="navigator" transform="translate(0 0)" fill="#404254">
  <rect fill="#f2f5e9" fill-opacity="0.5" stroke="#606060" stroke-width=".5" x="0" y="0" width="60" height="60"/>
  <use id="zoomplus" xlink:href="#zoomPlus" x="17" y="9" onmousedown="handleZoom(evt,'in')"/>
  <use id="zoomminus" xlink:href="#zoomMin" x="42" y="9" onmousedown="handleZoom(evt,'out')"/>
  <use id="reset" xlink:href="#resetDef" x="30" y="36" onmousedown="handleReset()"/>
   <use id="arrowup" xlink:href="#arrowUp" x="0" y="0" onmousedown="handlePan(0,-1)"/>
  <use id="arrowright" xlink:href="#arrowRight" x="0" y="0" onmousedown="handlePan(1,0)"/>
  <use id="arrowdown" xlink:href="#arrowDown" x="0" y="0" onmousedown="handlePan(0,1)"/>
  <use id="arrowleft" xlink:href="#arrowLeft" x="0" y="0" onmousedown="handlePan(-1,0)"/>
</g>
<svg viewBox="0 0 15 15" width="100%" height="30px" preserveAspectRatio="xMaxYMin meet">
 <g id="arrow_out" transform="scale(0.3 0.3)">
  <a xlink:href="normal__vector__operation__base_8hpp__dep__incl_org.svg" target="_base">
   <rect id="button" ry="5" rx="5" y="6" x="6" height="38" width="38"
        fill="#f2f5e9" fill-opacity="0.5" stroke="#606060" stroke-width="1.0"/>
   <path id="arrow"
     d="M 11.500037,31.436501 C 11.940474,20.09759 22.043105,11.32322 32.158766,21.979434 L 37.068811,17.246167 C 37.068811,17.246167 37.088388,32 37.088388,32 L 22.160133,31.978069 C 22.160133,31.978069 26.997745,27.140456 26.997745,27.140456 C 18.528582,18.264221 13.291696,25.230495 11.500037,31.436501 z"
     style="fill:#404040;"/>
  </a>
 </g>
</svg>

<style type='text/css'>
<![CDATA[
[data-mouse-over-selected='false'] { opacity: 0.7; }
[data-mouse-over-selected='true']  { opacity: 1.0; }
]]>
</style>
<script type="application/ecmascript"><![CDATA[
document.addEventListener('DOMContentLoaded', (event) => {
  highlightEdges();
  highlightAdjacentNodes();
});
]]></script>
</svg>
