<?xml version="1.0" encoding="UTF-8" standalone="no"?>
<!DOCTYPE svg PUBLIC "-//W3C//DTD SVG 1.1//EN"
 "http://www.w3.org/Graphics/SVG/1.1/DTD/svg11.dtd">
<!-- Generated by graphviz version 2.43.0 (0)
 -->
<!-- Title: include/meltpooldg/level_set/normal_vector_operation.hpp Pages: 1 -->
<!--zoomable 192 -->

<svg id="main" version="1.1" xmlns="http://www.w3.org/2000/svg" xmlns:xlink="http://www.w3.org/1999/xlink" xml:space="preserve" onload="init(evt)">
<style type="text/css"><![CDATA[
.node, .edge {opacity: 0.7;}
.node.selected, .edge.selected {opacity: 1;}
.edge:hover path { stroke: red; }
.edge:hover polygon { stroke: red; fill: red; }
]]></style>

<defs>
  <circle id="rim" cx="0" cy="0" r="7"/>
  <circle id="rim2" cx="0" cy="0" r="3.5"/>
  <g id="zoomPlus">
    <use xlink:href="#rim" fill="#404040"><set attributeName="fill" to="#808080" begin="zoomplus.mouseover" end="zoomplus.mouseout"/></use>
    <path d="M-4,0h8M0,-4v8" fill="none" stroke="white" stroke-width="1.5" pointer-events="none"/>
  </g>
  <g id="zoomMin">
    <use xlink:href="#rim" fill="#404040"><set attributeName="fill" to="#808080" begin="zoomminus.mouseover" end="zoomminus.mouseout"/></use>
    <path d="M-4,0h8" fill="none" stroke="white" stroke-width="1.5" pointer-events="none"/>
  </g>
  <g id="arrowUp" transform="translate(30 24)">
    <use xlink:href="#rim"/>
    <path pointer-events="none" fill="none" stroke="white" stroke-width="1.5" d="M0,-3.0v7 M-2.5,-0.5L0,-3.0L2.5,-0.5"/>
  </g>
  <g id="arrowRight" transform="rotate(90) translate(36 -43)">
    <use xlink:href="#rim"/>
    <path pointer-events="none" fill="none" stroke="white" stroke-width="1.5" d="M0,-3.0v7 M-2.5,-0.5L0,-3.0L2.5,-0.5"/>
  </g>
  <g id="arrowDown" transform="rotate(180) translate(-30 -48)">
    <use xlink:href="#rim"/>
    <path pointer-events="none" fill="none" stroke="white" stroke-width="1.5" d="M0,-3.0v7 M-2.5,-0.5L0,-3.0L2.5,-0.5"/>
  </g>
  <g id="arrowLeft" transform="rotate(270) translate(-36 17)">
    <use xlink:href="#rim"/>
    <path pointer-events="none" fill="none" stroke="white" stroke-width="1.5" d="M0,-3.0v7 M-2.5,-0.5L0,-3.0L2.5,-0.5"/>
  </g>
  <g id="resetDef">
    <use xlink:href="#rim2" fill="#404040"><set attributeName="fill" to="#808080" begin="reset.mouseover" end="reset.mouseout"/></use>
  </g>
</defs>
<script type="application/ecmascript">
var viewWidth = 1007;
var viewHeight = 192;
var sectionId = 'dynsection-1';
</script>
<script type="application/ecmascript" xlink:href="svg.min.js"/>
<svg id="graph" class="graph">
<g id="viewport">
<title>include/meltpooldg/level_set/normal_vector_operation.hpp</title>
<!-- Node1 -->
<g id="Node000001" class="node">
<title>Node1</title>
<g id="a_Node000001"><a xlink:title=" ">
<polygon fill="#999999" stroke="#666666" points="623.5,-184 486.5,-184 486.5,-143 623.5,-143 623.5,-184"/>
<text text-anchor="start" x="494.5" y="-172" font-family="Helvetica,sans-Serif" font-size="10.00">include/meltpooldg</text>
<text text-anchor="start" x="494.5" y="-161" font-family="Helvetica,sans-Serif" font-size="10.00">/level_set/normal_vector</text>
<text text-anchor="middle" x="555" y="-150" font-family="Helvetica,sans-Serif" font-size="10.00">_operation.hpp</text>
</a>
</g>
</g>
<!-- Node2 -->
<g id="Node000002" class="node">
<title>Node2</title>
<g id="a_Node000002"><a xlink:href="curvature__operation_8hpp.html" target="_top" xlink:title=" ">
<polygon fill="white" stroke="#666666" points="285.5,-107 172.5,-107 172.5,-66 285.5,-66 285.5,-107"/>
<text text-anchor="start" x="180.5" y="-95" font-family="Helvetica,sans-Serif" font-size="10.00">include/meltpooldg</text>
<text text-anchor="start" x="180.5" y="-84" font-family="Helvetica,sans-Serif" font-size="10.00">/level_set/curvature</text>
<text text-anchor="middle" x="229" y="-73" font-family="Helvetica,sans-Serif" font-size="10.00">_operation.hpp</text>
</a>
</g>
</g>
<!-- Node1&#45;&gt;Node2 -->
<g id="edge1_Node000001_Node000002" class="edge">
<title>Node1&#45;&gt;Node2</title>
<g id="a_edge1_Node000001_Node000002"><a xlink:title=" ">
<path fill="none" stroke="#63b8ff" d="M476.4,-147.53C424.39,-137.2 354.82,-122.56 294,-107 291.26,-106.3 288.46,-105.56 285.64,-104.79"/>
<polygon fill="#63b8ff" stroke="#63b8ff" points="475.74,-150.97 486.23,-149.48 477.09,-144.1 475.74,-150.97"/>
</a>
</g>
</g>
<!-- Node6 -->
<g id="Node000006" class="node">
<title>Node6</title>
<g id="a_Node000006"><a xlink:href="reinitialization__elliptic__operation_8hpp.html" target="_top" xlink:title=" ">
<polygon fill="white" stroke="#666666" points="623.5,-107 486.5,-107 486.5,-66 623.5,-66 623.5,-107"/>
<text text-anchor="start" x="494.5" y="-95" font-family="Helvetica,sans-Serif" font-size="10.00">include/meltpooldg</text>
<text text-anchor="start" x="494.5" y="-84" font-family="Helvetica,sans-Serif" font-size="10.00">/level_set/reinitialization</text>
<text text-anchor="middle" x="555" y="-73" font-family="Helvetica,sans-Serif" font-size="10.00">_elliptic_operation.hpp</text>
</a>
</g>
</g>
<!-- Node1&#45;&gt;Node6 -->
<g id="edge5_Node000001_Node000006" class="edge">
<title>Node1&#45;&gt;Node6</title>
<g id="a_edge5_Node000001_Node000006"><a xlink:title=" ">
<path fill="none" stroke="#63b8ff" d="M555,-132.69C555,-124.08 555,-114.9 555,-107.07"/>
<polygon fill="#63b8ff" stroke="#63b8ff" points="551.5,-132.79 555,-142.79 558.5,-132.79 551.5,-132.79"/>
</a>
</g>
</g>
<!-- Node9 -->
<g id="Node000009" class="node">
<title>Node9</title>
<g id="a_Node000009"><a xlink:href="reinitialization__hyperbolic__CG__operation_8hpp.html" target="_top" xlink:title=" ">
<polygon fill="white" stroke="#666666" points="468.5,-107 303.5,-107 303.5,-66 468.5,-66 468.5,-107"/>
<text text-anchor="start" x="311.5" y="-95" font-family="Helvetica,sans-Serif" font-size="10.00">include/meltpooldg</text>
<text text-anchor="start" x="311.5" y="-84" font-family="Helvetica,sans-Serif" font-size="10.00">/level_set/reinitialization</text>
<text text-anchor="middle" x="386" y="-73" font-family="Helvetica,sans-Serif" font-size="10.00">_hyperbolic_CG_operation.hpp</text>
</a>
</g>
</g>
<!-- Node1&#45;&gt;Node9 -->
<g id="edge9_Node000001_Node000009" class="edge">
<title>Node1&#45;&gt;Node9</title>
<g id="a_edge9_Node000001_Node000009"><a xlink:title=" ">
<path fill="none" stroke="#63b8ff" d="M501.73,-138.86C478.65,-128.62 451.96,-116.77 430.03,-107.04"/>
<polygon fill="#63b8ff" stroke="#63b8ff" points="500.48,-142.13 511.04,-142.99 503.32,-135.73 500.48,-142.13"/>
</a>
</g>
</g>
<!-- Node10 -->
<g id="Node000010" class="node">
<title>Node10</title>
<g id="a_Node000010"><a xlink:href="reinitialization__hyperbolic__CG__operation_8cpp.html" target="_top" xlink:title=" ">
<polygon fill="white" stroke="#666666" points="999,-30 829,-30 829,0 999,0 999,-30"/>
<text text-anchor="start" x="837" y="-18" font-family="Helvetica,sans-Serif" font-size="10.00">source/level_set/reinitialization</text>
<text text-anchor="middle" x="914" y="-7" font-family="Helvetica,sans-Serif" font-size="10.00">_hyperbolic_CG_operation.cpp</text>
</a>
</g>
</g>
<!-- Node1&#45;&gt;Node10 -->
<g id="edge15_Node000001_Node000010" class="edge">
<title>Node1&#45;&gt;Node10</title>
<g id="a_edge15_Node000001_Node000010"><a xlink:title=" ">
<path fill="none" stroke="#63b8ff" d="M594.32,-136.87C607.09,-127.94 621.03,-117.52 633,-107 651.66,-90.6 649.35,-78.2 671,-66 685.28,-57.95 768.53,-41.79 833.65,-30.01"/>
<polygon fill="#63b8ff" stroke="#63b8ff" points="591.97,-134.24 585.72,-142.79 595.94,-140 591.97,-134.24"/>
</a>
</g>
</g>
<!-- Node11 -->
<g id="Node000011" class="node">
<title>Node11</title>
<g id="a_Node000011"><a xlink:href="normal__vector__operation_8cpp.html" target="_top" xlink:title=" ">
<polygon fill="white" stroke="#666666" points="814,-101.5 680,-101.5 680,-71.5 814,-71.5 814,-101.5"/>
<text text-anchor="start" x="688" y="-89.5" font-family="Helvetica,sans-Serif" font-size="10.00">source/level_set/normal</text>
<text text-anchor="middle" x="747" y="-78.5" font-family="Helvetica,sans-Serif" font-size="10.00">_vector_operation.cpp</text>
</a>
</g>
</g>
<!-- Node1&#45;&gt;Node11 -->
<g id="edge14_Node000001_Node000011" class="edge">
<title>Node1&#45;&gt;Node11</title>
<g id="a_edge14_Node000001_Node000011"><a xlink:title=" ">
<path fill="none" stroke="#63b8ff" d="M614.52,-139.25C646.09,-126.92 683.84,-112.17 710.95,-101.58"/>
<polygon fill="#63b8ff" stroke="#63b8ff" points="612.99,-136.09 604.94,-142.99 615.53,-142.61 612.99,-136.09"/>
</a>
</g>
</g>
<!-- Node3 -->
<g id="Node000003" class="node">
<title>Node3</title>
<g id="a_Node000003"><a xlink:href="curvature__operation_8cpp.html" target="_top" xlink:title=" ">
<polygon fill="white" stroke="#666666" points="146,-30 0,-30 0,0 146,0 146,-30"/>
<text text-anchor="start" x="8" y="-18" font-family="Helvetica,sans-Serif" font-size="10.00">source/level_set/curvature</text>
<text text-anchor="middle" x="73" y="-7" font-family="Helvetica,sans-Serif" font-size="10.00">_operation.cpp</text>
</a>
</g>
</g>
<!-- Node2&#45;&gt;Node3 -->
<g id="edge2_Node000002_Node000003" class="edge">
<title>Node2&#45;&gt;Node3</title>
<g id="a_edge2_Node000002_Node000003"><a xlink:title=" ">
<path fill="none" stroke="#63b8ff" d="M175.9,-61.85C152.22,-51.3 125.12,-39.22 104.68,-30.11"/>
<polygon fill="#63b8ff" stroke="#63b8ff" points="174.57,-65.08 185.13,-65.96 177.42,-58.69 174.57,-65.08"/>
</a>
</g>
</g>
<!-- Node4 -->
<g id="Node000004" class="node">
<title>Node4</title>
<g id="a_Node000004"><a xlink:href="level__set__DG__operation_8cpp.html" target="_top" xlink:title=" ">
<polygon fill="white" stroke="#666666" points="293.5,-30 164.5,-30 164.5,0 293.5,0 293.5,-30"/>
<text text-anchor="start" x="172.5" y="-18" font-family="Helvetica,sans-Serif" font-size="10.00">source/level_set/level</text>
<text text-anchor="middle" x="229" y="-7" font-family="Helvetica,sans-Serif" font-size="10.00">_set_DG_operation.cpp</text>
</a>
</g>
</g>
<!-- Node2&#45;&gt;Node4 -->
<g id="edge3_Node000002_Node000004" class="edge">
<title>Node2&#45;&gt;Node4</title>
<g id="a_edge3_Node000002_Node000004"><a xlink:title=" ">
<path fill="none" stroke="#63b8ff" d="M229,-55.66C229,-46.76 229,-37.42 229,-30.04"/>
<polygon fill="#63b8ff" stroke="#63b8ff" points="225.5,-55.77 229,-65.77 232.5,-55.77 225.5,-55.77"/>
</a>
</g>
</g>
<!-- Node5 -->
<g id="Node000005" class="node">
<title>Node5</title>
<g id="a_Node000005"><a xlink:href="level__set__operation_8cpp.html" target="_top" xlink:title=" ">
<polygon fill="white" stroke="#666666" points="434.5,-30 311.5,-30 311.5,0 434.5,0 434.5,-30"/>
<text text-anchor="start" x="319.5" y="-18" font-family="Helvetica,sans-Serif" font-size="10.00">source/level_set/level</text>
<text text-anchor="middle" x="373" y="-7" font-family="Helvetica,sans-Serif" font-size="10.00">_set_operation.cpp</text>
</a>
</g>
</g>
<!-- Node2&#45;&gt;Node5 -->
<g id="edge4_Node000002_Node000005" class="edge">
<title>Node2&#45;&gt;Node5</title>
<g id="a_edge4_Node000002_Node000005"><a xlink:title=" ">
<path fill="none" stroke="#63b8ff" d="M278.59,-61.56C300.31,-51.08 325.05,-39.14 343.76,-30.11"/>
<polygon fill="#63b8ff" stroke="#63b8ff" points="276.98,-58.46 269.5,-65.96 280.02,-64.76 276.98,-58.46"/>
</a>
</g>
</g>
<!-- Node6&#45;&gt;Node5 -->
<g id="edge7_Node000006_Node000005" class="edge">
<title>Node6&#45;&gt;Node5</title>
<g id="a_edge7_Node000006_Node000005"><a xlink:title=" ">
<path fill="none" stroke="#63b8ff" d="M494.12,-62.25C466.13,-51.56 433.86,-39.24 409.67,-30"/>
<polygon fill="#63b8ff" stroke="#63b8ff" points="493.23,-65.66 503.82,-65.96 495.73,-59.12 493.23,-65.66"/>
</a>
</g>
</g>
<!-- Node7 -->
<g id="Node000007" class="node">
<title>Node7</title>
<g id="a_Node000007"><a xlink:href="reinitialization__application_8cpp.html" target="_top" xlink:title=" ">
<polygon fill="white" stroke="#666666" points="623,-30 453,-30 453,0 623,0 623,-30"/>
<text text-anchor="start" x="461" y="-18" font-family="Helvetica,sans-Serif" font-size="10.00">applications/mp&#45;reinit</text>
<text text-anchor="middle" x="538" y="-7" font-family="Helvetica,sans-Serif" font-size="10.00">/reinitialization_application.cpp</text>
</a>
</g>
</g>
<!-- Node6&#45;&gt;Node7 -->
<g id="edge6_Node000006_Node000007" class="edge">
<title>Node6&#45;&gt;Node7</title>
<g id="a_edge6_Node000006_Node000007"><a xlink:title=" ">
<path fill="none" stroke="#63b8ff" d="M547.77,-55.95C545.57,-46.96 543.26,-37.5 541.43,-30.04"/>
<polygon fill="#63b8ff" stroke="#63b8ff" points="544.4,-56.89 550.17,-65.77 551.2,-55.22 544.4,-56.89"/>
</a>
</g>
</g>
<!-- Node8 -->
<g id="Node000008" class="node">
<title>Node8</title>
<g id="a_Node000008"><a xlink:href="reinitialization__elliptic__operation_8cpp.html" target="_top" xlink:title=" ">
<polygon fill="white" stroke="#666666" points="811,-30 641,-30 641,0 811,0 811,-30"/>
<text text-anchor="start" x="649" y="-18" font-family="Helvetica,sans-Serif" font-size="10.00">source/level_set/reinitialization</text>
<text text-anchor="middle" x="726" y="-7" font-family="Helvetica,sans-Serif" font-size="10.00">_elliptic_operation.cpp</text>
</a>
</g>
</g>
<!-- Node6&#45;&gt;Node8 -->
<g id="edge8_Node000006_Node000008" class="edge">
<title>Node6&#45;&gt;Node8</title>
<g id="a_edge8_Node000006_Node000008"><a xlink:title=" ">
<path fill="none" stroke="#63b8ff" d="M612.55,-62.11C638.76,-51.46 668.92,-39.2 691.54,-30"/>
<polygon fill="#63b8ff" stroke="#63b8ff" points="611.03,-58.95 603.09,-65.96 613.67,-65.43 611.03,-58.95"/>
</a>
</g>
</g>
<!-- Node9&#45;&gt;Node4 -->
<g id="edge11_Node000009_Node000004" class="edge">
<title>Node9&#45;&gt;Node4</title>
<g id="a_edge11_Node000009_Node000004"><a xlink:title=" ">
<path fill="none" stroke="#63b8ff" d="M332.56,-61.85C308.73,-51.3 281.46,-39.22 260.88,-30.11"/>
<polygon fill="#63b8ff" stroke="#63b8ff" points="331.29,-65.11 341.85,-65.96 334.12,-58.71 331.29,-65.11"/>
</a>
</g>
</g>
<!-- Node9&#45;&gt;Node5 -->
<g id="edge12_Node000009_Node000005" class="edge">
<title>Node9&#45;&gt;Node5</title>
<g id="a_edge12_Node000009_Node000005"><a xlink:title=" ">
<path fill="none" stroke="#63b8ff" d="M380.42,-55.66C378.75,-46.76 377.01,-37.42 375.63,-30.04"/>
<polygon fill="#63b8ff" stroke="#63b8ff" points="377.03,-56.58 382.31,-65.77 383.91,-55.3 377.03,-56.58"/>
</a>
</g>
</g>
<!-- Node9&#45;&gt;Node7 -->
<g id="edge10_Node000009_Node000007" class="edge">
<title>Node9&#45;&gt;Node7</title>
<g id="a_edge10_Node000009_Node000007"><a xlink:title=" ">
<path fill="none" stroke="#63b8ff" d="M438.04,-61.71C461.04,-51.19 487.3,-39.18 507.13,-30.11"/>
<polygon fill="#63b8ff" stroke="#63b8ff" points="436.38,-58.61 428.74,-65.96 439.29,-64.98 436.38,-58.61"/>
</a>
</g>
</g>
<!-- Node9&#45;&gt;Node10 -->
<g id="edge13_Node000009_Node000010" class="edge">
<title>Node9&#45;&gt;Node10</title>
<g id="a_edge13_Node000009_Node000010"><a xlink:title=" ">
<path fill="none" stroke="#63b8ff" d="M478.88,-65.78C630.13,-42.21 671.2,-48.88 820,-30 822.95,-29.63 825.94,-29.24 828.97,-28.83"/>
<polygon fill="#63b8ff" stroke="#63b8ff" points="478.09,-62.36 468.76,-67.38 479.18,-69.27 478.09,-62.36"/>
</a>
</g>
</g>
</g>
</svg>

<g id="navigator" transform="translate(0 0)" fill="#404254">
  <rect fill="#f2f5e9" fill-opacity="0.5" stroke="#606060" stroke-width=".5" x="0" y="0" width="60" height="60"/>
  <use id="zoomplus" xlink:href="#zoomPlus" x="17" y="9" onmousedown="handleZoom(evt,'in')"/>
  <use id="zoomminus" xlink:href="#zoomMin" x="42" y="9" onmousedown="handleZoom(evt,'out')"/>
  <use id="reset" xlink:href="#resetDef" x="30" y="36" onmousedown="handleReset()"/>
   <use id="arrowup" xlink:href="#arrowUp" x="0" y="0" onmousedown="handlePan(0,-1)"/>
  <use id="arrowright" xlink:href="#arrowRight" x="0" y="0" onmousedown="handlePan(1,0)"/>
  <use id="arrowdown" xlink:href="#arrowDown" x="0" y="0" onmousedown="handlePan(0,1)"/>
  <use id="arrowleft" xlink:href="#arrowLeft" x="0" y="0" onmousedown="handlePan(-1,0)"/>
</g>
<svg viewBox="0 0 15 15" width="100%" height="30px" preserveAspectRatio="xMaxYMin meet">
 <g id="arrow_out" transform="scale(0.3 0.3)">
  <a xlink:href="normal__vector__operation_8hpp__dep__incl_org.svg" target="_base">
   <rect id="button" ry="5" rx="5" y="6" x="6" height="38" width="38"
        fill="#f2f5e9" fill-opacity="0.5" stroke="#606060" stroke-width="1.0"/>
   <path id="arrow"
     d="M 11.500037,31.436501 C 11.940474,20.09759 22.043105,11.32322 32.158766,21.979434 L 37.068811,17.246167 C 37.068811,17.246167 37.088388,32 37.088388,32 L 22.160133,31.978069 C 22.160133,31.978069 26.997745,27.140456 26.997745,27.140456 C 18.528582,18.264221 13.291696,25.230495 11.500037,31.436501 z"
     style="fill:#404040;"/>
  </a>
 </g>
</svg>

<style type='text/css'>
<![CDATA[
[data-mouse-over-selected='false'] { opacity: 0.7; }
[data-mouse-over-selected='true']  { opacity: 1.0; }
]]>
</style>
<script type="application/ecmascript"><![CDATA[
document.addEventListener('DOMContentLoaded', (event) => {
  highlightEdges();
  highlightAdjacentNodes();
});
]]></script>
</svg>
