<?xml version="1.0" encoding="UTF-8" standalone="no"?>
<!DOCTYPE svg PUBLIC "-//W3C//DTD SVG 1.1//EN"
 "http://www.w3.org/Graphics/SVG/1.1/DTD/svg11.dtd">
<!-- Generated by graphviz version 2.43.0 (0)
 -->
<!-- Title: include/meltpooldg/level_set/normal_vector_operator.hpp Pages: 1 -->
<svg width="1435pt" height="269pt"
 viewBox="0.00 0.00 1435.00 269.00" xmlns="http://www.w3.org/2000/svg" xmlns:xlink="http://www.w3.org/1999/xlink">
<g id="graph0" class="graph" transform="scale(1 1) rotate(0) translate(4 265)">
<title>include/meltpooldg/level_set/normal_vector_operator.hpp</title>
<!-- Node1 -->
<g id="Node000001" class="node">
<title>Node1</title>
<g id="a_Node000001"><a xlink:title=" ">
<polygon fill="#999999" stroke="#666666" points="1042.5,-261 905.5,-261 905.5,-220 1042.5,-220 1042.5,-261"/>
<text text-anchor="start" x="913.5" y="-249" font-family="Helvetica,sans-Serif" font-size="10.00">include/meltpooldg</text>
<text text-anchor="start" x="913.5" y="-238" font-family="Helvetica,sans-Serif" font-size="10.00">/level_set/normal_vector</text>
<text text-anchor="middle" x="974" y="-227" font-family="Helvetica,sans-Serif" font-size="10.00">_operator.hpp</text>
</a>
</g>
</g>
<!-- Node2 -->
<g id="Node000002" class="node">
<title>Node2</title>
<g id="a_Node000002"><a xlink:href="normal__vector__operation_8hpp.html" target="_top" xlink:title=" ">
<polygon fill="white" stroke="#666666" points="709.5,-184 572.5,-184 572.5,-143 709.5,-143 709.5,-184"/>
<text text-anchor="start" x="580.5" y="-172" font-family="Helvetica,sans-Serif" font-size="10.00">include/meltpooldg</text>
<text text-anchor="start" x="580.5" y="-161" font-family="Helvetica,sans-Serif" font-size="10.00">/level_set/normal_vector</text>
<text text-anchor="middle" x="641" y="-150" font-family="Helvetica,sans-Serif" font-size="10.00">_operation.hpp</text>
</a>
</g>
</g>
<!-- Node1&#45;&gt;Node2 -->
<g id="edge1_Node000001_Node000002" class="edge">
<title>Node1&#45;&gt;Node2</title>
<g id="a_edge1_Node000001_Node000002"><a xlink:title=" ">
<path fill="none" stroke="#63b8ff" d="M895.45,-221.81C838.96,-209.09 763.54,-192.1 709.51,-179.93"/>
<polygon fill="#63b8ff" stroke="#63b8ff" points="894.88,-225.27 905.41,-224.05 896.42,-218.44 894.88,-225.27"/>
</a>
</g>
</g>
<!-- Node12 -->
<g id="Node000012" class="node">
<title>Node12</title>
<g id="a_Node000012"><a xlink:href="normal__vector__operation_8cpp.html" target="_top" xlink:title=" ">
<polygon fill="white" stroke="#666666" points="1096,-101.5 962,-101.5 962,-71.5 1096,-71.5 1096,-101.5"/>
<text text-anchor="start" x="970" y="-89.5" font-family="Helvetica,sans-Serif" font-size="10.00">source/level_set/normal</text>
<text text-anchor="middle" x="1029" y="-78.5" font-family="Helvetica,sans-Serif" font-size="10.00">_vector_operation.cpp</text>
</a>
</g>
</g>
<!-- Node1&#45;&gt;Node12 -->
<g id="edge22_Node000001_Node000012" class="edge">
<title>Node1&#45;&gt;Node12</title>
<g id="a_edge22_Node000001_Node000012"><a xlink:title=" ">
<path fill="none" stroke="#63b8ff" d="M951.53,-211.54C938.49,-191.7 926.82,-164.82 939,-143 949.74,-123.77 970.18,-110.37 988.88,-101.56"/>
<polygon fill="#63b8ff" stroke="#63b8ff" points="948.74,-213.66 957.34,-219.85 954.48,-209.65 948.74,-213.66"/>
</a>
</g>
</g>
<!-- Node13 -->
<g id="Node000013" class="node">
<title>Node13</title>
<g id="a_Node000013"><a xlink:href="olsson__CG__operator_8hpp.html" target="_top" xlink:title=" ">
<polygon fill="white" stroke="#666666" points="891,-184 773,-184 773,-143 891,-143 891,-184"/>
<text text-anchor="start" x="781" y="-172" font-family="Helvetica,sans-Serif" font-size="10.00">include/meltpooldg</text>
<text text-anchor="start" x="781" y="-161" font-family="Helvetica,sans-Serif" font-size="10.00">/level_set/olsson_CG</text>
<text text-anchor="middle" x="832" y="-150" font-family="Helvetica,sans-Serif" font-size="10.00">_operator.hpp</text>
</a>
</g>
</g>
<!-- Node1&#45;&gt;Node13 -->
<g id="edge17_Node000001_Node000013" class="edge">
<title>Node1&#45;&gt;Node13</title>
<g id="a_edge17_Node000001_Node000013"><a xlink:title=" ">
<path fill="none" stroke="#63b8ff" d="M927.98,-215.19C908.97,-205.15 887.23,-193.67 869.25,-184.17"/>
<polygon fill="#63b8ff" stroke="#63b8ff" points="926.58,-218.41 937.06,-219.99 929.85,-212.23 926.58,-218.41"/>
</a>
</g>
</g>
<!-- Node15 -->
<g id="Node000015" class="node">
<title>Node15</title>
<g id="a_Node000015"><a xlink:href="laser__heat__source__projection__based_8cpp.html" target="_top" xlink:title=" ">
<polygon fill="white" stroke="#666666" points="1110.5,-178.5 947.5,-178.5 947.5,-148.5 1110.5,-148.5 1110.5,-178.5"/>
<text text-anchor="start" x="955.5" y="-166.5" font-family="Helvetica,sans-Serif" font-size="10.00">source/heat/laser_heat</text>
<text text-anchor="middle" x="1029" y="-155.5" font-family="Helvetica,sans-Serif" font-size="10.00">_source_projection_based.cpp</text>
</a>
</g>
</g>
<!-- Node1&#45;&gt;Node15 -->
<g id="edge20_Node000001_Node000015" class="edge">
<title>Node1&#45;&gt;Node15</title>
<g id="a_edge20_Node000001_Node000015"><a xlink:title=" ">
<path fill="none" stroke="#63b8ff" d="M994.47,-211.59C1002.63,-200.46 1011.68,-188.12 1018.47,-178.86"/>
<polygon fill="#63b8ff" stroke="#63b8ff" points="991.54,-209.66 988.45,-219.79 997.19,-213.8 991.54,-209.66"/>
</a>
</g>
</g>
<!-- Node16 -->
<g id="Node000016" class="node">
<title>Node16</title>
<g id="a_Node000016"><a xlink:href="curvature__operator_8cpp.html" target="_top" xlink:title=" ">
<polygon fill="white" stroke="#666666" points="1275,-178.5 1129,-178.5 1129,-148.5 1275,-148.5 1275,-178.5"/>
<text text-anchor="start" x="1137" y="-166.5" font-family="Helvetica,sans-Serif" font-size="10.00">source/level_set/curvature</text>
<text text-anchor="middle" x="1202" y="-155.5" font-family="Helvetica,sans-Serif" font-size="10.00">_operator.cpp</text>
</a>
</g>
</g>
<!-- Node1&#45;&gt;Node16 -->
<g id="edge21_Node000001_Node000016" class="edge">
<title>Node1&#45;&gt;Node16</title>
<g id="a_edge21_Node000001_Node000016"><a xlink:title=" ">
<path fill="none" stroke="#63b8ff" d="M1043.23,-216.73C1081.01,-204.3 1126.58,-189.31 1159.19,-178.58"/>
<polygon fill="#63b8ff" stroke="#63b8ff" points="1041.71,-213.54 1033.31,-219.99 1043.9,-220.19 1041.71,-213.54"/>
</a>
</g>
</g>
<!-- Node17 -->
<g id="Node000017" class="node">
<title>Node17</title>
<g id="a_Node000017"><a xlink:href="normal__vector__operator_8cpp.html" target="_top" xlink:title=" ">
<polygon fill="white" stroke="#666666" points="1427,-178.5 1293,-178.5 1293,-148.5 1427,-148.5 1427,-178.5"/>
<text text-anchor="start" x="1301" y="-166.5" font-family="Helvetica,sans-Serif" font-size="10.00">source/level_set/normal</text>
<text text-anchor="middle" x="1360" y="-155.5" font-family="Helvetica,sans-Serif" font-size="10.00">_vector_operator.cpp</text>
</a>
</g>
</g>
<!-- Node1&#45;&gt;Node17 -->
<g id="edge23_Node000001_Node000017" class="edge">
<title>Node1&#45;&gt;Node17</title>
<g id="a_edge23_Node000001_Node000017"><a xlink:title=" ">
<path fill="none" stroke="#63b8ff" d="M1052.86,-227.04C1115.7,-216.71 1205.81,-201.01 1284,-184 1291.59,-182.35 1299.56,-180.47 1307.38,-178.54"/>
<polygon fill="#63b8ff" stroke="#63b8ff" points="1051.93,-223.64 1042.63,-228.71 1053.06,-230.55 1051.93,-223.64"/>
</a>
</g>
</g>
<!-- Node3 -->
<g id="Node000003" class="node">
<title>Node3</title>
<g id="a_Node000003"><a xlink:href="curvature__operation_8hpp.html" target="_top" xlink:title=" ">
<polygon fill="white" stroke="#666666" points="456.5,-107 343.5,-107 343.5,-66 456.5,-66 456.5,-107"/>
<text text-anchor="start" x="351.5" y="-95" font-family="Helvetica,sans-Serif" font-size="10.00">include/meltpooldg</text>
<text text-anchor="start" x="351.5" y="-84" font-family="Helvetica,sans-Serif" font-size="10.00">/level_set/curvature</text>
<text text-anchor="middle" x="400" y="-73" font-family="Helvetica,sans-Serif" font-size="10.00">_operation.hpp</text>
</a>
</g>
</g>
<!-- Node2&#45;&gt;Node3 -->
<g id="edge2_Node000002_Node000003" class="edge">
<title>Node2&#45;&gt;Node3</title>
<g id="a_edge2_Node000002_Node000003"><a xlink:title=" ">
<path fill="none" stroke="#63b8ff" d="M568.4,-139.91C532.57,-128.75 489.99,-115.5 456.61,-105.12"/>
<polygon fill="#63b8ff" stroke="#63b8ff" points="567.72,-143.36 578.31,-142.99 569.8,-136.68 567.72,-143.36"/>
</a>
</g>
</g>
<!-- Node7 -->
<g id="Node000007" class="node">
<title>Node7</title>
<g id="a_Node000007"><a xlink:href="reinitialization__elliptic__operation_8hpp.html" target="_top" xlink:title=" ">
<polygon fill="white" stroke="#666666" points="794.5,-107 657.5,-107 657.5,-66 794.5,-66 794.5,-107"/>
<text text-anchor="start" x="665.5" y="-95" font-family="Helvetica,sans-Serif" font-size="10.00">include/meltpooldg</text>
<text text-anchor="start" x="665.5" y="-84" font-family="Helvetica,sans-Serif" font-size="10.00">/level_set/reinitialization</text>
<text text-anchor="middle" x="726" y="-73" font-family="Helvetica,sans-Serif" font-size="10.00">_elliptic_operation.hpp</text>
</a>
</g>
</g>
<!-- Node2&#45;&gt;Node7 -->
<g id="edge6_Node000002_Node000007" class="edge">
<title>Node2&#45;&gt;Node7</title>
<g id="a_edge6_Node000002_Node000007"><a xlink:title=" ">
<path fill="none" stroke="#63b8ff" d="M670.95,-136.07C681.77,-126.52 693.78,-115.93 703.82,-107.07"/>
<polygon fill="#63b8ff" stroke="#63b8ff" points="668.52,-133.55 663.33,-142.79 673.15,-138.8 668.52,-133.55"/>
</a>
</g>
</g>
<!-- Node10 -->
<g id="Node000010" class="node">
<title>Node10</title>
<g id="a_Node000010"><a xlink:href="reinitialization__hyperbolic__CG__operation_8hpp.html" target="_top" xlink:title=" ">
<polygon fill="white" stroke="#666666" points="639.5,-107 474.5,-107 474.5,-66 639.5,-66 639.5,-107"/>
<text text-anchor="start" x="482.5" y="-95" font-family="Helvetica,sans-Serif" font-size="10.00">include/meltpooldg</text>
<text text-anchor="start" x="482.5" y="-84" font-family="Helvetica,sans-Serif" font-size="10.00">/level_set/reinitialization</text>
<text text-anchor="middle" x="557" y="-73" font-family="Helvetica,sans-Serif" font-size="10.00">_hyperbolic_CG_operation.hpp</text>
</a>
</g>
</g>
<!-- Node2&#45;&gt;Node10 -->
<g id="edge10_Node000002_Node000010" class="edge">
<title>Node2&#45;&gt;Node10</title>
<g id="a_edge10_Node000002_Node000010"><a xlink:title=" ">
<path fill="none" stroke="#63b8ff" d="M611.4,-136.07C600.71,-126.52 588.84,-115.93 578.92,-107.07"/>
<polygon fill="#63b8ff" stroke="#63b8ff" points="609.14,-138.75 618.93,-142.79 613.8,-133.52 609.14,-138.75"/>
</a>
</g>
</g>
<!-- Node11 -->
<g id="Node000011" class="node">
<title>Node11</title>
<g id="a_Node000011"><a xlink:href="reinitialization__hyperbolic__CG__operation_8cpp.html" target="_top" xlink:title=" ">
<polygon fill="white" stroke="#666666" points="170,-30 0,-30 0,0 170,0 170,-30"/>
<text text-anchor="start" x="8" y="-18" font-family="Helvetica,sans-Serif" font-size="10.00">source/level_set/reinitialization</text>
<text text-anchor="middle" x="85" y="-7" font-family="Helvetica,sans-Serif" font-size="10.00">_hyperbolic_CG_operation.cpp</text>
</a>
</g>
</g>
<!-- Node2&#45;&gt;Node11 -->
<g id="edge16_Node000002_Node000011" class="edge">
<title>Node2&#45;&gt;Node11</title>
<g id="a_edge16_Node000002_Node000011"><a xlink:title=" ">
<path fill="none" stroke="#63b8ff" d="M562.09,-152.04C499.59,-142.85 410.39,-127.7 334,-107 254.7,-85.51 164.93,-49.75 117.84,-30.06"/>
<polygon fill="#63b8ff" stroke="#63b8ff" points="561.87,-155.55 572.27,-153.52 562.88,-148.62 561.87,-155.55"/>
</a>
</g>
</g>
<!-- Node2&#45;&gt;Node12 -->
<g id="edge15_Node000002_Node000012" class="edge">
<title>Node2&#45;&gt;Node12</title>
<g id="a_edge15_Node000002_Node000012"><a xlink:title=" ">
<path fill="none" stroke="#63b8ff" d="M719.68,-150.18C782.95,-139.88 874.02,-124.13 953,-107 960.59,-105.35 968.56,-103.47 976.38,-101.55"/>
<polygon fill="#63b8ff" stroke="#63b8ff" points="719.07,-146.74 709.76,-151.79 720.2,-153.65 719.07,-146.74"/>
</a>
</g>
</g>
<!-- Node4 -->
<g id="Node000004" class="node">
<title>Node4</title>
<g id="a_Node000004"><a xlink:href="curvature__operation_8cpp.html" target="_top" xlink:title=" ">
<polygon fill="white" stroke="#666666" points="334,-30 188,-30 188,0 334,0 334,-30"/>
<text text-anchor="start" x="196" y="-18" font-family="Helvetica,sans-Serif" font-size="10.00">source/level_set/curvature</text>
<text text-anchor="middle" x="261" y="-7" font-family="Helvetica,sans-Serif" font-size="10.00">_operation.cpp</text>
</a>
</g>
</g>
<!-- Node3&#45;&gt;Node4 -->
<g id="edge3_Node000003_Node000004" class="edge">
<title>Node3&#45;&gt;Node4</title>
<g id="a_edge3_Node000003_Node000004"><a xlink:title=" ">
<path fill="none" stroke="#63b8ff" d="M351.85,-61.42C330.95,-50.98 307.2,-39.1 289.23,-30.11"/>
<polygon fill="#63b8ff" stroke="#63b8ff" points="350.4,-64.61 360.91,-65.96 353.53,-58.35 350.4,-64.61"/>
</a>
</g>
</g>
<!-- Node5 -->
<g id="Node000005" class="node">
<title>Node5</title>
<g id="a_Node000005"><a xlink:href="level__set__DG__operation_8cpp.html" target="_top" xlink:title=" ">
<polygon fill="white" stroke="#666666" points="481.5,-30 352.5,-30 352.5,0 481.5,0 481.5,-30"/>
<text text-anchor="start" x="360.5" y="-18" font-family="Helvetica,sans-Serif" font-size="10.00">source/level_set/level</text>
<text text-anchor="middle" x="417" y="-7" font-family="Helvetica,sans-Serif" font-size="10.00">_set_DG_operation.cpp</text>
</a>
</g>
</g>
<!-- Node3&#45;&gt;Node5 -->
<g id="edge4_Node000003_Node000005" class="edge">
<title>Node3&#45;&gt;Node5</title>
<g id="a_edge4_Node000003_Node000005"><a xlink:title=" ">
<path fill="none" stroke="#63b8ff" d="M407.23,-55.95C409.43,-46.96 411.74,-37.5 413.57,-30.04"/>
<polygon fill="#63b8ff" stroke="#63b8ff" points="403.8,-55.22 404.83,-65.77 410.6,-56.89 403.8,-55.22"/>
</a>
</g>
</g>
<!-- Node6 -->
<g id="Node000006" class="node">
<title>Node6</title>
<g id="a_Node000006"><a xlink:href="level__set__operation_8cpp.html" target="_top" xlink:title=" ">
<polygon fill="white" stroke="#666666" points="622.5,-30 499.5,-30 499.5,0 622.5,0 622.5,-30"/>
<text text-anchor="start" x="507.5" y="-18" font-family="Helvetica,sans-Serif" font-size="10.00">source/level_set/level</text>
<text text-anchor="middle" x="561" y="-7" font-family="Helvetica,sans-Serif" font-size="10.00">_set_operation.cpp</text>
</a>
</g>
</g>
<!-- Node3&#45;&gt;Node6 -->
<g id="edge5_Node000003_Node000006" class="edge">
<title>Node3&#45;&gt;Node6</title>
<g id="a_edge5_Node000003_Node000006"><a xlink:title=" ">
<path fill="none" stroke="#63b8ff" d="M454.51,-61.97C479.11,-51.35 507.35,-39.16 528.56,-30"/>
<polygon fill="#63b8ff" stroke="#63b8ff" points="453.07,-58.78 445.28,-65.96 455.84,-65.21 453.07,-58.78"/>
</a>
</g>
</g>
<!-- Node7&#45;&gt;Node6 -->
<g id="edge8_Node000007_Node000006" class="edge">
<title>Node7&#45;&gt;Node6</title>
<g id="a_edge8_Node000007_Node000006"><a xlink:title=" ">
<path fill="none" stroke="#63b8ff" d="M670.14,-61.97C644.92,-51.35 615.99,-39.16 594.25,-30"/>
<polygon fill="#63b8ff" stroke="#63b8ff" points="669.02,-65.3 679.6,-65.96 671.74,-58.85 669.02,-65.3"/>
</a>
</g>
</g>
<!-- Node8 -->
<g id="Node000008" class="node">
<title>Node8</title>
<g id="a_Node000008"><a xlink:href="reinitialization__application_8cpp.html" target="_top" xlink:title=" ">
<polygon fill="white" stroke="#666666" points="811,-30 641,-30 641,0 811,0 811,-30"/>
<text text-anchor="start" x="649" y="-18" font-family="Helvetica,sans-Serif" font-size="10.00">applications/mp&#45;reinit</text>
<text text-anchor="middle" x="726" y="-7" font-family="Helvetica,sans-Serif" font-size="10.00">/reinitialization_application.cpp</text>
</a>
</g>
</g>
<!-- Node7&#45;&gt;Node8 -->
<g id="edge7_Node000007_Node000008" class="edge">
<title>Node7&#45;&gt;Node8</title>
<g id="a_edge7_Node000007_Node000008"><a xlink:title=" ">
<path fill="none" stroke="#63b8ff" d="M726,-55.66C726,-46.76 726,-37.42 726,-30.04"/>
<polygon fill="#63b8ff" stroke="#63b8ff" points="722.5,-55.77 726,-65.77 729.5,-55.77 722.5,-55.77"/>
</a>
</g>
</g>
<!-- Node9 -->
<g id="Node000009" class="node">
<title>Node9</title>
<g id="a_Node000009"><a xlink:href="reinitialization__elliptic__operation_8cpp.html" target="_top" xlink:title=" ">
<polygon fill="white" stroke="#666666" points="999,-30 829,-30 829,0 999,0 999,-30"/>
<text text-anchor="start" x="837" y="-18" font-family="Helvetica,sans-Serif" font-size="10.00">source/level_set/reinitialization</text>
<text text-anchor="middle" x="914" y="-7" font-family="Helvetica,sans-Serif" font-size="10.00">_elliptic_operation.cpp</text>
</a>
</g>
</g>
<!-- Node7&#45;&gt;Node9 -->
<g id="edge9_Node000007_Node000009" class="edge">
<title>Node7&#45;&gt;Node9</title>
<g id="a_edge9_Node000007_Node000009"><a xlink:title=" ">
<path fill="none" stroke="#63b8ff" d="M788.51,-62.39C817.51,-51.67 851.02,-39.28 876.12,-30"/>
<polygon fill="#63b8ff" stroke="#63b8ff" points="787.03,-59.21 778.87,-65.96 789.46,-65.77 787.03,-59.21"/>
</a>
</g>
</g>
<!-- Node10&#45;&gt;Node5 -->
<g id="edge12_Node000010_Node000005" class="edge">
<title>Node10&#45;&gt;Node5</title>
<g id="a_edge12_Node000010_Node000005"><a xlink:title=" ">
<path fill="none" stroke="#63b8ff" d="M508.5,-61.42C487.45,-50.98 463.53,-39.1 445.43,-30.11"/>
<polygon fill="#63b8ff" stroke="#63b8ff" points="507.12,-64.64 517.63,-65.96 510.23,-58.37 507.12,-64.64"/>
</a>
</g>
</g>
<!-- Node10&#45;&gt;Node6 -->
<g id="edge13_Node000010_Node000006" class="edge">
<title>Node10&#45;&gt;Node6</title>
<g id="a_edge13_Node000010_Node000006"><a xlink:title=" ">
<path fill="none" stroke="#63b8ff" d="M558.72,-55.66C559.23,-46.76 559.77,-37.42 560.19,-30.04"/>
<polygon fill="#63b8ff" stroke="#63b8ff" points="555.22,-55.59 558.14,-65.77 562.2,-55.99 555.22,-55.59"/>
</a>
</g>
</g>
<!-- Node10&#45;&gt;Node8 -->
<g id="edge11_Node000010_Node000008" class="edge">
<title>Node10&#45;&gt;Node8</title>
<g id="a_edge11_Node000010_Node000008"><a xlink:title=" ">
<path fill="none" stroke="#63b8ff" d="M613.87,-62.11C639.78,-51.46 669.58,-39.2 691.95,-30"/>
<polygon fill="#63b8ff" stroke="#63b8ff" points="612.44,-58.92 604.53,-65.96 615.11,-65.39 612.44,-58.92"/>
</a>
</g>
</g>
<!-- Node10&#45;&gt;Node11 -->
<g id="edge14_Node000010_Node000011" class="edge">
<title>Node10&#45;&gt;Node11</title>
<g id="a_edge14_Node000010_Node000011"><a xlink:title=" ">
<path fill="none" stroke="#63b8ff" d="M464.17,-65.93C336.95,-44.83 302.7,-46.99 179,-30 176.06,-29.6 173.06,-29.18 170.04,-28.75"/>
<polygon fill="#63b8ff" stroke="#63b8ff" points="463.87,-69.43 474.31,-67.63 465.03,-62.53 463.87,-69.43"/>
</a>
</g>
</g>
<!-- Node13&#45;&gt;Node10 -->
<g id="edge18_Node000013_Node000010" class="edge">
<title>Node13&#45;&gt;Node10</title>
<g id="a_edge18_Node000013_Node000010"><a xlink:title=" ">
<path fill="none" stroke="#63b8ff" d="M762.77,-143.62C721.82,-132.45 670.05,-118.33 628.68,-107.05"/>
<polygon fill="#63b8ff" stroke="#63b8ff" points="762.1,-147.06 772.67,-146.32 763.94,-140.31 762.1,-147.06"/>
</a>
</g>
</g>
<!-- Node14 -->
<g id="Node000014" class="node">
<title>Node14</title>
<g id="a_Node000014"><a xlink:href="olsson__CG__operator_8cpp.html" target="_top" xlink:title=" ">
<polygon fill="white" stroke="#666666" points="943.5,-101.5 812.5,-101.5 812.5,-71.5 943.5,-71.5 943.5,-101.5"/>
<text text-anchor="start" x="820.5" y="-89.5" font-family="Helvetica,sans-Serif" font-size="10.00">source/level_set/olsson</text>
<text text-anchor="middle" x="878" y="-78.5" font-family="Helvetica,sans-Serif" font-size="10.00">_CG_operator.cpp</text>
</a>
</g>
</g>
<!-- Node13&#45;&gt;Node14 -->
<g id="edge19_Node000013_Node000014" class="edge">
<title>Node13&#45;&gt;Node14</title>
<g id="a_edge19_Node000013_Node000014"><a xlink:title=" ">
<path fill="none" stroke="#63b8ff" d="M849.32,-134.26C856.1,-123.21 863.57,-111.02 869.19,-101.86"/>
<polygon fill="#63b8ff" stroke="#63b8ff" points="846.33,-132.44 844.09,-142.79 852.3,-136.1 846.33,-132.44"/>
</a>
</g>
</g>
</g>
</svg>
