<?xml version="1.0" encoding="UTF-8" standalone="no"?>
<!DOCTYPE svg PUBLIC "-//W3C//DTD SVG 1.1//EN"
 "http://www.w3.org/Graphics/SVG/1.1/DTD/svg11.dtd">
<!-- Generated by graphviz version 2.43.0 (0)
 -->
<!-- Title: include/meltpooldg/particles/obstacle_data.hpp Pages: 1 -->
<svg width="325pt" height="181pt"
 viewBox="0.00 0.00 325.33 181.00" xmlns="http://www.w3.org/2000/svg" xmlns:xlink="http://www.w3.org/1999/xlink">
<g id="graph0" class="graph" transform="scale(1 1) rotate(0) translate(4 177)">
<title>include/meltpooldg/particles/obstacle_data.hpp</title>
<!-- Node1 -->
<g id="Node000001" class="node">
<title>Node1</title>
<g id="a_Node000001"><a xlink:title=" ">
<polygon fill="#999999" stroke="#666666" points="141.83,-173 31.83,-173 31.83,-132 141.83,-132 141.83,-173"/>
<text text-anchor="start" x="39.83" y="-161" font-family="Helvetica,sans-Serif" font-size="10.00">include/meltpooldg</text>
<text text-anchor="start" x="39.83" y="-150" font-family="Helvetica,sans-Serif" font-size="10.00">/particles/obstacle</text>
<text text-anchor="middle" x="86.83" y="-139" font-family="Helvetica,sans-Serif" font-size="10.00">_data.hpp</text>
</a>
</g>
</g>
<!-- Node2 -->
<g id="Node000002" class="node">
<title>Node2</title>
<g id="a_Node000002"><a xlink:title=" ">
<polygon fill="#e0e0e0" stroke="#999999" points="150.33,-30 23.33,-30 23.33,0 150.33,0 150.33,-30"/>
<text text-anchor="start" x="31.33" y="-18" font-family="Helvetica,sans-Serif" font-size="10.00">deal.II/base/parameter</text>
<text text-anchor="middle" x="86.83" y="-7" font-family="Helvetica,sans-Serif" font-size="10.00">_handler.h</text>
</a>
</g>
</g>
<!-- Node1&#45;&gt;Node2 -->
<g id="edge1_Node000001_Node000002" class="edge">
<title>Node1&#45;&gt;Node2</title>
<g id="a_edge1_Node000001_Node000002"><a xlink:title=" ">
<path fill="none" stroke="#63b8ff" d="M42,-131.97C27.45,-123.21 12.97,-111.34 4.83,-96 -1.42,-84.22 -1.7,-77.63 4.83,-66 12.26,-52.77 24.76,-42.63 37.8,-35.05"/>
<polygon fill="#63b8ff" stroke="#63b8ff" points="39.69,-38.01 46.86,-30.21 36.39,-31.84 39.69,-38.01"/>
</a>
</g>
</g>
<!-- Node3 -->
<g id="Node000003" class="node">
<title>Node3</title>
<g id="a_Node000003"><a xlink:href="cohesive__forces__data_8hpp.html" target="_top" xlink:title=" ">
<polygon fill="white" stroke="#666666" points="159.83,-96 13.83,-96 13.83,-66 159.83,-66 159.83,-96"/>
<text text-anchor="start" x="21.83" y="-84" font-family="Helvetica,sans-Serif" font-size="10.00">meltpooldg/particles</text>
<text text-anchor="middle" x="86.83" y="-73" font-family="Helvetica,sans-Serif" font-size="10.00">/cohesive_forces_data.hpp</text>
</a>
</g>
</g>
<!-- Node1&#45;&gt;Node3 -->
<g id="edge2_Node000001_Node000003" class="edge">
<title>Node1&#45;&gt;Node3</title>
<g id="a_edge2_Node000001_Node000003"><a xlink:title=" ">
<path fill="none" stroke="#63b8ff" d="M86.83,-131.77C86.83,-123.85 86.83,-114.63 86.83,-106.3"/>
<polygon fill="#63b8ff" stroke="#63b8ff" points="90.33,-106.04 86.83,-96.04 83.33,-106.04 90.33,-106.04"/>
</a>
</g>
</g>
<!-- Node4 -->
<g id="Node000004" class="node">
<title>Node4</title>
<g id="a_Node000004"><a xlink:href="contact__forces__data_8hpp.html" target="_top" xlink:title=" ">
<polygon fill="white" stroke="#666666" points="317.33,-96 178.33,-96 178.33,-66 317.33,-66 317.33,-96"/>
<text text-anchor="start" x="186.33" y="-84" font-family="Helvetica,sans-Serif" font-size="10.00">meltpooldg/particles</text>
<text text-anchor="middle" x="247.83" y="-73" font-family="Helvetica,sans-Serif" font-size="10.00">/contact_forces_data.hpp</text>
</a>
</g>
</g>
<!-- Node1&#45;&gt;Node4 -->
<g id="edge4_Node000001_Node000004" class="edge">
<title>Node1&#45;&gt;Node4</title>
<g id="a_edge4_Node000001_Node000004"><a xlink:title=" ">
<path fill="none" stroke="#63b8ff" d="M132.1,-131.96C155.3,-121.94 183.35,-109.83 206.03,-100.04"/>
<polygon fill="#63b8ff" stroke="#63b8ff" points="207.59,-103.18 215.39,-96 204.82,-96.75 207.59,-103.18"/>
</a>
</g>
</g>
<!-- Node3&#45;&gt;Node2 -->
<g id="edge3_Node000003_Node000002" class="edge">
<title>Node3&#45;&gt;Node2</title>
<g id="a_edge3_Node000003_Node000002"><a xlink:title=" ">
<path fill="none" stroke="#63b8ff" d="M86.83,-65.8C86.83,-58.34 86.83,-48.99 86.83,-40.41"/>
<polygon fill="#63b8ff" stroke="#63b8ff" points="90.33,-40.16 86.83,-30.16 83.33,-40.16 90.33,-40.16"/>
</a>
</g>
</g>
<!-- Node4&#45;&gt;Node2 -->
<g id="edge5_Node000004_Node000002" class="edge">
<title>Node4&#45;&gt;Node2</title>
<g id="a_edge5_Node000004_Node000002"><a xlink:title=" ">
<path fill="none" stroke="#63b8ff" d="M212.49,-65.95C188.69,-56.49 157.1,-43.93 131.55,-33.78"/>
<polygon fill="#63b8ff" stroke="#63b8ff" points="132.66,-30.45 122.08,-30.01 130.08,-36.96 132.66,-30.45"/>
</a>
</g>
</g>
</g>
</svg>
