<?xml version="1.0" encoding="UTF-8" standalone="no"?>
<!DOCTYPE svg PUBLIC "-//W3C//DTD SVG 1.1//EN"
 "http://www.w3.org/Graphics/SVG/1.1/DTD/svg11.dtd">
<!-- Generated by graphviz version 2.43.0 (0)
 -->
<!-- Title: include/meltpooldg/particles/obstacle_data.hpp Pages: 1 -->
<!--zoomable 544 -->

<svg id="main" version="1.1" xmlns="http://www.w3.org/2000/svg" xmlns:xlink="http://www.w3.org/1999/xlink" xml:space="preserve" onload="init(evt)">
<style type="text/css"><![CDATA[
.node, .edge {opacity: 0.7;}
.node.selected, .edge.selected {opacity: 1;}
.edge:hover path { stroke: red; }
.edge:hover polygon { stroke: red; fill: red; }
]]></style>

<defs>
  <circle id="rim" cx="0" cy="0" r="7"/>
  <circle id="rim2" cx="0" cy="0" r="3.5"/>
  <g id="zoomPlus">
    <use xlink:href="#rim" fill="#404040"><set attributeName="fill" to="#808080" begin="zoomplus.mouseover" end="zoomplus.mouseout"/></use>
    <path d="M-4,0h8M0,-4v8" fill="none" stroke="white" stroke-width="1.5" pointer-events="none"/>
  </g>
  <g id="zoomMin">
    <use xlink:href="#rim" fill="#404040"><set attributeName="fill" to="#808080" begin="zoomminus.mouseover" end="zoomminus.mouseout"/></use>
    <path d="M-4,0h8" fill="none" stroke="white" stroke-width="1.5" pointer-events="none"/>
  </g>
  <g id="arrowUp" transform="translate(30 24)">
    <use xlink:href="#rim"/>
    <path pointer-events="none" fill="none" stroke="white" stroke-width="1.5" d="M0,-3.0v7 M-2.5,-0.5L0,-3.0L2.5,-0.5"/>
  </g>
  <g id="arrowRight" transform="rotate(90) translate(36 -43)">
    <use xlink:href="#rim"/>
    <path pointer-events="none" fill="none" stroke="white" stroke-width="1.5" d="M0,-3.0v7 M-2.5,-0.5L0,-3.0L2.5,-0.5"/>
  </g>
  <g id="arrowDown" transform="rotate(180) translate(-30 -48)">
    <use xlink:href="#rim"/>
    <path pointer-events="none" fill="none" stroke="white" stroke-width="1.5" d="M0,-3.0v7 M-2.5,-0.5L0,-3.0L2.5,-0.5"/>
  </g>
  <g id="arrowLeft" transform="rotate(270) translate(-36 17)">
    <use xlink:href="#rim"/>
    <path pointer-events="none" fill="none" stroke="white" stroke-width="1.5" d="M0,-3.0v7 M-2.5,-0.5L0,-3.0L2.5,-0.5"/>
  </g>
  <g id="resetDef">
    <use xlink:href="#rim2" fill="#404040"><set attributeName="fill" to="#808080" begin="reset.mouseover" end="reset.mouseout"/></use>
  </g>
</defs>
<script type="application/ecmascript">
var viewWidth = 1244;
var viewHeight = 544;
var sectionId = 'dynsection-1';
</script>
<script type="application/ecmascript" xlink:href="svg.min.js"/>
<svg id="graph" class="graph">
<g id="viewport">
<title>include/meltpooldg/particles/obstacle_data.hpp</title>
<!-- Node1 -->
<g id="Node000001" class="node">
<title>Node1</title>
<g id="a_Node000001"><a xlink:title=" ">
<polygon fill="#999999" stroke="#666666" points="622,-536 512,-536 512,-495 622,-495 622,-536"/>
<text text-anchor="start" x="520" y="-524" font-family="Helvetica,sans-Serif" font-size="10.00">include/meltpooldg</text>
<text text-anchor="start" x="520" y="-513" font-family="Helvetica,sans-Serif" font-size="10.00">/particles/obstacle</text>
<text text-anchor="middle" x="567" y="-502" font-family="Helvetica,sans-Serif" font-size="10.00">_data.hpp</text>
</a>
</g>
</g>
<!-- Node2 -->
<g id="Node000002" class="node">
<title>Node2</title>
<g id="a_Node000002"><a xlink:href="obstacle__field_8hpp.html" target="_top" xlink:title=" ">
<polygon fill="white" stroke="#666666" points="622,-459 512,-459 512,-418 622,-418 622,-459"/>
<text text-anchor="start" x="520" y="-447" font-family="Helvetica,sans-Serif" font-size="10.00">include/meltpooldg</text>
<text text-anchor="start" x="520" y="-436" font-family="Helvetica,sans-Serif" font-size="10.00">/particles/obstacle</text>
<text text-anchor="middle" x="567" y="-425" font-family="Helvetica,sans-Serif" font-size="10.00">_field.hpp</text>
</a>
</g>
</g>
<!-- Node1&#45;&gt;Node2 -->
<g id="edge1_Node000001_Node000002" class="edge">
<title>Node1&#45;&gt;Node2</title>
<g id="a_edge1_Node000001_Node000002"><a xlink:title=" ">
<path fill="none" stroke="#63b8ff" d="M567,-484.69C567,-476.08 567,-466.9 567,-459.07"/>
<polygon fill="#63b8ff" stroke="#63b8ff" points="563.5,-484.79 567,-494.79 570.5,-484.79 563.5,-484.79"/>
</a>
</g>
</g>
<!-- Node3 -->
<g id="Node000003" class="node">
<title>Node3</title>
<g id="a_Node000003"><a xlink:href="brinkman__penalization_8hpp.html" target="_top" xlink:title=" ">
<polygon fill="white" stroke="#666666" points="218,-211.5 66,-211.5 66,-170.5 218,-170.5 218,-211.5"/>
<text text-anchor="start" x="74" y="-199.5" font-family="Helvetica,sans-Serif" font-size="10.00">include/meltpooldg</text>
<text text-anchor="start" x="74" y="-188.5" font-family="Helvetica,sans-Serif" font-size="10.00">/fluid_structure_interaction</text>
<text text-anchor="middle" x="142" y="-177.5" font-family="Helvetica,sans-Serif" font-size="10.00">/brinkman_penalization.hpp</text>
</a>
</g>
</g>
<!-- Node2&#45;&gt;Node3 -->
<g id="edge2_Node000002_Node000003" class="edge">
<title>Node2&#45;&gt;Node3</title>
<g id="a_edge2_Node000002_Node000003"><a xlink:title=" ">
<path fill="none" stroke="#63b8ff" d="M501.83,-431.67C415.89,-423.2 269.96,-405.84 222,-382 171.33,-356.81 152.23,-346.03 130,-294 118.51,-267.11 126.67,-232.81 134.01,-211.63"/>
<polygon fill="#63b8ff" stroke="#63b8ff" points="501.71,-435.18 512,-432.66 502.38,-428.21 501.71,-435.18"/>
</a>
</g>
</g>
<!-- Node4 -->
<g id="Node000004" class="node">
<title>Node4</title>
<g id="a_Node000004"><a xlink:href="fluid__structure__interaction__factory_8hpp.html" target="_top" xlink:title=" ">
<polygon fill="white" stroke="#666666" points="254.5,-52 107.5,-52 107.5,0 254.5,0 254.5,-52"/>
<text text-anchor="start" x="115.5" y="-40" font-family="Helvetica,sans-Serif" font-size="10.00">include/meltpooldg</text>
<text text-anchor="start" x="115.5" y="-29" font-family="Helvetica,sans-Serif" font-size="10.00">/fluid_structure_interaction</text>
<text text-anchor="start" x="115.5" y="-18" font-family="Helvetica,sans-Serif" font-size="10.00">/fluid_structure_interaction</text>
<text text-anchor="middle" x="181" y="-7" font-family="Helvetica,sans-Serif" font-size="10.00">_factory.hpp</text>
</a>
</g>
</g>
<!-- Node2&#45;&gt;Node4 -->
<g id="edge5_Node000002_Node000004" class="edge">
<title>Node2&#45;&gt;Node4</title>
<g id="a_edge5_Node000002_Node000004"><a xlink:title=" ">
<path fill="none" stroke="#63b8ff" d="M501.78,-436.29C386.49,-433.13 152.19,-421.87 82,-382 29.75,-352.32 0,-334.59 0,-274.5 0,-274.5 0,-274.5 0,-190 0,-124.14 67,-78.08 119.47,-52.11"/>
<polygon fill="#63b8ff" stroke="#63b8ff" points="501.8,-439.79 511.89,-436.55 501.98,-432.79 501.8,-439.79"/>
</a>
</g>
</g>
<!-- Node5 -->
<g id="Node000005" class="node">
<title>Node5</title>
<g id="a_Node000005"><a xlink:href="brinkman__penalization_8cpp.html" target="_top" xlink:title=" ">
<polygon fill="white" stroke="#666666" points="256,-129 132,-129 132,-88 256,-88 256,-129"/>
<text text-anchor="start" x="140" y="-117" font-family="Helvetica,sans-Serif" font-size="10.00">source/fluid_structure</text>
<text text-anchor="start" x="140" y="-106" font-family="Helvetica,sans-Serif" font-size="10.00">_interaction/brinkman</text>
<text text-anchor="middle" x="194" y="-95" font-family="Helvetica,sans-Serif" font-size="10.00">_penalization.cpp</text>
</a>
</g>
</g>
<!-- Node2&#45;&gt;Node5 -->
<g id="edge23_Node000002_Node000005" class="edge">
<title>Node2&#45;&gt;Node5</title>
<g id="a_edge23_Node000002_Node000005"><a xlink:title=" ">
<path fill="none" stroke="#63b8ff" d="M501.9,-435.98C398.65,-432.41 203.27,-420.61 147,-382 60.91,-322.92 -1.35,-251.59 57,-165 73.85,-139.99 104.09,-126.25 131.89,-118.7"/>
<polygon fill="#63b8ff" stroke="#63b8ff" points="501.79,-439.48 511.9,-436.31 502.02,-432.48 501.79,-439.48"/>
</a>
</g>
</g>
<!-- Node6 -->
<g id="Node000006" class="node">
<title>Node6</title>
<g id="a_Node000006"><a xlink:href="fluid__structure__interaction__util_8hpp.html" target="_top" xlink:title=" ">
<polygon fill="white" stroke="#666666" points="378.5,-382 231.5,-382 231.5,-330 378.5,-330 378.5,-382"/>
<text text-anchor="start" x="239.5" y="-370" font-family="Helvetica,sans-Serif" font-size="10.00">include/meltpooldg</text>
<text text-anchor="start" x="239.5" y="-359" font-family="Helvetica,sans-Serif" font-size="10.00">/fluid_structure_interaction</text>
<text text-anchor="start" x="239.5" y="-348" font-family="Helvetica,sans-Serif" font-size="10.00">/fluid_structure_interaction</text>
<text text-anchor="middle" x="305" y="-337" font-family="Helvetica,sans-Serif" font-size="10.00">_util.hpp</text>
</a>
</g>
</g>
<!-- Node2&#45;&gt;Node6 -->
<g id="edge6_Node000002_Node000006" class="edge">
<title>Node2&#45;&gt;Node6</title>
<g id="a_edge6_Node000002_Node000006"><a xlink:title=" ">
<path fill="none" stroke="#63b8ff" d="M501.97,-417.52C464.53,-406.01 417.36,-391.52 378.57,-379.6"/>
<polygon fill="#63b8ff" stroke="#63b8ff" points="501.17,-420.93 511.76,-420.53 503.23,-414.24 501.17,-420.93"/>
</a>
</g>
</g>
<!-- Node9 -->
<g id="Node000009" class="node">
<title>Node9</title>
<g id="a_Node000009"><a xlink:href="stokes__law_8hpp.html" target="_top" xlink:title=" ">
<polygon fill="white" stroke="#666666" points="497.5,-129 350.5,-129 350.5,-88 497.5,-88 497.5,-129"/>
<text text-anchor="start" x="358.5" y="-117" font-family="Helvetica,sans-Serif" font-size="10.00">include/meltpooldg</text>
<text text-anchor="start" x="358.5" y="-106" font-family="Helvetica,sans-Serif" font-size="10.00">/fluid_structure_interaction</text>
<text text-anchor="middle" x="424" y="-95" font-family="Helvetica,sans-Serif" font-size="10.00">/stokes_law.hpp</text>
</a>
</g>
</g>
<!-- Node2&#45;&gt;Node9 -->
<g id="edge18_Node000002_Node000009" class="edge">
<title>Node2&#45;&gt;Node9</title>
<g id="a_edge18_Node000002_Node000009"><a xlink:title=" ">
<path fill="none" stroke="#63b8ff" d="M534.34,-410.82C525.91,-402.42 517.63,-392.55 512,-382 465.65,-295.19 509.49,-254.23 468,-165 461.88,-151.84 452.06,-139.02 443.24,-129.03"/>
<polygon fill="#63b8ff" stroke="#63b8ff" points="532.06,-413.48 541.73,-417.81 536.87,-408.39 532.06,-413.48"/>
</a>
</g>
</g>
<!-- Node10 -->
<g id="Node000010" class="node">
<title>Node10</title>
<g id="a_Node000010"><a xlink:href="stokes__law_8cpp.html" target="_top" xlink:title=" ">
<polygon fill="white" stroke="#666666" points="499.5,-41 348.5,-41 348.5,-11 499.5,-11 499.5,-41"/>
<text text-anchor="start" x="356.5" y="-29" font-family="Helvetica,sans-Serif" font-size="10.00">source/fluid_structure</text>
<text text-anchor="middle" x="424" y="-18" font-family="Helvetica,sans-Serif" font-size="10.00">_interaction/stokes_law.cpp</text>
</a>
</g>
</g>
<!-- Node2&#45;&gt;Node10 -->
<g id="edge24_Node000002_Node000010" class="edge">
<title>Node2&#45;&gt;Node10</title>
<g id="a_edge24_Node000002_Node000010"><a xlink:title=" ">
<path fill="none" stroke="#63b8ff" d="M554.19,-408.41C550.84,-400.01 547.48,-390.74 545,-382 531.77,-335.32 526,-323.02 526,-274.5 526,-274.5 526,-274.5 526,-190 526,-143.8 530.63,-127.08 506,-88 493.13,-67.59 470.79,-51.65 452.68,-41.19"/>
<polygon fill="#63b8ff" stroke="#63b8ff" points="551.01,-409.89 558.06,-417.8 557.48,-407.22 551.01,-409.89"/>
</a>
</g>
</g>
<!-- Node11 -->
<g id="Node000011" class="node">
<title>Node11</title>
<g id="a_Node000011"><a xlink:href="cohesive__forces_8hpp.html" target="_top" xlink:title=" ">
<polygon fill="white" stroke="#666666" points="664,-376.5 554,-376.5 554,-335.5 664,-335.5 664,-376.5"/>
<text text-anchor="start" x="562" y="-364.5" font-family="Helvetica,sans-Serif" font-size="10.00">include/meltpooldg</text>
<text text-anchor="start" x="562" y="-353.5" font-family="Helvetica,sans-Serif" font-size="10.00">/particles/cohesive</text>
<text text-anchor="middle" x="609" y="-342.5" font-family="Helvetica,sans-Serif" font-size="10.00">_forces.hpp</text>
</a>
</g>
</g>
<!-- Node2&#45;&gt;Node11 -->
<g id="edge19_Node000002_Node000011" class="edge">
<title>Node2&#45;&gt;Node11</title>
<g id="a_edge19_Node000002_Node000011"><a xlink:title=" ">
<path fill="none" stroke="#63b8ff" d="M582.05,-408.66C587.58,-398.05 593.72,-386.29 598.74,-376.67"/>
<polygon fill="#63b8ff" stroke="#63b8ff" points="578.9,-407.12 577.38,-417.6 585.11,-410.35 578.9,-407.12"/>
</a>
</g>
</g>
<!-- Node12 -->
<g id="Node000012" class="node">
<title>Node12</title>
<g id="a_Node000012"><a xlink:href="cohesive__forces_8cpp.html" target="_top" xlink:title=" ">
<polygon fill="white" stroke="#666666" points="728,-288.5 588,-288.5 588,-258.5 728,-258.5 728,-288.5"/>
<text text-anchor="start" x="596" y="-276.5" font-family="Helvetica,sans-Serif" font-size="10.00">source/particles/cohesive</text>
<text text-anchor="middle" x="658" y="-265.5" font-family="Helvetica,sans-Serif" font-size="10.00">_forces.cpp</text>
</a>
</g>
</g>
<!-- Node2&#45;&gt;Node12 -->
<g id="edge26_Node000002_Node000012" class="edge">
<title>Node2&#45;&gt;Node12</title>
<g id="a_edge26_Node000002_Node000012"><a xlink:title=" ">
<path fill="none" stroke="#63b8ff" d="M631.24,-417.66C647.69,-409.35 663.43,-397.82 673,-382 690.85,-352.5 675.52,-310.24 665.32,-288.54"/>
<polygon fill="#63b8ff" stroke="#63b8ff" points="629.64,-414.54 622.07,-421.95 632.61,-420.88 629.64,-414.54"/>
</a>
</g>
</g>
<!-- Node13 -->
<g id="Node000013" class="node">
<title>Node13</title>
<g id="a_Node000013"><a xlink:href="contact__forces_8hpp.html" target="_top" xlink:title=" ">
<polygon fill="white" stroke="#666666" points="877.5,-371 720.5,-371 720.5,-341 877.5,-341 877.5,-371"/>
<text text-anchor="start" x="728.5" y="-359" font-family="Helvetica,sans-Serif" font-size="10.00">include/meltpooldg</text>
<text text-anchor="middle" x="799" y="-348" font-family="Helvetica,sans-Serif" font-size="10.00">/particles/contact_forces.hpp</text>
</a>
</g>
</g>
<!-- Node2&#45;&gt;Node13 -->
<g id="edge21_Node000002_Node000013" class="edge">
<title>Node2&#45;&gt;Node13</title>
<g id="a_edge21_Node000002_Node000013"><a xlink:title=" ">
<path fill="none" stroke="#63b8ff" d="M631.81,-415.01C672.37,-400.94 723.37,-383.24 758.31,-371.12"/>
<polygon fill="#63b8ff" stroke="#63b8ff" points="630.58,-411.74 622.28,-418.32 632.87,-418.35 630.58,-411.74"/>
</a>
</g>
</g>
<!-- Node14 -->
<g id="Node000014" class="node">
<title>Node14</title>
<g id="a_Node000014"><a xlink:href="contact__forces_8cpp.html" target="_top" xlink:title=" ">
<polygon fill="white" stroke="#666666" points="908.5,-288.5 775.5,-288.5 775.5,-258.5 908.5,-258.5 908.5,-288.5"/>
<text text-anchor="start" x="783.5" y="-276.5" font-family="Helvetica,sans-Serif" font-size="10.00">source/particles/contact</text>
<text text-anchor="middle" x="842" y="-265.5" font-family="Helvetica,sans-Serif" font-size="10.00">_forces.cpp</text>
</a>
</g>
</g>
<!-- Node2&#45;&gt;Node14 -->
<g id="edge27_Node000002_Node000014" class="edge">
<title>Node2&#45;&gt;Node14</title>
<g id="a_edge27_Node000002_Node000014"><a xlink:title=" ">
<path fill="none" stroke="#63b8ff" d="M632.33,-435.73C716.3,-431.92 855.11,-419.89 887,-382 910.84,-353.67 877.6,-310.91 856.71,-288.83"/>
<polygon fill="#63b8ff" stroke="#63b8ff" points="631.96,-432.24 622.12,-436.16 632.26,-439.24 631.96,-432.24"/>
</a>
</g>
</g>
<!-- Node15 -->
<g id="Node000015" class="node">
<title>Node15</title>
<g id="a_Node000015"><a xlink:href="cell__batch__particle__cache_8cpp.html" target="_top" xlink:title=" ">
<polygon fill="white" stroke="#666666" points="1079.5,-371 934.5,-371 934.5,-341 1079.5,-341 1079.5,-371"/>
<text text-anchor="start" x="942.5" y="-359" font-family="Helvetica,sans-Serif" font-size="10.00">source/particles/cell</text>
<text text-anchor="middle" x="1007" y="-348" font-family="Helvetica,sans-Serif" font-size="10.00">_batch_particle_cache.cpp</text>
</a>
</g>
</g>
<!-- Node2&#45;&gt;Node15 -->
<g id="edge25_Node000002_Node000015" class="edge">
<title>Node2&#45;&gt;Node15</title>
<g id="a_edge25_Node000002_Node000015"><a xlink:title=" ">
<path fill="none" stroke="#63b8ff" d="M632.29,-429.7C703.48,-420.62 820.56,-404.02 920,-382 933.81,-378.94 948.66,-374.95 962.12,-371.05"/>
<polygon fill="#63b8ff" stroke="#63b8ff" points="631.6,-426.26 622.12,-430.98 632.48,-433.2 631.6,-426.26"/>
</a>
</g>
</g>
<!-- Node16 -->
<g id="Node000016" class="node">
<title>Node16</title>
<g id="a_Node000016"><a xlink:href="obstacle__field_8cpp.html" target="_top" xlink:title=" ">
<polygon fill="white" stroke="#666666" points="1236,-371 1098,-371 1098,-341 1236,-341 1236,-371"/>
<text text-anchor="start" x="1106" y="-359" font-family="Helvetica,sans-Serif" font-size="10.00">source/particles/obstacle</text>
<text text-anchor="middle" x="1167" y="-348" font-family="Helvetica,sans-Serif" font-size="10.00">_field.cpp</text>
</a>
</g>
</g>
<!-- Node2&#45;&gt;Node16 -->
<g id="edge28_Node000002_Node000016" class="edge">
<title>Node2&#45;&gt;Node16</title>
<g id="a_edge28_Node000002_Node000016"><a xlink:title=" ">
<path fill="none" stroke="#63b8ff" d="M632.26,-434.84C731.74,-429.83 926.87,-416.22 1089,-382 1102.08,-379.24 1116.07,-375.14 1128.54,-371.05"/>
<polygon fill="#63b8ff" stroke="#63b8ff" points="631.88,-431.36 622.06,-435.34 632.22,-438.35 631.88,-431.36"/>
</a>
</g>
</g>
<!-- Node3&#45;&gt;Node4 -->
<g id="edge3_Node000003_Node000004" class="edge">
<title>Node3&#45;&gt;Node4</title>
<g id="a_edge3_Node000003_Node000004"><a xlink:title=" ">
<path fill="none" stroke="#63b8ff" d="M128.19,-160.89C120.27,-140.02 113.6,-111.54 123,-88 128.42,-74.43 138.46,-62.15 148.68,-52.23"/>
<polygon fill="#63b8ff" stroke="#63b8ff" points="124.97,-162.26 131.99,-170.19 131.45,-159.61 124.97,-162.26"/>
</a>
</g>
</g>
<!-- Node3&#45;&gt;Node5 -->
<g id="edge4_Node000003_Node000005" class="edge">
<title>Node3&#45;&gt;Node5</title>
<g id="a_edge4_Node000003_Node000005"><a xlink:title=" ">
<path fill="none" stroke="#63b8ff" d="M160.42,-161.48C167.33,-150.79 175.02,-138.88 181.29,-129.17"/>
<polygon fill="#63b8ff" stroke="#63b8ff" points="157.34,-159.8 154.85,-170.1 163.22,-163.6 157.34,-159.8"/>
</a>
</g>
</g>
<!-- Node6&#45;&gt;Node3 -->
<g id="edge7_Node000006_Node000003" class="edge">
<title>Node6&#45;&gt;Node3</title>
<g id="a_edge7_Node000006_Node000003"><a xlink:title=" ">
<path fill="none" stroke="#63b8ff" d="M221.31,-341.72C193.2,-332.93 164.56,-318.31 147,-294 129.66,-270 132.82,-233.91 137.11,-211.71"/>
<polygon fill="#63b8ff" stroke="#63b8ff" points="220.63,-345.17 231.21,-344.6 222.58,-338.45 220.63,-345.17"/>
</a>
</g>
</g>
<!-- Node6&#45;&gt;Node5 -->
<g id="edge17_Node000006_Node000005" class="edge">
<title>Node6&#45;&gt;Node5</title>
<g id="a_edge17_Node000006_Node000005"><a xlink:title=" ">
<path fill="none" stroke="#63b8ff" d="M331.49,-321.42C343.98,-301.32 354.15,-275.42 344,-253 334,-230.91 320.75,-233.52 303,-217 270.9,-187.12 234.9,-151.1 213.36,-129.27"/>
<polygon fill="#63b8ff" stroke="#63b8ff" points="328.46,-319.66 325.85,-329.93 334.29,-323.52 328.46,-319.66"/>
</a>
</g>
</g>
<!-- Node7 -->
<g id="Node000007" class="node">
<title>Node7</title>
<g id="a_Node000007"><a xlink:href="brinkman__penalization__data_8hpp.html" target="_top" xlink:title=" ">
<polygon fill="white" stroke="#666666" points="335.5,-294 156.5,-294 156.5,-253 335.5,-253 335.5,-294"/>
<text text-anchor="start" x="164.5" y="-282" font-family="Helvetica,sans-Serif" font-size="10.00">include/meltpooldg</text>
<text text-anchor="start" x="164.5" y="-271" font-family="Helvetica,sans-Serif" font-size="10.00">/fluid_structure_interaction</text>
<text text-anchor="middle" x="246" y="-260" font-family="Helvetica,sans-Serif" font-size="10.00">/brinkman_penalization_data.hpp</text>
</a>
</g>
</g>
<!-- Node6&#45;&gt;Node7 -->
<g id="edge8_Node000006_Node000007" class="edge">
<title>Node6&#45;&gt;Node7</title>
<g id="a_edge8_Node000006_Node000007"><a xlink:title=" ">
<path fill="none" stroke="#63b8ff" d="M280.73,-321.88C273.82,-312.46 266.52,-302.49 260.4,-294.15"/>
<polygon fill="#63b8ff" stroke="#63b8ff" points="277.92,-323.97 286.66,-329.97 283.57,-319.84 277.92,-323.97"/>
</a>
</g>
</g>
<!-- Node7&#45;&gt;Node3 -->
<g id="edge9_Node000007_Node000003" class="edge">
<title>Node7&#45;&gt;Node3</title>
<g id="a_edge9_Node000007_Node000003"><a xlink:title=" ">
<path fill="none" stroke="#63b8ff" d="M212.29,-246.41C197.75,-235.15 181.03,-222.21 167.54,-211.77"/>
<polygon fill="#63b8ff" stroke="#63b8ff" points="210.51,-249.45 220.56,-252.81 214.79,-243.92 210.51,-249.45"/>
</a>
</g>
</g>
<!-- Node7&#45;&gt;Node5 -->
<g id="edge16_Node000007_Node000005" class="edge">
<title>Node7&#45;&gt;Node5</title>
<g id="a_edge16_Node000007_Node000005"><a xlink:title=" ">
<path fill="none" stroke="#63b8ff" d="M243.66,-242.85C241.24,-220.82 236.42,-190.34 227,-165 222.32,-152.39 214.77,-139.41 208.08,-129.17"/>
<polygon fill="#63b8ff" stroke="#63b8ff" points="240.19,-243.32 244.67,-252.92 247.16,-242.62 240.19,-243.32"/>
</a>
</g>
</g>
<!-- Node8 -->
<g id="Node000008" class="node">
<title>Node8</title>
<g id="a_Node000008"><a xlink:href="fluid__structure__interaction__data_8hpp.html" target="_top" xlink:title=" ">
<polygon fill="white" stroke="#666666" points="459.5,-217 312.5,-217 312.5,-165 459.5,-165 459.5,-217"/>
<text text-anchor="start" x="320.5" y="-205" font-family="Helvetica,sans-Serif" font-size="10.00">include/meltpooldg</text>
<text text-anchor="start" x="320.5" y="-194" font-family="Helvetica,sans-Serif" font-size="10.00">/fluid_structure_interaction</text>
<text text-anchor="start" x="320.5" y="-183" font-family="Helvetica,sans-Serif" font-size="10.00">/fluid_structure_interaction</text>
<text text-anchor="middle" x="386" y="-172" font-family="Helvetica,sans-Serif" font-size="10.00">_data.hpp</text>
</a>
</g>
</g>
<!-- Node7&#45;&gt;Node8 -->
<g id="edge10_Node000007_Node000008" class="edge">
<title>Node7&#45;&gt;Node8</title>
<g id="a_edge10_Node000007_Node000008"><a xlink:title=" ">
<path fill="none" stroke="#63b8ff" d="M289.32,-247.59C306.16,-237.91 325.43,-226.83 342.3,-217.13"/>
<polygon fill="#63b8ff" stroke="#63b8ff" points="287.17,-244.79 280.25,-252.81 290.66,-250.86 287.17,-244.79"/>
</a>
</g>
</g>
<!-- Node8&#45;&gt;Node4 -->
<g id="edge11_Node000008_Node000004" class="edge">
<title>Node8&#45;&gt;Node4</title>
<g id="a_edge11_Node000008_Node000004"><a xlink:title=" ">
<path fill="none" stroke="#63b8ff" d="M349.43,-157.99C325.72,-137.53 293.96,-110.67 265,-88 249.53,-75.89 232.01,-63.03 216.98,-52.26"/>
<polygon fill="#63b8ff" stroke="#63b8ff" points="347.3,-160.77 357.15,-164.66 351.88,-155.47 347.3,-160.77"/>
</a>
</g>
</g>
<!-- Node8&#45;&gt;Node9 -->
<g id="edge12_Node000008_Node000009" class="edge">
<title>Node8&#45;&gt;Node9</title>
<g id="a_edge12_Node000008_Node000009"><a xlink:title=" ">
<path fill="none" stroke="#63b8ff" d="M402.17,-155.74C406.46,-146.65 410.95,-137.15 414.73,-129.15"/>
<polygon fill="#63b8ff" stroke="#63b8ff" points="398.92,-154.43 397.82,-164.97 405.25,-157.42 398.92,-154.43"/>
</a>
</g>
</g>
<!-- Node8&#45;&gt;Node10 -->
<g id="edge15_Node000008_Node000010" class="edge">
<title>Node8&#45;&gt;Node10</title>
<g id="a_edge15_Node000008_Node000010"><a xlink:title=" ">
<path fill="none" stroke="#63b8ff" d="M356.09,-156.95C341.59,-136.78 329.55,-110.62 341,-88 351.74,-66.78 373.72,-51.14 392.37,-41.02"/>
<polygon fill="#63b8ff" stroke="#63b8ff" points="353.32,-159.09 362.16,-164.92 358.88,-154.85 353.32,-159.09"/>
</a>
</g>
</g>
<!-- Node9&#45;&gt;Node4 -->
<g id="edge13_Node000009_Node000004" class="edge">
<title>Node9&#45;&gt;Node4</title>
<g id="a_edge13_Node000009_Node000004"><a xlink:title=" ">
<path fill="none" stroke="#63b8ff" d="M355.33,-84.75C323.96,-74.36 286.75,-62.03 254.78,-51.44"/>
<polygon fill="#63b8ff" stroke="#63b8ff" points="354.27,-88.09 364.87,-87.91 356.47,-81.44 354.27,-88.09"/>
</a>
</g>
</g>
<!-- Node9&#45;&gt;Node10 -->
<g id="edge14_Node000009_Node000010" class="edge">
<title>Node9&#45;&gt;Node10</title>
<g id="a_edge14_Node000009_Node000010"><a xlink:title=" ">
<path fill="none" stroke="#63b8ff" d="M424,-77.26C424,-64.96 424,-51.33 424,-41.37"/>
<polygon fill="#63b8ff" stroke="#63b8ff" points="420.5,-77.6 424,-87.6 427.5,-77.6 420.5,-77.6"/>
</a>
</g>
</g>
<!-- Node11&#45;&gt;Node12 -->
<g id="edge20_Node000011_Node000012" class="edge">
<title>Node11&#45;&gt;Node12</title>
<g id="a_edge20_Node000011_Node000012"><a xlink:title=" ">
<path fill="none" stroke="#63b8ff" d="M626.5,-326.24C634.22,-313.57 642.95,-299.23 649.26,-288.87"/>
<polygon fill="#63b8ff" stroke="#63b8ff" points="623.32,-324.74 621.11,-335.1 629.3,-328.38 623.32,-324.74"/>
</a>
</g>
</g>
<!-- Node13&#45;&gt;Node14 -->
<g id="edge22_Node000013_Node000014" class="edge">
<title>Node13&#45;&gt;Node14</title>
<g id="a_edge22_Node000013_Node000014"><a xlink:title=" ">
<path fill="none" stroke="#63b8ff" d="M811.31,-331.96C818.77,-317.98 828.06,-300.6 834.45,-288.63"/>
<polygon fill="#63b8ff" stroke="#63b8ff" points="808.11,-330.51 806.49,-340.98 814.29,-333.81 808.11,-330.51"/>
</a>
</g>
</g>
</g>
</svg>

<g id="navigator" transform="translate(0 0)" fill="#404254">
  <rect fill="#f2f5e9" fill-opacity="0.5" stroke="#606060" stroke-width=".5" x="0" y="0" width="60" height="60"/>
  <use id="zoomplus" xlink:href="#zoomPlus" x="17" y="9" onmousedown="handleZoom(evt,'in')"/>
  <use id="zoomminus" xlink:href="#zoomMin" x="42" y="9" onmousedown="handleZoom(evt,'out')"/>
  <use id="reset" xlink:href="#resetDef" x="30" y="36" onmousedown="handleReset()"/>
   <use id="arrowup" xlink:href="#arrowUp" x="0" y="0" onmousedown="handlePan(0,-1)"/>
  <use id="arrowright" xlink:href="#arrowRight" x="0" y="0" onmousedown="handlePan(1,0)"/>
  <use id="arrowdown" xlink:href="#arrowDown" x="0" y="0" onmousedown="handlePan(0,1)"/>
  <use id="arrowleft" xlink:href="#arrowLeft" x="0" y="0" onmousedown="handlePan(-1,0)"/>
</g>
<svg viewBox="0 0 15 15" width="100%" height="30px" preserveAspectRatio="xMaxYMin meet">
 <g id="arrow_out" transform="scale(0.3 0.3)">
  <a xlink:href="obstacle__data_8hpp__dep__incl_org.svg" target="_base">
   <rect id="button" ry="5" rx="5" y="6" x="6" height="38" width="38"
        fill="#f2f5e9" fill-opacity="0.5" stroke="#606060" stroke-width="1.0"/>
   <path id="arrow"
     d="M 11.500037,31.436501 C 11.940474,20.09759 22.043105,11.32322 32.158766,21.979434 L 37.068811,17.246167 C 37.068811,17.246167 37.088388,32 37.088388,32 L 22.160133,31.978069 C 22.160133,31.978069 26.997745,27.140456 26.997745,27.140456 C 18.528582,18.264221 13.291696,25.230495 11.500037,31.436501 z"
     style="fill:#404040;"/>
  </a>
 </g>
</svg>

<style type='text/css'>
<![CDATA[
[data-mouse-over-selected='false'] { opacity: 0.7; }
[data-mouse-over-selected='true']  { opacity: 1.0; }
]]>
</style>
<script type="application/ecmascript"><![CDATA[
document.addEventListener('DOMContentLoaded', (event) => {
  highlightEdges();
  highlightAdjacentNodes();
});
]]></script>
</svg>
