<?xml version="1.0" encoding="UTF-8" standalone="no"?>
<!DOCTYPE svg PUBLIC "-//W3C//DTD SVG 1.1//EN"
 "http://www.w3.org/Graphics/SVG/1.1/DTD/svg11.dtd">
<!-- Generated by graphviz version 2.43.0 (0)
 -->
<!-- Title: include/meltpooldg/particles/obstacle_forces.hpp Pages: 1 -->
<!--zoomable 544 -->

<svg id="main" version="1.1" xmlns="http://www.w3.org/2000/svg" xmlns:xlink="http://www.w3.org/1999/xlink" xml:space="preserve" onload="init(evt)">
<style type="text/css"><![CDATA[
.node, .edge {opacity: 0.7;}
.node.selected, .edge.selected {opacity: 1;}
.edge:hover path { stroke: red; }
.edge:hover polygon { stroke: red; fill: red; }
]]></style>

<defs>
  <circle id="rim" cx="0" cy="0" r="7"/>
  <circle id="rim2" cx="0" cy="0" r="3.5"/>
  <g id="zoomPlus">
    <use xlink:href="#rim" fill="#404040"><set attributeName="fill" to="#808080" begin="zoomplus.mouseover" end="zoomplus.mouseout"/></use>
    <path d="M-4,0h8M0,-4v8" fill="none" stroke="white" stroke-width="1.5" pointer-events="none"/>
  </g>
  <g id="zoomMin">
    <use xlink:href="#rim" fill="#404040"><set attributeName="fill" to="#808080" begin="zoomminus.mouseover" end="zoomminus.mouseout"/></use>
    <path d="M-4,0h8" fill="none" stroke="white" stroke-width="1.5" pointer-events="none"/>
  </g>
  <g id="arrowUp" transform="translate(30 24)">
    <use xlink:href="#rim"/>
    <path pointer-events="none" fill="none" stroke="white" stroke-width="1.5" d="M0,-3.0v7 M-2.5,-0.5L0,-3.0L2.5,-0.5"/>
  </g>
  <g id="arrowRight" transform="rotate(90) translate(36 -43)">
    <use xlink:href="#rim"/>
    <path pointer-events="none" fill="none" stroke="white" stroke-width="1.5" d="M0,-3.0v7 M-2.5,-0.5L0,-3.0L2.5,-0.5"/>
  </g>
  <g id="arrowDown" transform="rotate(180) translate(-30 -48)">
    <use xlink:href="#rim"/>
    <path pointer-events="none" fill="none" stroke="white" stroke-width="1.5" d="M0,-3.0v7 M-2.5,-0.5L0,-3.0L2.5,-0.5"/>
  </g>
  <g id="arrowLeft" transform="rotate(270) translate(-36 17)">
    <use xlink:href="#rim"/>
    <path pointer-events="none" fill="none" stroke="white" stroke-width="1.5" d="M0,-3.0v7 M-2.5,-0.5L0,-3.0L2.5,-0.5"/>
  </g>
  <g id="resetDef">
    <use xlink:href="#rim2" fill="#404040"><set attributeName="fill" to="#808080" begin="reset.mouseover" end="reset.mouseout"/></use>
  </g>
</defs>
<script type="application/ecmascript">
var viewWidth = 1139;
var viewHeight = 544;
var sectionId = 'dynsection-1';
</script>
<script type="application/ecmascript" xlink:href="svg.min.js"/>
<svg id="graph" class="graph">
<g id="viewport">
<title>include/meltpooldg/particles/obstacle_forces.hpp</title>
<!-- Node1 -->
<g id="Node000001" class="node">
<title>Node1</title>
<g id="a_Node000001"><a xlink:title=" ">
<polygon fill="#999999" stroke="#666666" points="878,-536 768,-536 768,-495 878,-495 878,-536"/>
<text text-anchor="start" x="776" y="-524" font-family="Helvetica,sans-Serif" font-size="10.00">include/meltpooldg</text>
<text text-anchor="start" x="776" y="-513" font-family="Helvetica,sans-Serif" font-size="10.00">/particles/obstacle</text>
<text text-anchor="middle" x="823" y="-502" font-family="Helvetica,sans-Serif" font-size="10.00">_forces.hpp</text>
</a>
</g>
</g>
<!-- Node2 -->
<g id="Node000002" class="node">
<title>Node2</title>
<g id="a_Node000002"><a xlink:href="fluid__structure__interaction__factory_8hpp.html" target="_top" xlink:title=" ">
<polygon fill="white" stroke="#666666" points="217.5,-52 70.5,-52 70.5,0 217.5,0 217.5,-52"/>
<text text-anchor="start" x="78.5" y="-40" font-family="Helvetica,sans-Serif" font-size="10.00">include/meltpooldg</text>
<text text-anchor="start" x="78.5" y="-29" font-family="Helvetica,sans-Serif" font-size="10.00">/fluid_structure_interaction</text>
<text text-anchor="start" x="78.5" y="-18" font-family="Helvetica,sans-Serif" font-size="10.00">/fluid_structure_interaction</text>
<text text-anchor="middle" x="144" y="-7" font-family="Helvetica,sans-Serif" font-size="10.00">_factory.hpp</text>
</a>
</g>
</g>
<!-- Node1&#45;&gt;Node2 -->
<g id="edge1_Node000001_Node000002" class="edge">
<title>Node1&#45;&gt;Node2</title>
<g id="a_edge1_Node000001_Node000002"><a xlink:title=" ">
<path fill="none" stroke="#63b8ff" d="M757.63,-508.9C562.87,-491.36 0,-434 0,-357 0,-357 0,-357 0,-190 0,-139.12 18.13,-125.97 52,-88 64.5,-73.98 80.91,-61.76 96.41,-52.01"/>
<polygon fill="#63b8ff" stroke="#63b8ff" points="757.45,-512.4 767.72,-509.81 758.07,-505.43 757.45,-512.4"/>
</a>
</g>
</g>
<!-- Node3 -->
<g id="Node000003" class="node">
<title>Node3</title>
<g id="a_Node000003"><a xlink:href="obstacle__field_8hpp.html" target="_top" xlink:title=" ">
<polygon fill="white" stroke="#666666" points="608,-459 498,-459 498,-418 608,-418 608,-459"/>
<text text-anchor="start" x="506" y="-447" font-family="Helvetica,sans-Serif" font-size="10.00">include/meltpooldg</text>
<text text-anchor="start" x="506" y="-436" font-family="Helvetica,sans-Serif" font-size="10.00">/particles/obstacle</text>
<text text-anchor="middle" x="553" y="-425" font-family="Helvetica,sans-Serif" font-size="10.00">_field.hpp</text>
</a>
</g>
</g>
<!-- Node1&#45;&gt;Node3 -->
<g id="edge2_Node000001_Node000003" class="edge">
<title>Node1&#45;&gt;Node3</title>
<g id="a_edge2_Node000001_Node000003"><a xlink:title=" ">
<path fill="none" stroke="#63b8ff" d="M757.89,-496.41C712.14,-483.71 651.6,-466.89 608.22,-454.84"/>
<polygon fill="#63b8ff" stroke="#63b8ff" points="757.14,-499.84 767.71,-499.14 759.01,-493.09 757.14,-499.84"/>
</a>
</g>
</g>
<!-- Node5 -->
<g id="Node000005" class="node">
<title>Node5</title>
<g id="a_Node000005"><a xlink:href="brinkman__penalization_8cpp.html" target="_top" xlink:title=" ">
<polygon fill="white" stroke="#666666" points="550,-129 426,-129 426,-88 550,-88 550,-129"/>
<text text-anchor="start" x="434" y="-117" font-family="Helvetica,sans-Serif" font-size="10.00">source/fluid_structure</text>
<text text-anchor="start" x="434" y="-106" font-family="Helvetica,sans-Serif" font-size="10.00">_interaction/brinkman</text>
<text text-anchor="middle" x="488" y="-95" font-family="Helvetica,sans-Serif" font-size="10.00">_penalization.cpp</text>
</a>
</g>
</g>
<!-- Node1&#45;&gt;Node5 -->
<g id="edge30_Node000001_Node000005" class="edge">
<title>Node1&#45;&gt;Node5</title>
<g id="a_edge30_Node000001_Node000005"><a xlink:title=" ">
<path fill="none" stroke="#63b8ff" d="M888.28,-505.45C968.19,-490.28 1093,-451.46 1093,-357 1093,-357 1093,-357 1093,-272.5 1093,-160.93 704.57,-123.5 550.18,-113.04"/>
<polygon fill="#63b8ff" stroke="#63b8ff" points="887.5,-502.04 878.29,-507.27 888.76,-508.92 887.5,-502.04"/>
</a>
</g>
</g>
<!-- Node10 -->
<g id="Node000010" class="node">
<title>Node10</title>
<g id="a_Node000010"><a xlink:href="stokes__law_8cpp.html" target="_top" xlink:title=" ">
<polygon fill="white" stroke="#666666" points="798.5,-41 647.5,-41 647.5,-11 798.5,-11 798.5,-41"/>
<text text-anchor="start" x="655.5" y="-29" font-family="Helvetica,sans-Serif" font-size="10.00">source/fluid_structure</text>
<text text-anchor="middle" x="723" y="-18" font-family="Helvetica,sans-Serif" font-size="10.00">_interaction/stokes_law.cpp</text>
</a>
</g>
</g>
<!-- Node1&#45;&gt;Node10 -->
<g id="edge31_Node000001_Node000010" class="edge">
<title>Node1&#45;&gt;Node10</title>
<g id="a_edge31_Node000001_Node000010"><a xlink:title=" ">
<path fill="none" stroke="#63b8ff" d="M888.23,-509.69C978.63,-499.08 1131,-465.14 1131,-357 1131,-357 1131,-357 1131,-190 1131,-125.89 1085.53,-118.23 1029,-88 956.87,-49.43 863.37,-35.13 798.8,-29.9"/>
<polygon fill="#63b8ff" stroke="#63b8ff" points="887.62,-506.24 878.06,-510.82 888.39,-513.2 887.62,-506.24"/>
</a>
</g>
</g>
<!-- Node3&#45;&gt;Node2 -->
<g id="edge6_Node000003_Node000002" class="edge">
<title>Node3&#45;&gt;Node2</title>
<g id="a_edge6_Node000003_Node000002"><a xlink:title=" ">
<path fill="none" stroke="#63b8ff" d="M487.81,-433.97C363.35,-426.67 101.41,-408.35 70,-382 31.81,-349.96 38,-324.35 38,-274.5 38,-274.5 38,-274.5 38,-190 38,-133.8 82.84,-81.75 114.19,-52.23"/>
<polygon fill="#63b8ff" stroke="#63b8ff" points="487.78,-437.48 497.97,-434.56 488.19,-430.49 487.78,-437.48"/>
</a>
</g>
</g>
<!-- Node4 -->
<g id="Node000004" class="node">
<title>Node4</title>
<g id="a_Node000004"><a xlink:href="brinkman__penalization_8hpp.html" target="_top" xlink:title=" ">
<polygon fill="white" stroke="#666666" points="256,-211.5 104,-211.5 104,-170.5 256,-170.5 256,-211.5"/>
<text text-anchor="start" x="112" y="-199.5" font-family="Helvetica,sans-Serif" font-size="10.00">include/meltpooldg</text>
<text text-anchor="start" x="112" y="-188.5" font-family="Helvetica,sans-Serif" font-size="10.00">/fluid_structure_interaction</text>
<text text-anchor="middle" x="180" y="-177.5" font-family="Helvetica,sans-Serif" font-size="10.00">/brinkman_penalization.hpp</text>
</a>
</g>
</g>
<!-- Node3&#45;&gt;Node4 -->
<g id="edge3_Node000003_Node000004" class="edge">
<title>Node3&#45;&gt;Node4</title>
<g id="a_edge3_Node000003_Node000004"><a xlink:title=" ">
<path fill="none" stroke="#63b8ff" d="M487.5,-433.52C375.26,-426.04 155.98,-408.21 133,-382 89.66,-332.55 138.69,-249.31 165.21,-211.6"/>
<polygon fill="#63b8ff" stroke="#63b8ff" points="487.48,-437.03 497.69,-434.2 487.94,-430.05 487.48,-437.03"/>
</a>
</g>
</g>
<!-- Node3&#45;&gt;Node5 -->
<g id="edge24_Node000003_Node000005" class="edge">
<title>Node3&#45;&gt;Node5</title>
<g id="a_edge24_Node000003_Node000005"><a xlink:title=" ">
<path fill="none" stroke="#63b8ff" d="M618.56,-433.65C732.13,-426.31 955.62,-408.63 979,-382 994.25,-364.63 987.41,-351.53 979,-330 913.29,-161.8 666.99,-121.89 550.19,-112.43"/>
<polygon fill="#63b8ff" stroke="#63b8ff" points="618.02,-430.18 608.26,-434.31 618.46,-437.16 618.02,-430.18"/>
</a>
</g>
</g>
<!-- Node6 -->
<g id="Node000006" class="node">
<title>Node6</title>
<g id="a_Node000006"><a xlink:href="fluid__structure__interaction__util_8hpp.html" target="_top" xlink:title=" ">
<polygon fill="white" stroke="#666666" points="289.5,-382 142.5,-382 142.5,-330 289.5,-330 289.5,-382"/>
<text text-anchor="start" x="150.5" y="-370" font-family="Helvetica,sans-Serif" font-size="10.00">include/meltpooldg</text>
<text text-anchor="start" x="150.5" y="-359" font-family="Helvetica,sans-Serif" font-size="10.00">/fluid_structure_interaction</text>
<text text-anchor="start" x="150.5" y="-348" font-family="Helvetica,sans-Serif" font-size="10.00">/fluid_structure_interaction</text>
<text text-anchor="middle" x="216" y="-337" font-family="Helvetica,sans-Serif" font-size="10.00">_util.hpp</text>
</a>
</g>
</g>
<!-- Node3&#45;&gt;Node6 -->
<g id="edge7_Node000003_Node000006" class="edge">
<title>Node3&#45;&gt;Node6</title>
<g id="a_edge7_Node000003_Node000006"><a xlink:title=" ">
<path fill="none" stroke="#63b8ff" d="M487.71,-424.68C436.21,-414.23 362.69,-398.52 299,-382 295.94,-381.21 292.83,-380.37 289.68,-379.52"/>
<polygon fill="#63b8ff" stroke="#63b8ff" points="487.21,-428.15 497.71,-426.7 488.6,-421.29 487.21,-428.15"/>
</a>
</g>
</g>
<!-- Node9 -->
<g id="Node000009" class="node">
<title>Node9</title>
<g id="a_Node000009"><a xlink:href="stokes__law_8hpp.html" target="_top" xlink:title=" ">
<polygon fill="white" stroke="#666666" points="319.5,-129 172.5,-129 172.5,-88 319.5,-88 319.5,-129"/>
<text text-anchor="start" x="180.5" y="-117" font-family="Helvetica,sans-Serif" font-size="10.00">include/meltpooldg</text>
<text text-anchor="start" x="180.5" y="-106" font-family="Helvetica,sans-Serif" font-size="10.00">/fluid_structure_interaction</text>
<text text-anchor="middle" x="246" y="-95" font-family="Helvetica,sans-Serif" font-size="10.00">/stokes_law.hpp</text>
</a>
</g>
</g>
<!-- Node3&#45;&gt;Node9 -->
<g id="edge19_Node000003_Node000009" class="edge">
<title>Node3&#45;&gt;Node9</title>
<g id="a_edge19_Node000003_Node000009"><a xlink:title=" ">
<path fill="none" stroke="#63b8ff" d="M487.55,-433.71C371.12,-426.32 137.79,-408.38 112,-382 44.37,-312.83 39.64,-244.33 95,-165 112.66,-139.69 143.21,-125.89 172.23,-118.38"/>
<polygon fill="#63b8ff" stroke="#63b8ff" points="487.56,-437.21 497.76,-434.35 488,-430.23 487.56,-437.21"/>
</a>
</g>
</g>
<!-- Node3&#45;&gt;Node10 -->
<g id="edge25_Node000003_Node000010" class="edge">
<title>Node3&#45;&gt;Node10</title>
<g id="a_edge25_Node000003_Node000010"><a xlink:title=" ">
<path fill="none" stroke="#63b8ff" d="M618.53,-436.54C726.76,-433.78 936.92,-423.12 997,-382 1041.8,-351.34 1055,-328.79 1055,-274.5 1055,-274.5 1055,-274.5 1055,-190 1055,-76.51 896.74,-42.03 798.75,-31.56"/>
<polygon fill="#63b8ff" stroke="#63b8ff" points="618.29,-433.04 608.38,-436.78 618.46,-440.04 618.29,-433.04"/>
</a>
</g>
</g>
<!-- Node11 -->
<g id="Node000011" class="node">
<title>Node11</title>
<g id="a_Node000011"><a xlink:href="cohesive__forces_8hpp.html" target="_top" xlink:title=" ">
<polygon fill="white" stroke="#666666" points="418,-376.5 308,-376.5 308,-335.5 418,-335.5 418,-376.5"/>
<text text-anchor="start" x="316" y="-364.5" font-family="Helvetica,sans-Serif" font-size="10.00">include/meltpooldg</text>
<text text-anchor="start" x="316" y="-353.5" font-family="Helvetica,sans-Serif" font-size="10.00">/particles/cohesive</text>
<text text-anchor="middle" x="363" y="-342.5" font-family="Helvetica,sans-Serif" font-size="10.00">_forces.hpp</text>
</a>
</g>
</g>
<!-- Node3&#45;&gt;Node11 -->
<g id="edge20_Node000003_Node000011" class="edge">
<title>Node3&#45;&gt;Node11</title>
<g id="a_edge20_Node000003_Node000011"><a xlink:title=" ">
<path fill="none" stroke="#63b8ff" d="M497.27,-413.89C469.31,-402.04 435.85,-387.87 409.33,-376.63"/>
<polygon fill="#63b8ff" stroke="#63b8ff" points="495.95,-417.13 506.52,-417.81 498.68,-410.68 495.95,-417.13"/>
</a>
</g>
</g>
<!-- Node12 -->
<g id="Node000012" class="node">
<title>Node12</title>
<g id="a_Node000012"><a xlink:href="cohesive__forces_8cpp.html" target="_top" xlink:title=" ">
<polygon fill="white" stroke="#666666" points="656,-288.5 516,-288.5 516,-258.5 656,-258.5 656,-288.5"/>
<text text-anchor="start" x="524" y="-276.5" font-family="Helvetica,sans-Serif" font-size="10.00">source/particles/cohesive</text>
<text text-anchor="middle" x="586" y="-265.5" font-family="Helvetica,sans-Serif" font-size="10.00">_forces.cpp</text>
</a>
</g>
</g>
<!-- Node3&#45;&gt;Node12 -->
<g id="edge27_Node000003_Node000012" class="edge">
<title>Node3&#45;&gt;Node12</title>
<g id="a_edge27_Node000003_Node000012"><a xlink:title=" ">
<path fill="none" stroke="#63b8ff" d="M494.79,-412.47C482.87,-404.53 471.88,-394.47 465,-382 453.84,-361.76 452.52,-349.45 465,-330 477.98,-309.77 500.38,-296.82 522.41,-288.57"/>
<polygon fill="#63b8ff" stroke="#63b8ff" points="493.23,-415.62 503.58,-417.89 496.9,-409.66 493.23,-415.62"/>
</a>
</g>
</g>
<!-- Node13 -->
<g id="Node000013" class="node">
<title>Node13</title>
<g id="a_Node000013"><a xlink:href="contact__forces_8hpp.html" target="_top" xlink:title=" ">
<polygon fill="white" stroke="#666666" points="631.5,-371 474.5,-371 474.5,-341 631.5,-341 631.5,-371"/>
<text text-anchor="start" x="482.5" y="-359" font-family="Helvetica,sans-Serif" font-size="10.00">include/meltpooldg</text>
<text text-anchor="middle" x="553" y="-348" font-family="Helvetica,sans-Serif" font-size="10.00">/particles/contact_forces.hpp</text>
</a>
</g>
</g>
<!-- Node3&#45;&gt;Node13 -->
<g id="edge22_Node000003_Node000013" class="edge">
<title>Node3&#45;&gt;Node13</title>
<g id="a_edge22_Node000003_Node000013"><a xlink:title=" ">
<path fill="none" stroke="#63b8ff" d="M553,-407.26C553,-394.96 553,-381.33 553,-371.37"/>
<polygon fill="#63b8ff" stroke="#63b8ff" points="549.5,-407.6 553,-417.6 556.5,-407.6 549.5,-407.6"/>
</a>
</g>
</g>
<!-- Node14 -->
<g id="Node000014" class="node">
<title>Node14</title>
<g id="a_Node000014"><a xlink:href="contact__forces_8cpp.html" target="_top" xlink:title=" ">
<polygon fill="white" stroke="#666666" points="898.5,-288.5 765.5,-288.5 765.5,-258.5 898.5,-258.5 898.5,-288.5"/>
<text text-anchor="start" x="773.5" y="-276.5" font-family="Helvetica,sans-Serif" font-size="10.00">source/particles/contact</text>
<text text-anchor="middle" x="832" y="-265.5" font-family="Helvetica,sans-Serif" font-size="10.00">_forces.cpp</text>
</a>
</g>
</g>
<!-- Node3&#45;&gt;Node14 -->
<g id="edge28_Node000003_Node000014" class="edge">
<title>Node3&#45;&gt;Node14</title>
<g id="a_edge28_Node000003_Node000014"><a xlink:title=" ">
<path fill="none" stroke="#63b8ff" d="M618.49,-433.23C727.85,-425.43 937.91,-407.31 960,-382 975.2,-364.59 972.68,-349.32 960,-330 946.11,-308.84 922.23,-295.71 898.83,-287.57"/>
<polygon fill="#63b8ff" stroke="#63b8ff" points="617.96,-429.76 608.23,-433.95 618.45,-436.74 617.96,-429.76"/>
</a>
</g>
</g>
<!-- Node15 -->
<g id="Node000015" class="node">
<title>Node15</title>
<g id="a_Node000015"><a xlink:href="cell__batch__particle__cache_8cpp.html" target="_top" xlink:title=" ">
<polygon fill="white" stroke="#666666" points="794.5,-371 649.5,-371 649.5,-341 794.5,-341 794.5,-371"/>
<text text-anchor="start" x="657.5" y="-359" font-family="Helvetica,sans-Serif" font-size="10.00">source/particles/cell</text>
<text text-anchor="middle" x="722" y="-348" font-family="Helvetica,sans-Serif" font-size="10.00">_batch_particle_cache.cpp</text>
</a>
</g>
</g>
<!-- Node3&#45;&gt;Node15 -->
<g id="edge26_Node000003_Node000015" class="edge">
<title>Node3&#45;&gt;Node15</title>
<g id="a_edge26_Node000003_Node000015"><a xlink:title=" ">
<path fill="none" stroke="#63b8ff" d="M603.51,-413.44C632.53,-399.62 667.96,-382.74 692.48,-371.06"/>
<polygon fill="#63b8ff" stroke="#63b8ff" points="601.87,-410.35 594.34,-417.81 604.88,-416.67 601.87,-410.35"/>
</a>
</g>
</g>
<!-- Node16 -->
<g id="Node000016" class="node">
<title>Node16</title>
<g id="a_Node000016"><a xlink:href="obstacle__field_8cpp.html" target="_top" xlink:title=" ">
<polygon fill="white" stroke="#666666" points="951,-371 813,-371 813,-341 951,-341 951,-371"/>
<text text-anchor="start" x="821" y="-359" font-family="Helvetica,sans-Serif" font-size="10.00">source/particles/obstacle</text>
<text text-anchor="middle" x="882" y="-348" font-family="Helvetica,sans-Serif" font-size="10.00">_field.cpp</text>
</a>
</g>
</g>
<!-- Node3&#45;&gt;Node16 -->
<g id="edge29_Node000003_Node000016" class="edge">
<title>Node3&#45;&gt;Node16</title>
<g id="a_edge29_Node000003_Node000016"><a xlink:title=" ">
<path fill="none" stroke="#63b8ff" d="M618.08,-424.83C668.99,-414.51 741.39,-398.92 804,-382 815.94,-378.77 828.78,-374.85 840.52,-371.08"/>
<polygon fill="#63b8ff" stroke="#63b8ff" points="617.31,-421.42 608.2,-426.83 618.69,-428.28 617.31,-421.42"/>
</a>
</g>
</g>
<!-- Node4&#45;&gt;Node2 -->
<g id="edge4_Node000004_Node000002" class="edge">
<title>Node4&#45;&gt;Node2</title>
<g id="a_edge4_Node000004_Node000002"><a xlink:title=" ">
<path fill="none" stroke="#63b8ff" d="M171.22,-160.5C168.4,-150.54 165.4,-139.33 163,-129 156.97,-103.03 151.57,-73 148.07,-52.28"/>
<polygon fill="#63b8ff" stroke="#63b8ff" points="167.92,-161.69 174.05,-170.33 174.64,-159.75 167.92,-161.69"/>
</a>
</g>
</g>
<!-- Node4&#45;&gt;Node5 -->
<g id="edge5_Node000004_Node000005" class="edge">
<title>Node4&#45;&gt;Node5</title>
<g id="a_edge5_Node000004_Node000005"><a xlink:title=" ">
<path fill="none" stroke="#63b8ff" d="M255.27,-167.68C258.55,-166.76 261.81,-165.87 265,-165 319.1,-150.32 380.99,-135.04 425.82,-124.23"/>
<polygon fill="#63b8ff" stroke="#63b8ff" points="254.03,-164.39 245.35,-170.48 255.93,-171.13 254.03,-164.39"/>
</a>
</g>
</g>
<!-- Node6&#45;&gt;Node4 -->
<g id="edge8_Node000006_Node000004" class="edge">
<title>Node6&#45;&gt;Node4</title>
<g id="a_edge8_Node000006_Node000004"><a xlink:title=" ">
<path fill="none" stroke="#63b8ff" d="M208.21,-319.74C200.92,-286.7 190.27,-238.51 184.36,-211.76"/>
<polygon fill="#63b8ff" stroke="#63b8ff" points="204.88,-320.88 210.45,-329.89 211.71,-319.37 204.88,-320.88"/>
</a>
</g>
</g>
<!-- Node6&#45;&gt;Node5 -->
<g id="edge18_Node000006_Node000005" class="edge">
<title>Node6&#45;&gt;Node5</title>
<g id="a_edge18_Node000006_Node000005"><a xlink:title=" ">
<path fill="none" stroke="#63b8ff" d="M299.47,-330.05C355.76,-315.38 379.5,-327.85 421,-294 472.36,-252.11 484.35,-167.37 487.15,-129.07"/>
<polygon fill="#63b8ff" stroke="#63b8ff" points="298.45,-326.7 289.76,-332.76 300.33,-333.44 298.45,-326.7"/>
</a>
</g>
</g>
<!-- Node7 -->
<g id="Node000007" class="node">
<title>Node7</title>
<g id="a_Node000007"><a xlink:href="brinkman__penalization__data_8hpp.html" target="_top" xlink:title=" ">
<polygon fill="white" stroke="#666666" points="412.5,-294 233.5,-294 233.5,-253 412.5,-253 412.5,-294"/>
<text text-anchor="start" x="241.5" y="-282" font-family="Helvetica,sans-Serif" font-size="10.00">include/meltpooldg</text>
<text text-anchor="start" x="241.5" y="-271" font-family="Helvetica,sans-Serif" font-size="10.00">/fluid_structure_interaction</text>
<text text-anchor="middle" x="323" y="-260" font-family="Helvetica,sans-Serif" font-size="10.00">/brinkman_penalization_data.hpp</text>
</a>
</g>
</g>
<!-- Node6&#45;&gt;Node7 -->
<g id="edge9_Node000006_Node000007" class="edge">
<title>Node6&#45;&gt;Node7</title>
<g id="a_edge9_Node000006_Node000007"><a xlink:title=" ">
<path fill="none" stroke="#63b8ff" d="M257.38,-323.87C270.67,-313.87 285.01,-303.08 296.89,-294.15"/>
<polygon fill="#63b8ff" stroke="#63b8ff" points="255.16,-321.16 249.27,-329.97 259.36,-326.76 255.16,-321.16"/>
</a>
</g>
</g>
<!-- Node7&#45;&gt;Node4 -->
<g id="edge10_Node000007_Node000004" class="edge">
<title>Node7&#45;&gt;Node4</title>
<g id="a_edge10_Node000007_Node000004"><a xlink:title=" ">
<path fill="none" stroke="#63b8ff" d="M279.16,-247.82C258.6,-236.25 234.44,-222.65 215.12,-211.77"/>
<polygon fill="#63b8ff" stroke="#63b8ff" points="277.59,-250.95 288.02,-252.81 281.02,-244.85 277.59,-250.95"/>
</a>
</g>
</g>
<!-- Node7&#45;&gt;Node5 -->
<g id="edge17_Node000007_Node000005" class="edge">
<title>Node7&#45;&gt;Node5</title>
<g id="a_edge17_Node000007_Node000005"><a xlink:title=" ">
<path fill="none" stroke="#63b8ff" d="M384.86,-248.31C400.85,-240.05 417.16,-229.64 430,-217 455.7,-191.72 472.84,-152.61 481.46,-129.18"/>
<polygon fill="#63b8ff" stroke="#63b8ff" points="382.93,-245.36 375.51,-252.92 386.03,-251.64 382.93,-245.36"/>
</a>
</g>
</g>
<!-- Node8 -->
<g id="Node000008" class="node">
<title>Node8</title>
<g id="a_Node000008"><a xlink:href="fluid__structure__interaction__data_8hpp.html" target="_top" xlink:title=" ">
<polygon fill="white" stroke="#666666" points="421.5,-217 274.5,-217 274.5,-165 421.5,-165 421.5,-217"/>
<text text-anchor="start" x="282.5" y="-205" font-family="Helvetica,sans-Serif" font-size="10.00">include/meltpooldg</text>
<text text-anchor="start" x="282.5" y="-194" font-family="Helvetica,sans-Serif" font-size="10.00">/fluid_structure_interaction</text>
<text text-anchor="start" x="282.5" y="-183" font-family="Helvetica,sans-Serif" font-size="10.00">/fluid_structure_interaction</text>
<text text-anchor="middle" x="348" y="-172" font-family="Helvetica,sans-Serif" font-size="10.00">_data.hpp</text>
</a>
</g>
</g>
<!-- Node7&#45;&gt;Node8 -->
<g id="edge11_Node000007_Node000008" class="edge">
<title>Node7&#45;&gt;Node8</title>
<g id="a_edge11_Node000007_Node000008"><a xlink:title=" ">
<path fill="none" stroke="#63b8ff" d="M332.15,-243.05C334.79,-234.55 337.64,-225.36 340.19,-217.16"/>
<polygon fill="#63b8ff" stroke="#63b8ff" points="328.8,-242.01 329.18,-252.6 335.49,-244.09 328.8,-242.01"/>
</a>
</g>
</g>
<!-- Node8&#45;&gt;Node2 -->
<g id="edge12_Node000008_Node000002" class="edge">
<title>Node8&#45;&gt;Node2</title>
<g id="a_edge12_Node000008_Node000002"><a xlink:title=" ">
<path fill="none" stroke="#63b8ff" d="M349.58,-154.56C348.66,-132.92 343.89,-106.04 328,-88 300.3,-56.56 256.03,-41.27 217.85,-33.86"/>
<polygon fill="#63b8ff" stroke="#63b8ff" points="346.08,-154.76 349.75,-164.7 353.08,-154.64 346.08,-154.76"/>
</a>
</g>
</g>
<!-- Node8&#45;&gt;Node9 -->
<g id="edge13_Node000008_Node000009" class="edge">
<title>Node8&#45;&gt;Node9</title>
<g id="a_edge13_Node000008_Node000009"><a xlink:title=" ">
<path fill="none" stroke="#63b8ff" d="M308.2,-158.59C295.63,-148.67 282.11,-138 270.89,-129.15"/>
<polygon fill="#63b8ff" stroke="#63b8ff" points="306.27,-161.52 316.29,-164.97 310.6,-156.03 306.27,-161.52"/>
</a>
</g>
</g>
<!-- Node8&#45;&gt;Node10 -->
<g id="edge16_Node000008_Node000010" class="edge">
<title>Node8&#45;&gt;Node10</title>
<g id="a_edge16_Node000008_Node000010"><a xlink:title=" ">
<path fill="none" stroke="#63b8ff" d="M362.59,-155.8C374.07,-133.05 392.27,-104.43 417,-88 454,-63.42 569.18,-45.3 647.18,-35.45"/>
<polygon fill="#63b8ff" stroke="#63b8ff" points="359.43,-154.29 358.22,-164.82 365.73,-157.34 359.43,-154.29"/>
</a>
</g>
</g>
<!-- Node9&#45;&gt;Node2 -->
<g id="edge14_Node000009_Node000002" class="edge">
<title>Node9&#45;&gt;Node2</title>
<g id="a_edge14_Node000009_Node000002"><a xlink:title=" ">
<path fill="none" stroke="#63b8ff" d="M213.1,-81.54C201.22,-72.16 187.83,-61.59 176.03,-52.28"/>
<polygon fill="#63b8ff" stroke="#63b8ff" points="211.03,-84.36 221.05,-87.81 215.37,-78.86 211.03,-84.36"/>
</a>
</g>
</g>
<!-- Node9&#45;&gt;Node10 -->
<g id="edge15_Node000009_Node000010" class="edge">
<title>Node9&#45;&gt;Node10</title>
<g id="a_edge15_Node000009_Node000010"><a xlink:title=" ">
<path fill="none" stroke="#63b8ff" d="M329.61,-93.39C419.32,-78.25 560.56,-54.41 647.15,-39.8"/>
<polygon fill="#63b8ff" stroke="#63b8ff" points="329.02,-89.94 319.75,-95.05 330.19,-96.84 329.02,-89.94"/>
</a>
</g>
</g>
<!-- Node11&#45;&gt;Node12 -->
<g id="edge21_Node000011_Node000012" class="edge">
<title>Node11&#45;&gt;Node12</title>
<g id="a_edge21_Node000011_Node000012"><a xlink:title=" ">
<path fill="none" stroke="#63b8ff" d="M426.4,-332.02C428.29,-331.34 430.16,-330.67 432,-330 471.16,-315.85 515.93,-299.72 547.07,-288.51"/>
<polygon fill="#63b8ff" stroke="#63b8ff" points="425.07,-328.78 416.86,-335.47 427.46,-335.36 425.07,-328.78"/>
</a>
</g>
</g>
<!-- Node13&#45;&gt;Node14 -->
<g id="edge23_Node000013_Node000014" class="edge">
<title>Node13&#45;&gt;Node14</title>
<g id="a_edge23_Node000013_Node000014"><a xlink:title=" ">
<path fill="none" stroke="#63b8ff" d="M611.46,-338.13C662.32,-323.46 735.17,-302.44 783.02,-288.63"/>
<polygon fill="#63b8ff" stroke="#63b8ff" points="610.24,-334.84 601.6,-340.98 612.18,-341.57 610.24,-334.84"/>
</a>
</g>
</g>
</g>
</svg>

<g id="navigator" transform="translate(0 0)" fill="#404254">
  <rect fill="#f2f5e9" fill-opacity="0.5" stroke="#606060" stroke-width=".5" x="0" y="0" width="60" height="60"/>
  <use id="zoomplus" xlink:href="#zoomPlus" x="17" y="9" onmousedown="handleZoom(evt,'in')"/>
  <use id="zoomminus" xlink:href="#zoomMin" x="42" y="9" onmousedown="handleZoom(evt,'out')"/>
  <use id="reset" xlink:href="#resetDef" x="30" y="36" onmousedown="handleReset()"/>
   <use id="arrowup" xlink:href="#arrowUp" x="0" y="0" onmousedown="handlePan(0,-1)"/>
  <use id="arrowright" xlink:href="#arrowRight" x="0" y="0" onmousedown="handlePan(1,0)"/>
  <use id="arrowdown" xlink:href="#arrowDown" x="0" y="0" onmousedown="handlePan(0,1)"/>
  <use id="arrowleft" xlink:href="#arrowLeft" x="0" y="0" onmousedown="handlePan(-1,0)"/>
</g>
<svg viewBox="0 0 15 15" width="100%" height="30px" preserveAspectRatio="xMaxYMin meet">
 <g id="arrow_out" transform="scale(0.3 0.3)">
  <a xlink:href="obstacle__forces_8hpp__dep__incl_org.svg" target="_base">
   <rect id="button" ry="5" rx="5" y="6" x="6" height="38" width="38"
        fill="#f2f5e9" fill-opacity="0.5" stroke="#606060" stroke-width="1.0"/>
   <path id="arrow"
     d="M 11.500037,31.436501 C 11.940474,20.09759 22.043105,11.32322 32.158766,21.979434 L 37.068811,17.246167 C 37.068811,17.246167 37.088388,32 37.088388,32 L 22.160133,31.978069 C 22.160133,31.978069 26.997745,27.140456 26.997745,27.140456 C 18.528582,18.264221 13.291696,25.230495 11.500037,31.436501 z"
     style="fill:#404040;"/>
  </a>
 </g>
</svg>

<style type='text/css'>
<![CDATA[
[data-mouse-over-selected='false'] { opacity: 0.7; }
[data-mouse-over-selected='true']  { opacity: 1.0; }
]]>
</style>
<script type="application/ecmascript"><![CDATA[
document.addEventListener('DOMContentLoaded', (event) => {
  highlightEdges();
  highlightAdjacentNodes();
});
]]></script>
</svg>
