<?xml version="1.0" encoding="UTF-8" standalone="no"?>
<!DOCTYPE svg PUBLIC "-//W3C//DTD SVG 1.1//EN"
 "http://www.w3.org/Graphics/SVG/1.1/DTD/svg11.dtd">
<!-- Generated by graphviz version 2.43.0 (0)
 -->
<!-- Title: include/meltpooldg/particles/obstacle_forces.hpp Pages: 1 -->
<svg width="1690pt" height="313pt"
 viewBox="0.00 0.00 1689.50 313.00" xmlns="http://www.w3.org/2000/svg" xmlns:xlink="http://www.w3.org/1999/xlink">
<g id="graph0" class="graph" transform="scale(1 1) rotate(0) translate(4 309)">
<title>include/meltpooldg/particles/obstacle_forces.hpp</title>
<!-- Node1 -->
<g id="Node000001" class="node">
<title>Node1</title>
<g id="a_Node000001"><a xlink:title=" ">
<polygon fill="#999999" stroke="#666666" points="359.5,-305 249.5,-305 249.5,-264 359.5,-264 359.5,-305"/>
<text text-anchor="start" x="257.5" y="-293" font-family="Helvetica,sans-Serif" font-size="10.00">include/meltpooldg</text>
<text text-anchor="start" x="257.5" y="-282" font-family="Helvetica,sans-Serif" font-size="10.00">/particles/obstacle</text>
<text text-anchor="middle" x="304.5" y="-271" font-family="Helvetica,sans-Serif" font-size="10.00">_forces.hpp</text>
</a>
</g>
</g>
<!-- Node2 -->
<g id="Node000002" class="node">
<title>Node2</title>
<g id="a_Node000002"><a xlink:title=" ">
<polygon fill="#e0e0e0" stroke="#999999" points="115,-90.5 0,-90.5 0,-71.5 115,-71.5 115,-90.5"/>
<text text-anchor="middle" x="57.5" y="-78.5" font-family="Helvetica,sans-Serif" font-size="10.00">deal.II/base/tensor.h</text>
</a>
</g>
</g>
<!-- Node1&#45;&gt;Node2 -->
<g id="edge1_Node000001_Node000002" class="edge">
<title>Node1&#45;&gt;Node2</title>
<g id="a_edge1_Node000001_Node000002"><a xlink:title=" ">
<path fill="none" stroke="#63b8ff" d="M280.37,-263.81C231.2,-223.71 120.37,-133.29 76.19,-97.25"/>
<polygon fill="#63b8ff" stroke="#63b8ff" points="78.24,-94.41 68.28,-90.8 73.82,-99.83 78.24,-94.41"/>
</a>
</g>
</g>
<!-- Node3 -->
<g id="Node000003" class="node">
<title>Node3</title>
<g id="a_Node000003"><a xlink:title=" ">
<polygon fill="#e0e0e0" stroke="#999999" points="264,-96 133,-96 133,-66 264,-66 264,-96"/>
<text text-anchor="start" x="141" y="-84" font-family="Helvetica,sans-Serif" font-size="10.00">deal.II/particles/particle</text>
<text text-anchor="middle" x="198.5" y="-73" font-family="Helvetica,sans-Serif" font-size="10.00">_accessor.h</text>
</a>
</g>
</g>
<!-- Node1&#45;&gt;Node3 -->
<g id="edge2_Node000001_Node000003" class="edge">
<title>Node1&#45;&gt;Node3</title>
<g id="a_edge2_Node000001_Node000003"><a xlink:title=" ">
<path fill="none" stroke="#63b8ff" d="M294.14,-263.81C274.46,-226.39 231.74,-145.19 210.7,-105.2"/>
<polygon fill="#63b8ff" stroke="#63b8ff" points="213.72,-103.42 205.97,-96.2 207.53,-106.68 213.72,-103.42"/>
</a>
</g>
</g>
<!-- Node4 -->
<g id="Node000004" class="node">
<title>Node4</title>
<g id="a_Node000004"><a xlink:href="particle__accessor_8hpp.html" target="_top" xlink:title=" ">
<polygon fill="white" stroke="#666666" points="716,-228 591,-228 591,-198 716,-198 716,-228"/>
<text text-anchor="start" x="599" y="-216" font-family="Helvetica,sans-Serif" font-size="10.00">meltpooldg/particles</text>
<text text-anchor="middle" x="653.5" y="-205" font-family="Helvetica,sans-Serif" font-size="10.00">/particle_accessor.hpp</text>
</a>
</g>
</g>
<!-- Node1&#45;&gt;Node4 -->
<g id="edge3_Node000001_Node000004" class="edge">
<title>Node1&#45;&gt;Node4</title>
<g id="a_edge3_Node000001_Node000004"><a xlink:title=" ">
<path fill="none" stroke="#63b8ff" d="M359.8,-272.49C419.58,-260.58 515.12,-241.56 580.91,-228.46"/>
<polygon fill="#63b8ff" stroke="#63b8ff" points="581.67,-231.87 590.79,-226.49 580.3,-225.01 581.67,-231.87"/>
</a>
</g>
</g>
<!-- Node11 -->
<g id="Node000011" class="node">
<title>Node11</title>
<g id="a_Node000011"><a xlink:title=" ">
<polygon fill="#e0e0e0" stroke="#999999" points="1681.5,-24.5 1623.5,-24.5 1623.5,-5.5 1681.5,-5.5 1681.5,-24.5"/>
<text text-anchor="middle" x="1652.5" y="-12.5" font-family="Helvetica,sans-Serif" font-size="10.00">memory</text>
</a>
</g>
</g>
<!-- Node1&#45;&gt;Node11 -->
<g id="edge44_Node000001_Node000011" class="edge">
<title>Node1&#45;&gt;Node11</title>
<g id="a_edge44_Node000001_Node000011"><a xlink:title=" ">
<path fill="none" stroke="#63b8ff" d="M359.73,-280.62C561.9,-269.65 1260.89,-227.71 1473.5,-162 1532.4,-143.8 1549.31,-136.83 1595.5,-96 1615.9,-77.97 1633.03,-51.31 1643.03,-33.8"/>
<polygon fill="#63b8ff" stroke="#63b8ff" points="1646.29,-35.13 1648.06,-24.68 1640.16,-31.74 1646.29,-35.13"/>
</a>
</g>
</g>
<!-- Node31 -->
<g id="Node000031" class="node">
<title>Node31</title>
<g id="a_Node000031"><a xlink:title=" ">
<polygon fill="#e0e0e0" stroke="#999999" points="327,-90.5 282,-90.5 282,-71.5 327,-71.5 327,-90.5"/>
<text text-anchor="middle" x="304.5" y="-78.5" font-family="Helvetica,sans-Serif" font-size="10.00">utility</text>
</a>
</g>
</g>
<!-- Node1&#45;&gt;Node31 -->
<g id="edge45_Node000001_Node000031" class="edge">
<title>Node1&#45;&gt;Node31</title>
<g id="a_edge45_Node000001_Node000031"><a xlink:title=" ">
<path fill="none" stroke="#63b8ff" d="M304.5,-263.81C304.5,-225.04 304.5,-139.26 304.5,-101.03"/>
<polygon fill="#63b8ff" stroke="#63b8ff" points="308,-100.8 304.5,-90.8 301,-100.8 308,-100.8"/>
</a>
</g>
</g>
<!-- Node4&#45;&gt;Node3 -->
<g id="edge4_Node000004_Node000003" class="edge">
<title>Node4&#45;&gt;Node3</title>
<g id="a_edge4_Node000004_Node000003"><a xlink:title=" ">
<path fill="none" stroke="#63b8ff" d="M604.37,-197.96C520.1,-173.89 348.3,-124.8 257.61,-98.89"/>
<polygon fill="#63b8ff" stroke="#63b8ff" points="258.34,-95.46 247.76,-96.08 256.42,-102.19 258.34,-95.46"/>
</a>
</g>
</g>
<!-- Node5 -->
<g id="Node000005" class="node">
<title>Node5</title>
<g id="a_Node000005"><a xlink:title=" ">
<polygon fill="#e0e0e0" stroke="#999999" points="649.5,-162 513.5,-162 513.5,-132 649.5,-132 649.5,-162"/>
<text text-anchor="start" x="521.5" y="-150" font-family="Helvetica,sans-Serif" font-size="10.00">deal.II/particles/property</text>
<text text-anchor="middle" x="581.5" y="-139" font-family="Helvetica,sans-Serif" font-size="10.00">_pool.h</text>
</a>
</g>
</g>
<!-- Node4&#45;&gt;Node5 -->
<g id="edge5_Node000004_Node000005" class="edge">
<title>Node4&#45;&gt;Node5</title>
<g id="a_edge5_Node000004_Node000005"><a xlink:title=" ">
<path fill="none" stroke="#63b8ff" d="M637.52,-197.8C628.01,-189.34 615.77,-178.46 605.16,-169.03"/>
<polygon fill="#63b8ff" stroke="#63b8ff" points="607.23,-166.19 597.43,-162.16 602.58,-171.42 607.23,-166.19"/>
</a>
</g>
</g>
<!-- Node6 -->
<g id="Node000006" class="node">
<title>Node6</title>
<g id="a_Node000006"><a xlink:href="dem__util_8hpp.html" target="_top" xlink:title=" ">
<polygon fill="white" stroke="#666666" points="1367,-162 1250,-162 1250,-132 1367,-132 1367,-162"/>
<text text-anchor="start" x="1258" y="-150" font-family="Helvetica,sans-Serif" font-size="10.00">meltpooldg/particles</text>
<text text-anchor="middle" x="1308.5" y="-139" font-family="Helvetica,sans-Serif" font-size="10.00">/dem_util.hpp</text>
</a>
</g>
</g>
<!-- Node4&#45;&gt;Node6 -->
<g id="edge6_Node000004_Node000006" class="edge">
<title>Node4&#45;&gt;Node6</title>
<g id="a_edge6_Node000004_Node000006"><a xlink:title=" ">
<path fill="none" stroke="#63b8ff" d="M716.01,-205.89C838.98,-193.88 1111.51,-167.25 1239.53,-154.74"/>
<polygon fill="#63b8ff" stroke="#63b8ff" points="1240,-158.21 1249.61,-153.75 1239.32,-151.24 1240,-158.21"/>
</a>
</g>
</g>
<!-- Node10 -->
<g id="Node000010" class="node">
<title>Node10</title>
<g id="a_Node000010"><a xlink:title=" ">
<polygon fill="#e0e0e0" stroke="#999999" points="1605,-24.5 1540,-24.5 1540,-5.5 1605,-5.5 1605,-24.5"/>
<text text-anchor="middle" x="1572.5" y="-12.5" font-family="Helvetica,sans-Serif" font-size="10.00">functional</text>
</a>
</g>
</g>
<!-- Node4&#45;&gt;Node10 -->
<g id="edge43_Node000004_Node000010" class="edge">
<title>Node4&#45;&gt;Node10</title>
<g id="a_edge43_Node000004_Node000010"><a xlink:title=" ">
<path fill="none" stroke="#63b8ff" d="M716.07,-212.83C842.24,-213.37 1135.68,-208.92 1376.5,-162 1469.21,-143.94 1523.05,-172.46 1578.5,-96 1591.43,-78.17 1586.09,-51.83 1580.13,-34.31"/>
<polygon fill="#63b8ff" stroke="#63b8ff" points="1583.3,-32.8 1576.48,-24.69 1576.75,-35.28 1583.3,-32.8"/>
</a>
</g>
</g>
<!-- Node13 -->
<g id="Node000013" class="node">
<title>Node13</title>
<g id="a_Node000013"><a xlink:href="particle_8hpp.html" target="_top" xlink:title=" ">
<polygon fill="white" stroke="#666666" points="785,-162 668,-162 668,-132 785,-132 785,-162"/>
<text text-anchor="start" x="676" y="-150" font-family="Helvetica,sans-Serif" font-size="10.00">meltpooldg/particles</text>
<text text-anchor="middle" x="726.5" y="-139" font-family="Helvetica,sans-Serif" font-size="10.00">/particle.hpp</text>
</a>
</g>
</g>
<!-- Node4&#45;&gt;Node13 -->
<g id="edge15_Node000004_Node000013" class="edge">
<title>Node4&#45;&gt;Node13</title>
<g id="a_edge15_Node000004_Node000013"><a xlink:title=" ">
<path fill="none" stroke="#63b8ff" d="M669.7,-197.8C679.34,-189.34 691.75,-178.46 702.51,-169.03"/>
<polygon fill="#63b8ff" stroke="#63b8ff" points="705.13,-171.39 710.34,-162.16 700.52,-166.12 705.13,-171.39"/>
</a>
</g>
</g>
<!-- Node7 -->
<g id="Node000007" class="node">
<title>Node7</title>
<g id="a_Node000007"><a xlink:title=" ">
<polygon fill="#e0e0e0" stroke="#999999" points="1374,-96 1243,-96 1243,-66 1374,-66 1374,-96"/>
<text text-anchor="start" x="1251" y="-84" font-family="Helvetica,sans-Serif" font-size="10.00">deal.II/particles/particle</text>
<text text-anchor="middle" x="1308.5" y="-73" font-family="Helvetica,sans-Serif" font-size="10.00">_handler.h</text>
</a>
</g>
</g>
<!-- Node6&#45;&gt;Node7 -->
<g id="edge7_Node000006_Node000007" class="edge">
<title>Node6&#45;&gt;Node7</title>
<g id="a_edge7_Node000006_Node000007"><a xlink:title=" ">
<path fill="none" stroke="#63b8ff" d="M1308.5,-131.8C1308.5,-124.34 1308.5,-114.99 1308.5,-106.41"/>
<polygon fill="#63b8ff" stroke="#63b8ff" points="1312,-106.16 1308.5,-96.16 1305,-106.16 1312,-106.16"/>
</a>
</g>
</g>
<!-- Node8 -->
<g id="Node000008" class="node">
<title>Node8</title>
<g id="a_Node000008"><a xlink:href="solution__history_8hpp.html" target="_top" xlink:title=" ">
<polygon fill="white" stroke="#666666" points="1548.5,-96 1392.5,-96 1392.5,-66 1548.5,-66 1548.5,-96"/>
<text text-anchor="start" x="1400.5" y="-84" font-family="Helvetica,sans-Serif" font-size="10.00">meltpooldg/time_integration</text>
<text text-anchor="middle" x="1470.5" y="-73" font-family="Helvetica,sans-Serif" font-size="10.00">/solution_history.hpp</text>
</a>
</g>
</g>
<!-- Node6&#45;&gt;Node8 -->
<g id="edge8_Node000006_Node000008" class="edge">
<title>Node6&#45;&gt;Node8</title>
<g id="a_edge8_Node000006_Node000008"><a xlink:title=" ">
<path fill="none" stroke="#63b8ff" d="M1344.05,-131.95C1368,-122.49 1399.79,-109.93 1425.5,-99.78"/>
<polygon fill="#63b8ff" stroke="#63b8ff" points="1427.02,-102.94 1435.03,-96.01 1424.44,-96.43 1427.02,-102.94"/>
</a>
</g>
</g>
<!-- Node6&#45;&gt;Node10 -->
<g id="edge13_Node000006_Node000010" class="edge">
<title>Node6&#45;&gt;Node10</title>
<g id="a_edge13_Node000006_Node000010"><a xlink:title=" ">
<path fill="none" stroke="#63b8ff" d="M1367.03,-141.71C1432.08,-135.69 1531.44,-122.4 1557.5,-96 1573.29,-80.01 1575.25,-53.02 1574.47,-34.87"/>
<polygon fill="#63b8ff" stroke="#63b8ff" points="1577.96,-34.59 1573.73,-24.88 1570.98,-35.11 1577.96,-34.59"/>
</a>
</g>
</g>
<!-- Node12 -->
<g id="Node000012" class="node">
<title>Node12</title>
<g id="a_Node000012"><a xlink:title=" ">
<polygon fill="#e0e0e0" stroke="#999999" points="1508,-24.5 1461,-24.5 1461,-5.5 1508,-5.5 1508,-24.5"/>
<text text-anchor="middle" x="1484.5" y="-12.5" font-family="Helvetica,sans-Serif" font-size="10.00">vector</text>
</a>
</g>
</g>
<!-- Node6&#45;&gt;Node12 -->
<g id="edge14_Node000006_Node000012" class="edge">
<title>Node6&#45;&gt;Node12</title>
<g id="a_edge14_Node000006_Node000012"><a xlink:title=" ">
<path fill="none" stroke="#63b8ff" d="M1279.44,-131.89C1250.89,-116.16 1214.31,-89.81 1234.5,-66 1266.11,-28.71 1404.56,-43.64 1451.5,-30 1453.18,-29.51 1454.9,-28.96 1456.61,-28.37"/>
<polygon fill="#63b8ff" stroke="#63b8ff" points="1458.21,-31.5 1466.28,-24.64 1455.69,-24.97 1458.21,-31.5"/>
</a>
</g>
</g>
<!-- Node9 -->
<g id="Node000009" class="node">
<title>Node9</title>
<g id="a_Node000009"><a xlink:title=" ">
<polygon fill="#e0e0e0" stroke="#999999" points="1442.5,-24.5 1304.5,-24.5 1304.5,-5.5 1442.5,-5.5 1442.5,-24.5"/>
<text text-anchor="middle" x="1373.5" y="-12.5" font-family="Helvetica,sans-Serif" font-size="10.00">deal.II/base/exceptions.h</text>
</a>
</g>
</g>
<!-- Node8&#45;&gt;Node9 -->
<g id="edge9_Node000008_Node000009" class="edge">
<title>Node8&#45;&gt;Node9</title>
<g id="a_edge9_Node000008_Node000009"><a xlink:title=" ">
<path fill="none" stroke="#63b8ff" d="M1448.97,-65.8C1433.02,-55.27 1411.35,-40.97 1395.32,-30.4"/>
<polygon fill="#63b8ff" stroke="#63b8ff" points="1396.9,-27.24 1386.62,-24.66 1393.04,-33.09 1396.9,-27.24"/>
</a>
</g>
</g>
<!-- Node8&#45;&gt;Node10 -->
<g id="edge10_Node000008_Node000010" class="edge">
<title>Node8&#45;&gt;Node10</title>
<g id="a_edge10_Node000008_Node000010"><a xlink:title=" ">
<path fill="none" stroke="#63b8ff" d="M1492.88,-65.95C1509.91,-55.27 1533.21,-40.65 1550.21,-29.98"/>
<polygon fill="#63b8ff" stroke="#63b8ff" points="1552.32,-32.8 1558.93,-24.52 1548.59,-26.87 1552.32,-32.8"/>
</a>
</g>
</g>
<!-- Node8&#45;&gt;Node11 -->
<g id="edge11_Node000008_Node000011" class="edge">
<title>Node8&#45;&gt;Node11</title>
<g id="a_edge11_Node000008_Node000011"><a xlink:title=" ">
<path fill="none" stroke="#63b8ff" d="M1511.54,-65.98C1540.39,-56.07 1579.86,-42.39 1614.5,-30 1616.34,-29.34 1618.22,-28.66 1620.12,-27.97"/>
<polygon fill="#63b8ff" stroke="#63b8ff" points="1621.42,-31.23 1629.62,-24.51 1619.02,-24.65 1621.42,-31.23"/>
</a>
</g>
</g>
<!-- Node8&#45;&gt;Node12 -->
<g id="edge12_Node000008_Node000012" class="edge">
<title>Node8&#45;&gt;Node12</title>
<g id="a_edge12_Node000008_Node000012"><a xlink:title=" ">
<path fill="none" stroke="#63b8ff" d="M1473.61,-65.8C1475.6,-56.7 1478.2,-44.79 1480.37,-34.9"/>
<polygon fill="#63b8ff" stroke="#63b8ff" points="1483.85,-35.36 1482.57,-24.84 1477.01,-33.87 1483.85,-35.36"/>
</a>
</g>
</g>
<!-- Node13&#45;&gt;Node2 -->
<g id="edge20_Node000013_Node000002" class="edge">
<title>Node13&#45;&gt;Node2</title>
<g id="a_edge20_Node000013_Node000002"><a xlink:title=" ">
<path fill="none" stroke="#63b8ff" d="M667.98,-133.43C664.78,-132.9 661.61,-132.42 658.5,-132 422.36,-99.9 359.55,-128.81 123.5,-96 116.87,-95.08 109.92,-93.87 103.11,-92.55"/>
<polygon fill="#63b8ff" stroke="#63b8ff" points="103.8,-89.12 93.3,-90.56 102.41,-95.98 103.8,-89.12"/>
</a>
</g>
</g>
<!-- Node13&#45;&gt;Node3 -->
<g id="edge23_Node000013_Node000003" class="edge">
<title>Node13&#45;&gt;Node3</title>
<g id="a_edge23_Node000013_Node000003"><a xlink:title=" ">
<path fill="none" stroke="#63b8ff" d="M667.97,-133.52C664.77,-132.97 661.6,-132.46 658.5,-132 491.33,-107.07 444.87,-119.54 274.29,-96.17"/>
<polygon fill="#63b8ff" stroke="#63b8ff" points="274.6,-92.68 264.21,-94.76 273.64,-99.61 274.6,-92.68"/>
</a>
</g>
</g>
<!-- Node13&#45;&gt;Node9 -->
<g id="edge18_Node000013_Node000009" class="edge">
<title>Node13&#45;&gt;Node9</title>
<g id="a_edge18_Node000013_Node000009"><a xlink:title=" ">
<path fill="none" stroke="#63b8ff" d="M785.23,-142.5C841.4,-137.48 927.5,-125.31 996.5,-96 1017.61,-87.03 1017.19,-74.5 1038.5,-66 1145.62,-23.25 1181.61,-48.19 1295.5,-30 1302.69,-28.85 1310.24,-27.58 1317.7,-26.28"/>
<polygon fill="#63b8ff" stroke="#63b8ff" points="1318.53,-29.69 1327.77,-24.51 1317.31,-22.8 1318.53,-29.69"/>
</a>
</g>
</g>
<!-- Node13&#45;&gt;Node12 -->
<g id="edge42_Node000013_Node000012" class="edge">
<title>Node13&#45;&gt;Node12</title>
<g id="a_edge42_Node000013_Node000012"><a xlink:title=" ">
<path fill="none" stroke="#63b8ff" d="M785.09,-144.84C869.01,-141.91 1027.67,-131.69 1157.5,-96 1188.96,-87.35 1193.23,-75.3 1224.5,-66 1322.41,-36.87 1353.31,-58.16 1451.5,-30 1453.38,-29.46 1455.3,-28.84 1457.22,-28.17"/>
<polygon fill="#63b8ff" stroke="#63b8ff" points="1458.58,-31.4 1466.63,-24.52 1456.04,-24.87 1458.58,-31.4"/>
</a>
</g>
</g>
<!-- Node14 -->
<g id="Node000014" class="node">
<title>Node14</title>
<g id="a_Node000014"><a xlink:title=" ">
<polygon fill="#e0e0e0" stroke="#999999" points="169.5,-24.5 55.5,-24.5 55.5,-5.5 169.5,-5.5 169.5,-24.5"/>
<text text-anchor="middle" x="112.5" y="-12.5" font-family="Helvetica,sans-Serif" font-size="10.00">deal.II/base/config.h</text>
</a>
</g>
</g>
<!-- Node13&#45;&gt;Node14 -->
<g id="edge16_Node000013_Node000014" class="edge">
<title>Node13&#45;&gt;Node14</title>
<g id="a_edge16_Node000013_Node000014"><a xlink:title=" ">
<path fill="none" stroke="#63b8ff" d="M667.6,-132C624.54,-121.27 570.19,-106.56 549.5,-96 530.33,-86.22 531.42,-74.14 511.5,-66 373.7,-9.68 325.5,-53.47 178.5,-30 172.28,-29.01 165.75,-27.81 159.33,-26.54"/>
<polygon fill="#63b8ff" stroke="#63b8ff" points="159.88,-23.08 149.38,-24.51 158.48,-29.94 159.88,-23.08"/>
</a>
</g>
</g>
<!-- Node15 -->
<g id="Node000015" class="node">
<title>Node15</title>
<g id="a_Node000015"><a xlink:title=" ">
<polygon fill="#e0e0e0" stroke="#999999" points="1148,-96 1047,-96 1047,-66 1148,-66 1148,-96"/>
<text text-anchor="start" x="1055" y="-84" font-family="Helvetica,sans-Serif" font-size="10.00">deal.II/base/array</text>
<text text-anchor="middle" x="1097.5" y="-73" font-family="Helvetica,sans-Serif" font-size="10.00">_view.h</text>
</a>
</g>
</g>
<!-- Node13&#45;&gt;Node15 -->
<g id="edge17_Node000013_Node000015" class="edge">
<title>Node13&#45;&gt;Node15</title>
<g id="a_edge17_Node000013_Node000015"><a xlink:title=" ">
<path fill="none" stroke="#63b8ff" d="M785.03,-137.33C846.73,-127.98 946.69,-112.24 1032.5,-96 1033.95,-95.72 1035.42,-95.44 1036.91,-95.15"/>
<polygon fill="#63b8ff" stroke="#63b8ff" points="1037.69,-98.57 1046.81,-93.18 1036.32,-91.7 1037.69,-98.57"/>
</a>
</g>
</g>
<!-- Node16 -->
<g id="Node000016" class="node">
<title>Node16</title>
<g id="a_Node000016"><a xlink:title=" ">
<polygon fill="#e0e0e0" stroke="#999999" points="297.5,-24.5 187.5,-24.5 187.5,-5.5 297.5,-5.5 297.5,-24.5"/>
<text text-anchor="middle" x="242.5" y="-12.5" font-family="Helvetica,sans-Serif" font-size="10.00">deal.II/base/point.h</text>
</a>
</g>
</g>
<!-- Node13&#45;&gt;Node16 -->
<g id="edge19_Node000013_Node000016" class="edge">
<title>Node13&#45;&gt;Node16</title>
<g id="a_edge19_Node000013_Node000016"><a xlink:title=" ">
<path fill="none" stroke="#63b8ff" d="M727.67,-131.95C728.33,-113.73 726.39,-82.35 707.5,-66 639.86,-7.44 394.93,-43.59 306.5,-30 300.3,-29.05 293.81,-27.86 287.43,-26.57"/>
<polygon fill="#63b8ff" stroke="#63b8ff" points="288.07,-23.13 277.56,-24.5 286.63,-29.98 288.07,-23.13"/>
</a>
</g>
</g>
<!-- Node17 -->
<g id="Node000017" class="node">
<title>Node17</title>
<g id="a_Node000017"><a xlink:title=" ">
<polygon fill="#e0e0e0" stroke="#999999" points="502.5,-96 344.5,-96 344.5,-66 502.5,-66 502.5,-96"/>
<text text-anchor="start" x="352.5" y="-84" font-family="Helvetica,sans-Serif" font-size="10.00">deal.II/numerics/data</text>
<text text-anchor="middle" x="423.5" y="-73" font-family="Helvetica,sans-Serif" font-size="10.00">_component_interpretation.h</text>
</a>
</g>
</g>
<!-- Node13&#45;&gt;Node17 -->
<g id="edge21_Node000013_Node000017" class="edge">
<title>Node13&#45;&gt;Node17</title>
<g id="a_edge21_Node000013_Node000017"><a xlink:title=" ">
<path fill="none" stroke="#63b8ff" d="M667.72,-133.58C619.86,-123.48 551.95,-109.13 499.88,-98.13"/>
<polygon fill="#63b8ff" stroke="#63b8ff" points="500.53,-94.69 490.02,-96.05 499.08,-101.54 500.53,-94.69"/>
</a>
</g>
</g>
<!-- Node18 -->
<g id="Node000018" class="node">
<title>Node18</title>
<g id="a_Node000018"><a xlink:title=" ">
<polygon fill="#e0e0e0" stroke="#999999" points="698.5,-90.5 558.5,-90.5 558.5,-71.5 698.5,-71.5 698.5,-90.5"/>
<text text-anchor="middle" x="628.5" y="-78.5" font-family="Helvetica,sans-Serif" font-size="10.00">deal.II/particles/particle.h</text>
</a>
</g>
</g>
<!-- Node13&#45;&gt;Node18 -->
<g id="edge22_Node000013_Node000018" class="edge">
<title>Node13&#45;&gt;Node18</title>
<g id="a_edge22_Node000013_Node000018"><a xlink:title=" ">
<path fill="none" stroke="#63b8ff" d="M704.75,-131.8C688.63,-121.27 666.74,-106.97 650.55,-96.4"/>
<polygon fill="#63b8ff" stroke="#63b8ff" points="652.04,-93.2 641.76,-90.66 648.22,-99.06 652.04,-93.2"/>
</a>
</g>
</g>
<!-- Node19 -->
<g id="Node000019" class="node">
<title>Node19</title>
<g id="a_Node000019"><a xlink:href="utilities_2utility__functions_8hpp.html" target="_top" xlink:title=" ">
<polygon fill="white" stroke="#666666" points="952,-96 833,-96 833,-66 952,-66 952,-96"/>
<text text-anchor="start" x="841" y="-84" font-family="Helvetica,sans-Serif" font-size="10.00">meltpooldg/utilities</text>
<text text-anchor="middle" x="892.5" y="-73" font-family="Helvetica,sans-Serif" font-size="10.00">/utility_functions.hpp</text>
</a>
</g>
</g>
<!-- Node13&#45;&gt;Node19 -->
<g id="edge24_Node000013_Node000019" class="edge">
<title>Node13&#45;&gt;Node19</title>
<g id="a_edge24_Node000013_Node000019"><a xlink:title=" ">
<path fill="none" stroke="#63b8ff" d="M762.93,-131.95C787.58,-122.45 820.33,-109.82 846.74,-99.64"/>
<polygon fill="#63b8ff" stroke="#63b8ff" points="848.08,-102.88 856.16,-96.01 845.57,-96.34 848.08,-102.88"/>
</a>
</g>
</g>
<!-- Node28 -->
<g id="Node000028" class="node">
<title>Node28</title>
<g id="a_Node000028"><a xlink:title=" ">
<polygon fill="#e0e0e0" stroke="#999999" points="1286.5,-24.5 1242.5,-24.5 1242.5,-5.5 1286.5,-5.5 1286.5,-24.5"/>
<text text-anchor="middle" x="1264.5" y="-12.5" font-family="Helvetica,sans-Serif" font-size="10.00">string</text>
</a>
</g>
</g>
<!-- Node13&#45;&gt;Node28 -->
<g id="edge40_Node000013_Node000028" class="edge">
<title>Node13&#45;&gt;Node28</title>
<g id="a_edge40_Node000013_Node000028"><a xlink:title=" ">
<path fill="none" stroke="#63b8ff" d="M785.46,-140.06C834.23,-133.62 904.49,-120.74 961.5,-96 982.88,-86.72 982.88,-74.69 1004.5,-66 1100.5,-27.41 1135.53,-60.18 1234.5,-30 1235.94,-29.56 1237.41,-29.06 1238.87,-28.53"/>
<polygon fill="#63b8ff" stroke="#63b8ff" points="1240.46,-31.66 1248.32,-24.56 1237.75,-25.2 1240.46,-31.66"/>
</a>
</g>
</g>
<!-- Node30 -->
<g id="Node000030" class="node">
<title>Node30</title>
<g id="a_Node000030"><a xlink:title=" ">
<polygon fill="#e0e0e0" stroke="#999999" points="814.5,-90.5 754.5,-90.5 754.5,-71.5 814.5,-71.5 814.5,-90.5"/>
<text text-anchor="middle" x="784.5" y="-78.5" font-family="Helvetica,sans-Serif" font-size="10.00">iostream</text>
</a>
</g>
</g>
<!-- Node13&#45;&gt;Node30 -->
<g id="edge39_Node000013_Node000030" class="edge">
<title>Node13&#45;&gt;Node30</title>
<g id="a_edge39_Node000013_Node000030"><a xlink:title=" ">
<path fill="none" stroke="#63b8ff" d="M739.37,-131.8C748.33,-121.92 760.29,-108.72 769.64,-98.39"/>
<polygon fill="#63b8ff" stroke="#63b8ff" points="772.36,-100.6 776.48,-90.84 767.18,-95.9 772.36,-100.6"/>
</a>
</g>
</g>
<!-- Node13&#45;&gt;Node31 -->
<g id="edge41_Node000013_Node000031" class="edge">
<title>Node13&#45;&gt;Node31</title>
<g id="a_edge41_Node000013_Node000031"><a xlink:title=" ">
<path fill="none" stroke="#63b8ff" d="M667.96,-133.59C664.76,-133.02 661.6,-132.49 658.5,-132 515.83,-109.41 474.8,-134.19 335.5,-96 333.82,-95.54 332.11,-95 330.4,-94.4"/>
<polygon fill="#63b8ff" stroke="#63b8ff" points="331.46,-91.05 320.88,-90.55 328.83,-97.54 331.46,-91.05"/>
</a>
</g>
</g>
<!-- Node19&#45;&gt;Node9 -->
<g id="edge26_Node000019_Node000009" class="edge">
<title>Node19&#45;&gt;Node9</title>
<g id="a_edge26_Node000019_Node000009"><a xlink:title=" ">
<path fill="none" stroke="#63b8ff" d="M952.08,-72.54C969.02,-70.42 987.48,-68.12 1004.5,-66 1133.82,-49.92 1166.65,-49.52 1295.5,-30 1302.88,-28.88 1310.63,-27.61 1318.27,-26.3"/>
<polygon fill="#63b8ff" stroke="#63b8ff" points="1318.95,-29.73 1328.2,-24.56 1317.75,-22.84 1318.95,-29.73"/>
</a>
</g>
</g>
<!-- Node19&#45;&gt;Node12 -->
<g id="edge38_Node000019_Node000012" class="edge">
<title>Node19&#45;&gt;Node12</title>
<g id="a_edge38_Node000019_Node000012"><a xlink:title=" ">
<path fill="none" stroke="#63b8ff" d="M952.16,-74.16C978.6,-71.6 1010.1,-68.6 1038.5,-66 1221.98,-49.21 1272.71,-74.53 1451.5,-30 1453.45,-29.51 1455.43,-28.93 1457.4,-28.28"/>
<polygon fill="#63b8ff" stroke="#63b8ff" points="1458.94,-31.44 1467.04,-24.61 1456.45,-24.9 1458.94,-31.44"/>
</a>
</g>
</g>
<!-- Node19&#45;&gt;Node14 -->
<g id="edge25_Node000019_Node000014" class="edge">
<title>Node19&#45;&gt;Node14</title>
<g id="a_edge25_Node000019_Node000014"><a xlink:title=" ">
<path fill="none" stroke="#63b8ff" d="M832.75,-67.33C829.63,-66.84 826.53,-66.39 823.5,-66 538.73,-29.36 463.1,-67.9 178.5,-30 171.79,-29.11 164.75,-27.9 157.86,-26.58"/>
<polygon fill="#63b8ff" stroke="#63b8ff" points="158.45,-23.12 147.95,-24.56 157.05,-29.98 158.45,-23.12"/>
</a>
</g>
</g>
<!-- Node19&#45;&gt;Node16 -->
<g id="edge27_Node000019_Node000016" class="edge">
<title>Node19&#45;&gt;Node16</title>
<g id="a_edge27_Node000019_Node000016"><a xlink:title=" ">
<path fill="none" stroke="#63b8ff" d="M832.74,-67.38C829.62,-66.87 826.53,-66.41 823.5,-66 595.26,-35.03 534.5,-62.7 306.5,-30 300.22,-29.1 293.64,-27.93 287.18,-26.64"/>
<polygon fill="#63b8ff" stroke="#63b8ff" points="287.71,-23.18 277.21,-24.56 286.28,-30.03 287.71,-23.18"/>
</a>
</g>
</g>
<!-- Node20 -->
<g id="Node000020" class="node">
<title>Node20</title>
<g id="a_Node000020"><a xlink:title=" ">
<polygon fill="#e0e0e0" stroke="#999999" points="1225,-24.5 1076,-24.5 1076,-5.5 1225,-5.5 1225,-24.5"/>
<text text-anchor="middle" x="1150.5" y="-12.5" font-family="Helvetica,sans-Serif" font-size="10.00">deal.II/base/vectorization.h</text>
</a>
</g>
</g>
<!-- Node19&#45;&gt;Node20 -->
<g id="edge28_Node000019_Node000020" class="edge">
<title>Node19&#45;&gt;Node20</title>
<g id="a_edge28_Node000019_Node000020"><a xlink:title=" ">
<path fill="none" stroke="#63b8ff" d="M949.12,-65.95C996.46,-54.21 1063.02,-37.7 1106.46,-26.93"/>
<polygon fill="#63b8ff" stroke="#63b8ff" points="1107.3,-30.32 1116.16,-24.52 1105.62,-23.53 1107.3,-30.32"/>
</a>
</g>
</g>
<!-- Node21 -->
<g id="Node000021" class="node">
<title>Node21</title>
<g id="a_Node000021"><a xlink:title=" ">
<polygon fill="#e0e0e0" stroke="#999999" points="429.5,-24.5 315.5,-24.5 315.5,-5.5 429.5,-5.5 429.5,-24.5"/>
<text text-anchor="middle" x="372.5" y="-12.5" font-family="Helvetica,sans-Serif" font-size="10.00">deal.II/fe/mapping.h</text>
</a>
</g>
</g>
<!-- Node19&#45;&gt;Node21 -->
<g id="edge29_Node000019_Node000021" class="edge">
<title>Node19&#45;&gt;Node21</title>
<g id="a_edge29_Node000019_Node000021"><a xlink:title=" ">
<path fill="none" stroke="#63b8ff" d="M832.73,-67.47C829.61,-66.94 826.52,-66.45 823.5,-66 653.93,-40.92 609,-55.57 439.5,-30 433.1,-29.03 426.39,-27.85 419.79,-26.57"/>
<polygon fill="#63b8ff" stroke="#63b8ff" points="420.07,-23.06 409.58,-24.52 418.69,-29.92 420.07,-23.06"/>
</a>
</g>
</g>
<!-- Node22 -->
<g id="Node000022" class="node">
<title>Node22</title>
<g id="a_Node000022"><a xlink:title=" ">
<polygon fill="#e0e0e0" stroke="#999999" points="567,-30 448,-30 448,0 567,0 567,-30"/>
<text text-anchor="start" x="456" y="-18" font-family="Helvetica,sans-Serif" font-size="10.00">deal.II/grid/grid_tools</text>
<text text-anchor="middle" x="507.5" y="-7" font-family="Helvetica,sans-Serif" font-size="10.00">_geometry.h</text>
</a>
</g>
</g>
<!-- Node19&#45;&gt;Node22 -->
<g id="edge30_Node000019_Node000022" class="edge">
<title>Node19&#45;&gt;Node22</title>
<g id="a_edge30_Node000019_Node000022"><a xlink:title=" ">
<path fill="none" stroke="#63b8ff" d="M832.7,-67.66C829.59,-67.08 826.51,-66.52 823.5,-66 717.3,-47.5 687.47,-48.94 577.16,-30.05"/>
<polygon fill="#63b8ff" stroke="#63b8ff" points="577.75,-26.6 567.3,-28.34 576.56,-33.5 577.75,-26.6"/>
</a>
</g>
</g>
<!-- Node23 -->
<g id="Node000023" class="node">
<title>Node23</title>
<g id="a_Node000023"><a xlink:title=" ">
<polygon fill="#e0e0e0" stroke="#999999" points="682,-24.5 585,-24.5 585,-5.5 682,-5.5 682,-24.5"/>
<text text-anchor="middle" x="633.5" y="-12.5" font-family="Helvetica,sans-Serif" font-size="10.00">deal.II/grid/tria.h</text>
</a>
</g>
</g>
<!-- Node19&#45;&gt;Node23 -->
<g id="edge31_Node000019_Node000023" class="edge">
<title>Node19&#45;&gt;Node23</title>
<g id="a_edge31_Node000019_Node000023"><a xlink:title=" ">
<path fill="none" stroke="#63b8ff" d="M835.66,-65.95C788.14,-54.21 721.31,-37.7 677.71,-26.93"/>
<polygon fill="#63b8ff" stroke="#63b8ff" points="678.52,-23.52 667.97,-24.52 676.84,-30.31 678.52,-23.52"/>
</a>
</g>
</g>
<!-- Node24 -->
<g id="Node000024" class="node">
<title>Node24</title>
<g id="a_Node000024"><a xlink:title=" ">
<polygon fill="#e0e0e0" stroke="#999999" points="764.5,-24.5 700.5,-24.5 700.5,-5.5 764.5,-5.5 764.5,-24.5"/>
<text text-anchor="middle" x="732.5" y="-12.5" font-family="Helvetica,sans-Serif" font-size="10.00">algorithm</text>
</a>
</g>
</g>
<!-- Node19&#45;&gt;Node24 -->
<g id="edge32_Node000019_Node000024" class="edge">
<title>Node19&#45;&gt;Node24</title>
<g id="a_edge32_Node000019_Node000024"><a xlink:title=" ">
<path fill="none" stroke="#63b8ff" d="M857.39,-65.95C829.2,-54.68 790.03,-39.01 763.11,-28.25"/>
<polygon fill="#63b8ff" stroke="#63b8ff" points="764.38,-24.98 753.79,-24.52 761.78,-31.48 764.38,-24.98"/>
</a>
</g>
</g>
<!-- Node25 -->
<g id="Node000025" class="node">
<title>Node25</title>
<g id="a_Node000025"><a xlink:title=" ">
<polygon fill="#e0e0e0" stroke="#999999" points="830,-24.5 783,-24.5 783,-5.5 830,-5.5 830,-24.5"/>
<text text-anchor="middle" x="806.5" y="-12.5" font-family="Helvetica,sans-Serif" font-size="10.00">cmath</text>
</a>
</g>
</g>
<!-- Node19&#45;&gt;Node25 -->
<g id="edge33_Node000019_Node000025" class="edge">
<title>Node19&#45;&gt;Node25</title>
<g id="a_edge33_Node000019_Node000025"><a xlink:title=" ">
<path fill="none" stroke="#63b8ff" d="M873.41,-65.8C859.48,-55.43 840.64,-41.4 826.5,-30.88"/>
<polygon fill="#63b8ff" stroke="#63b8ff" points="828.5,-28.01 818.38,-24.84 824.32,-33.62 828.5,-28.01"/>
</a>
</g>
</g>
<!-- Node26 -->
<g id="Node000026" class="node">
<title>Node26</title>
<g id="a_Node000026"><a xlink:title=" ">
<polygon fill="#e0e0e0" stroke="#999999" points="879,-24.5 848,-24.5 848,-5.5 879,-5.5 879,-24.5"/>
<text text-anchor="middle" x="863.5" y="-12.5" font-family="Helvetica,sans-Serif" font-size="10.00">ios</text>
</a>
</g>
</g>
<!-- Node19&#45;&gt;Node26 -->
<g id="edge34_Node000019_Node000026" class="edge">
<title>Node19&#45;&gt;Node26</title>
<g id="a_edge34_Node000019_Node000026"><a xlink:title=" ">
<path fill="none" stroke="#63b8ff" d="M886.06,-65.8C881.85,-56.5 876.31,-44.27 871.77,-34.26"/>
<polygon fill="#63b8ff" stroke="#63b8ff" points="874.82,-32.51 867.51,-24.84 868.45,-35.4 874.82,-32.51"/>
</a>
</g>
</g>
<!-- Node27 -->
<g id="Node000027" class="node">
<title>Node27</title>
<g id="a_Node000027"><a xlink:title=" ">
<polygon fill="#e0e0e0" stroke="#999999" points="953.5,-24.5 897.5,-24.5 897.5,-5.5 953.5,-5.5 953.5,-24.5"/>
<text text-anchor="middle" x="925.5" y="-12.5" font-family="Helvetica,sans-Serif" font-size="10.00">sstream</text>
</a>
</g>
</g>
<!-- Node19&#45;&gt;Node27 -->
<g id="edge35_Node000019_Node000027" class="edge">
<title>Node19&#45;&gt;Node27</title>
<g id="a_edge35_Node000019_Node000027"><a xlink:title=" ">
<path fill="none" stroke="#63b8ff" d="M899.82,-65.8C904.67,-56.41 911.05,-44.02 916.25,-33.95"/>
<polygon fill="#63b8ff" stroke="#63b8ff" points="919.47,-35.34 920.94,-24.84 913.25,-32.13 919.47,-35.34"/>
</a>
</g>
</g>
<!-- Node19&#45;&gt;Node28 -->
<g id="edge36_Node000019_Node000028" class="edge">
<title>Node19&#45;&gt;Node28</title>
<g id="a_edge36_Node000019_Node000028"><a xlink:title=" ">
<path fill="none" stroke="#63b8ff" d="M952.23,-68.42C957.05,-67.57 961.85,-66.75 966.5,-66 1085.14,-46.82 1119.17,-63.8 1234.5,-30 1235.95,-29.58 1237.41,-29.09 1238.88,-28.56"/>
<polygon fill="#63b8ff" stroke="#63b8ff" points="1240.45,-31.7 1248.34,-24.63 1237.77,-25.24 1240.45,-31.7"/>
</a>
</g>
</g>
<!-- Node29 -->
<g id="Node000029" class="node">
<title>Node29</title>
<g id="a_Node000029"><a xlink:title=" ">
<polygon fill="#e0e0e0" stroke="#999999" points="1057.5,-24.5 971.5,-24.5 971.5,-5.5 1057.5,-5.5 1057.5,-24.5"/>
<text text-anchor="middle" x="1014.5" y="-12.5" font-family="Helvetica,sans-Serif" font-size="10.00">unordered_set</text>
</a>
</g>
</g>
<!-- Node19&#45;&gt;Node29 -->
<g id="edge37_Node000019_Node000029" class="edge">
<title>Node19&#45;&gt;Node29</title>
<g id="a_edge37_Node000019_Node000029"><a xlink:title=" ">
<path fill="none" stroke="#63b8ff" d="M919.27,-65.95C940.1,-55.03 968.81,-39.97 989.24,-29.25"/>
<polygon fill="#63b8ff" stroke="#63b8ff" points="991.03,-32.26 998.26,-24.52 987.78,-26.06 991.03,-32.26"/>
</a>
</g>
</g>
</g>
</svg>
