<?xml version="1.0" encoding="UTF-8" standalone="no"?>
<!DOCTYPE svg PUBLIC "-//W3C//DTD SVG 1.1//EN"
 "http://www.w3.org/Graphics/SVG/1.1/DTD/svg11.dtd">
<!-- Generated by graphviz version 2.43.0 (0)
 -->
<!-- Title: include/meltpooldg/time_integration/one_step_theta.hpp Pages: 1 -->
<!--zoomable 379 -->

<svg id="main" version="1.1" xmlns="http://www.w3.org/2000/svg" xmlns:xlink="http://www.w3.org/1999/xlink" xml:space="preserve" onload="init(evt)">
<style type="text/css"><![CDATA[
.node, .edge {opacity: 0.7;}
.node.selected, .edge.selected {opacity: 1;}
.edge:hover path { stroke: red; }
.edge:hover polygon { stroke: red; fill: red; }
]]></style>

<defs>
  <circle id="rim" cx="0" cy="0" r="7"/>
  <circle id="rim2" cx="0" cy="0" r="3.5"/>
  <g id="zoomPlus">
    <use xlink:href="#rim" fill="#404040"><set attributeName="fill" to="#808080" begin="zoomplus.mouseover" end="zoomplus.mouseout"/></use>
    <path d="M-4,0h8M0,-4v8" fill="none" stroke="white" stroke-width="1.5" pointer-events="none"/>
  </g>
  <g id="zoomMin">
    <use xlink:href="#rim" fill="#404040"><set attributeName="fill" to="#808080" begin="zoomminus.mouseover" end="zoomminus.mouseout"/></use>
    <path d="M-4,0h8" fill="none" stroke="white" stroke-width="1.5" pointer-events="none"/>
  </g>
  <g id="arrowUp" transform="translate(30 24)">
    <use xlink:href="#rim"/>
    <path pointer-events="none" fill="none" stroke="white" stroke-width="1.5" d="M0,-3.0v7 M-2.5,-0.5L0,-3.0L2.5,-0.5"/>
  </g>
  <g id="arrowRight" transform="rotate(90) translate(36 -43)">
    <use xlink:href="#rim"/>
    <path pointer-events="none" fill="none" stroke="white" stroke-width="1.5" d="M0,-3.0v7 M-2.5,-0.5L0,-3.0L2.5,-0.5"/>
  </g>
  <g id="arrowDown" transform="rotate(180) translate(-30 -48)">
    <use xlink:href="#rim"/>
    <path pointer-events="none" fill="none" stroke="white" stroke-width="1.5" d="M0,-3.0v7 M-2.5,-0.5L0,-3.0L2.5,-0.5"/>
  </g>
  <g id="arrowLeft" transform="rotate(270) translate(-36 17)">
    <use xlink:href="#rim"/>
    <path pointer-events="none" fill="none" stroke="white" stroke-width="1.5" d="M0,-3.0v7 M-2.5,-0.5L0,-3.0L2.5,-0.5"/>
  </g>
  <g id="resetDef">
    <use xlink:href="#rim2" fill="#404040"><set attributeName="fill" to="#808080" begin="reset.mouseover" end="reset.mouseout"/></use>
  </g>
</defs>
<script type="application/ecmascript">
var viewWidth = 1956;
var viewHeight = 379;
var sectionId = 'dynsection-0';
</script>
<script type="application/ecmascript" xlink:href="svg.min.js"/>
<svg id="graph" class="graph">
<g id="viewport">
<title>include/meltpooldg/time_integration/one_step_theta.hpp</title>
<!-- Node1 -->
<g id="Node000001" class="node">
<title>Node1</title>
<g id="a_Node000001"><a xlink:title=" ">
<polygon fill="#999999" stroke="#666666" points="1368,-371 1246,-371 1246,-330 1368,-330 1368,-371"/>
<text text-anchor="start" x="1254" y="-359" font-family="Helvetica,sans-Serif" font-size="10.00">include/meltpooldg</text>
<text text-anchor="start" x="1254" y="-348" font-family="Helvetica,sans-Serif" font-size="10.00">/time_integration/one</text>
<text text-anchor="middle" x="1307" y="-337" font-family="Helvetica,sans-Serif" font-size="10.00">_step_theta.hpp</text>
</a>
</g>
</g>
<!-- Node2 -->
<g id="Node000002" class="node">
<title>Node2</title>
<g id="a_Node000002"><a xlink:title=" ">
<polygon fill="#e0e0e0" stroke="#999999" points="184,-288.5 70,-288.5 70,-269.5 184,-269.5 184,-288.5"/>
<text text-anchor="middle" x="127" y="-276.5" font-family="Helvetica,sans-Serif" font-size="10.00">deal.II/base/config.h</text>
</a>
</g>
</g>
<!-- Node1&#45;&gt;Node2 -->
<g id="edge1_Node000001_Node000002" class="edge">
<title>Node1&#45;&gt;Node2</title>
<g id="a_edge1_Node000001_Node000002"><a xlink:title=" ">
<path fill="none" stroke="#63b8ff" d="M1245.72,-349.54C1077.61,-348.97 595.26,-342.85 198,-294 190.46,-293.07 182.51,-291.8 174.78,-290.4"/>
<polygon fill="#63b8ff" stroke="#63b8ff" points="175.27,-286.93 164.79,-288.5 173.96,-293.81 175.27,-286.93"/>
</a>
</g>
</g>
<!-- Node3 -->
<g id="Node000003" class="node">
<title>Node3</title>
<g id="a_Node000003"><a xlink:title=" ">
<polygon fill="#e0e0e0" stroke="#999999" points="1425,-228 1307,-228 1307,-198 1425,-198 1425,-228"/>
<text text-anchor="start" x="1315" y="-216" font-family="Helvetica,sans-Serif" font-size="10.00">deal.II/lac/la_parallel</text>
<text text-anchor="middle" x="1366" y="-205" font-family="Helvetica,sans-Serif" font-size="10.00">_vector.h</text>
</a>
</g>
</g>
<!-- Node1&#45;&gt;Node3 -->
<g id="edge2_Node000001_Node000003" class="edge">
<title>Node1&#45;&gt;Node3</title>
<g id="a_edge2_Node000001_Node000003"><a xlink:title=" ">
<path fill="none" stroke="#63b8ff" d="M1315.58,-329.8C1326.23,-305.33 1344.39,-263.62 1355.76,-237.51"/>
<polygon fill="#63b8ff" stroke="#63b8ff" points="1358.98,-238.89 1359.76,-228.33 1352.56,-236.1 1358.98,-238.89"/>
</a>
</g>
</g>
<!-- Node4 -->
<g id="Node000004" class="node">
<title>Node4</title>
<g id="a_Node000004"><a xlink:href="linear__solver_8hpp.html" target="_top" xlink:title=" ">
<polygon fill="white" stroke="#666666" points="732.5,-294 587.5,-294 587.5,-264 732.5,-264 732.5,-294"/>
<text text-anchor="start" x="595.5" y="-282" font-family="Helvetica,sans-Serif" font-size="10.00">meltpooldg/linear_algebra</text>
<text text-anchor="middle" x="660" y="-271" font-family="Helvetica,sans-Serif" font-size="10.00">/linear_solver.hpp</text>
</a>
</g>
</g>
<!-- Node1&#45;&gt;Node4 -->
<g id="edge3_Node000001_Node000004" class="edge">
<title>Node1&#45;&gt;Node4</title>
<g id="a_edge3_Node000001_Node000004"><a xlink:title=" ">
<path fill="none" stroke="#63b8ff" d="M1245.84,-342.93C1129.1,-330.39 874.43,-303.03 742.66,-288.88"/>
<polygon fill="#63b8ff" stroke="#63b8ff" points="742.93,-285.39 732.62,-287.8 742.19,-292.35 742.93,-285.39"/>
</a>
</g>
</g>
<!-- Node12 -->
<g id="Node000012" class="node">
<title>Node12</title>
<g id="a_Node000012"><a xlink:href="linear__solver__data_8hpp.html" target="_top" xlink:title=" ">
<polygon fill="white" stroke="#666666" points="836.5,-162 691.5,-162 691.5,-132 836.5,-132 836.5,-162"/>
<text text-anchor="start" x="699.5" y="-150" font-family="Helvetica,sans-Serif" font-size="10.00">meltpooldg/linear_algebra</text>
<text text-anchor="middle" x="764" y="-139" font-family="Helvetica,sans-Serif" font-size="10.00">/linear_solver_data.hpp</text>
</a>
</g>
</g>
<!-- Node1&#45;&gt;Node12 -->
<g id="edge24_Node000001_Node000012" class="edge">
<title>Node1&#45;&gt;Node12</title>
<g id="a_edge24_Node000001_Node000012"><a xlink:title=" ">
<path fill="none" stroke="#63b8ff" d="M1245.73,-347.43C1027.3,-339.39 296.18,-306.75 231,-228 222.5,-217.73 222.02,-207.86 231,-198 260.67,-165.42 538.84,-153.67 681.08,-149.77"/>
<polygon fill="#63b8ff" stroke="#63b8ff" points="681.6,-153.26 691.5,-149.49 681.41,-146.26 681.6,-153.26"/>
</a>
</g>
</g>
<!-- Node23 -->
<g id="Node000023" class="node">
<title>Node23</title>
<g id="a_Node000023"><a xlink:title=" ">
<polygon fill="#e0e0e0" stroke="#999999" points="1311.5,-156.5 1246.5,-156.5 1246.5,-137.5 1311.5,-137.5 1311.5,-156.5"/>
<text text-anchor="middle" x="1279" y="-144.5" font-family="Helvetica,sans-Serif" font-size="10.00">functional</text>
</a>
</g>
</g>
<!-- Node1&#45;&gt;Node23 -->
<g id="edge46_Node000001_Node000023" class="edge">
<title>Node1&#45;&gt;Node23</title>
<g id="a_edge46_Node000001_Node000023"><a xlink:title=" ">
<path fill="none" stroke="#63b8ff" d="M1304.26,-329.81C1298.88,-291.04 1286.96,-205.26 1281.64,-167.03"/>
<polygon fill="#63b8ff" stroke="#63b8ff" points="1285.07,-166.22 1280.22,-156.8 1278.13,-167.18 1285.07,-166.22"/>
</a>
</g>
</g>
<!-- Node25 -->
<g id="Node000025" class="node">
<title>Node25</title>
<g id="a_Node000025"><a xlink:href="solution__history_8hpp.html" target="_top" xlink:title=" ">
<polygon fill="white" stroke="#666666" points="1637,-228 1481,-228 1481,-198 1637,-198 1637,-228"/>
<text text-anchor="start" x="1489" y="-216" font-family="Helvetica,sans-Serif" font-size="10.00">meltpooldg/time_integration</text>
<text text-anchor="middle" x="1559" y="-205" font-family="Helvetica,sans-Serif" font-size="10.00">/solution_history.hpp</text>
</a>
</g>
</g>
<!-- Node1&#45;&gt;Node25 -->
<g id="edge25_Node000001_Node000025" class="edge">
<title>Node1&#45;&gt;Node25</title>
<g id="a_edge25_Node000001_Node000025"><a xlink:title=" ">
<path fill="none" stroke="#63b8ff" d="M1368.02,-341.44C1426.8,-332.49 1510.23,-316.32 1534,-294 1549.36,-279.58 1555.34,-255.89 1557.64,-238.02"/>
<polygon fill="#63b8ff" stroke="#63b8ff" points="1561.13,-238.33 1558.63,-228.03 1554.16,-237.64 1561.13,-238.33"/>
</a>
</g>
</g>
<!-- Node29 -->
<g id="Node000029" class="node">
<title>Node29</title>
<g id="a_Node000029"><a xlink:href="time__integrator__base_8hpp.html" target="_top" xlink:title=" ">
<polygon fill="white" stroke="#666666" points="1525,-294 1369,-294 1369,-264 1525,-264 1525,-294"/>
<text text-anchor="start" x="1377" y="-282" font-family="Helvetica,sans-Serif" font-size="10.00">meltpooldg/time_integration</text>
<text text-anchor="middle" x="1447" y="-271" font-family="Helvetica,sans-Serif" font-size="10.00">/time_integrator_base.hpp</text>
</a>
</g>
</g>
<!-- Node1&#45;&gt;Node29 -->
<g id="edge30_Node000001_Node000029" class="edge">
<title>Node1&#45;&gt;Node29</title>
<g id="a_edge30_Node000001_Node000029"><a xlink:title=" ">
<path fill="none" stroke="#63b8ff" d="M1346.37,-329.96C1366.11,-320.16 1389.9,-308.35 1409.39,-298.67"/>
<polygon fill="#63b8ff" stroke="#63b8ff" points="1411.17,-301.69 1418.57,-294.11 1408.06,-295.42 1411.17,-301.69"/>
</a>
</g>
</g>
<!-- Node30 -->
<g id="Node000030" class="node">
<title>Node30</title>
<g id="a_Node000030"><a xlink:href="time__integrator__data_8hpp.html" target="_top" xlink:title=" ">
<polygon fill="white" stroke="#666666" points="1811,-228 1655,-228 1655,-198 1811,-198 1811,-228"/>
<text text-anchor="start" x="1663" y="-216" font-family="Helvetica,sans-Serif" font-size="10.00">meltpooldg/time_integration</text>
<text text-anchor="middle" x="1733" y="-205" font-family="Helvetica,sans-Serif" font-size="10.00">/time_integrator_data.hpp</text>
</a>
</g>
</g>
<!-- Node1&#45;&gt;Node30 -->
<g id="edge42_Node000001_Node000030" class="edge">
<title>Node1&#45;&gt;Node30</title>
<g id="a_edge42_Node000001_Node000030"><a xlink:title=" ">
<path fill="none" stroke="#63b8ff" d="M1368.24,-340.76C1419.51,-332.3 1494.02,-317.28 1556,-294 1582.07,-284.21 1585.86,-275.96 1611,-264 1635.42,-252.38 1663.27,-240.84 1686.2,-231.78"/>
<polygon fill="#63b8ff" stroke="#63b8ff" points="1687.67,-234.96 1695.7,-228.05 1685.11,-228.44 1687.67,-234.96"/>
</a>
</g>
</g>
<!-- Node32 -->
<g id="Node000032" class="node">
<title>Node32</title>
<g id="a_Node000032"><a xlink:href="matrix__type__wrapper_8h.html" target="_top" xlink:title=" ">
<polygon fill="white" stroke="#666666" points="1253,-294 1121,-294 1121,-264 1253,-264 1253,-294"/>
<text text-anchor="start" x="1129" y="-282" font-family="Helvetica,sans-Serif" font-size="10.00">meltpooldg/utilities</text>
<text text-anchor="middle" x="1187" y="-271" font-family="Helvetica,sans-Serif" font-size="10.00">/matrix_type_wrapper.h</text>
</a>
</g>
</g>
<!-- Node1&#45;&gt;Node32 -->
<g id="edge43_Node000001_Node000032" class="edge">
<title>Node1&#45;&gt;Node32</title>
<g id="a_edge43_Node000001_Node000032"><a xlink:title=" ">
<path fill="none" stroke="#63b8ff" d="M1273.25,-329.96C1256.64,-320.33 1236.69,-308.78 1220.16,-299.2"/>
<polygon fill="#63b8ff" stroke="#63b8ff" points="1221.77,-296.1 1211.37,-294.11 1218.27,-302.15 1221.77,-296.1"/>
</a>
</g>
</g>
<!-- Node34 -->
<g id="Node000034" class="node">
<title>Node34</title>
<g id="a_Node000034"><a xlink:title=" ">
<polygon fill="#e0e0e0" stroke="#999999" points="1676.5,-288.5 1619.5,-288.5 1619.5,-269.5 1676.5,-269.5 1676.5,-288.5"/>
<text text-anchor="middle" x="1648" y="-276.5" font-family="Helvetica,sans-Serif" font-size="10.00">ostream</text>
</a>
</g>
</g>
<!-- Node1&#45;&gt;Node34 -->
<g id="edge47_Node000001_Node000034" class="edge">
<title>Node1&#45;&gt;Node34</title>
<g id="a_edge47_Node000001_Node000034"><a xlink:title=" ">
<path fill="none" stroke="#63b8ff" d="M1368.01,-340.53C1428.6,-331.06 1523.91,-314.66 1605,-294 1607.95,-293.25 1610.99,-292.4 1614.03,-291.51"/>
<polygon fill="#63b8ff" stroke="#63b8ff" points="1615.08,-294.85 1623.6,-288.55 1613.02,-288.16 1615.08,-294.85"/>
</a>
</g>
</g>
<!-- Node5 -->
<g id="Node000005" class="node">
<title>Node5</title>
<g id="a_Node000005"><a xlink:title=" ">
<polygon fill="#e0e0e0" stroke="#999999" points="659.5,-222.5 522.5,-222.5 522.5,-203.5 659.5,-203.5 659.5,-222.5"/>
<text text-anchor="middle" x="591" y="-210.5" font-family="Helvetica,sans-Serif" font-size="10.00">deal.II/lac/precondition.h</text>
</a>
</g>
</g>
<!-- Node4&#45;&gt;Node5 -->
<g id="edge4_Node000004_Node000005" class="edge">
<title>Node4&#45;&gt;Node5</title>
<g id="a_edge4_Node000004_Node000005"><a xlink:title=" ">
<path fill="none" stroke="#63b8ff" d="M644.69,-263.8C633.82,-253.72 619.24,-240.19 608.01,-229.78"/>
<polygon fill="#63b8ff" stroke="#63b8ff" points="610.25,-227.08 600.54,-222.84 605.49,-232.21 610.25,-227.08"/>
</a>
</g>
</g>
<!-- Node6 -->
<g id="Node000006" class="node">
<title>Node6</title>
<g id="a_Node000006"><a xlink:title=" ">
<polygon fill="#e0e0e0" stroke="#999999" points="778.5,-228 677.5,-228 677.5,-198 778.5,-198 778.5,-228"/>
<text text-anchor="start" x="685.5" y="-216" font-family="Helvetica,sans-Serif" font-size="10.00">deal.II/lac/trilinos</text>
<text text-anchor="middle" x="728" y="-205" font-family="Helvetica,sans-Serif" font-size="10.00">_sparse_matrix.h</text>
</a>
</g>
</g>
<!-- Node4&#45;&gt;Node6 -->
<g id="edge5_Node000004_Node000006" class="edge">
<title>Node4&#45;&gt;Node6</title>
<g id="a_edge5_Node000004_Node000006"><a xlink:title=" ">
<path fill="none" stroke="#63b8ff" d="M675.09,-263.8C684.07,-255.34 695.63,-244.46 705.65,-235.03"/>
<polygon fill="#63b8ff" stroke="#63b8ff" points="708.07,-237.57 712.95,-228.16 703.27,-232.47 708.07,-237.57"/>
</a>
</g>
</g>
<!-- Node7 -->
<g id="Node000007" class="node">
<title>Node7</title>
<g id="a_Node000007"><a xlink:title=" ">
<polygon fill="#e0e0e0" stroke="#999999" points="893.5,-228 796.5,-228 796.5,-198 893.5,-198 893.5,-228"/>
<text text-anchor="start" x="804.5" y="-216" font-family="Helvetica,sans-Serif" font-size="10.00">deal.II/lac/solver</text>
<text text-anchor="middle" x="845" y="-205" font-family="Helvetica,sans-Serif" font-size="10.00">_bicgstab.h</text>
</a>
</g>
</g>
<!-- Node4&#45;&gt;Node7 -->
<g id="edge6_Node000004_Node000007" class="edge">
<title>Node4&#45;&gt;Node7</title>
<g id="a_edge6_Node000004_Node000007"><a xlink:title=" ">
<path fill="none" stroke="#63b8ff" d="M700.6,-263.95C728.31,-254.37 765.21,-241.6 794.78,-231.37"/>
<polygon fill="#63b8ff" stroke="#63b8ff" points="796.19,-234.59 804.5,-228.01 793.9,-227.97 796.19,-234.59"/>
</a>
</g>
</g>
<!-- Node8 -->
<g id="Node000008" class="node">
<title>Node8</title>
<g id="a_Node000008"><a xlink:title=" ">
<polygon fill="#e0e0e0" stroke="#999999" points="1034,-222.5 912,-222.5 912,-203.5 1034,-203.5 1034,-222.5"/>
<text text-anchor="middle" x="973" y="-210.5" font-family="Helvetica,sans-Serif" font-size="10.00">deal.II/lac/solver_cg.h</text>
</a>
</g>
</g>
<!-- Node4&#45;&gt;Node8 -->
<g id="edge7_Node000004_Node000008" class="edge">
<title>Node4&#45;&gt;Node8</title>
<g id="a_edge7_Node000004_Node000008"><a xlink:title=" ">
<path fill="none" stroke="#63b8ff" d="M728.69,-263.95C786.72,-252.09 868.58,-235.35 921.22,-224.59"/>
<polygon fill="#63b8ff" stroke="#63b8ff" points="922.25,-227.95 931.35,-222.52 920.85,-221.09 922.25,-227.95"/>
</a>
</g>
</g>
<!-- Node9 -->
<g id="Node000009" class="node">
<title>Node9</title>
<g id="a_Node000009"><a xlink:title=" ">
<polygon fill="#e0e0e0" stroke="#999999" points="1149.5,-228 1052.5,-228 1052.5,-198 1149.5,-198 1149.5,-228"/>
<text text-anchor="start" x="1060.5" y="-216" font-family="Helvetica,sans-Serif" font-size="10.00">deal.II/lac/solver</text>
<text text-anchor="middle" x="1101" y="-205" font-family="Helvetica,sans-Serif" font-size="10.00">_gmres.h</text>
</a>
</g>
</g>
<!-- Node4&#45;&gt;Node9 -->
<g id="edge8_Node000004_Node000009" class="edge">
<title>Node4&#45;&gt;Node9</title>
<g id="a_edge8_Node000004_Node000009"><a xlink:title=" ">
<path fill="none" stroke="#63b8ff" d="M732.72,-270.85C807.84,-262.93 928.61,-248.73 1042.42,-227.98"/>
<polygon fill="#63b8ff" stroke="#63b8ff" points="1043.15,-231.4 1052.35,-226.14 1041.88,-224.52 1043.15,-231.4"/>
</a>
</g>
</g>
<!-- Node10 -->
<g id="Node000010" class="node">
<title>Node10</title>
<g id="a_Node000010"><a xlink:title=" ">
<polygon fill="#e0e0e0" stroke="#999999" points="343.5,-228 240.5,-228 240.5,-198 343.5,-198 343.5,-228"/>
<text text-anchor="start" x="248.5" y="-216" font-family="Helvetica,sans-Serif" font-size="10.00">deal.II/base/index</text>
<text text-anchor="middle" x="292" y="-205" font-family="Helvetica,sans-Serif" font-size="10.00">_set.h</text>
</a>
</g>
</g>
<!-- Node4&#45;&gt;Node10 -->
<g id="edge9_Node000004_Node000010" class="edge">
<title>Node4&#45;&gt;Node10</title>
<g id="a_edge9_Node000004_Node000010"><a xlink:title=" ">
<path fill="none" stroke="#63b8ff" d="M587.22,-266.89C525.95,-257.31 436.07,-242.74 358,-228 356.71,-227.76 355.4,-227.51 354.08,-227.25"/>
<polygon fill="#63b8ff" stroke="#63b8ff" points="354.33,-223.73 343.84,-225.23 352.97,-230.6 354.33,-223.73"/>
</a>
</g>
</g>
<!-- Node11 -->
<g id="Node000011" class="node">
<title>Node11</title>
<g id="a_Node000011"><a xlink:title=" ">
<polygon fill="#e0e0e0" stroke="#999999" points="504,-222.5 400,-222.5 400,-203.5 504,-203.5 504,-222.5"/>
<text text-anchor="middle" x="452" y="-210.5" font-family="Helvetica,sans-Serif" font-size="10.00">deal.II/base/mpi.h</text>
</a>
</g>
</g>
<!-- Node4&#45;&gt;Node11 -->
<g id="edge10_Node000004_Node000011" class="edge">
<title>Node4&#45;&gt;Node11</title>
<g id="a_edge10_Node000004_Node000011"><a xlink:title=" ">
<path fill="none" stroke="#63b8ff" d="M614.35,-263.95C576.91,-252.43 524.55,-236.32 489.52,-225.54"/>
<polygon fill="#63b8ff" stroke="#63b8ff" points="490.27,-222.11 479.68,-222.52 488.21,-228.8 490.27,-222.11"/>
</a>
</g>
</g>
<!-- Node4&#45;&gt;Node12 -->
<g id="edge11_Node000004_Node000012" class="edge">
<title>Node4&#45;&gt;Node12</title>
<g id="a_edge11_Node000004_Node000012"><a xlink:title=" ">
<path fill="none" stroke="#63b8ff" d="M587.27,-278.48C489.27,-276.71 333.33,-263.91 391,-198 409.81,-176.5 577.07,-161.03 681.12,-153.4"/>
<polygon fill="#63b8ff" stroke="#63b8ff" points="681.58,-156.87 691.3,-152.66 681.07,-149.89 681.58,-156.87"/>
</a>
</g>
</g>
<!-- Node20 -->
<g id="Node000020" class="node">
<title>Node20</title>
<g id="a_Node000020"><a xlink:href="journal_8hpp.html" target="_top" xlink:title=" ">
<polygon fill="white" stroke="#666666" points="184,-228 72,-228 72,-198 184,-198 184,-228"/>
<text text-anchor="start" x="80" y="-216" font-family="Helvetica,sans-Serif" font-size="10.00">meltpooldg/utilities</text>
<text text-anchor="middle" x="128" y="-205" font-family="Helvetica,sans-Serif" font-size="10.00">/journal.hpp</text>
</a>
</g>
</g>
<!-- Node4&#45;&gt;Node20 -->
<g id="edge19_Node000004_Node000020" class="edge">
<title>Node4&#45;&gt;Node20</title>
<g id="a_edge19_Node000004_Node000020"><a xlink:title=" ">
<path fill="none" stroke="#63b8ff" d="M587.46,-269.97C502.11,-260.43 356.17,-243.8 231,-228 219.11,-226.5 206.46,-224.84 194.24,-223.19"/>
<polygon fill="#63b8ff" stroke="#63b8ff" points="194.48,-219.69 184.1,-221.82 193.55,-226.63 194.48,-219.69"/>
</a>
</g>
</g>
<!-- Node13 -->
<g id="Node000013" class="node">
<title>Node13</title>
<g id="a_Node000013"><a xlink:href="enum_8hpp.html" target="_top" xlink:title=" ">
<polygon fill="white" stroke="#666666" points="1629,-96 1517,-96 1517,-66 1629,-66 1629,-96"/>
<text text-anchor="start" x="1525" y="-84" font-family="Helvetica,sans-Serif" font-size="10.00">meltpooldg/utilities</text>
<text text-anchor="middle" x="1573" y="-73" font-family="Helvetica,sans-Serif" font-size="10.00">/enum.hpp</text>
</a>
</g>
</g>
<!-- Node12&#45;&gt;Node13 -->
<g id="edge12_Node000012_Node000013" class="edge">
<title>Node12&#45;&gt;Node13</title>
<g id="a_edge12_Node000012_Node000013"><a xlink:title=" ">
<path fill="none" stroke="#63b8ff" d="M836.51,-140.26C992.32,-127.94 1357.1,-99.08 1506.95,-87.23"/>
<polygon fill="#63b8ff" stroke="#63b8ff" points="1507.24,-90.71 1516.94,-86.44 1506.69,-83.73 1507.24,-90.71"/>
</a>
</g>
</g>
<!-- Node14 -->
<g id="Node000014" class="node">
<title>Node14</title>
<g id="a_Node000014"><a xlink:title=" ">
<polygon fill="#e0e0e0" stroke="#999999" points="1918.5,-30 1791.5,-30 1791.5,0 1918.5,0 1918.5,-30"/>
<text text-anchor="start" x="1799.5" y="-18" font-family="Helvetica,sans-Serif" font-size="10.00">deal.II/base/parameter</text>
<text text-anchor="middle" x="1855" y="-7" font-family="Helvetica,sans-Serif" font-size="10.00">_handler.h</text>
</a>
</g>
</g>
<!-- Node13&#45;&gt;Node14 -->
<g id="edge13_Node000013_Node000014" class="edge">
<title>Node13&#45;&gt;Node14</title>
<g id="a_edge13_Node000013_Node000014"><a xlink:title=" ">
<path fill="none" stroke="#63b8ff" d="M1629.05,-67.28C1673.29,-57.24 1735.31,-43.16 1783.19,-32.3"/>
<polygon fill="#63b8ff" stroke="#63b8ff" points="1784.2,-35.66 1793.18,-30.03 1782.65,-28.83 1784.2,-35.66"/>
</a>
</g>
</g>
<!-- Node15 -->
<g id="Node000015" class="node">
<title>Node15</title>
<g id="a_Node000015"><a xlink:title=" ">
<polygon fill="#e0e0e0" stroke="#999999" points="1363.5,-24.5 1238.5,-24.5 1238.5,-5.5 1363.5,-5.5 1363.5,-24.5"/>
<text text-anchor="middle" x="1301" y="-12.5" font-family="Helvetica,sans-Serif" font-size="10.00">deal.II/base/patterns.h</text>
</a>
</g>
</g>
<!-- Node13&#45;&gt;Node15 -->
<g id="edge14_Node000013_Node000015" class="edge">
<title>Node13&#45;&gt;Node15</title>
<g id="a_edge14_Node000013_Node000015"><a xlink:title=" ">
<path fill="none" stroke="#63b8ff" d="M1516.97,-66.82C1466.84,-55.02 1394.23,-37.94 1347.31,-26.9"/>
<polygon fill="#63b8ff" stroke="#63b8ff" points="1347.95,-23.45 1337.42,-24.57 1346.35,-30.27 1347.95,-23.45"/>
</a>
</g>
</g>
<!-- Node16 -->
<g id="Node000016" class="node">
<title>Node16</title>
<g id="a_Node000016"><a xlink:title=" ">
<polygon fill="#e0e0e0" stroke="#999999" points="1711,-30 1599,-30 1599,0 1711,0 1711,-30"/>
<text text-anchor="start" x="1607" y="-18" font-family="Helvetica,sans-Serif" font-size="10.00">meltpooldg/utilities</text>
<text text-anchor="middle" x="1655" y="-7" font-family="Helvetica,sans-Serif" font-size="10.00">/better_enum.hpp</text>
</a>
</g>
</g>
<!-- Node13&#45;&gt;Node16 -->
<g id="edge15_Node000013_Node000016" class="edge">
<title>Node13&#45;&gt;Node16</title>
<g id="a_edge15_Node000013_Node000016"><a xlink:title=" ">
<path fill="none" stroke="#63b8ff" d="M1591.2,-65.8C1602.24,-57.18 1616.51,-46.04 1628.76,-36.48"/>
<polygon fill="#63b8ff" stroke="#63b8ff" points="1631.12,-39.08 1636.85,-30.16 1626.82,-33.56 1631.12,-39.08"/>
</a>
</g>
</g>
<!-- Node17 -->
<g id="Node000017" class="node">
<title>Node17</title>
<g id="a_Node000017"><a xlink:title=" ">
<polygon fill="#e0e0e0" stroke="#999999" points="1506.5,-30 1381.5,-30 1381.5,0 1506.5,0 1506.5,-30"/>
<text text-anchor="start" x="1389.5" y="-18" font-family="Helvetica,sans-Serif" font-size="10.00">boost/algorithm/string</text>
<text text-anchor="middle" x="1444" y="-7" font-family="Helvetica,sans-Serif" font-size="10.00">/join.hpp</text>
</a>
</g>
</g>
<!-- Node13&#45;&gt;Node17 -->
<g id="edge16_Node000013_Node000017" class="edge">
<title>Node13&#45;&gt;Node17</title>
<g id="a_edge16_Node000013_Node000017"><a xlink:title=" ">
<path fill="none" stroke="#63b8ff" d="M1544.69,-65.95C1526.12,-56.74 1501.64,-44.6 1481.46,-34.59"/>
<polygon fill="#63b8ff" stroke="#63b8ff" points="1482.76,-31.32 1472.24,-30.01 1479.65,-37.59 1482.76,-31.32"/>
</a>
</g>
</g>
<!-- Node18 -->
<g id="Node000018" class="node">
<title>Node18</title>
<g id="a_Node000018"><a xlink:title=" ">
<polygon fill="#e0e0e0" stroke="#999999" points="1581,-24.5 1525,-24.5 1525,-5.5 1581,-5.5 1581,-24.5"/>
<text text-anchor="middle" x="1553" y="-12.5" font-family="Helvetica,sans-Serif" font-size="10.00">sstream</text>
</a>
</g>
</g>
<!-- Node13&#45;&gt;Node18 -->
<g id="edge17_Node000013_Node000018" class="edge">
<title>Node13&#45;&gt;Node18</title>
<g id="a_edge17_Node000013_Node000018"><a xlink:title=" ">
<path fill="none" stroke="#63b8ff" d="M1568.56,-65.8C1565.69,-56.6 1561.92,-44.53 1558.81,-34.58"/>
<polygon fill="#63b8ff" stroke="#63b8ff" points="1562.09,-33.35 1555.76,-24.84 1555.41,-35.43 1562.09,-33.35"/>
</a>
</g>
</g>
<!-- Node19 -->
<g id="Node000019" class="node">
<title>Node19</title>
<g id="a_Node000019"><a xlink:title=" ">
<polygon fill="#e0e0e0" stroke="#999999" points="1773,-24.5 1729,-24.5 1729,-5.5 1773,-5.5 1773,-24.5"/>
<text text-anchor="middle" x="1751" y="-12.5" font-family="Helvetica,sans-Serif" font-size="10.00">string</text>
</a>
</g>
</g>
<!-- Node13&#45;&gt;Node19 -->
<g id="edge18_Node000013_Node000019" class="edge">
<title>Node13&#45;&gt;Node19</title>
<g id="a_edge18_Node000013_Node000019"><a xlink:title=" ">
<path fill="none" stroke="#63b8ff" d="M1618.12,-65.9C1647.41,-56.44 1686.28,-43.31 1720,-30 1721.17,-29.54 1722.37,-29.05 1723.57,-28.56"/>
<polygon fill="#63b8ff" stroke="#63b8ff" points="1724.97,-31.76 1732.77,-24.59 1722.2,-25.34 1724.97,-31.76"/>
</a>
</g>
</g>
<!-- Node21 -->
<g id="Node000021" class="node">
<title>Node21</title>
<g id="a_Node000021"><a xlink:href="conditional__ostream_8hpp.html" target="_top" xlink:title=" ">
<polygon fill="white" stroke="#666666" points="140,-162 0,-162 0,-132 140,-132 140,-162"/>
<text text-anchor="start" x="8" y="-150" font-family="Helvetica,sans-Serif" font-size="10.00">meltpooldg/utilities</text>
<text text-anchor="middle" x="70" y="-139" font-family="Helvetica,sans-Serif" font-size="10.00">/conditional_ostream.hpp</text>
</a>
</g>
</g>
<!-- Node20&#45;&gt;Node21 -->
<g id="edge20_Node000020_Node000021" class="edge">
<title>Node20&#45;&gt;Node21</title>
<g id="a_edge20_Node000020_Node000021"><a xlink:title=" ">
<path fill="none" stroke="#63b8ff" d="M115.13,-197.8C107.62,-189.51 97.99,-178.89 89.56,-169.59"/>
<polygon fill="#63b8ff" stroke="#63b8ff" points="92.14,-167.22 82.84,-162.16 86.96,-171.92 92.14,-167.22"/>
</a>
</g>
</g>
<!-- Node20&#45;&gt;Node23 -->
<g id="edge22_Node000020_Node000023" class="edge">
<title>Node20&#45;&gt;Node23</title>
<g id="a_edge22_Node000020_Node000023"><a xlink:title=" ">
<path fill="none" stroke="#63b8ff" d="M184.03,-203.48C199.24,-201.41 215.72,-199.4 231,-198 431.21,-179.65 1065.41,-155.77 1236.26,-149.54"/>
<polygon fill="#63b8ff" stroke="#63b8ff" points="1236.5,-153.03 1246.37,-149.17 1236.25,-146.04 1236.5,-153.03"/>
</a>
</g>
</g>
<!-- Node24 -->
<g id="Node000024" class="node">
<title>Node24</title>
<g id="a_Node000024"><a xlink:title=" ">
<polygon fill="#e0e0e0" stroke="#999999" points="214,-156.5 158,-156.5 158,-137.5 214,-137.5 214,-156.5"/>
<text text-anchor="middle" x="186" y="-144.5" font-family="Helvetica,sans-Serif" font-size="10.00">iomanip</text>
</a>
</g>
</g>
<!-- Node20&#45;&gt;Node24 -->
<g id="edge23_Node000020_Node000024" class="edge">
<title>Node20&#45;&gt;Node24</title>
<g id="a_edge23_Node000020_Node000024"><a xlink:title=" ">
<path fill="none" stroke="#63b8ff" d="M140.87,-197.8C149.83,-187.92 161.79,-174.72 171.14,-164.39"/>
<polygon fill="#63b8ff" stroke="#63b8ff" points="173.86,-166.6 177.98,-156.84 168.68,-161.9 173.86,-166.6"/>
</a>
</g>
</g>
<!-- Node22 -->
<g id="Node000022" class="node">
<title>Node22</title>
<g id="a_Node000022"><a xlink:title=" ">
<polygon fill="#e0e0e0" stroke="#999999" points="135,-96 5,-96 5,-66 135,-66 135,-96"/>
<text text-anchor="start" x="13" y="-84" font-family="Helvetica,sans-Serif" font-size="10.00">deal.II/base/conditional</text>
<text text-anchor="middle" x="70" y="-73" font-family="Helvetica,sans-Serif" font-size="10.00">_ostream.h</text>
</a>
</g>
</g>
<!-- Node21&#45;&gt;Node22 -->
<g id="edge21_Node000021_Node000022" class="edge">
<title>Node21&#45;&gt;Node22</title>
<g id="a_edge21_Node000021_Node000022"><a xlink:title=" ">
<path fill="none" stroke="#63b8ff" d="M70,-131.8C70,-124.34 70,-114.99 70,-106.41"/>
<polygon fill="#63b8ff" stroke="#63b8ff" points="73.5,-106.16 70,-96.16 66.5,-106.16 73.5,-106.16"/>
</a>
</g>
</g>
<!-- Node25&#45;&gt;Node23 -->
<g id="edge27_Node000025_Node000023" class="edge">
<title>Node25&#45;&gt;Node23</title>
<g id="a_edge27_Node000025_Node000023"><a xlink:title=" ">
<path fill="none" stroke="#63b8ff" d="M1497.17,-197.9C1453.3,-187.9 1393.03,-174.14 1340,-162 1334.1,-160.65 1327.87,-159.22 1321.75,-157.82"/>
<polygon fill="#63b8ff" stroke="#63b8ff" points="1322.14,-154.32 1311.61,-155.49 1320.57,-161.14 1322.14,-154.32"/>
</a>
</g>
</g>
<!-- Node26 -->
<g id="Node000026" class="node">
<title>Node26</title>
<g id="a_Node000026"><a xlink:title=" ">
<polygon fill="#e0e0e0" stroke="#999999" points="1487,-156.5 1349,-156.5 1349,-137.5 1487,-137.5 1487,-156.5"/>
<text text-anchor="middle" x="1418" y="-144.5" font-family="Helvetica,sans-Serif" font-size="10.00">deal.II/base/exceptions.h</text>
</a>
</g>
</g>
<!-- Node25&#45;&gt;Node26 -->
<g id="edge26_Node000025_Node000026" class="edge">
<title>Node25&#45;&gt;Node26</title>
<g id="a_edge26_Node000025_Node000026"><a xlink:title=" ">
<path fill="none" stroke="#63b8ff" d="M1528.06,-197.95C1503.55,-186.83 1469.61,-171.42 1445.92,-160.67"/>
<polygon fill="#63b8ff" stroke="#63b8ff" points="1447.32,-157.46 1436.76,-156.52 1444.42,-163.84 1447.32,-157.46"/>
</a>
</g>
</g>
<!-- Node27 -->
<g id="Node000027" class="node">
<title>Node27</title>
<g id="a_Node000027"><a xlink:title=" ">
<polygon fill="#e0e0e0" stroke="#999999" points="1563,-156.5 1505,-156.5 1505,-137.5 1563,-137.5 1563,-156.5"/>
<text text-anchor="middle" x="1534" y="-144.5" font-family="Helvetica,sans-Serif" font-size="10.00">memory</text>
</a>
</g>
</g>
<!-- Node25&#45;&gt;Node27 -->
<g id="edge28_Node000025_Node000027" class="edge">
<title>Node25&#45;&gt;Node27</title>
<g id="a_edge28_Node000025_Node000027"><a xlink:title=" ">
<path fill="none" stroke="#63b8ff" d="M1553.45,-197.8C1549.82,-188.5 1545.04,-176.27 1541.13,-166.26"/>
<polygon fill="#63b8ff" stroke="#63b8ff" points="1544.35,-164.89 1537.45,-156.84 1537.83,-167.43 1544.35,-164.89"/>
</a>
</g>
</g>
<!-- Node28 -->
<g id="Node000028" class="node">
<title>Node28</title>
<g id="a_Node000028"><a xlink:title=" ">
<polygon fill="#e0e0e0" stroke="#999999" points="1628.5,-156.5 1581.5,-156.5 1581.5,-137.5 1628.5,-137.5 1628.5,-156.5"/>
<text text-anchor="middle" x="1605" y="-144.5" font-family="Helvetica,sans-Serif" font-size="10.00">vector</text>
</a>
</g>
</g>
<!-- Node25&#45;&gt;Node28 -->
<g id="edge29_Node000025_Node000028" class="edge">
<title>Node25&#45;&gt;Node28</title>
<g id="a_edge29_Node000025_Node000028"><a xlink:title=" ">
<path fill="none" stroke="#63b8ff" d="M1569.21,-197.8C1576.17,-188.11 1585.42,-175.24 1592.77,-165.01"/>
<polygon fill="#63b8ff" stroke="#63b8ff" points="1595.65,-167.01 1598.64,-156.84 1589.96,-162.92 1595.65,-167.01"/>
</a>
</g>
</g>
<!-- Node29&#45;&gt;Node3 -->
<g id="edge31_Node000029_Node000003" class="edge">
<title>Node29&#45;&gt;Node3</title>
<g id="a_edge31_Node000029_Node000003"><a xlink:title=" ">
<path fill="none" stroke="#63b8ff" d="M1429.02,-263.8C1418.12,-255.18 1404.02,-244.04 1391.92,-234.48"/>
<polygon fill="#63b8ff" stroke="#63b8ff" points="1393.94,-231.62 1383.93,-228.16 1389.6,-237.11 1393.94,-231.62"/>
</a>
</g>
</g>
<!-- Node29&#45;&gt;Node23 -->
<g id="edge41_Node000029_Node000023" class="edge">
<title>Node29&#45;&gt;Node23</title>
<g id="a_edge41_Node000029_Node000023"><a xlink:title=" ">
<path fill="none" stroke="#63b8ff" d="M1448.81,-263.74C1450.22,-246.16 1449.77,-216.36 1434,-198 1426.41,-189.17 1364.45,-171.01 1321.21,-159.18"/>
<polygon fill="#63b8ff" stroke="#63b8ff" points="1322.05,-155.78 1311.48,-156.54 1320.21,-162.54 1322.05,-155.78"/>
</a>
</g>
</g>
<!-- Node29&#45;&gt;Node25 -->
<g id="edge32_Node000029_Node000025" class="edge">
<title>Node29&#45;&gt;Node25</title>
<g id="a_edge32_Node000029_Node000025"><a xlink:title=" ">
<path fill="none" stroke="#63b8ff" d="M1471.58,-263.95C1487.48,-254.87 1508.38,-242.93 1525.76,-233"/>
<polygon fill="#63b8ff" stroke="#63b8ff" points="1527.53,-236.01 1534.48,-228.01 1524.06,-229.93 1527.53,-236.01"/>
</a>
</g>
</g>
<!-- Node29&#45;&gt;Node30 -->
<g id="edge33_Node000029_Node000030" class="edge">
<title>Node29&#45;&gt;Node30</title>
<g id="a_edge33_Node000029_Node000030"><a xlink:title=" ">
<path fill="none" stroke="#63b8ff" d="M1509.76,-263.95C1554.19,-254.01 1613.89,-240.65 1660.37,-230.25"/>
<polygon fill="#63b8ff" stroke="#63b8ff" points="1661.39,-233.61 1670.38,-228.01 1659.86,-226.78 1661.39,-233.61"/>
</a>
</g>
</g>
<!-- Node30&#45;&gt;Node12 -->
<g id="edge35_Node000030_Node000012" class="edge">
<title>Node30&#45;&gt;Node12</title>
<g id="a_edge35_Node000030_Node000012"><a xlink:title=" ">
<path fill="none" stroke="#63b8ff" d="M1654.8,-199.03C1651.83,-198.66 1648.89,-198.31 1646,-198 1353.01,-166.21 1002.93,-153.97 846.54,-149.85"/>
<polygon fill="#63b8ff" stroke="#63b8ff" points="846.61,-146.35 836.52,-149.59 846.43,-153.34 846.61,-146.35"/>
</a>
</g>
</g>
<!-- Node30&#45;&gt;Node13 -->
<g id="edge39_Node000030_Node000013" class="edge">
<title>Node30&#45;&gt;Node13</title>
<g id="a_edge39_Node000030_Node000013"><a xlink:title=" ">
<path fill="none" stroke="#63b8ff" d="M1716.71,-197.9C1697.93,-181.74 1666.05,-154.58 1638,-132 1625.6,-122.01 1611.62,-111.21 1599.82,-102.21"/>
<polygon fill="#63b8ff" stroke="#63b8ff" points="1601.74,-99.27 1591.66,-96.01 1597.51,-104.85 1601.74,-99.27"/>
</a>
</g>
</g>
<!-- Node30&#45;&gt;Node14 -->
<g id="edge34_Node000030_Node000014" class="edge">
<title>Node30&#45;&gt;Node14</title>
<g id="a_edge34_Node000030_Node000014"><a xlink:title=" ">
<path fill="none" stroke="#63b8ff" d="M1738.43,-197.79C1752.27,-161.63 1787.9,-68.8 1790,-66 1798.71,-54.38 1810.8,-44.09 1822.2,-35.9"/>
<polygon fill="#63b8ff" stroke="#63b8ff" points="1824.43,-38.61 1830.7,-30.07 1820.48,-32.84 1824.43,-38.61"/>
</a>
</g>
</g>
<!-- Node30&#45;&gt;Node16 -->
<g id="edge38_Node000030_Node000016" class="edge">
<title>Node30&#45;&gt;Node16</title>
<g id="a_edge38_Node000030_Node000016"><a xlink:title=" ">
<path fill="none" stroke="#63b8ff" d="M1727.39,-197.9C1714.16,-164.65 1680.87,-81 1664.45,-39.75"/>
<polygon fill="#63b8ff" stroke="#63b8ff" points="1667.61,-38.23 1660.66,-30.23 1661.11,-40.82 1667.61,-38.23"/>
</a>
</g>
</g>
<!-- Node30&#45;&gt;Node19 -->
<g id="edge40_Node000030_Node000019" class="edge">
<title>Node30&#45;&gt;Node19</title>
<g id="a_edge40_Node000030_Node000019"><a xlink:title=" ">
<path fill="none" stroke="#63b8ff" d="M1734.29,-197.9C1737.48,-163.23 1745.69,-73.79 1749.28,-34.72"/>
<polygon fill="#63b8ff" stroke="#63b8ff" points="1752.77,-35 1750.2,-24.73 1745.8,-34.36 1752.77,-35"/>
</a>
</g>
</g>
<!-- Node31 -->
<g id="Node000031" class="node">
<title>Node31</title>
<g id="a_Node000031"><a xlink:href="nonlinear__solver__data_8hpp.html" target="_top" xlink:title=" ">
<polygon fill="white" stroke="#666666" points="1947.5,-96 1798.5,-96 1798.5,-66 1947.5,-66 1947.5,-96"/>
<text text-anchor="start" x="1806.5" y="-84" font-family="Helvetica,sans-Serif" font-size="10.00">meltpooldg/linear_algebra</text>
<text text-anchor="middle" x="1873" y="-73" font-family="Helvetica,sans-Serif" font-size="10.00">/nonlinear_solver_data.hpp</text>
</a>
</g>
</g>
<!-- Node30&#45;&gt;Node31 -->
<g id="edge36_Node000030_Node000031" class="edge">
<title>Node30&#45;&gt;Node31</title>
<g id="a_edge36_Node000030_Node000031"><a xlink:title=" ">
<path fill="none" stroke="#63b8ff" d="M1748.25,-197.84C1772.86,-174.98 1821.5,-129.82 1850.23,-103.14"/>
<polygon fill="#63b8ff" stroke="#63b8ff" points="1852.82,-105.51 1857.77,-96.14 1848.06,-100.38 1852.82,-105.51"/>
</a>
</g>
</g>
<!-- Node31&#45;&gt;Node14 -->
<g id="edge37_Node000031_Node000014" class="edge">
<title>Node31&#45;&gt;Node14</title>
<g id="a_edge37_Node000031_Node000014"><a xlink:title=" ">
<path fill="none" stroke="#63b8ff" d="M1869.01,-65.8C1866.86,-58.17 1864.16,-48.57 1861.71,-39.84"/>
<polygon fill="#63b8ff" stroke="#63b8ff" points="1865.06,-38.84 1858.98,-30.16 1858.32,-40.74 1865.06,-38.84"/>
</a>
</g>
</g>
<!-- Node32&#45;&gt;Node23 -->
<g id="edge44_Node000032_Node000023" class="edge">
<title>Node32&#45;&gt;Node23</title>
<g id="a_edge44_Node000032_Node000023"><a xlink:title=" ">
<path fill="none" stroke="#63b8ff" d="M1197.02,-263.84C1214.03,-239.81 1248.47,-191.13 1266.83,-165.19"/>
<polygon fill="#63b8ff" stroke="#63b8ff" points="1269.89,-166.93 1272.81,-156.75 1264.18,-162.89 1269.89,-166.93"/>
</a>
</g>
</g>
<!-- Node33 -->
<g id="Node000033" class="node">
<title>Node33</title>
<g id="a_Node000033"><a xlink:title=" ">
<polygon fill="#e0e0e0" stroke="#999999" points="1212.5,-222.5 1167.5,-222.5 1167.5,-203.5 1212.5,-203.5 1212.5,-222.5"/>
<text text-anchor="middle" x="1190" y="-210.5" font-family="Helvetica,sans-Serif" font-size="10.00">utility</text>
</a>
</g>
</g>
<!-- Node32&#45;&gt;Node33 -->
<g id="edge45_Node000032_Node000033" class="edge">
<title>Node32&#45;&gt;Node33</title>
<g id="a_edge45_Node000032_Node000033"><a xlink:title=" ">
<path fill="none" stroke="#63b8ff" d="M1187.67,-263.8C1188.09,-254.7 1188.65,-242.79 1189.11,-232.9"/>
<polygon fill="#63b8ff" stroke="#63b8ff" points="1192.61,-233 1189.59,-222.84 1185.62,-232.67 1192.61,-233"/>
</a>
</g>
</g>
</g>
</svg>

<g id="navigator" transform="translate(0 0)" fill="#404254">
  <rect fill="#f2f5e9" fill-opacity="0.5" stroke="#606060" stroke-width=".5" x="0" y="0" width="60" height="60"/>
  <use id="zoomplus" xlink:href="#zoomPlus" x="17" y="9" onmousedown="handleZoom(evt,'in')"/>
  <use id="zoomminus" xlink:href="#zoomMin" x="42" y="9" onmousedown="handleZoom(evt,'out')"/>
  <use id="reset" xlink:href="#resetDef" x="30" y="36" onmousedown="handleReset()"/>
   <use id="arrowup" xlink:href="#arrowUp" x="0" y="0" onmousedown="handlePan(0,-1)"/>
  <use id="arrowright" xlink:href="#arrowRight" x="0" y="0" onmousedown="handlePan(1,0)"/>
  <use id="arrowdown" xlink:href="#arrowDown" x="0" y="0" onmousedown="handlePan(0,1)"/>
  <use id="arrowleft" xlink:href="#arrowLeft" x="0" y="0" onmousedown="handlePan(-1,0)"/>
</g>
<svg viewBox="0 0 15 15" width="100%" height="30px" preserveAspectRatio="xMaxYMin meet">
 <g id="arrow_out" transform="scale(0.3 0.3)">
  <a xlink:href="one__step__theta_8hpp__incl_org.svg" target="_base">
   <rect id="button" ry="5" rx="5" y="6" x="6" height="38" width="38"
        fill="#f2f5e9" fill-opacity="0.5" stroke="#606060" stroke-width="1.0"/>
   <path id="arrow"
     d="M 11.500037,31.436501 C 11.940474,20.09759 22.043105,11.32322 32.158766,21.979434 L 37.068811,17.246167 C 37.068811,17.246167 37.088388,32 37.088388,32 L 22.160133,31.978069 C 22.160133,31.978069 26.997745,27.140456 26.997745,27.140456 C 18.528582,18.264221 13.291696,25.230495 11.500037,31.436501 z"
     style="fill:#404040;"/>
  </a>
 </g>
</svg>

<style type='text/css'>
<![CDATA[
[data-mouse-over-selected='false'] { opacity: 0.7; }
[data-mouse-over-selected='true']  { opacity: 1.0; }
]]>
</style>
<script type="application/ecmascript"><![CDATA[
document.addEventListener('DOMContentLoaded', (event) => {
  highlightEdges();
  highlightAdjacentNodes();
});
]]></script>
</svg>
