<?xml version="1.0" encoding="UTF-8" standalone="no"?>
<!DOCTYPE svg PUBLIC "-//W3C//DTD SVG 1.1//EN"
 "http://www.w3.org/Graphics/SVG/1.1/DTD/svg11.dtd">
<!-- Generated by graphviz version 2.43.0 (0)
 -->
<!-- Title: include/meltpooldg/core/operator_base.hpp Pages: 1 -->
<svg width="2473pt" height="302pt"
 viewBox="0.00 0.00 2473.00 302.00" xmlns="http://www.w3.org/2000/svg" xmlns:xlink="http://www.w3.org/1999/xlink">
<g id="graph0" class="graph" transform="scale(1 1) rotate(0) translate(4 298)">
<title>include/meltpooldg/core/operator_base.hpp</title>
<!-- Node1 -->
<g id="Node000001" class="node">
<title>Node1</title>
<g id="a_Node000001"><a xlink:title=" ">
<polygon fill="#999999" stroke="#666666" points="1291,-294 1157,-294 1157,-264 1291,-264 1291,-294"/>
<text text-anchor="start" x="1165" y="-282" font-family="Helvetica,sans-Serif" font-size="10.00">include/meltpooldg</text>
<text text-anchor="middle" x="1224" y="-271" font-family="Helvetica,sans-Serif" font-size="10.00">/core/operator_base.hpp</text>
</a>
</g>
</g>
<!-- Node2 -->
<g id="Node000002" class="node">
<title>Node2</title>
<g id="a_Node000002"><a xlink:title=" ">
<polygon fill="#e0e0e0" stroke="#999999" points="955,-222.5 817,-222.5 817,-203.5 955,-203.5 955,-222.5"/>
<text text-anchor="middle" x="886" y="-210.5" font-family="Helvetica,sans-Serif" font-size="10.00">deal.II/base/exceptions.h</text>
</a>
</g>
</g>
<!-- Node1&#45;&gt;Node2 -->
<g id="edge1_Node000001_Node000002" class="edge">
<title>Node1&#45;&gt;Node2</title>
<g id="a_edge1_Node000001_Node000002"><a xlink:title=" ">
<path fill="none" stroke="#63b8ff" d="M1156.82,-265.28C1093.48,-253.29 999.74,-235.54 940.8,-224.38"/>
<polygon fill="#63b8ff" stroke="#63b8ff" points="941.41,-220.93 930.94,-222.51 940.11,-227.81 941.41,-220.93"/>
</a>
</g>
</g>
<!-- Node3 -->
<g id="Node000003" class="node">
<title>Node3</title>
<g id="a_Node000003"><a xlink:title=" ">
<polygon fill="#e0e0e0" stroke="#999999" points="104,-156.5 0,-156.5 0,-137.5 104,-137.5 104,-156.5"/>
<text text-anchor="middle" x="52" y="-144.5" font-family="Helvetica,sans-Serif" font-size="10.00">deal.II/base/mpi.h</text>
</a>
</g>
</g>
<!-- Node1&#45;&gt;Node3 -->
<g id="edge2_Node000001_Node000003" class="edge">
<title>Node1&#45;&gt;Node3</title>
<g id="a_edge2_Node000001_Node000003"><a xlink:title=" ">
<path fill="none" stroke="#63b8ff" d="M1156.82,-272.43C1109.92,-266.38 1047,-253.86 997,-228 979.39,-218.89 982.33,-205.54 964,-198 876.47,-162.01 206.79,-174.64 113,-162 106.78,-161.16 100.26,-159.99 93.9,-158.68"/>
<polygon fill="#63b8ff" stroke="#63b8ff" points="94.61,-155.25 84.09,-156.52 93.11,-162.09 94.61,-155.25"/>
</a>
</g>
</g>
<!-- Node4 -->
<g id="Node000004" class="node">
<title>Node4</title>
<g id="a_Node000004"><a xlink:title=" ">
<polygon fill="#e0e0e0" stroke="#999999" points="1351,-222.5 1239,-222.5 1239,-203.5 1351,-203.5 1351,-222.5"/>
<text text-anchor="middle" x="1295" y="-210.5" font-family="Helvetica,sans-Serif" font-size="10.00">deal.II/base/types.h</text>
</a>
</g>
</g>
<!-- Node1&#45;&gt;Node4 -->
<g id="edge3_Node000001_Node000004" class="edge">
<title>Node1&#45;&gt;Node4</title>
<g id="a_edge3_Node000001_Node000004"><a xlink:title=" ">
<path fill="none" stroke="#63b8ff" d="M1239.76,-263.8C1250.93,-253.72 1265.94,-240.19 1277.49,-229.78"/>
<polygon fill="#63b8ff" stroke="#63b8ff" points="1280.1,-232.14 1285.19,-222.84 1275.42,-226.94 1280.1,-232.14"/>
</a>
</g>
</g>
<!-- Node5 -->
<g id="Node000005" class="node">
<title>Node5</title>
<g id="a_Node000005"><a xlink:title=" ">
<polygon fill="#e0e0e0" stroke="#999999" points="1497,-222.5 1369,-222.5 1369,-203.5 1497,-203.5 1497,-222.5"/>
<text text-anchor="middle" x="1433" y="-210.5" font-family="Helvetica,sans-Serif" font-size="10.00">deal.II/dofs/dof_tools.h</text>
</a>
</g>
</g>
<!-- Node1&#45;&gt;Node5 -->
<g id="edge4_Node000001_Node000005" class="edge">
<title>Node1&#45;&gt;Node5</title>
<g id="a_edge4_Node000001_Node000005"><a xlink:title=" ">
<path fill="none" stroke="#63b8ff" d="M1269.87,-263.95C1307.49,-252.43 1360.1,-236.32 1395.3,-225.54"/>
<polygon fill="#63b8ff" stroke="#63b8ff" points="1396.65,-228.79 1405.19,-222.52 1394.6,-222.1 1396.65,-228.79"/>
</a>
</g>
</g>
<!-- Node6 -->
<g id="Node000006" class="node">
<title>Node6</title>
<g id="a_Node000006"><a xlink:title=" ">
<polygon fill="#e0e0e0" stroke="#999999" points="240,-162 122,-162 122,-132 240,-132 240,-162"/>
<text text-anchor="start" x="130" y="-150" font-family="Helvetica,sans-Serif" font-size="10.00">deal.II/lac/la_parallel</text>
<text text-anchor="middle" x="181" y="-139" font-family="Helvetica,sans-Serif" font-size="10.00">_block_vector.h</text>
</a>
</g>
</g>
<!-- Node1&#45;&gt;Node6 -->
<g id="edge5_Node000001_Node000006" class="edge">
<title>Node1&#45;&gt;Node6</title>
<g id="a_edge5_Node000001_Node000006"><a xlink:title=" ">
<path fill="none" stroke="#63b8ff" d="M1156.88,-267.2C1119.64,-259.53 1073.25,-247.12 1035,-228 1015.75,-218.38 1017.15,-205.54 997,-198 844.04,-140.74 429.86,-181.27 250.18,-161.92"/>
<polygon fill="#63b8ff" stroke="#63b8ff" points="250.59,-158.45 240.25,-160.76 249.77,-165.4 250.59,-158.45"/>
</a>
</g>
</g>
<!-- Node7 -->
<g id="Node000007" class="node">
<title>Node7</title>
<g id="a_Node000007"><a xlink:title=" ">
<polygon fill="#e0e0e0" stroke="#999999" points="376,-162 258,-162 258,-132 376,-132 376,-162"/>
<text text-anchor="start" x="266" y="-150" font-family="Helvetica,sans-Serif" font-size="10.00">deal.II/lac/la_parallel</text>
<text text-anchor="middle" x="317" y="-139" font-family="Helvetica,sans-Serif" font-size="10.00">_vector.h</text>
</a>
</g>
</g>
<!-- Node1&#45;&gt;Node7 -->
<g id="edge6_Node000001_Node000007" class="edge">
<title>Node1&#45;&gt;Node7</title>
<g id="a_edge6_Node000001_Node000007"><a xlink:title=" ">
<path fill="none" stroke="#63b8ff" d="M1171.55,-263.92C1143.09,-255.33 1107.75,-243.09 1078,-228 1057.22,-217.46 1057.03,-205.6 1035,-198 901.18,-151.83 544.24,-179.39 386.36,-161.95"/>
<polygon fill="#63b8ff" stroke="#63b8ff" points="386.6,-158.45 376.25,-160.74 385.76,-165.4 386.6,-158.45"/>
</a>
</g>
</g>
<!-- Node8 -->
<g id="Node000008" class="node">
<title>Node8</title>
<g id="a_Node000008"><a xlink:title=" ">
<polygon fill="#e0e0e0" stroke="#999999" points="1616.5,-228 1515.5,-228 1515.5,-198 1616.5,-198 1616.5,-228"/>
<text text-anchor="start" x="1523.5" y="-216" font-family="Helvetica,sans-Serif" font-size="10.00">deal.II/lac/trilinos</text>
<text text-anchor="middle" x="1566" y="-205" font-family="Helvetica,sans-Serif" font-size="10.00">_sparse_matrix.h</text>
</a>
</g>
</g>
<!-- Node1&#45;&gt;Node8 -->
<g id="edge7_Node000001_Node000008" class="edge">
<title>Node1&#45;&gt;Node8</title>
<g id="a_edge7_Node000001_Node000008"><a xlink:title=" ">
<path fill="none" stroke="#63b8ff" d="M1291.14,-267.14C1346.05,-258.02 1425.94,-244.2 1505.15,-228.11"/>
<polygon fill="#63b8ff" stroke="#63b8ff" points="1506.21,-231.46 1515.3,-226.03 1504.8,-224.61 1506.21,-231.46"/>
</a>
</g>
</g>
<!-- Node9 -->
<g id="Node000009" class="node">
<title>Node9</title>
<g id="a_Node000009"><a xlink:title=" ">
<polygon fill="#e0e0e0" stroke="#999999" points="1745,-228 1635,-228 1635,-198 1745,-198 1745,-228"/>
<text text-anchor="start" x="1643" y="-216" font-family="Helvetica,sans-Serif" font-size="10.00">deal.II/lac/trilinos</text>
<text text-anchor="middle" x="1690" y="-205" font-family="Helvetica,sans-Serif" font-size="10.00">_sparsity_pattern.h</text>
</a>
</g>
</g>
<!-- Node1&#45;&gt;Node9 -->
<g id="edge8_Node000001_Node000009" class="edge">
<title>Node1&#45;&gt;Node9</title>
<g id="a_edge8_Node000001_Node000009"><a xlink:title=" ">
<path fill="none" stroke="#63b8ff" d="M1291.31,-271.44C1369.09,-263.44 1501.09,-248.62 1624.72,-227.94"/>
<polygon fill="#63b8ff" stroke="#63b8ff" points="1625.47,-231.36 1634.75,-226.25 1624.3,-224.46 1625.47,-231.36"/>
</a>
</g>
</g>
<!-- Node10 -->
<g id="Node000010" class="node">
<title>Node10</title>
<g id="a_Node000010"><a xlink:href="scratch__data_8hpp.html" target="_top" xlink:title=" ">
<polygon fill="white" stroke="#666666" points="1221,-228 1087,-228 1087,-198 1221,-198 1221,-228"/>
<text text-anchor="start" x="1095" y="-216" font-family="Helvetica,sans-Serif" font-size="10.00">meltpooldg/core/scratch</text>
<text text-anchor="middle" x="1154" y="-205" font-family="Helvetica,sans-Serif" font-size="10.00">_data.hpp</text>
</a>
</g>
</g>
<!-- Node1&#45;&gt;Node10 -->
<g id="edge9_Node000001_Node000010" class="edge">
<title>Node1&#45;&gt;Node10</title>
<g id="a_edge9_Node000001_Node000010"><a xlink:title=" ">
<path fill="none" stroke="#63b8ff" d="M1208.46,-263.8C1199.22,-255.34 1187.32,-244.46 1177,-235.03"/>
<polygon fill="#63b8ff" stroke="#63b8ff" points="1179.23,-232.33 1169.49,-228.16 1174.51,-237.49 1179.23,-232.33"/>
</a>
</g>
</g>
<!-- Node45 -->
<g id="Node000045" class="node">
<title>Node45</title>
<g id="a_Node000045"><a xlink:href="numbers_8hpp.html" target="_top" xlink:title=" ">
<polygon fill="white" stroke="#666666" points="2206,-228 2094,-228 2094,-198 2206,-198 2206,-228"/>
<text text-anchor="start" x="2102" y="-216" font-family="Helvetica,sans-Serif" font-size="10.00">meltpooldg/utilities</text>
<text text-anchor="middle" x="2150" y="-205" font-family="Helvetica,sans-Serif" font-size="10.00">/numbers.hpp</text>
</a>
</g>
</g>
<!-- Node1&#45;&gt;Node45 -->
<g id="edge54_Node000001_Node000045" class="edge">
<title>Node1&#45;&gt;Node45</title>
<g id="a_edge54_Node000001_Node000045"><a xlink:title=" ">
<path fill="none" stroke="#63b8ff" d="M1291.34,-273.35C1462.64,-261.51 1913.43,-230.35 2083.65,-218.59"/>
<polygon fill="#63b8ff" stroke="#63b8ff" points="2083.99,-222.07 2093.72,-217.89 2083.51,-215.09 2083.99,-222.07"/>
</a>
</g>
</g>
<!-- Node10&#45;&gt;Node3 -->
<g id="edge11_Node000010_Node000003" class="edge">
<title>Node10&#45;&gt;Node3</title>
<g id="a_edge11_Node000010_Node000003"><a xlink:title=" ">
<path fill="none" stroke="#63b8ff" d="M1086.82,-205.29C1059.04,-202.71 1026.49,-199.91 997,-198 604.61,-172.53 502.73,-214.2 113,-162 106.78,-161.17 100.26,-160 93.9,-158.69"/>
<polygon fill="#63b8ff" stroke="#63b8ff" points="94.6,-155.26 84.09,-156.53 93.11,-162.09 94.6,-155.26"/>
</a>
</g>
</g>
<!-- Node10&#45;&gt;Node6 -->
<g id="edge22_Node000010_Node000006" class="edge">
<title>Node10&#45;&gt;Node6</title>
<g id="a_edge22_Node000010_Node000006"><a xlink:title=" ">
<path fill="none" stroke="#63b8ff" d="M1086.74,-203.24C1069.87,-201.28 1051.79,-199.37 1035,-198 689.78,-169.82 597.74,-204.72 250.34,-162.02"/>
<polygon fill="#63b8ff" stroke="#63b8ff" points="250.6,-158.53 240.25,-160.77 249.74,-165.48 250.6,-158.53"/>
</a>
</g>
</g>
<!-- Node10&#45;&gt;Node7 -->
<g id="edge23_Node000010_Node000007" class="edge">
<title>Node10&#45;&gt;Node7</title>
<g id="a_edge23_Node000010_Node000007"><a xlink:title=" ">
<path fill="none" stroke="#63b8ff" d="M1086.9,-199.77C1082.21,-199.11 1077.54,-198.51 1073,-198 771.98,-164.23 690.45,-200.19 386.24,-162.02"/>
<polygon fill="#63b8ff" stroke="#63b8ff" points="386.61,-158.54 376.25,-160.75 385.73,-165.48 386.61,-158.54"/>
</a>
</g>
</g>
<!-- Node11 -->
<g id="Node000011" class="node">
<title>Node11</title>
<g id="a_Node000011"><a xlink:title=" ">
<polygon fill="#e0e0e0" stroke="#999999" points="497.5,-162 394.5,-162 394.5,-132 497.5,-132 497.5,-162"/>
<text text-anchor="start" x="402.5" y="-150" font-family="Helvetica,sans-Serif" font-size="10.00">deal.II/base/index</text>
<text text-anchor="middle" x="446" y="-139" font-family="Helvetica,sans-Serif" font-size="10.00">_set.h</text>
</a>
</g>
</g>
<!-- Node10&#45;&gt;Node11 -->
<g id="edge10_Node000010_Node000011" class="edge">
<title>Node10&#45;&gt;Node11</title>
<g id="a_edge10_Node000010_Node000011"><a xlink:title=" ">
<path fill="none" stroke="#63b8ff" d="M1086.9,-199.83C1082.2,-199.15 1077.54,-198.53 1073,-198 825.53,-168.84 757.59,-198.02 507.72,-162.09"/>
<polygon fill="#63b8ff" stroke="#63b8ff" points="508.01,-158.59 497.61,-160.61 507,-165.52 508.01,-158.59"/>
</a>
</g>
</g>
<!-- Node12 -->
<g id="Node000012" class="node">
<title>Node12</title>
<g id="a_Node000012"><a xlink:title=" ">
<polygon fill="#e0e0e0" stroke="#999999" points="650.5,-162 515.5,-162 515.5,-132 650.5,-132 650.5,-162"/>
<text text-anchor="start" x="523.5" y="-150" font-family="Helvetica,sans-Serif" font-size="10.00">deal.II/base/mpi_remote</text>
<text text-anchor="middle" x="583" y="-139" font-family="Helvetica,sans-Serif" font-size="10.00">_point_evaluation.h</text>
</a>
</g>
</g>
<!-- Node10&#45;&gt;Node12 -->
<g id="edge12_Node000010_Node000012" class="edge">
<title>Node10&#45;&gt;Node12</title>
<g id="a_edge12_Node000010_Node000012"><a xlink:title=" ">
<path fill="none" stroke="#63b8ff" d="M1086.88,-199.95C1082.19,-199.25 1077.53,-198.59 1073,-198 893.06,-174.67 843.75,-186.33 660.85,-162.17"/>
<polygon fill="#63b8ff" stroke="#63b8ff" points="661.28,-158.7 650.9,-160.84 660.35,-165.64 661.28,-158.7"/>
</a>
</g>
</g>
<!-- Node13 -->
<g id="Node000013" class="node">
<title>Node13</title>
<g id="a_Node000013"><a xlink:title=" ">
<polygon fill="#e0e0e0" stroke="#999999" points="803.5,-156.5 668.5,-156.5 668.5,-137.5 803.5,-137.5 803.5,-156.5"/>
<text text-anchor="middle" x="736" y="-144.5" font-family="Helvetica,sans-Serif" font-size="10.00">deal.II/base/partitioner.h</text>
</a>
</g>
</g>
<!-- Node10&#45;&gt;Node13 -->
<g id="edge13_Node000010_Node000013" class="edge">
<title>Node10&#45;&gt;Node13</title>
<g id="a_edge13_Node000010_Node000013"><a xlink:title=" ">
<path fill="none" stroke="#63b8ff" d="M1086.84,-200.21C1082.16,-199.45 1077.51,-198.7 1073,-198 957.73,-180.06 928.19,-180.44 813,-162 805.9,-160.86 798.44,-159.6 791.08,-158.31"/>
<polygon fill="#63b8ff" stroke="#63b8ff" points="791.6,-154.84 781.14,-156.54 790.37,-161.74 791.6,-154.84"/>
</a>
</g>
</g>
<!-- Node14 -->
<g id="Node000014" class="node">
<title>Node14</title>
<g id="a_Node000014"><a xlink:title=" ">
<polygon fill="#e0e0e0" stroke="#999999" points="960,-156.5 822,-156.5 822,-137.5 960,-137.5 960,-156.5"/>
<text text-anchor="middle" x="891" y="-144.5" font-family="Helvetica,sans-Serif" font-size="10.00">deal.II/base/quadrature.h</text>
</a>
</g>
</g>
<!-- Node10&#45;&gt;Node14 -->
<g id="edge14_Node000010_Node000014" class="edge">
<title>Node10&#45;&gt;Node14</title>
<g id="a_edge14_Node000010_Node000014"><a xlink:title=" ">
<path fill="none" stroke="#63b8ff" d="M1096.28,-197.95C1048.03,-186.21 980.17,-169.7 935.9,-158.93"/>
<polygon fill="#63b8ff" stroke="#63b8ff" points="936.54,-155.48 926,-156.52 934.89,-162.28 936.54,-155.48"/>
</a>
</g>
</g>
<!-- Node15 -->
<g id="Node000015" class="node">
<title>Node15</title>
<g id="a_Node000015"><a xlink:title=" ">
<polygon fill="#e0e0e0" stroke="#999999" points="1088,-156.5 978,-156.5 978,-137.5 1088,-137.5 1088,-156.5"/>
<text text-anchor="middle" x="1033" y="-144.5" font-family="Helvetica,sans-Serif" font-size="10.00">deal.II/base/timer.h</text>
</a>
</g>
</g>
<!-- Node10&#45;&gt;Node15 -->
<g id="edge15_Node000010_Node000015" class="edge">
<title>Node10&#45;&gt;Node15</title>
<g id="a_edge15_Node000010_Node000015"><a xlink:title=" ">
<path fill="none" stroke="#63b8ff" d="M1127.45,-197.95C1106.79,-187.03 1078.32,-171.97 1058.05,-161.25"/>
<polygon fill="#63b8ff" stroke="#63b8ff" points="1059.58,-158.1 1049.1,-156.52 1056.31,-164.29 1059.58,-158.1"/>
</a>
</g>
</g>
<!-- Node16 -->
<g id="Node000016" class="node">
<title>Node16</title>
<g id="a_Node000016"><a xlink:title=" ">
<polygon fill="#e0e0e0" stroke="#999999" points="1220.5,-24.5 1071.5,-24.5 1071.5,-5.5 1220.5,-5.5 1220.5,-24.5"/>
<text text-anchor="middle" x="1146" y="-12.5" font-family="Helvetica,sans-Serif" font-size="10.00">deal.II/base/vectorization.h</text>
</a>
</g>
</g>
<!-- Node10&#45;&gt;Node16 -->
<g id="edge16_Node000010_Node000016" class="edge">
<title>Node10&#45;&gt;Node16</title>
<g id="a_edge16_Node000010_Node000016"><a xlink:title=" ">
<path fill="none" stroke="#63b8ff" d="M1148.37,-197.88C1140.14,-179.28 1122.91,-147.15 1097,-132 964.86,-54.77 657.94,-180.95 759,-66 778.63,-43.67 953.39,-28.45 1061.25,-21.09"/>
<polygon fill="#63b8ff" stroke="#63b8ff" points="1061.72,-24.57 1071.47,-20.4 1061.25,-17.58 1061.72,-24.57"/>
</a>
</g>
</g>
<!-- Node17 -->
<g id="Node000017" class="node">
<title>Node17</title>
<g id="a_Node000017"><a xlink:title=" ">
<polygon fill="#e0e0e0" stroke="#999999" points="908,-90.5 768,-90.5 768,-71.5 908,-71.5 908,-90.5"/>
<text text-anchor="middle" x="838" y="-78.5" font-family="Helvetica,sans-Serif" font-size="10.00">deal.II/dofs/dof_handler.h</text>
</a>
</g>
</g>
<!-- Node10&#45;&gt;Node17 -->
<g id="edge17_Node000010_Node000017" class="edge">
<title>Node10&#45;&gt;Node17</title>
<g id="a_edge17_Node000010_Node000017"><a xlink:title=" ">
<path fill="none" stroke="#63b8ff" d="M1154.01,-197.77C1153.2,-179.66 1148.91,-148.7 1130,-132 1058.03,-68.45 1011.6,-112.38 917,-96 910.18,-94.82 903.02,-93.57 895.93,-92.32"/>
<polygon fill="#63b8ff" stroke="#63b8ff" points="896.07,-88.79 885.61,-90.5 894.85,-95.68 896.07,-88.79"/>
</a>
</g>
</g>
<!-- Node18 -->
<g id="Node000018" class="node">
<title>Node18</title>
<g id="a_Node000018"><a xlink:title=" ">
<polygon fill="#e0e0e0" stroke="#999999" points="1563.5,-156.5 1482.5,-156.5 1482.5,-137.5 1563.5,-137.5 1563.5,-156.5"/>
<text text-anchor="middle" x="1523" y="-144.5" font-family="Helvetica,sans-Serif" font-size="10.00">deal.II/fe/fe.h</text>
</a>
</g>
</g>
<!-- Node10&#45;&gt;Node18 -->
<g id="edge18_Node000010_Node000018" class="edge">
<title>Node10&#45;&gt;Node18</title>
<g id="a_edge18_Node000010_Node000018"><a xlink:title=" ">
<path fill="none" stroke="#63b8ff" d="M1221.12,-199.52C1224.12,-199 1227.09,-198.49 1230,-198 1335.51,-180.31 1363.14,-183.22 1468,-162 1472.47,-161.1 1477.11,-160.06 1481.73,-158.97"/>
<polygon fill="#63b8ff" stroke="#63b8ff" points="1482.83,-162.31 1491.71,-156.54 1481.17,-155.51 1482.83,-162.31"/>
</a>
</g>
</g>
<!-- Node19 -->
<g id="Node000019" class="node">
<title>Node19</title>
<g id="a_Node000019"><a xlink:title=" ">
<polygon fill="#e0e0e0" stroke="#999999" points="1696,-156.5 1582,-156.5 1582,-137.5 1696,-137.5 1696,-156.5"/>
<text text-anchor="middle" x="1639" y="-144.5" font-family="Helvetica,sans-Serif" font-size="10.00">deal.II/fe/mapping.h</text>
</a>
</g>
</g>
<!-- Node10&#45;&gt;Node19 -->
<g id="edge19_Node000010_Node000019" class="edge">
<title>Node10&#45;&gt;Node19</title>
<g id="a_edge19_Node000010_Node000019"><a xlink:title=" ">
<path fill="none" stroke="#63b8ff" d="M1221.09,-199.35C1224.1,-198.88 1227.08,-198.42 1230,-198 1381.27,-176.14 1421,-185.66 1572,-162 1578.32,-161.01 1584.94,-159.82 1591.46,-158.55"/>
<polygon fill="#63b8ff" stroke="#63b8ff" points="1592.45,-161.92 1601.56,-156.52 1591.07,-155.06 1592.45,-161.92"/>
</a>
</g>
</g>
<!-- Node20 -->
<g id="Node000020" class="node">
<title>Node20</title>
<g id="a_Node000020"><a xlink:title=" ">
<polygon fill="#e0e0e0" stroke="#999999" points="1023.5,-90.5 926.5,-90.5 926.5,-71.5 1023.5,-71.5 1023.5,-90.5"/>
<text text-anchor="middle" x="975" y="-78.5" font-family="Helvetica,sans-Serif" font-size="10.00">deal.II/grid/tria.h</text>
</a>
</g>
</g>
<!-- Node10&#45;&gt;Node20 -->
<g id="edge20_Node000010_Node000020" class="edge">
<title>Node10&#45;&gt;Node20</title>
<g id="a_edge20_Node000010_Node000020"><a xlink:title=" ">
<path fill="none" stroke="#63b8ff" d="M1162.49,-197.7C1171.55,-180.36 1182.76,-151.07 1168,-132 1166.83,-130.49 1075.63,-107.32 1019.03,-93.06"/>
<polygon fill="#63b8ff" stroke="#63b8ff" points="1019.79,-89.64 1009.23,-90.59 1018.08,-96.43 1019.79,-89.64"/>
</a>
</g>
</g>
<!-- Node21 -->
<g id="Node000021" class="node">
<title>Node21</title>
<g id="a_Node000021"><a xlink:title=" ">
<polygon fill="#e0e0e0" stroke="#999999" points="1809.5,-162 1714.5,-162 1714.5,-132 1809.5,-132 1809.5,-162"/>
<text text-anchor="start" x="1722.5" y="-150" font-family="Helvetica,sans-Serif" font-size="10.00">deal.II/lac/affine</text>
<text text-anchor="middle" x="1762" y="-139" font-family="Helvetica,sans-Serif" font-size="10.00">_constraints.h</text>
</a>
</g>
</g>
<!-- Node10&#45;&gt;Node21 -->
<g id="edge21_Node000010_Node000021" class="edge">
<title>Node10&#45;&gt;Node21</title>
<g id="a_edge21_Node000010_Node000021"><a xlink:title=" ">
<path fill="none" stroke="#63b8ff" d="M1221.08,-199.24C1224.09,-198.8 1227.07,-198.38 1230,-198 1436.68,-171.21 1494.14,-194.61 1704.11,-161.94"/>
<polygon fill="#63b8ff" stroke="#63b8ff" points="1704.89,-165.36 1714.22,-160.34 1703.8,-158.45 1704.89,-165.36"/>
</a>
</g>
</g>
<!-- Node22 -->
<g id="Node000022" class="node">
<title>Node22</title>
<g id="a_Node000022"><a xlink:title=" ">
<polygon fill="#e0e0e0" stroke="#999999" points="1148.5,-96 1041.5,-96 1041.5,-66 1148.5,-66 1148.5,-96"/>
<text text-anchor="start" x="1049.5" y="-84" font-family="Helvetica,sans-Serif" font-size="10.00">deal.II/matrix_free</text>
<text text-anchor="middle" x="1095" y="-73" font-family="Helvetica,sans-Serif" font-size="10.00">/matrix_free.h</text>
</a>
</g>
</g>
<!-- Node10&#45;&gt;Node22 -->
<g id="edge24_Node000010_Node000022" class="edge">
<title>Node10&#45;&gt;Node22</title>
<g id="a_edge24_Node000010_Node000022"><a xlink:title=" ">
<path fill="none" stroke="#63b8ff" d="M1174.3,-197.85C1194.63,-181.88 1220.93,-155.09 1206,-132 1195.01,-114.99 1176.7,-103.71 1158.08,-96.25"/>
<polygon fill="#63b8ff" stroke="#63b8ff" points="1159.25,-92.95 1148.66,-92.79 1156.84,-99.52 1159.25,-92.95"/>
</a>
</g>
</g>
<!-- Node23 -->
<g id="Node000023" class="node">
<title>Node23</title>
<g id="a_Node000023"><a xlink:href="util_8hpp.html" target="_top" xlink:title=" ">
<polygon fill="white" stroke="#666666" points="1388,-156.5 1258,-156.5 1258,-137.5 1388,-137.5 1388,-156.5"/>
<text text-anchor="middle" x="1323" y="-144.5" font-family="Helvetica,sans-Serif" font-size="10.00">meltpooldg/cut/util.hpp</text>
</a>
</g>
</g>
<!-- Node10&#45;&gt;Node23 -->
<g id="edge25_Node000010_Node000023" class="edge">
<title>Node10&#45;&gt;Node23</title>
<g id="a_edge25_Node000010_Node000023"><a xlink:title=" ">
<path fill="none" stroke="#63b8ff" d="M1191.09,-197.95C1220.99,-186.63 1262.6,-170.88 1291.04,-160.1"/>
<polygon fill="#63b8ff" stroke="#63b8ff" points="1292.4,-163.33 1300.51,-156.52 1289.92,-156.79 1292.4,-163.33"/>
</a>
</g>
</g>
<!-- Node38 -->
<g id="Node000038" class="node">
<title>Node38</title>
<g id="a_Node000038"><a xlink:title=" ">
<polygon fill="#e0e0e0" stroke="#999999" points="2251,-90.5 2193,-90.5 2193,-71.5 2251,-71.5 2251,-90.5"/>
<text text-anchor="middle" x="2222" y="-78.5" font-family="Helvetica,sans-Serif" font-size="10.00">memory</text>
</a>
</g>
</g>
<!-- Node10&#45;&gt;Node38 -->
<g id="edge52_Node000010_Node000038" class="edge">
<title>Node10&#45;&gt;Node38</title>
<g id="a_edge52_Node000010_Node000038"><a xlink:title=" ">
<path fill="none" stroke="#63b8ff" d="M1221.13,-199.63C1287.35,-187.19 1380.93,-168.91 1397,-162 1418.41,-152.8 1417.95,-139.52 1440,-132 1596.66,-78.56 2021.79,-128.99 2184,-96 2186.84,-95.42 2189.75,-94.67 2192.64,-93.81"/>
<polygon fill="#63b8ff" stroke="#63b8ff" points="2193.86,-97.09 2202.22,-90.58 2191.62,-90.46 2193.86,-97.09"/>
</a>
</g>
</g>
<!-- Node40 -->
<g id="Node000040" class="node">
<title>Node40</title>
<g id="a_Node000040"><a xlink:title=" ">
<polygon fill="#e0e0e0" stroke="#999999" points="2316.5,-90.5 2269.5,-90.5 2269.5,-71.5 2316.5,-71.5 2316.5,-90.5"/>
<text text-anchor="middle" x="2293" y="-78.5" font-family="Helvetica,sans-Serif" font-size="10.00">vector</text>
</a>
</g>
</g>
<!-- Node10&#45;&gt;Node40 -->
<g id="edge53_Node000010_Node000040" class="edge">
<title>Node10&#45;&gt;Node40</title>
<g id="a_edge53_Node000010_Node000040"><a xlink:title=" ">
<path fill="none" stroke="#63b8ff" d="M1221.13,-199.61C1224.13,-199.06 1227.1,-198.53 1230,-198 1320.17,-181.7 1348.95,-198.48 1433,-162 1453.38,-153.15 1452.08,-139.51 1473,-132 1637.78,-72.86 2089.28,-134.8 2260,-96 2262.17,-95.51 2264.38,-94.88 2266.57,-94.16"/>
<polygon fill="#63b8ff" stroke="#63b8ff" points="2267.81,-97.43 2275.92,-90.61 2265.33,-90.89 2267.81,-97.43"/>
</a>
</g>
</g>
<!-- Node41 -->
<g id="Node000041" class="node">
<title>Node41</title>
<g id="a_Node000041"><a xlink:href="conditional__ostream_8hpp.html" target="_top" xlink:title=" ">
<polygon fill="white" stroke="#666666" points="1968,-162 1828,-162 1828,-132 1968,-132 1968,-162"/>
<text text-anchor="start" x="1836" y="-150" font-family="Helvetica,sans-Serif" font-size="10.00">meltpooldg/utilities</text>
<text text-anchor="middle" x="1898" y="-139" font-family="Helvetica,sans-Serif" font-size="10.00">/conditional_ostream.hpp</text>
</a>
</g>
</g>
<!-- Node10&#45;&gt;Node41 -->
<g id="edge48_Node000010_Node000041" class="edge">
<title>Node10&#45;&gt;Node41</title>
<g id="a_edge48_Node000010_Node000041"><a xlink:title=" ">
<path fill="none" stroke="#63b8ff" d="M1221.07,-199.19C1224.08,-198.76 1227.07,-198.36 1230,-198 1486.59,-166.63 1556.21,-191.95 1817.64,-161.93"/>
<polygon fill="#63b8ff" stroke="#63b8ff" points="1818.3,-165.37 1827.83,-160.74 1817.49,-158.42 1818.3,-165.37"/>
</a>
</g>
</g>
<!-- Node43 -->
<g id="Node000043" class="node">
<title>Node43</title>
<g id="a_Node000043"><a xlink:title=" ">
<polygon fill="#e0e0e0" stroke="#999999" points="2051.5,-156.5 1986.5,-156.5 1986.5,-137.5 2051.5,-137.5 2051.5,-156.5"/>
<text text-anchor="middle" x="2019" y="-144.5" font-family="Helvetica,sans-Serif" font-size="10.00">functional</text>
</a>
</g>
</g>
<!-- Node10&#45;&gt;Node43 -->
<g id="edge50_Node000010_Node000043" class="edge">
<title>Node10&#45;&gt;Node43</title>
<g id="a_edge50_Node000010_Node000043"><a xlink:title=" ">
<path fill="none" stroke="#63b8ff" d="M1221.06,-199.14C1224.08,-198.72 1227.07,-198.34 1230,-198 1560.18,-159.81 1650.28,-223.13 1977,-162 1980.43,-161.36 1983.96,-160.5 1987.45,-159.53"/>
<polygon fill="#63b8ff" stroke="#63b8ff" points="1988.54,-162.86 1997.07,-156.57 1986.48,-156.17 1988.54,-162.86"/>
</a>
</g>
</g>
<!-- Node44 -->
<g id="Node000044" class="node">
<title>Node44</title>
<g id="a_Node000044"><a xlink:title=" ">
<polygon fill="#e0e0e0" stroke="#999999" points="2108,-156.5 2070,-156.5 2070,-137.5 2108,-137.5 2108,-156.5"/>
<text text-anchor="middle" x="2089" y="-144.5" font-family="Helvetica,sans-Serif" font-size="10.00">map</text>
</a>
</g>
</g>
<!-- Node10&#45;&gt;Node44 -->
<g id="edge51_Node000010_Node000044" class="edge">
<title>Node10&#45;&gt;Node44</title>
<g id="a_edge51_Node000010_Node000044"><a xlink:title=" ">
<path fill="none" stroke="#63b8ff" d="M1221.06,-199.12C1224.08,-198.71 1227.07,-198.33 1230,-198 1413.45,-177.23 1880.97,-207.06 2060,-162 2061.49,-161.62 2063,-161.17 2064.5,-160.65"/>
<polygon fill="#63b8ff" stroke="#63b8ff" points="2066.22,-163.72 2074.09,-156.62 2063.51,-157.27 2066.22,-163.72"/>
</a>
</g>
</g>
<!-- Node23&#45;&gt;Node16 -->
<g id="edge27_Node000023_Node000016" class="edge">
<title>Node23&#45;&gt;Node16</title>
<g id="a_edge27_Node000023_Node000016"><a xlink:title=" ">
<path fill="none" stroke="#63b8ff" d="M1283.83,-137.49C1256.85,-130.08 1221.42,-117.13 1196,-96 1175.79,-79.19 1161.27,-52.02 1153.24,-34.08"/>
<polygon fill="#63b8ff" stroke="#63b8ff" points="1156.41,-32.57 1149.28,-24.73 1149.96,-35.3 1156.41,-32.57"/>
</a>
</g>
</g>
<!-- Node23&#45;&gt;Node17 -->
<g id="edge28_Node000023_Node000017" class="edge">
<title>Node23&#45;&gt;Node17</title>
<g id="a_edge28_Node000023_Node000017"><a xlink:title=" ">
<path fill="none" stroke="#63b8ff" d="M1257.81,-139.05C1177.49,-130.23 1036.92,-114 917,-96 909.53,-94.88 901.68,-93.6 893.94,-92.29"/>
<polygon fill="#63b8ff" stroke="#63b8ff" points="894.33,-88.81 883.88,-90.55 893.14,-95.71 894.33,-88.81"/>
</a>
</g>
</g>
<!-- Node23&#45;&gt;Node20 -->
<g id="edge29_Node000023_Node000020" class="edge">
<title>Node23&#45;&gt;Node20</title>
<g id="a_edge29_Node000023_Node000020"><a xlink:title=" ">
<path fill="none" stroke="#63b8ff" d="M1266.45,-137.5C1207.65,-128.37 1113.04,-112.89 1032,-96 1027.5,-95.06 1022.82,-94.02 1018.16,-92.94"/>
<polygon fill="#63b8ff" stroke="#63b8ff" points="1018.6,-89.45 1008.06,-90.54 1016.98,-96.26 1018.6,-89.45"/>
</a>
</g>
</g>
<!-- Node23&#45;&gt;Node22 -->
<g id="edge32_Node000023_Node000022" class="edge">
<title>Node23&#45;&gt;Node22</title>
<g id="a_edge32_Node000023_Node000022"><a xlink:title=" ">
<path fill="none" stroke="#63b8ff" d="M1292.25,-137.37C1257.22,-127.54 1199.13,-111.23 1155.03,-98.85"/>
<polygon fill="#63b8ff" stroke="#63b8ff" points="1155.86,-95.45 1145.29,-96.12 1153.97,-102.19 1155.86,-95.45"/>
</a>
</g>
</g>
<!-- Node24 -->
<g id="Node000024" class="node">
<title>Node24</title>
<g id="a_Node000024"><a xlink:title=" ">
<polygon fill="#e0e0e0" stroke="#999999" points="1436.5,-96 1335.5,-96 1335.5,-66 1436.5,-66 1436.5,-96"/>
<text text-anchor="start" x="1343.5" y="-84" font-family="Helvetica,sans-Serif" font-size="10.00">deal.II/base/array</text>
<text text-anchor="middle" x="1386" y="-73" font-family="Helvetica,sans-Serif" font-size="10.00">_view.h</text>
</a>
</g>
</g>
<!-- Node23&#45;&gt;Node24 -->
<g id="edge26_Node000023_Node000024" class="edge">
<title>Node23&#45;&gt;Node24</title>
<g id="a_edge26_Node000023_Node000024"><a xlink:title=" ">
<path fill="none" stroke="#63b8ff" d="M1331.5,-137.37C1339.98,-128.75 1353.37,-115.15 1364.75,-103.59"/>
<polygon fill="#63b8ff" stroke="#63b8ff" points="1367.34,-105.94 1371.86,-96.36 1362.35,-101.03 1367.34,-105.94"/>
</a>
</g>
</g>
<!-- Node25 -->
<g id="Node000025" class="node">
<title>Node25</title>
<g id="a_Node000025"><a xlink:title=" ">
<polygon fill="#e0e0e0" stroke="#999999" points="1563.5,-96 1454.5,-96 1454.5,-66 1563.5,-66 1563.5,-96"/>
<text text-anchor="start" x="1462.5" y="-84" font-family="Helvetica,sans-Serif" font-size="10.00">deal.II/matrix_free</text>
<text text-anchor="middle" x="1509" y="-73" font-family="Helvetica,sans-Serif" font-size="10.00">/evaluation_flags.h</text>
</a>
</g>
</g>
<!-- Node23&#45;&gt;Node25 -->
<g id="edge30_Node000023_Node000025" class="edge">
<title>Node23&#45;&gt;Node25</title>
<g id="a_edge30_Node000023_Node000025"><a xlink:title=" ">
<path fill="none" stroke="#63b8ff" d="M1348.08,-137.37C1376.18,-127.7 1422.47,-111.77 1458.2,-99.48"/>
<polygon fill="#63b8ff" stroke="#63b8ff" points="1459.66,-102.68 1467.98,-96.12 1457.38,-96.06 1459.66,-102.68"/>
</a>
</g>
</g>
<!-- Node26 -->
<g id="Node000026" class="node">
<title>Node26</title>
<g id="a_Node000026"><a xlink:title=" ">
<polygon fill="#e0e0e0" stroke="#999999" points="1706.5,-96 1581.5,-96 1581.5,-66 1706.5,-66 1706.5,-96"/>
<text text-anchor="start" x="1589.5" y="-84" font-family="Helvetica,sans-Serif" font-size="10.00">deal.II/matrix_free</text>
<text text-anchor="middle" x="1644" y="-73" font-family="Helvetica,sans-Serif" font-size="10.00">/fe_point_evaluation.h</text>
</a>
</g>
</g>
<!-- Node23&#45;&gt;Node26 -->
<g id="edge31_Node000023_Node000026" class="edge">
<title>Node23&#45;&gt;Node26</title>
<g id="a_edge31_Node000023_Node000026"><a xlink:title=" ">
<path fill="none" stroke="#63b8ff" d="M1365.96,-137.44C1418.5,-126.96 1508.24,-109.07 1571.53,-96.45"/>
<polygon fill="#63b8ff" stroke="#63b8ff" points="1572.33,-99.86 1581.46,-94.47 1570.96,-92.99 1572.33,-99.86"/>
</a>
</g>
</g>
<!-- Node27 -->
<g id="Node000027" class="node">
<title>Node27</title>
<g id="a_Node000027"><a xlink:title=" ">
<polygon fill="#e0e0e0" stroke="#999999" points="1843.5,-96 1724.5,-96 1724.5,-66 1843.5,-66 1843.5,-96"/>
<text text-anchor="start" x="1732.5" y="-84" font-family="Helvetica,sans-Serif" font-size="10.00">deal.II/non_matching</text>
<text text-anchor="middle" x="1784" y="-73" font-family="Helvetica,sans-Serif" font-size="10.00">/mapping_info.h</text>
</a>
</g>
</g>
<!-- Node23&#45;&gt;Node27 -->
<g id="edge33_Node000023_Node000027" class="edge">
<title>Node23&#45;&gt;Node27</title>
<g id="a_edge33_Node000023_Node000027"><a xlink:title=" ">
<path fill="none" stroke="#63b8ff" d="M1368.46,-137.46C1379.42,-135.53 1391.11,-133.59 1402,-132 1537.31,-112.25 1574.95,-117.67 1714.03,-96.06"/>
<polygon fill="#63b8ff" stroke="#63b8ff" points="1714.88,-99.47 1724.22,-94.46 1713.8,-92.55 1714.88,-99.47"/>
</a>
</g>
</g>
<!-- Node28 -->
<g id="Node000028" class="node">
<title>Node28</title>
<g id="a_Node000028"><a xlink:title=" ">
<polygon fill="#e0e0e0" stroke="#999999" points="1980.5,-96 1861.5,-96 1861.5,-66 1980.5,-66 1980.5,-96"/>
<text text-anchor="start" x="1869.5" y="-84" font-family="Helvetica,sans-Serif" font-size="10.00">deal.II/non_matching</text>
<text text-anchor="middle" x="1921" y="-73" font-family="Helvetica,sans-Serif" font-size="10.00">/mesh_classifier.h</text>
</a>
</g>
</g>
<!-- Node23&#45;&gt;Node28 -->
<g id="edge34_Node000023_Node000028" class="edge">
<title>Node23&#45;&gt;Node28</title>
<g id="a_edge34_Node000023_Node000028"><a xlink:title=" ">
<path fill="none" stroke="#63b8ff" d="M1366.76,-137.48C1378.2,-135.46 1390.53,-133.47 1402,-132 1597.8,-106.88 1651.6,-123.45 1851.31,-95.97"/>
<polygon fill="#63b8ff" stroke="#63b8ff" points="1851.82,-99.43 1861.24,-94.58 1850.85,-92.5 1851.82,-99.43"/>
</a>
</g>
</g>
<!-- Node29 -->
<g id="Node000029" class="node">
<title>Node29</title>
<g id="a_Node000029"><a xlink:href="enum_8hpp.html" target="_top" xlink:title=" ">
<polygon fill="white" stroke="#666666" points="2111,-96 1999,-96 1999,-66 2111,-66 2111,-96"/>
<text text-anchor="start" x="2007" y="-84" font-family="Helvetica,sans-Serif" font-size="10.00">meltpooldg/utilities</text>
<text text-anchor="middle" x="2055" y="-73" font-family="Helvetica,sans-Serif" font-size="10.00">/enum.hpp</text>
</a>
</g>
</g>
<!-- Node23&#45;&gt;Node29 -->
<g id="edge35_Node000023_Node000029" class="edge">
<title>Node23&#45;&gt;Node29</title>
<g id="a_edge35_Node000023_Node000029"><a xlink:title=" ">
<path fill="none" stroke="#63b8ff" d="M1365.92,-137.48C1377.58,-135.41 1390.24,-133.4 1402,-132 1661.55,-101.14 1730,-131.21 1989,-96 1989.1,-95.99 1989.2,-95.97 1989.3,-95.96"/>
<polygon fill="#63b8ff" stroke="#63b8ff" points="1989.58,-99.46 1998.93,-94.48 1988.51,-92.54 1989.58,-99.46"/>
</a>
</g>
</g>
<!-- Node36 -->
<g id="Node000036" class="node">
<title>Node36</title>
<g id="a_Node000036"><a xlink:href="fe__integrator_8hpp.html" target="_top" xlink:title=" ">
<polygon fill="white" stroke="#666666" points="1317,-96 1205,-96 1205,-66 1317,-66 1317,-96"/>
<text text-anchor="start" x="1213" y="-84" font-family="Helvetica,sans-Serif" font-size="10.00">meltpooldg/utilities</text>
<text text-anchor="middle" x="1261" y="-73" font-family="Helvetica,sans-Serif" font-size="10.00">/fe_integrator.hpp</text>
</a>
</g>
</g>
<!-- Node23&#45;&gt;Node36 -->
<g id="edge42_Node000023_Node000036" class="edge">
<title>Node23&#45;&gt;Node36</title>
<g id="a_edge42_Node000023_Node000036"><a xlink:title=" ">
<path fill="none" stroke="#63b8ff" d="M1314.64,-137.37C1306.29,-128.75 1293.12,-115.15 1281.92,-103.59"/>
<polygon fill="#63b8ff" stroke="#63b8ff" points="1284.38,-101.11 1274.91,-96.36 1279.36,-105.98 1284.38,-101.11"/>
</a>
</g>
</g>
<!-- Node23&#45;&gt;Node38 -->
<g id="edge45_Node000023_Node000038" class="edge">
<title>Node23&#45;&gt;Node38</title>
<g id="a_edge45_Node000023_Node000038"><a xlink:title=" ">
<path fill="none" stroke="#63b8ff" d="M1365.49,-137.43C1377.27,-135.34 1390.09,-133.32 1402,-132 1747.79,-93.56 1842.98,-164.95 2184,-96 2186.84,-95.43 2189.76,-94.67 2192.64,-93.81"/>
<polygon fill="#63b8ff" stroke="#63b8ff" points="2193.86,-97.1 2202.22,-90.59 2191.62,-90.46 2193.86,-97.1"/>
</a>
</g>
</g>
<!-- Node39 -->
<g id="Node000039" class="node">
<title>Node39</title>
<g id="a_Node000039"><a xlink:title=" ">
<polygon fill="#e0e0e0" stroke="#999999" points="2174.5,-90.5 2129.5,-90.5 2129.5,-71.5 2174.5,-71.5 2174.5,-90.5"/>
<text text-anchor="middle" x="2152" y="-78.5" font-family="Helvetica,sans-Serif" font-size="10.00">utility</text>
</a>
</g>
</g>
<!-- Node23&#45;&gt;Node39 -->
<g id="edge46_Node000023_Node000039" class="edge">
<title>Node23&#45;&gt;Node39</title>
<g id="a_edge46_Node000023_Node000039"><a xlink:title=" ">
<path fill="none" stroke="#63b8ff" d="M1365.5,-137.46C1377.28,-135.37 1390.1,-133.35 1402,-132 1719.48,-96.05 1808.99,-169.23 2120,-96 2121.95,-95.54 2123.93,-94.97 2125.89,-94.32"/>
<polygon fill="#63b8ff" stroke="#63b8ff" points="2127.41,-97.48 2135.46,-90.59 2124.87,-90.96 2127.41,-97.48"/>
</a>
</g>
</g>
<!-- Node23&#45;&gt;Node40 -->
<g id="edge47_Node000023_Node000040" class="edge">
<title>Node23&#45;&gt;Node40</title>
<g id="a_edge47_Node000023_Node000040"><a xlink:title=" ">
<path fill="none" stroke="#63b8ff" d="M1386.67,-137.5C1403.95,-135.43 1422.67,-133.42 1440,-132 1621.79,-117.15 2082.1,-136.26 2260,-96 2262.17,-95.51 2264.38,-94.88 2266.57,-94.17"/>
<polygon fill="#63b8ff" stroke="#63b8ff" points="2267.81,-97.44 2275.92,-90.61 2265.33,-90.89 2267.81,-97.44"/>
</a>
</g>
</g>
<!-- Node30 -->
<g id="Node000030" class="node">
<title>Node30</title>
<g id="a_Node000030"><a xlink:title=" ">
<polygon fill="#e0e0e0" stroke="#999999" points="1768.5,-30 1641.5,-30 1641.5,0 1768.5,0 1768.5,-30"/>
<text text-anchor="start" x="1649.5" y="-18" font-family="Helvetica,sans-Serif" font-size="10.00">deal.II/base/parameter</text>
<text text-anchor="middle" x="1705" y="-7" font-family="Helvetica,sans-Serif" font-size="10.00">_handler.h</text>
</a>
</g>
</g>
<!-- Node29&#45;&gt;Node30 -->
<g id="edge36_Node000029_Node000030" class="edge">
<title>Node29&#45;&gt;Node30</title>
<g id="a_edge36_Node000029_Node000030"><a xlink:title=" ">
<path fill="none" stroke="#63b8ff" d="M1998.86,-67.93C1995.53,-67.26 1992.22,-66.61 1989,-66 1898.24,-48.68 1872.7,-47.2 1778.54,-30.25"/>
<polygon fill="#63b8ff" stroke="#63b8ff" points="1779.05,-26.79 1768.59,-28.45 1777.8,-33.68 1779.05,-26.79"/>
</a>
</g>
</g>
<!-- Node31 -->
<g id="Node000031" class="node">
<title>Node31</title>
<g id="a_Node000031"><a xlink:title=" ">
<polygon fill="#e0e0e0" stroke="#999999" points="1911.5,-24.5 1786.5,-24.5 1786.5,-5.5 1911.5,-5.5 1911.5,-24.5"/>
<text text-anchor="middle" x="1849" y="-12.5" font-family="Helvetica,sans-Serif" font-size="10.00">deal.II/base/patterns.h</text>
</a>
</g>
</g>
<!-- Node29&#45;&gt;Node31 -->
<g id="edge37_Node000029_Node000031" class="edge">
<title>Node29&#45;&gt;Node31</title>
<g id="a_edge37_Node000029_Node000031"><a xlink:title=" ">
<path fill="none" stroke="#63b8ff" d="M2009.79,-65.95C1972.71,-54.43 1920.85,-38.32 1886.16,-27.54"/>
<polygon fill="#63b8ff" stroke="#63b8ff" points="1887,-24.14 1876.42,-24.52 1884.93,-30.83 1887,-24.14"/>
</a>
</g>
</g>
<!-- Node32 -->
<g id="Node000032" class="node">
<title>Node32</title>
<g id="a_Node000032"><a xlink:title=" ">
<polygon fill="#e0e0e0" stroke="#999999" points="2042,-30 1930,-30 1930,0 2042,0 2042,-30"/>
<text text-anchor="start" x="1938" y="-18" font-family="Helvetica,sans-Serif" font-size="10.00">meltpooldg/utilities</text>
<text text-anchor="middle" x="1986" y="-7" font-family="Helvetica,sans-Serif" font-size="10.00">/better_enum.hpp</text>
</a>
</g>
</g>
<!-- Node29&#45;&gt;Node32 -->
<g id="edge38_Node000029_Node000032" class="edge">
<title>Node29&#45;&gt;Node32</title>
<g id="a_edge38_Node000029_Node000032"><a xlink:title=" ">
<path fill="none" stroke="#63b8ff" d="M2039.69,-65.8C2030.57,-57.34 2018.84,-46.46 2008.67,-37.03"/>
<polygon fill="#63b8ff" stroke="#63b8ff" points="2010.98,-34.4 2001.27,-30.16 2006.22,-39.53 2010.98,-34.4"/>
</a>
</g>
</g>
<!-- Node33 -->
<g id="Node000033" class="node">
<title>Node33</title>
<g id="a_Node000033"><a xlink:title=" ">
<polygon fill="#e0e0e0" stroke="#999999" points="2185.5,-30 2060.5,-30 2060.5,0 2185.5,0 2185.5,-30"/>
<text text-anchor="start" x="2068.5" y="-18" font-family="Helvetica,sans-Serif" font-size="10.00">boost/algorithm/string</text>
<text text-anchor="middle" x="2123" y="-7" font-family="Helvetica,sans-Serif" font-size="10.00">/join.hpp</text>
</a>
</g>
</g>
<!-- Node29&#45;&gt;Node33 -->
<g id="edge39_Node000029_Node000033" class="edge">
<title>Node29&#45;&gt;Node33</title>
<g id="a_edge39_Node000029_Node000033"><a xlink:title=" ">
<path fill="none" stroke="#63b8ff" d="M2070.09,-65.8C2079.07,-57.34 2090.63,-46.46 2100.65,-37.03"/>
<polygon fill="#63b8ff" stroke="#63b8ff" points="2103.07,-39.57 2107.95,-30.16 2098.27,-34.47 2103.07,-39.57"/>
</a>
</g>
</g>
<!-- Node34 -->
<g id="Node000034" class="node">
<title>Node34</title>
<g id="a_Node000034"><a xlink:title=" ">
<polygon fill="#e0e0e0" stroke="#999999" points="2260,-24.5 2204,-24.5 2204,-5.5 2260,-5.5 2260,-24.5"/>
<text text-anchor="middle" x="2232" y="-12.5" font-family="Helvetica,sans-Serif" font-size="10.00">sstream</text>
</a>
</g>
</g>
<!-- Node29&#45;&gt;Node34 -->
<g id="edge40_Node000029_Node000034" class="edge">
<title>Node29&#45;&gt;Node34</title>
<g id="a_edge40_Node000029_Node000034"><a xlink:title=" ">
<path fill="none" stroke="#63b8ff" d="M2094.27,-65.96C2122.13,-55.99 2160.38,-42.24 2194,-30 2195.64,-29.4 2197.31,-28.79 2199,-28.18"/>
<polygon fill="#63b8ff" stroke="#63b8ff" points="2200.52,-31.35 2208.7,-24.62 2198.11,-24.78 2200.52,-31.35"/>
</a>
</g>
</g>
<!-- Node35 -->
<g id="Node000035" class="node">
<title>Node35</title>
<g id="a_Node000035"><a xlink:title=" ">
<polygon fill="#e0e0e0" stroke="#999999" points="2322,-24.5 2278,-24.5 2278,-5.5 2322,-5.5 2322,-24.5"/>
<text text-anchor="middle" x="2300" y="-12.5" font-family="Helvetica,sans-Serif" font-size="10.00">string</text>
</a>
</g>
</g>
<!-- Node29&#45;&gt;Node35 -->
<g id="edge41_Node000029_Node000035" class="edge">
<title>Node29&#45;&gt;Node35</title>
<g id="a_edge41_Node000029_Node000035"><a xlink:title=" ">
<path fill="none" stroke="#63b8ff" d="M2111.25,-67.45C2169.5,-54.36 2254.09,-35.05 2269,-30 2270.4,-29.53 2271.82,-29.01 2273.24,-28.47"/>
<polygon fill="#63b8ff" stroke="#63b8ff" points="2274.65,-31.68 2282.53,-24.6 2271.96,-25.21 2274.65,-31.68"/>
</a>
</g>
</g>
<!-- Node36&#45;&gt;Node16 -->
<g id="edge43_Node000036_Node000016" class="edge">
<title>Node36&#45;&gt;Node16</title>
<g id="a_edge43_Node000036_Node000016"><a xlink:title=" ">
<path fill="none" stroke="#63b8ff" d="M1235.76,-65.95C1216.22,-55.08 1189.32,-40.11 1170.07,-29.4"/>
<polygon fill="#63b8ff" stroke="#63b8ff" points="1171.74,-26.32 1161.3,-24.52 1168.34,-32.44 1171.74,-26.32"/>
</a>
</g>
</g>
<!-- Node37 -->
<g id="Node000037" class="node">
<title>Node37</title>
<g id="a_Node000037"><a xlink:title=" ">
<polygon fill="#e0e0e0" stroke="#999999" points="1345.5,-30 1238.5,-30 1238.5,0 1345.5,0 1345.5,-30"/>
<text text-anchor="start" x="1246.5" y="-18" font-family="Helvetica,sans-Serif" font-size="10.00">deal.II/matrix_free</text>
<text text-anchor="middle" x="1292" y="-7" font-family="Helvetica,sans-Serif" font-size="10.00">/fe_evaluation.h</text>
</a>
</g>
</g>
<!-- Node36&#45;&gt;Node37 -->
<g id="edge44_Node000036_Node000037" class="edge">
<title>Node36&#45;&gt;Node37</title>
<g id="a_edge44_Node000036_Node000037"><a xlink:title=" ">
<path fill="none" stroke="#63b8ff" d="M1267.88,-65.8C1271.65,-58.01 1276.42,-48.16 1280.73,-39.28"/>
<polygon fill="#63b8ff" stroke="#63b8ff" points="1283.93,-40.69 1285.14,-30.16 1277.63,-37.64 1283.93,-40.69"/>
</a>
</g>
</g>
<!-- Node42 -->
<g id="Node000042" class="node">
<title>Node42</title>
<g id="a_Node000042"><a xlink:title=" ">
<polygon fill="#e0e0e0" stroke="#999999" points="2465,-96 2335,-96 2335,-66 2465,-66 2465,-96"/>
<text text-anchor="start" x="2343" y="-84" font-family="Helvetica,sans-Serif" font-size="10.00">deal.II/base/conditional</text>
<text text-anchor="middle" x="2400" y="-73" font-family="Helvetica,sans-Serif" font-size="10.00">_ostream.h</text>
</a>
</g>
</g>
<!-- Node41&#45;&gt;Node42 -->
<g id="edge49_Node000041_Node000042" class="edge">
<title>Node41&#45;&gt;Node42</title>
<g id="a_edge49_Node000041_Node000042"><a xlink:title=" ">
<path fill="none" stroke="#63b8ff" d="M1968.17,-133.29C1971.15,-132.84 1974.1,-132.41 1977,-132 2128.11,-110.85 2169.92,-118.18 2324.34,-96.16"/>
<polygon fill="#63b8ff" stroke="#63b8ff" points="2325.28,-99.56 2334.68,-94.67 2324.28,-92.63 2325.28,-99.56"/>
</a>
</g>
</g>
<!-- Node46 -->
<g id="Node000046" class="node">
<title>Node46</title>
<g id="a_Node000046"><a xlink:title=" ">
<polygon fill="#e0e0e0" stroke="#999999" points="2173.5,-156.5 2126.5,-156.5 2126.5,-137.5 2173.5,-137.5 2173.5,-156.5"/>
<text text-anchor="middle" x="2150" y="-144.5" font-family="Helvetica,sans-Serif" font-size="10.00">cmath</text>
</a>
</g>
</g>
<!-- Node45&#45;&gt;Node46 -->
<g id="edge55_Node000045_Node000046" class="edge">
<title>Node45&#45;&gt;Node46</title>
<g id="a_edge55_Node000045_Node000046"><a xlink:title=" ">
<path fill="none" stroke="#63b8ff" d="M2150,-197.8C2150,-188.7 2150,-176.79 2150,-166.9"/>
<polygon fill="#63b8ff" stroke="#63b8ff" points="2153.5,-166.84 2150,-156.84 2146.5,-166.84 2153.5,-166.84"/>
</a>
</g>
</g>
<!-- Node47 -->
<g id="Node000047" class="node">
<title>Node47</title>
<g id="a_Node000047"><a xlink:title=" ">
<polygon fill="#e0e0e0" stroke="#999999" points="2250.5,-156.5 2191.5,-156.5 2191.5,-137.5 2250.5,-137.5 2250.5,-156.5"/>
<text text-anchor="middle" x="2221" y="-144.5" font-family="Helvetica,sans-Serif" font-size="10.00">numbers</text>
</a>
</g>
</g>
<!-- Node45&#45;&gt;Node47 -->
<g id="edge56_Node000045_Node000047" class="edge">
<title>Node45&#45;&gt;Node47</title>
<g id="a_edge56_Node000045_Node000047"><a xlink:title=" ">
<path fill="none" stroke="#63b8ff" d="M2165.76,-197.8C2176.93,-187.72 2191.94,-174.19 2203.49,-163.78"/>
<polygon fill="#63b8ff" stroke="#63b8ff" points="2206.1,-166.14 2211.19,-156.84 2201.42,-160.94 2206.1,-166.14"/>
</a>
</g>
</g>
</g>
</svg>
