<?xml version="1.0" encoding="UTF-8" standalone="no"?>
<!DOCTYPE svg PUBLIC "-//W3C//DTD SVG 1.1//EN"
 "http://www.w3.org/Graphics/SVG/1.1/DTD/svg11.dtd">
<!-- Generated by graphviz version 2.43.0 (0)
 -->
<!-- Title: include/meltpooldg/core/operator_base.hpp Pages: 1 -->
<!--zoomable 302 -->

<svg id="main" version="1.1" xmlns="http://www.w3.org/2000/svg" xmlns:xlink="http://www.w3.org/1999/xlink" xml:space="preserve" onload="init(evt)">
<style type="text/css"><![CDATA[
.node, .edge {opacity: 0.7;}
.node.selected, .edge.selected {opacity: 1;}
.edge:hover path { stroke: red; }
.edge:hover polygon { stroke: red; fill: red; }
]]></style>

<defs>
  <circle id="rim" cx="0" cy="0" r="7"/>
  <circle id="rim2" cx="0" cy="0" r="3.5"/>
  <g id="zoomPlus">
    <use xlink:href="#rim" fill="#404040"><set attributeName="fill" to="#808080" begin="zoomplus.mouseover" end="zoomplus.mouseout"/></use>
    <path d="M-4,0h8M0,-4v8" fill="none" stroke="white" stroke-width="1.5" pointer-events="none"/>
  </g>
  <g id="zoomMin">
    <use xlink:href="#rim" fill="#404040"><set attributeName="fill" to="#808080" begin="zoomminus.mouseover" end="zoomminus.mouseout"/></use>
    <path d="M-4,0h8" fill="none" stroke="white" stroke-width="1.5" pointer-events="none"/>
  </g>
  <g id="arrowUp" transform="translate(30 24)">
    <use xlink:href="#rim"/>
    <path pointer-events="none" fill="none" stroke="white" stroke-width="1.5" d="M0,-3.0v7 M-2.5,-0.5L0,-3.0L2.5,-0.5"/>
  </g>
  <g id="arrowRight" transform="rotate(90) translate(36 -43)">
    <use xlink:href="#rim"/>
    <path pointer-events="none" fill="none" stroke="white" stroke-width="1.5" d="M0,-3.0v7 M-2.5,-0.5L0,-3.0L2.5,-0.5"/>
  </g>
  <g id="arrowDown" transform="rotate(180) translate(-30 -48)">
    <use xlink:href="#rim"/>
    <path pointer-events="none" fill="none" stroke="white" stroke-width="1.5" d="M0,-3.0v7 M-2.5,-0.5L0,-3.0L2.5,-0.5"/>
  </g>
  <g id="arrowLeft" transform="rotate(270) translate(-36 17)">
    <use xlink:href="#rim"/>
    <path pointer-events="none" fill="none" stroke="white" stroke-width="1.5" d="M0,-3.0v7 M-2.5,-0.5L0,-3.0L2.5,-0.5"/>
  </g>
  <g id="resetDef">
    <use xlink:href="#rim2" fill="#404040"><set attributeName="fill" to="#808080" begin="reset.mouseover" end="reset.mouseout"/></use>
  </g>
</defs>
<script type="application/ecmascript">
var viewWidth = 2472;
var viewHeight = 302;
var sectionId = 'dynsection-0';
</script>
<script type="application/ecmascript" xlink:href="svg.min.js"/>
<svg id="graph" class="graph">
<g id="viewport">
<title>include/meltpooldg/core/operator_base.hpp</title>
<!-- Node1 -->
<g id="Node000001" class="node">
<title>Node1</title>
<g id="a_Node000001"><a xlink:title=" ">
<polygon fill="#999999" stroke="#666666" points="1272,-294 1138,-294 1138,-264 1272,-264 1272,-294"/>
<text text-anchor="start" x="1146" y="-282" font-family="Helvetica,sans-Serif" font-size="10.00">include/meltpooldg</text>
<text text-anchor="middle" x="1205" y="-271" font-family="Helvetica,sans-Serif" font-size="10.00">/core/operator_base.hpp</text>
</a>
</g>
</g>
<!-- Node2 -->
<g id="Node000002" class="node">
<title>Node2</title>
<g id="a_Node000002"><a xlink:title=" ">
<polygon fill="#e0e0e0" stroke="#999999" points="936,-222.5 798,-222.5 798,-203.5 936,-203.5 936,-222.5"/>
<text text-anchor="middle" x="867" y="-210.5" font-family="Helvetica,sans-Serif" font-size="10.00">deal.II/base/exceptions.h</text>
</a>
</g>
</g>
<!-- Node1&#45;&gt;Node2 -->
<g id="edge1_Node000001_Node000002" class="edge">
<title>Node1&#45;&gt;Node2</title>
<g id="a_edge1_Node000001_Node000002"><a xlink:title=" ">
<path fill="none" stroke="#63b8ff" d="M1137.82,-265.28C1074.48,-253.29 980.74,-235.54 921.8,-224.38"/>
<polygon fill="#63b8ff" stroke="#63b8ff" points="922.41,-220.93 911.94,-222.51 921.11,-227.81 922.41,-220.93"/>
</a>
</g>
</g>
<!-- Node3 -->
<g id="Node000003" class="node">
<title>Node3</title>
<g id="a_Node000003"><a xlink:title=" ">
<polygon fill="#e0e0e0" stroke="#999999" points="104,-156.5 0,-156.5 0,-137.5 104,-137.5 104,-156.5"/>
<text text-anchor="middle" x="52" y="-144.5" font-family="Helvetica,sans-Serif" font-size="10.00">deal.II/base/mpi.h</text>
</a>
</g>
</g>
<!-- Node1&#45;&gt;Node3 -->
<g id="edge2_Node000001_Node000003" class="edge">
<title>Node1&#45;&gt;Node3</title>
<g id="a_edge2_Node000001_Node000003"><a xlink:title=" ">
<path fill="none" stroke="#63b8ff" d="M1137.82,-272.43C1090.92,-266.38 1028,-253.86 978,-228 960.39,-218.89 963.33,-205.55 945,-198 773.87,-127.55 296.39,-186.8 113,-162 106.78,-161.16 100.26,-159.99 93.9,-158.67"/>
<polygon fill="#63b8ff" stroke="#63b8ff" points="94.61,-155.24 84.09,-156.52 93.11,-162.08 94.61,-155.24"/>
</a>
</g>
</g>
<!-- Node4 -->
<g id="Node000004" class="node">
<title>Node4</title>
<g id="a_Node000004"><a xlink:title=" ">
<polygon fill="#e0e0e0" stroke="#999999" points="1332,-222.5 1220,-222.5 1220,-203.5 1332,-203.5 1332,-222.5"/>
<text text-anchor="middle" x="1276" y="-210.5" font-family="Helvetica,sans-Serif" font-size="10.00">deal.II/base/types.h</text>
</a>
</g>
</g>
<!-- Node1&#45;&gt;Node4 -->
<g id="edge3_Node000001_Node000004" class="edge">
<title>Node1&#45;&gt;Node4</title>
<g id="a_edge3_Node000001_Node000004"><a xlink:title=" ">
<path fill="none" stroke="#63b8ff" d="M1220.76,-263.8C1231.93,-253.72 1246.94,-240.19 1258.49,-229.78"/>
<polygon fill="#63b8ff" stroke="#63b8ff" points="1261.1,-232.14 1266.19,-222.84 1256.42,-226.94 1261.1,-232.14"/>
</a>
</g>
</g>
<!-- Node5 -->
<g id="Node000005" class="node">
<title>Node5</title>
<g id="a_Node000005"><a xlink:title=" ">
<polygon fill="#e0e0e0" stroke="#999999" points="1478,-222.5 1350,-222.5 1350,-203.5 1478,-203.5 1478,-222.5"/>
<text text-anchor="middle" x="1414" y="-210.5" font-family="Helvetica,sans-Serif" font-size="10.00">deal.II/dofs/dof_tools.h</text>
</a>
</g>
</g>
<!-- Node1&#45;&gt;Node5 -->
<g id="edge4_Node000001_Node000005" class="edge">
<title>Node1&#45;&gt;Node5</title>
<g id="a_edge4_Node000001_Node000005"><a xlink:title=" ">
<path fill="none" stroke="#63b8ff" d="M1250.87,-263.95C1288.49,-252.43 1341.1,-236.32 1376.3,-225.54"/>
<polygon fill="#63b8ff" stroke="#63b8ff" points="1377.65,-228.79 1386.19,-222.52 1375.6,-222.1 1377.65,-228.79"/>
</a>
</g>
</g>
<!-- Node6 -->
<g id="Node000006" class="node">
<title>Node6</title>
<g id="a_Node000006"><a xlink:title=" ">
<polygon fill="#e0e0e0" stroke="#999999" points="240,-162 122,-162 122,-132 240,-132 240,-162"/>
<text text-anchor="start" x="130" y="-150" font-family="Helvetica,sans-Serif" font-size="10.00">deal.II/lac/la_parallel</text>
<text text-anchor="middle" x="181" y="-139" font-family="Helvetica,sans-Serif" font-size="10.00">_block_vector.h</text>
</a>
</g>
</g>
<!-- Node1&#45;&gt;Node6 -->
<g id="edge5_Node000001_Node000006" class="edge">
<title>Node1&#45;&gt;Node6</title>
<g id="a_edge5_Node000001_Node000006"><a xlink:title=" ">
<path fill="none" stroke="#63b8ff" d="M1137.88,-267.2C1100.64,-259.53 1054.25,-247.12 1016,-228 996.75,-218.38 998.15,-205.56 978,-198 829.02,-142.13 425.66,-180.87 250.21,-161.93"/>
<polygon fill="#63b8ff" stroke="#63b8ff" points="250.59,-158.45 240.25,-160.76 249.77,-165.4 250.59,-158.45"/>
</a>
</g>
</g>
<!-- Node7 -->
<g id="Node000007" class="node">
<title>Node7</title>
<g id="a_Node000007"><a xlink:title=" ">
<polygon fill="#e0e0e0" stroke="#999999" points="376,-162 258,-162 258,-132 376,-132 376,-162"/>
<text text-anchor="start" x="266" y="-150" font-family="Helvetica,sans-Serif" font-size="10.00">deal.II/lac/la_parallel</text>
<text text-anchor="middle" x="317" y="-139" font-family="Helvetica,sans-Serif" font-size="10.00">_vector.h</text>
</a>
</g>
</g>
<!-- Node1&#45;&gt;Node7 -->
<g id="edge6_Node000001_Node000007" class="edge">
<title>Node1&#45;&gt;Node7</title>
<g id="a_edge6_Node000001_Node000007"><a xlink:title=" ">
<path fill="none" stroke="#63b8ff" d="M1152.55,-263.92C1124.09,-255.33 1088.75,-243.09 1059,-228 1038.22,-217.46 1038.02,-205.62 1016,-198 886.25,-153.11 540.28,-178.98 386.54,-161.97"/>
<polygon fill="#63b8ff" stroke="#63b8ff" points="386.6,-158.45 376.25,-160.73 385.76,-165.4 386.6,-158.45"/>
</a>
</g>
</g>
<!-- Node8 -->
<g id="Node000008" class="node">
<title>Node8</title>
<g id="a_Node000008"><a xlink:title=" ">
<polygon fill="#e0e0e0" stroke="#999999" points="1597.5,-228 1496.5,-228 1496.5,-198 1597.5,-198 1597.5,-228"/>
<text text-anchor="start" x="1504.5" y="-216" font-family="Helvetica,sans-Serif" font-size="10.00">deal.II/lac/trilinos</text>
<text text-anchor="middle" x="1547" y="-205" font-family="Helvetica,sans-Serif" font-size="10.00">_sparse_matrix.h</text>
</a>
</g>
</g>
<!-- Node1&#45;&gt;Node8 -->
<g id="edge7_Node000001_Node000008" class="edge">
<title>Node1&#45;&gt;Node8</title>
<g id="a_edge7_Node000001_Node000008"><a xlink:title=" ">
<path fill="none" stroke="#63b8ff" d="M1272.14,-267.14C1327.05,-258.02 1406.94,-244.2 1486.15,-228.11"/>
<polygon fill="#63b8ff" stroke="#63b8ff" points="1487.21,-231.46 1496.3,-226.03 1485.8,-224.61 1487.21,-231.46"/>
</a>
</g>
</g>
<!-- Node9 -->
<g id="Node000009" class="node">
<title>Node9</title>
<g id="a_Node000009"><a xlink:title=" ">
<polygon fill="#e0e0e0" stroke="#999999" points="1726,-228 1616,-228 1616,-198 1726,-198 1726,-228"/>
<text text-anchor="start" x="1624" y="-216" font-family="Helvetica,sans-Serif" font-size="10.00">deal.II/lac/trilinos</text>
<text text-anchor="middle" x="1671" y="-205" font-family="Helvetica,sans-Serif" font-size="10.00">_sparsity_pattern.h</text>
</a>
</g>
</g>
<!-- Node1&#45;&gt;Node9 -->
<g id="edge8_Node000001_Node000009" class="edge">
<title>Node1&#45;&gt;Node9</title>
<g id="a_edge8_Node000001_Node000009"><a xlink:title=" ">
<path fill="none" stroke="#63b8ff" d="M1272.14,-271.55C1350.07,-263.64 1482.63,-248.86 1605.91,-228.09"/>
<polygon fill="#63b8ff" stroke="#63b8ff" points="1606.63,-231.52 1615.9,-226.39 1605.46,-224.62 1606.63,-231.52"/>
</a>
</g>
</g>
<!-- Node10 -->
<g id="Node000010" class="node">
<title>Node10</title>
<g id="a_Node000010"><a xlink:href="scratch__data_8hpp.html" target="_top" xlink:title=" ">
<polygon fill="white" stroke="#666666" points="1202,-228 1068,-228 1068,-198 1202,-198 1202,-228"/>
<text text-anchor="start" x="1076" y="-216" font-family="Helvetica,sans-Serif" font-size="10.00">meltpooldg/core/scratch</text>
<text text-anchor="middle" x="1135" y="-205" font-family="Helvetica,sans-Serif" font-size="10.00">_data.hpp</text>
</a>
</g>
</g>
<!-- Node1&#45;&gt;Node10 -->
<g id="edge9_Node000001_Node000010" class="edge">
<title>Node1&#45;&gt;Node10</title>
<g id="a_edge9_Node000001_Node000010"><a xlink:title=" ">
<path fill="none" stroke="#63b8ff" d="M1189.46,-263.8C1180.22,-255.34 1168.32,-244.46 1158,-235.03"/>
<polygon fill="#63b8ff" stroke="#63b8ff" points="1160.23,-232.33 1150.49,-228.16 1155.51,-237.49 1160.23,-232.33"/>
</a>
</g>
</g>
<!-- Node45 -->
<g id="Node000045" class="node">
<title>Node45</title>
<g id="a_Node000045"><a xlink:href="numbers_8hpp.html" target="_top" xlink:title=" ">
<polygon fill="white" stroke="#666666" points="1856,-228 1744,-228 1744,-198 1856,-198 1856,-228"/>
<text text-anchor="start" x="1752" y="-216" font-family="Helvetica,sans-Serif" font-size="10.00">meltpooldg/utilities</text>
<text text-anchor="middle" x="1800" y="-205" font-family="Helvetica,sans-Serif" font-size="10.00">/numbers.hpp</text>
</a>
</g>
</g>
<!-- Node1&#45;&gt;Node45 -->
<g id="edge54_Node000001_Node000045" class="edge">
<title>Node1&#45;&gt;Node45</title>
<g id="a_edge54_Node000001_Node000045"><a xlink:title=" ">
<path fill="none" stroke="#63b8ff" d="M1272.25,-274.21C1371.26,-268.06 1562.22,-254.06 1733.74,-228.08"/>
<polygon fill="#63b8ff" stroke="#63b8ff" points="1734.35,-231.52 1743.71,-226.55 1733.29,-224.61 1734.35,-231.52"/>
</a>
</g>
</g>
<!-- Node10&#45;&gt;Node3 -->
<g id="edge11_Node000010_Node000003" class="edge">
<title>Node10&#45;&gt;Node3</title>
<g id="a_edge11_Node000010_Node000003"><a xlink:title=" ">
<path fill="none" stroke="#63b8ff" d="M1067.82,-205.31C1040.04,-202.72 1007.49,-199.93 978,-198 594.04,-172.91 494.35,-213.25 113,-162 106.78,-161.16 100.26,-159.99 93.9,-158.68"/>
<polygon fill="#63b8ff" stroke="#63b8ff" points="94.61,-155.25 84.09,-156.53 93.11,-162.09 94.61,-155.25"/>
</a>
</g>
</g>
<!-- Node10&#45;&gt;Node6 -->
<g id="edge22_Node000010_Node000006" class="edge">
<title>Node10&#45;&gt;Node6</title>
<g id="a_edge22_Node000010_Node000006"><a xlink:title=" ">
<path fill="none" stroke="#63b8ff" d="M1067.74,-203.25C1050.87,-201.29 1032.79,-199.38 1016,-198 679.2,-170.32 589.35,-203.87 250.35,-162.03"/>
<polygon fill="#63b8ff" stroke="#63b8ff" points="250.6,-158.53 240.25,-160.77 249.74,-165.48 250.6,-158.53"/>
</a>
</g>
</g>
<!-- Node10&#45;&gt;Node7 -->
<g id="edge23_Node000010_Node000007" class="edge">
<title>Node10&#45;&gt;Node7</title>
<g id="a_edge23_Node000010_Node000007"><a xlink:title=" ">
<path fill="none" stroke="#63b8ff" d="M1067.9,-199.78C1063.21,-199.12 1058.54,-198.51 1054,-198 761.44,-164.96 682.09,-199.34 386.41,-162.04"/>
<polygon fill="#63b8ff" stroke="#63b8ff" points="386.61,-158.54 376.25,-160.74 385.73,-165.48 386.61,-158.54"/>
</a>
</g>
</g>
<!-- Node11 -->
<g id="Node000011" class="node">
<title>Node11</title>
<g id="a_Node000011"><a xlink:title=" ">
<polygon fill="#e0e0e0" stroke="#999999" points="497.5,-162 394.5,-162 394.5,-132 497.5,-132 497.5,-162"/>
<text text-anchor="start" x="402.5" y="-150" font-family="Helvetica,sans-Serif" font-size="10.00">deal.II/base/index</text>
<text text-anchor="middle" x="446" y="-139" font-family="Helvetica,sans-Serif" font-size="10.00">_set.h</text>
</a>
</g>
</g>
<!-- Node10&#45;&gt;Node11 -->
<g id="edge10_Node000010_Node000011" class="edge">
<title>Node10&#45;&gt;Node11</title>
<g id="a_edge10_Node000010_Node000011"><a xlink:title=" ">
<path fill="none" stroke="#63b8ff" d="M1067.9,-199.84C1063.2,-199.16 1058.53,-198.54 1054,-198 814.94,-169.57 749.22,-197.08 507.75,-162.1"/>
<polygon fill="#63b8ff" stroke="#63b8ff" points="508.01,-158.6 497.61,-160.61 506.99,-165.52 508.01,-158.6"/>
</a>
</g>
</g>
<!-- Node12 -->
<g id="Node000012" class="node">
<title>Node12</title>
<g id="a_Node000012"><a xlink:title=" ">
<polygon fill="#e0e0e0" stroke="#999999" points="650.5,-162 515.5,-162 515.5,-132 650.5,-132 650.5,-162"/>
<text text-anchor="start" x="523.5" y="-150" font-family="Helvetica,sans-Serif" font-size="10.00">deal.II/base/mpi_remote</text>
<text text-anchor="middle" x="583" y="-139" font-family="Helvetica,sans-Serif" font-size="10.00">_point_evaluation.h</text>
</a>
</g>
</g>
<!-- Node10&#45;&gt;Node12 -->
<g id="edge12_Node000010_Node000012" class="edge">
<title>Node10&#45;&gt;Node12</title>
<g id="a_edge12_Node000010_Node000012"><a xlink:title=" ">
<path fill="none" stroke="#63b8ff" d="M1067.88,-199.97C1063.19,-199.26 1058.53,-198.6 1054,-198 882.47,-175.4 835.38,-185.6 660.94,-162.19"/>
<polygon fill="#63b8ff" stroke="#63b8ff" points="661.28,-158.71 650.9,-160.83 660.34,-165.64 661.28,-158.71"/>
</a>
</g>
</g>
<!-- Node13 -->
<g id="Node000013" class="node">
<title>Node13</title>
<g id="a_Node000013"><a xlink:title=" ">
<polygon fill="#e0e0e0" stroke="#999999" points="803.5,-156.5 668.5,-156.5 668.5,-137.5 803.5,-137.5 803.5,-156.5"/>
<text text-anchor="middle" x="736" y="-144.5" font-family="Helvetica,sans-Serif" font-size="10.00">deal.II/base/partitioner.h</text>
</a>
</g>
</g>
<!-- Node10&#45;&gt;Node13 -->
<g id="edge13_Node000010_Node000013" class="edge">
<title>Node10&#45;&gt;Node13</title>
<g id="a_edge13_Node000010_Node000013"><a xlink:title=" ">
<path fill="none" stroke="#63b8ff" d="M1067.84,-200.27C1063.16,-199.49 1058.51,-198.73 1054,-198 947.08,-180.78 919.85,-179.69 813,-162 806.16,-160.87 798.98,-159.63 791.87,-158.37"/>
<polygon fill="#63b8ff" stroke="#63b8ff" points="792.02,-154.84 781.56,-156.53 790.79,-161.73 792.02,-154.84"/>
</a>
</g>
</g>
<!-- Node14 -->
<g id="Node000014" class="node">
<title>Node14</title>
<g id="a_Node000014"><a xlink:title=" ">
<polygon fill="#e0e0e0" stroke="#999999" points="960,-156.5 822,-156.5 822,-137.5 960,-137.5 960,-156.5"/>
<text text-anchor="middle" x="891" y="-144.5" font-family="Helvetica,sans-Serif" font-size="10.00">deal.II/base/quadrature.h</text>
</a>
</g>
</g>
<!-- Node10&#45;&gt;Node14 -->
<g id="edge14_Node000010_Node000014" class="edge">
<title>Node10&#45;&gt;Node14</title>
<g id="a_edge14_Node000010_Node000014"><a xlink:title=" ">
<path fill="none" stroke="#63b8ff" d="M1081.45,-197.95C1036.87,-186.26 974.26,-169.84 933.17,-159.06"/>
<polygon fill="#63b8ff" stroke="#63b8ff" points="934.03,-155.67 923.47,-156.52 932.26,-162.44 934.03,-155.67"/>
</a>
</g>
</g>
<!-- Node15 -->
<g id="Node000015" class="node">
<title>Node15</title>
<g id="a_Node000015"><a xlink:title=" ">
<polygon fill="#e0e0e0" stroke="#999999" points="1088,-156.5 978,-156.5 978,-137.5 1088,-137.5 1088,-156.5"/>
<text text-anchor="middle" x="1033" y="-144.5" font-family="Helvetica,sans-Serif" font-size="10.00">deal.II/base/timer.h</text>
</a>
</g>
</g>
<!-- Node10&#45;&gt;Node15 -->
<g id="edge15_Node000010_Node000015" class="edge">
<title>Node10&#45;&gt;Node15</title>
<g id="a_edge15_Node000010_Node000015"><a xlink:title=" ">
<path fill="none" stroke="#63b8ff" d="M1112.62,-197.95C1095.59,-187.27 1072.29,-172.65 1055.29,-161.98"/>
<polygon fill="#63b8ff" stroke="#63b8ff" points="1056.91,-158.87 1046.57,-156.52 1053.18,-164.8 1056.91,-158.87"/>
</a>
</g>
</g>
<!-- Node16 -->
<g id="Node000016" class="node">
<title>Node16</title>
<g id="a_Node000016"><a xlink:title=" ">
<polygon fill="#e0e0e0" stroke="#999999" points="1219.5,-24.5 1070.5,-24.5 1070.5,-5.5 1219.5,-5.5 1219.5,-24.5"/>
<text text-anchor="middle" x="1145" y="-12.5" font-family="Helvetica,sans-Serif" font-size="10.00">deal.II/base/vectorization.h</text>
</a>
</g>
</g>
<!-- Node10&#45;&gt;Node16 -->
<g id="edge16_Node000010_Node000016" class="edge">
<title>Node10&#45;&gt;Node16</title>
<g id="a_edge16_Node000010_Node000016"><a xlink:title=" ">
<path fill="none" stroke="#63b8ff" d="M1132.59,-197.71C1128.65,-179.23 1118.95,-147.56 1097,-132 971.77,-43.24 656.65,-181.28 758,-66 777.63,-43.67 952.39,-28.45 1060.25,-21.09"/>
<polygon fill="#63b8ff" stroke="#63b8ff" points="1060.72,-24.57 1070.47,-20.4 1060.25,-17.58 1060.72,-24.57"/>
</a>
</g>
</g>
<!-- Node17 -->
<g id="Node000017" class="node">
<title>Node17</title>
<g id="a_Node000017"><a xlink:title=" ">
<polygon fill="#e0e0e0" stroke="#999999" points="907,-90.5 767,-90.5 767,-71.5 907,-71.5 907,-90.5"/>
<text text-anchor="middle" x="837" y="-78.5" font-family="Helvetica,sans-Serif" font-size="10.00">deal.II/dofs/dof_handler.h</text>
</a>
</g>
</g>
<!-- Node10&#45;&gt;Node17 -->
<g id="edge17_Node000010_Node000017" class="edge">
<title>Node10&#45;&gt;Node17</title>
<g id="a_edge17_Node000010_Node000017"><a xlink:title=" ">
<path fill="none" stroke="#63b8ff" d="M1138.85,-197.87C1142.73,-180.13 1146.11,-149.89 1130,-132 1097.72,-96.17 963.52,-104.21 916,-96 909.18,-94.82 902.02,-93.57 894.93,-92.33"/>
<polygon fill="#63b8ff" stroke="#63b8ff" points="895.07,-88.8 884.61,-90.51 893.85,-95.69 895.07,-88.8"/>
</a>
</g>
</g>
<!-- Node18 -->
<g id="Node000018" class="node">
<title>Node18</title>
<g id="a_Node000018"><a xlink:title=" ">
<polygon fill="#e0e0e0" stroke="#999999" points="1563.5,-156.5 1482.5,-156.5 1482.5,-137.5 1563.5,-137.5 1563.5,-156.5"/>
<text text-anchor="middle" x="1523" y="-144.5" font-family="Helvetica,sans-Serif" font-size="10.00">deal.II/fe/fe.h</text>
</a>
</g>
</g>
<!-- Node10&#45;&gt;Node18 -->
<g id="edge18_Node000010_Node000018" class="edge">
<title>Node10&#45;&gt;Node18</title>
<g id="a_edge18_Node000010_Node000018"><a xlink:title=" ">
<path fill="none" stroke="#63b8ff" d="M1202.11,-199.48C1205.11,-198.97 1208.09,-198.47 1211,-198 1324.85,-179.55 1354.83,-184.26 1468,-162 1472.65,-161.09 1477.49,-160.02 1482.29,-158.89"/>
<polygon fill="#63b8ff" stroke="#63b8ff" points="1483.13,-162.29 1492.01,-156.52 1481.47,-155.49 1483.13,-162.29"/>
</a>
</g>
</g>
<!-- Node19 -->
<g id="Node000019" class="node">
<title>Node19</title>
<g id="a_Node000019"><a xlink:title=" ">
<polygon fill="#e0e0e0" stroke="#999999" points="1696,-156.5 1582,-156.5 1582,-137.5 1696,-137.5 1696,-156.5"/>
<text text-anchor="middle" x="1639" y="-144.5" font-family="Helvetica,sans-Serif" font-size="10.00">deal.II/fe/mapping.h</text>
</a>
</g>
</g>
<!-- Node10&#45;&gt;Node19 -->
<g id="edge19_Node000010_Node000019" class="edge">
<title>Node10&#45;&gt;Node19</title>
<g id="a_edge19_Node000010_Node000019"><a xlink:title=" ">
<path fill="none" stroke="#63b8ff" d="M1202.09,-199.33C1205.1,-198.86 1208.08,-198.41 1211,-198 1371.09,-175.34 1413.23,-186.81 1573,-162 1579.23,-161.03 1585.75,-159.85 1592.18,-158.59"/>
<polygon fill="#63b8ff" stroke="#63b8ff" points="1593.03,-161.99 1602.13,-156.57 1591.63,-155.13 1593.03,-161.99"/>
</a>
</g>
</g>
<!-- Node20 -->
<g id="Node000020" class="node">
<title>Node20</title>
<g id="a_Node000020"><a xlink:title=" ">
<polygon fill="#e0e0e0" stroke="#999999" points="1022.5,-90.5 925.5,-90.5 925.5,-71.5 1022.5,-71.5 1022.5,-90.5"/>
<text text-anchor="middle" x="974" y="-78.5" font-family="Helvetica,sans-Serif" font-size="10.00">deal.II/grid/tria.h</text>
</a>
</g>
</g>
<!-- Node10&#45;&gt;Node20 -->
<g id="edge20_Node000010_Node000020" class="edge">
<title>Node10&#45;&gt;Node20</title>
<g id="a_edge20_Node000010_Node000020"><a xlink:title=" ">
<path fill="none" stroke="#63b8ff" d="M1148.97,-197.82C1163.96,-180.84 1183.65,-152.19 1168,-132 1166.83,-130.48 1075.15,-107.32 1018.26,-93.05"/>
<polygon fill="#63b8ff" stroke="#63b8ff" points="1018.96,-89.62 1008.41,-90.59 1017.26,-96.41 1018.96,-89.62"/>
</a>
</g>
</g>
<!-- Node21 -->
<g id="Node000021" class="node">
<title>Node21</title>
<g id="a_Node000021"><a xlink:title=" ">
<polygon fill="#e0e0e0" stroke="#999999" points="1809.5,-162 1714.5,-162 1714.5,-132 1809.5,-132 1809.5,-162"/>
<text text-anchor="start" x="1722.5" y="-150" font-family="Helvetica,sans-Serif" font-size="10.00">deal.II/lac/affine</text>
<text text-anchor="middle" x="1762" y="-139" font-family="Helvetica,sans-Serif" font-size="10.00">_constraints.h</text>
</a>
</g>
</g>
<!-- Node10&#45;&gt;Node21 -->
<g id="edge21_Node000010_Node000021" class="edge">
<title>Node10&#45;&gt;Node21</title>
<g id="a_edge21_Node000010_Node000021"><a xlink:title=" ">
<path fill="none" stroke="#63b8ff" d="M1202.07,-199.23C1205.09,-198.79 1208.07,-198.38 1211,-198 1426.05,-170.44 1485.76,-195.59 1704.05,-161.95"/>
<polygon fill="#63b8ff" stroke="#63b8ff" points="1704.89,-165.36 1714.22,-160.35 1703.8,-158.44 1704.89,-165.36"/>
</a>
</g>
</g>
<!-- Node22 -->
<g id="Node000022" class="node">
<title>Node22</title>
<g id="a_Node000022"><a xlink:title=" ">
<polygon fill="#e0e0e0" stroke="#999999" points="1147.5,-96 1040.5,-96 1040.5,-66 1147.5,-66 1147.5,-96"/>
<text text-anchor="start" x="1048.5" y="-84" font-family="Helvetica,sans-Serif" font-size="10.00">deal.II/matrix_free</text>
<text text-anchor="middle" x="1094" y="-73" font-family="Helvetica,sans-Serif" font-size="10.00">/matrix_free.h</text>
</a>
</g>
</g>
<!-- Node10&#45;&gt;Node22 -->
<g id="edge24_Node000010_Node000022" class="edge">
<title>Node10&#45;&gt;Node22</title>
<g id="a_edge24_Node000010_Node000022"><a xlink:title=" ">
<path fill="none" stroke="#63b8ff" d="M1167.51,-197.84C1182.08,-189.65 1197.81,-177.79 1206,-162 1212.14,-150.16 1213.26,-143.19 1206,-132 1194.8,-114.73 1176.09,-103.37 1157.13,-95.93"/>
<polygon fill="#63b8ff" stroke="#63b8ff" points="1158.13,-92.57 1147.54,-92.48 1155.77,-99.16 1158.13,-92.57"/>
</a>
</g>
</g>
<!-- Node23 -->
<g id="Node000023" class="node">
<title>Node23</title>
<g id="a_Node000023"><a xlink:href="util_8hpp.html" target="_top" xlink:title=" ">
<polygon fill="white" stroke="#666666" points="1388,-156.5 1258,-156.5 1258,-137.5 1388,-137.5 1388,-156.5"/>
<text text-anchor="middle" x="1323" y="-144.5" font-family="Helvetica,sans-Serif" font-size="10.00">meltpooldg/cut/util.hpp</text>
</a>
</g>
</g>
<!-- Node10&#45;&gt;Node23 -->
<g id="edge25_Node000010_Node000023" class="edge">
<title>Node10&#45;&gt;Node23</title>
<g id="a_edge25_Node000010_Node000023"><a xlink:title=" ">
<path fill="none" stroke="#63b8ff" d="M1176.26,-197.95C1209.81,-186.53 1256.61,-170.6 1288.27,-159.82"/>
<polygon fill="#63b8ff" stroke="#63b8ff" points="1289.64,-163.05 1297.98,-156.52 1287.39,-156.43 1289.64,-163.05"/>
</a>
</g>
</g>
<!-- Node38 -->
<g id="Node000038" class="node">
<title>Node38</title>
<g id="a_Node000038"><a xlink:title=" ">
<polygon fill="#e0e0e0" stroke="#999999" points="2250,-90.5 2192,-90.5 2192,-71.5 2250,-71.5 2250,-90.5"/>
<text text-anchor="middle" x="2221" y="-78.5" font-family="Helvetica,sans-Serif" font-size="10.00">memory</text>
</a>
</g>
</g>
<!-- Node10&#45;&gt;Node38 -->
<g id="edge52_Node000010_Node000038" class="edge">
<title>Node10&#45;&gt;Node38</title>
<g id="a_edge52_Node000010_Node000038"><a xlink:title=" ">
<path fill="none" stroke="#63b8ff" d="M1202.3,-199.51C1278.42,-185.33 1392.47,-163.91 1397,-162 1418.47,-152.95 1417.95,-139.52 1440,-132 1596.45,-78.62 2021.01,-128.95 2183,-96 2185.84,-95.42 2188.75,-94.67 2191.64,-93.81"/>
<polygon fill="#63b8ff" stroke="#63b8ff" points="2192.86,-97.09 2201.22,-90.58 2190.62,-90.46 2192.86,-97.09"/>
</a>
</g>
</g>
<!-- Node40 -->
<g id="Node000040" class="node">
<title>Node40</title>
<g id="a_Node000040"><a xlink:title=" ">
<polygon fill="#e0e0e0" stroke="#999999" points="2315.5,-90.5 2268.5,-90.5 2268.5,-71.5 2315.5,-71.5 2315.5,-90.5"/>
<text text-anchor="middle" x="2292" y="-78.5" font-family="Helvetica,sans-Serif" font-size="10.00">vector</text>
</a>
</g>
</g>
<!-- Node10&#45;&gt;Node40 -->
<g id="edge53_Node000010_Node000040" class="edge">
<title>Node10&#45;&gt;Node40</title>
<g id="a_edge53_Node000010_Node000040"><a xlink:title=" ">
<path fill="none" stroke="#63b8ff" d="M1202.12,-199.55C1205.12,-199.02 1208.09,-198.5 1211,-198 1309.49,-180.94 1340.79,-200.58 1433,-162 1453.83,-153.29 1452.7,-139.5 1474,-132 1638.7,-73.97 2088.72,-134.71 2259,-96 2261.17,-95.51 2263.38,-94.88 2265.57,-94.16"/>
<polygon fill="#63b8ff" stroke="#63b8ff" points="2266.81,-97.43 2274.92,-90.61 2264.33,-90.89 2266.81,-97.43"/>
</a>
</g>
</g>
<!-- Node41 -->
<g id="Node000041" class="node">
<title>Node41</title>
<g id="a_Node000041"><a xlink:href="conditional__ostream_8hpp.html" target="_top" xlink:title=" ">
<polygon fill="white" stroke="#666666" points="1968,-162 1828,-162 1828,-132 1968,-132 1968,-162"/>
<text text-anchor="start" x="1836" y="-150" font-family="Helvetica,sans-Serif" font-size="10.00">meltpooldg/utilities</text>
<text text-anchor="middle" x="1898" y="-139" font-family="Helvetica,sans-Serif" font-size="10.00">/conditional_ostream.hpp</text>
</a>
</g>
</g>
<!-- Node10&#45;&gt;Node41 -->
<g id="edge48_Node000010_Node000041" class="edge">
<title>Node10&#45;&gt;Node41</title>
<g id="a_edge48_Node000010_Node000041"><a xlink:title=" ">
<path fill="none" stroke="#63b8ff" d="M1202.07,-199.18C1205.08,-198.75 1208.07,-198.36 1211,-198 1476.45,-165.82 1548.41,-192.99 1817.77,-162.04"/>
<polygon fill="#63b8ff" stroke="#63b8ff" points="1818.32,-165.5 1827.85,-160.87 1817.51,-158.55 1818.32,-165.5"/>
</a>
</g>
</g>
<!-- Node43 -->
<g id="Node000043" class="node">
<title>Node43</title>
<g id="a_Node000043"><a xlink:title=" ">
<polygon fill="#e0e0e0" stroke="#999999" points="2051.5,-156.5 1986.5,-156.5 1986.5,-137.5 2051.5,-137.5 2051.5,-156.5"/>
<text text-anchor="middle" x="2019" y="-144.5" font-family="Helvetica,sans-Serif" font-size="10.00">functional</text>
</a>
</g>
</g>
<!-- Node10&#45;&gt;Node43 -->
<g id="edge50_Node000010_Node000043" class="edge">
<title>Node10&#45;&gt;Node43</title>
<g id="a_edge50_Node000010_Node000043"><a xlink:title=" ">
<path fill="none" stroke="#63b8ff" d="M1202.06,-199.14C1205.08,-198.72 1208.07,-198.34 1211,-198 1549.59,-159.04 1641.96,-224.48 1977,-162 1980.43,-161.36 1983.96,-160.51 1987.45,-159.54"/>
<polygon fill="#63b8ff" stroke="#63b8ff" points="1988.54,-162.86 1997.07,-156.57 1986.48,-156.18 1988.54,-162.86"/>
</a>
</g>
</g>
<!-- Node44 -->
<g id="Node000044" class="node">
<title>Node44</title>
<g id="a_Node000044"><a xlink:title=" ">
<polygon fill="#e0e0e0" stroke="#999999" points="2108,-156.5 2070,-156.5 2070,-137.5 2108,-137.5 2108,-156.5"/>
<text text-anchor="middle" x="2089" y="-144.5" font-family="Helvetica,sans-Serif" font-size="10.00">map</text>
</a>
</g>
</g>
<!-- Node10&#45;&gt;Node44 -->
<g id="edge51_Node000010_Node000044" class="edge">
<title>Node10&#45;&gt;Node44</title>
<g id="a_edge51_Node000010_Node000044"><a xlink:title=" ">
<path fill="none" stroke="#63b8ff" d="M1202.06,-199.12C1205.08,-198.71 1208.07,-198.33 1211,-198 1398.87,-176.82 1877.96,-209.32 2061,-162 2062.45,-161.63 2063.91,-161.17 2065.36,-160.66"/>
<polygon fill="#63b8ff" stroke="#63b8ff" points="2066.86,-163.82 2074.63,-156.63 2064.07,-157.4 2066.86,-163.82"/>
</a>
</g>
</g>
<!-- Node23&#45;&gt;Node16 -->
<g id="edge27_Node000023_Node000016" class="edge">
<title>Node23&#45;&gt;Node16</title>
<g id="a_edge27_Node000023_Node000016"><a xlink:title=" ">
<path fill="none" stroke="#63b8ff" d="M1283.23,-137.48C1256.07,-130.09 1220.53,-117.17 1195,-96 1174.76,-79.22 1160.25,-52.04 1152.23,-34.09"/>
<polygon fill="#63b8ff" stroke="#63b8ff" points="1155.4,-32.58 1148.27,-24.74 1148.95,-35.31 1155.4,-32.58"/>
</a>
</g>
</g>
<!-- Node23&#45;&gt;Node17 -->
<g id="edge28_Node000023_Node000017" class="edge">
<title>Node23&#45;&gt;Node17</title>
<g id="a_edge28_Node000023_Node000017"><a xlink:title=" ">
<path fill="none" stroke="#63b8ff" d="M1257.65,-139.05C1177.13,-130.25 1036.21,-114.02 916,-96 908.53,-94.88 900.68,-93.61 892.94,-92.29"/>
<polygon fill="#63b8ff" stroke="#63b8ff" points="893.33,-88.81 882.88,-90.56 892.14,-95.71 893.33,-88.81"/>
</a>
</g>
</g>
<!-- Node23&#45;&gt;Node20 -->
<g id="edge29_Node000023_Node000020" class="edge">
<title>Node23&#45;&gt;Node20</title>
<g id="a_edge29_Node000023_Node000020"><a xlink:title=" ">
<path fill="none" stroke="#63b8ff" d="M1265.98,-137.47C1206.95,-128.35 1112.19,-112.9 1031,-96 1026.5,-95.06 1021.82,-94.02 1017.16,-92.94"/>
<polygon fill="#63b8ff" stroke="#63b8ff" points="1017.6,-89.45 1007.06,-90.54 1015.98,-96.26 1017.6,-89.45"/>
</a>
</g>
</g>
<!-- Node23&#45;&gt;Node22 -->
<g id="edge32_Node000023_Node000022" class="edge">
<title>Node23&#45;&gt;Node22</title>
<g id="a_edge32_Node000023_Node000022"><a xlink:title=" ">
<path fill="none" stroke="#63b8ff" d="M1292.12,-137.37C1256.93,-127.54 1198.58,-111.23 1154.3,-98.85"/>
<polygon fill="#63b8ff" stroke="#63b8ff" points="1155.08,-95.44 1144.51,-96.12 1153.2,-102.18 1155.08,-95.44"/>
</a>
</g>
</g>
<!-- Node24 -->
<g id="Node000024" class="node">
<title>Node24</title>
<g id="a_Node000024"><a xlink:title=" ">
<polygon fill="#e0e0e0" stroke="#999999" points="1435.5,-96 1334.5,-96 1334.5,-66 1435.5,-66 1435.5,-96"/>
<text text-anchor="start" x="1342.5" y="-84" font-family="Helvetica,sans-Serif" font-size="10.00">deal.II/base/array</text>
<text text-anchor="middle" x="1385" y="-73" font-family="Helvetica,sans-Serif" font-size="10.00">_view.h</text>
</a>
</g>
</g>
<!-- Node23&#45;&gt;Node24 -->
<g id="edge26_Node000023_Node000024" class="edge">
<title>Node23&#45;&gt;Node24</title>
<g id="a_edge26_Node000023_Node000024"><a xlink:title=" ">
<path fill="none" stroke="#63b8ff" d="M1331.36,-137.37C1339.71,-128.75 1352.88,-115.15 1364.08,-103.59"/>
<polygon fill="#63b8ff" stroke="#63b8ff" points="1366.64,-105.98 1371.09,-96.36 1361.62,-101.11 1366.64,-105.98"/>
</a>
</g>
</g>
<!-- Node25 -->
<g id="Node000025" class="node">
<title>Node25</title>
<g id="a_Node000025"><a xlink:title=" ">
<polygon fill="#e0e0e0" stroke="#999999" points="1562.5,-96 1453.5,-96 1453.5,-66 1562.5,-66 1562.5,-96"/>
<text text-anchor="start" x="1461.5" y="-84" font-family="Helvetica,sans-Serif" font-size="10.00">deal.II/matrix_free</text>
<text text-anchor="middle" x="1508" y="-73" font-family="Helvetica,sans-Serif" font-size="10.00">/evaluation_flags.h</text>
</a>
</g>
</g>
<!-- Node23&#45;&gt;Node25 -->
<g id="edge30_Node000023_Node000025" class="edge">
<title>Node23&#45;&gt;Node25</title>
<g id="a_edge30_Node000023_Node000025"><a xlink:title=" ">
<path fill="none" stroke="#63b8ff" d="M1347.95,-137.37C1375.9,-127.7 1421.93,-111.77 1457.47,-99.48"/>
<polygon fill="#63b8ff" stroke="#63b8ff" points="1458.89,-102.69 1467.2,-96.12 1456.6,-96.08 1458.89,-102.69"/>
</a>
</g>
</g>
<!-- Node26 -->
<g id="Node000026" class="node">
<title>Node26</title>
<g id="a_Node000026"><a xlink:title=" ">
<polygon fill="#e0e0e0" stroke="#999999" points="1705.5,-96 1580.5,-96 1580.5,-66 1705.5,-66 1705.5,-96"/>
<text text-anchor="start" x="1588.5" y="-84" font-family="Helvetica,sans-Serif" font-size="10.00">deal.II/matrix_free</text>
<text text-anchor="middle" x="1643" y="-73" font-family="Helvetica,sans-Serif" font-size="10.00">/fe_point_evaluation.h</text>
</a>
</g>
</g>
<!-- Node23&#45;&gt;Node26 -->
<g id="edge31_Node000023_Node000026" class="edge">
<title>Node23&#45;&gt;Node26</title>
<g id="a_edge31_Node000023_Node000026"><a xlink:title=" ">
<path fill="none" stroke="#63b8ff" d="M1365.82,-137.44C1418.12,-126.98 1507.39,-109.12 1570.47,-96.51"/>
<polygon fill="#63b8ff" stroke="#63b8ff" points="1571.24,-99.92 1580.36,-94.53 1569.87,-93.06 1571.24,-99.92"/>
</a>
</g>
</g>
<!-- Node27 -->
<g id="Node000027" class="node">
<title>Node27</title>
<g id="a_Node000027"><a xlink:title=" ">
<polygon fill="#e0e0e0" stroke="#999999" points="1842.5,-96 1723.5,-96 1723.5,-66 1842.5,-66 1842.5,-96"/>
<text text-anchor="start" x="1731.5" y="-84" font-family="Helvetica,sans-Serif" font-size="10.00">deal.II/non_matching</text>
<text text-anchor="middle" x="1783" y="-73" font-family="Helvetica,sans-Serif" font-size="10.00">/mapping_info.h</text>
</a>
</g>
</g>
<!-- Node23&#45;&gt;Node27 -->
<g id="edge33_Node000023_Node000027" class="edge">
<title>Node23&#45;&gt;Node27</title>
<g id="a_edge33_Node000023_Node000027"><a xlink:title=" ">
<path fill="none" stroke="#63b8ff" d="M1368.46,-137.46C1379.42,-135.53 1391.11,-133.59 1402,-132 1537.31,-112.25 1574.98,-117.86 1713.22,-96.2"/>
<polygon fill="#63b8ff" stroke="#63b8ff" points="1714.02,-99.62 1723.35,-94.59 1712.93,-92.7 1714.02,-99.62"/>
</a>
</g>
</g>
<!-- Node28 -->
<g id="Node000028" class="node">
<title>Node28</title>
<g id="a_Node000028"><a xlink:title=" ">
<polygon fill="#e0e0e0" stroke="#999999" points="1979.5,-96 1860.5,-96 1860.5,-66 1979.5,-66 1979.5,-96"/>
<text text-anchor="start" x="1868.5" y="-84" font-family="Helvetica,sans-Serif" font-size="10.00">deal.II/non_matching</text>
<text text-anchor="middle" x="1920" y="-73" font-family="Helvetica,sans-Serif" font-size="10.00">/mesh_classifier.h</text>
</a>
</g>
</g>
<!-- Node23&#45;&gt;Node28 -->
<g id="edge34_Node000023_Node000028" class="edge">
<title>Node23&#45;&gt;Node28</title>
<g id="a_edge34_Node000023_Node000028"><a xlink:title=" ">
<path fill="none" stroke="#63b8ff" d="M1366.76,-137.48C1378.2,-135.46 1390.53,-133.47 1402,-132 1597.7,-106.89 1651.59,-123.7 1850.19,-96.14"/>
<polygon fill="#63b8ff" stroke="#63b8ff" points="1850.95,-99.57 1860.37,-94.71 1849.98,-92.64 1850.95,-99.57"/>
</a>
</g>
</g>
<!-- Node29 -->
<g id="Node000029" class="node">
<title>Node29</title>
<g id="a_Node000029"><a xlink:href="enum_8hpp.html" target="_top" xlink:title=" ">
<polygon fill="white" stroke="#666666" points="2110,-96 1998,-96 1998,-66 2110,-66 2110,-96"/>
<text text-anchor="start" x="2006" y="-84" font-family="Helvetica,sans-Serif" font-size="10.00">meltpooldg/utilities</text>
<text text-anchor="middle" x="2054" y="-73" font-family="Helvetica,sans-Serif" font-size="10.00">/enum.hpp</text>
</a>
</g>
</g>
<!-- Node23&#45;&gt;Node29 -->
<g id="edge35_Node000023_Node000029" class="edge">
<title>Node23&#45;&gt;Node29</title>
<g id="a_edge35_Node000023_Node000029"><a xlink:title=" ">
<path fill="none" stroke="#63b8ff" d="M1365.92,-137.48C1377.58,-135.41 1390.24,-133.4 1402,-132 1658.26,-101.54 1728.29,-130.85 1987.62,-96.04"/>
<polygon fill="#63b8ff" stroke="#63b8ff" points="1988.29,-99.48 1997.72,-94.66 1987.34,-92.55 1988.29,-99.48"/>
</a>
</g>
</g>
<!-- Node36 -->
<g id="Node000036" class="node">
<title>Node36</title>
<g id="a_Node000036"><a xlink:href="fe__integrator_8hpp.html" target="_top" xlink:title=" ">
<polygon fill="white" stroke="#666666" points="1316,-96 1204,-96 1204,-66 1316,-66 1316,-96"/>
<text text-anchor="start" x="1212" y="-84" font-family="Helvetica,sans-Serif" font-size="10.00">meltpooldg/utilities</text>
<text text-anchor="middle" x="1260" y="-73" font-family="Helvetica,sans-Serif" font-size="10.00">/fe_integrator.hpp</text>
</a>
</g>
</g>
<!-- Node23&#45;&gt;Node36 -->
<g id="edge42_Node000023_Node000036" class="edge">
<title>Node23&#45;&gt;Node36</title>
<g id="a_edge42_Node000023_Node000036"><a xlink:title=" ">
<path fill="none" stroke="#63b8ff" d="M1314.5,-137.37C1306.02,-128.75 1292.63,-115.15 1281.25,-103.59"/>
<polygon fill="#63b8ff" stroke="#63b8ff" points="1283.65,-101.03 1274.14,-96.36 1278.66,-105.94 1283.65,-101.03"/>
</a>
</g>
</g>
<!-- Node23&#45;&gt;Node38 -->
<g id="edge45_Node000023_Node000038" class="edge">
<title>Node23&#45;&gt;Node38</title>
<g id="a_edge45_Node000023_Node000038"><a xlink:title=" ">
<path fill="none" stroke="#63b8ff" d="M1365.49,-137.43C1377.27,-135.34 1390.09,-133.32 1402,-132 1747.35,-93.6 1842.41,-164.87 2183,-96 2185.84,-95.43 2188.76,-94.67 2191.64,-93.81"/>
<polygon fill="#63b8ff" stroke="#63b8ff" points="2192.86,-97.1 2201.22,-90.59 2190.62,-90.46 2192.86,-97.1"/>
</a>
</g>
</g>
<!-- Node39 -->
<g id="Node000039" class="node">
<title>Node39</title>
<g id="a_Node000039"><a xlink:title=" ">
<polygon fill="#e0e0e0" stroke="#999999" points="2173.5,-90.5 2128.5,-90.5 2128.5,-71.5 2173.5,-71.5 2173.5,-90.5"/>
<text text-anchor="middle" x="2151" y="-78.5" font-family="Helvetica,sans-Serif" font-size="10.00">utility</text>
</a>
</g>
</g>
<!-- Node23&#45;&gt;Node39 -->
<g id="edge46_Node000023_Node000039" class="edge">
<title>Node23&#45;&gt;Node39</title>
<g id="a_edge46_Node000023_Node000039"><a xlink:title=" ">
<path fill="none" stroke="#63b8ff" d="M1365.5,-137.46C1377.28,-135.37 1390.1,-133.35 1402,-132 1719.04,-96.09 1808.43,-169.14 2119,-96 2120.95,-95.54 2122.93,-94.97 2124.89,-94.32"/>
<polygon fill="#63b8ff" stroke="#63b8ff" points="2126.41,-97.48 2134.46,-90.59 2123.87,-90.96 2126.41,-97.48"/>
</a>
</g>
</g>
<!-- Node23&#45;&gt;Node40 -->
<g id="edge47_Node000023_Node000040" class="edge">
<title>Node23&#45;&gt;Node40</title>
<g id="a_edge47_Node000023_Node000040"><a xlink:title=" ">
<path fill="none" stroke="#63b8ff" d="M1386.98,-137.46C1404.17,-135.41 1422.77,-133.41 1440,-132 1621.57,-117.17 2081.32,-136.21 2259,-96 2261.17,-95.51 2263.38,-94.88 2265.57,-94.17"/>
<polygon fill="#63b8ff" stroke="#63b8ff" points="2266.81,-97.44 2274.92,-90.61 2264.33,-90.89 2266.81,-97.44"/>
</a>
</g>
</g>
<!-- Node30 -->
<g id="Node000030" class="node">
<title>Node30</title>
<g id="a_Node000030"><a xlink:title=" ">
<polygon fill="#e0e0e0" stroke="#999999" points="1767.5,-30 1640.5,-30 1640.5,0 1767.5,0 1767.5,-30"/>
<text text-anchor="start" x="1648.5" y="-18" font-family="Helvetica,sans-Serif" font-size="10.00">deal.II/base/parameter</text>
<text text-anchor="middle" x="1704" y="-7" font-family="Helvetica,sans-Serif" font-size="10.00">_handler.h</text>
</a>
</g>
</g>
<!-- Node29&#45;&gt;Node30 -->
<g id="edge36_Node000029_Node000030" class="edge">
<title>Node29&#45;&gt;Node30</title>
<g id="a_edge36_Node000029_Node000030"><a xlink:title=" ">
<path fill="none" stroke="#63b8ff" d="M1997.66,-67.71C1994.73,-67.12 1991.83,-66.55 1989,-66 1898.27,-48.53 1872.72,-47.08 1777.73,-30.1"/>
<polygon fill="#63b8ff" stroke="#63b8ff" points="1778.15,-26.62 1767.69,-28.3 1776.91,-33.51 1778.15,-26.62"/>
</a>
</g>
</g>
<!-- Node31 -->
<g id="Node000031" class="node">
<title>Node31</title>
<g id="a_Node000031"><a xlink:title=" ">
<polygon fill="#e0e0e0" stroke="#999999" points="1910.5,-24.5 1785.5,-24.5 1785.5,-5.5 1910.5,-5.5 1910.5,-24.5"/>
<text text-anchor="middle" x="1848" y="-12.5" font-family="Helvetica,sans-Serif" font-size="10.00">deal.II/base/patterns.h</text>
</a>
</g>
</g>
<!-- Node29&#45;&gt;Node31 -->
<g id="edge37_Node000029_Node000031" class="edge">
<title>Node29&#45;&gt;Node31</title>
<g id="a_edge37_Node000029_Node000031"><a xlink:title=" ">
<path fill="none" stroke="#63b8ff" d="M2008.79,-65.95C1971.71,-54.43 1919.85,-38.32 1885.16,-27.54"/>
<polygon fill="#63b8ff" stroke="#63b8ff" points="1886,-24.14 1875.42,-24.52 1883.93,-30.83 1886,-24.14"/>
</a>
</g>
</g>
<!-- Node32 -->
<g id="Node000032" class="node">
<title>Node32</title>
<g id="a_Node000032"><a xlink:title=" ">
<polygon fill="#e0e0e0" stroke="#999999" points="2041,-30 1929,-30 1929,0 2041,0 2041,-30"/>
<text text-anchor="start" x="1937" y="-18" font-family="Helvetica,sans-Serif" font-size="10.00">meltpooldg/utilities</text>
<text text-anchor="middle" x="1985" y="-7" font-family="Helvetica,sans-Serif" font-size="10.00">/better_enum.hpp</text>
</a>
</g>
</g>
<!-- Node29&#45;&gt;Node32 -->
<g id="edge38_Node000029_Node000032" class="edge">
<title>Node29&#45;&gt;Node32</title>
<g id="a_edge38_Node000029_Node000032"><a xlink:title=" ">
<path fill="none" stroke="#63b8ff" d="M2038.69,-65.8C2029.57,-57.34 2017.84,-46.46 2007.67,-37.03"/>
<polygon fill="#63b8ff" stroke="#63b8ff" points="2009.98,-34.4 2000.27,-30.16 2005.22,-39.53 2009.98,-34.4"/>
</a>
</g>
</g>
<!-- Node33 -->
<g id="Node000033" class="node">
<title>Node33</title>
<g id="a_Node000033"><a xlink:title=" ">
<polygon fill="#e0e0e0" stroke="#999999" points="2184.5,-30 2059.5,-30 2059.5,0 2184.5,0 2184.5,-30"/>
<text text-anchor="start" x="2067.5" y="-18" font-family="Helvetica,sans-Serif" font-size="10.00">boost/algorithm/string</text>
<text text-anchor="middle" x="2122" y="-7" font-family="Helvetica,sans-Serif" font-size="10.00">/join.hpp</text>
</a>
</g>
</g>
<!-- Node29&#45;&gt;Node33 -->
<g id="edge39_Node000029_Node000033" class="edge">
<title>Node29&#45;&gt;Node33</title>
<g id="a_edge39_Node000029_Node000033"><a xlink:title=" ">
<path fill="none" stroke="#63b8ff" d="M2069.09,-65.8C2078.07,-57.34 2089.63,-46.46 2099.65,-37.03"/>
<polygon fill="#63b8ff" stroke="#63b8ff" points="2102.07,-39.57 2106.95,-30.16 2097.27,-34.47 2102.07,-39.57"/>
</a>
</g>
</g>
<!-- Node34 -->
<g id="Node000034" class="node">
<title>Node34</title>
<g id="a_Node000034"><a xlink:title=" ">
<polygon fill="#e0e0e0" stroke="#999999" points="2259,-24.5 2203,-24.5 2203,-5.5 2259,-5.5 2259,-24.5"/>
<text text-anchor="middle" x="2231" y="-12.5" font-family="Helvetica,sans-Serif" font-size="10.00">sstream</text>
</a>
</g>
</g>
<!-- Node29&#45;&gt;Node34 -->
<g id="edge40_Node000029_Node000034" class="edge">
<title>Node29&#45;&gt;Node34</title>
<g id="a_edge40_Node000029_Node000034"><a xlink:title=" ">
<path fill="none" stroke="#63b8ff" d="M2093.9,-65.97C2121.95,-56.06 2160.33,-42.38 2194,-30 2195.64,-29.4 2197.32,-28.78 2199.01,-28.15"/>
<polygon fill="#63b8ff" stroke="#63b8ff" points="2200.58,-31.29 2208.72,-24.51 2198.13,-24.74 2200.58,-31.29"/>
</a>
</g>
</g>
<!-- Node35 -->
<g id="Node000035" class="node">
<title>Node35</title>
<g id="a_Node000035"><a xlink:title=" ">
<polygon fill="#e0e0e0" stroke="#999999" points="2321,-24.5 2277,-24.5 2277,-5.5 2321,-5.5 2321,-24.5"/>
<text text-anchor="middle" x="2299" y="-12.5" font-family="Helvetica,sans-Serif" font-size="10.00">string</text>
</a>
</g>
</g>
<!-- Node29&#45;&gt;Node35 -->
<g id="edge41_Node000029_Node000035" class="edge">
<title>Node29&#45;&gt;Node35</title>
<g id="a_edge41_Node000029_Node000035"><a xlink:title=" ">
<path fill="none" stroke="#63b8ff" d="M2110.25,-67.45C2168.5,-54.36 2253.09,-35.05 2268,-30 2269.4,-29.53 2270.82,-29.01 2272.24,-28.47"/>
<polygon fill="#63b8ff" stroke="#63b8ff" points="2273.65,-31.68 2281.53,-24.6 2270.96,-25.21 2273.65,-31.68"/>
</a>
</g>
</g>
<!-- Node36&#45;&gt;Node16 -->
<g id="edge43_Node000036_Node000016" class="edge">
<title>Node36&#45;&gt;Node16</title>
<g id="a_edge43_Node000036_Node000016"><a xlink:title=" ">
<path fill="none" stroke="#63b8ff" d="M1234.76,-65.95C1215.22,-55.08 1188.32,-40.11 1169.07,-29.4"/>
<polygon fill="#63b8ff" stroke="#63b8ff" points="1170.74,-26.32 1160.3,-24.52 1167.34,-32.44 1170.74,-26.32"/>
</a>
</g>
</g>
<!-- Node37 -->
<g id="Node000037" class="node">
<title>Node37</title>
<g id="a_Node000037"><a xlink:title=" ">
<polygon fill="#e0e0e0" stroke="#999999" points="1344.5,-30 1237.5,-30 1237.5,0 1344.5,0 1344.5,-30"/>
<text text-anchor="start" x="1245.5" y="-18" font-family="Helvetica,sans-Serif" font-size="10.00">deal.II/matrix_free</text>
<text text-anchor="middle" x="1291" y="-7" font-family="Helvetica,sans-Serif" font-size="10.00">/fe_evaluation.h</text>
</a>
</g>
</g>
<!-- Node36&#45;&gt;Node37 -->
<g id="edge44_Node000036_Node000037" class="edge">
<title>Node36&#45;&gt;Node37</title>
<g id="a_edge44_Node000036_Node000037"><a xlink:title=" ">
<path fill="none" stroke="#63b8ff" d="M1266.88,-65.8C1270.65,-58.01 1275.42,-48.16 1279.73,-39.28"/>
<polygon fill="#63b8ff" stroke="#63b8ff" points="1282.93,-40.69 1284.14,-30.16 1276.63,-37.64 1282.93,-40.69"/>
</a>
</g>
</g>
<!-- Node42 -->
<g id="Node000042" class="node">
<title>Node42</title>
<g id="a_Node000042"><a xlink:title=" ">
<polygon fill="#e0e0e0" stroke="#999999" points="2464,-96 2334,-96 2334,-66 2464,-66 2464,-96"/>
<text text-anchor="start" x="2342" y="-84" font-family="Helvetica,sans-Serif" font-size="10.00">deal.II/base/conditional</text>
<text text-anchor="middle" x="2399" y="-73" font-family="Helvetica,sans-Serif" font-size="10.00">_ostream.h</text>
</a>
</g>
</g>
<!-- Node41&#45;&gt;Node42 -->
<g id="edge49_Node000041_Node000042" class="edge">
<title>Node41&#45;&gt;Node42</title>
<g id="a_edge49_Node000041_Node000042"><a xlink:title=" ">
<path fill="none" stroke="#63b8ff" d="M1968.2,-133.43C1971.51,-132.93 1974.79,-132.45 1978,-132 2128.27,-111.08 2169.81,-118.11 2323.4,-96.15"/>
<polygon fill="#63b8ff" stroke="#63b8ff" points="2324.28,-99.56 2333.68,-94.66 2323.28,-92.63 2324.28,-99.56"/>
</a>
</g>
</g>
</g>
</svg>

<g id="navigator" transform="translate(0 0)" fill="#404254">
  <rect fill="#f2f5e9" fill-opacity="0.5" stroke="#606060" stroke-width=".5" x="0" y="0" width="60" height="60"/>
  <use id="zoomplus" xlink:href="#zoomPlus" x="17" y="9" onmousedown="handleZoom(evt,'in')"/>
  <use id="zoomminus" xlink:href="#zoomMin" x="42" y="9" onmousedown="handleZoom(evt,'out')"/>
  <use id="reset" xlink:href="#resetDef" x="30" y="36" onmousedown="handleReset()"/>
   <use id="arrowup" xlink:href="#arrowUp" x="0" y="0" onmousedown="handlePan(0,-1)"/>
  <use id="arrowright" xlink:href="#arrowRight" x="0" y="0" onmousedown="handlePan(1,0)"/>
  <use id="arrowdown" xlink:href="#arrowDown" x="0" y="0" onmousedown="handlePan(0,1)"/>
  <use id="arrowleft" xlink:href="#arrowLeft" x="0" y="0" onmousedown="handlePan(-1,0)"/>
</g>
<svg viewBox="0 0 15 15" width="100%" height="30px" preserveAspectRatio="xMaxYMin meet">
 <g id="arrow_out" transform="scale(0.3 0.3)">
  <a xlink:href="operator__base_8hpp__incl_org.svg" target="_base">
   <rect id="button" ry="5" rx="5" y="6" x="6" height="38" width="38"
        fill="#f2f5e9" fill-opacity="0.5" stroke="#606060" stroke-width="1.0"/>
   <path id="arrow"
     d="M 11.500037,31.436501 C 11.940474,20.09759 22.043105,11.32322 32.158766,21.979434 L 37.068811,17.246167 C 37.068811,17.246167 37.088388,32 37.088388,32 L 22.160133,31.978069 C 22.160133,31.978069 26.997745,27.140456 26.997745,27.140456 C 18.528582,18.264221 13.291696,25.230495 11.500037,31.436501 z"
     style="fill:#404040;"/>
  </a>
 </g>
</svg>

<style type='text/css'>
<![CDATA[
[data-mouse-over-selected='false'] { opacity: 0.7; }
[data-mouse-over-selected='true']  { opacity: 1.0; }
]]>
</style>
<script type="application/ecmascript"><![CDATA[
document.addEventListener('DOMContentLoaded', (event) => {
  highlightEdges();
  highlightAdjacentNodes();
});
]]></script>
</svg>
