<?xml version="1.0" encoding="UTF-8" standalone="no"?>
<!DOCTYPE svg PUBLIC "-//W3C//DTD SVG 1.1//EN"
 "http://www.w3.org/Graphics/SVG/1.1/DTD/svg11.dtd">
<!-- Generated by graphviz version 2.43.0 (0)
 -->
<!-- Title: include/meltpooldg/compressible_flow/operation_scratch_data.hpp Pages: 1 -->
<svg width="1432pt" height="423pt"
 viewBox="0.00 0.00 1431.53 423.00" xmlns="http://www.w3.org/2000/svg" xmlns:xlink="http://www.w3.org/1999/xlink">
<g id="graph0" class="graph" transform="scale(1 1) rotate(0) translate(4 419)">
<title>include/meltpooldg/compressible_flow/operation_scratch_data.hpp</title>
<!-- Node1 -->
<g id="Node000001" class="node">
<title>Node1</title>
<g id="a_Node000001"><a xlink:title=" ">
<polygon fill="#999999" stroke="#666666" points="950.5,-415 790.5,-415 790.5,-374 950.5,-374 950.5,-415"/>
<text text-anchor="start" x="798.5" y="-403" font-family="Helvetica,sans-Serif" font-size="10.00">include/meltpooldg</text>
<text text-anchor="start" x="798.5" y="-392" font-family="Helvetica,sans-Serif" font-size="10.00">/compressible_flow/operation</text>
<text text-anchor="middle" x="870.5" y="-381" font-family="Helvetica,sans-Serif" font-size="10.00">_scratch_data.hpp</text>
</a>
</g>
</g>
<!-- Node2 -->
<g id="Node000002" class="node">
<title>Node2</title>
<g id="a_Node000002"><a xlink:href="convective__kernels_8hpp.html" target="_top" xlink:title=" ">
<polygon fill="white" stroke="#666666" points="707,-338 540,-338 540,-297 707,-297 707,-338"/>
<text text-anchor="start" x="548" y="-326" font-family="Helvetica,sans-Serif" font-size="10.00">include/meltpooldg</text>
<text text-anchor="start" x="548" y="-315" font-family="Helvetica,sans-Serif" font-size="10.00">/compressible_flow/convective</text>
<text text-anchor="middle" x="623.5" y="-304" font-family="Helvetica,sans-Serif" font-size="10.00">_kernels.hpp</text>
</a>
</g>
</g>
<!-- Node1&#45;&gt;Node2 -->
<g id="edge1_Node000001_Node000002" class="edge">
<title>Node1&#45;&gt;Node2</title>
<g id="a_edge1_Node000001_Node000002"><a xlink:title=" ">
<path fill="none" stroke="#63b8ff" d="M796.66,-371.08C762.05,-360.57 721.19,-348.16 687.86,-338.04"/>
<polygon fill="#63b8ff" stroke="#63b8ff" points="795.66,-374.43 806.25,-373.99 797.7,-367.74 795.66,-374.43"/>
</a>
</g>
</g>
<!-- Node3 -->
<g id="Node000003" class="node">
<title>Node3</title>
<g id="a_Node000003"><a xlink:href="dg__operator__explicit_8hpp.html" target="_top" xlink:title=" ">
<polygon fill="white" stroke="#666666" points="307,-261 182,-261 182,-220 307,-220 307,-261"/>
<text text-anchor="start" x="190" y="-249" font-family="Helvetica,sans-Serif" font-size="10.00">include/meltpooldg</text>
<text text-anchor="start" x="190" y="-238" font-family="Helvetica,sans-Serif" font-size="10.00">/compressible_flow/dg</text>
<text text-anchor="middle" x="244.5" y="-227" font-family="Helvetica,sans-Serif" font-size="10.00">_operator_explicit.hpp</text>
</a>
</g>
</g>
<!-- Node1&#45;&gt;Node3 -->
<g id="edge29_Node000001_Node000003" class="edge">
<title>Node1&#45;&gt;Node3</title>
<g id="a_edge29_Node000001_Node000003"><a xlink:title=" ">
<path fill="none" stroke="#63b8ff" d="M779.96,-392.75C644.9,-390.24 398.3,-379.86 321.5,-338 289.7,-320.66 266.33,-284.16 254.11,-261.35"/>
<polygon fill="#63b8ff" stroke="#63b8ff" points="780.23,-396.26 790.29,-392.93 780.35,-389.26 780.23,-396.26"/>
</a>
</g>
</g>
<!-- Node4 -->
<g id="Node000004" class="node">
<title>Node4</title>
<g id="a_Node000004"><a xlink:href="dg__operation_8cpp.html" target="_top" xlink:title=" ">
<polygon fill="white" stroke="#666666" points="206,-178.5 77,-178.5 77,-148.5 206,-148.5 206,-178.5"/>
<text text-anchor="start" x="85" y="-166.5" font-family="Helvetica,sans-Serif" font-size="10.00">source/compressible</text>
<text text-anchor="middle" x="141.5" y="-155.5" font-family="Helvetica,sans-Serif" font-size="10.00">_flow/dg_operation.cpp</text>
</a>
</g>
</g>
<!-- Node1&#45;&gt;Node4 -->
<g id="edge35_Node000001_Node000004" class="edge">
<title>Node1&#45;&gt;Node4</title>
<g id="a_edge35_Node000001_Node000004"><a xlink:title=" ">
<path fill="none" stroke="#63b8ff" d="M780.27,-391.3C636.51,-386.76 362.5,-373.61 272.5,-338 220.67,-317.49 205.66,-306.53 173.5,-261 155.37,-235.34 146.98,-198.71 143.55,-178.77"/>
<polygon fill="#63b8ff" stroke="#63b8ff" points="780.29,-394.8 790.4,-391.61 780.51,-387.8 780.29,-394.8"/>
</a>
</g>
</g>
<!-- Node5 -->
<g id="Node000005" class="node">
<title>Node5</title>
<g id="a_Node000005"><a xlink:href="dg__operator__explicit_8cpp.html" target="_top" xlink:title=" ">
<polygon fill="white" stroke="#666666" points="389,-178.5 224,-178.5 224,-148.5 389,-148.5 389,-178.5"/>
<text text-anchor="start" x="232" y="-166.5" font-family="Helvetica,sans-Serif" font-size="10.00">source/compressible</text>
<text text-anchor="middle" x="306.5" y="-155.5" font-family="Helvetica,sans-Serif" font-size="10.00">_flow/dg_operator_explicit.cpp</text>
</a>
</g>
</g>
<!-- Node1&#45;&gt;Node5 -->
<g id="edge36_Node000001_Node000005" class="edge">
<title>Node1&#45;&gt;Node5</title>
<g id="a_edge36_Node000001_Node000005"><a xlink:title=" ">
<path fill="none" stroke="#63b8ff" d="M779.97,-392.35C697,-388.68 571.99,-376.43 470.5,-338 412.63,-316.09 395.45,-307.39 354.5,-261 332.33,-235.89 317.7,-198.71 310.9,-178.62"/>
<polygon fill="#63b8ff" stroke="#63b8ff" points="779.99,-395.86 790.13,-392.77 780.28,-388.86 779.99,-395.86"/>
</a>
</g>
</g>
<!-- Node6 -->
<g id="Node000006" class="node">
<title>Node6</title>
<g id="a_Node000006"><a xlink:href="dg__operator__implicit_8hpp.html" target="_top" xlink:title=" ">
<polygon fill="white" stroke="#666666" points="489.5,-261 363.5,-261 363.5,-220 489.5,-220 489.5,-261"/>
<text text-anchor="start" x="371.5" y="-249" font-family="Helvetica,sans-Serif" font-size="10.00">include/meltpooldg</text>
<text text-anchor="start" x="371.5" y="-238" font-family="Helvetica,sans-Serif" font-size="10.00">/compressible_flow/dg</text>
<text text-anchor="middle" x="426.5" y="-227" font-family="Helvetica,sans-Serif" font-size="10.00">_operator_implicit.hpp</text>
</a>
</g>
</g>
<!-- Node1&#45;&gt;Node6 -->
<g id="edge30_Node000001_Node000006" class="edge">
<title>Node1&#45;&gt;Node6</title>
<g id="a_edge30_Node000001_Node000006"><a xlink:title=" ">
<path fill="none" stroke="#63b8ff" d="M779.98,-392.67C709.14,-388.8 609.83,-376.11 531.5,-338 493.87,-319.7 460.17,-283.5 441.6,-261.02"/>
<polygon fill="#63b8ff" stroke="#63b8ff" points="780.06,-396.18 790.22,-393.18 780.41,-389.18 780.06,-396.18"/>
</a>
</g>
</g>
<!-- Node7 -->
<g id="Node000007" class="node">
<title>Node7</title>
<g id="a_Node000007"><a xlink:href="dg__operator__implicit_8cpp.html" target="_top" xlink:title=" ">
<polygon fill="white" stroke="#666666" points="573.5,-178.5 407.5,-178.5 407.5,-148.5 573.5,-148.5 573.5,-178.5"/>
<text text-anchor="start" x="415.5" y="-166.5" font-family="Helvetica,sans-Serif" font-size="10.00">source/compressible</text>
<text text-anchor="middle" x="490.5" y="-155.5" font-family="Helvetica,sans-Serif" font-size="10.00">_flow/dg_operator_implicit.cpp</text>
</a>
</g>
</g>
<!-- Node1&#45;&gt;Node7 -->
<g id="edge37_Node000001_Node000007" class="edge">
<title>Node1&#45;&gt;Node7</title>
<g id="a_edge37_Node000001_Node000007"><a xlink:title=" ">
<path fill="none" stroke="#63b8ff" d="M877.12,-363.81C883.82,-325.12 888.55,-257.95 851.5,-220 809.37,-176.85 641.93,-194.26 582.5,-184 573.17,-182.39 563.34,-180.51 553.73,-178.56"/>
<polygon fill="#63b8ff" stroke="#63b8ff" points="873.63,-363.44 875.21,-373.92 880.5,-364.74 873.63,-363.44"/>
</a>
</g>
</g>
<!-- Node8 -->
<g id="Node000008" class="node">
<title>Node8</title>
<g id="a_Node000008"><a xlink:href="dg__operator__implicit__explicit_8hpp.html" target="_top" xlink:title=" ">
<polygon fill="white" stroke="#666666" points="675,-261 508,-261 508,-220 675,-220 675,-261"/>
<text text-anchor="start" x="516" y="-249" font-family="Helvetica,sans-Serif" font-size="10.00">include/meltpooldg</text>
<text text-anchor="start" x="516" y="-238" font-family="Helvetica,sans-Serif" font-size="10.00">/compressible_flow/dg</text>
<text text-anchor="middle" x="591.5" y="-227" font-family="Helvetica,sans-Serif" font-size="10.00">_operator_implicit_explicit.hpp</text>
</a>
</g>
</g>
<!-- Node1&#45;&gt;Node8 -->
<g id="edge31_Node000001_Node000008" class="edge">
<title>Node1&#45;&gt;Node8</title>
<g id="a_edge31_Node000001_Node000008"><a xlink:title=" ">
<path fill="none" stroke="#63b8ff" d="M833.35,-368.13C802.7,-347.72 757.7,-318.91 716.5,-297 691.76,-283.84 663.27,-271.02 639.74,-261.03"/>
<polygon fill="#63b8ff" stroke="#63b8ff" points="831.74,-371.26 841.99,-373.92 835.63,-365.45 831.74,-371.26"/>
</a>
</g>
</g>
<!-- Node9 -->
<g id="Node000009" class="node">
<title>Node9</title>
<g id="a_Node000009"><a xlink:href="dg__operator__implicit__explicit_8cpp.html" target="_top" xlink:title=" ">
<polygon fill="white" stroke="#666666" points="737.5,-184 591.5,-184 591.5,-143 737.5,-143 737.5,-184"/>
<text text-anchor="start" x="599.5" y="-172" font-family="Helvetica,sans-Serif" font-size="10.00">source/compressible</text>
<text text-anchor="start" x="599.5" y="-161" font-family="Helvetica,sans-Serif" font-size="10.00">_flow/dg_operator_implicit</text>
<text text-anchor="middle" x="664.5" y="-150" font-family="Helvetica,sans-Serif" font-size="10.00">_explicit.cpp</text>
</a>
</g>
</g>
<!-- Node1&#45;&gt;Node9 -->
<g id="edge38_Node000001_Node000009" class="edge">
<title>Node1&#45;&gt;Node9</title>
<g id="a_edge38_Node000001_Node000009"><a xlink:title=" ">
<path fill="none" stroke="#63b8ff" d="M883.73,-364.54C898.65,-327.04 916.89,-261.58 884.5,-220 883.31,-218.48 801.1,-198.01 737.53,-182.37"/>
<polygon fill="#63b8ff" stroke="#63b8ff" points="880.45,-363.3 879.85,-373.88 886.92,-365.99 880.45,-363.3"/>
</a>
</g>
</g>
<!-- Node11 -->
<g id="Node000011" class="node">
<title>Node11</title>
<g id="a_Node000011"><a xlink:href="cutdg__operator_8hpp.html" target="_top" xlink:title=" ">
<polygon fill="white" stroke="#666666" points="895.5,-184 755.5,-184 755.5,-143 895.5,-143 895.5,-184"/>
<text text-anchor="start" x="763.5" y="-172" font-family="Helvetica,sans-Serif" font-size="10.00">include/meltpooldg</text>
<text text-anchor="start" x="763.5" y="-161" font-family="Helvetica,sans-Serif" font-size="10.00">/compressible_flow/cutdg</text>
<text text-anchor="middle" x="825.5" y="-150" font-family="Helvetica,sans-Serif" font-size="10.00">_operator.hpp</text>
</a>
</g>
</g>
<!-- Node1&#45;&gt;Node11 -->
<g id="edge26_Node000001_Node000011" class="edge">
<title>Node1&#45;&gt;Node11</title>
<g id="a_edge26_Node000001_Node000011"><a xlink:title=" ">
<path fill="none" stroke="#63b8ff" d="M903.18,-366.7C911,-358.41 918.3,-348.62 922.5,-338 941.78,-289.23 948.81,-265.37 922.5,-220 913.35,-204.22 897.84,-192.55 881.88,-184.09"/>
<polygon fill="#63b8ff" stroke="#63b8ff" points="900.56,-364.36 895.92,-373.88 905.49,-369.34 900.56,-364.36"/>
</a>
</g>
</g>
<!-- Node13 -->
<g id="Node000013" class="node">
<title>Node13</title>
<g id="a_Node000013"><a xlink:href="cutdg__operation_8cpp.html" target="_top" xlink:title=" ">
<polygon fill="white" stroke="#666666" points="995.5,-30 851.5,-30 851.5,0 995.5,0 995.5,-30"/>
<text text-anchor="start" x="859.5" y="-18" font-family="Helvetica,sans-Serif" font-size="10.00">source/compressible</text>
<text text-anchor="middle" x="923.5" y="-7" font-family="Helvetica,sans-Serif" font-size="10.00">_flow/cutdg_operation.cpp</text>
</a>
</g>
</g>
<!-- Node1&#45;&gt;Node13 -->
<g id="edge33_Node000001_Node000013" class="edge">
<title>Node1&#45;&gt;Node13</title>
<g id="a_edge33_Node000001_Node000013"><a xlink:title=" ">
<path fill="none" stroke="#63b8ff" d="M960.67,-387.88C1045.36,-377.25 1167.74,-346.92 1227.5,-261 1237.9,-246.04 1232.95,-237.39 1227.5,-220 1221.68,-201.41 1213.08,-200.35 1202.5,-184 1169.25,-132.61 1180.87,-102.18 1131.5,-66 1092.26,-37.24 1038.71,-24.82 995.78,-19.55"/>
<polygon fill="#63b8ff" stroke="#63b8ff" points="960.05,-384.43 950.53,-389.08 960.88,-391.38 960.05,-384.43"/>
</a>
</g>
</g>
<!-- Node14 -->
<g id="Node000014" class="node">
<title>Node14</title>
<g id="a_Node000014"><a xlink:href="cutdg__operator_8cpp.html" target="_top" xlink:title=" ">
<polygon fill="white" stroke="#666666" points="1122.5,-101.5 984.5,-101.5 984.5,-71.5 1122.5,-71.5 1122.5,-101.5"/>
<text text-anchor="start" x="992.5" y="-89.5" font-family="Helvetica,sans-Serif" font-size="10.00">source/compressible</text>
<text text-anchor="middle" x="1053.5" y="-78.5" font-family="Helvetica,sans-Serif" font-size="10.00">_flow/cutdg_operator.cpp</text>
</a>
</g>
</g>
<!-- Node1&#45;&gt;Node14 -->
<g id="edge34_Node000001_Node000014" class="edge">
<title>Node1&#45;&gt;Node14</title>
<g id="a_edge34_Node000001_Node000014"><a xlink:title=" ">
<path fill="none" stroke="#63b8ff" d="M922.92,-369.2C938.03,-360.67 953.84,-350.14 966.5,-338 1011.35,-294.99 999.52,-265.82 1041.5,-220 1059.27,-200.6 1076.85,-207.59 1088.5,-184 1102.38,-155.88 1080.64,-120.81 1065.69,-101.64"/>
<polygon fill="#63b8ff" stroke="#63b8ff" points="921.23,-366.13 914.13,-373.98 924.58,-372.27 921.23,-366.13"/>
</a>
</g>
</g>
<!-- Node15 -->
<g id="Node000015" class="node">
<title>Node15</title>
<g id="a_Node000015"><a xlink:href="multiphase__operator_8cpp.html" target="_top" xlink:title=" ">
<polygon fill="white" stroke="#666666" points="1079.5,-178.5 913.5,-178.5 913.5,-148.5 1079.5,-148.5 1079.5,-178.5"/>
<text text-anchor="start" x="921.5" y="-166.5" font-family="Helvetica,sans-Serif" font-size="10.00">source/compressible</text>
<text text-anchor="middle" x="996.5" y="-155.5" font-family="Helvetica,sans-Serif" font-size="10.00">_flow/multiphase_operator.cpp</text>
</a>
</g>
</g>
<!-- Node1&#45;&gt;Node15 -->
<g id="edge40_Node000001_Node000015" class="edge">
<title>Node1&#45;&gt;Node15</title>
<g id="a_edge40_Node000001_Node000015"><a xlink:title=" ">
<path fill="none" stroke="#63b8ff" d="M912.71,-367.8C923.67,-359.44 934.6,-349.36 942.5,-338 978.36,-286.47 991.1,-210.21 994.99,-178.81"/>
<polygon fill="#63b8ff" stroke="#63b8ff" points="910.41,-365.14 904.37,-373.84 914.52,-370.81 910.41,-365.14"/>
</a>
</g>
</g>
<!-- Node17 -->
<g id="Node000017" class="node">
<title>Node17</title>
<g id="a_Node000017"><a xlink:href="multiphase__operation_8hpp.html" target="_top" xlink:title=" ">
<polygon fill="white" stroke="#666666" points="1379.5,-184 1211.5,-184 1211.5,-143 1379.5,-143 1379.5,-184"/>
<text text-anchor="start" x="1219.5" y="-172" font-family="Helvetica,sans-Serif" font-size="10.00">include/meltpooldg</text>
<text text-anchor="start" x="1219.5" y="-161" font-family="Helvetica,sans-Serif" font-size="10.00">/compressible_flow/multiphase</text>
<text text-anchor="middle" x="1295.5" y="-150" font-family="Helvetica,sans-Serif" font-size="10.00">_operation.hpp</text>
</a>
</g>
</g>
<!-- Node1&#45;&gt;Node17 -->
<g id="edge32_Node000001_Node000017" class="edge">
<title>Node1&#45;&gt;Node17</title>
<g id="a_edge32_Node000001_Node000017"><a xlink:title=" ">
<path fill="none" stroke="#63b8ff" d="M960.98,-392.35C1062.52,-389.11 1218.55,-377.6 1260.5,-338 1303.4,-297.5 1301.64,-220.16 1298.08,-184.02"/>
<polygon fill="#63b8ff" stroke="#63b8ff" points="960.61,-388.86 950.72,-392.66 960.82,-395.86 960.61,-388.86"/>
</a>
</g>
</g>
<!-- Node18 -->
<g id="Node000018" class="node">
<title>Node18</title>
<g id="a_Node000018"><a xlink:href="multiphase__operation_8cpp.html" target="_top" xlink:title=" ">
<polygon fill="white" stroke="#666666" points="1383.5,-101.5 1211.5,-101.5 1211.5,-71.5 1383.5,-71.5 1383.5,-101.5"/>
<text text-anchor="start" x="1219.5" y="-89.5" font-family="Helvetica,sans-Serif" font-size="10.00">source/compressible</text>
<text text-anchor="middle" x="1297.5" y="-78.5" font-family="Helvetica,sans-Serif" font-size="10.00">_flow/multiphase_operation.cpp</text>
</a>
</g>
</g>
<!-- Node1&#45;&gt;Node18 -->
<g id="edge39_Node000001_Node000018" class="edge">
<title>Node1&#45;&gt;Node18</title>
<g id="a_edge39_Node000001_Node000018"><a xlink:title=" ">
<path fill="none" stroke="#63b8ff" d="M960.68,-389.4C1065.98,-383.26 1232.62,-368.9 1286.5,-338 1374.77,-287.37 1459.68,-229.76 1406.5,-143 1394.24,-122.99 1372.25,-109.92 1351.22,-101.52"/>
<polygon fill="#63b8ff" stroke="#63b8ff" points="960.47,-385.91 950.69,-389.97 960.87,-392.9 960.47,-385.91"/>
</a>
</g>
</g>
<!-- Node19 -->
<g id="Node000019" class="node">
<title>Node19</title>
<g id="a_Node000019"><a xlink:href="dg__operation_8hpp.html" target="_top" xlink:title=" ">
<polygon fill="white" stroke="#666666" points="125,-338 0,-338 0,-297 125,-297 125,-338"/>
<text text-anchor="start" x="8" y="-326" font-family="Helvetica,sans-Serif" font-size="10.00">include/meltpooldg</text>
<text text-anchor="start" x="8" y="-315" font-family="Helvetica,sans-Serif" font-size="10.00">/compressible_flow/dg</text>
<text text-anchor="middle" x="62.5" y="-304" font-family="Helvetica,sans-Serif" font-size="10.00">_operation.hpp</text>
</a>
</g>
</g>
<!-- Node1&#45;&gt;Node19 -->
<g id="edge27_Node000001_Node000019" class="edge">
<title>Node1&#45;&gt;Node19</title>
<g id="a_edge27_Node000001_Node000019"><a xlink:title=" ">
<path fill="none" stroke="#63b8ff" d="M780.31,-391.64C641.71,-387.66 368.35,-375.38 139.5,-338 134.87,-337.24 130.12,-336.35 125.35,-335.35"/>
<polygon fill="#63b8ff" stroke="#63b8ff" points="780.37,-395.14 790.46,-391.92 780.56,-388.15 780.37,-395.14"/>
</a>
</g>
</g>
<!-- Node2&#45;&gt;Node3 -->
<g id="edge2_Node000002_Node000003" class="edge">
<title>Node2&#45;&gt;Node3</title>
<g id="a_edge2_Node000002_Node000003"><a xlink:title=" ">
<path fill="none" stroke="#63b8ff" d="M529.79,-297.96C460.36,-284.22 367.65,-265.87 307.04,-253.88"/>
<polygon fill="#63b8ff" stroke="#63b8ff" points="529.37,-301.44 539.86,-299.95 530.73,-294.57 529.37,-301.44"/>
</a>
</g>
</g>
<!-- Node2&#45;&gt;Node6 -->
<g id="edge5_Node000002_Node000006" class="edge">
<title>Node2&#45;&gt;Node6</title>
<g id="a_edge5_Node000002_Node000006"><a xlink:title=" ">
<path fill="none" stroke="#63b8ff" d="M562.83,-293.4C535.61,-283.04 503.85,-270.95 477.83,-261.04"/>
<polygon fill="#63b8ff" stroke="#63b8ff" points="561.66,-296.7 572.25,-296.99 564.15,-290.16 561.66,-296.7"/>
</a>
</g>
</g>
<!-- Node2&#45;&gt;Node8 -->
<g id="edge8_Node000002_Node000008" class="edge">
<title>Node2&#45;&gt;Node8</title>
<g id="a_edge8_Node000002_Node000008"><a xlink:title=" ">
<path fill="none" stroke="#63b8ff" d="M611.15,-287.55C607.37,-278.69 603.3,-269.15 599.85,-261.07"/>
<polygon fill="#63b8ff" stroke="#63b8ff" points="607.95,-288.97 615.09,-296.79 614.39,-286.22 607.95,-288.97"/>
</a>
</g>
</g>
<!-- Node10 -->
<g id="Node000010" class="node">
<title>Node10</title>
<g id="a_Node000010"><a xlink:href="explicit__time__integration__utils_8hpp.html" target="_top" xlink:title=" ">
<polygon fill="white" stroke="#666666" points="842.5,-261 692.5,-261 692.5,-220 842.5,-220 842.5,-261"/>
<text text-anchor="start" x="700.5" y="-249" font-family="Helvetica,sans-Serif" font-size="10.00">include/meltpooldg</text>
<text text-anchor="start" x="700.5" y="-238" font-family="Helvetica,sans-Serif" font-size="10.00">/compressible_flow/explicit</text>
<text text-anchor="middle" x="767.5" y="-227" font-family="Helvetica,sans-Serif" font-size="10.00">_time_integration_utils.hpp</text>
</a>
</g>
</g>
<!-- Node2&#45;&gt;Node10 -->
<g id="edge11_Node000002_Node000010" class="edge">
<title>Node2&#45;&gt;Node10</title>
<g id="a_edge11_Node000002_Node000010"><a xlink:title=" ">
<path fill="none" stroke="#63b8ff" d="M669.94,-292.31C689.36,-282.2 711.63,-270.6 729.98,-261.04"/>
<polygon fill="#63b8ff" stroke="#63b8ff" points="668.21,-289.27 660.96,-296.99 671.44,-295.48 668.21,-289.27"/>
</a>
</g>
</g>
<!-- Node16 -->
<g id="Node000016" class="node">
<title>Node16</title>
<g id="a_Node000016"><a xlink:href="multiphase__operator_8hpp.html" target="_top" xlink:title=" ">
<polygon fill="white" stroke="#666666" points="1218.5,-261 1050.5,-261 1050.5,-220 1218.5,-220 1218.5,-261"/>
<text text-anchor="start" x="1058.5" y="-249" font-family="Helvetica,sans-Serif" font-size="10.00">include/meltpooldg</text>
<text text-anchor="start" x="1058.5" y="-238" font-family="Helvetica,sans-Serif" font-size="10.00">/compressible_flow/multiphase</text>
<text text-anchor="middle" x="1134.5" y="-227" font-family="Helvetica,sans-Serif" font-size="10.00">_operator.hpp</text>
</a>
</g>
</g>
<!-- Node2&#45;&gt;Node16 -->
<g id="edge20_Node000002_Node000016" class="edge">
<title>Node2&#45;&gt;Node16</title>
<g id="a_edge20_Node000002_Node000016"><a xlink:title=" ">
<path fill="none" stroke="#63b8ff" d="M716.93,-302.79C812.1,-288.82 958.36,-267.35 1050.12,-253.88"/>
<polygon fill="#63b8ff" stroke="#63b8ff" points="716.41,-299.33 707.02,-304.24 717.43,-306.25 716.41,-299.33"/>
</a>
</g>
</g>
<!-- Node3&#45;&gt;Node4 -->
<g id="edge3_Node000003_Node000004" class="edge">
<title>Node3&#45;&gt;Node4</title>
<g id="a_edge3_Node000003_Node000004"><a xlink:title=" ">
<path fill="none" stroke="#63b8ff" d="M209.5,-214.01C193.3,-202.22 174.66,-188.65 161,-178.7"/>
<polygon fill="#63b8ff" stroke="#63b8ff" points="207.56,-216.93 217.71,-219.99 211.68,-211.27 207.56,-216.93"/>
</a>
</g>
</g>
<!-- Node3&#45;&gt;Node5 -->
<g id="edge4_Node000003_Node000005" class="edge">
<title>Node3&#45;&gt;Node5</title>
<g id="a_edge4_Node000003_Node000005"><a xlink:title=" ">
<path fill="none" stroke="#63b8ff" d="M267.3,-211.92C276.58,-200.7 286.9,-188.21 294.63,-178.86"/>
<polygon fill="#63b8ff" stroke="#63b8ff" points="264.46,-209.86 260.79,-219.79 269.86,-214.32 264.46,-209.86"/>
</a>
</g>
</g>
<!-- Node6&#45;&gt;Node4 -->
<g id="edge6_Node000006_Node000004" class="edge">
<title>Node6&#45;&gt;Node4</title>
<g id="a_edge6_Node000006_Node000004"><a xlink:title=" ">
<path fill="none" stroke="#63b8ff" d="M353.43,-220.29C312.81,-209.61 261.35,-196.07 215.5,-184 208.82,-182.24 201.8,-180.39 194.85,-178.56"/>
<polygon fill="#63b8ff" stroke="#63b8ff" points="352.69,-223.71 363.25,-222.87 354.47,-216.94 352.69,-223.71"/>
</a>
</g>
</g>
<!-- Node6&#45;&gt;Node7 -->
<g id="edge7_Node000006_Node000007" class="edge">
<title>Node6&#45;&gt;Node7</title>
<g id="a_edge7_Node000006_Node000007"><a xlink:title=" ">
<path fill="none" stroke="#63b8ff" d="M450.04,-211.92C459.61,-200.7 470.27,-188.21 478.25,-178.86"/>
<polygon fill="#63b8ff" stroke="#63b8ff" points="447.14,-209.92 443.32,-219.79 452.47,-214.46 447.14,-209.92"/>
</a>
</g>
</g>
<!-- Node8&#45;&gt;Node4 -->
<g id="edge9_Node000008_Node000004" class="edge">
<title>Node8&#45;&gt;Node4</title>
<g id="a_edge9_Node000008_Node000004"><a xlink:title=" ">
<path fill="none" stroke="#63b8ff" d="M497.86,-219.98C371.7,-199.42 336.8,-207.59 215.5,-184 207.54,-182.45 199.18,-180.54 191.05,-178.51"/>
<polygon fill="#63b8ff" stroke="#63b8ff" points="497.47,-223.46 507.91,-221.64 498.62,-216.55 497.47,-223.46"/>
</a>
</g>
</g>
<!-- Node8&#45;&gt;Node9 -->
<g id="edge10_Node000008_Node000009" class="edge">
<title>Node8&#45;&gt;Node9</title>
<g id="a_edge10_Node000008_Node000009"><a xlink:title=" ">
<path fill="none" stroke="#63b8ff" d="M617.77,-212.51C626.92,-203.11 637,-192.76 645.45,-184.07"/>
<polygon fill="#63b8ff" stroke="#63b8ff" points="615.15,-210.19 610.68,-219.79 620.16,-215.07 615.15,-210.19"/>
</a>
</g>
</g>
<!-- Node10&#45;&gt;Node5 -->
<g id="edge17_Node000010_Node000005" class="edge">
<title>Node10&#45;&gt;Node5</title>
<g id="a_edge17_Node000010_Node000005"><a xlink:title=" ">
<path fill="none" stroke="#63b8ff" d="M682.45,-219.72C556.64,-197.7 521.62,-204.76 398.5,-184 389,-182.4 378.99,-180.5 369.22,-178.52"/>
<polygon fill="#63b8ff" stroke="#63b8ff" points="682.01,-223.2 692.47,-221.5 683.24,-216.3 682.01,-223.2"/>
</a>
</g>
</g>
<!-- Node10&#45;&gt;Node7 -->
<g id="edge18_Node000010_Node000007" class="edge">
<title>Node10&#45;&gt;Node7</title>
<g id="a_edge18_Node000010_Node000007"><a xlink:title=" ">
<path fill="none" stroke="#63b8ff" d="M685.72,-217.36C639.38,-204.81 582.81,-189.49 542.51,-178.58"/>
<polygon fill="#63b8ff" stroke="#63b8ff" points="684.88,-220.76 695.44,-219.99 686.71,-214 684.88,-220.76"/>
</a>
</g>
</g>
<!-- Node10&#45;&gt;Node11 -->
<g id="edge12_Node000010_Node000011" class="edge">
<title>Node10&#45;&gt;Node11</title>
<g id="a_edge12_Node000010_Node000011"><a xlink:title=" ">
<path fill="none" stroke="#63b8ff" d="M789.02,-211.67C796.11,-202.5 803.85,-192.5 810.36,-184.07"/>
<polygon fill="#63b8ff" stroke="#63b8ff" points="786.09,-209.74 782.74,-219.79 791.63,-214.03 786.09,-209.74"/>
</a>
</g>
</g>
<!-- Node10&#45;&gt;Node15 -->
<g id="edge19_Node000010_Node000015" class="edge">
<title>Node10&#45;&gt;Node15</title>
<g id="a_edge19_Node000010_Node000015"><a xlink:title=" ">
<path fill="none" stroke="#63b8ff" d="M837.04,-216.73C874.98,-204.3 920.75,-189.31 953.5,-178.58"/>
<polygon fill="#63b8ff" stroke="#63b8ff" points="835.48,-213.55 827.07,-219.99 837.66,-220.2 835.48,-213.55"/>
</a>
</g>
</g>
<!-- Node12 -->
<g id="Node000012" class="node">
<title>Node12</title>
<g id="a_Node000012"><a xlink:href="cutdg__operation_8hpp.html" target="_top" xlink:title=" ">
<polygon fill="white" stroke="#666666" points="895.5,-107 755.5,-107 755.5,-66 895.5,-66 895.5,-107"/>
<text text-anchor="start" x="763.5" y="-95" font-family="Helvetica,sans-Serif" font-size="10.00">include/meltpooldg</text>
<text text-anchor="start" x="763.5" y="-84" font-family="Helvetica,sans-Serif" font-size="10.00">/compressible_flow/cutdg</text>
<text text-anchor="middle" x="825.5" y="-73" font-family="Helvetica,sans-Serif" font-size="10.00">_operation.hpp</text>
</a>
</g>
</g>
<!-- Node11&#45;&gt;Node12 -->
<g id="edge13_Node000011_Node000012" class="edge">
<title>Node11&#45;&gt;Node12</title>
<g id="a_edge13_Node000011_Node000012"><a xlink:title=" ">
<path fill="none" stroke="#63b8ff" d="M825.5,-132.69C825.5,-124.08 825.5,-114.9 825.5,-107.07"/>
<polygon fill="#63b8ff" stroke="#63b8ff" points="822,-132.79 825.5,-142.79 829,-132.79 822,-132.79"/>
</a>
</g>
</g>
<!-- Node11&#45;&gt;Node13 -->
<g id="edge15_Node000011_Node000013" class="edge">
<title>Node11&#45;&gt;Node13</title>
<g id="a_edge15_Node000011_Node000013"><a xlink:title=" ">
<path fill="none" stroke="#63b8ff" d="M873.55,-137.31C885.25,-129.09 896.64,-118.94 904.5,-107 920.12,-83.27 923.24,-49.16 923.67,-30.15"/>
<polygon fill="#63b8ff" stroke="#63b8ff" points="871.43,-134.51 865.02,-142.95 875.29,-140.35 871.43,-134.51"/>
</a>
</g>
</g>
<!-- Node11&#45;&gt;Node14 -->
<g id="edge16_Node000011_Node000014" class="edge">
<title>Node11&#45;&gt;Node14</title>
<g id="a_edge16_Node000011_Node000014"><a xlink:title=" ">
<path fill="none" stroke="#63b8ff" d="M894.73,-139.73C932.51,-127.3 978.08,-112.31 1010.69,-101.58"/>
<polygon fill="#63b8ff" stroke="#63b8ff" points="893.21,-136.54 884.81,-142.99 895.4,-143.19 893.21,-136.54"/>
</a>
</g>
</g>
<!-- Node12&#45;&gt;Node13 -->
<g id="edge14_Node000012_Node000013" class="edge">
<title>Node12&#45;&gt;Node13</title>
<g id="a_edge14_Node000012_Node000013"><a xlink:title=" ">
<path fill="none" stroke="#63b8ff" d="M861.24,-60.15C875.53,-50.02 891.44,-38.74 903.6,-30.11"/>
<polygon fill="#63b8ff" stroke="#63b8ff" points="859.19,-57.32 853.06,-65.96 863.24,-63.03 859.19,-57.32"/>
</a>
</g>
</g>
<!-- Node16&#45;&gt;Node15 -->
<g id="edge25_Node000016_Node000015" class="edge">
<title>Node16&#45;&gt;Node15</title>
<g id="a_edge25_Node000016_Node000015"><a xlink:title=" ">
<path fill="none" stroke="#63b8ff" d="M1089.68,-215.14C1067.51,-203.09 1041.52,-188.97 1022.63,-178.7"/>
<polygon fill="#63b8ff" stroke="#63b8ff" points="1088.14,-218.29 1098.6,-219.99 1091.49,-212.14 1088.14,-218.29"/>
</a>
</g>
</g>
<!-- Node16&#45;&gt;Node17 -->
<g id="edge21_Node000016_Node000017" class="edge">
<title>Node16&#45;&gt;Node17</title>
<g id="a_edge21_Node000016_Node000017"><a xlink:title=" ">
<path fill="none" stroke="#63b8ff" d="M1185.54,-215.72C1207.46,-205.51 1232.75,-193.73 1253.55,-184.04"/>
<polygon fill="#63b8ff" stroke="#63b8ff" points="1183.97,-212.6 1176.38,-219.99 1186.92,-218.94 1183.97,-212.6"/>
</a>
</g>
</g>
<!-- Node16&#45;&gt;Node18 -->
<g id="edge24_Node000016_Node000018" class="edge">
<title>Node16&#45;&gt;Node18</title>
<g id="a_edge24_Node000016_Node000018"><a xlink:title=" ">
<path fill="none" stroke="#63b8ff" d="M1149.97,-211.22C1162.26,-190.56 1180.93,-162.8 1202.5,-143 1221.35,-125.69 1246.5,-111.29 1266.18,-101.5"/>
<polygon fill="#63b8ff" stroke="#63b8ff" points="1146.94,-209.47 1144.94,-219.88 1152.99,-212.99 1146.94,-209.47"/>
</a>
</g>
</g>
<!-- Node17&#45;&gt;Node17 -->
<g id="edge22_Node000017_Node000017" class="edge">
<title>Node17&#45;&gt;Node17</title>
<g id="a_edge22_Node000017_Node000017"><a xlink:title=" ">
<path fill="none" stroke="#63b8ff" d="M1389.25,-173.05C1394.42,-170.73 1397.5,-167.54 1397.5,-163.5 1397.5,-157.34 1390.35,-153.18 1379.53,-151.01"/>
<polygon fill="#63b8ff" stroke="#63b8ff" points="1388.09,-169.74 1379.53,-175.99 1390.12,-176.44 1388.09,-169.74"/>
</a>
</g>
</g>
<!-- Node17&#45;&gt;Node18 -->
<g id="edge23_Node000017_Node000018" class="edge">
<title>Node17&#45;&gt;Node18</title>
<g id="a_edge23_Node000017_Node000018"><a xlink:title=" ">
<path fill="none" stroke="#63b8ff" d="M1296.3,-132.61C1296.58,-122.01 1296.88,-110.57 1297.12,-101.86"/>
<polygon fill="#63b8ff" stroke="#63b8ff" points="1292.79,-132.7 1296.03,-142.79 1299.79,-132.89 1292.79,-132.7"/>
</a>
</g>
</g>
<!-- Node19&#45;&gt;Node4 -->
<g id="edge28_Node000019_Node000004" class="edge">
<title>Node19&#45;&gt;Node4</title>
<g id="a_edge28_Node000019_Node000004"><a xlink:title=" ">
<path fill="none" stroke="#63b8ff" d="M77.36,-287.9C94.3,-255.31 121.3,-203.37 134.19,-178.57"/>
<polygon fill="#63b8ff" stroke="#63b8ff" points="74.17,-286.45 72.67,-296.94 80.38,-289.68 74.17,-286.45"/>
</a>
</g>
</g>
</g>
</svg>
