<?xml version="1.0" encoding="UTF-8" standalone="no"?>
<!DOCTYPE svg PUBLIC "-//W3C//DTD SVG 1.1//EN"
 "http://www.w3.org/Graphics/SVG/1.1/DTD/svg11.dtd">
<!-- Generated by graphviz version 2.43.0 (0)
 -->
<!-- Title: include/meltpooldg/core/parameters_base.hpp Pages: 1 -->
<svg width="502pt" height="104pt"
 viewBox="0.00 0.00 501.50 104.00" xmlns="http://www.w3.org/2000/svg" xmlns:xlink="http://www.w3.org/1999/xlink">
<g id="graph0" class="graph" transform="scale(1 1) rotate(0) translate(4 100)">
<title>include/meltpooldg/core/parameters_base.hpp</title>
<!-- Node1 -->
<g id="Node000001" class="node">
<title>Node1</title>
<g id="a_Node000001"><a xlink:title=" ">
<polygon fill="#999999" stroke="#666666" points="364,-96 215,-96 215,-66 364,-66 364,-96"/>
<text text-anchor="start" x="223" y="-84" font-family="Helvetica,sans-Serif" font-size="10.00">include/meltpooldg</text>
<text text-anchor="middle" x="289.5" y="-73" font-family="Helvetica,sans-Serif" font-size="10.00">/core/parameters_base.hpp</text>
</a>
</g>
</g>
<!-- Node2 -->
<g id="Node000002" class="node">
<title>Node2</title>
<g id="a_Node000002"><a xlink:title=" ">
<polygon fill="#e0e0e0" stroke="#999999" points="127,-30 0,-30 0,0 127,0 127,-30"/>
<text text-anchor="start" x="8" y="-18" font-family="Helvetica,sans-Serif" font-size="10.00">deal.II/base/parameter</text>
<text text-anchor="middle" x="63.5" y="-7" font-family="Helvetica,sans-Serif" font-size="10.00">_handler.h</text>
</a>
</g>
</g>
<!-- Node1&#45;&gt;Node2 -->
<g id="edge1_Node000001_Node000002" class="edge">
<title>Node1&#45;&gt;Node2</title>
<g id="a_edge1_Node000001_Node000002"><a xlink:title=" ">
<path fill="none" stroke="#63b8ff" d="M239.9,-65.95C205.46,-56.2 159.4,-43.16 122.98,-32.84"/>
<polygon fill="#63b8ff" stroke="#63b8ff" points="123.56,-29.37 112.98,-30.01 121.65,-36.1 123.56,-29.37"/>
</a>
</g>
</g>
<!-- Node3 -->
<g id="Node000003" class="node">
<title>Node3</title>
<g id="a_Node000003"><a xlink:title=" ">
<polygon fill="#e0e0e0" stroke="#999999" points="205.5,-24.5 145.5,-24.5 145.5,-5.5 205.5,-5.5 205.5,-24.5"/>
<text text-anchor="middle" x="175.5" y="-12.5" font-family="Helvetica,sans-Serif" font-size="10.00">concepts</text>
</a>
</g>
</g>
<!-- Node1&#45;&gt;Node3 -->
<g id="edge2_Node000001_Node000003" class="edge">
<title>Node1&#45;&gt;Node3</title>
<g id="a_edge2_Node000001_Node000003"><a xlink:title=" ">
<path fill="none" stroke="#63b8ff" d="M264.48,-65.95C245.19,-55.13 218.68,-40.24 199.62,-29.54"/>
<polygon fill="#63b8ff" stroke="#63b8ff" points="201.1,-26.36 190.67,-24.52 197.68,-32.46 201.1,-26.36"/>
</a>
</g>
</g>
<!-- Node4 -->
<g id="Node000004" class="node">
<title>Node4</title>
<g id="a_Node000004"><a xlink:title=" ">
<polygon fill="#e0e0e0" stroke="#999999" points="279,-24.5 224,-24.5 224,-5.5 279,-5.5 279,-24.5"/>
<text text-anchor="middle" x="251.5" y="-12.5" font-family="Helvetica,sans-Serif" font-size="10.00">fstream</text>
</a>
</g>
</g>
<!-- Node1&#45;&gt;Node4 -->
<g id="edge3_Node000001_Node000004" class="edge">
<title>Node1&#45;&gt;Node4</title>
<g id="a_edge3_Node000001_Node000004"><a xlink:title=" ">
<path fill="none" stroke="#63b8ff" d="M281.07,-65.8C275.43,-56.31 267.98,-43.76 261.97,-33.63"/>
<polygon fill="#63b8ff" stroke="#63b8ff" points="264.87,-31.66 256.75,-24.84 258.85,-35.23 264.87,-31.66"/>
</a>
</g>
</g>
<!-- Node5 -->
<g id="Node000005" class="node">
<title>Node5</title>
<g id="a_Node000005"><a xlink:title=" ">
<polygon fill="#e0e0e0" stroke="#999999" points="357.5,-24.5 297.5,-24.5 297.5,-5.5 357.5,-5.5 357.5,-24.5"/>
<text text-anchor="middle" x="327.5" y="-12.5" font-family="Helvetica,sans-Serif" font-size="10.00">iostream</text>
</a>
</g>
</g>
<!-- Node1&#45;&gt;Node5 -->
<g id="edge4_Node000001_Node000005" class="edge">
<title>Node1&#45;&gt;Node5</title>
<g id="a_edge4_Node000001_Node000005"><a xlink:title=" ">
<path fill="none" stroke="#63b8ff" d="M297.93,-65.8C303.57,-56.31 311.02,-43.76 317.03,-33.63"/>
<polygon fill="#63b8ff" stroke="#63b8ff" points="320.15,-35.23 322.25,-24.84 314.13,-31.66 320.15,-35.23"/>
</a>
</g>
</g>
<!-- Node6 -->
<g id="Node000006" class="node">
<title>Node6</title>
<g id="a_Node000006"><a xlink:title=" ">
<polygon fill="#e0e0e0" stroke="#999999" points="431.5,-24.5 375.5,-24.5 375.5,-5.5 431.5,-5.5 431.5,-24.5"/>
<text text-anchor="middle" x="403.5" y="-12.5" font-family="Helvetica,sans-Serif" font-size="10.00">sstream</text>
</a>
</g>
</g>
<!-- Node1&#45;&gt;Node6 -->
<g id="edge5_Node000001_Node000006" class="edge">
<title>Node1&#45;&gt;Node6</title>
<g id="a_edge5_Node000001_Node000006"><a xlink:title=" ">
<path fill="none" stroke="#63b8ff" d="M314.52,-65.95C333.81,-55.13 360.32,-40.24 379.38,-29.54"/>
<polygon fill="#63b8ff" stroke="#63b8ff" points="381.32,-32.46 388.33,-24.52 377.9,-26.36 381.32,-32.46"/>
</a>
</g>
</g>
<!-- Node7 -->
<g id="Node000007" class="node">
<title>Node7</title>
<g id="a_Node000007"><a xlink:title=" ">
<polygon fill="#e0e0e0" stroke="#999999" points="493.5,-24.5 449.5,-24.5 449.5,-5.5 493.5,-5.5 493.5,-24.5"/>
<text text-anchor="middle" x="471.5" y="-12.5" font-family="Helvetica,sans-Serif" font-size="10.00">string</text>
</a>
</g>
</g>
<!-- Node1&#45;&gt;Node7 -->
<g id="edge6_Node000001_Node000007" class="edge">
<title>Node1&#45;&gt;Node7</title>
<g id="a_edge6_Node000001_Node000007"><a xlink:title=" ">
<path fill="none" stroke="#63b8ff" d="M336.21,-65.92C366.27,-56.52 406.03,-43.45 440.5,-30 441.68,-29.54 442.87,-29.06 444.08,-28.57"/>
<polygon fill="#63b8ff" stroke="#63b8ff" points="445.47,-31.78 453.28,-24.61 442.71,-25.35 445.47,-31.78"/>
</a>
</g>
</g>
</g>
</svg>
