<?xml version="1.0" encoding="UTF-8" standalone="no"?>
<!DOCTYPE svg PUBLIC "-//W3C//DTD SVG 1.1//EN"
 "http://www.w3.org/Graphics/SVG/1.1/DTD/svg11.dtd">
<!-- Generated by graphviz version 2.43.0 (0)
 -->
<!-- Title: include/meltpooldg/particles/particle_tools.hpp Pages: 1 -->
<svg width="288pt" height="126pt"
 viewBox="0.00 0.00 288.00 126.00" xmlns="http://www.w3.org/2000/svg" xmlns:xlink="http://www.w3.org/1999/xlink">
<g id="graph0" class="graph" transform="scale(1 1) rotate(0) translate(4 122)">
<title>include/meltpooldg/particles/particle_tools.hpp</title>
<!-- Node1 -->
<g id="Node000001" class="node">
<title>Node1</title>
<g id="a_Node000001"><a xlink:title=" ">
<polygon fill="#999999" stroke="#666666" points="191,-118 81,-118 81,-77 191,-77 191,-118"/>
<text text-anchor="start" x="89" y="-106" font-family="Helvetica,sans-Serif" font-size="10.00">include/meltpooldg</text>
<text text-anchor="start" x="89" y="-95" font-family="Helvetica,sans-Serif" font-size="10.00">/particles/particle</text>
<text text-anchor="middle" x="136" y="-84" font-family="Helvetica,sans-Serif" font-size="10.00">_tools.hpp</text>
</a>
</g>
</g>
<!-- Node2 -->
<g id="Node000002" class="node">
<title>Node2</title>
<g id="a_Node000002"><a xlink:href="brinkman__penalization_8cpp.html" target="_top" xlink:title=" ">
<polygon fill="white" stroke="#666666" points="124,-41 0,-41 0,0 124,0 124,-41"/>
<text text-anchor="start" x="8" y="-29" font-family="Helvetica,sans-Serif" font-size="10.00">source/fluid_structure</text>
<text text-anchor="start" x="8" y="-18" font-family="Helvetica,sans-Serif" font-size="10.00">_interaction/brinkman</text>
<text text-anchor="middle" x="62" y="-7" font-family="Helvetica,sans-Serif" font-size="10.00">_penalization.cpp</text>
</a>
</g>
</g>
<!-- Node1&#45;&gt;Node2 -->
<g id="edge1_Node000001_Node000002" class="edge">
<title>Node1&#45;&gt;Node2</title>
<g id="a_edge1_Node000001_Node000002"><a xlink:title=" ">
<path fill="none" stroke="#63b8ff" d="M109.37,-69.51C100.1,-60.11 89.88,-49.76 81.31,-41.07"/>
<polygon fill="#63b8ff" stroke="#63b8ff" points="107.04,-72.13 116.56,-76.79 112.03,-67.22 107.04,-72.13"/>
</a>
</g>
</g>
<!-- Node3 -->
<g id="Node000003" class="node">
<title>Node3</title>
<g id="a_Node000003"><a xlink:href="obstacle__field_8cpp.html" target="_top" xlink:title=" ">
<polygon fill="white" stroke="#666666" points="280,-35.5 142,-35.5 142,-5.5 280,-5.5 280,-35.5"/>
<text text-anchor="start" x="150" y="-23.5" font-family="Helvetica,sans-Serif" font-size="10.00">source/particles/obstacle</text>
<text text-anchor="middle" x="211" y="-12.5" font-family="Helvetica,sans-Serif" font-size="10.00">_field.cpp</text>
</a>
</g>
</g>
<!-- Node1&#45;&gt;Node3 -->
<g id="edge2_Node000001_Node000003" class="edge">
<title>Node1&#45;&gt;Node3</title>
<g id="a_edge2_Node000001_Node000003"><a xlink:title=" ">
<path fill="none" stroke="#63b8ff" d="M162.93,-69.57C174.32,-58.18 187.11,-45.39 196.64,-35.86"/>
<polygon fill="#63b8ff" stroke="#63b8ff" points="160.3,-67.25 155.71,-76.79 165.25,-72.2 160.3,-67.25"/>
</a>
</g>
</g>
</g>
</svg>
