<?xml version="1.0" encoding="UTF-8" standalone="no"?>
<!DOCTYPE svg PUBLIC "-//W3C//DTD SVG 1.1//EN"
 "http://www.w3.org/Graphics/SVG/1.1/DTD/svg11.dtd">
<!-- Generated by graphviz version 2.43.0 (0)
 -->
<!-- Title: include/meltpooldg/particles/particle_accessor.hpp Pages: 1 -->
<!--zoomable 698 -->

<svg id="main" version="1.1" xmlns="http://www.w3.org/2000/svg" xmlns:xlink="http://www.w3.org/1999/xlink" xml:space="preserve" onload="init(evt)">
<style type="text/css"><![CDATA[
.node, .edge {opacity: 0.7;}
.node.selected, .edge.selected {opacity: 1;}
.edge:hover path { stroke: red; }
.edge:hover polygon { stroke: red; fill: red; }
]]></style>

<defs>
  <circle id="rim" cx="0" cy="0" r="7"/>
  <circle id="rim2" cx="0" cy="0" r="3.5"/>
  <g id="zoomPlus">
    <use xlink:href="#rim" fill="#404040"><set attributeName="fill" to="#808080" begin="zoomplus.mouseover" end="zoomplus.mouseout"/></use>
    <path d="M-4,0h8M0,-4v8" fill="none" stroke="white" stroke-width="1.5" pointer-events="none"/>
  </g>
  <g id="zoomMin">
    <use xlink:href="#rim" fill="#404040"><set attributeName="fill" to="#808080" begin="zoomminus.mouseover" end="zoomminus.mouseout"/></use>
    <path d="M-4,0h8" fill="none" stroke="white" stroke-width="1.5" pointer-events="none"/>
  </g>
  <g id="arrowUp" transform="translate(30 24)">
    <use xlink:href="#rim"/>
    <path pointer-events="none" fill="none" stroke="white" stroke-width="1.5" d="M0,-3.0v7 M-2.5,-0.5L0,-3.0L2.5,-0.5"/>
  </g>
  <g id="arrowRight" transform="rotate(90) translate(36 -43)">
    <use xlink:href="#rim"/>
    <path pointer-events="none" fill="none" stroke="white" stroke-width="1.5" d="M0,-3.0v7 M-2.5,-0.5L0,-3.0L2.5,-0.5"/>
  </g>
  <g id="arrowDown" transform="rotate(180) translate(-30 -48)">
    <use xlink:href="#rim"/>
    <path pointer-events="none" fill="none" stroke="white" stroke-width="1.5" d="M0,-3.0v7 M-2.5,-0.5L0,-3.0L2.5,-0.5"/>
  </g>
  <g id="arrowLeft" transform="rotate(270) translate(-36 17)">
    <use xlink:href="#rim"/>
    <path pointer-events="none" fill="none" stroke="white" stroke-width="1.5" d="M0,-3.0v7 M-2.5,-0.5L0,-3.0L2.5,-0.5"/>
  </g>
  <g id="resetDef">
    <use xlink:href="#rim2" fill="#404040"><set attributeName="fill" to="#808080" begin="reset.mouseover" end="reset.mouseout"/></use>
  </g>
</defs>
<script type="application/ecmascript">
var viewWidth = 1370;
var viewHeight = 698;
var sectionId = 'dynsection-1';
</script>
<script type="application/ecmascript" xlink:href="svg.min.js"/>
<svg id="graph" class="graph">
<g id="viewport">
<title>include/meltpooldg/particles/particle_accessor.hpp</title>
<!-- Node1 -->
<g id="Node000001" class="node">
<title>Node1</title>
<g id="a_Node000001"><a xlink:title=" ">
<polygon fill="#999999" stroke="#666666" points="840,-690 730,-690 730,-649 840,-649 840,-690"/>
<text text-anchor="start" x="738" y="-678" font-family="Helvetica,sans-Serif" font-size="10.00">include/meltpooldg</text>
<text text-anchor="start" x="738" y="-667" font-family="Helvetica,sans-Serif" font-size="10.00">/particles/particle</text>
<text text-anchor="middle" x="785" y="-656" font-family="Helvetica,sans-Serif" font-size="10.00">_accessor.hpp</text>
</a>
</g>
</g>
<!-- Node2 -->
<g id="Node000002" class="node">
<title>Node2</title>
<g id="a_Node000002"><a xlink:href="cell__batch__particle__cache_8hpp.html" target="_top" xlink:title=" ">
<polygon fill="white" stroke="#666666" points="310,-459 196,-459 196,-418 310,-418 310,-459"/>
<text text-anchor="start" x="204" y="-447" font-family="Helvetica,sans-Serif" font-size="10.00">include/meltpooldg</text>
<text text-anchor="start" x="204" y="-436" font-family="Helvetica,sans-Serif" font-size="10.00">/particles/cell_batch</text>
<text text-anchor="middle" x="253" y="-425" font-family="Helvetica,sans-Serif" font-size="10.00">_particle_cache.hpp</text>
</a>
</g>
</g>
<!-- Node1&#45;&gt;Node2 -->
<g id="edge1_Node000001_Node000002" class="edge">
<title>Node1&#45;&gt;Node2</title>
<g id="a_edge1_Node000001_Node000002"><a xlink:title=" ">
<path fill="none" stroke="#63b8ff" d="M719.63,-663.12C651.36,-656.24 541.78,-641.62 451,-613 375.35,-589.15 343.8,-594.28 290,-536 269.92,-514.25 260.35,-480.45 256.09,-459.17"/>
<polygon fill="#63b8ff" stroke="#63b8ff" points="719.51,-666.62 729.81,-664.12 720.2,-659.66 719.51,-666.62"/>
</a>
</g>
</g>
<!-- Node5 -->
<g id="Node000005" class="node">
<title>Node5</title>
<g id="a_Node000005"><a xlink:href="brinkman__penalization_8cpp.html" target="_top" xlink:title=" ">
<polygon fill="white" stroke="#666666" points="494,-129 370,-129 370,-88 494,-88 494,-129"/>
<text text-anchor="start" x="378" y="-117" font-family="Helvetica,sans-Serif" font-size="10.00">source/fluid_structure</text>
<text text-anchor="start" x="378" y="-106" font-family="Helvetica,sans-Serif" font-size="10.00">_interaction/brinkman</text>
<text text-anchor="middle" x="432" y="-95" font-family="Helvetica,sans-Serif" font-size="10.00">_penalization.cpp</text>
</a>
</g>
</g>
<!-- Node1&#45;&gt;Node5 -->
<g id="edge52_Node000001_Node000005" class="edge">
<title>Node1&#45;&gt;Node5</title>
<g id="a_edge52_Node000001_Node000005"><a xlink:title=" ">
<path fill="none" stroke="#63b8ff" d="M719.52,-669C537.38,-668.63 38,-655.01 38,-516.5 38,-516.5 38,-516.5 38,-437.5 38,-290.11 106.56,-249.97 227,-165 269.18,-135.24 326.54,-121.43 369.85,-115.03"/>
<polygon fill="#63b8ff" stroke="#63b8ff" points="719.77,-672.5 729.77,-669 719.77,-665.5 719.77,-672.5"/>
</a>
</g>
</g>
<!-- Node7 -->
<g id="Node000007" class="node">
<title>Node7</title>
<g id="a_Node000007"><a xlink:href="cohesive__forces_8hpp.html" target="_top" xlink:title=" ">
<polygon fill="white" stroke="#666666" points="924,-376.5 814,-376.5 814,-335.5 924,-335.5 924,-376.5"/>
<text text-anchor="start" x="822" y="-364.5" font-family="Helvetica,sans-Serif" font-size="10.00">include/meltpooldg</text>
<text text-anchor="start" x="822" y="-353.5" font-family="Helvetica,sans-Serif" font-size="10.00">/particles/cohesive</text>
<text text-anchor="middle" x="869" y="-342.5" font-family="Helvetica,sans-Serif" font-size="10.00">_forces.hpp</text>
</a>
</g>
</g>
<!-- Node1&#45;&gt;Node7 -->
<g id="edge7_Node000001_Node000007" class="edge">
<title>Node1&#45;&gt;Node7</title>
<g id="a_edge7_Node000001_Node000007"><a xlink:title=" ">
<path fill="none" stroke="#63b8ff" d="M797.14,-639.61C813.39,-599.72 841.91,-525.2 857,-459 863.42,-430.84 866.52,-397.47 867.93,-376.77"/>
<polygon fill="#63b8ff" stroke="#63b8ff" points="793.86,-638.4 793.29,-648.98 800.33,-641.06 793.86,-638.4"/>
</a>
</g>
</g>
<!-- Node8 -->
<g id="Node000008" class="node">
<title>Node8</title>
<g id="a_Node000008"><a xlink:href="cohesive__forces_8cpp.html" target="_top" xlink:title=" ">
<polygon fill="white" stroke="#666666" points="939,-288.5 799,-288.5 799,-258.5 939,-258.5 939,-288.5"/>
<text text-anchor="start" x="807" y="-276.5" font-family="Helvetica,sans-Serif" font-size="10.00">source/particles/cohesive</text>
<text text-anchor="middle" x="869" y="-265.5" font-family="Helvetica,sans-Serif" font-size="10.00">_forces.cpp</text>
</a>
</g>
</g>
<!-- Node1&#45;&gt;Node8 -->
<g id="edge53_Node000001_Node000008" class="edge">
<title>Node1&#45;&gt;Node8</title>
<g id="a_edge53_Node000001_Node000008"><a xlink:title=" ">
<path fill="none" stroke="#63b8ff" d="M850.31,-669.02C954.33,-666.04 1146,-643.35 1146,-516.5 1146,-516.5 1146,-516.5 1146,-437.5 1146,-388.98 1160.67,-364.94 1127,-330 1101.49,-303.53 1006.55,-288.43 939.27,-280.86"/>
<polygon fill="#63b8ff" stroke="#63b8ff" points="850.14,-665.52 840.22,-669.25 850.3,-672.52 850.14,-665.52"/>
</a>
</g>
</g>
<!-- Node9 -->
<g id="Node000009" class="node">
<title>Node9</title>
<g id="a_Node000009"><a xlink:href="contact__forces_8hpp.html" target="_top" xlink:title=" ">
<polygon fill="white" stroke="#666666" points="1331.5,-371 1174.5,-371 1174.5,-341 1331.5,-341 1331.5,-371"/>
<text text-anchor="start" x="1182.5" y="-359" font-family="Helvetica,sans-Serif" font-size="10.00">include/meltpooldg</text>
<text text-anchor="middle" x="1253" y="-348" font-family="Helvetica,sans-Serif" font-size="10.00">/particles/contact_forces.hpp</text>
</a>
</g>
</g>
<!-- Node1&#45;&gt;Node9 -->
<g id="edge9_Node000001_Node000009" class="edge">
<title>Node1&#45;&gt;Node9</title>
<g id="a_edge9_Node000001_Node000009"><a xlink:title=" ">
<path fill="none" stroke="#63b8ff" d="M850.21,-666.72C944.78,-662.87 1113.76,-650.75 1160,-613 1237.84,-549.46 1250.53,-415.01 1252.6,-371.16"/>
<polygon fill="#63b8ff" stroke="#63b8ff" points="850.03,-663.23 840.18,-667.11 850.3,-670.22 850.03,-663.23"/>
</a>
</g>
</g>
<!-- Node10 -->
<g id="Node000010" class="node">
<title>Node10</title>
<g id="a_Node000010"><a xlink:href="contact__forces_8cpp.html" target="_top" xlink:title=" ">
<polygon fill="white" stroke="#666666" points="1319.5,-288.5 1186.5,-288.5 1186.5,-258.5 1319.5,-258.5 1319.5,-288.5"/>
<text text-anchor="start" x="1194.5" y="-276.5" font-family="Helvetica,sans-Serif" font-size="10.00">source/particles/contact</text>
<text text-anchor="middle" x="1253" y="-265.5" font-family="Helvetica,sans-Serif" font-size="10.00">_forces.cpp</text>
</a>
</g>
</g>
<!-- Node1&#45;&gt;Node10 -->
<g id="edge54_Node000001_Node000010" class="edge">
<title>Node1&#45;&gt;Node10</title>
<g id="a_edge54_Node000001_Node000010"><a xlink:title=" ">
<path fill="none" stroke="#63b8ff" d="M850.18,-665.04C1000.75,-655.25 1360,-620.97 1360,-516.5 1360,-516.5 1360,-516.5 1360,-437.5 1360,-388.98 1368.06,-370.27 1341,-330 1328.41,-311.26 1307.13,-297.59 1288.66,-288.5"/>
<polygon fill="#63b8ff" stroke="#63b8ff" points="849.89,-661.55 840.13,-665.67 850.33,-668.53 849.89,-661.55"/>
</a>
</g>
</g>
<!-- Node11 -->
<g id="Node000011" class="node">
<title>Node11</title>
<g id="a_Node000011"><a xlink:href="dem__time__integrators_8hpp.html" target="_top" xlink:title=" ">
<polygon fill="white" stroke="#666666" points="738,-536 624,-536 624,-495 738,-495 738,-536"/>
<text text-anchor="start" x="632" y="-524" font-family="Helvetica,sans-Serif" font-size="10.00">include/meltpooldg</text>
<text text-anchor="start" x="632" y="-513" font-family="Helvetica,sans-Serif" font-size="10.00">/particles/dem_time</text>
<text text-anchor="middle" x="681" y="-502" font-family="Helvetica,sans-Serif" font-size="10.00">_integrators.hpp</text>
</a>
</g>
</g>
<!-- Node1&#45;&gt;Node11 -->
<g id="edge11_Node000001_Node000011" class="edge">
<title>Node1&#45;&gt;Node11</title>
<g id="a_edge11_Node000001_Node000011"><a xlink:title=" ">
<path fill="none" stroke="#63b8ff" d="M765.87,-640.54C745.23,-610.38 712.88,-563.1 694.66,-536.47"/>
<polygon fill="#63b8ff" stroke="#63b8ff" points="763.08,-642.66 771.62,-648.94 768.86,-638.71 763.08,-642.66"/>
</a>
</g>
</g>
<!-- Node12 -->
<g id="Node000012" class="node">
<title>Node12</title>
<g id="a_Node000012"><a xlink:href="obstacle__field_8hpp.html" target="_top" xlink:title=" ">
<polygon fill="white" stroke="#666666" points="720,-459 610,-459 610,-418 720,-418 720,-459"/>
<text text-anchor="start" x="618" y="-447" font-family="Helvetica,sans-Serif" font-size="10.00">include/meltpooldg</text>
<text text-anchor="start" x="618" y="-436" font-family="Helvetica,sans-Serif" font-size="10.00">/particles/obstacle</text>
<text text-anchor="middle" x="665" y="-425" font-family="Helvetica,sans-Serif" font-size="10.00">_field.hpp</text>
</a>
</g>
</g>
<!-- Node1&#45;&gt;Node12 -->
<g id="edge36_Node000001_Node000012" class="edge">
<title>Node1&#45;&gt;Node12</title>
<g id="a_edge36_Node000001_Node000012"><a xlink:title=" ">
<path fill="none" stroke="#63b8ff" d="M781.21,-638.88C775.24,-595.72 762.7,-518.17 747,-495 736.87,-480.06 721.26,-468.04 706.36,-459.05"/>
<polygon fill="#63b8ff" stroke="#63b8ff" points="777.74,-639.36 782.55,-648.8 784.68,-638.43 777.74,-639.36"/>
</a>
</g>
</g>
<!-- Node18 -->
<g id="Node000018" class="node">
<title>Node18</title>
<g id="a_Node000018"><a xlink:href="obstacle__field_8cpp.html" target="_top" xlink:title=" ">
<polygon fill="white" stroke="#666666" points="1118,-371 980,-371 980,-341 1118,-341 1118,-371"/>
<text text-anchor="start" x="988" y="-359" font-family="Helvetica,sans-Serif" font-size="10.00">source/particles/obstacle</text>
<text text-anchor="middle" x="1049" y="-348" font-family="Helvetica,sans-Serif" font-size="10.00">_field.cpp</text>
</a>
</g>
</g>
<!-- Node1&#45;&gt;Node18 -->
<g id="edge55_Node000001_Node000018" class="edge">
<title>Node1&#45;&gt;Node18</title>
<g id="a_edge55_Node000001_Node000018"><a xlink:title=" ">
<path fill="none" stroke="#63b8ff" d="M808.45,-640.83C862.88,-576.6 996.24,-419.25 1036.98,-371.18"/>
<polygon fill="#63b8ff" stroke="#63b8ff" points="805.71,-638.65 801.92,-648.54 811.05,-643.17 805.71,-638.65"/>
</a>
</g>
</g>
<!-- Node19 -->
<g id="Node000019" class="node">
<title>Node19</title>
<g id="a_Node000019"><a xlink:href="obstacle__forces_8hpp.html" target="_top" xlink:title=" ">
<polygon fill="white" stroke="#666666" points="409,-536 299,-536 299,-495 409,-495 409,-536"/>
<text text-anchor="start" x="307" y="-524" font-family="Helvetica,sans-Serif" font-size="10.00">include/meltpooldg</text>
<text text-anchor="start" x="307" y="-513" font-family="Helvetica,sans-Serif" font-size="10.00">/particles/obstacle</text>
<text text-anchor="middle" x="354" y="-502" font-family="Helvetica,sans-Serif" font-size="10.00">_forces.hpp</text>
</a>
</g>
</g>
<!-- Node1&#45;&gt;Node19 -->
<g id="edge37_Node000001_Node000019" class="edge">
<title>Node1&#45;&gt;Node19</title>
<g id="a_edge37_Node000001_Node000019"><a xlink:title=" ">
<path fill="none" stroke="#63b8ff" d="M719.44,-657.75C670.5,-648.67 602.44,-633.81 545,-613 487.02,-592 423.92,-557.66 386.72,-536.11"/>
<polygon fill="#63b8ff" stroke="#63b8ff" points="719.12,-661.25 729.59,-659.6 720.38,-654.36 719.12,-661.25"/>
</a>
</g>
</g>
<!-- Node20 -->
<g id="Node000020" class="node">
<title>Node20</title>
<g id="a_Node000020"><a xlink:href="particle__iterator_8hpp.html" target="_top" xlink:title=" ">
<polygon fill="white" stroke="#666666" points="664,-613 554,-613 554,-572 664,-572 664,-613"/>
<text text-anchor="start" x="562" y="-601" font-family="Helvetica,sans-Serif" font-size="10.00">include/meltpooldg</text>
<text text-anchor="start" x="562" y="-590" font-family="Helvetica,sans-Serif" font-size="10.00">/particles/particle</text>
<text text-anchor="middle" x="609" y="-579" font-family="Helvetica,sans-Serif" font-size="10.00">_iterator.hpp</text>
</a>
</g>
</g>
<!-- Node1&#45;&gt;Node20 -->
<g id="edge42_Node000001_Node000020" class="edge">
<title>Node1&#45;&gt;Node20</title>
<g id="a_edge42_Node000001_Node000020"><a xlink:title=" ">
<path fill="none" stroke="#63b8ff" d="M729.84,-645C705.74,-634.72 677.8,-622.82 654.86,-613.04"/>
<polygon fill="#63b8ff" stroke="#63b8ff" points="728.65,-648.29 739.22,-648.99 731.39,-641.85 728.65,-648.29"/>
</a>
</g>
</g>
<!-- Node23 -->
<g id="Node000023" class="node">
<title>Node23</title>
<g id="a_Node000023"><a xlink:href="particle__tools_8hpp.html" target="_top" xlink:title=" ">
<polygon fill="white" stroke="#666666" points="848,-459 738,-459 738,-418 848,-418 848,-459"/>
<text text-anchor="start" x="746" y="-447" font-family="Helvetica,sans-Serif" font-size="10.00">include/meltpooldg</text>
<text text-anchor="start" x="746" y="-436" font-family="Helvetica,sans-Serif" font-size="10.00">/particles/particle</text>
<text text-anchor="middle" x="793" y="-425" font-family="Helvetica,sans-Serif" font-size="10.00">_tools.hpp</text>
</a>
</g>
</g>
<!-- Node1&#45;&gt;Node23 -->
<g id="edge49_Node000001_Node000023" class="edge">
<title>Node1&#45;&gt;Node23</title>
<g id="a_edge49_Node000001_Node000023"><a xlink:title=" ">
<path fill="none" stroke="#63b8ff" d="M786.04,-638.73C787.7,-591.23 790.9,-499.57 792.31,-459.3"/>
<polygon fill="#63b8ff" stroke="#63b8ff" points="782.53,-638.86 785.68,-648.98 789.53,-639.1 782.53,-638.86"/>
</a>
</g>
</g>
<!-- Node3 -->
<g id="Node000003" class="node">
<title>Node3</title>
<g id="a_Node000003"><a xlink:href="brinkman__penalization_8hpp.html" target="_top" xlink:title=" ">
<polygon fill="white" stroke="#666666" points="404,-211.5 252,-211.5 252,-170.5 404,-170.5 404,-211.5"/>
<text text-anchor="start" x="260" y="-199.5" font-family="Helvetica,sans-Serif" font-size="10.00">include/meltpooldg</text>
<text text-anchor="start" x="260" y="-188.5" font-family="Helvetica,sans-Serif" font-size="10.00">/fluid_structure_interaction</text>
<text text-anchor="middle" x="328" y="-177.5" font-family="Helvetica,sans-Serif" font-size="10.00">/brinkman_penalization.hpp</text>
</a>
</g>
</g>
<!-- Node2&#45;&gt;Node3 -->
<g id="edge2_Node000002_Node000003" class="edge">
<title>Node2&#45;&gt;Node3</title>
<g id="a_edge2_Node000002_Node000003"><a xlink:title=" ">
<path fill="none" stroke="#63b8ff" d="M199.7,-412.48C188.2,-404.44 177.55,-394.34 171,-382 160.17,-361.59 161.47,-351.06 171,-330 195.53,-275.78 253.06,-234.39 291.25,-211.65"/>
<polygon fill="#63b8ff" stroke="#63b8ff" points="197.88,-415.47 208.17,-417.97 201.68,-409.59 197.88,-415.47"/>
</a>
</g>
</g>
<!-- Node4 -->
<g id="Node000004" class="node">
<title>Node4</title>
<g id="a_Node000004"><a xlink:href="fluid__structure__interaction__factory_8hpp.html" target="_top" xlink:title=" ">
<polygon fill="white" stroke="#666666" points="278.5,-52 131.5,-52 131.5,0 278.5,0 278.5,-52"/>
<text text-anchor="start" x="139.5" y="-40" font-family="Helvetica,sans-Serif" font-size="10.00">include/meltpooldg</text>
<text text-anchor="start" x="139.5" y="-29" font-family="Helvetica,sans-Serif" font-size="10.00">/fluid_structure_interaction</text>
<text text-anchor="start" x="139.5" y="-18" font-family="Helvetica,sans-Serif" font-size="10.00">/fluid_structure_interaction</text>
<text text-anchor="middle" x="205" y="-7" font-family="Helvetica,sans-Serif" font-size="10.00">_factory.hpp</text>
</a>
</g>
</g>
<!-- Node2&#45;&gt;Node4 -->
<g id="edge5_Node000002_Node000004" class="edge">
<title>Node2&#45;&gt;Node4</title>
<g id="a_edge5_Node000002_Node000004"><a xlink:title=" ">
<path fill="none" stroke="#63b8ff" d="M197.91,-412.73C184.13,-404.5 170.35,-394.25 160,-382 109.24,-321.91 110.47,-294.31 96,-217 91.75,-194.28 88.42,-186.83 96,-165 111.83,-119.43 149.64,-77.54 176.27,-52.15"/>
<polygon fill="#63b8ff" stroke="#63b8ff" points="196.49,-415.95 206.92,-417.84 199.95,-409.86 196.49,-415.95"/>
</a>
</g>
</g>
<!-- Node6 -->
<g id="Node000006" class="node">
<title>Node6</title>
<g id="a_Node000006"><a xlink:href="cell__batch__particle__cache_8cpp.html" target="_top" xlink:title=" ">
<polygon fill="white" stroke="#666666" points="325.5,-371 180.5,-371 180.5,-341 325.5,-341 325.5,-371"/>
<text text-anchor="start" x="188.5" y="-359" font-family="Helvetica,sans-Serif" font-size="10.00">source/particles/cell</text>
<text text-anchor="middle" x="253" y="-348" font-family="Helvetica,sans-Serif" font-size="10.00">_batch_particle_cache.cpp</text>
</a>
</g>
</g>
<!-- Node2&#45;&gt;Node6 -->
<g id="edge6_Node000002_Node000006" class="edge">
<title>Node2&#45;&gt;Node6</title>
<g id="a_edge6_Node000002_Node000006"><a xlink:title=" ">
<path fill="none" stroke="#63b8ff" d="M253,-407.26C253,-394.96 253,-381.33 253,-371.37"/>
<polygon fill="#63b8ff" stroke="#63b8ff" points="249.5,-407.6 253,-417.6 256.5,-407.6 249.5,-407.6"/>
</a>
</g>
</g>
<!-- Node3&#45;&gt;Node4 -->
<g id="edge3_Node000003_Node000004" class="edge">
<title>Node3&#45;&gt;Node4</title>
<g id="a_edge3_Node000003_Node000004"><a xlink:title=" ">
<path fill="none" stroke="#63b8ff" d="M306.98,-162.14C283.66,-131.23 246.36,-81.81 223.92,-52.07"/>
<polygon fill="#63b8ff" stroke="#63b8ff" points="304.35,-164.46 313.16,-170.34 309.93,-160.25 304.35,-164.46"/>
</a>
</g>
</g>
<!-- Node3&#45;&gt;Node5 -->
<g id="edge4_Node000003_Node000005" class="edge">
<title>Node3&#45;&gt;Node5</title>
<g id="a_edge4_Node000003_Node000005"><a xlink:title=" ">
<path fill="none" stroke="#63b8ff" d="M361.71,-163.91C376.25,-152.65 392.97,-139.71 406.46,-129.27"/>
<polygon fill="#63b8ff" stroke="#63b8ff" points="359.21,-161.42 353.44,-170.31 363.49,-166.95 359.21,-161.42"/>
</a>
</g>
</g>
<!-- Node7&#45;&gt;Node8 -->
<g id="edge8_Node000007_Node000008" class="edge">
<title>Node7&#45;&gt;Node8</title>
<g id="a_edge8_Node000007_Node000008"><a xlink:title=" ">
<path fill="none" stroke="#63b8ff" d="M869,-324.76C869,-312.46 869,-298.83 869,-288.87"/>
<polygon fill="#63b8ff" stroke="#63b8ff" points="865.5,-325.1 869,-335.1 872.5,-325.1 865.5,-325.1"/>
</a>
</g>
</g>
<!-- Node9&#45;&gt;Node10 -->
<g id="edge10_Node000009_Node000010" class="edge">
<title>Node9&#45;&gt;Node10</title>
<g id="a_edge10_Node000009_Node000010"><a xlink:title=" ">
<path fill="none" stroke="#63b8ff" d="M1253,-330.74C1253,-316.98 1253,-300.25 1253,-288.63"/>
<polygon fill="#63b8ff" stroke="#63b8ff" points="1249.5,-330.98 1253,-340.98 1256.5,-330.98 1249.5,-330.98"/>
</a>
</g>
</g>
<!-- Node11&#45;&gt;Node12 -->
<g id="edge12_Node000011_Node000012" class="edge">
<title>Node11&#45;&gt;Node12</title>
<g id="a_edge12_Node000011_Node000012"><a xlink:title=" ">
<path fill="none" stroke="#63b8ff" d="M674.7,-484.98C672.85,-476.28 670.86,-466.98 669.18,-459.07"/>
<polygon fill="#63b8ff" stroke="#63b8ff" points="671.29,-485.74 676.8,-494.79 678.13,-484.28 671.29,-485.74"/>
</a>
</g>
</g>
<!-- Node12&#45;&gt;Node3 -->
<g id="edge13_Node000012_Node000003" class="edge">
<title>Node12&#45;&gt;Node3</title>
<g id="a_edge13_Node000012_Node000003"><a xlink:title=" ">
<path fill="none" stroke="#63b8ff" d="M599.75,-420.77C536.24,-404.47 449.21,-382.13 449,-382 423.68,-365.93 427.49,-350.92 406,-330 387.4,-311.89 374.77,-315.35 360,-294 342.47,-268.67 334.22,-233.3 330.58,-211.56"/>
<polygon fill="#63b8ff" stroke="#63b8ff" points="599.17,-424.23 609.73,-423.33 600.91,-417.45 599.17,-424.23"/>
</a>
</g>
</g>
<!-- Node12&#45;&gt;Node4 -->
<g id="edge14_Node000012_Node000004" class="edge">
<title>Node12&#45;&gt;Node4</title>
<g id="a_edge14_Node000012_Node000004"><a xlink:title=" ">
<path fill="none" stroke="#63b8ff" d="M600.01,-420.56C596.29,-419.68 592.6,-418.82 589,-418 508.15,-399.69 479.03,-421.22 406,-382 360.59,-357.61 267.18,-262.52 243,-217 214.35,-163.08 207.23,-90.11 205.5,-52.21"/>
<polygon fill="#63b8ff" stroke="#63b8ff" points="599.34,-424 609.88,-422.97 600.99,-417.2 599.34,-424"/>
</a>
</g>
</g>
<!-- Node12&#45;&gt;Node5 -->
<g id="edge30_Node000012_Node000005" class="edge">
<title>Node12&#45;&gt;Node5</title>
<g id="a_edge30_Node000012_Node000005"><a xlink:title=" ">
<path fill="none" stroke="#63b8ff" d="M667.95,-407.76C670.22,-367.83 668.09,-296.85 631,-253 600.76,-217.26 569.43,-245.12 532,-217 509.11,-199.81 513.21,-186.22 494,-165 482.46,-152.26 468.25,-139.37 456.35,-129.22"/>
<polygon fill="#63b8ff" stroke="#63b8ff" points="664.44,-407.69 667.24,-417.91 671.43,-408.18 664.44,-407.69"/>
</a>
</g>
</g>
<!-- Node12&#45;&gt;Node6 -->
<g id="edge32_Node000012_Node000006" class="edge">
<title>Node12&#45;&gt;Node6</title>
<g id="a_edge32_Node000012_Node000006"><a xlink:title=" ">
<path fill="none" stroke="#63b8ff" d="M600.03,-420.46C596.31,-419.59 592.61,-418.77 589,-418 495.96,-398.16 471.54,-399.33 378,-382 359.61,-378.59 339.74,-374.71 321.38,-371.04"/>
<polygon fill="#63b8ff" stroke="#63b8ff" points="599.38,-423.9 609.92,-422.8 601,-417.09 599.38,-423.9"/>
</a>
</g>
</g>
<!-- Node12&#45;&gt;Node7 -->
<g id="edge28_Node000012_Node000007" class="edge">
<title>Node12&#45;&gt;Node7</title>
<g id="a_edge28_Node000012_Node000007"><a xlink:title=" ">
<path fill="none" stroke="#63b8ff" d="M724.22,-414.13C754.44,-402.21 790.78,-387.87 819.49,-376.54"/>
<polygon fill="#63b8ff" stroke="#63b8ff" points="722.66,-410.98 714.64,-417.91 725.23,-417.5 722.66,-410.98"/>
</a>
</g>
</g>
<!-- Node12&#45;&gt;Node8 -->
<g id="edge33_Node000012_Node000008" class="edge">
<title>Node12&#45;&gt;Node8</title>
<g id="a_edge33_Node000012_Node000008"><a xlink:title=" ">
<path fill="none" stroke="#63b8ff" d="M697.63,-411.43C741.33,-376.51 817.29,-315.82 851.46,-288.52"/>
<polygon fill="#63b8ff" stroke="#63b8ff" points="695.23,-408.86 689.61,-417.84 699.6,-414.33 695.23,-408.86"/>
</a>
</g>
</g>
<!-- Node12&#45;&gt;Node9 -->
<g id="edge29_Node000012_Node000009" class="edge">
<title>Node12&#45;&gt;Node9</title>
<g id="a_edge29_Node000012_Node000009"><a xlink:title=" ">
<path fill="none" stroke="#63b8ff" d="M730.37,-417.94C905.14,-384.79 954.46,-406.85 1127,-382 1147.31,-379.08 1169.29,-375.02 1189.13,-371.03"/>
<polygon fill="#63b8ff" stroke="#63b8ff" points="729.48,-414.55 720.33,-419.88 730.81,-421.42 729.48,-414.55"/>
</a>
</g>
</g>
<!-- Node12&#45;&gt;Node10 -->
<g id="edge34_Node000012_Node000010" class="edge">
<title>Node12&#45;&gt;Node10</title>
<g id="a_edge34_Node000012_Node000010"><a xlink:title=" ">
<path fill="none" stroke="#63b8ff" d="M729.93,-418.03C821.06,-398.78 857.53,-429.02 933,-382 957.29,-366.86 946.86,-345.37 971,-330 1005.99,-307.72 1114.46,-290.97 1186.22,-281.97"/>
<polygon fill="#63b8ff" stroke="#63b8ff" points="729.02,-414.65 720.04,-420.27 730.57,-421.48 729.02,-414.65"/>
</a>
</g>
</g>
<!-- Node13 -->
<g id="Node000013" class="node">
<title>Node13</title>
<g id="a_Node000013"><a xlink:href="fluid__structure__interaction__util_8hpp.html" target="_top" xlink:title=" ">
<polygon fill="white" stroke="#666666" points="605.5,-382 458.5,-382 458.5,-330 605.5,-330 605.5,-382"/>
<text text-anchor="start" x="466.5" y="-370" font-family="Helvetica,sans-Serif" font-size="10.00">include/meltpooldg</text>
<text text-anchor="start" x="466.5" y="-359" font-family="Helvetica,sans-Serif" font-size="10.00">/fluid_structure_interaction</text>
<text text-anchor="start" x="466.5" y="-348" font-family="Helvetica,sans-Serif" font-size="10.00">/fluid_structure_interaction</text>
<text text-anchor="middle" x="532" y="-337" font-family="Helvetica,sans-Serif" font-size="10.00">_util.hpp</text>
</a>
</g>
</g>
<!-- Node12&#45;&gt;Node13 -->
<g id="edge15_Node000012_Node000013" class="edge">
<title>Node12&#45;&gt;Node13</title>
<g id="a_edge15_Node000012_Node000013"><a xlink:title=" ">
<path fill="none" stroke="#63b8ff" d="M623.88,-412.61C607.96,-402.97 589.75,-391.95 573.76,-382.28"/>
<polygon fill="#63b8ff" stroke="#63b8ff" points="622.1,-415.62 632.46,-417.81 625.72,-409.64 622.1,-415.62"/>
</a>
</g>
</g>
<!-- Node16 -->
<g id="Node000016" class="node">
<title>Node16</title>
<g id="a_Node000016"><a xlink:href="stokes__law_8hpp.html" target="_top" xlink:title=" ">
<polygon fill="white" stroke="#666666" points="753.5,-129 606.5,-129 606.5,-88 753.5,-88 753.5,-129"/>
<text text-anchor="start" x="614.5" y="-117" font-family="Helvetica,sans-Serif" font-size="10.00">include/meltpooldg</text>
<text text-anchor="start" x="614.5" y="-106" font-family="Helvetica,sans-Serif" font-size="10.00">/fluid_structure_interaction</text>
<text text-anchor="middle" x="680" y="-95" font-family="Helvetica,sans-Serif" font-size="10.00">/stokes_law.hpp</text>
</a>
</g>
</g>
<!-- Node12&#45;&gt;Node16 -->
<g id="edge27_Node000012_Node000016" class="edge">
<title>Node12&#45;&gt;Node16</title>
<g id="a_edge27_Node000012_Node000016"><a xlink:title=" ">
<path fill="none" stroke="#63b8ff" d="M673.4,-407.77C679.55,-386.16 688.16,-356.23 696,-330 711.06,-279.63 723.13,-268.98 731,-217 734.46,-194.15 739.39,-186.53 731,-165 725.63,-151.22 715.06,-138.79 704.94,-129.21"/>
<polygon fill="#63b8ff" stroke="#63b8ff" points="669.96,-407.08 670.6,-417.65 676.7,-408.99 669.96,-407.08"/>
</a>
</g>
</g>
<!-- Node17 -->
<g id="Node000017" class="node">
<title>Node17</title>
<g id="a_Node000017"><a xlink:href="stokes__law_8cpp.html" target="_top" xlink:title=" ">
<polygon fill="white" stroke="#666666" points="704.5,-41 553.5,-41 553.5,-11 704.5,-11 704.5,-41"/>
<text text-anchor="start" x="561.5" y="-29" font-family="Helvetica,sans-Serif" font-size="10.00">source/fluid_structure</text>
<text text-anchor="middle" x="629" y="-18" font-family="Helvetica,sans-Serif" font-size="10.00">_interaction/stokes_law.cpp</text>
</a>
</g>
</g>
<!-- Node12&#45;&gt;Node17 -->
<g id="edge31_Node000012_Node000017" class="edge">
<title>Node12&#45;&gt;Node17</title>
<g id="a_edge31_Node000012_Node000017"><a xlink:title=" ">
<path fill="none" stroke="#63b8ff" d="M682,-409.01C686.8,-400.46 691.84,-390.97 696,-382 752.36,-260.41 835.52,-200.7 763,-88 747.92,-64.57 721.39,-50.03 695.89,-41.07"/>
<polygon fill="#63b8ff" stroke="#63b8ff" points="678.87,-407.42 676.93,-417.84 684.94,-410.9 678.87,-407.42"/>
</a>
</g>
</g>
<!-- Node12&#45;&gt;Node18 -->
<g id="edge35_Node000012_Node000018" class="edge">
<title>Node12&#45;&gt;Node18</title>
<g id="a_edge35_Node000012_Node000018"><a xlink:title=" ">
<path fill="none" stroke="#63b8ff" d="M730.05,-417.94C834.73,-395.05 865.21,-404.71 966,-382 979.36,-378.99 993.71,-374.96 1006.66,-371.02"/>
<polygon fill="#63b8ff" stroke="#63b8ff" points="729.02,-414.58 720.02,-420.18 730.54,-421.42 729.02,-414.58"/>
</a>
</g>
</g>
<!-- Node13&#45;&gt;Node3 -->
<g id="edge16_Node000013_Node000003" class="edge">
<title>Node13&#45;&gt;Node3</title>
<g id="a_edge16_Node000013_Node000003"><a xlink:title=" ">
<path fill="none" stroke="#63b8ff" d="M450.89,-325.65C433.06,-317.05 415.03,-306.52 400,-294 372.02,-270.69 349.76,-234.05 337.76,-211.61"/>
<polygon fill="#63b8ff" stroke="#63b8ff" points="449.64,-328.92 460.18,-329.97 452.59,-322.58 449.64,-328.92"/>
</a>
</g>
</g>
<!-- Node13&#45;&gt;Node5 -->
<g id="edge26_Node000013_Node000005" class="edge">
<title>Node13&#45;&gt;Node5</title>
<g id="a_edge26_Node000013_Node000005"><a xlink:title=" ">
<path fill="none" stroke="#63b8ff" d="M461.52,-324.27C450.1,-316.11 439.8,-306.11 433,-294 403.1,-240.8 417.15,-164.61 426.29,-129.11"/>
<polygon fill="#63b8ff" stroke="#63b8ff" points="459.74,-327.29 470.01,-329.89 463.6,-321.45 459.74,-327.29"/>
</a>
</g>
</g>
<!-- Node14 -->
<g id="Node000014" class="node">
<title>Node14</title>
<g id="a_Node000014"><a xlink:href="brinkman__penalization__data_8hpp.html" target="_top" xlink:title=" ">
<polygon fill="white" stroke="#666666" points="621.5,-294 442.5,-294 442.5,-253 621.5,-253 621.5,-294"/>
<text text-anchor="start" x="450.5" y="-282" font-family="Helvetica,sans-Serif" font-size="10.00">include/meltpooldg</text>
<text text-anchor="start" x="450.5" y="-271" font-family="Helvetica,sans-Serif" font-size="10.00">/fluid_structure_interaction</text>
<text text-anchor="middle" x="532" y="-260" font-family="Helvetica,sans-Serif" font-size="10.00">/brinkman_penalization_data.hpp</text>
</a>
</g>
</g>
<!-- Node13&#45;&gt;Node14 -->
<g id="edge17_Node000013_Node000014" class="edge">
<title>Node13&#45;&gt;Node14</title>
<g id="a_edge17_Node000013_Node000014"><a xlink:title=" ">
<path fill="none" stroke="#63b8ff" d="M532,-319.87C532,-311.05 532,-301.9 532,-294.15"/>
<polygon fill="#63b8ff" stroke="#63b8ff" points="528.5,-319.97 532,-329.97 535.5,-319.97 528.5,-319.97"/>
</a>
</g>
</g>
<!-- Node14&#45;&gt;Node3 -->
<g id="edge18_Node000014_Node000003" class="edge">
<title>Node14&#45;&gt;Node3</title>
<g id="a_edge18_Node000014_Node000003"><a xlink:title=" ">
<path fill="none" stroke="#63b8ff" d="M472.78,-249.13C442.56,-237.21 406.22,-222.87 377.51,-211.54"/>
<polygon fill="#63b8ff" stroke="#63b8ff" points="471.77,-252.5 482.36,-252.91 474.34,-245.98 471.77,-252.5"/>
</a>
</g>
</g>
<!-- Node14&#45;&gt;Node5 -->
<g id="edge25_Node000014_Node000005" class="edge">
<title>Node14&#45;&gt;Node5</title>
<g id="a_edge25_Node000014_Node000005"><a xlink:title=" ">
<path fill="none" stroke="#63b8ff" d="M512.29,-244.62C506.28,-235.87 499.74,-226.12 494,-217 475.06,-186.91 454.78,-150.95 442.75,-129.19"/>
<polygon fill="#63b8ff" stroke="#63b8ff" points="509.51,-246.75 518.08,-252.97 515.26,-242.76 509.51,-246.75"/>
</a>
</g>
</g>
<!-- Node15 -->
<g id="Node000015" class="node">
<title>Node15</title>
<g id="a_Node000015"><a xlink:href="fluid__structure__interaction__data_8hpp.html" target="_top" xlink:title=" ">
<polygon fill="white" stroke="#666666" points="721.5,-217 574.5,-217 574.5,-165 721.5,-165 721.5,-217"/>
<text text-anchor="start" x="582.5" y="-205" font-family="Helvetica,sans-Serif" font-size="10.00">include/meltpooldg</text>
<text text-anchor="start" x="582.5" y="-194" font-family="Helvetica,sans-Serif" font-size="10.00">/fluid_structure_interaction</text>
<text text-anchor="start" x="582.5" y="-183" font-family="Helvetica,sans-Serif" font-size="10.00">/fluid_structure_interaction</text>
<text text-anchor="middle" x="648" y="-172" font-family="Helvetica,sans-Serif" font-size="10.00">_data.hpp</text>
</a>
</g>
</g>
<!-- Node14&#45;&gt;Node15 -->
<g id="edge19_Node000014_Node000015" class="edge">
<title>Node14&#45;&gt;Node15</title>
<g id="a_edge19_Node000014_Node000015"><a xlink:title=" ">
<path fill="none" stroke="#63b8ff" d="M568.64,-247.08C582.34,-237.57 597.89,-226.77 611.58,-217.28"/>
<polygon fill="#63b8ff" stroke="#63b8ff" points="566.6,-244.23 560.38,-252.81 570.59,-249.98 566.6,-244.23"/>
</a>
</g>
</g>
<!-- Node15&#45;&gt;Node4 -->
<g id="edge20_Node000015_Node000004" class="edge">
<title>Node15&#45;&gt;Node4</title>
<g id="a_edge20_Node000015_Node000004"><a xlink:title=" ">
<path fill="none" stroke="#63b8ff" d="M612.01,-158.29C584.12,-135.37 543.51,-105.48 503,-88 430.27,-56.61 340.46,-41.06 278.56,-33.57"/>
<polygon fill="#63b8ff" stroke="#63b8ff" points="609.96,-161.14 619.89,-164.85 614.45,-155.76 609.96,-161.14"/>
</a>
</g>
</g>
<!-- Node15&#45;&gt;Node16 -->
<g id="edge21_Node000015_Node000016" class="edge">
<title>Node15&#45;&gt;Node16</title>
<g id="a_edge21_Node000015_Node000016"><a xlink:title=" ">
<path fill="none" stroke="#63b8ff" d="M661.73,-155.45C665.31,-146.45 669.04,-137.07 672.19,-129.15"/>
<polygon fill="#63b8ff" stroke="#63b8ff" points="658.39,-154.38 657.95,-164.97 664.9,-156.97 658.39,-154.38"/>
</a>
</g>
</g>
<!-- Node15&#45;&gt;Node17 -->
<g id="edge24_Node000015_Node000017" class="edge">
<title>Node15&#45;&gt;Node17</title>
<g id="a_edge24_Node000015_Node000017"><a xlink:title=" ">
<path fill="none" stroke="#63b8ff" d="M614.33,-157.14C607.65,-148.66 601.6,-139.06 598,-129 586.97,-98.15 606.01,-61.2 618.82,-41.33"/>
<polygon fill="#63b8ff" stroke="#63b8ff" points="611.74,-159.51 620.86,-164.91 617.1,-155 611.74,-159.51"/>
</a>
</g>
</g>
<!-- Node16&#45;&gt;Node4 -->
<g id="edge22_Node000016_Node000004" class="edge">
<title>Node16&#45;&gt;Node4</title>
<g id="a_edge22_Node000016_Node000004"><a xlink:title=" ">
<path fill="none" stroke="#63b8ff" d="M596.41,-93.33C506.49,-78.09 364.84,-54.09 278.87,-39.52"/>
<polygon fill="#63b8ff" stroke="#63b8ff" points="595.86,-96.79 606.3,-95.01 597.03,-89.89 595.86,-96.79"/>
</a>
</g>
</g>
<!-- Node16&#45;&gt;Node17 -->
<g id="edge23_Node000016_Node000017" class="edge">
<title>Node16&#45;&gt;Node17</title>
<g id="a_edge23_Node000016_Node000017"><a xlink:title=" ">
<path fill="none" stroke="#63b8ff" d="M662.02,-79.11C653.93,-66.35 644.73,-51.83 638.1,-41.37"/>
<polygon fill="#63b8ff" stroke="#63b8ff" points="659.08,-81.03 667.39,-87.6 665,-77.28 659.08,-81.03"/>
</a>
</g>
</g>
<!-- Node19&#45;&gt;Node4 -->
<g id="edge38_Node000019_Node000004" class="edge">
<title>Node19&#45;&gt;Node4</title>
<g id="a_edge38_Node000019_Node000004"><a xlink:title=" ">
<path fill="none" stroke="#63b8ff" d="M288.61,-506.49C223.54,-497.42 129.28,-481.01 100,-459 25.45,-402.95 0,-367.77 0,-274.5 0,-274.5 0,-274.5 0,-190 0,-120.77 72.51,-76.23 131.28,-51.51"/>
<polygon fill="#63b8ff" stroke="#63b8ff" points="288.41,-509.99 298.79,-507.88 289.36,-503.06 288.41,-509.99"/>
</a>
</g>
</g>
<!-- Node19&#45;&gt;Node5 -->
<g id="edge40_Node000019_Node000005" class="edge">
<title>Node19&#45;&gt;Node5</title>
<g id="a_edge40_Node000019_Node000005"><a xlink:title=" ">
<path fill="none" stroke="#63b8ff" d="M355.81,-484.49C356.96,-446.9 355.22,-381.2 334,-330 301.93,-252.64 192.81,-232.04 243,-165 258.37,-144.47 320.62,-128.94 369.53,-119.61"/>
<polygon fill="#63b8ff" stroke="#63b8ff" points="352.3,-484.63 355.4,-494.76 359.29,-484.91 352.3,-484.63"/>
</a>
</g>
</g>
<!-- Node19&#45;&gt;Node12 -->
<g id="edge39_Node000019_Node000012" class="edge">
<title>Node19&#45;&gt;Node12</title>
<g id="a_edge39_Node000019_Node000012"><a xlink:title=" ">
<path fill="none" stroke="#63b8ff" d="M418.94,-499.52C466.17,-488.53 531.62,-473.14 589,-459 595.75,-457.34 602.82,-455.56 609.82,-453.79"/>
<polygon fill="#63b8ff" stroke="#63b8ff" points="418.1,-496.12 409.15,-501.79 419.68,-502.94 418.1,-496.12"/>
</a>
</g>
</g>
<!-- Node19&#45;&gt;Node17 -->
<g id="edge41_Node000019_Node000017" class="edge">
<title>Node19&#45;&gt;Node17</title>
<g id="a_edge41_Node000019_Node000017"><a xlink:title=" ">
<path fill="none" stroke="#63b8ff" d="M288.7,-506.76C254.48,-499.57 214.16,-485.72 187,-459 92.99,-366.52 140.3,-264.36 227,-165 310.08,-69.79 461.9,-40.21 553.31,-31.05"/>
<polygon fill="#63b8ff" stroke="#63b8ff" points="288.15,-510.22 298.63,-508.7 289.49,-503.35 288.15,-510.22"/>
</a>
</g>
</g>
<!-- Node20&#45;&gt;Node11 -->
<g id="edge43_Node000020_Node000011" class="edge">
<title>Node20&#45;&gt;Node11</title>
<g id="a_edge43_Node000020_Node000011"><a xlink:title=" ">
<path fill="none" stroke="#63b8ff" d="M634.91,-564.51C643.93,-555.11 653.87,-544.76 662.21,-536.07"/>
<polygon fill="#63b8ff" stroke="#63b8ff" points="632.32,-562.16 627.92,-571.79 637.37,-567 632.32,-562.16"/>
</a>
</g>
</g>
<!-- Node20&#45;&gt;Node12 -->
<g id="edge48_Node000020_Node000012" class="edge">
<title>Node20&#45;&gt;Node12</title>
<g id="a_edge48_Node000020_Node000012"><a xlink:title=" ">
<path fill="none" stroke="#63b8ff" d="M605.89,-561.57C605.02,-541.91 606.17,-516.02 615,-495 620.73,-481.37 631.27,-468.87 641.2,-459.2"/>
<polygon fill="#63b8ff" stroke="#63b8ff" points="602.41,-562.03 606.54,-571.79 609.4,-561.59 602.41,-562.03"/>
</a>
</g>
</g>
<!-- Node21 -->
<g id="Node000021" class="node">
<title>Node21</title>
<g id="a_Node000021"><a xlink:href="obstacle__data__structure_8hpp.html" target="_top" xlink:title=" ">
<polygon fill="white" stroke="#666666" points="567.5,-536 454.5,-536 454.5,-495 567.5,-495 567.5,-536"/>
<text text-anchor="start" x="462.5" y="-524" font-family="Helvetica,sans-Serif" font-size="10.00">include/meltpooldg</text>
<text text-anchor="start" x="462.5" y="-513" font-family="Helvetica,sans-Serif" font-size="10.00">/particles/obstacle</text>
<text text-anchor="middle" x="511" y="-502" font-family="Helvetica,sans-Serif" font-size="10.00">_data_structure.hpp</text>
</a>
</g>
</g>
<!-- Node20&#45;&gt;Node21 -->
<g id="edge44_Node000020_Node000021" class="edge">
<title>Node20&#45;&gt;Node21</title>
<g id="a_edge44_Node000020_Node000021"><a xlink:title=" ">
<path fill="none" stroke="#63b8ff" d="M575.44,-565.82C562.76,-556.11 548.55,-545.24 536.71,-536.17"/>
<polygon fill="#63b8ff" stroke="#63b8ff" points="573.44,-568.69 583.51,-571.99 577.69,-563.13 573.44,-568.69"/>
</a>
</g>
</g>
<!-- Node21&#45;&gt;Node2 -->
<g id="edge45_Node000021_Node000002" class="edge">
<title>Node21&#45;&gt;Node2</title>
<g id="a_edge45_Node000021_Node000002"><a xlink:title=" ">
<path fill="none" stroke="#63b8ff" d="M444.62,-495.2C403.08,-483.13 350.1,-467.73 310.38,-456.18"/>
<polygon fill="#63b8ff" stroke="#63b8ff" points="443.8,-498.61 454.38,-498.04 445.76,-491.89 443.8,-498.61"/>
</a>
</g>
</g>
<!-- Node21&#45;&gt;Node12 -->
<g id="edge46_Node000021_Node000012" class="edge">
<title>Node21&#45;&gt;Node12</title>
<g id="a_edge46_Node000021_Node000012"><a xlink:title=" ">
<path fill="none" stroke="#63b8ff" d="M560.1,-490.59C581,-480.41 605.07,-468.69 624.87,-459.04"/>
<polygon fill="#63b8ff" stroke="#63b8ff" points="558.52,-487.47 551.06,-494.99 561.58,-493.76 558.52,-487.47"/>
</a>
</g>
</g>
<!-- Node22 -->
<g id="Node000022" class="node">
<title>Node22</title>
<g id="a_Node000022"><a xlink:href="obstacle__data__structure_8cpp.html" target="_top" xlink:title=" ">
<polygon fill="white" stroke="#666666" points="580,-453.5 442,-453.5 442,-423.5 580,-423.5 580,-453.5"/>
<text text-anchor="start" x="450" y="-441.5" font-family="Helvetica,sans-Serif" font-size="10.00">source/particles/obstacle</text>
<text text-anchor="middle" x="511" y="-430.5" font-family="Helvetica,sans-Serif" font-size="10.00">_data_structure.cpp</text>
</a>
</g>
</g>
<!-- Node21&#45;&gt;Node22 -->
<g id="edge47_Node000021_Node000022" class="edge">
<title>Node21&#45;&gt;Node22</title>
<g id="a_edge47_Node000021_Node000022"><a xlink:title=" ">
<path fill="none" stroke="#63b8ff" d="M511,-484.61C511,-474.01 511,-462.57 511,-453.86"/>
<polygon fill="#63b8ff" stroke="#63b8ff" points="507.5,-484.79 511,-494.79 514.5,-484.79 507.5,-484.79"/>
</a>
</g>
</g>
<!-- Node23&#45;&gt;Node5 -->
<g id="edge50_Node000023_Node000005" class="edge">
<title>Node23&#45;&gt;Node5</title>
<g id="a_edge50_Node000023_Node000005"><a xlink:title=" ">
<path fill="none" stroke="#63b8ff" d="M778.34,-408.77C756.62,-368.78 712.33,-296.38 656,-253 621.87,-226.71 600.19,-243.21 566,-217 543.07,-199.43 548.57,-184.22 527,-165 511.17,-150.89 491.21,-138.58 473.67,-129.17"/>
<polygon fill="#63b8ff" stroke="#63b8ff" points="775.33,-410.55 783.13,-417.73 781.5,-407.26 775.33,-410.55"/>
</a>
</g>
</g>
<!-- Node23&#45;&gt;Node18 -->
<g id="edge51_Node000023_Node000018" class="edge">
<title>Node23&#45;&gt;Node18</title>
<g id="a_edge51_Node000023_Node000018"><a xlink:title=" ">
<path fill="none" stroke="#63b8ff" d="M858.05,-417.05C903.73,-402.68 963.65,-383.84 1004.09,-371.12"/>
<polygon fill="#63b8ff" stroke="#63b8ff" points="856.72,-413.79 848.23,-420.13 858.82,-420.47 856.72,-413.79"/>
</a>
</g>
</g>
</g>
</svg>

<g id="navigator" transform="translate(0 0)" fill="#404254">
  <rect fill="#f2f5e9" fill-opacity="0.5" stroke="#606060" stroke-width=".5" x="0" y="0" width="60" height="60"/>
  <use id="zoomplus" xlink:href="#zoomPlus" x="17" y="9" onmousedown="handleZoom(evt,'in')"/>
  <use id="zoomminus" xlink:href="#zoomMin" x="42" y="9" onmousedown="handleZoom(evt,'out')"/>
  <use id="reset" xlink:href="#resetDef" x="30" y="36" onmousedown="handleReset()"/>
   <use id="arrowup" xlink:href="#arrowUp" x="0" y="0" onmousedown="handlePan(0,-1)"/>
  <use id="arrowright" xlink:href="#arrowRight" x="0" y="0" onmousedown="handlePan(1,0)"/>
  <use id="arrowdown" xlink:href="#arrowDown" x="0" y="0" onmousedown="handlePan(0,1)"/>
  <use id="arrowleft" xlink:href="#arrowLeft" x="0" y="0" onmousedown="handlePan(-1,0)"/>
</g>
<svg viewBox="0 0 15 15" width="100%" height="30px" preserveAspectRatio="xMaxYMin meet">
 <g id="arrow_out" transform="scale(0.3 0.3)">
  <a xlink:href="particle__accessor_8hpp__dep__incl_org.svg" target="_base">
   <rect id="button" ry="5" rx="5" y="6" x="6" height="38" width="38"
        fill="#f2f5e9" fill-opacity="0.5" stroke="#606060" stroke-width="1.0"/>
   <path id="arrow"
     d="M 11.500037,31.436501 C 11.940474,20.09759 22.043105,11.32322 32.158766,21.979434 L 37.068811,17.246167 C 37.068811,17.246167 37.088388,32 37.088388,32 L 22.160133,31.978069 C 22.160133,31.978069 26.997745,27.140456 26.997745,27.140456 C 18.528582,18.264221 13.291696,25.230495 11.500037,31.436501 z"
     style="fill:#404040;"/>
  </a>
 </g>
</svg>

<style type='text/css'>
<![CDATA[
[data-mouse-over-selected='false'] { opacity: 0.7; }
[data-mouse-over-selected='true']  { opacity: 1.0; }
]]>
</style>
<script type="application/ecmascript"><![CDATA[
document.addEventListener('DOMContentLoaded', (event) => {
  highlightEdges();
  highlightAdjacentNodes();
});
]]></script>
</svg>
