<?xml version="1.0" encoding="UTF-8" standalone="no"?>
<!DOCTYPE svg PUBLIC "-//W3C//DTD SVG 1.1//EN"
 "http://www.w3.org/Graphics/SVG/1.1/DTD/svg11.dtd">
<!-- Generated by graphviz version 2.43.0 (0)
 -->
<!-- Title: include/meltpooldg/particles/particle_iterator.hpp Pages: 1 -->
<!--zoomable 313 -->

<svg id="main" version="1.1" xmlns="http://www.w3.org/2000/svg" xmlns:xlink="http://www.w3.org/1999/xlink" xml:space="preserve" onload="init(evt)">
<style type="text/css"><![CDATA[
.node, .edge {opacity: 0.7;}
.node.selected, .edge.selected {opacity: 1;}
.edge:hover path { stroke: red; }
.edge:hover polygon { stroke: red; fill: red; }
]]></style>

<defs>
  <circle id="rim" cx="0" cy="0" r="7"/>
  <circle id="rim2" cx="0" cy="0" r="3.5"/>
  <g id="zoomPlus">
    <use xlink:href="#rim" fill="#404040"><set attributeName="fill" to="#808080" begin="zoomplus.mouseover" end="zoomplus.mouseout"/></use>
    <path d="M-4,0h8M0,-4v8" fill="none" stroke="white" stroke-width="1.5" pointer-events="none"/>
  </g>
  <g id="zoomMin">
    <use xlink:href="#rim" fill="#404040"><set attributeName="fill" to="#808080" begin="zoomminus.mouseover" end="zoomminus.mouseout"/></use>
    <path d="M-4,0h8" fill="none" stroke="white" stroke-width="1.5" pointer-events="none"/>
  </g>
  <g id="arrowUp" transform="translate(30 24)">
    <use xlink:href="#rim"/>
    <path pointer-events="none" fill="none" stroke="white" stroke-width="1.5" d="M0,-3.0v7 M-2.5,-0.5L0,-3.0L2.5,-0.5"/>
  </g>
  <g id="arrowRight" transform="rotate(90) translate(36 -43)">
    <use xlink:href="#rim"/>
    <path pointer-events="none" fill="none" stroke="white" stroke-width="1.5" d="M0,-3.0v7 M-2.5,-0.5L0,-3.0L2.5,-0.5"/>
  </g>
  <g id="arrowDown" transform="rotate(180) translate(-30 -48)">
    <use xlink:href="#rim"/>
    <path pointer-events="none" fill="none" stroke="white" stroke-width="1.5" d="M0,-3.0v7 M-2.5,-0.5L0,-3.0L2.5,-0.5"/>
  </g>
  <g id="arrowLeft" transform="rotate(270) translate(-36 17)">
    <use xlink:href="#rim"/>
    <path pointer-events="none" fill="none" stroke="white" stroke-width="1.5" d="M0,-3.0v7 M-2.5,-0.5L0,-3.0L2.5,-0.5"/>
  </g>
  <g id="resetDef">
    <use xlink:href="#rim2" fill="#404040"><set attributeName="fill" to="#808080" begin="reset.mouseover" end="reset.mouseout"/></use>
  </g>
</defs>
<script type="application/ecmascript">
var viewWidth = 1731;
var viewHeight = 313;
var sectionId = 'dynsection-0';
</script>
<script type="application/ecmascript" xlink:href="svg.min.js"/>
<svg id="graph" class="graph">
<g id="viewport">
<title>include/meltpooldg/particles/particle_iterator.hpp</title>
<!-- Node1 -->
<g id="Node000001" class="node">
<title>Node1</title>
<g id="a_Node000001"><a xlink:title=" ">
<polygon fill="#999999" stroke="#666666" points="614,-305 504,-305 504,-264 614,-264 614,-305"/>
<text text-anchor="start" x="512" y="-293" font-family="Helvetica,sans-Serif" font-size="10.00">include/meltpooldg</text>
<text text-anchor="start" x="512" y="-282" font-family="Helvetica,sans-Serif" font-size="10.00">/particles/particle</text>
<text text-anchor="middle" x="559" y="-271" font-family="Helvetica,sans-Serif" font-size="10.00">_iterator.hpp</text>
</a>
</g>
</g>
<!-- Node2 -->
<g id="Node000002" class="node">
<title>Node2</title>
<g id="a_Node000002"><a xlink:title=" ">
<polygon fill="#e0e0e0" stroke="#999999" points="124,-228 0,-228 0,-198 124,-198 124,-228"/>
<text text-anchor="start" x="8" y="-216" font-family="Helvetica,sans-Serif" font-size="10.00">deal.II/base/exception</text>
<text text-anchor="middle" x="62" y="-205" font-family="Helvetica,sans-Serif" font-size="10.00">_macros.h</text>
</a>
</g>
</g>
<!-- Node1&#45;&gt;Node2 -->
<g id="edge1_Node000001_Node000002" class="edge">
<title>Node1&#45;&gt;Node2</title>
<g id="a_edge1_Node000001_Node000002"><a xlink:title=" ">
<path fill="none" stroke="#63b8ff" d="M503.7,-277.12C423.1,-267.62 268.71,-248.64 138,-228 136.73,-227.8 135.45,-227.6 134.17,-227.39"/>
<polygon fill="#63b8ff" stroke="#63b8ff" points="134.61,-223.91 124.17,-225.72 133.46,-230.82 134.61,-223.91"/>
</a>
</g>
</g>
<!-- Node3 -->
<g id="Node000003" class="node">
<title>Node3</title>
<g id="a_Node000003"><a xlink:title=" ">
<polygon fill="#e0e0e0" stroke="#999999" points="464,-24.5 326,-24.5 326,-5.5 464,-5.5 464,-24.5"/>
<text text-anchor="middle" x="395" y="-12.5" font-family="Helvetica,sans-Serif" font-size="10.00">deal.II/base/exceptions.h</text>
</a>
</g>
</g>
<!-- Node1&#45;&gt;Node3 -->
<g id="edge2_Node000001_Node000003" class="edge">
<title>Node1&#45;&gt;Node3</title>
<g id="a_edge2_Node000001_Node000003"><a xlink:title=" ">
<path fill="none" stroke="#63b8ff" d="M551.23,-263.74C544.08,-246.14 532.81,-219.87 521,-198 487.84,-136.6 477.08,-122.4 436,-66 427.52,-54.35 417.23,-41.81 409.08,-32.2"/>
<polygon fill="#63b8ff" stroke="#63b8ff" points="411.74,-29.92 402.57,-24.61 406.42,-34.48 411.74,-29.92"/>
</a>
</g>
</g>
<!-- Node4 -->
<g id="Node000004" class="node">
<title>Node4</title>
<g id="a_Node000004"><a xlink:title=" ">
<polygon fill="#e0e0e0" stroke="#999999" points="292,-222.5 180,-222.5 180,-203.5 292,-203.5 292,-222.5"/>
<text text-anchor="middle" x="236" y="-210.5" font-family="Helvetica,sans-Serif" font-size="10.00">deal.II/base/types.h</text>
</a>
</g>
</g>
<!-- Node1&#45;&gt;Node4 -->
<g id="edge3_Node000001_Node000004" class="edge">
<title>Node1&#45;&gt;Node4</title>
<g id="a_edge3_Node000001_Node000004"><a xlink:title=" ">
<path fill="none" stroke="#63b8ff" d="M503.84,-271.63C442.52,-258.44 344.39,-237.32 285.47,-224.64"/>
<polygon fill="#63b8ff" stroke="#63b8ff" points="286.16,-221.21 275.65,-222.53 284.69,-228.06 286.16,-221.21"/>
</a>
</g>
</g>
<!-- Node5 -->
<g id="Node000005" class="node">
<title>Node5</title>
<g id="a_Node000005"><a xlink:title=" ">
<polygon fill="#e0e0e0" stroke="#999999" points="1722.5,-96 1591.5,-96 1591.5,-66 1722.5,-66 1722.5,-96"/>
<text text-anchor="start" x="1599.5" y="-84" font-family="Helvetica,sans-Serif" font-size="10.00">deal.II/particles/particle</text>
<text text-anchor="middle" x="1657" y="-73" font-family="Helvetica,sans-Serif" font-size="10.00">_accessor.h</text>
</a>
</g>
</g>
<!-- Node1&#45;&gt;Node5 -->
<g id="edge4_Node000001_Node000005" class="edge">
<title>Node1&#45;&gt;Node5</title>
<g id="a_edge4_Node000001_Node000005"><a xlink:title=" ">
<path fill="none" stroke="#63b8ff" d="M574.11,-263.65C591.89,-240.9 620.88,-205.73 636,-198 682.81,-174.05 1524.93,-103.37 1577,-96 1578.3,-95.82 1579.6,-95.63 1580.92,-95.44"/>
<polygon fill="#63b8ff" stroke="#63b8ff" points="1581.77,-98.85 1591.13,-93.88 1580.72,-91.93 1581.77,-98.85"/>
</a>
</g>
</g>
<!-- Node6 -->
<g id="Node000006" class="node">
<title>Node6</title>
<g id="a_Node000006"><a xlink:title=" ">
<polygon fill="#e0e0e0" stroke="#999999" points="433,-162 297,-162 297,-132 433,-132 433,-162"/>
<text text-anchor="start" x="305" y="-150" font-family="Helvetica,sans-Serif" font-size="10.00">deal.II/particles/property</text>
<text text-anchor="middle" x="365" y="-139" font-family="Helvetica,sans-Serif" font-size="10.00">_pool.h</text>
</a>
</g>
</g>
<!-- Node1&#45;&gt;Node6 -->
<g id="edge5_Node000001_Node000006" class="edge">
<title>Node1&#45;&gt;Node6</title>
<g id="a_edge5_Node000001_Node000006"><a xlink:title=" ">
<path fill="none" stroke="#63b8ff" d="M503.67,-281.46C462.86,-276.86 409.22,-263.79 378,-228 364.83,-212.89 362.29,-189.83 362.63,-172.34"/>
<polygon fill="#63b8ff" stroke="#63b8ff" points="366.13,-172.46 363.14,-162.3 359.14,-172.1 366.13,-172.46"/>
</a>
</g>
</g>
<!-- Node7 -->
<g id="Node000007" class="node">
<title>Node7</title>
<g id="a_Node000007"><a xlink:href="dem__util_8hpp.html" target="_top" xlink:title=" ">
<polygon fill="white" stroke="#666666" points="222.5,-162 105.5,-162 105.5,-132 222.5,-132 222.5,-162"/>
<text text-anchor="start" x="113.5" y="-150" font-family="Helvetica,sans-Serif" font-size="10.00">meltpooldg/particles</text>
<text text-anchor="middle" x="164" y="-139" font-family="Helvetica,sans-Serif" font-size="10.00">/dem_util.hpp</text>
</a>
</g>
</g>
<!-- Node1&#45;&gt;Node7 -->
<g id="edge6_Node000001_Node000007" class="edge">
<title>Node1&#45;&gt;Node7</title>
<g id="a_edge6_Node000001_Node000007"><a xlink:title=" ">
<path fill="none" stroke="#63b8ff" d="M503.79,-283.7C407.64,-282.78 215.44,-274.95 171,-228 157.2,-213.43 156.71,-189.95 158.92,-172.19"/>
<polygon fill="#63b8ff" stroke="#63b8ff" points="162.39,-172.68 160.5,-162.25 155.47,-171.58 162.39,-172.68"/>
</a>
</g>
</g>
<!-- Node11 -->
<g id="Node000011" class="node">
<title>Node11</title>
<g id="a_Node000011"><a xlink:title=" ">
<polygon fill="#e0e0e0" stroke="#999999" points="129,-24.5 71,-24.5 71,-5.5 129,-5.5 129,-24.5"/>
<text text-anchor="middle" x="100" y="-12.5" font-family="Helvetica,sans-Serif" font-size="10.00">memory</text>
</a>
</g>
</g>
<!-- Node1&#45;&gt;Node11 -->
<g id="edge51_Node000001_Node000011" class="edge">
<title>Node1&#45;&gt;Node11</title>
<g id="a_edge51_Node000001_Node000011"><a xlink:title=" ">
<path fill="none" stroke="#63b8ff" d="M504,-271.28C463.5,-261.53 407.46,-246.47 360,-228 332.59,-217.33 328.9,-207.32 301,-198 213.68,-168.82 165.01,-224.05 97,-162 64.93,-132.74 70.43,-108.56 79,-66 81.27,-54.75 86.14,-42.87 90.62,-33.52"/>
<polygon fill="#63b8ff" stroke="#63b8ff" points="93.78,-35.02 95.18,-24.51 87.54,-31.85 93.78,-35.02"/>
</a>
</g>
</g>
<!-- Node13 -->
<g id="Node000013" class="node">
<title>Node13</title>
<g id="a_Node000013"><a xlink:href="particle_8hpp.html" target="_top" xlink:title=" ">
<polygon fill="white" stroke="#666666" points="819.5,-162 702.5,-162 702.5,-132 819.5,-132 819.5,-162"/>
<text text-anchor="start" x="710.5" y="-150" font-family="Helvetica,sans-Serif" font-size="10.00">meltpooldg/particles</text>
<text text-anchor="middle" x="761" y="-139" font-family="Helvetica,sans-Serif" font-size="10.00">/particle.hpp</text>
</a>
</g>
</g>
<!-- Node1&#45;&gt;Node13 -->
<g id="edge15_Node000001_Node000013" class="edge">
<title>Node1&#45;&gt;Node13</title>
<g id="a_edge15_Node000001_Node000013"><a xlink:title=" ">
<path fill="none" stroke="#63b8ff" d="M564.06,-263.71C570.01,-244.32 581.75,-215.22 602,-198 627.25,-176.53 661.74,-164.26 692.14,-157.26"/>
<polygon fill="#63b8ff" stroke="#63b8ff" points="693.24,-160.6 702.28,-155.08 691.77,-153.76 693.24,-160.6"/>
</a>
</g>
</g>
<!-- Node33 -->
<g id="Node000033" class="node">
<title>Node33</title>
<g id="a_Node000033"><a xlink:href="particle__accessor_8hpp.html" target="_top" xlink:title=" ">
<polygon fill="white" stroke="#666666" points="511.5,-228 386.5,-228 386.5,-198 511.5,-198 511.5,-228"/>
<text text-anchor="start" x="394.5" y="-216" font-family="Helvetica,sans-Serif" font-size="10.00">meltpooldg/particles</text>
<text text-anchor="middle" x="449" y="-205" font-family="Helvetica,sans-Serif" font-size="10.00">/particle_accessor.hpp</text>
</a>
</g>
</g>
<!-- Node1&#45;&gt;Node33 -->
<g id="edge43_Node000001_Node000033" class="edge">
<title>Node1&#45;&gt;Node33</title>
<g id="a_edge43_Node000001_Node000033"><a xlink:title=" ">
<path fill="none" stroke="#63b8ff" d="M528.07,-263.96C512.98,-254.42 494.88,-242.99 479.81,-233.47"/>
<polygon fill="#63b8ff" stroke="#63b8ff" points="481.66,-230.5 471.34,-228.11 477.92,-236.41 481.66,-230.5"/>
</a>
</g>
</g>
<!-- Node34 -->
<g id="Node000034" class="node">
<title>Node34</title>
<g id="a_Node000034"><a xlink:title=" ">
<polygon fill="#e0e0e0" stroke="#999999" points="697.5,-222.5 644.5,-222.5 644.5,-203.5 697.5,-203.5 697.5,-222.5"/>
<text text-anchor="middle" x="671" y="-210.5" font-family="Helvetica,sans-Serif" font-size="10.00">cstddef</text>
</a>
</g>
</g>
<!-- Node1&#45;&gt;Node34 -->
<g id="edge49_Node000001_Node000034" class="edge">
<title>Node1&#45;&gt;Node34</title>
<g id="a_edge49_Node000001_Node000034"><a xlink:title=" ">
<path fill="none" stroke="#63b8ff" d="M590.5,-263.96C609.06,-252.44 632.09,-238.14 648.76,-227.8"/>
<polygon fill="#63b8ff" stroke="#63b8ff" points="650.64,-230.75 657.3,-222.5 646.95,-224.8 650.64,-230.75"/>
</a>
</g>
</g>
<!-- Node35 -->
<g id="Node000035" class="node">
<title>Node35</title>
<g id="a_Node000035"><a xlink:title=" ">
<polygon fill="#e0e0e0" stroke="#999999" points="768.5,-222.5 715.5,-222.5 715.5,-203.5 768.5,-203.5 768.5,-222.5"/>
<text text-anchor="middle" x="742" y="-210.5" font-family="Helvetica,sans-Serif" font-size="10.00">iterator</text>
</a>
</g>
</g>
<!-- Node1&#45;&gt;Node35 -->
<g id="edge50_Node000001_Node000035" class="edge">
<title>Node1&#45;&gt;Node35</title>
<g id="a_edge50_Node000001_Node000035"><a xlink:title=" ">
<path fill="none" stroke="#63b8ff" d="M611.85,-264C640.13,-253.48 675.53,-240.19 707,-228 708.41,-227.45 709.85,-226.89 711.31,-226.32"/>
<polygon fill="#63b8ff" stroke="#63b8ff" points="712.92,-229.45 720.93,-222.51 710.34,-222.94 712.92,-229.45"/>
</a>
</g>
</g>
<!-- Node36 -->
<g id="Node000036" class="node">
<title>Node36</title>
<g id="a_Node000036"><a xlink:title=" ">
<polygon fill="#e0e0e0" stroke="#999999" points="843,-222.5 787,-222.5 787,-203.5 843,-203.5 843,-222.5"/>
<text text-anchor="middle" x="815" y="-210.5" font-family="Helvetica,sans-Serif" font-size="10.00">optional</text>
</a>
</g>
</g>
<!-- Node1&#45;&gt;Node36 -->
<g id="edge52_Node000001_Node000036" class="edge">
<title>Node1&#45;&gt;Node36</title>
<g id="a_edge52_Node000001_Node000036"><a xlink:title=" ">
<path fill="none" stroke="#63b8ff" d="M614.39,-271.3C658.96,-261.04 723,-245.31 778,-228 779.92,-227.4 781.88,-226.75 783.85,-226.07"/>
<polygon fill="#63b8ff" stroke="#63b8ff" points="785.4,-229.24 793.62,-222.56 783.03,-222.65 785.4,-229.24"/>
</a>
</g>
</g>
<!-- Node37 -->
<g id="Node000037" class="node">
<title>Node37</title>
<g id="a_Node000037"><a xlink:title=" ">
<polygon fill="#e0e0e0" stroke="#999999" points="930.5,-222.5 861.5,-222.5 861.5,-203.5 930.5,-203.5 930.5,-222.5"/>
<text text-anchor="middle" x="896" y="-210.5" font-family="Helvetica,sans-Serif" font-size="10.00">type_traits</text>
</a>
</g>
</g>
<!-- Node1&#45;&gt;Node37 -->
<g id="edge53_Node000001_Node000037" class="edge">
<title>Node1&#45;&gt;Node37</title>
<g id="a_edge53_Node000001_Node000037"><a xlink:title=" ">
<path fill="none" stroke="#63b8ff" d="M614.25,-275.08C673.48,-265.58 770.06,-248.72 852,-228 855.01,-227.24 858.12,-226.39 861.23,-225.49"/>
<polygon fill="#63b8ff" stroke="#63b8ff" points="862.46,-228.77 871.02,-222.52 860.44,-222.07 862.46,-228.77"/>
</a>
</g>
</g>
<!-- Node38 -->
<g id="Node000038" class="node">
<title>Node38</title>
<g id="a_Node000038"><a xlink:title=" ">
<polygon fill="#e0e0e0" stroke="#999999" points="999.5,-222.5 948.5,-222.5 948.5,-203.5 999.5,-203.5 999.5,-222.5"/>
<text text-anchor="middle" x="974" y="-210.5" font-family="Helvetica,sans-Serif" font-size="10.00">variant</text>
</a>
</g>
</g>
<!-- Node1&#45;&gt;Node38 -->
<g id="edge54_Node000001_Node000038" class="edge">
<title>Node1&#45;&gt;Node38</title>
<g id="a_edge54_Node000001_Node000038"><a xlink:title=" ">
<path fill="none" stroke="#63b8ff" d="M614.13,-279.74C689.01,-273.68 826.54,-259.11 940,-228 941.94,-227.47 943.92,-226.86 945.89,-226.19"/>
<polygon fill="#63b8ff" stroke="#63b8ff" points="947.45,-229.34 955.58,-222.55 944.99,-222.79 947.45,-229.34"/>
</a>
</g>
</g>
<!-- Node8 -->
<g id="Node000008" class="node">
<title>Node8</title>
<g id="a_Node000008"><a xlink:title=" ">
<polygon fill="#e0e0e0" stroke="#999999" points="227.5,-96 96.5,-96 96.5,-66 227.5,-66 227.5,-96"/>
<text text-anchor="start" x="104.5" y="-84" font-family="Helvetica,sans-Serif" font-size="10.00">deal.II/particles/particle</text>
<text text-anchor="middle" x="162" y="-73" font-family="Helvetica,sans-Serif" font-size="10.00">_handler.h</text>
</a>
</g>
</g>
<!-- Node7&#45;&gt;Node8 -->
<g id="edge7_Node000007_Node000008" class="edge">
<title>Node7&#45;&gt;Node8</title>
<g id="a_edge7_Node000007_Node000008"><a xlink:title=" ">
<path fill="none" stroke="#63b8ff" d="M163.56,-131.8C163.32,-124.34 163.03,-114.99 162.76,-106.41"/>
<polygon fill="#63b8ff" stroke="#63b8ff" points="166.25,-106.05 162.44,-96.16 159.26,-106.27 166.25,-106.05"/>
</a>
</g>
</g>
<!-- Node9 -->
<g id="Node000009" class="node">
<title>Node9</title>
<g id="a_Node000009"><a xlink:href="solution__history_8hpp.html" target="_top" xlink:title=" ">
<polygon fill="white" stroke="#666666" points="402,-96 246,-96 246,-66 402,-66 402,-96"/>
<text text-anchor="start" x="254" y="-84" font-family="Helvetica,sans-Serif" font-size="10.00">meltpooldg/time_integration</text>
<text text-anchor="middle" x="324" y="-73" font-family="Helvetica,sans-Serif" font-size="10.00">/solution_history.hpp</text>
</a>
</g>
</g>
<!-- Node7&#45;&gt;Node9 -->
<g id="edge8_Node000007_Node000009" class="edge">
<title>Node7&#45;&gt;Node9</title>
<g id="a_edge8_Node000007_Node000009"><a xlink:title=" ">
<path fill="none" stroke="#63b8ff" d="M199.11,-131.95C222.77,-122.49 254.16,-109.93 279.56,-99.78"/>
<polygon fill="#63b8ff" stroke="#63b8ff" points="280.98,-102.98 288.97,-96.01 278.38,-96.48 280.98,-102.98"/>
</a>
</g>
</g>
<!-- Node10 -->
<g id="Node000010" class="node">
<title>Node10</title>
<g id="a_Node000010"><a xlink:title=" ">
<polygon fill="#e0e0e0" stroke="#999999" points="242.5,-24.5 177.5,-24.5 177.5,-5.5 242.5,-5.5 242.5,-24.5"/>
<text text-anchor="middle" x="210" y="-12.5" font-family="Helvetica,sans-Serif" font-size="10.00">functional</text>
</a>
</g>
</g>
<!-- Node7&#45;&gt;Node10 -->
<g id="edge13_Node000007_Node000010" class="edge">
<title>Node7&#45;&gt;Node10</title>
<g id="a_edge13_Node000007_Node000010"><a xlink:title=" ">
<path fill="none" stroke="#63b8ff" d="M128.47,-131.96C113.11,-123.9 96.69,-112.13 88,-96 81.67,-84.26 80.57,-77.07 88,-66 97.49,-51.85 137.21,-37.25 168.78,-27.5"/>
<polygon fill="#63b8ff" stroke="#63b8ff" points="170.13,-30.75 178.7,-24.52 168.12,-24.05 170.13,-30.75"/>
</a>
</g>
</g>
<!-- Node12 -->
<g id="Node000012" class="node">
<title>Node12</title>
<g id="a_Node000012"><a xlink:title=" ">
<polygon fill="#e0e0e0" stroke="#999999" points="307.5,-24.5 260.5,-24.5 260.5,-5.5 307.5,-5.5 307.5,-24.5"/>
<text text-anchor="middle" x="284" y="-12.5" font-family="Helvetica,sans-Serif" font-size="10.00">vector</text>
</a>
</g>
</g>
<!-- Node7&#45;&gt;Node12 -->
<g id="edge14_Node000007_Node000012" class="edge">
<title>Node7&#45;&gt;Node12</title>
<g id="a_edge14_Node000007_Node000012"><a xlink:title=" ">
<path fill="none" stroke="#63b8ff" d="M222.78,-138.04C292,-128.08 399.11,-110.54 411,-96 419.44,-85.68 418.56,-76.99 411,-66 385.65,-29.14 358.49,-46.74 317,-30 315.8,-29.52 314.57,-29.02 313.34,-28.51"/>
<polygon fill="#63b8ff" stroke="#63b8ff" points="314.42,-25.17 303.85,-24.55 311.73,-31.63 314.42,-25.17"/>
</a>
</g>
</g>
<!-- Node9&#45;&gt;Node3 -->
<g id="edge9_Node000009_Node000003" class="edge">
<title>Node9&#45;&gt;Node3</title>
<g id="a_edge9_Node000009_Node000003"><a xlink:title=" ">
<path fill="none" stroke="#63b8ff" d="M339.76,-65.8C350.93,-55.72 365.94,-42.19 377.49,-31.78"/>
<polygon fill="#63b8ff" stroke="#63b8ff" points="380.1,-34.14 385.19,-24.84 375.42,-28.94 380.1,-34.14"/>
</a>
</g>
</g>
<!-- Node9&#45;&gt;Node10 -->
<g id="edge10_Node000009_Node000010" class="edge">
<title>Node9&#45;&gt;Node10</title>
<g id="a_edge10_Node000009_Node000010"><a xlink:title=" ">
<path fill="none" stroke="#63b8ff" d="M298.98,-65.95C279.69,-55.13 253.18,-40.24 234.12,-29.54"/>
<polygon fill="#63b8ff" stroke="#63b8ff" points="235.6,-26.36 225.17,-24.52 232.18,-32.46 235.6,-26.36"/>
</a>
</g>
</g>
<!-- Node9&#45;&gt;Node11 -->
<g id="edge11_Node000009_Node000011" class="edge">
<title>Node9&#45;&gt;Node11</title>
<g id="a_edge11_Node000009_Node000011"><a xlink:title=" ">
<path fill="none" stroke="#63b8ff" d="M274.84,-65.95C234.11,-54.32 176.99,-38 139.26,-27.22"/>
<polygon fill="#63b8ff" stroke="#63b8ff" points="139.74,-23.72 129.17,-24.33 137.82,-30.45 139.74,-23.72"/>
</a>
</g>
</g>
<!-- Node9&#45;&gt;Node12 -->
<g id="edge12_Node000009_Node000012" class="edge">
<title>Node9&#45;&gt;Node12</title>
<g id="a_edge12_Node000009_Node000012"><a xlink:title=" ">
<path fill="none" stroke="#63b8ff" d="M315.12,-65.8C309.19,-56.31 301.35,-43.76 295.02,-33.63"/>
<polygon fill="#63b8ff" stroke="#63b8ff" points="297.8,-31.47 289.53,-24.84 291.86,-35.18 297.8,-31.47"/>
</a>
</g>
</g>
<!-- Node13&#45;&gt;Node3 -->
<g id="edge18_Node000013_Node000003" class="edge">
<title>Node13&#45;&gt;Node3</title>
<g id="a_edge18_Node000013_Node000003"><a xlink:title=" ">
<path fill="none" stroke="#63b8ff" d="M702.34,-132.3C671.33,-123.92 633.14,-111.76 601,-96 580.08,-85.74 578.95,-76.21 558,-66 521.71,-48.32 477.82,-35.28 444.73,-26.96"/>
<polygon fill="#63b8ff" stroke="#63b8ff" points="445.37,-23.52 434.83,-24.53 443.71,-30.32 445.37,-23.52"/>
</a>
</g>
</g>
<!-- Node13&#45;&gt;Node5 -->
<g id="edge23_Node000013_Node000005" class="edge">
<title>Node13&#45;&gt;Node5</title>
<g id="a_edge23_Node000013_Node000005"><a xlink:title=" ">
<path fill="none" stroke="#63b8ff" d="M819.86,-133.97C824.63,-133.22 829.39,-132.55 834,-132 1162.27,-92.77 1248.42,-132.57 1577,-96 1578.3,-95.86 1579.61,-95.7 1580.93,-95.54"/>
<polygon fill="#63b8ff" stroke="#63b8ff" points="1581.72,-98.97 1591.17,-94.19 1580.8,-92.03 1581.72,-98.97"/>
</a>
</g>
</g>
<!-- Node13&#45;&gt;Node12 -->
<g id="edge42_Node000013_Node000012" class="edge">
<title>Node13&#45;&gt;Node12</title>
<g id="a_edge42_Node000013_Node000012"><a xlink:title=" ">
<path fill="none" stroke="#63b8ff" d="M702.23,-133.72C661.38,-124.66 605.89,-111.27 558,-96 523.4,-84.97 516.74,-76.57 482,-66 410.19,-44.15 388.53,-52.76 317,-30 315.37,-29.48 313.71,-28.91 312.04,-28.31"/>
<polygon fill="#63b8ff" stroke="#63b8ff" points="313.21,-25.01 302.62,-24.61 310.65,-31.52 313.21,-25.01"/>
</a>
</g>
</g>
<!-- Node14 -->
<g id="Node000014" class="node">
<title>Node14</title>
<g id="a_Node000014"><a xlink:title=" ">
<polygon fill="#e0e0e0" stroke="#999999" points="1586,-24.5 1472,-24.5 1472,-5.5 1586,-5.5 1586,-24.5"/>
<text text-anchor="middle" x="1529" y="-12.5" font-family="Helvetica,sans-Serif" font-size="10.00">deal.II/base/config.h</text>
</a>
</g>
</g>
<!-- Node13&#45;&gt;Node14 -->
<g id="edge16_Node000013_Node000014" class="edge">
<title>Node13&#45;&gt;Node14</title>
<g id="a_edge16_Node000013_Node000014"><a xlink:title=" ">
<path fill="none" stroke="#63b8ff" d="M819.56,-134.69C824.44,-133.77 829.3,-132.86 834,-132 924.55,-115.33 953.75,-133.14 1038,-96 1058.01,-87.18 1056.65,-74 1077,-66 1237.37,-3 1292.66,-55.92 1463,-30 1469.31,-29.04 1475.92,-27.86 1482.42,-26.58"/>
<polygon fill="#63b8ff" stroke="#63b8ff" points="1483.38,-29.96 1492.48,-24.54 1481.99,-23.1 1483.38,-29.96"/>
</a>
</g>
</g>
<!-- Node15 -->
<g id="Node000015" class="node">
<title>Node15</title>
<g id="a_Node000015"><a xlink:title=" ">
<polygon fill="#e0e0e0" stroke="#999999" points="1028.5,-96 927.5,-96 927.5,-66 1028.5,-66 1028.5,-96"/>
<text text-anchor="start" x="935.5" y="-84" font-family="Helvetica,sans-Serif" font-size="10.00">deal.II/base/array</text>
<text text-anchor="middle" x="978" y="-73" font-family="Helvetica,sans-Serif" font-size="10.00">_view.h</text>
</a>
</g>
</g>
<!-- Node13&#45;&gt;Node15 -->
<g id="edge17_Node000013_Node000015" class="edge">
<title>Node13&#45;&gt;Node15</title>
<g id="a_edge17_Node000013_Node000015"><a xlink:title=" ">
<path fill="none" stroke="#63b8ff" d="M808.62,-131.95C841.69,-122.2 885.92,-109.16 920.89,-98.84"/>
<polygon fill="#63b8ff" stroke="#63b8ff" points="921.89,-102.2 930.49,-96.01 919.91,-95.48 921.89,-102.2"/>
</a>
</g>
</g>
<!-- Node16 -->
<g id="Node000016" class="node">
<title>Node16</title>
<g id="a_Node000016"><a xlink:title=" ">
<polygon fill="#e0e0e0" stroke="#999999" points="1714,-24.5 1604,-24.5 1604,-5.5 1714,-5.5 1714,-24.5"/>
<text text-anchor="middle" x="1659" y="-12.5" font-family="Helvetica,sans-Serif" font-size="10.00">deal.II/base/point.h</text>
</a>
</g>
</g>
<!-- Node13&#45;&gt;Node16 -->
<g id="edge19_Node000013_Node000016" class="edge">
<title>Node13&#45;&gt;Node16</title>
<g id="a_edge19_Node000013_Node000016"><a xlink:title=" ">
<path fill="none" stroke="#63b8ff" d="M819.86,-133.99C824.63,-133.23 829.39,-132.56 834,-132 990.84,-113.08 1395.77,-150.64 1544,-96 1564.52,-88.44 1565.19,-78.68 1583,-66 1600.69,-53.41 1621.29,-39.92 1636.58,-30.13"/>
<polygon fill="#63b8ff" stroke="#63b8ff" points="1638.79,-32.88 1645.34,-24.56 1635.03,-26.97 1638.79,-32.88"/>
</a>
</g>
</g>
<!-- Node17 -->
<g id="Node000017" class="node">
<title>Node17</title>
<g id="a_Node000017"><a xlink:title=" ">
<polygon fill="#e0e0e0" stroke="#999999" points="1200.5,-90.5 1085.5,-90.5 1085.5,-71.5 1200.5,-71.5 1200.5,-90.5"/>
<text text-anchor="middle" x="1143" y="-78.5" font-family="Helvetica,sans-Serif" font-size="10.00">deal.II/base/tensor.h</text>
</a>
</g>
</g>
<!-- Node13&#45;&gt;Node17 -->
<g id="edge20_Node000013_Node000017" class="edge">
<title>Node13&#45;&gt;Node17</title>
<g id="a_edge20_Node000013_Node000017"><a xlink:title=" ">
<path fill="none" stroke="#63b8ff" d="M819.53,-134.57C824.42,-133.68 829.29,-132.81 834,-132 939,-113.96 966.02,-114.17 1071,-96 1077.34,-94.9 1083.98,-93.69 1090.56,-92.46"/>
<polygon fill="#63b8ff" stroke="#63b8ff" points="1091.63,-95.82 1100.79,-90.51 1090.32,-88.94 1091.63,-95.82"/>
</a>
</g>
</g>
<!-- Node18 -->
<g id="Node000018" class="node">
<title>Node18</title>
<g id="a_Node000018"><a xlink:title=" ">
<polygon fill="#e0e0e0" stroke="#999999" points="1377,-96 1219,-96 1219,-66 1377,-66 1377,-96"/>
<text text-anchor="start" x="1227" y="-84" font-family="Helvetica,sans-Serif" font-size="10.00">deal.II/numerics/data</text>
<text text-anchor="middle" x="1298" y="-73" font-family="Helvetica,sans-Serif" font-size="10.00">_component_interpretation.h</text>
</a>
</g>
</g>
<!-- Node13&#45;&gt;Node18 -->
<g id="edge21_Node000013_Node000018" class="edge">
<title>Node13&#45;&gt;Node18</title>
<g id="a_edge21_Node000013_Node000018"><a xlink:title=" ">
<path fill="none" stroke="#63b8ff" d="M819.89,-134.21C824.65,-133.41 829.4,-132.66 834,-132 996.93,-108.63 1041.73,-116.86 1208.75,-96.1"/>
<polygon fill="#63b8ff" stroke="#63b8ff" points="1209.39,-99.55 1218.88,-94.83 1208.52,-92.6 1209.39,-99.55"/>
</a>
</g>
</g>
<!-- Node19 -->
<g id="Node000019" class="node">
<title>Node19</title>
<g id="a_Node000019"><a xlink:title=" ">
<polygon fill="#e0e0e0" stroke="#999999" points="1535,-90.5 1395,-90.5 1395,-71.5 1535,-71.5 1535,-90.5"/>
<text text-anchor="middle" x="1465" y="-78.5" font-family="Helvetica,sans-Serif" font-size="10.00">deal.II/particles/particle.h</text>
</a>
</g>
</g>
<!-- Node13&#45;&gt;Node19 -->
<g id="edge22_Node000013_Node000019" class="edge">
<title>Node13&#45;&gt;Node19</title>
<g id="a_edge22_Node000013_Node000019"><a xlink:title=" ">
<path fill="none" stroke="#63b8ff" d="M819.87,-134.06C824.64,-133.29 829.39,-132.59 834,-132 1077.87,-100.79 1141.92,-125.5 1386,-96 1394.35,-94.99 1403.15,-93.68 1411.74,-92.26"/>
<polygon fill="#63b8ff" stroke="#63b8ff" points="1412.4,-95.7 1421.67,-90.57 1411.22,-88.8 1412.4,-95.7"/>
</a>
</g>
</g>
<!-- Node20 -->
<g id="Node000020" class="node">
<title>Node20</title>
<g id="a_Node000020"><a xlink:href="utilities_2utility__functions_8hpp.html" target="_top" xlink:title=" ">
<polygon fill="white" stroke="#666666" points="870.5,-96 751.5,-96 751.5,-66 870.5,-66 870.5,-96"/>
<text text-anchor="start" x="759.5" y="-84" font-family="Helvetica,sans-Serif" font-size="10.00">meltpooldg/utilities</text>
<text text-anchor="middle" x="811" y="-73" font-family="Helvetica,sans-Serif" font-size="10.00">/utility_functions.hpp</text>
</a>
</g>
</g>
<!-- Node13&#45;&gt;Node20 -->
<g id="edge24_Node000013_Node000020" class="edge">
<title>Node13&#45;&gt;Node20</title>
<g id="a_edge24_Node000013_Node000020"><a xlink:title=" ">
<path fill="none" stroke="#63b8ff" d="M772.1,-131.8C778.44,-123.68 786.54,-113.31 793.7,-104.15"/>
<polygon fill="#63b8ff" stroke="#63b8ff" points="796.54,-106.2 799.93,-96.16 791.02,-101.89 796.54,-106.2"/>
</a>
</g>
</g>
<!-- Node29 -->
<g id="Node000029" class="node">
<title>Node29</title>
<g id="a_Node000029"><a xlink:title=" ">
<polygon fill="#e0e0e0" stroke="#999999" points="1454,-24.5 1410,-24.5 1410,-5.5 1454,-5.5 1454,-24.5"/>
<text text-anchor="middle" x="1432" y="-12.5" font-family="Helvetica,sans-Serif" font-size="10.00">string</text>
</a>
</g>
</g>
<!-- Node13&#45;&gt;Node29 -->
<g id="edge40_Node000013_Node000029" class="edge">
<title>Node13&#45;&gt;Node29</title>
<g id="a_edge40_Node000013_Node000029"><a xlink:title=" ">
<path fill="none" stroke="#63b8ff" d="M801.63,-131.92C825.22,-123.02 855.11,-110.48 880,-96 898.9,-85.01 898.57,-73.81 919,-66 1119.66,10.7 1192.83,-83.02 1401,-30 1402.73,-29.56 1404.49,-29.03 1406.23,-28.43"/>
<polygon fill="#63b8ff" stroke="#63b8ff" points="1408,-31.49 1415.98,-24.52 1405.39,-25 1408,-31.49"/>
</a>
</g>
</g>
<!-- Node31 -->
<g id="Node000031" class="node">
<title>Node31</title>
<g id="a_Node000031"><a xlink:title=" ">
<polygon fill="#e0e0e0" stroke="#999999" points="670,-90.5 610,-90.5 610,-71.5 670,-71.5 670,-90.5"/>
<text text-anchor="middle" x="640" y="-78.5" font-family="Helvetica,sans-Serif" font-size="10.00">iostream</text>
</a>
</g>
</g>
<!-- Node13&#45;&gt;Node31 -->
<g id="edge39_Node000013_Node000031" class="edge">
<title>Node13&#45;&gt;Node31</title>
<g id="a_edge39_Node000013_Node000031"><a xlink:title=" ">
<path fill="none" stroke="#63b8ff" d="M734.45,-131.95C713.79,-121.03 685.32,-105.97 665.05,-95.25"/>
<polygon fill="#63b8ff" stroke="#63b8ff" points="666.58,-92.1 656.1,-90.52 663.31,-98.29 666.58,-92.1"/>
</a>
</g>
</g>
<!-- Node32 -->
<g id="Node000032" class="node">
<title>Node32</title>
<g id="a_Node000032"><a xlink:title=" ">
<polygon fill="#e0e0e0" stroke="#999999" points="733.5,-90.5 688.5,-90.5 688.5,-71.5 733.5,-71.5 733.5,-90.5"/>
<text text-anchor="middle" x="711" y="-78.5" font-family="Helvetica,sans-Serif" font-size="10.00">utility</text>
</a>
</g>
</g>
<!-- Node13&#45;&gt;Node32 -->
<g id="edge41_Node000013_Node000032" class="edge">
<title>Node13&#45;&gt;Node32</title>
<g id="a_edge41_Node000013_Node000032"><a xlink:title=" ">
<path fill="none" stroke="#63b8ff" d="M749.9,-131.8C742.34,-122.11 732.28,-109.24 724.29,-99.01"/>
<polygon fill="#63b8ff" stroke="#63b8ff" points="726.82,-96.57 717.91,-90.84 721.31,-100.88 726.82,-96.57"/>
</a>
</g>
</g>
<!-- Node20&#45;&gt;Node3 -->
<g id="edge26_Node000020_Node000003" class="edge">
<title>Node20&#45;&gt;Node3</title>
<g id="a_edge26_Node000020_Node000003"><a xlink:title=" ">
<path fill="none" stroke="#63b8ff" d="M751.34,-67.47C748.52,-66.96 745.73,-66.46 743,-66 624.08,-45.83 593.19,-48.53 474,-30 466.63,-28.85 458.89,-27.58 451.25,-26.27"/>
<polygon fill="#63b8ff" stroke="#63b8ff" points="451.76,-22.81 441.31,-24.55 450.57,-29.7 451.76,-22.81"/>
</a>
</g>
</g>
<!-- Node20&#45;&gt;Node12 -->
<g id="edge38_Node000020_Node000012" class="edge">
<title>Node20&#45;&gt;Node12</title>
<g id="a_edge38_Node000020_Node000012"><a xlink:title=" ">
<path fill="none" stroke="#63b8ff" d="M751.37,-67.31C748.54,-66.84 745.74,-66.4 743,-66 554.95,-38.79 501.44,-75.68 317,-30 315.05,-29.52 313.07,-28.93 311.1,-28.28"/>
<polygon fill="#63b8ff" stroke="#63b8ff" points="312.05,-24.9 301.46,-24.62 309.56,-31.44 312.05,-24.9"/>
</a>
</g>
</g>
<!-- Node20&#45;&gt;Node14 -->
<g id="edge25_Node000020_Node000014" class="edge">
<title>Node20&#45;&gt;Node14</title>
<g id="a_edge25_Node000020_Node000014"><a xlink:title=" ">
<path fill="none" stroke="#63b8ff" d="M870.62,-71.59C886.34,-69.56 903.29,-67.54 919,-66 1160.16,-42.41 1222.98,-63.22 1463,-30 1469.63,-29.08 1476.58,-27.88 1483.39,-26.56"/>
<polygon fill="#63b8ff" stroke="#63b8ff" points="1484.09,-29.99 1493.2,-24.57 1482.7,-23.13 1484.09,-29.99"/>
</a>
</g>
</g>
<!-- Node20&#45;&gt;Node16 -->
<g id="edge27_Node000020_Node000016" class="edge">
<title>Node20&#45;&gt;Node16</title>
<g id="a_edge27_Node000020_Node000016"><a xlink:title=" ">
<path fill="none" stroke="#63b8ff" d="M870.61,-71.45C886.32,-69.42 903.28,-67.44 919,-66 1218.62,-38.64 1296.84,-70.28 1595,-30 1601.44,-29.13 1608.18,-27.95 1614.78,-26.65"/>
<polygon fill="#63b8ff" stroke="#63b8ff" points="1615.9,-29.99 1624.97,-24.52 1614.47,-23.14 1615.9,-29.99"/>
</a>
</g>
</g>
<!-- Node21 -->
<g id="Node000021" class="node">
<title>Node21</title>
<g id="a_Node000021"><a xlink:title=" ">
<polygon fill="#e0e0e0" stroke="#999999" points="924.5,-24.5 775.5,-24.5 775.5,-5.5 924.5,-5.5 924.5,-24.5"/>
<text text-anchor="middle" x="850" y="-12.5" font-family="Helvetica,sans-Serif" font-size="10.00">deal.II/base/vectorization.h</text>
</a>
</g>
</g>
<!-- Node20&#45;&gt;Node21 -->
<g id="edge28_Node000020_Node000021" class="edge">
<title>Node20&#45;&gt;Node21</title>
<g id="a_edge28_Node000020_Node000021"><a xlink:title=" ">
<path fill="none" stroke="#63b8ff" d="M819.66,-65.8C825.44,-56.31 833.08,-43.76 839.26,-33.63"/>
<polygon fill="#63b8ff" stroke="#63b8ff" points="842.4,-35.21 844.61,-24.84 836.42,-31.56 842.4,-35.21"/>
</a>
</g>
</g>
<!-- Node22 -->
<g id="Node000022" class="node">
<title>Node22</title>
<g id="a_Node000022"><a xlink:title=" ">
<polygon fill="#e0e0e0" stroke="#999999" points="1057,-24.5 943,-24.5 943,-5.5 1057,-5.5 1057,-24.5"/>
<text text-anchor="middle" x="1000" y="-12.5" font-family="Helvetica,sans-Serif" font-size="10.00">deal.II/fe/mapping.h</text>
</a>
</g>
</g>
<!-- Node20&#45;&gt;Node22 -->
<g id="edge29_Node000020_Node000022" class="edge">
<title>Node20&#45;&gt;Node22</title>
<g id="a_edge29_Node000020_Node000022"><a xlink:title=" ">
<path fill="none" stroke="#63b8ff" d="M852.48,-65.95C886.21,-54.53 933.26,-38.6 965.09,-27.82"/>
<polygon fill="#63b8ff" stroke="#63b8ff" points="966.5,-31.04 974.85,-24.52 964.25,-24.41 966.5,-31.04"/>
</a>
</g>
</g>
<!-- Node23 -->
<g id="Node000023" class="node">
<title>Node23</title>
<g id="a_Node000023"><a xlink:title=" ">
<polygon fill="#e0e0e0" stroke="#999999" points="1194.5,-30 1075.5,-30 1075.5,0 1194.5,0 1194.5,-30"/>
<text text-anchor="start" x="1083.5" y="-18" font-family="Helvetica,sans-Serif" font-size="10.00">deal.II/grid/grid_tools</text>
<text text-anchor="middle" x="1135" y="-7" font-family="Helvetica,sans-Serif" font-size="10.00">_geometry.h</text>
</a>
</g>
</g>
<!-- Node20&#45;&gt;Node23 -->
<g id="edge30_Node000020_Node000023" class="edge">
<title>Node20&#45;&gt;Node23</title>
<g id="a_edge30_Node000020_Node000023"><a xlink:title=" ">
<path fill="none" stroke="#63b8ff" d="M870.53,-68.44C920,-58.81 992.53,-44.63 1065.36,-30.12"/>
<polygon fill="#63b8ff" stroke="#63b8ff" points="1066.04,-33.55 1075.17,-28.17 1064.67,-26.69 1066.04,-33.55"/>
</a>
</g>
</g>
<!-- Node24 -->
<g id="Node000024" class="node">
<title>Node24</title>
<g id="a_Node000024"><a xlink:title=" ">
<polygon fill="#e0e0e0" stroke="#999999" points="1309.5,-24.5 1212.5,-24.5 1212.5,-5.5 1309.5,-5.5 1309.5,-24.5"/>
<text text-anchor="middle" x="1261" y="-12.5" font-family="Helvetica,sans-Serif" font-size="10.00">deal.II/grid/tria.h</text>
</a>
</g>
</g>
<!-- Node20&#45;&gt;Node24 -->
<g id="edge31_Node000020_Node000024" class="edge">
<title>Node20&#45;&gt;Node24</title>
<g id="a_edge31_Node000020_Node000024"><a xlink:title=" ">
<path fill="none" stroke="#63b8ff" d="M870.71,-68.31C875.54,-67.48 880.35,-66.7 885,-66 1026.08,-44.72 1063.54,-55.07 1204,-30 1209.07,-29.09 1214.37,-28 1219.6,-26.83"/>
<polygon fill="#63b8ff" stroke="#63b8ff" points="1220.56,-30.2 1229.5,-24.5 1218.96,-23.38 1220.56,-30.2"/>
</a>
</g>
</g>
<!-- Node25 -->
<g id="Node000025" class="node">
<title>Node25</title>
<g id="a_Node000025"><a xlink:title=" ">
<polygon fill="#e0e0e0" stroke="#999999" points="1392,-24.5 1328,-24.5 1328,-5.5 1392,-5.5 1392,-24.5"/>
<text text-anchor="middle" x="1360" y="-12.5" font-family="Helvetica,sans-Serif" font-size="10.00">algorithm</text>
</a>
</g>
</g>
<!-- Node20&#45;&gt;Node25 -->
<g id="edge32_Node000020_Node000025" class="edge">
<title>Node20&#45;&gt;Node25</title>
<g id="a_edge32_Node000020_Node000025"><a xlink:title=" ">
<path fill="none" stroke="#63b8ff" d="M870.69,-68.15C875.52,-67.36 880.34,-66.63 885,-66 1076.79,-39.97 1129.54,-69.57 1319,-30 1322.07,-29.36 1325.22,-28.56 1328.35,-27.66"/>
<polygon fill="#63b8ff" stroke="#63b8ff" points="1329.66,-30.92 1338.15,-24.57 1327.56,-24.24 1329.66,-30.92"/>
</a>
</g>
</g>
<!-- Node26 -->
<g id="Node000026" class="node">
<title>Node26</title>
<g id="a_Node000026"><a xlink:title=" ">
<polygon fill="#e0e0e0" stroke="#999999" points="529.5,-24.5 482.5,-24.5 482.5,-5.5 529.5,-5.5 529.5,-24.5"/>
<text text-anchor="middle" x="506" y="-12.5" font-family="Helvetica,sans-Serif" font-size="10.00">cmath</text>
</a>
</g>
</g>
<!-- Node20&#45;&gt;Node26 -->
<g id="edge33_Node000020_Node000026" class="edge">
<title>Node20&#45;&gt;Node26</title>
<g id="a_edge33_Node000020_Node000026"><a xlink:title=" ">
<path fill="none" stroke="#63b8ff" d="M751.31,-67.61C748.51,-67.06 745.72,-66.52 743,-66 652.57,-48.72 627.28,-56.15 539,-30 537.32,-29.5 535.61,-28.94 533.89,-28.34"/>
<polygon fill="#63b8ff" stroke="#63b8ff" points="534.82,-24.95 524.23,-24.6 532.29,-31.48 534.82,-24.95"/>
</a>
</g>
</g>
<!-- Node27 -->
<g id="Node000027" class="node">
<title>Node27</title>
<g id="a_Node000027"><a xlink:title=" ">
<polygon fill="#e0e0e0" stroke="#999999" points="578.5,-24.5 547.5,-24.5 547.5,-5.5 578.5,-5.5 578.5,-24.5"/>
<text text-anchor="middle" x="563" y="-12.5" font-family="Helvetica,sans-Serif" font-size="10.00">ios</text>
</a>
</g>
</g>
<!-- Node20&#45;&gt;Node27 -->
<g id="edge34_Node000020_Node000027" class="edge">
<title>Node20&#45;&gt;Node27</title>
<g id="a_edge34_Node000020_Node000027"><a xlink:title=" ">
<path fill="none" stroke="#63b8ff" d="M751.46,-67.58C690.71,-54.76 603.22,-35.82 588,-30 587.29,-29.73 586.57,-29.44 585.85,-29.13"/>
<polygon fill="#63b8ff" stroke="#63b8ff" points="587.18,-25.89 576.67,-24.59 584.08,-32.16 587.18,-25.89"/>
</a>
</g>
</g>
<!-- Node28 -->
<g id="Node000028" class="node">
<title>Node28</title>
<g id="a_Node000028"><a xlink:title=" ">
<polygon fill="#e0e0e0" stroke="#999999" points="653,-24.5 597,-24.5 597,-5.5 653,-5.5 653,-24.5"/>
<text text-anchor="middle" x="625" y="-12.5" font-family="Helvetica,sans-Serif" font-size="10.00">sstream</text>
</a>
</g>
</g>
<!-- Node20&#45;&gt;Node28 -->
<g id="edge35_Node000020_Node000028" class="edge">
<title>Node20&#45;&gt;Node28</title>
<g id="a_edge35_Node000020_Node000028"><a xlink:title=" ">
<path fill="none" stroke="#63b8ff" d="M767.82,-65.99C737.99,-56.2 697.46,-42.65 662,-30 660.35,-29.41 658.67,-28.8 656.97,-28.18"/>
<polygon fill="#63b8ff" stroke="#63b8ff" points="657.85,-24.78 647.25,-24.58 655.41,-31.34 657.85,-24.78"/>
</a>
</g>
</g>
<!-- Node20&#45;&gt;Node29 -->
<g id="edge36_Node000020_Node000029" class="edge">
<title>Node20&#45;&gt;Node29</title>
<g id="a_edge36_Node000020_Node000029"><a xlink:title=" ">
<path fill="none" stroke="#63b8ff" d="M870.68,-68.09C875.51,-67.31 880.33,-66.6 885,-66 1113,-36.58 1178.08,-86.19 1401,-30 1402.73,-29.56 1404.49,-29.03 1406.24,-28.44"/>
<polygon fill="#63b8ff" stroke="#63b8ff" points="1408,-31.5 1415.98,-24.53 1405.4,-25.01 1408,-31.5"/>
</a>
</g>
</g>
<!-- Node30 -->
<g id="Node000030" class="node">
<title>Node30</title>
<g id="a_Node000030"><a xlink:title=" ">
<polygon fill="#e0e0e0" stroke="#999999" points="757,-24.5 671,-24.5 671,-5.5 757,-5.5 757,-24.5"/>
<text text-anchor="middle" x="714" y="-12.5" font-family="Helvetica,sans-Serif" font-size="10.00">unordered_set</text>
</a>
</g>
</g>
<!-- Node20&#45;&gt;Node30 -->
<g id="edge37_Node000020_Node000030" class="edge">
<title>Node20&#45;&gt;Node30</title>
<g id="a_edge37_Node000020_Node000030"><a xlink:title=" ">
<path fill="none" stroke="#63b8ff" d="M789.47,-65.8C773.52,-55.27 751.85,-40.97 735.82,-30.4"/>
<polygon fill="#63b8ff" stroke="#63b8ff" points="737.4,-27.24 727.12,-24.66 733.54,-33.09 737.4,-27.24"/>
</a>
</g>
</g>
<!-- Node33&#45;&gt;Node5 -->
<g id="edge44_Node000033_Node000005" class="edge">
<title>Node33&#45;&gt;Node5</title>
<g id="a_edge44_Node000033_Node000005"><a xlink:title=" ">
<path fill="none" stroke="#63b8ff" d="M511.82,-205.38C612.12,-194.57 800.11,-173.2 829,-162 850.73,-153.57 849.96,-139.55 872,-132 1020.4,-81.15 1421.11,-113.55 1577,-96 1578.3,-95.85 1579.61,-95.7 1580.93,-95.54"/>
<polygon fill="#63b8ff" stroke="#63b8ff" points="1581.72,-98.96 1591.17,-94.18 1580.8,-92.03 1581.72,-98.96"/>
</a>
</g>
</g>
<!-- Node33&#45;&gt;Node6 -->
<g id="edge45_Node000033_Node000006" class="edge">
<title>Node33&#45;&gt;Node6</title>
<g id="a_edge45_Node000033_Node000006"><a xlink:title=" ">
<path fill="none" stroke="#63b8ff" d="M430.36,-197.8C419.05,-189.18 404.42,-178.04 391.88,-168.48"/>
<polygon fill="#63b8ff" stroke="#63b8ff" points="393.67,-165.44 383.59,-162.16 389.42,-171.01 393.67,-165.44"/>
</a>
</g>
</g>
<!-- Node33&#45;&gt;Node7 -->
<g id="edge46_Node000033_Node000007" class="edge">
<title>Node33&#45;&gt;Node7</title>
<g id="a_edge46_Node000033_Node000007"><a xlink:title=" ">
<path fill="none" stroke="#63b8ff" d="M386.46,-197.95C340.87,-187.72 279.14,-173.86 232.27,-163.33"/>
<polygon fill="#63b8ff" stroke="#63b8ff" points="233.03,-159.92 222.51,-161.14 231.5,-166.75 233.03,-159.92"/>
</a>
</g>
</g>
<!-- Node33&#45;&gt;Node10 -->
<g id="edge48_Node000033_Node000010" class="edge">
<title>Node33&#45;&gt;Node10</title>
<g id="a_edge48_Node000033_Node000010"><a xlink:title=" ">
<path fill="none" stroke="#63b8ff" d="M450.26,-197.92C452.05,-168.06 451.42,-98.49 411,-66 354.53,-20.6 321.79,-49.48 252,-30 249.38,-29.27 246.69,-28.47 243.99,-27.65"/>
<polygon fill="#63b8ff" stroke="#63b8ff" points="244.89,-24.26 234.3,-24.56 242.77,-30.93 244.89,-24.26"/>
</a>
</g>
</g>
<!-- Node33&#45;&gt;Node13 -->
<g id="edge47_Node000033_Node000013" class="edge">
<title>Node33&#45;&gt;Node13</title>
<g id="a_edge47_Node000033_Node000013"><a xlink:title=" ">
<path fill="none" stroke="#63b8ff" d="M511.76,-199.13C564.11,-188.39 638.59,-173.11 692.48,-162.05"/>
<polygon fill="#63b8ff" stroke="#63b8ff" points="693.2,-165.48 702.3,-160.04 691.8,-158.62 693.2,-165.48"/>
</a>
</g>
</g>
</g>
</svg>

<g id="navigator" transform="translate(0 0)" fill="#404254">
  <rect fill="#f2f5e9" fill-opacity="0.5" stroke="#606060" stroke-width=".5" x="0" y="0" width="60" height="60"/>
  <use id="zoomplus" xlink:href="#zoomPlus" x="17" y="9" onmousedown="handleZoom(evt,'in')"/>
  <use id="zoomminus" xlink:href="#zoomMin" x="42" y="9" onmousedown="handleZoom(evt,'out')"/>
  <use id="reset" xlink:href="#resetDef" x="30" y="36" onmousedown="handleReset()"/>
   <use id="arrowup" xlink:href="#arrowUp" x="0" y="0" onmousedown="handlePan(0,-1)"/>
  <use id="arrowright" xlink:href="#arrowRight" x="0" y="0" onmousedown="handlePan(1,0)"/>
  <use id="arrowdown" xlink:href="#arrowDown" x="0" y="0" onmousedown="handlePan(0,1)"/>
  <use id="arrowleft" xlink:href="#arrowLeft" x="0" y="0" onmousedown="handlePan(-1,0)"/>
</g>
<svg viewBox="0 0 15 15" width="100%" height="30px" preserveAspectRatio="xMaxYMin meet">
 <g id="arrow_out" transform="scale(0.3 0.3)">
  <a xlink:href="particle__iterator_8hpp__incl_org.svg" target="_base">
   <rect id="button" ry="5" rx="5" y="6" x="6" height="38" width="38"
        fill="#f2f5e9" fill-opacity="0.5" stroke="#606060" stroke-width="1.0"/>
   <path id="arrow"
     d="M 11.500037,31.436501 C 11.940474,20.09759 22.043105,11.32322 32.158766,21.979434 L 37.068811,17.246167 C 37.068811,17.246167 37.088388,32 37.088388,32 L 22.160133,31.978069 C 22.160133,31.978069 26.997745,27.140456 26.997745,27.140456 C 18.528582,18.264221 13.291696,25.230495 11.500037,31.436501 z"
     style="fill:#404040;"/>
  </a>
 </g>
</svg>

<style type='text/css'>
<![CDATA[
[data-mouse-over-selected='false'] { opacity: 0.7; }
[data-mouse-over-selected='true']  { opacity: 1.0; }
]]>
</style>
<script type="application/ecmascript"><![CDATA[
document.addEventListener('DOMContentLoaded', (event) => {
  highlightEdges();
  highlightAdjacentNodes();
});
]]></script>
</svg>
