<?xml version="1.0" encoding="UTF-8" standalone="no"?>
<!DOCTYPE svg PUBLIC "-//W3C//DTD SVG 1.1//EN"
 "http://www.w3.org/Graphics/SVG/1.1/DTD/svg11.dtd">
<!-- Generated by graphviz version 2.43.0 (0)
 -->
<!-- Title: include/meltpooldg/particles/particle_accessor.hpp Pages: 1 -->
<svg width="1718pt" height="247pt"
 viewBox="0.00 0.00 1718.00 247.00" xmlns="http://www.w3.org/2000/svg" xmlns:xlink="http://www.w3.org/1999/xlink">
<g id="graph0" class="graph" transform="scale(1 1) rotate(0) translate(4 243)">
<title>include/meltpooldg/particles/particle_accessor.hpp</title>
<!-- Node1 -->
<g id="Node000001" class="node">
<title>Node1</title>
<g id="a_Node000001"><a xlink:title=" ">
<polygon fill="#999999" stroke="#666666" points="337.5,-239 227.5,-239 227.5,-198 337.5,-198 337.5,-239"/>
<text text-anchor="start" x="235.5" y="-227" font-family="Helvetica,sans-Serif" font-size="10.00">include/meltpooldg</text>
<text text-anchor="start" x="235.5" y="-216" font-family="Helvetica,sans-Serif" font-size="10.00">/particles/particle</text>
<text text-anchor="middle" x="282.5" y="-205" font-family="Helvetica,sans-Serif" font-size="10.00">_accessor.hpp</text>
</a>
</g>
</g>
<!-- Node2 -->
<g id="Node000002" class="node">
<title>Node2</title>
<g id="a_Node000002"><a xlink:title=" ">
<polygon fill="#e0e0e0" stroke="#999999" points="599,-96 468,-96 468,-66 599,-66 599,-96"/>
<text text-anchor="start" x="476" y="-84" font-family="Helvetica,sans-Serif" font-size="10.00">deal.II/particles/particle</text>
<text text-anchor="middle" x="533.5" y="-73" font-family="Helvetica,sans-Serif" font-size="10.00">_accessor.h</text>
</a>
</g>
</g>
<!-- Node1&#45;&gt;Node2 -->
<g id="edge1_Node000001_Node000002" class="edge">
<title>Node1&#45;&gt;Node2</title>
<g id="a_edge1_Node000001_Node000002"><a xlink:title=" ">
<path fill="none" stroke="#63b8ff" d="M318.73,-197.94C366.71,-172.04 450.79,-126.65 498.27,-101.02"/>
<polygon fill="#63b8ff" stroke="#63b8ff" points="500.12,-104 507.25,-96.17 496.79,-97.84 500.12,-104"/>
</a>
</g>
</g>
<!-- Node3 -->
<g id="Node000003" class="node">
<title>Node3</title>
<g id="a_Node000003"><a xlink:title=" ">
<polygon fill="#e0e0e0" stroke="#999999" points="205.5,-162 69.5,-162 69.5,-132 205.5,-132 205.5,-162"/>
<text text-anchor="start" x="77.5" y="-150" font-family="Helvetica,sans-Serif" font-size="10.00">deal.II/particles/property</text>
<text text-anchor="middle" x="137.5" y="-139" font-family="Helvetica,sans-Serif" font-size="10.00">_pool.h</text>
</a>
</g>
</g>
<!-- Node1&#45;&gt;Node3 -->
<g id="edge2_Node000001_Node000003" class="edge">
<title>Node1&#45;&gt;Node3</title>
<g id="a_edge2_Node000001_Node000003"><a xlink:title=" ">
<path fill="none" stroke="#63b8ff" d="M241.72,-197.96C221.19,-188.11 196.42,-176.24 176.18,-166.54"/>
<polygon fill="#63b8ff" stroke="#63b8ff" points="177.47,-163.28 166.94,-162.11 174.45,-169.59 177.47,-163.28"/>
</a>
</g>
</g>
<!-- Node4 -->
<g id="Node000004" class="node">
<title>Node4</title>
<g id="a_Node000004"><a xlink:href="dem__util_8hpp.html" target="_top" xlink:title=" ">
<polygon fill="white" stroke="#666666" points="341,-162 224,-162 224,-132 341,-132 341,-162"/>
<text text-anchor="start" x="232" y="-150" font-family="Helvetica,sans-Serif" font-size="10.00">meltpooldg/particles</text>
<text text-anchor="middle" x="282.5" y="-139" font-family="Helvetica,sans-Serif" font-size="10.00">/dem_util.hpp</text>
</a>
</g>
</g>
<!-- Node1&#45;&gt;Node4 -->
<g id="edge3_Node000001_Node000004" class="edge">
<title>Node1&#45;&gt;Node4</title>
<g id="a_edge3_Node000001_Node000004"><a xlink:title=" ">
<path fill="none" stroke="#63b8ff" d="M282.5,-197.77C282.5,-189.85 282.5,-180.63 282.5,-172.3"/>
<polygon fill="#63b8ff" stroke="#63b8ff" points="286,-172.04 282.5,-162.04 279,-172.04 286,-172.04"/>
</a>
</g>
</g>
<!-- Node8 -->
<g id="Node000008" class="node">
<title>Node8</title>
<g id="a_Node000008"><a xlink:title=" ">
<polygon fill="#e0e0e0" stroke="#999999" points="65,-24.5 0,-24.5 0,-5.5 65,-5.5 65,-24.5"/>
<text text-anchor="middle" x="32.5" y="-12.5" font-family="Helvetica,sans-Serif" font-size="10.00">functional</text>
</a>
</g>
</g>
<!-- Node1&#45;&gt;Node8 -->
<g id="edge40_Node000001_Node000008" class="edge">
<title>Node1&#45;&gt;Node8</title>
<g id="a_edge40_Node000001_Node000008"><a xlink:title=" ">
<path fill="none" stroke="#63b8ff" d="M227.35,-210.55C169.26,-202.08 83.09,-185.88 60.5,-162 27.47,-127.09 27.68,-65.72 30.24,-34.85"/>
<polygon fill="#63b8ff" stroke="#63b8ff" points="33.75,-34.94 31.28,-24.63 26.79,-34.23 33.75,-34.94"/>
</a>
</g>
</g>
<!-- Node11 -->
<g id="Node000011" class="node">
<title>Node11</title>
<g id="a_Node000011"><a xlink:href="particle_8hpp.html" target="_top" xlink:title=" ">
<polygon fill="white" stroke="#666666" points="1116,-162 999,-162 999,-132 1116,-132 1116,-162"/>
<text text-anchor="start" x="1007" y="-150" font-family="Helvetica,sans-Serif" font-size="10.00">meltpooldg/particles</text>
<text text-anchor="middle" x="1057.5" y="-139" font-family="Helvetica,sans-Serif" font-size="10.00">/particle.hpp</text>
</a>
</g>
</g>
<!-- Node1&#45;&gt;Node11 -->
<g id="edge12_Node000001_Node000011" class="edge">
<title>Node1&#45;&gt;Node11</title>
<g id="a_edge12_Node000001_Node000011"><a xlink:title=" ">
<path fill="none" stroke="#63b8ff" d="M337.61,-212.56C475.88,-200.16 837.18,-167.76 988.87,-154.15"/>
<polygon fill="#63b8ff" stroke="#63b8ff" points="989.34,-157.63 998.99,-153.25 988.72,-150.65 989.34,-157.63"/>
</a>
</g>
</g>
<!-- Node5 -->
<g id="Node000005" class="node">
<title>Node5</title>
<g id="a_Node000005"><a xlink:title=" ">
<polygon fill="#e0e0e0" stroke="#999999" points="442,-96 311,-96 311,-66 442,-66 442,-96"/>
<text text-anchor="start" x="319" y="-84" font-family="Helvetica,sans-Serif" font-size="10.00">deal.II/particles/particle</text>
<text text-anchor="middle" x="376.5" y="-73" font-family="Helvetica,sans-Serif" font-size="10.00">_handler.h</text>
</a>
</g>
</g>
<!-- Node4&#45;&gt;Node5 -->
<g id="edge4_Node000004_Node000005" class="edge">
<title>Node4&#45;&gt;Node5</title>
<g id="a_edge4_Node000004_Node000005"><a xlink:title=" ">
<path fill="none" stroke="#63b8ff" d="M303.36,-131.8C316.26,-123.01 333.01,-111.61 347.23,-101.93"/>
<polygon fill="#63b8ff" stroke="#63b8ff" points="349.4,-104.69 355.7,-96.16 345.46,-98.9 349.4,-104.69"/>
</a>
</g>
</g>
<!-- Node6 -->
<g id="Node000006" class="node">
<title>Node6</title>
<g id="a_Node000006"><a xlink:href="solution__history_8hpp.html" target="_top" xlink:title=" ">
<polygon fill="white" stroke="#666666" points="254.5,-96 98.5,-96 98.5,-66 254.5,-66 254.5,-96"/>
<text text-anchor="start" x="106.5" y="-84" font-family="Helvetica,sans-Serif" font-size="10.00">meltpooldg/time_integration</text>
<text text-anchor="middle" x="176.5" y="-73" font-family="Helvetica,sans-Serif" font-size="10.00">/solution_history.hpp</text>
</a>
</g>
</g>
<!-- Node4&#45;&gt;Node6 -->
<g id="edge5_Node000004_Node000006" class="edge">
<title>Node4&#45;&gt;Node6</title>
<g id="a_edge5_Node000004_Node000006"><a xlink:title=" ">
<path fill="none" stroke="#63b8ff" d="M259.24,-131.95C244.33,-122.95 224.77,-111.14 208.41,-101.27"/>
<polygon fill="#63b8ff" stroke="#63b8ff" points="210.08,-98.18 199.71,-96.01 206.46,-104.18 210.08,-98.18"/>
</a>
</g>
</g>
<!-- Node4&#45;&gt;Node8 -->
<g id="edge10_Node000004_Node000008" class="edge">
<title>Node4&#45;&gt;Node8</title>
<g id="a_edge10_Node000004_Node000008"><a xlink:title=" ">
<path fill="none" stroke="#63b8ff" d="M223.76,-132.92C171.19,-120.87 100.73,-103.72 89.5,-96 66.5,-80.18 49.61,-51.88 40.42,-33.53"/>
<polygon fill="#63b8ff" stroke="#63b8ff" points="43.58,-32.03 36.11,-24.5 37.26,-35.04 43.58,-32.03"/>
</a>
</g>
</g>
<!-- Node10 -->
<g id="Node000010" class="node">
<title>Node10</title>
<g id="a_Node000010"><a xlink:title=" ">
<polygon fill="#e0e0e0" stroke="#999999" points="207,-24.5 160,-24.5 160,-5.5 207,-5.5 207,-24.5"/>
<text text-anchor="middle" x="183.5" y="-12.5" font-family="Helvetica,sans-Serif" font-size="10.00">vector</text>
</a>
</g>
</g>
<!-- Node4&#45;&gt;Node10 -->
<g id="edge11_Node000004_Node000010" class="edge">
<title>Node4&#45;&gt;Node10</title>
<g id="a_edge11_Node000004_Node000010"><a xlink:title=" ">
<path fill="none" stroke="#63b8ff" d="M282.32,-131.96C281.43,-114.86 277.74,-85.83 263.5,-66 256.29,-55.96 229.79,-40.39 209.24,-29.29"/>
<polygon fill="#63b8ff" stroke="#63b8ff" points="210.78,-26.14 200.31,-24.54 207.49,-32.33 210.78,-26.14"/>
</a>
</g>
</g>
<!-- Node7 -->
<g id="Node000007" class="node">
<title>Node7</title>
<g id="a_Node000007"><a xlink:title=" ">
<polygon fill="#e0e0e0" stroke="#999999" points="363.5,-24.5 225.5,-24.5 225.5,-5.5 363.5,-5.5 363.5,-24.5"/>
<text text-anchor="middle" x="294.5" y="-12.5" font-family="Helvetica,sans-Serif" font-size="10.00">deal.II/base/exceptions.h</text>
</a>
</g>
</g>
<!-- Node6&#45;&gt;Node7 -->
<g id="edge6_Node000006_Node000007" class="edge">
<title>Node6&#45;&gt;Node7</title>
<g id="a_edge6_Node000006_Node000007"><a xlink:title=" ">
<path fill="none" stroke="#63b8ff" d="M202.4,-65.95C222.45,-55.08 250.05,-40.11 269.8,-29.4"/>
<polygon fill="#63b8ff" stroke="#63b8ff" points="271.67,-32.36 278.8,-24.52 268.34,-26.21 271.67,-32.36"/>
</a>
</g>
</g>
<!-- Node6&#45;&gt;Node8 -->
<g id="edge7_Node000006_Node000008" class="edge">
<title>Node6&#45;&gt;Node8</title>
<g id="a_edge7_Node000006_Node000008"><a xlink:title=" ">
<path fill="none" stroke="#63b8ff" d="M144.9,-65.95C119.87,-54.83 85.2,-39.42 61.01,-28.67"/>
<polygon fill="#63b8ff" stroke="#63b8ff" points="62.22,-25.38 51.66,-24.52 59.38,-31.78 62.22,-25.38"/>
</a>
</g>
</g>
<!-- Node9 -->
<g id="Node000009" class="node">
<title>Node9</title>
<g id="a_Node000009"><a xlink:title=" ">
<polygon fill="#e0e0e0" stroke="#999999" points="141.5,-24.5 83.5,-24.5 83.5,-5.5 141.5,-5.5 141.5,-24.5"/>
<text text-anchor="middle" x="112.5" y="-12.5" font-family="Helvetica,sans-Serif" font-size="10.00">memory</text>
</a>
</g>
</g>
<!-- Node6&#45;&gt;Node9 -->
<g id="edge8_Node000006_Node000009" class="edge">
<title>Node6&#45;&gt;Node9</title>
<g id="a_edge8_Node000006_Node000009"><a xlink:title=" ">
<path fill="none" stroke="#63b8ff" d="M162.3,-65.8C152.32,-55.82 138.96,-42.46 128.59,-32.09"/>
<polygon fill="#63b8ff" stroke="#63b8ff" points="130.89,-29.44 121.34,-24.84 125.94,-34.39 130.89,-29.44"/>
</a>
</g>
</g>
<!-- Node6&#45;&gt;Node10 -->
<g id="edge9_Node000006_Node000010" class="edge">
<title>Node6&#45;&gt;Node10</title>
<g id="a_edge9_Node000006_Node000010"><a xlink:title=" ">
<path fill="none" stroke="#63b8ff" d="M178.05,-65.8C179.05,-56.7 180.35,-44.79 181.43,-34.9"/>
<polygon fill="#63b8ff" stroke="#63b8ff" points="184.92,-35.17 182.53,-24.84 177.97,-34.4 184.92,-35.17"/>
</a>
</g>
</g>
<!-- Node11&#45;&gt;Node2 -->
<g id="edge20_Node000011_Node000002" class="edge">
<title>Node11&#45;&gt;Node2</title>
<g id="a_edge20_Node000011_Node000002"><a xlink:title=" ">
<path fill="none" stroke="#63b8ff" d="M998.67,-138.97C918.55,-129.38 770.66,-111.59 644.5,-96 633.17,-94.6 621.19,-93.1 609.46,-91.63"/>
<polygon fill="#63b8ff" stroke="#63b8ff" points="609.59,-88.12 599.23,-90.35 608.72,-95.07 609.59,-88.12"/>
</a>
</g>
</g>
<!-- Node11&#45;&gt;Node7 -->
<g id="edge15_Node000011_Node000007" class="edge">
<title>Node11&#45;&gt;Node7</title>
<g id="a_edge15_Node000011_Node000007"><a xlink:title=" ">
<path fill="none" stroke="#63b8ff" d="M998.82,-141.6C934.01,-135.64 827.11,-122.54 738.5,-96 707.63,-86.75 703.53,-74.69 672.5,-66 543.18,-29.79 505.31,-49.87 372.5,-30 365.03,-28.88 357.17,-27.6 349.44,-26.27"/>
<polygon fill="#63b8ff" stroke="#63b8ff" points="349.84,-22.79 339.38,-24.52 348.63,-29.69 349.84,-22.79"/>
</a>
</g>
</g>
<!-- Node11&#45;&gt;Node10 -->
<g id="edge39_Node000011_Node000010" class="edge">
<title>Node11&#45;&gt;Node10</title>
<g id="a_edge39_Node000011_Node000010"><a xlink:title=" ">
<path fill="none" stroke="#63b8ff" d="M998.99,-143.9C922.55,-139.92 785.19,-128.5 672.5,-96 641.93,-87.18 638.23,-74.24 607.5,-66 438.95,-20.78 385.74,-72.59 216.5,-30 214.55,-29.51 212.57,-28.92 210.6,-28.27"/>
<polygon fill="#63b8ff" stroke="#63b8ff" points="211.55,-24.88 200.96,-24.59 209.06,-31.43 211.55,-24.88"/>
</a>
</g>
</g>
<!-- Node12 -->
<g id="Node000012" class="node">
<title>Node12</title>
<g id="a_Node000012"><a xlink:title=" ">
<polygon fill="#e0e0e0" stroke="#999999" points="1485.5,-24.5 1371.5,-24.5 1371.5,-5.5 1485.5,-5.5 1485.5,-24.5"/>
<text text-anchor="middle" x="1428.5" y="-12.5" font-family="Helvetica,sans-Serif" font-size="10.00">deal.II/base/config.h</text>
</a>
</g>
</g>
<!-- Node11&#45;&gt;Node12 -->
<g id="edge13_Node000011_Node000012" class="edge">
<title>Node11&#45;&gt;Node12</title>
<g id="a_edge13_Node000011_Node000012"><a xlink:title=" ">
<path fill="none" stroke="#63b8ff" d="M1116.38,-143.66C1231.25,-138.48 1476.27,-124.23 1501.5,-96 1522.64,-72.34 1484.2,-45.12 1455.53,-29.3"/>
<polygon fill="#63b8ff" stroke="#63b8ff" points="1457.13,-26.19 1446.66,-24.59 1453.85,-32.37 1457.13,-26.19"/>
</a>
</g>
</g>
<!-- Node13 -->
<g id="Node000013" class="node">
<title>Node13</title>
<g id="a_Node000013"><a xlink:title=" ">
<polygon fill="#e0e0e0" stroke="#999999" points="986,-96 885,-96 885,-66 986,-66 986,-96"/>
<text text-anchor="start" x="893" y="-84" font-family="Helvetica,sans-Serif" font-size="10.00">deal.II/base/array</text>
<text text-anchor="middle" x="935.5" y="-73" font-family="Helvetica,sans-Serif" font-size="10.00">_view.h</text>
</a>
</g>
</g>
<!-- Node11&#45;&gt;Node13 -->
<g id="edge14_Node000011_Node000013" class="edge">
<title>Node11&#45;&gt;Node13</title>
<g id="a_edge14_Node000011_Node000013"><a xlink:title=" ">
<path fill="none" stroke="#63b8ff" d="M1030.73,-131.95C1013.25,-122.78 990.22,-110.71 971.19,-100.72"/>
<polygon fill="#63b8ff" stroke="#63b8ff" points="972.69,-97.56 962.21,-96.01 969.44,-103.76 972.69,-97.56"/>
</a>
</g>
</g>
<!-- Node14 -->
<g id="Node000014" class="node">
<title>Node14</title>
<g id="a_Node000014"><a xlink:title=" ">
<polygon fill="#e0e0e0" stroke="#999999" points="1613.5,-24.5 1503.5,-24.5 1503.5,-5.5 1613.5,-5.5 1613.5,-24.5"/>
<text text-anchor="middle" x="1558.5" y="-12.5" font-family="Helvetica,sans-Serif" font-size="10.00">deal.II/base/point.h</text>
</a>
</g>
</g>
<!-- Node11&#45;&gt;Node14 -->
<g id="edge16_Node000011_Node000014" class="edge">
<title>Node11&#45;&gt;Node14</title>
<g id="a_edge16_Node000011_Node000014"><a xlink:title=" ">
<path fill="none" stroke="#63b8ff" d="M1116.09,-146.54C1225.56,-146.45 1455.8,-140.76 1519.5,-96 1540.01,-81.59 1550.19,-53.31 1554.89,-34.53"/>
<polygon fill="#63b8ff" stroke="#63b8ff" points="1558.37,-35.03 1557.11,-24.51 1551.53,-33.52 1558.37,-35.03"/>
</a>
</g>
</g>
<!-- Node15 -->
<g id="Node000015" class="node">
<title>Node15</title>
<g id="a_Node000015"><a xlink:title=" ">
<polygon fill="#e0e0e0" stroke="#999999" points="1158,-90.5 1043,-90.5 1043,-71.5 1158,-71.5 1158,-90.5"/>
<text text-anchor="middle" x="1100.5" y="-78.5" font-family="Helvetica,sans-Serif" font-size="10.00">deal.II/base/tensor.h</text>
</a>
</g>
</g>
<!-- Node11&#45;&gt;Node15 -->
<g id="edge17_Node000011_Node000015" class="edge">
<title>Node11&#45;&gt;Node15</title>
<g id="a_edge17_Node000011_Node000015"><a xlink:title=" ">
<path fill="none" stroke="#63b8ff" d="M1067.04,-131.8C1073.48,-122.21 1082.02,-109.5 1088.86,-99.32"/>
<polygon fill="#63b8ff" stroke="#63b8ff" points="1091.89,-101.1 1094.56,-90.84 1086.08,-97.19 1091.89,-101.1"/>
</a>
</g>
</g>
<!-- Node16 -->
<g id="Node000016" class="node">
<title>Node16</title>
<g id="a_Node000016"><a xlink:title=" ">
<polygon fill="#e0e0e0" stroke="#999999" points="1334.5,-96 1176.5,-96 1176.5,-66 1334.5,-66 1334.5,-96"/>
<text text-anchor="start" x="1184.5" y="-84" font-family="Helvetica,sans-Serif" font-size="10.00">deal.II/numerics/data</text>
<text text-anchor="middle" x="1255.5" y="-73" font-family="Helvetica,sans-Serif" font-size="10.00">_component_interpretation.h</text>
</a>
</g>
</g>
<!-- Node11&#45;&gt;Node16 -->
<g id="edge18_Node000011_Node000016" class="edge">
<title>Node11&#45;&gt;Node16</title>
<g id="a_edge18_Node000011_Node000016"><a xlink:title=" ">
<path fill="none" stroke="#63b8ff" d="M1100.95,-131.95C1130.87,-122.28 1170.79,-109.38 1202.57,-99.11"/>
<polygon fill="#63b8ff" stroke="#63b8ff" points="1203.71,-102.42 1212.15,-96.01 1201.56,-95.76 1203.71,-102.42"/>
</a>
</g>
</g>
<!-- Node17 -->
<g id="Node000017" class="node">
<title>Node17</title>
<g id="a_Node000017"><a xlink:title=" ">
<polygon fill="#e0e0e0" stroke="#999999" points="1492.5,-90.5 1352.5,-90.5 1352.5,-71.5 1492.5,-71.5 1492.5,-90.5"/>
<text text-anchor="middle" x="1422.5" y="-78.5" font-family="Helvetica,sans-Serif" font-size="10.00">deal.II/particles/particle.h</text>
</a>
</g>
</g>
<!-- Node11&#45;&gt;Node17 -->
<g id="edge19_Node000011_Node000017" class="edge">
<title>Node11&#45;&gt;Node17</title>
<g id="a_edge19_Node000011_Node000017"><a xlink:title=" ">
<path fill="none" stroke="#63b8ff" d="M1116.12,-135.79C1173.93,-125.72 1264.82,-109.85 1343.5,-96 1350.23,-94.82 1357.28,-93.57 1364.28,-92.33"/>
<polygon fill="#63b8ff" stroke="#63b8ff" points="1365.22,-95.72 1374.46,-90.53 1364,-88.83 1365.22,-95.72"/>
</a>
</g>
</g>
<!-- Node18 -->
<g id="Node000018" class="node">
<title>Node18</title>
<g id="a_Node000018"><a xlink:href="utilities_2utility__functions_8hpp.html" target="_top" xlink:title=" ">
<polygon fill="white" stroke="#666666" points="867,-96 748,-96 748,-66 867,-66 867,-96"/>
<text text-anchor="start" x="756" y="-84" font-family="Helvetica,sans-Serif" font-size="10.00">meltpooldg/utilities</text>
<text text-anchor="middle" x="807.5" y="-73" font-family="Helvetica,sans-Serif" font-size="10.00">/utility_functions.hpp</text>
</a>
</g>
</g>
<!-- Node11&#45;&gt;Node18 -->
<g id="edge21_Node000011_Node000018" class="edge">
<title>Node11&#45;&gt;Node18</title>
<g id="a_edge21_Node000011_Node000018"><a xlink:title=" ">
<path fill="none" stroke="#63b8ff" d="M1002.64,-131.95C964.13,-122.1 912.49,-108.88 872.01,-98.51"/>
<polygon fill="#63b8ff" stroke="#63b8ff" points="872.79,-95.1 862.24,-96.01 871.06,-101.88 872.79,-95.1"/>
</a>
</g>
</g>
<!-- Node27 -->
<g id="Node000027" class="node">
<title>Node27</title>
<g id="a_Node000027"><a xlink:title=" ">
<polygon fill="#e0e0e0" stroke="#999999" points="1353.5,-24.5 1309.5,-24.5 1309.5,-5.5 1353.5,-5.5 1353.5,-24.5"/>
<text text-anchor="middle" x="1331.5" y="-12.5" font-family="Helvetica,sans-Serif" font-size="10.00">string</text>
</a>
</g>
</g>
<!-- Node11&#45;&gt;Node27 -->
<g id="edge37_Node000011_Node000027" class="edge">
<title>Node11&#45;&gt;Node27</title>
<g id="a_edge37_Node000011_Node000027"><a xlink:title=" ">
<path fill="none" stroke="#63b8ff" d="M1046.14,-131.88C1033.56,-114.44 1017.08,-84.78 1033.5,-66 1072.9,-20.93 1242.95,-46.49 1300.5,-30 1302.14,-29.53 1303.8,-28.99 1305.46,-28.4"/>
<polygon fill="#63b8ff" stroke="#63b8ff" points="1306.83,-31.62 1314.78,-24.62 1304.2,-25.13 1306.83,-31.62"/>
</a>
</g>
</g>
<!-- Node29 -->
<g id="Node000029" class="node">
<title>Node29</title>
<g id="a_Node000029"><a xlink:title=" ">
<polygon fill="#e0e0e0" stroke="#999999" points="1646.5,-90.5 1586.5,-90.5 1586.5,-71.5 1646.5,-71.5 1646.5,-90.5"/>
<text text-anchor="middle" x="1616.5" y="-78.5" font-family="Helvetica,sans-Serif" font-size="10.00">iostream</text>
</a>
</g>
</g>
<!-- Node11&#45;&gt;Node29 -->
<g id="edge36_Node000011_Node000029" class="edge">
<title>Node11&#45;&gt;Node29</title>
<g id="a_edge36_Node000011_Node000029"><a xlink:title=" ">
<path fill="none" stroke="#63b8ff" d="M1116.02,-144.33C1212.19,-140.7 1409.27,-129.5 1572.5,-96 1575.9,-95.3 1579.41,-94.44 1582.9,-93.49"/>
<polygon fill="#63b8ff" stroke="#63b8ff" points="1583.94,-96.83 1592.54,-90.63 1581.95,-90.12 1583.94,-96.83"/>
</a>
</g>
</g>
<!-- Node30 -->
<g id="Node000030" class="node">
<title>Node30</title>
<g id="a_Node000030"><a xlink:title=" ">
<polygon fill="#e0e0e0" stroke="#999999" points="1710,-90.5 1665,-90.5 1665,-71.5 1710,-71.5 1710,-90.5"/>
<text text-anchor="middle" x="1687.5" y="-78.5" font-family="Helvetica,sans-Serif" font-size="10.00">utility</text>
</a>
</g>
</g>
<!-- Node11&#45;&gt;Node30 -->
<g id="edge38_Node000011_Node000030" class="edge">
<title>Node11&#45;&gt;Node30</title>
<g id="a_edge38_Node000011_Node000030"><a xlink:title=" ">
<path fill="none" stroke="#63b8ff" d="M1116.33,-143.54C1246.32,-137.7 1554.5,-121.56 1655.5,-96 1657.4,-95.52 1659.32,-94.94 1661.24,-94.29"/>
<polygon fill="#63b8ff" stroke="#63b8ff" points="1662.56,-97.53 1670.6,-90.63 1660.01,-91.01 1662.56,-97.53"/>
</a>
</g>
</g>
<!-- Node18&#45;&gt;Node7 -->
<g id="edge23_Node000018_Node000007" class="edge">
<title>Node18&#45;&gt;Node7</title>
<g id="a_edge23_Node000018_Node000007"><a xlink:title=" ">
<path fill="none" stroke="#63b8ff" d="M747.56,-69.29C740.14,-68.1 732.65,-66.97 725.5,-66 569.24,-44.72 528.67,-51.95 372.5,-30 364.74,-28.91 356.57,-27.61 348.56,-26.25"/>
<polygon fill="#63b8ff" stroke="#63b8ff" points="349,-22.77 338.54,-24.51 347.8,-29.67 349,-22.77"/>
</a>
</g>
</g>
<!-- Node18&#45;&gt;Node10 -->
<g id="edge35_Node000018_Node000010" class="edge">
<title>Node18&#45;&gt;Node10</title>
<g id="a_edge35_Node000018_Node000010"><a xlink:title=" ">
<path fill="none" stroke="#63b8ff" d="M747.72,-73.48C724.28,-71.01 697.14,-68.25 672.5,-66 470.05,-47.51 413.97,-78.33 216.5,-30 214.55,-29.52 212.57,-28.94 210.59,-28.3"/>
<polygon fill="#63b8ff" stroke="#63b8ff" points="211.54,-24.91 200.95,-24.64 209.06,-31.46 211.54,-24.91"/>
</a>
</g>
</g>
<!-- Node18&#45;&gt;Node12 -->
<g id="edge22_Node000018_Node000012" class="edge">
<title>Node18&#45;&gt;Node12</title>
<g id="a_edge22_Node000018_Node000012"><a xlink:title=" ">
<path fill="none" stroke="#63b8ff" d="M867.13,-67.27C869.95,-66.81 872.75,-66.38 875.5,-66 1090.46,-36.05 1147.63,-60.59 1362.5,-30 1369.12,-29.06 1376.08,-27.84 1382.88,-26.51"/>
<polygon fill="#63b8ff" stroke="#63b8ff" points="1383.59,-29.94 1392.69,-24.52 1382.19,-23.08 1383.59,-29.94"/>
</a>
</g>
</g>
<!-- Node18&#45;&gt;Node14 -->
<g id="edge24_Node000018_Node000014" class="edge">
<title>Node18&#45;&gt;Node14</title>
<g id="a_edge24_Node000018_Node000014"><a xlink:title=" ">
<path fill="none" stroke="#63b8ff" d="M867.12,-67.22C869.95,-66.77 872.75,-66.36 875.5,-66 1148.73,-30.12 1221.5,-67.56 1494.5,-30 1500.86,-29.13 1507.53,-27.96 1514.05,-26.66"/>
<polygon fill="#63b8ff" stroke="#63b8ff" points="1515.06,-30.03 1524.13,-24.56 1513.63,-23.18 1515.06,-30.03"/>
</a>
</g>
</g>
<!-- Node19 -->
<g id="Node000019" class="node">
<title>Node19</title>
<g id="a_Node000019"><a xlink:title=" ">
<polygon fill="#e0e0e0" stroke="#999999" points="635,-24.5 486,-24.5 486,-5.5 635,-5.5 635,-24.5"/>
<text text-anchor="middle" x="560.5" y="-12.5" font-family="Helvetica,sans-Serif" font-size="10.00">deal.II/base/vectorization.h</text>
</a>
</g>
</g>
<!-- Node18&#45;&gt;Node19 -->
<g id="edge25_Node000018_Node000019" class="edge">
<title>Node18&#45;&gt;Node19</title>
<g id="a_edge25_Node000018_Node000019"><a xlink:title=" ">
<path fill="none" stroke="#63b8ff" d="M753.29,-65.95C708.16,-54.26 644.78,-37.84 603.19,-27.06"/>
<polygon fill="#63b8ff" stroke="#63b8ff" points="603.93,-23.64 593.37,-24.52 602.17,-30.41 603.93,-23.64"/>
</a>
</g>
</g>
<!-- Node20 -->
<g id="Node000020" class="node">
<title>Node20</title>
<g id="a_Node000020"><a xlink:title=" ">
<polygon fill="#e0e0e0" stroke="#999999" points="767.5,-24.5 653.5,-24.5 653.5,-5.5 767.5,-5.5 767.5,-24.5"/>
<text text-anchor="middle" x="710.5" y="-12.5" font-family="Helvetica,sans-Serif" font-size="10.00">deal.II/fe/mapping.h</text>
</a>
</g>
</g>
<!-- Node18&#45;&gt;Node20 -->
<g id="edge26_Node000018_Node000020" class="edge">
<title>Node18&#45;&gt;Node20</title>
<g id="a_edge26_Node000018_Node000020"><a xlink:title=" ">
<path fill="none" stroke="#63b8ff" d="M785.97,-65.8C770.02,-55.27 748.35,-40.97 732.32,-30.4"/>
<polygon fill="#63b8ff" stroke="#63b8ff" points="733.9,-27.24 723.62,-24.66 730.04,-33.09 733.9,-27.24"/>
</a>
</g>
</g>
<!-- Node21 -->
<g id="Node000021" class="node">
<title>Node21</title>
<g id="a_Node000021"><a xlink:title=" ">
<polygon fill="#e0e0e0" stroke="#999999" points="905,-30 786,-30 786,0 905,0 905,-30"/>
<text text-anchor="start" x="794" y="-18" font-family="Helvetica,sans-Serif" font-size="10.00">deal.II/grid/grid_tools</text>
<text text-anchor="middle" x="845.5" y="-7" font-family="Helvetica,sans-Serif" font-size="10.00">_geometry.h</text>
</a>
</g>
</g>
<!-- Node18&#45;&gt;Node21 -->
<g id="edge27_Node000018_Node000021" class="edge">
<title>Node18&#45;&gt;Node21</title>
<g id="a_edge27_Node000018_Node000021"><a xlink:title=" ">
<path fill="none" stroke="#63b8ff" d="M815.93,-65.8C820.61,-57.92 826.53,-47.95 831.85,-38.99"/>
<polygon fill="#63b8ff" stroke="#63b8ff" points="834.99,-40.55 837.09,-30.16 828.98,-36.98 834.99,-40.55"/>
</a>
</g>
</g>
<!-- Node22 -->
<g id="Node000022" class="node">
<title>Node22</title>
<g id="a_Node000022"><a xlink:title=" ">
<polygon fill="#e0e0e0" stroke="#999999" points="1020,-24.5 923,-24.5 923,-5.5 1020,-5.5 1020,-24.5"/>
<text text-anchor="middle" x="971.5" y="-12.5" font-family="Helvetica,sans-Serif" font-size="10.00">deal.II/grid/tria.h</text>
</a>
</g>
</g>
<!-- Node18&#45;&gt;Node22 -->
<g id="edge28_Node000018_Node000022" class="edge">
<title>Node18&#45;&gt;Node22</title>
<g id="a_edge28_Node000018_Node000022"><a xlink:title=" ">
<path fill="none" stroke="#63b8ff" d="M843.49,-65.95C872.38,-54.68 912.53,-39.01 940.12,-28.25"/>
<polygon fill="#63b8ff" stroke="#63b8ff" points="941.63,-31.41 949.67,-24.52 939.09,-24.89 941.63,-31.41"/>
</a>
</g>
</g>
<!-- Node23 -->
<g id="Node000023" class="node">
<title>Node23</title>
<g id="a_Node000023"><a xlink:title=" ">
<polygon fill="#e0e0e0" stroke="#999999" points="1102.5,-24.5 1038.5,-24.5 1038.5,-5.5 1102.5,-5.5 1102.5,-24.5"/>
<text text-anchor="middle" x="1070.5" y="-12.5" font-family="Helvetica,sans-Serif" font-size="10.00">algorithm</text>
</a>
</g>
</g>
<!-- Node18&#45;&gt;Node23 -->
<g id="edge29_Node000018_Node000023" class="edge">
<title>Node18&#45;&gt;Node23</title>
<g id="a_edge29_Node000018_Node000023"><a xlink:title=" ">
<path fill="none" stroke="#63b8ff" d="M867.22,-67.19C921.89,-55.33 998.66,-38.33 1028.5,-30 1031.12,-29.27 1033.81,-28.47 1036.51,-27.65"/>
<polygon fill="#63b8ff" stroke="#63b8ff" points="1037.73,-30.93 1046.2,-24.56 1035.61,-24.26 1037.73,-30.93"/>
</a>
</g>
</g>
<!-- Node24 -->
<g id="Node000024" class="node">
<title>Node24</title>
<g id="a_Node000024"><a xlink:title=" ">
<polygon fill="#e0e0e0" stroke="#999999" points="1168,-24.5 1121,-24.5 1121,-5.5 1168,-5.5 1168,-24.5"/>
<text text-anchor="middle" x="1144.5" y="-12.5" font-family="Helvetica,sans-Serif" font-size="10.00">cmath</text>
</a>
</g>
</g>
<!-- Node18&#45;&gt;Node24 -->
<g id="edge30_Node000018_Node000024" class="edge">
<title>Node18&#45;&gt;Node24</title>
<g id="a_edge30_Node000018_Node000024"><a xlink:title=" ">
<path fill="none" stroke="#63b8ff" d="M867.17,-67.53C869.98,-67 872.77,-66.49 875.5,-66 979.94,-47.3 1009.42,-58.94 1111.5,-30 1113.39,-29.47 1115.31,-28.85 1117.23,-28.18"/>
<polygon fill="#63b8ff" stroke="#63b8ff" points="1118.58,-31.41 1126.64,-24.54 1116.05,-24.89 1118.58,-31.41"/>
</a>
</g>
</g>
<!-- Node25 -->
<g id="Node000025" class="node">
<title>Node25</title>
<g id="a_Node000025"><a xlink:title=" ">
<polygon fill="#e0e0e0" stroke="#999999" points="1217,-24.5 1186,-24.5 1186,-5.5 1217,-5.5 1217,-24.5"/>
<text text-anchor="middle" x="1201.5" y="-12.5" font-family="Helvetica,sans-Serif" font-size="10.00">ios</text>
</a>
</g>
</g>
<!-- Node18&#45;&gt;Node25 -->
<g id="edge31_Node000018_Node000025" class="edge">
<title>Node18&#45;&gt;Node25</title>
<g id="a_edge31_Node000018_Node000025"><a xlink:title=" ">
<path fill="none" stroke="#63b8ff" d="M867.15,-67.42C869.97,-66.92 872.76,-66.44 875.5,-66 1008.49,-44.4 1048.39,-71.71 1176.5,-30 1177.39,-29.71 1178.28,-29.39 1179.18,-29.04"/>
<polygon fill="#63b8ff" stroke="#63b8ff" points="1180.96,-32.06 1188.45,-24.57 1177.92,-25.76 1180.96,-32.06"/>
</a>
</g>
</g>
<!-- Node26 -->
<g id="Node000026" class="node">
<title>Node26</title>
<g id="a_Node000026"><a xlink:title=" ">
<polygon fill="#e0e0e0" stroke="#999999" points="1291.5,-24.5 1235.5,-24.5 1235.5,-5.5 1291.5,-5.5 1291.5,-24.5"/>
<text text-anchor="middle" x="1263.5" y="-12.5" font-family="Helvetica,sans-Serif" font-size="10.00">sstream</text>
</a>
</g>
</g>
<!-- Node18&#45;&gt;Node26 -->
<g id="edge32_Node000018_Node000026" class="edge">
<title>Node18&#45;&gt;Node26</title>
<g id="a_edge32_Node000018_Node000026"><a xlink:title=" ">
<path fill="none" stroke="#63b8ff" d="M867.14,-67.37C869.96,-66.88 872.76,-66.42 875.5,-66 1030.05,-42.2 1073.16,-65.31 1225.5,-30 1228.17,-29.38 1230.91,-28.63 1233.63,-27.79"/>
<polygon fill="#63b8ff" stroke="#63b8ff" points="1234.93,-31.05 1243.28,-24.52 1232.68,-24.42 1234.93,-31.05"/>
</a>
</g>
</g>
<!-- Node18&#45;&gt;Node27 -->
<g id="edge33_Node000018_Node000027" class="edge">
<title>Node18&#45;&gt;Node27</title>
<g id="a_edge33_Node000018_Node000027"><a xlink:title=" ">
<path fill="none" stroke="#63b8ff" d="M867.13,-67.31C869.96,-66.84 872.76,-66.4 875.5,-66 1063.11,-38.84 1117.03,-77.7 1300.5,-30 1302.19,-29.56 1303.9,-29.04 1305.61,-28.45"/>
<polygon fill="#63b8ff" stroke="#63b8ff" points="1307.17,-31.6 1315.15,-24.63 1304.56,-25.1 1307.17,-31.6"/>
</a>
</g>
</g>
<!-- Node28 -->
<g id="Node000028" class="node">
<title>Node28</title>
<g id="a_Node000028"><a xlink:title=" ">
<polygon fill="#e0e0e0" stroke="#999999" points="467.5,-24.5 381.5,-24.5 381.5,-5.5 467.5,-5.5 467.5,-24.5"/>
<text text-anchor="middle" x="424.5" y="-12.5" font-family="Helvetica,sans-Serif" font-size="10.00">unordered_set</text>
</a>
</g>
</g>
<!-- Node18&#45;&gt;Node28 -->
<g id="edge34_Node000018_Node000028" class="edge">
<title>Node18&#45;&gt;Node28</title>
<g id="a_edge34_Node000018_Node000028"><a xlink:title=" ">
<path fill="none" stroke="#63b8ff" d="M747.96,-69.65C740.41,-68.39 732.78,-67.15 725.5,-66 615.05,-48.59 586.01,-52.57 476.5,-30 472.33,-29.14 467.99,-28.14 463.69,-27.08"/>
<polygon fill="#63b8ff" stroke="#63b8ff" points="464.34,-23.64 453.78,-24.54 462.59,-30.42 464.34,-23.64"/>
</a>
</g>
</g>
</g>
</svg>
