<?xml version="1.0" encoding="UTF-8" standalone="no"?>
<!DOCTYPE svg PUBLIC "-//W3C//DTD SVG 1.1//EN"
 "http://www.w3.org/Graphics/SVG/1.1/DTD/svg11.dtd">
<!-- Generated by graphviz version 2.43.0 (0)
 -->
<!-- Title: include/meltpooldg/particles/particle.hpp Pages: 1 -->
<svg width="1454pt" height="764pt"
 viewBox="0.00 0.00 1454.00 764.00" xmlns="http://www.w3.org/2000/svg" xmlns:xlink="http://www.w3.org/1999/xlink">
<g id="graph0" class="graph" transform="scale(1 1) rotate(0) translate(4 760)">
<title>include/meltpooldg/particles/particle.hpp</title>
<!-- Node1 -->
<g id="Node000001" class="node">
<title>Node1</title>
<g id="a_Node000001"><a xlink:title=" ">
<polygon fill="#999999" stroke="#666666" points="1246,-756 1124,-756 1124,-726 1246,-726 1246,-756"/>
<text text-anchor="start" x="1132" y="-744" font-family="Helvetica,sans-Serif" font-size="10.00">include/meltpooldg</text>
<text text-anchor="middle" x="1185" y="-733" font-family="Helvetica,sans-Serif" font-size="10.00">/particles/particle.hpp</text>
</a>
</g>
</g>
<!-- Node2 -->
<g id="Node000002" class="node">
<title>Node2</title>
<g id="a_Node000002"><a xlink:href="particle__accessor_8hpp.html" target="_top" xlink:title=" ">
<polygon fill="white" stroke="#666666" points="897,-690 787,-690 787,-649 897,-649 897,-690"/>
<text text-anchor="start" x="795" y="-678" font-family="Helvetica,sans-Serif" font-size="10.00">include/meltpooldg</text>
<text text-anchor="start" x="795" y="-667" font-family="Helvetica,sans-Serif" font-size="10.00">/particles/particle</text>
<text text-anchor="middle" x="842" y="-656" font-family="Helvetica,sans-Serif" font-size="10.00">_accessor.hpp</text>
</a>
</g>
</g>
<!-- Node1&#45;&gt;Node2 -->
<g id="edge1_Node000001_Node000002" class="edge">
<title>Node1&#45;&gt;Node2</title>
<g id="a_edge1_Node000001_Node000002"><a xlink:title=" ">
<path fill="none" stroke="#63b8ff" d="M1113.61,-725.53C1049.24,-712.49 955.91,-693.58 897.13,-681.67"/>
<polygon fill="#63b8ff" stroke="#63b8ff" points="1113.18,-729.02 1123.68,-727.57 1114.57,-722.16 1113.18,-729.02"/>
</a>
</g>
</g>
<!-- Node6 -->
<g id="Node000006" class="node">
<title>Node6</title>
<g id="a_Node000006"><a xlink:href="brinkman__penalization_8cpp.html" target="_top" xlink:title=" ">
<polygon fill="white" stroke="#666666" points="1098,-129 974,-129 974,-88 1098,-88 1098,-129"/>
<text text-anchor="start" x="982" y="-117" font-family="Helvetica,sans-Serif" font-size="10.00">source/fluid_structure</text>
<text text-anchor="start" x="982" y="-106" font-family="Helvetica,sans-Serif" font-size="10.00">_interaction/brinkman</text>
<text text-anchor="middle" x="1036" y="-95" font-family="Helvetica,sans-Serif" font-size="10.00">_penalization.cpp</text>
</a>
</g>
</g>
<!-- Node1&#45;&gt;Node6 -->
<g id="edge59_Node000001_Node000006" class="edge">
<title>Node1&#45;&gt;Node6</title>
<g id="a_edge59_Node000001_Node000006"><a xlink:title=" ">
<path fill="none" stroke="#63b8ff" d="M1256.38,-730.9C1333.65,-716.59 1446,-680.78 1446,-593.5 1446,-593.5 1446,-593.5 1446,-355 1446,-194.88 1212.97,-136.65 1098.27,-117.69"/>
<polygon fill="#63b8ff" stroke="#63b8ff" points="1255.43,-727.52 1246.19,-732.7 1256.65,-734.41 1255.43,-727.52"/>
</a>
</g>
</g>
<!-- Node7 -->
<g id="Node000007" class="node">
<title>Node7</title>
<g id="a_Node000007"><a xlink:href="cell__batch__particle__cache_8cpp.html" target="_top" xlink:title=" ">
<polygon fill="white" stroke="#666666" points="211.5,-371 66.5,-371 66.5,-341 211.5,-341 211.5,-371"/>
<text text-anchor="start" x="74.5" y="-359" font-family="Helvetica,sans-Serif" font-size="10.00">source/particles/cell</text>
<text text-anchor="middle" x="139" y="-348" font-family="Helvetica,sans-Serif" font-size="10.00">_batch_particle_cache.cpp</text>
</a>
</g>
</g>
<!-- Node1&#45;&gt;Node7 -->
<g id="edge61_Node000001_Node000007" class="edge">
<title>Node1&#45;&gt;Node7</title>
<g id="a_edge61_Node000001_Node000007"><a xlink:title=" ">
<path fill="none" stroke="#63b8ff" d="M1113.79,-736.89C887.88,-726.1 202,-685.74 202,-593.5 202,-593.5 202,-593.5 202,-514.5 202,-470.79 200.41,-458.1 183,-418 175.41,-400.51 162.16,-383.13 152.18,-371.42"/>
<polygon fill="#63b8ff" stroke="#63b8ff" points="1113.73,-740.39 1123.88,-737.37 1114.06,-733.4 1113.73,-740.39"/>
</a>
</g>
</g>
<!-- Node18 -->
<g id="Node000018" class="node">
<title>Node18</title>
<g id="a_Node000018"><a xlink:href="stokes__law_8cpp.html" target="_top" xlink:title=" ">
<polygon fill="white" stroke="#666666" points="967.5,-41 816.5,-41 816.5,-11 967.5,-11 967.5,-41"/>
<text text-anchor="start" x="824.5" y="-29" font-family="Helvetica,sans-Serif" font-size="10.00">source/fluid_structure</text>
<text text-anchor="middle" x="892" y="-18" font-family="Helvetica,sans-Serif" font-size="10.00">_interaction/stokes_law.cpp</text>
</a>
</g>
</g>
<!-- Node1&#45;&gt;Node18 -->
<g id="edge60_Node000001_Node000018" class="edge">
<title>Node1&#45;&gt;Node18</title>
<g id="a_edge60_Node000001_Node000018"><a xlink:title=" ">
<path fill="none" stroke="#63b8ff" d="M1195.51,-716.61C1229.92,-639.9 1337.29,-399.83 1341,-382 1345.72,-359.38 1349.08,-351.65 1341,-330 1291.19,-196.59 1252.18,-162.8 1131,-88 1081.44,-57.41 1017.09,-42.11 967.64,-34.48"/>
<polygon fill="#63b8ff" stroke="#63b8ff" points="1192.23,-715.36 1191.33,-725.92 1198.62,-718.23 1192.23,-715.36"/>
</a>
</g>
</g>
<!-- Node19 -->
<g id="Node000019" class="node">
<title>Node19</title>
<g id="a_Node000019"><a xlink:href="obstacle__field_8cpp.html" target="_top" xlink:title=" ">
<polygon fill="white" stroke="#666666" points="1332,-371 1194,-371 1194,-341 1332,-341 1332,-371"/>
<text text-anchor="start" x="1202" y="-359" font-family="Helvetica,sans-Serif" font-size="10.00">source/particles/obstacle</text>
<text text-anchor="middle" x="1263" y="-348" font-family="Helvetica,sans-Serif" font-size="10.00">_field.cpp</text>
</a>
</g>
</g>
<!-- Node1&#45;&gt;Node19 -->
<g id="edge63_Node000001_Node000019" class="edge">
<title>Node1&#45;&gt;Node19</title>
<g id="a_edge63_Node000001_Node000019"><a xlink:title=" ">
<path fill="none" stroke="#63b8ff" d="M1243.79,-722.51C1293.29,-704.2 1360.44,-670 1389,-613 1435.04,-521.1 1323.66,-409.99 1279.81,-371.19"/>
<polygon fill="#63b8ff" stroke="#63b8ff" points="1242.38,-719.3 1234.15,-725.97 1244.74,-725.89 1242.38,-719.3"/>
</a>
</g>
</g>
<!-- Node21 -->
<g id="Node000021" class="node">
<title>Node21</title>
<g id="a_Node000021"><a xlink:href="particle__iterator_8hpp.html" target="_top" xlink:title=" ">
<polygon fill="white" stroke="#666666" points="693,-613 583,-613 583,-572 693,-572 693,-613"/>
<text text-anchor="start" x="591" y="-601" font-family="Helvetica,sans-Serif" font-size="10.00">include/meltpooldg</text>
<text text-anchor="start" x="591" y="-590" font-family="Helvetica,sans-Serif" font-size="10.00">/particles/particle</text>
<text text-anchor="middle" x="638" y="-579" font-family="Helvetica,sans-Serif" font-size="10.00">_iterator.hpp</text>
</a>
</g>
</g>
<!-- Node1&#45;&gt;Node21 -->
<g id="edge57_Node000001_Node000021" class="edge">
<title>Node1&#45;&gt;Node21</title>
<g id="a_edge57_Node000001_Node000021"><a xlink:title=" ">
<path fill="none" stroke="#63b8ff" d="M1113.83,-735.36C1013.96,-728.15 837.76,-712.69 778,-690 731.36,-672.29 685.29,-635.91 659.36,-613.22"/>
<polygon fill="#63b8ff" stroke="#63b8ff" points="1113.62,-738.85 1123.84,-736.07 1114.11,-731.87 1113.62,-738.85"/>
</a>
</g>
</g>
<!-- Node23 -->
<g id="Node000023" class="node">
<title>Node23</title>
<g id="a_Node000023"><a xlink:href="obstacle__data__structure_8cpp.html" target="_top" xlink:title=" ">
<polygon fill="white" stroke="#666666" points="1062,-453.5 924,-453.5 924,-423.5 1062,-423.5 1062,-453.5"/>
<text text-anchor="start" x="932" y="-441.5" font-family="Helvetica,sans-Serif" font-size="10.00">source/particles/obstacle</text>
<text text-anchor="middle" x="993" y="-430.5" font-family="Helvetica,sans-Serif" font-size="10.00">_data_structure.cpp</text>
</a>
</g>
</g>
<!-- Node1&#45;&gt;Node23 -->
<g id="edge62_Node000001_Node000023" class="edge">
<title>Node1&#45;&gt;Node23</title>
<g id="a_edge62_Node000001_Node000023"><a xlink:title=" ">
<path fill="none" stroke="#63b8ff" d="M1170.51,-717.32C1132.82,-658.33 1032.57,-501.43 1001.98,-453.56"/>
<polygon fill="#63b8ff" stroke="#63b8ff" points="1167.66,-719.37 1176,-725.91 1173.56,-715.6 1167.66,-719.37"/>
</a>
</g>
</g>
<!-- Node24 -->
<g id="Node000024" class="node">
<title>Node24</title>
<g id="a_Node000024"><a xlink:href="particle__tools_8hpp.html" target="_top" xlink:title=" ">
<polygon fill="white" stroke="#666666" points="1380,-613 1270,-613 1270,-572 1380,-572 1380,-613"/>
<text text-anchor="start" x="1278" y="-601" font-family="Helvetica,sans-Serif" font-size="10.00">include/meltpooldg</text>
<text text-anchor="start" x="1278" y="-590" font-family="Helvetica,sans-Serif" font-size="10.00">/particles/particle</text>
<text text-anchor="middle" x="1325" y="-579" font-family="Helvetica,sans-Serif" font-size="10.00">_tools.hpp</text>
</a>
</g>
</g>
<!-- Node1&#45;&gt;Node24 -->
<g id="edge58_Node000001_Node000024" class="edge">
<title>Node1&#45;&gt;Node24</title>
<g id="a_edge58_Node000001_Node000024"><a xlink:title=" ">
<path fill="none" stroke="#63b8ff" d="M1217.73,-720.32C1230.42,-711.85 1244.61,-701.31 1256,-690 1279.82,-666.35 1301.28,-633.69 1313.73,-613.09"/>
<polygon fill="#63b8ff" stroke="#63b8ff" points="1215.71,-717.45 1209.23,-725.83 1219.52,-723.33 1215.71,-717.45"/>
</a>
</g>
</g>
<!-- Node3 -->
<g id="Node000003" class="node">
<title>Node3</title>
<g id="a_Node000003"><a xlink:href="cell__batch__particle__cache_8hpp.html" target="_top" xlink:title=" ">
<polygon fill="white" stroke="#666666" points="174,-459 60,-459 60,-418 174,-418 174,-459"/>
<text text-anchor="start" x="68" y="-447" font-family="Helvetica,sans-Serif" font-size="10.00">include/meltpooldg</text>
<text text-anchor="start" x="68" y="-436" font-family="Helvetica,sans-Serif" font-size="10.00">/particles/cell_batch</text>
<text text-anchor="middle" x="117" y="-425" font-family="Helvetica,sans-Serif" font-size="10.00">_particle_cache.hpp</text>
</a>
</g>
</g>
<!-- Node2&#45;&gt;Node3 -->
<g id="edge2_Node000002_Node000003" class="edge">
<title>Node2&#45;&gt;Node3</title>
<g id="a_edge2_Node000002_Node000003"><a xlink:title=" ">
<path fill="none" stroke="#63b8ff" d="M776.44,-668.33C644.41,-667.01 351.63,-658.82 264,-613 196.3,-577.6 146.96,-496.59 126.9,-459.14"/>
<polygon fill="#63b8ff" stroke="#63b8ff" points="776.77,-671.83 786.8,-668.42 776.83,-664.83 776.77,-671.83"/>
</a>
</g>
</g>
<!-- Node2&#45;&gt;Node6 -->
<g id="edge53_Node000002_Node000006" class="edge">
<title>Node2&#45;&gt;Node6</title>
<g id="a_edge53_Node000002_Node000006"><a xlink:title=" ">
<path fill="none" stroke="#63b8ff" d="M907.39,-666.1C1002.03,-658.74 1166,-629.65 1166,-516.5 1166,-516.5 1166,-516.5 1166,-437.5 1166,-311.02 1144.93,-275.83 1084,-165 1076.76,-151.83 1065.99,-139.01 1056.49,-129.01"/>
<polygon fill="#63b8ff" stroke="#63b8ff" points="907.05,-662.62 897.33,-666.82 907.55,-669.6 907.05,-662.62"/>
</a>
</g>
</g>
<!-- Node8 -->
<g id="Node000008" class="node">
<title>Node8</title>
<g id="a_Node000008"><a xlink:href="cohesive__forces_8hpp.html" target="_top" xlink:title=" ">
<polygon fill="white" stroke="#666666" points="1024,-376.5 914,-376.5 914,-335.5 1024,-335.5 1024,-376.5"/>
<text text-anchor="start" x="922" y="-364.5" font-family="Helvetica,sans-Serif" font-size="10.00">include/meltpooldg</text>
<text text-anchor="start" x="922" y="-353.5" font-family="Helvetica,sans-Serif" font-size="10.00">/particles/cohesive</text>
<text text-anchor="middle" x="969" y="-342.5" font-family="Helvetica,sans-Serif" font-size="10.00">_forces.hpp</text>
</a>
</g>
</g>
<!-- Node2&#45;&gt;Node8 -->
<g id="edge8_Node000002_Node000008" class="edge">
<title>Node2&#45;&gt;Node8</title>
<g id="a_edge8_Node000002_Node000008"><a xlink:title=" ">
<path fill="none" stroke="#63b8ff" d="M859.75,-639.84C874.91,-613.8 895.82,-573.79 906,-536 919.68,-485.21 894.5,-466.44 915,-418 921.73,-402.11 934.3,-387.51 945.63,-376.58"/>
<polygon fill="#63b8ff" stroke="#63b8ff" points="856.55,-638.38 854.46,-648.77 862.57,-641.95 856.55,-638.38"/>
</a>
</g>
</g>
<!-- Node9 -->
<g id="Node000009" class="node">
<title>Node9</title>
<g id="a_Node000009"><a xlink:href="cohesive__forces_8cpp.html" target="_top" xlink:title=" ">
<polygon fill="white" stroke="#666666" points="1070,-288.5 930,-288.5 930,-258.5 1070,-258.5 1070,-288.5"/>
<text text-anchor="start" x="938" y="-276.5" font-family="Helvetica,sans-Serif" font-size="10.00">source/particles/cohesive</text>
<text text-anchor="middle" x="1000" y="-265.5" font-family="Helvetica,sans-Serif" font-size="10.00">_forces.cpp</text>
</a>
</g>
</g>
<!-- Node2&#45;&gt;Node9 -->
<g id="edge54_Node000002_Node000009" class="edge">
<title>Node2&#45;&gt;Node9</title>
<g id="a_edge54_Node000002_Node000009"><a xlink:title=" ">
<path fill="none" stroke="#63b8ff" d="M886.88,-643.54C942.18,-609.9 1033.45,-544.25 1071,-459 1098.53,-396.5 1040.36,-319.68 1013.09,-288.57"/>
<polygon fill="#63b8ff" stroke="#63b8ff" points="884.77,-640.72 877.99,-648.86 888.37,-646.73 884.77,-640.72"/>
</a>
</g>
</g>
<!-- Node10 -->
<g id="Node000010" class="node">
<title>Node10</title>
<g id="a_Node000010"><a xlink:href="contact__forces_8hpp.html" target="_top" xlink:title=" ">
<polygon fill="white" stroke="#666666" points="463.5,-371 306.5,-371 306.5,-341 463.5,-341 463.5,-371"/>
<text text-anchor="start" x="314.5" y="-359" font-family="Helvetica,sans-Serif" font-size="10.00">include/meltpooldg</text>
<text text-anchor="middle" x="385" y="-348" font-family="Helvetica,sans-Serif" font-size="10.00">/particles/contact_forces.hpp</text>
</a>
</g>
</g>
<!-- Node2&#45;&gt;Node10 -->
<g id="edge10_Node000002_Node000010" class="edge">
<title>Node2&#45;&gt;Node10</title>
<g id="a_edge10_Node000002_Node000010"><a xlink:title=" ">
<path fill="none" stroke="#63b8ff" d="M776.52,-665.42C690.57,-657.61 541.53,-630.35 464,-536 420.87,-483.51 396.91,-403.78 388.5,-371.41"/>
<polygon fill="#63b8ff" stroke="#63b8ff" points="776.42,-668.92 786.68,-666.28 777.02,-661.95 776.42,-668.92"/>
</a>
</g>
</g>
<!-- Node11 -->
<g id="Node000011" class="node">
<title>Node11</title>
<g id="a_Node000011"><a xlink:href="contact__forces_8cpp.html" target="_top" xlink:title=" ">
<polygon fill="white" stroke="#666666" points="447.5,-288.5 314.5,-288.5 314.5,-258.5 447.5,-258.5 447.5,-288.5"/>
<text text-anchor="start" x="322.5" y="-276.5" font-family="Helvetica,sans-Serif" font-size="10.00">source/particles/contact</text>
<text text-anchor="middle" x="381" y="-265.5" font-family="Helvetica,sans-Serif" font-size="10.00">_forces.cpp</text>
</a>
</g>
</g>
<!-- Node2&#45;&gt;Node11 -->
<g id="edge55_Node000002_Node000011" class="edge">
<title>Node2&#45;&gt;Node11</title>
<g id="a_edge55_Node000002_Node000011"><a xlink:title=" ">
<path fill="none" stroke="#63b8ff" d="M776.55,-664.68C627.98,-654.23 278,-618.75 278,-516.5 278,-516.5 278,-516.5 278,-437.5 278,-388.98 270.37,-370.56 297,-330 309.09,-311.59 329.62,-297.86 347.37,-288.66"/>
<polygon fill="#63b8ff" stroke="#63b8ff" points="776.68,-668.2 786.89,-665.39 777.16,-661.22 776.68,-668.2"/>
</a>
</g>
</g>
<!-- Node12 -->
<g id="Node000012" class="node">
<title>Node12</title>
<g id="a_Node000012"><a xlink:href="dem__time__integrators_8hpp.html" target="_top" xlink:title=" ">
<polygon fill="white" stroke="#666666" points="731,-536 617,-536 617,-495 731,-495 731,-536"/>
<text text-anchor="start" x="625" y="-524" font-family="Helvetica,sans-Serif" font-size="10.00">include/meltpooldg</text>
<text text-anchor="start" x="625" y="-513" font-family="Helvetica,sans-Serif" font-size="10.00">/particles/dem_time</text>
<text text-anchor="middle" x="674" y="-502" font-family="Helvetica,sans-Serif" font-size="10.00">_integrators.hpp</text>
</a>
</g>
</g>
<!-- Node2&#45;&gt;Node12 -->
<g id="edge12_Node000002_Node000012" class="edge">
<title>Node2&#45;&gt;Node12</title>
<g id="a_edge12_Node000002_Node000012"><a xlink:title=" ">
<path fill="none" stroke="#63b8ff" d="M789.96,-643.96C774.58,-635.38 758.32,-624.87 745,-613 719.54,-590.3 697.56,-557.08 685.05,-536.14"/>
<polygon fill="#63b8ff" stroke="#63b8ff" points="788.42,-647.11 798.88,-648.79 791.75,-640.95 788.42,-647.11"/>
</a>
</g>
</g>
<!-- Node13 -->
<g id="Node000013" class="node">
<title>Node13</title>
<g id="a_Node000013"><a xlink:href="obstacle__field_8hpp.html" target="_top" xlink:title=" ">
<polygon fill="white" stroke="#666666" points="729,-459 619,-459 619,-418 729,-418 729,-459"/>
<text text-anchor="start" x="627" y="-447" font-family="Helvetica,sans-Serif" font-size="10.00">include/meltpooldg</text>
<text text-anchor="start" x="627" y="-436" font-family="Helvetica,sans-Serif" font-size="10.00">/particles/obstacle</text>
<text text-anchor="middle" x="674" y="-425" font-family="Helvetica,sans-Serif" font-size="10.00">_field.hpp</text>
</a>
</g>
</g>
<!-- Node2&#45;&gt;Node13 -->
<g id="edge37_Node000002_Node000013" class="edge">
<title>Node2&#45;&gt;Node13</title>
<g id="a_edge37_Node000002_Node000013"><a xlink:title=" ">
<path fill="none" stroke="#63b8ff" d="M828.74,-639.45C811.44,-603.33 778.75,-540.86 740,-495 728.79,-481.73 714.19,-469.1 701.57,-459.24"/>
<polygon fill="#63b8ff" stroke="#63b8ff" points="825.77,-641.35 833.21,-648.9 832.1,-638.36 825.77,-641.35"/>
</a>
</g>
</g>
<!-- Node2&#45;&gt;Node19 -->
<g id="edge56_Node000002_Node000019" class="edge">
<title>Node2&#45;&gt;Node19</title>
<g id="a_edge56_Node000002_Node000019"><a xlink:title=" ">
<path fill="none" stroke="#63b8ff" d="M907.07,-665.86C993.66,-661.04 1140.46,-647.84 1180,-613 1247.84,-553.23 1207.93,-503.27 1238,-418 1243.71,-401.81 1251.31,-383.65 1256.63,-371.39"/>
<polygon fill="#63b8ff" stroke="#63b8ff" points="906.88,-662.37 897.08,-666.4 907.26,-669.36 906.88,-662.37"/>
</a>
</g>
</g>
<!-- Node20 -->
<g id="Node000020" class="node">
<title>Node20</title>
<g id="a_Node000020"><a xlink:href="obstacle__forces_8hpp.html" target="_top" xlink:title=" ">
<polygon fill="white" stroke="#666666" points="897,-536 787,-536 787,-495 897,-495 897,-536"/>
<text text-anchor="start" x="795" y="-524" font-family="Helvetica,sans-Serif" font-size="10.00">include/meltpooldg</text>
<text text-anchor="start" x="795" y="-513" font-family="Helvetica,sans-Serif" font-size="10.00">/particles/obstacle</text>
<text text-anchor="middle" x="842" y="-502" font-family="Helvetica,sans-Serif" font-size="10.00">_forces.hpp</text>
</a>
</g>
</g>
<!-- Node2&#45;&gt;Node20 -->
<g id="edge38_Node000002_Node000020" class="edge">
<title>Node2&#45;&gt;Node20</title>
<g id="a_edge38_Node000002_Node000020"><a xlink:title=" ">
<path fill="none" stroke="#63b8ff" d="M842,-638.58C842,-608.36 842,-562.53 842,-536.47"/>
<polygon fill="#63b8ff" stroke="#63b8ff" points="838.5,-638.94 842,-648.94 845.5,-638.94 838.5,-638.94"/>
</a>
</g>
</g>
<!-- Node2&#45;&gt;Node21 -->
<g id="edge43_Node000002_Node000021" class="edge">
<title>Node2&#45;&gt;Node21</title>
<g id="a_edge43_Node000002_Node000021"><a xlink:title=" ">
<path fill="none" stroke="#63b8ff" d="M779.55,-645.54C751.28,-635.15 718.21,-622.99 691.15,-613.04"/>
<polygon fill="#63b8ff" stroke="#63b8ff" points="778.34,-648.82 788.93,-648.99 780.76,-642.25 778.34,-648.82"/>
</a>
</g>
</g>
<!-- Node2&#45;&gt;Node24 -->
<g id="edge50_Node000002_Node000024" class="edge">
<title>Node2&#45;&gt;Node24</title>
<g id="a_edge50_Node000002_Node000024"><a xlink:title=" ">
<path fill="none" stroke="#63b8ff" d="M907.45,-659.52C982.55,-649.06 1109.34,-630.92 1218,-613 1234.86,-610.22 1253.17,-606.97 1269.8,-603.93"/>
<polygon fill="#63b8ff" stroke="#63b8ff" points="906.62,-656.1 897.2,-660.95 907.59,-663.04 906.62,-656.1"/>
</a>
</g>
</g>
<!-- Node4 -->
<g id="Node000004" class="node">
<title>Node4</title>
<g id="a_Node000004"><a xlink:href="brinkman__penalization_8hpp.html" target="_top" xlink:title=" ">
<polygon fill="white" stroke="#666666" points="622,-211.5 470,-211.5 470,-170.5 622,-170.5 622,-211.5"/>
<text text-anchor="start" x="478" y="-199.5" font-family="Helvetica,sans-Serif" font-size="10.00">include/meltpooldg</text>
<text text-anchor="start" x="478" y="-188.5" font-family="Helvetica,sans-Serif" font-size="10.00">/fluid_structure_interaction</text>
<text text-anchor="middle" x="546" y="-177.5" font-family="Helvetica,sans-Serif" font-size="10.00">/brinkman_penalization.hpp</text>
</a>
</g>
</g>
<!-- Node3&#45;&gt;Node4 -->
<g id="edge3_Node000003_Node000004" class="edge">
<title>Node3&#45;&gt;Node4</title>
<g id="a_edge3_Node000003_Node000004"><a xlink:title=" ">
<path fill="none" stroke="#63b8ff" d="M79.21,-411.36C70.25,-403.1 61.89,-393.17 57,-382 47.74,-360.82 43.29,-348.61 57,-330 105.98,-263.5 344.93,-220.45 469.74,-202.13"/>
<polygon fill="#63b8ff" stroke="#63b8ff" points="76.95,-414.03 86.81,-417.89 81.51,-408.72 76.95,-414.03"/>
</a>
</g>
</g>
<!-- Node5 -->
<g id="Node000005" class="node">
<title>Node5</title>
<g id="a_Node000005"><a xlink:href="fluid__structure__interaction__factory_8hpp.html" target="_top" xlink:title=" ">
<polygon fill="white" stroke="#666666" points="522.5,-52 375.5,-52 375.5,0 522.5,0 522.5,-52"/>
<text text-anchor="start" x="383.5" y="-40" font-family="Helvetica,sans-Serif" font-size="10.00">include/meltpooldg</text>
<text text-anchor="start" x="383.5" y="-29" font-family="Helvetica,sans-Serif" font-size="10.00">/fluid_structure_interaction</text>
<text text-anchor="start" x="383.5" y="-18" font-family="Helvetica,sans-Serif" font-size="10.00">/fluid_structure_interaction</text>
<text text-anchor="middle" x="449" y="-7" font-family="Helvetica,sans-Serif" font-size="10.00">_factory.hpp</text>
</a>
</g>
</g>
<!-- Node3&#45;&gt;Node5 -->
<g id="edge6_Node000003_Node000005" class="edge">
<title>Node3&#45;&gt;Node5</title>
<g id="a_edge6_Node000003_Node000005"><a xlink:title=" ">
<path fill="none" stroke="#63b8ff" d="M76.4,-412C65.16,-403.49 53.67,-393.28 45,-382 13.44,-340.93 0,-326.29 0,-274.5 0,-274.5 0,-274.5 0,-190 0,-111.11 247.98,-59.45 375.36,-38.12"/>
<polygon fill="#63b8ff" stroke="#63b8ff" points="74.36,-414.84 84.51,-417.88 78.47,-409.17 74.36,-414.84"/>
</a>
</g>
</g>
<!-- Node3&#45;&gt;Node7 -->
<g id="edge7_Node000003_Node000007" class="edge">
<title>Node3&#45;&gt;Node7</title>
<g id="a_edge7_Node000003_Node000007"><a xlink:title=" ">
<path fill="none" stroke="#63b8ff" d="M125.16,-407.63C128.55,-395.23 132.32,-381.43 135.07,-371.37"/>
<polygon fill="#63b8ff" stroke="#63b8ff" points="121.7,-407.03 122.44,-417.6 128.45,-408.88 121.7,-407.03"/>
</a>
</g>
</g>
<!-- Node4&#45;&gt;Node5 -->
<g id="edge4_Node000004_Node000005" class="edge">
<title>Node4&#45;&gt;Node5</title>
<g id="a_edge4_Node000004_Node000005"><a xlink:title=" ">
<path fill="none" stroke="#63b8ff" d="M528.95,-161.35C510.53,-130.39 481.46,-81.55 463.92,-52.07"/>
<polygon fill="#63b8ff" stroke="#63b8ff" points="526.18,-163.53 534.3,-170.34 532.19,-159.96 526.18,-163.53"/>
</a>
</g>
</g>
<!-- Node4&#45;&gt;Node6 -->
<g id="edge5_Node000004_Node000006" class="edge">
<title>Node4&#45;&gt;Node6</title>
<g id="a_edge5_Node000004_Node000006"><a xlink:title=" ">
<path fill="none" stroke="#63b8ff" d="M618.35,-167.93C622.62,-166.88 626.85,-165.89 631,-165 751.05,-139.27 893.8,-122.97 973.75,-115.11"/>
<polygon fill="#63b8ff" stroke="#63b8ff" points="617.2,-164.61 608.39,-170.5 618.95,-171.39 617.2,-164.61"/>
</a>
</g>
</g>
<!-- Node8&#45;&gt;Node9 -->
<g id="edge9_Node000008_Node000009" class="edge">
<title>Node8&#45;&gt;Node9</title>
<g id="a_edge9_Node000008_Node000009"><a xlink:title=" ">
<path fill="none" stroke="#63b8ff" d="M980.36,-325.5C985.17,-313.01 990.55,-299.03 994.47,-288.87"/>
<polygon fill="#63b8ff" stroke="#63b8ff" points="976.99,-324.51 976.66,-335.1 983.52,-327.03 976.99,-324.51"/>
</a>
</g>
</g>
<!-- Node10&#45;&gt;Node11 -->
<g id="edge11_Node000010_Node000011" class="edge">
<title>Node10&#45;&gt;Node11</title>
<g id="a_edge11_Node000010_Node000011"><a xlink:title=" ">
<path fill="none" stroke="#63b8ff" d="M383.79,-330.74C383.11,-316.98 382.28,-300.25 381.7,-288.63"/>
<polygon fill="#63b8ff" stroke="#63b8ff" points="380.31,-331.16 384.3,-340.98 387.3,-330.82 380.31,-331.16"/>
</a>
</g>
</g>
<!-- Node12&#45;&gt;Node13 -->
<g id="edge13_Node000012_Node000013" class="edge">
<title>Node12&#45;&gt;Node13</title>
<g id="a_edge13_Node000012_Node000013"><a xlink:title=" ">
<path fill="none" stroke="#63b8ff" d="M674,-484.69C674,-476.08 674,-466.9 674,-459.07"/>
<polygon fill="#63b8ff" stroke="#63b8ff" points="670.5,-484.79 674,-494.79 677.5,-484.79 670.5,-484.79"/>
</a>
</g>
</g>
<!-- Node13&#45;&gt;Node4 -->
<g id="edge14_Node000013_Node000004" class="edge">
<title>Node13&#45;&gt;Node4</title>
<g id="a_edge14_Node000013_Node000004"><a xlink:title=" ">
<path fill="none" stroke="#63b8ff" d="M647.86,-410.17C640.11,-401.47 631.86,-391.61 625,-382 598.86,-345.39 592.39,-335.49 575,-294 563.4,-266.32 554.82,-232.54 550.11,-211.65"/>
<polygon fill="#63b8ff" stroke="#63b8ff" points="645.47,-412.74 654.79,-417.78 650.65,-408.03 645.47,-412.74"/>
</a>
</g>
</g>
<!-- Node13&#45;&gt;Node5 -->
<g id="edge15_Node000013_Node000005" class="edge">
<title>Node13&#45;&gt;Node5</title>
<g id="a_edge15_Node000013_Node000005"><a xlink:title=" ">
<path fill="none" stroke="#63b8ff" d="M609.42,-418.92C586.99,-410.26 562.78,-398.2 544,-382 527.98,-368.18 454.12,-237.53 449,-217 434.62,-159.39 440.46,-88.86 445.2,-52.06"/>
<polygon fill="#63b8ff" stroke="#63b8ff" points="608.31,-422.25 618.9,-422.43 610.73,-415.68 608.31,-422.25"/>
</a>
</g>
</g>
<!-- Node13&#45;&gt;Node6 -->
<g id="edge31_Node000013_Node000006" class="edge">
<title>Node13&#45;&gt;Node6</title>
<g id="a_edge31_Node000013_Node000006"><a xlink:title=" ">
<path fill="none" stroke="#63b8ff" d="M738.9,-422.53C766.97,-413.88 799.03,-400.87 824,-382 846.84,-364.74 844.85,-352.92 862,-330 887.83,-295.48 894.41,-286.93 921,-253 955.86,-208.52 997.49,-156.95 1019.86,-129.36"/>
<polygon fill="#63b8ff" stroke="#63b8ff" points="737.76,-419.22 729.16,-425.42 739.74,-425.94 737.76,-419.22"/>
</a>
</g>
</g>
<!-- Node13&#45;&gt;Node7 -->
<g id="edge33_Node000013_Node000007" class="edge">
<title>Node13&#45;&gt;Node7</title>
<g id="a_edge33_Node000013_Node000007"><a xlink:title=" ">
<path fill="none" stroke="#63b8ff" d="M608.45,-428.07C533.22,-417.19 406.15,-398.67 297,-382 269.13,-377.74 238.53,-372.93 211.73,-368.68"/>
<polygon fill="#63b8ff" stroke="#63b8ff" points="608.32,-431.59 618.71,-429.55 609.32,-424.66 608.32,-431.59"/>
</a>
</g>
</g>
<!-- Node13&#45;&gt;Node8 -->
<g id="edge29_Node000013_Node000008" class="edge">
<title>Node13&#45;&gt;Node8</title>
<g id="a_edge29_Node000013_Node000008"><a xlink:title=" ">
<path fill="none" stroke="#63b8ff" d="M739.26,-423.42C784.67,-413.15 846.44,-398.23 900,-382 905.49,-380.34 911.18,-378.49 916.83,-376.57"/>
<polygon fill="#63b8ff" stroke="#63b8ff" points="738.24,-420.06 729.25,-425.67 739.77,-426.89 738.24,-420.06"/>
</a>
</g>
</g>
<!-- Node13&#45;&gt;Node9 -->
<g id="edge34_Node000013_Node000009" class="edge">
<title>Node13&#45;&gt;Node9</title>
<g id="a_edge34_Node000013_Node000009"><a xlink:title=" ">
<path fill="none" stroke="#63b8ff" d="M739.06,-428.09C777.25,-420.28 825.11,-406.35 862,-382 887.03,-365.48 882.15,-349.42 905,-330 924.8,-313.18 950.37,-298.57 970,-288.56"/>
<polygon fill="#63b8ff" stroke="#63b8ff" points="738.21,-424.69 729.07,-430.04 739.55,-431.56 738.21,-424.69"/>
</a>
</g>
</g>
<!-- Node13&#45;&gt;Node10 -->
<g id="edge30_Node000013_Node000010" class="edge">
<title>Node13&#45;&gt;Node10</title>
<g id="a_edge30_Node000013_Node000010"><a xlink:title=" ">
<path fill="none" stroke="#63b8ff" d="M609.07,-419.42C556.57,-404.79 483.69,-384.49 435.48,-371.06"/>
<polygon fill="#63b8ff" stroke="#63b8ff" points="608.39,-422.86 618.96,-422.17 610.27,-416.11 608.39,-422.86"/>
</a>
</g>
</g>
<!-- Node13&#45;&gt;Node11 -->
<g id="edge35_Node000013_Node000011" class="edge">
<title>Node13&#45;&gt;Node11</title>
<g id="a_edge35_Node000013_Node000011"><a xlink:title=" ">
<path fill="none" stroke="#63b8ff" d="M608.76,-423C578.76,-414.3 543.75,-401.11 516,-382 491.07,-364.83 495,-349.69 472,-330 452.74,-313.51 428.04,-298.78 409.23,-288.64"/>
<polygon fill="#63b8ff" stroke="#63b8ff" points="608.16,-426.47 618.73,-425.78 610.04,-419.72 608.16,-426.47"/>
</a>
</g>
</g>
<!-- Node14 -->
<g id="Node000014" class="node">
<title>Node14</title>
<g id="a_Node000014"><a xlink:href="fluid__structure__interaction__util_8hpp.html" target="_top" xlink:title=" ">
<polygon fill="white" stroke="#666666" points="781.5,-382 634.5,-382 634.5,-330 781.5,-330 781.5,-382"/>
<text text-anchor="start" x="642.5" y="-370" font-family="Helvetica,sans-Serif" font-size="10.00">include/meltpooldg</text>
<text text-anchor="start" x="642.5" y="-359" font-family="Helvetica,sans-Serif" font-size="10.00">/fluid_structure_interaction</text>
<text text-anchor="start" x="642.5" y="-348" font-family="Helvetica,sans-Serif" font-size="10.00">/fluid_structure_interaction</text>
<text text-anchor="middle" x="708" y="-337" font-family="Helvetica,sans-Serif" font-size="10.00">_util.hpp</text>
</a>
</g>
</g>
<!-- Node13&#45;&gt;Node14 -->
<g id="edge16_Node000013_Node000014" class="edge">
<title>Node13&#45;&gt;Node14</title>
<g id="a_edge16_Node000013_Node000014"><a xlink:title=" ">
<path fill="none" stroke="#63b8ff" d="M686.32,-408.32C689.94,-399.75 693.87,-390.45 697.38,-382.16"/>
<polygon fill="#63b8ff" stroke="#63b8ff" points="683.07,-407.03 682.4,-417.6 689.52,-409.75 683.07,-407.03"/>
</a>
</g>
</g>
<!-- Node17 -->
<g id="Node000017" class="node">
<title>Node17</title>
<g id="a_Node000017"><a xlink:href="stokes__law_8hpp.html" target="_top" xlink:title=" ">
<polygon fill="white" stroke="#666666" points="767.5,-129 620.5,-129 620.5,-88 767.5,-88 767.5,-129"/>
<text text-anchor="start" x="628.5" y="-117" font-family="Helvetica,sans-Serif" font-size="10.00">include/meltpooldg</text>
<text text-anchor="start" x="628.5" y="-106" font-family="Helvetica,sans-Serif" font-size="10.00">/fluid_structure_interaction</text>
<text text-anchor="middle" x="694" y="-95" font-family="Helvetica,sans-Serif" font-size="10.00">/stokes_law.hpp</text>
</a>
</g>
</g>
<!-- Node13&#45;&gt;Node17 -->
<g id="edge28_Node000013_Node000017" class="edge">
<title>Node13&#45;&gt;Node17</title>
<g id="a_edge28_Node000013_Node000017"><a xlink:title=" ">
<path fill="none" stroke="#63b8ff" d="M628.78,-412.45C614.95,-403.74 600.19,-393.29 588,-382 561.59,-357.54 512.18,-281.35 490,-253 477.34,-236.82 467.83,-236.38 461,-217 453.31,-195.2 446.68,-183.14 461,-165 480.68,-140.08 559.83,-125.14 620.47,-117.14"/>
<polygon fill="#63b8ff" stroke="#63b8ff" points="627.34,-415.68 637.69,-417.92 631,-409.71 627.34,-415.68"/>
</a>
</g>
</g>
<!-- Node13&#45;&gt;Node18 -->
<g id="edge32_Node000013_Node000018" class="edge">
<title>Node13&#45;&gt;Node18</title>
<g id="a_edge32_Node000013_Node000018"><a xlink:title=" ">
<path fill="none" stroke="#63b8ff" d="M738.74,-418C757.51,-409.57 776.55,-397.89 790,-382 835.97,-327.66 878.92,-100.6 889.51,-41.25"/>
<polygon fill="#63b8ff" stroke="#63b8ff" points="737.12,-414.88 729.27,-421.99 739.85,-421.33 737.12,-414.88"/>
</a>
</g>
</g>
<!-- Node13&#45;&gt;Node19 -->
<g id="edge36_Node000013_Node000019" class="edge">
<title>Node13&#45;&gt;Node19</title>
<g id="a_edge36_Node000013_Node000019"><a xlink:title=" ">
<path fill="none" stroke="#63b8ff" d="M739.29,-428.58C851.29,-413.27 1079.03,-382.14 1193.71,-366.47"/>
<polygon fill="#63b8ff" stroke="#63b8ff" points="738.58,-425.14 729.15,-429.96 739.53,-432.08 738.58,-425.14"/>
</a>
</g>
</g>
<!-- Node14&#45;&gt;Node4 -->
<g id="edge17_Node000014_Node000004" class="edge">
<title>Node14&#45;&gt;Node4</title>
<g id="a_edge17_Node000014_Node000004"><a xlink:title=" ">
<path fill="none" stroke="#63b8ff" d="M648.76,-324.71C634.78,-315.95 620.59,-305.58 609,-294 584.41,-269.43 565.09,-233.51 554.63,-211.51"/>
<polygon fill="#63b8ff" stroke="#63b8ff" points="647.05,-327.76 657.41,-329.95 650.67,-321.78 647.05,-327.76"/>
</a>
</g>
</g>
<!-- Node14&#45;&gt;Node6 -->
<g id="edge27_Node000014_Node000006" class="edge">
<title>Node14&#45;&gt;Node6</title>
<g id="a_edge27_Node000014_Node000006"><a xlink:title=" ">
<path fill="none" stroke="#63b8ff" d="M764.37,-324.52C778.9,-315.55 794.08,-305.12 807,-294 863.89,-245.03 856.3,-210.5 916,-165 935.44,-150.18 959.48,-138.09 980.92,-129.02"/>
<polygon fill="#63b8ff" stroke="#63b8ff" points="762.19,-321.76 755.43,-329.92 765.8,-327.75 762.19,-321.76"/>
</a>
</g>
</g>
<!-- Node15 -->
<g id="Node000015" class="node">
<title>Node15</title>
<g id="a_Node000015"><a xlink:href="brinkman__penalization__data_8hpp.html" target="_top" xlink:title=" ">
<polygon fill="white" stroke="#666666" points="797.5,-294 618.5,-294 618.5,-253 797.5,-253 797.5,-294"/>
<text text-anchor="start" x="626.5" y="-282" font-family="Helvetica,sans-Serif" font-size="10.00">include/meltpooldg</text>
<text text-anchor="start" x="626.5" y="-271" font-family="Helvetica,sans-Serif" font-size="10.00">/fluid_structure_interaction</text>
<text text-anchor="middle" x="708" y="-260" font-family="Helvetica,sans-Serif" font-size="10.00">/brinkman_penalization_data.hpp</text>
</a>
</g>
</g>
<!-- Node14&#45;&gt;Node15 -->
<g id="edge18_Node000014_Node000015" class="edge">
<title>Node14&#45;&gt;Node15</title>
<g id="a_edge18_Node000014_Node000015"><a xlink:title=" ">
<path fill="none" stroke="#63b8ff" d="M708,-319.87C708,-311.05 708,-301.9 708,-294.15"/>
<polygon fill="#63b8ff" stroke="#63b8ff" points="704.5,-319.97 708,-329.97 711.5,-319.97 704.5,-319.97"/>
</a>
</g>
</g>
<!-- Node15&#45;&gt;Node4 -->
<g id="edge19_Node000015_Node000004" class="edge">
<title>Node15&#45;&gt;Node4</title>
<g id="a_edge19_Node000015_Node000004"><a xlink:title=" ">
<path fill="none" stroke="#63b8ff" d="M659.23,-248.27C635.66,-236.55 607.72,-222.67 585.5,-211.63"/>
<polygon fill="#63b8ff" stroke="#63b8ff" points="657.86,-251.49 668.37,-252.81 660.97,-245.22 657.86,-251.49"/>
</a>
</g>
</g>
<!-- Node15&#45;&gt;Node6 -->
<g id="edge26_Node000015_Node000006" class="edge">
<title>Node15&#45;&gt;Node6</title>
<g id="a_edge26_Node000015_Node000006"><a xlink:title=" ">
<path fill="none" stroke="#63b8ff" d="M753.17,-247.68C767.52,-238.86 783.02,-228.29 796,-217 818.85,-197.14 814.55,-181.39 840,-165 880.43,-138.95 933.22,-124.92 973.83,-117.48"/>
<polygon fill="#63b8ff" stroke="#63b8ff" points="751.18,-244.79 744.41,-252.94 754.79,-250.79 751.18,-244.79"/>
</a>
</g>
</g>
<!-- Node16 -->
<g id="Node000016" class="node">
<title>Node16</title>
<g id="a_Node000016"><a xlink:href="fluid__structure__interaction__data_8hpp.html" target="_top" xlink:title=" ">
<polygon fill="white" stroke="#666666" points="787.5,-217 640.5,-217 640.5,-165 787.5,-165 787.5,-217"/>
<text text-anchor="start" x="648.5" y="-205" font-family="Helvetica,sans-Serif" font-size="10.00">include/meltpooldg</text>
<text text-anchor="start" x="648.5" y="-194" font-family="Helvetica,sans-Serif" font-size="10.00">/fluid_structure_interaction</text>
<text text-anchor="start" x="648.5" y="-183" font-family="Helvetica,sans-Serif" font-size="10.00">/fluid_structure_interaction</text>
<text text-anchor="middle" x="714" y="-172" font-family="Helvetica,sans-Serif" font-size="10.00">_data.hpp</text>
</a>
</g>
</g>
<!-- Node15&#45;&gt;Node16 -->
<g id="edge20_Node000015_Node000016" class="edge">
<title>Node15&#45;&gt;Node16</title>
<g id="a_edge20_Node000015_Node000016"><a xlink:title=" ">
<path fill="none" stroke="#63b8ff" d="M710.24,-242.49C710.86,-234.15 711.53,-225.19 712.13,-217.16"/>
<polygon fill="#63b8ff" stroke="#63b8ff" points="706.74,-242.37 709.48,-252.6 713.72,-242.89 706.74,-242.37"/>
</a>
</g>
</g>
<!-- Node16&#45;&gt;Node5 -->
<g id="edge21_Node000016_Node000005" class="edge">
<title>Node16&#45;&gt;Node5</title>
<g id="a_edge21_Node000016_Node000005"><a xlink:title=" ">
<path fill="none" stroke="#63b8ff" d="M662.09,-159.63C645.69,-149.93 627.54,-139.1 611,-129 568.74,-103.19 520.79,-72.87 488.1,-52.03"/>
<polygon fill="#63b8ff" stroke="#63b8ff" points="660.61,-162.82 671,-164.88 664.16,-156.79 660.61,-162.82"/>
</a>
</g>
</g>
<!-- Node16&#45;&gt;Node17 -->
<g id="edge22_Node000016_Node000017" class="edge">
<title>Node16&#45;&gt;Node17</title>
<g id="a_edge22_Node000016_Node000017"><a xlink:title=" ">
<path fill="none" stroke="#63b8ff" d="M705.34,-155.16C703.13,-146.25 700.83,-136.99 698.88,-129.15"/>
<polygon fill="#63b8ff" stroke="#63b8ff" points="701.97,-156.11 707.78,-164.97 708.77,-154.42 701.97,-156.11"/>
</a>
</g>
</g>
<!-- Node16&#45;&gt;Node18 -->
<g id="edge25_Node000016_Node000018" class="edge">
<title>Node16&#45;&gt;Node18</title>
<g id="a_edge25_Node000016_Node000018"><a xlink:title=" ">
<path fill="none" stroke="#63b8ff" d="M748.84,-158.09C787.49,-122.71 848.11,-67.19 876.44,-41.25"/>
<polygon fill="#63b8ff" stroke="#63b8ff" points="746.43,-155.55 741.42,-164.89 751.16,-160.72 746.43,-155.55"/>
</a>
</g>
</g>
<!-- Node17&#45;&gt;Node5 -->
<g id="edge23_Node000017_Node000005" class="edge">
<title>Node17&#45;&gt;Node5</title>
<g id="a_edge23_Node000017_Node000005"><a xlink:title=" ">
<path fill="none" stroke="#63b8ff" d="M624.72,-84.74C592.95,-74.3 555.25,-61.91 522.94,-51.29"/>
<polygon fill="#63b8ff" stroke="#63b8ff" points="623.79,-88.11 634.38,-87.91 625.97,-81.46 623.79,-88.11"/>
</a>
</g>
</g>
<!-- Node17&#45;&gt;Node18 -->
<g id="edge24_Node000017_Node000018" class="edge">
<title>Node17&#45;&gt;Node18</title>
<g id="a_edge24_Node000017_Node000018"><a xlink:title=" ">
<path fill="none" stroke="#63b8ff" d="M751.61,-84.08C785.85,-70.16 828.15,-52.96 857.32,-41.1"/>
<polygon fill="#63b8ff" stroke="#63b8ff" points="750.13,-80.9 742.18,-87.91 752.76,-87.39 750.13,-80.9"/>
</a>
</g>
</g>
<!-- Node20&#45;&gt;Node5 -->
<g id="edge39_Node000020_Node000005" class="edge">
<title>Node20&#45;&gt;Node5</title>
<g id="a_edge39_Node000020_Node000005"><a xlink:title=" ">
<path fill="none" stroke="#63b8ff" d="M776.72,-499C730.22,-487.93 666.24,-472.65 610,-459 431.43,-415.68 240,-458.26 240,-274.5 240,-274.5 240,-274.5 240,-190 240,-119.37 315.14,-74.83 375.31,-50.5"/>
<polygon fill="#63b8ff" stroke="#63b8ff" points="776.12,-502.46 786.66,-501.37 777.74,-495.65 776.12,-502.46"/>
</a>
</g>
</g>
<!-- Node20&#45;&gt;Node6 -->
<g id="edge41_Node000020_Node000006" class="edge">
<title>Node20&#45;&gt;Node6</title>
<g id="a_edge41_Node000020_Node000006"><a xlink:title=" ">
<path fill="none" stroke="#63b8ff" d="M856.89,-486.14C869.61,-464.53 889.83,-435.58 915,-418 959.95,-386.61 990.8,-417.01 1033,-382 1066.96,-353.82 1068.47,-336.86 1079,-294 1093.71,-234.11 1063.8,-162.98 1046.75,-129.2"/>
<polygon fill="#63b8ff" stroke="#63b8ff" points="853.81,-484.48 851.91,-494.9 859.89,-487.94 853.81,-484.48"/>
</a>
</g>
</g>
<!-- Node20&#45;&gt;Node13 -->
<g id="edge40_Node000020_Node000013" class="edge">
<title>Node20&#45;&gt;Node13</title>
<g id="a_edge40_Node000020_Node000013"><a xlink:title=" ">
<path fill="none" stroke="#63b8ff" d="M789.04,-490.86C766.11,-480.62 739.57,-468.77 717.77,-459.04"/>
<polygon fill="#63b8ff" stroke="#63b8ff" points="787.74,-494.11 798.3,-494.99 790.59,-487.72 787.74,-494.11"/>
</a>
</g>
</g>
<!-- Node20&#45;&gt;Node18 -->
<g id="edge42_Node000020_Node000018" class="edge">
<title>Node20&#45;&gt;Node18</title>
<g id="a_edge42_Node000020_Node000018"><a xlink:title=" ">
<path fill="none" stroke="#63b8ff" d="M907.33,-506.88C967.06,-498.5 1049.3,-482.97 1071,-459 1120.69,-404.11 1085.98,-367.61 1094,-294 1103.94,-202.8 1162.31,-161.19 1107,-88 1089.92,-65.4 1022.39,-48.74 967.51,-38.59"/>
<polygon fill="#63b8ff" stroke="#63b8ff" points="906.64,-503.44 897.21,-508.26 907.59,-510.37 906.64,-503.44"/>
</a>
</g>
</g>
<!-- Node21&#45;&gt;Node12 -->
<g id="edge44_Node000021_Node000012" class="edge">
<title>Node21&#45;&gt;Node12</title>
<g id="a_edge44_Node000021_Node000012"><a xlink:title=" ">
<path fill="none" stroke="#63b8ff" d="M651.9,-562.55C656.15,-553.69 660.73,-544.15 664.6,-536.07"/>
<polygon fill="#63b8ff" stroke="#63b8ff" points="648.63,-561.26 647.46,-571.79 654.94,-564.29 648.63,-561.26"/>
</a>
</g>
</g>
<!-- Node21&#45;&gt;Node13 -->
<g id="edge49_Node000021_Node000013" class="edge">
<title>Node21&#45;&gt;Node13</title>
<g id="a_edge49_Node000021_Node000013"><a xlink:title=" ">
<path fill="none" stroke="#63b8ff" d="M572.74,-586.82C537.97,-580.61 497.94,-566.71 476,-536 465.41,-521.17 464.99,-509.52 476,-495 493.26,-472.24 566.29,-456.25 618.63,-447.46"/>
<polygon fill="#63b8ff" stroke="#63b8ff" points="572.44,-590.32 582.87,-588.45 573.55,-583.41 572.44,-590.32"/>
</a>
</g>
</g>
<!-- Node22 -->
<g id="Node000022" class="node">
<title>Node22</title>
<g id="a_Node000022"><a xlink:href="obstacle__data__structure_8hpp.html" target="_top" xlink:title=" ">
<polygon fill="white" stroke="#666666" points="598.5,-536 485.5,-536 485.5,-495 598.5,-495 598.5,-536"/>
<text text-anchor="start" x="493.5" y="-524" font-family="Helvetica,sans-Serif" font-size="10.00">include/meltpooldg</text>
<text text-anchor="start" x="493.5" y="-513" font-family="Helvetica,sans-Serif" font-size="10.00">/particles/obstacle</text>
<text text-anchor="middle" x="542" y="-502" font-family="Helvetica,sans-Serif" font-size="10.00">_data_structure.hpp</text>
</a>
</g>
</g>
<!-- Node21&#45;&gt;Node22 -->
<g id="edge45_Node000021_Node000022" class="edge">
<title>Node21&#45;&gt;Node22</title>
<g id="a_edge45_Node000021_Node000022"><a xlink:title=" ">
<path fill="none" stroke="#63b8ff" d="M605.12,-565.82C592.71,-556.11 578.78,-545.24 567.18,-536.17"/>
<polygon fill="#63b8ff" stroke="#63b8ff" points="602.99,-568.59 613.03,-571.99 607.3,-563.08 602.99,-568.59"/>
</a>
</g>
</g>
<!-- Node22&#45;&gt;Node3 -->
<g id="edge46_Node000022_Node000003" class="edge">
<title>Node22&#45;&gt;Node3</title>
<g id="a_edge46_Node000022_Node000003"><a xlink:title=" ">
<path fill="none" stroke="#63b8ff" d="M475.06,-502.69C392.15,-488.06 252.35,-463.39 174.22,-449.6"/>
<polygon fill="#63b8ff" stroke="#63b8ff" points="474.67,-506.17 485.12,-504.46 475.88,-499.28 474.67,-506.17"/>
</a>
</g>
</g>
<!-- Node22&#45;&gt;Node13 -->
<g id="edge47_Node000022_Node000013" class="edge">
<title>Node22&#45;&gt;Node13</title>
<g id="a_edge47_Node000022_Node000013"><a xlink:title=" ">
<path fill="none" stroke="#63b8ff" d="M585.26,-489.92C602.82,-479.95 622.81,-468.58 639.38,-459.17"/>
<polygon fill="#63b8ff" stroke="#63b8ff" points="583.3,-487.01 576.34,-494.99 586.76,-493.09 583.3,-487.01"/>
</a>
</g>
</g>
<!-- Node22&#45;&gt;Node23 -->
<g id="edge48_Node000022_Node000023" class="edge">
<title>Node22&#45;&gt;Node23</title>
<g id="a_edge48_Node000022_Node000023"><a xlink:title=" ">
<path fill="none" stroke="#63b8ff" d="M608.85,-494.98C724.62,-470.18 848.69,-454.64 923.96,-446.42"/>
<polygon fill="#63b8ff" stroke="#63b8ff" points="607.78,-491.63 598.75,-497.17 609.26,-498.47 607.78,-491.63"/>
</a>
</g>
</g>
<!-- Node24&#45;&gt;Node6 -->
<g id="edge51_Node000024_Node000006" class="edge">
<title>Node24&#45;&gt;Node6</title>
<g id="a_edge51_Node000024_Node000006"><a xlink:title=" ">
<path fill="none" stroke="#63b8ff" d="M1335.31,-562.44C1351.26,-512.39 1376.59,-407.77 1341,-330 1292.67,-224.39 1164.42,-159.13 1090.52,-129.11"/>
<polygon fill="#63b8ff" stroke="#63b8ff" points="1331.97,-561.39 1332.17,-571.99 1338.62,-563.58 1331.97,-561.39"/>
</a>
</g>
</g>
<!-- Node24&#45;&gt;Node19 -->
<g id="edge52_Node000024_Node000019" class="edge">
<title>Node24&#45;&gt;Node19</title>
<g id="a_edge52_Node000024_Node000019"><a xlink:title=" ">
<path fill="none" stroke="#63b8ff" d="M1317.25,-562.18C1303.8,-511.33 1276.65,-408.64 1266.74,-371.13"/>
<polygon fill="#63b8ff" stroke="#63b8ff" points="1313.88,-563.14 1319.82,-571.91 1320.65,-561.35 1313.88,-563.14"/>
</a>
</g>
</g>
</g>
</svg>
