<?xml version="1.0" encoding="UTF-8" standalone="no"?>
<!DOCTYPE svg PUBLIC "-//W3C//DTD SVG 1.1//EN"
 "http://www.w3.org/Graphics/SVG/1.1/DTD/svg11.dtd">
<!-- Generated by graphviz version 2.43.0 (0)
 -->
<!-- Title: include/meltpooldg/particles/particle_tools.hpp Pages: 1 -->
<svg width="2084pt" height="313pt"
 viewBox="0.00 0.00 2083.50 313.00" xmlns="http://www.w3.org/2000/svg" xmlns:xlink="http://www.w3.org/1999/xlink">
<g id="graph0" class="graph" transform="scale(1 1) rotate(0) translate(4 309)">
<title>include/meltpooldg/particles/particle_tools.hpp</title>
<!-- Node1 -->
<g id="Node000001" class="node">
<title>Node1</title>
<g id="a_Node000001"><a xlink:title=" ">
<polygon fill="#999999" stroke="#666666" points="540,-305 430,-305 430,-264 540,-264 540,-305"/>
<text text-anchor="start" x="438" y="-293" font-family="Helvetica,sans-Serif" font-size="10.00">include/meltpooldg</text>
<text text-anchor="start" x="438" y="-282" font-family="Helvetica,sans-Serif" font-size="10.00">/particles/particle</text>
<text text-anchor="middle" x="485" y="-271" font-family="Helvetica,sans-Serif" font-size="10.00">_tools.hpp</text>
</a>
</g>
</g>
<!-- Node2 -->
<g id="Node000002" class="node">
<title>Node2</title>
<g id="a_Node000002"><a xlink:title=" ">
<polygon fill="#e0e0e0" stroke="#999999" points="104,-222.5 0,-222.5 0,-203.5 104,-203.5 104,-222.5"/>
<text text-anchor="middle" x="52" y="-210.5" font-family="Helvetica,sans-Serif" font-size="10.00">deal.II/base/mpi.h</text>
</a>
</g>
</g>
<!-- Node1&#45;&gt;Node2 -->
<g id="edge1_Node000001_Node000002" class="edge">
<title>Node1&#45;&gt;Node2</title>
<g id="a_edge1_Node000001_Node000002"><a xlink:title=" ">
<path fill="none" stroke="#63b8ff" d="M429.81,-276.19C357.85,-266.41 228.16,-248 118,-228 112.24,-226.95 106.22,-225.78 100.25,-224.58"/>
<polygon fill="#63b8ff" stroke="#63b8ff" points="100.82,-221.12 90.31,-222.53 99.4,-227.98 100.82,-221.12"/>
</a>
</g>
</g>
<!-- Node3 -->
<g id="Node000003" class="node">
<title>Node3</title>
<g id="a_Node000003"><a xlink:title=" ">
<polygon fill="#e0e0e0" stroke="#999999" points="354,-24.5 244,-24.5 244,-5.5 354,-5.5 354,-24.5"/>
<text text-anchor="middle" x="299" y="-12.5" font-family="Helvetica,sans-Serif" font-size="10.00">deal.II/base/point.h</text>
</a>
</g>
</g>
<!-- Node1&#45;&gt;Node3 -->
<g id="edge2_Node000001_Node000003" class="edge">
<title>Node1&#45;&gt;Node3</title>
<g id="a_edge2_Node000001_Node000003"><a xlink:title=" ">
<path fill="none" stroke="#63b8ff" d="M450.72,-263.96C386.28,-226.43 251.32,-143.73 227,-96 220.95,-84.12 220.82,-77.81 227,-66 235.64,-49.47 252.52,-37.31 267.75,-29.12"/>
<polygon fill="#63b8ff" stroke="#63b8ff" points="269.56,-32.13 276.94,-24.53 266.43,-25.87 269.56,-32.13"/>
</a>
</g>
</g>
<!-- Node4 -->
<g id="Node000004" class="node">
<title>Node4</title>
<g id="a_Node000004"><a xlink:title=" ">
<polygon fill="#e0e0e0" stroke="#999999" points="542.5,-90.5 427.5,-90.5 427.5,-71.5 542.5,-71.5 542.5,-90.5"/>
<text text-anchor="middle" x="485" y="-78.5" font-family="Helvetica,sans-Serif" font-size="10.00">deal.II/base/tensor.h</text>
</a>
</g>
</g>
<!-- Node1&#45;&gt;Node4 -->
<g id="edge3_Node000001_Node000004" class="edge">
<title>Node1&#45;&gt;Node4</title>
<g id="a_edge3_Node000001_Node000004"><a xlink:title=" ">
<path fill="none" stroke="#63b8ff" d="M485,-263.81C485,-225.04 485,-139.26 485,-101.03"/>
<polygon fill="#63b8ff" stroke="#63b8ff" points="488.5,-100.8 485,-90.8 481.5,-100.8 488.5,-100.8"/>
</a>
</g>
</g>
<!-- Node5 -->
<g id="Node000005" class="node">
<title>Node5</title>
<g id="a_Node000005"><a xlink:title=" ">
<polygon fill="#e0e0e0" stroke="#999999" points="310,-222.5 198,-222.5 198,-203.5 310,-203.5 310,-222.5"/>
<text text-anchor="middle" x="254" y="-210.5" font-family="Helvetica,sans-Serif" font-size="10.00">deal.II/base/types.h</text>
</a>
</g>
</g>
<!-- Node1&#45;&gt;Node5 -->
<g id="edge4_Node000001_Node000005" class="edge">
<title>Node1&#45;&gt;Node5</title>
<g id="a_edge4_Node000001_Node000005"><a xlink:title=" ">
<path fill="none" stroke="#63b8ff" d="M429.96,-266.94C387.51,-254.17 329.89,-236.83 292.33,-225.53"/>
<polygon fill="#63b8ff" stroke="#63b8ff" points="292.89,-222.04 282.3,-222.51 290.87,-228.75 292.89,-222.04"/>
</a>
</g>
</g>
<!-- Node6 -->
<g id="Node000006" class="node">
<title>Node6</title>
<g id="a_Node000006"><a xlink:href="exceptions_8hpp.html" target="_top" xlink:title=" ">
<polygon fill="white" stroke="#666666" points="409.5,-90.5 236.5,-90.5 236.5,-71.5 409.5,-71.5 409.5,-90.5"/>
<text text-anchor="middle" x="323" y="-78.5" font-family="Helvetica,sans-Serif" font-size="10.00">meltpooldg/core/exceptions.hpp</text>
</a>
</g>
</g>
<!-- Node1&#45;&gt;Node6 -->
<g id="edge5_Node000001_Node000006" class="edge">
<title>Node1&#45;&gt;Node6</title>
<g id="a_edge5_Node000001_Node000006"><a xlink:title=" ">
<path fill="none" stroke="#63b8ff" d="M469.17,-263.81C437.33,-224.21 366.05,-135.54 336.37,-98.62"/>
<polygon fill="#63b8ff" stroke="#63b8ff" points="339.07,-96.4 330.07,-90.8 333.61,-100.78 339.07,-96.4"/>
</a>
</g>
</g>
<!-- Node8 -->
<g id="Node000008" class="node">
<title>Node8</title>
<g id="a_Node000008"><a xlink:title=" ">
<polygon fill="#e0e0e0" stroke="#999999" points="226,-24.5 182,-24.5 182,-5.5 226,-5.5 226,-24.5"/>
<text text-anchor="middle" x="204" y="-12.5" font-family="Helvetica,sans-Serif" font-size="10.00">string</text>
</a>
</g>
</g>
<!-- Node1&#45;&gt;Node8 -->
<g id="edge53_Node000001_Node000008" class="edge">
<title>Node1&#45;&gt;Node8</title>
<g id="a_edge53_Node000001_Node000008"><a xlink:title=" ">
<path fill="none" stroke="#63b8ff" d="M429.85,-281.29C352.81,-276.9 219.01,-264.16 189,-228 141.84,-171.18 177.58,-73.65 195.43,-33.77"/>
<polygon fill="#63b8ff" stroke="#63b8ff" points="198.68,-35.08 199.71,-24.54 192.33,-32.13 198.68,-35.08"/>
</a>
</g>
</g>
<!-- Node9 -->
<g id="Node000009" class="node">
<title>Node9</title>
<g id="a_Node000009"><a xlink:href="particle_8hpp.html" target="_top" xlink:title=" ">
<polygon fill="white" stroke="#666666" points="1015.5,-162 898.5,-162 898.5,-132 1015.5,-132 1015.5,-162"/>
<text text-anchor="start" x="906.5" y="-150" font-family="Helvetica,sans-Serif" font-size="10.00">meltpooldg/particles</text>
<text text-anchor="middle" x="957" y="-139" font-family="Helvetica,sans-Serif" font-size="10.00">/particle.hpp</text>
</a>
</g>
</g>
<!-- Node1&#45;&gt;Node9 -->
<g id="edge8_Node000001_Node000009" class="edge">
<title>Node1&#45;&gt;Node9</title>
<g id="a_edge8_Node000001_Node000009"><a xlink:title=" ">
<path fill="none" stroke="#63b8ff" d="M540.07,-267.69C629.7,-241.96 806.34,-191.25 898.28,-164.86"/>
<polygon fill="#63b8ff" stroke="#63b8ff" points="899.33,-168.2 907.98,-162.07 897.4,-161.47 899.33,-168.2"/>
</a>
</g>
</g>
<!-- Node21 -->
<g id="Node000021" class="node">
<title>Node21</title>
<g id="a_Node000021"><a xlink:title=" ">
<polygon fill="#e0e0e0" stroke="#999999" points="159.5,-24.5 112.5,-24.5 112.5,-5.5 159.5,-5.5 159.5,-24.5"/>
<text text-anchor="middle" x="136" y="-12.5" font-family="Helvetica,sans-Serif" font-size="10.00">cmath</text>
</a>
</g>
</g>
<!-- Node1&#45;&gt;Node21 -->
<g id="edge50_Node000001_Node000021" class="edge">
<title>Node1&#45;&gt;Node21</title>
<g id="a_edge50_Node000001_Node000021"><a xlink:title=" ">
<path fill="none" stroke="#63b8ff" d="M429.95,-281.34C349.24,-276.97 204.49,-264.19 169,-228 117.03,-175.01 125.97,-76.07 132.49,-34.81"/>
<polygon fill="#63b8ff" stroke="#63b8ff" points="135.96,-35.24 134.21,-24.79 129.06,-34.06 135.96,-35.24"/>
</a>
</g>
</g>
<!-- Node25 -->
<g id="Node000025" class="node">
<title>Node25</title>
<g id="a_Node000025"><a xlink:title=" ">
<polygon fill="#e0e0e0" stroke="#999999" points="1666.5,-24.5 1619.5,-24.5 1619.5,-5.5 1666.5,-5.5 1666.5,-24.5"/>
<text text-anchor="middle" x="1643" y="-12.5" font-family="Helvetica,sans-Serif" font-size="10.00">vector</text>
</a>
</g>
</g>
<!-- Node1&#45;&gt;Node25 -->
<g id="edge55_Node000001_Node000025" class="edge">
<title>Node1&#45;&gt;Node25</title>
<g id="a_edge55_Node000001_Node000025"><a xlink:title=" ">
<path fill="none" stroke="#63b8ff" d="M540.15,-282.24C745.69,-276.4 1463.68,-245.47 1624,-96 1640.69,-80.44 1643.94,-53.13 1644.04,-34.8"/>
<polygon fill="#63b8ff" stroke="#63b8ff" points="1647.53,-34.64 1643.78,-24.74 1640.54,-34.82 1647.53,-34.64"/>
</a>
</g>
</g>
<!-- Node27 -->
<g id="Node000027" class="node">
<title>Node27</title>
<g id="a_Node000027"><a xlink:title=" ">
<polygon fill="#e0e0e0" stroke="#999999" points="605.5,-90.5 560.5,-90.5 560.5,-71.5 605.5,-71.5 605.5,-90.5"/>
<text text-anchor="middle" x="583" y="-78.5" font-family="Helvetica,sans-Serif" font-size="10.00">utility</text>
</a>
</g>
</g>
<!-- Node1&#45;&gt;Node27 -->
<g id="edge54_Node000001_Node000027" class="edge">
<title>Node1&#45;&gt;Node27</title>
<g id="a_edge54_Node000001_Node000027"><a xlink:title=" ">
<path fill="none" stroke="#63b8ff" d="M494.58,-263.81C513.59,-224.71 555.87,-137.78 574.22,-100.05"/>
<polygon fill="#63b8ff" stroke="#63b8ff" points="577.5,-101.32 578.72,-90.8 571.2,-98.26 577.5,-101.32"/>
</a>
</g>
</g>
<!-- Node28 -->
<g id="Node000028" class="node">
<title>Node28</title>
<g id="a_Node000028"><a xlink:href="particle__accessor_8hpp.html" target="_top" xlink:title=" ">
<polygon fill="white" stroke="#666666" points="1740.5,-228 1615.5,-228 1615.5,-198 1740.5,-198 1740.5,-228"/>
<text text-anchor="start" x="1623.5" y="-216" font-family="Helvetica,sans-Serif" font-size="10.00">meltpooldg/particles</text>
<text text-anchor="middle" x="1678" y="-205" font-family="Helvetica,sans-Serif" font-size="10.00">/particle_accessor.hpp</text>
</a>
</g>
</g>
<!-- Node1&#45;&gt;Node28 -->
<g id="edge36_Node000001_Node000028" class="edge">
<title>Node1&#45;&gt;Node28</title>
<g id="a_edge36_Node000001_Node000028"><a xlink:title=" ">
<path fill="none" stroke="#63b8ff" d="M540.08,-283.29C702.83,-282.14 1195.58,-274.74 1601,-228 1602.48,-227.83 1603.97,-227.65 1605.47,-227.46"/>
<polygon fill="#63b8ff" stroke="#63b8ff" points="1606.06,-230.91 1615.49,-226.07 1605.1,-223.98 1606.06,-230.91"/>
</a>
</g>
</g>
<!-- Node35 -->
<g id="Node000035" class="node">
<title>Node35</title>
<g id="a_Node000035"><a xlink:title=" ">
<polygon fill="#e0e0e0" stroke="#999999" points="1813.5,-222.5 1758.5,-222.5 1758.5,-203.5 1813.5,-203.5 1813.5,-222.5"/>
<text text-anchor="middle" x="1786" y="-210.5" font-family="Helvetica,sans-Serif" font-size="10.00">fstream</text>
</a>
</g>
</g>
<!-- Node1&#45;&gt;Node35 -->
<g id="edge51_Node000001_Node000035" class="edge">
<title>Node1&#45;&gt;Node35</title>
<g id="a_edge51_Node000001_Node000035"><a xlink:title=" ">
<path fill="none" stroke="#63b8ff" d="M540.05,-283.47C751.82,-282.97 1513.77,-277.7 1750,-228 1752.53,-227.47 1755.11,-226.78 1757.67,-225.99"/>
<polygon fill="#63b8ff" stroke="#63b8ff" points="1759.03,-229.23 1767.3,-222.6 1756.7,-222.62 1759.03,-229.23"/>
</a>
</g>
</g>
<!-- Node36 -->
<g id="Node000036" class="node">
<title>Node36</title>
<g id="a_Node000036"><a xlink:title=" ">
<polygon fill="#e0e0e0" stroke="#999999" points="1888,-222.5 1832,-222.5 1832,-203.5 1888,-203.5 1888,-222.5"/>
<text text-anchor="middle" x="1860" y="-210.5" font-family="Helvetica,sans-Serif" font-size="10.00">optional</text>
</a>
</g>
</g>
<!-- Node1&#45;&gt;Node36 -->
<g id="edge52_Node000001_Node000036" class="edge">
<title>Node1&#45;&gt;Node36</title>
<g id="a_edge52_Node000001_Node000036"><a xlink:title=" ">
<path fill="none" stroke="#63b8ff" d="M540.19,-283.56C759.79,-283.41 1571.73,-279.35 1823,-228 1825.68,-227.45 1828.43,-226.73 1831.15,-225.91"/>
<polygon fill="#63b8ff" stroke="#63b8ff" points="1832.44,-229.17 1840.76,-222.61 1830.17,-222.55 1832.44,-229.17"/>
</a>
</g>
</g>
<!-- Node7 -->
<g id="Node000007" class="node">
<title>Node7</title>
<g id="a_Node000007"><a xlink:title=" ">
<polygon fill="#e0e0e0" stroke="#999999" points="1373,-24.5 1235,-24.5 1235,-5.5 1373,-5.5 1373,-24.5"/>
<text text-anchor="middle" x="1304" y="-12.5" font-family="Helvetica,sans-Serif" font-size="10.00">deal.II/base/exceptions.h</text>
</a>
</g>
</g>
<!-- Node6&#45;&gt;Node7 -->
<g id="edge6_Node000006_Node000007" class="edge">
<title>Node6&#45;&gt;Node7</title>
<g id="a_edge6_Node000006_Node000007"><a xlink:title=" ">
<path fill="none" stroke="#63b8ff" d="M374.16,-71.49C388.32,-69.39 403.73,-67.37 418,-66 775.83,-31.75 868.75,-69.84 1226,-30 1234.55,-29.05 1243.58,-27.72 1252.34,-26.27"/>
<polygon fill="#63b8ff" stroke="#63b8ff" points="1253.2,-29.67 1262.46,-24.51 1252,-22.77 1253.2,-29.67"/>
</a>
</g>
</g>
<!-- Node6&#45;&gt;Node8 -->
<g id="edge7_Node000006_Node000008" class="edge">
<title>Node6&#45;&gt;Node8</title>
<g id="a_edge7_Node000006_Node000008"><a xlink:title=" ">
<path fill="none" stroke="#63b8ff" d="M306.95,-71.37C286.99,-60.63 252.68,-42.18 229.2,-29.55"/>
<polygon fill="#63b8ff" stroke="#63b8ff" points="230.64,-26.35 220.17,-24.7 227.32,-32.52 230.64,-26.35"/>
</a>
</g>
</g>
<!-- Node9&#45;&gt;Node3 -->
<g id="edge12_Node000009_Node000003" class="edge">
<title>Node9&#45;&gt;Node3</title>
<g id="a_edge12_Node000009_Node000003"><a xlink:title=" ">
<path fill="none" stroke="#63b8ff" d="M898.41,-142.11C843.12,-136.81 758.81,-124.47 691,-96 669.51,-86.98 669.75,-74.37 648,-66 528.85,-20.14 488.82,-51.66 363,-30 357.26,-29.01 351.25,-27.86 345.31,-26.64"/>
<polygon fill="#63b8ff" stroke="#63b8ff" points="345.95,-23.2 335.44,-24.56 344.5,-30.05 345.95,-23.2"/>
</a>
</g>
</g>
<!-- Node9&#45;&gt;Node4 -->
<g id="edge13_Node000009_Node000004" class="edge">
<title>Node9&#45;&gt;Node4</title>
<g id="a_edge13_Node000009_Node000004"><a xlink:title=" ">
<path fill="none" stroke="#63b8ff" d="M898.28,-140.38C819.12,-132.43 673.93,-116.57 551,-96 545.08,-95.01 538.88,-93.85 532.76,-92.64"/>
<polygon fill="#63b8ff" stroke="#63b8ff" points="533.09,-89.13 522.59,-90.56 531.68,-95.99 533.09,-89.13"/>
</a>
</g>
</g>
<!-- Node9&#45;&gt;Node7 -->
<g id="edge11_Node000009_Node000007" class="edge">
<title>Node9&#45;&gt;Node7</title>
<g id="a_edge11_Node000009_Node000007"><a xlink:title=" ">
<path fill="none" stroke="#63b8ff" d="M976.79,-131.99C990.67,-122.08 1009.6,-108.41 1026,-96 1043.16,-83.02 1044.5,-75.1 1064,-66 1080.45,-58.32 1181.58,-38.67 1247.21,-26.41"/>
<polygon fill="#63b8ff" stroke="#63b8ff" points="1248.23,-29.78 1257.42,-24.51 1246.95,-22.9 1248.23,-29.78"/>
</a>
</g>
</g>
<!-- Node9&#45;&gt;Node8 -->
<g id="edge33_Node000009_Node000008" class="edge">
<title>Node9&#45;&gt;Node8</title>
<g id="a_edge33_Node000009_Node000008"><a xlink:title=" ">
<path fill="none" stroke="#63b8ff" d="M898.35,-146.07C833.99,-144.02 729.06,-134.33 648,-96 629.78,-87.39 632.49,-74.01 614,-66 458.74,1.27 398.54,-73.41 235,-30 233.31,-29.55 231.6,-29.02 229.89,-28.43"/>
<polygon fill="#63b8ff" stroke="#63b8ff" points="230.95,-25.08 220.36,-24.6 228.33,-31.58 230.95,-25.08"/>
</a>
</g>
</g>
<!-- Node10 -->
<g id="Node000010" class="node">
<title>Node10</title>
<g id="a_Node000010"><a xlink:title=" ">
<polygon fill="#e0e0e0" stroke="#999999" points="1505,-24.5 1391,-24.5 1391,-5.5 1505,-5.5 1505,-24.5"/>
<text text-anchor="middle" x="1448" y="-12.5" font-family="Helvetica,sans-Serif" font-size="10.00">deal.II/base/config.h</text>
</a>
</g>
</g>
<!-- Node9&#45;&gt;Node10 -->
<g id="edge9_Node000009_Node000010" class="edge">
<title>Node9&#45;&gt;Node10</title>
<g id="a_edge9_Node000009_Node000010"><a xlink:title=" ">
<path fill="none" stroke="#63b8ff" d="M1015.54,-143.98C1074.54,-140.07 1167.05,-128.72 1240,-96 1259.63,-87.19 1258.89,-75.88 1278,-66 1299.88,-54.69 1360.92,-37.96 1403.56,-27.02"/>
<polygon fill="#63b8ff" stroke="#63b8ff" points="1404.61,-30.37 1413.43,-24.51 1402.88,-23.58 1404.61,-30.37"/>
</a>
</g>
</g>
<!-- Node11 -->
<g id="Node000011" class="node">
<title>Node11</title>
<g id="a_Node000011"><a xlink:title=" ">
<polygon fill="#e0e0e0" stroke="#999999" points="879.5,-96 778.5,-96 778.5,-66 879.5,-66 879.5,-96"/>
<text text-anchor="start" x="786.5" y="-84" font-family="Helvetica,sans-Serif" font-size="10.00">deal.II/base/array</text>
<text text-anchor="middle" x="829" y="-73" font-family="Helvetica,sans-Serif" font-size="10.00">_view.h</text>
</a>
</g>
</g>
<!-- Node9&#45;&gt;Node11 -->
<g id="edge10_Node000009_Node000011" class="edge">
<title>Node9&#45;&gt;Node11</title>
<g id="a_edge10_Node000009_Node000011"><a xlink:title=" ">
<path fill="none" stroke="#63b8ff" d="M928.91,-131.95C910.49,-122.74 886.19,-110.6 866.17,-100.59"/>
<polygon fill="#63b8ff" stroke="#63b8ff" points="867.53,-97.35 857.02,-96.01 864.4,-103.61 867.53,-97.35"/>
</a>
</g>
</g>
<!-- Node12 -->
<g id="Node000012" class="node">
<title>Node12</title>
<g id="a_Node000012"><a xlink:title=" ">
<polygon fill="#e0e0e0" stroke="#999999" points="1231,-96 1073,-96 1073,-66 1231,-66 1231,-96"/>
<text text-anchor="start" x="1081" y="-84" font-family="Helvetica,sans-Serif" font-size="10.00">deal.II/numerics/data</text>
<text text-anchor="middle" x="1152" y="-73" font-family="Helvetica,sans-Serif" font-size="10.00">_component_interpretation.h</text>
</a>
</g>
</g>
<!-- Node9&#45;&gt;Node12 -->
<g id="edge14_Node000009_Node000012" class="edge">
<title>Node9&#45;&gt;Node12</title>
<g id="a_edge14_Node000009_Node000012"><a xlink:title=" ">
<path fill="none" stroke="#63b8ff" d="M999.79,-131.95C1029.13,-122.33 1068.24,-109.49 1099.47,-99.24"/>
<polygon fill="#63b8ff" stroke="#63b8ff" points="1100.9,-102.46 1109.31,-96.01 1098.71,-95.81 1100.9,-102.46"/>
</a>
</g>
</g>
<!-- Node13 -->
<g id="Node000013" class="node">
<title>Node13</title>
<g id="a_Node000013"><a xlink:title=" ">
<polygon fill="#e0e0e0" stroke="#999999" points="1427,-90.5 1287,-90.5 1287,-71.5 1427,-71.5 1427,-90.5"/>
<text text-anchor="middle" x="1357" y="-78.5" font-family="Helvetica,sans-Serif" font-size="10.00">deal.II/particles/particle.h</text>
</a>
</g>
</g>
<!-- Node9&#45;&gt;Node13 -->
<g id="edge15_Node000009_Node000013" class="edge">
<title>Node9&#45;&gt;Node13</title>
<g id="a_edge15_Node000009_Node000013"><a xlink:title=" ">
<path fill="none" stroke="#63b8ff" d="M1015.55,-136.88C1079.01,-126.97 1183.22,-110.58 1273,-96 1280.59,-94.77 1288.57,-93.46 1296.46,-92.15"/>
<polygon fill="#63b8ff" stroke="#63b8ff" points="1297.08,-95.6 1306.37,-90.51 1295.94,-88.69 1297.08,-95.6"/>
</a>
</g>
</g>
<!-- Node14 -->
<g id="Node000014" class="node">
<title>Node14</title>
<g id="a_Node000014"><a xlink:title=" ">
<polygon fill="#e0e0e0" stroke="#999999" points="1614.5,-96 1483.5,-96 1483.5,-66 1614.5,-66 1614.5,-96"/>
<text text-anchor="start" x="1491.5" y="-84" font-family="Helvetica,sans-Serif" font-size="10.00">deal.II/particles/particle</text>
<text text-anchor="middle" x="1549" y="-73" font-family="Helvetica,sans-Serif" font-size="10.00">_accessor.h</text>
</a>
</g>
</g>
<!-- Node9&#45;&gt;Node14 -->
<g id="edge16_Node000009_Node000014" class="edge">
<title>Node9&#45;&gt;Node14</title>
<g id="a_edge16_Node000009_Node000014"><a xlink:title=" ">
<path fill="none" stroke="#63b8ff" d="M1015.52,-141.74C1110.81,-134.47 1305.28,-118.29 1469,-96 1470.3,-95.82 1471.6,-95.64 1472.92,-95.45"/>
<polygon fill="#63b8ff" stroke="#63b8ff" points="1473.76,-98.87 1483.14,-93.93 1472.73,-91.94 1473.76,-98.87"/>
</a>
</g>
</g>
<!-- Node15 -->
<g id="Node000015" class="node">
<title>Node15</title>
<g id="a_Node000015"><a xlink:href="utilities_2utility__functions_8hpp.html" target="_top" xlink:title=" ">
<polygon fill="white" stroke="#666666" points="1016.5,-96 897.5,-96 897.5,-66 1016.5,-66 1016.5,-96"/>
<text text-anchor="start" x="905.5" y="-84" font-family="Helvetica,sans-Serif" font-size="10.00">meltpooldg/utilities</text>
<text text-anchor="middle" x="957" y="-73" font-family="Helvetica,sans-Serif" font-size="10.00">/utility_functions.hpp</text>
</a>
</g>
</g>
<!-- Node9&#45;&gt;Node15 -->
<g id="edge17_Node000009_Node000015" class="edge">
<title>Node9&#45;&gt;Node15</title>
<g id="a_edge17_Node000009_Node000015"><a xlink:title=" ">
<path fill="none" stroke="#63b8ff" d="M957,-131.8C957,-124.34 957,-114.99 957,-106.41"/>
<polygon fill="#63b8ff" stroke="#63b8ff" points="960.5,-106.16 957,-96.16 953.5,-106.16 960.5,-106.16"/>
</a>
</g>
</g>
<!-- Node9&#45;&gt;Node25 -->
<g id="edge35_Node000009_Node000025" class="edge">
<title>Node9&#45;&gt;Node25</title>
<g id="a_edge35_Node000009_Node000025"><a xlink:title=" ">
<path fill="none" stroke="#63b8ff" d="M1015.71,-143.86C1126.26,-139.18 1360.97,-125.96 1436,-96 1456.31,-87.89 1455.53,-75.95 1475,-66 1518.83,-43.6 1574.35,-29.54 1609.29,-22.23"/>
<polygon fill="#63b8ff" stroke="#63b8ff" points="1610.32,-25.59 1619.43,-20.18 1608.93,-18.73 1610.32,-25.59"/>
</a>
</g>
</g>
<!-- Node26 -->
<g id="Node000026" class="node">
<title>Node26</title>
<g id="a_Node000026"><a xlink:title=" ">
<polygon fill="#e0e0e0" stroke="#999999" points="760,-90.5 700,-90.5 700,-71.5 760,-71.5 760,-90.5"/>
<text text-anchor="middle" x="730" y="-78.5" font-family="Helvetica,sans-Serif" font-size="10.00">iostream</text>
</a>
</g>
</g>
<!-- Node9&#45;&gt;Node26 -->
<g id="edge32_Node000009_Node000026" class="edge">
<title>Node9&#45;&gt;Node26</title>
<g id="a_edge32_Node000009_Node000026"><a xlink:title=" ">
<path fill="none" stroke="#63b8ff" d="M899.81,-131.9C862.62,-122.44 813.19,-109.31 770,-96 767.75,-95.31 765.43,-94.56 763.1,-93.8"/>
<polygon fill="#63b8ff" stroke="#63b8ff" points="764.19,-90.47 753.59,-90.59 761.94,-97.11 764.19,-90.47"/>
</a>
</g>
</g>
<!-- Node9&#45;&gt;Node27 -->
<g id="edge34_Node000009_Node000027" class="edge">
<title>Node9&#45;&gt;Node27</title>
<g id="a_edge34_Node000009_Node000027"><a xlink:title=" ">
<path fill="none" stroke="#63b8ff" d="M898.4,-141.15C830.56,-134.65 715.88,-120.94 620,-96 617.56,-95.36 615.05,-94.62 612.56,-93.82"/>
<polygon fill="#63b8ff" stroke="#63b8ff" points="613.7,-90.51 603.1,-90.5 611.38,-97.11 613.7,-90.51"/>
</a>
</g>
</g>
<!-- Node15&#45;&gt;Node3 -->
<g id="edge20_Node000015_Node000003" class="edge">
<title>Node15&#45;&gt;Node3</title>
<g id="a_edge20_Node000015_Node000003"><a xlink:title=" ">
<path fill="none" stroke="#63b8ff" d="M897.37,-67.25C894.55,-66.8 891.75,-66.38 889,-66 656.83,-34.3 594.97,-63.13 363,-30 356.72,-29.1 350.14,-27.93 343.68,-26.65"/>
<polygon fill="#63b8ff" stroke="#63b8ff" points="344.21,-23.18 333.71,-24.57 342.78,-30.04 344.21,-23.18"/>
</a>
</g>
</g>
<!-- Node15&#45;&gt;Node7 -->
<g id="edge19_Node000015_Node000007" class="edge">
<title>Node15&#45;&gt;Node7</title>
<g id="a_edge19_Node000015_Node000007"><a xlink:title=" ">
<path fill="none" stroke="#63b8ff" d="M1016.77,-68.66C1021.58,-67.76 1026.37,-66.86 1031,-66 1105.47,-52.14 1191.44,-36.44 1246.69,-26.4"/>
<polygon fill="#63b8ff" stroke="#63b8ff" points="1247.43,-29.82 1256.64,-24.59 1246.17,-22.93 1247.43,-29.82"/>
</a>
</g>
</g>
<!-- Node15&#45;&gt;Node8 -->
<g id="edge29_Node000015_Node000008" class="edge">
<title>Node15&#45;&gt;Node8</title>
<g id="a_edge29_Node000015_Node000008"><a xlink:title=" ">
<path fill="none" stroke="#63b8ff" d="M897.38,-67.21C894.55,-66.76 891.75,-66.36 889,-66 600.31,-28.55 517.79,-99.08 235,-30 233.26,-29.58 231.51,-29.06 229.76,-28.47"/>
<polygon fill="#63b8ff" stroke="#63b8ff" points="230.59,-25.04 220.01,-24.58 228,-31.54 230.59,-25.04"/>
</a>
</g>
</g>
<!-- Node15&#45;&gt;Node10 -->
<g id="edge18_Node000015_Node000010" class="edge">
<title>Node15&#45;&gt;Node10</title>
<g id="a_edge18_Node000015_Node000010"><a xlink:title=" ">
<path fill="none" stroke="#63b8ff" d="M1016.68,-72C1032.09,-69.99 1048.66,-67.87 1064,-66 1205.19,-48.77 1241.6,-52.78 1382,-30 1388.15,-29 1394.59,-27.82 1400.93,-26.56"/>
<polygon fill="#63b8ff" stroke="#63b8ff" points="1401.67,-29.98 1410.77,-24.55 1400.27,-23.12 1401.67,-29.98"/>
</a>
</g>
</g>
<!-- Node16 -->
<g id="Node000016" class="node">
<title>Node16</title>
<g id="a_Node000016"><a xlink:title=" ">
<polygon fill="#e0e0e0" stroke="#999999" points="521.5,-24.5 372.5,-24.5 372.5,-5.5 521.5,-5.5 521.5,-24.5"/>
<text text-anchor="middle" x="447" y="-12.5" font-family="Helvetica,sans-Serif" font-size="10.00">deal.II/base/vectorization.h</text>
</a>
</g>
</g>
<!-- Node15&#45;&gt;Node16 -->
<g id="edge21_Node000015_Node000016" class="edge">
<title>Node15&#45;&gt;Node16</title>
<g id="a_edge21_Node000015_Node000016"><a xlink:title=" ">
<path fill="none" stroke="#63b8ff" d="M897.36,-67.36C894.54,-66.88 891.74,-66.42 889,-66 730.92,-41.84 689.51,-51.16 531,-30 522.57,-28.88 513.69,-27.55 504.99,-26.17"/>
<polygon fill="#63b8ff" stroke="#63b8ff" points="505.32,-22.68 494.89,-24.53 504.21,-29.59 505.32,-22.68"/>
</a>
</g>
</g>
<!-- Node17 -->
<g id="Node000017" class="node">
<title>Node17</title>
<g id="a_Node000017"><a xlink:title=" ">
<polygon fill="#e0e0e0" stroke="#999999" points="654,-24.5 540,-24.5 540,-5.5 654,-5.5 654,-24.5"/>
<text text-anchor="middle" x="597" y="-12.5" font-family="Helvetica,sans-Serif" font-size="10.00">deal.II/fe/mapping.h</text>
</a>
</g>
</g>
<!-- Node15&#45;&gt;Node17 -->
<g id="edge22_Node000015_Node000017" class="edge">
<title>Node15&#45;&gt;Node17</title>
<g id="a_edge22_Node000015_Node000017"><a xlink:title=" ">
<path fill="none" stroke="#63b8ff" d="M897.33,-67.56C894.51,-67.02 891.73,-66.5 889,-66 788.94,-47.74 763,-48.56 663,-30 657.32,-28.95 651.38,-27.78 645.49,-26.58"/>
<polygon fill="#63b8ff" stroke="#63b8ff" points="646.17,-23.15 635.67,-24.55 644.76,-30 646.17,-23.15"/>
</a>
</g>
</g>
<!-- Node18 -->
<g id="Node000018" class="node">
<title>Node18</title>
<g id="a_Node000018"><a xlink:title=" ">
<polygon fill="#e0e0e0" stroke="#999999" points="791.5,-30 672.5,-30 672.5,0 791.5,0 791.5,-30"/>
<text text-anchor="start" x="680.5" y="-18" font-family="Helvetica,sans-Serif" font-size="10.00">deal.II/grid/grid_tools</text>
<text text-anchor="middle" x="732" y="-7" font-family="Helvetica,sans-Serif" font-size="10.00">_geometry.h</text>
</a>
</g>
</g>
<!-- Node15&#45;&gt;Node18 -->
<g id="edge23_Node000015_Node000018" class="edge">
<title>Node15&#45;&gt;Node18</title>
<g id="a_edge23_Node000015_Node000018"><a xlink:title=" ">
<path fill="none" stroke="#63b8ff" d="M907.62,-65.95C873.33,-56.2 827.47,-43.16 791.22,-32.84"/>
<polygon fill="#63b8ff" stroke="#63b8ff" points="791.84,-29.38 781.26,-30.01 789.92,-36.11 791.84,-29.38"/>
</a>
</g>
</g>
<!-- Node19 -->
<g id="Node000019" class="node">
<title>Node19</title>
<g id="a_Node000019"><a xlink:title=" ">
<polygon fill="#e0e0e0" stroke="#999999" points="906.5,-24.5 809.5,-24.5 809.5,-5.5 906.5,-5.5 906.5,-24.5"/>
<text text-anchor="middle" x="858" y="-12.5" font-family="Helvetica,sans-Serif" font-size="10.00">deal.II/grid/tria.h</text>
</a>
</g>
</g>
<!-- Node15&#45;&gt;Node19 -->
<g id="edge24_Node000015_Node000019" class="edge">
<title>Node15&#45;&gt;Node19</title>
<g id="a_edge24_Node000015_Node000019"><a xlink:title=" ">
<path fill="none" stroke="#63b8ff" d="M935.03,-65.8C918.59,-55.17 896.21,-40.7 879.81,-30.1"/>
<polygon fill="#63b8ff" stroke="#63b8ff" points="881.69,-27.15 871.39,-24.66 877.89,-33.03 881.69,-27.15"/>
</a>
</g>
</g>
<!-- Node20 -->
<g id="Node000020" class="node">
<title>Node20</title>
<g id="a_Node000020"><a xlink:title=" ">
<polygon fill="#e0e0e0" stroke="#999999" points="989,-24.5 925,-24.5 925,-5.5 989,-5.5 989,-24.5"/>
<text text-anchor="middle" x="957" y="-12.5" font-family="Helvetica,sans-Serif" font-size="10.00">algorithm</text>
</a>
</g>
</g>
<!-- Node15&#45;&gt;Node20 -->
<g id="edge25_Node000015_Node000020" class="edge">
<title>Node15&#45;&gt;Node20</title>
<g id="a_edge25_Node000015_Node000020"><a xlink:title=" ">
<path fill="none" stroke="#63b8ff" d="M957,-65.8C957,-56.7 957,-44.79 957,-34.9"/>
<polygon fill="#63b8ff" stroke="#63b8ff" points="960.5,-34.84 957,-24.84 953.5,-34.84 960.5,-34.84"/>
</a>
</g>
</g>
<!-- Node15&#45;&gt;Node21 -->
<g id="edge26_Node000015_Node000021" class="edge">
<title>Node15&#45;&gt;Node21</title>
<g id="a_edge26_Node000015_Node000021"><a xlink:title=" ">
<path fill="none" stroke="#63b8ff" d="M897.38,-67.19C894.55,-66.75 891.75,-66.35 889,-66 572.93,-25.76 484.89,-95.17 173,-30 170.32,-29.44 167.58,-28.71 164.85,-27.89"/>
<polygon fill="#63b8ff" stroke="#63b8ff" points="165.84,-24.53 155.25,-24.58 163.56,-31.14 165.84,-24.53"/>
</a>
</g>
</g>
<!-- Node22 -->
<g id="Node000022" class="node">
<title>Node22</title>
<g id="a_Node000022"><a xlink:title=" ">
<polygon fill="#e0e0e0" stroke="#999999" points="1038.5,-24.5 1007.5,-24.5 1007.5,-5.5 1038.5,-5.5 1038.5,-24.5"/>
<text text-anchor="middle" x="1023" y="-12.5" font-family="Helvetica,sans-Serif" font-size="10.00">ios</text>
</a>
</g>
</g>
<!-- Node15&#45;&gt;Node22 -->
<g id="edge27_Node000015_Node000022" class="edge">
<title>Node15&#45;&gt;Node22</title>
<g id="a_edge27_Node000015_Node000022"><a xlink:title=" ">
<path fill="none" stroke="#63b8ff" d="M971.65,-65.8C981.94,-55.82 995.72,-42.46 1006.41,-32.09"/>
<polygon fill="#63b8ff" stroke="#63b8ff" points="1009.14,-34.32 1013.88,-24.84 1004.26,-29.29 1009.14,-34.32"/>
</a>
</g>
</g>
<!-- Node23 -->
<g id="Node000023" class="node">
<title>Node23</title>
<g id="a_Node000023"><a xlink:title=" ">
<polygon fill="#e0e0e0" stroke="#999999" points="1113,-24.5 1057,-24.5 1057,-5.5 1113,-5.5 1113,-24.5"/>
<text text-anchor="middle" x="1085" y="-12.5" font-family="Helvetica,sans-Serif" font-size="10.00">sstream</text>
</a>
</g>
</g>
<!-- Node15&#45;&gt;Node23 -->
<g id="edge28_Node000015_Node000023" class="edge">
<title>Node15&#45;&gt;Node23</title>
<g id="a_edge28_Node000015_Node000023"><a xlink:title=" ">
<path fill="none" stroke="#63b8ff" d="M985.09,-65.95C1007.04,-54.98 1037.33,-39.83 1058.79,-29.11"/>
<polygon fill="#63b8ff" stroke="#63b8ff" points="1060.59,-32.12 1067.97,-24.52 1057.46,-25.86 1060.59,-32.12"/>
</a>
</g>
</g>
<!-- Node24 -->
<g id="Node000024" class="node">
<title>Node24</title>
<g id="a_Node000024"><a xlink:title=" ">
<polygon fill="#e0e0e0" stroke="#999999" points="1217,-24.5 1131,-24.5 1131,-5.5 1217,-5.5 1217,-24.5"/>
<text text-anchor="middle" x="1174" y="-12.5" font-family="Helvetica,sans-Serif" font-size="10.00">unordered_set</text>
</a>
</g>
</g>
<!-- Node15&#45;&gt;Node24 -->
<g id="edge30_Node000015_Node000024" class="edge">
<title>Node15&#45;&gt;Node24</title>
<g id="a_edge30_Node000015_Node000024"><a xlink:title=" ">
<path fill="none" stroke="#63b8ff" d="M1004.62,-65.95C1043.85,-54.38 1098.78,-38.18 1135.33,-27.41"/>
<polygon fill="#63b8ff" stroke="#63b8ff" points="1136.52,-30.7 1145.12,-24.52 1134.54,-23.99 1136.52,-30.7"/>
</a>
</g>
</g>
<!-- Node15&#45;&gt;Node25 -->
<g id="edge31_Node000015_Node000025" class="edge">
<title>Node15&#45;&gt;Node25</title>
<g id="a_edge31_Node000015_Node000025"><a xlink:title=" ">
<path fill="none" stroke="#63b8ff" d="M1016.64,-71.66C1032.05,-69.65 1048.63,-67.62 1064,-66 1263.53,-44.98 1314.25,-48.83 1514,-30 1546.33,-26.95 1583.15,-22.9 1609.15,-19.94"/>
<polygon fill="#63b8ff" stroke="#63b8ff" points="1609.71,-23.4 1619.24,-18.78 1608.91,-16.44 1609.71,-23.4"/>
</a>
</g>
</g>
<!-- Node28&#45;&gt;Node9 -->
<g id="edge48_Node000028_Node000009" class="edge">
<title>Node28&#45;&gt;Node9</title>
<g id="a_edge48_Node000028_Node000009"><a xlink:title=" ">
<path fill="none" stroke="#63b8ff" d="M1615.28,-206.43C1480.74,-194.49 1165.37,-166.5 1025.68,-154.1"/>
<polygon fill="#63b8ff" stroke="#63b8ff" points="1025.8,-150.59 1015.53,-153.2 1025.18,-157.57 1025.8,-150.59"/>
</a>
</g>
</g>
<!-- Node28&#45;&gt;Node14 -->
<g id="edge37_Node000028_Node000014" class="edge">
<title>Node28&#45;&gt;Node14</title>
<g id="a_edge37_Node000028_Node000014"><a xlink:title=" ">
<path fill="none" stroke="#63b8ff" d="M1653.41,-197.9C1638.7,-188.78 1620.18,-176.01 1606,-162 1588.6,-144.81 1572.8,-121.77 1562.28,-104.83"/>
<polygon fill="#63b8ff" stroke="#63b8ff" points="1565.17,-102.85 1556.99,-96.12 1559.19,-106.49 1565.17,-102.85"/>
</a>
</g>
</g>
<!-- Node29 -->
<g id="Node000029" class="node">
<title>Node29</title>
<g id="a_Node000029"><a xlink:title=" ">
<polygon fill="#e0e0e0" stroke="#999999" points="1751,-162 1615,-162 1615,-132 1751,-132 1751,-162"/>
<text text-anchor="start" x="1623" y="-150" font-family="Helvetica,sans-Serif" font-size="10.00">deal.II/particles/property</text>
<text text-anchor="middle" x="1683" y="-139" font-family="Helvetica,sans-Serif" font-size="10.00">_pool.h</text>
</a>
</g>
</g>
<!-- Node28&#45;&gt;Node29 -->
<g id="edge38_Node000028_Node000029" class="edge">
<title>Node28&#45;&gt;Node29</title>
<g id="a_edge38_Node000028_Node000029"><a xlink:title=" ">
<path fill="none" stroke="#63b8ff" d="M1679.11,-197.8C1679.69,-190.34 1680.42,-180.99 1681.09,-172.41"/>
<polygon fill="#63b8ff" stroke="#63b8ff" points="1684.6,-172.41 1681.89,-162.16 1677.63,-171.86 1684.6,-172.41"/>
</a>
</g>
</g>
<!-- Node30 -->
<g id="Node000030" class="node">
<title>Node30</title>
<g id="a_Node000030"><a xlink:href="dem__util_8hpp.html" target="_top" xlink:title=" ">
<polygon fill="white" stroke="#666666" points="1886.5,-162 1769.5,-162 1769.5,-132 1886.5,-132 1886.5,-162"/>
<text text-anchor="start" x="1777.5" y="-150" font-family="Helvetica,sans-Serif" font-size="10.00">meltpooldg/particles</text>
<text text-anchor="middle" x="1828" y="-139" font-family="Helvetica,sans-Serif" font-size="10.00">/dem_util.hpp</text>
</a>
</g>
</g>
<!-- Node28&#45;&gt;Node30 -->
<g id="edge39_Node000028_Node000030" class="edge">
<title>Node28&#45;&gt;Node30</title>
<g id="a_edge39_Node000028_Node000030"><a xlink:title=" ">
<path fill="none" stroke="#63b8ff" d="M1710.92,-197.95C1732.9,-188.58 1762.01,-176.16 1785.71,-166.05"/>
<polygon fill="#63b8ff" stroke="#63b8ff" points="1787.33,-169.16 1795.16,-162.01 1784.59,-162.72 1787.33,-169.16"/>
</a>
</g>
</g>
<!-- Node33 -->
<g id="Node000033" class="node">
<title>Node33</title>
<g id="a_Node000033"><a xlink:title=" ">
<polygon fill="#e0e0e0" stroke="#999999" points="2075.5,-24.5 2010.5,-24.5 2010.5,-5.5 2075.5,-5.5 2075.5,-24.5"/>
<text text-anchor="middle" x="2043" y="-12.5" font-family="Helvetica,sans-Serif" font-size="10.00">functional</text>
</a>
</g>
</g>
<!-- Node28&#45;&gt;Node33 -->
<g id="edge49_Node000028_Node000033" class="edge">
<title>Node28&#45;&gt;Node33</title>
<g id="a_edge49_Node000028_Node000033"><a xlink:title=" ">
<path fill="none" stroke="#63b8ff" d="M1740.73,-199.01C1794.5,-187.62 1867.63,-171.44 1896,-162 1964.72,-139.13 2005.5,-156.71 2045,-96 2056.87,-77.76 2053.46,-51.88 2049.03,-34.54"/>
<polygon fill="#63b8ff" stroke="#63b8ff" points="2052.28,-33.17 2046.12,-24.55 2045.56,-35.13 2052.28,-33.17"/>
</a>
</g>
</g>
<!-- Node30&#45;&gt;Node25 -->
<g id="edge47_Node000030_Node000025" class="edge">
<title>Node30&#45;&gt;Node25</title>
<g id="a_edge47_Node000030_Node000025"><a xlink:title=" ">
<path fill="none" stroke="#63b8ff" d="M1772.07,-131.93C1748.21,-124.05 1721.08,-112.43 1700,-96 1678.31,-79.1 1661.33,-51.75 1651.73,-33.82"/>
<polygon fill="#63b8ff" stroke="#63b8ff" points="1654.74,-32.02 1647.06,-24.73 1648.52,-35.22 1654.74,-32.02"/>
</a>
</g>
</g>
<!-- Node31 -->
<g id="Node000031" class="node">
<title>Node31</title>
<g id="a_Node000031"><a xlink:title=" ">
<polygon fill="#e0e0e0" stroke="#999999" points="2014.5,-96 1883.5,-96 1883.5,-66 2014.5,-66 2014.5,-96"/>
<text text-anchor="start" x="1891.5" y="-84" font-family="Helvetica,sans-Serif" font-size="10.00">deal.II/particles/particle</text>
<text text-anchor="middle" x="1949" y="-73" font-family="Helvetica,sans-Serif" font-size="10.00">_handler.h</text>
</a>
</g>
</g>
<!-- Node30&#45;&gt;Node31 -->
<g id="edge40_Node000030_Node000031" class="edge">
<title>Node30&#45;&gt;Node31</title>
<g id="a_edge40_Node000030_Node000031"><a xlink:title=" ">
<path fill="none" stroke="#63b8ff" d="M1854.55,-131.95C1871.89,-122.78 1894.73,-110.71 1913.6,-100.72"/>
<polygon fill="#63b8ff" stroke="#63b8ff" points="1915.3,-103.78 1922.51,-96.01 1912.03,-97.59 1915.3,-103.78"/>
</a>
</g>
</g>
<!-- Node32 -->
<g id="Node000032" class="node">
<title>Node32</title>
<g id="a_Node000032"><a xlink:href="solution__history_8hpp.html" target="_top" xlink:title=" ">
<polygon fill="white" stroke="#666666" points="1865,-96 1709,-96 1709,-66 1865,-66 1865,-96"/>
<text text-anchor="start" x="1717" y="-84" font-family="Helvetica,sans-Serif" font-size="10.00">meltpooldg/time_integration</text>
<text text-anchor="middle" x="1787" y="-73" font-family="Helvetica,sans-Serif" font-size="10.00">/solution_history.hpp</text>
</a>
</g>
</g>
<!-- Node30&#45;&gt;Node32 -->
<g id="edge41_Node000030_Node000032" class="edge">
<title>Node30&#45;&gt;Node32</title>
<g id="a_edge41_Node000030_Node000032"><a xlink:title=" ">
<path fill="none" stroke="#63b8ff" d="M1818.9,-131.8C1813.8,-123.84 1807.33,-113.74 1801.55,-104.71"/>
<polygon fill="#63b8ff" stroke="#63b8ff" points="1804.42,-102.7 1796.07,-96.16 1798.52,-106.47 1804.42,-102.7"/>
</a>
</g>
</g>
<!-- Node30&#45;&gt;Node33 -->
<g id="edge46_Node000030_Node000033" class="edge">
<title>Node30&#45;&gt;Node33</title>
<g id="a_edge46_Node000030_Node000033"><a xlink:title=" ">
<path fill="none" stroke="#63b8ff" d="M1886.54,-137.85C1937.09,-129.64 2004.92,-115.4 2024,-96 2039.84,-79.89 2043.36,-53.13 2043.73,-35.04"/>
<polygon fill="#63b8ff" stroke="#63b8ff" points="2047.23,-34.8 2043.63,-24.84 2040.23,-34.87 2047.23,-34.8"/>
</a>
</g>
</g>
<!-- Node32&#45;&gt;Node7 -->
<g id="edge42_Node000032_Node000007" class="edge">
<title>Node32&#45;&gt;Node7</title>
<g id="a_edge42_Node000032_Node000007"><a xlink:title=" ">
<path fill="none" stroke="#63b8ff" d="M1708.81,-71.63C1627.11,-62.59 1495.3,-47.15 1382,-30 1374.62,-28.88 1366.87,-27.61 1359.23,-26.3"/>
<polygon fill="#63b8ff" stroke="#63b8ff" points="1359.75,-22.84 1349.3,-24.56 1358.55,-29.73 1359.75,-22.84"/>
</a>
</g>
</g>
<!-- Node32&#45;&gt;Node25 -->
<g id="edge45_Node000032_Node000025" class="edge">
<title>Node32&#45;&gt;Node25</title>
<g id="a_edge45_Node000032_Node000025"><a xlink:title=" ">
<path fill="none" stroke="#63b8ff" d="M1755.4,-65.95C1730.37,-54.83 1695.7,-39.42 1671.51,-28.67"/>
<polygon fill="#63b8ff" stroke="#63b8ff" points="1672.72,-25.38 1662.16,-24.52 1669.88,-31.78 1672.72,-25.38"/>
</a>
</g>
</g>
<!-- Node32&#45;&gt;Node33 -->
<g id="edge43_Node000032_Node000033" class="edge">
<title>Node32&#45;&gt;Node33</title>
<g id="a_edge43_Node000032_Node000033"><a xlink:title=" ">
<path fill="none" stroke="#63b8ff" d="M1843.18,-65.95C1890.6,-54.1 1957.46,-37.39 2000.52,-26.62"/>
<polygon fill="#63b8ff" stroke="#63b8ff" points="2001.54,-29.97 2010.39,-24.15 1999.84,-23.18 2001.54,-29.97"/>
</a>
</g>
</g>
<!-- Node34 -->
<g id="Node000034" class="node">
<title>Node34</title>
<g id="a_Node000034"><a xlink:title=" ">
<polygon fill="#e0e0e0" stroke="#999999" points="1816,-24.5 1758,-24.5 1758,-5.5 1816,-5.5 1816,-24.5"/>
<text text-anchor="middle" x="1787" y="-12.5" font-family="Helvetica,sans-Serif" font-size="10.00">memory</text>
</a>
</g>
</g>
<!-- Node32&#45;&gt;Node34 -->
<g id="edge44_Node000032_Node000034" class="edge">
<title>Node32&#45;&gt;Node34</title>
<g id="a_edge44_Node000032_Node000034"><a xlink:title=" ">
<path fill="none" stroke="#63b8ff" d="M1787,-65.8C1787,-56.7 1787,-44.79 1787,-34.9"/>
<polygon fill="#63b8ff" stroke="#63b8ff" points="1790.5,-34.84 1787,-24.84 1783.5,-34.84 1790.5,-34.84"/>
</a>
</g>
</g>
</g>
</svg>
