<?xml version="1.0" encoding="UTF-8" standalone="no"?>
<!DOCTYPE svg PUBLIC "-//W3C//DTD SVG 1.1//EN"
 "http://www.w3.org/Graphics/SVG/1.1/DTD/svg11.dtd">
<!-- Generated by graphviz version 2.43.0 (0)
 -->
<!-- Title: include/meltpooldg/compressible_flow/phase_coupling_data.hpp Pages: 1 -->
<svg width="1449pt" height="500pt"
 viewBox="0.00 0.00 1449.37 500.00" xmlns="http://www.w3.org/2000/svg" xmlns:xlink="http://www.w3.org/1999/xlink">
<g id="graph0" class="graph" transform="scale(1 1) rotate(0) translate(4 496)">
<title>include/meltpooldg/compressible_flow/phase_coupling_data.hpp</title>
<!-- Node1 -->
<g id="Node000001" class="node">
<title>Node1</title>
<g id="a_Node000001"><a xlink:title=" ">
<polygon fill="#999999" stroke="#666666" points="713.87,-492 570.87,-492 570.87,-451 713.87,-451 713.87,-492"/>
<text text-anchor="start" x="578.87" y="-480" font-family="Helvetica,sans-Serif" font-size="10.00">include/meltpooldg</text>
<text text-anchor="start" x="578.87" y="-469" font-family="Helvetica,sans-Serif" font-size="10.00">/compressible_flow/phase</text>
<text text-anchor="middle" x="642.37" y="-458" font-family="Helvetica,sans-Serif" font-size="10.00">_coupling_data.hpp</text>
</a>
</g>
</g>
<!-- Node2 -->
<g id="Node000002" class="node">
<title>Node2</title>
<g id="a_Node000002"><a xlink:href="convective__kernels_8hpp.html" target="_top" xlink:title=" ">
<polygon fill="white" stroke="#666666" points="614.87,-338 447.87,-338 447.87,-297 614.87,-297 614.87,-338"/>
<text text-anchor="start" x="455.87" y="-326" font-family="Helvetica,sans-Serif" font-size="10.00">include/meltpooldg</text>
<text text-anchor="start" x="455.87" y="-315" font-family="Helvetica,sans-Serif" font-size="10.00">/compressible_flow/convective</text>
<text text-anchor="middle" x="531.37" y="-304" font-family="Helvetica,sans-Serif" font-size="10.00">_kernels.hpp</text>
</a>
</g>
</g>
<!-- Node1&#45;&gt;Node2 -->
<g id="edge1_Node000001_Node000002" class="edge">
<title>Node1&#45;&gt;Node2</title>
<g id="a_edge1_Node000001_Node000002"><a xlink:title=" ">
<path fill="none" stroke="#63b8ff" d="M587.32,-445.55C574.54,-437.44 562.12,-427.29 553.37,-415 537.03,-392.04 532.6,-358.9 531.52,-338.04"/>
<polygon fill="#63b8ff" stroke="#63b8ff" points="585.81,-448.72 596.19,-450.84 589.4,-442.71 585.81,-448.72"/>
</a>
</g>
</g>
<!-- Node18 -->
<g id="Node000018" class="node">
<title>Node18</title>
<g id="a_Node000018"><a xlink:href="multiphase__operation_8cpp.html" target="_top" xlink:title=" ">
<polygon fill="white" stroke="#666666" points="1424.37,-101.5 1252.37,-101.5 1252.37,-71.5 1424.37,-71.5 1424.37,-101.5"/>
<text text-anchor="start" x="1260.37" y="-89.5" font-family="Helvetica,sans-Serif" font-size="10.00">source/compressible</text>
<text text-anchor="middle" x="1338.37" y="-78.5" font-family="Helvetica,sans-Serif" font-size="10.00">_flow/multiphase_operation.cpp</text>
</a>
</g>
</g>
<!-- Node1&#45;&gt;Node18 -->
<g id="edge43_Node000001_Node000018" class="edge">
<title>Node1&#45;&gt;Node18</title>
<g id="a_edge43_Node000001_Node000018"><a xlink:title=" ">
<path fill="none" stroke="#63b8ff" d="M724.02,-463.5C927.59,-444.95 1441.37,-390.97 1441.37,-318.5 1441.37,-318.5 1441.37,-318.5 1441.37,-239.5 1441.37,-192.9 1427.49,-180.89 1400.37,-143 1388.77,-126.79 1371.66,-111.93 1358.35,-101.67"/>
<polygon fill="#63b8ff" stroke="#63b8ff" points="723.63,-460.02 713.98,-464.41 724.26,-466.99 723.63,-460.02"/>
</a>
</g>
</g>
<!-- Node19 -->
<g id="Node000019" class="node">
<title>Node19</title>
<g id="a_Node000019"><a xlink:href="operation__scratch__data_8hpp.html" target="_top" xlink:title=" ">
<polygon fill="white" stroke="#666666" points="722.37,-415 562.37,-415 562.37,-374 722.37,-374 722.37,-415"/>
<text text-anchor="start" x="570.37" y="-403" font-family="Helvetica,sans-Serif" font-size="10.00">include/meltpooldg</text>
<text text-anchor="start" x="570.37" y="-392" font-family="Helvetica,sans-Serif" font-size="10.00">/compressible_flow/operation</text>
<text text-anchor="middle" x="642.37" y="-381" font-family="Helvetica,sans-Serif" font-size="10.00">_scratch_data.hpp</text>
</a>
</g>
</g>
<!-- Node1&#45;&gt;Node19 -->
<g id="edge26_Node000001_Node000019" class="edge">
<title>Node1&#45;&gt;Node19</title>
<g id="a_edge26_Node000001_Node000019"><a xlink:title=" ">
<path fill="none" stroke="#63b8ff" d="M642.37,-440.69C642.37,-432.08 642.37,-422.9 642.37,-415.07"/>
<polygon fill="#63b8ff" stroke="#63b8ff" points="638.87,-440.79 642.37,-450.79 645.87,-440.79 638.87,-440.79"/>
</a>
</g>
</g>
<!-- Node3 -->
<g id="Node000003" class="node">
<title>Node3</title>
<g id="a_Node000003"><a xlink:href="dg__operator__explicit_8hpp.html" target="_top" xlink:title=" ">
<polygon fill="white" stroke="#666666" points="651.87,-261 526.87,-261 526.87,-220 651.87,-220 651.87,-261"/>
<text text-anchor="start" x="534.87" y="-249" font-family="Helvetica,sans-Serif" font-size="10.00">include/meltpooldg</text>
<text text-anchor="start" x="534.87" y="-238" font-family="Helvetica,sans-Serif" font-size="10.00">/compressible_flow/dg</text>
<text text-anchor="middle" x="589.37" y="-227" font-family="Helvetica,sans-Serif" font-size="10.00">_operator_explicit.hpp</text>
</a>
</g>
</g>
<!-- Node2&#45;&gt;Node3 -->
<g id="edge2_Node000002_Node000003" class="edge">
<title>Node2&#45;&gt;Node3</title>
<g id="a_edge2_Node000002_Node000003"><a xlink:title=" ">
<path fill="none" stroke="#63b8ff" d="M552.89,-288.67C559.99,-279.5 567.72,-269.5 574.24,-261.07"/>
<polygon fill="#63b8ff" stroke="#63b8ff" points="549.96,-286.74 546.61,-296.79 555.5,-291.03 549.96,-286.74"/>
</a>
</g>
</g>
<!-- Node6 -->
<g id="Node000006" class="node">
<title>Node6</title>
<g id="a_Node000006"><a xlink:href="dg__operator__implicit_8hpp.html" target="_top" xlink:title=" ">
<polygon fill="white" stroke="#666666" points="508.37,-261 382.37,-261 382.37,-220 508.37,-220 508.37,-261"/>
<text text-anchor="start" x="390.37" y="-249" font-family="Helvetica,sans-Serif" font-size="10.00">include/meltpooldg</text>
<text text-anchor="start" x="390.37" y="-238" font-family="Helvetica,sans-Serif" font-size="10.00">/compressible_flow/dg</text>
<text text-anchor="middle" x="445.37" y="-227" font-family="Helvetica,sans-Serif" font-size="10.00">_operator_implicit.hpp</text>
</a>
</g>
</g>
<!-- Node2&#45;&gt;Node6 -->
<g id="edge5_Node000002_Node000006" class="edge">
<title>Node2&#45;&gt;Node6</title>
<g id="a_edge5_Node000002_Node000006"><a xlink:title=" ">
<path fill="none" stroke="#63b8ff" d="M501.07,-290.07C490.12,-280.52 477.97,-269.93 467.82,-261.07"/>
<polygon fill="#63b8ff" stroke="#63b8ff" points="498.94,-292.86 508.78,-296.79 503.54,-287.58 498.94,-292.86"/>
</a>
</g>
</g>
<!-- Node8 -->
<g id="Node000008" class="node">
<title>Node8</title>
<g id="a_Node000008"><a xlink:href="dg__operator__implicit__explicit_8hpp.html" target="_top" xlink:title=" ">
<polygon fill="white" stroke="#666666" points="326.87,-261 159.87,-261 159.87,-220 326.87,-220 326.87,-261"/>
<text text-anchor="start" x="167.87" y="-249" font-family="Helvetica,sans-Serif" font-size="10.00">include/meltpooldg</text>
<text text-anchor="start" x="167.87" y="-238" font-family="Helvetica,sans-Serif" font-size="10.00">/compressible_flow/dg</text>
<text text-anchor="middle" x="243.37" y="-227" font-family="Helvetica,sans-Serif" font-size="10.00">_operator_implicit_explicit.hpp</text>
</a>
</g>
</g>
<!-- Node2&#45;&gt;Node8 -->
<g id="edge8_Node000002_Node000008" class="edge">
<title>Node2&#45;&gt;Node8</title>
<g id="a_edge8_Node000002_Node000008"><a xlink:title=" ">
<path fill="none" stroke="#63b8ff" d="M446.57,-294.42C405.94,-283.84 357.7,-271.27 318.41,-261.04"/>
<polygon fill="#63b8ff" stroke="#63b8ff" points="445.9,-297.86 456.46,-296.99 447.66,-291.08 445.9,-297.86"/>
</a>
</g>
</g>
<!-- Node10 -->
<g id="Node000010" class="node">
<title>Node10</title>
<g id="a_Node000010"><a xlink:href="explicit__time__integration__utils_8hpp.html" target="_top" xlink:title=" ">
<polygon fill="white" stroke="#666666" points="858.37,-261 708.37,-261 708.37,-220 858.37,-220 858.37,-261"/>
<text text-anchor="start" x="716.37" y="-249" font-family="Helvetica,sans-Serif" font-size="10.00">include/meltpooldg</text>
<text text-anchor="start" x="716.37" y="-238" font-family="Helvetica,sans-Serif" font-size="10.00">/compressible_flow/explicit</text>
<text text-anchor="middle" x="783.37" y="-227" font-family="Helvetica,sans-Serif" font-size="10.00">_time_integration_utils.hpp</text>
</a>
</g>
</g>
<!-- Node2&#45;&gt;Node10 -->
<g id="edge11_Node000002_Node000010" class="edge">
<title>Node2&#45;&gt;Node10</title>
<g id="a_edge11_Node000002_Node000010"><a xlink:title=" ">
<path fill="none" stroke="#63b8ff" d="M606.7,-294.08C642.02,-283.57 683.7,-271.16 717.71,-261.04"/>
<polygon fill="#63b8ff" stroke="#63b8ff" points="605.51,-290.78 596.92,-296.99 607.51,-297.49 605.51,-290.78"/>
</a>
</g>
</g>
<!-- Node16 -->
<g id="Node000016" class="node">
<title>Node16</title>
<g id="a_Node000016"><a xlink:href="multiphase__operator_8hpp.html" target="_top" xlink:title=" ">
<polygon fill="white" stroke="#666666" points="1158.37,-261 990.37,-261 990.37,-220 1158.37,-220 1158.37,-261"/>
<text text-anchor="start" x="998.37" y="-249" font-family="Helvetica,sans-Serif" font-size="10.00">include/meltpooldg</text>
<text text-anchor="start" x="998.37" y="-238" font-family="Helvetica,sans-Serif" font-size="10.00">/compressible_flow/multiphase</text>
<text text-anchor="middle" x="1074.37" y="-227" font-family="Helvetica,sans-Serif" font-size="10.00">_operator.hpp</text>
</a>
</g>
</g>
<!-- Node2&#45;&gt;Node16 -->
<g id="edge20_Node000002_Node000016" class="edge">
<title>Node2&#45;&gt;Node16</title>
<g id="a_edge20_Node000002_Node000016"><a xlink:title=" ">
<path fill="none" stroke="#63b8ff" d="M625.09,-303.56C727.88,-289.36 891.33,-266.78 990.18,-253.13"/>
<polygon fill="#63b8ff" stroke="#63b8ff" points="624.45,-300.11 615.03,-304.95 625.41,-307.04 624.45,-300.11"/>
</a>
</g>
</g>
<!-- Node4 -->
<g id="Node000004" class="node">
<title>Node4</title>
<g id="a_Node000004"><a xlink:href="dg__operation_8cpp.html" target="_top" xlink:title=" ">
<polygon fill="white" stroke="#666666" points="220.87,-178.5 91.87,-178.5 91.87,-148.5 220.87,-148.5 220.87,-178.5"/>
<text text-anchor="start" x="99.87" y="-166.5" font-family="Helvetica,sans-Serif" font-size="10.00">source/compressible</text>
<text text-anchor="middle" x="156.37" y="-155.5" font-family="Helvetica,sans-Serif" font-size="10.00">_flow/dg_operation.cpp</text>
</a>
</g>
</g>
<!-- Node3&#45;&gt;Node4 -->
<g id="edge3_Node000003_Node000004" class="edge">
<title>Node3&#45;&gt;Node4</title>
<g id="a_edge3_Node000003_Node000004"><a xlink:title=" ">
<path fill="none" stroke="#63b8ff" d="M516.54,-220C389.43,-195.79 353.38,-207.81 230.37,-184 222.42,-182.46 214.05,-180.55 205.92,-178.53"/>
<polygon fill="#63b8ff" stroke="#63b8ff" points="516.18,-223.49 526.67,-221.96 517.52,-216.62 516.18,-223.49"/>
</a>
</g>
</g>
<!-- Node5 -->
<g id="Node000005" class="node">
<title>Node5</title>
<g id="a_Node000005"><a xlink:href="dg__operator__explicit_8cpp.html" target="_top" xlink:title=" ">
<polygon fill="white" stroke="#666666" points="752.87,-178.5 587.87,-178.5 587.87,-148.5 752.87,-148.5 752.87,-178.5"/>
<text text-anchor="start" x="595.87" y="-166.5" font-family="Helvetica,sans-Serif" font-size="10.00">source/compressible</text>
<text text-anchor="middle" x="670.37" y="-155.5" font-family="Helvetica,sans-Serif" font-size="10.00">_flow/dg_operator_explicit.cpp</text>
</a>
</g>
</g>
<!-- Node3&#45;&gt;Node5 -->
<g id="edge4_Node000003_Node000005" class="edge">
<title>Node3&#45;&gt;Node5</title>
<g id="a_edge4_Node000003_Node000005"><a xlink:title=" ">
<path fill="none" stroke="#63b8ff" d="M618.16,-212.84C630.63,-201.3 644.72,-188.25 655.12,-178.63"/>
<polygon fill="#63b8ff" stroke="#63b8ff" points="615.61,-210.43 610.65,-219.79 620.37,-215.57 615.61,-210.43"/>
</a>
</g>
</g>
<!-- Node6&#45;&gt;Node4 -->
<g id="edge6_Node000006_Node000004" class="edge">
<title>Node6&#45;&gt;Node4</title>
<g id="a_edge6_Node000006_Node000004"><a xlink:title=" ">
<path fill="none" stroke="#63b8ff" d="M372.54,-220.79C330.89,-210.08 277.68,-196.34 230.37,-184 223.69,-182.26 216.67,-180.42 209.72,-178.59"/>
<polygon fill="#63b8ff" stroke="#63b8ff" points="371.76,-224.21 382.32,-223.31 373.51,-217.43 371.76,-224.21"/>
</a>
</g>
</g>
<!-- Node7 -->
<g id="Node000007" class="node">
<title>Node7</title>
<g id="a_Node000007"><a xlink:href="dg__operator__implicit_8cpp.html" target="_top" xlink:title=" ">
<polygon fill="white" stroke="#666666" points="569.37,-178.5 403.37,-178.5 403.37,-148.5 569.37,-148.5 569.37,-178.5"/>
<text text-anchor="start" x="411.37" y="-166.5" font-family="Helvetica,sans-Serif" font-size="10.00">source/compressible</text>
<text text-anchor="middle" x="486.37" y="-155.5" font-family="Helvetica,sans-Serif" font-size="10.00">_flow/dg_operator_implicit.cpp</text>
</a>
</g>
</g>
<!-- Node6&#45;&gt;Node7 -->
<g id="edge7_Node000006_Node000007" class="edge">
<title>Node6&#45;&gt;Node7</title>
<g id="a_edge7_Node000006_Node000007"><a xlink:title=" ">
<path fill="none" stroke="#63b8ff" d="M460.99,-210.93C466.98,-199.97 473.56,-187.93 478.52,-178.86"/>
<polygon fill="#63b8ff" stroke="#63b8ff" points="457.87,-209.34 456.14,-219.79 464.01,-212.7 457.87,-209.34"/>
</a>
</g>
</g>
<!-- Node8&#45;&gt;Node4 -->
<g id="edge9_Node000008_Node000004" class="edge">
<title>Node8&#45;&gt;Node4</title>
<g id="a_edge9_Node000008_Node000004"><a xlink:title=" ">
<path fill="none" stroke="#63b8ff" d="M212.83,-213.17C199.35,-201.55 184.03,-188.34 172.76,-178.63"/>
<polygon fill="#63b8ff" stroke="#63b8ff" points="210.65,-215.92 220.51,-219.79 215.23,-210.61 210.65,-215.92"/>
</a>
</g>
</g>
<!-- Node9 -->
<g id="Node000009" class="node">
<title>Node9</title>
<g id="a_Node000009"><a xlink:href="dg__operator__implicit__explicit_8cpp.html" target="_top" xlink:title=" ">
<polygon fill="white" stroke="#666666" points="385.37,-184 239.37,-184 239.37,-143 385.37,-143 385.37,-184"/>
<text text-anchor="start" x="247.37" y="-172" font-family="Helvetica,sans-Serif" font-size="10.00">source/compressible</text>
<text text-anchor="start" x="247.37" y="-161" font-family="Helvetica,sans-Serif" font-size="10.00">_flow/dg_operator_implicit</text>
<text text-anchor="middle" x="312.37" y="-150" font-family="Helvetica,sans-Serif" font-size="10.00">_explicit.cpp</text>
</a>
</g>
</g>
<!-- Node8&#45;&gt;Node9 -->
<g id="edge10_Node000008_Node000009" class="edge">
<title>Node8&#45;&gt;Node9</title>
<g id="a_edge10_Node000008_Node000009"><a xlink:title=" ">
<path fill="none" stroke="#63b8ff" d="M268.46,-212.23C277.04,-202.91 286.46,-192.67 294.36,-184.07"/>
<polygon fill="#63b8ff" stroke="#63b8ff" points="265.7,-210.07 261.5,-219.79 270.85,-214.81 265.7,-210.07"/>
</a>
</g>
</g>
<!-- Node10&#45;&gt;Node5 -->
<g id="edge17_Node000010_Node000005" class="edge">
<title>Node10&#45;&gt;Node5</title>
<g id="a_edge17_Node000010_Node000005"><a xlink:title=" ">
<path fill="none" stroke="#63b8ff" d="M745.46,-214.34C727.57,-202.47 706.89,-188.74 691.77,-178.7"/>
<polygon fill="#63b8ff" stroke="#63b8ff" points="743.71,-217.38 753.98,-219.99 747.58,-211.54 743.71,-217.38"/>
</a>
</g>
</g>
<!-- Node10&#45;&gt;Node7 -->
<g id="edge18_Node000010_Node000007" class="edge">
<title>Node10&#45;&gt;Node7</title>
<g id="a_edge18_Node000010_Node000007"><a xlink:title=" ">
<path fill="none" stroke="#63b8ff" d="M698.17,-217.98C647.96,-205.3 585.87,-189.62 541.93,-178.53"/>
<polygon fill="#63b8ff" stroke="#63b8ff" points="697.49,-221.42 708.04,-220.48 699.2,-214.64 697.49,-221.42"/>
</a>
</g>
</g>
<!-- Node11 -->
<g id="Node000011" class="node">
<title>Node11</title>
<g id="a_Node000011"><a xlink:href="cutdg__operator_8hpp.html" target="_top" xlink:title=" ">
<polygon fill="white" stroke="#666666" points="911.37,-184 771.37,-184 771.37,-143 911.37,-143 911.37,-184"/>
<text text-anchor="start" x="779.37" y="-172" font-family="Helvetica,sans-Serif" font-size="10.00">include/meltpooldg</text>
<text text-anchor="start" x="779.37" y="-161" font-family="Helvetica,sans-Serif" font-size="10.00">/compressible_flow/cutdg</text>
<text text-anchor="middle" x="841.37" y="-150" font-family="Helvetica,sans-Serif" font-size="10.00">_operator.hpp</text>
</a>
</g>
</g>
<!-- Node10&#45;&gt;Node11 -->
<g id="edge12_Node000010_Node000011" class="edge">
<title>Node10&#45;&gt;Node11</title>
<g id="a_edge12_Node000010_Node000011"><a xlink:title=" ">
<path fill="none" stroke="#63b8ff" d="M804.89,-211.67C811.99,-202.5 819.72,-192.5 826.24,-184.07"/>
<polygon fill="#63b8ff" stroke="#63b8ff" points="801.96,-209.74 798.61,-219.79 807.5,-214.03 801.96,-209.74"/>
</a>
</g>
</g>
<!-- Node15 -->
<g id="Node000015" class="node">
<title>Node15</title>
<g id="a_Node000015"><a xlink:href="multiphase__operator_8cpp.html" target="_top" xlink:title=" ">
<polygon fill="white" stroke="#666666" points="1095.37,-178.5 929.37,-178.5 929.37,-148.5 1095.37,-148.5 1095.37,-178.5"/>
<text text-anchor="start" x="937.37" y="-166.5" font-family="Helvetica,sans-Serif" font-size="10.00">source/compressible</text>
<text text-anchor="middle" x="1012.37" y="-155.5" font-family="Helvetica,sans-Serif" font-size="10.00">_flow/multiphase_operator.cpp</text>
</a>
</g>
</g>
<!-- Node10&#45;&gt;Node15 -->
<g id="edge19_Node000010_Node000015" class="edge">
<title>Node10&#45;&gt;Node15</title>
<g id="a_edge19_Node000010_Node000015"><a xlink:title=" ">
<path fill="none" stroke="#63b8ff" d="M852.91,-216.73C890.85,-204.3 936.62,-189.31 969.37,-178.58"/>
<polygon fill="#63b8ff" stroke="#63b8ff" points="851.36,-213.55 842.94,-219.99 853.53,-220.2 851.36,-213.55"/>
</a>
</g>
</g>
<!-- Node12 -->
<g id="Node000012" class="node">
<title>Node12</title>
<g id="a_Node000012"><a xlink:href="cutdg__operation_8hpp.html" target="_top" xlink:title=" ">
<polygon fill="white" stroke="#666666" points="911.37,-107 771.37,-107 771.37,-66 911.37,-66 911.37,-107"/>
<text text-anchor="start" x="779.37" y="-95" font-family="Helvetica,sans-Serif" font-size="10.00">include/meltpooldg</text>
<text text-anchor="start" x="779.37" y="-84" font-family="Helvetica,sans-Serif" font-size="10.00">/compressible_flow/cutdg</text>
<text text-anchor="middle" x="841.37" y="-73" font-family="Helvetica,sans-Serif" font-size="10.00">_operation.hpp</text>
</a>
</g>
</g>
<!-- Node11&#45;&gt;Node12 -->
<g id="edge13_Node000011_Node000012" class="edge">
<title>Node11&#45;&gt;Node12</title>
<g id="a_edge13_Node000011_Node000012"><a xlink:title=" ">
<path fill="none" stroke="#63b8ff" d="M841.37,-132.69C841.37,-124.08 841.37,-114.9 841.37,-107.07"/>
<polygon fill="#63b8ff" stroke="#63b8ff" points="837.87,-132.79 841.37,-142.79 844.87,-132.79 837.87,-132.79"/>
</a>
</g>
</g>
<!-- Node13 -->
<g id="Node000013" class="node">
<title>Node13</title>
<g id="a_Node000013"><a xlink:href="cutdg__operation_8cpp.html" target="_top" xlink:title=" ">
<polygon fill="white" stroke="#666666" points="815.37,-30 671.37,-30 671.37,0 815.37,0 815.37,-30"/>
<text text-anchor="start" x="679.37" y="-18" font-family="Helvetica,sans-Serif" font-size="10.00">source/compressible</text>
<text text-anchor="middle" x="743.37" y="-7" font-family="Helvetica,sans-Serif" font-size="10.00">_flow/cutdg_operation.cpp</text>
</a>
</g>
</g>
<!-- Node11&#45;&gt;Node13 -->
<g id="edge15_Node000011_Node000013" class="edge">
<title>Node11&#45;&gt;Node13</title>
<g id="a_edge15_Node000011_Node000013"><a xlink:title=" ">
<path fill="none" stroke="#63b8ff" d="M793.32,-137.31C781.63,-129.09 770.23,-118.94 762.37,-107 746.76,-83.27 743.63,-49.16 743.2,-30.15"/>
<polygon fill="#63b8ff" stroke="#63b8ff" points="791.58,-140.35 801.85,-142.95 795.44,-134.51 791.58,-140.35"/>
</a>
</g>
</g>
<!-- Node14 -->
<g id="Node000014" class="node">
<title>Node14</title>
<g id="a_Node000014"><a xlink:href="cutdg__operator_8cpp.html" target="_top" xlink:title=" ">
<polygon fill="white" stroke="#666666" points="1118.37,-101.5 980.37,-101.5 980.37,-71.5 1118.37,-71.5 1118.37,-101.5"/>
<text text-anchor="start" x="988.37" y="-89.5" font-family="Helvetica,sans-Serif" font-size="10.00">source/compressible</text>
<text text-anchor="middle" x="1049.37" y="-78.5" font-family="Helvetica,sans-Serif" font-size="10.00">_flow/cutdg_operator.cpp</text>
</a>
</g>
</g>
<!-- Node11&#45;&gt;Node14 -->
<g id="edge16_Node000011_Node000014" class="edge">
<title>Node11&#45;&gt;Node14</title>
<g id="a_edge16_Node000011_Node000014"><a xlink:title=" ">
<path fill="none" stroke="#63b8ff" d="M904.97,-139.57C939.35,-127.17 980.69,-112.26 1010.32,-101.58"/>
<polygon fill="#63b8ff" stroke="#63b8ff" points="903.7,-136.31 895.48,-142.99 906.07,-142.89 903.7,-136.31"/>
</a>
</g>
</g>
<!-- Node12&#45;&gt;Node13 -->
<g id="edge14_Node000012_Node000013" class="edge">
<title>Node12&#45;&gt;Node13</title>
<g id="a_edge14_Node000012_Node000013"><a xlink:title=" ">
<path fill="none" stroke="#63b8ff" d="M805.63,-60.15C791.35,-50.02 775.43,-38.74 763.27,-30.11"/>
<polygon fill="#63b8ff" stroke="#63b8ff" points="803.63,-63.03 813.81,-65.96 807.68,-57.32 803.63,-63.03"/>
</a>
</g>
</g>
<!-- Node16&#45;&gt;Node15 -->
<g id="edge25_Node000016_Node000015" class="edge">
<title>Node16&#45;&gt;Node15</title>
<g id="a_edge25_Node000016_Node000015"><a xlink:title=" ">
<path fill="none" stroke="#63b8ff" d="M1051.57,-211.92C1042.3,-200.7 1031.97,-188.21 1024.24,-178.86"/>
<polygon fill="#63b8ff" stroke="#63b8ff" points="1049.01,-214.32 1058.08,-219.79 1054.41,-209.86 1049.01,-214.32"/>
</a>
</g>
</g>
<!-- Node17 -->
<g id="Node000017" class="node">
<title>Node17</title>
<g id="a_Node000017"><a xlink:href="multiphase__operation_8hpp.html" target="_top" xlink:title=" ">
<polygon fill="white" stroke="#666666" points="1357.37,-184 1189.37,-184 1189.37,-143 1357.37,-143 1357.37,-184"/>
<text text-anchor="start" x="1197.37" y="-172" font-family="Helvetica,sans-Serif" font-size="10.00">include/meltpooldg</text>
<text text-anchor="start" x="1197.37" y="-161" font-family="Helvetica,sans-Serif" font-size="10.00">/compressible_flow/multiphase</text>
<text text-anchor="middle" x="1273.37" y="-150" font-family="Helvetica,sans-Serif" font-size="10.00">_operation.hpp</text>
</a>
</g>
</g>
<!-- Node16&#45;&gt;Node17 -->
<g id="edge21_Node000016_Node000017" class="edge">
<title>Node16&#45;&gt;Node17</title>
<g id="a_edge21_Node000016_Node000017"><a xlink:title=" ">
<path fill="none" stroke="#63b8ff" d="M1135.66,-216.4C1163.15,-206.04 1195.24,-193.95 1221.52,-184.04"/>
<polygon fill="#63b8ff" stroke="#63b8ff" points="1134.26,-213.19 1126.14,-219.99 1136.73,-219.74 1134.26,-213.19"/>
</a>
</g>
</g>
<!-- Node16&#45;&gt;Node18 -->
<g id="edge24_Node000016_Node000018" class="edge">
<title>Node16&#45;&gt;Node18</title>
<g id="a_edge24_Node000016_Node000018"><a xlink:title=" ">
<path fill="none" stroke="#63b8ff" d="M1098.23,-212.48C1118.32,-191.12 1148.78,-161.86 1180.37,-143 1211.58,-124.37 1249.98,-110.7 1281.11,-101.59"/>
<polygon fill="#63b8ff" stroke="#63b8ff" points="1095.53,-210.24 1091.31,-219.96 1100.67,-214.99 1095.53,-210.24"/>
</a>
</g>
</g>
<!-- Node17&#45;&gt;Node17 -->
<g id="edge22_Node000017_Node000017" class="edge">
<title>Node17&#45;&gt;Node17</title>
<g id="a_edge22_Node000017_Node000017"><a xlink:title=" ">
<path fill="none" stroke="#63b8ff" d="M1367.12,-173.05C1372.29,-170.73 1375.37,-167.54 1375.37,-163.5 1375.37,-157.34 1368.22,-153.18 1357.4,-151.01"/>
<polygon fill="#63b8ff" stroke="#63b8ff" points="1365.96,-169.74 1357.4,-175.99 1367.99,-176.44 1365.96,-169.74"/>
</a>
</g>
</g>
<!-- Node17&#45;&gt;Node18 -->
<g id="edge23_Node000017_Node000018" class="edge">
<title>Node17&#45;&gt;Node18</title>
<g id="a_edge23_Node000017_Node000018"><a xlink:title=" ">
<path fill="none" stroke="#63b8ff" d="M1297.28,-134.92C1307,-123.7 1317.83,-111.21 1325.93,-101.86"/>
<polygon fill="#63b8ff" stroke="#63b8ff" points="1294.36,-132.95 1290.45,-142.79 1299.64,-137.53 1294.36,-132.95"/>
</a>
</g>
</g>
<!-- Node19&#45;&gt;Node2 -->
<g id="edge27_Node000019_Node000002" class="edge">
<title>Node19&#45;&gt;Node2</title>
<g id="a_edge27_Node000019_Node000002"><a xlink:title=" ">
<path fill="none" stroke="#63b8ff" d="M605.18,-368.37C590.62,-358.53 574.16,-347.41 560.49,-338.17"/>
<polygon fill="#63b8ff" stroke="#63b8ff" points="603.25,-371.29 613.5,-373.99 607.17,-365.49 603.25,-371.29"/>
</a>
</g>
</g>
<!-- Node19&#45;&gt;Node3 -->
<g id="edge31_Node000019_Node000003" class="edge">
<title>Node19&#45;&gt;Node3</title>
<g id="a_edge31_Node000019_Node000003"><a xlink:title=" ">
<path fill="none" stroke="#63b8ff" d="M639.74,-363.56C637.31,-344.09 632.77,-318.42 624.37,-297 619.38,-284.27 611.38,-271.28 604.29,-261.07"/>
<polygon fill="#63b8ff" stroke="#63b8ff" points="636.28,-364.13 640.87,-373.68 643.23,-363.35 636.28,-364.13"/>
</a>
</g>
</g>
<!-- Node19&#45;&gt;Node4 -->
<g id="edge37_Node000019_Node000004" class="edge">
<title>Node19&#45;&gt;Node4</title>
<g id="a_edge37_Node000019_Node000004"><a xlink:title=" ">
<path fill="none" stroke="#63b8ff" d="M551.99,-388.89C477.98,-382.92 371.51,-369.25 283.37,-338 219.36,-315.3 185.2,-319.9 151.37,-261 136.5,-235.11 144.73,-198.57 151.12,-178.7"/>
<polygon fill="#63b8ff" stroke="#63b8ff" points="551.97,-392.4 562.21,-389.68 552.51,-385.42 551.97,-392.4"/>
</a>
</g>
</g>
<!-- Node19&#45;&gt;Node5 -->
<g id="edge38_Node000019_Node000005" class="edge">
<title>Node19&#45;&gt;Node5</title>
<g id="a_edge38_Node000019_Node000005"><a xlink:title=" ">
<path fill="none" stroke="#63b8ff" d="M719.92,-370.39C771.72,-350.46 835.92,-316.02 867.37,-261 876.42,-245.18 878.37,-234.53 867.37,-220 859.07,-209.04 788.82,-191.05 734.55,-178.53"/>
<polygon fill="#63b8ff" stroke="#63b8ff" points="718.55,-367.17 710.4,-373.95 721,-373.73 718.55,-367.17"/>
</a>
</g>
</g>
<!-- Node19&#45;&gt;Node6 -->
<g id="edge32_Node000019_Node000006" class="edge">
<title>Node19&#45;&gt;Node6</title>
<g id="a_edge32_Node000019_Node000006"><a xlink:title=" ">
<path fill="none" stroke="#63b8ff" d="M552.18,-379.82C504.79,-370.59 453.63,-356.67 439.37,-338 422.57,-315.98 429.92,-282.26 437.27,-261.07"/>
<polygon fill="#63b8ff" stroke="#63b8ff" points="551.74,-383.3 562.22,-381.72 553.04,-376.42 551.74,-383.3"/>
</a>
</g>
</g>
<!-- Node19&#45;&gt;Node7 -->
<g id="edge39_Node000019_Node000007" class="edge">
<title>Node19&#45;&gt;Node7</title>
<g id="a_edge39_Node000019_Node000007"><a xlink:title=" ">
<path fill="none" stroke="#63b8ff" d="M656.57,-364.57C672.56,-327.38 692.51,-262.53 661.37,-220 654.01,-209.94 590.25,-191.44 541.79,-178.57"/>
<polygon fill="#63b8ff" stroke="#63b8ff" points="653.31,-363.28 652.42,-373.84 659.7,-366.14 653.31,-363.28"/>
</a>
</g>
</g>
<!-- Node19&#45;&gt;Node8 -->
<g id="edge33_Node000019_Node000008" class="edge">
<title>Node19&#45;&gt;Node8</title>
<g id="a_edge33_Node000019_Node000008"><a xlink:title=" ">
<path fill="none" stroke="#63b8ff" d="M551.94,-390.86C489.43,-385.78 406.03,-372.37 340.37,-338 305.02,-319.49 274.29,-283.72 257.35,-261.31"/>
<polygon fill="#63b8ff" stroke="#63b8ff" points="551.95,-394.37 562.18,-391.63 552.47,-387.39 551.95,-394.37"/>
</a>
</g>
</g>
<!-- Node19&#45;&gt;Node9 -->
<g id="edge40_Node000019_Node000009" class="edge">
<title>Node19&#45;&gt;Node9</title>
<g id="a_edge40_Node000019_Node000009"><a xlink:title=" ">
<path fill="none" stroke="#63b8ff" d="M552.18,-385.56C510.26,-378.3 461.59,-364.43 424.37,-338 395.43,-317.45 344.26,-224.9 322.56,-184.02"/>
<polygon fill="#63b8ff" stroke="#63b8ff" points="551.68,-389.03 562.12,-387.18 552.81,-382.12 551.68,-389.03"/>
</a>
</g>
</g>
<!-- Node19&#45;&gt;Node11 -->
<g id="edge28_Node000019_Node000011" class="edge">
<title>Node19&#45;&gt;Node11</title>
<g id="a_edge28_Node000019_Node000011"><a xlink:title=" ">
<path fill="none" stroke="#63b8ff" d="M732.18,-378.43C763.92,-370.11 798.6,-357.38 826.37,-338 861.51,-313.49 870.78,-301.63 884.37,-261 890.15,-243.72 890.27,-237.24 884.37,-220 879.8,-206.62 870.54,-193.97 861.78,-184.14"/>
<polygon fill="#63b8ff" stroke="#63b8ff" points="731.29,-375.04 722.44,-380.87 732.99,-381.83 731.29,-375.04"/>
</a>
</g>
</g>
<!-- Node19&#45;&gt;Node13 -->
<g id="edge35_Node000019_Node000013" class="edge">
<title>Node19&#45;&gt;Node13</title>
<g id="a_edge35_Node000019_Node000013"><a xlink:title=" ">
<path fill="none" stroke="#63b8ff" d="M551.88,-391.31C389.26,-386.52 60.86,-372.64 22.37,-338 -10.12,-308.76 3.37,-285.21 3.37,-241.5 3.37,-241.5 3.37,-241.5 3.37,-162.5 3.37,-27.28 484.87,-14.88 671.07,-15.15"/>
<polygon fill="#63b8ff" stroke="#63b8ff" points="552.25,-394.82 562.35,-391.61 552.45,-387.82 552.25,-394.82"/>
</a>
</g>
</g>
<!-- Node19&#45;&gt;Node14 -->
<g id="edge36_Node000019_Node000014" class="edge">
<title>Node19&#45;&gt;Node14</title>
<g id="a_edge36_Node000019_Node000014"><a xlink:title=" ">
<path fill="none" stroke="#63b8ff" d="M732.56,-384.19C868.48,-368.06 1115.51,-329.86 1167.37,-261 1210.66,-203.53 1116.92,-131.47 1071.82,-101.54"/>
<polygon fill="#63b8ff" stroke="#63b8ff" points="732.09,-380.72 722.57,-385.36 732.91,-387.67 732.09,-380.72"/>
</a>
</g>
</g>
<!-- Node19&#45;&gt;Node15 -->
<g id="edge42_Node000019_Node000015" class="edge">
<title>Node19&#45;&gt;Node15</title>
<g id="a_edge42_Node000019_Node000015"><a xlink:title=" ">
<path fill="none" stroke="#63b8ff" d="M732.26,-383.28C773.86,-375.51 822.56,-361.87 861.37,-338 930.08,-295.74 984.37,-212.15 1004.22,-178.76"/>
<polygon fill="#63b8ff" stroke="#63b8ff" points="731.62,-379.84 722.39,-385.04 732.85,-386.73 731.62,-379.84"/>
</a>
</g>
</g>
<!-- Node19&#45;&gt;Node17 -->
<g id="edge34_Node000019_Node000017" class="edge">
<title>Node19&#45;&gt;Node17</title>
<g id="a_edge34_Node000019_Node000017"><a xlink:title=" ">
<path fill="none" stroke="#63b8ff" d="M732.52,-389.55C880.82,-382.31 1163.62,-365.13 1200.37,-338 1251.12,-300.55 1266.84,-220.95 1271.51,-184.05"/>
<polygon fill="#63b8ff" stroke="#63b8ff" points="732.33,-386.05 722.51,-390.03 732.67,-393.04 732.33,-386.05"/>
</a>
</g>
</g>
<!-- Node19&#45;&gt;Node18 -->
<g id="edge41_Node000019_Node000018" class="edge">
<title>Node19&#45;&gt;Node18</title>
<g id="a_edge41_Node000019_Node000018"><a xlink:title=" ">
<path fill="none" stroke="#63b8ff" d="M732.64,-392.44C875.25,-389.53 1145.33,-378.65 1231.37,-338 1318.61,-296.79 1347.6,-273.2 1384.37,-184 1391.32,-167.15 1390.55,-160.14 1384.37,-143 1378.51,-126.75 1365.61,-111.89 1354.95,-101.65"/>
<polygon fill="#63b8ff" stroke="#63b8ff" points="732.52,-388.94 722.59,-392.64 732.66,-395.94 732.52,-388.94"/>
</a>
</g>
</g>
<!-- Node20 -->
<g id="Node000020" class="node">
<title>Node20</title>
<g id="a_Node000020"><a xlink:href="dg__operation_8hpp.html" target="_top" xlink:title=" ">
<polygon fill="white" stroke="#666666" points="156.87,-338 31.87,-338 31.87,-297 156.87,-297 156.87,-338"/>
<text text-anchor="start" x="39.87" y="-326" font-family="Helvetica,sans-Serif" font-size="10.00">include/meltpooldg</text>
<text text-anchor="start" x="39.87" y="-315" font-family="Helvetica,sans-Serif" font-size="10.00">/compressible_flow/dg</text>
<text text-anchor="middle" x="94.37" y="-304" font-family="Helvetica,sans-Serif" font-size="10.00">_operation.hpp</text>
</a>
</g>
</g>
<!-- Node19&#45;&gt;Node20 -->
<g id="edge29_Node000019_Node000020" class="edge">
<title>Node19&#45;&gt;Node20</title>
<g id="a_edge29_Node000019_Node000020"><a xlink:title=" ">
<path fill="none" stroke="#63b8ff" d="M552.14,-386.4C456.95,-378.08 302.81,-362.28 171.37,-338 166.76,-337.15 162.02,-336.18 157.26,-335.14"/>
<polygon fill="#63b8ff" stroke="#63b8ff" points="552.04,-389.9 562.31,-387.28 552.65,-382.93 552.04,-389.9"/>
</a>
</g>
</g>
<!-- Node20&#45;&gt;Node4 -->
<g id="edge30_Node000020_Node000004" class="edge">
<title>Node20&#45;&gt;Node4</title>
<g id="a_edge30_Node000020_Node000004"><a xlink:title=" ">
<path fill="none" stroke="#63b8ff" d="M98.87,-287.09C102.54,-267.49 108.72,-241.49 118.37,-220 125.17,-204.87 136.11,-189.45 144.52,-178.72"/>
<polygon fill="#63b8ff" stroke="#63b8ff" points="95.42,-286.52 97.13,-296.97 102.31,-287.73 95.42,-286.52"/>
</a>
</g>
</g>
</g>
</svg>
