<?xml version="1.0" encoding="UTF-8" standalone="no"?>
<!DOCTYPE svg PUBLIC "-//W3C//DTD SVG 1.1//EN"
 "http://www.w3.org/Graphics/SVG/1.1/DTD/svg11.dtd">
<!-- Generated by graphviz version 2.43.0 (0)
 -->
<!-- Title: include/meltpooldg/phase_change/phase_change_data.hpp Pages: 1 -->
<svg width="1571pt" height="500pt"
 viewBox="0.00 0.00 1570.89 500.00" xmlns="http://www.w3.org/2000/svg" xmlns:xlink="http://www.w3.org/1999/xlink">
<g id="graph0" class="graph" transform="scale(1 1) rotate(0) translate(4 496)">
<title>include/meltpooldg/phase_change/phase_change_data.hpp</title>
<!-- Node1 -->
<g id="Node000001" class="node">
<title>Node1</title>
<g id="a_Node000001"><a xlink:title=" ">
<polygon fill="#999999" stroke="#666666" points="542,-492 420,-492 420,-451 542,-451 542,-492"/>
<text text-anchor="start" x="428" y="-480" font-family="Helvetica,sans-Serif" font-size="10.00">include/meltpooldg</text>
<text text-anchor="start" x="428" y="-469" font-family="Helvetica,sans-Serif" font-size="10.00">/phase_change/phase</text>
<text text-anchor="middle" x="481" y="-458" font-family="Helvetica,sans-Serif" font-size="10.00">_change_data.hpp</text>
</a>
</g>
</g>
<!-- Node2 -->
<g id="Node000002" class="node">
<title>Node2</title>
<g id="a_Node000002"><a xlink:href="multiphase__operation_8hpp.html" target="_top" xlink:title=" ">
<polygon fill="white" stroke="#666666" points="168,-184 0,-184 0,-143 168,-143 168,-184"/>
<text text-anchor="start" x="8" y="-172" font-family="Helvetica,sans-Serif" font-size="10.00">include/meltpooldg</text>
<text text-anchor="start" x="8" y="-161" font-family="Helvetica,sans-Serif" font-size="10.00">/compressible_flow/multiphase</text>
<text text-anchor="middle" x="84" y="-150" font-family="Helvetica,sans-Serif" font-size="10.00">_operation.hpp</text>
</a>
</g>
</g>
<!-- Node1&#45;&gt;Node2 -->
<g id="edge1_Node000001_Node000002" class="edge">
<title>Node1&#45;&gt;Node2</title>
<g id="a_edge1_Node000001_Node000002"><a xlink:title=" ">
<path fill="none" stroke="#63b8ff" d="M409.68,-458.66C336.38,-443.02 223.32,-408.7 153,-338 109.45,-294.22 92.51,-219.52 86.69,-184.16"/>
<polygon fill="#63b8ff" stroke="#63b8ff" points="409.25,-462.15 419.75,-460.75 410.67,-455.29 409.25,-462.15"/>
</a>
</g>
</g>
<!-- Node4 -->
<g id="Node000004" class="node">
<title>Node4</title>
<g id="a_Node000004"><a xlink:href="operation__scratch__data_8hpp.html" target="_top" xlink:title=" ">
<polygon fill="white" stroke="#666666" points="973,-415 813,-415 813,-374 973,-374 973,-415"/>
<text text-anchor="start" x="821" y="-403" font-family="Helvetica,sans-Serif" font-size="10.00">include/meltpooldg</text>
<text text-anchor="start" x="821" y="-392" font-family="Helvetica,sans-Serif" font-size="10.00">/compressible_flow/operation</text>
<text text-anchor="middle" x="893" y="-381" font-family="Helvetica,sans-Serif" font-size="10.00">_scratch_data.hpp</text>
</a>
</g>
</g>
<!-- Node1&#45;&gt;Node4 -->
<g id="edge4_Node000001_Node000004" class="edge">
<title>Node1&#45;&gt;Node4</title>
<g id="a_edge4_Node000001_Node000004"><a xlink:title=" ">
<path fill="none" stroke="#63b8ff" d="M552.2,-457.54C624.72,-444.34 736.98,-423.9 812.65,-410.13"/>
<polygon fill="#63b8ff" stroke="#63b8ff" points="551.45,-454.12 542.24,-459.35 552.7,-461.01 551.45,-454.12"/>
</a>
</g>
</g>
<!-- Node2&#45;&gt;Node2 -->
<g id="edge2_Node000002_Node000002" class="edge">
<title>Node2&#45;&gt;Node2</title>
<g id="a_edge2_Node000002_Node000002"><a xlink:title=" ">
<path fill="none" stroke="#63b8ff" d="M177.75,-173.05C182.92,-170.73 186,-167.54 186,-163.5 186,-157.34 178.85,-153.18 168.03,-151.01"/>
<polygon fill="#63b8ff" stroke="#63b8ff" points="176.59,-169.74 168.03,-175.99 178.62,-176.44 176.59,-169.74"/>
</a>
</g>
</g>
<!-- Node3 -->
<g id="Node000003" class="node">
<title>Node3</title>
<g id="a_Node000003"><a xlink:href="multiphase__operation_8cpp.html" target="_top" xlink:title=" ">
<polygon fill="white" stroke="#666666" points="300,-101.5 128,-101.5 128,-71.5 300,-71.5 300,-101.5"/>
<text text-anchor="start" x="136" y="-89.5" font-family="Helvetica,sans-Serif" font-size="10.00">source/compressible</text>
<text text-anchor="middle" x="214" y="-78.5" font-family="Helvetica,sans-Serif" font-size="10.00">_flow/multiphase_operation.cpp</text>
</a>
</g>
</g>
<!-- Node2&#45;&gt;Node3 -->
<g id="edge3_Node000002_Node000003" class="edge">
<title>Node2&#45;&gt;Node3</title>
<g id="a_edge3_Node000002_Node000003"><a xlink:title=" ">
<path fill="none" stroke="#63b8ff" d="M126.5,-137.98C147.33,-125.97 171.67,-111.92 189.39,-101.7"/>
<polygon fill="#63b8ff" stroke="#63b8ff" points="124.73,-134.96 117.82,-142.99 128.23,-141.02 124.73,-134.96"/>
</a>
</g>
</g>
<!-- Node4&#45;&gt;Node2 -->
<g id="edge36_Node000004_Node000002" class="edge">
<title>Node4&#45;&gt;Node2</title>
<g id="a_edge36_Node000004_Node000002"><a xlink:title=" ">
<path fill="none" stroke="#63b8ff" d="M802.84,-391.01C625.35,-385.42 243.39,-369.84 193,-338 141.83,-305.67 158.15,-270.65 125,-220 117,-207.77 107.31,-194.59 99.36,-184.15"/>
<polygon fill="#63b8ff" stroke="#63b8ff" points="802.84,-394.51 812.95,-391.32 803.06,-387.51 802.84,-394.51"/>
</a>
</g>
</g>
<!-- Node4&#45;&gt;Node3 -->
<g id="edge43_Node000004_Node000003" class="edge">
<title>Node4&#45;&gt;Node3</title>
<g id="a_edge43_Node000004_Node000003"><a xlink:title=" ">
<path fill="none" stroke="#63b8ff" d="M802.75,-389.61C637.27,-380.33 295.82,-350.54 226,-261 188.87,-213.38 202.43,-134.27 210.14,-101.94"/>
<polygon fill="#63b8ff" stroke="#63b8ff" points="802.73,-393.11 812.91,-390.16 803.11,-386.12 802.73,-393.11"/>
</a>
</g>
</g>
<!-- Node5 -->
<g id="Node000005" class="node">
<title>Node5</title>
<g id="a_Node000005"><a xlink:href="convective__kernels_8hpp.html" target="_top" xlink:title=" ">
<polygon fill="white" stroke="#666666" points="846.5,-338 679.5,-338 679.5,-297 846.5,-297 846.5,-338"/>
<text text-anchor="start" x="687.5" y="-326" font-family="Helvetica,sans-Serif" font-size="10.00">include/meltpooldg</text>
<text text-anchor="start" x="687.5" y="-315" font-family="Helvetica,sans-Serif" font-size="10.00">/compressible_flow/convective</text>
<text text-anchor="middle" x="763" y="-304" font-family="Helvetica,sans-Serif" font-size="10.00">_kernels.hpp</text>
</a>
</g>
</g>
<!-- Node4&#45;&gt;Node5 -->
<g id="edge5_Node000004_Node000005" class="edge">
<title>Node4&#45;&gt;Node5</title>
<g id="a_edge5_Node000004_Node000005"><a xlink:title=" ">
<path fill="none" stroke="#63b8ff" d="M850.39,-368.92C833.11,-358.95 813.41,-347.58 797.1,-338.17"/>
<polygon fill="#63b8ff" stroke="#63b8ff" points="848.77,-372.02 859.18,-373.99 852.27,-365.96 848.77,-372.02"/>
</a>
</g>
</g>
<!-- Node6 -->
<g id="Node000006" class="node">
<title>Node6</title>
<g id="a_Node000006"><a xlink:href="dg__operator__explicit_8hpp.html" target="_top" xlink:title=" ">
<polygon fill="white" stroke="#666666" points="972.5,-261 847.5,-261 847.5,-220 972.5,-220 972.5,-261"/>
<text text-anchor="start" x="855.5" y="-249" font-family="Helvetica,sans-Serif" font-size="10.00">include/meltpooldg</text>
<text text-anchor="start" x="855.5" y="-238" font-family="Helvetica,sans-Serif" font-size="10.00">/compressible_flow/dg</text>
<text text-anchor="middle" x="910" y="-227" font-family="Helvetica,sans-Serif" font-size="10.00">_operator_explicit.hpp</text>
</a>
</g>
</g>
<!-- Node4&#45;&gt;Node6 -->
<g id="edge33_Node000004_Node000006" class="edge">
<title>Node4&#45;&gt;Node6</title>
<g id="a_edge33_Node000004_Node000006"><a xlink:title=" ">
<path fill="none" stroke="#63b8ff" d="M896.3,-363.98C899.68,-333.76 904.84,-287.64 907.77,-261.47"/>
<polygon fill="#63b8ff" stroke="#63b8ff" points="892.82,-363.61 895.19,-373.94 899.78,-364.39 892.82,-363.61"/>
</a>
</g>
</g>
<!-- Node7 -->
<g id="Node000007" class="node">
<title>Node7</title>
<g id="a_Node000007"><a xlink:href="dg__operation_8hpp.html" target="_top" xlink:title=" ">
<polygon fill="white" stroke="#666666" points="1134.5,-184 1009.5,-184 1009.5,-143 1134.5,-143 1134.5,-184"/>
<text text-anchor="start" x="1017.5" y="-172" font-family="Helvetica,sans-Serif" font-size="10.00">include/meltpooldg</text>
<text text-anchor="start" x="1017.5" y="-161" font-family="Helvetica,sans-Serif" font-size="10.00">/compressible_flow/dg</text>
<text text-anchor="middle" x="1072" y="-150" font-family="Helvetica,sans-Serif" font-size="10.00">_operation.hpp</text>
</a>
</g>
</g>
<!-- Node4&#45;&gt;Node7 -->
<g id="edge32_Node000004_Node000007" class="edge">
<title>Node4&#45;&gt;Node7</title>
<g id="a_edge32_Node000004_Node000007"><a xlink:title=" ">
<path fill="none" stroke="#63b8ff" d="M932.78,-367.99C944.59,-359.32 957.03,-349.02 967,-338 1011.54,-288.8 1047.42,-217.99 1063.24,-184.06"/>
<polygon fill="#63b8ff" stroke="#63b8ff" points="930.46,-365.35 924.34,-374 934.51,-371.05 930.46,-365.35"/>
</a>
</g>
</g>
<!-- Node8 -->
<g id="Node000008" class="node">
<title>Node8</title>
<g id="a_Node000008"><a xlink:href="dg__operation_8cpp.html" target="_top" xlink:title=" ">
<polygon fill="white" stroke="#666666" points="862.5,-101.5 733.5,-101.5 733.5,-71.5 862.5,-71.5 862.5,-101.5"/>
<text text-anchor="start" x="741.5" y="-89.5" font-family="Helvetica,sans-Serif" font-size="10.00">source/compressible</text>
<text text-anchor="middle" x="798" y="-78.5" font-family="Helvetica,sans-Serif" font-size="10.00">_flow/dg_operation.cpp</text>
</a>
</g>
</g>
<!-- Node4&#45;&gt;Node8 -->
<g id="edge39_Node000004_Node000008" class="edge">
<title>Node4&#45;&gt;Node8</title>
<g id="a_edge39_Node000004_Node000008"><a xlink:title=" ">
<path fill="none" stroke="#63b8ff" d="M802.62,-387.7C706.11,-380.23 560.49,-364.88 512,-338 451.88,-304.67 459.57,-269.63 412,-220 395.68,-202.97 382.46,-205.61 373,-184 365.69,-167.31 360.98,-156.69 373,-143 396.38,-116.37 620.31,-98.64 733.36,-91.31"/>
<polygon fill="#63b8ff" stroke="#63b8ff" points="802.44,-391.2 812.68,-388.47 802.97,-384.22 802.44,-391.2"/>
</a>
</g>
</g>
<!-- Node9 -->
<g id="Node000009" class="node">
<title>Node9</title>
<g id="a_Node000009"><a xlink:href="dg__operator__explicit_8cpp.html" target="_top" xlink:title=" ">
<polygon fill="white" stroke="#666666" points="991.5,-178.5 826.5,-178.5 826.5,-148.5 991.5,-148.5 991.5,-178.5"/>
<text text-anchor="start" x="834.5" y="-166.5" font-family="Helvetica,sans-Serif" font-size="10.00">source/compressible</text>
<text text-anchor="middle" x="909" y="-155.5" font-family="Helvetica,sans-Serif" font-size="10.00">_flow/dg_operator_explicit.cpp</text>
</a>
</g>
</g>
<!-- Node4&#45;&gt;Node9 -->
<g id="edge40_Node000004_Node000009" class="edge">
<title>Node4&#45;&gt;Node9</title>
<g id="a_edge40_Node000004_Node000009"><a xlink:title=" ">
<path fill="none" stroke="#63b8ff" d="M918.18,-366.25C939.59,-341.08 968.76,-301.55 981,-261 986.27,-243.56 989.04,-236.35 981,-220 972.08,-201.87 954.08,-188 938.31,-178.65"/>
<polygon fill="#63b8ff" stroke="#63b8ff" points="915.45,-364.06 911.53,-373.9 920.73,-368.65 915.45,-364.06"/>
</a>
</g>
</g>
<!-- Node10 -->
<g id="Node000010" class="node">
<title>Node10</title>
<g id="a_Node000010"><a xlink:href="dg__operator__implicit_8hpp.html" target="_top" xlink:title=" ">
<polygon fill="white" stroke="#666666" points="829,-261 703,-261 703,-220 829,-220 829,-261"/>
<text text-anchor="start" x="711" y="-249" font-family="Helvetica,sans-Serif" font-size="10.00">include/meltpooldg</text>
<text text-anchor="start" x="711" y="-238" font-family="Helvetica,sans-Serif" font-size="10.00">/compressible_flow/dg</text>
<text text-anchor="middle" x="766" y="-227" font-family="Helvetica,sans-Serif" font-size="10.00">_operator_implicit.hpp</text>
</a>
</g>
</g>
<!-- Node4&#45;&gt;Node10 -->
<g id="edge34_Node000004_Node000010" class="edge">
<title>Node4&#45;&gt;Node10</title>
<g id="a_edge34_Node000004_Node000010"><a xlink:title=" ">
<path fill="none" stroke="#63b8ff" d="M886.63,-364.08C881.02,-343.53 871.16,-316.42 855,-297 842.65,-282.16 825.27,-270.1 809.14,-261.05"/>
<polygon fill="#63b8ff" stroke="#63b8ff" points="883.26,-365.03 889.12,-373.86 890.05,-363.31 883.26,-365.03"/>
</a>
</g>
</g>
<!-- Node11 -->
<g id="Node000011" class="node">
<title>Node11</title>
<g id="a_Node000011"><a xlink:href="dg__operator__implicit_8cpp.html" target="_top" xlink:title=" ">
<polygon fill="white" stroke="#666666" points="732,-178.5 566,-178.5 566,-148.5 732,-148.5 732,-178.5"/>
<text text-anchor="start" x="574" y="-166.5" font-family="Helvetica,sans-Serif" font-size="10.00">source/compressible</text>
<text text-anchor="middle" x="649" y="-155.5" font-family="Helvetica,sans-Serif" font-size="10.00">_flow/dg_operator_implicit.cpp</text>
</a>
</g>
</g>
<!-- Node4&#45;&gt;Node11 -->
<g id="edge41_Node000004_Node000011" class="edge">
<title>Node4&#45;&gt;Node11</title>
<g id="a_edge41_Node000004_Node000011"><a xlink:title=" ">
<path fill="none" stroke="#63b8ff" d="M802.52,-390.99C713.23,-382.94 582.16,-354.72 526,-261 516.63,-245.37 516.11,-235.31 526,-220 539.09,-199.73 561.56,-186.79 583.74,-178.56"/>
<polygon fill="#63b8ff" stroke="#63b8ff" points="802.4,-394.5 812.66,-391.84 802.98,-387.52 802.4,-394.5"/>
</a>
</g>
</g>
<!-- Node12 -->
<g id="Node000012" class="node">
<title>Node12</title>
<g id="a_Node000012"><a xlink:href="dg__operator__implicit__explicit_8hpp.html" target="_top" xlink:title=" ">
<polygon fill="white" stroke="#666666" points="1233.5,-261 1066.5,-261 1066.5,-220 1233.5,-220 1233.5,-261"/>
<text text-anchor="start" x="1074.5" y="-249" font-family="Helvetica,sans-Serif" font-size="10.00">include/meltpooldg</text>
<text text-anchor="start" x="1074.5" y="-238" font-family="Helvetica,sans-Serif" font-size="10.00">/compressible_flow/dg</text>
<text text-anchor="middle" x="1150" y="-227" font-family="Helvetica,sans-Serif" font-size="10.00">_operator_implicit_explicit.hpp</text>
</a>
</g>
</g>
<!-- Node4&#45;&gt;Node12 -->
<g id="edge35_Node000004_Node000012" class="edge">
<title>Node4&#45;&gt;Node12</title>
<g id="a_edge35_Node000004_Node000012"><a xlink:title=" ">
<path fill="none" stroke="#63b8ff" d="M981.43,-370.7C1005.64,-362.4 1031.21,-351.61 1053,-338 1086.44,-317.11 1117.3,-282.74 1134.86,-261.15"/>
<polygon fill="#63b8ff" stroke="#63b8ff" points="980.25,-367.41 971.87,-373.88 982.46,-374.05 980.25,-367.41"/>
</a>
</g>
</g>
<!-- Node13 -->
<g id="Node000013" class="node">
<title>Node13</title>
<g id="a_Node000013"><a xlink:href="dg__operator__implicit__explicit_8cpp.html" target="_top" xlink:title=" ">
<polygon fill="white" stroke="#666666" points="1495,-184 1349,-184 1349,-143 1495,-143 1495,-184"/>
<text text-anchor="start" x="1357" y="-172" font-family="Helvetica,sans-Serif" font-size="10.00">source/compressible</text>
<text text-anchor="start" x="1357" y="-161" font-family="Helvetica,sans-Serif" font-size="10.00">_flow/dg_operator_implicit</text>
<text text-anchor="middle" x="1422" y="-150" font-family="Helvetica,sans-Serif" font-size="10.00">_explicit.cpp</text>
</a>
</g>
</g>
<!-- Node4&#45;&gt;Node13 -->
<g id="edge42_Node000004_Node000013" class="edge">
<title>Node4&#45;&gt;Node13</title>
<g id="a_edge42_Node000004_Node000013"><a xlink:title=" ">
<path fill="none" stroke="#63b8ff" d="M983.07,-387.78C1044.38,-381.3 1126.21,-367.48 1193,-338 1280.84,-299.23 1366.06,-220.66 1402.93,-184.07"/>
<polygon fill="#63b8ff" stroke="#63b8ff" points="982.62,-384.31 973.02,-388.8 983.32,-391.28 982.62,-384.31"/>
</a>
</g>
</g>
<!-- Node15 -->
<g id="Node000015" class="node">
<title>Node15</title>
<g id="a_Node000015"><a xlink:href="cutdg__operator_8hpp.html" target="_top" xlink:title=" ">
<polygon fill="white" stroke="#666666" points="1331,-184 1191,-184 1191,-143 1331,-143 1331,-184"/>
<text text-anchor="start" x="1199" y="-172" font-family="Helvetica,sans-Serif" font-size="10.00">include/meltpooldg</text>
<text text-anchor="start" x="1199" y="-161" font-family="Helvetica,sans-Serif" font-size="10.00">/compressible_flow/cutdg</text>
<text text-anchor="middle" x="1261" y="-150" font-family="Helvetica,sans-Serif" font-size="10.00">_operator.hpp</text>
</a>
</g>
</g>
<!-- Node4&#45;&gt;Node15 -->
<g id="edge31_Node000004_Node000015" class="edge">
<title>Node4&#45;&gt;Node15</title>
<g id="a_edge31_Node000004_Node000015"><a xlink:title=" ">
<path fill="none" stroke="#63b8ff" d="M983.3,-385.82C1065.19,-373.66 1182.12,-342.23 1243,-261 1259.76,-238.63 1262.43,-205.32 1262.19,-184.27"/>
<polygon fill="#63b8ff" stroke="#63b8ff" points="982.65,-382.38 973.24,-387.25 983.64,-389.31 982.65,-382.38"/>
</a>
</g>
</g>
<!-- Node17 -->
<g id="Node000017" class="node">
<title>Node17</title>
<g id="a_Node000017"><a xlink:href="cutdg__operation_8cpp.html" target="_top" xlink:title=" ">
<polygon fill="white" stroke="#666666" points="1431,-30 1287,-30 1287,0 1431,0 1431,-30"/>
<text text-anchor="start" x="1295" y="-18" font-family="Helvetica,sans-Serif" font-size="10.00">source/compressible</text>
<text text-anchor="middle" x="1359" y="-7" font-family="Helvetica,sans-Serif" font-size="10.00">_flow/cutdg_operation.cpp</text>
</a>
</g>
</g>
<!-- Node4&#45;&gt;Node17 -->
<g id="edge37_Node000004_Node000017" class="edge">
<title>Node4&#45;&gt;Node17</title>
<g id="a_edge37_Node000004_Node000017"><a xlink:title=" ">
<path fill="none" stroke="#63b8ff" d="M983.36,-391.66C1165.82,-385.48 1561,-358.59 1561,-241.5 1561,-241.5 1561,-241.5 1561,-162.5 1561,-118.41 1568.57,-97.77 1538,-66 1510.37,-37.29 1467.74,-24.64 1431.01,-19.24"/>
<polygon fill="#63b8ff" stroke="#63b8ff" points="983.13,-388.17 973.24,-391.99 983.35,-395.16 983.13,-388.17"/>
</a>
</g>
</g>
<!-- Node18 -->
<g id="Node000018" class="node">
<title>Node18</title>
<g id="a_Node000018"><a xlink:href="cutdg__operator_8cpp.html" target="_top" xlink:title=" ">
<polygon fill="white" stroke="#666666" points="1529,-101.5 1391,-101.5 1391,-71.5 1529,-71.5 1529,-101.5"/>
<text text-anchor="start" x="1399" y="-89.5" font-family="Helvetica,sans-Serif" font-size="10.00">source/compressible</text>
<text text-anchor="middle" x="1460" y="-78.5" font-family="Helvetica,sans-Serif" font-size="10.00">_flow/cutdg_operator.cpp</text>
</a>
</g>
</g>
<!-- Node4&#45;&gt;Node18 -->
<g id="edge38_Node000004_Node000018" class="edge">
<title>Node4&#45;&gt;Node18</title>
<g id="a_edge38_Node000004_Node000018"><a xlink:title=" ">
<path fill="none" stroke="#63b8ff" d="M983.71,-388.47C1055.76,-382.27 1158.16,-368.5 1243,-338 1369.74,-292.43 1437.21,-300.96 1504,-184 1513.04,-168.18 1509.99,-160.21 1504,-143 1498.42,-126.98 1486.07,-112.1 1475.87,-101.79"/>
<polygon fill="#63b8ff" stroke="#63b8ff" points="982.98,-385.02 973.3,-389.33 983.56,-391.99 982.98,-385.02"/>
</a>
</g>
</g>
<!-- Node19 -->
<g id="Node000019" class="node">
<title>Node19</title>
<g id="a_Node000019"><a xlink:href="multiphase__operator_8cpp.html" target="_top" xlink:title=" ">
<polygon fill="white" stroke="#666666" points="548,-178.5 382,-178.5 382,-148.5 548,-148.5 548,-178.5"/>
<text text-anchor="start" x="390" y="-166.5" font-family="Helvetica,sans-Serif" font-size="10.00">source/compressible</text>
<text text-anchor="middle" x="465" y="-155.5" font-family="Helvetica,sans-Serif" font-size="10.00">_flow/multiphase_operator.cpp</text>
</a>
</g>
</g>
<!-- Node4&#45;&gt;Node19 -->
<g id="edge44_Node000004_Node000019" class="edge">
<title>Node4&#45;&gt;Node19</title>
<g id="a_edge44_Node000004_Node000019"><a xlink:title=" ">
<path fill="none" stroke="#63b8ff" d="M802.66,-387.84C715.96,-380.82 592.66,-366.16 554,-338 498.45,-297.54 475.04,-212.15 467.72,-178.53"/>
<polygon fill="#63b8ff" stroke="#63b8ff" points="802.53,-391.34 812.77,-388.64 803.08,-384.37 802.53,-391.34"/>
</a>
</g>
</g>
<!-- Node5&#45;&gt;Node6 -->
<g id="edge6_Node000005_Node000006" class="edge">
<title>Node5&#45;&gt;Node6</title>
<g id="a_edge6_Node000005_Node000006"><a xlink:title=" ">
<path fill="none" stroke="#63b8ff" d="M810.41,-292.31C830.23,-282.2 852.96,-270.6 871.7,-261.04"/>
<polygon fill="#63b8ff" stroke="#63b8ff" points="808.56,-289.33 801.24,-296.99 811.74,-295.56 808.56,-289.33"/>
</a>
</g>
</g>
<!-- Node5&#45;&gt;Node10 -->
<g id="edge11_Node000005_Node000010" class="edge">
<title>Node5&#45;&gt;Node10</title>
<g id="a_edge11_Node000005_Node000010"><a xlink:title=" ">
<path fill="none" stroke="#63b8ff" d="M764.19,-286.69C764.54,-278.08 764.9,-268.9 765.22,-261.07"/>
<polygon fill="#63b8ff" stroke="#63b8ff" points="760.69,-286.66 763.79,-296.79 767.69,-286.94 760.69,-286.66"/>
</a>
</g>
</g>
<!-- Node5&#45;&gt;Node12 -->
<g id="edge15_Node000005_Node000012" class="edge">
<title>Node5&#45;&gt;Node12</title>
<g id="a_edge15_Node000005_Node000012"><a xlink:title=" ">
<path fill="none" stroke="#63b8ff" d="M857.05,-298.27C920.91,-285.9 1004.61,-269.68 1066.19,-257.74"/>
<polygon fill="#63b8ff" stroke="#63b8ff" points="856.12,-294.89 846.97,-300.23 857.46,-301.76 856.12,-294.89"/>
</a>
</g>
</g>
<!-- Node14 -->
<g id="Node000014" class="node">
<title>Node14</title>
<g id="a_Node000014"><a xlink:href="explicit__time__integration__utils_8hpp.html" target="_top" xlink:title=" ">
<polygon fill="white" stroke="#666666" points="685,-261 535,-261 535,-220 685,-220 685,-261"/>
<text text-anchor="start" x="543" y="-249" font-family="Helvetica,sans-Serif" font-size="10.00">include/meltpooldg</text>
<text text-anchor="start" x="543" y="-238" font-family="Helvetica,sans-Serif" font-size="10.00">/compressible_flow/explicit</text>
<text text-anchor="middle" x="610" y="-227" font-family="Helvetica,sans-Serif" font-size="10.00">_time_integration_utils.hpp</text>
</a>
</g>
</g>
<!-- Node5&#45;&gt;Node14 -->
<g id="edge19_Node000005_Node000014" class="edge">
<title>Node5&#45;&gt;Node14</title>
<g id="a_edge19_Node000005_Node000014"><a xlink:title=" ">
<path fill="none" stroke="#63b8ff" d="M714.21,-292.59C693.45,-282.41 669.54,-270.69 649.87,-261.04"/>
<polygon fill="#63b8ff" stroke="#63b8ff" points="712.68,-295.73 723.2,-296.99 715.76,-289.45 712.68,-295.73"/>
</a>
</g>
</g>
<!-- Node20 -->
<g id="Node000020" class="node">
<title>Node20</title>
<g id="a_Node000020"><a xlink:href="multiphase__operator_8hpp.html" target="_top" xlink:title=" ">
<polygon fill="white" stroke="#666666" points="403,-261 235,-261 235,-220 403,-220 403,-261"/>
<text text-anchor="start" x="243" y="-249" font-family="Helvetica,sans-Serif" font-size="10.00">include/meltpooldg</text>
<text text-anchor="start" x="243" y="-238" font-family="Helvetica,sans-Serif" font-size="10.00">/compressible_flow/multiphase</text>
<text text-anchor="middle" x="319" y="-227" font-family="Helvetica,sans-Serif" font-size="10.00">_operator.hpp</text>
</a>
</g>
</g>
<!-- Node5&#45;&gt;Node20 -->
<g id="edge27_Node000005_Node000020" class="edge">
<title>Node5&#45;&gt;Node20</title>
<g id="a_edge27_Node000005_Node000020"><a xlink:title=" ">
<path fill="none" stroke="#63b8ff" d="M669.57,-300.72C590.87,-287.42 479.27,-268.57 403.27,-255.73"/>
<polygon fill="#63b8ff" stroke="#63b8ff" points="669.04,-304.18 679.49,-302.39 670.21,-297.28 669.04,-304.18"/>
</a>
</g>
</g>
<!-- Node6&#45;&gt;Node7 -->
<g id="edge7_Node000006_Node000007" class="edge">
<title>Node6&#45;&gt;Node7</title>
<g id="a_edge7_Node000006_Node000007"><a xlink:title=" ">
<path fill="none" stroke="#63b8ff" d="M961.36,-215.72C983.41,-205.51 1008.86,-193.73 1029.79,-184.04"/>
<polygon fill="#63b8ff" stroke="#63b8ff" points="959.74,-212.61 952.14,-219.99 962.69,-218.97 959.74,-212.61"/>
</a>
</g>
</g>
<!-- Node6&#45;&gt;Node8 -->
<g id="edge9_Node000006_Node000008" class="edge">
<title>Node6&#45;&gt;Node8</title>
<g id="a_edge9_Node000006_Node000008"><a xlink:title=" ">
<path fill="none" stroke="#63b8ff" d="M851.83,-214.91C838.62,-206.84 825.88,-196.61 817,-184 799.4,-159.01 797.12,-121.79 797.35,-101.66"/>
<polygon fill="#63b8ff" stroke="#63b8ff" points="850.13,-217.97 860.55,-219.92 853.61,-211.9 850.13,-217.97"/>
</a>
</g>
</g>
<!-- Node6&#45;&gt;Node9 -->
<g id="edge10_Node000006_Node000009" class="edge">
<title>Node6&#45;&gt;Node9</title>
<g id="a_edge10_Node000006_Node000009"><a xlink:title=" ">
<path fill="none" stroke="#63b8ff" d="M909.6,-209.61C909.46,-199.01 909.31,-187.57 909.19,-178.86"/>
<polygon fill="#63b8ff" stroke="#63b8ff" points="906.1,-209.84 909.74,-219.79 913.1,-209.75 906.1,-209.84"/>
</a>
</g>
</g>
<!-- Node7&#45;&gt;Node8 -->
<g id="edge8_Node000007_Node000008" class="edge">
<title>Node7&#45;&gt;Node8</title>
<g id="a_edge8_Node000007_Node000008"><a xlink:title=" ">
<path fill="none" stroke="#63b8ff" d="M999.46,-142.58C942.98,-127.1 888.11,-112.11 849.31,-101.51"/>
<polygon fill="#63b8ff" stroke="#63b8ff" points="998.71,-146 1009.28,-145.27 1000.56,-139.25 998.71,-146"/>
</a>
</g>
</g>
<!-- Node10&#45;&gt;Node7 -->
<g id="edge12_Node000010_Node000007" class="edge">
<title>Node10&#45;&gt;Node7</title>
<g id="a_edge12_Node000010_Node000007"><a xlink:title=" ">
<path fill="none" stroke="#63b8ff" d="M839.26,-219.75C911.77,-202.23 932.08,-201.06 1001,-184 1003.73,-183.32 1006.51,-182.62 1009.33,-181.9"/>
<polygon fill="#63b8ff" stroke="#63b8ff" points="838.06,-216.44 829.17,-222.21 839.72,-223.24 838.06,-216.44"/>
</a>
</g>
</g>
<!-- Node10&#45;&gt;Node8 -->
<g id="edge13_Node000010_Node000008" class="edge">
<title>Node10&#45;&gt;Node8</title>
<g id="a_edge13_Node000010_Node000008"><a xlink:title=" ">
<path fill="none" stroke="#63b8ff" d="M771.02,-209.91C774.4,-190.76 779.11,-165.33 784,-143 787.11,-128.83 791.22,-112.77 794.19,-101.59"/>
<polygon fill="#63b8ff" stroke="#63b8ff" points="767.56,-209.38 769.3,-219.84 774.46,-210.58 767.56,-209.38"/>
</a>
</g>
</g>
<!-- Node10&#45;&gt;Node11 -->
<g id="edge14_Node000010_Node000011" class="edge">
<title>Node10&#45;&gt;Node11</title>
<g id="a_edge14_Node000010_Node000011"><a xlink:title=" ">
<path fill="none" stroke="#63b8ff" d="M727,-214.5C708.42,-202.59 686.88,-188.78 671.15,-178.7"/>
<polygon fill="#63b8ff" stroke="#63b8ff" points="725.26,-217.54 735.57,-219.99 729.04,-211.65 725.26,-217.54"/>
</a>
</g>
</g>
<!-- Node12&#45;&gt;Node7 -->
<g id="edge16_Node000012_Node000007" class="edge">
<title>Node12&#45;&gt;Node7</title>
<g id="a_edge16_Node000012_Node000007"><a xlink:title=" ">
<path fill="none" stroke="#63b8ff" d="M1122.22,-212.79C1112.37,-203.32 1101.47,-192.84 1092.36,-184.07"/>
<polygon fill="#63b8ff" stroke="#63b8ff" points="1119.87,-215.39 1129.51,-219.79 1124.72,-210.34 1119.87,-215.39"/>
</a>
</g>
</g>
<!-- Node12&#45;&gt;Node8 -->
<g id="edge17_Node000012_Node000008" class="edge">
<title>Node12&#45;&gt;Node8</title>
<g id="a_edge17_Node000012_Node000008"><a xlink:title=" ">
<path fill="none" stroke="#63b8ff" d="M1157.02,-209.64C1160.11,-188.41 1160.02,-160.65 1144,-143 1107.36,-102.62 952.39,-91.58 862.77,-88.59"/>
<polygon fill="#63b8ff" stroke="#63b8ff" points="1153.52,-209.3 1155.24,-219.76 1160.42,-210.51 1153.52,-209.3"/>
</a>
</g>
</g>
<!-- Node12&#45;&gt;Node13 -->
<g id="edge18_Node000012_Node000013" class="edge">
<title>Node12&#45;&gt;Node13</title>
<g id="a_edge18_Node000012_Node000013"><a xlink:title=" ">
<path fill="none" stroke="#63b8ff" d="M1230.82,-217.21C1269.04,-206.68 1314.26,-194.21 1351.13,-184.04"/>
<polygon fill="#63b8ff" stroke="#63b8ff" points="1229.46,-213.96 1220.75,-219.99 1231.33,-220.71 1229.46,-213.96"/>
</a>
</g>
</g>
<!-- Node14&#45;&gt;Node11 -->
<g id="edge25_Node000014_Node000011" class="edge">
<title>Node14&#45;&gt;Node11</title>
<g id="a_edge25_Node000014_Node000011"><a xlink:title=" ">
<path fill="none" stroke="#63b8ff" d="M625.03,-210.6C630.68,-199.73 636.86,-187.84 641.53,-178.86"/>
<polygon fill="#63b8ff" stroke="#63b8ff" points="621.76,-209.31 620.25,-219.79 627.97,-212.54 621.76,-209.31"/>
</a>
</g>
</g>
<!-- Node14&#45;&gt;Node15 -->
<g id="edge20_Node000014_Node000015" class="edge">
<title>Node14&#45;&gt;Node15</title>
<g id="a_edge20_Node000014_Node000015"><a xlink:title=" ">
<path fill="none" stroke="#63b8ff" d="M695.63,-219.87C894.05,-189.86 948.17,-208.11 1144,-184 1159.23,-182.13 1175.5,-179.69 1190.92,-177.18"/>
<polygon fill="#63b8ff" stroke="#63b8ff" points="694.81,-216.45 685.45,-221.43 695.87,-223.37 694.81,-216.45"/>
</a>
</g>
</g>
<!-- Node14&#45;&gt;Node19 -->
<g id="edge26_Node000014_Node000019" class="edge">
<title>Node14&#45;&gt;Node19</title>
<g id="a_edge26_Node000014_Node000019"><a xlink:title=" ">
<path fill="none" stroke="#63b8ff" d="M563.22,-215.3C539.85,-203.22 512.39,-189.01 492.45,-178.7"/>
<polygon fill="#63b8ff" stroke="#63b8ff" points="561.79,-218.5 572.28,-219.99 565.01,-212.29 561.79,-218.5"/>
</a>
</g>
</g>
<!-- Node16 -->
<g id="Node000016" class="node">
<title>Node16</title>
<g id="a_Node000016"><a xlink:href="cutdg__operation_8hpp.html" target="_top" xlink:title=" ">
<polygon fill="white" stroke="#666666" points="1331,-107 1191,-107 1191,-66 1331,-66 1331,-107"/>
<text text-anchor="start" x="1199" y="-95" font-family="Helvetica,sans-Serif" font-size="10.00">include/meltpooldg</text>
<text text-anchor="start" x="1199" y="-84" font-family="Helvetica,sans-Serif" font-size="10.00">/compressible_flow/cutdg</text>
<text text-anchor="middle" x="1261" y="-73" font-family="Helvetica,sans-Serif" font-size="10.00">_operation.hpp</text>
</a>
</g>
</g>
<!-- Node15&#45;&gt;Node16 -->
<g id="edge21_Node000015_Node000016" class="edge">
<title>Node15&#45;&gt;Node16</title>
<g id="a_edge21_Node000015_Node000016"><a xlink:title=" ">
<path fill="none" stroke="#63b8ff" d="M1261,-132.69C1261,-124.08 1261,-114.9 1261,-107.07"/>
<polygon fill="#63b8ff" stroke="#63b8ff" points="1257.5,-132.79 1261,-142.79 1264.5,-132.79 1257.5,-132.79"/>
</a>
</g>
</g>
<!-- Node15&#45;&gt;Node17 -->
<g id="edge23_Node000015_Node000017" class="edge">
<title>Node15&#45;&gt;Node17</title>
<g id="a_edge23_Node000015_Node000017"><a xlink:title=" ">
<path fill="none" stroke="#63b8ff" d="M1309.05,-137.31C1320.75,-129.09 1332.14,-118.94 1340,-107 1355.62,-83.27 1358.74,-49.16 1359.17,-30.15"/>
<polygon fill="#63b8ff" stroke="#63b8ff" points="1306.93,-134.51 1300.52,-142.95 1310.79,-140.35 1306.93,-134.51"/>
</a>
</g>
</g>
<!-- Node15&#45;&gt;Node18 -->
<g id="edge24_Node000015_Node000018" class="edge">
<title>Node15&#45;&gt;Node18</title>
<g id="a_edge24_Node000015_Node000018"><a xlink:title=" ">
<path fill="none" stroke="#63b8ff" d="M1322.27,-139.41C1355.07,-127.05 1394.41,-112.22 1422.63,-101.58"/>
<polygon fill="#63b8ff" stroke="#63b8ff" points="1320.89,-136.19 1312.77,-142.99 1323.36,-142.74 1320.89,-136.19"/>
</a>
</g>
</g>
<!-- Node16&#45;&gt;Node17 -->
<g id="edge22_Node000016_Node000017" class="edge">
<title>Node16&#45;&gt;Node17</title>
<g id="a_edge22_Node000016_Node000017"><a xlink:title=" ">
<path fill="none" stroke="#63b8ff" d="M1296.74,-60.15C1311.03,-50.02 1326.94,-38.74 1339.1,-30.11"/>
<polygon fill="#63b8ff" stroke="#63b8ff" points="1294.69,-57.32 1288.56,-65.96 1298.74,-63.03 1294.69,-57.32"/>
</a>
</g>
</g>
<!-- Node20&#45;&gt;Node2 -->
<g id="edge28_Node000020_Node000002" class="edge">
<title>Node20&#45;&gt;Node2</title>
<g id="a_edge28_Node000020_Node000002"><a xlink:title=" ">
<path fill="none" stroke="#63b8ff" d="M248.33,-216.94C215.49,-206.46 176.81,-194.12 145.23,-184.04"/>
<polygon fill="#63b8ff" stroke="#63b8ff" points="247.28,-220.28 257.87,-219.99 249.41,-213.62 247.28,-220.28"/>
</a>
</g>
</g>
<!-- Node20&#45;&gt;Node3 -->
<g id="edge29_Node000020_Node000003" class="edge">
<title>Node20&#45;&gt;Node3</title>
<g id="a_edge29_Node000020_Node000003"><a xlink:title=" ">
<path fill="none" stroke="#63b8ff" d="M299.53,-211.32C277.04,-178.76 240.92,-126.47 223.72,-101.57"/>
<polygon fill="#63b8ff" stroke="#63b8ff" points="296.92,-213.7 305.49,-219.94 302.68,-209.72 296.92,-213.7"/>
</a>
</g>
</g>
<!-- Node20&#45;&gt;Node19 -->
<g id="edge30_Node000020_Node000019" class="edge">
<title>Node20&#45;&gt;Node19</title>
<g id="a_edge30_Node000020_Node000019"><a xlink:title=" ">
<path fill="none" stroke="#63b8ff" d="M366.1,-215.3C389.63,-203.22 417.28,-189.01 437.36,-178.7"/>
<polygon fill="#63b8ff" stroke="#63b8ff" points="364.27,-212.31 356.98,-219.99 367.47,-218.53 364.27,-212.31"/>
</a>
</g>
</g>
</g>
</svg>
