<?xml version="1.0" encoding="UTF-8" standalone="no"?>
<!DOCTYPE svg PUBLIC "-//W3C//DTD SVG 1.1//EN"
 "http://www.w3.org/Graphics/SVG/1.1/DTD/svg11.dtd">
<!-- Generated by graphviz version 2.43.0 (0)
 -->
<!-- Title: include/meltpooldg/compressible_flow/phase_coupling_data.hpp Pages: 1 -->
<!--zoomable 500 -->

<svg id="main" version="1.1" xmlns="http://www.w3.org/2000/svg" xmlns:xlink="http://www.w3.org/1999/xlink" xml:space="preserve" onload="init(evt)">
<style type="text/css"><![CDATA[
.node, .edge {opacity: 0.7;}
.node.selected, .edge.selected {opacity: 1;}
.edge:hover path { stroke: red; }
.edge:hover polygon { stroke: red; fill: red; }
]]></style>

<defs>
  <circle id="rim" cx="0" cy="0" r="7"/>
  <circle id="rim2" cx="0" cy="0" r="3.5"/>
  <g id="zoomPlus">
    <use xlink:href="#rim" fill="#404040"><set attributeName="fill" to="#808080" begin="zoomplus.mouseover" end="zoomplus.mouseout"/></use>
    <path d="M-4,0h8M0,-4v8" fill="none" stroke="white" stroke-width="1.5" pointer-events="none"/>
  </g>
  <g id="zoomMin">
    <use xlink:href="#rim" fill="#404040"><set attributeName="fill" to="#808080" begin="zoomminus.mouseover" end="zoomminus.mouseout"/></use>
    <path d="M-4,0h8" fill="none" stroke="white" stroke-width="1.5" pointer-events="none"/>
  </g>
  <g id="arrowUp" transform="translate(30 24)">
    <use xlink:href="#rim"/>
    <path pointer-events="none" fill="none" stroke="white" stroke-width="1.5" d="M0,-3.0v7 M-2.5,-0.5L0,-3.0L2.5,-0.5"/>
  </g>
  <g id="arrowRight" transform="rotate(90) translate(36 -43)">
    <use xlink:href="#rim"/>
    <path pointer-events="none" fill="none" stroke="white" stroke-width="1.5" d="M0,-3.0v7 M-2.5,-0.5L0,-3.0L2.5,-0.5"/>
  </g>
  <g id="arrowDown" transform="rotate(180) translate(-30 -48)">
    <use xlink:href="#rim"/>
    <path pointer-events="none" fill="none" stroke="white" stroke-width="1.5" d="M0,-3.0v7 M-2.5,-0.5L0,-3.0L2.5,-0.5"/>
  </g>
  <g id="arrowLeft" transform="rotate(270) translate(-36 17)">
    <use xlink:href="#rim"/>
    <path pointer-events="none" fill="none" stroke="white" stroke-width="1.5" d="M0,-3.0v7 M-2.5,-0.5L0,-3.0L2.5,-0.5"/>
  </g>
  <g id="resetDef">
    <use xlink:href="#rim2" fill="#404040"><set attributeName="fill" to="#808080" begin="reset.mouseover" end="reset.mouseout"/></use>
  </g>
</defs>
<script type="application/ecmascript">
var viewWidth = 1595;
var viewHeight = 500;
var sectionId = 'dynsection-1';
</script>
<script type="application/ecmascript" xlink:href="svg.min.js"/>
<svg id="graph" class="graph">
<g id="viewport">
<title>include/meltpooldg/compressible_flow/phase_coupling_data.hpp</title>
<!-- Node1 -->
<g id="Node000001" class="node">
<title>Node1</title>
<g id="a_Node000001"><a xlink:title=" ">
<polygon fill="#999999" stroke="#666666" points="737.5,-492 594.5,-492 594.5,-451 737.5,-451 737.5,-492"/>
<text text-anchor="start" x="602.5" y="-480" font-family="Helvetica,sans-Serif" font-size="10.00">include/meltpooldg</text>
<text text-anchor="start" x="602.5" y="-469" font-family="Helvetica,sans-Serif" font-size="10.00">/compressible_flow/phase</text>
<text text-anchor="middle" x="666" y="-458" font-family="Helvetica,sans-Serif" font-size="10.00">_coupling_data.hpp</text>
</a>
</g>
</g>
<!-- Node2 -->
<g id="Node000002" class="node">
<title>Node2</title>
<g id="a_Node000002"><a xlink:href="convective__kernels_8hpp.html" target="_top" xlink:title=" ">
<polygon fill="white" stroke="#666666" points="749.5,-338 582.5,-338 582.5,-297 749.5,-297 749.5,-338"/>
<text text-anchor="start" x="590.5" y="-326" font-family="Helvetica,sans-Serif" font-size="10.00">include/meltpooldg</text>
<text text-anchor="start" x="590.5" y="-315" font-family="Helvetica,sans-Serif" font-size="10.00">/compressible_flow/convective</text>
<text text-anchor="middle" x="666" y="-304" font-family="Helvetica,sans-Serif" font-size="10.00">_kernels.hpp</text>
</a>
</g>
</g>
<!-- Node1&#45;&gt;Node2 -->
<g id="edge1_Node000001_Node000002" class="edge">
<title>Node1&#45;&gt;Node2</title>
<g id="a_edge1_Node000001_Node000002"><a xlink:title=" ">
<path fill="none" stroke="#63b8ff" d="M666,-440.58C666,-410.36 666,-364.53 666,-338.47"/>
<polygon fill="#63b8ff" stroke="#63b8ff" points="662.5,-440.94 666,-450.94 669.5,-440.94 662.5,-440.94"/>
</a>
</g>
</g>
<!-- Node19 -->
<g id="Node000019" class="node">
<title>Node19</title>
<g id="a_Node000019"><a xlink:href="multiphase__operation_8cpp.html" target="_top" xlink:title=" ">
<polygon fill="white" stroke="#666666" points="272,-101.5 100,-101.5 100,-71.5 272,-71.5 272,-101.5"/>
<text text-anchor="start" x="108" y="-89.5" font-family="Helvetica,sans-Serif" font-size="10.00">source/compressible</text>
<text text-anchor="middle" x="186" y="-78.5" font-family="Helvetica,sans-Serif" font-size="10.00">_flow/multiphase_operation.cpp</text>
</a>
</g>
</g>
<!-- Node1&#45;&gt;Node19 -->
<g id="edge45_Node000001_Node000019" class="edge">
<title>Node1&#45;&gt;Node19</title>
<g id="a_edge45_Node000001_Node000019"><a xlink:title=" ">
<path fill="none" stroke="#63b8ff" d="M584.32,-468.89C406.46,-463.16 0,-437.09 0,-318.5 0,-318.5 0,-318.5 0,-239.5 0,-191.79 12.05,-175.47 47,-143 68.41,-123.1 97.85,-109.97 124.12,-101.51"/>
<polygon fill="#63b8ff" stroke="#63b8ff" points="584.31,-472.39 594.41,-469.2 584.52,-465.39 584.31,-472.39"/>
</a>
</g>
</g>
<!-- Node20 -->
<g id="Node000020" class="node">
<title>Node20</title>
<g id="a_Node000020"><a xlink:href="operation__scratch__data_8hpp.html" target="_top" xlink:title=" ">
<polygon fill="white" stroke="#666666" points="876,-415 716,-415 716,-374 876,-374 876,-415"/>
<text text-anchor="start" x="724" y="-403" font-family="Helvetica,sans-Serif" font-size="10.00">include/meltpooldg</text>
<text text-anchor="start" x="724" y="-392" font-family="Helvetica,sans-Serif" font-size="10.00">/compressible_flow/operation</text>
<text text-anchor="middle" x="796" y="-381" font-family="Helvetica,sans-Serif" font-size="10.00">_scratch_data.hpp</text>
</a>
</g>
</g>
<!-- Node1&#45;&gt;Node20 -->
<g id="edge29_Node000001_Node000020" class="edge">
<title>Node1&#45;&gt;Node20</title>
<g id="a_edge29_Node000001_Node000020"><a xlink:title=" ">
<path fill="none" stroke="#63b8ff" d="M708.61,-445.92C725.89,-435.95 745.59,-424.58 761.9,-415.17"/>
<polygon fill="#63b8ff" stroke="#63b8ff" points="706.73,-442.96 699.82,-450.99 710.23,-449.02 706.73,-442.96"/>
</a>
</g>
</g>
<!-- Node3 -->
<g id="Node000003" class="node">
<title>Node3</title>
<g id="a_Node000003"><a xlink:href="dg__operator__explicit_8hpp.html" target="_top" xlink:title=" ">
<polygon fill="white" stroke="#666666" points="416.5,-261 291.5,-261 291.5,-220 416.5,-220 416.5,-261"/>
<text text-anchor="start" x="299.5" y="-249" font-family="Helvetica,sans-Serif" font-size="10.00">include/meltpooldg</text>
<text text-anchor="start" x="299.5" y="-238" font-family="Helvetica,sans-Serif" font-size="10.00">/compressible_flow/dg</text>
<text text-anchor="middle" x="354" y="-227" font-family="Helvetica,sans-Serif" font-size="10.00">_operator_explicit.hpp</text>
</a>
</g>
</g>
<!-- Node2&#45;&gt;Node3 -->
<g id="edge2_Node000002_Node000003" class="edge">
<title>Node2&#45;&gt;Node3</title>
<g id="a_edge2_Node000002_Node000003"><a xlink:title=" ">
<path fill="none" stroke="#63b8ff" d="M572.32,-295.69C527.89,-285.6 474.11,-273.07 426,-261 422.99,-260.24 419.9,-259.46 416.79,-258.65"/>
<polygon fill="#63b8ff" stroke="#63b8ff" points="571.71,-299.14 582.24,-297.93 573.26,-292.31 571.71,-299.14"/>
</a>
</g>
</g>
<!-- Node7 -->
<g id="Node000007" class="node">
<title>Node7</title>
<g id="a_Node000007"><a xlink:href="dg__operator__implicit_8hpp.html" target="_top" xlink:title=" ">
<polygon fill="white" stroke="#666666" points="969,-261 843,-261 843,-220 969,-220 969,-261"/>
<text text-anchor="start" x="851" y="-249" font-family="Helvetica,sans-Serif" font-size="10.00">include/meltpooldg</text>
<text text-anchor="start" x="851" y="-238" font-family="Helvetica,sans-Serif" font-size="10.00">/compressible_flow/dg</text>
<text text-anchor="middle" x="906" y="-227" font-family="Helvetica,sans-Serif" font-size="10.00">_operator_implicit.hpp</text>
</a>
</g>
</g>
<!-- Node2&#45;&gt;Node7 -->
<g id="edge7_Node000002_Node000007" class="edge">
<title>Node2&#45;&gt;Node7</title>
<g id="a_edge7_Node000002_Node000007"><a xlink:title=" ">
<path fill="none" stroke="#63b8ff" d="M738.18,-293.94C771.72,-283.46 811.22,-271.12 843.47,-261.04"/>
<polygon fill="#63b8ff" stroke="#63b8ff" points="736.93,-290.67 728.43,-296.99 739.02,-297.35 736.93,-290.67"/>
</a>
</g>
</g>
<!-- Node9 -->
<g id="Node000009" class="node">
<title>Node9</title>
<g id="a_Node000009"><a xlink:href="dg__operator__implicit__explicit_8hpp.html" target="_top" xlink:title=" ">
<polygon fill="white" stroke="#666666" points="787.5,-261 620.5,-261 620.5,-220 787.5,-220 787.5,-261"/>
<text text-anchor="start" x="628.5" y="-249" font-family="Helvetica,sans-Serif" font-size="10.00">include/meltpooldg</text>
<text text-anchor="start" x="628.5" y="-238" font-family="Helvetica,sans-Serif" font-size="10.00">/compressible_flow/dg</text>
<text text-anchor="middle" x="704" y="-227" font-family="Helvetica,sans-Serif" font-size="10.00">_operator_implicit_explicit.hpp</text>
</a>
</g>
</g>
<!-- Node2&#45;&gt;Node9 -->
<g id="edge11_Node000002_Node000009" class="edge">
<title>Node2&#45;&gt;Node9</title>
<g id="a_edge11_Node000002_Node000009"><a xlink:title=" ">
<path fill="none" stroke="#63b8ff" d="M680.53,-287.83C685.06,-278.89 689.95,-269.24 694.08,-261.07"/>
<polygon fill="#63b8ff" stroke="#63b8ff" points="677.38,-286.29 675.98,-296.79 683.63,-289.46 677.38,-286.29"/>
</a>
</g>
</g>
<!-- Node11 -->
<g id="Node000011" class="node">
<title>Node11</title>
<g id="a_Node000011"><a xlink:href="explicit__time__integration__utils_8hpp.html" target="_top" xlink:title=" ">
<polygon fill="white" stroke="#666666" points="1175,-261 1025,-261 1025,-220 1175,-220 1175,-261"/>
<text text-anchor="start" x="1033" y="-249" font-family="Helvetica,sans-Serif" font-size="10.00">include/meltpooldg</text>
<text text-anchor="start" x="1033" y="-238" font-family="Helvetica,sans-Serif" font-size="10.00">/compressible_flow/explicit</text>
<text text-anchor="middle" x="1100" y="-227" font-family="Helvetica,sans-Serif" font-size="10.00">_time_integration_utils.hpp</text>
</a>
</g>
</g>
<!-- Node2&#45;&gt;Node11 -->
<g id="edge15_Node000002_Node000011" class="edge">
<title>Node2&#45;&gt;Node11</title>
<g id="a_edge15_Node000002_Node000011"><a xlink:title=" ">
<path fill="none" stroke="#63b8ff" d="M759.68,-300.31C839.04,-286.6 951.35,-267.19 1024.91,-254.48"/>
<polygon fill="#63b8ff" stroke="#63b8ff" points="758.94,-296.89 749.68,-302.04 760.13,-303.79 758.94,-296.89"/>
</a>
</g>
</g>
<!-- Node17 -->
<g id="Node000017" class="node">
<title>Node17</title>
<g id="a_Node000017"><a xlink:href="multiphase__operator_8hpp.html" target="_top" xlink:title=" ">
<polygon fill="white" stroke="#666666" points="603,-261 435,-261 435,-220 603,-220 603,-261"/>
<text text-anchor="start" x="443" y="-249" font-family="Helvetica,sans-Serif" font-size="10.00">include/meltpooldg</text>
<text text-anchor="start" x="443" y="-238" font-family="Helvetica,sans-Serif" font-size="10.00">/compressible_flow/multiphase</text>
<text text-anchor="middle" x="519" y="-227" font-family="Helvetica,sans-Serif" font-size="10.00">_operator.hpp</text>
</a>
</g>
</g>
<!-- Node2&#45;&gt;Node17 -->
<g id="edge23_Node000002_Node000017" class="edge">
<title>Node2&#45;&gt;Node17</title>
<g id="a_edge23_Node000002_Node000017"><a xlink:title=" ">
<path fill="none" stroke="#63b8ff" d="M618.59,-292.31C598.77,-282.2 576.04,-270.6 557.3,-261.04"/>
<polygon fill="#63b8ff" stroke="#63b8ff" points="617.26,-295.56 627.76,-296.99 620.44,-289.33 617.26,-295.56"/>
</a>
</g>
</g>
<!-- Node4 -->
<g id="Node000004" class="node">
<title>Node4</title>
<g id="a_Node000004"><a xlink:href="dg__operation_8hpp.html" target="_top" xlink:title=" ">
<polygon fill="white" stroke="#666666" points="857.5,-184 732.5,-184 732.5,-143 857.5,-143 857.5,-184"/>
<text text-anchor="start" x="740.5" y="-172" font-family="Helvetica,sans-Serif" font-size="10.00">include/meltpooldg</text>
<text text-anchor="start" x="740.5" y="-161" font-family="Helvetica,sans-Serif" font-size="10.00">/compressible_flow/dg</text>
<text text-anchor="middle" x="795" y="-150" font-family="Helvetica,sans-Serif" font-size="10.00">_operation.hpp</text>
</a>
</g>
</g>
<!-- Node3&#45;&gt;Node4 -->
<g id="edge3_Node000003_Node000004" class="edge">
<title>Node3&#45;&gt;Node4</title>
<g id="a_edge3_Node000003_Node000004"><a xlink:title=" ">
<path fill="none" stroke="#63b8ff" d="M426.61,-220.01C541.59,-197.04 573.35,-201.65 685,-184 700.33,-181.58 716.81,-178.76 732.24,-176.04"/>
<polygon fill="#63b8ff" stroke="#63b8ff" points="425.82,-216.6 416.72,-222.01 427.21,-223.46 425.82,-216.6"/>
</a>
</g>
</g>
<!-- Node5 -->
<g id="Node000005" class="node">
<title>Node5</title>
<g id="a_Node000005"><a xlink:href="dg__operation_8cpp.html" target="_top" xlink:title=" ">
<polygon fill="white" stroke="#666666" points="859.5,-101.5 730.5,-101.5 730.5,-71.5 859.5,-71.5 859.5,-101.5"/>
<text text-anchor="start" x="738.5" y="-89.5" font-family="Helvetica,sans-Serif" font-size="10.00">source/compressible</text>
<text text-anchor="middle" x="795" y="-78.5" font-family="Helvetica,sans-Serif" font-size="10.00">_flow/dg_operation.cpp</text>
</a>
</g>
</g>
<!-- Node3&#45;&gt;Node5 -->
<g id="edge5_Node000003_Node000005" class="edge">
<title>Node3&#45;&gt;Node5</title>
<g id="a_edge5_Node000003_Node000005"><a xlink:title=" ">
<path fill="none" stroke="#63b8ff" d="M395.5,-214.58C440.57,-187.67 507.9,-147.96 521,-143 590,-116.88 673.65,-102.21 730.24,-94.6"/>
<polygon fill="#63b8ff" stroke="#63b8ff" points="393.59,-211.64 386.81,-219.78 397.19,-217.65 393.59,-211.64"/>
</a>
</g>
</g>
<!-- Node6 -->
<g id="Node000006" class="node">
<title>Node6</title>
<g id="a_Node000006"><a xlink:href="dg__operator__explicit_8cpp.html" target="_top" xlink:title=" ">
<polygon fill="white" stroke="#666666" points="231.5,-178.5 66.5,-178.5 66.5,-148.5 231.5,-148.5 231.5,-178.5"/>
<text text-anchor="start" x="74.5" y="-166.5" font-family="Helvetica,sans-Serif" font-size="10.00">source/compressible</text>
<text text-anchor="middle" x="149" y="-155.5" font-family="Helvetica,sans-Serif" font-size="10.00">_flow/dg_operator_explicit.cpp</text>
</a>
</g>
</g>
<!-- Node3&#45;&gt;Node6 -->
<g id="edge6_Node000003_Node000006" class="edge">
<title>Node3&#45;&gt;Node6</title>
<g id="a_edge6_Node000003_Node000006"><a xlink:title=" ">
<path fill="none" stroke="#63b8ff" d="M290.88,-216.41C257.09,-204.05 216.56,-189.22 187.49,-178.58"/>
<polygon fill="#63b8ff" stroke="#63b8ff" points="290.08,-219.84 300.67,-219.99 292.49,-213.27 290.08,-219.84"/>
</a>
</g>
</g>
<!-- Node4&#45;&gt;Node5 -->
<g id="edge4_Node000004_Node000005" class="edge">
<title>Node4&#45;&gt;Node5</title>
<g id="a_edge4_Node000004_Node000005"><a xlink:title=" ">
<path fill="none" stroke="#63b8ff" d="M795,-132.61C795,-122.01 795,-110.57 795,-101.86"/>
<polygon fill="#63b8ff" stroke="#63b8ff" points="791.5,-132.79 795,-142.79 798.5,-132.79 791.5,-132.79"/>
</a>
</g>
</g>
<!-- Node7&#45;&gt;Node4 -->
<g id="edge8_Node000007_Node000004" class="edge">
<title>Node7&#45;&gt;Node4</title>
<g id="a_edge8_Node000007_Node000004"><a xlink:title=" ">
<path fill="none" stroke="#63b8ff" d="M868.81,-214.37C854.24,-204.53 837.79,-193.41 824.12,-184.17"/>
<polygon fill="#63b8ff" stroke="#63b8ff" points="866.88,-217.29 877.13,-219.99 870.8,-211.49 866.88,-217.29"/>
</a>
</g>
</g>
<!-- Node7&#45;&gt;Node5 -->
<g id="edge9_Node000007_Node000005" class="edge">
<title>Node7&#45;&gt;Node5</title>
<g id="a_edge9_Node000007_Node000005"><a xlink:title=" ">
<path fill="none" stroke="#63b8ff" d="M898.58,-210.19C892.44,-189.91 882.23,-163.07 867,-143 854.12,-126.03 834.8,-111.52 819.42,-101.6"/>
<polygon fill="#63b8ff" stroke="#63b8ff" points="895.23,-211.19 901.35,-219.84 901.96,-209.26 895.23,-211.19"/>
</a>
</g>
</g>
<!-- Node8 -->
<g id="Node000008" class="node">
<title>Node8</title>
<g id="a_Node000008"><a xlink:href="dg__operator__implicit_8cpp.html" target="_top" xlink:title=" ">
<polygon fill="white" stroke="#666666" points="1080,-178.5 914,-178.5 914,-148.5 1080,-148.5 1080,-178.5"/>
<text text-anchor="start" x="922" y="-166.5" font-family="Helvetica,sans-Serif" font-size="10.00">source/compressible</text>
<text text-anchor="middle" x="997" y="-155.5" font-family="Helvetica,sans-Serif" font-size="10.00">_flow/dg_operator_implicit.cpp</text>
</a>
</g>
</g>
<!-- Node7&#45;&gt;Node8 -->
<g id="edge10_Node000007_Node000008" class="edge">
<title>Node7&#45;&gt;Node8</title>
<g id="a_edge10_Node000007_Node000008"><a xlink:title=" ">
<path fill="none" stroke="#63b8ff" d="M937.95,-213.17C952.05,-201.55 968.07,-188.34 979.86,-178.63"/>
<polygon fill="#63b8ff" stroke="#63b8ff" points="935.4,-210.73 929.91,-219.79 939.85,-216.14 935.4,-210.73"/>
</a>
</g>
</g>
<!-- Node9&#45;&gt;Node4 -->
<g id="edge12_Node000009_Node000004" class="edge">
<title>Node9&#45;&gt;Node4</title>
<g id="a_edge12_Node000009_Node000004"><a xlink:title=" ">
<path fill="none" stroke="#63b8ff" d="M735.73,-213.35C747.4,-203.73 760.4,-193.01 771.25,-184.07"/>
<polygon fill="#63b8ff" stroke="#63b8ff" points="733.4,-210.73 727.91,-219.79 737.85,-216.14 733.4,-210.73"/>
</a>
</g>
</g>
<!-- Node9&#45;&gt;Node5 -->
<g id="edge13_Node000009_Node000005" class="edge">
<title>Node9&#45;&gt;Node5</title>
<g id="a_edge13_Node000009_Node000005"><a xlink:title=" ">
<path fill="none" stroke="#63b8ff" d="M704.88,-209.75C706.69,-189.6 711.53,-163.08 724,-143 734.9,-125.46 753.43,-111.25 768.83,-101.6"/>
<polygon fill="#63b8ff" stroke="#63b8ff" points="701.38,-209.71 704.17,-219.93 708.36,-210.19 701.38,-209.71"/>
</a>
</g>
</g>
<!-- Node10 -->
<g id="Node000010" class="node">
<title>Node10</title>
<g id="a_Node000010"><a xlink:href="dg__operator__implicit__explicit_8cpp.html" target="_top" xlink:title=" ">
<polygon fill="white" stroke="#666666" points="676,-184 530,-184 530,-143 676,-143 676,-184"/>
<text text-anchor="start" x="538" y="-172" font-family="Helvetica,sans-Serif" font-size="10.00">source/compressible</text>
<text text-anchor="start" x="538" y="-161" font-family="Helvetica,sans-Serif" font-size="10.00">_flow/dg_operator_implicit</text>
<text text-anchor="middle" x="603" y="-150" font-family="Helvetica,sans-Serif" font-size="10.00">_explicit.cpp</text>
</a>
</g>
</g>
<!-- Node9&#45;&gt;Node10 -->
<g id="edge14_Node000009_Node000010" class="edge">
<title>Node9&#45;&gt;Node10</title>
<g id="a_edge14_Node000009_Node000010"><a xlink:title=" ">
<path fill="none" stroke="#63b8ff" d="M669.41,-213.82C656.35,-204.11 641.7,-193.24 629.49,-184.17"/>
<polygon fill="#63b8ff" stroke="#63b8ff" points="667.61,-216.84 677.73,-219.99 671.79,-211.22 667.61,-216.84"/>
</a>
</g>
</g>
<!-- Node11&#45;&gt;Node8 -->
<g id="edge21_Node000011_Node000008" class="edge">
<title>Node11&#45;&gt;Node8</title>
<g id="a_edge21_Node000011_Node000008"><a xlink:title=" ">
<path fill="none" stroke="#63b8ff" d="M1065,-214.01C1048.8,-202.22 1030.16,-188.65 1016.5,-178.7"/>
<polygon fill="#63b8ff" stroke="#63b8ff" points="1063.06,-216.93 1073.21,-219.99 1067.18,-211.27 1063.06,-216.93"/>
</a>
</g>
</g>
<!-- Node12 -->
<g id="Node000012" class="node">
<title>Node12</title>
<g id="a_Node000012"><a xlink:href="cutdg__operator_8hpp.html" target="_top" xlink:title=" ">
<polygon fill="white" stroke="#666666" points="1460,-184 1320,-184 1320,-143 1460,-143 1460,-184"/>
<text text-anchor="start" x="1328" y="-172" font-family="Helvetica,sans-Serif" font-size="10.00">include/meltpooldg</text>
<text text-anchor="start" x="1328" y="-161" font-family="Helvetica,sans-Serif" font-size="10.00">/compressible_flow/cutdg</text>
<text text-anchor="middle" x="1390" y="-150" font-family="Helvetica,sans-Serif" font-size="10.00">_operator.hpp</text>
</a>
</g>
</g>
<!-- Node11&#45;&gt;Node12 -->
<g id="edge16_Node000011_Node000012" class="edge">
<title>Node11&#45;&gt;Node12</title>
<g id="a_edge16_Node000011_Node000012"><a xlink:title=" ">
<path fill="none" stroke="#63b8ff" d="M1184.91,-217.54C1227.77,-206.46 1279.13,-193.17 1319.74,-182.67"/>
<polygon fill="#63b8ff" stroke="#63b8ff" points="1183.86,-214.2 1175.06,-220.09 1185.62,-220.97 1183.86,-214.2"/>
</a>
</g>
</g>
<!-- Node16 -->
<g id="Node000016" class="node">
<title>Node16</title>
<g id="a_Node000016"><a xlink:href="multiphase__operator_8cpp.html" target="_top" xlink:title=" ">
<polygon fill="white" stroke="#666666" points="1264,-178.5 1098,-178.5 1098,-148.5 1264,-148.5 1264,-178.5"/>
<text text-anchor="start" x="1106" y="-166.5" font-family="Helvetica,sans-Serif" font-size="10.00">source/compressible</text>
<text text-anchor="middle" x="1181" y="-155.5" font-family="Helvetica,sans-Serif" font-size="10.00">_flow/multiphase_operator.cpp</text>
</a>
</g>
</g>
<!-- Node11&#45;&gt;Node16 -->
<g id="edge22_Node000011_Node000016" class="edge">
<title>Node11&#45;&gt;Node16</title>
<g id="a_edge22_Node000011_Node000016"><a xlink:title=" ">
<path fill="none" stroke="#63b8ff" d="M1128.79,-212.84C1141.26,-201.3 1155.35,-188.25 1165.74,-178.63"/>
<polygon fill="#63b8ff" stroke="#63b8ff" points="1126.24,-210.43 1121.28,-219.79 1131,-215.57 1126.24,-210.43"/>
</a>
</g>
</g>
<!-- Node13 -->
<g id="Node000013" class="node">
<title>Node13</title>
<g id="a_Node000013"><a xlink:href="cutdg__operation_8hpp.html" target="_top" xlink:title=" ">
<polygon fill="white" stroke="#666666" points="1362,-107 1222,-107 1222,-66 1362,-66 1362,-107"/>
<text text-anchor="start" x="1230" y="-95" font-family="Helvetica,sans-Serif" font-size="10.00">include/meltpooldg</text>
<text text-anchor="start" x="1230" y="-84" font-family="Helvetica,sans-Serif" font-size="10.00">/compressible_flow/cutdg</text>
<text text-anchor="middle" x="1292" y="-73" font-family="Helvetica,sans-Serif" font-size="10.00">_operation.hpp</text>
</a>
</g>
</g>
<!-- Node12&#45;&gt;Node13 -->
<g id="edge17_Node000012_Node000013" class="edge">
<title>Node12&#45;&gt;Node13</title>
<g id="a_edge17_Node000012_Node000013"><a xlink:title=" ">
<path fill="none" stroke="#63b8ff" d="M1356.44,-136.82C1343.76,-127.11 1329.55,-116.24 1317.71,-107.17"/>
<polygon fill="#63b8ff" stroke="#63b8ff" points="1354.44,-139.69 1364.51,-142.99 1358.69,-134.13 1354.44,-139.69"/>
</a>
</g>
</g>
<!-- Node14 -->
<g id="Node000014" class="node">
<title>Node14</title>
<g id="a_Node000014"><a xlink:href="cutdg__operation_8cpp.html" target="_top" xlink:title=" ">
<polygon fill="white" stroke="#666666" points="1462,-30 1318,-30 1318,0 1462,0 1462,-30"/>
<text text-anchor="start" x="1326" y="-18" font-family="Helvetica,sans-Serif" font-size="10.00">source/compressible</text>
<text text-anchor="middle" x="1390" y="-7" font-family="Helvetica,sans-Serif" font-size="10.00">_flow/cutdg_operation.cpp</text>
</a>
</g>
</g>
<!-- Node12&#45;&gt;Node14 -->
<g id="edge19_Node000012_Node000014" class="edge">
<title>Node12&#45;&gt;Node14</title>
<g id="a_edge19_Node000012_Node000014"><a xlink:title=" ">
<path fill="none" stroke="#63b8ff" d="M1390,-132.44C1390,-101.21 1390,-53.68 1390,-30.18"/>
<polygon fill="#63b8ff" stroke="#63b8ff" points="1386.5,-132.74 1390,-142.74 1393.5,-132.74 1386.5,-132.74"/>
</a>
</g>
</g>
<!-- Node15 -->
<g id="Node000015" class="node">
<title>Node15</title>
<g id="a_Node000015"><a xlink:href="cutdg__operator_8cpp.html" target="_top" xlink:title=" ">
<polygon fill="white" stroke="#666666" points="1556,-101.5 1418,-101.5 1418,-71.5 1556,-71.5 1556,-101.5"/>
<text text-anchor="start" x="1426" y="-89.5" font-family="Helvetica,sans-Serif" font-size="10.00">source/compressible</text>
<text text-anchor="middle" x="1487" y="-78.5" font-family="Helvetica,sans-Serif" font-size="10.00">_flow/cutdg_operator.cpp</text>
</a>
</g>
</g>
<!-- Node12&#45;&gt;Node15 -->
<g id="edge20_Node000012_Node000015" class="edge">
<title>Node12&#45;&gt;Node15</title>
<g id="a_edge20_Node000012_Node000015"><a xlink:title=" ">
<path fill="none" stroke="#63b8ff" d="M1423.38,-136.69C1438.54,-124.97 1455.89,-111.56 1468.63,-101.7"/>
<polygon fill="#63b8ff" stroke="#63b8ff" points="1421,-134.1 1415.23,-142.99 1425.28,-139.64 1421,-134.1"/>
</a>
</g>
</g>
<!-- Node13&#45;&gt;Node14 -->
<g id="edge18_Node000013_Node000014" class="edge">
<title>Node13&#45;&gt;Node14</title>
<g id="a_edge18_Node000013_Node000014"><a xlink:title=" ">
<path fill="none" stroke="#63b8ff" d="M1327.74,-60.15C1342.03,-50.02 1357.94,-38.74 1370.1,-30.11"/>
<polygon fill="#63b8ff" stroke="#63b8ff" points="1325.69,-57.32 1319.56,-65.96 1329.74,-63.03 1325.69,-57.32"/>
</a>
</g>
</g>
<!-- Node17&#45;&gt;Node16 -->
<g id="edge28_Node000017_Node000016" class="edge">
<title>Node17&#45;&gt;Node16</title>
<g id="a_edge28_Node000017_Node000016"><a xlink:title=" ">
<path fill="none" stroke="#63b8ff" d="M613.23,-219.93C824.28,-190.86 881.83,-213.64 1089,-184 1099.18,-182.54 1109.92,-180.62 1120.34,-178.55"/>
<polygon fill="#63b8ff" stroke="#63b8ff" points="612.48,-216.5 603.06,-221.36 613.45,-223.44 612.48,-216.5"/>
</a>
</g>
</g>
<!-- Node18 -->
<g id="Node000018" class="node">
<title>Node18</title>
<g id="a_Node000018"><a xlink:href="multiphase__operation_8hpp.html" target="_top" xlink:title=" ">
<polygon fill="white" stroke="#666666" points="418,-184 250,-184 250,-143 418,-143 418,-184"/>
<text text-anchor="start" x="258" y="-172" font-family="Helvetica,sans-Serif" font-size="10.00">include/meltpooldg</text>
<text text-anchor="start" x="258" y="-161" font-family="Helvetica,sans-Serif" font-size="10.00">/compressible_flow/multiphase</text>
<text text-anchor="middle" x="334" y="-150" font-family="Helvetica,sans-Serif" font-size="10.00">_operation.hpp</text>
</a>
</g>
</g>
<!-- Node17&#45;&gt;Node18 -->
<g id="edge24_Node000017_Node000018" class="edge">
<title>Node17&#45;&gt;Node18</title>
<g id="a_edge24_Node000017_Node000018"><a xlink:title=" ">
<path fill="none" stroke="#63b8ff" d="M461.36,-216.13C435.95,-205.83 406.42,-193.86 382.2,-184.04"/>
<polygon fill="#63b8ff" stroke="#63b8ff" points="460.29,-219.48 470.88,-219.99 462.92,-212.99 460.29,-219.48"/>
</a>
</g>
</g>
<!-- Node17&#45;&gt;Node19 -->
<g id="edge27_Node000017_Node000019" class="edge">
<title>Node17&#45;&gt;Node19</title>
<g id="a_edge27_Node000017_Node000019"><a xlink:title=" ">
<path fill="none" stroke="#63b8ff" d="M504.44,-210.94C491.74,-188.94 471.23,-159.59 445,-143 393.31,-110.31 325.42,-96.61 272.12,-90.99"/>
<polygon fill="#63b8ff" stroke="#63b8ff" points="501.48,-212.82 509.41,-219.85 507.6,-209.41 501.48,-212.82"/>
</a>
</g>
</g>
<!-- Node18&#45;&gt;Node18 -->
<g id="edge25_Node000018_Node000018" class="edge">
<title>Node18&#45;&gt;Node18</title>
<g id="a_edge25_Node000018_Node000018"><a xlink:title=" ">
<path fill="none" stroke="#63b8ff" d="M427.75,-173.05C432.92,-170.73 436,-167.54 436,-163.5 436,-157.34 428.85,-153.18 418.03,-151.01"/>
<polygon fill="#63b8ff" stroke="#63b8ff" points="426.59,-169.74 418.03,-175.99 428.62,-176.44 426.59,-169.74"/>
</a>
</g>
</g>
<!-- Node18&#45;&gt;Node19 -->
<g id="edge26_Node000018_Node000019" class="edge">
<title>Node18&#45;&gt;Node19</title>
<g id="a_edge26_Node000018_Node000019"><a xlink:title=" ">
<path fill="none" stroke="#63b8ff" d="M286.57,-138.46C262.65,-126.34 234.46,-112.06 214.02,-101.7"/>
<polygon fill="#63b8ff" stroke="#63b8ff" points="285,-141.59 295.5,-142.99 288.16,-135.35 285,-141.59"/>
</a>
</g>
</g>
<!-- Node20&#45;&gt;Node2 -->
<g id="edge30_Node000020_Node000002" class="edge">
<title>Node20&#45;&gt;Node2</title>
<g id="a_edge30_Node000020_Node000002"><a xlink:title=" ">
<path fill="none" stroke="#63b8ff" d="M753.39,-368.92C736.11,-358.95 716.41,-347.58 700.1,-338.17"/>
<polygon fill="#63b8ff" stroke="#63b8ff" points="751.77,-372.02 762.18,-373.99 755.27,-365.96 751.77,-372.02"/>
</a>
</g>
</g>
<!-- Node20&#45;&gt;Node3 -->
<g id="edge33_Node000020_Node000003" class="edge">
<title>Node20&#45;&gt;Node3</title>
<g id="a_edge33_Node000020_Node000003"><a xlink:title=" ">
<path fill="none" stroke="#63b8ff" d="M706.02,-374.64C665.25,-365.17 616.72,-352.59 574,-338 509.08,-315.82 436.75,-282.3 393.34,-261.17"/>
<polygon fill="#63b8ff" stroke="#63b8ff" points="705.41,-378.09 715.94,-376.92 706.98,-371.27 705.41,-378.09"/>
</a>
</g>
</g>
<!-- Node20&#45;&gt;Node4 -->
<g id="edge32_Node000020_Node000004" class="edge">
<title>Node20&#45;&gt;Node4</title>
<g id="a_edge32_Node000020_Node000004"><a xlink:title=" ">
<path fill="none" stroke="#63b8ff" d="M796.6,-363.65C797.2,-329.07 797.91,-270.41 797,-220 796.78,-208.05 796.31,-194.65 795.88,-184.02"/>
<polygon fill="#63b8ff" stroke="#63b8ff" points="793.1,-363.92 796.41,-373.98 800.1,-364.05 793.1,-363.92"/>
</a>
</g>
</g>
<!-- Node20&#45;&gt;Node5 -->
<g id="edge39_Node000020_Node000005" class="edge">
<title>Node20&#45;&gt;Node5</title>
<g id="a_edge39_Node000020_Node000005"><a xlink:title=" ">
<path fill="none" stroke="#63b8ff" d="M886.13,-385.56C971.69,-376.81 1093.24,-360.88 1135,-338 1228.11,-286.99 1343.61,-222.29 1273,-143 1245.98,-112.66 984.1,-96.39 859.83,-90.32"/>
<polygon fill="#63b8ff" stroke="#63b8ff" points="885.74,-382.08 876.14,-386.56 886.44,-389.04 885.74,-382.08"/>
</a>
</g>
</g>
<!-- Node20&#45;&gt;Node6 -->
<g id="edge40_Node000020_Node000006" class="edge">
<title>Node20&#45;&gt;Node6</title>
<g id="a_edge40_Node000020_Node000006"><a xlink:title=" ">
<path fill="none" stroke="#63b8ff" d="M705.43,-392.71C575.58,-390.11 344.27,-379.57 273,-338 207.92,-300.04 167.95,-212.8 154.29,-178.61"/>
<polygon fill="#63b8ff" stroke="#63b8ff" points="705.69,-396.21 715.76,-392.9 705.82,-389.22 705.69,-396.21"/>
</a>
</g>
</g>
<!-- Node20&#45;&gt;Node7 -->
<g id="edge34_Node000020_Node000007" class="edge">
<title>Node20&#45;&gt;Node7</title>
<g id="a_edge34_Node000020_Node000007"><a xlink:title=" ">
<path fill="none" stroke="#63b8ff" d="M816.23,-365.54C838.06,-335.38 872.28,-288.1 891.55,-261.47"/>
<polygon fill="#63b8ff" stroke="#63b8ff" points="813.18,-363.79 810.16,-373.94 818.85,-367.89 813.18,-363.79"/>
</a>
</g>
</g>
<!-- Node20&#45;&gt;Node8 -->
<g id="edge41_Node000020_Node000008" class="edge">
<title>Node20&#45;&gt;Node8</title>
<g id="a_edge41_Node000020_Node000008"><a xlink:title=" ">
<path fill="none" stroke="#63b8ff" d="M848.34,-369.16C890.11,-346.95 946.66,-310.11 978,-261 994.35,-235.38 997.15,-198.73 997.34,-178.78"/>
<polygon fill="#63b8ff" stroke="#63b8ff" points="846.65,-366.1 839.39,-373.82 849.88,-372.31 846.65,-366.1"/>
</a>
</g>
</g>
<!-- Node20&#45;&gt;Node9 -->
<g id="edge35_Node000020_Node000009" class="edge">
<title>Node20&#45;&gt;Node9</title>
<g id="a_edge35_Node000020_Node000009"><a xlink:title=" ">
<path fill="none" stroke="#63b8ff" d="M788.22,-364.13C782.13,-344.2 772.43,-317.79 759,-297 750.39,-283.67 738.16,-270.93 727.42,-261.03"/>
<polygon fill="#63b8ff" stroke="#63b8ff" points="784.91,-365.28 791.08,-373.9 791.63,-363.32 784.91,-365.28"/>
</a>
</g>
</g>
<!-- Node20&#45;&gt;Node10 -->
<g id="edge42_Node000020_Node000010" class="edge">
<title>Node20&#45;&gt;Node10</title>
<g id="a_edge42_Node000020_Node000010"><a xlink:title=" ">
<path fill="none" stroke="#63b8ff" d="M705.51,-384.3C571.2,-368.46 329.83,-330.79 283,-261 272.85,-245.87 271.27,-233.94 283,-220 290.95,-210.55 437.98,-188.03 529.94,-174.76"/>
<polygon fill="#63b8ff" stroke="#63b8ff" points="705.45,-387.82 715.79,-385.5 706.26,-380.87 705.45,-387.82"/>
</a>
</g>
</g>
<!-- Node20&#45;&gt;Node12 -->
<g id="edge31_Node000020_Node000012" class="edge">
<title>Node20&#45;&gt;Node12</title>
<g id="a_edge31_Node000020_Node000012"><a xlink:title=" ">
<path fill="none" stroke="#63b8ff" d="M886.32,-393.95C1014.36,-392.89 1240.4,-384.25 1306,-338 1358.79,-300.78 1379.72,-221.07 1386.83,-184.09"/>
<polygon fill="#63b8ff" stroke="#63b8ff" points="886.11,-390.45 876.14,-394.02 886.16,-397.45 886.11,-390.45"/>
</a>
</g>
</g>
<!-- Node20&#45;&gt;Node14 -->
<g id="edge37_Node000020_Node000014" class="edge">
<title>Node20&#45;&gt;Node14</title>
<g id="a_edge37_Node000020_Node000014"><a xlink:title=" ">
<path fill="none" stroke="#63b8ff" d="M886.32,-388.82C1026.85,-380.88 1291.14,-363.15 1382,-338 1477.89,-311.46 1584,-341 1584,-241.5 1584,-241.5 1584,-241.5 1584,-162.5 1584,-118.79 1594.59,-98.18 1565,-66 1538.91,-37.62 1497.94,-24.94 1462.2,-19.43"/>
<polygon fill="#63b8ff" stroke="#63b8ff" points="885.8,-385.34 876.01,-389.39 886.19,-392.33 885.8,-385.34"/>
</a>
</g>
</g>
<!-- Node20&#45;&gt;Node15 -->
<g id="edge38_Node000020_Node000015" class="edge">
<title>Node20&#45;&gt;Node15</title>
<g id="a_edge38_Node000020_Node000015"><a xlink:title=" ">
<path fill="none" stroke="#63b8ff" d="M886.3,-392.32C1019.66,-389.22 1261.76,-378.08 1338,-338 1417.54,-296.19 1430.35,-265.12 1469,-184 1481.98,-156.77 1485.61,-121.06 1486.62,-101.62"/>
<polygon fill="#63b8ff" stroke="#63b8ff" points="886.02,-388.82 876.1,-392.54 886.17,-395.82 886.02,-388.82"/>
</a>
</g>
</g>
<!-- Node20&#45;&gt;Node16 -->
<g id="edge44_Node000020_Node000016" class="edge">
<title>Node20&#45;&gt;Node16</title>
<g id="a_edge44_Node000020_Node000016"><a xlink:title=" ">
<path fill="none" stroke="#63b8ff" d="M886.28,-391.06C978.25,-383.16 1116.65,-355.17 1184,-261 1201.45,-236.6 1193.03,-199.14 1186.39,-178.82"/>
<polygon fill="#63b8ff" stroke="#63b8ff" points="885.83,-387.58 876.14,-391.86 886.38,-394.56 885.83,-387.58"/>
</a>
</g>
</g>
<!-- Node20&#45;&gt;Node18 -->
<g id="edge36_Node000020_Node000018" class="edge">
<title>Node20&#45;&gt;Node18</title>
<g id="a_edge36_Node000020_Node000018"><a xlink:title=" ">
<path fill="none" stroke="#63b8ff" d="M705.49,-391.13C587.94,-386.64 390.38,-373.85 328,-338 277.33,-308.88 245.73,-273.16 270,-220 276.6,-205.55 289.02,-193.41 301.17,-184.21"/>
<polygon fill="#63b8ff" stroke="#63b8ff" points="705.44,-394.63 715.56,-391.5 705.7,-387.63 705.44,-394.63"/>
</a>
</g>
</g>
<!-- Node20&#45;&gt;Node19 -->
<g id="edge43_Node000020_Node000019" class="edge">
<title>Node20&#45;&gt;Node19</title>
<g id="a_edge43_Node000020_Node000019"><a xlink:title=" ">
<path fill="none" stroke="#63b8ff" d="M705.66,-389.45C577.49,-382.76 349.89,-367.16 273,-338 162.76,-296.19 111,-288.81 57,-184 48.65,-167.8 46.98,-158.22 57,-143 70.41,-122.64 93.02,-109.71 115.61,-101.53"/>
<polygon fill="#63b8ff" stroke="#63b8ff" points="705.68,-392.96 715.85,-389.97 706.04,-385.96 705.68,-392.96"/>
</a>
</g>
</g>
</g>
</svg>

<g id="navigator" transform="translate(0 0)" fill="#404254">
  <rect fill="#f2f5e9" fill-opacity="0.5" stroke="#606060" stroke-width=".5" x="0" y="0" width="60" height="60"/>
  <use id="zoomplus" xlink:href="#zoomPlus" x="17" y="9" onmousedown="handleZoom(evt,'in')"/>
  <use id="zoomminus" xlink:href="#zoomMin" x="42" y="9" onmousedown="handleZoom(evt,'out')"/>
  <use id="reset" xlink:href="#resetDef" x="30" y="36" onmousedown="handleReset()"/>
   <use id="arrowup" xlink:href="#arrowUp" x="0" y="0" onmousedown="handlePan(0,-1)"/>
  <use id="arrowright" xlink:href="#arrowRight" x="0" y="0" onmousedown="handlePan(1,0)"/>
  <use id="arrowdown" xlink:href="#arrowDown" x="0" y="0" onmousedown="handlePan(0,1)"/>
  <use id="arrowleft" xlink:href="#arrowLeft" x="0" y="0" onmousedown="handlePan(-1,0)"/>
</g>
<svg viewBox="0 0 15 15" width="100%" height="30px" preserveAspectRatio="xMaxYMin meet">
 <g id="arrow_out" transform="scale(0.3 0.3)">
  <a xlink:href="phase__coupling__data_8hpp__dep__incl_org.svg" target="_base">
   <rect id="button" ry="5" rx="5" y="6" x="6" height="38" width="38"
        fill="#f2f5e9" fill-opacity="0.5" stroke="#606060" stroke-width="1.0"/>
   <path id="arrow"
     d="M 11.500037,31.436501 C 11.940474,20.09759 22.043105,11.32322 32.158766,21.979434 L 37.068811,17.246167 C 37.068811,17.246167 37.088388,32 37.088388,32 L 22.160133,31.978069 C 22.160133,31.978069 26.997745,27.140456 26.997745,27.140456 C 18.528582,18.264221 13.291696,25.230495 11.500037,31.436501 z"
     style="fill:#404040;"/>
  </a>
 </g>
</svg>

<style type='text/css'>
<![CDATA[
[data-mouse-over-selected='false'] { opacity: 0.7; }
[data-mouse-over-selected='true']  { opacity: 1.0; }
]]>
</style>
<script type="application/ecmascript"><![CDATA[
document.addEventListener('DOMContentLoaded', (event) => {
  highlightEdges();
  highlightAdjacentNodes();
});
]]></script>
</svg>
