<?xml version="1.0" encoding="UTF-8" standalone="no"?>
<!DOCTYPE svg PUBLIC "-//W3C//DTD SVG 1.1//EN"
 "http://www.w3.org/Graphics/SVG/1.1/DTD/svg11.dtd">
<!-- Generated by graphviz version 2.43.0 (0)
 -->
<!-- Title: include/meltpooldg/utilities/physical_constants.hpp Pages: 1 -->
<svg width="995pt" height="126pt"
 viewBox="0.00 0.00 995.00 126.00" xmlns="http://www.w3.org/2000/svg" xmlns:xlink="http://www.w3.org/1999/xlink">
<g id="graph0" class="graph" transform="scale(1 1) rotate(0) translate(4 122)">
<title>include/meltpooldg/utilities/physical_constants.hpp</title>
<!-- Node1 -->
<g id="Node000001" class="node">
<title>Node1</title>
<g id="a_Node000001"><a xlink:title=" ">
<polygon fill="#999999" stroke="#666666" points="539.5,-118 429.5,-118 429.5,-77 539.5,-77 539.5,-118"/>
<text text-anchor="start" x="437.5" y="-106" font-family="Helvetica,sans-Serif" font-size="10.00">include/meltpooldg</text>
<text text-anchor="start" x="437.5" y="-95" font-family="Helvetica,sans-Serif" font-size="10.00">/utilities/physical</text>
<text text-anchor="middle" x="484.5" y="-84" font-family="Helvetica,sans-Serif" font-size="10.00">_constants.hpp</text>
</a>
</g>
</g>
<!-- Node2 -->
<g id="Node000002" class="node">
<title>Node2</title>
<g id="a_Node000002"><a xlink:href="heat__diffuse__operator_8cpp.html" target="_top" xlink:title=" ">
<polygon fill="white" stroke="#666666" points="137,-35.5 0,-35.5 0,-5.5 137,-5.5 137,-35.5"/>
<text text-anchor="start" x="8" y="-23.5" font-family="Helvetica,sans-Serif" font-size="10.00">source/heat/heat_diffuse</text>
<text text-anchor="middle" x="68.5" y="-12.5" font-family="Helvetica,sans-Serif" font-size="10.00">_operator.cpp</text>
</a>
</g>
</g>
<!-- Node1&#45;&gt;Node2 -->
<g id="edge1_Node000001_Node000002" class="edge">
<title>Node1&#45;&gt;Node2</title>
<g id="a_edge1_Node000001_Node000002"><a xlink:title=" ">
<path fill="none" stroke="#63b8ff" d="M419.13,-87.5C350.63,-77.67 240.05,-60.67 145.5,-41 137.67,-39.37 129.43,-37.48 121.38,-35.53"/>
<polygon fill="#63b8ff" stroke="#63b8ff" points="418.94,-91 429.33,-88.95 419.93,-84.08 418.94,-91"/>
</a>
</g>
</g>
<!-- Node3 -->
<g id="Node000003" class="node">
<title>Node3</title>
<g id="a_Node000003"><a xlink:href="evaporation__model__hardt__wondra_8cpp.html" target="_top" xlink:title=" ">
<polygon fill="white" stroke="#666666" points="300,-41 155,-41 155,0 300,0 300,-41"/>
<text text-anchor="start" x="163" y="-29" font-family="Helvetica,sans-Serif" font-size="10.00">source/phase_change</text>
<text text-anchor="start" x="163" y="-18" font-family="Helvetica,sans-Serif" font-size="10.00">/evaporation_model_hardt</text>
<text text-anchor="middle" x="227.5" y="-7" font-family="Helvetica,sans-Serif" font-size="10.00">_wondra.cpp</text>
</a>
</g>
</g>
<!-- Node1&#45;&gt;Node3 -->
<g id="edge2_Node000001_Node000003" class="edge">
<title>Node1&#45;&gt;Node3</title>
<g id="a_edge2_Node000001_Node000003"><a xlink:title=" ">
<path fill="none" stroke="#63b8ff" d="M419.37,-77.49C381.15,-66.34 332.94,-52.27 294.41,-41.03"/>
<polygon fill="#63b8ff" stroke="#63b8ff" points="418.79,-80.97 429.37,-80.41 420.75,-74.25 418.79,-80.97"/>
</a>
</g>
</g>
<!-- Node4 -->
<g id="Node000004" class="node">
<title>Node4</title>
<g id="a_Node000004"><a xlink:href="evaporation__model__pressure__aware_8cpp.html" target="_top" xlink:title=" ">
<polygon fill="white" stroke="#666666" points="479,-41 318,-41 318,0 479,0 479,-41"/>
<text text-anchor="start" x="326" y="-29" font-family="Helvetica,sans-Serif" font-size="10.00">source/phase_change</text>
<text text-anchor="start" x="326" y="-18" font-family="Helvetica,sans-Serif" font-size="10.00">/evaporation_model_pressure</text>
<text text-anchor="middle" x="398.5" y="-7" font-family="Helvetica,sans-Serif" font-size="10.00">_aware.cpp</text>
</a>
</g>
</g>
<!-- Node1&#45;&gt;Node4 -->
<g id="edge3_Node000001_Node000004" class="edge">
<title>Node1&#45;&gt;Node4</title>
<g id="a_edge3_Node000001_Node000004"><a xlink:title=" ">
<path fill="none" stroke="#63b8ff" d="M454.19,-70.07C443.25,-60.52 431.1,-49.93 420.94,-41.07"/>
<polygon fill="#63b8ff" stroke="#63b8ff" points="452.07,-72.86 461.9,-76.79 456.67,-67.58 452.07,-72.86"/>
</a>
</g>
</g>
<!-- Node5 -->
<g id="Node000005" class="node">
<title>Node5</title>
<g id="a_Node000005"><a xlink:href="evaporation__model__recoil__pressure_8cpp.html" target="_top" xlink:title=" ">
<polygon fill="white" stroke="#666666" points="643.5,-41 497.5,-41 497.5,0 643.5,0 643.5,-41"/>
<text text-anchor="start" x="505.5" y="-29" font-family="Helvetica,sans-Serif" font-size="10.00">source/phase_change</text>
<text text-anchor="start" x="505.5" y="-18" font-family="Helvetica,sans-Serif" font-size="10.00">/evaporation_model_recoil</text>
<text text-anchor="middle" x="570.5" y="-7" font-family="Helvetica,sans-Serif" font-size="10.00">_pressure.cpp</text>
</a>
</g>
</g>
<!-- Node1&#45;&gt;Node5 -->
<g id="edge4_Node000001_Node000005" class="edge">
<title>Node1&#45;&gt;Node5</title>
<g id="a_edge4_Node000001_Node000005"><a xlink:title=" ">
<path fill="none" stroke="#63b8ff" d="M514.81,-70.07C525.75,-60.52 537.9,-49.93 548.06,-41.07"/>
<polygon fill="#63b8ff" stroke="#63b8ff" points="512.33,-67.58 507.1,-76.79 516.93,-72.86 512.33,-67.58"/>
</a>
</g>
</g>
<!-- Node6 -->
<g id="Node000006" class="node">
<title>Node6</title>
<g id="a_Node000006"><a xlink:href="evaporation__model__saturated__vapor__pressure_8cpp.html" target="_top" xlink:title=" ">
<polygon fill="white" stroke="#666666" points="827.5,-41 661.5,-41 661.5,0 827.5,0 827.5,-41"/>
<text text-anchor="start" x="669.5" y="-29" font-family="Helvetica,sans-Serif" font-size="10.00">source/phase_change</text>
<text text-anchor="start" x="669.5" y="-18" font-family="Helvetica,sans-Serif" font-size="10.00">/evaporation_model_saturated</text>
<text text-anchor="middle" x="744.5" y="-7" font-family="Helvetica,sans-Serif" font-size="10.00">_vapor_pressure.cpp</text>
</a>
</g>
</g>
<!-- Node1&#45;&gt;Node6 -->
<g id="edge5_Node000001_Node000006" class="edge">
<title>Node1&#45;&gt;Node6</title>
<g id="a_edge5_Node000001_Node000006"><a xlink:title=" ">
<path fill="none" stroke="#63b8ff" d="M549.25,-77.82C588,-66.65 637.18,-52.46 676.49,-41.12"/>
<polygon fill="#63b8ff" stroke="#63b8ff" points="548.28,-74.46 539.64,-80.59 550.22,-81.19 548.28,-74.46"/>
</a>
</g>
</g>
<!-- Node7 -->
<g id="Node000007" class="node">
<title>Node7</title>
<g id="a_Node000007"><a xlink:href="recoil__pressure__data_8cpp.html" target="_top" xlink:title=" ">
<polygon fill="white" stroke="#666666" points="987,-35.5 846,-35.5 846,-5.5 987,-5.5 987,-35.5"/>
<text text-anchor="start" x="854" y="-23.5" font-family="Helvetica,sans-Serif" font-size="10.00">source/phase_change</text>
<text text-anchor="middle" x="916.5" y="-12.5" font-family="Helvetica,sans-Serif" font-size="10.00">/recoil_pressure_data.cpp</text>
</a>
</g>
</g>
<!-- Node1&#45;&gt;Node7 -->
<g id="edge6_Node000001_Node000007" class="edge">
<title>Node1&#45;&gt;Node7</title>
<g id="a_edge6_Node000001_Node000007"><a xlink:title=" ">
<path fill="none" stroke="#63b8ff" d="M549.74,-87.86C620.62,-78.09 737.05,-60.92 836.5,-41 844.63,-39.37 853.18,-37.48 861.55,-35.53"/>
<polygon fill="#63b8ff" stroke="#63b8ff" points="549.06,-84.42 539.62,-89.25 550.01,-91.36 549.06,-84.42"/>
</a>
</g>
</g>
</g>
</svg>
