<?xml version="1.0" encoding="UTF-8" standalone="no"?>
<!DOCTYPE svg PUBLIC "-//W3C//DTD SVG 1.1//EN"
 "http://www.w3.org/Graphics/SVG/1.1/DTD/svg11.dtd">
<!-- Generated by graphviz version 2.43.0 (0)
 -->
<!-- Title: include/meltpooldg/post_processing/postprocessor.hpp Pages: 1 -->
<svg width="1841pt" height="170pt"
 viewBox="0.00 0.00 1840.50 170.00" xmlns="http://www.w3.org/2000/svg" xmlns:xlink="http://www.w3.org/1999/xlink">
<g id="graph0" class="graph" transform="scale(1 1) rotate(0) translate(4 166)">
<title>include/meltpooldg/post_processing/postprocessor.hpp</title>
<!-- Node1 -->
<g id="Node000001" class="node">
<title>Node1</title>
<g id="a_Node000001"><a xlink:title=" ">
<polygon fill="#999999" stroke="#666666" points="951,-162 761,-162 761,-132 951,-132 951,-162"/>
<text text-anchor="start" x="769" y="-150" font-family="Helvetica,sans-Serif" font-size="10.00">include/meltpooldg</text>
<text text-anchor="middle" x="856" y="-139" font-family="Helvetica,sans-Serif" font-size="10.00">/post_processing/postprocessor.hpp</text>
</a>
</g>
</g>
<!-- Node2 -->
<g id="Node000002" class="node">
<title>Node2</title>
<g id="a_Node000002"><a xlink:title=" ">
<polygon fill="#e0e0e0" stroke="#999999" points="138,-90.5 0,-90.5 0,-71.5 138,-71.5 138,-90.5"/>
<text text-anchor="middle" x="69" y="-78.5" font-family="Helvetica,sans-Serif" font-size="10.00">deal.II/base/exceptions.h</text>
</a>
</g>
</g>
<!-- Node1&#45;&gt;Node2 -->
<g id="edge1_Node000001_Node000002" class="edge">
<title>Node1&#45;&gt;Node2</title>
<g id="a_edge1_Node000001_Node000002"><a xlink:title=" ">
<path fill="none" stroke="#63b8ff" d="M760.79,-142.53C624.4,-136.82 365.72,-123.26 147,-96 138.85,-94.98 130.25,-93.68 121.87,-92.28"/>
<polygon fill="#63b8ff" stroke="#63b8ff" points="122.24,-88.79 111.79,-90.53 121.04,-95.69 122.24,-88.79"/>
</a>
</g>
</g>
<!-- Node3 -->
<g id="Node000003" class="node">
<title>Node3</title>
<g id="a_Node000003"><a xlink:title=" ">
<polygon fill="#e0e0e0" stroke="#999999" points="260,-90.5 156,-90.5 156,-71.5 260,-71.5 260,-90.5"/>
<text text-anchor="middle" x="208" y="-78.5" font-family="Helvetica,sans-Serif" font-size="10.00">deal.II/base/mpi.h</text>
</a>
</g>
</g>
<!-- Node1&#45;&gt;Node3 -->
<g id="edge2_Node000001_Node000003" class="edge">
<title>Node1&#45;&gt;Node3</title>
<g id="a_edge2_Node000001_Node000003"><a xlink:title=" ">
<path fill="none" stroke="#63b8ff" d="M760.96,-142.02C644.46,-136.19 441.29,-122.97 269,-96 263.22,-95.1 257.18,-93.95 251.24,-92.71"/>
<polygon fill="#63b8ff" stroke="#63b8ff" points="251.91,-89.28 241.4,-90.56 250.41,-96.11 251.91,-89.28"/>
</a>
</g>
</g>
<!-- Node4 -->
<g id="Node000004" class="node">
<title>Node4</title>
<g id="a_Node000004"><a xlink:title=" ">
<polygon fill="#e0e0e0" stroke="#999999" points="375.5,-90.5 278.5,-90.5 278.5,-71.5 375.5,-71.5 375.5,-90.5"/>
<text text-anchor="middle" x="327" y="-78.5" font-family="Helvetica,sans-Serif" font-size="10.00">deal.II/grid/tria.h</text>
</a>
</g>
</g>
<!-- Node1&#45;&gt;Node4 -->
<g id="edge3_Node000001_Node000004" class="edge">
<title>Node1&#45;&gt;Node4</title>
<g id="a_edge3_Node000001_Node000004"><a xlink:title=" ">
<path fill="none" stroke="#63b8ff" d="M761,-139.73C665.3,-132.53 513.67,-118.69 384,-96 378.92,-95.11 373.63,-94.03 368.4,-92.86"/>
<polygon fill="#63b8ff" stroke="#63b8ff" points="369.03,-89.41 358.5,-90.54 367.43,-96.23 369.03,-89.41"/>
</a>
</g>
</g>
<!-- Node5 -->
<g id="Node000005" class="node">
<title>Node5</title>
<g id="a_Node000005"><a xlink:title=" ">
<polygon fill="#e0e0e0" stroke="#999999" points="496.5,-96 393.5,-96 393.5,-66 496.5,-66 496.5,-96"/>
<text text-anchor="start" x="401.5" y="-84" font-family="Helvetica,sans-Serif" font-size="10.00">deal.II/lac/generic</text>
<text text-anchor="middle" x="445" y="-73" font-family="Helvetica,sans-Serif" font-size="10.00">_linear_algebra.h</text>
</a>
</g>
</g>
<!-- Node1&#45;&gt;Node5 -->
<g id="edge4_Node000001_Node000005" class="edge">
<title>Node1&#45;&gt;Node5</title>
<g id="a_edge4_Node000001_Node000005"><a xlink:title=" ">
<path fill="none" stroke="#63b8ff" d="M760.95,-134.61C692.84,-125.93 598.74,-112.91 506.59,-96.01"/>
<polygon fill="#63b8ff" stroke="#63b8ff" points="506.99,-92.52 496.52,-94.14 505.72,-99.41 506.99,-92.52"/>
</a>
</g>
</g>
<!-- Node6 -->
<g id="Node000006" class="node">
<title>Node6</title>
<g id="a_Node000006"><a xlink:title=" ">
<polygon fill="#e0e0e0" stroke="#999999" points="633,-96 515,-96 515,-66 633,-66 633,-96"/>
<text text-anchor="start" x="523" y="-84" font-family="Helvetica,sans-Serif" font-size="10.00">deal.II/lac/la_parallel</text>
<text text-anchor="middle" x="574" y="-73" font-family="Helvetica,sans-Serif" font-size="10.00">_block_vector.h</text>
</a>
</g>
</g>
<!-- Node1&#45;&gt;Node6 -->
<g id="edge5_Node000001_Node000006" class="edge">
<title>Node1&#45;&gt;Node6</title>
<g id="a_edge5_Node000001_Node000006"><a xlink:title=" ">
<path fill="none" stroke="#63b8ff" d="M794.11,-131.95C749.55,-121.84 689.41,-108.19 643.25,-97.72"/>
<polygon fill="#63b8ff" stroke="#63b8ff" points="643.85,-94.26 633.33,-95.46 642.3,-101.09 643.85,-94.26"/>
</a>
</g>
</g>
<!-- Node7 -->
<g id="Node000007" class="node">
<title>Node7</title>
<g id="a_Node000007"><a xlink:title=" ">
<polygon fill="#e0e0e0" stroke="#999999" points="263,-30 145,-30 145,0 263,0 263,-30"/>
<text text-anchor="start" x="153" y="-18" font-family="Helvetica,sans-Serif" font-size="10.00">deal.II/lac/la_parallel</text>
<text text-anchor="middle" x="204" y="-7" font-family="Helvetica,sans-Serif" font-size="10.00">_vector.h</text>
</a>
</g>
</g>
<!-- Node1&#45;&gt;Node7 -->
<g id="edge6_Node000001_Node000007" class="edge">
<title>Node1&#45;&gt;Node7</title>
<g id="a_edge6_Node000001_Node000007"><a xlink:title=" ">
<path fill="none" stroke="#63b8ff" d="M774.02,-131.9C741.84,-124.23 705.41,-112.76 675,-96 657.64,-86.43 660.12,-74.04 642,-66 493.91,-0.33 437.57,-52.57 273.22,-30.03"/>
<polygon fill="#63b8ff" stroke="#63b8ff" points="273.67,-26.55 263.27,-28.59 272.67,-33.48 273.67,-26.55"/>
</a>
</g>
</g>
<!-- Node8 -->
<g id="Node000008" class="node">
<title>Node8</title>
<g id="a_Node000008"><a xlink:title=" ">
<polygon fill="#e0e0e0" stroke="#999999" points="439,-30 281,-30 281,0 439,0 439,-30"/>
<text text-anchor="start" x="289" y="-18" font-family="Helvetica,sans-Serif" font-size="10.00">deal.II/numerics/data</text>
<text text-anchor="middle" x="360" y="-7" font-family="Helvetica,sans-Serif" font-size="10.00">_component_interpretation.h</text>
</a>
</g>
</g>
<!-- Node1&#45;&gt;Node8 -->
<g id="edge7_Node000001_Node000008" class="edge">
<title>Node1&#45;&gt;Node8</title>
<g id="a_edge7_Node000001_Node000008"><a xlink:title=" ">
<path fill="none" stroke="#63b8ff" d="M807.76,-131.95C780.65,-123.22 746.62,-110.84 718,-96 697.31,-85.27 696.61,-74.71 675,-66 583.22,-29 550.91,-44.94 449.22,-30.13"/>
<polygon fill="#63b8ff" stroke="#63b8ff" points="449.57,-26.64 439.15,-28.59 448.51,-33.56 449.57,-26.64"/>
</a>
</g>
</g>
<!-- Node9 -->
<g id="Node000009" class="node">
<title>Node9</title>
<g id="a_Node000009"><a xlink:title=" ">
<polygon fill="#e0e0e0" stroke="#999999" points="1461,-90.5 1321,-90.5 1321,-71.5 1461,-71.5 1461,-90.5"/>
<text text-anchor="middle" x="1391" y="-78.5" font-family="Helvetica,sans-Serif" font-size="10.00">deal.II/particles/particle.h</text>
</a>
</g>
</g>
<!-- Node1&#45;&gt;Node9 -->
<g id="edge8_Node000001_Node000009" class="edge">
<title>Node1&#45;&gt;Node9</title>
<g id="a_edge8_Node000001_Node000009"><a xlink:title=" ">
<path fill="none" stroke="#63b8ff" d="M951.43,-137.39C1043.85,-128.62 1187.83,-113.79 1312,-96 1319.76,-94.89 1327.92,-93.59 1335.93,-92.24"/>
<polygon fill="#63b8ff" stroke="#63b8ff" points="1336.7,-95.66 1345.96,-90.51 1335.51,-88.76 1336.7,-95.66"/>
</a>
</g>
</g>
<!-- Node10 -->
<g id="Node000010" class="node">
<title>Node10</title>
<g id="a_Node000010"><a xlink:title=" ">
<polygon fill="#e0e0e0" stroke="#999999" points="1610.5,-96 1479.5,-96 1479.5,-66 1610.5,-66 1610.5,-96"/>
<text text-anchor="start" x="1487.5" y="-84" font-family="Helvetica,sans-Serif" font-size="10.00">deal.II/particles/particle</text>
<text text-anchor="middle" x="1545" y="-73" font-family="Helvetica,sans-Serif" font-size="10.00">_handler.h</text>
</a>
</g>
</g>
<!-- Node1&#45;&gt;Node10 -->
<g id="edge9_Node000001_Node000010" class="edge">
<title>Node1&#45;&gt;Node10</title>
<g id="a_edge9_Node000001_Node000010"><a xlink:title=" ">
<path fill="none" stroke="#63b8ff" d="M951.25,-141.3C1070.11,-134.75 1279.74,-120.93 1469.07,-96.03"/>
<polygon fill="#63b8ff" stroke="#63b8ff" points="1469.76,-99.46 1479.21,-94.68 1468.84,-92.53 1469.76,-99.46"/>
</a>
</g>
</g>
<!-- Node11 -->
<g id="Node000011" class="node">
<title>Node11</title>
<g id="a_Node000011"><a xlink:href="generic__data__out_8hpp.html" target="_top" xlink:title=" ">
<polygon fill="white" stroke="#666666" points="881,-96 727,-96 727,-66 881,-66 881,-96"/>
<text text-anchor="start" x="735" y="-84" font-family="Helvetica,sans-Serif" font-size="10.00">meltpooldg/post_processing</text>
<text text-anchor="middle" x="804" y="-73" font-family="Helvetica,sans-Serif" font-size="10.00">/generic_data_out.hpp</text>
</a>
</g>
</g>
<!-- Node1&#45;&gt;Node11 -->
<g id="edge10_Node000001_Node000011" class="edge">
<title>Node1&#45;&gt;Node11</title>
<g id="a_edge10_Node000001_Node000011"><a xlink:title=" ">
<path fill="none" stroke="#63b8ff" d="M844.46,-131.8C837.86,-123.68 829.44,-113.31 822,-104.15"/>
<polygon fill="#63b8ff" stroke="#63b8ff" points="824.53,-101.72 815.51,-96.16 819.1,-106.13 824.53,-101.72"/>
</a>
</g>
</g>
<!-- Node16 -->
<g id="Node000016" class="node">
<title>Node16</title>
<g id="a_Node000016"><a xlink:title=" ">
<polygon fill="#e0e0e0" stroke="#999999" points="1111,-24.5 1067,-24.5 1067,-5.5 1111,-5.5 1111,-24.5"/>
<text text-anchor="middle" x="1089" y="-12.5" font-family="Helvetica,sans-Serif" font-size="10.00">string</text>
</a>
</g>
</g>
<!-- Node1&#45;&gt;Node16 -->
<g id="edge30_Node000001_Node000016" class="edge">
<title>Node1&#45;&gt;Node16</title>
<g id="a_edge30_Node000001_Node000016"><a xlink:title=" ">
<path fill="none" stroke="#63b8ff" d="M879.19,-131.94C894.55,-122.34 914.93,-109.04 932,-96 948.01,-83.76 948.82,-76.53 966,-66 1003.08,-43.27 1016.85,-46.72 1057,-30 1058.17,-29.51 1059.35,-29.02 1060.55,-28.51"/>
<polygon fill="#63b8ff" stroke="#63b8ff" points="1061.95,-31.72 1069.76,-24.55 1059.19,-25.29 1061.95,-31.72"/>
</a>
</g>
</g>
<!-- Node18 -->
<g id="Node000018" class="node">
<title>Node18</title>
<g id="a_Node000018"><a xlink:title=" ">
<polygon fill="#e0e0e0" stroke="#999999" points="1048.5,-24.5 1001.5,-24.5 1001.5,-5.5 1048.5,-5.5 1048.5,-24.5"/>
<text text-anchor="middle" x="1025" y="-12.5" font-family="Helvetica,sans-Serif" font-size="10.00">vector</text>
</a>
</g>
</g>
<!-- Node1&#45;&gt;Node18 -->
<g id="edge32_Node000001_Node000018" class="edge">
<title>Node1&#45;&gt;Node18</title>
<g id="a_edge32_Node000001_Node000018"><a xlink:title=" ">
<path fill="none" stroke="#63b8ff" d="M867.41,-131.71C881.53,-114.62 906.93,-85.86 933,-66 952.58,-51.08 977.18,-37.96 996.02,-28.9"/>
<polygon fill="#63b8ff" stroke="#63b8ff" points="997.72,-31.97 1005.29,-24.55 994.75,-25.63 997.72,-31.97"/>
</a>
</g>
</g>
<!-- Node19 -->
<g id="Node000019" class="node">
<title>Node19</title>
<g id="a_Node000019"><a xlink:href="output__data_8hpp.html" target="_top" xlink:title=" ">
<polygon fill="white" stroke="#666666" points="1129,-96 975,-96 975,-66 1129,-66 1129,-96"/>
<text text-anchor="start" x="983" y="-84" font-family="Helvetica,sans-Serif" font-size="10.00">meltpooldg/post_processing</text>
<text text-anchor="middle" x="1052" y="-73" font-family="Helvetica,sans-Serif" font-size="10.00">/output_data.hpp</text>
</a>
</g>
</g>
<!-- Node1&#45;&gt;Node19 -->
<g id="edge20_Node000001_Node000019" class="edge">
<title>Node1&#45;&gt;Node19</title>
<g id="a_edge20_Node000001_Node000019"><a xlink:title=" ">
<path fill="none" stroke="#63b8ff" d="M899.01,-131.95C928.5,-122.33 967.81,-109.49 999.2,-99.24"/>
<polygon fill="#63b8ff" stroke="#63b8ff" points="1000.67,-102.44 1009.09,-96.01 998.49,-95.79 1000.67,-102.44"/>
</a>
</g>
</g>
<!-- Node22 -->
<g id="Node000022" class="node">
<title>Node22</title>
<g id="a_Node000022"><a xlink:href="time__stepping__data_8hpp.html" target="_top" xlink:title=" ">
<polygon fill="white" stroke="#666666" points="1303,-96 1147,-96 1147,-66 1303,-66 1303,-96"/>
<text text-anchor="start" x="1155" y="-84" font-family="Helvetica,sans-Serif" font-size="10.00">meltpooldg/time_integration</text>
<text text-anchor="middle" x="1225" y="-73" font-family="Helvetica,sans-Serif" font-size="10.00">/time_stepping_data.hpp</text>
</a>
</g>
</g>
<!-- Node1&#45;&gt;Node22 -->
<g id="edge25_Node000001_Node000022" class="edge">
<title>Node1&#45;&gt;Node22</title>
<g id="a_edge25_Node000001_Node000022"><a xlink:title=" ">
<path fill="none" stroke="#63b8ff" d="M936.98,-131.95C996.06,-121.71 1076.09,-107.83 1136.79,-97.3"/>
<polygon fill="#63b8ff" stroke="#63b8ff" points="1137.49,-100.73 1146.74,-95.57 1136.29,-93.83 1137.49,-100.73"/>
</a>
</g>
</g>
<!-- Node23 -->
<g id="Node000023" class="node">
<title>Node23</title>
<g id="a_Node000023"><a xlink:href="conditional__ostream_8hpp.html" target="_top" xlink:title=" ">
<polygon fill="white" stroke="#666666" points="1769,-96 1629,-96 1629,-66 1769,-66 1769,-96"/>
<text text-anchor="start" x="1637" y="-84" font-family="Helvetica,sans-Serif" font-size="10.00">meltpooldg/utilities</text>
<text text-anchor="middle" x="1699" y="-73" font-family="Helvetica,sans-Serif" font-size="10.00">/conditional_ostream.hpp</text>
</a>
</g>
</g>
<!-- Node1&#45;&gt;Node23 -->
<g id="edge28_Node000001_Node000023" class="edge">
<title>Node1&#45;&gt;Node23</title>
<g id="a_edge28_Node000001_Node000023"><a xlink:title=" ">
<path fill="none" stroke="#63b8ff" d="M951,-143.14C1093.81,-138.1 1372.41,-125.36 1618.63,-96.07"/>
<polygon fill="#63b8ff" stroke="#63b8ff" points="1619.34,-99.51 1628.85,-94.84 1618.5,-92.56 1619.34,-99.51"/>
</a>
</g>
</g>
<!-- Node25 -->
<g id="Node000025" class="node">
<title>Node25</title>
<g id="a_Node000025"><a xlink:title=" ">
<polygon fill="#e0e0e0" stroke="#999999" points="1832.5,-90.5 1787.5,-90.5 1787.5,-71.5 1832.5,-71.5 1832.5,-90.5"/>
<text text-anchor="middle" x="1810" y="-78.5" font-family="Helvetica,sans-Serif" font-size="10.00">utility</text>
</a>
</g>
</g>
<!-- Node1&#45;&gt;Node25 -->
<g id="edge31_Node000001_Node000025" class="edge">
<title>Node1&#45;&gt;Node25</title>
<g id="a_edge31_Node000001_Node000025"><a xlink:title=" ">
<path fill="none" stroke="#63b8ff" d="M951.22,-145.13C1154.13,-142.58 1623.21,-132.78 1778,-96 1779.95,-95.54 1781.92,-94.96 1783.89,-94.31"/>
<polygon fill="#63b8ff" stroke="#63b8ff" points="1785.41,-97.47 1793.45,-90.58 1782.86,-90.95 1785.41,-97.47"/>
</a>
</g>
</g>
<!-- Node11&#45;&gt;Node7 -->
<g id="edge13_Node000011_Node000007" class="edge">
<title>Node11&#45;&gt;Node7</title>
<g id="a_edge13_Node000011_Node000007"><a xlink:title=" ">
<path fill="none" stroke="#63b8ff" d="M726.94,-71.4C709.85,-69.55 691.81,-67.66 675,-66 499.28,-48.62 451.62,-55.9 273.25,-30.08"/>
<polygon fill="#63b8ff" stroke="#63b8ff" points="273.67,-26.6 263.27,-28.62 272.66,-33.53 273.67,-26.6"/>
</a>
</g>
</g>
<!-- Node11&#45;&gt;Node8 -->
<g id="edge14_Node000011_Node000008" class="edge">
<title>Node11&#45;&gt;Node8</title>
<g id="a_edge14_Node000011_Node000008"><a xlink:title=" ">
<path fill="none" stroke="#63b8ff" d="M726.57,-67.99C721.98,-67.31 717.43,-66.64 713,-66 598.58,-49.43 567.28,-47.44 449.3,-30.17"/>
<polygon fill="#63b8ff" stroke="#63b8ff" points="449.54,-26.67 439.14,-28.68 448.53,-33.59 449.54,-26.67"/>
</a>
</g>
</g>
<!-- Node12 -->
<g id="Node000012" class="node">
<title>Node12</title>
<g id="a_Node000012"><a xlink:title=" ">
<polygon fill="#e0e0e0" stroke="#999999" points="983,-24.5 843,-24.5 843,-5.5 983,-5.5 983,-24.5"/>
<text text-anchor="middle" x="913" y="-12.5" font-family="Helvetica,sans-Serif" font-size="10.00">deal.II/dofs/dof_handler.h</text>
</a>
</g>
</g>
<!-- Node11&#45;&gt;Node12 -->
<g id="edge11_Node000011_Node000012" class="edge">
<title>Node11&#45;&gt;Node12</title>
<g id="a_edge11_Node000011_Node000012"><a xlink:title=" ">
<path fill="none" stroke="#63b8ff" d="M827.92,-65.95C846.28,-55.18 871.48,-40.38 889.69,-29.69"/>
<polygon fill="#63b8ff" stroke="#63b8ff" points="891.64,-32.6 898.49,-24.52 888.1,-26.56 891.64,-32.6"/>
</a>
</g>
</g>
<!-- Node13 -->
<g id="Node000013" class="node">
<title>Node13</title>
<g id="a_Node000013"><a xlink:title=" ">
<polygon fill="#e0e0e0" stroke="#999999" points="571,-24.5 457,-24.5 457,-5.5 571,-5.5 571,-24.5"/>
<text text-anchor="middle" x="514" y="-12.5" font-family="Helvetica,sans-Serif" font-size="10.00">deal.II/fe/mapping.h</text>
</a>
</g>
</g>
<!-- Node11&#45;&gt;Node13 -->
<g id="edge12_Node000011_Node000013" class="edge">
<title>Node11&#45;&gt;Node13</title>
<g id="a_edge12_Node000011_Node000013"><a xlink:title=" ">
<path fill="none" stroke="#63b8ff" d="M740.36,-65.95C686.81,-54.14 611.38,-37.49 562.58,-26.72"/>
<polygon fill="#63b8ff" stroke="#63b8ff" points="563.11,-23.25 552.59,-24.52 561.6,-30.09 563.11,-23.25"/>
</a>
</g>
</g>
<!-- Node14 -->
<g id="Node000014" class="node">
<title>Node14</title>
<g id="a_Node000014"><a xlink:title=" ">
<polygon fill="#e0e0e0" stroke="#999999" points="708.5,-30 589.5,-30 589.5,0 708.5,0 708.5,-30"/>
<text text-anchor="start" x="597.5" y="-18" font-family="Helvetica,sans-Serif" font-size="10.00">deal.II/numerics/data</text>
<text text-anchor="middle" x="649" y="-7" font-family="Helvetica,sans-Serif" font-size="10.00">_out.h</text>
</a>
</g>
</g>
<!-- Node11&#45;&gt;Node14 -->
<g id="edge15_Node000011_Node000014" class="edge">
<title>Node11&#45;&gt;Node14</title>
<g id="a_edge15_Node000011_Node000014"><a xlink:title=" ">
<path fill="none" stroke="#63b8ff" d="M769.98,-65.95C747.17,-56.53 716.92,-44.04 692.38,-33.91"/>
<polygon fill="#63b8ff" stroke="#63b8ff" points="693.51,-30.59 682.94,-30.01 690.84,-37.06 693.51,-30.59"/>
</a>
</g>
</g>
<!-- Node15 -->
<g id="Node000015" class="node">
<title>Node15</title>
<g id="a_Node000015"><a xlink:title=" ">
<polygon fill="#e0e0e0" stroke="#999999" points="765,-24.5 727,-24.5 727,-5.5 765,-5.5 765,-24.5"/>
<text text-anchor="middle" x="746" y="-12.5" font-family="Helvetica,sans-Serif" font-size="10.00">map</text>
</a>
</g>
</g>
<!-- Node11&#45;&gt;Node15 -->
<g id="edge16_Node000011_Node000015" class="edge">
<title>Node11&#45;&gt;Node15</title>
<g id="a_edge16_Node000011_Node000015"><a xlink:title=" ">
<path fill="none" stroke="#63b8ff" d="M791.13,-65.8C782.17,-55.92 770.21,-42.72 760.86,-32.39"/>
<polygon fill="#63b8ff" stroke="#63b8ff" points="763.32,-29.9 754.02,-24.84 758.14,-34.6 763.32,-29.9"/>
</a>
</g>
</g>
<!-- Node11&#45;&gt;Node16 -->
<g id="edge17_Node000011_Node000016" class="edge">
<title>Node11&#45;&gt;Node16</title>
<g id="a_edge17_Node000011_Node000016"><a xlink:title=" ">
<path fill="none" stroke="#63b8ff" d="M881.2,-69.21C931.87,-61.04 999.22,-48.11 1057,-30 1058.63,-29.49 1060.29,-28.92 1061.95,-28.31"/>
<polygon fill="#63b8ff" stroke="#63b8ff" points="1063.35,-31.53 1071.32,-24.55 1060.74,-25.03 1063.35,-31.53"/>
</a>
</g>
</g>
<!-- Node17 -->
<g id="Node000017" class="node">
<title>Node17</title>
<g id="a_Node000017"><a xlink:title=" ">
<polygon fill="#e0e0e0" stroke="#999999" points="824.5,-24.5 783.5,-24.5 783.5,-5.5 824.5,-5.5 824.5,-24.5"/>
<text text-anchor="middle" x="804" y="-12.5" font-family="Helvetica,sans-Serif" font-size="10.00">tuple</text>
</a>
</g>
</g>
<!-- Node11&#45;&gt;Node17 -->
<g id="edge18_Node000011_Node000017" class="edge">
<title>Node11&#45;&gt;Node17</title>
<g id="a_edge18_Node000011_Node000017"><a xlink:title=" ">
<path fill="none" stroke="#63b8ff" d="M804,-65.8C804,-56.7 804,-44.79 804,-34.9"/>
<polygon fill="#63b8ff" stroke="#63b8ff" points="807.5,-34.84 804,-24.84 800.5,-34.84 807.5,-34.84"/>
</a>
</g>
</g>
<!-- Node11&#45;&gt;Node18 -->
<g id="edge19_Node000011_Node000018" class="edge">
<title>Node11&#45;&gt;Node18</title>
<g id="a_edge19_Node000011_Node000018"><a xlink:title=" ">
<path fill="none" stroke="#63b8ff" d="M865.62,-65.94C902.64,-56.92 950.47,-44.25 992,-30 993.43,-29.51 994.9,-28.98 996.36,-28.43"/>
<polygon fill="#63b8ff" stroke="#63b8ff" points="997.99,-31.56 1005.98,-24.61 995.4,-25.05 997.99,-31.56"/>
</a>
</g>
</g>
<!-- Node19&#45;&gt;Node16 -->
<g id="edge23_Node000019_Node000016" class="edge">
<title>Node19&#45;&gt;Node16</title>
<g id="a_edge23_Node000019_Node000016"><a xlink:title=" ">
<path fill="none" stroke="#63b8ff" d="M1060.21,-65.8C1065.7,-56.31 1072.95,-43.76 1078.81,-33.63"/>
<polygon fill="#63b8ff" stroke="#63b8ff" points="1081.91,-35.25 1083.89,-24.84 1075.85,-31.75 1081.91,-35.25"/>
</a>
</g>
</g>
<!-- Node19&#45;&gt;Node18 -->
<g id="edge24_Node000019_Node000018" class="edge">
<title>Node19&#45;&gt;Node18</title>
<g id="a_edge24_Node000019_Node000018"><a xlink:title=" ">
<path fill="none" stroke="#63b8ff" d="M1046.01,-65.8C1042.09,-56.5 1036.93,-44.27 1032.7,-34.26"/>
<polygon fill="#63b8ff" stroke="#63b8ff" points="1035.84,-32.7 1028.73,-24.84 1029.39,-35.42 1035.84,-32.7"/>
</a>
</g>
</g>
<!-- Node20 -->
<g id="Node000020" class="node">
<title>Node20</title>
<g id="a_Node000020"><a xlink:title=" ">
<polygon fill="#e0e0e0" stroke="#999999" points="1318.5,-30 1191.5,-30 1191.5,0 1318.5,0 1318.5,-30"/>
<text text-anchor="start" x="1199.5" y="-18" font-family="Helvetica,sans-Serif" font-size="10.00">deal.II/base/parameter</text>
<text text-anchor="middle" x="1255" y="-7" font-family="Helvetica,sans-Serif" font-size="10.00">_handler.h</text>
</a>
</g>
</g>
<!-- Node19&#45;&gt;Node20 -->
<g id="edge21_Node000019_Node000020" class="edge">
<title>Node19&#45;&gt;Node20</title>
<g id="a_edge21_Node000019_Node000020"><a xlink:title=" ">
<path fill="none" stroke="#63b8ff" d="M1096.55,-65.95C1127.22,-56.28 1168.16,-43.38 1200.73,-33.11"/>
<polygon fill="#63b8ff" stroke="#63b8ff" points="1202.07,-36.36 1210.55,-30.01 1199.97,-29.68 1202.07,-36.36"/>
</a>
</g>
</g>
<!-- Node21 -->
<g id="Node000021" class="node">
<title>Node21</title>
<g id="a_Node000021"><a xlink:title=" ">
<polygon fill="#e0e0e0" stroke="#999999" points="1173,-24.5 1129,-24.5 1129,-5.5 1173,-5.5 1173,-24.5"/>
<text text-anchor="middle" x="1151" y="-12.5" font-family="Helvetica,sans-Serif" font-size="10.00">limits</text>
</a>
</g>
</g>
<!-- Node19&#45;&gt;Node21 -->
<g id="edge22_Node000019_Node000021" class="edge">
<title>Node19&#45;&gt;Node21</title>
<g id="a_edge22_Node000019_Node000021"><a xlink:title=" ">
<path fill="none" stroke="#63b8ff" d="M1073.97,-65.8C1090.41,-55.17 1112.79,-40.7 1129.19,-30.1"/>
<polygon fill="#63b8ff" stroke="#63b8ff" points="1131.11,-33.03 1137.61,-24.66 1127.31,-27.15 1131.11,-33.03"/>
</a>
</g>
</g>
<!-- Node22&#45;&gt;Node16 -->
<g id="edge27_Node000022_Node000016" class="edge">
<title>Node22&#45;&gt;Node16</title>
<g id="a_edge27_Node000022_Node000016"><a xlink:title=" ">
<path fill="none" stroke="#63b8ff" d="M1195.15,-65.95C1171.62,-54.88 1139.07,-39.56 1116.23,-28.82"/>
<polygon fill="#63b8ff" stroke="#63b8ff" points="1117.64,-25.61 1107.1,-24.52 1114.66,-31.94 1117.64,-25.61"/>
</a>
</g>
</g>
<!-- Node22&#45;&gt;Node20 -->
<g id="edge26_Node000022_Node000020" class="edge">
<title>Node22&#45;&gt;Node20</title>
<g id="a_edge26_Node000022_Node000020"><a xlink:title=" ">
<path fill="none" stroke="#63b8ff" d="M1231.66,-65.8C1235.31,-58.01 1239.93,-48.16 1244.09,-39.28"/>
<polygon fill="#63b8ff" stroke="#63b8ff" points="1247.29,-40.7 1248.36,-30.16 1240.95,-37.73 1247.29,-40.7"/>
</a>
</g>
</g>
<!-- Node24 -->
<g id="Node000024" class="node">
<title>Node24</title>
<g id="a_Node000024"><a xlink:title=" ">
<polygon fill="#e0e0e0" stroke="#999999" points="1764,-30 1634,-30 1634,0 1764,0 1764,-30"/>
<text text-anchor="start" x="1642" y="-18" font-family="Helvetica,sans-Serif" font-size="10.00">deal.II/base/conditional</text>
<text text-anchor="middle" x="1699" y="-7" font-family="Helvetica,sans-Serif" font-size="10.00">_ostream.h</text>
</a>
</g>
</g>
<!-- Node23&#45;&gt;Node24 -->
<g id="edge29_Node000023_Node000024" class="edge">
<title>Node23&#45;&gt;Node24</title>
<g id="a_edge29_Node000023_Node000024"><a xlink:title=" ">
<path fill="none" stroke="#63b8ff" d="M1699,-65.8C1699,-58.34 1699,-48.99 1699,-40.41"/>
<polygon fill="#63b8ff" stroke="#63b8ff" points="1702.5,-40.16 1699,-30.16 1695.5,-40.16 1702.5,-40.16"/>
</a>
</g>
</g>
</g>
</svg>
