<?xml version="1.0" encoding="UTF-8" standalone="no"?>
<!DOCTYPE svg PUBLIC "-//W3C//DTD SVG 1.1//EN"
 "http://www.w3.org/Graphics/SVG/1.1/DTD/svg11.dtd">
<!-- Generated by graphviz version 2.43.0 (0)
 -->
<!-- Title: applications/mp&#45;heat&#45;transfer/cases/powder_bed/powder_bed.templates.hpp Pages: 1 -->
<svg width="288pt" height="126pt"
 viewBox="0.00 0.00 288.00 126.00" xmlns="http://www.w3.org/2000/svg" xmlns:xlink="http://www.w3.org/1999/xlink">
<g id="graph0" class="graph" transform="scale(1 1) rotate(0) translate(4 122)">
<title>applications/mp&#45;heat&#45;transfer/cases/powder_bed/powder_bed.templates.hpp</title>
<!-- Node1 -->
<g id="Node000001" class="node">
<title>Node1</title>
<g id="a_Node000001"><a xlink:title=" ">
<polygon fill="#999999" stroke="#666666" points="226,-118 50,-118 50,-77 226,-77 226,-118"/>
<text text-anchor="start" x="58" y="-106" font-family="Helvetica,sans-Serif" font-size="10.00">applications/mp&#45;heat</text>
<text text-anchor="start" x="58" y="-95" font-family="Helvetica,sans-Serif" font-size="10.00">&#45;transfer/cases/powder</text>
<text text-anchor="middle" x="138" y="-84" font-family="Helvetica,sans-Serif" font-size="10.00">_bed/powder_bed.templates.hpp</text>
</a>
</g>
</g>
<!-- Node2 -->
<g id="Node000002" class="node">
<title>Node2</title>
<g id="a_Node000002"><a xlink:href="applications_2mp-heat-transfer_2cases_2powder__bed_2powder__bed_8cpp.html" target="_top" xlink:title=" ">
<polygon fill="white" stroke="#666666" points="128,-41 0,-41 0,0 128,0 128,-41"/>
<text text-anchor="start" x="8" y="-29" font-family="Helvetica,sans-Serif" font-size="10.00">applications/mp&#45;heat</text>
<text text-anchor="start" x="8" y="-18" font-family="Helvetica,sans-Serif" font-size="10.00">&#45;transfer/cases/powder</text>
<text text-anchor="middle" x="64" y="-7" font-family="Helvetica,sans-Serif" font-size="10.00">_bed/powder_bed.cpp</text>
</a>
</g>
</g>
<!-- Node1&#45;&gt;Node2 -->
<g id="edge1_Node000001_Node000002" class="edge">
<title>Node1&#45;&gt;Node2</title>
<g id="a_edge1_Node000001_Node000002"><a xlink:title=" ">
<path fill="none" stroke="#63b8ff" d="M111.37,-69.51C102.1,-60.11 91.88,-49.76 83.31,-41.07"/>
<polygon fill="#63b8ff" stroke="#63b8ff" points="109.04,-72.13 118.56,-76.79 114.03,-67.22 109.04,-72.13"/>
</a>
</g>
</g>
<!-- Node3 -->
<g id="Node000003" class="node">
<title>Node3</title>
<g id="a_Node000003"><a xlink:href="applications_2mp-melt-pool_2cases_2powder__bed_2powder__bed_8cpp.html" target="_top" xlink:title=" ">
<polygon fill="white" stroke="#666666" points="280,-41 146,-41 146,0 280,0 280,-41"/>
<text text-anchor="start" x="154" y="-29" font-family="Helvetica,sans-Serif" font-size="10.00">applications/mp&#45;melt</text>
<text text-anchor="start" x="154" y="-18" font-family="Helvetica,sans-Serif" font-size="10.00">&#45;pool/cases/powder_bed</text>
<text text-anchor="middle" x="213" y="-7" font-family="Helvetica,sans-Serif" font-size="10.00">/powder_bed.cpp</text>
</a>
</g>
</g>
<!-- Node1&#45;&gt;Node3 -->
<g id="edge2_Node000001_Node000003" class="edge">
<title>Node1&#45;&gt;Node3</title>
<g id="a_edge2_Node000001_Node000003"><a xlink:title=" ">
<path fill="none" stroke="#63b8ff" d="M164.99,-69.51C174.39,-60.11 184.74,-49.76 193.43,-41.07"/>
<polygon fill="#63b8ff" stroke="#63b8ff" points="162.3,-67.25 157.71,-76.79 167.25,-72.2 162.3,-67.25"/>
</a>
</g>
</g>
</g>
</svg>
