<?xml version="1.0" encoding="UTF-8" standalone="no"?>
<!DOCTYPE svg PUBLIC "-//W3C//DTD SVG 1.1//EN"
 "http://www.w3.org/Graphics/SVG/1.1/DTD/svg11.dtd">
<!-- Generated by graphviz version 2.43.0 (0)
 -->
<!-- Title: include/meltpooldg/linear_algebra/preconditioner_trilinos_wrapper.hpp Pages: 1 -->
<!--zoomable 313 -->

<svg id="main" version="1.1" xmlns="http://www.w3.org/2000/svg" xmlns:xlink="http://www.w3.org/1999/xlink" xml:space="preserve" onload="init(evt)">
<style type="text/css"><![CDATA[
.node, .edge {opacity: 0.7;}
.node.selected, .edge.selected {opacity: 1;}
.edge:hover path { stroke: red; }
.edge:hover polygon { stroke: red; fill: red; }
]]></style>

<defs>
  <circle id="rim" cx="0" cy="0" r="7"/>
  <circle id="rim2" cx="0" cy="0" r="3.5"/>
  <g id="zoomPlus">
    <use xlink:href="#rim" fill="#404040"><set attributeName="fill" to="#808080" begin="zoomplus.mouseover" end="zoomplus.mouseout"/></use>
    <path d="M-4,0h8M0,-4v8" fill="none" stroke="white" stroke-width="1.5" pointer-events="none"/>
  </g>
  <g id="zoomMin">
    <use xlink:href="#rim" fill="#404040"><set attributeName="fill" to="#808080" begin="zoomminus.mouseover" end="zoomminus.mouseout"/></use>
    <path d="M-4,0h8" fill="none" stroke="white" stroke-width="1.5" pointer-events="none"/>
  </g>
  <g id="arrowUp" transform="translate(30 24)">
    <use xlink:href="#rim"/>
    <path pointer-events="none" fill="none" stroke="white" stroke-width="1.5" d="M0,-3.0v7 M-2.5,-0.5L0,-3.0L2.5,-0.5"/>
  </g>
  <g id="arrowRight" transform="rotate(90) translate(36 -43)">
    <use xlink:href="#rim"/>
    <path pointer-events="none" fill="none" stroke="white" stroke-width="1.5" d="M0,-3.0v7 M-2.5,-0.5L0,-3.0L2.5,-0.5"/>
  </g>
  <g id="arrowDown" transform="rotate(180) translate(-30 -48)">
    <use xlink:href="#rim"/>
    <path pointer-events="none" fill="none" stroke="white" stroke-width="1.5" d="M0,-3.0v7 M-2.5,-0.5L0,-3.0L2.5,-0.5"/>
  </g>
  <g id="arrowLeft" transform="rotate(270) translate(-36 17)">
    <use xlink:href="#rim"/>
    <path pointer-events="none" fill="none" stroke="white" stroke-width="1.5" d="M0,-3.0v7 M-2.5,-0.5L0,-3.0L2.5,-0.5"/>
  </g>
  <g id="resetDef">
    <use xlink:href="#rim2" fill="#404040"><set attributeName="fill" to="#808080" begin="reset.mouseover" end="reset.mouseout"/></use>
  </g>
</defs>
<script type="application/ecmascript">
var viewWidth = 2337;
var viewHeight = 313;
var sectionId = 'dynsection-0';
</script>
<script type="application/ecmascript" xlink:href="svg.min.js"/>
<svg id="graph" class="graph">
<g id="viewport">
<title>include/meltpooldg/linear_algebra/preconditioner_trilinos_wrapper.hpp</title>
<!-- Node1 -->
<g id="Node000001" class="node">
<title>Node1</title>
<g id="a_Node000001"><a xlink:title=" ">
<polygon fill="#999999" stroke="#666666" points="1157.5,-305 994.5,-305 994.5,-264 1157.5,-264 1157.5,-305"/>
<text text-anchor="start" x="1002.5" y="-293" font-family="Helvetica,sans-Serif" font-size="10.00">include/meltpooldg</text>
<text text-anchor="start" x="1002.5" y="-282" font-family="Helvetica,sans-Serif" font-size="10.00">/linear_algebra/preconditioner</text>
<text text-anchor="middle" x="1076" y="-271" font-family="Helvetica,sans-Serif" font-size="10.00">_trilinos_wrapper.hpp</text>
</a>
</g>
</g>
<!-- Node2 -->
<g id="Node000002" class="node">
<title>Node2</title>
<g id="a_Node000002"><a xlink:title=" ">
<polygon fill="#e0e0e0" stroke="#999999" points="679,-222.5 541,-222.5 541,-203.5 679,-203.5 679,-222.5"/>
<text text-anchor="middle" x="610" y="-210.5" font-family="Helvetica,sans-Serif" font-size="10.00">deal.II/base/exceptions.h</text>
</a>
</g>
</g>
<!-- Node1&#45;&gt;Node2 -->
<g id="edge1_Node000001_Node000002" class="edge">
<title>Node1&#45;&gt;Node2</title>
<g id="a_edge1_Node000001_Node000002"><a xlink:title=" ">
<path fill="none" stroke="#63b8ff" d="M994.5,-272.7C915.9,-262.08 793.64,-245.03 688,-228 680.9,-226.86 673.45,-225.6 666.09,-224.31"/>
<polygon fill="#63b8ff" stroke="#63b8ff" points="666.6,-220.85 656.15,-222.56 665.39,-227.74 666.6,-220.85"/>
</a>
</g>
</g>
<!-- Node3 -->
<g id="Node000003" class="node">
<title>Node3</title>
<g id="a_Node000003"><a xlink:title=" ">
<polygon fill="#e0e0e0" stroke="#999999" points="825,-222.5 697,-222.5 697,-203.5 825,-203.5 825,-222.5"/>
<text text-anchor="middle" x="761" y="-210.5" font-family="Helvetica,sans-Serif" font-size="10.00">deal.II/dofs/dof_tools.h</text>
</a>
</g>
</g>
<!-- Node1&#45;&gt;Node3 -->
<g id="edge2_Node000001_Node000003" class="edge">
<title>Node1&#45;&gt;Node3</title>
<g id="a_edge2_Node000001_Node000003"><a xlink:title=" ">
<path fill="none" stroke="#63b8ff" d="M994.47,-265.51C935.93,-252.59 858.97,-235.61 809.73,-224.75"/>
<polygon fill="#63b8ff" stroke="#63b8ff" points="810.18,-221.27 799.66,-222.53 808.67,-228.1 810.18,-221.27"/>
</a>
</g>
</g>
<!-- Node4 -->
<g id="Node000004" class="node">
<title>Node4</title>
<g id="a_Node000004"><a xlink:title=" ">
<polygon fill="#e0e0e0" stroke="#999999" points="953,-228 843,-228 843,-198 953,-198 953,-228"/>
<text text-anchor="start" x="851" y="-216" font-family="Helvetica,sans-Serif" font-size="10.00">deal.II/lac/dynamic</text>
<text text-anchor="middle" x="898" y="-205" font-family="Helvetica,sans-Serif" font-size="10.00">_sparsity_pattern.h</text>
</a>
</g>
</g>
<!-- Node1&#45;&gt;Node4 -->
<g id="edge3_Node000001_Node000004" class="edge">
<title>Node1&#45;&gt;Node4</title>
<g id="a_edge3_Node000001_Node000004"><a xlink:title=" ">
<path fill="none" stroke="#63b8ff" d="M1025.94,-263.96C999.96,-253.81 968.45,-241.51 943.21,-231.65"/>
<polygon fill="#63b8ff" stroke="#63b8ff" points="944.45,-228.38 933.87,-228 941.91,-234.9 944.45,-228.38"/>
</a>
</g>
</g>
<!-- Node5 -->
<g id="Node000005" class="node">
<title>Node5</title>
<g id="a_Node000005"><a xlink:title=" ">
<polygon fill="#e0e0e0" stroke="#999999" points="118,-162 0,-162 0,-132 118,-132 118,-162"/>
<text text-anchor="start" x="8" y="-150" font-family="Helvetica,sans-Serif" font-size="10.00">deal.II/lac/la_parallel</text>
<text text-anchor="middle" x="59" y="-139" font-family="Helvetica,sans-Serif" font-size="10.00">_block_vector.h</text>
</a>
</g>
</g>
<!-- Node1&#45;&gt;Node5 -->
<g id="edge4_Node000001_Node000005" class="edge">
<title>Node1&#45;&gt;Node5</title>
<g id="a_edge4_Node000001_Node000005"><a xlink:title=" ">
<path fill="none" stroke="#63b8ff" d="M1048.73,-263.97C1034.17,-253.44 1016,-240.15 1000,-228 982.86,-214.99 982.17,-205.49 962,-198 790.87,-134.43 327.52,-183.07 128.39,-161.95"/>
<polygon fill="#63b8ff" stroke="#63b8ff" points="128.58,-158.44 118.25,-160.78 127.78,-165.4 128.58,-158.44"/>
</a>
</g>
</g>
<!-- Node6 -->
<g id="Node000006" class="node">
<title>Node6</title>
<g id="a_Node000006"><a xlink:title=" ">
<polygon fill="#e0e0e0" stroke="#999999" points="1267,-228 1161,-228 1161,-198 1267,-198 1267,-228"/>
<text text-anchor="start" x="1169" y="-216" font-family="Helvetica,sans-Serif" font-size="10.00">deal.II/lac/sparsity</text>
<text text-anchor="middle" x="1214" y="-205" font-family="Helvetica,sans-Serif" font-size="10.00">_tools.h</text>
</a>
</g>
</g>
<!-- Node1&#45;&gt;Node6 -->
<g id="edge5_Node000001_Node000006" class="edge">
<title>Node1&#45;&gt;Node6</title>
<g id="a_edge5_Node000001_Node000006"><a xlink:title=" ">
<path fill="none" stroke="#63b8ff" d="M1114.81,-263.96C1134.26,-254.16 1157.71,-242.35 1176.92,-232.67"/>
<polygon fill="#63b8ff" stroke="#63b8ff" points="1178.62,-235.74 1185.98,-228.11 1175.47,-229.48 1178.62,-235.74"/>
</a>
</g>
</g>
<!-- Node7 -->
<g id="Node000007" class="node">
<title>Node7</title>
<g id="a_Node000007"><a xlink:title=" ">
<polygon fill="#e0e0e0" stroke="#999999" points="1386.5,-228 1285.5,-228 1285.5,-198 1386.5,-198 1386.5,-228"/>
<text text-anchor="start" x="1293.5" y="-216" font-family="Helvetica,sans-Serif" font-size="10.00">deal.II/lac/trilinos</text>
<text text-anchor="middle" x="1336" y="-205" font-family="Helvetica,sans-Serif" font-size="10.00">_sparse_matrix.h</text>
</a>
</g>
</g>
<!-- Node1&#45;&gt;Node7 -->
<g id="edge6_Node000001_Node000007" class="edge">
<title>Node1&#45;&gt;Node7</title>
<g id="a_edge6_Node000001_Node000007"><a xlink:title=" ">
<path fill="none" stroke="#63b8ff" d="M1149.12,-263.96C1188.96,-253.3 1237.69,-240.28 1275.4,-230.2"/>
<polygon fill="#63b8ff" stroke="#63b8ff" points="1276.47,-233.54 1285.23,-227.57 1274.66,-226.77 1276.47,-233.54"/>
</a>
</g>
</g>
<!-- Node8 -->
<g id="Node000008" class="node">
<title>Node8</title>
<g id="a_Node000008"><a xlink:href="scratch__data_8hpp.html" target="_top" xlink:title=" ">
<polygon fill="white" stroke="#666666" points="1143,-228 1009,-228 1009,-198 1143,-198 1143,-228"/>
<text text-anchor="start" x="1017" y="-216" font-family="Helvetica,sans-Serif" font-size="10.00">meltpooldg/core/scratch</text>
<text text-anchor="middle" x="1076" y="-205" font-family="Helvetica,sans-Serif" font-size="10.00">_data.hpp</text>
</a>
</g>
</g>
<!-- Node1&#45;&gt;Node8 -->
<g id="edge7_Node000001_Node000008" class="edge">
<title>Node1&#45;&gt;Node8</title>
<g id="a_edge7_Node000001_Node000008"><a xlink:title=" ">
<path fill="none" stroke="#63b8ff" d="M1076,-263.77C1076,-255.85 1076,-246.63 1076,-238.3"/>
<polygon fill="#63b8ff" stroke="#63b8ff" points="1079.5,-238.04 1076,-228.04 1072.5,-238.04 1079.5,-238.04"/>
</a>
</g>
</g>
<!-- Node45 -->
<g id="Node000045" class="node">
<title>Node45</title>
<g id="a_Node000045"><a xlink:title=" ">
<polygon fill="#e0e0e0" stroke="#999999" points="1439.5,-222.5 1404.5,-222.5 1404.5,-203.5 1439.5,-203.5 1439.5,-222.5"/>
<text text-anchor="middle" x="1422" y="-210.5" font-family="Helvetica,sans-Serif" font-size="10.00">any</text>
</a>
</g>
</g>
<!-- Node1&#45;&gt;Node45 -->
<g id="edge52_Node000001_Node000045" class="edge">
<title>Node1&#45;&gt;Node45</title>
<g id="a_edge52_Node000001_Node000045"><a xlink:title=" ">
<path fill="none" stroke="#63b8ff" d="M1157.7,-276.65C1223.46,-269.41 1317.53,-255.13 1396,-228 1396.89,-227.69 1397.79,-227.36 1398.68,-227"/>
<polygon fill="#63b8ff" stroke="#63b8ff" points="1400.53,-230 1408.07,-222.56 1397.54,-223.67 1400.53,-230"/>
</a>
</g>
</g>
<!-- Node46 -->
<g id="Node000046" class="node">
<title>Node46</title>
<g id="a_Node000046"><a xlink:title=" ">
<polygon fill="#e0e0e0" stroke="#999999" points="1526.5,-222.5 1457.5,-222.5 1457.5,-203.5 1526.5,-203.5 1526.5,-222.5"/>
<text text-anchor="middle" x="1492" y="-210.5" font-family="Helvetica,sans-Serif" font-size="10.00">type_traits</text>
</a>
</g>
</g>
<!-- Node1&#45;&gt;Node46 -->
<g id="edge53_Node000001_Node000046" class="edge">
<title>Node1&#45;&gt;Node46</title>
<g id="a_edge53_Node000001_Node000046"><a xlink:title=" ">
<path fill="none" stroke="#63b8ff" d="M1157.5,-275.34C1233.57,-266.8 1349.9,-251.33 1449,-228 1452.04,-227.29 1455.16,-226.46 1458.28,-225.56"/>
<polygon fill="#63b8ff" stroke="#63b8ff" points="1459.55,-228.84 1468.09,-222.57 1457.51,-222.14 1459.55,-228.84"/>
</a>
</g>
</g>
<!-- Node8&#45;&gt;Node5 -->
<g id="edge20_Node000008_Node000005" class="edge">
<title>Node8&#45;&gt;Node5</title>
<g id="a_edge20_Node000008_Node000005"><a xlink:title=" ">
<path fill="none" stroke="#63b8ff" d="M1008.91,-199.71C1004.21,-199.07 999.54,-198.48 995,-198 614.35,-157.38 511.97,-208.2 128.23,-162"/>
<polygon fill="#63b8ff" stroke="#63b8ff" points="128.59,-158.52 118.24,-160.78 127.75,-165.47 128.59,-158.52"/>
</a>
</g>
</g>
<!-- Node9 -->
<g id="Node000009" class="node">
<title>Node9</title>
<g id="a_Node000009"><a xlink:title=" ">
<polygon fill="#e0e0e0" stroke="#999999" points="239.5,-162 136.5,-162 136.5,-132 239.5,-132 239.5,-162"/>
<text text-anchor="start" x="144.5" y="-150" font-family="Helvetica,sans-Serif" font-size="10.00">deal.II/base/index</text>
<text text-anchor="middle" x="188" y="-139" font-family="Helvetica,sans-Serif" font-size="10.00">_set.h</text>
</a>
</g>
</g>
<!-- Node8&#45;&gt;Node9 -->
<g id="edge8_Node000008_Node000009" class="edge">
<title>Node8&#45;&gt;Node9</title>
<g id="a_edge8_Node000008_Node000009"><a xlink:title=" ">
<path fill="none" stroke="#63b8ff" d="M1008.91,-199.75C1004.21,-199.09 999.54,-198.5 995,-198 668.44,-162.04 579.65,-206.38 250.12,-161.96"/>
<polygon fill="#63b8ff" stroke="#63b8ff" points="250.18,-158.43 239.8,-160.55 249.23,-165.37 250.18,-158.43"/>
</a>
</g>
</g>
<!-- Node10 -->
<g id="Node000010" class="node">
<title>Node10</title>
<g id="a_Node000010"><a xlink:title=" ">
<polygon fill="#e0e0e0" stroke="#999999" points="362,-156.5 258,-156.5 258,-137.5 362,-137.5 362,-156.5"/>
<text text-anchor="middle" x="310" y="-144.5" font-family="Helvetica,sans-Serif" font-size="10.00">deal.II/base/mpi.h</text>
</a>
</g>
</g>
<!-- Node8&#45;&gt;Node10 -->
<g id="edge9_Node000008_Node000010" class="edge">
<title>Node8&#45;&gt;Node10</title>
<g id="a_edge9_Node000008_Node000010"><a xlink:title=" ">
<path fill="none" stroke="#63b8ff" d="M1008.9,-199.8C1004.21,-199.13 999.54,-198.52 995,-198 719.02,-166.29 646.01,-201.21 371,-162 365,-161.15 358.73,-160 352.58,-158.73"/>
<polygon fill="#63b8ff" stroke="#63b8ff" points="352.93,-155.22 342.42,-156.5 351.44,-162.06 352.93,-155.22"/>
</a>
</g>
</g>
<!-- Node11 -->
<g id="Node000011" class="node">
<title>Node11</title>
<g id="a_Node000011"><a xlink:title=" ">
<polygon fill="#e0e0e0" stroke="#999999" points="515.5,-162 380.5,-162 380.5,-132 515.5,-132 515.5,-162"/>
<text text-anchor="start" x="388.5" y="-150" font-family="Helvetica,sans-Serif" font-size="10.00">deal.II/base/mpi_remote</text>
<text text-anchor="middle" x="448" y="-139" font-family="Helvetica,sans-Serif" font-size="10.00">_point_evaluation.h</text>
</a>
</g>
</g>
<!-- Node8&#45;&gt;Node11 -->
<g id="edge10_Node000008_Node000011" class="edge">
<title>Node8&#45;&gt;Node11</title>
<g id="a_edge10_Node000008_Node000011"><a xlink:title=" ">
<path fill="none" stroke="#63b8ff" d="M1008.89,-199.9C1004.2,-199.2 999.53,-198.56 995,-198 789.92,-172.5 733.93,-188.54 525.92,-162.16"/>
<polygon fill="#63b8ff" stroke="#63b8ff" points="526.26,-158.68 515.9,-160.88 525.37,-165.62 526.26,-158.68"/>
</a>
</g>
</g>
<!-- Node12 -->
<g id="Node000012" class="node">
<title>Node12</title>
<g id="a_Node000012"><a xlink:title=" ">
<polygon fill="#e0e0e0" stroke="#999999" points="668.5,-156.5 533.5,-156.5 533.5,-137.5 668.5,-137.5 668.5,-156.5"/>
<text text-anchor="middle" x="601" y="-144.5" font-family="Helvetica,sans-Serif" font-size="10.00">deal.II/base/partitioner.h</text>
</a>
</g>
</g>
<!-- Node8&#45;&gt;Node12 -->
<g id="edge11_Node000008_Node000012" class="edge">
<title>Node8&#45;&gt;Node12</title>
<g id="a_edge11_Node000008_Node000012"><a xlink:title=" ">
<path fill="none" stroke="#63b8ff" d="M1008.86,-200.09C1004.18,-199.35 999.52,-198.65 995,-198 854.63,-177.92 818.28,-182.69 678,-162 670.52,-160.9 662.66,-159.61 654.93,-158.28"/>
<polygon fill="#63b8ff" stroke="#63b8ff" points="655.35,-154.8 644.89,-156.5 654.13,-161.69 655.35,-154.8"/>
</a>
</g>
</g>
<!-- Node13 -->
<g id="Node000013" class="node">
<title>Node13</title>
<g id="a_Node000013"><a xlink:title=" ">
<polygon fill="#e0e0e0" stroke="#999999" points="825,-156.5 687,-156.5 687,-137.5 825,-137.5 825,-156.5"/>
<text text-anchor="middle" x="756" y="-144.5" font-family="Helvetica,sans-Serif" font-size="10.00">deal.II/base/quadrature.h</text>
</a>
</g>
</g>
<!-- Node8&#45;&gt;Node13 -->
<g id="edge12_Node000008_Node000013" class="edge">
<title>Node8&#45;&gt;Node13</title>
<g id="a_edge12_Node000008_Node000013"><a xlink:title=" ">
<path fill="none" stroke="#63b8ff" d="M1008.92,-198.58C949.22,-186.64 863.12,-169.42 808.37,-158.47"/>
<polygon fill="#63b8ff" stroke="#63b8ff" points="809.01,-155.03 798.52,-156.5 807.64,-161.9 809.01,-155.03"/>
</a>
</g>
</g>
<!-- Node14 -->
<g id="Node000014" class="node">
<title>Node14</title>
<g id="a_Node000014"><a xlink:title=" ">
<polygon fill="#e0e0e0" stroke="#999999" points="953,-156.5 843,-156.5 843,-137.5 953,-137.5 953,-156.5"/>
<text text-anchor="middle" x="898" y="-144.5" font-family="Helvetica,sans-Serif" font-size="10.00">deal.II/base/timer.h</text>
</a>
</g>
</g>
<!-- Node8&#45;&gt;Node14 -->
<g id="edge13_Node000008_Node000014" class="edge">
<title>Node8&#45;&gt;Node14</title>
<g id="a_edge13_Node000008_Node000014"><a xlink:title=" ">
<path fill="none" stroke="#63b8ff" d="M1036.94,-197.95C1005.31,-186.58 961.24,-170.74 931.27,-159.96"/>
<polygon fill="#63b8ff" stroke="#63b8ff" points="932.28,-156.61 921.69,-156.52 929.91,-163.19 932.28,-156.61"/>
</a>
</g>
</g>
<!-- Node15 -->
<g id="Node000015" class="node">
<title>Node15</title>
<g id="a_Node000015"><a xlink:title=" ">
<polygon fill="#e0e0e0" stroke="#999999" points="1084.5,-24.5 935.5,-24.5 935.5,-5.5 1084.5,-5.5 1084.5,-24.5"/>
<text text-anchor="middle" x="1010" y="-12.5" font-family="Helvetica,sans-Serif" font-size="10.00">deal.II/base/vectorization.h</text>
</a>
</g>
</g>
<!-- Node8&#45;&gt;Node15 -->
<g id="edge14_Node000008_Node000015" class="edge">
<title>Node8&#45;&gt;Node15</title>
<g id="a_edge14_Node000008_Node000015"><a xlink:title=" ">
<path fill="none" stroke="#63b8ff" d="M1050.4,-197.83C1034.05,-188.4 1012.69,-175.32 995,-162 979.17,-150.08 980.08,-140.12 962,-132 892.88,-100.98 673.66,-152.33 623,-96 614.08,-86.09 614.2,-76.01 623,-66 642.63,-43.67 817.39,-28.45 925.25,-21.09"/>
<polygon fill="#63b8ff" stroke="#63b8ff" points="925.72,-24.57 935.47,-20.4 925.25,-17.58 925.72,-24.57"/>
</a>
</g>
</g>
<!-- Node16 -->
<g id="Node000016" class="node">
<title>Node16</title>
<g id="a_Node000016"><a xlink:title=" ">
<polygon fill="#e0e0e0" stroke="#999999" points="772,-90.5 632,-90.5 632,-71.5 772,-71.5 772,-90.5"/>
<text text-anchor="middle" x="702" y="-78.5" font-family="Helvetica,sans-Serif" font-size="10.00">deal.II/dofs/dof_handler.h</text>
</a>
</g>
</g>
<!-- Node8&#45;&gt;Node16 -->
<g id="edge15_Node000008_Node000016" class="edge">
<title>Node8&#45;&gt;Node16</title>
<g id="a_edge15_Node000008_Node000016"><a xlink:title=" ">
<path fill="none" stroke="#63b8ff" d="M1063.62,-197.86C1045.2,-177.17 1011.01,-140.19 995,-132 909.14,-88.07 876.04,-112.42 781,-96 774.18,-94.82 767.02,-93.57 759.93,-92.33"/>
<polygon fill="#63b8ff" stroke="#63b8ff" points="760.07,-88.8 749.61,-90.51 758.85,-95.69 760.07,-88.8"/>
</a>
</g>
</g>
<!-- Node17 -->
<g id="Node000017" class="node">
<title>Node17</title>
<g id="a_Node000017"><a xlink:title=" ">
<polygon fill="#e0e0e0" stroke="#999999" points="1428.5,-156.5 1347.5,-156.5 1347.5,-137.5 1428.5,-137.5 1428.5,-156.5"/>
<text text-anchor="middle" x="1388" y="-144.5" font-family="Helvetica,sans-Serif" font-size="10.00">deal.II/fe/fe.h</text>
</a>
</g>
</g>
<!-- Node8&#45;&gt;Node17 -->
<g id="edge16_Node000008_Node000017" class="edge">
<title>Node8&#45;&gt;Node17</title>
<g id="a_edge16_Node000008_Node000017"><a xlink:title=" ">
<path fill="none" stroke="#63b8ff" d="M1143.24,-199.37C1206.85,-187.34 1297.68,-169.92 1333,-162 1337.16,-161.07 1341.49,-160.05 1345.81,-159"/>
<polygon fill="#63b8ff" stroke="#63b8ff" points="1346.93,-162.33 1355.79,-156.53 1345.24,-155.53 1346.93,-162.33"/>
</a>
</g>
</g>
<!-- Node18 -->
<g id="Node000018" class="node">
<title>Node18</title>
<g id="a_Node000018"><a xlink:title=" ">
<polygon fill="#e0e0e0" stroke="#999999" points="1561,-156.5 1447,-156.5 1447,-137.5 1561,-137.5 1561,-156.5"/>
<text text-anchor="middle" x="1504" y="-144.5" font-family="Helvetica,sans-Serif" font-size="10.00">deal.II/fe/mapping.h</text>
</a>
</g>
</g>
<!-- Node8&#45;&gt;Node18 -->
<g id="edge17_Node000008_Node000018" class="edge">
<title>Node8&#45;&gt;Node18</title>
<g id="a_edge17_Node000008_Node000018"><a xlink:title=" ">
<path fill="none" stroke="#63b8ff" d="M1143.1,-199.43C1146.11,-198.93 1149.08,-198.45 1152,-198 1278.6,-178.39 1311.67,-183.31 1438,-162 1443.92,-161 1450.11,-159.84 1456.24,-158.63"/>
<polygon fill="#63b8ff" stroke="#63b8ff" points="1457.31,-161.98 1466.41,-156.54 1455.91,-155.12 1457.31,-161.98"/>
</a>
</g>
</g>
<!-- Node19 -->
<g id="Node000019" class="node">
<title>Node19</title>
<g id="a_Node000019"><a xlink:title=" ">
<polygon fill="#e0e0e0" stroke="#999999" points="887.5,-90.5 790.5,-90.5 790.5,-71.5 887.5,-71.5 887.5,-90.5"/>
<text text-anchor="middle" x="839" y="-78.5" font-family="Helvetica,sans-Serif" font-size="10.00">deal.II/grid/tria.h</text>
</a>
</g>
</g>
<!-- Node8&#45;&gt;Node19 -->
<g id="edge18_Node000008_Node000019" class="edge">
<title>Node8&#45;&gt;Node19</title>
<g id="a_edge18_Node000008_Node000019"><a xlink:title=" ">
<path fill="none" stroke="#63b8ff" d="M1072.24,-197.84C1066.7,-179.8 1054.59,-148.93 1033,-132 1029.99,-129.64 939.49,-106.91 883.17,-92.92"/>
<polygon fill="#63b8ff" stroke="#63b8ff" points="883.98,-89.51 873.43,-90.5 882.29,-96.31 883.98,-89.51"/>
</a>
</g>
</g>
<!-- Node20 -->
<g id="Node000020" class="node">
<title>Node20</title>
<g id="a_Node000020"><a xlink:title=" ">
<polygon fill="#e0e0e0" stroke="#999999" points="1674.5,-162 1579.5,-162 1579.5,-132 1674.5,-132 1674.5,-162"/>
<text text-anchor="start" x="1587.5" y="-150" font-family="Helvetica,sans-Serif" font-size="10.00">deal.II/lac/affine</text>
<text text-anchor="middle" x="1627" y="-139" font-family="Helvetica,sans-Serif" font-size="10.00">_constraints.h</text>
</a>
</g>
</g>
<!-- Node8&#45;&gt;Node20 -->
<g id="edge19_Node000008_Node000020" class="edge">
<title>Node8&#45;&gt;Node20</title>
<g id="a_edge19_Node000008_Node000020"><a xlink:title=" ">
<path fill="none" stroke="#63b8ff" d="M1143.08,-199.28C1146.09,-198.82 1149.07,-198.39 1152,-198 1333.54,-173.52 1384.25,-191.67 1569.16,-161.95"/>
<polygon fill="#63b8ff" stroke="#63b8ff" points="1569.91,-165.37 1579.22,-160.31 1568.78,-158.46 1569.91,-165.37"/>
</a>
</g>
</g>
<!-- Node21 -->
<g id="Node000021" class="node">
<title>Node21</title>
<g id="a_Node000021"><a xlink:title=" ">
<polygon fill="#e0e0e0" stroke="#999999" points="1811,-162 1693,-162 1693,-132 1811,-132 1811,-162"/>
<text text-anchor="start" x="1701" y="-150" font-family="Helvetica,sans-Serif" font-size="10.00">deal.II/lac/la_parallel</text>
<text text-anchor="middle" x="1752" y="-139" font-family="Helvetica,sans-Serif" font-size="10.00">_vector.h</text>
</a>
</g>
</g>
<!-- Node8&#45;&gt;Node21 -->
<g id="edge21_Node000008_Node000021" class="edge">
<title>Node8&#45;&gt;Node21</title>
<g id="a_edge21_Node000008_Node000021"><a xlink:title=" ">
<path fill="none" stroke="#63b8ff" d="M1143.07,-199.21C1146.08,-198.78 1149.07,-198.37 1152,-198 1383.81,-168.9 1447.39,-193.26 1682.5,-162.07"/>
<polygon fill="#63b8ff" stroke="#63b8ff" points="1683.3,-165.5 1692.74,-160.69 1682.37,-158.56 1683.3,-165.5"/>
</a>
</g>
</g>
<!-- Node22 -->
<g id="Node000022" class="node">
<title>Node22</title>
<g id="a_Node000022"><a xlink:title=" ">
<polygon fill="#e0e0e0" stroke="#999999" points="1012.5,-96 905.5,-96 905.5,-66 1012.5,-66 1012.5,-96"/>
<text text-anchor="start" x="913.5" y="-84" font-family="Helvetica,sans-Serif" font-size="10.00">deal.II/matrix_free</text>
<text text-anchor="middle" x="959" y="-73" font-family="Helvetica,sans-Serif" font-size="10.00">/matrix_free.h</text>
</a>
</g>
</g>
<!-- Node8&#45;&gt;Node22 -->
<g id="edge22_Node000008_Node000022" class="edge">
<title>Node8&#45;&gt;Node22</title>
<g id="a_edge22_Node000008_Node000022"><a xlink:title=" ">
<path fill="none" stroke="#63b8ff" d="M1079.2,-197.86C1082.24,-180.68 1084.57,-151.55 1071,-132 1059.37,-115.24 1040.75,-104.02 1022.01,-96.54"/>
<polygon fill="#63b8ff" stroke="#63b8ff" points="1023.13,-93.22 1012.54,-93.06 1020.72,-99.8 1023.13,-93.22"/>
</a>
</g>
</g>
<!-- Node23 -->
<g id="Node000023" class="node">
<title>Node23</title>
<g id="a_Node000023"><a xlink:href="util_8hpp.html" target="_top" xlink:title=" ">
<polygon fill="white" stroke="#666666" points="1253,-156.5 1123,-156.5 1123,-137.5 1253,-137.5 1253,-156.5"/>
<text text-anchor="middle" x="1188" y="-144.5" font-family="Helvetica,sans-Serif" font-size="10.00">meltpooldg/cut/util.hpp</text>
</a>
</g>
</g>
<!-- Node8&#45;&gt;Node23 -->
<g id="edge23_Node000008_Node000023" class="edge">
<title>Node8&#45;&gt;Node23</title>
<g id="a_edge23_Node000008_Node000023"><a xlink:title=" ">
<path fill="none" stroke="#63b8ff" d="M1100.58,-197.95C1119.53,-187.13 1145.58,-172.24 1164.3,-161.54"/>
<polygon fill="#63b8ff" stroke="#63b8ff" points="1166.15,-164.52 1173.09,-156.52 1162.68,-158.44 1166.15,-164.52"/>
</a>
</g>
</g>
<!-- Node38 -->
<g id="Node000038" class="node">
<title>Node38</title>
<g id="a_Node000038"><a xlink:title=" ">
<polygon fill="#e0e0e0" stroke="#999999" points="2115,-90.5 2057,-90.5 2057,-71.5 2115,-71.5 2115,-90.5"/>
<text text-anchor="middle" x="2086" y="-78.5" font-family="Helvetica,sans-Serif" font-size="10.00">memory</text>
</a>
</g>
</g>
<!-- Node8&#45;&gt;Node38 -->
<g id="edge50_Node000008_Node000038" class="edge">
<title>Node8&#45;&gt;Node38</title>
<g id="a_edge50_Node000008_Node000038"><a xlink:title=" ">
<path fill="none" stroke="#63b8ff" d="M1143.38,-199.79C1179.6,-191.78 1224.41,-179.51 1262,-162 1283.12,-152.16 1282.95,-139.52 1305,-132 1461.45,-78.62 1886.01,-128.95 2048,-96 2050.84,-95.42 2053.75,-94.67 2056.64,-93.81"/>
<polygon fill="#63b8ff" stroke="#63b8ff" points="2057.86,-97.09 2066.22,-90.58 2055.62,-90.46 2057.86,-97.09"/>
</a>
</g>
</g>
<!-- Node40 -->
<g id="Node000040" class="node">
<title>Node40</title>
<g id="a_Node000040"><a xlink:title=" ">
<polygon fill="#e0e0e0" stroke="#999999" points="2180.5,-90.5 2133.5,-90.5 2133.5,-71.5 2180.5,-71.5 2180.5,-90.5"/>
<text text-anchor="middle" x="2157" y="-78.5" font-family="Helvetica,sans-Serif" font-size="10.00">vector</text>
</a>
</g>
</g>
<!-- Node8&#45;&gt;Node40 -->
<g id="edge51_Node000008_Node000040" class="edge">
<title>Node8&#45;&gt;Node40</title>
<g id="a_edge51_Node000008_Node000040"><a xlink:title=" ">
<path fill="none" stroke="#63b8ff" d="M1143.02,-198.35C1203.07,-185.88 1283.84,-168.44 1298,-162 1318.56,-152.66 1317.7,-139.5 1339,-132 1503.7,-73.97 1953.72,-134.71 2124,-96 2126.17,-95.51 2128.38,-94.88 2130.57,-94.16"/>
<polygon fill="#63b8ff" stroke="#63b8ff" points="2131.81,-97.43 2139.92,-90.61 2129.33,-90.89 2131.81,-97.43"/>
</a>
</g>
</g>
<!-- Node41 -->
<g id="Node000041" class="node">
<title>Node41</title>
<g id="a_Node000041"><a xlink:href="conditional__ostream_8hpp.html" target="_top" xlink:title=" ">
<polygon fill="white" stroke="#666666" points="1969,-162 1829,-162 1829,-132 1969,-132 1969,-162"/>
<text text-anchor="start" x="1837" y="-150" font-family="Helvetica,sans-Serif" font-size="10.00">meltpooldg/utilities</text>
<text text-anchor="middle" x="1899" y="-139" font-family="Helvetica,sans-Serif" font-size="10.00">/conditional_ostream.hpp</text>
</a>
</g>
</g>
<!-- Node8&#45;&gt;Node41 -->
<g id="edge46_Node000008_Node000041" class="edge">
<title>Node8&#45;&gt;Node41</title>
<g id="a_edge46_Node000008_Node000041"><a xlink:title=" ">
<path fill="none" stroke="#63b8ff" d="M1143.07,-199.16C1146.08,-198.74 1149.07,-198.35 1152,-198 1443.94,-163.39 1522.87,-195.27 1818.69,-162.04"/>
<polygon fill="#63b8ff" stroke="#63b8ff" points="1819.31,-165.5 1828.85,-160.89 1818.52,-158.54 1819.31,-165.5"/>
</a>
</g>
</g>
<!-- Node43 -->
<g id="Node000043" class="node">
<title>Node43</title>
<g id="a_Node000043"><a xlink:title=" ">
<polygon fill="#e0e0e0" stroke="#999999" points="2052.5,-156.5 1987.5,-156.5 1987.5,-137.5 2052.5,-137.5 2052.5,-156.5"/>
<text text-anchor="middle" x="2020" y="-144.5" font-family="Helvetica,sans-Serif" font-size="10.00">functional</text>
</a>
</g>
</g>
<!-- Node8&#45;&gt;Node43 -->
<g id="edge48_Node000008_Node000043" class="edge">
<title>Node8&#45;&gt;Node43</title>
<g id="a_edge48_Node000008_Node000043"><a xlink:title=" ">
<path fill="none" stroke="#63b8ff" d="M1143.06,-199.13C1146.08,-198.71 1149.07,-198.33 1152,-198 1517.12,-156.62 1616.65,-228.75 1978,-162 1981.43,-161.37 1984.96,-160.52 1988.46,-159.55"/>
<polygon fill="#63b8ff" stroke="#63b8ff" points="1989.54,-162.88 1998.07,-156.59 1987.48,-156.19 1989.54,-162.88"/>
</a>
</g>
</g>
<!-- Node44 -->
<g id="Node000044" class="node">
<title>Node44</title>
<g id="a_Node000044"><a xlink:title=" ">
<polygon fill="#e0e0e0" stroke="#999999" points="2109,-156.5 2071,-156.5 2071,-137.5 2109,-137.5 2109,-156.5"/>
<text text-anchor="middle" x="2090" y="-144.5" font-family="Helvetica,sans-Serif" font-size="10.00">map</text>
</a>
</g>
</g>
<!-- Node8&#45;&gt;Node44 -->
<g id="edge49_Node000008_Node000044" class="edge">
<title>Node8&#45;&gt;Node44</title>
<g id="a_edge49_Node000008_Node000044"><a xlink:title=" ">
<path fill="none" stroke="#63b8ff" d="M1143.06,-199.11C1146.08,-198.7 1149.07,-198.33 1152,-198 1353.14,-175.61 1865.99,-212.38 2062,-162 2063.45,-161.63 2064.91,-161.17 2066.36,-160.66"/>
<polygon fill="#63b8ff" stroke="#63b8ff" points="2067.86,-163.83 2075.64,-156.64 2065.07,-157.41 2067.86,-163.83"/>
</a>
</g>
</g>
<!-- Node23&#45;&gt;Node15 -->
<g id="edge25_Node000023_Node000015" class="edge">
<title>Node23&#45;&gt;Node15</title>
<g id="a_edge25_Node000023_Node000015"><a xlink:title=" ">
<path fill="none" stroke="#63b8ff" d="M1148.23,-137.48C1121.07,-130.09 1085.53,-117.17 1060,-96 1039.76,-79.22 1025.25,-52.04 1017.23,-34.09"/>
<polygon fill="#63b8ff" stroke="#63b8ff" points="1020.4,-32.58 1013.27,-24.74 1013.95,-35.31 1020.4,-32.58"/>
</a>
</g>
</g>
<!-- Node23&#45;&gt;Node16 -->
<g id="edge26_Node000023_Node000016" class="edge">
<title>Node23&#45;&gt;Node16</title>
<g id="a_edge26_Node000023_Node000016"><a xlink:title=" ">
<path fill="none" stroke="#63b8ff" d="M1122.65,-139.05C1042.13,-130.25 901.21,-114.02 781,-96 773.53,-94.88 765.68,-93.61 757.94,-92.29"/>
<polygon fill="#63b8ff" stroke="#63b8ff" points="758.33,-88.81 747.88,-90.56 757.14,-95.71 758.33,-88.81"/>
</a>
</g>
</g>
<!-- Node23&#45;&gt;Node19 -->
<g id="edge27_Node000023_Node000019" class="edge">
<title>Node23&#45;&gt;Node19</title>
<g id="a_edge27_Node000023_Node000019"><a xlink:title=" ">
<path fill="none" stroke="#63b8ff" d="M1130.98,-137.47C1071.95,-128.35 977.19,-112.9 896,-96 891.5,-95.06 886.82,-94.02 882.16,-92.94"/>
<polygon fill="#63b8ff" stroke="#63b8ff" points="882.6,-89.45 872.06,-90.54 880.98,-96.26 882.6,-89.45"/>
</a>
</g>
</g>
<!-- Node23&#45;&gt;Node22 -->
<g id="edge30_Node000023_Node000022" class="edge">
<title>Node23&#45;&gt;Node22</title>
<g id="a_edge30_Node000023_Node000022"><a xlink:title=" ">
<path fill="none" stroke="#63b8ff" d="M1157.12,-137.37C1121.93,-127.54 1063.58,-111.23 1019.3,-98.85"/>
<polygon fill="#63b8ff" stroke="#63b8ff" points="1020.08,-95.44 1009.51,-96.12 1018.2,-102.18 1020.08,-95.44"/>
</a>
</g>
</g>
<!-- Node24 -->
<g id="Node000024" class="node">
<title>Node24</title>
<g id="a_Node000024"><a xlink:title=" ">
<polygon fill="#e0e0e0" stroke="#999999" points="1300.5,-96 1199.5,-96 1199.5,-66 1300.5,-66 1300.5,-96"/>
<text text-anchor="start" x="1207.5" y="-84" font-family="Helvetica,sans-Serif" font-size="10.00">deal.II/base/array</text>
<text text-anchor="middle" x="1250" y="-73" font-family="Helvetica,sans-Serif" font-size="10.00">_view.h</text>
</a>
</g>
</g>
<!-- Node23&#45;&gt;Node24 -->
<g id="edge24_Node000023_Node000024" class="edge">
<title>Node23&#45;&gt;Node24</title>
<g id="a_edge24_Node000023_Node000024"><a xlink:title=" ">
<path fill="none" stroke="#63b8ff" d="M1196.36,-137.37C1204.71,-128.75 1217.88,-115.15 1229.08,-103.59"/>
<polygon fill="#63b8ff" stroke="#63b8ff" points="1231.64,-105.98 1236.09,-96.36 1226.62,-101.11 1231.64,-105.98"/>
</a>
</g>
</g>
<!-- Node25 -->
<g id="Node000025" class="node">
<title>Node25</title>
<g id="a_Node000025"><a xlink:title=" ">
<polygon fill="#e0e0e0" stroke="#999999" points="1427.5,-96 1318.5,-96 1318.5,-66 1427.5,-66 1427.5,-96"/>
<text text-anchor="start" x="1326.5" y="-84" font-family="Helvetica,sans-Serif" font-size="10.00">deal.II/matrix_free</text>
<text text-anchor="middle" x="1373" y="-73" font-family="Helvetica,sans-Serif" font-size="10.00">/evaluation_flags.h</text>
</a>
</g>
</g>
<!-- Node23&#45;&gt;Node25 -->
<g id="edge28_Node000023_Node000025" class="edge">
<title>Node23&#45;&gt;Node25</title>
<g id="a_edge28_Node000023_Node000025"><a xlink:title=" ">
<path fill="none" stroke="#63b8ff" d="M1212.95,-137.37C1240.9,-127.7 1286.93,-111.77 1322.47,-99.48"/>
<polygon fill="#63b8ff" stroke="#63b8ff" points="1323.89,-102.69 1332.2,-96.12 1321.6,-96.08 1323.89,-102.69"/>
</a>
</g>
</g>
<!-- Node26 -->
<g id="Node000026" class="node">
<title>Node26</title>
<g id="a_Node000026"><a xlink:title=" ">
<polygon fill="#e0e0e0" stroke="#999999" points="1570.5,-96 1445.5,-96 1445.5,-66 1570.5,-66 1570.5,-96"/>
<text text-anchor="start" x="1453.5" y="-84" font-family="Helvetica,sans-Serif" font-size="10.00">deal.II/matrix_free</text>
<text text-anchor="middle" x="1508" y="-73" font-family="Helvetica,sans-Serif" font-size="10.00">/fe_point_evaluation.h</text>
</a>
</g>
</g>
<!-- Node23&#45;&gt;Node26 -->
<g id="edge29_Node000023_Node000026" class="edge">
<title>Node23&#45;&gt;Node26</title>
<g id="a_edge29_Node000023_Node000026"><a xlink:title=" ">
<path fill="none" stroke="#63b8ff" d="M1230.82,-137.44C1283.12,-126.98 1372.39,-109.12 1435.47,-96.51"/>
<polygon fill="#63b8ff" stroke="#63b8ff" points="1436.24,-99.92 1445.36,-94.53 1434.87,-93.06 1436.24,-99.92"/>
</a>
</g>
</g>
<!-- Node27 -->
<g id="Node000027" class="node">
<title>Node27</title>
<g id="a_Node000027"><a xlink:title=" ">
<polygon fill="#e0e0e0" stroke="#999999" points="1707.5,-96 1588.5,-96 1588.5,-66 1707.5,-66 1707.5,-96"/>
<text text-anchor="start" x="1596.5" y="-84" font-family="Helvetica,sans-Serif" font-size="10.00">deal.II/non_matching</text>
<text text-anchor="middle" x="1648" y="-73" font-family="Helvetica,sans-Serif" font-size="10.00">/mapping_info.h</text>
</a>
</g>
</g>
<!-- Node23&#45;&gt;Node27 -->
<g id="edge31_Node000023_Node000027" class="edge">
<title>Node23&#45;&gt;Node27</title>
<g id="a_edge31_Node000023_Node000027"><a xlink:title=" ">
<path fill="none" stroke="#63b8ff" d="M1233.46,-137.46C1244.42,-135.53 1256.11,-133.59 1267,-132 1402.31,-112.25 1439.98,-117.86 1578.22,-96.2"/>
<polygon fill="#63b8ff" stroke="#63b8ff" points="1579.02,-99.62 1588.35,-94.59 1577.93,-92.7 1579.02,-99.62"/>
</a>
</g>
</g>
<!-- Node28 -->
<g id="Node000028" class="node">
<title>Node28</title>
<g id="a_Node000028"><a xlink:title=" ">
<polygon fill="#e0e0e0" stroke="#999999" points="1844.5,-96 1725.5,-96 1725.5,-66 1844.5,-66 1844.5,-96"/>
<text text-anchor="start" x="1733.5" y="-84" font-family="Helvetica,sans-Serif" font-size="10.00">deal.II/non_matching</text>
<text text-anchor="middle" x="1785" y="-73" font-family="Helvetica,sans-Serif" font-size="10.00">/mesh_classifier.h</text>
</a>
</g>
</g>
<!-- Node23&#45;&gt;Node28 -->
<g id="edge32_Node000023_Node000028" class="edge">
<title>Node23&#45;&gt;Node28</title>
<g id="a_edge32_Node000023_Node000028"><a xlink:title=" ">
<path fill="none" stroke="#63b8ff" d="M1231.76,-137.48C1243.2,-135.46 1255.53,-133.47 1267,-132 1462.7,-106.89 1516.59,-123.7 1715.19,-96.14"/>
<polygon fill="#63b8ff" stroke="#63b8ff" points="1715.95,-99.57 1725.37,-94.71 1714.98,-92.64 1715.95,-99.57"/>
</a>
</g>
</g>
<!-- Node29 -->
<g id="Node000029" class="node">
<title>Node29</title>
<g id="a_Node000029"><a xlink:href="enum_8hpp.html" target="_top" xlink:title=" ">
<polygon fill="white" stroke="#666666" points="1975,-96 1863,-96 1863,-66 1975,-66 1975,-96"/>
<text text-anchor="start" x="1871" y="-84" font-family="Helvetica,sans-Serif" font-size="10.00">meltpooldg/utilities</text>
<text text-anchor="middle" x="1919" y="-73" font-family="Helvetica,sans-Serif" font-size="10.00">/enum.hpp</text>
</a>
</g>
</g>
<!-- Node23&#45;&gt;Node29 -->
<g id="edge33_Node000023_Node000029" class="edge">
<title>Node23&#45;&gt;Node29</title>
<g id="a_edge33_Node000023_Node000029"><a xlink:title=" ">
<path fill="none" stroke="#63b8ff" d="M1230.92,-137.48C1242.58,-135.41 1255.24,-133.4 1267,-132 1523.26,-101.54 1593.29,-130.85 1852.62,-96.04"/>
<polygon fill="#63b8ff" stroke="#63b8ff" points="1853.29,-99.48 1862.72,-94.66 1852.34,-92.55 1853.29,-99.48"/>
</a>
</g>
</g>
<!-- Node36 -->
<g id="Node000036" class="node">
<title>Node36</title>
<g id="a_Node000036"><a xlink:href="fe__integrator_8hpp.html" target="_top" xlink:title=" ">
<polygon fill="white" stroke="#666666" points="1181,-96 1069,-96 1069,-66 1181,-66 1181,-96"/>
<text text-anchor="start" x="1077" y="-84" font-family="Helvetica,sans-Serif" font-size="10.00">meltpooldg/utilities</text>
<text text-anchor="middle" x="1125" y="-73" font-family="Helvetica,sans-Serif" font-size="10.00">/fe_integrator.hpp</text>
</a>
</g>
</g>
<!-- Node23&#45;&gt;Node36 -->
<g id="edge40_Node000023_Node000036" class="edge">
<title>Node23&#45;&gt;Node36</title>
<g id="a_edge40_Node000023_Node000036"><a xlink:title=" ">
<path fill="none" stroke="#63b8ff" d="M1179.5,-137.37C1171.02,-128.75 1157.63,-115.15 1146.25,-103.59"/>
<polygon fill="#63b8ff" stroke="#63b8ff" points="1148.65,-101.03 1139.14,-96.36 1143.66,-105.94 1148.65,-101.03"/>
</a>
</g>
</g>
<!-- Node23&#45;&gt;Node38 -->
<g id="edge43_Node000023_Node000038" class="edge">
<title>Node23&#45;&gt;Node38</title>
<g id="a_edge43_Node000023_Node000038"><a xlink:title=" ">
<path fill="none" stroke="#63b8ff" d="M1230.49,-137.43C1242.27,-135.34 1255.09,-133.32 1267,-132 1612.35,-93.6 1707.41,-164.87 2048,-96 2050.84,-95.43 2053.76,-94.67 2056.64,-93.81"/>
<polygon fill="#63b8ff" stroke="#63b8ff" points="2057.86,-97.1 2066.22,-90.59 2055.62,-90.46 2057.86,-97.1"/>
</a>
</g>
</g>
<!-- Node39 -->
<g id="Node000039" class="node">
<title>Node39</title>
<g id="a_Node000039"><a xlink:title=" ">
<polygon fill="#e0e0e0" stroke="#999999" points="2038.5,-90.5 1993.5,-90.5 1993.5,-71.5 2038.5,-71.5 2038.5,-90.5"/>
<text text-anchor="middle" x="2016" y="-78.5" font-family="Helvetica,sans-Serif" font-size="10.00">utility</text>
</a>
</g>
</g>
<!-- Node23&#45;&gt;Node39 -->
<g id="edge44_Node000023_Node000039" class="edge">
<title>Node23&#45;&gt;Node39</title>
<g id="a_edge44_Node000023_Node000039"><a xlink:title=" ">
<path fill="none" stroke="#63b8ff" d="M1230.5,-137.46C1242.28,-135.37 1255.1,-133.35 1267,-132 1584.04,-96.09 1673.43,-169.14 1984,-96 1985.95,-95.54 1987.93,-94.97 1989.89,-94.32"/>
<polygon fill="#63b8ff" stroke="#63b8ff" points="1991.41,-97.48 1999.46,-90.59 1988.87,-90.96 1991.41,-97.48"/>
</a>
</g>
</g>
<!-- Node23&#45;&gt;Node40 -->
<g id="edge45_Node000023_Node000040" class="edge">
<title>Node23&#45;&gt;Node40</title>
<g id="a_edge45_Node000023_Node000040"><a xlink:title=" ">
<path fill="none" stroke="#63b8ff" d="M1251.98,-137.46C1269.17,-135.41 1287.77,-133.41 1305,-132 1486.57,-117.17 1946.32,-136.21 2124,-96 2126.17,-95.51 2128.38,-94.88 2130.57,-94.17"/>
<polygon fill="#63b8ff" stroke="#63b8ff" points="2131.81,-97.44 2139.92,-90.61 2129.33,-90.89 2131.81,-97.44"/>
</a>
</g>
</g>
<!-- Node30 -->
<g id="Node000030" class="node">
<title>Node30</title>
<g id="a_Node000030"><a xlink:title=" ">
<polygon fill="#e0e0e0" stroke="#999999" points="1632.5,-30 1505.5,-30 1505.5,0 1632.5,0 1632.5,-30"/>
<text text-anchor="start" x="1513.5" y="-18" font-family="Helvetica,sans-Serif" font-size="10.00">deal.II/base/parameter</text>
<text text-anchor="middle" x="1569" y="-7" font-family="Helvetica,sans-Serif" font-size="10.00">_handler.h</text>
</a>
</g>
</g>
<!-- Node29&#45;&gt;Node30 -->
<g id="edge34_Node000029_Node000030" class="edge">
<title>Node29&#45;&gt;Node30</title>
<g id="a_edge34_Node000029_Node000030"><a xlink:title=" ">
<path fill="none" stroke="#63b8ff" d="M1862.66,-67.71C1859.73,-67.12 1856.83,-66.55 1854,-66 1763.27,-48.53 1737.72,-47.08 1642.73,-30.1"/>
<polygon fill="#63b8ff" stroke="#63b8ff" points="1643.15,-26.62 1632.69,-28.3 1641.91,-33.51 1643.15,-26.62"/>
</a>
</g>
</g>
<!-- Node31 -->
<g id="Node000031" class="node">
<title>Node31</title>
<g id="a_Node000031"><a xlink:title=" ">
<polygon fill="#e0e0e0" stroke="#999999" points="1775.5,-24.5 1650.5,-24.5 1650.5,-5.5 1775.5,-5.5 1775.5,-24.5"/>
<text text-anchor="middle" x="1713" y="-12.5" font-family="Helvetica,sans-Serif" font-size="10.00">deal.II/base/patterns.h</text>
</a>
</g>
</g>
<!-- Node29&#45;&gt;Node31 -->
<g id="edge35_Node000029_Node000031" class="edge">
<title>Node29&#45;&gt;Node31</title>
<g id="a_edge35_Node000029_Node000031"><a xlink:title=" ">
<path fill="none" stroke="#63b8ff" d="M1873.79,-65.95C1836.71,-54.43 1784.85,-38.32 1750.16,-27.54"/>
<polygon fill="#63b8ff" stroke="#63b8ff" points="1751,-24.14 1740.42,-24.52 1748.93,-30.83 1751,-24.14"/>
</a>
</g>
</g>
<!-- Node32 -->
<g id="Node000032" class="node">
<title>Node32</title>
<g id="a_Node000032"><a xlink:title=" ">
<polygon fill="#e0e0e0" stroke="#999999" points="1906,-30 1794,-30 1794,0 1906,0 1906,-30"/>
<text text-anchor="start" x="1802" y="-18" font-family="Helvetica,sans-Serif" font-size="10.00">meltpooldg/utilities</text>
<text text-anchor="middle" x="1850" y="-7" font-family="Helvetica,sans-Serif" font-size="10.00">/better_enum.hpp</text>
</a>
</g>
</g>
<!-- Node29&#45;&gt;Node32 -->
<g id="edge36_Node000029_Node000032" class="edge">
<title>Node29&#45;&gt;Node32</title>
<g id="a_edge36_Node000029_Node000032"><a xlink:title=" ">
<path fill="none" stroke="#63b8ff" d="M1903.69,-65.8C1894.57,-57.34 1882.84,-46.46 1872.67,-37.03"/>
<polygon fill="#63b8ff" stroke="#63b8ff" points="1874.98,-34.4 1865.27,-30.16 1870.22,-39.53 1874.98,-34.4"/>
</a>
</g>
</g>
<!-- Node33 -->
<g id="Node000033" class="node">
<title>Node33</title>
<g id="a_Node000033"><a xlink:title=" ">
<polygon fill="#e0e0e0" stroke="#999999" points="2049.5,-30 1924.5,-30 1924.5,0 2049.5,0 2049.5,-30"/>
<text text-anchor="start" x="1932.5" y="-18" font-family="Helvetica,sans-Serif" font-size="10.00">boost/algorithm/string</text>
<text text-anchor="middle" x="1987" y="-7" font-family="Helvetica,sans-Serif" font-size="10.00">/join.hpp</text>
</a>
</g>
</g>
<!-- Node29&#45;&gt;Node33 -->
<g id="edge37_Node000029_Node000033" class="edge">
<title>Node29&#45;&gt;Node33</title>
<g id="a_edge37_Node000029_Node000033"><a xlink:title=" ">
<path fill="none" stroke="#63b8ff" d="M1934.09,-65.8C1943.07,-57.34 1954.63,-46.46 1964.65,-37.03"/>
<polygon fill="#63b8ff" stroke="#63b8ff" points="1967.07,-39.57 1971.95,-30.16 1962.27,-34.47 1967.07,-39.57"/>
</a>
</g>
</g>
<!-- Node34 -->
<g id="Node000034" class="node">
<title>Node34</title>
<g id="a_Node000034"><a xlink:title=" ">
<polygon fill="#e0e0e0" stroke="#999999" points="2124,-24.5 2068,-24.5 2068,-5.5 2124,-5.5 2124,-24.5"/>
<text text-anchor="middle" x="2096" y="-12.5" font-family="Helvetica,sans-Serif" font-size="10.00">sstream</text>
</a>
</g>
</g>
<!-- Node29&#45;&gt;Node34 -->
<g id="edge38_Node000029_Node000034" class="edge">
<title>Node29&#45;&gt;Node34</title>
<g id="a_edge38_Node000029_Node000034"><a xlink:title=" ">
<path fill="none" stroke="#63b8ff" d="M1958.9,-65.97C1986.95,-56.06 2025.33,-42.38 2059,-30 2060.64,-29.4 2062.32,-28.78 2064.01,-28.15"/>
<polygon fill="#63b8ff" stroke="#63b8ff" points="2065.58,-31.29 2073.72,-24.51 2063.13,-24.74 2065.58,-31.29"/>
</a>
</g>
</g>
<!-- Node35 -->
<g id="Node000035" class="node">
<title>Node35</title>
<g id="a_Node000035"><a xlink:title=" ">
<polygon fill="#e0e0e0" stroke="#999999" points="2186,-24.5 2142,-24.5 2142,-5.5 2186,-5.5 2186,-24.5"/>
<text text-anchor="middle" x="2164" y="-12.5" font-family="Helvetica,sans-Serif" font-size="10.00">string</text>
</a>
</g>
</g>
<!-- Node29&#45;&gt;Node35 -->
<g id="edge39_Node000029_Node000035" class="edge">
<title>Node29&#45;&gt;Node35</title>
<g id="a_edge39_Node000029_Node000035"><a xlink:title=" ">
<path fill="none" stroke="#63b8ff" d="M1975.25,-67.45C2033.5,-54.36 2118.09,-35.05 2133,-30 2134.4,-29.53 2135.82,-29.01 2137.24,-28.47"/>
<polygon fill="#63b8ff" stroke="#63b8ff" points="2138.65,-31.68 2146.53,-24.6 2135.96,-25.21 2138.65,-31.68"/>
</a>
</g>
</g>
<!-- Node36&#45;&gt;Node15 -->
<g id="edge41_Node000036_Node000015" class="edge">
<title>Node36&#45;&gt;Node15</title>
<g id="a_edge41_Node000036_Node000015"><a xlink:title=" ">
<path fill="none" stroke="#63b8ff" d="M1099.76,-65.95C1080.22,-55.08 1053.32,-40.11 1034.07,-29.4"/>
<polygon fill="#63b8ff" stroke="#63b8ff" points="1035.74,-26.32 1025.3,-24.52 1032.34,-32.44 1035.74,-26.32"/>
</a>
</g>
</g>
<!-- Node37 -->
<g id="Node000037" class="node">
<title>Node37</title>
<g id="a_Node000037"><a xlink:title=" ">
<polygon fill="#e0e0e0" stroke="#999999" points="1209.5,-30 1102.5,-30 1102.5,0 1209.5,0 1209.5,-30"/>
<text text-anchor="start" x="1110.5" y="-18" font-family="Helvetica,sans-Serif" font-size="10.00">deal.II/matrix_free</text>
<text text-anchor="middle" x="1156" y="-7" font-family="Helvetica,sans-Serif" font-size="10.00">/fe_evaluation.h</text>
</a>
</g>
</g>
<!-- Node36&#45;&gt;Node37 -->
<g id="edge42_Node000036_Node000037" class="edge">
<title>Node36&#45;&gt;Node37</title>
<g id="a_edge42_Node000036_Node000037"><a xlink:title=" ">
<path fill="none" stroke="#63b8ff" d="M1131.88,-65.8C1135.65,-58.01 1140.42,-48.16 1144.73,-39.28"/>
<polygon fill="#63b8ff" stroke="#63b8ff" points="1147.93,-40.69 1149.14,-30.16 1141.63,-37.64 1147.93,-40.69"/>
</a>
</g>
</g>
<!-- Node42 -->
<g id="Node000042" class="node">
<title>Node42</title>
<g id="a_Node000042"><a xlink:title=" ">
<polygon fill="#e0e0e0" stroke="#999999" points="2329,-96 2199,-96 2199,-66 2329,-66 2329,-96"/>
<text text-anchor="start" x="2207" y="-84" font-family="Helvetica,sans-Serif" font-size="10.00">deal.II/base/conditional</text>
<text text-anchor="middle" x="2264" y="-73" font-family="Helvetica,sans-Serif" font-size="10.00">_ostream.h</text>
</a>
</g>
</g>
<!-- Node41&#45;&gt;Node42 -->
<g id="edge47_Node000041_Node000042" class="edge">
<title>Node41&#45;&gt;Node42</title>
<g id="a_edge47_Node000041_Node000042"><a xlink:title=" ">
<path fill="none" stroke="#63b8ff" d="M1969.24,-133.69C1972.54,-133.12 1975.8,-132.55 1979,-132 2069.63,-116.34 2094.72,-113.05 2188.71,-96.21"/>
<polygon fill="#63b8ff" stroke="#63b8ff" points="2189.42,-99.64 2198.64,-94.43 2188.18,-92.75 2189.42,-99.64"/>
</a>
</g>
</g>
</g>
</svg>

<g id="navigator" transform="translate(0 0)" fill="#404254">
  <rect fill="#f2f5e9" fill-opacity="0.5" stroke="#606060" stroke-width=".5" x="0" y="0" width="60" height="60"/>
  <use id="zoomplus" xlink:href="#zoomPlus" x="17" y="9" onmousedown="handleZoom(evt,'in')"/>
  <use id="zoomminus" xlink:href="#zoomMin" x="42" y="9" onmousedown="handleZoom(evt,'out')"/>
  <use id="reset" xlink:href="#resetDef" x="30" y="36" onmousedown="handleReset()"/>
   <use id="arrowup" xlink:href="#arrowUp" x="0" y="0" onmousedown="handlePan(0,-1)"/>
  <use id="arrowright" xlink:href="#arrowRight" x="0" y="0" onmousedown="handlePan(1,0)"/>
  <use id="arrowdown" xlink:href="#arrowDown" x="0" y="0" onmousedown="handlePan(0,1)"/>
  <use id="arrowleft" xlink:href="#arrowLeft" x="0" y="0" onmousedown="handlePan(-1,0)"/>
</g>
<svg viewBox="0 0 15 15" width="100%" height="30px" preserveAspectRatio="xMaxYMin meet">
 <g id="arrow_out" transform="scale(0.3 0.3)">
  <a xlink:href="preconditioner__trilinos__wrapper_8hpp__incl_org.svg" target="_base">
   <rect id="button" ry="5" rx="5" y="6" x="6" height="38" width="38"
        fill="#f2f5e9" fill-opacity="0.5" stroke="#606060" stroke-width="1.0"/>
   <path id="arrow"
     d="M 11.500037,31.436501 C 11.940474,20.09759 22.043105,11.32322 32.158766,21.979434 L 37.068811,17.246167 C 37.068811,17.246167 37.088388,32 37.088388,32 L 22.160133,31.978069 C 22.160133,31.978069 26.997745,27.140456 26.997745,27.140456 C 18.528582,18.264221 13.291696,25.230495 11.500037,31.436501 z"
     style="fill:#404040;"/>
  </a>
 </g>
</svg>

<style type='text/css'>
<![CDATA[
[data-mouse-over-selected='false'] { opacity: 0.7; }
[data-mouse-over-selected='true']  { opacity: 1.0; }
]]>
</style>
<script type="application/ecmascript"><![CDATA[
document.addEventListener('DOMContentLoaded', (event) => {
  highlightEdges();
  highlightAdjacentNodes();
});
]]></script>
</svg>
