<?xml version="1.0" encoding="UTF-8" standalone="no"?>
<!DOCTYPE svg PUBLIC "-//W3C//DTD SVG 1.1//EN"
 "http://www.w3.org/Graphics/SVG/1.1/DTD/svg11.dtd">
<!-- Generated by graphviz version 2.43.0 (0)
 -->
<!-- Title: include/meltpooldg/linear_algebra/predictor_data.hpp Pages: 1 -->
<svg width="689pt" height="181pt"
 viewBox="0.00 0.00 688.50 181.00" xmlns="http://www.w3.org/2000/svg" xmlns:xlink="http://www.w3.org/1999/xlink">
<g id="graph0" class="graph" transform="scale(1 1) rotate(0) translate(4 177)">
<title>include/meltpooldg/linear_algebra/predictor_data.hpp</title>
<!-- Node1 -->
<g id="Node000001" class="node">
<title>Node1</title>
<g id="a_Node000001"><a xlink:title=" ">
<polygon fill="#999999" stroke="#666666" points="272.5,-173 136.5,-173 136.5,-132 272.5,-132 272.5,-173"/>
<text text-anchor="start" x="144.5" y="-161" font-family="Helvetica,sans-Serif" font-size="10.00">include/meltpooldg</text>
<text text-anchor="start" x="144.5" y="-150" font-family="Helvetica,sans-Serif" font-size="10.00">/linear_algebra/predictor</text>
<text text-anchor="middle" x="204.5" y="-139" font-family="Helvetica,sans-Serif" font-size="10.00">_data.hpp</text>
</a>
</g>
</g>
<!-- Node2 -->
<g id="Node000002" class="node">
<title>Node2</title>
<g id="a_Node000002"><a xlink:title=" ">
<polygon fill="#e0e0e0" stroke="#999999" points="127,-30 0,-30 0,0 127,0 127,-30"/>
<text text-anchor="start" x="8" y="-18" font-family="Helvetica,sans-Serif" font-size="10.00">deal.II/base/parameter</text>
<text text-anchor="middle" x="63.5" y="-7" font-family="Helvetica,sans-Serif" font-size="10.00">_handler.h</text>
</a>
</g>
</g>
<!-- Node1&#45;&gt;Node2 -->
<g id="edge1_Node000001_Node000002" class="edge">
<title>Node1&#45;&gt;Node2</title>
<g id="a_edge1_Node000001_Node000002"><a xlink:title=" ">
<path fill="none" stroke="#63b8ff" d="M184,-131.8C157.86,-106.68 112.83,-63.41 85.84,-37.47"/>
<polygon fill="#63b8ff" stroke="#63b8ff" points="88.05,-34.73 78.41,-30.33 83.2,-39.78 88.05,-34.73"/>
</a>
</g>
</g>
<!-- Node3 -->
<g id="Node000003" class="node">
<title>Node3</title>
<g id="a_Node000003"><a xlink:href="enum_8hpp.html" target="_top" xlink:title=" ">
<polygon fill="white" stroke="#666666" points="400.5,-96 288.5,-96 288.5,-66 400.5,-66 400.5,-96"/>
<text text-anchor="start" x="296.5" y="-84" font-family="Helvetica,sans-Serif" font-size="10.00">meltpooldg/utilities</text>
<text text-anchor="middle" x="344.5" y="-73" font-family="Helvetica,sans-Serif" font-size="10.00">/enum.hpp</text>
</a>
</g>
</g>
<!-- Node1&#45;&gt;Node3 -->
<g id="edge2_Node000001_Node000003" class="edge">
<title>Node1&#45;&gt;Node3</title>
<g id="a_edge2_Node000001_Node000003"><a xlink:title=" ">
<path fill="none" stroke="#63b8ff" d="M243.87,-131.96C263.61,-122.16 287.4,-110.35 306.89,-100.67"/>
<polygon fill="#63b8ff" stroke="#63b8ff" points="308.67,-103.69 316.07,-96.11 305.56,-97.42 308.67,-103.69"/>
</a>
</g>
</g>
<!-- Node3&#45;&gt;Node2 -->
<g id="edge3_Node000003_Node000002" class="edge">
<title>Node3&#45;&gt;Node2</title>
<g id="a_edge3_Node000003_Node000002"><a xlink:title=" ">
<path fill="none" stroke="#63b8ff" d="M288.31,-67.2C244.35,-57.19 182.91,-43.2 135.37,-32.37"/>
<polygon fill="#63b8ff" stroke="#63b8ff" points="135.98,-28.92 125.45,-30.11 134.42,-35.74 135.98,-28.92"/>
</a>
</g>
</g>
<!-- Node4 -->
<g id="Node000004" class="node">
<title>Node4</title>
<g id="a_Node000004"><a xlink:title=" ">
<polygon fill="#e0e0e0" stroke="#999999" points="270,-24.5 145,-24.5 145,-5.5 270,-5.5 270,-24.5"/>
<text text-anchor="middle" x="207.5" y="-12.5" font-family="Helvetica,sans-Serif" font-size="10.00">deal.II/base/patterns.h</text>
</a>
</g>
</g>
<!-- Node3&#45;&gt;Node4 -->
<g id="edge4_Node000003_Node000004" class="edge">
<title>Node3&#45;&gt;Node4</title>
<g id="a_edge4_Node000003_Node000004"><a xlink:title=" ">
<path fill="none" stroke="#63b8ff" d="M314.43,-65.95C290.73,-54.88 257.94,-39.56 234.94,-28.82"/>
<polygon fill="#63b8ff" stroke="#63b8ff" points="236.27,-25.58 225.73,-24.52 233.31,-31.92 236.27,-25.58"/>
</a>
</g>
</g>
<!-- Node5 -->
<g id="Node000005" class="node">
<title>Node5</title>
<g id="a_Node000005"><a xlink:title=" ">
<polygon fill="#e0e0e0" stroke="#999999" points="400.5,-30 288.5,-30 288.5,0 400.5,0 400.5,-30"/>
<text text-anchor="start" x="296.5" y="-18" font-family="Helvetica,sans-Serif" font-size="10.00">meltpooldg/utilities</text>
<text text-anchor="middle" x="344.5" y="-7" font-family="Helvetica,sans-Serif" font-size="10.00">/better_enum.hpp</text>
</a>
</g>
</g>
<!-- Node3&#45;&gt;Node5 -->
<g id="edge5_Node000003_Node000005" class="edge">
<title>Node3&#45;&gt;Node5</title>
<g id="a_edge5_Node000003_Node000005"><a xlink:title=" ">
<path fill="none" stroke="#63b8ff" d="M344.5,-65.8C344.5,-58.34 344.5,-48.99 344.5,-40.41"/>
<polygon fill="#63b8ff" stroke="#63b8ff" points="348,-40.16 344.5,-30.16 341,-40.16 348,-40.16"/>
</a>
</g>
</g>
<!-- Node6 -->
<g id="Node000006" class="node">
<title>Node6</title>
<g id="a_Node000006"><a xlink:title=" ">
<polygon fill="#e0e0e0" stroke="#999999" points="544,-30 419,-30 419,0 544,0 544,-30"/>
<text text-anchor="start" x="427" y="-18" font-family="Helvetica,sans-Serif" font-size="10.00">boost/algorithm/string</text>
<text text-anchor="middle" x="481.5" y="-7" font-family="Helvetica,sans-Serif" font-size="10.00">/join.hpp</text>
</a>
</g>
</g>
<!-- Node3&#45;&gt;Node6 -->
<g id="edge6_Node000003_Node000006" class="edge">
<title>Node3&#45;&gt;Node6</title>
<g id="a_edge6_Node000003_Node000006"><a xlink:title=" ">
<path fill="none" stroke="#63b8ff" d="M374.57,-65.95C394.46,-56.66 420.76,-44.38 442.29,-34.32"/>
<polygon fill="#63b8ff" stroke="#63b8ff" points="443.93,-37.42 451.5,-30.01 440.96,-31.07 443.93,-37.42"/>
</a>
</g>
</g>
<!-- Node7 -->
<g id="Node000007" class="node">
<title>Node7</title>
<g id="a_Node000007"><a xlink:title=" ">
<polygon fill="#e0e0e0" stroke="#999999" points="618.5,-24.5 562.5,-24.5 562.5,-5.5 618.5,-5.5 618.5,-24.5"/>
<text text-anchor="middle" x="590.5" y="-12.5" font-family="Helvetica,sans-Serif" font-size="10.00">sstream</text>
</a>
</g>
</g>
<!-- Node3&#45;&gt;Node7 -->
<g id="edge7_Node000003_Node000007" class="edge">
<title>Node3&#45;&gt;Node7</title>
<g id="a_edge7_Node000003_Node000007"><a xlink:title=" ">
<path fill="none" stroke="#63b8ff" d="M400.91,-68.54C443.27,-59.44 502.5,-45.68 553.5,-30 555.42,-29.41 557.38,-28.77 559.36,-28.1"/>
<polygon fill="#63b8ff" stroke="#63b8ff" points="560.9,-31.27 569.14,-24.61 558.54,-24.68 560.9,-31.27"/>
</a>
</g>
</g>
<!-- Node8 -->
<g id="Node000008" class="node">
<title>Node8</title>
<g id="a_Node000008"><a xlink:title=" ">
<polygon fill="#e0e0e0" stroke="#999999" points="680.5,-24.5 636.5,-24.5 636.5,-5.5 680.5,-5.5 680.5,-24.5"/>
<text text-anchor="middle" x="658.5" y="-12.5" font-family="Helvetica,sans-Serif" font-size="10.00">string</text>
</a>
</g>
</g>
<!-- Node3&#45;&gt;Node8 -->
<g id="edge8_Node000003_Node000008" class="edge">
<title>Node3&#45;&gt;Node8</title>
<g id="a_edge8_Node000003_Node000008"><a xlink:title=" ">
<path fill="none" stroke="#63b8ff" d="M400.51,-74.28C458.32,-67.41 550.63,-53.74 627.5,-30 628.95,-29.55 630.41,-29.06 631.88,-28.52"/>
<polygon fill="#63b8ff" stroke="#63b8ff" points="633.48,-31.65 641.42,-24.63 630.84,-25.17 633.48,-31.65"/>
</a>
</g>
</g>
</g>
</svg>
