<?xml version="1.0" encoding="UTF-8" standalone="no"?>
<!DOCTYPE svg PUBLIC "-//W3C//DTD SVG 1.1//EN"
 "http://www.w3.org/Graphics/SVG/1.1/DTD/svg11.dtd">
<!-- Generated by graphviz version 2.43.0 (0)
 -->
<!-- Title: include/meltpooldg/linear_algebra/predictor_linear.hpp Pages: 1 -->
<svg width="1866pt" height="401pt"
 viewBox="0.00 0.00 1865.50 401.00" xmlns="http://www.w3.org/2000/svg" xmlns:xlink="http://www.w3.org/1999/xlink">
<g id="graph0" class="graph" transform="scale(1 1) rotate(0) translate(4 397)">
<title>include/meltpooldg/linear_algebra/predictor_linear.hpp</title>
<!-- Node1 -->
<g id="Node000001" class="node">
<title>Node1</title>
<g id="a_Node000001"><a xlink:title=" ">
<polygon fill="#999999" stroke="#666666" points="1266.5,-393 1130.5,-393 1130.5,-352 1266.5,-352 1266.5,-393"/>
<text text-anchor="start" x="1138.5" y="-381" font-family="Helvetica,sans-Serif" font-size="10.00">include/meltpooldg</text>
<text text-anchor="start" x="1138.5" y="-370" font-family="Helvetica,sans-Serif" font-size="10.00">/linear_algebra/predictor</text>
<text text-anchor="middle" x="1198.5" y="-359" font-family="Helvetica,sans-Serif" font-size="10.00">_linear.hpp</text>
</a>
</g>
</g>
<!-- Node2 -->
<g id="Node000002" class="node">
<title>Node2</title>
<g id="a_Node000002"><a xlink:href="predictor_8hpp.html" target="_top" xlink:title=" ">
<polygon fill="white" stroke="#666666" points="1198.5,-316 1042.5,-316 1042.5,-286 1198.5,-286 1198.5,-316"/>
<text text-anchor="start" x="1050.5" y="-304" font-family="Helvetica,sans-Serif" font-size="10.00">include/meltpooldg</text>
<text text-anchor="middle" x="1120.5" y="-293" font-family="Helvetica,sans-Serif" font-size="10.00">/linear_algebra/predictor.hpp</text>
</a>
</g>
</g>
<!-- Node1&#45;&gt;Node2 -->
<g id="edge1_Node000001_Node000002" class="edge">
<title>Node1&#45;&gt;Node2</title>
<g id="a_edge1_Node000001_Node000002"><a xlink:title=" ">
<path fill="none" stroke="#63b8ff" d="M1168.57,-344.83C1157.56,-335.02 1145.53,-324.3 1136.26,-316.04"/>
<polygon fill="#63b8ff" stroke="#63b8ff" points="1166.56,-347.73 1176.36,-351.77 1171.22,-342.5 1166.56,-347.73"/>
</a>
</g>
</g>
<!-- Node28 -->
<g id="Node000028" class="node">
<title>Node28</title>
<g id="a_Node000028"><a xlink:href="predictor__linear_8cpp.html" target="_top" xlink:title=" ">
<polygon fill="white" stroke="#666666" points="1338.5,-316 1216.5,-316 1216.5,-286 1338.5,-286 1338.5,-316"/>
<text text-anchor="start" x="1224.5" y="-304" font-family="Helvetica,sans-Serif" font-size="10.00">source/linear_algebra</text>
<text text-anchor="middle" x="1277.5" y="-293" font-family="Helvetica,sans-Serif" font-size="10.00">/predictor_linear.cpp</text>
</a>
</g>
</g>
<!-- Node1&#45;&gt;Node28 -->
<g id="edge40_Node000001_Node000028" class="edge">
<title>Node1&#45;&gt;Node28</title>
<g id="a_edge40_Node000001_Node000028"><a xlink:title=" ">
<path fill="none" stroke="#63b8ff" d="M1228.49,-345.12C1239.73,-335.23 1252.06,-324.38 1261.54,-316.04"/>
<polygon fill="#63b8ff" stroke="#63b8ff" points="1226.12,-342.54 1220.93,-351.77 1230.75,-347.79 1226.12,-342.54"/>
</a>
</g>
</g>
<!-- Node3 -->
<g id="Node000003" class="node">
<title>Node3</title>
<g id="a_Node000003"><a xlink:href="heat__diffuse__operation_8hpp.html" target="_top" xlink:title=" ">
<polygon fill="white" stroke="#666666" points="293,-244.5 116,-244.5 116,-214.5 293,-214.5 293,-244.5"/>
<text text-anchor="start" x="124" y="-232.5" font-family="Helvetica,sans-Serif" font-size="10.00">include/meltpooldg</text>
<text text-anchor="middle" x="204.5" y="-221.5" font-family="Helvetica,sans-Serif" font-size="10.00">/heat/heat_diffuse_operation.hpp</text>
</a>
</g>
</g>
<!-- Node2&#45;&gt;Node3 -->
<g id="edge2_Node000002_Node000003" class="edge">
<title>Node2&#45;&gt;Node3</title>
<g id="a_edge2_Node000002_Node000003"><a xlink:title=" ">
<path fill="none" stroke="#63b8ff" d="M1032.2,-293.3C857.22,-280.02 468.25,-250.51 293.06,-237.22"/>
<polygon fill="#63b8ff" stroke="#63b8ff" points="1032.17,-296.81 1042.4,-294.07 1032.7,-289.83 1032.17,-296.81"/>
</a>
</g>
</g>
<!-- Node7 -->
<g id="Node000007" class="node">
<title>Node7</title>
<g id="a_Node000007"><a xlink:href="advection__DG__operation_8hpp.html" target="_top" xlink:title=" ">
<polygon fill="white" stroke="#666666" points="687,-250 572,-250 572,-209 687,-209 687,-250"/>
<text text-anchor="start" x="580" y="-238" font-family="Helvetica,sans-Serif" font-size="10.00">include/meltpooldg</text>
<text text-anchor="start" x="580" y="-227" font-family="Helvetica,sans-Serif" font-size="10.00">/level_set/advection</text>
<text text-anchor="middle" x="629.5" y="-216" font-family="Helvetica,sans-Serif" font-size="10.00">_DG_operation.hpp</text>
</a>
</g>
</g>
<!-- Node2&#45;&gt;Node7 -->
<g id="edge6_Node000002_Node000007" class="edge">
<title>Node2&#45;&gt;Node7</title>
<g id="a_edge6_Node000002_Node000007"><a xlink:title=" ">
<path fill="none" stroke="#63b8ff" d="M1032.35,-287.52C932.46,-273.38 772.48,-250.74 687.28,-238.68"/>
<polygon fill="#63b8ff" stroke="#63b8ff" points="1032.04,-291.01 1042.43,-288.95 1033.02,-284.08 1032.04,-291.01"/>
</a>
</g>
</g>
<!-- Node14 -->
<g id="Node000014" class="node">
<title>Node14</title>
<g id="a_Node000014"><a xlink:href="advection__diffusion__operation_8hpp.html" target="_top" xlink:title=" ">
<polygon fill="white" stroke="#666666" points="1045,-250 908,-250 908,-209 1045,-209 1045,-250"/>
<text text-anchor="start" x="916" y="-238" font-family="Helvetica,sans-Serif" font-size="10.00">include/meltpooldg</text>
<text text-anchor="start" x="916" y="-227" font-family="Helvetica,sans-Serif" font-size="10.00">/level_set/advection</text>
<text text-anchor="middle" x="976.5" y="-216" font-family="Helvetica,sans-Serif" font-size="10.00">_diffusion_operation.hpp</text>
</a>
</g>
</g>
<!-- Node2&#45;&gt;Node14 -->
<g id="edge13_Node000002_Node000014" class="edge">
<title>Node2&#45;&gt;Node14</title>
<g id="a_edge13_Node000002_Node000014"><a xlink:title=" ">
<path fill="none" stroke="#63b8ff" d="M1082.19,-281.51C1062.09,-271.81 1037.47,-259.93 1017.06,-250.07"/>
<polygon fill="#63b8ff" stroke="#63b8ff" points="1080.83,-284.74 1091.36,-285.94 1083.87,-278.44 1080.83,-284.74"/>
</a>
</g>
</g>
<!-- Node19 -->
<g id="Node000019" class="node">
<title>Node19</title>
<g id="a_Node000019"><a xlink:href="curvature__operation_8hpp.html" target="_top" xlink:title=" ">
<polygon fill="white" stroke="#666666" points="1271,-173 1158,-173 1158,-132 1271,-132 1271,-173"/>
<text text-anchor="start" x="1166" y="-161" font-family="Helvetica,sans-Serif" font-size="10.00">include/meltpooldg</text>
<text text-anchor="start" x="1166" y="-150" font-family="Helvetica,sans-Serif" font-size="10.00">/level_set/curvature</text>
<text text-anchor="middle" x="1214.5" y="-139" font-family="Helvetica,sans-Serif" font-size="10.00">_operation.hpp</text>
</a>
</g>
</g>
<!-- Node2&#45;&gt;Node19 -->
<g id="edge23_Node000002_Node000019" class="edge">
<title>Node2&#45;&gt;Node19</title>
<g id="a_edge23_Node000002_Node000019"><a xlink:title=" ">
<path fill="none" stroke="#63b8ff" d="M1134.96,-277.46C1153.24,-248.97 1184.42,-200.39 1201.81,-173.27"/>
<polygon fill="#63b8ff" stroke="#63b8ff" points="1131.97,-275.65 1129.51,-285.95 1137.86,-279.43 1131.97,-275.65"/>
</a>
</g>
</g>
<!-- Node21 -->
<g id="Node000021" class="node">
<title>Node21</title>
<g id="a_Node000021"><a xlink:href="normal__vector__operation_8hpp.html" target="_top" xlink:title=" ">
<polygon fill="white" stroke="#666666" points="1494,-250 1357,-250 1357,-209 1494,-209 1494,-250"/>
<text text-anchor="start" x="1365" y="-238" font-family="Helvetica,sans-Serif" font-size="10.00">include/meltpooldg</text>
<text text-anchor="start" x="1365" y="-227" font-family="Helvetica,sans-Serif" font-size="10.00">/level_set/normal_vector</text>
<text text-anchor="middle" x="1425.5" y="-216" font-family="Helvetica,sans-Serif" font-size="10.00">_operation.hpp</text>
</a>
</g>
</g>
<!-- Node2&#45;&gt;Node21 -->
<g id="edge27_Node000002_Node000021" class="edge">
<title>Node2&#45;&gt;Node21</title>
<g id="a_edge27_Node000002_Node000021"><a xlink:title=" ">
<path fill="none" stroke="#63b8ff" d="M1192.27,-283.65C1242.03,-272.31 1307.92,-257.29 1356.96,-246.12"/>
<polygon fill="#63b8ff" stroke="#63b8ff" points="1191.19,-280.3 1182.22,-285.94 1192.75,-287.13 1191.19,-280.3"/>
</a>
</g>
</g>
<!-- Node25 -->
<g id="Node000025" class="node">
<title>Node25</title>
<g id="a_Node000025"><a xlink:href="reinitialization__hyperbolic__CG__operation_8hpp.html" target="_top" xlink:title=" ">
<polygon fill="white" stroke="#666666" points="1454,-173 1289,-173 1289,-132 1454,-132 1454,-173"/>
<text text-anchor="start" x="1297" y="-161" font-family="Helvetica,sans-Serif" font-size="10.00">include/meltpooldg</text>
<text text-anchor="start" x="1297" y="-150" font-family="Helvetica,sans-Serif" font-size="10.00">/level_set/reinitialization</text>
<text text-anchor="middle" x="1371.5" y="-139" font-family="Helvetica,sans-Serif" font-size="10.00">_hyperbolic_CG_operation.hpp</text>
</a>
</g>
</g>
<!-- Node2&#45;&gt;Node25 -->
<g id="edge39_Node000002_Node000025" class="edge">
<title>Node2&#45;&gt;Node25</title>
<g id="a_edge39_Node000002_Node000025"><a xlink:title=" ">
<path fill="none" stroke="#63b8ff" d="M1153.3,-280.86C1201.19,-252.91 1289.78,-201.2 1338.04,-173.03"/>
<polygon fill="#63b8ff" stroke="#63b8ff" points="1151.44,-277.89 1144.57,-285.95 1154.97,-283.93 1151.44,-277.89"/>
</a>
</g>
</g>
<!-- Node4 -->
<g id="Node000004" class="node">
<title>Node4</title>
<g id="a_Node000004"><a xlink:href="heat__transfer__application_8cpp.html" target="_top" xlink:title=" ">
<polygon fill="white" stroke="#666666" points="127,-173 0,-173 0,-132 127,-132 127,-173"/>
<text text-anchor="start" x="8" y="-161" font-family="Helvetica,sans-Serif" font-size="10.00">applications/mp&#45;heat</text>
<text text-anchor="start" x="8" y="-150" font-family="Helvetica,sans-Serif" font-size="10.00">&#45;transfer/heat_transfer</text>
<text text-anchor="middle" x="63.5" y="-139" font-family="Helvetica,sans-Serif" font-size="10.00">_application.cpp</text>
</a>
</g>
</g>
<!-- Node3&#45;&gt;Node4 -->
<g id="edge3_Node000003_Node000004" class="edge">
<title>Node3&#45;&gt;Node4</title>
<g id="a_edge3_Node000003_Node000004"><a xlink:title=" ">
<path fill="none" stroke="#63b8ff" d="M169.06,-209.65C148.06,-198.48 121.5,-184.35 100.28,-173.06"/>
<polygon fill="#63b8ff" stroke="#63b8ff" points="167.51,-212.79 177.98,-214.39 170.79,-206.61 167.51,-212.79"/>
</a>
</g>
</g>
<!-- Node5 -->
<g id="Node000005" class="node">
<title>Node5</title>
<g id="a_Node000005"><a xlink:href="melt__pool__application_8cpp.html" target="_top" xlink:title=" ">
<polygon fill="white" stroke="#666666" points="450,-30 277,-30 277,0 450,0 450,-30"/>
<text text-anchor="start" x="285" y="-18" font-family="Helvetica,sans-Serif" font-size="10.00">applications/mp&#45;melt</text>
<text text-anchor="middle" x="363.5" y="-7" font-family="Helvetica,sans-Serif" font-size="10.00">&#45;pool/melt_pool_application.cpp</text>
</a>
</g>
</g>
<!-- Node3&#45;&gt;Node5 -->
<g id="edge4_Node000003_Node000005" class="edge">
<title>Node3&#45;&gt;Node5</title>
<g id="a_edge4_Node000003_Node000005"><a xlink:title=" ">
<path fill="none" stroke="#63b8ff" d="M187.77,-206.05C174.88,-185.78 161.29,-155.61 174.5,-132 204.58,-78.24 270.89,-46.37 316.39,-30.02"/>
<polygon fill="#63b8ff" stroke="#63b8ff" points="184.87,-208.01 193.36,-214.34 190.67,-204.1 184.87,-208.01"/>
</a>
</g>
</g>
<!-- Node6 -->
<g id="Node000006" class="node">
<title>Node6</title>
<g id="a_Node000006"><a xlink:href="heat__diffuse__operation_8cpp.html" target="_top" xlink:title=" ">
<polygon fill="white" stroke="#666666" points="321,-167.5 184,-167.5 184,-137.5 321,-137.5 321,-167.5"/>
<text text-anchor="start" x="192" y="-155.5" font-family="Helvetica,sans-Serif" font-size="10.00">source/heat/heat_diffuse</text>
<text text-anchor="middle" x="252.5" y="-144.5" font-family="Helvetica,sans-Serif" font-size="10.00">_operation.cpp</text>
</a>
</g>
</g>
<!-- Node3&#45;&gt;Node6 -->
<g id="edge5_Node000003_Node000006" class="edge">
<title>Node3&#45;&gt;Node6</title>
<g id="a_edge5_Node000003_Node000006"><a xlink:title=" ">
<path fill="none" stroke="#63b8ff" d="M218.98,-205.88C226.96,-193.41 236.62,-178.32 243.51,-167.54"/>
<polygon fill="#63b8ff" stroke="#63b8ff" points="215.97,-204.08 213.53,-214.39 221.87,-207.86 215.97,-204.08"/>
</a>
</g>
</g>
<!-- Node8 -->
<g id="Node000008" class="node">
<title>Node8</title>
<g id="a_Node000008"><a xlink:href="advection__diffusion__application_8cpp.html" target="_top" xlink:title=" ">
<polygon fill="white" stroke="#666666" points="767.5,-173 633.5,-173 633.5,-132 767.5,-132 767.5,-173"/>
<text text-anchor="start" x="641.5" y="-161" font-family="Helvetica,sans-Serif" font-size="10.00">applications/mp&#45;advec</text>
<text text-anchor="start" x="641.5" y="-150" font-family="Helvetica,sans-Serif" font-size="10.00">&#45;diff/advection_diffusion</text>
<text text-anchor="middle" x="700.5" y="-139" font-family="Helvetica,sans-Serif" font-size="10.00">_application.cpp</text>
</a>
</g>
</g>
<!-- Node7&#45;&gt;Node8 -->
<g id="edge7_Node000007_Node000008" class="edge">
<title>Node7&#45;&gt;Node8</title>
<g id="a_edge7_Node000007_Node000008"><a xlink:title=" ">
<path fill="none" stroke="#63b8ff" d="M655.05,-201.51C663.95,-192.11 673.75,-181.76 681.97,-173.07"/>
<polygon fill="#63b8ff" stroke="#63b8ff" points="652.49,-199.13 648.15,-208.79 657.57,-203.94 652.49,-199.13"/>
</a>
</g>
</g>
<!-- Node9 -->
<g id="Node000009" class="node">
<title>Node9</title>
<g id="a_Node000009"><a xlink:href="level__set__DG__operation_8hpp.html" target="_top" xlink:title=" ">
<polygon fill="white" stroke="#666666" points="615,-173 504,-173 504,-132 615,-132 615,-173"/>
<text text-anchor="start" x="512" y="-161" font-family="Helvetica,sans-Serif" font-size="10.00">include/meltpooldg</text>
<text text-anchor="start" x="512" y="-150" font-family="Helvetica,sans-Serif" font-size="10.00">/level_set/level_set</text>
<text text-anchor="middle" x="559.5" y="-139" font-family="Helvetica,sans-Serif" font-size="10.00">_DG_operation.hpp</text>
</a>
</g>
</g>
<!-- Node7&#45;&gt;Node9 -->
<g id="edge8_Node000007_Node000009" class="edge">
<title>Node7&#45;&gt;Node9</title>
<g id="a_edge8_Node000007_Node000009"><a xlink:title=" ">
<path fill="none" stroke="#63b8ff" d="M604.05,-201.23C595.35,-191.91 585.79,-181.67 577.77,-173.07"/>
<polygon fill="#63b8ff" stroke="#63b8ff" points="601.73,-203.87 611.11,-208.79 606.84,-199.1 601.73,-203.87"/>
</a>
</g>
</g>
<!-- Node13 -->
<g id="Node000013" class="node">
<title>Node13</title>
<g id="a_Node000013"><a xlink:href="advection__DG__operation_8cpp.html" target="_top" xlink:title=" ">
<polygon fill="white" stroke="#666666" points="486,-167.5 339,-167.5 339,-137.5 486,-137.5 486,-167.5"/>
<text text-anchor="start" x="347" y="-155.5" font-family="Helvetica,sans-Serif" font-size="10.00">source/level_set/advection</text>
<text text-anchor="middle" x="412.5" y="-144.5" font-family="Helvetica,sans-Serif" font-size="10.00">_DG_operation.cpp</text>
</a>
</g>
</g>
<!-- Node7&#45;&gt;Node13 -->
<g id="edge12_Node000007_Node000013" class="edge">
<title>Node7&#45;&gt;Node13</title>
<g id="a_edge12_Node000007_Node000013"><a xlink:title=" ">
<path fill="none" stroke="#63b8ff" d="M563.15,-205.57C527.29,-193.17 484.15,-178.26 453.25,-167.58"/>
<polygon fill="#63b8ff" stroke="#63b8ff" points="562.46,-209.03 573.05,-208.99 564.74,-202.42 562.46,-209.03"/>
</a>
</g>
</g>
<!-- Node10 -->
<g id="Node000010" class="node">
<title>Node10</title>
<g id="a_Node000010"><a xlink:href="level__set__application_8hpp.html" target="_top" xlink:title=" ">
<polygon fill="white" stroke="#666666" points="740,-96 577,-96 577,-66 740,-66 740,-96"/>
<text text-anchor="start" x="585" y="-84" font-family="Helvetica,sans-Serif" font-size="10.00">applications/mp&#45;level</text>
<text text-anchor="middle" x="658.5" y="-73" font-family="Helvetica,sans-Serif" font-size="10.00">&#45;set/level_set_application.hpp</text>
</a>
</g>
</g>
<!-- Node9&#45;&gt;Node10 -->
<g id="edge9_Node000009_Node000010" class="edge">
<title>Node9&#45;&gt;Node10</title>
<g id="a_edge9_Node000009_Node000010"><a xlink:title=" ">
<path fill="none" stroke="#63b8ff" d="M595.61,-126.15C610.04,-116.02 626.11,-104.74 638.4,-96.11"/>
<polygon fill="#63b8ff" stroke="#63b8ff" points="593.51,-123.35 587.34,-131.96 597.54,-129.07 593.51,-123.35"/>
</a>
</g>
</g>
<!-- Node12 -->
<g id="Node000012" class="node">
<title>Node12</title>
<g id="a_Node000012"><a xlink:href="level__set__DG__operation_8cpp.html" target="_top" xlink:title=" ">
<polygon fill="white" stroke="#666666" points="988,-96 859,-96 859,-66 988,-66 988,-96"/>
<text text-anchor="start" x="867" y="-84" font-family="Helvetica,sans-Serif" font-size="10.00">source/level_set/level</text>
<text text-anchor="middle" x="923.5" y="-73" font-family="Helvetica,sans-Serif" font-size="10.00">_set_DG_operation.cpp</text>
</a>
</g>
</g>
<!-- Node9&#45;&gt;Node12 -->
<g id="edge11_Node000009_Node000012" class="edge">
<title>Node9&#45;&gt;Node12</title>
<g id="a_edge11_Node000009_Node000012"><a xlink:title=" ">
<path fill="none" stroke="#63b8ff" d="M625.02,-132.03C711.37,-112.33 800.26,-98.58 858.88,-90.41"/>
<polygon fill="#63b8ff" stroke="#63b8ff" points="624,-128.67 615.05,-134.34 625.58,-135.49 624,-128.67"/>
</a>
</g>
</g>
<!-- Node11 -->
<g id="Node000011" class="node">
<title>Node11</title>
<g id="a_Node000011"><a xlink:href="level__set__application_8cpp.html" target="_top" xlink:title=" ">
<polygon fill="white" stroke="#666666" points="739.5,-30 577.5,-30 577.5,0 739.5,0 739.5,-30"/>
<text text-anchor="start" x="585.5" y="-18" font-family="Helvetica,sans-Serif" font-size="10.00">applications/mp&#45;level</text>
<text text-anchor="middle" x="658.5" y="-7" font-family="Helvetica,sans-Serif" font-size="10.00">&#45;set/level_set_application.cpp</text>
</a>
</g>
</g>
<!-- Node10&#45;&gt;Node11 -->
<g id="edge10_Node000010_Node000011" class="edge">
<title>Node10&#45;&gt;Node11</title>
<g id="a_edge10_Node000010_Node000011"><a xlink:title=" ">
<path fill="none" stroke="#63b8ff" d="M658.5,-55.54C658.5,-46.96 658.5,-37.61 658.5,-30.16"/>
<polygon fill="#63b8ff" stroke="#63b8ff" points="655,-55.8 658.5,-65.8 662,-55.8 655,-55.8"/>
</a>
</g>
</g>
<!-- Node14&#45;&gt;Node8 -->
<g id="edge14_Node000014_Node000008" class="edge">
<title>Node14&#45;&gt;Node8</title>
<g id="a_edge14_Node000014_Node000008"><a xlink:title=" ">
<path fill="none" stroke="#63b8ff" d="M898.21,-207.22C857.06,-196.04 807.15,-182.48 767.77,-171.78"/>
<polygon fill="#63b8ff" stroke="#63b8ff" points="897.35,-210.62 907.92,-209.86 899.19,-203.86 897.35,-210.62"/>
</a>
</g>
</g>
<!-- Node14&#45;&gt;Node12 -->
<g id="edge21_Node000014_Node000012" class="edge">
<title>Node14&#45;&gt;Node12</title>
<g id="a_edge21_Node000014_Node000012"><a xlink:title=" ">
<path fill="none" stroke="#63b8ff" d="M958.02,-200.18C953.08,-191.7 948.12,-182.2 944.5,-173 934.23,-146.9 928.25,-114.52 925.45,-96.26"/>
<polygon fill="#63b8ff" stroke="#63b8ff" points="955.13,-202.17 963.3,-208.92 961.13,-198.55 955.13,-202.17"/>
</a>
</g>
</g>
<!-- Node15 -->
<g id="Node000015" class="node">
<title>Node15</title>
<g id="a_Node000015"><a xlink:href="level__set__operation_8hpp.html" target="_top" xlink:title=" ">
<polygon fill="white" stroke="#666666" points="897,-173 786,-173 786,-132 897,-132 897,-173"/>
<text text-anchor="start" x="794" y="-161" font-family="Helvetica,sans-Serif" font-size="10.00">include/meltpooldg</text>
<text text-anchor="start" x="794" y="-150" font-family="Helvetica,sans-Serif" font-size="10.00">/level_set/level_set</text>
<text text-anchor="middle" x="841.5" y="-139" font-family="Helvetica,sans-Serif" font-size="10.00">_operation.hpp</text>
</a>
</g>
</g>
<!-- Node14&#45;&gt;Node15 -->
<g id="edge15_Node000014_Node000015" class="edge">
<title>Node14&#45;&gt;Node15</title>
<g id="a_edge15_Node000014_Node000015"><a xlink:title=" ">
<path fill="none" stroke="#63b8ff" d="M932.25,-203.92C914.3,-193.95 893.85,-182.58 876.91,-173.17"/>
<polygon fill="#63b8ff" stroke="#63b8ff" points="930.94,-207.19 941.38,-208.99 934.34,-201.07 930.94,-207.19"/>
</a>
</g>
</g>
<!-- Node17 -->
<g id="Node000017" class="node">
<title>Node17</title>
<g id="a_Node000017"><a xlink:href="level__set__operation_8cpp.html" target="_top" xlink:title=" ">
<polygon fill="white" stroke="#666666" points="1129,-96 1006,-96 1006,-66 1129,-66 1129,-96"/>
<text text-anchor="start" x="1014" y="-84" font-family="Helvetica,sans-Serif" font-size="10.00">source/level_set/level</text>
<text text-anchor="middle" x="1067.5" y="-73" font-family="Helvetica,sans-Serif" font-size="10.00">_set_operation.cpp</text>
</a>
</g>
</g>
<!-- Node14&#45;&gt;Node17 -->
<g id="edge22_Node000014_Node000017" class="edge">
<title>Node14&#45;&gt;Node17</title>
<g id="a_edge22_Node000014_Node000017"><a xlink:title=" ">
<path fill="none" stroke="#63b8ff" d="M1054.67,-212.91C1076.02,-204.68 1096.75,-192.14 1109.5,-173 1119.6,-157.84 1115.74,-149.12 1109.5,-132 1104.46,-118.15 1093.7,-105.48 1084.34,-96.35"/>
<polygon fill="#63b8ff" stroke="#63b8ff" points="1053.43,-209.64 1045.18,-216.28 1055.77,-216.23 1053.43,-209.64"/>
</a>
</g>
</g>
<!-- Node18 -->
<g id="Node000018" class="node">
<title>Node18</title>
<g id="a_Node000018"><a xlink:href="advection__diffusion__operation_8cpp.html" target="_top" xlink:title=" ">
<polygon fill="white" stroke="#666666" points="1101,-167.5 954,-167.5 954,-137.5 1101,-137.5 1101,-167.5"/>
<text text-anchor="start" x="962" y="-155.5" font-family="Helvetica,sans-Serif" font-size="10.00">source/level_set/advection</text>
<text text-anchor="middle" x="1027.5" y="-144.5" font-family="Helvetica,sans-Serif" font-size="10.00">_diffusion_operation.cpp</text>
</a>
</g>
</g>
<!-- Node14&#45;&gt;Node18 -->
<g id="edge20_Node000014_Node000018" class="edge">
<title>Node14&#45;&gt;Node18</title>
<g id="a_edge20_Node000014_Node000018"><a xlink:title=" ">
<path fill="none" stroke="#63b8ff" d="M995.7,-200.26C1003.21,-189.21 1011.5,-177.02 1017.73,-167.86"/>
<polygon fill="#63b8ff" stroke="#63b8ff" points="992.63,-198.56 989.9,-208.79 998.42,-202.49 992.63,-198.56"/>
</a>
</g>
</g>
<!-- Node15&#45;&gt;Node10 -->
<g id="edge16_Node000015_Node000010" class="edge">
<title>Node15&#45;&gt;Node10</title>
<g id="a_edge16_Node000015_Node000010"><a xlink:title=" ">
<path fill="none" stroke="#63b8ff" d="M780.65,-128.39C752.43,-117.67 719.8,-105.28 695.37,-96"/>
<polygon fill="#63b8ff" stroke="#63b8ff" points="779.45,-131.68 790.04,-131.96 781.93,-125.13 779.45,-131.68"/>
</a>
</g>
</g>
<!-- Node16 -->
<g id="Node000016" class="node">
<title>Node16</title>
<g id="a_Node000016"><a xlink:href="melt__pool__application_8hpp.html" target="_top" xlink:title=" ">
<polygon fill="white" stroke="#666666" points="559,-96 386,-96 386,-66 559,-66 559,-96"/>
<text text-anchor="start" x="394" y="-84" font-family="Helvetica,sans-Serif" font-size="10.00">applications/mp&#45;melt</text>
<text text-anchor="middle" x="472.5" y="-73" font-family="Helvetica,sans-Serif" font-size="10.00">&#45;pool/melt_pool_application.hpp</text>
</a>
</g>
</g>
<!-- Node15&#45;&gt;Node16 -->
<g id="edge17_Node000015_Node000016" class="edge">
<title>Node15&#45;&gt;Node16</title>
<g id="a_edge17_Node000015_Node000016"><a xlink:title=" ">
<path fill="none" stroke="#63b8ff" d="M776.05,-132.09C723.65,-120.69 629.51,-105.74 559.35,-95.01"/>
<polygon fill="#63b8ff" stroke="#63b8ff" points="775.43,-135.54 785.96,-134.33 776.97,-128.71 775.43,-135.54"/>
</a>
</g>
</g>
<!-- Node15&#45;&gt;Node17 -->
<g id="edge19_Node000015_Node000017" class="edge">
<title>Node15&#45;&gt;Node17</title>
<g id="a_edge19_Node000015_Node000017"><a xlink:title=" ">
<path fill="none" stroke="#63b8ff" d="M906.73,-131.44C943.52,-120.13 988.6,-106.26 1021.65,-96.1"/>
<polygon fill="#63b8ff" stroke="#63b8ff" points="905.6,-128.12 897.08,-134.41 907.66,-134.82 905.6,-128.12"/>
</a>
</g>
</g>
<!-- Node16&#45;&gt;Node5 -->
<g id="edge18_Node000016_Node000005" class="edge">
<title>Node16&#45;&gt;Node5</title>
<g id="a_edge18_Node000016_Node000005"><a xlink:title=" ">
<path fill="none" stroke="#63b8ff" d="M439.62,-60.69C422.79,-50.82 402.69,-39.01 387.36,-30.01"/>
<polygon fill="#63b8ff" stroke="#63b8ff" points="438.18,-63.91 448.58,-65.95 441.73,-57.87 438.18,-63.91"/>
</a>
</g>
</g>
<!-- Node19&#45;&gt;Node12 -->
<g id="edge25_Node000019_Node000012" class="edge">
<title>Node19&#45;&gt;Node12</title>
<g id="a_edge25_Node000019_Node000012"><a xlink:title=" ">
<path fill="none" stroke="#63b8ff" d="M1147.95,-135.61C1097.96,-123.67 1030.12,-107.46 982.15,-96.01"/>
<polygon fill="#63b8ff" stroke="#63b8ff" points="1147.16,-139.02 1157.7,-137.93 1148.79,-132.21 1147.16,-139.02"/>
</a>
</g>
</g>
<!-- Node19&#45;&gt;Node17 -->
<g id="edge26_Node000019_Node000017" class="edge">
<title>Node19&#45;&gt;Node17</title>
<g id="a_edge26_Node000019_Node000017"><a xlink:title=" ">
<path fill="none" stroke="#63b8ff" d="M1163.87,-127.56C1141.7,-117.08 1116.44,-105.14 1097.35,-96.11"/>
<polygon fill="#63b8ff" stroke="#63b8ff" points="1162.62,-130.85 1173.16,-131.96 1165.62,-124.52 1162.62,-130.85"/>
</a>
</g>
</g>
<!-- Node20 -->
<g id="Node000020" class="node">
<title>Node20</title>
<g id="a_Node000020"><a xlink:href="curvature__operation_8cpp.html" target="_top" xlink:title=" ">
<polygon fill="white" stroke="#666666" points="1293.5,-96 1147.5,-96 1147.5,-66 1293.5,-66 1293.5,-96"/>
<text text-anchor="start" x="1155.5" y="-84" font-family="Helvetica,sans-Serif" font-size="10.00">source/level_set/curvature</text>
<text text-anchor="middle" x="1220.5" y="-73" font-family="Helvetica,sans-Serif" font-size="10.00">_operation.cpp</text>
</a>
</g>
</g>
<!-- Node19&#45;&gt;Node20 -->
<g id="edge24_Node000019_Node000020" class="edge">
<title>Node19&#45;&gt;Node20</title>
<g id="a_edge24_Node000019_Node000020"><a xlink:title=" ">
<path fill="none" stroke="#63b8ff" d="M1217.08,-121.66C1217.84,-112.76 1218.65,-103.42 1219.29,-96.04"/>
<polygon fill="#63b8ff" stroke="#63b8ff" points="1213.58,-121.51 1216.2,-131.77 1220.55,-122.11 1213.58,-121.51"/>
</a>
</g>
</g>
<!-- Node21&#45;&gt;Node19 -->
<g id="edge28_Node000021_Node000019" class="edge">
<title>Node21&#45;&gt;Node19</title>
<g id="a_edge28_Node000021_Node000019"><a xlink:title=" ">
<path fill="none" stroke="#63b8ff" d="M1360.9,-205.54C1331.66,-195.15 1297.47,-182.99 1269.48,-173.04"/>
<polygon fill="#63b8ff" stroke="#63b8ff" points="1360.02,-208.94 1370.61,-208.99 1362.36,-202.34 1360.02,-208.94"/>
</a>
</g>
</g>
<!-- Node22 -->
<g id="Node000022" class="node">
<title>Node22</title>
<g id="a_Node000022"><a xlink:href="reinitialization__elliptic__operation_8hpp.html" target="_top" xlink:title=" ">
<polygon fill="white" stroke="#666666" points="1651,-173 1514,-173 1514,-132 1651,-132 1651,-173"/>
<text text-anchor="start" x="1522" y="-161" font-family="Helvetica,sans-Serif" font-size="10.00">include/meltpooldg</text>
<text text-anchor="start" x="1522" y="-150" font-family="Helvetica,sans-Serif" font-size="10.00">/level_set/reinitialization</text>
<text text-anchor="middle" x="1582.5" y="-139" font-family="Helvetica,sans-Serif" font-size="10.00">_elliptic_operation.hpp</text>
</a>
</g>
</g>
<!-- Node21&#45;&gt;Node22 -->
<g id="edge29_Node000021_Node000022" class="edge">
<title>Node21&#45;&gt;Node22</title>
<g id="a_edge29_Node000021_Node000022"><a xlink:title=" ">
<path fill="none" stroke="#63b8ff" d="M1475.56,-204.59C1496.87,-194.41 1521.4,-182.69 1541.59,-173.04"/>
<polygon fill="#63b8ff" stroke="#63b8ff" points="1473.85,-201.52 1466.34,-208.99 1476.87,-207.84 1473.85,-201.52"/>
</a>
</g>
</g>
<!-- Node21&#45;&gt;Node25 -->
<g id="edge32_Node000021_Node000025" class="edge">
<title>Node21&#45;&gt;Node25</title>
<g id="a_edge32_Node000021_Node000025"><a xlink:title=" ">
<path fill="none" stroke="#63b8ff" d="M1405.46,-200.67C1398.86,-191.5 1391.66,-181.5 1385.59,-173.07"/>
<polygon fill="#63b8ff" stroke="#63b8ff" points="1402.63,-202.72 1411.31,-208.79 1408.31,-198.63 1402.63,-202.72"/>
</a>
</g>
</g>
<!-- Node26 -->
<g id="Node000026" class="node">
<title>Node26</title>
<g id="a_Node000026"><a xlink:href="reinitialization__hyperbolic__CG__operation_8cpp.html" target="_top" xlink:title=" ">
<polygon fill="white" stroke="#666666" points="1481.5,-96 1311.5,-96 1311.5,-66 1481.5,-66 1481.5,-96"/>
<text text-anchor="start" x="1319.5" y="-84" font-family="Helvetica,sans-Serif" font-size="10.00">source/level_set/reinitialization</text>
<text text-anchor="middle" x="1396.5" y="-73" font-family="Helvetica,sans-Serif" font-size="10.00">_hyperbolic_CG_operation.cpp</text>
</a>
</g>
</g>
<!-- Node21&#45;&gt;Node26 -->
<g id="edge38_Node000021_Node000026" class="edge">
<title>Node21&#45;&gt;Node26</title>
<g id="a_edge38_Node000021_Node000026"><a xlink:title=" ">
<path fill="none" stroke="#63b8ff" d="M1448.47,-200.61C1461.67,-181.01 1473.63,-154.39 1462.5,-132 1454.76,-116.42 1439.59,-104.4 1425.75,-96.05"/>
<polygon fill="#63b8ff" stroke="#63b8ff" points="1445.57,-198.64 1442.6,-208.81 1451.26,-202.72 1445.57,-198.64"/>
</a>
</g>
</g>
<!-- Node27 -->
<g id="Node000027" class="node">
<title>Node27</title>
<g id="a_Node000027"><a xlink:href="normal__vector__operation_8cpp.html" target="_top" xlink:title=" ">
<polygon fill="white" stroke="#666666" points="1803.5,-167.5 1669.5,-167.5 1669.5,-137.5 1803.5,-137.5 1803.5,-167.5"/>
<text text-anchor="start" x="1677.5" y="-155.5" font-family="Helvetica,sans-Serif" font-size="10.00">source/level_set/normal</text>
<text text-anchor="middle" x="1736.5" y="-144.5" font-family="Helvetica,sans-Serif" font-size="10.00">_vector_operation.cpp</text>
</a>
</g>
</g>
<!-- Node21&#45;&gt;Node27 -->
<g id="edge37_Node000021_Node000027" class="edge">
<title>Node21&#45;&gt;Node27</title>
<g id="a_edge37_Node000021_Node000027"><a xlink:title=" ">
<path fill="none" stroke="#63b8ff" d="M1503.96,-210.2C1549.43,-199.52 1607.74,-185.69 1659.5,-173 1666.6,-171.26 1674.06,-169.4 1681.43,-167.56"/>
<polygon fill="#63b8ff" stroke="#63b8ff" points="1503.1,-206.81 1494.17,-212.5 1504.7,-213.62 1503.1,-206.81"/>
</a>
</g>
</g>
<!-- Node23 -->
<g id="Node000023" class="node">
<title>Node23</title>
<g id="a_Node000023"><a xlink:href="reinitialization__application_8cpp.html" target="_top" xlink:title=" ">
<polygon fill="white" stroke="#666666" points="1669.5,-96 1499.5,-96 1499.5,-66 1669.5,-66 1669.5,-96"/>
<text text-anchor="start" x="1507.5" y="-84" font-family="Helvetica,sans-Serif" font-size="10.00">applications/mp&#45;reinit</text>
<text text-anchor="middle" x="1584.5" y="-73" font-family="Helvetica,sans-Serif" font-size="10.00">/reinitialization_application.cpp</text>
</a>
</g>
</g>
<!-- Node22&#45;&gt;Node23 -->
<g id="edge30_Node000022_Node000023" class="edge">
<title>Node22&#45;&gt;Node23</title>
<g id="a_edge30_Node000022_Node000023"><a xlink:title=" ">
<path fill="none" stroke="#63b8ff" d="M1583.36,-121.66C1583.61,-112.76 1583.88,-103.42 1584.1,-96.04"/>
<polygon fill="#63b8ff" stroke="#63b8ff" points="1579.86,-121.67 1583.07,-131.77 1586.85,-121.87 1579.86,-121.67"/>
</a>
</g>
</g>
<!-- Node24 -->
<g id="Node000024" class="node">
<title>Node24</title>
<g id="a_Node000024"><a xlink:href="reinitialization__elliptic__operation_8cpp.html" target="_top" xlink:title=" ">
<polygon fill="white" stroke="#666666" points="1857.5,-96 1687.5,-96 1687.5,-66 1857.5,-66 1857.5,-96"/>
<text text-anchor="start" x="1695.5" y="-84" font-family="Helvetica,sans-Serif" font-size="10.00">source/level_set/reinitialization</text>
<text text-anchor="middle" x="1772.5" y="-73" font-family="Helvetica,sans-Serif" font-size="10.00">_elliptic_operation.cpp</text>
</a>
</g>
</g>
<!-- Node22&#45;&gt;Node24 -->
<g id="edge31_Node000022_Node000024" class="edge">
<title>Node22&#45;&gt;Node24</title>
<g id="a_edge31_Node000022_Node000024"><a xlink:title=" ">
<path fill="none" stroke="#63b8ff" d="M1645.68,-128.39C1674.98,-117.67 1708.85,-105.28 1734.22,-96"/>
<polygon fill="#63b8ff" stroke="#63b8ff" points="1644.12,-125.23 1635.93,-131.96 1646.53,-131.81 1644.12,-125.23"/>
</a>
</g>
</g>
<!-- Node25&#45;&gt;Node12 -->
<g id="edge34_Node000025_Node000012" class="edge">
<title>Node25&#45;&gt;Node12</title>
<g id="a_edge34_Node000025_Node000012"><a xlink:title=" ">
<path fill="none" stroke="#63b8ff" d="M1278.77,-131.95C1152.76,-111.08 1118.53,-115.44 996.5,-96 993.82,-95.57 991.1,-95.12 988.34,-94.65"/>
<polygon fill="#63b8ff" stroke="#63b8ff" points="1278.37,-135.44 1288.81,-133.64 1279.53,-128.53 1278.37,-135.44"/>
</a>
</g>
</g>
<!-- Node25&#45;&gt;Node17 -->
<g id="edge35_Node000025_Node000017" class="edge">
<title>Node25&#45;&gt;Node17</title>
<g id="a_edge35_Node000025_Node000017"><a xlink:title=" ">
<path fill="none" stroke="#63b8ff" d="M1278.92,-130.33C1230.27,-119.21 1171.97,-105.88 1128.93,-96.04"/>
<polygon fill="#63b8ff" stroke="#63b8ff" points="1278.3,-133.78 1288.83,-132.6 1279.86,-126.96 1278.3,-133.78"/>
</a>
</g>
</g>
<!-- Node25&#45;&gt;Node23 -->
<g id="edge33_Node000025_Node000023" class="edge">
<title>Node25&#45;&gt;Node23</title>
<g id="a_edge33_Node000025_Node000023"><a xlink:title=" ">
<path fill="none" stroke="#63b8ff" d="M1441.04,-128.81C1474.18,-118 1512.78,-105.4 1541.58,-96"/>
<polygon fill="#63b8ff" stroke="#63b8ff" points="1439.82,-125.53 1431.4,-131.96 1441.99,-132.18 1439.82,-125.53"/>
</a>
</g>
</g>
<!-- Node25&#45;&gt;Node26 -->
<g id="edge36_Node000025_Node000026" class="edge">
<title>Node25&#45;&gt;Node26</title>
<g id="a_edge36_Node000025_Node000026"><a xlink:title=" ">
<path fill="none" stroke="#63b8ff" d="M1382.02,-122.24C1385.29,-113.17 1388.74,-103.58 1391.45,-96.04"/>
<polygon fill="#63b8ff" stroke="#63b8ff" points="1378.69,-121.18 1378.6,-131.77 1385.28,-123.54 1378.69,-121.18"/>
</a>
</g>
</g>
</g>
</svg>
