<?xml version="1.0" encoding="UTF-8" standalone="no"?>
<!DOCTYPE svg PUBLIC "-//W3C//DTD SVG 1.1//EN"
 "http://www.w3.org/Graphics/SVG/1.1/DTD/svg11.dtd">
<!-- Generated by graphviz version 2.43.0 (0)
 -->
<!-- Title: source/linear_algebra/predictor_linear.cpp Pages: 1 -->
<svg width="917pt" height="104pt"
 viewBox="0.00 0.00 917.00 104.00" xmlns="http://www.w3.org/2000/svg" xmlns:xlink="http://www.w3.org/1999/xlink">
<g id="graph0" class="graph" transform="scale(1 1) rotate(0) translate(4 100)">
<title>source/linear_algebra/predictor_linear.cpp</title>
<!-- Node1 -->
<g id="Node000001" class="node">
<title>Node1</title>
<g id="a_Node000001"><a xlink:title=" ">
<polygon fill="#999999" stroke="#666666" points="545.5,-96 423.5,-96 423.5,-66 545.5,-66 545.5,-96"/>
<text text-anchor="start" x="431.5" y="-84" font-family="Helvetica,sans-Serif" font-size="10.00">source/linear_algebra</text>
<text text-anchor="middle" x="484.5" y="-73" font-family="Helvetica,sans-Serif" font-size="10.00">/predictor_linear.cpp</text>
</a>
</g>
</g>
<!-- Node2 -->
<g id="Node000002" class="node">
<title>Node2</title>
<g id="a_Node000002"><a xlink:href="predictor__linear_8hpp.html" target="_top" xlink:title=" ">
<polygon fill="white" stroke="#666666" points="145,-30 0,-30 0,0 145,0 145,-30"/>
<text text-anchor="start" x="8" y="-18" font-family="Helvetica,sans-Serif" font-size="10.00">meltpooldg/linear_algebra</text>
<text text-anchor="middle" x="72.5" y="-7" font-family="Helvetica,sans-Serif" font-size="10.00">/predictor_linear.hpp</text>
</a>
</g>
</g>
<!-- Node1&#45;&gt;Node2 -->
<g id="edge1_Node000001_Node000002" class="edge">
<title>Node1&#45;&gt;Node2</title>
<g id="a_edge1_Node000001_Node000002"><a xlink:title=" ">
<path fill="none" stroke="#63b8ff" d="M423.32,-71.08C359.17,-61.65 255.15,-46.13 155.32,-30.11"/>
<polygon fill="#63b8ff" stroke="#63b8ff" points="155.79,-26.65 145.37,-28.51 154.68,-33.56 155.79,-26.65"/>
</a>
</g>
</g>
<!-- Node3 -->
<g id="Node000003" class="node">
<title>Node3</title>
<g id="a_Node000003"><a xlink:title=" ">
<polygon fill="#e0e0e0" stroke="#999999" points="277.5,-24.5 163.5,-24.5 163.5,-5.5 277.5,-5.5 277.5,-24.5"/>
<text text-anchor="middle" x="220.5" y="-12.5" font-family="Helvetica,sans-Serif" font-size="10.00">deal.II/base/config.h</text>
</a>
</g>
</g>
<!-- Node1&#45;&gt;Node3 -->
<g id="edge2_Node000001_Node000003" class="edge">
<title>Node1&#45;&gt;Node3</title>
<g id="a_edge2_Node000001_Node000003"><a xlink:title=" ">
<path fill="none" stroke="#63b8ff" d="M426.56,-65.95C378.12,-54.21 310.01,-37.7 265.57,-26.93"/>
<polygon fill="#63b8ff" stroke="#63b8ff" points="266.18,-23.47 255.63,-24.52 264.53,-30.27 266.18,-23.47"/>
</a>
</g>
</g>
<!-- Node4 -->
<g id="Node000004" class="node">
<title>Node4</title>
<g id="a_Node000004"><a xlink:title=" ">
<polygon fill="#e0e0e0" stroke="#999999" points="401.5,-30 295.5,-30 295.5,0 401.5,0 401.5,-30"/>
<text text-anchor="start" x="303.5" y="-18" font-family="Helvetica,sans-Serif" font-size="10.00">deal.II/distributed</text>
<text text-anchor="middle" x="348.5" y="-7" font-family="Helvetica,sans-Serif" font-size="10.00">/grid_refinement.h</text>
</a>
</g>
</g>
<!-- Node1&#45;&gt;Node4 -->
<g id="edge3_Node000001_Node000004" class="edge">
<title>Node1&#45;&gt;Node4</title>
<g id="a_edge3_Node000001_Node000004"><a xlink:title=" ">
<path fill="none" stroke="#63b8ff" d="M454.65,-65.95C434.9,-56.66 408.8,-44.38 387.42,-34.32"/>
<polygon fill="#63b8ff" stroke="#63b8ff" points="388.81,-31.1 378.28,-30.01 385.83,-37.44 388.81,-31.1"/>
</a>
</g>
</g>
<!-- Node5 -->
<g id="Node000005" class="node">
<title>Node5</title>
<g id="a_Node000005"><a xlink:title=" ">
<polygon fill="#e0e0e0" stroke="#999999" points="549,-30 420,-30 420,0 549,0 549,-30"/>
<text text-anchor="start" x="428" y="-18" font-family="Helvetica,sans-Serif" font-size="10.00">deal.II/lac/block_vector</text>
<text text-anchor="middle" x="484.5" y="-7" font-family="Helvetica,sans-Serif" font-size="10.00">_base.h</text>
</a>
</g>
</g>
<!-- Node1&#45;&gt;Node5 -->
<g id="edge4_Node000001_Node000005" class="edge">
<title>Node1&#45;&gt;Node5</title>
<g id="a_edge4_Node000001_Node000005"><a xlink:title=" ">
<path fill="none" stroke="#63b8ff" d="M484.5,-65.8C484.5,-58.34 484.5,-48.99 484.5,-40.41"/>
<polygon fill="#63b8ff" stroke="#63b8ff" points="488,-40.16 484.5,-30.16 481,-40.16 488,-40.16"/>
</a>
</g>
</g>
<!-- Node6 -->
<g id="Node000006" class="node">
<title>Node6</title>
<g id="a_Node000006"><a xlink:title=" ">
<polygon fill="#e0e0e0" stroke="#999999" points="685.5,-30 567.5,-30 567.5,0 685.5,0 685.5,-30"/>
<text text-anchor="start" x="575.5" y="-18" font-family="Helvetica,sans-Serif" font-size="10.00">deal.II/lac/la_parallel</text>
<text text-anchor="middle" x="626.5" y="-7" font-family="Helvetica,sans-Serif" font-size="10.00">_block_vector.h</text>
</a>
</g>
</g>
<!-- Node1&#45;&gt;Node6 -->
<g id="edge5_Node000001_Node000006" class="edge">
<title>Node1&#45;&gt;Node6</title>
<g id="a_edge5_Node000001_Node000006"><a xlink:title=" ">
<path fill="none" stroke="#63b8ff" d="M515.66,-65.95C536.38,-56.62 563.79,-44.27 586.16,-34.18"/>
<polygon fill="#63b8ff" stroke="#63b8ff" points="587.73,-37.31 595.41,-30.01 584.86,-30.93 587.73,-37.31"/>
</a>
</g>
</g>
<!-- Node7 -->
<g id="Node000007" class="node">
<title>Node7</title>
<g id="a_Node000007"><a xlink:title=" ">
<polygon fill="#e0e0e0" stroke="#999999" points="821.5,-30 703.5,-30 703.5,0 821.5,0 821.5,-30"/>
<text text-anchor="start" x="711.5" y="-18" font-family="Helvetica,sans-Serif" font-size="10.00">deal.II/lac/la_parallel</text>
<text text-anchor="middle" x="762.5" y="-7" font-family="Helvetica,sans-Serif" font-size="10.00">_vector.h</text>
</a>
</g>
</g>
<!-- Node1&#45;&gt;Node7 -->
<g id="edge6_Node000001_Node000007" class="edge">
<title>Node1&#45;&gt;Node7</title>
<g id="a_edge6_Node000001_Node000007"><a xlink:title=" ">
<path fill="none" stroke="#63b8ff" d="M545.51,-65.95C589.14,-55.91 647.92,-42.38 693.3,-31.93"/>
<polygon fill="#63b8ff" stroke="#63b8ff" points="694.11,-35.34 703.07,-29.68 692.54,-28.52 694.11,-35.34"/>
</a>
</g>
</g>
<!-- Node8 -->
<g id="Node000008" class="node">
<title>Node8</title>
<g id="a_Node000008"><a xlink:title=" ">
<polygon fill="#e0e0e0" stroke="#999999" points="909,-24.5 840,-24.5 840,-5.5 909,-5.5 909,-24.5"/>
<text text-anchor="middle" x="874.5" y="-12.5" font-family="Helvetica,sans-Serif" font-size="10.00">type_traits</text>
</a>
</g>
</g>
<!-- Node1&#45;&gt;Node8 -->
<g id="edge7_Node000001_Node000008" class="edge">
<title>Node1&#45;&gt;Node8</title>
<g id="a_edge7_Node000001_Node000008"><a xlink:title=" ">
<path fill="none" stroke="#63b8ff" d="M545.69,-74.23C615.27,-66.97 732.01,-52.62 830.5,-30 833.7,-29.26 837.01,-28.41 840.3,-27.48"/>
<polygon fill="#63b8ff" stroke="#63b8ff" points="841.45,-30.79 850.03,-24.57 839.45,-24.08 841.45,-30.79"/>
</a>
</g>
</g>
</g>
</svg>
