<?xml version="1.0" encoding="UTF-8" standalone="no"?>
<!DOCTYPE svg PUBLIC "-//W3C//DTD SVG 1.1//EN"
 "http://www.w3.org/Graphics/SVG/1.1/DTD/svg11.dtd">
<!-- Generated by graphviz version 2.43.0 (0)
 -->
<!-- Title: include/meltpooldg/utilities/preprocessor_directives.hpp Pages: 1 -->
<svg width="844pt" height="126pt"
 viewBox="0.00 0.00 843.50 126.00" xmlns="http://www.w3.org/2000/svg" xmlns:xlink="http://www.w3.org/1999/xlink">
<g id="graph0" class="graph" transform="scale(1 1) rotate(0) translate(4 122)">
<title>include/meltpooldg/utilities/preprocessor_directives.hpp</title>
<!-- Node1 -->
<g id="Node000001" class="node">
<title>Node1</title>
<g id="a_Node000001"><a xlink:title=" ">
<polygon fill="#999999" stroke="#666666" points="474,-118 352,-118 352,-77 474,-77 474,-118"/>
<text text-anchor="start" x="360" y="-106" font-family="Helvetica,sans-Serif" font-size="10.00">include/meltpooldg</text>
<text text-anchor="start" x="360" y="-95" font-family="Helvetica,sans-Serif" font-size="10.00">/utilities/preprocessor</text>
<text text-anchor="middle" x="413" y="-84" font-family="Helvetica,sans-Serif" font-size="10.00">_directives.hpp</text>
</a>
</g>
</g>
<!-- Node2 -->
<g id="Node000002" class="node">
<title>Node2</title>
<g id="a_Node000002"><a xlink:href="cutdg__operator_8cpp.html" target="_top" xlink:title=" ">
<polygon fill="white" stroke="#666666" points="138,-35.5 0,-35.5 0,-5.5 138,-5.5 138,-35.5"/>
<text text-anchor="start" x="8" y="-23.5" font-family="Helvetica,sans-Serif" font-size="10.00">source/compressible</text>
<text text-anchor="middle" x="69" y="-12.5" font-family="Helvetica,sans-Serif" font-size="10.00">_flow/cutdg_operator.cpp</text>
</a>
</g>
</g>
<!-- Node1&#45;&gt;Node2 -->
<g id="edge1_Node000001_Node000002" class="edge">
<title>Node1&#45;&gt;Node2</title>
<g id="a_edge1_Node000001_Node000002"><a xlink:title=" ">
<path fill="none" stroke="#63b8ff" d="M341.74,-82.42C288.08,-71.63 212.77,-56.08 147,-41 139.52,-39.28 131.65,-37.41 123.91,-35.51"/>
<polygon fill="#63b8ff" stroke="#63b8ff" points="341.35,-85.91 351.84,-84.45 342.72,-79.05 341.35,-85.91"/>
</a>
</g>
</g>
<!-- Node3 -->
<g id="Node000003" class="node">
<title>Node3</title>
<g id="a_Node000003"><a xlink:href="dg__operator__explicit_8cpp.html" target="_top" xlink:title=" ">
<polygon fill="white" stroke="#666666" points="321.5,-35.5 156.5,-35.5 156.5,-5.5 321.5,-5.5 321.5,-35.5"/>
<text text-anchor="start" x="164.5" y="-23.5" font-family="Helvetica,sans-Serif" font-size="10.00">source/compressible</text>
<text text-anchor="middle" x="239" y="-12.5" font-family="Helvetica,sans-Serif" font-size="10.00">_flow/dg_operator_explicit.cpp</text>
</a>
</g>
</g>
<!-- Node1&#45;&gt;Node3 -->
<g id="edge2_Node000001_Node000003" class="edge">
<title>Node1&#45;&gt;Node3</title>
<g id="a_edge2_Node000001_Node000003"><a xlink:title=" ">
<path fill="none" stroke="#63b8ff" d="M358.32,-72.93C329.86,-60.66 296.03,-46.08 271.67,-35.58"/>
<polygon fill="#63b8ff" stroke="#63b8ff" points="357.17,-76.25 367.74,-76.99 359.94,-69.82 357.17,-76.25"/>
</a>
</g>
</g>
<!-- Node4 -->
<g id="Node000004" class="node">
<title>Node4</title>
<g id="a_Node000004"><a xlink:href="dg__operator__implicit__explicit_8cpp.html" target="_top" xlink:title=" ">
<polygon fill="white" stroke="#666666" points="486,-41 340,-41 340,0 486,0 486,-41"/>
<text text-anchor="start" x="348" y="-29" font-family="Helvetica,sans-Serif" font-size="10.00">source/compressible</text>
<text text-anchor="start" x="348" y="-18" font-family="Helvetica,sans-Serif" font-size="10.00">_flow/dg_operator_implicit</text>
<text text-anchor="middle" x="413" y="-7" font-family="Helvetica,sans-Serif" font-size="10.00">_explicit.cpp</text>
</a>
</g>
</g>
<!-- Node1&#45;&gt;Node4 -->
<g id="edge3_Node000001_Node000004" class="edge">
<title>Node1&#45;&gt;Node4</title>
<g id="a_edge3_Node000001_Node000004"><a xlink:title=" ">
<path fill="none" stroke="#63b8ff" d="M413,-66.69C413,-58.08 413,-48.9 413,-41.07"/>
<polygon fill="#63b8ff" stroke="#63b8ff" points="409.5,-66.79 413,-76.79 416.5,-66.79 409.5,-66.79"/>
</a>
</g>
</g>
<!-- Node5 -->
<g id="Node000005" class="node">
<title>Node5</title>
<g id="a_Node000005"><a xlink:href="multiphase__operator_8cpp.html" target="_top" xlink:title=" ">
<polygon fill="white" stroke="#666666" points="670,-35.5 504,-35.5 504,-5.5 670,-5.5 670,-35.5"/>
<text text-anchor="start" x="512" y="-23.5" font-family="Helvetica,sans-Serif" font-size="10.00">source/compressible</text>
<text text-anchor="middle" x="587" y="-12.5" font-family="Helvetica,sans-Serif" font-size="10.00">_flow/multiphase_operator.cpp</text>
</a>
</g>
</g>
<!-- Node1&#45;&gt;Node5 -->
<g id="edge4_Node000001_Node000005" class="edge">
<title>Node1&#45;&gt;Node5</title>
<g id="a_edge4_Node000001_Node000005"><a xlink:title=" ">
<path fill="none" stroke="#63b8ff" d="M467.68,-72.93C496.14,-60.66 529.97,-46.08 554.33,-35.58"/>
<polygon fill="#63b8ff" stroke="#63b8ff" points="466.06,-69.82 458.26,-76.99 468.83,-76.25 466.06,-69.82"/>
</a>
</g>
</g>
<!-- Node6 -->
<g id="Node000006" class="node">
<title>Node6</title>
<g id="a_Node000006"><a xlink:href="advection__DG__operation_8cpp.html" target="_top" xlink:title=" ">
<polygon fill="white" stroke="#666666" points="835.5,-35.5 688.5,-35.5 688.5,-5.5 835.5,-5.5 835.5,-35.5"/>
<text text-anchor="start" x="696.5" y="-23.5" font-family="Helvetica,sans-Serif" font-size="10.00">source/level_set/advection</text>
<text text-anchor="middle" x="762" y="-12.5" font-family="Helvetica,sans-Serif" font-size="10.00">_DG_operation.cpp</text>
</a>
</g>
</g>
<!-- Node1&#45;&gt;Node6 -->
<g id="edge5_Node000001_Node000006" class="edge">
<title>Node1&#45;&gt;Node6</title>
<g id="a_edge5_Node000001_Node000006"><a xlink:title=" ">
<path fill="none" stroke="#63b8ff" d="M484.2,-82.15C537.83,-71.22 613.13,-55.61 679,-41 686.8,-39.27 695.01,-37.4 703.1,-35.53"/>
<polygon fill="#63b8ff" stroke="#63b8ff" points="483.21,-78.78 474.11,-84.2 484.6,-85.64 483.21,-78.78"/>
</a>
</g>
</g>
</g>
</svg>
