<?xml version="1.0" encoding="UTF-8" standalone="no"?>
<!DOCTYPE svg PUBLIC "-//W3C//DTD SVG 1.1//EN"
 "http://www.w3.org/Graphics/SVG/1.1/DTD/svg11.dtd">
<!-- Generated by graphviz version 2.43.0 (0)
 -->
<!-- Title: include/meltpooldg/radiative_transport/radiative_transport_data.hpp Pages: 1 -->
<svg width="767pt" height="335pt"
 viewBox="0.00 0.00 766.54 335.00" xmlns="http://www.w3.org/2000/svg" xmlns:xlink="http://www.w3.org/1999/xlink">
<g id="graph0" class="graph" transform="scale(1 1) rotate(0) translate(4 331)">
<title>include/meltpooldg/radiative_transport/radiative_transport_data.hpp</title>
<!-- Node1 -->
<g id="Node000001" class="node">
<title>Node1</title>
<g id="a_Node000001"><a xlink:title=" ">
<polygon fill="#999999" stroke="#666666" points="610,-327 497,-327 497,-275 610,-275 610,-327"/>
<text text-anchor="start" x="505" y="-315" font-family="Helvetica,sans-Serif" font-size="10.00">include/meltpooldg</text>
<text text-anchor="start" x="505" y="-304" font-family="Helvetica,sans-Serif" font-size="10.00">/radiative_transport</text>
<text text-anchor="start" x="505" y="-293" font-family="Helvetica,sans-Serif" font-size="10.00">/radiative_transport</text>
<text text-anchor="middle" x="553.5" y="-282" font-family="Helvetica,sans-Serif" font-size="10.00">_data.hpp</text>
</a>
</g>
</g>
<!-- Node2 -->
<g id="Node000002" class="node">
<title>Node2</title>
<g id="a_Node000002"><a xlink:title=" ">
<polygon fill="#e0e0e0" stroke="#999999" points="682,-30 555,-30 555,0 682,0 682,-30"/>
<text text-anchor="start" x="563" y="-18" font-family="Helvetica,sans-Serif" font-size="10.00">deal.II/base/parameter</text>
<text text-anchor="middle" x="618.5" y="-7" font-family="Helvetica,sans-Serif" font-size="10.00">_handler.h</text>
</a>
</g>
</g>
<!-- Node1&#45;&gt;Node2 -->
<g id="edge1_Node000001_Node000002" class="edge">
<title>Node1&#45;&gt;Node2</title>
<g id="a_edge1_Node000001_Node000002"><a xlink:title=" ">
<path fill="none" stroke="#63b8ff" d="M610.43,-278.99C658.56,-257.74 724.1,-219.72 752.5,-162 778.97,-108.2 707.31,-59.99 658.85,-34.69"/>
<polygon fill="#63b8ff" stroke="#63b8ff" points="660.3,-31.5 649.8,-30.09 657.13,-37.74 660.3,-31.5"/>
</a>
</g>
</g>
<!-- Node3 -->
<g id="Node000003" class="node">
<title>Node3</title>
<g id="a_Node000003"><a xlink:href="finite__element__data_8hpp.html" target="_top" xlink:title=" ">
<polygon fill="white" stroke="#666666" points="743.5,-162 619.5,-162 619.5,-132 743.5,-132 743.5,-162"/>
<text text-anchor="start" x="627.5" y="-150" font-family="Helvetica,sans-Serif" font-size="10.00">meltpooldg/core/finite</text>
<text text-anchor="middle" x="681.5" y="-139" font-family="Helvetica,sans-Serif" font-size="10.00">_element_data.hpp</text>
</a>
</g>
</g>
<!-- Node1&#45;&gt;Node3 -->
<g id="edge2_Node000001_Node000003" class="edge">
<title>Node1&#45;&gt;Node3</title>
<g id="a_edge2_Node000001_Node000003"><a xlink:title=" ">
<path fill="none" stroke="#63b8ff" d="M586.85,-274.87C599.43,-264.52 613.37,-251.94 624.5,-239 642.7,-217.84 659.1,-190.31 669.59,-171.09"/>
<polygon fill="#63b8ff" stroke="#63b8ff" points="672.75,-172.61 674.38,-162.14 666.58,-169.31 672.75,-172.61"/>
</a>
</g>
</g>
<!-- Node4 -->
<g id="Node000004" class="node">
<title>Node4</title>
<g id="a_Node000004"><a xlink:href="enum_8hpp.html" target="_top" xlink:title=" ">
<polygon fill="white" stroke="#666666" points="416.5,-96 304.5,-96 304.5,-66 416.5,-66 416.5,-96"/>
<text text-anchor="start" x="312.5" y="-84" font-family="Helvetica,sans-Serif" font-size="10.00">meltpooldg/utilities</text>
<text text-anchor="middle" x="360.5" y="-73" font-family="Helvetica,sans-Serif" font-size="10.00">/enum.hpp</text>
</a>
</g>
</g>
<!-- Node1&#45;&gt;Node4 -->
<g id="edge19_Node000001_Node000004" class="edge">
<title>Node1&#45;&gt;Node4</title>
<g id="a_edge19_Node000001_Node000004"><a xlink:title=" ">
<path fill="none" stroke="#63b8ff" d="M498.61,-274.96C455.6,-252.14 398.5,-214.03 370.5,-162 361.3,-144.91 359.14,-122.87 359.08,-106.25"/>
<polygon fill="#63b8ff" stroke="#63b8ff" points="362.58,-106.29 359.3,-96.22 355.58,-106.14 362.58,-106.29"/>
</a>
</g>
</g>
<!-- Node10 -->
<g id="Node000010" class="node">
<title>Node10</title>
<g id="a_Node000010"><a xlink:href="linear__solver__data_8hpp.html" target="_top" xlink:title=" ">
<polygon fill="white" stroke="#666666" points="525,-162 380,-162 380,-132 525,-132 525,-162"/>
<text text-anchor="start" x="388" y="-150" font-family="Helvetica,sans-Serif" font-size="10.00">meltpooldg/linear_algebra</text>
<text text-anchor="middle" x="452.5" y="-139" font-family="Helvetica,sans-Serif" font-size="10.00">/linear_solver_data.hpp</text>
</a>
</g>
</g>
<!-- Node1&#45;&gt;Node10 -->
<g id="edge11_Node000001_Node000010" class="edge">
<title>Node1&#45;&gt;Node10</title>
<g id="a_edge11_Node000001_Node000010"><a xlink:title=" ">
<path fill="none" stroke="#63b8ff" d="M517.57,-274.86C505.38,-264.86 492.57,-252.52 483.5,-239 469.77,-218.54 461.56,-191.41 457.08,-172.11"/>
<polygon fill="#63b8ff" stroke="#63b8ff" points="460.49,-171.32 454.96,-162.28 453.65,-172.8 460.49,-171.32"/>
</a>
</g>
</g>
<!-- Node11 -->
<g id="Node000011" class="node">
<title>Node11</title>
<g id="a_Node000011"><a xlink:href="pseudo__rte__data_8hpp.html" target="_top" xlink:title=" ">
<polygon fill="white" stroke="#666666" points="615,-239 492,-239 492,-198 615,-198 615,-239"/>
<text text-anchor="start" x="500" y="-227" font-family="Helvetica,sans-Serif" font-size="10.00">meltpooldg/radiative</text>
<text text-anchor="start" x="500" y="-216" font-family="Helvetica,sans-Serif" font-size="10.00">_transport/pseudo_rte</text>
<text text-anchor="middle" x="553.5" y="-205" font-family="Helvetica,sans-Serif" font-size="10.00">_data.hpp</text>
</a>
</g>
</g>
<!-- Node1&#45;&gt;Node11 -->
<g id="edge13_Node000001_Node000011" class="edge">
<title>Node1&#45;&gt;Node11</title>
<g id="a_edge13_Node000001_Node000011"><a xlink:title=" ">
<path fill="none" stroke="#63b8ff" d="M553.5,-274.97C553.5,-266.86 553.5,-257.78 553.5,-249.35"/>
<polygon fill="#63b8ff" stroke="#63b8ff" points="557,-249.15 553.5,-239.15 550,-249.15 557,-249.15"/>
</a>
</g>
</g>
<!-- Node3&#45;&gt;Node2 -->
<g id="edge3_Node000003_Node000002" class="edge">
<title>Node3&#45;&gt;Node2</title>
<g id="a_edge3_Node000003_Node000002"><a xlink:title=" ">
<path fill="none" stroke="#63b8ff" d="M674.64,-131.84C663.84,-109.57 642.79,-66.13 629.76,-39.23"/>
<polygon fill="#63b8ff" stroke="#63b8ff" points="632.86,-37.61 625.35,-30.14 626.57,-40.67 632.86,-37.61"/>
</a>
</g>
</g>
<!-- Node3&#45;&gt;Node4 -->
<g id="edge4_Node000003_Node000004" class="edge">
<title>Node3&#45;&gt;Node4</title>
<g id="a_edge4_Node000003_Node000004"><a xlink:title=" ">
<path fill="none" stroke="#63b8ff" d="M619.36,-134.21C569.8,-124.73 498.36,-110.88 426.63,-96.21"/>
<polygon fill="#63b8ff" stroke="#63b8ff" points="427,-92.71 416.51,-94.13 425.6,-99.57 427,-92.71"/>
</a>
</g>
</g>
<!-- Node4&#45;&gt;Node2 -->
<g id="edge5_Node000004_Node000002" class="edge">
<title>Node4&#45;&gt;Node2</title>
<g id="a_edge5_Node000004_Node000002"><a xlink:title=" ">
<path fill="none" stroke="#63b8ff" d="M416.8,-66.03C456.61,-56.16 510.13,-42.88 552.03,-32.49"/>
<polygon fill="#63b8ff" stroke="#63b8ff" points="553.01,-35.85 561.87,-30.05 551.33,-29.06 553.01,-35.85"/>
</a>
</g>
</g>
<!-- Node5 -->
<g id="Node000005" class="node">
<title>Node5</title>
<g id="a_Node000005"><a xlink:title=" ">
<polygon fill="#e0e0e0" stroke="#999999" points="125,-24.5 0,-24.5 0,-5.5 125,-5.5 125,-24.5"/>
<text text-anchor="middle" x="62.5" y="-12.5" font-family="Helvetica,sans-Serif" font-size="10.00">deal.II/base/patterns.h</text>
</a>
</g>
</g>
<!-- Node4&#45;&gt;Node5 -->
<g id="edge6_Node000004_Node000005" class="edge">
<title>Node4&#45;&gt;Node5</title>
<g id="a_edge6_Node000004_Node000005"><a xlink:title=" ">
<path fill="none" stroke="#63b8ff" d="M304.45,-67.96C249.01,-56.06 164.99,-38.01 111.97,-26.62"/>
<polygon fill="#63b8ff" stroke="#63b8ff" points="112.63,-23.19 102.12,-24.51 111.16,-30.03 112.63,-23.19"/>
</a>
</g>
</g>
<!-- Node6 -->
<g id="Node000006" class="node">
<title>Node6</title>
<g id="a_Node000006"><a xlink:title=" ">
<polygon fill="#e0e0e0" stroke="#999999" points="255.5,-30 143.5,-30 143.5,0 255.5,0 255.5,-30"/>
<text text-anchor="start" x="151.5" y="-18" font-family="Helvetica,sans-Serif" font-size="10.00">meltpooldg/utilities</text>
<text text-anchor="middle" x="199.5" y="-7" font-family="Helvetica,sans-Serif" font-size="10.00">/better_enum.hpp</text>
</a>
</g>
</g>
<!-- Node4&#45;&gt;Node6 -->
<g id="edge7_Node000004_Node000006" class="edge">
<title>Node4&#45;&gt;Node6</title>
<g id="a_edge7_Node000004_Node000006"><a xlink:title=" ">
<path fill="none" stroke="#63b8ff" d="M325.17,-65.95C301.37,-56.49 269.77,-43.93 244.22,-33.78"/>
<polygon fill="#63b8ff" stroke="#63b8ff" points="245.34,-30.45 234.75,-30.01 242.75,-36.96 245.34,-30.45"/>
</a>
</g>
</g>
<!-- Node7 -->
<g id="Node000007" class="node">
<title>Node7</title>
<g id="a_Node000007"><a xlink:title=" ">
<polygon fill="#e0e0e0" stroke="#999999" points="399,-30 274,-30 274,0 399,0 399,-30"/>
<text text-anchor="start" x="282" y="-18" font-family="Helvetica,sans-Serif" font-size="10.00">boost/algorithm/string</text>
<text text-anchor="middle" x="336.5" y="-7" font-family="Helvetica,sans-Serif" font-size="10.00">/join.hpp</text>
</a>
</g>
</g>
<!-- Node4&#45;&gt;Node7 -->
<g id="edge8_Node000004_Node000007" class="edge">
<title>Node4&#45;&gt;Node7</title>
<g id="a_edge8_Node000004_Node000007"><a xlink:title=" ">
<path fill="none" stroke="#63b8ff" d="M355.17,-65.8C352.28,-58.09 348.64,-48.37 345.33,-39.56"/>
<polygon fill="#63b8ff" stroke="#63b8ff" points="348.6,-38.3 341.81,-30.16 342.05,-40.76 348.6,-38.3"/>
</a>
</g>
</g>
<!-- Node8 -->
<g id="Node000008" class="node">
<title>Node8</title>
<g id="a_Node000008"><a xlink:title=" ">
<polygon fill="#e0e0e0" stroke="#999999" points="473.5,-24.5 417.5,-24.5 417.5,-5.5 473.5,-5.5 473.5,-24.5"/>
<text text-anchor="middle" x="445.5" y="-12.5" font-family="Helvetica,sans-Serif" font-size="10.00">sstream</text>
</a>
</g>
</g>
<!-- Node4&#45;&gt;Node8 -->
<g id="edge9_Node000004_Node000008" class="edge">
<title>Node4&#45;&gt;Node8</title>
<g id="a_edge9_Node000004_Node000008"><a xlink:title=" ">
<path fill="none" stroke="#63b8ff" d="M379.36,-65.8C393.14,-55.43 411.76,-41.4 425.74,-30.88"/>
<polygon fill="#63b8ff" stroke="#63b8ff" points="427.87,-33.66 433.75,-24.84 423.66,-28.06 427.87,-33.66"/>
</a>
</g>
</g>
<!-- Node9 -->
<g id="Node000009" class="node">
<title>Node9</title>
<g id="a_Node000009"><a xlink:title=" ">
<polygon fill="#e0e0e0" stroke="#999999" points="535.5,-24.5 491.5,-24.5 491.5,-5.5 535.5,-5.5 535.5,-24.5"/>
<text text-anchor="middle" x="513.5" y="-12.5" font-family="Helvetica,sans-Serif" font-size="10.00">string</text>
</a>
</g>
</g>
<!-- Node4&#45;&gt;Node9 -->
<g id="edge10_Node000004_Node000009" class="edge">
<title>Node4&#45;&gt;Node9</title>
<g id="a_edge10_Node000004_Node000009"><a xlink:title=" ">
<path fill="none" stroke="#63b8ff" d="M395.61,-65.99C420.06,-56.14 453.38,-42.54 482.5,-30 483.5,-29.57 484.52,-29.13 485.55,-28.68"/>
<polygon fill="#63b8ff" stroke="#63b8ff" points="487.14,-31.8 494.86,-24.55 484.3,-25.4 487.14,-31.8"/>
</a>
</g>
</g>
<!-- Node10&#45;&gt;Node4 -->
<g id="edge12_Node000010_Node000004" class="edge">
<title>Node10&#45;&gt;Node4</title>
<g id="a_edge12_Node000010_Node000004"><a xlink:title=" ">
<path fill="none" stroke="#63b8ff" d="M432.08,-131.8C419.46,-123.01 403.06,-111.61 389.15,-101.93"/>
<polygon fill="#63b8ff" stroke="#63b8ff" points="391.07,-99 380.86,-96.16 387.07,-104.75 391.07,-99"/>
</a>
</g>
</g>
<!-- Node11&#45;&gt;Node2 -->
<g id="edge14_Node000011_Node000002" class="edge">
<title>Node11&#45;&gt;Node2</title>
<g id="a_edge14_Node000011_Node000002"><a xlink:title=" ">
<path fill="none" stroke="#63b8ff" d="M561.78,-197.99C571.66,-174.21 588.26,-132.66 599.5,-96 605.18,-77.48 610.18,-56.12 613.62,-40.13"/>
<polygon fill="#63b8ff" stroke="#63b8ff" points="617.11,-40.53 615.74,-30.02 610.26,-39.09 617.11,-40.53"/>
</a>
</g>
</g>
<!-- Node11&#45;&gt;Node10 -->
<g id="edge15_Node000011_Node000010" class="edge">
<title>Node11&#45;&gt;Node10</title>
<g id="a_edge15_Node000011_Node000010"><a xlink:title=" ">
<path fill="none" stroke="#63b8ff" d="M525.1,-197.96C511.5,-188.6 495.25,-177.42 481.57,-168.01"/>
<polygon fill="#63b8ff" stroke="#63b8ff" points="483.23,-164.9 473.01,-162.11 479.26,-170.66 483.23,-164.9"/>
</a>
</g>
</g>
<!-- Node12 -->
<g id="Node000012" class="node">
<title>Node12</title>
<g id="a_Node000012"><a xlink:href="time__stepping__data_8hpp.html" target="_top" xlink:title=" ">
<polygon fill="white" stroke="#666666" points="590.5,-96 434.5,-96 434.5,-66 590.5,-66 590.5,-96"/>
<text text-anchor="start" x="442.5" y="-84" font-family="Helvetica,sans-Serif" font-size="10.00">meltpooldg/time_integration</text>
<text text-anchor="middle" x="512.5" y="-73" font-family="Helvetica,sans-Serif" font-size="10.00">/time_stepping_data.hpp</text>
</a>
</g>
</g>
<!-- Node11&#45;&gt;Node12 -->
<g id="edge16_Node000011_Node000012" class="edge">
<title>Node11&#45;&gt;Node12</title>
<g id="a_edge16_Node000011_Node000012"><a xlink:title=" ">
<path fill="none" stroke="#63b8ff" d="M550.27,-197.85C547.12,-180.33 541.74,-154.11 534.5,-132 531.57,-123.06 527.61,-113.54 523.85,-105.24"/>
<polygon fill="#63b8ff" stroke="#63b8ff" points="527.02,-103.73 519.62,-96.15 520.67,-106.69 527.02,-103.73"/>
</a>
</g>
</g>
<!-- Node12&#45;&gt;Node2 -->
<g id="edge17_Node000012_Node000002" class="edge">
<title>Node12&#45;&gt;Node2</title>
<g id="a_edge17_Node000012_Node000002"><a xlink:title=" ">
<path fill="none" stroke="#63b8ff" d="M535.76,-65.95C550.67,-56.95 570.23,-45.14 586.59,-35.27"/>
<polygon fill="#63b8ff" stroke="#63b8ff" points="588.54,-38.18 595.29,-30.01 584.92,-32.18 588.54,-38.18"/>
</a>
</g>
</g>
<!-- Node12&#45;&gt;Node9 -->
<g id="edge18_Node000012_Node000009" class="edge">
<title>Node12&#45;&gt;Node9</title>
<g id="a_edge18_Node000012_Node000009"><a xlink:title=" ">
<path fill="none" stroke="#63b8ff" d="M512.72,-65.8C512.86,-56.7 513.05,-44.79 513.2,-34.9"/>
<polygon fill="#63b8ff" stroke="#63b8ff" points="516.71,-34.9 513.36,-24.84 509.71,-34.79 516.71,-34.9"/>
</a>
</g>
</g>
</g>
</svg>
