<?xml version="1.0" encoding="UTF-8" standalone="no"?>
<!DOCTYPE svg PUBLIC "-//W3C//DTD SVG 1.1//EN"
 "http://www.w3.org/Graphics/SVG/1.1/DTD/svg11.dtd">
<!-- Generated by graphviz version 2.43.0 (0)
 -->
<!-- Title: applications/mp&#45;radiative&#45;transport/radiative_transport_case.hpp Pages: 1 -->
<svg width="555pt" height="203pt"
 viewBox="0.00 0.00 555.00 203.00" xmlns="http://www.w3.org/2000/svg" xmlns:xlink="http://www.w3.org/1999/xlink">
<g id="graph0" class="graph" transform="scale(1 1) rotate(0) translate(4 199)">
<title>applications/mp&#45;radiative&#45;transport/radiative_transport_case.hpp</title>
<!-- Node1 -->
<g id="Node000001" class="node">
<title>Node1</title>
<g id="a_Node000001"><a xlink:title=" ">
<polygon fill="#999999" stroke="#666666" points="285.5,-195 124.5,-195 124.5,-154 285.5,-154 285.5,-195"/>
<text text-anchor="start" x="132.5" y="-183" font-family="Helvetica,sans-Serif" font-size="10.00">applications/mp&#45;radiative</text>
<text text-anchor="start" x="132.5" y="-172" font-family="Helvetica,sans-Serif" font-size="10.00">&#45;transport/radiative_transport</text>
<text text-anchor="middle" x="205" y="-161" font-family="Helvetica,sans-Serif" font-size="10.00">_case.hpp</text>
</a>
</g>
</g>
<!-- Node2 -->
<g id="Node000002" class="node">
<title>Node2</title>
<g id="a_Node000002"><a xlink:href="mp-radiative-transport_2cases_2radiative__transport_8cpp.html" target="_top" xlink:title=" ">
<polygon fill="white" stroke="#666666" points="142,-41 0,-41 0,0 142,0 142,-41"/>
<text text-anchor="start" x="8" y="-29" font-family="Helvetica,sans-Serif" font-size="10.00">applications/mp&#45;radiative</text>
<text text-anchor="start" x="8" y="-18" font-family="Helvetica,sans-Serif" font-size="10.00">&#45;transport/cases/radiative</text>
<text text-anchor="middle" x="71" y="-7" font-family="Helvetica,sans-Serif" font-size="10.00">_transport.cpp</text>
</a>
</g>
</g>
<!-- Node1&#45;&gt;Node2 -->
<g id="edge1_Node000001_Node000002" class="edge">
<title>Node1&#45;&gt;Node2</title>
<g id="a_edge1_Node000001_Node000002"><a xlink:title=" ">
<path fill="none" stroke="#63b8ff" d="M114.13,-163.75C85.75,-155.93 57.36,-142.15 40,-118 23.26,-94.71 40.41,-61.96 55.07,-41.23"/>
<polygon fill="#63b8ff" stroke="#63b8ff" points="113.59,-167.23 124.14,-166.28 115.3,-160.44 113.59,-167.23"/>
</a>
</g>
</g>
<!-- Node3 -->
<g id="Node000003" class="node">
<title>Node3</title>
<g id="a_Node000003"><a xlink:href="radiative__transport_8templates_8hpp.html" target="_top" xlink:title=" ">
<polygon fill="white" stroke="#666666" points="191,-118 49,-118 49,-77 191,-77 191,-118"/>
<text text-anchor="start" x="57" y="-106" font-family="Helvetica,sans-Serif" font-size="10.00">applications/mp&#45;radiative</text>
<text text-anchor="start" x="57" y="-95" font-family="Helvetica,sans-Serif" font-size="10.00">&#45;transport/cases/radiative</text>
<text text-anchor="middle" x="120" y="-84" font-family="Helvetica,sans-Serif" font-size="10.00">_transport.templates.hpp</text>
</a>
</g>
</g>
<!-- Node1&#45;&gt;Node3 -->
<g id="edge2_Node000001_Node000003" class="edge">
<title>Node1&#45;&gt;Node3</title>
<g id="a_edge2_Node000001_Node000003"><a xlink:title=" ">
<path fill="none" stroke="#63b8ff" d="M175.05,-147.07C164.23,-137.52 152.22,-126.93 142.18,-118.07"/>
<polygon fill="#63b8ff" stroke="#63b8ff" points="172.85,-149.8 182.67,-153.79 177.48,-144.55 172.85,-149.8"/>
</a>
</g>
</g>
<!-- Node4 -->
<g id="Node000004" class="node">
<title>Node4</title>
<g id="a_Node000004"><a xlink:href="radiative__transport__application_8hpp.html" target="_top" xlink:title=" ">
<polygon fill="white" stroke="#666666" points="370.5,-118 209.5,-118 209.5,-77 370.5,-77 370.5,-118"/>
<text text-anchor="start" x="217.5" y="-106" font-family="Helvetica,sans-Serif" font-size="10.00">applications/mp&#45;radiative</text>
<text text-anchor="start" x="217.5" y="-95" font-family="Helvetica,sans-Serif" font-size="10.00">&#45;transport/radiative_transport</text>
<text text-anchor="middle" x="290" y="-84" font-family="Helvetica,sans-Serif" font-size="10.00">_application.hpp</text>
</a>
</g>
</g>
<!-- Node1&#45;&gt;Node4 -->
<g id="edge4_Node000001_Node000004" class="edge">
<title>Node1&#45;&gt;Node4</title>
<g id="a_edge4_Node000001_Node000004"><a xlink:title=" ">
<path fill="none" stroke="#63b8ff" d="M234.95,-147.07C245.77,-137.52 257.78,-126.93 267.82,-118.07"/>
<polygon fill="#63b8ff" stroke="#63b8ff" points="232.52,-144.55 227.33,-153.79 237.15,-149.8 232.52,-144.55"/>
</a>
</g>
</g>
<!-- Node6 -->
<g id="Node000006" class="node">
<title>Node6</title>
<g id="a_Node000006"><a xlink:href="mp-radiative-transport_2unit__tests_2detailed__parameters_8cc.html" target="_top" xlink:title=" ">
<polygon fill="white" stroke="#666666" points="547,-118 389,-118 389,-77 547,-77 547,-118"/>
<text text-anchor="start" x="397" y="-106" font-family="Helvetica,sans-Serif" font-size="10.00">applications/mp&#45;radiative</text>
<text text-anchor="start" x="397" y="-95" font-family="Helvetica,sans-Serif" font-size="10.00">&#45;transport/unit_tests/detailed</text>
<text text-anchor="middle" x="468" y="-84" font-family="Helvetica,sans-Serif" font-size="10.00">_parameters.cc</text>
</a>
</g>
</g>
<!-- Node1&#45;&gt;Node6 -->
<g id="edge6_Node000001_Node000006" class="edge">
<title>Node1&#45;&gt;Node6</title>
<g id="a_edge6_Node000001_Node000006"><a xlink:title=" ">
<path fill="none" stroke="#63b8ff" d="M283.15,-151.21C320.1,-140.68 363.83,-128.21 399.47,-118.04"/>
<polygon fill="#63b8ff" stroke="#63b8ff" points="282.07,-147.88 273.41,-153.99 283.99,-154.61 282.07,-147.88"/>
</a>
</g>
</g>
<!-- Node3&#45;&gt;Node2 -->
<g id="edge3_Node000003_Node000002" class="edge">
<title>Node3&#45;&gt;Node2</title>
<g id="a_edge3_Node000003_Node000002"><a xlink:title=" ">
<path fill="none" stroke="#63b8ff" d="M101.64,-68.39C95.69,-59.3 89.24,-49.41 83.79,-41.07"/>
<polygon fill="#63b8ff" stroke="#63b8ff" points="98.73,-70.34 107.13,-76.79 104.59,-66.51 98.73,-70.34"/>
</a>
</g>
</g>
<!-- Node5 -->
<g id="Node000005" class="node">
<title>Node5</title>
<g id="a_Node000005"><a xlink:href="radiative__transport__application_8cpp.html" target="_top" xlink:title=" ">
<polygon fill="white" stroke="#666666" points="370.5,-41 209.5,-41 209.5,0 370.5,0 370.5,-41"/>
<text text-anchor="start" x="217.5" y="-29" font-family="Helvetica,sans-Serif" font-size="10.00">applications/mp&#45;radiative</text>
<text text-anchor="start" x="217.5" y="-18" font-family="Helvetica,sans-Serif" font-size="10.00">&#45;transport/radiative_transport</text>
<text text-anchor="middle" x="290" y="-7" font-family="Helvetica,sans-Serif" font-size="10.00">_application.cpp</text>
</a>
</g>
</g>
<!-- Node4&#45;&gt;Node5 -->
<g id="edge5_Node000004_Node000005" class="edge">
<title>Node4&#45;&gt;Node5</title>
<g id="a_edge5_Node000004_Node000005"><a xlink:title=" ">
<path fill="none" stroke="#63b8ff" d="M290,-66.69C290,-58.08 290,-48.9 290,-41.07"/>
<polygon fill="#63b8ff" stroke="#63b8ff" points="286.5,-66.79 290,-76.79 293.5,-66.79 286.5,-66.79"/>
</a>
</g>
</g>
</g>
</svg>
