<?xml version="1.0" encoding="UTF-8" standalone="no"?>
<!DOCTYPE svg PUBLIC "-//W3C//DTD SVG 1.1//EN"
 "http://www.w3.org/Graphics/SVG/1.1/DTD/svg11.dtd">
<!-- Generated by graphviz version 2.43.0 (0)
 -->
<!-- Title: include/meltpooldg/phase_change/recoil_pressure_operation.hpp Pages: 1 -->
<svg width="1254pt" height="269pt"
 viewBox="0.00 0.00 1253.50 269.00" xmlns="http://www.w3.org/2000/svg" xmlns:xlink="http://www.w3.org/1999/xlink">
<g id="graph0" class="graph" transform="scale(1 1) rotate(0) translate(4 265)">
<title>include/meltpooldg/phase_change/recoil_pressure_operation.hpp</title>
<!-- Node1 -->
<g id="Node000001" class="node">
<title>Node1</title>
<g id="a_Node000001"><a xlink:title=" ">
<polygon fill="#999999" stroke="#666666" points="515,-261 378,-261 378,-220 515,-220 515,-261"/>
<text text-anchor="start" x="386" y="-249" font-family="Helvetica,sans-Serif" font-size="10.00">include/meltpooldg</text>
<text text-anchor="start" x="386" y="-238" font-family="Helvetica,sans-Serif" font-size="10.00">/phase_change/recoil</text>
<text text-anchor="middle" x="446.5" y="-227" font-family="Helvetica,sans-Serif" font-size="10.00">_pressure_operation.hpp</text>
</a>
</g>
</g>
<!-- Node2 -->
<g id="Node000002" class="node">
<title>Node2</title>
<g id="a_Node000002"><a xlink:href="melt__pool__application_8hpp.html" target="_top" xlink:title=" ">
<polygon fill="white" stroke="#666666" points="263,-178.5 90,-178.5 90,-148.5 263,-148.5 263,-178.5"/>
<text text-anchor="start" x="98" y="-166.5" font-family="Helvetica,sans-Serif" font-size="10.00">applications/mp&#45;melt</text>
<text text-anchor="middle" x="176.5" y="-155.5" font-family="Helvetica,sans-Serif" font-size="10.00">&#45;pool/melt_pool_application.hpp</text>
</a>
</g>
</g>
<!-- Node1&#45;&gt;Node2 -->
<g id="edge1_Node000001_Node000002" class="edge">
<title>Node1&#45;&gt;Node2</title>
<g id="a_edge1_Node000001_Node000002"><a xlink:title=" ">
<path fill="none" stroke="#63b8ff" d="M367.87,-217.66C322.54,-205.07 266.88,-189.61 227.3,-178.61"/>
<polygon fill="#63b8ff" stroke="#63b8ff" points="367.1,-221.08 377.67,-220.38 368.97,-214.33 367.1,-221.08"/>
</a>
</g>
</g>
<!-- Node4 -->
<g id="Node000004" class="node">
<title>Node4</title>
<g id="a_Node000004"><a xlink:href="evaporation__model__recoil__pressure_8hpp.html" target="_top" xlink:title=" ">
<polygon fill="white" stroke="#666666" points="523,-184 370,-184 370,-143 523,-143 523,-184"/>
<text text-anchor="start" x="378" y="-172" font-family="Helvetica,sans-Serif" font-size="10.00">include/meltpooldg</text>
<text text-anchor="start" x="378" y="-161" font-family="Helvetica,sans-Serif" font-size="10.00">/phase_change/evaporation</text>
<text text-anchor="middle" x="446.5" y="-150" font-family="Helvetica,sans-Serif" font-size="10.00">_model_recoil_pressure.hpp</text>
</a>
</g>
</g>
<!-- Node1&#45;&gt;Node4 -->
<g id="edge3_Node000001_Node000004" class="edge">
<title>Node1&#45;&gt;Node4</title>
<g id="a_edge3_Node000001_Node000004"><a xlink:title=" ">
<path fill="none" stroke="#63b8ff" d="M446.5,-209.69C446.5,-201.08 446.5,-191.9 446.5,-184.07"/>
<polygon fill="#63b8ff" stroke="#63b8ff" points="443,-209.79 446.5,-219.79 450,-209.79 443,-209.79"/>
</a>
</g>
</g>
<!-- Node10 -->
<g id="Node000010" class="node">
<title>Node10</title>
<g id="a_Node000010"><a xlink:href="recoil__pressure__operation_8templates_8hpp.html" target="_top" xlink:title=" ">
<polygon fill="white" stroke="#666666" points="982,-184 793,-184 793,-143 982,-143 982,-184"/>
<text text-anchor="start" x="801" y="-172" font-family="Helvetica,sans-Serif" font-size="10.00">include/meltpooldg</text>
<text text-anchor="start" x="801" y="-161" font-family="Helvetica,sans-Serif" font-size="10.00">/phase_change/recoil</text>
<text text-anchor="middle" x="887.5" y="-150" font-family="Helvetica,sans-Serif" font-size="10.00">_pressure_operation.templates.hpp</text>
</a>
</g>
</g>
<!-- Node1&#45;&gt;Node10 -->
<g id="edge9_Node000001_Node000010" class="edge">
<title>Node1&#45;&gt;Node10</title>
<g id="a_edge9_Node000001_Node000010"><a xlink:title=" ">
<path fill="none" stroke="#63b8ff" d="M525.27,-226.1C600.22,-213.36 713.1,-194.16 792.89,-180.59"/>
<polygon fill="#63b8ff" stroke="#63b8ff" points="524.68,-222.65 515.41,-227.78 525.85,-229.56 524.68,-222.65"/>
</a>
</g>
</g>
<!-- Node3 -->
<g id="Node000003" class="node">
<title>Node3</title>
<g id="a_Node000003"><a xlink:href="melt__pool__application_8cpp.html" target="_top" xlink:title=" ">
<polygon fill="white" stroke="#666666" points="173,-101.5 0,-101.5 0,-71.5 173,-71.5 173,-101.5"/>
<text text-anchor="start" x="8" y="-89.5" font-family="Helvetica,sans-Serif" font-size="10.00">applications/mp&#45;melt</text>
<text text-anchor="middle" x="86.5" y="-78.5" font-family="Helvetica,sans-Serif" font-size="10.00">&#45;pool/melt_pool_application.cpp</text>
</a>
</g>
</g>
<!-- Node2&#45;&gt;Node3 -->
<g id="edge2_Node000002_Node000003" class="edge">
<title>Node2&#45;&gt;Node3</title>
<g id="a_edge2_Node000002_Node000003"><a xlink:title=" ">
<path fill="none" stroke="#63b8ff" d="M151.51,-141.67C136.16,-128.88 116.91,-112.84 103.35,-101.54"/>
<polygon fill="#63b8ff" stroke="#63b8ff" points="149.65,-144.68 159.57,-148.39 154.13,-139.3 149.65,-144.68"/>
</a>
</g>
</g>
<!-- Node5 -->
<g id="Node000005" class="node">
<title>Node5</title>
<g id="a_Node000005"><a xlink:href="evaporative__cooling_8templates_8hpp.html" target="_top" xlink:title=" ">
<polygon fill="white" stroke="#666666" points="342,-107 191,-107 191,-66 342,-66 342,-107"/>
<text text-anchor="start" x="199" y="-95" font-family="Helvetica,sans-Serif" font-size="10.00">include/meltpooldg</text>
<text text-anchor="start" x="199" y="-84" font-family="Helvetica,sans-Serif" font-size="10.00">/phase_change/evaporative</text>
<text text-anchor="middle" x="266.5" y="-73" font-family="Helvetica,sans-Serif" font-size="10.00">_cooling.templates.hpp</text>
</a>
</g>
</g>
<!-- Node4&#45;&gt;Node5 -->
<g id="edge4_Node000004_Node000005" class="edge">
<title>Node4&#45;&gt;Node5</title>
<g id="a_edge4_Node000004_Node000005"><a xlink:title=" ">
<path fill="none" stroke="#63b8ff" d="M390.42,-139.13C365.69,-128.83 336.97,-116.86 313.4,-107.04"/>
<polygon fill="#63b8ff" stroke="#63b8ff" points="389.1,-142.37 399.68,-142.99 391.79,-135.91 389.1,-142.37"/>
</a>
</g>
</g>
<!-- Node8 -->
<g id="Node000008" class="node">
<title>Node8</title>
<g id="a_Node000008"><a xlink:href="evaporation__model__factory_8cpp.html" target="_top" xlink:title=" ">
<polygon fill="white" stroke="#666666" points="533,-101.5 360,-101.5 360,-71.5 533,-71.5 533,-101.5"/>
<text text-anchor="start" x="368" y="-89.5" font-family="Helvetica,sans-Serif" font-size="10.00">source/phase_change</text>
<text text-anchor="middle" x="446.5" y="-78.5" font-family="Helvetica,sans-Serif" font-size="10.00">/evaporation_model_factory.cpp</text>
</a>
</g>
</g>
<!-- Node4&#45;&gt;Node8 -->
<g id="edge7_Node000004_Node000008" class="edge">
<title>Node4&#45;&gt;Node8</title>
<g id="a_edge7_Node000004_Node000008"><a xlink:title=" ">
<path fill="none" stroke="#63b8ff" d="M446.5,-132.61C446.5,-122.01 446.5,-110.57 446.5,-101.86"/>
<polygon fill="#63b8ff" stroke="#63b8ff" points="443,-132.79 446.5,-142.79 450,-132.79 443,-132.79"/>
</a>
</g>
</g>
<!-- Node9 -->
<g id="Node000009" class="node">
<title>Node9</title>
<g id="a_Node000009"><a xlink:href="evaporation__model__recoil__pressure_8cpp.html" target="_top" xlink:title=" ">
<polygon fill="white" stroke="#666666" points="697.5,-107 551.5,-107 551.5,-66 697.5,-66 697.5,-107"/>
<text text-anchor="start" x="559.5" y="-95" font-family="Helvetica,sans-Serif" font-size="10.00">source/phase_change</text>
<text text-anchor="start" x="559.5" y="-84" font-family="Helvetica,sans-Serif" font-size="10.00">/evaporation_model_recoil</text>
<text text-anchor="middle" x="624.5" y="-73" font-family="Helvetica,sans-Serif" font-size="10.00">_pressure.cpp</text>
</a>
</g>
</g>
<!-- Node4&#45;&gt;Node9 -->
<g id="edge8_Node000004_Node000009" class="edge">
<title>Node4&#45;&gt;Node9</title>
<g id="a_edge8_Node000004_Node000009"><a xlink:title=" ">
<path fill="none" stroke="#63b8ff" d="M502.28,-139C526.66,-128.72 554.92,-116.82 578.12,-107.04"/>
<polygon fill="#63b8ff" stroke="#63b8ff" points="500.66,-135.88 492.8,-142.99 503.38,-142.33 500.66,-135.88"/>
</a>
</g>
</g>
<!-- Node6 -->
<g id="Node000006" class="node">
<title>Node6</title>
<g id="a_Node000006"><a xlink:href="heat__cut__operator_8cpp.html" target="_top" xlink:title=" ">
<polygon fill="white" stroke="#666666" points="253,-30 134,-30 134,0 253,0 253,-30"/>
<text text-anchor="start" x="142" y="-18" font-family="Helvetica,sans-Serif" font-size="10.00">source/heat/heat_cut</text>
<text text-anchor="middle" x="193.5" y="-7" font-family="Helvetica,sans-Serif" font-size="10.00">_operator.cpp</text>
</a>
</g>
</g>
<!-- Node5&#45;&gt;Node6 -->
<g id="edge5_Node000005_Node000006" class="edge">
<title>Node5&#45;&gt;Node6</title>
<g id="a_edge5_Node000005_Node000006"><a xlink:title=" ">
<path fill="none" stroke="#63b8ff" d="M238.49,-58.83C228.19,-49.02 216.92,-38.3 208.25,-30.04"/>
<polygon fill="#63b8ff" stroke="#63b8ff" points="236.12,-61.41 245.78,-65.77 240.95,-56.34 236.12,-61.41"/>
</a>
</g>
</g>
<!-- Node7 -->
<g id="Node000007" class="node">
<title>Node7</title>
<g id="a_Node000007"><a xlink:href="heat__diffuse__operator_8cpp.html" target="_top" xlink:title=" ">
<polygon fill="white" stroke="#666666" points="408,-30 271,-30 271,0 408,0 408,-30"/>
<text text-anchor="start" x="279" y="-18" font-family="Helvetica,sans-Serif" font-size="10.00">source/heat/heat_diffuse</text>
<text text-anchor="middle" x="339.5" y="-7" font-family="Helvetica,sans-Serif" font-size="10.00">_operator.cpp</text>
</a>
</g>
</g>
<!-- Node5&#45;&gt;Node7 -->
<g id="edge6_Node000005_Node000007" class="edge">
<title>Node5&#45;&gt;Node7</title>
<g id="a_edge6_Node000005_Node000007"><a xlink:title=" ">
<path fill="none" stroke="#63b8ff" d="M294.51,-58.83C304.81,-49.02 316.08,-38.3 324.75,-30.04"/>
<polygon fill="#63b8ff" stroke="#63b8ff" points="292.05,-56.34 287.22,-65.77 296.88,-61.41 292.05,-56.34"/>
</a>
</g>
</g>
<!-- Node11 -->
<g id="Node000011" class="node">
<title>Node11</title>
<g id="a_Node000011"><a xlink:href="evaporation__model__pressure__aware_8cpp.html" target="_top" xlink:title=" ">
<polygon fill="white" stroke="#666666" points="877,-107 716,-107 716,-66 877,-66 877,-107"/>
<text text-anchor="start" x="724" y="-95" font-family="Helvetica,sans-Serif" font-size="10.00">source/phase_change</text>
<text text-anchor="start" x="724" y="-84" font-family="Helvetica,sans-Serif" font-size="10.00">/evaporation_model_pressure</text>
<text text-anchor="middle" x="796.5" y="-73" font-family="Helvetica,sans-Serif" font-size="10.00">_aware.cpp</text>
</a>
</g>
</g>
<!-- Node10&#45;&gt;Node11 -->
<g id="edge10_Node000010_Node000011" class="edge">
<title>Node10&#45;&gt;Node11</title>
<g id="a_edge10_Node000010_Node000011"><a xlink:title=" ">
<path fill="none" stroke="#63b8ff" d="M855.77,-136.35C844.1,-126.73 831.1,-116.01 820.25,-107.07"/>
<polygon fill="#63b8ff" stroke="#63b8ff" points="853.65,-139.14 863.59,-142.79 858.1,-133.73 853.65,-139.14"/>
</a>
</g>
</g>
<!-- Node12 -->
<g id="Node000012" class="node">
<title>Node12</title>
<g id="a_Node000012"><a xlink:href="evaporation__model__saturated__vapor__pressure_8cpp.html" target="_top" xlink:title=" ">
<polygon fill="white" stroke="#666666" points="1061.5,-107 895.5,-107 895.5,-66 1061.5,-66 1061.5,-107"/>
<text text-anchor="start" x="903.5" y="-95" font-family="Helvetica,sans-Serif" font-size="10.00">source/phase_change</text>
<text text-anchor="start" x="903.5" y="-84" font-family="Helvetica,sans-Serif" font-size="10.00">/evaporation_model_saturated</text>
<text text-anchor="middle" x="978.5" y="-73" font-family="Helvetica,sans-Serif" font-size="10.00">_vapor_pressure.cpp</text>
</a>
</g>
</g>
<!-- Node10&#45;&gt;Node12 -->
<g id="edge11_Node000010_Node000012" class="edge">
<title>Node10&#45;&gt;Node12</title>
<g id="a_edge11_Node000010_Node000012"><a xlink:title=" ">
<path fill="none" stroke="#63b8ff" d="M919.23,-136.35C930.9,-126.73 943.9,-116.01 954.75,-107.07"/>
<polygon fill="#63b8ff" stroke="#63b8ff" points="916.9,-133.73 911.41,-142.79 921.35,-139.14 916.9,-133.73"/>
</a>
</g>
</g>
<!-- Node13 -->
<g id="Node000013" class="node">
<title>Node13</title>
<g id="a_Node000013"><a xlink:href="recoil__pressure__operation_8cpp.html" target="_top" xlink:title=" ">
<polygon fill="white" stroke="#666666" points="1245.5,-101.5 1079.5,-101.5 1079.5,-71.5 1245.5,-71.5 1245.5,-101.5"/>
<text text-anchor="start" x="1087.5" y="-89.5" font-family="Helvetica,sans-Serif" font-size="10.00">source/phase_change</text>
<text text-anchor="middle" x="1162.5" y="-78.5" font-family="Helvetica,sans-Serif" font-size="10.00">/recoil_pressure_operation.cpp</text>
</a>
</g>
</g>
<!-- Node10&#45;&gt;Node13 -->
<g id="edge12_Node000010_Node000013" class="edge">
<title>Node10&#45;&gt;Node13</title>
<g id="a_edge12_Node000010_Node000013"><a xlink:title=" ">
<path fill="none" stroke="#63b8ff" d="M968.69,-140.36C1014.69,-127.81 1070.86,-112.49 1110.86,-101.58"/>
<polygon fill="#63b8ff" stroke="#63b8ff" points="967.76,-136.98 959.04,-142.99 969.6,-143.74 967.76,-136.98"/>
</a>
</g>
</g>
</g>
</svg>
