<?xml version="1.0" encoding="UTF-8" standalone="no"?>
<!DOCTYPE svg PUBLIC "-//W3C//DTD SVG 1.1//EN"
 "http://www.w3.org/Graphics/SVG/1.1/DTD/svg11.dtd">
<!-- Generated by graphviz version 2.43.0 (0)
 -->
<!-- Title: include/meltpooldg/phase_change/recoil_pressure_data.hpp Pages: 1 -->
<svg width="831pt" height="324pt"
 viewBox="0.00 0.00 831.00 324.00" xmlns="http://www.w3.org/2000/svg" xmlns:xlink="http://www.w3.org/1999/xlink">
<g id="graph0" class="graph" transform="scale(1 1) rotate(0) translate(4 320)">
<title>include/meltpooldg/phase_change/recoil_pressure_data.hpp</title>
<!-- Node1 -->
<g id="Node000001" class="node">
<title>Node1</title>
<g id="a_Node000001"><a xlink:title=" ">
<polygon fill="#999999" stroke="#666666" points="547,-316 428,-316 428,-275 547,-275 547,-316"/>
<text text-anchor="start" x="436" y="-304" font-family="Helvetica,sans-Serif" font-size="10.00">include/meltpooldg</text>
<text text-anchor="start" x="436" y="-293" font-family="Helvetica,sans-Serif" font-size="10.00">/phase_change/recoil</text>
<text text-anchor="middle" x="487.5" y="-282" font-family="Helvetica,sans-Serif" font-size="10.00">_pressure_data.hpp</text>
</a>
</g>
</g>
<!-- Node2 -->
<g id="Node000002" class="node">
<title>Node2</title>
<g id="a_Node000002"><a xlink:href="core_2material__data_8hpp.html" target="_top" xlink:title=" ">
<polygon fill="white" stroke="#666666" points="606.5,-162 466.5,-162 466.5,-132 606.5,-132 606.5,-162"/>
<text text-anchor="start" x="474.5" y="-150" font-family="Helvetica,sans-Serif" font-size="10.00">meltpooldg/core/material</text>
<text text-anchor="middle" x="536.5" y="-139" font-family="Helvetica,sans-Serif" font-size="10.00">_data.hpp</text>
</a>
</g>
</g>
<!-- Node1&#45;&gt;Node2 -->
<g id="edge1_Node000001_Node000002" class="edge">
<title>Node1&#45;&gt;Node2</title>
<g id="a_edge1_Node000001_Node000002"><a xlink:title=" ">
<path fill="none" stroke="#63b8ff" d="M494.11,-274.74C503.04,-248.03 518.96,-200.45 528.54,-171.81"/>
<polygon fill="#63b8ff" stroke="#63b8ff" points="531.9,-172.77 531.76,-162.18 525.27,-170.55 531.9,-172.77"/>
</a>
</g>
</g>
<!-- Node4 -->
<g id="Node000004" class="node">
<title>Node4</title>
<g id="a_Node000004"><a xlink:href="enum_8hpp.html" target="_top" xlink:title=" ">
<polygon fill="white" stroke="#666666" points="481.5,-96 369.5,-96 369.5,-66 481.5,-66 481.5,-96"/>
<text text-anchor="start" x="377.5" y="-84" font-family="Helvetica,sans-Serif" font-size="10.00">meltpooldg/utilities</text>
<text text-anchor="middle" x="425.5" y="-73" font-family="Helvetica,sans-Serif" font-size="10.00">/enum.hpp</text>
</a>
</g>
</g>
<!-- Node1&#45;&gt;Node4 -->
<g id="edge18_Node000001_Node000004" class="edge">
<title>Node1&#45;&gt;Node4</title>
<g id="a_edge18_Node000001_Node000004"><a xlink:title=" ">
<path fill="none" stroke="#63b8ff" d="M481.78,-274.89C470.36,-235.77 444.81,-148.17 432.45,-105.82"/>
<polygon fill="#63b8ff" stroke="#63b8ff" points="435.77,-104.71 429.61,-96.09 429.05,-106.67 435.77,-104.71"/>
</a>
</g>
</g>
<!-- Node10 -->
<g id="Node000010" class="node">
<title>Node10</title>
<g id="a_Node000010"><a xlink:href="numbers_8hpp.html" target="_top" xlink:title=" ">
<polygon fill="white" stroke="#666666" points="765.5,-96 653.5,-96 653.5,-66 765.5,-66 765.5,-96"/>
<text text-anchor="start" x="661.5" y="-84" font-family="Helvetica,sans-Serif" font-size="10.00">meltpooldg/utilities</text>
<text text-anchor="middle" x="709.5" y="-73" font-family="Helvetica,sans-Serif" font-size="10.00">/numbers.hpp</text>
</a>
</g>
</g>
<!-- Node1&#45;&gt;Node10 -->
<g id="edge19_Node000001_Node000010" class="edge">
<title>Node1&#45;&gt;Node10</title>
<g id="a_edge19_Node000001_Node000010"><a xlink:title=" ">
<path fill="none" stroke="#63b8ff" d="M507.99,-274.89C549.72,-234.94 644.27,-144.43 687.36,-103.19"/>
<polygon fill="#63b8ff" stroke="#63b8ff" points="689.98,-105.53 694.78,-96.09 685.14,-100.47 689.98,-105.53"/>
</a>
</g>
</g>
<!-- Node13 -->
<g id="Node000013" class="node">
<title>Node13</title>
<g id="a_Node000013"><a xlink:href="delta__approximation__phase__weighted__data_8hpp.html" target="_top" xlink:title=" ">
<polygon fill="white" stroke="#666666" points="411,-239 262,-239 262,-198 411,-198 411,-239"/>
<text text-anchor="start" x="270" y="-227" font-family="Helvetica,sans-Serif" font-size="10.00">meltpooldg/level_set</text>
<text text-anchor="start" x="270" y="-216" font-family="Helvetica,sans-Serif" font-size="10.00">/delta_approximation</text>
<text text-anchor="middle" x="336.5" y="-205" font-family="Helvetica,sans-Serif" font-size="10.00">_phase_weighted_data.hpp</text>
</a>
</g>
</g>
<!-- Node1&#45;&gt;Node13 -->
<g id="edge14_Node000001_Node000013" class="edge">
<title>Node1&#45;&gt;Node13</title>
<g id="a_edge14_Node000001_Node000013"><a xlink:title=" ">
<path fill="none" stroke="#63b8ff" d="M448.22,-274.99C428.9,-265.39 405.43,-253.73 384.99,-243.59"/>
<polygon fill="#63b8ff" stroke="#63b8ff" points="386.36,-240.36 375.84,-239.04 383.24,-246.63 386.36,-240.36"/>
</a>
</g>
</g>
<!-- Node3 -->
<g id="Node000003" class="node">
<title>Node3</title>
<g id="a_Node000003"><a xlink:title=" ">
<polygon fill="#e0e0e0" stroke="#999999" points="127,-30 0,-30 0,0 127,0 127,-30"/>
<text text-anchor="start" x="8" y="-18" font-family="Helvetica,sans-Serif" font-size="10.00">deal.II/base/parameter</text>
<text text-anchor="middle" x="63.5" y="-7" font-family="Helvetica,sans-Serif" font-size="10.00">_handler.h</text>
</a>
</g>
</g>
<!-- Node2&#45;&gt;Node3 -->
<g id="edge2_Node000002_Node000003" class="edge">
<title>Node2&#45;&gt;Node3</title>
<g id="a_edge2_Node000002_Node000003"><a xlink:title=" ">
<path fill="none" stroke="#63b8ff" d="M485.43,-131.96C397.64,-107.84 218.51,-58.6 124.38,-32.73"/>
<polygon fill="#63b8ff" stroke="#63b8ff" points="125.28,-29.35 114.71,-30.08 123.43,-36.1 125.28,-29.35"/>
</a>
</g>
</g>
<!-- Node2&#45;&gt;Node4 -->
<g id="edge3_Node000002_Node000004" class="edge">
<title>Node2&#45;&gt;Node4</title>
<g id="a_edge3_Node000002_Node000004"><a xlink:title=" ">
<path fill="none" stroke="#63b8ff" d="M512.14,-131.95C496.53,-122.95 476.05,-111.14 458.92,-101.27"/>
<polygon fill="#63b8ff" stroke="#63b8ff" points="460.21,-97.98 449.8,-96.01 456.72,-104.04 460.21,-97.98"/>
</a>
</g>
</g>
<!-- Node9 -->
<g id="Node000009" class="node">
<title>Node9</title>
<g id="a_Node000009"><a xlink:title=" ">
<polygon fill="#e0e0e0" stroke="#999999" points="680.5,-24.5 636.5,-24.5 636.5,-5.5 680.5,-5.5 680.5,-24.5"/>
<text text-anchor="middle" x="658.5" y="-12.5" font-family="Helvetica,sans-Serif" font-size="10.00">string</text>
</a>
</g>
</g>
<!-- Node2&#45;&gt;Node9 -->
<g id="edge13_Node000002_Node000009" class="edge">
<title>Node2&#45;&gt;Node9</title>
<g id="a_edge13_Node000002_Node000009"><a xlink:title=" ">
<path fill="none" stroke="#63b8ff" d="M549.79,-131.84C572.64,-107.49 619.23,-57.85 643.32,-32.18"/>
<polygon fill="#63b8ff" stroke="#63b8ff" points="646,-34.44 650.29,-24.75 640.89,-29.64 646,-34.44"/>
</a>
</g>
</g>
<!-- Node2&#45;&gt;Node10 -->
<g id="edge10_Node000002_Node000010" class="edge">
<title>Node2&#45;&gt;Node10</title>
<g id="a_edge10_Node000002_Node000010"><a xlink:title=" ">
<path fill="none" stroke="#63b8ff" d="M574.47,-131.95C600.27,-122.41 634.59,-109.71 662.17,-99.51"/>
<polygon fill="#63b8ff" stroke="#63b8ff" points="663.46,-102.76 671.62,-96.01 661.03,-96.2 663.46,-102.76"/>
</a>
</g>
</g>
<!-- Node4&#45;&gt;Node3 -->
<g id="edge4_Node000004_Node000003" class="edge">
<title>Node4&#45;&gt;Node3</title>
<g id="a_edge4_Node000004_Node000003"><a xlink:title=" ">
<path fill="none" stroke="#63b8ff" d="M369.3,-70.68C313,-61.25 223.6,-46.06 137.08,-30.27"/>
<polygon fill="#63b8ff" stroke="#63b8ff" points="137.56,-26.8 127.09,-28.44 136.3,-33.68 137.56,-26.8"/>
</a>
</g>
</g>
<!-- Node5 -->
<g id="Node000005" class="node">
<title>Node5</title>
<g id="a_Node000005"><a xlink:title=" ">
<polygon fill="#e0e0e0" stroke="#999999" points="488,-24.5 363,-24.5 363,-5.5 488,-5.5 488,-24.5"/>
<text text-anchor="middle" x="425.5" y="-12.5" font-family="Helvetica,sans-Serif" font-size="10.00">deal.II/base/patterns.h</text>
</a>
</g>
</g>
<!-- Node4&#45;&gt;Node5 -->
<g id="edge5_Node000004_Node000005" class="edge">
<title>Node4&#45;&gt;Node5</title>
<g id="a_edge5_Node000004_Node000005"><a xlink:title=" ">
<path fill="none" stroke="#63b8ff" d="M425.5,-65.8C425.5,-56.7 425.5,-44.79 425.5,-34.9"/>
<polygon fill="#63b8ff" stroke="#63b8ff" points="429,-34.84 425.5,-24.84 422,-34.84 429,-34.84"/>
</a>
</g>
</g>
<!-- Node6 -->
<g id="Node000006" class="node">
<title>Node6</title>
<g id="a_Node000006"><a xlink:title=" ">
<polygon fill="#e0e0e0" stroke="#999999" points="618.5,-30 506.5,-30 506.5,0 618.5,0 618.5,-30"/>
<text text-anchor="start" x="514.5" y="-18" font-family="Helvetica,sans-Serif" font-size="10.00">meltpooldg/utilities</text>
<text text-anchor="middle" x="562.5" y="-7" font-family="Helvetica,sans-Serif" font-size="10.00">/better_enum.hpp</text>
</a>
</g>
</g>
<!-- Node4&#45;&gt;Node6 -->
<g id="edge6_Node000004_Node000006" class="edge">
<title>Node4&#45;&gt;Node6</title>
<g id="a_edge6_Node000004_Node000006"><a xlink:title=" ">
<path fill="none" stroke="#63b8ff" d="M455.57,-65.95C475.46,-56.66 501.76,-44.38 523.29,-34.32"/>
<polygon fill="#63b8ff" stroke="#63b8ff" points="524.93,-37.42 532.5,-30.01 521.96,-31.07 524.93,-37.42"/>
</a>
</g>
</g>
<!-- Node7 -->
<g id="Node000007" class="node">
<title>Node7</title>
<g id="a_Node000007"><a xlink:title=" ">
<polygon fill="#e0e0e0" stroke="#999999" points="270,-30 145,-30 145,0 270,0 270,-30"/>
<text text-anchor="start" x="153" y="-18" font-family="Helvetica,sans-Serif" font-size="10.00">boost/algorithm/string</text>
<text text-anchor="middle" x="207.5" y="-7" font-family="Helvetica,sans-Serif" font-size="10.00">/join.hpp</text>
</a>
</g>
</g>
<!-- Node4&#45;&gt;Node7 -->
<g id="edge7_Node000004_Node000007" class="edge">
<title>Node4&#45;&gt;Node7</title>
<g id="a_edge7_Node000004_Node000007"><a xlink:title=" ">
<path fill="none" stroke="#63b8ff" d="M377.66,-65.95C344.44,-56.2 300,-43.16 264.87,-32.84"/>
<polygon fill="#63b8ff" stroke="#63b8ff" points="265.81,-29.47 255.23,-30.01 263.84,-36.19 265.81,-29.47"/>
</a>
</g>
</g>
<!-- Node8 -->
<g id="Node000008" class="node">
<title>Node8</title>
<g id="a_Node000008"><a xlink:title=" ">
<polygon fill="#e0e0e0" stroke="#999999" points="344.5,-24.5 288.5,-24.5 288.5,-5.5 344.5,-5.5 344.5,-24.5"/>
<text text-anchor="middle" x="316.5" y="-12.5" font-family="Helvetica,sans-Serif" font-size="10.00">sstream</text>
</a>
</g>
</g>
<!-- Node4&#45;&gt;Node8 -->
<g id="edge8_Node000004_Node000008" class="edge">
<title>Node4&#45;&gt;Node8</title>
<g id="a_edge8_Node000004_Node000008"><a xlink:title=" ">
<path fill="none" stroke="#63b8ff" d="M401.58,-65.95C383.22,-55.18 358.02,-40.38 339.81,-29.69"/>
<polygon fill="#63b8ff" stroke="#63b8ff" points="341.4,-26.56 331.01,-24.52 337.86,-32.6 341.4,-26.56"/>
</a>
</g>
</g>
<!-- Node4&#45;&gt;Node9 -->
<g id="edge9_Node000004_Node000009" class="edge">
<title>Node4&#45;&gt;Node9</title>
<g id="a_edge9_Node000004_Node000009"><a xlink:title=" ">
<path fill="none" stroke="#63b8ff" d="M481.59,-68.98C522.58,-60.24 579.19,-46.73 627.5,-30 628.9,-29.52 630.31,-28.99 631.74,-28.45"/>
<polygon fill="#63b8ff" stroke="#63b8ff" points="633.15,-31.65 641.02,-24.56 630.44,-25.19 633.15,-31.65"/>
</a>
</g>
</g>
<!-- Node11 -->
<g id="Node000011" class="node">
<title>Node11</title>
<g id="a_Node000011"><a xlink:title=" ">
<polygon fill="#e0e0e0" stroke="#999999" points="746,-24.5 699,-24.5 699,-5.5 746,-5.5 746,-24.5"/>
<text text-anchor="middle" x="722.5" y="-12.5" font-family="Helvetica,sans-Serif" font-size="10.00">cmath</text>
</a>
</g>
</g>
<!-- Node10&#45;&gt;Node11 -->
<g id="edge11_Node000010_Node000011" class="edge">
<title>Node10&#45;&gt;Node11</title>
<g id="a_edge11_Node000010_Node000011"><a xlink:title=" ">
<path fill="none" stroke="#63b8ff" d="M712.39,-65.8C714.23,-56.7 716.65,-44.79 718.66,-34.9"/>
<polygon fill="#63b8ff" stroke="#63b8ff" points="722.14,-35.34 720.7,-24.84 715.28,-33.95 722.14,-35.34"/>
</a>
</g>
</g>
<!-- Node12 -->
<g id="Node000012" class="node">
<title>Node12</title>
<g id="a_Node000012"><a xlink:title=" ">
<polygon fill="#e0e0e0" stroke="#999999" points="823,-24.5 764,-24.5 764,-5.5 823,-5.5 823,-24.5"/>
<text text-anchor="middle" x="793.5" y="-12.5" font-family="Helvetica,sans-Serif" font-size="10.00">numbers</text>
</a>
</g>
</g>
<!-- Node10&#45;&gt;Node12 -->
<g id="edge12_Node000010_Node000012" class="edge">
<title>Node10&#45;&gt;Node12</title>
<g id="a_edge12_Node000010_Node000012"><a xlink:title=" ">
<path fill="none" stroke="#63b8ff" d="M728.14,-65.8C741.62,-55.53 759.81,-41.67 773.58,-31.18"/>
<polygon fill="#63b8ff" stroke="#63b8ff" points="776.06,-33.69 781.89,-24.84 771.82,-28.12 776.06,-33.69"/>
</a>
</g>
</g>
<!-- Node13&#45;&gt;Node2 -->
<g id="edge16_Node000013_Node000002" class="edge">
<title>Node13&#45;&gt;Node2</title>
<g id="a_edge16_Node000013_Node000002"><a xlink:title=" ">
<path fill="none" stroke="#63b8ff" d="M392.74,-197.96C422.2,-187.72 457.96,-175.29 486.45,-165.39"/>
<polygon fill="#63b8ff" stroke="#63b8ff" points="487.9,-168.59 496.2,-162 485.61,-161.98 487.9,-168.59"/>
</a>
</g>
</g>
<!-- Node13&#45;&gt;Node3 -->
<g id="edge15_Node000013_Node000003" class="edge">
<title>Node13&#45;&gt;Node3</title>
<g id="a_edge15_Node000013_Node000003"><a xlink:title=" ">
<path fill="none" stroke="#63b8ff" d="M309.83,-197.81C257.85,-159.45 143.49,-75.04 90.92,-36.24"/>
<polygon fill="#63b8ff" stroke="#63b8ff" points="92.86,-33.32 82.73,-30.2 88.7,-38.95 92.86,-33.32"/>
</a>
</g>
</g>
<!-- Node13&#45;&gt;Node4 -->
<g id="edge17_Node000013_Node000004" class="edge">
<title>Node13&#45;&gt;Node4</title>
<g id="a_edge17_Node000013_Node000004"><a xlink:title=" ">
<path fill="none" stroke="#63b8ff" d="M349.44,-197.8C365.66,-173.11 393.39,-130.89 410.51,-104.82"/>
<polygon fill="#63b8ff" stroke="#63b8ff" points="413.52,-106.61 416.09,-96.33 407.67,-102.77 413.52,-106.61"/>
</a>
</g>
</g>
</g>
</svg>
