<?xml version="1.0" encoding="UTF-8" standalone="no"?>
<!DOCTYPE svg PUBLIC "-//W3C//DTD SVG 1.1//EN"
 "http://www.w3.org/Graphics/SVG/1.1/DTD/svg11.dtd">
<!-- Generated by graphviz version 2.43.0 (0)
 -->
<!-- Title: include/meltpooldg/level_set/reinitialization_operation_base.hpp Pages: 1 -->
<svg width="973pt" height="181pt"
 viewBox="0.00 0.00 972.50 181.00" xmlns="http://www.w3.org/2000/svg" xmlns:xlink="http://www.w3.org/1999/xlink">
<g id="graph0" class="graph" transform="scale(1 1) rotate(0) translate(4 177)">
<title>include/meltpooldg/level_set/reinitialization_operation_base.hpp</title>
<!-- Node1 -->
<g id="Node000001" class="node">
<title>Node1</title>
<g id="a_Node000001"><a xlink:title=" ">
<polygon fill="#999999" stroke="#666666" points="433.5,-173 296.5,-173 296.5,-132 433.5,-132 433.5,-173"/>
<text text-anchor="start" x="304.5" y="-161" font-family="Helvetica,sans-Serif" font-size="10.00">include/meltpooldg</text>
<text text-anchor="start" x="304.5" y="-150" font-family="Helvetica,sans-Serif" font-size="10.00">/level_set/reinitialization</text>
<text text-anchor="middle" x="365" y="-139" font-family="Helvetica,sans-Serif" font-size="10.00">_operation_base.hpp</text>
</a>
</g>
</g>
<!-- Node2 -->
<g id="Node000002" class="node">
<title>Node2</title>
<g id="a_Node000002"><a xlink:title=" ">
<polygon fill="#e0e0e0" stroke="#999999" points="140,-24.5 0,-24.5 0,-5.5 140,-5.5 140,-24.5"/>
<text text-anchor="middle" x="70" y="-12.5" font-family="Helvetica,sans-Serif" font-size="10.00">deal.II/dofs/dof_handler.h</text>
</a>
</g>
</g>
<!-- Node1&#45;&gt;Node2 -->
<g id="edge1_Node000001_Node000002" class="edge">
<title>Node1&#45;&gt;Node2</title>
<g id="a_edge1_Node000001_Node000002"><a xlink:title=" ">
<path fill="none" stroke="#63b8ff" d="M322.42,-131.94C261.11,-103.78 149.66,-52.59 97.86,-28.8"/>
<polygon fill="#63b8ff" stroke="#63b8ff" points="99.16,-25.54 88.61,-24.55 96.24,-31.9 99.16,-25.54"/>
</a>
</g>
</g>
<!-- Node3 -->
<g id="Node000003" class="node">
<title>Node3</title>
<g id="a_Node000003"><a xlink:href="generic__data__out_8hpp.html" target="_top" xlink:title=" ">
<polygon fill="white" stroke="#666666" points="660,-96 506,-96 506,-66 660,-66 660,-96"/>
<text text-anchor="start" x="514" y="-84" font-family="Helvetica,sans-Serif" font-size="10.00">meltpooldg/post_processing</text>
<text text-anchor="middle" x="583" y="-73" font-family="Helvetica,sans-Serif" font-size="10.00">/generic_data_out.hpp</text>
</a>
</g>
</g>
<!-- Node1&#45;&gt;Node3 -->
<g id="edge2_Node000001_Node000003" class="edge">
<title>Node1&#45;&gt;Node3</title>
<g id="a_edge2_Node000001_Node000003"><a xlink:title=" ">
<path fill="none" stroke="#63b8ff" d="M426.31,-131.96C458.69,-121.63 498.08,-109.07 529.26,-99.13"/>
<polygon fill="#63b8ff" stroke="#63b8ff" points="530.61,-102.38 539.07,-96 528.48,-95.71 530.61,-102.38"/>
</a>
</g>
</g>
<!-- Node3&#45;&gt;Node2 -->
<g id="edge3_Node000003_Node000002" class="edge">
<title>Node3&#45;&gt;Node2</title>
<g id="a_edge3_Node000003_Node000002"><a xlink:title=" ">
<path fill="none" stroke="#63b8ff" d="M505.99,-72.55C419.08,-63.82 273.58,-48.2 149,-30 141.34,-28.88 133.29,-27.59 125.37,-26.25"/>
<polygon fill="#63b8ff" stroke="#63b8ff" points="125.91,-22.79 115.46,-24.54 124.72,-29.69 125.91,-22.79"/>
</a>
</g>
</g>
<!-- Node4 -->
<g id="Node000004" class="node">
<title>Node4</title>
<g id="a_Node000004"><a xlink:title=" ">
<polygon fill="#e0e0e0" stroke="#999999" points="272,-24.5 158,-24.5 158,-5.5 272,-5.5 272,-24.5"/>
<text text-anchor="middle" x="215" y="-12.5" font-family="Helvetica,sans-Serif" font-size="10.00">deal.II/fe/mapping.h</text>
</a>
</g>
</g>
<!-- Node3&#45;&gt;Node4 -->
<g id="edge4_Node000003_Node000004" class="edge">
<title>Node3&#45;&gt;Node4</title>
<g id="a_edge4_Node000003_Node000004"><a xlink:title=" ">
<path fill="none" stroke="#63b8ff" d="M505.87,-68.21C444.75,-58.63 357.24,-44.39 281,-30 275.32,-28.93 269.38,-27.75 263.49,-26.55"/>
<polygon fill="#63b8ff" stroke="#63b8ff" points="264.18,-23.11 253.68,-24.51 262.76,-29.97 264.18,-23.11"/>
</a>
</g>
</g>
<!-- Node5 -->
<g id="Node000005" class="node">
<title>Node5</title>
<g id="a_Node000005"><a xlink:title=" ">
<polygon fill="#e0e0e0" stroke="#999999" points="408,-30 290,-30 290,0 408,0 408,-30"/>
<text text-anchor="start" x="298" y="-18" font-family="Helvetica,sans-Serif" font-size="10.00">deal.II/lac/la_parallel</text>
<text text-anchor="middle" x="349" y="-7" font-family="Helvetica,sans-Serif" font-size="10.00">_vector.h</text>
</a>
</g>
</g>
<!-- Node3&#45;&gt;Node5 -->
<g id="edge5_Node000003_Node000005" class="edge">
<title>Node3&#45;&gt;Node5</title>
<g id="a_edge5_Node000003_Node000005"><a xlink:title=" ">
<path fill="none" stroke="#63b8ff" d="M531.65,-65.95C495.83,-56.16 447.88,-43.05 410.1,-32.71"/>
<polygon fill="#63b8ff" stroke="#63b8ff" points="410.8,-29.27 400.23,-30.01 408.95,-36.03 410.8,-29.27"/>
</a>
</g>
</g>
<!-- Node6 -->
<g id="Node000006" class="node">
<title>Node6</title>
<g id="a_Node000006"><a xlink:title=" ">
<polygon fill="#e0e0e0" stroke="#999999" points="584,-30 426,-30 426,0 584,0 584,-30"/>
<text text-anchor="start" x="434" y="-18" font-family="Helvetica,sans-Serif" font-size="10.00">deal.II/numerics/data</text>
<text text-anchor="middle" x="505" y="-7" font-family="Helvetica,sans-Serif" font-size="10.00">_component_interpretation.h</text>
</a>
</g>
</g>
<!-- Node3&#45;&gt;Node6 -->
<g id="edge6_Node000003_Node000006" class="edge">
<title>Node3&#45;&gt;Node6</title>
<g id="a_edge6_Node000003_Node000006"><a xlink:title=" ">
<path fill="none" stroke="#63b8ff" d="M565.69,-65.8C555.29,-57.26 541.87,-46.25 530.29,-36.75"/>
<polygon fill="#63b8ff" stroke="#63b8ff" points="532.21,-33.8 522.26,-30.16 527.77,-39.21 532.21,-33.8"/>
</a>
</g>
</g>
<!-- Node7 -->
<g id="Node000007" class="node">
<title>Node7</title>
<g id="a_Node000007"><a xlink:title=" ">
<polygon fill="#e0e0e0" stroke="#999999" points="721.5,-30 602.5,-30 602.5,0 721.5,0 721.5,-30"/>
<text text-anchor="start" x="610.5" y="-18" font-family="Helvetica,sans-Serif" font-size="10.00">deal.II/numerics/data</text>
<text text-anchor="middle" x="662" y="-7" font-family="Helvetica,sans-Serif" font-size="10.00">_out.h</text>
</a>
</g>
</g>
<!-- Node3&#45;&gt;Node7 -->
<g id="edge7_Node000003_Node000007" class="edge">
<title>Node3&#45;&gt;Node7</title>
<g id="a_edge7_Node000003_Node000007"><a xlink:title=" ">
<path fill="none" stroke="#63b8ff" d="M600.53,-65.8C611.17,-57.18 624.92,-46.04 636.72,-36.48"/>
<polygon fill="#63b8ff" stroke="#63b8ff" points="638.95,-39.18 644.52,-30.16 634.54,-33.74 638.95,-39.18"/>
</a>
</g>
</g>
<!-- Node8 -->
<g id="Node000008" class="node">
<title>Node8</title>
<g id="a_Node000008"><a xlink:title=" ">
<polygon fill="#e0e0e0" stroke="#999999" points="778,-24.5 740,-24.5 740,-5.5 778,-5.5 778,-24.5"/>
<text text-anchor="middle" x="759" y="-12.5" font-family="Helvetica,sans-Serif" font-size="10.00">map</text>
</a>
</g>
</g>
<!-- Node3&#45;&gt;Node8 -->
<g id="edge8_Node000003_Node000008" class="edge">
<title>Node3&#45;&gt;Node8</title>
<g id="a_edge8_Node000003_Node000008"><a xlink:title=" ">
<path fill="none" stroke="#63b8ff" d="M629.94,-65.97C659.35,-56.73 697.83,-43.82 731,-30 731.86,-29.64 732.72,-29.27 733.59,-28.89"/>
<polygon fill="#63b8ff" stroke="#63b8ff" points="735.32,-31.94 742.89,-24.53 732.35,-25.61 735.32,-31.94"/>
</a>
</g>
</g>
<!-- Node9 -->
<g id="Node000009" class="node">
<title>Node9</title>
<g id="a_Node000009"><a xlink:title=" ">
<polygon fill="#e0e0e0" stroke="#999999" points="840,-24.5 796,-24.5 796,-5.5 840,-5.5 840,-24.5"/>
<text text-anchor="middle" x="818" y="-12.5" font-family="Helvetica,sans-Serif" font-size="10.00">string</text>
</a>
</g>
</g>
<!-- Node3&#45;&gt;Node9 -->
<g id="edge9_Node000003_Node000009" class="edge">
<title>Node3&#45;&gt;Node9</title>
<g id="a_edge9_Node000003_Node000009"><a xlink:title=" ">
<path fill="none" stroke="#63b8ff" d="M654.26,-65.91C693.87,-57.24 743.74,-44.93 787,-30 788.4,-29.52 789.81,-29 791.24,-28.45"/>
<polygon fill="#63b8ff" stroke="#63b8ff" points="792.65,-31.65 800.52,-24.57 789.95,-25.2 792.65,-31.65"/>
</a>
</g>
</g>
<!-- Node10 -->
<g id="Node000010" class="node">
<title>Node10</title>
<g id="a_Node000010"><a xlink:title=" ">
<polygon fill="#e0e0e0" stroke="#999999" points="899.5,-24.5 858.5,-24.5 858.5,-5.5 899.5,-5.5 899.5,-24.5"/>
<text text-anchor="middle" x="879" y="-12.5" font-family="Helvetica,sans-Serif" font-size="10.00">tuple</text>
</a>
</g>
</g>
<!-- Node3&#45;&gt;Node10 -->
<g id="edge10_Node000003_Node000010" class="edge">
<title>Node3&#45;&gt;Node10</title>
<g id="a_edge10_Node000003_Node000010"><a xlink:title=" ">
<path fill="none" stroke="#63b8ff" d="M660.23,-70.71C714.01,-62.98 786.93,-49.96 849,-30 850.4,-29.55 851.82,-29.05 853.25,-28.51"/>
<polygon fill="#63b8ff" stroke="#63b8ff" points="854.63,-31.73 862.48,-24.61 851.91,-25.28 854.63,-31.73"/>
</a>
</g>
</g>
<!-- Node11 -->
<g id="Node000011" class="node">
<title>Node11</title>
<g id="a_Node000011"><a xlink:title=" ">
<polygon fill="#e0e0e0" stroke="#999999" points="964.5,-24.5 917.5,-24.5 917.5,-5.5 964.5,-5.5 964.5,-24.5"/>
<text text-anchor="middle" x="941" y="-12.5" font-family="Helvetica,sans-Serif" font-size="10.00">vector</text>
</a>
</g>
</g>
<!-- Node3&#45;&gt;Node11 -->
<g id="edge11_Node000003_Node000011" class="edge">
<title>Node3&#45;&gt;Node11</title>
<g id="a_edge11_Node000003_Node000011"><a xlink:title=" ">
<path fill="none" stroke="#63b8ff" d="M660.3,-73.85C727.14,-67.2 825.82,-54.12 909,-30 910.68,-29.51 912.39,-28.96 914.1,-28.35"/>
<polygon fill="#63b8ff" stroke="#63b8ff" points="915.7,-31.49 923.7,-24.55 913.11,-24.98 915.7,-31.49"/>
</a>
</g>
</g>
</g>
</svg>
