<?xml version="1.0" encoding="UTF-8" standalone="no"?>
<!DOCTYPE svg PUBLIC "-//W3C//DTD SVG 1.1//EN"
 "http://www.w3.org/Graphics/SVG/1.1/DTD/svg11.dtd">
<!-- Generated by graphviz version 2.43.0 (0)
 -->
<!-- Title: include/meltpooldg/level_set/reinitialization_operation_base.hpp Pages: 1 -->
<svg width="1470pt" height="335pt"
 viewBox="0.00 0.00 1469.50 335.00" xmlns="http://www.w3.org/2000/svg" xmlns:xlink="http://www.w3.org/1999/xlink">
<g id="graph0" class="graph" transform="scale(1 1) rotate(0) translate(4 331)">
<title>include/meltpooldg/level_set/reinitialization_operation_base.hpp</title>
<!-- Node1 -->
<g id="Node000001" class="node">
<title>Node1</title>
<g id="a_Node000001"><a xlink:title=" ">
<polygon fill="#999999" stroke="#666666" points="806,-327 669,-327 669,-286 806,-286 806,-327"/>
<text text-anchor="start" x="677" y="-315" font-family="Helvetica,sans-Serif" font-size="10.00">include/meltpooldg</text>
<text text-anchor="start" x="677" y="-304" font-family="Helvetica,sans-Serif" font-size="10.00">/level_set/reinitialization</text>
<text text-anchor="middle" x="737.5" y="-293" font-family="Helvetica,sans-Serif" font-size="10.00">_operation_base.hpp</text>
</a>
</g>
</g>
<!-- Node2 -->
<g id="Node000002" class="node">
<title>Node2</title>
<g id="a_Node000002"><a xlink:href="reinitialization__application_8hpp.html" target="_top" xlink:title=" ">
<polygon fill="white" stroke="#666666" points="910.5,-244.5 740.5,-244.5 740.5,-214.5 910.5,-214.5 910.5,-244.5"/>
<text text-anchor="start" x="748.5" y="-232.5" font-family="Helvetica,sans-Serif" font-size="10.00">applications/mp&#45;reinit</text>
<text text-anchor="middle" x="825.5" y="-221.5" font-family="Helvetica,sans-Serif" font-size="10.00">/reinitialization_application.hpp</text>
</a>
</g>
</g>
<!-- Node1&#45;&gt;Node2 -->
<g id="edge1_Node000001_Node000002" class="edge">
<title>Node1&#45;&gt;Node2</title>
<g id="a_edge1_Node000001_Node000002"><a xlink:title=" ">
<path fill="none" stroke="#63b8ff" d="M768.39,-279.17C782.03,-267.55 797.52,-254.34 808.93,-244.63"/>
<polygon fill="#63b8ff" stroke="#63b8ff" points="765.96,-276.64 760.62,-285.79 770.5,-281.97 765.96,-276.64"/>
</a>
</g>
</g>
<!-- Node4 -->
<g id="Node000004" class="node">
<title>Node4</title>
<g id="a_Node000004"><a xlink:href="level__set__operation_8hpp.html" target="_top" xlink:title=" ">
<polygon fill="white" stroke="#666666" points="334,-250 223,-250 223,-209 334,-209 334,-250"/>
<text text-anchor="start" x="231" y="-238" font-family="Helvetica,sans-Serif" font-size="10.00">include/meltpooldg</text>
<text text-anchor="start" x="231" y="-227" font-family="Helvetica,sans-Serif" font-size="10.00">/level_set/level_set</text>
<text text-anchor="middle" x="278.5" y="-216" font-family="Helvetica,sans-Serif" font-size="10.00">_operation.hpp</text>
</a>
</g>
</g>
<!-- Node1&#45;&gt;Node4 -->
<g id="edge3_Node000001_Node000004" class="edge">
<title>Node1&#45;&gt;Node4</title>
<g id="a_edge3_Node000001_Node000004"><a xlink:title=" ">
<path fill="none" stroke="#63b8ff" d="M658.64,-292.61C566.22,-277.51 415.42,-252.87 334.31,-239.62"/>
<polygon fill="#63b8ff" stroke="#63b8ff" points="658.35,-296.11 668.78,-294.27 659.48,-289.2 658.35,-296.11"/>
</a>
</g>
</g>
<!-- Node10 -->
<g id="Node000010" class="node">
<title>Node10</title>
<g id="a_Node000010"><a xlink:href="reinitialization__elliptic__operation_8hpp.html" target="_top" xlink:title=" ">
<polygon fill="white" stroke="#666666" points="560,-250 423,-250 423,-209 560,-209 560,-250"/>
<text text-anchor="start" x="431" y="-238" font-family="Helvetica,sans-Serif" font-size="10.00">include/meltpooldg</text>
<text text-anchor="start" x="431" y="-227" font-family="Helvetica,sans-Serif" font-size="10.00">/level_set/reinitialization</text>
<text text-anchor="middle" x="491.5" y="-216" font-family="Helvetica,sans-Serif" font-size="10.00">_elliptic_operation.hpp</text>
</a>
</g>
</g>
<!-- Node1&#45;&gt;Node10 -->
<g id="edge9_Node000001_Node000010" class="edge">
<title>Node1&#45;&gt;Node10</title>
<g id="a_edge9_Node000001_Node000010"><a xlink:title=" ">
<path fill="none" stroke="#63b8ff" d="M663.52,-282.94C629.14,-272.46 588.65,-260.12 555.6,-250.04"/>
<polygon fill="#63b8ff" stroke="#63b8ff" points="662.92,-286.42 673.51,-285.99 664.96,-279.73 662.92,-286.42"/>
</a>
</g>
</g>
<!-- Node12 -->
<g id="Node000012" class="node">
<title>Node12</title>
<g id="a_Node000012"><a xlink:href="reinitialization__geometric__operation_8hpp.html" target="_top" xlink:title=" ">
<polygon fill="white" stroke="#666666" points="722.5,-250 578.5,-250 578.5,-209 722.5,-209 722.5,-250"/>
<text text-anchor="start" x="586.5" y="-238" font-family="Helvetica,sans-Serif" font-size="10.00">include/meltpooldg</text>
<text text-anchor="start" x="586.5" y="-227" font-family="Helvetica,sans-Serif" font-size="10.00">/level_set/reinitialization</text>
<text text-anchor="middle" x="650.5" y="-216" font-family="Helvetica,sans-Serif" font-size="10.00">_geometric_operation.hpp</text>
</a>
</g>
</g>
<!-- Node1&#45;&gt;Node12 -->
<g id="edge12_Node000001_Node000012" class="edge">
<title>Node1&#45;&gt;Node12</title>
<g id="a_edge12_Node000001_Node000012"><a xlink:title=" ">
<path fill="none" stroke="#63b8ff" d="M706.84,-279.07C695.77,-269.52 683.48,-258.93 673.21,-250.07"/>
<polygon fill="#63b8ff" stroke="#63b8ff" points="704.78,-281.92 714.64,-285.79 709.35,-276.61 704.78,-281.92"/>
</a>
</g>
</g>
<!-- Node14 -->
<g id="Node000014" class="node">
<title>Node14</title>
<g id="a_Node000014"><a xlink:href="reinitialization__hyperbolic__CG__operation_8hpp.html" target="_top" xlink:title=" ">
<polygon fill="white" stroke="#666666" points="1094,-250 929,-250 929,-209 1094,-209 1094,-250"/>
<text text-anchor="start" x="937" y="-238" font-family="Helvetica,sans-Serif" font-size="10.00">include/meltpooldg</text>
<text text-anchor="start" x="937" y="-227" font-family="Helvetica,sans-Serif" font-size="10.00">/level_set/reinitialization</text>
<text text-anchor="middle" x="1011.5" y="-216" font-family="Helvetica,sans-Serif" font-size="10.00">_hyperbolic_CG_operation.hpp</text>
</a>
</g>
</g>
<!-- Node1&#45;&gt;Node14 -->
<g id="edge16_Node000001_Node000014" class="edge">
<title>Node1&#45;&gt;Node14</title>
<g id="a_edge16_Node000001_Node000014"><a xlink:title=" ">
<path fill="none" stroke="#63b8ff" d="M816.02,-284.01C855.02,-273.33 901.8,-260.53 939.81,-250.12"/>
<polygon fill="#63b8ff" stroke="#63b8ff" points="815.01,-280.66 806.29,-286.67 816.86,-287.41 815.01,-280.66"/>
</a>
</g>
</g>
<!-- Node17 -->
<g id="Node000017" class="node">
<title>Node17</title>
<g id="a_Node000017"><a xlink:href="reinitialization__hyperbolic__DG__operation_8hpp.html" target="_top" xlink:title=" ">
<polygon fill="white" stroke="#666666" points="1292.5,-250 1126.5,-250 1126.5,-209 1292.5,-209 1292.5,-250"/>
<text text-anchor="start" x="1134.5" y="-238" font-family="Helvetica,sans-Serif" font-size="10.00">include/meltpooldg</text>
<text text-anchor="start" x="1134.5" y="-227" font-family="Helvetica,sans-Serif" font-size="10.00">/level_set/reinitialization</text>
<text text-anchor="middle" x="1209.5" y="-216" font-family="Helvetica,sans-Serif" font-size="10.00">_hyperbolic_DG_operation.hpp</text>
</a>
</g>
</g>
<!-- Node1&#45;&gt;Node17 -->
<g id="edge21_Node000001_Node000017" class="edge">
<title>Node1&#45;&gt;Node17</title>
<g id="a_edge21_Node000001_Node000017"><a xlink:title=" ">
<path fill="none" stroke="#63b8ff" d="M816.27,-294.29C890.47,-283.55 1004.68,-266.58 1103.5,-250 1110.88,-248.76 1118.54,-247.43 1126.22,-246.08"/>
<polygon fill="#63b8ff" stroke="#63b8ff" points="815.47,-290.87 806.07,-295.76 816.47,-297.79 815.47,-290.87"/>
</a>
</g>
</g>
<!-- Node3 -->
<g id="Node000003" class="node">
<title>Node3</title>
<g id="a_Node000003"><a xlink:href="reinitialization__application_8cpp.html" target="_top" xlink:title=" ">
<polygon fill="white" stroke="#666666" points="917.5,-167.5 747.5,-167.5 747.5,-137.5 917.5,-137.5 917.5,-167.5"/>
<text text-anchor="start" x="755.5" y="-155.5" font-family="Helvetica,sans-Serif" font-size="10.00">applications/mp&#45;reinit</text>
<text text-anchor="middle" x="832.5" y="-144.5" font-family="Helvetica,sans-Serif" font-size="10.00">/reinitialization_application.cpp</text>
</a>
</g>
</g>
<!-- Node2&#45;&gt;Node3 -->
<g id="edge2_Node000002_Node000003" class="edge">
<title>Node2&#45;&gt;Node3</title>
<g id="a_edge2_Node000002_Node000003"><a xlink:title=" ">
<path fill="none" stroke="#63b8ff" d="M827.75,-204.41C828.88,-192.24 830.22,-177.9 831.19,-167.54"/>
<polygon fill="#63b8ff" stroke="#63b8ff" points="824.26,-204.11 826.82,-214.39 831.23,-204.76 824.26,-204.11"/>
</a>
</g>
</g>
<!-- Node5 -->
<g id="Node000005" class="node">
<title>Node5</title>
<g id="a_Node000005"><a xlink:href="level__set__application_8hpp.html" target="_top" xlink:title=" ">
<polygon fill="white" stroke="#666666" points="745,-96 582,-96 582,-66 745,-66 745,-96"/>
<text text-anchor="start" x="590" y="-84" font-family="Helvetica,sans-Serif" font-size="10.00">applications/mp&#45;level</text>
<text text-anchor="middle" x="663.5" y="-73" font-family="Helvetica,sans-Serif" font-size="10.00">&#45;set/level_set_application.hpp</text>
</a>
</g>
</g>
<!-- Node4&#45;&gt;Node5 -->
<g id="edge4_Node000004_Node000005" class="edge">
<title>Node4&#45;&gt;Node5</title>
<g id="a_edge4_Node000004_Node000005"><a xlink:title=" ">
<path fill="none" stroke="#63b8ff" d="M244.96,-202.07C222.97,-181.6 201.51,-153.25 220.5,-132 244.09,-105.59 460.33,-91.39 581.73,-85.44"/>
<polygon fill="#63b8ff" stroke="#63b8ff" points="242.9,-204.92 252.69,-208.95 247.55,-199.69 242.9,-204.92"/>
</a>
</g>
</g>
<!-- Node7 -->
<g id="Node000007" class="node">
<title>Node7</title>
<g id="a_Node000007"><a xlink:href="melt__pool__application_8hpp.html" target="_top" xlink:title=" ">
<polygon fill="white" stroke="#666666" points="173,-167.5 0,-167.5 0,-137.5 173,-137.5 173,-167.5"/>
<text text-anchor="start" x="8" y="-155.5" font-family="Helvetica,sans-Serif" font-size="10.00">applications/mp&#45;melt</text>
<text text-anchor="middle" x="86.5" y="-144.5" font-family="Helvetica,sans-Serif" font-size="10.00">&#45;pool/melt_pool_application.hpp</text>
</a>
</g>
</g>
<!-- Node4&#45;&gt;Node7 -->
<g id="edge6_Node000004_Node000007" class="edge">
<title>Node4&#45;&gt;Node7</title>
<g id="a_edge6_Node000004_Node000007"><a xlink:title=" ">
<path fill="none" stroke="#63b8ff" d="M218.98,-205.25C187.41,-192.92 149.66,-178.17 122.55,-167.58"/>
<polygon fill="#63b8ff" stroke="#63b8ff" points="217.97,-208.61 228.56,-208.99 220.51,-202.09 217.97,-208.61"/>
</a>
</g>
</g>
<!-- Node9 -->
<g id="Node000009" class="node">
<title>Node9</title>
<g id="a_Node000009"><a xlink:href="level__set__operation_8cpp.html" target="_top" xlink:title=" ">
<polygon fill="white" stroke="#666666" points="541,-167.5 418,-167.5 418,-137.5 541,-137.5 541,-167.5"/>
<text text-anchor="start" x="426" y="-155.5" font-family="Helvetica,sans-Serif" font-size="10.00">source/level_set/level</text>
<text text-anchor="middle" x="479.5" y="-144.5" font-family="Helvetica,sans-Serif" font-size="10.00">_set_operation.cpp</text>
</a>
</g>
</g>
<!-- Node4&#45;&gt;Node9 -->
<g id="edge8_Node000004_Node000009" class="edge">
<title>Node4&#45;&gt;Node9</title>
<g id="a_edge8_Node000004_Node000009"><a xlink:title=" ">
<path fill="none" stroke="#63b8ff" d="M340.39,-205.41C373.52,-193.05 413.25,-178.22 441.76,-167.58"/>
<polygon fill="#63b8ff" stroke="#63b8ff" points="338.93,-202.22 330.79,-208.99 341.38,-208.77 338.93,-202.22"/>
</a>
</g>
</g>
<!-- Node6 -->
<g id="Node000006" class="node">
<title>Node6</title>
<g id="a_Node000006"><a xlink:href="level__set__application_8cpp.html" target="_top" xlink:title=" ">
<polygon fill="white" stroke="#666666" points="744.5,-30 582.5,-30 582.5,0 744.5,0 744.5,-30"/>
<text text-anchor="start" x="590.5" y="-18" font-family="Helvetica,sans-Serif" font-size="10.00">applications/mp&#45;level</text>
<text text-anchor="middle" x="663.5" y="-7" font-family="Helvetica,sans-Serif" font-size="10.00">&#45;set/level_set_application.cpp</text>
</a>
</g>
</g>
<!-- Node5&#45;&gt;Node6 -->
<g id="edge5_Node000005_Node000006" class="edge">
<title>Node5&#45;&gt;Node6</title>
<g id="a_edge5_Node000005_Node000006"><a xlink:title=" ">
<path fill="none" stroke="#63b8ff" d="M663.5,-55.54C663.5,-46.96 663.5,-37.61 663.5,-30.16"/>
<polygon fill="#63b8ff" stroke="#63b8ff" points="660,-55.8 663.5,-65.8 667,-55.8 660,-55.8"/>
</a>
</g>
</g>
<!-- Node8 -->
<g id="Node000008" class="node">
<title>Node8</title>
<g id="a_Node000008"><a xlink:href="melt__pool__application_8cpp.html" target="_top" xlink:title=" ">
<polygon fill="white" stroke="#666666" points="173,-96 0,-96 0,-66 173,-66 173,-96"/>
<text text-anchor="start" x="8" y="-84" font-family="Helvetica,sans-Serif" font-size="10.00">applications/mp&#45;melt</text>
<text text-anchor="middle" x="86.5" y="-73" font-family="Helvetica,sans-Serif" font-size="10.00">&#45;pool/melt_pool_application.cpp</text>
</a>
</g>
</g>
<!-- Node7&#45;&gt;Node8 -->
<g id="edge7_Node000007_Node000008" class="edge">
<title>Node7&#45;&gt;Node8</title>
<g id="a_edge7_Node000007_Node000008"><a xlink:title=" ">
<path fill="none" stroke="#63b8ff" d="M86.5,-127.25C86.5,-116.81 86.5,-104.99 86.5,-96.04"/>
<polygon fill="#63b8ff" stroke="#63b8ff" points="83,-127.44 86.5,-137.44 90,-127.44 83,-127.44"/>
</a>
</g>
</g>
<!-- Node10&#45;&gt;Node3 -->
<g id="edge10_Node000010_Node000003" class="edge">
<title>Node10&#45;&gt;Node3</title>
<g id="a_edge10_Node000010_Node000003"><a xlink:title=" ">
<path fill="none" stroke="#63b8ff" d="M570.21,-208.91C607.92,-200.55 700.69,-181.07 765.48,-167.51"/>
<polygon fill="#63b8ff" stroke="#63b8ff" points="569.35,-205.52 560.37,-211.14 570.9,-212.35 569.35,-205.52"/>
</a>
</g>
</g>
<!-- Node11 -->
<g id="Node000011" class="node">
<title>Node11</title>
<g id="a_Node000011"><a xlink:href="reinitialization__elliptic__operation_8cpp.html" target="_top" xlink:title=" ">
<polygon fill="white" stroke="#666666" points="399.5,-167.5 229.5,-167.5 229.5,-137.5 399.5,-137.5 399.5,-167.5"/>
<text text-anchor="start" x="237.5" y="-155.5" font-family="Helvetica,sans-Serif" font-size="10.00">source/level_set/reinitialization</text>
<text text-anchor="middle" x="314.5" y="-144.5" font-family="Helvetica,sans-Serif" font-size="10.00">_elliptic_operation.cpp</text>
</a>
</g>
</g>
<!-- Node10&#45;&gt;Node11 -->
<g id="edge11_Node000010_Node000011" class="edge">
<title>Node10&#45;&gt;Node11</title>
<g id="a_edge11_Node000010_Node000011"><a xlink:title=" ">
<path fill="none" stroke="#63b8ff" d="M436.25,-205.09C407.23,-192.79 372.62,-178.13 347.73,-167.58"/>
<polygon fill="#63b8ff" stroke="#63b8ff" points="434.88,-208.31 445.46,-208.99 437.62,-201.87 434.88,-208.31"/>
</a>
</g>
</g>
<!-- Node12&#45;&gt;Node3 -->
<g id="edge13_Node000012_Node000003" class="edge">
<title>Node12&#45;&gt;Node3</title>
<g id="a_edge13_Node000012_Node000003"><a xlink:title=" ">
<path fill="none" stroke="#63b8ff" d="M707.31,-205.09C737.15,-192.79 772.74,-178.13 798.33,-167.58"/>
<polygon fill="#63b8ff" stroke="#63b8ff" points="705.76,-201.94 697.84,-208.99 708.42,-208.42 705.76,-201.94"/>
</a>
</g>
</g>
<!-- Node12&#45;&gt;Node9 -->
<g id="edge14_Node000012_Node000009" class="edge">
<title>Node12&#45;&gt;Node9</title>
<g id="a_edge14_Node000012_Node000009"><a xlink:title=" ">
<path fill="none" stroke="#63b8ff" d="M596.76,-204.93C568.79,-192.66 535.55,-178.08 511.61,-167.58"/>
<polygon fill="#63b8ff" stroke="#63b8ff" points="595.45,-208.18 606.02,-208.99 598.27,-201.77 595.45,-208.18"/>
</a>
</g>
</g>
<!-- Node13 -->
<g id="Node000013" class="node">
<title>Node13</title>
<g id="a_Node000013"><a xlink:href="reinitialization__geometric__operation_8cpp.html" target="_top" xlink:title=" ">
<polygon fill="white" stroke="#666666" points="729.5,-167.5 559.5,-167.5 559.5,-137.5 729.5,-137.5 729.5,-167.5"/>
<text text-anchor="start" x="567.5" y="-155.5" font-family="Helvetica,sans-Serif" font-size="10.00">source/level_set/reinitialization</text>
<text text-anchor="middle" x="644.5" y="-144.5" font-family="Helvetica,sans-Serif" font-size="10.00">_geometric_operation.cpp</text>
</a>
</g>
</g>
<!-- Node12&#45;&gt;Node13 -->
<g id="edge15_Node000012_Node000013" class="edge">
<title>Node12&#45;&gt;Node13</title>
<g id="a_edge15_Node000012_Node000013"><a xlink:title=" ">
<path fill="none" stroke="#63b8ff" d="M648.11,-198.61C647.26,-188.01 646.35,-176.57 645.65,-167.86"/>
<polygon fill="#63b8ff" stroke="#63b8ff" points="644.64,-199.11 648.92,-208.79 651.61,-198.55 644.64,-199.11"/>
</a>
</g>
</g>
<!-- Node14&#45;&gt;Node3 -->
<g id="edge17_Node000014_Node000003" class="edge">
<title>Node14&#45;&gt;Node3</title>
<g id="a_edge17_Node000014_Node000003"><a xlink:title=" ">
<path fill="none" stroke="#63b8ff" d="M955.63,-205.09C926.27,-192.79 891.28,-178.13 866.11,-167.58"/>
<polygon fill="#63b8ff" stroke="#63b8ff" points="954.36,-208.35 964.94,-208.99 957.07,-201.9 954.36,-208.35"/>
</a>
</g>
</g>
<!-- Node14&#45;&gt;Node9 -->
<g id="edge19_Node000014_Node000009" class="edge">
<title>Node14&#45;&gt;Node9</title>
<g id="a_edge19_Node000014_Node000009"><a xlink:title=" ">
<path fill="none" stroke="#63b8ff" d="M918.88,-209.01C754.88,-184.6 709.37,-202.34 550.5,-173 542.58,-171.54 534.26,-169.61 526.21,-167.54"/>
<polygon fill="#63b8ff" stroke="#63b8ff" points="918.42,-212.48 928.83,-210.52 919.47,-205.56 918.42,-212.48"/>
</a>
</g>
</g>
<!-- Node15 -->
<g id="Node000015" class="node">
<title>Node15</title>
<g id="a_Node000015"><a xlink:href="level__set__DG__operation_8cpp.html" target="_top" xlink:title=" ">
<polygon fill="white" stroke="#666666" points="1240,-96 1111,-96 1111,-66 1240,-66 1240,-96"/>
<text text-anchor="start" x="1119" y="-84" font-family="Helvetica,sans-Serif" font-size="10.00">source/level_set/level</text>
<text text-anchor="middle" x="1175.5" y="-73" font-family="Helvetica,sans-Serif" font-size="10.00">_set_DG_operation.cpp</text>
</a>
</g>
</g>
<!-- Node14&#45;&gt;Node15 -->
<g id="edge18_Node000014_Node000015" class="edge">
<title>Node14&#45;&gt;Node15</title>
<g id="a_edge18_Node000014_Node000015"><a xlink:title=" ">
<path fill="none" stroke="#63b8ff" d="M1068.26,-204.22C1084.27,-195.77 1100.99,-185.27 1114.5,-173 1139.42,-150.37 1159.04,-115.53 1168.78,-96.18"/>
<polygon fill="#63b8ff" stroke="#63b8ff" points="1066.27,-201.3 1058.95,-208.96 1069.45,-207.54 1066.27,-201.3"/>
</a>
</g>
</g>
<!-- Node16 -->
<g id="Node000016" class="node">
<title>Node16</title>
<g id="a_Node000016"><a xlink:href="reinitialization__hyperbolic__CG__operation_8cpp.html" target="_top" xlink:title=" ">
<polygon fill="white" stroke="#666666" points="1105.5,-167.5 935.5,-167.5 935.5,-137.5 1105.5,-137.5 1105.5,-167.5"/>
<text text-anchor="start" x="943.5" y="-155.5" font-family="Helvetica,sans-Serif" font-size="10.00">source/level_set/reinitialization</text>
<text text-anchor="middle" x="1020.5" y="-144.5" font-family="Helvetica,sans-Serif" font-size="10.00">_hyperbolic_CG_operation.cpp</text>
</a>
</g>
</g>
<!-- Node14&#45;&gt;Node16 -->
<g id="edge20_Node000014_Node000016" class="edge">
<title>Node14&#45;&gt;Node16</title>
<g id="a_edge20_Node000014_Node000016"><a xlink:title=" ">
<path fill="none" stroke="#63b8ff" d="M1015.09,-198.61C1016.36,-188.01 1017.73,-176.57 1018.78,-167.86"/>
<polygon fill="#63b8ff" stroke="#63b8ff" points="1011.58,-198.45 1013.86,-208.79 1018.53,-199.28 1011.58,-198.45"/>
</a>
</g>
</g>
<!-- Node17&#45;&gt;Node3 -->
<g id="edge22_Node000017_Node000003" class="edge">
<title>Node17&#45;&gt;Node3</title>
<g id="a_edge22_Node000017_Node000003"><a xlink:title=" ">
<path fill="none" stroke="#63b8ff" d="M1116.37,-210.5C1061.15,-199.76 989.8,-185.77 926.5,-173 917.84,-171.25 908.74,-169.39 899.75,-167.54"/>
<polygon fill="#63b8ff" stroke="#63b8ff" points="1116,-213.99 1126.49,-212.47 1117.34,-207.12 1116,-213.99"/>
</a>
</g>
</g>
<!-- Node18 -->
<g id="Node000018" class="node">
<title>Node18</title>
<g id="a_Node000018"><a xlink:href="level__set__DG__operation_8hpp.html" target="_top" xlink:title=" ">
<polygon fill="white" stroke="#666666" points="1273,-173 1162,-173 1162,-132 1273,-132 1273,-173"/>
<text text-anchor="start" x="1170" y="-161" font-family="Helvetica,sans-Serif" font-size="10.00">include/meltpooldg</text>
<text text-anchor="start" x="1170" y="-150" font-family="Helvetica,sans-Serif" font-size="10.00">/level_set/level_set</text>
<text text-anchor="middle" x="1217.5" y="-139" font-family="Helvetica,sans-Serif" font-size="10.00">_DG_operation.hpp</text>
</a>
</g>
</g>
<!-- Node17&#45;&gt;Node18 -->
<g id="edge23_Node000017_Node000018" class="edge">
<title>Node17&#45;&gt;Node18</title>
<g id="a_edge23_Node000017_Node000018"><a xlink:title=" ">
<path fill="none" stroke="#63b8ff" d="M1212.68,-198.69C1213.6,-190.08 1214.58,-180.9 1215.41,-173.07"/>
<polygon fill="#63b8ff" stroke="#63b8ff" points="1209.18,-198.48 1211.6,-208.79 1216.14,-199.22 1209.18,-198.48"/>
</a>
</g>
</g>
<!-- Node19 -->
<g id="Node000019" class="node">
<title>Node19</title>
<g id="a_Node000019"><a xlink:href="reinitialization__hyperbolic__DG__operation_8cpp.html" target="_top" xlink:title=" ">
<polygon fill="white" stroke="#666666" points="1461.5,-167.5 1291.5,-167.5 1291.5,-137.5 1461.5,-137.5 1461.5,-167.5"/>
<text text-anchor="start" x="1299.5" y="-155.5" font-family="Helvetica,sans-Serif" font-size="10.00">source/level_set/reinitialization</text>
<text text-anchor="middle" x="1376.5" y="-144.5" font-family="Helvetica,sans-Serif" font-size="10.00">_hyperbolic_DG_operation.cpp</text>
</a>
</g>
</g>
<!-- Node17&#45;&gt;Node19 -->
<g id="edge26_Node000017_Node000019" class="edge">
<title>Node17&#45;&gt;Node19</title>
<g id="a_edge26_Node000017_Node000019"><a xlink:title=" ">
<path fill="none" stroke="#63b8ff" d="M1262.34,-204.77C1289.58,-192.54 1321.87,-178.04 1345.14,-167.58"/>
<polygon fill="#63b8ff" stroke="#63b8ff" points="1260.63,-201.7 1252.94,-208.99 1263.5,-208.09 1260.63,-201.7"/>
</a>
</g>
</g>
<!-- Node18&#45;&gt;Node5 -->
<g id="edge24_Node000018_Node000005" class="edge">
<title>Node18&#45;&gt;Node5</title>
<g id="a_edge24_Node000018_Node000005"><a xlink:title=" ">
<path fill="none" stroke="#63b8ff" d="M1151.58,-138.24C1139.28,-135.99 1126.52,-133.8 1114.5,-132 985.95,-112.73 835.76,-97.53 745.22,-89.16"/>
<polygon fill="#63b8ff" stroke="#63b8ff" points="1151.3,-141.75 1161.77,-140.14 1152.58,-134.87 1151.3,-141.75"/>
</a>
</g>
</g>
<!-- Node18&#45;&gt;Node15 -->
<g id="edge25_Node000018_Node000015" class="edge">
<title>Node18&#45;&gt;Node15</title>
<g id="a_edge25_Node000018_Node000015"><a xlink:title=" ">
<path fill="none" stroke="#63b8ff" d="M1200.34,-123.11C1194.71,-113.78 1188.69,-103.82 1183.98,-96.04"/>
<polygon fill="#63b8ff" stroke="#63b8ff" points="1197.41,-125.02 1205.58,-131.77 1203.4,-121.4 1197.41,-125.02"/>
</a>
</g>
</g>
</g>
</svg>
