<?xml version="1.0" encoding="UTF-8" standalone="no"?>
<!DOCTYPE svg PUBLIC "-//W3C//DTD SVG 1.1//EN"
 "http://www.w3.org/Graphics/SVG/1.1/DTD/svg11.dtd">
<!-- Generated by graphviz version 2.43.0 (0)
 -->
<!-- Title: applications/mp&#45;reinit/reinitialization_case.hpp Pages: 1 -->
<svg width="1054pt" height="192pt"
 viewBox="0.00 0.00 1053.50 192.00" xmlns="http://www.w3.org/2000/svg" xmlns:xlink="http://www.w3.org/1999/xlink">
<g id="graph0" class="graph" transform="scale(1 1) rotate(0) translate(4 188)">
<title>applications/mp&#45;reinit/reinitialization_case.hpp</title>
<!-- Node1 -->
<g id="Node000001" class="node">
<title>Node1</title>
<g id="a_Node000001"><a xlink:title=" ">
<polygon fill="#999999" stroke="#666666" points="534.5,-184 395.5,-184 395.5,-154 534.5,-154 534.5,-184"/>
<text text-anchor="start" x="403.5" y="-172" font-family="Helvetica,sans-Serif" font-size="10.00">applications/mp&#45;reinit</text>
<text text-anchor="middle" x="465" y="-161" font-family="Helvetica,sans-Serif" font-size="10.00">/reinitialization_case.hpp</text>
</a>
</g>
</g>
<!-- Node2 -->
<g id="Node000002" class="node">
<title>Node2</title>
<g id="a_Node000002"><a xlink:href="powder__particles_8hpp.html" target="_top" xlink:title=" ">
<polygon fill="white" stroke="#666666" points="134,-118 0,-118 0,-77 134,-77 134,-118"/>
<text text-anchor="start" x="8" y="-106" font-family="Helvetica,sans-Serif" font-size="10.00">applications/mp&#45;reinit</text>
<text text-anchor="start" x="8" y="-95" font-family="Helvetica,sans-Serif" font-size="10.00">/cases/powder_particles</text>
<text text-anchor="middle" x="67" y="-84" font-family="Helvetica,sans-Serif" font-size="10.00">/powder_particles.hpp</text>
</a>
</g>
</g>
<!-- Node1&#45;&gt;Node2 -->
<g id="edge1_Node000001_Node000002" class="edge">
<title>Node1&#45;&gt;Node2</title>
<g id="a_edge1_Node000001_Node000002"><a xlink:title=" ">
<path fill="none" stroke="#63b8ff" d="M385.01,-157.78C319.62,-148.9 224.93,-134.83 143,-118 140.06,-117.4 137.07,-116.75 134.05,-116.08"/>
<polygon fill="#63b8ff" stroke="#63b8ff" points="384.87,-161.29 395.24,-159.16 385.8,-154.35 384.87,-161.29"/>
</a>
</g>
</g>
<!-- Node4 -->
<g id="Node000004" class="node">
<title>Node4</title>
<g id="a_Node000004"><a xlink:href="reinit__circle_8hpp.html" target="_top" xlink:title=" ">
<polygon fill="white" stroke="#666666" points="288,-118 152,-118 152,-77 288,-77 288,-118"/>
<text text-anchor="start" x="160" y="-106" font-family="Helvetica,sans-Serif" font-size="10.00">applications/mp&#45;reinit</text>
<text text-anchor="start" x="160" y="-95" font-family="Helvetica,sans-Serif" font-size="10.00">/cases/reinit_circle/reinit</text>
<text text-anchor="middle" x="220" y="-84" font-family="Helvetica,sans-Serif" font-size="10.00">_circle.hpp</text>
</a>
</g>
</g>
<!-- Node1&#45;&gt;Node4 -->
<g id="edge3_Node000001_Node000004" class="edge">
<title>Node1&#45;&gt;Node4</title>
<g id="a_edge3_Node000001_Node000004"><a xlink:title=" ">
<path fill="none" stroke="#63b8ff" d="M405.69,-151.17C370.21,-141.11 325,-128.29 288.07,-117.81"/>
<polygon fill="#63b8ff" stroke="#63b8ff" points="404.84,-154.57 415.42,-153.94 406.76,-147.84 404.84,-154.57"/>
</a>
</g>
</g>
<!-- Node6 -->
<g id="Node000006" class="node">
<title>Node6</title>
<g id="a_Node000006"><a xlink:href="reinit__circle__DG_8hpp.html" target="_top" xlink:title=" ">
<polygon fill="white" stroke="#666666" points="442,-118 306,-118 306,-77 442,-77 442,-118"/>
<text text-anchor="start" x="314" y="-106" font-family="Helvetica,sans-Serif" font-size="10.00">applications/mp&#45;reinit</text>
<text text-anchor="start" x="314" y="-95" font-family="Helvetica,sans-Serif" font-size="10.00">/cases/reinit_circle/reinit</text>
<text text-anchor="middle" x="374" y="-84" font-family="Helvetica,sans-Serif" font-size="10.00">_circle_DG.hpp</text>
</a>
</g>
</g>
<!-- Node1&#45;&gt;Node6 -->
<g id="edge5_Node000001_Node000006" class="edge">
<title>Node1&#45;&gt;Node6</title>
<g id="a_edge5_Node000001_Node000006"><a xlink:title=" ">
<path fill="none" stroke="#63b8ff" d="M438.52,-147.77C426.27,-138.42 411.77,-127.35 399.63,-118.07"/>
<polygon fill="#63b8ff" stroke="#63b8ff" points="436.51,-150.65 446.58,-153.94 440.76,-145.08 436.51,-150.65"/>
</a>
</g>
</g>
<!-- Node8 -->
<g id="Node000008" class="node">
<title>Node8</title>
<g id="a_Node000008"><a xlink:href="wall__wetting_8hpp.html" target="_top" xlink:title=" ">
<polygon fill="white" stroke="#666666" points="654,-118 460,-118 460,-77 654,-77 654,-118"/>
<text text-anchor="start" x="468" y="-106" font-family="Helvetica,sans-Serif" font-size="10.00">applications/mp&#45;reinit</text>
<text text-anchor="start" x="468" y="-95" font-family="Helvetica,sans-Serif" font-size="10.00">/cases/wall_wetting_zahedi</text>
<text text-anchor="middle" x="557" y="-84" font-family="Helvetica,sans-Serif" font-size="10.00">_2009_comparison/wall_wetting.hpp</text>
</a>
</g>
</g>
<!-- Node1&#45;&gt;Node8 -->
<g id="edge7_Node000001_Node000008" class="edge">
<title>Node1&#45;&gt;Node8</title>
<g id="a_edge7_Node000001_Node000008"><a xlink:title=" ">
<path fill="none" stroke="#63b8ff" d="M491.77,-147.77C504.16,-138.42 518.81,-127.35 531.09,-118.07"/>
<polygon fill="#63b8ff" stroke="#63b8ff" points="489.49,-145.12 483.62,-153.94 493.71,-150.7 489.49,-145.12"/>
</a>
</g>
</g>
<!-- Node10 -->
<g id="Node000010" class="node">
<title>Node10</title>
<g id="a_Node000010"><a xlink:href="reinitialization__application_8hpp.html" target="_top" xlink:title=" ">
<polygon fill="white" stroke="#666666" points="842,-112.5 672,-112.5 672,-82.5 842,-82.5 842,-112.5"/>
<text text-anchor="start" x="680" y="-100.5" font-family="Helvetica,sans-Serif" font-size="10.00">applications/mp&#45;reinit</text>
<text text-anchor="middle" x="757" y="-89.5" font-family="Helvetica,sans-Serif" font-size="10.00">/reinitialization_application.hpp</text>
</a>
</g>
</g>
<!-- Node1&#45;&gt;Node10 -->
<g id="edge9_Node000001_Node000010" class="edge">
<title>Node1&#45;&gt;Node10</title>
<g id="a_edge9_Node000001_Node000010"><a xlink:title=" ">
<path fill="none" stroke="#63b8ff" d="M533.84,-151.62C583.74,-139.74 650.53,-123.84 698,-112.54"/>
<polygon fill="#63b8ff" stroke="#63b8ff" points="533.01,-148.22 524.09,-153.94 534.63,-155.02 533.01,-148.22"/>
</a>
</g>
</g>
<!-- Node12 -->
<g id="Node000012" class="node">
<title>Node12</title>
<g id="a_Node000012"><a xlink:href="mp-reinit_2unit__tests_2detailed__parameters_8cc.html" target="_top" xlink:title=" ">
<polygon fill="white" stroke="#666666" points="1045.5,-112.5 860.5,-112.5 860.5,-82.5 1045.5,-82.5 1045.5,-112.5"/>
<text text-anchor="start" x="868.5" y="-100.5" font-family="Helvetica,sans-Serif" font-size="10.00">applications/mp&#45;reinit</text>
<text text-anchor="middle" x="953" y="-89.5" font-family="Helvetica,sans-Serif" font-size="10.00">/unit_tests/detailed_parameters.cc</text>
</a>
</g>
</g>
<!-- Node1&#45;&gt;Node12 -->
<g id="edge11_Node000001_Node000012" class="edge">
<title>Node1&#45;&gt;Node12</title>
<g id="a_edge11_Node000001_Node000012"><a xlink:title=" ">
<path fill="none" stroke="#63b8ff" d="M544.82,-159.08C623.02,-150.01 745.48,-134.91 851,-118 861.24,-116.36 872.02,-114.47 882.59,-112.53"/>
<polygon fill="#63b8ff" stroke="#63b8ff" points="544.09,-155.64 534.56,-160.26 544.9,-162.59 544.09,-155.64"/>
</a>
</g>
</g>
<!-- Node3 -->
<g id="Node000003" class="node">
<title>Node3</title>
<g id="a_Node000003"><a xlink:href="powder__particles_8cpp.html" target="_top" xlink:title=" ">
<polygon fill="white" stroke="#666666" points="134,-41 0,-41 0,0 134,0 134,-41"/>
<text text-anchor="start" x="8" y="-29" font-family="Helvetica,sans-Serif" font-size="10.00">applications/mp&#45;reinit</text>
<text text-anchor="start" x="8" y="-18" font-family="Helvetica,sans-Serif" font-size="10.00">/cases/powder_particles</text>
<text text-anchor="middle" x="67" y="-7" font-family="Helvetica,sans-Serif" font-size="10.00">/powder_particles.cpp</text>
</a>
</g>
</g>
<!-- Node2&#45;&gt;Node3 -->
<g id="edge2_Node000002_Node000003" class="edge">
<title>Node2&#45;&gt;Node3</title>
<g id="a_edge2_Node000002_Node000003"><a xlink:title=" ">
<path fill="none" stroke="#63b8ff" d="M67,-66.69C67,-58.08 67,-48.9 67,-41.07"/>
<polygon fill="#63b8ff" stroke="#63b8ff" points="63.5,-66.79 67,-76.79 70.5,-66.79 63.5,-66.79"/>
</a>
</g>
</g>
<!-- Node5 -->
<g id="Node000005" class="node">
<title>Node5</title>
<g id="a_Node000005"><a xlink:href="reinit__circle_8cpp.html" target="_top" xlink:title=" ">
<polygon fill="white" stroke="#666666" points="288,-41 152,-41 152,0 288,0 288,-41"/>
<text text-anchor="start" x="160" y="-29" font-family="Helvetica,sans-Serif" font-size="10.00">applications/mp&#45;reinit</text>
<text text-anchor="start" x="160" y="-18" font-family="Helvetica,sans-Serif" font-size="10.00">/cases/reinit_circle/reinit</text>
<text text-anchor="middle" x="220" y="-7" font-family="Helvetica,sans-Serif" font-size="10.00">_circle.cpp</text>
</a>
</g>
</g>
<!-- Node4&#45;&gt;Node5 -->
<g id="edge4_Node000004_Node000005" class="edge">
<title>Node4&#45;&gt;Node5</title>
<g id="a_edge4_Node000004_Node000005"><a xlink:title=" ">
<path fill="none" stroke="#63b8ff" d="M220,-66.69C220,-58.08 220,-48.9 220,-41.07"/>
<polygon fill="#63b8ff" stroke="#63b8ff" points="216.5,-66.79 220,-76.79 223.5,-66.79 216.5,-66.79"/>
</a>
</g>
</g>
<!-- Node7 -->
<g id="Node000007" class="node">
<title>Node7</title>
<g id="a_Node000007"><a xlink:href="reinit__circle__DG_8cpp.html" target="_top" xlink:title=" ">
<polygon fill="white" stroke="#666666" points="442,-41 306,-41 306,0 442,0 442,-41"/>
<text text-anchor="start" x="314" y="-29" font-family="Helvetica,sans-Serif" font-size="10.00">applications/mp&#45;reinit</text>
<text text-anchor="start" x="314" y="-18" font-family="Helvetica,sans-Serif" font-size="10.00">/cases/reinit_circle/reinit</text>
<text text-anchor="middle" x="374" y="-7" font-family="Helvetica,sans-Serif" font-size="10.00">_circle_DG.cpp</text>
</a>
</g>
</g>
<!-- Node6&#45;&gt;Node7 -->
<g id="edge6_Node000006_Node000007" class="edge">
<title>Node6&#45;&gt;Node7</title>
<g id="a_edge6_Node000006_Node000007"><a xlink:title=" ">
<path fill="none" stroke="#63b8ff" d="M374,-66.69C374,-58.08 374,-48.9 374,-41.07"/>
<polygon fill="#63b8ff" stroke="#63b8ff" points="370.5,-66.79 374,-76.79 377.5,-66.79 370.5,-66.79"/>
</a>
</g>
</g>
<!-- Node9 -->
<g id="Node000009" class="node">
<title>Node9</title>
<g id="a_Node000009"><a xlink:href="wall__wetting_8cpp.html" target="_top" xlink:title=" ">
<polygon fill="white" stroke="#666666" points="654,-41 460,-41 460,0 654,0 654,-41"/>
<text text-anchor="start" x="468" y="-29" font-family="Helvetica,sans-Serif" font-size="10.00">applications/mp&#45;reinit</text>
<text text-anchor="start" x="468" y="-18" font-family="Helvetica,sans-Serif" font-size="10.00">/cases/wall_wetting_zahedi</text>
<text text-anchor="middle" x="557" y="-7" font-family="Helvetica,sans-Serif" font-size="10.00">_2009_comparison/wall_wetting.cpp</text>
</a>
</g>
</g>
<!-- Node8&#45;&gt;Node9 -->
<g id="edge8_Node000008_Node000009" class="edge">
<title>Node8&#45;&gt;Node9</title>
<g id="a_edge8_Node000008_Node000009"><a xlink:title=" ">
<path fill="none" stroke="#63b8ff" d="M557,-66.69C557,-58.08 557,-48.9 557,-41.07"/>
<polygon fill="#63b8ff" stroke="#63b8ff" points="553.5,-66.79 557,-76.79 560.5,-66.79 553.5,-66.79"/>
</a>
</g>
</g>
<!-- Node11 -->
<g id="Node000011" class="node">
<title>Node11</title>
<g id="a_Node000011"><a xlink:href="reinitialization__application_8cpp.html" target="_top" xlink:title=" ">
<polygon fill="white" stroke="#666666" points="842,-35.5 672,-35.5 672,-5.5 842,-5.5 842,-35.5"/>
<text text-anchor="start" x="680" y="-23.5" font-family="Helvetica,sans-Serif" font-size="10.00">applications/mp&#45;reinit</text>
<text text-anchor="middle" x="757" y="-12.5" font-family="Helvetica,sans-Serif" font-size="10.00">/reinitialization_application.cpp</text>
</a>
</g>
</g>
<!-- Node10&#45;&gt;Node11 -->
<g id="edge10_Node000010_Node000011" class="edge">
<title>Node10&#45;&gt;Node11</title>
<g id="a_edge10_Node000010_Node000011"><a xlink:title=" ">
<path fill="none" stroke="#63b8ff" d="M757,-72.04C757,-59.95 757,-45.79 757,-35.54"/>
<polygon fill="#63b8ff" stroke="#63b8ff" points="753.5,-72.39 757,-82.39 760.5,-72.39 753.5,-72.39"/>
</a>
</g>
</g>
</g>
</svg>
