<?xml version="1.0" encoding="UTF-8" standalone="no"?>
<!DOCTYPE svg PUBLIC "-//W3C//DTD SVG 1.1//EN"
 "http://www.w3.org/Graphics/SVG/1.1/DTD/svg11.dtd">
<!-- Generated by graphviz version 2.43.0 (0)
 -->
<!-- Title: include/meltpooldg/utilities/scoped_name.hpp Pages: 1 -->
<!--zoomable 104 -->

<svg id="main" version="1.1" xmlns="http://www.w3.org/2000/svg" xmlns:xlink="http://www.w3.org/1999/xlink" xml:space="preserve" onload="init(evt)">
<style type="text/css"><![CDATA[
.node, .edge {opacity: 0.7;}
.node.selected, .edge.selected {opacity: 1;}
.edge:hover path { stroke: red; }
.edge:hover polygon { stroke: red; fill: red; }
]]></style>

<defs>
  <circle id="rim" cx="0" cy="0" r="7"/>
  <circle id="rim2" cx="0" cy="0" r="3.5"/>
  <g id="zoomPlus">
    <use xlink:href="#rim" fill="#404040"><set attributeName="fill" to="#808080" begin="zoomplus.mouseover" end="zoomplus.mouseout"/></use>
    <path d="M-4,0h8M0,-4v8" fill="none" stroke="white" stroke-width="1.5" pointer-events="none"/>
  </g>
  <g id="zoomMin">
    <use xlink:href="#rim" fill="#404040"><set attributeName="fill" to="#808080" begin="zoomminus.mouseover" end="zoomminus.mouseout"/></use>
    <path d="M-4,0h8" fill="none" stroke="white" stroke-width="1.5" pointer-events="none"/>
  </g>
  <g id="arrowUp" transform="translate(30 24)">
    <use xlink:href="#rim"/>
    <path pointer-events="none" fill="none" stroke="white" stroke-width="1.5" d="M0,-3.0v7 M-2.5,-0.5L0,-3.0L2.5,-0.5"/>
  </g>
  <g id="arrowRight" transform="rotate(90) translate(36 -43)">
    <use xlink:href="#rim"/>
    <path pointer-events="none" fill="none" stroke="white" stroke-width="1.5" d="M0,-3.0v7 M-2.5,-0.5L0,-3.0L2.5,-0.5"/>
  </g>
  <g id="arrowDown" transform="rotate(180) translate(-30 -48)">
    <use xlink:href="#rim"/>
    <path pointer-events="none" fill="none" stroke="white" stroke-width="1.5" d="M0,-3.0v7 M-2.5,-0.5L0,-3.0L2.5,-0.5"/>
  </g>
  <g id="arrowLeft" transform="rotate(270) translate(-36 17)">
    <use xlink:href="#rim"/>
    <path pointer-events="none" fill="none" stroke="white" stroke-width="1.5" d="M0,-3.0v7 M-2.5,-0.5L0,-3.0L2.5,-0.5"/>
  </g>
  <g id="resetDef">
    <use xlink:href="#rim2" fill="#404040"><set attributeName="fill" to="#808080" begin="reset.mouseover" end="reset.mouseout"/></use>
  </g>
</defs>
<script type="application/ecmascript">
var viewWidth = 2872;
var viewHeight = 104;
var sectionId = 'dynsection-1';
</script>
<script type="application/ecmascript" xlink:href="svg.min.js"/>
<svg id="graph" class="graph">
<g id="viewport">
<title>include/meltpooldg/utilities/scoped_name.hpp</title>
<!-- Node1 -->
<g id="Node000001" class="node">
<title>Node1</title>
<g id="a_Node000001"><a xlink:title=" ">
<polygon fill="#999999" stroke="#666666" points="1441,-96 1293,-96 1293,-66 1441,-66 1441,-96"/>
<text text-anchor="start" x="1301" y="-84" font-family="Helvetica,sans-Serif" font-size="10.00">include/meltpooldg</text>
<text text-anchor="middle" x="1367" y="-73" font-family="Helvetica,sans-Serif" font-size="10.00">/utilities/scoped_name.hpp</text>
</a>
</g>
</g>
<!-- Node2 -->
<g id="Node000002" class="node">
<title>Node2</title>
<g id="a_Node000002"><a xlink:href="level__set__application_8cpp.html" target="_top" xlink:title=" ">
<polygon fill="white" stroke="#666666" points="162,-30 0,-30 0,0 162,0 162,-30"/>
<text text-anchor="start" x="8" y="-18" font-family="Helvetica,sans-Serif" font-size="10.00">applications/mp&#45;level</text>
<text text-anchor="middle" x="81" y="-7" font-family="Helvetica,sans-Serif" font-size="10.00">&#45;set/level_set_application.cpp</text>
</a>
</g>
</g>
<!-- Node1&#45;&gt;Node2 -->
<g id="edge1_Node000001_Node000002" class="edge">
<title>Node1&#45;&gt;Node2</title>
<g id="a_edge1_Node000001_Node000002"><a xlink:title=" ">
<path fill="none" stroke="#63b8ff" d="M1282.75,-79.73C1087.06,-78.4 586.77,-70.9 171,-30 168.17,-29.72 165.29,-29.41 162.38,-29.08"/>
<polygon fill="#63b8ff" stroke="#63b8ff" points="1282.94,-83.23 1292.96,-79.8 1282.99,-76.23 1282.94,-83.23"/>
</a>
</g>
</g>
<!-- Node3 -->
<g id="Node000003" class="node">
<title>Node3</title>
<g id="a_Node000003"><a xlink:href="melt__pool__application_8cpp.html" target="_top" xlink:title=" ">
<polygon fill="white" stroke="#666666" points="353.5,-30 180.5,-30 180.5,0 353.5,0 353.5,-30"/>
<text text-anchor="start" x="188.5" y="-18" font-family="Helvetica,sans-Serif" font-size="10.00">applications/mp&#45;melt</text>
<text text-anchor="middle" x="267" y="-7" font-family="Helvetica,sans-Serif" font-size="10.00">&#45;pool/melt_pool_application.cpp</text>
</a>
</g>
</g>
<!-- Node1&#45;&gt;Node3 -->
<g id="edge2_Node000001_Node000003" class="edge">
<title>Node1&#45;&gt;Node3</title>
<g id="a_edge2_Node000001_Node000003"><a xlink:title=" ">
<path fill="none" stroke="#63b8ff" d="M1282.69,-78.55C1109.7,-74.98 702.28,-63.46 362,-30 359.26,-29.73 356.48,-29.44 353.68,-29.13"/>
<polygon fill="#63b8ff" stroke="#63b8ff" points="1282.68,-82.05 1292.75,-78.76 1282.82,-75.06 1282.68,-82.05"/>
</a>
</g>
</g>
<!-- Node4 -->
<g id="Node000004" class="node">
<title>Node4</title>
<g id="a_Node000004"><a xlink:href="heat__cut__operation_8cpp.html" target="_top" xlink:title=" ">
<polygon fill="white" stroke="#666666" points="490.5,-30 371.5,-30 371.5,0 490.5,0 490.5,-30"/>
<text text-anchor="start" x="379.5" y="-18" font-family="Helvetica,sans-Serif" font-size="10.00">source/heat/heat_cut</text>
<text text-anchor="middle" x="431" y="-7" font-family="Helvetica,sans-Serif" font-size="10.00">_operation.cpp</text>
</a>
</g>
</g>
<!-- Node1&#45;&gt;Node4 -->
<g id="edge3_Node000001_Node000004" class="edge">
<title>Node1&#45;&gt;Node4</title>
<g id="a_edge3_Node000001_Node000004"><a xlink:title=" ">
<path fill="none" stroke="#63b8ff" d="M1282.5,-79.21C1126.85,-76.84 784.66,-67.43 499,-30 496.25,-29.64 493.45,-29.23 490.62,-28.79"/>
<polygon fill="#63b8ff" stroke="#63b8ff" points="1282.88,-82.71 1292.93,-79.36 1282.98,-75.71 1282.88,-82.71"/>
</a>
</g>
</g>
<!-- Node5 -->
<g id="Node000005" class="node">
<title>Node5</title>
<g id="a_Node000005"><a xlink:href="heat__diffuse__operation_8cpp.html" target="_top" xlink:title=" ">
<polygon fill="white" stroke="#666666" points="645.5,-30 508.5,-30 508.5,0 645.5,0 645.5,-30"/>
<text text-anchor="start" x="516.5" y="-18" font-family="Helvetica,sans-Serif" font-size="10.00">source/heat/heat_diffuse</text>
<text text-anchor="middle" x="577" y="-7" font-family="Helvetica,sans-Serif" font-size="10.00">_operation.cpp</text>
</a>
</g>
</g>
<!-- Node1&#45;&gt;Node5 -->
<g id="edge4_Node000001_Node000005" class="edge">
<title>Node1&#45;&gt;Node5</title>
<g id="a_edge4_Node000001_Node000005"><a xlink:title=" ">
<path fill="none" stroke="#63b8ff" d="M1282.66,-77.09C1148.93,-71.79 880.19,-58.41 654,-30 651.3,-29.66 648.56,-29.29 645.79,-28.89"/>
<polygon fill="#63b8ff" stroke="#63b8ff" points="1282.71,-80.59 1292.84,-77.48 1282.98,-73.6 1282.71,-80.59"/>
</a>
</g>
</g>
<!-- Node6 -->
<g id="Node000006" class="node">
<title>Node6</title>
<g id="a_Node000006"><a xlink:href="advection__DG__operation_8cpp.html" target="_top" xlink:title=" ">
<polygon fill="white" stroke="#666666" points="810.5,-30 663.5,-30 663.5,0 810.5,0 810.5,-30"/>
<text text-anchor="start" x="671.5" y="-18" font-family="Helvetica,sans-Serif" font-size="10.00">source/level_set/advection</text>
<text text-anchor="middle" x="737" y="-7" font-family="Helvetica,sans-Serif" font-size="10.00">_DG_operation.cpp</text>
</a>
</g>
</g>
<!-- Node1&#45;&gt;Node6 -->
<g id="edge5_Node000001_Node000006" class="edge">
<title>Node1&#45;&gt;Node6</title>
<g id="a_edge5_Node000001_Node000006"><a xlink:title=" ">
<path fill="none" stroke="#63b8ff" d="M1282.62,-74.36C1174.81,-66.68 982.57,-51.39 819,-30 816.28,-29.64 813.51,-29.26 810.72,-28.87"/>
<polygon fill="#63b8ff" stroke="#63b8ff" points="1282.56,-77.86 1292.79,-75.08 1283.06,-70.88 1282.56,-77.86"/>
</a>
</g>
</g>
<!-- Node7 -->
<g id="Node000007" class="node">
<title>Node7</title>
<g id="a_Node000007"><a xlink:href="advection__diffusion__operation_8cpp.html" target="_top" xlink:title=" ">
<polygon fill="white" stroke="#666666" points="975.5,-30 828.5,-30 828.5,0 975.5,0 975.5,-30"/>
<text text-anchor="start" x="836.5" y="-18" font-family="Helvetica,sans-Serif" font-size="10.00">source/level_set/advection</text>
<text text-anchor="middle" x="902" y="-7" font-family="Helvetica,sans-Serif" font-size="10.00">_diffusion_operation.cpp</text>
</a>
</g>
</g>
<!-- Node1&#45;&gt;Node7 -->
<g id="edge6_Node000001_Node000007" class="edge">
<title>Node1&#45;&gt;Node7</title>
<g id="a_edge6_Node000001_Node000007"><a xlink:title=" ">
<path fill="none" stroke="#63b8ff" d="M1282.75,-69.88C1205.27,-60.36 1087.24,-45.31 985,-30 981.97,-29.55 978.87,-29.07 975.74,-28.58"/>
<polygon fill="#63b8ff" stroke="#63b8ff" points="1282.59,-73.39 1292.94,-71.13 1283.44,-66.44 1282.59,-73.39"/>
</a>
</g>
</g>
<!-- Node8 -->
<g id="Node000008" class="node">
<title>Node8</title>
<g id="a_Node000008"><a xlink:href="curvature__operation_8cpp.html" target="_top" xlink:title=" ">
<polygon fill="white" stroke="#666666" points="1140,-30 994,-30 994,0 1140,0 1140,-30"/>
<text text-anchor="start" x="1002" y="-18" font-family="Helvetica,sans-Serif" font-size="10.00">source/level_set/curvature</text>
<text text-anchor="middle" x="1067" y="-7" font-family="Helvetica,sans-Serif" font-size="10.00">_operation.cpp</text>
</a>
</g>
</g>
<!-- Node1&#45;&gt;Node8 -->
<g id="edge7_Node000001_Node000008" class="edge">
<title>Node1&#45;&gt;Node8</title>
<g id="a_edge7_Node000001_Node000008"><a xlink:title=" ">
<path fill="none" stroke="#63b8ff" d="M1291.27,-63.84C1242.39,-53.42 1179.44,-39.99 1132.68,-30.01"/>
<polygon fill="#63b8ff" stroke="#63b8ff" points="1290.65,-67.29 1301.16,-65.95 1292.11,-60.45 1290.65,-67.29"/>
</a>
</g>
</g>
<!-- Node9 -->
<g id="Node000009" class="node">
<title>Node9</title>
<g id="a_Node000009"><a xlink:href="level__set__DG__operation_8cpp.html" target="_top" xlink:title=" ">
<polygon fill="white" stroke="#666666" points="1287.5,-30 1158.5,-30 1158.5,0 1287.5,0 1287.5,-30"/>
<text text-anchor="start" x="1166.5" y="-18" font-family="Helvetica,sans-Serif" font-size="10.00">source/level_set/level</text>
<text text-anchor="middle" x="1223" y="-7" font-family="Helvetica,sans-Serif" font-size="10.00">_set_DG_operation.cpp</text>
</a>
</g>
</g>
<!-- Node1&#45;&gt;Node9 -->
<g id="edge8_Node000001_Node000009" class="edge">
<title>Node1&#45;&gt;Node9</title>
<g id="a_edge8_Node000001_Node000009"><a xlink:title=" ">
<path fill="none" stroke="#63b8ff" d="M1326.01,-61.78C1303.31,-51.69 1275.52,-39.34 1254.53,-30.01"/>
<polygon fill="#63b8ff" stroke="#63b8ff" points="1324.84,-65.09 1335.4,-65.95 1327.68,-58.7 1324.84,-65.09"/>
</a>
</g>
</g>
<!-- Node10 -->
<g id="Node000010" class="node">
<title>Node10</title>
<g id="a_Node000010"><a xlink:href="level__set__operation_8cpp.html" target="_top" xlink:title=" ">
<polygon fill="white" stroke="#666666" points="1428.5,-30 1305.5,-30 1305.5,0 1428.5,0 1428.5,-30"/>
<text text-anchor="start" x="1313.5" y="-18" font-family="Helvetica,sans-Serif" font-size="10.00">source/level_set/level</text>
<text text-anchor="middle" x="1367" y="-7" font-family="Helvetica,sans-Serif" font-size="10.00">_set_operation.cpp</text>
</a>
</g>
</g>
<!-- Node1&#45;&gt;Node10 -->
<g id="edge9_Node000001_Node000010" class="edge">
<title>Node1&#45;&gt;Node10</title>
<g id="a_edge9_Node000001_Node000010"><a xlink:title=" ">
<path fill="none" stroke="#63b8ff" d="M1367,-55.54C1367,-46.96 1367,-37.61 1367,-30.16"/>
<polygon fill="#63b8ff" stroke="#63b8ff" points="1363.5,-55.8 1367,-65.8 1370.5,-55.8 1363.5,-55.8"/>
</a>
</g>
</g>
<!-- Node11 -->
<g id="Node000011" class="node">
<title>Node11</title>
<g id="a_Node000011"><a xlink:href="nearest__point_8cpp.html" target="_top" xlink:title=" ">
<polygon fill="white" stroke="#666666" points="1583,-30 1447,-30 1447,0 1583,0 1583,-30"/>
<text text-anchor="start" x="1455" y="-18" font-family="Helvetica,sans-Serif" font-size="10.00">source/level_set/nearest</text>
<text text-anchor="middle" x="1515" y="-7" font-family="Helvetica,sans-Serif" font-size="10.00">_point.cpp</text>
</a>
</g>
</g>
<!-- Node1&#45;&gt;Node11 -->
<g id="edge10_Node000001_Node000011" class="edge">
<title>Node1&#45;&gt;Node11</title>
<g id="a_edge10_Node000001_Node000011"><a xlink:title=" ">
<path fill="none" stroke="#63b8ff" d="M1408.81,-61.92C1432.2,-51.8 1460.92,-39.38 1482.6,-30.01"/>
<polygon fill="#63b8ff" stroke="#63b8ff" points="1407.27,-58.77 1399.48,-65.95 1410.05,-65.2 1407.27,-58.77"/>
</a>
</g>
</g>
<!-- Node12 -->
<g id="Node000012" class="node">
<title>Node12</title>
<g id="a_Node000012"><a xlink:href="normal__vector__operation_8cpp.html" target="_top" xlink:title=" ">
<polygon fill="white" stroke="#666666" points="1735,-30 1601,-30 1601,0 1735,0 1735,-30"/>
<text text-anchor="start" x="1609" y="-18" font-family="Helvetica,sans-Serif" font-size="10.00">source/level_set/normal</text>
<text text-anchor="middle" x="1668" y="-7" font-family="Helvetica,sans-Serif" font-size="10.00">_vector_operation.cpp</text>
</a>
</g>
</g>
<!-- Node1&#45;&gt;Node12 -->
<g id="edge11_Node000001_Node000012" class="edge">
<title>Node1&#45;&gt;Node12</title>
<g id="a_edge11_Node000001_Node000012"><a xlink:title=" ">
<path fill="none" stroke="#63b8ff" d="M1442.98,-63.84C1492.02,-53.42 1555.18,-39.99 1602.1,-30.01"/>
<polygon fill="#63b8ff" stroke="#63b8ff" points="1442.11,-60.45 1433.06,-65.95 1443.57,-67.3 1442.11,-60.45"/>
</a>
</g>
</g>
<!-- Node13 -->
<g id="Node000013" class="node">
<title>Node13</title>
<g id="a_Node000013"><a xlink:href="reinitialization__elliptic__operation_8cpp.html" target="_top" xlink:title=" ">
<polygon fill="white" stroke="#666666" points="1923,-30 1753,-30 1753,0 1923,0 1923,-30"/>
<text text-anchor="start" x="1761" y="-18" font-family="Helvetica,sans-Serif" font-size="10.00">source/level_set/reinitialization</text>
<text text-anchor="middle" x="1838" y="-7" font-family="Helvetica,sans-Serif" font-size="10.00">_elliptic_operation.cpp</text>
</a>
</g>
</g>
<!-- Node1&#45;&gt;Node13 -->
<g id="edge12_Node000001_Node000013" class="edge">
<title>Node1&#45;&gt;Node13</title>
<g id="a_edge12_Node000001_Node000013"><a xlink:title=" ">
<path fill="none" stroke="#63b8ff" d="M1451.14,-69.23C1527.58,-59.36 1643.42,-44.16 1744,-30 1746.94,-29.59 1749.93,-29.16 1752.95,-28.73"/>
<polygon fill="#63b8ff" stroke="#63b8ff" points="1450.56,-65.78 1441.09,-70.53 1451.45,-72.72 1450.56,-65.78"/>
</a>
</g>
</g>
<!-- Node14 -->
<g id="Node000014" class="node">
<title>Node14</title>
<g id="a_Node000014"><a xlink:href="reinitialization__geometric__operation_8cpp.html" target="_top" xlink:title=" ">
<polygon fill="white" stroke="#666666" points="2111,-30 1941,-30 1941,0 2111,0 2111,-30"/>
<text text-anchor="start" x="1949" y="-18" font-family="Helvetica,sans-Serif" font-size="10.00">source/level_set/reinitialization</text>
<text text-anchor="middle" x="2026" y="-7" font-family="Helvetica,sans-Serif" font-size="10.00">_geometric_operation.cpp</text>
</a>
</g>
</g>
<!-- Node1&#45;&gt;Node14 -->
<g id="edge13_Node000001_Node000014" class="edge">
<title>Node1&#45;&gt;Node14</title>
<g id="a_edge13_Node000001_Node000014"><a xlink:title=" ">
<path fill="none" stroke="#63b8ff" d="M1451.27,-74.12C1561.83,-66.04 1761.78,-50.19 1932,-30 1934.95,-29.65 1937.95,-29.28 1940.98,-28.9"/>
<polygon fill="#63b8ff" stroke="#63b8ff" points="1450.9,-70.63 1441.18,-74.85 1451.41,-77.62 1450.9,-70.63"/>
</a>
</g>
</g>
<!-- Node15 -->
<g id="Node000015" class="node">
<title>Node15</title>
<g id="a_Node000015"><a xlink:href="reinitialization__hyperbolic__CG__operation_8cpp.html" target="_top" xlink:title=" ">
<polygon fill="white" stroke="#666666" points="2299,-30 2129,-30 2129,0 2299,0 2299,-30"/>
<text text-anchor="start" x="2137" y="-18" font-family="Helvetica,sans-Serif" font-size="10.00">source/level_set/reinitialization</text>
<text text-anchor="middle" x="2214" y="-7" font-family="Helvetica,sans-Serif" font-size="10.00">_hyperbolic_CG_operation.cpp</text>
</a>
</g>
</g>
<!-- Node1&#45;&gt;Node15 -->
<g id="edge14_Node000001_Node000015" class="edge">
<title>Node1&#45;&gt;Node15</title>
<g id="a_edge14_Node000001_Node000015"><a xlink:title=" ">
<path fill="none" stroke="#63b8ff" d="M1451.38,-76.64C1590.83,-70.59 1878.06,-56.01 2120,-30 2122.95,-29.68 2125.96,-29.34 2128.99,-28.98"/>
<polygon fill="#63b8ff" stroke="#63b8ff" points="1451.03,-73.16 1441.19,-77.08 1451.33,-80.15 1451.03,-73.16"/>
</a>
</g>
</g>
<!-- Node16 -->
<g id="Node000016" class="node">
<title>Node16</title>
<g id="a_Node000016"><a xlink:href="reinitialization__hyperbolic__DG__operation_8cpp.html" target="_top" xlink:title=" ">
<polygon fill="white" stroke="#666666" points="2487,-30 2317,-30 2317,0 2487,0 2487,-30"/>
<text text-anchor="start" x="2325" y="-18" font-family="Helvetica,sans-Serif" font-size="10.00">source/level_set/reinitialization</text>
<text text-anchor="middle" x="2402" y="-7" font-family="Helvetica,sans-Serif" font-size="10.00">_hyperbolic_DG_operation.cpp</text>
</a>
</g>
</g>
<!-- Node1&#45;&gt;Node16 -->
<g id="edge15_Node000001_Node000016" class="edge">
<title>Node1&#45;&gt;Node16</title>
<g id="a_edge15_Node000001_Node000016"><a xlink:title=" ">
<path fill="none" stroke="#63b8ff" d="M1451.37,-78.2C1616.31,-74.08 1992.92,-61.76 2308,-30 2310.95,-29.7 2313.96,-29.38 2316.99,-29.03"/>
<polygon fill="#63b8ff" stroke="#63b8ff" points="1451.2,-74.7 1441.29,-78.44 1451.38,-81.7 1451.2,-74.7"/>
</a>
</g>
</g>
<!-- Node17 -->
<g id="Node000017" class="node">
<title>Node17</title>
<g id="a_Node000017"><a xlink:href="newton__raphson__solver_8cpp.html" target="_top" xlink:title=" ">
<polygon fill="white" stroke="#666666" points="2660.5,-30 2505.5,-30 2505.5,0 2660.5,0 2660.5,-30"/>
<text text-anchor="start" x="2513.5" y="-18" font-family="Helvetica,sans-Serif" font-size="10.00">source/linear_algebra</text>
<text text-anchor="middle" x="2583" y="-7" font-family="Helvetica,sans-Serif" font-size="10.00">/newton_raphson_solver.cpp</text>
</a>
</g>
</g>
<!-- Node1&#45;&gt;Node17 -->
<g id="edge16_Node000001_Node000017" class="edge">
<title>Node1&#45;&gt;Node17</title>
<g id="a_edge16_Node000001_Node000017"><a xlink:title=" ">
<path fill="none" stroke="#63b8ff" d="M1451.28,-79.58C1639.26,-77.93 2106.94,-69.78 2496,-30 2499.04,-29.69 2502.14,-29.34 2505.27,-28.96"/>
<polygon fill="#63b8ff" stroke="#63b8ff" points="1451.16,-76.08 1441.19,-79.67 1451.22,-83.08 1451.16,-76.08"/>
</a>
</g>
</g>
<!-- Node18 -->
<g id="Node000018" class="node">
<title>Node18</title>
<g id="a_Node000018"><a xlink:href="radiative__transport__operation_8cpp.html" target="_top" xlink:title=" ">
<polygon fill="white" stroke="#666666" points="2863.5,-30 2678.5,-30 2678.5,0 2863.5,0 2863.5,-30"/>
<text text-anchor="start" x="2686.5" y="-18" font-family="Helvetica,sans-Serif" font-size="10.00">source/radiative_transport</text>
<text text-anchor="middle" x="2771" y="-7" font-family="Helvetica,sans-Serif" font-size="10.00">/radiative_transport_operation.cpp</text>
</a>
</g>
</g>
<!-- Node1&#45;&gt;Node18 -->
<g id="edge17_Node000001_Node000018" class="edge">
<title>Node1&#45;&gt;Node18</title>
<g id="a_edge17_Node000001_Node000018"><a xlink:title=" ">
<path fill="none" stroke="#63b8ff" d="M1451.58,-79.66C1659.4,-78.2 2211.51,-70.47 2670,-30 2672.73,-29.76 2675.51,-29.5 2678.3,-29.21"/>
<polygon fill="#63b8ff" stroke="#63b8ff" points="1451.33,-76.16 1441.35,-79.73 1451.38,-83.16 1451.33,-76.16"/>
</a>
</g>
</g>
</g>
</svg>

<g id="navigator" transform="translate(0 0)" fill="#404254">
  <rect fill="#f2f5e9" fill-opacity="0.5" stroke="#606060" stroke-width=".5" x="0" y="0" width="60" height="60"/>
  <use id="zoomplus" xlink:href="#zoomPlus" x="17" y="9" onmousedown="handleZoom(evt,'in')"/>
  <use id="zoomminus" xlink:href="#zoomMin" x="42" y="9" onmousedown="handleZoom(evt,'out')"/>
  <use id="reset" xlink:href="#resetDef" x="30" y="36" onmousedown="handleReset()"/>
   <use id="arrowup" xlink:href="#arrowUp" x="0" y="0" onmousedown="handlePan(0,-1)"/>
  <use id="arrowright" xlink:href="#arrowRight" x="0" y="0" onmousedown="handlePan(1,0)"/>
  <use id="arrowdown" xlink:href="#arrowDown" x="0" y="0" onmousedown="handlePan(0,1)"/>
  <use id="arrowleft" xlink:href="#arrowLeft" x="0" y="0" onmousedown="handlePan(-1,0)"/>
</g>
<svg viewBox="0 0 15 15" width="100%" height="30px" preserveAspectRatio="xMaxYMin meet">
 <g id="arrow_out" transform="scale(0.3 0.3)">
  <a xlink:href="scoped__name_8hpp__dep__incl_org.svg" target="_base">
   <rect id="button" ry="5" rx="5" y="6" x="6" height="38" width="38"
        fill="#f2f5e9" fill-opacity="0.5" stroke="#606060" stroke-width="1.0"/>
   <path id="arrow"
     d="M 11.500037,31.436501 C 11.940474,20.09759 22.043105,11.32322 32.158766,21.979434 L 37.068811,17.246167 C 37.068811,17.246167 37.088388,32 37.088388,32 L 22.160133,31.978069 C 22.160133,31.978069 26.997745,27.140456 26.997745,27.140456 C 18.528582,18.264221 13.291696,25.230495 11.500037,31.436501 z"
     style="fill:#404040;"/>
  </a>
 </g>
</svg>

<style type='text/css'>
<![CDATA[
[data-mouse-over-selected='false'] { opacity: 0.7; }
[data-mouse-over-selected='true']  { opacity: 1.0; }
]]>
</style>
<script type="application/ecmascript"><![CDATA[
document.addEventListener('DOMContentLoaded', (event) => {
  highlightEdges();
  highlightAdjacentNodes();
});
]]></script>
</svg>
