<?xml version="1.0" encoding="UTF-8" standalone="no"?>
<!DOCTYPE svg PUBLIC "-//W3C//DTD SVG 1.1//EN"
 "http://www.w3.org/Graphics/SVG/1.1/DTD/svg11.dtd">
<!-- Generated by graphviz version 2.43.0 (0)
 -->
<!-- Title: include/meltpooldg/level_set/signed_distance_solver.hpp Pages: 1 -->
<!--zoomable 115 -->

<svg id="main" version="1.1" xmlns="http://www.w3.org/2000/svg" xmlns:xlink="http://www.w3.org/1999/xlink" xml:space="preserve" onload="init(evt)">
<style type="text/css"><![CDATA[
.node, .edge {opacity: 0.7;}
.node.selected, .edge.selected {opacity: 1;}
.edge:hover path { stroke: red; }
.edge:hover polygon { stroke: red; fill: red; }
]]></style>

<defs>
  <circle id="rim" cx="0" cy="0" r="7"/>
  <circle id="rim2" cx="0" cy="0" r="3.5"/>
  <g id="zoomPlus">
    <use xlink:href="#rim" fill="#404040"><set attributeName="fill" to="#808080" begin="zoomplus.mouseover" end="zoomplus.mouseout"/></use>
    <path d="M-4,0h8M0,-4v8" fill="none" stroke="white" stroke-width="1.5" pointer-events="none"/>
  </g>
  <g id="zoomMin">
    <use xlink:href="#rim" fill="#404040"><set attributeName="fill" to="#808080" begin="zoomminus.mouseover" end="zoomminus.mouseout"/></use>
    <path d="M-4,0h8" fill="none" stroke="white" stroke-width="1.5" pointer-events="none"/>
  </g>
  <g id="arrowUp" transform="translate(30 24)">
    <use xlink:href="#rim"/>
    <path pointer-events="none" fill="none" stroke="white" stroke-width="1.5" d="M0,-3.0v7 M-2.5,-0.5L0,-3.0L2.5,-0.5"/>
  </g>
  <g id="arrowRight" transform="rotate(90) translate(36 -43)">
    <use xlink:href="#rim"/>
    <path pointer-events="none" fill="none" stroke="white" stroke-width="1.5" d="M0,-3.0v7 M-2.5,-0.5L0,-3.0L2.5,-0.5"/>
  </g>
  <g id="arrowDown" transform="rotate(180) translate(-30 -48)">
    <use xlink:href="#rim"/>
    <path pointer-events="none" fill="none" stroke="white" stroke-width="1.5" d="M0,-3.0v7 M-2.5,-0.5L0,-3.0L2.5,-0.5"/>
  </g>
  <g id="arrowLeft" transform="rotate(270) translate(-36 17)">
    <use xlink:href="#rim"/>
    <path pointer-events="none" fill="none" stroke="white" stroke-width="1.5" d="M0,-3.0v7 M-2.5,-0.5L0,-3.0L2.5,-0.5"/>
  </g>
  <g id="resetDef">
    <use xlink:href="#rim2" fill="#404040"><set attributeName="fill" to="#808080" begin="reset.mouseover" end="reset.mouseout"/></use>
  </g>
</defs>
<script type="application/ecmascript">
var viewWidth = 4619;
var viewHeight = 115;
var sectionId = 'dynsection-0';
</script>
<script type="application/ecmascript" xlink:href="svg.min.js"/>
<svg id="graph" class="graph">
<g id="viewport">
<title>include/meltpooldg/level_set/signed_distance_solver.hpp</title>
<!-- Node1 -->
<g id="Node000001" class="node">
<title>Node1</title>
<g id="a_Node000001"><a xlink:title=" ">
<polygon fill="#999999" stroke="#666666" points="2697.5,-107 2551.5,-107 2551.5,-66 2697.5,-66 2697.5,-107"/>
<text text-anchor="start" x="2559.5" y="-95" font-family="Helvetica,sans-Serif" font-size="10.00">include/meltpooldg</text>
<text text-anchor="start" x="2559.5" y="-84" font-family="Helvetica,sans-Serif" font-size="10.00">/level_set/signed_distance</text>
<text text-anchor="middle" x="2624.5" y="-73" font-family="Helvetica,sans-Serif" font-size="10.00">_solver.hpp</text>
</a>
</g>
</g>
<!-- Node2 -->
<g id="Node000002" class="node">
<title>Node2</title>
<g id="a_Node000002"><a xlink:title=" ">
<polygon fill="#e0e0e0" stroke="#999999" points="121,-30 0,-30 0,0 121,0 121,-30"/>
<text text-anchor="start" x="8" y="-18" font-family="Helvetica,sans-Serif" font-size="10.00">deal.II/base/bounding</text>
<text text-anchor="middle" x="60.5" y="-7" font-family="Helvetica,sans-Serif" font-size="10.00">_box.h</text>
</a>
</g>
</g>
<!-- Node1&#45;&gt;Node2 -->
<g id="edge1_Node000001_Node000002" class="edge">
<title>Node1&#45;&gt;Node2</title>
<g id="a_edge1_Node000001_Node000002"><a xlink:title=" ">
<path fill="none" stroke="#63b8ff" d="M2551.31,-85.6C2194.94,-85.83 638.33,-83.74 131.06,-29.88"/>
<polygon fill="#63b8ff" stroke="#63b8ff" points="131.42,-26.39 121.1,-28.8 130.67,-33.35 131.42,-26.39"/>
</a>
</g>
</g>
<!-- Node3 -->
<g id="Node000003" class="node">
<title>Node3</title>
<g id="a_Node000003"><a xlink:title=" ">
<polygon fill="#e0e0e0" stroke="#999999" points="269.5,-30 139.5,-30 139.5,0 269.5,0 269.5,-30"/>
<text text-anchor="start" x="147.5" y="-18" font-family="Helvetica,sans-Serif" font-size="10.00">deal.II/base/conditional</text>
<text text-anchor="middle" x="204.5" y="-7" font-family="Helvetica,sans-Serif" font-size="10.00">_ostream.h</text>
</a>
</g>
</g>
<!-- Node1&#45;&gt;Node3 -->
<g id="edge2_Node000001_Node000003" class="edge">
<title>Node1&#45;&gt;Node3</title>
<g id="a_edge2_Node000001_Node000003"><a xlink:title=" ">
<path fill="none" stroke="#63b8ff" d="M2551.41,-85.38C2208.45,-84.57 755.82,-78.35 279.82,-29.99"/>
<polygon fill="#63b8ff" stroke="#63b8ff" points="280.09,-26.5 269.78,-28.95 279.37,-33.46 280.09,-26.5"/>
</a>
</g>
</g>
<!-- Node4 -->
<g id="Node000004" class="node">
<title>Node4</title>
<g id="a_Node000004"><a xlink:title=" ">
<polygon fill="#e0e0e0" stroke="#999999" points="413,-24.5 288,-24.5 288,-5.5 413,-5.5 413,-24.5"/>
<text text-anchor="middle" x="350.5" y="-12.5" font-family="Helvetica,sans-Serif" font-size="10.00">deal.II/base/function.h</text>
</a>
</g>
</g>
<!-- Node1&#45;&gt;Node4 -->
<g id="edge3_Node000001_Node000004" class="edge">
<title>Node1&#45;&gt;Node4</title>
<g id="a_edge3_Node000001_Node000004"><a xlink:title=" ">
<path fill="none" stroke="#63b8ff" d="M2551.24,-85.3C2218.67,-84.12 848.87,-76.5 422.5,-30 414.58,-29.14 406.23,-27.86 398.13,-26.42"/>
<polygon fill="#63b8ff" stroke="#63b8ff" points="398.53,-22.93 388.06,-24.53 397.24,-29.81 398.53,-22.93"/>
</a>
</g>
</g>
<!-- Node5 -->
<g id="Node000005" class="node">
<title>Node5</title>
<g id="a_Node000005"><a xlink:title=" ">
<polygon fill="#e0e0e0" stroke="#999999" points="541.5,-24.5 431.5,-24.5 431.5,-5.5 541.5,-5.5 541.5,-24.5"/>
<text text-anchor="middle" x="486.5" y="-12.5" font-family="Helvetica,sans-Serif" font-size="10.00">deal.II/base/point.h</text>
</a>
</g>
</g>
<!-- Node1&#45;&gt;Node5 -->
<g id="edge4_Node000001_Node000005" class="edge">
<title>Node1&#45;&gt;Node5</title>
<g id="a_edge4_Node000001_Node000005"><a xlink:title=" ">
<path fill="none" stroke="#63b8ff" d="M2551.49,-85.39C2231.35,-84.64 949.85,-78.58 550.5,-30 543.75,-29.18 536.66,-27.98 529.76,-26.62"/>
<polygon fill="#63b8ff" stroke="#63b8ff" points="530.35,-23.17 519.84,-24.54 528.91,-30.02 530.35,-23.17"/>
</a>
</g>
</g>
<!-- Node6 -->
<g id="Node000006" class="node">
<title>Node6</title>
<g id="a_Node000006"><a xlink:title=" ">
<polygon fill="#e0e0e0" stroke="#999999" points="689,-30 560,-30 560,0 689,0 689,-30"/>
<text text-anchor="start" x="568" y="-18" font-family="Helvetica,sans-Serif" font-size="10.00">deal.II/base/quadrature</text>
<text text-anchor="middle" x="624.5" y="-7" font-family="Helvetica,sans-Serif" font-size="10.00">_lib.h</text>
</a>
</g>
</g>
<!-- Node1&#45;&gt;Node6 -->
<g id="edge5_Node000001_Node000006" class="edge">
<title>Node1&#45;&gt;Node6</title>
<g id="a_edge5_Node000001_Node000006"><a xlink:title=" ">
<path fill="none" stroke="#63b8ff" d="M2551.36,-84.97C2248.08,-82.51 1087.54,-70.69 699.44,-30.07"/>
<polygon fill="#63b8ff" stroke="#63b8ff" points="699.61,-26.57 689.3,-28.99 698.87,-33.53 699.61,-26.57"/>
</a>
</g>
</g>
<!-- Node7 -->
<g id="Node000007" class="node">
<title>Node7</title>
<g id="a_Node000007"><a xlink:title=" ">
<polygon fill="#e0e0e0" stroke="#999999" points="808,-30 707,-30 707,0 808,0 808,-30"/>
<text text-anchor="start" x="715" y="-18" font-family="Helvetica,sans-Serif" font-size="10.00">deal.II/base/table</text>
<text text-anchor="middle" x="757.5" y="-7" font-family="Helvetica,sans-Serif" font-size="10.00">_handler.h</text>
</a>
</g>
</g>
<!-- Node1&#45;&gt;Node7 -->
<g id="edge6_Node000001_Node000007" class="edge">
<title>Node1&#45;&gt;Node7</title>
<g id="a_edge6_Node000001_Node000007"><a xlink:title=" ">
<path fill="none" stroke="#63b8ff" d="M2551.4,-85.23C2260.09,-83.84 1180.69,-75.75 818.22,-30.02"/>
<polygon fill="#63b8ff" stroke="#63b8ff" points="818.59,-26.54 808.23,-28.72 817.69,-33.48 818.59,-26.54"/>
</a>
</g>
</g>
<!-- Node8 -->
<g id="Node000008" class="node">
<title>Node8</title>
<g id="a_Node000008"><a xlink:title=" ">
<polygon fill="#e0e0e0" stroke="#999999" points="941,-24.5 826,-24.5 826,-5.5 941,-5.5 941,-24.5"/>
<text text-anchor="middle" x="883.5" y="-12.5" font-family="Helvetica,sans-Serif" font-size="10.00">deal.II/base/tensor.h</text>
</a>
</g>
</g>
<!-- Node1&#45;&gt;Node8 -->
<g id="edge7_Node000001_Node000008" class="edge">
<title>Node1&#45;&gt;Node8</title>
<g id="a_edge7_Node000001_Node000008"><a xlink:title=" ">
<path fill="none" stroke="#63b8ff" d="M2551.44,-84.76C2271.53,-81.66 1267.36,-68.07 950.5,-30 943.52,-29.16 936.2,-27.96 929.05,-26.62"/>
<polygon fill="#63b8ff" stroke="#63b8ff" points="929.27,-23.09 918.78,-24.56 927.9,-29.96 929.27,-23.09"/>
</a>
</g>
</g>
<!-- Node9 -->
<g id="Node000009" class="node">
<title>Node9</title>
<g id="a_Node000009"><a xlink:title=" ">
<polygon fill="#e0e0e0" stroke="#999999" points="1081.5,-24.5 959.5,-24.5 959.5,-5.5 1081.5,-5.5 1081.5,-24.5"/>
<text text-anchor="middle" x="1020.5" y="-12.5" font-family="Helvetica,sans-Serif" font-size="10.00">deal.II/base/utilities.h</text>
</a>
</g>
</g>
<!-- Node1&#45;&gt;Node9 -->
<g id="edge8_Node000001_Node000009" class="edge">
<title>Node1&#45;&gt;Node9</title>
<g id="a_edge8_Node000001_Node000009"><a xlink:title=" ">
<path fill="none" stroke="#63b8ff" d="M2551.3,-84.42C2286.46,-80.26 1378.67,-63.81 1090.5,-30 1082.97,-29.12 1075.04,-27.86 1067.33,-26.45"/>
<polygon fill="#63b8ff" stroke="#63b8ff" points="1067.86,-22.99 1057.38,-24.53 1066.54,-29.86 1067.86,-22.99"/>
</a>
</g>
</g>
<!-- Node10 -->
<g id="Node000010" class="node">
<title>Node10</title>
<g id="a_Node000010"><a xlink:title=" ">
<polygon fill="#e0e0e0" stroke="#999999" points="1239.5,-24.5 1099.5,-24.5 1099.5,-5.5 1239.5,-5.5 1239.5,-24.5"/>
<text text-anchor="middle" x="1169.5" y="-12.5" font-family="Helvetica,sans-Serif" font-size="10.00">deal.II/dofs/dof_handler.h</text>
</a>
</g>
</g>
<!-- Node1&#45;&gt;Node10 -->
<g id="edge9_Node000001_Node000010" class="edge">
<title>Node1&#45;&gt;Node10</title>
<g id="a_edge9_Node000001_Node000010"><a xlink:title=" ">
<path fill="none" stroke="#63b8ff" d="M2551.15,-86.02C2345.16,-86.73 1744.09,-83.66 1248.5,-30 1239.75,-29.05 1230.5,-27.72 1221.54,-26.25"/>
<polygon fill="#63b8ff" stroke="#63b8ff" points="1222.03,-22.78 1211.58,-24.54 1220.84,-29.68 1222.03,-22.78"/>
</a>
</g>
</g>
<!-- Node11 -->
<g id="Node000011" class="node">
<title>Node11</title>
<g id="a_Node000011"><a xlink:title=" ">
<polygon fill="#e0e0e0" stroke="#999999" points="1385.5,-24.5 1257.5,-24.5 1257.5,-5.5 1385.5,-5.5 1385.5,-24.5"/>
<text text-anchor="middle" x="1321.5" y="-12.5" font-family="Helvetica,sans-Serif" font-size="10.00">deal.II/dofs/dof_tools.h</text>
</a>
</g>
</g>
<!-- Node1&#45;&gt;Node11 -->
<g id="edge10_Node000001_Node000011" class="edge">
<title>Node1&#45;&gt;Node11</title>
<g id="a_edge10_Node000001_Node000011"><a xlink:title=" ">
<path fill="none" stroke="#63b8ff" d="M2551.42,-85.87C2360.49,-86.05 1831.29,-81.47 1394.5,-30 1386.66,-29.08 1378.4,-27.79 1370.37,-26.38"/>
<polygon fill="#63b8ff" stroke="#63b8ff" points="1370.83,-22.91 1360.36,-24.53 1369.56,-29.79 1370.83,-22.91"/>
</a>
</g>
</g>
<!-- Node12 -->
<g id="Node000012" class="node">
<title>Node12</title>
<g id="a_Node000012"><a xlink:title=" ">
<polygon fill="#e0e0e0" stroke="#999999" points="1485,-24.5 1404,-24.5 1404,-5.5 1485,-5.5 1485,-24.5"/>
<text text-anchor="middle" x="1444.5" y="-12.5" font-family="Helvetica,sans-Serif" font-size="10.00">deal.II/fe/fe.h</text>
</a>
</g>
</g>
<!-- Node1&#45;&gt;Node12 -->
<g id="edge11_Node000001_Node000012" class="edge">
<title>Node1&#45;&gt;Node12</title>
<g id="a_edge11_Node000001_Node000012"><a xlink:title=" ">
<path fill="none" stroke="#63b8ff" d="M2551.37,-84.05C2334.81,-79.4 1699.16,-63.25 1494.5,-30 1489.97,-29.26 1485.27,-28.27 1480.64,-27.14"/>
<polygon fill="#63b8ff" stroke="#63b8ff" points="1481.28,-23.69 1470.72,-24.53 1479.5,-30.46 1481.28,-23.69"/>
</a>
</g>
</g>
<!-- Node13 -->
<g id="Node000013" class="node">
<title>Node13</title>
<g id="a_Node000013"><a xlink:title=" ">
<polygon fill="#e0e0e0" stroke="#999999" points="1595.5,-24.5 1503.5,-24.5 1503.5,-5.5 1595.5,-5.5 1595.5,-24.5"/>
<text text-anchor="middle" x="1549.5" y="-12.5" font-family="Helvetica,sans-Serif" font-size="10.00">deal.II/fe/fe_q.h</text>
</a>
</g>
</g>
<!-- Node1&#45;&gt;Node13 -->
<g id="edge12_Node000001_Node000013" class="edge">
<title>Node1&#45;&gt;Node13</title>
<g id="a_edge12_Node000001_Node000013"><a xlink:title=" ">
<path fill="none" stroke="#63b8ff" d="M2551.42,-83.38C2349.59,-77.21 1787.37,-57.98 1604.5,-30 1599.34,-29.21 1593.95,-28.15 1588.66,-26.96"/>
<polygon fill="#63b8ff" stroke="#63b8ff" points="1589.22,-23.49 1578.68,-24.55 1587.58,-30.3 1589.22,-23.49"/>
</a>
</g>
</g>
<!-- Node14 -->
<g id="Node000014" class="node">
<title>Node14</title>
<g id="a_Node000014"><a xlink:title=" ">
<polygon fill="#e0e0e0" stroke="#999999" points="1723.5,-24.5 1613.5,-24.5 1613.5,-5.5 1723.5,-5.5 1723.5,-24.5"/>
<text text-anchor="middle" x="1668.5" y="-12.5" font-family="Helvetica,sans-Serif" font-size="10.00">deal.II/fe/fe_tools.h</text>
</a>
</g>
</g>
<!-- Node1&#45;&gt;Node14 -->
<g id="edge13_Node000001_Node000014" class="edge">
<title>Node1&#45;&gt;Node14</title>
<g id="a_edge13_Node000001_Node000014"><a xlink:title=" ">
<path fill="none" stroke="#63b8ff" d="M2551.28,-84.73C2398.41,-82.3 2034.46,-72.17 1732.5,-30 1726.14,-29.11 1719.48,-27.94 1712.95,-26.64"/>
<polygon fill="#63b8ff" stroke="#63b8ff" points="1713.37,-23.15 1702.87,-24.53 1711.94,-30 1713.37,-23.15"/>
</a>
</g>
</g>
<!-- Node15 -->
<g id="Node000015" class="node">
<title>Node15</title>
<g id="a_Node000015"><a xlink:title=" ">
<polygon fill="#e0e0e0" stroke="#999999" points="1867,-24.5 1742,-24.5 1742,-5.5 1867,-5.5 1867,-24.5"/>
<text text-anchor="middle" x="1804.5" y="-12.5" font-family="Helvetica,sans-Serif" font-size="10.00">deal.II/fe/mapping_q.h</text>
</a>
</g>
</g>
<!-- Node1&#45;&gt;Node15 -->
<g id="edge14_Node000001_Node000015" class="edge">
<title>Node1&#45;&gt;Node15</title>
<g id="a_edge14_Node000001_Node000015"><a xlink:title=" ">
<path fill="none" stroke="#63b8ff" d="M2551.47,-82.94C2417.29,-77.61 2122.7,-62.95 1876.5,-30 1869.21,-29.02 1861.55,-27.78 1854.05,-26.43"/>
<polygon fill="#63b8ff" stroke="#63b8ff" points="1854.45,-22.94 1843.97,-24.55 1853.16,-29.82 1854.45,-22.94"/>
</a>
</g>
</g>
<!-- Node16 -->
<g id="Node000016" class="node">
<title>Node16</title>
<g id="a_Node000016"><a xlink:title=" ">
<polygon fill="#e0e0e0" stroke="#999999" points="2013.5,-24.5 1885.5,-24.5 1885.5,-5.5 2013.5,-5.5 2013.5,-24.5"/>
<text text-anchor="middle" x="1949.5" y="-12.5" font-family="Helvetica,sans-Serif" font-size="10.00">deal.II/grid/grid_tools.h</text>
</a>
</g>
</g>
<!-- Node1&#45;&gt;Node16 -->
<g id="edge15_Node000001_Node000016" class="edge">
<title>Node1&#45;&gt;Node16</title>
<g id="a_edge15_Node000001_Node000016"><a xlink:title=" ">
<path fill="none" stroke="#63b8ff" d="M2551.49,-81.08C2437.96,-73.68 2212.41,-56.9 2022.5,-30 2015.3,-28.98 2007.73,-27.73 2000.3,-26.4"/>
<polygon fill="#63b8ff" stroke="#63b8ff" points="2000.78,-22.93 1990.31,-24.55 1999.51,-29.81 2000.78,-22.93"/>
</a>
</g>
</g>
<!-- Node17 -->
<g id="Node000017" class="node">
<title>Node17</title>
<g id="a_Node000017"><a xlink:title=" ">
<polygon fill="#e0e0e0" stroke="#999999" points="2129,-24.5 2032,-24.5 2032,-5.5 2129,-5.5 2129,-24.5"/>
<text text-anchor="middle" x="2080.5" y="-12.5" font-family="Helvetica,sans-Serif" font-size="10.00">deal.II/grid/tria.h</text>
</a>
</g>
</g>
<!-- Node1&#45;&gt;Node17 -->
<g id="edge16_Node000001_Node000017" class="edge">
<title>Node1&#45;&gt;Node17</title>
<g id="a_edge16_Node000001_Node000017"><a xlink:title=" ">
<path fill="none" stroke="#63b8ff" d="M2551.23,-79.96C2455.74,-72.1 2283.79,-55.73 2138.5,-30 2133.4,-29.1 2128.09,-28.01 2122.83,-26.85"/>
<polygon fill="#63b8ff" stroke="#63b8ff" points="2123.4,-23.39 2112.87,-24.56 2121.83,-30.21 2123.4,-23.39"/>
</a>
</g>
</g>
<!-- Node18 -->
<g id="Node000018" class="node">
<title>Node18</title>
<g id="a_Node000018"><a xlink:title=" ">
<polygon fill="#e0e0e0" stroke="#999999" points="2283.5,-24.5 2147.5,-24.5 2147.5,-5.5 2283.5,-5.5 2283.5,-24.5"/>
<text text-anchor="middle" x="2215.5" y="-12.5" font-family="Helvetica,sans-Serif" font-size="10.00">deal.II/hp/fe_collection.h</text>
</a>
</g>
</g>
<!-- Node1&#45;&gt;Node18 -->
<g id="edge17_Node000001_Node000018" class="edge">
<title>Node1&#45;&gt;Node18</title>
<g id="a_edge17_Node000001_Node000018"><a xlink:title=" ">
<path fill="none" stroke="#63b8ff" d="M2551.26,-73.56C2483.95,-62.52 2381.44,-45.52 2292.5,-30 2285.85,-28.84 2278.87,-27.6 2271.95,-26.36"/>
<polygon fill="#63b8ff" stroke="#63b8ff" points="2272.36,-22.88 2261.9,-24.55 2271.12,-29.77 2272.36,-22.88"/>
</a>
</g>
</g>
<!-- Node19 -->
<g id="Node000019" class="node">
<title>Node19</title>
<g id="a_Node000019"><a xlink:title=" ">
<polygon fill="#e0e0e0" stroke="#999999" points="2433.5,-24.5 2301.5,-24.5 2301.5,-5.5 2433.5,-5.5 2433.5,-24.5"/>
<text text-anchor="middle" x="2367.5" y="-12.5" font-family="Helvetica,sans-Serif" font-size="10.00">deal.II/hp/q_collection.h</text>
</a>
</g>
</g>
<!-- Node1&#45;&gt;Node19 -->
<g id="edge18_Node000001_Node000019" class="edge">
<title>Node1&#45;&gt;Node19</title>
<g id="a_edge18_Node000001_Node000019"><a xlink:title=" ">
<path fill="none" stroke="#63b8ff" d="M2552.23,-65.96C2505.89,-53.42 2447.4,-37.61 2408.8,-27.17"/>
<polygon fill="#63b8ff" stroke="#63b8ff" points="2409.51,-23.74 2398.94,-24.5 2407.68,-30.49 2409.51,-23.74"/>
</a>
</g>
</g>
<!-- Node20 -->
<g id="Node000020" class="node">
<title>Node20</title>
<g id="a_Node000020"><a xlink:title=" ">
<polygon fill="#e0e0e0" stroke="#999999" points="2547,-30 2452,-30 2452,0 2547,0 2547,-30"/>
<text text-anchor="start" x="2460" y="-18" font-family="Helvetica,sans-Serif" font-size="10.00">deal.II/lac/affine</text>
<text text-anchor="middle" x="2499.5" y="-7" font-family="Helvetica,sans-Serif" font-size="10.00">_constraints.h</text>
</a>
</g>
</g>
<!-- Node1&#45;&gt;Node20 -->
<g id="edge19_Node000001_Node000020" class="edge">
<title>Node1&#45;&gt;Node20</title>
<g id="a_edge19_Node000001_Node000020"><a xlink:title=" ">
<path fill="none" stroke="#63b8ff" d="M2589.35,-65.96C2572.04,-56.33 2551.26,-44.78 2534.04,-35.2"/>
<polygon fill="#63b8ff" stroke="#63b8ff" points="2535.32,-31.91 2524.88,-30.11 2531.92,-38.03 2535.32,-31.91"/>
</a>
</g>
</g>
<!-- Node21 -->
<g id="Node000021" class="node">
<title>Node21</title>
<g id="a_Node000021"><a xlink:title=" ">
<polygon fill="#e0e0e0" stroke="#999999" points="2683.5,-30 2565.5,-30 2565.5,0 2683.5,0 2683.5,-30"/>
<text text-anchor="start" x="2573.5" y="-18" font-family="Helvetica,sans-Serif" font-size="10.00">deal.II/lac/la_parallel</text>
<text text-anchor="middle" x="2624.5" y="-7" font-family="Helvetica,sans-Serif" font-size="10.00">_vector.h</text>
</a>
</g>
</g>
<!-- Node1&#45;&gt;Node21 -->
<g id="edge20_Node000001_Node000021" class="edge">
<title>Node1&#45;&gt;Node21</title>
<g id="a_edge20_Node000001_Node000021"><a xlink:title=" ">
<path fill="none" stroke="#63b8ff" d="M2624.5,-65.77C2624.5,-57.85 2624.5,-48.63 2624.5,-40.3"/>
<polygon fill="#63b8ff" stroke="#63b8ff" points="2628,-40.04 2624.5,-30.04 2621,-40.04 2628,-40.04"/>
</a>
</g>
</g>
<!-- Node22 -->
<g id="Node000022" class="node">
<title>Node22</title>
<g id="a_Node000022"><a xlink:title=" ">
<polygon fill="#e0e0e0" stroke="#999999" points="2801,-30 2702,-30 2702,0 2801,0 2801,-30"/>
<text text-anchor="start" x="2710" y="-18" font-family="Helvetica,sans-Serif" font-size="10.00">deal.II/lac/lapack</text>
<text text-anchor="middle" x="2751.5" y="-7" font-family="Helvetica,sans-Serif" font-size="10.00">_full_matrix.h</text>
</a>
</g>
</g>
<!-- Node1&#45;&gt;Node22 -->
<g id="edge21_Node000001_Node000022" class="edge">
<title>Node1&#45;&gt;Node22</title>
<g id="a_edge21_Node000001_Node000022"><a xlink:title=" ">
<path fill="none" stroke="#63b8ff" d="M2660.21,-65.96C2677.96,-56.25 2699.31,-44.56 2716.89,-34.94"/>
<polygon fill="#63b8ff" stroke="#63b8ff" points="2718.62,-37.98 2725.71,-30.11 2715.26,-31.84 2718.62,-37.98"/>
</a>
</g>
</g>
<!-- Node23 -->
<g id="Node000023" class="node">
<title>Node23</title>
<g id="a_Node000023"><a xlink:title=" ">
<polygon fill="#e0e0e0" stroke="#999999" points="2925.5,-24.5 2819.5,-24.5 2819.5,-5.5 2925.5,-5.5 2925.5,-24.5"/>
<text text-anchor="middle" x="2872.5" y="-12.5" font-family="Helvetica,sans-Serif" font-size="10.00">deal.II/lac/vector.h</text>
</a>
</g>
</g>
<!-- Node1&#45;&gt;Node23 -->
<g id="edge22_Node000001_Node000023" class="edge">
<title>Node1&#45;&gt;Node23</title>
<g id="a_edge22_Node000001_Node000023"><a xlink:title=" ">
<path fill="none" stroke="#63b8ff" d="M2694.24,-65.96C2738.77,-53.48 2794.92,-37.74 2832.17,-27.3"/>
<polygon fill="#63b8ff" stroke="#63b8ff" points="2833.47,-30.57 2842.16,-24.5 2831.58,-23.83 2833.47,-30.57"/>
</a>
</g>
</g>
<!-- Node24 -->
<g id="Node000024" class="node">
<title>Node24</title>
<g id="a_Node000024"><a xlink:title=" ">
<polygon fill="#e0e0e0" stroke="#999999" points="3069,-30 2944,-30 2944,0 3069,0 3069,-30"/>
<text text-anchor="start" x="2952" y="-18" font-family="Helvetica,sans-Serif" font-size="10.00">deal.II/matrix_free</text>
<text text-anchor="middle" x="3006.5" y="-7" font-family="Helvetica,sans-Serif" font-size="10.00">/fe_point_evaluation.h</text>
</a>
</g>
</g>
<!-- Node1&#45;&gt;Node24 -->
<g id="edge23_Node000001_Node000024" class="edge">
<title>Node1&#45;&gt;Node24</title>
<g id="a_edge23_Node000001_Node000024"><a xlink:title=" ">
<path fill="none" stroke="#63b8ff" d="M2697.53,-72.74C2758.05,-62.1 2846.61,-46.35 2933.63,-30.15"/>
<polygon fill="#63b8ff" stroke="#63b8ff" points="2934.49,-33.55 2943.68,-28.27 2933.21,-26.66 2934.49,-33.55"/>
</a>
</g>
</g>
<!-- Node25 -->
<g id="Node000025" class="node">
<title>Node25</title>
<g id="a_Node000025"><a xlink:title=" ">
<polygon fill="#e0e0e0" stroke="#999999" points="3218,-30 3087,-30 3087,0 3218,0 3218,-30"/>
<text text-anchor="start" x="3095" y="-18" font-family="Helvetica,sans-Serif" font-size="10.00">deal.II/non_matching</text>
<text text-anchor="middle" x="3152.5" y="-7" font-family="Helvetica,sans-Serif" font-size="10.00">/fe_immersed_values.h</text>
</a>
</g>
</g>
<!-- Node1&#45;&gt;Node25 -->
<g id="edge24_Node000001_Node000025" class="edge">
<title>Node1&#45;&gt;Node25</title>
<g id="a_edge24_Node000001_Node000025"><a xlink:title=" ">
<path fill="none" stroke="#63b8ff" d="M2697.83,-78.03C2785.65,-68.74 2937.4,-51.63 3076.76,-30.22"/>
<polygon fill="#63b8ff" stroke="#63b8ff" points="3077.42,-33.65 3086.77,-28.67 3076.35,-26.74 3077.42,-33.65"/>
</a>
</g>
</g>
<!-- Node26 -->
<g id="Node000026" class="node">
<title>Node26</title>
<g id="a_Node000026"><a xlink:title=" ">
<polygon fill="#e0e0e0" stroke="#999999" points="3355,-30 3236,-30 3236,0 3355,0 3355,-30"/>
<text text-anchor="start" x="3244" y="-18" font-family="Helvetica,sans-Serif" font-size="10.00">deal.II/non_matching</text>
<text text-anchor="middle" x="3295.5" y="-7" font-family="Helvetica,sans-Serif" font-size="10.00">/fe_values.h</text>
</a>
</g>
</g>
<!-- Node1&#45;&gt;Node26 -->
<g id="edge25_Node000001_Node000026" class="edge">
<title>Node1&#45;&gt;Node26</title>
<g id="a_edge25_Node000001_Node000026"><a xlink:title=" ">
<path fill="none" stroke="#63b8ff" d="M2697.68,-81.4C2809.56,-74.55 3029.99,-58.76 3225.96,-30.13"/>
<polygon fill="#63b8ff" stroke="#63b8ff" points="3226.48,-33.59 3235.86,-28.67 3225.46,-26.67 3226.48,-33.59"/>
</a>
</g>
</g>
<!-- Node27 -->
<g id="Node000027" class="node">
<title>Node27</title>
<g id="a_Node000027"><a xlink:title=" ">
<polygon fill="#e0e0e0" stroke="#999999" points="3492,-30 3373,-30 3373,0 3492,0 3492,-30"/>
<text text-anchor="start" x="3381" y="-18" font-family="Helvetica,sans-Serif" font-size="10.00">deal.II/non_matching</text>
<text text-anchor="middle" x="3432.5" y="-7" font-family="Helvetica,sans-Serif" font-size="10.00">/mesh_classifier.h</text>
</a>
</g>
</g>
<!-- Node1&#45;&gt;Node27 -->
<g id="edge26_Node000001_Node000027" class="edge">
<title>Node1&#45;&gt;Node27</title>
<g id="a_edge26_Node000001_Node000027"><a xlink:title=" ">
<path fill="none" stroke="#63b8ff" d="M2697.57,-83.13C2828.98,-78.18 3113.96,-64.34 3362.91,-30.11"/>
<polygon fill="#63b8ff" stroke="#63b8ff" points="3363.45,-33.57 3372.87,-28.73 3362.48,-26.64 3363.45,-33.57"/>
</a>
</g>
</g>
<!-- Node28 -->
<g id="Node000028" class="node">
<title>Node28</title>
<g id="a_Node000028"><a xlink:title=" ">
<polygon fill="#e0e0e0" stroke="#999999" points="3644.5,-30 3510.5,-30 3510.5,0 3644.5,0 3644.5,-30"/>
<text text-anchor="start" x="3518.5" y="-18" font-family="Helvetica,sans-Serif" font-size="10.00">deal.II/non_matching</text>
<text text-anchor="middle" x="3577.5" y="-7" font-family="Helvetica,sans-Serif" font-size="10.00">/quadrature_generator.h</text>
</a>
</g>
</g>
<!-- Node1&#45;&gt;Node28 -->
<g id="edge27_Node000001_Node000028" class="edge">
<title>Node1&#45;&gt;Node28</title>
<g id="a_edge27_Node000001_Node000028"><a xlink:title=" ">
<path fill="none" stroke="#63b8ff" d="M2697.54,-83.81C2846.61,-79.73 3196.75,-66.89 3500.11,-30.07"/>
<polygon fill="#63b8ff" stroke="#63b8ff" points="3500.93,-33.49 3510.43,-28.8 3500.08,-26.54 3500.93,-33.49"/>
</a>
</g>
</g>
<!-- Node29 -->
<g id="Node000029" class="node">
<title>Node29</title>
<g id="a_Node000029"><a xlink:title=" ">
<polygon fill="#e0e0e0" stroke="#999999" points="3782,-30 3663,-30 3663,0 3782,0 3782,-30"/>
<text text-anchor="start" x="3671" y="-18" font-family="Helvetica,sans-Serif" font-size="10.00">deal.II/numerics/data</text>
<text text-anchor="middle" x="3722.5" y="-7" font-family="Helvetica,sans-Serif" font-size="10.00">_out.h</text>
</a>
</g>
</g>
<!-- Node1&#45;&gt;Node29 -->
<g id="edge28_Node000001_Node000029" class="edge">
<title>Node1&#45;&gt;Node29</title>
<g id="a_edge28_Node000001_Node000029"><a xlink:title=" ">
<path fill="none" stroke="#63b8ff" d="M2697.5,-85.22C2864.89,-83.79 3289.26,-75.68 3652.82,-29.94"/>
<polygon fill="#63b8ff" stroke="#63b8ff" points="3653.27,-33.41 3662.75,-28.68 3652.39,-26.47 3653.27,-33.41"/>
</a>
</g>
</g>
<!-- Node30 -->
<g id="Node000030" class="node">
<title>Node30</title>
<g id="a_Node000030"><a xlink:title=" ">
<polygon fill="#e0e0e0" stroke="#999999" points="3928.5,-30 3800.5,-30 3800.5,0 3928.5,0 3928.5,-30"/>
<text text-anchor="start" x="3808.5" y="-18" font-family="Helvetica,sans-Serif" font-size="10.00">deal.II/numerics/vector</text>
<text text-anchor="middle" x="3864.5" y="-7" font-family="Helvetica,sans-Serif" font-size="10.00">_tools.h</text>
</a>
</g>
</g>
<!-- Node1&#45;&gt;Node30 -->
<g id="edge29_Node000001_Node000030" class="edge">
<title>Node1&#45;&gt;Node30</title>
<g id="a_edge29_Node000001_Node000030"><a xlink:title=" ">
<path fill="none" stroke="#63b8ff" d="M2697.51,-85.62C2880.21,-85.14 3371.86,-79.11 3790.3,-30.01"/>
<polygon fill="#63b8ff" stroke="#63b8ff" points="3790.97,-33.46 3800.49,-28.81 3790.14,-26.51 3790.97,-33.46"/>
</a>
</g>
</g>
<!-- Node31 -->
<g id="Node000031" class="node">
<title>Node31</title>
<g id="a_Node000031"><a xlink:title=" ">
<polygon fill="#e0e0e0" stroke="#999999" points="4010.5,-24.5 3946.5,-24.5 3946.5,-5.5 4010.5,-5.5 4010.5,-24.5"/>
<text text-anchor="middle" x="3978.5" y="-12.5" font-family="Helvetica,sans-Serif" font-size="10.00">algorithm</text>
</a>
</g>
</g>
<!-- Node1&#45;&gt;Node31 -->
<g id="edge30_Node000001_Node000031" class="edge">
<title>Node1&#45;&gt;Node31</title>
<g id="a_edge30_Node000001_Node000031"><a xlink:title=" ">
<path fill="none" stroke="#63b8ff" d="M2697.87,-85.16C2937.72,-83.61 3697.01,-75.17 3937.5,-30 3940.75,-29.39 3944.1,-28.57 3947.41,-27.64"/>
<polygon fill="#63b8ff" stroke="#63b8ff" points="3948.62,-30.93 3957.11,-24.6 3946.52,-24.26 3948.62,-30.93"/>
</a>
</g>
</g>
<!-- Node32 -->
<g id="Node000032" class="node">
<title>Node32</title>
<g id="a_Node000032"><a xlink:title=" ">
<polygon fill="#e0e0e0" stroke="#999999" points="4076,-24.5 4029,-24.5 4029,-5.5 4076,-5.5 4076,-24.5"/>
<text text-anchor="middle" x="4052.5" y="-12.5" font-family="Helvetica,sans-Serif" font-size="10.00">cmath</text>
</a>
</g>
</g>
<!-- Node1&#45;&gt;Node32 -->
<g id="edge31_Node000001_Node000032" class="edge">
<title>Node1&#45;&gt;Node32</title>
<g id="a_edge31_Node000001_Node000032"><a xlink:title=" ">
<path fill="none" stroke="#63b8ff" d="M2697.75,-86.05C2947.5,-87.4 3764.22,-87.22 4019.5,-30 4021.67,-29.51 4023.88,-28.89 4026.07,-28.18"/>
<polygon fill="#63b8ff" stroke="#63b8ff" points="4027.32,-31.45 4035.42,-24.63 4024.83,-24.9 4027.32,-31.45"/>
</a>
</g>
</g>
<!-- Node33 -->
<g id="Node000033" class="node">
<title>Node33</title>
<g id="a_Node000033"><a xlink:title=" ">
<polygon fill="#e0e0e0" stroke="#999999" points="4149,-24.5 4094,-24.5 4094,-5.5 4149,-5.5 4149,-24.5"/>
<text text-anchor="middle" x="4121.5" y="-12.5" font-family="Helvetica,sans-Serif" font-size="10.00">fstream</text>
</a>
</g>
</g>
<!-- Node1&#45;&gt;Node33 -->
<g id="edge32_Node000001_Node000033" class="edge">
<title>Node1&#45;&gt;Node33</title>
<g id="a_edge32_Node000001_Node000033"><a xlink:title=" ">
<path fill="none" stroke="#63b8ff" d="M2697.56,-85.92C2954.57,-86.91 3815.99,-85.88 4085.5,-30 4088.03,-29.48 4090.61,-28.79 4093.17,-28.01"/>
<polygon fill="#63b8ff" stroke="#63b8ff" points="4094.53,-31.24 4102.8,-24.63 4092.21,-24.64 4094.53,-31.24"/>
</a>
</g>
</g>
<!-- Node34 -->
<g id="Node000034" class="node">
<title>Node34</title>
<g id="a_Node000034"><a xlink:title=" ">
<polygon fill="#e0e0e0" stroke="#999999" points="4227.5,-24.5 4167.5,-24.5 4167.5,-5.5 4227.5,-5.5 4227.5,-24.5"/>
<text text-anchor="middle" x="4197.5" y="-12.5" font-family="Helvetica,sans-Serif" font-size="10.00">iostream</text>
</a>
</g>
</g>
<!-- Node1&#45;&gt;Node34 -->
<g id="edge33_Node000001_Node000034" class="edge">
<title>Node1&#45;&gt;Node34</title>
<g id="a_edge33_Node000001_Node000034"><a xlink:title=" ">
<path fill="none" stroke="#63b8ff" d="M2697.92,-85.83C2963.52,-86.56 3873.6,-84.91 4158.5,-30 4161.51,-29.42 4164.6,-28.64 4167.66,-27.76"/>
<polygon fill="#63b8ff" stroke="#63b8ff" points="4168.78,-31.07 4177.19,-24.63 4166.6,-24.42 4168.78,-31.07"/>
</a>
</g>
</g>
<!-- Node35 -->
<g id="Node000035" class="node">
<title>Node35</title>
<g id="a_Node000035"><a xlink:title=" ">
<polygon fill="#e0e0e0" stroke="#999999" points="4283.5,-24.5 4245.5,-24.5 4245.5,-5.5 4283.5,-5.5 4283.5,-24.5"/>
<text text-anchor="middle" x="4264.5" y="-12.5" font-family="Helvetica,sans-Serif" font-size="10.00">map</text>
</a>
</g>
</g>
<!-- Node1&#45;&gt;Node35 -->
<g id="edge34_Node000001_Node000035" class="edge">
<title>Node1&#45;&gt;Node35</title>
<g id="a_edge34_Node000001_Node000035"><a xlink:title=" ">
<path fill="none" stroke="#63b8ff" d="M2697.75,-84.81C2992.91,-81.8 4086.47,-68.15 4236.5,-30 4237.98,-29.62 4239.48,-29.16 4240.96,-28.63"/>
<polygon fill="#63b8ff" stroke="#63b8ff" points="4242.66,-31.71 4250.43,-24.5 4239.86,-25.3 4242.66,-31.71"/>
</a>
</g>
</g>
<!-- Node36 -->
<g id="Node000036" class="node">
<title>Node36</title>
<g id="a_Node000036"><a xlink:title=" ">
<polygon fill="#e0e0e0" stroke="#999999" points="4359.5,-24.5 4301.5,-24.5 4301.5,-5.5 4359.5,-5.5 4359.5,-24.5"/>
<text text-anchor="middle" x="4330.5" y="-12.5" font-family="Helvetica,sans-Serif" font-size="10.00">memory</text>
</a>
</g>
</g>
<!-- Node1&#45;&gt;Node36 -->
<g id="edge35_Node000001_Node000036" class="edge">
<title>Node1&#45;&gt;Node36</title>
<g id="a_edge35_Node000001_Node000036"><a xlink:title=" ">
<path fill="none" stroke="#63b8ff" d="M2697.62,-84.44C2998.78,-79.89 4134.86,-60.83 4292.5,-30 4295.35,-29.44 4298.26,-28.7 4301.15,-27.85"/>
<polygon fill="#63b8ff" stroke="#63b8ff" points="4302.36,-31.14 4310.73,-24.64 4300.13,-24.5 4302.36,-31.14"/>
</a>
</g>
</g>
<!-- Node37 -->
<g id="Node000037" class="node">
<title>Node37</title>
<g id="a_Node000037"><a xlink:title=" ">
<polygon fill="#e0e0e0" stroke="#999999" points="4433.5,-24.5 4377.5,-24.5 4377.5,-5.5 4433.5,-5.5 4433.5,-24.5"/>
<text text-anchor="middle" x="4405.5" y="-12.5" font-family="Helvetica,sans-Serif" font-size="10.00">optional</text>
</a>
</g>
</g>
<!-- Node1&#45;&gt;Node37 -->
<g id="edge36_Node000001_Node000037" class="edge">
<title>Node1&#45;&gt;Node37</title>
<g id="a_edge36_Node000001_Node000037"><a xlink:title=" ">
<path fill="none" stroke="#63b8ff" d="M2697.53,-84.59C3007.15,-80.56 4203.2,-62.95 4368.5,-30 4371.34,-29.43 4374.25,-28.67 4377.13,-27.8"/>
<polygon fill="#63b8ff" stroke="#63b8ff" points="4378.35,-31.08 4386.65,-24.5 4376.06,-24.47 4378.35,-31.08"/>
</a>
</g>
</g>
<!-- Node38 -->
<g id="Node000038" class="node">
<title>Node38</title>
<g id="a_Node000038"><a xlink:title=" ">
<polygon fill="#e0e0e0" stroke="#999999" points="4483.5,-24.5 4451.5,-24.5 4451.5,-5.5 4483.5,-5.5 4483.5,-24.5"/>
<text text-anchor="middle" x="4467.5" y="-12.5" font-family="Helvetica,sans-Serif" font-size="10.00">set</text>
</a>
</g>
</g>
<!-- Node1&#45;&gt;Node38 -->
<g id="edge37_Node000001_Node000038" class="edge">
<title>Node1&#45;&gt;Node38</title>
<g id="a_edge37_Node000001_Node000038"><a xlink:title=" ">
<path fill="none" stroke="#63b8ff" d="M2697.54,-85.32C3015.74,-84.26 4272.62,-77.11 4442.5,-30 4443.58,-29.7 4444.66,-29.35 4445.74,-28.95"/>
<polygon fill="#63b8ff" stroke="#63b8ff" points="4447.52,-31.98 4455.04,-24.52 4444.51,-25.66 4447.52,-31.98"/>
</a>
</g>
</g>
<!-- Node39 -->
<g id="Node000039" class="node">
<title>Node39</title>
<g id="a_Node000039"><a xlink:title=" ">
<polygon fill="#e0e0e0" stroke="#999999" points="4545.5,-24.5 4501.5,-24.5 4501.5,-5.5 4545.5,-5.5 4545.5,-24.5"/>
<text text-anchor="middle" x="4523.5" y="-12.5" font-family="Helvetica,sans-Serif" font-size="10.00">string</text>
</a>
</g>
</g>
<!-- Node1&#45;&gt;Node39 -->
<g id="edge38_Node000001_Node000039" class="edge">
<title>Node1&#45;&gt;Node39</title>
<g id="a_edge38_Node000001_Node000039"><a xlink:title=" ">
<path fill="none" stroke="#63b8ff" d="M2697.55,-85.02C3020.95,-82.69 4315.67,-70.84 4492.5,-30 4494.44,-29.55 4496.41,-28.98 4498.37,-28.32"/>
<polygon fill="#63b8ff" stroke="#63b8ff" points="4499.86,-31.49 4507.83,-24.52 4497.25,-25 4499.86,-31.49"/>
</a>
</g>
</g>
<!-- Node40 -->
<g id="Node000040" class="node">
<title>Node40</title>
<g id="a_Node000040"><a xlink:title=" ">
<polygon fill="#e0e0e0" stroke="#999999" points="4611,-24.5 4564,-24.5 4564,-5.5 4611,-5.5 4611,-24.5"/>
<text text-anchor="middle" x="4587.5" y="-12.5" font-family="Helvetica,sans-Serif" font-size="10.00">vector</text>
</a>
</g>
</g>
<!-- Node1&#45;&gt;Node40 -->
<g id="edge39_Node000001_Node000040" class="edge">
<title>Node1&#45;&gt;Node40</title>
<g id="a_edge39_Node000001_Node000040"><a xlink:title=" ">
<path fill="none" stroke="#63b8ff" d="M2697.72,-85C3028,-82.53 4370.9,-70.09 4554.5,-30 4556.72,-29.51 4558.98,-28.88 4561.23,-28.15"/>
<polygon fill="#63b8ff" stroke="#63b8ff" points="4562.67,-31.35 4570.77,-24.52 4560.18,-24.81 4562.67,-31.35"/>
</a>
</g>
</g>
</g>
</svg>

<g id="navigator" transform="translate(0 0)" fill="#404254">
  <rect fill="#f2f5e9" fill-opacity="0.5" stroke="#606060" stroke-width=".5" x="0" y="0" width="60" height="60"/>
  <use id="zoomplus" xlink:href="#zoomPlus" x="17" y="9" onmousedown="handleZoom(evt,'in')"/>
  <use id="zoomminus" xlink:href="#zoomMin" x="42" y="9" onmousedown="handleZoom(evt,'out')"/>
  <use id="reset" xlink:href="#resetDef" x="30" y="36" onmousedown="handleReset()"/>
   <use id="arrowup" xlink:href="#arrowUp" x="0" y="0" onmousedown="handlePan(0,-1)"/>
  <use id="arrowright" xlink:href="#arrowRight" x="0" y="0" onmousedown="handlePan(1,0)"/>
  <use id="arrowdown" xlink:href="#arrowDown" x="0" y="0" onmousedown="handlePan(0,1)"/>
  <use id="arrowleft" xlink:href="#arrowLeft" x="0" y="0" onmousedown="handlePan(-1,0)"/>
</g>
<svg viewBox="0 0 15 15" width="100%" height="30px" preserveAspectRatio="xMaxYMin meet">
 <g id="arrow_out" transform="scale(0.3 0.3)">
  <a xlink:href="signed__distance__solver_8hpp__incl_org.svg" target="_base">
   <rect id="button" ry="5" rx="5" y="6" x="6" height="38" width="38"
        fill="#f2f5e9" fill-opacity="0.5" stroke="#606060" stroke-width="1.0"/>
   <path id="arrow"
     d="M 11.500037,31.436501 C 11.940474,20.09759 22.043105,11.32322 32.158766,21.979434 L 37.068811,17.246167 C 37.068811,17.246167 37.088388,32 37.088388,32 L 22.160133,31.978069 C 22.160133,31.978069 26.997745,27.140456 26.997745,27.140456 C 18.528582,18.264221 13.291696,25.230495 11.500037,31.436501 z"
     style="fill:#404040;"/>
  </a>
 </g>
</svg>

<style type='text/css'>
<![CDATA[
[data-mouse-over-selected='false'] { opacity: 0.7; }
[data-mouse-over-selected='true']  { opacity: 1.0; }
]]>
</style>
<script type="application/ecmascript"><![CDATA[
document.addEventListener('DOMContentLoaded', (event) => {
  highlightEdges();
  highlightAdjacentNodes();
});
]]></script>
</svg>
