<?xml version="1.0" encoding="UTF-8" standalone="no"?>
<!DOCTYPE svg PUBLIC "-//W3C//DTD SVG 1.1//EN"
 "http://www.w3.org/Graphics/SVG/1.1/DTD/svg11.dtd">
<!-- Generated by graphviz version 2.43.0 (0)
 -->
<!-- Title: include/meltpooldg/core/simulation_case_base.hpp Pages: 1 -->
<svg width="2793pt" height="247pt"
 viewBox="0.00 0.00 2792.50 247.00" xmlns="http://www.w3.org/2000/svg" xmlns:xlink="http://www.w3.org/1999/xlink">
<g id="graph0" class="graph" transform="scale(1 1) rotate(0) translate(4 243)">
<title>include/meltpooldg/core/simulation_case_base.hpp</title>
<!-- Node1 -->
<g id="Node000001" class="node">
<title>Node1</title>
<g id="a_Node000001"><a xlink:title=" ">
<polygon fill="#999999" stroke="#666666" points="1310,-239 1187,-239 1187,-198 1310,-198 1310,-239"/>
<text text-anchor="start" x="1195" y="-227" font-family="Helvetica,sans-Serif" font-size="10.00">include/meltpooldg</text>
<text text-anchor="start" x="1195" y="-216" font-family="Helvetica,sans-Serif" font-size="10.00">/core/simulation_case</text>
<text text-anchor="middle" x="1248.5" y="-205" font-family="Helvetica,sans-Serif" font-size="10.00">_base.hpp</text>
</a>
</g>
</g>
<!-- Node2 -->
<g id="Node000002" class="node">
<title>Node2</title>
<g id="a_Node000002"><a xlink:title=" ">
<polygon fill="#e0e0e0" stroke="#999999" points="125,-90.5 0,-90.5 0,-71.5 125,-71.5 125,-90.5"/>
<text text-anchor="middle" x="62.5" y="-78.5" font-family="Helvetica,sans-Serif" font-size="10.00">deal.II/base/function.h</text>
</a>
</g>
</g>
<!-- Node1&#45;&gt;Node2 -->
<g id="edge1_Node000001_Node000002" class="edge">
<title>Node1&#45;&gt;Node2</title>
<g id="a_edge1_Node000001_Node000002"><a xlink:title=" ">
<path fill="none" stroke="#63b8ff" d="M1186.92,-216.37C1001.93,-212.58 453.21,-198.5 278.5,-162 207.8,-147.23 129.35,-113.48 89.27,-94.89"/>
<polygon fill="#63b8ff" stroke="#63b8ff" points="90.71,-91.69 80.17,-90.61 87.73,-98.03 90.71,-91.69"/>
</a>
</g>
</g>
<!-- Node3 -->
<g id="Node000003" class="node">
<title>Node3</title>
<g id="a_Node000003"><a xlink:title=" ">
<polygon fill="#e0e0e0" stroke="#999999" points="941.5,-90.5 837.5,-90.5 837.5,-71.5 941.5,-71.5 941.5,-90.5"/>
<text text-anchor="middle" x="889.5" y="-78.5" font-family="Helvetica,sans-Serif" font-size="10.00">deal.II/base/mpi.h</text>
</a>
</g>
</g>
<!-- Node1&#45;&gt;Node3 -->
<g id="edge2_Node000001_Node000003" class="edge">
<title>Node1&#45;&gt;Node3</title>
<g id="a_edge2_Node000001_Node000003"><a xlink:title=" ">
<path fill="none" stroke="#63b8ff" d="M1186.94,-202.16C1149.35,-192.15 1100.58,-177.99 1058.5,-162 1005.98,-142.04 947.22,-112.5 914.67,-95.46"/>
<polygon fill="#63b8ff" stroke="#63b8ff" points="915.92,-92.16 905.44,-90.59 912.66,-98.35 915.92,-92.16"/>
</a>
</g>
</g>
<!-- Node4 -->
<g id="Node000004" class="node">
<title>Node4</title>
<g id="a_Node000004"><a xlink:title=" ">
<polygon fill="#e0e0e0" stroke="#999999" points="2045,-96 1918,-96 1918,-66 2045,-66 2045,-96"/>
<text text-anchor="start" x="1926" y="-84" font-family="Helvetica,sans-Serif" font-size="10.00">deal.II/base/parameter</text>
<text text-anchor="middle" x="1981.5" y="-73" font-family="Helvetica,sans-Serif" font-size="10.00">_handler.h</text>
</a>
</g>
</g>
<!-- Node1&#45;&gt;Node4 -->
<g id="edge3_Node000001_Node000004" class="edge">
<title>Node1&#45;&gt;Node4</title>
<g id="a_edge3_Node000001_Node000004"><a xlink:title=" ">
<path fill="none" stroke="#63b8ff" d="M1310.4,-206.26C1425.61,-185.31 1681.03,-138.71 1907.71,-96.14"/>
<polygon fill="#63b8ff" stroke="#63b8ff" points="1908.62,-99.53 1917.8,-94.24 1907.33,-92.65 1908.62,-99.53"/>
</a>
</g>
</g>
<!-- Node5 -->
<g id="Node000005" class="node">
<title>Node5</title>
<g id="a_Node000005"><a xlink:title=" ">
<polygon fill="#e0e0e0" stroke="#999999" points="2180.5,-156.5 2056.5,-156.5 2056.5,-137.5 2180.5,-137.5 2180.5,-156.5"/>
<text text-anchor="middle" x="2118.5" y="-144.5" font-family="Helvetica,sans-Serif" font-size="10.00">deal.II/base/revision.h</text>
</a>
</g>
</g>
<!-- Node1&#45;&gt;Node5 -->
<g id="edge4_Node000001_Node000005" class="edge">
<title>Node1&#45;&gt;Node5</title>
<g id="a_edge4_Node000001_Node000005"><a xlink:title=" ">
<path fill="none" stroke="#63b8ff" d="M1310.25,-215.55C1444.12,-210.8 1770.89,-196.4 2042.5,-162 2050.36,-161 2058.64,-159.72 2066.73,-158.34"/>
<polygon fill="#63b8ff" stroke="#63b8ff" points="2067.58,-161.74 2076.82,-156.55 2066.36,-154.85 2067.58,-161.74"/>
</a>
</g>
</g>
<!-- Node6 -->
<g id="Node000006" class="node">
<title>Node6</title>
<g id="a_Node000006"><a xlink:title=" ">
<polygon fill="#e0e0e0" stroke="#999999" points="255.5,-90.5 143.5,-90.5 143.5,-71.5 255.5,-71.5 255.5,-90.5"/>
<text text-anchor="middle" x="199.5" y="-78.5" font-family="Helvetica,sans-Serif" font-size="10.00">deal.II/base/types.h</text>
</a>
</g>
</g>
<!-- Node1&#45;&gt;Node6 -->
<g id="edge5_Node000001_Node000006" class="edge">
<title>Node1&#45;&gt;Node6</title>
<g id="a_edge5_Node000001_Node000006"><a xlink:title=" ">
<path fill="none" stroke="#63b8ff" d="M1186.91,-217.07C1010.91,-215.31 508.28,-206.43 350.5,-162 300.21,-147.84 247.66,-115.31 219.75,-96.38"/>
<polygon fill="#63b8ff" stroke="#63b8ff" points="221.49,-93.33 211.27,-90.53 217.52,-99.09 221.49,-93.33"/>
</a>
</g>
</g>
<!-- Node7 -->
<g id="Node000007" class="node">
<title>Node7</title>
<g id="a_Node000007"><a xlink:title=" ">
<polygon fill="#e0e0e0" stroke="#999999" points="2326.5,-156.5 2198.5,-156.5 2198.5,-137.5 2326.5,-137.5 2326.5,-156.5"/>
<text text-anchor="middle" x="2262.5" y="-144.5" font-family="Helvetica,sans-Serif" font-size="10.00">deal.II/grid/grid_tools.h</text>
</a>
</g>
</g>
<!-- Node1&#45;&gt;Node7 -->
<g id="edge6_Node000001_Node000007" class="edge">
<title>Node1&#45;&gt;Node7</title>
<g id="a_edge6_Node000001_Node000007"><a xlink:title=" ">
<path fill="none" stroke="#63b8ff" d="M1310.13,-216.65C1460.81,-213.95 1859.64,-203.18 2189.5,-162 2197.24,-161.03 2205.4,-159.74 2213.35,-158.33"/>
<polygon fill="#63b8ff" stroke="#63b8ff" points="2214.05,-161.76 2223.25,-156.5 2212.78,-154.88 2214.05,-161.76"/>
</a>
</g>
</g>
<!-- Node8 -->
<g id="Node000008" class="node">
<title>Node8</title>
<g id="a_Node000008"><a xlink:title=" ">
<polygon fill="#e0e0e0" stroke="#999999" points="2442,-156.5 2345,-156.5 2345,-137.5 2442,-137.5 2442,-156.5"/>
<text text-anchor="middle" x="2393.5" y="-144.5" font-family="Helvetica,sans-Serif" font-size="10.00">deal.II/grid/tria.h</text>
</a>
</g>
</g>
<!-- Node1&#45;&gt;Node8 -->
<g id="edge7_Node000001_Node000008" class="edge">
<title>Node1&#45;&gt;Node8</title>
<g id="a_edge7_Node000001_Node000008"><a xlink:title=" ">
<path fill="none" stroke="#63b8ff" d="M1310.17,-215.86C1509.53,-210.32 2135.29,-191.02 2335.5,-162 2341.07,-161.19 2346.9,-160.1 2352.61,-158.87"/>
<polygon fill="#63b8ff" stroke="#63b8ff" points="2353.74,-162.2 2362.7,-156.56 2352.17,-155.38 2353.74,-162.2"/>
</a>
</g>
</g>
<!-- Node9 -->
<g id="Node000009" class="node">
<title>Node9</title>
<g id="a_Node000009"><a xlink:href="core_2boundary__conditions_8hpp.html" target="_top" xlink:title=" ">
<polygon fill="white" stroke="#666666" points="505,-162 360,-162 360,-132 505,-132 505,-162"/>
<text text-anchor="start" x="368" y="-150" font-family="Helvetica,sans-Serif" font-size="10.00">meltpooldg/core/boundary</text>
<text text-anchor="middle" x="432.5" y="-139" font-family="Helvetica,sans-Serif" font-size="10.00">_conditions.hpp</text>
</a>
</g>
</g>
<!-- Node1&#45;&gt;Node9 -->
<g id="edge8_Node000001_Node000009" class="edge">
<title>Node1&#45;&gt;Node9</title>
<g id="a_edge8_Node000001_Node000009"><a xlink:title=" ">
<path fill="none" stroke="#63b8ff" d="M1186.93,-214.8C1062.2,-208.89 770.61,-192.94 515.53,-162.04"/>
<polygon fill="#63b8ff" stroke="#63b8ff" points="515.68,-158.54 505.33,-160.8 514.83,-165.48 515.68,-158.54"/>
</a>
</g>
</g>
<!-- Node12 -->
<g id="Node000012" class="node">
<title>Node12</title>
<g id="a_Node000012"><a xlink:title=" ">
<polygon fill="#e0e0e0" stroke="#999999" points="793.5,-24.5 749.5,-24.5 749.5,-5.5 793.5,-5.5 793.5,-24.5"/>
<text text-anchor="middle" x="771.5" y="-12.5" font-family="Helvetica,sans-Serif" font-size="10.00">string</text>
</a>
</g>
</g>
<!-- Node1&#45;&gt;Node12 -->
<g id="edge50_Node000001_Node000012" class="edge">
<title>Node1&#45;&gt;Node12</title>
<g id="a_edge50_Node000001_Node000012"><a xlink:title=" ">
<path fill="none" stroke="#63b8ff" d="M1186.55,-214.31C1067.07,-207.54 814.07,-190.05 786.5,-162 753.09,-128.01 760.49,-65.76 766.91,-34.68"/>
<polygon fill="#63b8ff" stroke="#63b8ff" points="770.36,-35.28 769.15,-24.75 763.53,-33.74 770.36,-35.28"/>
</a>
</g>
</g>
<!-- Node13 -->
<g id="Node000013" class="node">
<title>Node13</title>
<g id="a_Node000013"><a xlink:title=" ">
<polygon fill="#e0e0e0" stroke="#999999" points="997.5,-90.5 959.5,-90.5 959.5,-71.5 997.5,-71.5 997.5,-90.5"/>
<text text-anchor="middle" x="978.5" y="-78.5" font-family="Helvetica,sans-Serif" font-size="10.00">map</text>
</a>
</g>
</g>
<!-- Node1&#45;&gt;Node13 -->
<g id="edge48_Node000001_Node000013" class="edge">
<title>Node1&#45;&gt;Node13</title>
<g id="a_edge48_Node000001_Node000013"><a xlink:title=" ">
<path fill="none" stroke="#63b8ff" d="M1197.26,-197.98C1172.25,-187.98 1141.93,-175.16 1115.5,-162 1073.59,-141.14 1026.95,-112.71 1000.32,-95.97"/>
<polygon fill="#63b8ff" stroke="#63b8ff" points="1002.1,-92.95 991.78,-90.56 998.36,-98.87 1002.1,-92.95"/>
</a>
</g>
</g>
<!-- Node14 -->
<g id="Node000014" class="node">
<title>Node14</title>
<g id="a_Node000014"><a xlink:title=" ">
<polygon fill="#e0e0e0" stroke="#999999" points="705.5,-90.5 647.5,-90.5 647.5,-71.5 705.5,-71.5 705.5,-90.5"/>
<text text-anchor="middle" x="676.5" y="-78.5" font-family="Helvetica,sans-Serif" font-size="10.00">memory</text>
</a>
</g>
</g>
<!-- Node1&#45;&gt;Node14 -->
<g id="edge49_Node000001_Node000014" class="edge">
<title>Node1&#45;&gt;Node14</title>
<g id="a_edge49_Node000001_Node000014"><a xlink:title=" ">
<path fill="none" stroke="#63b8ff" d="M1186.86,-218.09C1064.13,-218.16 794.55,-212.37 719.5,-162 698.16,-147.68 686.56,-119.16 680.95,-100.33"/>
<polygon fill="#63b8ff" stroke="#63b8ff" points="684.3,-99.29 678.31,-90.54 677.54,-101.11 684.3,-99.29"/>
</a>
</g>
</g>
<!-- Node16 -->
<g id="Node000016" class="node">
<title>Node16</title>
<g id="a_Node000016"><a xlink:href="case__factory_8hpp.html" target="_top" xlink:title=" ">
<polygon fill="white" stroke="#666666" points="917.5,-162 795.5,-162 795.5,-132 917.5,-132 917.5,-162"/>
<text text-anchor="start" x="803.5" y="-150" font-family="Helvetica,sans-Serif" font-size="10.00">meltpooldg/core/case</text>
<text text-anchor="middle" x="856.5" y="-139" font-family="Helvetica,sans-Serif" font-size="10.00">_factory.hpp</text>
</a>
</g>
</g>
<!-- Node1&#45;&gt;Node16 -->
<g id="edge19_Node000001_Node000016" class="edge">
<title>Node1&#45;&gt;Node16</title>
<g id="a_edge19_Node000001_Node000016"><a xlink:title=" ">
<path fill="none" stroke="#63b8ff" d="M1186.82,-206.56C1116.6,-194.11 1002.06,-173.81 927.99,-160.68"/>
<polygon fill="#63b8ff" stroke="#63b8ff" points="928.28,-157.17 917.82,-158.87 927.06,-164.06 928.28,-157.17"/>
</a>
</g>
</g>
<!-- Node17 -->
<g id="Node000017" class="node">
<title>Node17</title>
<g id="a_Node000017"><a xlink:href="periodic__boundary__conditions_8hpp.html" target="_top" xlink:title=" ">
<polygon fill="white" stroke="#666666" points="667.5,-162 523.5,-162 523.5,-132 667.5,-132 667.5,-162"/>
<text text-anchor="start" x="531.5" y="-150" font-family="Helvetica,sans-Serif" font-size="10.00">meltpooldg/core/periodic</text>
<text text-anchor="middle" x="595.5" y="-139" font-family="Helvetica,sans-Serif" font-size="10.00">_boundary_conditions.hpp</text>
</a>
</g>
</g>
<!-- Node1&#45;&gt;Node17 -->
<g id="edge25_Node000001_Node000017" class="edge">
<title>Node1&#45;&gt;Node17</title>
<g id="a_edge25_Node000001_Node000017"><a xlink:title=" ">
<path fill="none" stroke="#63b8ff" d="M1186.69,-212.75C1082.33,-204.44 864.66,-185.85 681.5,-162 680.23,-161.84 678.96,-161.67 677.68,-161.49"/>
<polygon fill="#63b8ff" stroke="#63b8ff" points="678.1,-158.02 667.71,-160.1 677.13,-164.95 678.1,-158.02"/>
</a>
</g>
</g>
<!-- Node18 -->
<g id="Node000018" class="node">
<title>Node18</title>
<g id="a_Node000018"><a xlink:title=" ">
<polygon fill="#e0e0e0" stroke="#999999" points="1063,-90.5 1016,-90.5 1016,-71.5 1063,-71.5 1063,-90.5"/>
<text text-anchor="middle" x="1039.5" y="-78.5" font-family="Helvetica,sans-Serif" font-size="10.00">vector</text>
</a>
</g>
</g>
<!-- Node1&#45;&gt;Node18 -->
<g id="edge51_Node000001_Node000018" class="edge">
<title>Node1&#45;&gt;Node18</title>
<g id="a_edge51_Node000001_Node000018"><a xlink:title=" ">
<path fill="none" stroke="#63b8ff" d="M1217.84,-197.75C1201.41,-187.16 1180.84,-173.88 1162.5,-162 1127.05,-139.03 1085.92,-112.26 1061.34,-96.24"/>
<polygon fill="#63b8ff" stroke="#63b8ff" points="1063.07,-93.19 1052.78,-90.66 1059.24,-99.05 1063.07,-93.19"/>
</a>
</g>
</g>
<!-- Node19 -->
<g id="Node000019" class="node">
<title>Node19</title>
<g id="a_Node000019"><a xlink:href="generic__data__out_8hpp.html" target="_top" xlink:title=" ">
<polygon fill="white" stroke="#666666" points="1325.5,-162 1171.5,-162 1171.5,-132 1325.5,-132 1325.5,-162"/>
<text text-anchor="start" x="1179.5" y="-150" font-family="Helvetica,sans-Serif" font-size="10.00">meltpooldg/post_processing</text>
<text text-anchor="middle" x="1248.5" y="-139" font-family="Helvetica,sans-Serif" font-size="10.00">/generic_data_out.hpp</text>
</a>
</g>
</g>
<!-- Node1&#45;&gt;Node19 -->
<g id="edge29_Node000001_Node000019" class="edge">
<title>Node1&#45;&gt;Node19</title>
<g id="a_edge29_Node000001_Node000019"><a xlink:title=" ">
<path fill="none" stroke="#63b8ff" d="M1248.5,-197.77C1248.5,-189.85 1248.5,-180.63 1248.5,-172.3"/>
<polygon fill="#63b8ff" stroke="#63b8ff" points="1252,-172.04 1248.5,-162.04 1245,-172.04 1252,-172.04"/>
</a>
</g>
</g>
<!-- Node26 -->
<g id="Node000026" class="node">
<title>Node26</title>
<g id="a_Node000026"><a xlink:href="journal_8hpp.html" target="_top" xlink:title=" ">
<polygon fill="white" stroke="#666666" points="2572.5,-162 2460.5,-162 2460.5,-132 2572.5,-132 2572.5,-162"/>
<text text-anchor="start" x="2468.5" y="-150" font-family="Helvetica,sans-Serif" font-size="10.00">meltpooldg/utilities</text>
<text text-anchor="middle" x="2516.5" y="-139" font-family="Helvetica,sans-Serif" font-size="10.00">/journal.hpp</text>
</a>
</g>
</g>
<!-- Node1&#45;&gt;Node26 -->
<g id="edge39_Node000001_Node000026" class="edge">
<title>Node1&#45;&gt;Node26</title>
<g id="a_edge39_Node000001_Node000026"><a xlink:title=" ">
<path fill="none" stroke="#63b8ff" d="M1310.1,-218.18C1487.81,-219.4 2016.41,-217.68 2450.5,-162 2450.6,-161.99 2450.7,-161.97 2450.81,-161.96"/>
<polygon fill="#63b8ff" stroke="#63b8ff" points="2451.05,-165.46 2460.44,-160.54 2450.03,-158.54 2451.05,-165.46"/>
</a>
</g>
</g>
<!-- Node31 -->
<g id="Node000031" class="node">
<title>Node31</title>
<g id="a_Node000031"><a xlink:title=" ">
<polygon fill="#e0e0e0" stroke="#999999" points="2702.5,-162 2590.5,-162 2590.5,-132 2702.5,-132 2702.5,-162"/>
<text text-anchor="start" x="2598.5" y="-150" font-family="Helvetica,sans-Serif" font-size="10.00">meltpooldg/utilities</text>
<text text-anchor="middle" x="2646.5" y="-139" font-family="Helvetica,sans-Serif" font-size="10.00">/revision.hpp</text>
</a>
</g>
</g>
<!-- Node1&#45;&gt;Node31 -->
<g id="edge44_Node000001_Node000031" class="edge">
<title>Node1&#45;&gt;Node31</title>
<g id="a_edge44_Node000001_Node000031"><a xlink:title=" ">
<path fill="none" stroke="#63b8ff" d="M1310.16,-216.33C1534.9,-211.85 2310.59,-194.45 2580.09,-161.99"/>
<polygon fill="#63b8ff" stroke="#63b8ff" points="2580.74,-165.44 2590.23,-160.73 2579.88,-158.49 2580.74,-165.44"/>
</a>
</g>
</g>
<!-- Node32 -->
<g id="Node000032" class="node">
<title>Node32</title>
<g id="a_Node000032"><a xlink:title=" ">
<polygon fill="#e0e0e0" stroke="#999999" points="2784.5,-156.5 2720.5,-156.5 2720.5,-137.5 2784.5,-137.5 2784.5,-156.5"/>
<text text-anchor="middle" x="2752.5" y="-144.5" font-family="Helvetica,sans-Serif" font-size="10.00">algorithm</text>
</a>
</g>
</g>
<!-- Node1&#45;&gt;Node32 -->
<g id="edge45_Node000001_Node000032" class="edge">
<title>Node1&#45;&gt;Node32</title>
<g id="a_edge45_Node000001_Node000032"><a xlink:title=" ">
<path fill="none" stroke="#63b8ff" d="M1310.02,-217.54C1551.71,-217.35 2436.29,-213.07 2711.5,-162 2714.75,-161.4 2718.1,-160.59 2721.41,-159.66"/>
<polygon fill="#63b8ff" stroke="#63b8ff" points="2722.62,-162.95 2731.11,-156.61 2720.52,-156.27 2722.62,-162.95"/>
</a>
</g>
</g>
<!-- Node33 -->
<g id="Node000033" class="node">
<title>Node33</title>
<g id="a_Node000033"><a xlink:title=" ">
<polygon fill="#e0e0e0" stroke="#999999" points="2118,-90.5 2063,-90.5 2063,-71.5 2118,-71.5 2118,-90.5"/>
<text text-anchor="middle" x="2090.5" y="-78.5" font-family="Helvetica,sans-Serif" font-size="10.00">fstream</text>
</a>
</g>
</g>
<!-- Node1&#45;&gt;Node33 -->
<g id="edge46_Node000001_Node000033" class="edge">
<title>Node1&#45;&gt;Node33</title>
<g id="a_edge46_Node000001_Node000033"><a xlink:title=" ">
<path fill="none" stroke="#63b8ff" d="M1310.17,-209.55C1389.47,-199.2 1531.39,-180.28 1652.5,-162 1741.8,-148.52 1966.28,-119.43 2053.5,-96 2055.79,-95.38 2058.14,-94.68 2060.49,-93.92"/>
<polygon fill="#63b8ff" stroke="#63b8ff" points="2061.72,-97.2 2069.99,-90.59 2059.4,-90.59 2061.72,-97.2"/>
</a>
</g>
</g>
<!-- Node34 -->
<g id="Node000034" class="node">
<title>Node34</title>
<g id="a_Node000034"><a xlink:title=" ">
<polygon fill="#e0e0e0" stroke="#999999" points="2386.5,-90.5 2326.5,-90.5 2326.5,-71.5 2386.5,-71.5 2386.5,-90.5"/>
<text text-anchor="middle" x="2356.5" y="-78.5" font-family="Helvetica,sans-Serif" font-size="10.00">iostream</text>
</a>
</g>
</g>
<!-- Node1&#45;&gt;Node34 -->
<g id="edge47_Node000001_Node000034" class="edge">
<title>Node1&#45;&gt;Node34</title>
<g id="a_edge47_Node000001_Node000034"><a xlink:title=" ">
<path fill="none" stroke="#63b8ff" d="M1310.27,-217.63C1468.06,-217.22 1882.47,-211.35 2009.5,-162 2029.56,-154.21 2027.68,-140.39 2047.5,-132 2158.99,-84.81 2199.87,-124.61 2317.5,-96 2320.16,-95.35 2322.89,-94.59 2325.61,-93.76"/>
<polygon fill="#63b8ff" stroke="#63b8ff" points="2326.91,-97.01 2335.29,-90.53 2324.7,-90.37 2326.91,-97.01"/>
</a>
</g>
</g>
<!-- Node35 -->
<g id="Node000035" class="node">
<title>Node35</title>
<g id="a_Node000035"><a xlink:href="parameters__base_8hpp.html" target="_top" xlink:title=" ">
<polygon fill="white" stroke="#666666" points="2000.5,-156.5 1878.5,-156.5 1878.5,-137.5 2000.5,-137.5 2000.5,-156.5"/>
<text text-anchor="middle" x="1939.5" y="-144.5" font-family="Helvetica,sans-Serif" font-size="10.00">parameters_base.hpp</text>
</a>
</g>
</g>
<!-- Node1&#45;&gt;Node35 -->
<g id="edge52_Node000001_Node000035" class="edge">
<title>Node1&#45;&gt;Node35</title>
<g id="a_edge52_Node000001_Node000035"><a xlink:title=" ">
<path fill="none" stroke="#63b8ff" d="M1310.13,-211.3C1438.11,-198.43 1732.09,-168.86 1868.08,-155.18"/>
<polygon fill="#63b8ff" stroke="#63b8ff" points="1868.78,-158.63 1878.38,-154.15 1868.08,-151.67 1868.78,-158.63"/>
</a>
</g>
</g>
<!-- Node9&#45;&gt;Node2 -->
<g id="edge10_Node000009_Node000002" class="edge">
<title>Node9&#45;&gt;Node2</title>
<g id="a_edge10_Node000009_Node000002"><a xlink:title=" ">
<path fill="none" stroke="#63b8ff" d="M359.84,-134.35C299.45,-124.53 211.28,-109.9 134.5,-96 128.33,-94.88 121.88,-93.68 115.47,-92.46"/>
<polygon fill="#63b8ff" stroke="#63b8ff" points="115.97,-88.99 105.49,-90.55 114.65,-95.87 115.97,-88.99"/>
</a>
</g>
</g>
<!-- Node9&#45;&gt;Node6 -->
<g id="edge11_Node000009_Node000006" class="edge">
<title>Node9&#45;&gt;Node6</title>
<g id="a_edge11_Node000009_Node000006"><a xlink:title=" ">
<path fill="none" stroke="#63b8ff" d="M381.37,-131.95C338.98,-120.31 279.51,-103.98 240.27,-93.2"/>
<polygon fill="#63b8ff" stroke="#63b8ff" points="241.08,-89.79 230.51,-90.52 239.22,-96.54 241.08,-89.79"/>
</a>
</g>
</g>
<!-- Node10 -->
<g id="Node000010" class="node">
<title>Node10</title>
<g id="a_Node000010"><a xlink:title=" ">
<polygon fill="#e0e0e0" stroke="#999999" points="516.5,-24.5 378.5,-24.5 378.5,-5.5 516.5,-5.5 516.5,-24.5"/>
<text text-anchor="middle" x="447.5" y="-12.5" font-family="Helvetica,sans-Serif" font-size="10.00">deal.II/base/exceptions.h</text>
</a>
</g>
</g>
<!-- Node9&#45;&gt;Node10 -->
<g id="edge9_Node000009_Node000010" class="edge">
<title>Node9&#45;&gt;Node10</title>
<g id="a_edge9_Node000009_Node000010"><a xlink:title=" ">
<path fill="none" stroke="#63b8ff" d="M369.12,-131.96C325.79,-119.24 279.96,-97.61 302.5,-66 317.85,-44.47 343.12,-32.12 368.29,-25.06"/>
<polygon fill="#63b8ff" stroke="#63b8ff" points="369.46,-28.38 378.29,-22.53 367.73,-21.59 369.46,-28.38"/>
</a>
</g>
</g>
<!-- Node11 -->
<g id="Node000011" class="node">
<title>Node11</title>
<g id="a_Node000011"><a xlink:href="exceptions_8hpp.html" target="_top" xlink:title=" ">
<polygon fill="white" stroke="#666666" points="591,-90.5 418,-90.5 418,-71.5 591,-71.5 591,-90.5"/>
<text text-anchor="middle" x="504.5" y="-78.5" font-family="Helvetica,sans-Serif" font-size="10.00">meltpooldg/core/exceptions.hpp</text>
</a>
</g>
</g>
<!-- Node9&#45;&gt;Node11 -->
<g id="edge12_Node000009_Node000011" class="edge">
<title>Node9&#45;&gt;Node11</title>
<g id="a_edge12_Node000009_Node000011"><a xlink:title=" ">
<path fill="none" stroke="#63b8ff" d="M448.48,-131.8C459.81,-121.72 475.03,-108.19 486.75,-97.78"/>
<polygon fill="#63b8ff" stroke="#63b8ff" points="489.4,-100.1 494.55,-90.84 484.75,-94.87 489.4,-100.1"/>
</a>
</g>
</g>
<!-- Node9&#45;&gt;Node12 -->
<g id="edge18_Node000009_Node000012" class="edge">
<title>Node9&#45;&gt;Node12</title>
<g id="a_edge18_Node000009_Node000012"><a xlink:title=" ">
<path fill="none" stroke="#63b8ff" d="M499.27,-131.96C530.71,-123.87 568.12,-112.07 599.5,-96 618.96,-86.03 619.39,-76.63 638.5,-66 671.19,-47.82 711.81,-33.63 739.5,-25.09"/>
<polygon fill="#63b8ff" stroke="#63b8ff" points="740.88,-28.33 749.44,-22.09 738.86,-21.63 740.88,-28.33"/>
</a>
</g>
</g>
<!-- Node9&#45;&gt;Node13 -->
<g id="edge15_Node000009_Node000013" class="edge">
<title>Node9&#45;&gt;Node13</title>
<g id="a_edge15_Node000009_Node000013"><a xlink:title=" ">
<path fill="none" stroke="#63b8ff" d="M505.33,-133.23C508.42,-132.79 511.49,-132.38 514.5,-132 707.4,-107.62 763.26,-148.43 950.5,-96 951.94,-95.6 953.39,-95.12 954.84,-94.59"/>
<polygon fill="#63b8ff" stroke="#63b8ff" points="956.36,-97.74 964.1,-90.51 953.54,-91.34 956.36,-97.74"/>
</a>
</g>
</g>
<!-- Node9&#45;&gt;Node14 -->
<g id="edge16_Node000009_Node000014" class="edge">
<title>Node9&#45;&gt;Node14</title>
<g id="a_edge16_Node000009_Node000014"><a xlink:title=" ">
<path fill="none" stroke="#63b8ff" d="M493.93,-131.91C533.89,-122.46 587.01,-109.33 633.5,-96 636.1,-95.25 638.78,-94.46 641.47,-93.63"/>
<polygon fill="#63b8ff" stroke="#63b8ff" points="642.64,-96.93 651.13,-90.59 640.54,-90.26 642.64,-96.93"/>
</a>
</g>
</g>
<!-- Node15 -->
<g id="Node000015" class="node">
<title>Node15</title>
<g id="a_Node000015"><a xlink:title=" ">
<polygon fill="#e0e0e0" stroke="#999999" points="361.5,-90.5 311.5,-90.5 311.5,-71.5 361.5,-71.5 361.5,-90.5"/>
<text text-anchor="middle" x="336.5" y="-78.5" font-family="Helvetica,sans-Serif" font-size="10.00">ranges</text>
</a>
</g>
</g>
<!-- Node9&#45;&gt;Node15 -->
<g id="edge17_Node000009_Node000015" class="edge">
<title>Node9&#45;&gt;Node15</title>
<g id="a_edge17_Node000009_Node000015"><a xlink:title=" ">
<path fill="none" stroke="#63b8ff" d="M411.19,-131.8C395.4,-121.27 373.96,-106.97 358.1,-96.4"/>
<polygon fill="#63b8ff" stroke="#63b8ff" points="359.75,-93.29 349.49,-90.66 355.87,-99.12 359.75,-93.29"/>
</a>
</g>
</g>
<!-- Node11&#45;&gt;Node10 -->
<g id="edge13_Node000011_Node000010" class="edge">
<title>Node11&#45;&gt;Node10</title>
<g id="a_edge13_Node000011_Node000010"><a xlink:title=" ">
<path fill="none" stroke="#63b8ff" d="M496.81,-71.37C488.02,-61.5 473.43,-45.11 462.39,-32.72"/>
<polygon fill="#63b8ff" stroke="#63b8ff" points="464.7,-30.05 455.43,-24.91 459.47,-34.7 464.7,-30.05"/>
</a>
</g>
</g>
<!-- Node11&#45;&gt;Node12 -->
<g id="edge14_Node000011_Node000012" class="edge">
<title>Node11&#45;&gt;Node12</title>
<g id="a_edge14_Node000011_Node000012"><a xlink:title=" ">
<path fill="none" stroke="#63b8ff" d="M540.23,-71.44C592.5,-58.91 689.03,-35.77 739.25,-23.73"/>
<polygon fill="#63b8ff" stroke="#63b8ff" points="740.32,-27.07 749.23,-21.34 738.69,-20.27 740.32,-27.07"/>
</a>
</g>
</g>
<!-- Node16&#45;&gt;Node3 -->
<g id="edge21_Node000016_Node000003" class="edge">
<title>Node16&#45;&gt;Node3</title>
<g id="a_edge21_Node000016_Node000003"><a xlink:title=" ">
<path fill="none" stroke="#63b8ff" d="M863.82,-131.8C868.67,-122.41 875.05,-110.02 880.25,-99.95"/>
<polygon fill="#63b8ff" stroke="#63b8ff" points="883.47,-101.34 884.94,-90.84 877.25,-98.13 883.47,-101.34"/>
</a>
</g>
</g>
<!-- Node16&#45;&gt;Node10 -->
<g id="edge20_Node000016_Node000010" class="edge">
<title>Node16&#45;&gt;Node10</title>
<g id="a_edge20_Node000016_Node000010"><a xlink:title=" ">
<path fill="none" stroke="#63b8ff" d="M836.37,-131.82C809.74,-113.75 760.77,-82.84 714.5,-66 653.51,-43.8 580.93,-31.02 526.84,-23.94"/>
<polygon fill="#63b8ff" stroke="#63b8ff" points="526.99,-20.43 516.63,-22.65 526.1,-27.38 526.99,-20.43"/>
</a>
</g>
</g>
<!-- Node16&#45;&gt;Node12 -->
<g id="edge24_Node000016_Node000012" class="edge">
<title>Node16&#45;&gt;Node12</title>
<g id="a_edge24_Node000016_Node000012"><a xlink:title=" ">
<path fill="none" stroke="#63b8ff" d="M847.24,-131.84C831.53,-107.81 799.7,-59.13 782.74,-33.19"/>
<polygon fill="#63b8ff" stroke="#63b8ff" points="785.62,-31.2 777.22,-24.75 779.76,-35.03 785.62,-31.2"/>
</a>
</g>
</g>
<!-- Node16&#45;&gt;Node13 -->
<g id="edge22_Node000016_Node000013" class="edge">
<title>Node16&#45;&gt;Node13</title>
<g id="a_edge22_Node000016_Node000013"><a xlink:title=" ">
<path fill="none" stroke="#63b8ff" d="M883.27,-131.95C904.1,-121.03 932.81,-105.97 953.24,-95.25"/>
<polygon fill="#63b8ff" stroke="#63b8ff" points="955.03,-98.26 962.26,-90.52 951.78,-92.06 955.03,-98.26"/>
</a>
</g>
</g>
<!-- Node16&#45;&gt;Node14 -->
<g id="edge23_Node000016_Node000014" class="edge">
<title>Node16&#45;&gt;Node14</title>
<g id="a_edge23_Node000016_Node000014"><a xlink:title=" ">
<path fill="none" stroke="#63b8ff" d="M817,-131.95C785.01,-120.58 740.45,-104.74 710.15,-93.96"/>
<polygon fill="#63b8ff" stroke="#63b8ff" points="711.05,-90.57 700.45,-90.52 708.7,-97.17 711.05,-90.57"/>
</a>
</g>
</g>
<!-- Node17&#45;&gt;Node6 -->
<g id="edge27_Node000017_Node000006" class="edge">
<title>Node17&#45;&gt;Node6</title>
<g id="a_edge27_Node000017_Node000006"><a xlink:title=" ">
<path fill="none" stroke="#63b8ff" d="M523.07,-133.59C519.84,-133.05 516.63,-132.52 513.5,-132 427.47,-117.81 328.06,-102.09 264.54,-92.14"/>
<polygon fill="#63b8ff" stroke="#63b8ff" points="264.69,-88.62 254.27,-90.53 263.61,-95.54 264.69,-88.62"/>
</a>
</g>
</g>
<!-- Node17&#45;&gt;Node10 -->
<g id="edge26_Node000017_Node000010" class="edge">
<title>Node17&#45;&gt;Node10</title>
<g id="a_edge26_Node000017_Node000010"><a xlink:title=" ">
<path fill="none" stroke="#63b8ff" d="M527.27,-131.97C476.98,-120.93 416.05,-105.83 408.5,-96 393,-75.81 413.6,-48.47 430.26,-31.55"/>
<polygon fill="#63b8ff" stroke="#63b8ff" points="432.73,-34.03 437.5,-24.57 427.87,-28.99 432.73,-34.03"/>
</a>
</g>
</g>
<!-- Node17&#45;&gt;Node18 -->
<g id="edge28_Node000017_Node000018" class="edge">
<title>Node17&#45;&gt;Node18</title>
<g id="a_edge28_Node000017_Node000018"><a xlink:title=" ">
<path fill="none" stroke="#63b8ff" d="M667.81,-139.66C768.17,-130.44 944.35,-112.61 1006.5,-96 1008.39,-95.49 1010.32,-94.9 1012.25,-94.25"/>
<polygon fill="#63b8ff" stroke="#63b8ff" points="1013.58,-97.49 1021.67,-90.64 1011.08,-90.95 1013.58,-97.49"/>
</a>
</g>
</g>
<!-- Node19&#45;&gt;Node12 -->
<g id="edge36_Node000019_Node000012" class="edge">
<title>Node19&#45;&gt;Node12</title>
<g id="a_edge36_Node000019_Node000012"><a xlink:title=" ">
<path fill="none" stroke="#63b8ff" d="M1224.97,-131.89C1209.07,-122.16 1187.73,-108.74 1169.5,-96 1151.58,-83.47 1150.67,-74.46 1130.5,-66 1017.49,-18.61 868.68,-14.39 803.92,-15.08"/>
<polygon fill="#63b8ff" stroke="#63b8ff" points="803.5,-11.58 793.55,-15.24 803.61,-18.58 803.5,-11.58"/>
</a>
</g>
</g>
<!-- Node19&#45;&gt;Node13 -->
<g id="edge35_Node000019_Node000013" class="edge">
<title>Node19&#45;&gt;Node13</title>
<g id="a_edge35_Node000019_Node000013"><a xlink:title=" ">
<path fill="none" stroke="#63b8ff" d="M1171.38,-135.32C1123.15,-127.36 1060.21,-114.62 1006.5,-96 1005.45,-95.64 1004.38,-95.24 1003.32,-94.82"/>
<polygon fill="#63b8ff" stroke="#63b8ff" points="1004.44,-91.49 993.89,-90.59 1001.58,-97.87 1004.44,-91.49"/>
</a>
</g>
</g>
<!-- Node19&#45;&gt;Node18 -->
<g id="edge38_Node000019_Node000018" class="edge">
<title>Node19&#45;&gt;Node18</title>
<g id="a_edge38_Node000019_Node000018"><a xlink:title=" ">
<path fill="none" stroke="#63b8ff" d="M1191.28,-131.97C1156.31,-122.86 1110.88,-110.1 1071.5,-96 1070.11,-95.5 1068.69,-94.97 1067.27,-94.42"/>
<polygon fill="#63b8ff" stroke="#63b8ff" points="1068.52,-91.15 1057.94,-90.58 1065.85,-97.62 1068.52,-91.15"/>
</a>
</g>
</g>
<!-- Node20 -->
<g id="Node000020" class="node">
<title>Node20</title>
<g id="a_Node000020"><a xlink:title=" ">
<polygon fill="#e0e0e0" stroke="#999999" points="1318.5,-90.5 1178.5,-90.5 1178.5,-71.5 1318.5,-71.5 1318.5,-90.5"/>
<text text-anchor="middle" x="1248.5" y="-78.5" font-family="Helvetica,sans-Serif" font-size="10.00">deal.II/dofs/dof_handler.h</text>
</a>
</g>
</g>
<!-- Node19&#45;&gt;Node20 -->
<g id="edge30_Node000019_Node000020" class="edge">
<title>Node19&#45;&gt;Node20</title>
<g id="a_edge30_Node000019_Node000020"><a xlink:title=" ">
<path fill="none" stroke="#63b8ff" d="M1248.5,-131.8C1248.5,-122.7 1248.5,-110.79 1248.5,-100.9"/>
<polygon fill="#63b8ff" stroke="#63b8ff" points="1252,-100.84 1248.5,-90.84 1245,-100.84 1252,-100.84"/>
</a>
</g>
</g>
<!-- Node21 -->
<g id="Node000021" class="node">
<title>Node21</title>
<g id="a_Node000021"><a xlink:title=" ">
<polygon fill="#e0e0e0" stroke="#999999" points="1450.5,-90.5 1336.5,-90.5 1336.5,-71.5 1450.5,-71.5 1450.5,-90.5"/>
<text text-anchor="middle" x="1393.5" y="-78.5" font-family="Helvetica,sans-Serif" font-size="10.00">deal.II/fe/mapping.h</text>
</a>
</g>
</g>
<!-- Node19&#45;&gt;Node21 -->
<g id="edge31_Node000019_Node000021" class="edge">
<title>Node19&#45;&gt;Node21</title>
<g id="a_edge31_Node000019_Node000021"><a xlink:title=" ">
<path fill="none" stroke="#63b8ff" d="M1280.32,-131.95C1305.53,-120.83 1340.43,-105.42 1364.79,-94.67"/>
<polygon fill="#63b8ff" stroke="#63b8ff" points="1366.47,-97.76 1374.2,-90.52 1363.64,-91.35 1366.47,-97.76"/>
</a>
</g>
</g>
<!-- Node22 -->
<g id="Node000022" class="node">
<title>Node22</title>
<g id="a_Node000022"><a xlink:title=" ">
<polygon fill="#e0e0e0" stroke="#999999" points="1586.5,-96 1468.5,-96 1468.5,-66 1586.5,-66 1586.5,-96"/>
<text text-anchor="start" x="1476.5" y="-84" font-family="Helvetica,sans-Serif" font-size="10.00">deal.II/lac/la_parallel</text>
<text text-anchor="middle" x="1527.5" y="-73" font-family="Helvetica,sans-Serif" font-size="10.00">_vector.h</text>
</a>
</g>
</g>
<!-- Node19&#45;&gt;Node22 -->
<g id="edge32_Node000019_Node000022" class="edge">
<title>Node19&#45;&gt;Node22</title>
<g id="a_edge32_Node000019_Node000022"><a xlink:title=" ">
<path fill="none" stroke="#63b8ff" d="M1309.73,-131.95C1353.66,-121.88 1412.91,-108.28 1458.52,-97.82"/>
<polygon fill="#63b8ff" stroke="#63b8ff" points="1459.36,-101.22 1468.33,-95.57 1457.8,-94.4 1459.36,-101.22"/>
</a>
</g>
</g>
<!-- Node23 -->
<g id="Node000023" class="node">
<title>Node23</title>
<g id="a_Node000023"><a xlink:title=" ">
<polygon fill="#e0e0e0" stroke="#999999" points="1762.5,-96 1604.5,-96 1604.5,-66 1762.5,-66 1762.5,-96"/>
<text text-anchor="start" x="1612.5" y="-84" font-family="Helvetica,sans-Serif" font-size="10.00">deal.II/numerics/data</text>
<text text-anchor="middle" x="1683.5" y="-73" font-family="Helvetica,sans-Serif" font-size="10.00">_component_interpretation.h</text>
</a>
</g>
</g>
<!-- Node19&#45;&gt;Node23 -->
<g id="edge33_Node000019_Node000023" class="edge">
<title>Node19&#45;&gt;Node23</title>
<g id="a_edge33_Node000019_Node000023"><a xlink:title=" ">
<path fill="none" stroke="#63b8ff" d="M1325.73,-135.2C1393.74,-125.62 1495.78,-111.05 1594.23,-96.18"/>
<polygon fill="#63b8ff" stroke="#63b8ff" points="1594.99,-99.6 1604.35,-94.65 1593.94,-92.68 1594.99,-99.6"/>
</a>
</g>
</g>
<!-- Node24 -->
<g id="Node000024" class="node">
<title>Node24</title>
<g id="a_Node000024"><a xlink:title=" ">
<polygon fill="#e0e0e0" stroke="#999999" points="1900,-96 1781,-96 1781,-66 1900,-66 1900,-96"/>
<text text-anchor="start" x="1789" y="-84" font-family="Helvetica,sans-Serif" font-size="10.00">deal.II/numerics/data</text>
<text text-anchor="middle" x="1840.5" y="-73" font-family="Helvetica,sans-Serif" font-size="10.00">_out.h</text>
</a>
</g>
</g>
<!-- Node19&#45;&gt;Node24 -->
<g id="edge34_Node000019_Node000024" class="edge">
<title>Node19&#45;&gt;Node24</title>
<g id="a_edge34_Node000019_Node000024"><a xlink:title=" ">
<path fill="none" stroke="#63b8ff" d="M1325.9,-141.15C1426.16,-134.29 1606.48,-120.03 1770.45,-96.05"/>
<polygon fill="#63b8ff" stroke="#63b8ff" points="1771.35,-99.45 1780.73,-94.53 1770.32,-92.53 1771.35,-99.45"/>
</a>
</g>
</g>
<!-- Node25 -->
<g id="Node000025" class="node">
<title>Node25</title>
<g id="a_Node000025"><a xlink:title=" ">
<polygon fill="#e0e0e0" stroke="#999999" points="1122,-90.5 1081,-90.5 1081,-71.5 1122,-71.5 1122,-90.5"/>
<text text-anchor="middle" x="1101.5" y="-78.5" font-family="Helvetica,sans-Serif" font-size="10.00">tuple</text>
</a>
</g>
</g>
<!-- Node19&#45;&gt;Node25 -->
<g id="edge37_Node000019_Node000025" class="edge">
<title>Node19&#45;&gt;Node25</title>
<g id="a_edge37_Node000019_Node000025"><a xlink:title=" ">
<path fill="none" stroke="#63b8ff" d="M1216.24,-131.95C1190.57,-120.78 1154.99,-105.29 1130.28,-94.53"/>
<polygon fill="#63b8ff" stroke="#63b8ff" points="1131.63,-91.3 1121.06,-90.52 1128.83,-97.72 1131.63,-91.3"/>
</a>
</g>
</g>
<!-- Node27 -->
<g id="Node000027" class="node">
<title>Node27</title>
<g id="a_Node000027"><a xlink:href="conditional__ostream_8hpp.html" target="_top" xlink:title=" ">
<polygon fill="white" stroke="#666666" points="2544.5,-96 2404.5,-96 2404.5,-66 2544.5,-66 2544.5,-96"/>
<text text-anchor="start" x="2412.5" y="-84" font-family="Helvetica,sans-Serif" font-size="10.00">meltpooldg/utilities</text>
<text text-anchor="middle" x="2474.5" y="-73" font-family="Helvetica,sans-Serif" font-size="10.00">/conditional_ostream.hpp</text>
</a>
</g>
</g>
<!-- Node26&#45;&gt;Node27 -->
<g id="edge40_Node000026_Node000027" class="edge">
<title>Node26&#45;&gt;Node27</title>
<g id="a_edge40_Node000026_Node000027"><a xlink:title=" ">
<path fill="none" stroke="#63b8ff" d="M2507.18,-131.8C2501.96,-123.84 2495.33,-113.74 2489.4,-104.71"/>
<polygon fill="#63b8ff" stroke="#63b8ff" points="2492.21,-102.6 2483.8,-96.16 2486.36,-106.44 2492.21,-102.6"/>
</a>
</g>
</g>
<!-- Node29 -->
<g id="Node000029" class="node">
<title>Node29</title>
<g id="a_Node000029"><a xlink:title=" ">
<polygon fill="#e0e0e0" stroke="#999999" points="2628,-90.5 2563,-90.5 2563,-71.5 2628,-71.5 2628,-90.5"/>
<text text-anchor="middle" x="2595.5" y="-78.5" font-family="Helvetica,sans-Serif" font-size="10.00">functional</text>
</a>
</g>
</g>
<!-- Node26&#45;&gt;Node29 -->
<g id="edge42_Node000026_Node000029" class="edge">
<title>Node26&#45;&gt;Node29</title>
<g id="a_edge42_Node000026_Node000029"><a xlink:title=" ">
<path fill="none" stroke="#63b8ff" d="M2534.03,-131.8C2546.71,-121.53 2563.82,-107.67 2576.76,-97.18"/>
<polygon fill="#63b8ff" stroke="#63b8ff" points="2579.02,-99.86 2584.58,-90.84 2574.61,-94.42 2579.02,-99.86"/>
</a>
</g>
</g>
<!-- Node30 -->
<g id="Node000030" class="node">
<title>Node30</title>
<g id="a_Node000030"><a xlink:title=" ">
<polygon fill="#e0e0e0" stroke="#999999" points="2702.5,-90.5 2646.5,-90.5 2646.5,-71.5 2702.5,-71.5 2702.5,-90.5"/>
<text text-anchor="middle" x="2674.5" y="-78.5" font-family="Helvetica,sans-Serif" font-size="10.00">iomanip</text>
</a>
</g>
</g>
<!-- Node26&#45;&gt;Node30 -->
<g id="edge43_Node000026_Node000030" class="edge">
<title>Node26&#45;&gt;Node30</title>
<g id="a_edge43_Node000026_Node000030"><a xlink:title=" ">
<path fill="none" stroke="#63b8ff" d="M2551.17,-131.95C2578.88,-120.73 2617.35,-105.15 2643.92,-94.39"/>
<polygon fill="#63b8ff" stroke="#63b8ff" points="2645.52,-97.52 2653.47,-90.52 2642.89,-91.03 2645.52,-97.52"/>
</a>
</g>
</g>
<!-- Node28 -->
<g id="Node000028" class="node">
<title>Node28</title>
<g id="a_Node000028"><a xlink:title=" ">
<polygon fill="#e0e0e0" stroke="#999999" points="2539.5,-30 2409.5,-30 2409.5,0 2539.5,0 2539.5,-30"/>
<text text-anchor="start" x="2417.5" y="-18" font-family="Helvetica,sans-Serif" font-size="10.00">deal.II/base/conditional</text>
<text text-anchor="middle" x="2474.5" y="-7" font-family="Helvetica,sans-Serif" font-size="10.00">_ostream.h</text>
</a>
</g>
</g>
<!-- Node27&#45;&gt;Node28 -->
<g id="edge41_Node000027_Node000028" class="edge">
<title>Node27&#45;&gt;Node28</title>
<g id="a_edge41_Node000027_Node000028"><a xlink:title=" ">
<path fill="none" stroke="#63b8ff" d="M2474.5,-65.8C2474.5,-58.34 2474.5,-48.99 2474.5,-40.41"/>
<polygon fill="#63b8ff" stroke="#63b8ff" points="2478,-40.16 2474.5,-30.16 2471,-40.16 2478,-40.16"/>
</a>
</g>
</g>
<!-- Node35&#45;&gt;Node4 -->
<g id="edge53_Node000035_Node000004" class="edge">
<title>Node35&#45;&gt;Node4</title>
<g id="a_edge53_Node000035_Node000004"><a xlink:title=" ">
<path fill="none" stroke="#63b8ff" d="M1945.16,-137.37C1950.61,-129.08 1959.07,-116.18 1966.46,-104.92"/>
<polygon fill="#63b8ff" stroke="#63b8ff" points="1969.52,-106.64 1972.08,-96.36 1963.66,-102.8 1969.52,-106.64"/>
</a>
</g>
</g>
<!-- Node35&#45;&gt;Node12 -->
<g id="edge58_Node000035_Node000012" class="edge">
<title>Node35&#45;&gt;Node12</title>
<g id="a_edge58_Node000035_Node000012"><a xlink:title=" ">
<path fill="none" stroke="#63b8ff" d="M1976.18,-137.4C2029.29,-124.78 2121.84,-102.06 2126.5,-96 2134.62,-85.42 2135.75,-75.6 2126.5,-66 2079.13,-16.85 1004.94,-15.72 803.79,-15.94"/>
<polygon fill="#63b8ff" stroke="#63b8ff" points="803.58,-12.44 793.59,-15.95 803.59,-19.44 803.58,-12.44"/>
</a>
</g>
</g>
<!-- Node35&#45;&gt;Node33 -->
<g id="edge55_Node000035_Node000033" class="edge">
<title>Node35&#45;&gt;Node33</title>
<g id="a_edge55_Node000035_Node000033"><a xlink:title=" ">
<path fill="none" stroke="#63b8ff" d="M1959.86,-137.37C1985.76,-126.39 2030.67,-107.36 2060.49,-94.72"/>
<polygon fill="#63b8ff" stroke="#63b8ff" points="2062.13,-97.82 2069.98,-90.7 2059.4,-91.38 2062.13,-97.82"/>
</a>
</g>
</g>
<!-- Node35&#45;&gt;Node34 -->
<g id="edge56_Node000035_Node000034" class="edge">
<title>Node35&#45;&gt;Node34</title>
<g id="a_edge56_Node000035_Node000034"><a xlink:title=" ">
<path fill="none" stroke="#63b8ff" d="M1982.65,-137.44C1993.05,-135.52 2004.16,-133.58 2014.5,-132 2148.56,-111.55 2185.5,-127.11 2317.5,-96 2320.17,-95.37 2322.9,-94.62 2325.62,-93.8"/>
<polygon fill="#63b8ff" stroke="#63b8ff" points="2326.91,-97.06 2335.31,-90.59 2324.71,-90.41 2326.91,-97.06"/>
</a>
</g>
</g>
<!-- Node36 -->
<g id="Node000036" class="node">
<title>Node36</title>
<g id="a_Node000036"><a xlink:title=" ">
<polygon fill="#e0e0e0" stroke="#999999" points="2234.5,-90.5 2174.5,-90.5 2174.5,-71.5 2234.5,-71.5 2234.5,-90.5"/>
<text text-anchor="middle" x="2204.5" y="-78.5" font-family="Helvetica,sans-Serif" font-size="10.00">concepts</text>
</a>
</g>
</g>
<!-- Node35&#45;&gt;Node36 -->
<g id="edge54_Node000035_Node000036" class="edge">
<title>Node35&#45;&gt;Node36</title>
<g id="a_edge54_Node000035_Node000036"><a xlink:title=" ">
<path fill="none" stroke="#63b8ff" d="M1982.13,-137.48C2026.84,-128.29 2099,-112.71 2160.5,-96 2163.33,-95.23 2166.25,-94.4 2169.17,-93.53"/>
<polygon fill="#63b8ff" stroke="#63b8ff" points="2170.48,-96.79 2179.02,-90.52 2168.43,-90.1 2170.48,-96.79"/>
</a>
</g>
</g>
<!-- Node37 -->
<g id="Node000037" class="node">
<title>Node37</title>
<g id="a_Node000037"><a xlink:title=" ">
<polygon fill="#e0e0e0" stroke="#999999" points="2308.5,-90.5 2252.5,-90.5 2252.5,-71.5 2308.5,-71.5 2308.5,-90.5"/>
<text text-anchor="middle" x="2280.5" y="-78.5" font-family="Helvetica,sans-Serif" font-size="10.00">sstream</text>
</a>
</g>
</g>
<!-- Node35&#45;&gt;Node37 -->
<g id="edge57_Node000035_Node000037" class="edge">
<title>Node35&#45;&gt;Node37</title>
<g id="a_edge57_Node000035_Node000037"><a xlink:title=" ">
<path fill="none" stroke="#63b8ff" d="M1983.88,-137.5C1993.94,-135.63 2004.58,-133.71 2014.5,-132 2116.04,-114.55 2143.9,-122.37 2243.5,-96 2245.8,-95.39 2248.15,-94.69 2250.5,-93.94"/>
<polygon fill="#63b8ff" stroke="#63b8ff" points="2251.72,-97.22 2260,-90.61 2249.41,-90.61 2251.72,-97.22"/>
</a>
</g>
</g>
</g>
</svg>
