<?xml version="1.0" encoding="UTF-8" standalone="no"?>
<!DOCTYPE svg PUBLIC "-//W3C//DTD SVG 1.1//EN"
 "http://www.w3.org/Graphics/SVG/1.1/DTD/svg11.dtd">
<!-- Generated by graphviz version 2.43.0 (0)
 -->
<!-- Title: include/meltpooldg/post_processing/slice.hpp Pages: 1 -->
<!--zoomable 236 -->

<svg id="main" version="1.1" xmlns="http://www.w3.org/2000/svg" xmlns:xlink="http://www.w3.org/1999/xlink" xml:space="preserve" onload="init(evt)">
<style type="text/css"><![CDATA[
.node, .edge {opacity: 0.7;}
.node.selected, .edge.selected {opacity: 1;}
.edge:hover path { stroke: red; }
.edge:hover polygon { stroke: red; fill: red; }
]]></style>

<defs>
  <circle id="rim" cx="0" cy="0" r="7"/>
  <circle id="rim2" cx="0" cy="0" r="3.5"/>
  <g id="zoomPlus">
    <use xlink:href="#rim" fill="#404040"><set attributeName="fill" to="#808080" begin="zoomplus.mouseover" end="zoomplus.mouseout"/></use>
    <path d="M-4,0h8M0,-4v8" fill="none" stroke="white" stroke-width="1.5" pointer-events="none"/>
  </g>
  <g id="zoomMin">
    <use xlink:href="#rim" fill="#404040"><set attributeName="fill" to="#808080" begin="zoomminus.mouseover" end="zoomminus.mouseout"/></use>
    <path d="M-4,0h8" fill="none" stroke="white" stroke-width="1.5" pointer-events="none"/>
  </g>
  <g id="arrowUp" transform="translate(30 24)">
    <use xlink:href="#rim"/>
    <path pointer-events="none" fill="none" stroke="white" stroke-width="1.5" d="M0,-3.0v7 M-2.5,-0.5L0,-3.0L2.5,-0.5"/>
  </g>
  <g id="arrowRight" transform="rotate(90) translate(36 -43)">
    <use xlink:href="#rim"/>
    <path pointer-events="none" fill="none" stroke="white" stroke-width="1.5" d="M0,-3.0v7 M-2.5,-0.5L0,-3.0L2.5,-0.5"/>
  </g>
  <g id="arrowDown" transform="rotate(180) translate(-30 -48)">
    <use xlink:href="#rim"/>
    <path pointer-events="none" fill="none" stroke="white" stroke-width="1.5" d="M0,-3.0v7 M-2.5,-0.5L0,-3.0L2.5,-0.5"/>
  </g>
  <g id="arrowLeft" transform="rotate(270) translate(-36 17)">
    <use xlink:href="#rim"/>
    <path pointer-events="none" fill="none" stroke="white" stroke-width="1.5" d="M0,-3.0v7 M-2.5,-0.5L0,-3.0L2.5,-0.5"/>
  </g>
  <g id="resetDef">
    <use xlink:href="#rim2" fill="#404040"><set attributeName="fill" to="#808080" begin="reset.mouseover" end="reset.mouseout"/></use>
  </g>
</defs>
<script type="application/ecmascript">
var viewWidth = 1391;
var viewHeight = 236;
var sectionId = 'dynsection-0';
</script>
<script type="application/ecmascript" xlink:href="svg.min.js"/>
<svg id="graph" class="graph">
<g id="viewport">
<title>include/meltpooldg/post_processing/slice.hpp</title>
<!-- Node1 -->
<g id="Node000001" class="node">
<title>Node1</title>
<g id="a_Node000001"><a xlink:title=" ">
<polygon fill="#999999" stroke="#666666" points="952,-228 807,-228 807,-198 952,-198 952,-228"/>
<text text-anchor="start" x="815" y="-216" font-family="Helvetica,sans-Serif" font-size="10.00">include/meltpooldg</text>
<text text-anchor="middle" x="879.5" y="-205" font-family="Helvetica,sans-Serif" font-size="10.00">/post_processing/slice.hpp</text>
</a>
</g>
</g>
<!-- Node2 -->
<g id="Node000002" class="node">
<title>Node2</title>
<g id="a_Node000002"><a xlink:title=" ">
<polygon fill="#e0e0e0" stroke="#999999" points="119,-162 0,-162 0,-132 119,-132 119,-162"/>
<text text-anchor="start" x="8" y="-150" font-family="Helvetica,sans-Serif" font-size="10.00">deal.II/base/data_out</text>
<text text-anchor="middle" x="59.5" y="-139" font-family="Helvetica,sans-Serif" font-size="10.00">_base.h</text>
</a>
</g>
</g>
<!-- Node1&#45;&gt;Node2 -->
<g id="edge1_Node000001_Node000002" class="edge">
<title>Node1&#45;&gt;Node2</title>
<g id="a_edge1_Node000001_Node000002"><a xlink:title=" ">
<path fill="none" stroke="#63b8ff" d="M806.94,-210.39C674.32,-206.74 383.82,-195.5 129.43,-161.99"/>
<polygon fill="#63b8ff" stroke="#63b8ff" points="129.63,-158.48 119.26,-160.63 128.71,-165.42 129.63,-158.48"/>
</a>
</g>
</g>
<!-- Node3 -->
<g id="Node000003" class="node">
<title>Node3</title>
<g id="a_Node000003"><a xlink:title=" ">
<polygon fill="#e0e0e0" stroke="#999999" points="275.5,-156.5 137.5,-156.5 137.5,-137.5 275.5,-137.5 275.5,-156.5"/>
<text text-anchor="middle" x="206.5" y="-144.5" font-family="Helvetica,sans-Serif" font-size="10.00">deal.II/base/exceptions.h</text>
</a>
</g>
</g>
<!-- Node1&#45;&gt;Node3 -->
<g id="edge2_Node000001_Node000003" class="edge">
<title>Node1&#45;&gt;Node3</title>
<g id="a_edge2_Node000001_Node000003"><a xlink:title=" ">
<path fill="none" stroke="#63b8ff" d="M806.91,-208.1C694.59,-201.57 472.07,-186.66 284.5,-162 276.45,-160.94 267.97,-159.63 259.68,-158.23"/>
<polygon fill="#63b8ff" stroke="#63b8ff" points="260.16,-154.76 249.71,-156.5 258.96,-161.66 260.16,-154.76"/>
</a>
</g>
</g>
<!-- Node4 -->
<g id="Node000004" class="node">
<title>Node4</title>
<g id="a_Node000004"><a xlink:title=" ">
<polygon fill="#e0e0e0" stroke="#999999" points="397.5,-156.5 293.5,-156.5 293.5,-137.5 397.5,-137.5 397.5,-156.5"/>
<text text-anchor="middle" x="345.5" y="-144.5" font-family="Helvetica,sans-Serif" font-size="10.00">deal.II/base/mpi.h</text>
</a>
</g>
</g>
<!-- Node1&#45;&gt;Node4 -->
<g id="edge3_Node000001_Node000004" class="edge">
<title>Node1&#45;&gt;Node4</title>
<g id="a_edge3_Node000001_Node000004"><a xlink:title=" ">
<path fill="none" stroke="#63b8ff" d="M806.61,-207.03C713.4,-200.05 547.2,-185.5 406.5,-162 400.94,-161.07 395.13,-159.94 389.4,-158.74"/>
<polygon fill="#63b8ff" stroke="#63b8ff" points="389.75,-155.23 379.23,-156.5 388.25,-162.07 389.75,-155.23"/>
</a>
</g>
</g>
<!-- Node5 -->
<g id="Node000005" class="node">
<title>Node5</title>
<g id="a_Node000005"><a xlink:title=" ">
<polygon fill="#e0e0e0" stroke="#999999" points="547,-156.5 416,-156.5 416,-137.5 547,-137.5 547,-156.5"/>
<text text-anchor="middle" x="481.5" y="-144.5" font-family="Helvetica,sans-Serif" font-size="10.00">deal.II/fe/mapping_q1.h</text>
</a>
</g>
</g>
<!-- Node1&#45;&gt;Node5 -->
<g id="edge4_Node000001_Node000005" class="edge">
<title>Node1&#45;&gt;Node5</title>
<g id="a_edge4_Node000001_Node000005"><a xlink:title=" ">
<path fill="none" stroke="#63b8ff" d="M806.68,-201.48C740.94,-191.82 641.61,-176.78 555.5,-162 548.92,-160.87 542.02,-159.63 535.19,-158.38"/>
<polygon fill="#63b8ff" stroke="#63b8ff" points="535.75,-154.92 525.28,-156.54 534.47,-161.81 535.75,-154.92"/>
</a>
</g>
</g>
<!-- Node6 -->
<g id="Node000006" class="node">
<title>Node6</title>
<g id="a_Node000006"><a xlink:title=" ">
<polygon fill="#e0e0e0" stroke="#999999" points="662,-156.5 565,-156.5 565,-137.5 662,-137.5 662,-156.5"/>
<text text-anchor="middle" x="613.5" y="-144.5" font-family="Helvetica,sans-Serif" font-size="10.00">deal.II/grid/tria.h</text>
</a>
</g>
</g>
<!-- Node1&#45;&gt;Node6 -->
<g id="edge5_Node000001_Node000006" class="edge">
<title>Node1&#45;&gt;Node6</title>
<g id="a_edge5_Node000001_Node000006"><a xlink:title=" ">
<path fill="none" stroke="#63b8ff" d="M820.47,-197.98C778.6,-188.01 721.08,-174.26 670.5,-162 666.43,-161.01 662.21,-159.98 657.97,-158.95"/>
<polygon fill="#63b8ff" stroke="#63b8ff" points="658.7,-155.53 648.16,-156.55 657.04,-162.32 658.7,-155.53"/>
</a>
</g>
</g>
<!-- Node7 -->
<g id="Node000007" class="node">
<title>Node7</title>
<g id="a_Node000007"><a xlink:title=" ">
<polygon fill="#e0e0e0" stroke="#999999" points="799,-162 680,-162 680,-132 799,-132 799,-162"/>
<text text-anchor="start" x="688" y="-150" font-family="Helvetica,sans-Serif" font-size="10.00">deal.II/numerics/data</text>
<text text-anchor="middle" x="739.5" y="-139" font-family="Helvetica,sans-Serif" font-size="10.00">_out_resample.h</text>
</a>
</g>
</g>
<!-- Node1&#45;&gt;Node7 -->
<g id="edge6_Node000001_Node000007" class="edge">
<title>Node1&#45;&gt;Node7</title>
<g id="a_edge6_Node000001_Node000007"><a xlink:title=" ">
<path fill="none" stroke="#63b8ff" d="M848.78,-197.95C828.35,-188.62 801.33,-176.27 779.27,-166.18"/>
<polygon fill="#63b8ff" stroke="#63b8ff" points="780.7,-162.99 770.15,-162.01 777.79,-169.35 780.7,-162.99"/>
</a>
</g>
</g>
<!-- Node8 -->
<g id="Node000008" class="node">
<title>Node8</title>
<g id="a_Node000008"><a xlink:href="generic__data__out_8hpp.html" target="_top" xlink:title=" ">
<polygon fill="white" stroke="#666666" points="904.5,-96 750.5,-96 750.5,-66 904.5,-66 904.5,-96"/>
<text text-anchor="start" x="758.5" y="-84" font-family="Helvetica,sans-Serif" font-size="10.00">meltpooldg/post_processing</text>
<text text-anchor="middle" x="827.5" y="-73" font-family="Helvetica,sans-Serif" font-size="10.00">/generic_data_out.hpp</text>
</a>
</g>
</g>
<!-- Node1&#45;&gt;Node8 -->
<g id="edge7_Node000001_Node000008" class="edge">
<title>Node1&#45;&gt;Node8</title>
<g id="a_edge7_Node000001_Node000008"><a xlink:title=" ">
<path fill="none" stroke="#63b8ff" d="M868.25,-197.9C861.08,-188.28 852.12,-174.98 846.5,-162 838.76,-144.12 833.88,-122.56 831,-106.33"/>
<polygon fill="#63b8ff" stroke="#63b8ff" points="834.39,-105.36 829.32,-96.06 827.48,-106.49 834.39,-105.36"/>
</a>
</g>
</g>
<!-- Node15 -->
<g id="Node000015" class="node">
<title>Node15</title>
<g id="a_Node000015"><a xlink:title=" ">
<polygon fill="#e0e0e0" stroke="#999999" points="1109.5,-24.5 1065.5,-24.5 1065.5,-5.5 1109.5,-5.5 1109.5,-24.5"/>
<text text-anchor="middle" x="1087.5" y="-12.5" font-family="Helvetica,sans-Serif" font-size="10.00">string</text>
</a>
</g>
</g>
<!-- Node1&#45;&gt;Node15 -->
<g id="edge25_Node000001_Node000015" class="edge">
<title>Node1&#45;&gt;Node15</title>
<g id="a_edge25_Node000001_Node000015"><a xlink:title=" ">
<path fill="none" stroke="#63b8ff" d="M952.38,-204.05C982.76,-197.31 1016.28,-184.88 1039.5,-162 1074.89,-127.13 1084.19,-65.74 1086.63,-34.86"/>
<polygon fill="#63b8ff" stroke="#63b8ff" points="1090.14,-34.84 1087.27,-24.64 1083.16,-34.4 1090.14,-34.84"/>
</a>
</g>
</g>
<!-- Node16 -->
<g id="Node000016" class="node">
<title>Node16</title>
<g id="a_Node000016"><a xlink:title=" ">
<polygon fill="#e0e0e0" stroke="#999999" points="1047,-24.5 1006,-24.5 1006,-5.5 1047,-5.5 1047,-24.5"/>
<text text-anchor="middle" x="1026.5" y="-12.5" font-family="Helvetica,sans-Serif" font-size="10.00">tuple</text>
</a>
</g>
</g>
<!-- Node1&#45;&gt;Node16 -->
<g id="edge26_Node000001_Node000016" class="edge">
<title>Node1&#45;&gt;Node16</title>
<g id="a_edge26_Node000001_Node000016"><a xlink:title=" ">
<path fill="none" stroke="#63b8ff" d="M952.2,-202.47C977.14,-195.42 1002.72,-183.19 1018.5,-162 1046.6,-124.27 1038.21,-64.65 1031.43,-34.61"/>
<polygon fill="#63b8ff" stroke="#63b8ff" points="1034.77,-33.53 1028.99,-24.65 1027.97,-35.2 1034.77,-33.53"/>
</a>
</g>
</g>
<!-- Node17 -->
<g id="Node000017" class="node">
<title>Node17</title>
<g id="a_Node000017"><a xlink:title=" ">
<polygon fill="#e0e0e0" stroke="#999999" points="1175,-24.5 1128,-24.5 1128,-5.5 1175,-5.5 1175,-24.5"/>
<text text-anchor="middle" x="1151.5" y="-12.5" font-family="Helvetica,sans-Serif" font-size="10.00">vector</text>
</a>
</g>
</g>
<!-- Node1&#45;&gt;Node17 -->
<g id="edge28_Node000001_Node000017" class="edge">
<title>Node1&#45;&gt;Node17</title>
<g id="a_edge28_Node000001_Node000017"><a xlink:title=" ">
<path fill="none" stroke="#63b8ff" d="M952.37,-205.09C988.68,-198.63 1031.54,-186.14 1063.5,-162 1086.61,-144.55 1125.81,-68.47 1142.99,-33.59"/>
<polygon fill="#63b8ff" stroke="#63b8ff" points="1146.16,-35.08 1147.41,-24.56 1139.87,-32.01 1146.16,-35.08"/>
</a>
</g>
</g>
<!-- Node18 -->
<g id="Node000018" class="node">
<title>Node18</title>
<g id="a_Node000018"><a xlink:href="output__data_8hpp.html" target="_top" xlink:title=" ">
<polygon fill="white" stroke="#666666" points="1295.5,-96 1141.5,-96 1141.5,-66 1295.5,-66 1295.5,-96"/>
<text text-anchor="start" x="1149.5" y="-84" font-family="Helvetica,sans-Serif" font-size="10.00">meltpooldg/post_processing</text>
<text text-anchor="middle" x="1218.5" y="-73" font-family="Helvetica,sans-Serif" font-size="10.00">/output_data.hpp</text>
</a>
</g>
</g>
<!-- Node1&#45;&gt;Node18 -->
<g id="edge17_Node000001_Node000018" class="edge">
<title>Node1&#45;&gt;Node18</title>
<g id="a_edge17_Node000001_Node000018"><a xlink:title=" ">
<path fill="none" stroke="#63b8ff" d="M952.18,-207.32C1003.4,-201.7 1072.4,-189.3 1127.5,-162 1156.1,-147.83 1182.77,-122.34 1199.75,-103.94"/>
<polygon fill="#63b8ff" stroke="#63b8ff" points="1202.76,-105.83 1206.84,-96.05 1197.55,-101.15 1202.76,-105.83"/>
</a>
</g>
</g>
<!-- Node21 -->
<g id="Node000021" class="node">
<title>Node21</title>
<g id="a_Node000021"><a xlink:href="post__processor__base_8hpp.html" target="_top" xlink:title=" ">
<polygon fill="white" stroke="#666666" points="1009.5,-162 855.5,-162 855.5,-132 1009.5,-132 1009.5,-162"/>
<text text-anchor="start" x="863.5" y="-150" font-family="Helvetica,sans-Serif" font-size="10.00">meltpooldg/post_processing</text>
<text text-anchor="middle" x="932.5" y="-139" font-family="Helvetica,sans-Serif" font-size="10.00">/post_processor_base.hpp</text>
</a>
</g>
</g>
<!-- Node1&#45;&gt;Node21 -->
<g id="edge22_Node000001_Node000021" class="edge">
<title>Node1&#45;&gt;Node21</title>
<g id="a_edge22_Node000001_Node000021"><a xlink:title=" ">
<path fill="none" stroke="#63b8ff" d="M891.26,-197.8C898.06,-189.59 906.74,-179.1 914.39,-169.87"/>
<polygon fill="#63b8ff" stroke="#63b8ff" points="917.09,-172.1 920.77,-162.16 911.7,-167.63 917.09,-172.1"/>
</a>
</g>
</g>
<!-- Node22 -->
<g id="Node000022" class="node">
<title>Node22</title>
<g id="a_Node000022"><a xlink:title=" ">
<polygon fill="#e0e0e0" stroke="#999999" points="1235,-156.5 1180,-156.5 1180,-137.5 1235,-137.5 1235,-156.5"/>
<text text-anchor="middle" x="1207.5" y="-144.5" font-family="Helvetica,sans-Serif" font-size="10.00">fstream</text>
</a>
</g>
</g>
<!-- Node1&#45;&gt;Node22 -->
<g id="edge24_Node000001_Node000022" class="edge">
<title>Node1&#45;&gt;Node22</title>
<g id="a_edge24_Node000001_Node000022"><a xlink:title=" ">
<path fill="none" stroke="#63b8ff" d="M952.12,-202.35C1010.31,-193.89 1093.78,-180.12 1165.5,-162 1168.29,-161.29 1171.17,-160.49 1174.05,-159.64"/>
<polygon fill="#63b8ff" stroke="#63b8ff" points="1175.2,-162.95 1183.69,-156.62 1173.11,-156.27 1175.2,-162.95"/>
</a>
</g>
</g>
<!-- Node23 -->
<g id="Node000023" class="node">
<title>Node23</title>
<g id="a_Node000023"><a xlink:title=" ">
<polygon fill="#e0e0e0" stroke="#999999" points="1298,-156.5 1253,-156.5 1253,-137.5 1298,-137.5 1298,-156.5"/>
<text text-anchor="middle" x="1275.5" y="-144.5" font-family="Helvetica,sans-Serif" font-size="10.00">utility</text>
</a>
</g>
</g>
<!-- Node1&#45;&gt;Node23 -->
<g id="edge27_Node000001_Node000023" class="edge">
<title>Node1&#45;&gt;Node23</title>
<g id="a_edge27_Node000001_Node000023"><a xlink:title=" ">
<path fill="none" stroke="#63b8ff" d="M952.1,-208.22C1026.69,-202.91 1145.54,-190.47 1244.5,-162 1246.14,-161.53 1247.8,-160.99 1249.46,-160.39"/>
<polygon fill="#63b8ff" stroke="#63b8ff" points="1250.83,-163.62 1258.78,-156.61 1248.2,-157.13 1250.83,-163.62"/>
</a>
</g>
</g>
<!-- Node9 -->
<g id="Node000009" class="node">
<title>Node9</title>
<g id="a_Node000009"><a xlink:title=" ">
<polygon fill="#e0e0e0" stroke="#999999" points="719.5,-24.5 579.5,-24.5 579.5,-5.5 719.5,-5.5 719.5,-24.5"/>
<text text-anchor="middle" x="649.5" y="-12.5" font-family="Helvetica,sans-Serif" font-size="10.00">deal.II/dofs/dof_handler.h</text>
</a>
</g>
</g>
<!-- Node8&#45;&gt;Node9 -->
<g id="edge8_Node000008_Node000009" class="edge">
<title>Node8&#45;&gt;Node9</title>
<g id="a_edge8_Node000008_Node000009"><a xlink:title=" ">
<path fill="none" stroke="#63b8ff" d="M788.44,-65.95C756.81,-54.58 712.74,-38.74 682.77,-27.96"/>
<polygon fill="#63b8ff" stroke="#63b8ff" points="683.78,-24.61 673.19,-24.52 681.41,-31.19 683.78,-24.61"/>
</a>
</g>
</g>
<!-- Node10 -->
<g id="Node000010" class="node">
<title>Node10</title>
<g id="a_Node000010"><a xlink:title=" ">
<polygon fill="#e0e0e0" stroke="#999999" points="851.5,-24.5 737.5,-24.5 737.5,-5.5 851.5,-5.5 851.5,-24.5"/>
<text text-anchor="middle" x="794.5" y="-12.5" font-family="Helvetica,sans-Serif" font-size="10.00">deal.II/fe/mapping.h</text>
</a>
</g>
</g>
<!-- Node8&#45;&gt;Node10 -->
<g id="edge9_Node000008_Node000010" class="edge">
<title>Node8&#45;&gt;Node10</title>
<g id="a_edge9_Node000008_Node000010"><a xlink:title=" ">
<path fill="none" stroke="#63b8ff" d="M820.18,-65.8C815.33,-56.41 808.95,-44.02 803.75,-33.95"/>
<polygon fill="#63b8ff" stroke="#63b8ff" points="806.75,-32.13 799.06,-24.84 800.53,-35.34 806.75,-32.13"/>
</a>
</g>
</g>
<!-- Node11 -->
<g id="Node000011" class="node">
<title>Node11</title>
<g id="a_Node000011"><a xlink:title=" ">
<polygon fill="#e0e0e0" stroke="#999999" points="987.5,-30 869.5,-30 869.5,0 987.5,0 987.5,-30"/>
<text text-anchor="start" x="877.5" y="-18" font-family="Helvetica,sans-Serif" font-size="10.00">deal.II/lac/la_parallel</text>
<text text-anchor="middle" x="928.5" y="-7" font-family="Helvetica,sans-Serif" font-size="10.00">_vector.h</text>
</a>
</g>
</g>
<!-- Node8&#45;&gt;Node11 -->
<g id="edge10_Node000008_Node000011" class="edge">
<title>Node8&#45;&gt;Node11</title>
<g id="a_edge10_Node000008_Node000011"><a xlink:title=" ">
<path fill="none" stroke="#63b8ff" d="M849.92,-65.8C863.91,-56.93 882.12,-45.39 897.48,-35.66"/>
<polygon fill="#63b8ff" stroke="#63b8ff" points="899.57,-38.47 906.15,-30.16 895.83,-32.56 899.57,-38.47"/>
</a>
</g>
</g>
<!-- Node12 -->
<g id="Node000012" class="node">
<title>Node12</title>
<g id="a_Node000012"><a xlink:title=" ">
<polygon fill="#e0e0e0" stroke="#999999" points="367.5,-30 209.5,-30 209.5,0 367.5,0 367.5,-30"/>
<text text-anchor="start" x="217.5" y="-18" font-family="Helvetica,sans-Serif" font-size="10.00">deal.II/numerics/data</text>
<text text-anchor="middle" x="288.5" y="-7" font-family="Helvetica,sans-Serif" font-size="10.00">_component_interpretation.h</text>
</a>
</g>
</g>
<!-- Node8&#45;&gt;Node12 -->
<g id="edge11_Node000008_Node000012" class="edge">
<title>Node8&#45;&gt;Node12</title>
<g id="a_edge11_Node000008_Node000012"><a xlink:title=" ">
<path fill="none" stroke="#63b8ff" d="M750.36,-72.57C662.64,-63.87 514.9,-48.44 377.89,-30.15"/>
<polygon fill="#63b8ff" stroke="#63b8ff" points="378.01,-26.63 367.63,-28.77 377.07,-33.57 378.01,-26.63"/>
</a>
</g>
</g>
<!-- Node13 -->
<g id="Node000013" class="node">
<title>Node13</title>
<g id="a_Node000013"><a xlink:title=" ">
<polygon fill="#e0e0e0" stroke="#999999" points="505,-30 386,-30 386,0 505,0 505,-30"/>
<text text-anchor="start" x="394" y="-18" font-family="Helvetica,sans-Serif" font-size="10.00">deal.II/numerics/data</text>
<text text-anchor="middle" x="445.5" y="-7" font-family="Helvetica,sans-Serif" font-size="10.00">_out.h</text>
</a>
</g>
</g>
<!-- Node8&#45;&gt;Node13 -->
<g id="edge12_Node000008_Node000013" class="edge">
<title>Node8&#45;&gt;Node13</title>
<g id="a_edge12_Node000008_Node000013"><a xlink:title=" ">
<path fill="none" stroke="#63b8ff" d="M750.49,-68.62C689.4,-59.37 601.58,-45.62 515.28,-30.1"/>
<polygon fill="#63b8ff" stroke="#63b8ff" points="515.77,-26.63 505.31,-28.29 514.53,-33.52 515.77,-26.63"/>
</a>
</g>
</g>
<!-- Node14 -->
<g id="Node000014" class="node">
<title>Node14</title>
<g id="a_Node000014"><a xlink:title=" ">
<polygon fill="#e0e0e0" stroke="#999999" points="561.5,-24.5 523.5,-24.5 523.5,-5.5 561.5,-5.5 561.5,-24.5"/>
<text text-anchor="middle" x="542.5" y="-12.5" font-family="Helvetica,sans-Serif" font-size="10.00">map</text>
</a>
</g>
</g>
<!-- Node8&#45;&gt;Node14 -->
<g id="edge13_Node000008_Node000014" class="edge">
<title>Node8&#45;&gt;Node14</title>
<g id="a_edge13_Node000008_Node000014"><a xlink:title=" ">
<path fill="none" stroke="#63b8ff" d="M750.46,-70.59C698.66,-62.92 629.35,-50.02 570.5,-30 569.45,-29.64 568.38,-29.25 567.31,-28.83"/>
<polygon fill="#63b8ff" stroke="#63b8ff" points="568.43,-25.5 557.87,-24.62 565.58,-31.89 568.43,-25.5"/>
</a>
</g>
</g>
<!-- Node8&#45;&gt;Node15 -->
<g id="edge14_Node000008_Node000015" class="edge">
<title>Node8&#45;&gt;Node15</title>
<g id="a_edge14_Node000008_Node000015"><a xlink:title=" ">
<path fill="none" stroke="#63b8ff" d="M904.65,-67.32C949.58,-58.91 1006.95,-46.4 1056.5,-30 1057.94,-29.52 1059.4,-29 1060.86,-28.45"/>
<polygon fill="#63b8ff" stroke="#63b8ff" points="1062.48,-31.57 1070.38,-24.5 1059.8,-25.1 1062.48,-31.57"/>
</a>
</g>
</g>
<!-- Node8&#45;&gt;Node16 -->
<g id="edge15_Node000008_Node000016" class="edge">
<title>Node8&#45;&gt;Node16</title>
<g id="a_edge15_Node000008_Node000016"><a xlink:title=" ">
<path fill="none" stroke="#63b8ff" d="M882.6,-65.93C915.97,-56.86 959.16,-44.15 996.5,-30 997.55,-29.6 998.61,-29.19 999.68,-28.75"/>
<polygon fill="#63b8ff" stroke="#63b8ff" points="1001.47,-31.79 1009.24,-24.59 998.67,-25.37 1001.47,-31.79"/>
</a>
</g>
</g>
<!-- Node8&#45;&gt;Node17 -->
<g id="edge16_Node000008_Node000017" class="edge">
<title>Node8&#45;&gt;Node17</title>
<g id="a_edge16_Node000008_Node000017"><a xlink:title=" ">
<path fill="none" stroke="#63b8ff" d="M904.58,-71.69C963.88,-64.11 1047.43,-50.88 1118.5,-30 1120.18,-29.51 1121.9,-28.95 1123.61,-28.35"/>
<polygon fill="#63b8ff" stroke="#63b8ff" points="1125.21,-31.49 1133.27,-24.62 1122.69,-24.96 1125.21,-31.49"/>
</a>
</g>
</g>
<!-- Node18&#45;&gt;Node15 -->
<g id="edge20_Node000018_Node000015" class="edge">
<title>Node18&#45;&gt;Node15</title>
<g id="a_edge20_Node000018_Node000015"><a xlink:title=" ">
<path fill="none" stroke="#63b8ff" d="M1189.75,-65.95C1167.18,-54.93 1136.01,-39.7 1114.03,-28.96"/>
<polygon fill="#63b8ff" stroke="#63b8ff" points="1115.46,-25.76 1104.93,-24.52 1112.38,-32.05 1115.46,-25.76"/>
</a>
</g>
</g>
<!-- Node18&#45;&gt;Node17 -->
<g id="edge21_Node000018_Node000017" class="edge">
<title>Node18&#45;&gt;Node17</title>
<g id="a_edge21_Node000018_Node000017"><a xlink:title=" ">
<path fill="none" stroke="#63b8ff" d="M1203.63,-65.8C1193.08,-55.72 1178.92,-42.19 1168.02,-31.78"/>
<polygon fill="#63b8ff" stroke="#63b8ff" points="1170.41,-29.22 1160.76,-24.84 1165.57,-34.28 1170.41,-29.22"/>
</a>
</g>
</g>
<!-- Node19 -->
<g id="Node000019" class="node">
<title>Node19</title>
<g id="a_Node000019"><a xlink:title=" ">
<polygon fill="#e0e0e0" stroke="#999999" points="1320,-30 1193,-30 1193,0 1320,0 1320,-30"/>
<text text-anchor="start" x="1201" y="-18" font-family="Helvetica,sans-Serif" font-size="10.00">deal.II/base/parameter</text>
<text text-anchor="middle" x="1256.5" y="-7" font-family="Helvetica,sans-Serif" font-size="10.00">_handler.h</text>
</a>
</g>
</g>
<!-- Node18&#45;&gt;Node19 -->
<g id="edge18_Node000018_Node000019" class="edge">
<title>Node18&#45;&gt;Node19</title>
<g id="a_edge18_Node000018_Node000019"><a xlink:title=" ">
<path fill="none" stroke="#63b8ff" d="M1226.93,-65.8C1231.61,-57.92 1237.53,-47.95 1242.85,-38.99"/>
<polygon fill="#63b8ff" stroke="#63b8ff" points="1245.99,-40.55 1248.09,-30.16 1239.98,-36.98 1245.99,-40.55"/>
</a>
</g>
</g>
<!-- Node20 -->
<g id="Node000020" class="node">
<title>Node20</title>
<g id="a_Node000020"><a xlink:title=" ">
<polygon fill="#e0e0e0" stroke="#999999" points="1382.5,-24.5 1338.5,-24.5 1338.5,-5.5 1382.5,-5.5 1382.5,-24.5"/>
<text text-anchor="middle" x="1360.5" y="-12.5" font-family="Helvetica,sans-Serif" font-size="10.00">limits</text>
</a>
</g>
</g>
<!-- Node18&#45;&gt;Node20 -->
<g id="edge19_Node000018_Node000020" class="edge">
<title>Node18&#45;&gt;Node20</title>
<g id="a_edge19_Node000018_Node000020"><a xlink:title=" ">
<path fill="none" stroke="#63b8ff" d="M1249.6,-66C1271.86,-55.98 1302.53,-42.17 1329.5,-30 1330.35,-29.62 1331.21,-29.23 1332.08,-28.84"/>
<polygon fill="#63b8ff" stroke="#63b8ff" points="1333.81,-31.9 1341.48,-24.59 1330.93,-25.52 1333.81,-31.9"/>
</a>
</g>
</g>
<!-- Node21&#45;&gt;Node8 -->
<g id="edge23_Node000021_Node000008" class="edge">
<title>Node21&#45;&gt;Node8</title>
<g id="a_edge23_Node000021_Node000008"><a xlink:title=" ">
<path fill="none" stroke="#63b8ff" d="M909.46,-131.95C894.69,-122.95 875.31,-111.14 859.11,-101.27"/>
<polygon fill="#63b8ff" stroke="#63b8ff" points="860.85,-98.23 850.49,-96.01 857.21,-104.21 860.85,-98.23"/>
</a>
</g>
</g>
</g>
</svg>

<g id="navigator" transform="translate(0 0)" fill="#404254">
  <rect fill="#f2f5e9" fill-opacity="0.5" stroke="#606060" stroke-width=".5" x="0" y="0" width="60" height="60"/>
  <use id="zoomplus" xlink:href="#zoomPlus" x="17" y="9" onmousedown="handleZoom(evt,'in')"/>
  <use id="zoomminus" xlink:href="#zoomMin" x="42" y="9" onmousedown="handleZoom(evt,'out')"/>
  <use id="reset" xlink:href="#resetDef" x="30" y="36" onmousedown="handleReset()"/>
   <use id="arrowup" xlink:href="#arrowUp" x="0" y="0" onmousedown="handlePan(0,-1)"/>
  <use id="arrowright" xlink:href="#arrowRight" x="0" y="0" onmousedown="handlePan(1,0)"/>
  <use id="arrowdown" xlink:href="#arrowDown" x="0" y="0" onmousedown="handlePan(0,1)"/>
  <use id="arrowleft" xlink:href="#arrowLeft" x="0" y="0" onmousedown="handlePan(-1,0)"/>
</g>
<svg viewBox="0 0 15 15" width="100%" height="30px" preserveAspectRatio="xMaxYMin meet">
 <g id="arrow_out" transform="scale(0.3 0.3)">
  <a xlink:href="slice_8hpp__incl_org.svg" target="_base">
   <rect id="button" ry="5" rx="5" y="6" x="6" height="38" width="38"
        fill="#f2f5e9" fill-opacity="0.5" stroke="#606060" stroke-width="1.0"/>
   <path id="arrow"
     d="M 11.500037,31.436501 C 11.940474,20.09759 22.043105,11.32322 32.158766,21.979434 L 37.068811,17.246167 C 37.068811,17.246167 37.088388,32 37.088388,32 L 22.160133,31.978069 C 22.160133,31.978069 26.997745,27.140456 26.997745,27.140456 C 18.528582,18.264221 13.291696,25.230495 11.500037,31.436501 z"
     style="fill:#404040;"/>
  </a>
 </g>
</svg>

<style type='text/css'>
<![CDATA[
[data-mouse-over-selected='false'] { opacity: 0.7; }
[data-mouse-over-selected='true']  { opacity: 1.0; }
]]>
</style>
<script type="application/ecmascript"><![CDATA[
document.addEventListener('DOMContentLoaded', (event) => {
  highlightEdges();
  highlightAdjacentNodes();
});
]]></script>
</svg>
