<?xml version="1.0" encoding="UTF-8" standalone="no"?>
<!DOCTYPE svg PUBLIC "-//W3C//DTD SVG 1.1//EN"
 "http://www.w3.org/Graphics/SVG/1.1/DTD/svg11.dtd">
<!-- Generated by graphviz version 2.43.0 (0)
 -->
<!-- Title: source/cut/solution_transfer.cpp Pages: 1 -->
<svg width="4999pt" height="225pt"
 viewBox="0.00 0.00 4999.00 225.00" xmlns="http://www.w3.org/2000/svg" xmlns:xlink="http://www.w3.org/1999/xlink">
<g id="graph0" class="graph" transform="scale(1 1) rotate(0) translate(4 221)">
<title>source/cut/solution_transfer.cpp</title>
<!-- Node1 -->
<g id="Node000001" class="node">
<title>Node1</title>
<g id="a_Node000001"><a xlink:title=" ">
<polygon fill="#999999" stroke="#666666" points="2975.5,-217 2866.5,-217 2866.5,-187 2975.5,-187 2975.5,-217"/>
<text text-anchor="start" x="2874.5" y="-205" font-family="Helvetica,sans-Serif" font-size="10.00">source/cut/solution</text>
<text text-anchor="middle" x="2921" y="-194" font-family="Helvetica,sans-Serif" font-size="10.00">_transfer.cpp</text>
</a>
</g>
</g>
<!-- Node2 -->
<g id="Node000002" class="node">
<title>Node2</title>
<g id="a_Node000002"><a xlink:href="solution__transfer_8hpp.html" target="_top" xlink:title=" ">
<polygon fill="white" stroke="#666666" points="794,-151 662,-151 662,-121 794,-121 794,-151"/>
<text text-anchor="start" x="670" y="-139" font-family="Helvetica,sans-Serif" font-size="10.00">meltpooldg/cut/solution</text>
<text text-anchor="middle" x="728" y="-128" font-family="Helvetica,sans-Serif" font-size="10.00">_transfer.hpp</text>
</a>
</g>
</g>
<!-- Node1&#45;&gt;Node2 -->
<g id="edge1_Node000001_Node000002" class="edge">
<title>Node1&#45;&gt;Node2</title>
<g id="a_edge1_Node000001_Node000002"><a xlink:title=" ">
<path fill="none" stroke="#63b8ff" d="M2866.47,-199.51C2650.94,-193.61 1837.52,-171.2 1168,-151 1040.51,-147.15 892.24,-142.37 804.48,-139.51"/>
<polygon fill="#63b8ff" stroke="#63b8ff" points="804.45,-136.01 794.34,-139.18 804.22,-143 804.45,-136.01"/>
</a>
</g>
</g>
<!-- Node14 -->
<g id="Node000014" class="node">
<title>Node14</title>
<g id="a_Node000014"><a xlink:title=" ">
<polygon fill="#e0e0e0" stroke="#999999" points="1078.5,-19 1031.5,-19 1031.5,0 1078.5,0 1078.5,-19"/>
<text text-anchor="middle" x="1055" y="-7" font-family="Helvetica,sans-Serif" font-size="10.00">vector</text>
</a>
</g>
</g>
<!-- Node1&#45;&gt;Node14 -->
<g id="edge61_Node000001_Node000014" class="edge">
<title>Node1&#45;&gt;Node14</title>
<g id="a_edge61_Node000001_Node000014"><a xlink:title=" ">
<path fill="none" stroke="#63b8ff" d="M2866.48,-200.55C2606.1,-198.23 1495.4,-186.33 1345,-151 1236.98,-125.62 1122.27,-55.23 1076.07,-24.81"/>
<polygon fill="#63b8ff" stroke="#63b8ff" points="1077.79,-21.75 1067.52,-19.12 1073.91,-27.58 1077.79,-21.75"/>
</a>
</g>
</g>
<!-- Node15 -->
<g id="Node000015" class="node">
<title>Node15</title>
<g id="a_Node000015"><a xlink:title=" ">
<polygon fill="#e0e0e0" stroke="#999999" points="1678,-145.5 1540,-145.5 1540,-126.5 1678,-126.5 1678,-145.5"/>
<text text-anchor="middle" x="1609" y="-133.5" font-family="Helvetica,sans-Serif" font-size="10.00">deal.II/base/exceptions.h</text>
</a>
</g>
</g>
<!-- Node1&#45;&gt;Node15 -->
<g id="edge15_Node000001_Node000015" class="edge">
<title>Node1&#45;&gt;Node15</title>
<g id="a_edge15_Node000001_Node000015"><a xlink:title=" ">
<path fill="none" stroke="#63b8ff" d="M2866.37,-201.45C2693.13,-202.31 2140.72,-200.67 1687,-151 1678.45,-150.06 1669.42,-148.75 1660.66,-147.3"/>
<polygon fill="#63b8ff" stroke="#63b8ff" points="1660.99,-143.8 1650.54,-145.55 1659.8,-150.7 1660.99,-143.8"/>
</a>
</g>
</g>
<!-- Node16 -->
<g id="Node000016" class="node">
<title>Node16</title>
<g id="a_Node000016"><a xlink:title=" ">
<polygon fill="#e0e0e0" stroke="#999999" points="1800,-145.5 1696,-145.5 1696,-126.5 1800,-126.5 1800,-145.5"/>
<text text-anchor="middle" x="1748" y="-133.5" font-family="Helvetica,sans-Serif" font-size="10.00">deal.II/base/mpi.h</text>
</a>
</g>
</g>
<!-- Node1&#45;&gt;Node16 -->
<g id="edge16_Node000001_Node000016" class="edge">
<title>Node1&#45;&gt;Node16</title>
<g id="a_edge16_Node000001_Node000016"><a xlink:title=" ">
<path fill="none" stroke="#63b8ff" d="M2866.29,-199.82C2672.29,-195.44 2017.74,-178.91 1810,-151 1803.68,-150.15 1797.06,-148.97 1790.59,-147.66"/>
<polygon fill="#63b8ff" stroke="#63b8ff" points="1791.14,-144.19 1780.62,-145.5 1789.66,-151.04 1791.14,-144.19"/>
</a>
</g>
</g>
<!-- Node17 -->
<g id="Node000017" class="node">
<title>Node17</title>
<g id="a_Node000017"><a xlink:title=" ">
<polygon fill="#e0e0e0" stroke="#999999" points="1953.5,-145.5 1818.5,-145.5 1818.5,-126.5 1953.5,-126.5 1953.5,-145.5"/>
<text text-anchor="middle" x="1886" y="-133.5" font-family="Helvetica,sans-Serif" font-size="10.00">deal.II/base/partitioner.h</text>
</a>
</g>
</g>
<!-- Node1&#45;&gt;Node17 -->
<g id="edge17_Node000001_Node000017" class="edge">
<title>Node1&#45;&gt;Node17</title>
<g id="a_edge17_Node000001_Node000017"><a xlink:title=" ">
<path fill="none" stroke="#63b8ff" d="M2866.25,-200.59C2719.45,-198.95 2305.02,-190.85 1963,-151 1954.66,-150.03 1945.86,-148.71 1937.3,-147.27"/>
<polygon fill="#63b8ff" stroke="#63b8ff" points="1937.87,-143.81 1927.41,-145.53 1936.66,-150.71 1937.87,-143.81"/>
</a>
</g>
</g>
<!-- Node18 -->
<g id="Node000018" class="node">
<title>Node18</title>
<g id="a_Node000018"><a xlink:title=" ">
<polygon fill="#e0e0e0" stroke="#999999" points="2100.5,-151 1971.5,-151 1971.5,-121 2100.5,-121 2100.5,-151"/>
<text text-anchor="start" x="1979.5" y="-139" font-family="Helvetica,sans-Serif" font-size="10.00">deal.II/base/quadrature</text>
<text text-anchor="middle" x="2036" y="-128" font-family="Helvetica,sans-Serif" font-size="10.00">_lib.h</text>
</a>
</g>
</g>
<!-- Node1&#45;&gt;Node18 -->
<g id="edge18_Node000001_Node000018" class="edge">
<title>Node1&#45;&gt;Node18</title>
<g id="a_edge18_Node000001_Node000018"><a xlink:title=" ">
<path fill="none" stroke="#63b8ff" d="M2866.2,-199.99C2736.61,-197.09 2401.09,-186.62 2111.19,-151.03"/>
<polygon fill="#63b8ff" stroke="#63b8ff" points="2111.25,-147.51 2100.9,-149.75 2110.39,-154.46 2111.25,-147.51"/>
</a>
</g>
</g>
<!-- Node19 -->
<g id="Node000019" class="node">
<title>Node19</title>
<g id="a_Node000019"><a xlink:title=" ">
<polygon fill="#e0e0e0" stroke="#999999" points="2233.5,-145.5 2118.5,-145.5 2118.5,-126.5 2233.5,-126.5 2233.5,-145.5"/>
<text text-anchor="middle" x="2176" y="-133.5" font-family="Helvetica,sans-Serif" font-size="10.00">deal.II/base/tensor.h</text>
</a>
</g>
</g>
<!-- Node1&#45;&gt;Node19 -->
<g id="edge19_Node000001_Node000019" class="edge">
<title>Node1&#45;&gt;Node19</title>
<g id="a_edge19_Node000001_Node000019"><a xlink:title=" ">
<path fill="none" stroke="#63b8ff" d="M2866.25,-199.42C2750.63,-195.54 2473.25,-183.4 2243,-151 2236.28,-150.05 2229.22,-148.83 2222.32,-147.51"/>
<polygon fill="#63b8ff" stroke="#63b8ff" points="2222.85,-144.05 2212.36,-145.51 2221.47,-150.91 2222.85,-144.05"/>
</a>
</g>
</g>
<!-- Node20 -->
<g id="Node000020" class="node">
<title>Node20</title>
<g id="a_Node000020"><a xlink:title=" ">
<polygon fill="#e0e0e0" stroke="#999999" points="2364,-145.5 2252,-145.5 2252,-126.5 2364,-126.5 2364,-145.5"/>
<text text-anchor="middle" x="2308" y="-133.5" font-family="Helvetica,sans-Serif" font-size="10.00">deal.II/base/types.h</text>
</a>
</g>
</g>
<!-- Node1&#45;&gt;Node20 -->
<g id="edge20_Node000001_Node000020" class="edge">
<title>Node1&#45;&gt;Node20</title>
<g id="a_edge20_Node000001_Node000020"><a xlink:title=" ">
<path fill="none" stroke="#63b8ff" d="M2866.29,-198.21C2767.38,-192.67 2552.43,-178.41 2373,-151 2366.78,-150.05 2360.27,-148.87 2353.87,-147.6"/>
<polygon fill="#63b8ff" stroke="#63b8ff" points="2354.46,-144.15 2343.96,-145.56 2353.04,-151.01 2354.46,-144.15"/>
</a>
</g>
</g>
<!-- Node21 -->
<g id="Node000021" class="node">
<title>Node21</title>
<g id="a_Node000021"><a xlink:title=" ">
<polygon fill="#e0e0e0" stroke="#999999" points="2504,-145.5 2382,-145.5 2382,-126.5 2504,-126.5 2504,-145.5"/>
<text text-anchor="middle" x="2443" y="-133.5" font-family="Helvetica,sans-Serif" font-size="10.00">deal.II/base/utilities.h</text>
</a>
</g>
</g>
<!-- Node1&#45;&gt;Node21 -->
<g id="edge21_Node000001_Node000021" class="edge">
<title>Node1&#45;&gt;Node21</title>
<g id="a_edge21_Node000001_Node000021"><a xlink:title=" ">
<path fill="none" stroke="#63b8ff" d="M2866.37,-195.63C2787.92,-187.62 2638.94,-171.28 2513,-151 2506.42,-149.94 2499.52,-148.71 2492.72,-147.42"/>
<polygon fill="#63b8ff" stroke="#63b8ff" points="2493.37,-143.98 2482.88,-145.52 2492.04,-150.86 2493.37,-143.98"/>
</a>
</g>
</g>
<!-- Node22 -->
<g id="Node000022" class="node">
<title>Node22</title>
<g id="a_Node000022"><a xlink:title=" ">
<polygon fill="#e0e0e0" stroke="#999999" points="2650,-145.5 2522,-145.5 2522,-126.5 2650,-126.5 2650,-145.5"/>
<text text-anchor="middle" x="2586" y="-133.5" font-family="Helvetica,sans-Serif" font-size="10.00">deal.II/dofs/dof_tools.h</text>
</a>
</g>
</g>
<!-- Node1&#45;&gt;Node22 -->
<g id="edge22_Node000001_Node000022" class="edge">
<title>Node1&#45;&gt;Node22</title>
<g id="a_edge22_Node000001_Node000022"><a xlink:title=" ">
<path fill="none" stroke="#63b8ff" d="M2866.3,-190.58C2813.3,-180.47 2730.63,-164.7 2659,-151 2652.93,-149.84 2646.57,-148.62 2640.25,-147.41"/>
<polygon fill="#63b8ff" stroke="#63b8ff" points="2640.87,-143.97 2630.39,-145.52 2639.56,-150.84 2640.87,-143.97"/>
</a>
</g>
</g>
<!-- Node23 -->
<g id="Node000023" class="node">
<title>Node23</title>
<g id="a_Node000023"><a xlink:title=" ">
<polygon fill="#e0e0e0" stroke="#999999" points="2772,-145.5 2668,-145.5 2668,-126.5 2772,-126.5 2772,-145.5"/>
<text text-anchor="middle" x="2720" y="-133.5" font-family="Helvetica,sans-Serif" font-size="10.00">deal.II/fe/fe_dgq.h</text>
</a>
</g>
</g>
<!-- Node1&#45;&gt;Node23 -->
<g id="edge23_Node000001_Node000023" class="edge">
<title>Node1&#45;&gt;Node23</title>
<g id="a_edge23_Node000001_Node000023"><a xlink:title=" ">
<path fill="none" stroke="#63b8ff" d="M2876.89,-186.95C2840.86,-175.48 2790.54,-159.46 2756.69,-148.68"/>
<polygon fill="#63b8ff" stroke="#63b8ff" points="2757.34,-145.22 2746.75,-145.52 2755.22,-151.89 2757.34,-145.22"/>
</a>
</g>
</g>
<!-- Node24 -->
<g id="Node000024" class="node">
<title>Node24</title>
<g id="a_Node000024"><a xlink:title=" ">
<polygon fill="#e0e0e0" stroke="#999999" points="2911.5,-151 2790.5,-151 2790.5,-121 2911.5,-121 2911.5,-151"/>
<text text-anchor="start" x="2798.5" y="-139" font-family="Helvetica,sans-Serif" font-size="10.00">deal.II/fe/fe_interface</text>
<text text-anchor="middle" x="2851" y="-128" font-family="Helvetica,sans-Serif" font-size="10.00">_values.h</text>
</a>
</g>
</g>
<!-- Node1&#45;&gt;Node24 -->
<g id="edge24_Node000001_Node000024" class="edge">
<title>Node1&#45;&gt;Node24</title>
<g id="a_edge24_Node000001_Node000024"><a xlink:title=" ">
<path fill="none" stroke="#63b8ff" d="M2905.46,-186.8C2896.22,-178.34 2884.32,-167.46 2874,-158.03"/>
<polygon fill="#63b8ff" stroke="#63b8ff" points="2876.23,-155.33 2866.49,-151.16 2871.51,-160.49 2876.23,-155.33"/>
</a>
</g>
</g>
<!-- Node25 -->
<g id="Node000025" class="node">
<title>Node25</title>
<g id="a_Node000025"><a xlink:title=" ">
<polygon fill="#e0e0e0" stroke="#999999" points="3052.5,-145.5 2929.5,-145.5 2929.5,-126.5 3052.5,-126.5 3052.5,-145.5"/>
<text text-anchor="middle" x="2991" y="-133.5" font-family="Helvetica,sans-Serif" font-size="10.00">deal.II/fe/fe_nothing.h</text>
</a>
</g>
</g>
<!-- Node1&#45;&gt;Node25 -->
<g id="edge25_Node000001_Node000025" class="edge">
<title>Node1&#45;&gt;Node25</title>
<g id="a_edge25_Node000001_Node000025"><a xlink:title=" ">
<path fill="none" stroke="#63b8ff" d="M2936.54,-186.8C2947.56,-176.72 2962.35,-163.19 2973.74,-152.78"/>
<polygon fill="#63b8ff" stroke="#63b8ff" points="2976.31,-155.18 2981.33,-145.84 2971.58,-150.01 2976.31,-155.18"/>
</a>
</g>
</g>
<!-- Node26 -->
<g id="Node000026" class="node">
<title>Node26</title>
<g id="a_Node000026"><a xlink:title=" ">
<polygon fill="#e0e0e0" stroke="#999999" points="3163,-145.5 3071,-145.5 3071,-126.5 3163,-126.5 3163,-145.5"/>
<text text-anchor="middle" x="3117" y="-133.5" font-family="Helvetica,sans-Serif" font-size="10.00">deal.II/fe/fe_q.h</text>
</a>
</g>
</g>
<!-- Node1&#45;&gt;Node26 -->
<g id="edge26_Node000001_Node000026" class="edge">
<title>Node1&#45;&gt;Node26</title>
<g id="a_edge26_Node000001_Node000026"><a xlink:title=" ">
<path fill="none" stroke="#63b8ff" d="M2964.01,-186.95C2999.14,-175.48 3048.21,-159.46 3081.22,-148.68"/>
<polygon fill="#63b8ff" stroke="#63b8ff" points="3082.5,-151.95 3090.92,-145.52 3080.32,-145.29 3082.5,-151.95"/>
</a>
</g>
</g>
<!-- Node27 -->
<g id="Node000027" class="node">
<title>Node27</title>
<g id="a_Node000027"><a xlink:title=" ">
<polygon fill="#e0e0e0" stroke="#999999" points="3303,-145.5 3181,-145.5 3181,-126.5 3303,-126.5 3303,-145.5"/>
<text text-anchor="middle" x="3242" y="-133.5" font-family="Helvetica,sans-Serif" font-size="10.00">deal.II/fe/fe_system.h</text>
</a>
</g>
</g>
<!-- Node1&#45;&gt;Node27 -->
<g id="edge27_Node000001_Node000027" class="edge">
<title>Node1&#45;&gt;Node27</title>
<g id="a_edge27_Node000001_Node000027"><a xlink:title=" ">
<path fill="none" stroke="#63b8ff" d="M2975.84,-190.09C3026.69,-179.97 3104.46,-164.48 3172,-151 3177.68,-149.87 3183.63,-148.68 3189.55,-147.5"/>
<polygon fill="#63b8ff" stroke="#63b8ff" points="3190.31,-150.91 3199.43,-145.52 3188.94,-144.05 3190.31,-150.91"/>
</a>
</g>
</g>
<!-- Node28 -->
<g id="Node000028" class="node">
<title>Node28</title>
<g id="a_Node000028"><a xlink:title=" ">
<polygon fill="#e0e0e0" stroke="#999999" points="3432.5,-151 3321.5,-151 3321.5,-121 3432.5,-121 3432.5,-151"/>
<text text-anchor="start" x="3329.5" y="-139" font-family="Helvetica,sans-Serif" font-size="10.00">deal.II/fe/fe_update</text>
<text text-anchor="middle" x="3377" y="-128" font-family="Helvetica,sans-Serif" font-size="10.00">_flags.h</text>
</a>
</g>
</g>
<!-- Node1&#45;&gt;Node28 -->
<g id="edge28_Node000001_Node000028" class="edge">
<title>Node1&#45;&gt;Node28</title>
<g id="a_edge28_Node000001_Node000028"><a xlink:title=" ">
<path fill="none" stroke="#63b8ff" d="M2975.62,-195.5C3049.4,-187.74 3185.21,-172.29 3311.18,-151.04"/>
<polygon fill="#63b8ff" stroke="#63b8ff" points="3312.12,-154.43 3321.39,-149.3 3310.95,-147.53 3312.12,-154.43"/>
</a>
</g>
</g>
<!-- Node29 -->
<g id="Node000029" class="node">
<title>Node29</title>
<g id="a_Node000029"><a xlink:title=" ">
<polygon fill="#e0e0e0" stroke="#999999" points="3561,-151 3451,-151 3451,-121 3561,-121 3561,-151"/>
<text text-anchor="start" x="3459" y="-139" font-family="Helvetica,sans-Serif" font-size="10.00">deal.II/fe/fe_values</text>
<text text-anchor="middle" x="3506" y="-128" font-family="Helvetica,sans-Serif" font-size="10.00">_extractors.h</text>
</a>
</g>
</g>
<!-- Node1&#45;&gt;Node29 -->
<g id="edge29_Node000001_Node000029" class="edge">
<title>Node1&#45;&gt;Node29</title>
<g id="a_edge29_Node000001_Node000029"><a xlink:title=" ">
<path fill="none" stroke="#63b8ff" d="M2975.65,-197.91C3069.06,-192.17 3265.54,-178.03 3440.99,-151.03"/>
<polygon fill="#63b8ff" stroke="#63b8ff" points="3441.58,-154.48 3450.92,-149.49 3440.5,-147.57 3441.58,-154.48"/>
</a>
</g>
</g>
<!-- Node30 -->
<g id="Node000030" class="node">
<title>Node30</title>
<g id="a_Node000030"><a xlink:title=" ">
<polygon fill="#e0e0e0" stroke="#999999" points="3711,-145.5 3579,-145.5 3579,-126.5 3711,-126.5 3711,-145.5"/>
<text text-anchor="middle" x="3645" y="-133.5" font-family="Helvetica,sans-Serif" font-size="10.00">deal.II/hp/q_collection.h</text>
</a>
</g>
</g>
<!-- Node1&#45;&gt;Node30 -->
<g id="edge30_Node000001_Node000030" class="edge">
<title>Node1&#45;&gt;Node30</title>
<g id="a_edge30_Node000001_Node000030"><a xlink:title=" ">
<path fill="none" stroke="#63b8ff" d="M2975.91,-198.77C3087.97,-193.77 3350.96,-179.8 3570,-151 3577.76,-149.98 3585.93,-148.69 3593.91,-147.3"/>
<polygon fill="#63b8ff" stroke="#63b8ff" points="3594.64,-150.72 3603.87,-145.5 3593.4,-143.83 3594.64,-150.72"/>
</a>
</g>
</g>
<!-- Node31 -->
<g id="Node000031" class="node">
<title>Node31</title>
<g id="a_Node000031"><a xlink:title=" ">
<polygon fill="#e0e0e0" stroke="#999999" points="3858.5,-145.5 3729.5,-145.5 3729.5,-126.5 3858.5,-126.5 3858.5,-145.5"/>
<text text-anchor="middle" x="3794" y="-133.5" font-family="Helvetica,sans-Serif" font-size="10.00">deal.II/lac/full_matrix.h</text>
</a>
</g>
</g>
<!-- Node1&#45;&gt;Node31 -->
<g id="edge31_Node000001_Node000031" class="edge">
<title>Node1&#45;&gt;Node31</title>
<g id="a_edge31_Node000001_Node000031"><a xlink:title=" ">
<path fill="none" stroke="#63b8ff" d="M2975.95,-199.92C3105.84,-196.84 3441.77,-185.89 3720,-151 3727.75,-150.03 3735.92,-148.75 3743.88,-147.35"/>
<polygon fill="#63b8ff" stroke="#63b8ff" points="3744.61,-150.78 3753.82,-145.54 3743.35,-143.89 3744.61,-150.78"/>
</a>
</g>
</g>
<!-- Node32 -->
<g id="Node000032" class="node">
<title>Node32</title>
<g id="a_Node000032"><a xlink:title=" ">
<polygon fill="#e0e0e0" stroke="#999999" points="4013.5,-145.5 3876.5,-145.5 3876.5,-126.5 4013.5,-126.5 4013.5,-145.5"/>
<text text-anchor="middle" x="3945" y="-133.5" font-family="Helvetica,sans-Serif" font-size="10.00">deal.II/lac/precondition.h</text>
</a>
</g>
</g>
<!-- Node1&#45;&gt;Node32 -->
<g id="edge32_Node000001_Node000032" class="edge">
<title>Node1&#45;&gt;Node32</title>
<g id="a_edge32_Node000001_Node000032"><a xlink:title=" ">
<path fill="none" stroke="#63b8ff" d="M2975.65,-200.54C3121.23,-198.79 3530.32,-190.45 3868,-151 3876.34,-150.03 3885.14,-148.71 3893.7,-147.26"/>
<polygon fill="#63b8ff" stroke="#63b8ff" points="3894.34,-150.7 3903.58,-145.53 3893.13,-143.81 3894.34,-150.7"/>
</a>
</g>
</g>
<!-- Node33 -->
<g id="Node000033" class="node">
<title>Node33</title>
<g id="a_Node000033"><a xlink:title=" ">
<polygon fill="#e0e0e0" stroke="#999999" points="4154,-145.5 4032,-145.5 4032,-126.5 4154,-126.5 4154,-145.5"/>
<text text-anchor="middle" x="4093" y="-133.5" font-family="Helvetica,sans-Serif" font-size="10.00">deal.II/lac/solver_cg.h</text>
</a>
</g>
</g>
<!-- Node1&#45;&gt;Node33 -->
<g id="edge33_Node000001_Node000033" class="edge">
<title>Node1&#45;&gt;Node33</title>
<g id="a_edge33_Node000001_Node000033"><a xlink:title=" ">
<path fill="none" stroke="#63b8ff" d="M2975.71,-201.45C3136.82,-202.15 3623.3,-199.75 4023,-151 4030.44,-150.09 4038.28,-148.83 4045.9,-147.44"/>
<polygon fill="#63b8ff" stroke="#63b8ff" points="4046.59,-150.87 4055.75,-145.54 4045.27,-143.99 4046.59,-150.87"/>
</a>
</g>
</g>
<!-- Node34 -->
<g id="Node000034" class="node">
<title>Node34</title>
<g id="a_Node000034"><a xlink:title=" ">
<polygon fill="#e0e0e0" stroke="#999999" points="4269.5,-151 4172.5,-151 4172.5,-121 4269.5,-121 4269.5,-151"/>
<text text-anchor="start" x="4180.5" y="-139" font-family="Helvetica,sans-Serif" font-size="10.00">deal.II/lac/solver</text>
<text text-anchor="middle" x="4221" y="-128" font-family="Helvetica,sans-Serif" font-size="10.00">_control.h</text>
</a>
</g>
</g>
<!-- Node1&#45;&gt;Node34 -->
<g id="edge34_Node000001_Node000034" class="edge">
<title>Node1&#45;&gt;Node34</title>
<g id="a_edge34_Node000001_Node000034"><a xlink:title=" ">
<path fill="none" stroke="#63b8ff" d="M2975.59,-200.23C3181.03,-197.11 3908.3,-184.05 4162.12,-150.86"/>
<polygon fill="#63b8ff" stroke="#63b8ff" points="4162.96,-154.28 4172.4,-149.46 4162.02,-147.34 4162.96,-154.28"/>
</a>
</g>
</g>
<!-- Node35 -->
<g id="Node000035" class="node">
<title>Node35</title>
<g id="a_Node000035"><a xlink:title=" ">
<polygon fill="#e0e0e0" stroke="#999999" points="4388.5,-151 4287.5,-151 4287.5,-121 4388.5,-121 4388.5,-151"/>
<text text-anchor="start" x="4295.5" y="-139" font-family="Helvetica,sans-Serif" font-size="10.00">deal.II/lac/trilinos</text>
<text text-anchor="middle" x="4338" y="-128" font-family="Helvetica,sans-Serif" font-size="10.00">_sparse_matrix.h</text>
</a>
</g>
</g>
<!-- Node1&#45;&gt;Node35 -->
<g id="edge35_Node000001_Node000035" class="edge">
<title>Node1&#45;&gt;Node35</title>
<g id="a_edge35_Node000001_Node000035"><a xlink:title=" ">
<path fill="none" stroke="#63b8ff" d="M2975.72,-200.42C3193.62,-197.88 4000.64,-186.35 4277.26,-151.03"/>
<polygon fill="#63b8ff" stroke="#63b8ff" points="4277.81,-154.48 4287.27,-149.7 4276.9,-147.54 4277.81,-154.48"/>
</a>
</g>
</g>
<!-- Node36 -->
<g id="Node000036" class="node">
<title>Node36</title>
<g id="a_Node000036"><a xlink:title=" ">
<polygon fill="#e0e0e0" stroke="#999999" points="4517,-151 4407,-151 4407,-121 4517,-121 4517,-151"/>
<text text-anchor="start" x="4415" y="-139" font-family="Helvetica,sans-Serif" font-size="10.00">deal.II/lac/trilinos</text>
<text text-anchor="middle" x="4462" y="-128" font-family="Helvetica,sans-Serif" font-size="10.00">_sparsity_pattern.h</text>
</a>
</g>
</g>
<!-- Node1&#45;&gt;Node36 -->
<g id="edge36_Node000001_Node000036" class="edge">
<title>Node1&#45;&gt;Node36</title>
<g id="a_edge36_Node000001_Node000036"><a xlink:title=" ">
<path fill="none" stroke="#63b8ff" d="M2975.71,-200.48C3205.53,-198.08 4094.5,-186.73 4396.88,-150.94"/>
<polygon fill="#63b8ff" stroke="#63b8ff" points="4397.45,-154.39 4406.95,-149.71 4396.6,-147.44 4397.45,-154.39"/>
</a>
</g>
</g>
<!-- Node37 -->
<g id="Node000037" class="node">
<title>Node37</title>
<g id="a_Node000037"><a xlink:title=" ">
<polygon fill="#e0e0e0" stroke="#999999" points="4641,-145.5 4535,-145.5 4535,-126.5 4641,-126.5 4641,-145.5"/>
<text text-anchor="middle" x="4588" y="-133.5" font-family="Helvetica,sans-Serif" font-size="10.00">deal.II/lac/vector.h</text>
</a>
</g>
</g>
<!-- Node1&#45;&gt;Node37 -->
<g id="edge37_Node000001_Node000037" class="edge">
<title>Node1&#45;&gt;Node37</title>
<g id="a_edge37_Node000001_Node000037"><a xlink:title=" ">
<path fill="none" stroke="#63b8ff" d="M2975.86,-200.7C3220.85,-199.13 4216.44,-190.41 4526,-151 4532.39,-150.19 4539.1,-149.01 4545.64,-147.69"/>
<polygon fill="#63b8ff" stroke="#63b8ff" points="4546.67,-151.05 4555.71,-145.52 4545.19,-144.21 4546.67,-151.05"/>
</a>
</g>
</g>
<!-- Node38 -->
<g id="Node000038" class="node">
<title>Node38</title>
<g id="a_Node000038"><a xlink:title=" ">
<polygon fill="#e0e0e0" stroke="#999999" points="4757,-151 4659,-151 4659,-121 4757,-121 4757,-151"/>
<text text-anchor="start" x="4667" y="-139" font-family="Helvetica,sans-Serif" font-size="10.00">deal.II/lac/vector</text>
<text text-anchor="middle" x="4708" y="-128" font-family="Helvetica,sans-Serif" font-size="10.00">_operation.h</text>
</a>
</g>
</g>
<!-- Node1&#45;&gt;Node38 -->
<g id="edge38_Node000001_Node000038" class="edge">
<title>Node1&#45;&gt;Node38</title>
<g id="a_edge38_Node000001_Node000038"><a xlink:title=" ">
<path fill="none" stroke="#63b8ff" d="M2975.76,-200.95C3229.65,-200.47 4294.41,-195.87 4648.75,-150.93"/>
<polygon fill="#63b8ff" stroke="#63b8ff" points="4649.31,-154.38 4658.77,-149.62 4648.4,-147.44 4649.31,-154.38"/>
</a>
</g>
</g>
<!-- Node39 -->
<g id="Node000039" class="node">
<title>Node39</title>
<g id="a_Node000039"><a xlink:title=" ">
<polygon fill="#e0e0e0" stroke="#999999" points="4912.5,-151 4775.5,-151 4775.5,-121 4912.5,-121 4912.5,-151"/>
<text text-anchor="start" x="4783.5" y="-139" font-family="Helvetica,sans-Serif" font-size="10.00">deal.II/numerics/solution</text>
<text text-anchor="middle" x="4844" y="-128" font-family="Helvetica,sans-Serif" font-size="10.00">_transfer.h</text>
</a>
</g>
</g>
<!-- Node1&#45;&gt;Node39 -->
<g id="edge39_Node000001_Node000039" class="edge">
<title>Node1&#45;&gt;Node39</title>
<g id="a_edge39_Node000001_Node000039"><a xlink:title=" ">
<path fill="none" stroke="#63b8ff" d="M2975.79,-200.63C3239.97,-198.67 4384.67,-188.2 4764.97,-150.96"/>
<polygon fill="#63b8ff" stroke="#63b8ff" points="4765.58,-154.41 4775.18,-149.93 4764.88,-147.45 4765.58,-154.41"/>
</a>
</g>
</g>
<!-- Node40 -->
<g id="Node000040" class="node">
<title>Node40</title>
<g id="a_Node000040"><a xlink:href="util_8hpp.html" target="_top" xlink:title=" ">
<polygon fill="#fff0f0" stroke="red" points="1484,-145.5 1354,-145.5 1354,-126.5 1484,-126.5 1484,-145.5"/>
<text text-anchor="middle" x="1419" y="-133.5" font-family="Helvetica,sans-Serif" font-size="10.00">meltpooldg/cut/util.hpp</text>
</a>
</g>
</g>
<!-- Node1&#45;&gt;Node40 -->
<g id="edge40_Node000001_Node000040" class="edge">
<title>Node1&#45;&gt;Node40</title>
<g id="a_edge40_Node000001_Node000040"><a xlink:title=" ">
<path fill="none" stroke="#63b8ff" d="M2866.42,-200.11C2639.62,-196.24 1770.72,-179.81 1498,-151 1489.14,-150.06 1479.78,-148.72 1470.72,-147.24"/>
<polygon fill="#63b8ff" stroke="#63b8ff" points="1471.11,-143.75 1460.66,-145.51 1469.93,-150.65 1471.11,-143.75"/>
</a>
</g>
</g>
<!-- Node51 -->
<g id="Node000051" class="node">
<title>Node51</title>
<g id="a_Node000051"><a xlink:title=" ">
<polygon fill="#e0e0e0" stroke="#999999" points="2196,-19 2140,-19 2140,0 2196,0 2196,-19"/>
<text text-anchor="middle" x="2168" y="-7" font-family="Helvetica,sans-Serif" font-size="10.00">sstream</text>
</a>
</g>
</g>
<!-- Node1&#45;&gt;Node51 -->
<g id="edge60_Node000001_Node000051" class="edge">
<title>Node1&#45;&gt;Node51</title>
<g id="a_edge60_Node000001_Node000051"><a xlink:title=" ">
<path fill="none" stroke="#63b8ff" d="M2866.44,-201.13C2615.01,-201.46 1578.13,-199.85 1531,-151 1521.74,-141.4 1521.83,-130.68 1531,-121 1632,-14.35 2090,-191.65 2191,-85 2205.92,-69.24 2193.13,-44.01 2181.49,-27.34"/>
<polygon fill="#63b8ff" stroke="#63b8ff" points="2184.11,-25 2175.32,-19.08 2178.5,-29.19 2184.11,-25"/>
</a>
</g>
</g>
<!-- Node56 -->
<g id="Node000056" class="node">
<title>Node56</title>
<g id="a_Node000056"><a xlink:href="journal_8hpp.html" target="_top" xlink:title=" ">
<polygon fill="#fff0f0" stroke="red" points="168,-151 56,-151 56,-121 168,-121 168,-151"/>
<text text-anchor="start" x="64" y="-139" font-family="Helvetica,sans-Serif" font-size="10.00">meltpooldg/utilities</text>
<text text-anchor="middle" x="112" y="-128" font-family="Helvetica,sans-Serif" font-size="10.00">/journal.hpp</text>
</a>
</g>
</g>
<!-- Node1&#45;&gt;Node56 -->
<g id="edge55_Node000001_Node000056" class="edge">
<title>Node1&#45;&gt;Node56</title>
<g id="a_edge55_Node000001_Node000056"><a xlink:title=" ">
<path fill="none" stroke="#63b8ff" d="M2866.16,-199.87C2613.53,-194.64 1536.44,-172.17 653,-151 481.82,-146.9 280.2,-141.54 178.22,-138.8"/>
<polygon fill="#63b8ff" stroke="#63b8ff" points="178.16,-135.29 168.07,-138.52 177.98,-142.29 178.16,-135.29"/>
</a>
</g>
</g>
<!-- Node58 -->
<g id="Node000058" class="node">
<title>Node58</title>
<g id="a_Node000058"><a xlink:title=" ">
<polygon fill="#e0e0e0" stroke="#999999" points="56,-79.5 0,-79.5 0,-60.5 56,-60.5 56,-79.5"/>
<text text-anchor="middle" x="28" y="-67.5" font-family="Helvetica,sans-Serif" font-size="10.00">iomanip</text>
</a>
</g>
</g>
<!-- Node1&#45;&gt;Node58 -->
<g id="edge58_Node000001_Node000058" class="edge">
<title>Node1&#45;&gt;Node58</title>
<g id="a_edge58_Node000001_Node000058"><a xlink:title=" ">
<path fill="none" stroke="#63b8ff" d="M2866.37,-200.97C2474.41,-200.67 104.06,-196.91 47,-151 29.05,-136.56 26.18,-108.52 26.51,-89.78"/>
<polygon fill="#63b8ff" stroke="#63b8ff" points="30.01,-89.91 27.01,-79.75 23.02,-89.56 30.01,-89.91"/>
</a>
</g>
</g>
<!-- Node59 -->
<g id="Node000059" class="node">
<title>Node59</title>
<g id="a_Node000059"><a xlink:title=" ">
<polygon fill="#e0e0e0" stroke="#999999" points="4991,-145.5 4931,-145.5 4931,-126.5 4991,-126.5 4991,-145.5"/>
<text text-anchor="middle" x="4961" y="-133.5" font-family="Helvetica,sans-Serif" font-size="10.00">iostream</text>
</a>
</g>
</g>
<!-- Node1&#45;&gt;Node59 -->
<g id="edge59_Node000001_Node000059" class="edge">
<title>Node1&#45;&gt;Node59</title>
<g id="a_edge59_Node000001_Node000059"><a xlink:title=" ">
<path fill="none" stroke="#63b8ff" d="M2975.57,-200.68C3276.42,-198.75 4726.23,-187.6 4922,-151 4925.08,-150.42 4928.25,-149.64 4931.37,-148.73"/>
<polygon fill="#63b8ff" stroke="#63b8ff" points="4932.7,-151.98 4941.1,-145.52 4930.51,-145.33 4932.7,-151.98"/>
</a>
</g>
</g>
<!-- Node3 -->
<g id="Node000003" class="node">
<title>Node3</title>
<g id="a_Node000003"><a xlink:title=" ">
<polygon fill="#e0e0e0" stroke="#999999" points="406,-85 276,-85 276,-55 406,-55 406,-85"/>
<text text-anchor="start" x="284" y="-73" font-family="Helvetica,sans-Serif" font-size="10.00">deal.II/base/conditional</text>
<text text-anchor="middle" x="341" y="-62" font-family="Helvetica,sans-Serif" font-size="10.00">_ostream.h</text>
</a>
</g>
</g>
<!-- Node2&#45;&gt;Node3 -->
<g id="edge2_Node000002_Node000003" class="edge">
<title>Node2&#45;&gt;Node3</title>
<g id="a_edge2_Node000002_Node000003"><a xlink:title=" ">
<path fill="none" stroke="#63b8ff" d="M661.96,-125.01C600.78,-115.63 506.99,-100.92 416.26,-85.19"/>
<polygon fill="#63b8ff" stroke="#63b8ff" points="416.8,-81.74 406.35,-83.47 415.6,-88.63 416.8,-81.74"/>
</a>
</g>
</g>
<!-- Node4 -->
<g id="Node000004" class="node">
<title>Node4</title>
<g id="a_Node000004"><a xlink:title=" ">
<polygon fill="#e0e0e0" stroke="#999999" points="885,-19 745,-19 745,0 885,0 885,-19"/>
<text text-anchor="middle" x="815" y="-7" font-family="Helvetica,sans-Serif" font-size="10.00">deal.II/dofs/dof_handler.h</text>
</a>
</g>
</g>
<!-- Node2&#45;&gt;Node4 -->
<g id="edge3_Node000002_Node000004" class="edge">
<title>Node2&#45;&gt;Node4</title>
<g id="a_edge3_Node000002_Node000004"><a xlink:title=" ">
<path fill="none" stroke="#63b8ff" d="M755.49,-120.84C769.57,-112.27 785.84,-100.07 796,-85 807.29,-68.26 811.87,-45.29 813.73,-29.29"/>
<polygon fill="#63b8ff" stroke="#63b8ff" points="817.24,-29.35 814.66,-19.07 810.27,-28.71 817.24,-29.35"/>
</a>
</g>
</g>
<!-- Node5 -->
<g id="Node000005" class="node">
<title>Node5</title>
<g id="a_Node000005"><a xlink:title=" ">
<polygon fill="#e0e0e0" stroke="#999999" points="1115.5,-79.5 1018.5,-79.5 1018.5,-60.5 1115.5,-60.5 1115.5,-79.5"/>
<text text-anchor="middle" x="1067" y="-67.5" font-family="Helvetica,sans-Serif" font-size="10.00">deal.II/grid/tria.h</text>
</a>
</g>
</g>
<!-- Node2&#45;&gt;Node5 -->
<g id="edge4_Node000002_Node000005" class="edge">
<title>Node2&#45;&gt;Node5</title>
<g id="a_edge4_Node000002_Node000005"><a xlink:title=" ">
<path fill="none" stroke="#63b8ff" d="M794.08,-124.41C851.16,-114.98 935.77,-100.34 1009,-85 1013.64,-84.03 1018.46,-82.96 1023.27,-81.85"/>
<polygon fill="#63b8ff" stroke="#63b8ff" points="1024.1,-85.26 1033.04,-79.56 1022.5,-78.44 1024.1,-85.26"/>
</a>
</g>
</g>
<!-- Node6 -->
<g id="Node000006" class="node">
<title>Node6</title>
<g id="a_Node000006"><a xlink:title=" ">
<polygon fill="#e0e0e0" stroke="#999999" points="650.5,-85 555.5,-85 555.5,-55 650.5,-55 650.5,-85"/>
<text text-anchor="start" x="563.5" y="-73" font-family="Helvetica,sans-Serif" font-size="10.00">deal.II/lac/affine</text>
<text text-anchor="middle" x="603" y="-62" font-family="Helvetica,sans-Serif" font-size="10.00">_constraints.h</text>
</a>
</g>
</g>
<!-- Node2&#45;&gt;Node6 -->
<g id="edge5_Node000002_Node000006" class="edge">
<title>Node2&#45;&gt;Node6</title>
<g id="a_edge5_Node000002_Node000006"><a xlink:title=" ">
<path fill="none" stroke="#63b8ff" d="M700.57,-120.95C682.58,-111.74 658.85,-99.6 639.3,-89.59"/>
<polygon fill="#63b8ff" stroke="#63b8ff" points="640.86,-86.45 630.37,-85.01 637.67,-92.69 640.86,-86.45"/>
</a>
</g>
</g>
<!-- Node7 -->
<g id="Node000007" class="node">
<title>Node7</title>
<g id="a_Node000007"><a xlink:title=" ">
<polygon fill="#e0e0e0" stroke="#999999" points="787,-85 669,-85 669,-55 787,-55 787,-85"/>
<text text-anchor="start" x="677" y="-73" font-family="Helvetica,sans-Serif" font-size="10.00">deal.II/lac/la_parallel</text>
<text text-anchor="middle" x="728" y="-62" font-family="Helvetica,sans-Serif" font-size="10.00">_vector.h</text>
</a>
</g>
</g>
<!-- Node2&#45;&gt;Node7 -->
<g id="edge6_Node000002_Node000007" class="edge">
<title>Node2&#45;&gt;Node7</title>
<g id="a_edge6_Node000002_Node000007"><a xlink:title=" ">
<path fill="none" stroke="#63b8ff" d="M728,-120.8C728,-113.34 728,-103.99 728,-95.41"/>
<polygon fill="#63b8ff" stroke="#63b8ff" points="731.5,-95.16 728,-85.16 724.5,-95.16 731.5,-95.16"/>
</a>
</g>
</g>
<!-- Node8 -->
<g id="Node000008" class="node">
<title>Node8</title>
<g id="a_Node000008"><a xlink:title=" ">
<polygon fill="#e0e0e0" stroke="#999999" points="1000.5,-85 881.5,-85 881.5,-55 1000.5,-55 1000.5,-85"/>
<text text-anchor="start" x="889.5" y="-73" font-family="Helvetica,sans-Serif" font-size="10.00">deal.II/non_matching</text>
<text text-anchor="middle" x="941" y="-62" font-family="Helvetica,sans-Serif" font-size="10.00">/mesh_classifier.h</text>
</a>
</g>
</g>
<!-- Node2&#45;&gt;Node8 -->
<g id="edge7_Node000002_Node000008" class="edge">
<title>Node2&#45;&gt;Node8</title>
<g id="a_edge7_Node000002_Node000008"><a xlink:title=" ">
<path fill="none" stroke="#63b8ff" d="M774.74,-120.95C807.07,-111.24 850.25,-98.27 884.5,-87.98"/>
<polygon fill="#63b8ff" stroke="#63b8ff" points="885.8,-91.24 894.37,-85.01 883.78,-84.54 885.8,-91.24"/>
</a>
</g>
</g>
<!-- Node9 -->
<g id="Node000009" class="node">
<title>Node9</title>
<g id="a_Node000009"><a xlink:href="cut__data_8hpp.html" target="_top" xlink:title=" ">
<polygon fill="#fff0f0" stroke="red" points="258,-85 150,-85 150,-55 258,-55 258,-85"/>
<text text-anchor="start" x="158" y="-73" font-family="Helvetica,sans-Serif" font-size="10.00">meltpooldg/cut/cut</text>
<text text-anchor="middle" x="204" y="-62" font-family="Helvetica,sans-Serif" font-size="10.00">_data.hpp</text>
</a>
</g>
</g>
<!-- Node2&#45;&gt;Node9 -->
<g id="edge8_Node000002_Node000009" class="edge">
<title>Node2&#45;&gt;Node9</title>
<g id="a_edge8_Node000002_Node000009"><a xlink:title=" ">
<path fill="none" stroke="#63b8ff" d="M661.65,-130.12C573.82,-123.15 413.99,-108.68 268.24,-85.09"/>
<polygon fill="#63b8ff" stroke="#63b8ff" points="268.66,-81.61 258.22,-83.45 267.53,-88.52 268.66,-81.61"/>
</a>
</g>
</g>
<!-- Node11 -->
<g id="Node000011" class="node">
<title>Node11</title>
<g id="a_Node000011"><a xlink:href="attach__vectors_8hpp.html" target="_top" xlink:title=" ">
<polygon fill="#fff0f0" stroke="red" points="537.5,-85 424.5,-85 424.5,-55 537.5,-55 537.5,-85"/>
<text text-anchor="start" x="432.5" y="-73" font-family="Helvetica,sans-Serif" font-size="10.00">meltpooldg/utilities</text>
<text text-anchor="middle" x="481" y="-62" font-family="Helvetica,sans-Serif" font-size="10.00">/attach_vectors.hpp</text>
</a>
</g>
</g>
<!-- Node2&#45;&gt;Node11 -->
<g id="edge9_Node000002_Node000011" class="edge">
<title>Node2&#45;&gt;Node11</title>
<g id="a_edge9_Node000002_Node000011"><a xlink:title=" ">
<path fill="none" stroke="#63b8ff" d="M673.79,-120.95C635.83,-111.12 584.95,-97.93 544.99,-87.58"/>
<polygon fill="#63b8ff" stroke="#63b8ff" points="545.64,-84.13 535.08,-85.01 543.88,-90.91 545.64,-84.13"/>
</a>
</g>
</g>
<!-- Node12 -->
<g id="Node000012" class="node">
<title>Node12</title>
<g id="a_Node000012"><a xlink:title=" ">
<polygon fill="#e0e0e0" stroke="#999999" points="154.5,-19 89.5,-19 89.5,0 154.5,0 154.5,-19"/>
<text text-anchor="middle" x="122" y="-7" font-family="Helvetica,sans-Serif" font-size="10.00">functional</text>
</a>
</g>
</g>
<!-- Node2&#45;&gt;Node12 -->
<g id="edge13_Node000002_Node000012" class="edge">
<title>Node2&#45;&gt;Node12</title>
<g id="a_edge13_Node000002_Node000012"><a xlink:title=" ">
<path fill="none" stroke="#63b8ff" d="M661.9,-133.62C516.77,-130 180.04,-118.08 141,-85 124.96,-71.41 121.47,-46.34 121.15,-29.06"/>
<polygon fill="#63b8ff" stroke="#63b8ff" points="124.65,-29.09 121.3,-19.03 117.65,-28.98 124.65,-29.09"/>
</a>
</g>
</g>
<!-- Node2&#45;&gt;Node14 -->
<g id="edge14_Node000002_Node000014" class="edge">
<title>Node2&#45;&gt;Node14</title>
<g id="a_edge14_Node000002_Node000014"><a xlink:title=" ">
<path fill="none" stroke="#63b8ff" d="M753.07,-120.96C793.49,-98.34 868.89,-56.22 872,-55 922.38,-35.3 984.07,-22.47 1021.42,-15.87"/>
<polygon fill="#63b8ff" stroke="#63b8ff" points="1022.01,-19.32 1031.27,-14.17 1020.82,-12.42 1022.01,-19.32"/>
</a>
</g>
</g>
<!-- Node11&#45;&gt;Node4 -->
<g id="edge10_Node000011_Node000004" class="edge">
<title>Node11&#45;&gt;Node4</title>
<g id="a_edge10_Node000011_Node000004"><a xlink:title=" ">
<path fill="none" stroke="#63b8ff" d="M537.69,-56.62C540.5,-56.06 543.28,-55.52 546,-55 614.95,-41.88 694.27,-29.03 748.81,-20.54"/>
<polygon fill="#63b8ff" stroke="#63b8ff" points="749.36,-24 758.7,-19 748.28,-17.08 749.36,-24"/>
</a>
</g>
</g>
<!-- Node11&#45;&gt;Node12 -->
<g id="edge11_Node000011_Node000012" class="edge">
<title>Node11&#45;&gt;Node12</title>
<g id="a_edge11_Node000011_Node000012"><a xlink:title=" ">
<path fill="none" stroke="#63b8ff" d="M424.16,-56.72C421.06,-56.12 418,-55.54 415,-55 326.36,-38.88 221.9,-23.99 164.73,-16.19"/>
<polygon fill="#63b8ff" stroke="#63b8ff" points="165,-12.7 154.62,-14.82 164.06,-19.64 165,-12.7"/>
</a>
</g>
</g>
<!-- Node11&#45;&gt;Node14 -->
<g id="edge12_Node000011_Node000014" class="edge">
<title>Node11&#45;&gt;Node14</title>
<g id="a_edge12_Node000011_Node000014"><a xlink:title=" ">
<path fill="none" stroke="#63b8ff" d="M537.64,-56.36C540.46,-55.87 543.26,-55.41 546,-55 723.75,-28.19 939.05,-15.94 1021.06,-12"/>
<polygon fill="#63b8ff" stroke="#63b8ff" points="1021.46,-15.48 1031.28,-11.52 1021.13,-8.49 1021.46,-15.48"/>
</a>
</g>
</g>
<!-- Node40&#45;&gt;Node4 -->
<g id="edge43_Node000040_Node000004" class="edge">
<title>Node40&#45;&gt;Node4</title>
<g id="a_edge43_Node000040_Node000004"><a xlink:title=" ">
<path fill="none" stroke="#63b8ff" d="M1372.98,-126.48C1328.5,-117.77 1259.45,-102.98 1201,-85 1165.9,-74.2 1159.52,-64.35 1124,-55 1047.79,-34.95 958.46,-23.32 895.51,-17.01"/>
<polygon fill="#63b8ff" stroke="#63b8ff" points="895.54,-13.5 885.25,-16.01 894.86,-20.47 895.54,-13.5"/>
</a>
</g>
</g>
<!-- Node40&#45;&gt;Node5 -->
<g id="edge44_Node000040_Node000005" class="edge">
<title>Node40&#45;&gt;Node5</title>
<g id="a_edge44_Node000040_Node000005"><a xlink:title=" ">
<path fill="none" stroke="#63b8ff" d="M1365.33,-126.49C1307.2,-117.1 1211.8,-101.16 1130,-85 1124.71,-83.96 1119.18,-82.81 1113.69,-81.64"/>
<polygon fill="#63b8ff" stroke="#63b8ff" points="1114.43,-78.21 1103.92,-79.51 1112.94,-85.05 1114.43,-78.21"/>
</a>
</g>
</g>
<!-- Node40&#45;&gt;Node8 -->
<g id="edge49_Node000040_Node000008" class="edge">
<title>Node40&#45;&gt;Node8</title>
<g id="a_edge49_Node000040_Node000008"><a xlink:title=" ">
<path fill="none" stroke="#63b8ff" d="M1353.79,-128.71C1274.77,-120.71 1137.39,-105.62 1010.54,-85.18"/>
<polygon fill="#63b8ff" stroke="#63b8ff" points="1011.09,-81.72 1000.65,-83.57 1009.96,-88.63 1011.09,-81.72"/>
</a>
</g>
</g>
<!-- Node40&#45;&gt;Node14 -->
<g id="edge54_Node000040_Node000014" class="edge">
<title>Node40&#45;&gt;Node14</title>
<g id="a_edge54_Node000040_Node000014"><a xlink:title=" ">
<path fill="none" stroke="#63b8ff" d="M1411.27,-126.29C1395.79,-109.47 1359.09,-72.6 1320,-55 1242.4,-20.06 1140.82,-12.32 1088.85,-10.76"/>
<polygon fill="#63b8ff" stroke="#63b8ff" points="1088.92,-7.26 1078.84,-10.51 1088.75,-14.26 1088.92,-7.26"/>
</a>
</g>
</g>
<!-- Node41 -->
<g id="Node000041" class="node">
<title>Node41</title>
<g id="a_Node000041"><a xlink:title=" ">
<polygon fill="#e0e0e0" stroke="#999999" points="1311.5,-85 1210.5,-85 1210.5,-55 1311.5,-55 1311.5,-85"/>
<text text-anchor="start" x="1218.5" y="-73" font-family="Helvetica,sans-Serif" font-size="10.00">deal.II/base/array</text>
<text text-anchor="middle" x="1261" y="-62" font-family="Helvetica,sans-Serif" font-size="10.00">_view.h</text>
</a>
</g>
</g>
<!-- Node40&#45;&gt;Node41 -->
<g id="edge41_Node000040_Node000041" class="edge">
<title>Node40&#45;&gt;Node41</title>
<g id="a_edge41_Node000040_Node000041"><a xlink:title=" ">
<path fill="none" stroke="#63b8ff" d="M1397.69,-126.37C1374.13,-116.82 1335.51,-101.18 1305.32,-88.95"/>
<polygon fill="#63b8ff" stroke="#63b8ff" points="1306.43,-85.63 1295.85,-85.12 1303.8,-92.11 1306.43,-85.63"/>
</a>
</g>
</g>
<!-- Node42 -->
<g id="Node000042" class="node">
<title>Node42</title>
<g id="a_Node000042"><a xlink:title=" ">
<polygon fill="#e0e0e0" stroke="#999999" points="1629.5,-19 1480.5,-19 1480.5,0 1629.5,0 1629.5,-19"/>
<text text-anchor="middle" x="1555" y="-7" font-family="Helvetica,sans-Serif" font-size="10.00">deal.II/base/vectorization.h</text>
</a>
</g>
</g>
<!-- Node40&#45;&gt;Node42 -->
<g id="edge42_Node000040_Node000042" class="edge">
<title>Node40&#45;&gt;Node42</title>
<g id="a_edge42_Node000040_Node000042"><a xlink:title=" ">
<path fill="none" stroke="#63b8ff" d="M1412.25,-126.39C1400.81,-110.67 1380.39,-76.93 1397,-55 1408.45,-39.88 1450.71,-28.45 1488.64,-20.97"/>
<polygon fill="#63b8ff" stroke="#63b8ff" points="1489.51,-24.36 1498.68,-19.05 1488.2,-17.49 1489.51,-24.36"/>
</a>
</g>
</g>
<!-- Node43 -->
<g id="Node000043" class="node">
<title>Node43</title>
<g id="a_Node000043"><a xlink:title=" ">
<polygon fill="#e0e0e0" stroke="#999999" points="1515.5,-85 1406.5,-85 1406.5,-55 1515.5,-55 1515.5,-85"/>
<text text-anchor="start" x="1414.5" y="-73" font-family="Helvetica,sans-Serif" font-size="10.00">deal.II/matrix_free</text>
<text text-anchor="middle" x="1461" y="-62" font-family="Helvetica,sans-Serif" font-size="10.00">/evaluation_flags.h</text>
</a>
</g>
</g>
<!-- Node40&#45;&gt;Node43 -->
<g id="edge45_Node000040_Node000043" class="edge">
<title>Node40&#45;&gt;Node43</title>
<g id="a_edge45_Node000040_Node000043"><a xlink:title=" ">
<path fill="none" stroke="#63b8ff" d="M1424.66,-126.37C1430.11,-118.08 1438.57,-105.18 1445.96,-93.92"/>
<polygon fill="#63b8ff" stroke="#63b8ff" points="1449.02,-95.64 1451.58,-85.36 1443.16,-91.8 1449.02,-95.64"/>
</a>
</g>
</g>
<!-- Node44 -->
<g id="Node000044" class="node">
<title>Node44</title>
<g id="a_Node000044"><a xlink:title=" ">
<polygon fill="#e0e0e0" stroke="#999999" points="1658.5,-85 1533.5,-85 1533.5,-55 1658.5,-55 1658.5,-85"/>
<text text-anchor="start" x="1541.5" y="-73" font-family="Helvetica,sans-Serif" font-size="10.00">deal.II/matrix_free</text>
<text text-anchor="middle" x="1596" y="-62" font-family="Helvetica,sans-Serif" font-size="10.00">/fe_point_evaluation.h</text>
</a>
</g>
</g>
<!-- Node40&#45;&gt;Node44 -->
<g id="edge46_Node000040_Node000044" class="edge">
<title>Node40&#45;&gt;Node44</title>
<g id="a_edge46_Node000040_Node000044"><a xlink:title=" ">
<path fill="none" stroke="#63b8ff" d="M1442.87,-126.37C1469.5,-116.74 1513.28,-100.91 1547.22,-88.64"/>
<polygon fill="#63b8ff" stroke="#63b8ff" points="1548.75,-91.81 1556.96,-85.12 1546.37,-85.22 1548.75,-91.81"/>
</a>
</g>
</g>
<!-- Node45 -->
<g id="Node000045" class="node">
<title>Node45</title>
<g id="a_Node000045"><a xlink:title=" ">
<polygon fill="#e0e0e0" stroke="#999999" points="1914.5,-85 1807.5,-85 1807.5,-55 1914.5,-55 1914.5,-85"/>
<text text-anchor="start" x="1815.5" y="-73" font-family="Helvetica,sans-Serif" font-size="10.00">deal.II/matrix_free</text>
<text text-anchor="middle" x="1861" y="-62" font-family="Helvetica,sans-Serif" font-size="10.00">/matrix_free.h</text>
</a>
</g>
</g>
<!-- Node40&#45;&gt;Node45 -->
<g id="edge47_Node000040_Node000045" class="edge">
<title>Node40&#45;&gt;Node45</title>
<g id="a_edge47_Node000040_Node000045"><a xlink:title=" ">
<path fill="none" stroke="#63b8ff" d="M1464.46,-126.49C1475.43,-124.57 1487.12,-122.62 1498,-121 1627.59,-101.76 1663.87,-107.3 1797.26,-85.01"/>
<polygon fill="#63b8ff" stroke="#63b8ff" points="1798.18,-88.4 1807.46,-83.28 1797.01,-81.5 1798.18,-88.4"/>
</a>
</g>
</g>
<!-- Node46 -->
<g id="Node000046" class="node">
<title>Node46</title>
<g id="a_Node000046"><a xlink:title=" ">
<polygon fill="#e0e0e0" stroke="#999999" points="2051.5,-85 1932.5,-85 1932.5,-55 2051.5,-55 2051.5,-85"/>
<text text-anchor="start" x="1940.5" y="-73" font-family="Helvetica,sans-Serif" font-size="10.00">deal.II/non_matching</text>
<text text-anchor="middle" x="1992" y="-62" font-family="Helvetica,sans-Serif" font-size="10.00">/mapping_info.h</text>
</a>
</g>
</g>
<!-- Node40&#45;&gt;Node46 -->
<g id="edge48_Node000040_Node000046" class="edge">
<title>Node40&#45;&gt;Node46</title>
<g id="a_edge48_Node000040_Node000046"><a xlink:title=" ">
<path fill="none" stroke="#63b8ff" d="M1463.18,-126.44C1474.5,-124.45 1486.67,-122.48 1498,-121 1683.19,-96.82 1734.22,-111.68 1922.42,-85.12"/>
<polygon fill="#63b8ff" stroke="#63b8ff" points="1922.96,-88.58 1932.37,-83.69 1921.97,-81.65 1922.96,-88.58"/>
</a>
</g>
</g>
<!-- Node47 -->
<g id="Node000047" class="node">
<title>Node47</title>
<g id="a_Node000047"><a xlink:href="enum_8hpp.html" target="_top" xlink:title=" ">
<polygon fill="#fff0f0" stroke="red" points="2182,-85 2070,-85 2070,-55 2182,-55 2182,-85"/>
<text text-anchor="start" x="2078" y="-73" font-family="Helvetica,sans-Serif" font-size="10.00">meltpooldg/utilities</text>
<text text-anchor="middle" x="2126" y="-62" font-family="Helvetica,sans-Serif" font-size="10.00">/enum.hpp</text>
</a>
</g>
</g>
<!-- Node40&#45;&gt;Node47 -->
<g id="edge50_Node000040_Node000047" class="edge">
<title>Node40&#45;&gt;Node47</title>
<g id="a_edge50_Node000040_Node000047"><a xlink:title=" ">
<path fill="none" stroke="#63b8ff" d="M1461.92,-126.5C1473.59,-124.43 1486.24,-122.41 1498,-121 1743.66,-91.47 1810.89,-118.75 2059.65,-85.04"/>
<polygon fill="#63b8ff" stroke="#63b8ff" points="2060.29,-88.49 2069.72,-83.66 2059.34,-81.55 2060.29,-88.49"/>
</a>
</g>
</g>
<!-- Node53 -->
<g id="Node000053" class="node">
<title>Node53</title>
<g id="a_Node000053"><a xlink:href="fe__integrator_8hpp.html" target="_top" xlink:title=" ">
<polygon fill="#fff0f0" stroke="red" points="1789,-85 1677,-85 1677,-55 1789,-55 1789,-85"/>
<text text-anchor="start" x="1685" y="-73" font-family="Helvetica,sans-Serif" font-size="10.00">meltpooldg/utilities</text>
<text text-anchor="middle" x="1733" y="-62" font-family="Helvetica,sans-Serif" font-size="10.00">/fe_integrator.hpp</text>
</a>
</g>
</g>
<!-- Node40&#45;&gt;Node53 -->
<g id="edge52_Node000040_Node000053" class="edge">
<title>Node40&#45;&gt;Node53</title>
<g id="a_edge52_Node000040_Node000053"><a xlink:title=" ">
<path fill="none" stroke="#63b8ff" d="M1462.67,-126.42C1510.38,-117.01 1589.32,-101.31 1667.03,-85.19"/>
<polygon fill="#63b8ff" stroke="#63b8ff" points="1667.91,-88.58 1676.99,-83.12 1666.49,-81.72 1667.91,-88.58"/>
</a>
</g>
</g>
<!-- Node47&#45;&gt;Node51 -->
<g id="edge51_Node000047_Node000051" class="edge">
<title>Node47&#45;&gt;Node51</title>
<g id="a_edge51_Node000047_Node000051"><a xlink:title=" ">
<path fill="none" stroke="#63b8ff" d="M2136.17,-54.84C2142.08,-46.61 2149.56,-36.18 2155.79,-27.51"/>
<polygon fill="#63b8ff" stroke="#63b8ff" points="2158.72,-29.43 2161.71,-19.27 2153.03,-25.35 2158.72,-29.43"/>
</a>
</g>
</g>
<!-- Node53&#45;&gt;Node42 -->
<g id="edge53_Node000053_Node000042" class="edge">
<title>Node53&#45;&gt;Node42</title>
<g id="a_edge53_Node000053_Node000042"><a xlink:title=" ">
<path fill="none" stroke="#63b8ff" d="M1690.36,-54.99C1659.91,-44.98 1619.41,-31.67 1590.67,-22.22"/>
<polygon fill="#63b8ff" stroke="#63b8ff" points="1591.62,-18.85 1581.03,-19.05 1589.43,-25.5 1591.62,-18.85"/>
</a>
</g>
</g>
<!-- Node56&#45;&gt;Node12 -->
<g id="edge56_Node000056_Node000012" class="edge">
<title>Node56&#45;&gt;Node12</title>
<g id="a_edge56_Node000056_Node000012"><a xlink:title=" ">
<path fill="none" stroke="#63b8ff" d="M109.57,-120.75C107.22,-104.68 104.5,-77.82 108,-55 109.35,-46.19 112.13,-36.74 114.85,-28.82"/>
<polygon fill="#63b8ff" stroke="#63b8ff" points="118.23,-29.77 118.4,-19.18 111.66,-27.35 118.23,-29.77"/>
</a>
</g>
</g>
<!-- Node56&#45;&gt;Node58 -->
<g id="edge57_Node000056_Node000058" class="edge">
<title>Node56&#45;&gt;Node58</title>
<g id="a_edge57_Node000056_Node000058"><a xlink:title=" ">
<path fill="none" stroke="#63b8ff" d="M93.36,-120.8C79.88,-110.53 61.69,-96.67 47.92,-86.18"/>
<polygon fill="#63b8ff" stroke="#63b8ff" points="49.68,-83.12 39.61,-79.84 45.44,-88.69 49.68,-83.12"/>
</a>
</g>
</g>
</g>
</svg>
