<?xml version="1.0" encoding="UTF-8" standalone="no"?>
<!DOCTYPE svg PUBLIC "-//W3C//DTD SVG 1.1//EN"
 "http://www.w3.org/Graphics/SVG/1.1/DTD/svg11.dtd">
<!-- Generated by graphviz version 2.43.0 (0)
 -->
<!-- Title: source/utilities/powder_bed.cpp Pages: 1 -->
<!--zoomable 302 -->

<svg id="main" version="1.1" xmlns="http://www.w3.org/2000/svg" xmlns:xlink="http://www.w3.org/1999/xlink" xml:space="preserve" onload="init(evt)">
<style type="text/css"><![CDATA[
.node, .edge {opacity: 0.7;}
.node.selected, .edge.selected {opacity: 1;}
.edge:hover path { stroke: red; }
.edge:hover polygon { stroke: red; fill: red; }
]]></style>

<defs>
  <circle id="rim" cx="0" cy="0" r="7"/>
  <circle id="rim2" cx="0" cy="0" r="3.5"/>
  <g id="zoomPlus">
    <use xlink:href="#rim" fill="#404040"><set attributeName="fill" to="#808080" begin="zoomplus.mouseover" end="zoomplus.mouseout"/></use>
    <path d="M-4,0h8M0,-4v8" fill="none" stroke="white" stroke-width="1.5" pointer-events="none"/>
  </g>
  <g id="zoomMin">
    <use xlink:href="#rim" fill="#404040"><set attributeName="fill" to="#808080" begin="zoomminus.mouseover" end="zoomminus.mouseout"/></use>
    <path d="M-4,0h8" fill="none" stroke="white" stroke-width="1.5" pointer-events="none"/>
  </g>
  <g id="arrowUp" transform="translate(30 24)">
    <use xlink:href="#rim"/>
    <path pointer-events="none" fill="none" stroke="white" stroke-width="1.5" d="M0,-3.0v7 M-2.5,-0.5L0,-3.0L2.5,-0.5"/>
  </g>
  <g id="arrowRight" transform="rotate(90) translate(36 -43)">
    <use xlink:href="#rim"/>
    <path pointer-events="none" fill="none" stroke="white" stroke-width="1.5" d="M0,-3.0v7 M-2.5,-0.5L0,-3.0L2.5,-0.5"/>
  </g>
  <g id="arrowDown" transform="rotate(180) translate(-30 -48)">
    <use xlink:href="#rim"/>
    <path pointer-events="none" fill="none" stroke="white" stroke-width="1.5" d="M0,-3.0v7 M-2.5,-0.5L0,-3.0L2.5,-0.5"/>
  </g>
  <g id="arrowLeft" transform="rotate(270) translate(-36 17)">
    <use xlink:href="#rim"/>
    <path pointer-events="none" fill="none" stroke="white" stroke-width="1.5" d="M0,-3.0v7 M-2.5,-0.5L0,-3.0L2.5,-0.5"/>
  </g>
  <g id="resetDef">
    <use xlink:href="#rim2" fill="#404040"><set attributeName="fill" to="#808080" begin="reset.mouseover" end="reset.mouseout"/></use>
  </g>
</defs>
<script type="application/ecmascript">
var viewWidth = 2004;
var viewHeight = 302;
var sectionId = 'dynsection-0';
</script>
<script type="application/ecmascript" xlink:href="svg.min.js"/>
<svg id="graph" class="graph">
<g id="viewport">
<title>source/utilities/powder_bed.cpp</title>
<!-- Node1 -->
<g id="Node000001" class="node">
<title>Node1</title>
<g id="a_Node000001"><a xlink:title=" ">
<polygon fill="#999999" stroke="#666666" points="1415.5,-294 1287.5,-294 1287.5,-264 1415.5,-264 1415.5,-294"/>
<text text-anchor="start" x="1295.5" y="-282" font-family="Helvetica,sans-Serif" font-size="10.00">source/utilities/powder</text>
<text text-anchor="middle" x="1351.5" y="-271" font-family="Helvetica,sans-Serif" font-size="10.00">_bed.cpp</text>
</a>
</g>
</g>
<!-- Node2 -->
<g id="Node000002" class="node">
<title>Node2</title>
<g id="a_Node000002"><a xlink:title=" ">
<polygon fill="#e0e0e0" stroke="#999999" points="336,-228 217,-228 217,-198 336,-198 336,-228"/>
<text text-anchor="start" x="225" y="-216" font-family="Helvetica,sans-Serif" font-size="10.00">deal.II/base/data_out</text>
<text text-anchor="middle" x="276.5" y="-205" font-family="Helvetica,sans-Serif" font-size="10.00">_base.h</text>
</a>
</g>
</g>
<!-- Node1&#45;&gt;Node2 -->
<g id="edge1_Node000001_Node000002" class="edge">
<title>Node1&#45;&gt;Node2</title>
<g id="a_edge1_Node000001_Node000002"><a xlink:title=" ">
<path fill="none" stroke="#63b8ff" d="M1287.29,-278.22C1128.82,-278.02 706.46,-273.06 346.22,-228.09"/>
<polygon fill="#63b8ff" stroke="#63b8ff" points="346.48,-224.59 336.12,-226.81 345.6,-231.54 346.48,-224.59"/>
</a>
</g>
</g>
<!-- Node3 -->
<g id="Node000003" class="node">
<title>Node3</title>
<g id="a_Node000003"><a xlink:title=" ">
<polygon fill="#e0e0e0" stroke="#999999" points="610.5,-90.5 472.5,-90.5 472.5,-71.5 610.5,-71.5 610.5,-90.5"/>
<text text-anchor="middle" x="541.5" y="-78.5" font-family="Helvetica,sans-Serif" font-size="10.00">deal.II/base/exceptions.h</text>
</a>
</g>
</g>
<!-- Node1&#45;&gt;Node3 -->
<g id="edge2_Node000001_Node000003" class="edge">
<title>Node1&#45;&gt;Node3</title>
<g id="a_edge2_Node000001_Node000003"><a xlink:title=" ">
<path fill="none" stroke="#63b8ff" d="M1288.57,-263.94C1216.46,-246.31 1096.07,-212.19 1001.5,-162 982.18,-151.75 982.8,-140.12 962.5,-132 821.42,-75.55 773,-116.95 622.5,-96 614.46,-94.88 606,-93.57 597.69,-92.2"/>
<polygon fill="#63b8ff" stroke="#63b8ff" points="598.12,-88.73 587.68,-90.52 596.96,-95.63 598.12,-88.73"/>
</a>
</g>
</g>
<!-- Node4 -->
<g id="Node000004" class="node">
<title>Node4</title>
<g id="a_Node000004"><a xlink:href="characteristic__functions_8hpp.html" target="_top" xlink:title=" ">
<polygon fill="white" stroke="#666666" points="511,-228 354,-228 354,-198 511,-198 511,-228"/>
<text text-anchor="start" x="362" y="-216" font-family="Helvetica,sans-Serif" font-size="10.00">meltpooldg/utilities</text>
<text text-anchor="middle" x="432.5" y="-205" font-family="Helvetica,sans-Serif" font-size="10.00">/characteristic_functions.hpp</text>
</a>
</g>
</g>
<!-- Node1&#45;&gt;Node4 -->
<g id="edge3_Node000001_Node000004" class="edge">
<title>Node1&#45;&gt;Node4</title>
<g id="a_edge3_Node000001_Node000004"><a xlink:title=" ">
<path fill="none" stroke="#63b8ff" d="M1287.24,-273.53C1126.35,-262.32 705.87,-233.04 521.41,-220.19"/>
<polygon fill="#63b8ff" stroke="#63b8ff" points="521.42,-216.68 511.21,-219.48 520.94,-223.67 521.42,-216.68"/>
</a>
</g>
</g>
<!-- Node7 -->
<g id="Node000007" class="node">
<title>Node7</title>
<g id="a_Node000007"><a xlink:href="include_2meltpooldg_2utilities_2powder__bed_8hpp.html" target="_top" xlink:title=" ">
<polygon fill="white" stroke="#666666" points="844.5,-228 732.5,-228 732.5,-198 844.5,-198 844.5,-228"/>
<text text-anchor="start" x="740.5" y="-216" font-family="Helvetica,sans-Serif" font-size="10.00">meltpooldg/utilities</text>
<text text-anchor="middle" x="788.5" y="-205" font-family="Helvetica,sans-Serif" font-size="10.00">/powder_bed.hpp</text>
</a>
</g>
</g>
<!-- Node1&#45;&gt;Node7 -->
<g id="edge6_Node000001_Node000007" class="edge">
<title>Node1&#45;&gt;Node7</title>
<g id="a_edge6_Node000001_Node000007"><a xlink:title=" ">
<path fill="none" stroke="#63b8ff" d="M1287.46,-270.72C1179.97,-258.5 964.31,-233.99 855.12,-221.57"/>
<polygon fill="#63b8ff" stroke="#63b8ff" points="855.22,-218.06 844.89,-220.41 854.43,-225.02 855.22,-218.06"/>
</a>
</g>
</g>
<!-- Node16 -->
<g id="Node000016" class="node">
<title>Node16</title>
<g id="a_Node000016"><a xlink:title=" ">
<polygon fill="#e0e0e0" stroke="#999999" points="1542.5,-24.5 1486.5,-24.5 1486.5,-5.5 1542.5,-5.5 1542.5,-24.5"/>
<text text-anchor="middle" x="1514.5" y="-12.5" font-family="Helvetica,sans-Serif" font-size="10.00">sstream</text>
</a>
</g>
</g>
<!-- Node1&#45;&gt;Node16 -->
<g id="edge41_Node000001_Node000016" class="edge">
<title>Node1&#45;&gt;Node16</title>
<g id="a_edge41_Node000001_Node000016"><a xlink:title=" ">
<path fill="none" stroke="#63b8ff" d="M1415.91,-274.45C1519.94,-264.82 1722.13,-229.02 1809.5,-96 1816.82,-84.86 1818.1,-76.19 1809.5,-66 1777.07,-27.61 1625.15,-18.69 1552.88,-16.62"/>
<polygon fill="#63b8ff" stroke="#63b8ff" points="1552.91,-13.12 1542.82,-16.36 1552.73,-20.12 1552.91,-13.12"/>
</a>
</g>
</g>
<!-- Node24 -->
<g id="Node000024" class="node">
<title>Node24</title>
<g id="a_Node000024"><a xlink:title=" ">
<polygon fill="#e0e0e0" stroke="#999999" points="1800.5,-90.5 1736.5,-90.5 1736.5,-71.5 1800.5,-71.5 1800.5,-90.5"/>
<text text-anchor="middle" x="1768.5" y="-78.5" font-family="Helvetica,sans-Serif" font-size="10.00">algorithm</text>
</a>
</g>
</g>
<!-- Node1&#45;&gt;Node24 -->
<g id="edge38_Node000001_Node000024" class="edge">
<title>Node1&#45;&gt;Node24</title>
<g id="a_edge38_Node000001_Node000024"><a xlink:title=" ">
<path fill="none" stroke="#63b8ff" d="M1381.49,-263.9C1459.23,-227.36 1666.42,-129.98 1741.14,-94.86"/>
<polygon fill="#63b8ff" stroke="#63b8ff" points="1742.82,-97.94 1750.39,-90.51 1739.85,-91.6 1742.82,-97.94"/>
</a>
</g>
</g>
<!-- Node31 -->
<g id="Node000031" class="node">
<title>Node31</title>
<g id="a_Node000031"><a xlink:title=" ">
<polygon fill="#e0e0e0" stroke="#999999" points="1924.5,-222.5 1856.5,-222.5 1856.5,-203.5 1924.5,-203.5 1924.5,-222.5"/>
<text text-anchor="middle" x="1890.5" y="-210.5" font-family="Helvetica,sans-Serif" font-size="10.00">filesystem</text>
</a>
</g>
</g>
<!-- Node1&#45;&gt;Node31 -->
<g id="edge39_Node000001_Node000031" class="edge">
<title>Node1&#45;&gt;Node31</title>
<g id="a_edge39_Node000001_Node000031"><a xlink:title=" ">
<path fill="none" stroke="#63b8ff" d="M1415.6,-275.2C1509.88,-270.25 1691.12,-257.53 1842.5,-228 1846.46,-227.23 1850.57,-226.27 1854.63,-225.23"/>
<polygon fill="#63b8ff" stroke="#63b8ff" points="1855.84,-228.53 1864.55,-222.5 1853.98,-221.78 1855.84,-228.53"/>
</a>
</g>
</g>
<!-- Node32 -->
<g id="Node000032" class="node">
<title>Node32</title>
<g id="a_Node000032"><a xlink:title=" ">
<polygon fill="#e0e0e0" stroke="#999999" points="1996,-222.5 1943,-222.5 1943,-203.5 1996,-203.5 1996,-222.5"/>
<text text-anchor="middle" x="1969.5" y="-210.5" font-family="Helvetica,sans-Serif" font-size="10.00">iterator</text>
</a>
</g>
</g>
<!-- Node1&#45;&gt;Node32 -->
<g id="edge40_Node000001_Node000032" class="edge">
<title>Node1&#45;&gt;Node32</title>
<g id="a_edge40_Node000001_Node000032"><a xlink:title=" ">
<path fill="none" stroke="#63b8ff" d="M1415.73,-278.41C1523.98,-277.8 1749.02,-270.86 1933.5,-228 1935.87,-227.45 1938.29,-226.77 1940.7,-226.02"/>
<polygon fill="#63b8ff" stroke="#63b8ff" points="1942.13,-229.23 1950.39,-222.59 1939.8,-222.63 1942.13,-229.23"/>
</a>
</g>
</g>
<!-- Node5 -->
<g id="Node000005" class="node">
<title>Node5</title>
<g id="a_Node000005"><a xlink:title=" ">
<polygon fill="#e0e0e0" stroke="#999999" points="142.5,-156.5 14.5,-156.5 14.5,-137.5 142.5,-137.5 142.5,-156.5"/>
<text text-anchor="middle" x="78.5" y="-144.5" font-family="Helvetica,sans-Serif" font-size="10.00">deal.II/base/numbers.h</text>
</a>
</g>
</g>
<!-- Node4&#45;&gt;Node5 -->
<g id="edge4_Node000004_Node000005" class="edge">
<title>Node4&#45;&gt;Node5</title>
<g id="a_edge4_Node000004_Node000005"><a xlink:title=" ">
<path fill="none" stroke="#63b8ff" d="M354.81,-197.95C288.63,-185.99 195.05,-169.07 135.58,-158.32"/>
<polygon fill="#63b8ff" stroke="#63b8ff" points="136.07,-154.85 125.61,-156.52 134.83,-161.74 136.07,-154.85"/>
</a>
</g>
</g>
<!-- Node6 -->
<g id="Node000006" class="node">
<title>Node6</title>
<g id="a_Node000006"><a xlink:title=" ">
<polygon fill="#e0e0e0" stroke="#999999" points="454,-90.5 407,-90.5 407,-71.5 454,-71.5 454,-90.5"/>
<text text-anchor="middle" x="430.5" y="-78.5" font-family="Helvetica,sans-Serif" font-size="10.00">cmath</text>
</a>
</g>
</g>
<!-- Node4&#45;&gt;Node6 -->
<g id="edge5_Node000004_Node000006" class="edge">
<title>Node4&#45;&gt;Node6</title>
<g id="a_edge5_Node000004_Node000006"><a xlink:title=" ">
<path fill="none" stroke="#63b8ff" d="M355.49,-197.95C300.83,-187.2 235.73,-172.48 227.5,-162 219.26,-151.51 219.28,-142.5 227.5,-132 232.78,-125.26 340.63,-101.28 396.93,-89.14"/>
<polygon fill="#63b8ff" stroke="#63b8ff" points="397.76,-92.54 406.8,-87.02 396.29,-85.7 397.76,-92.54"/>
</a>
</g>
</g>
<!-- Node8 -->
<g id="Node000008" class="node">
<title>Node8</title>
<g id="a_Node000008"><a xlink:title=" ">
<polygon fill="#e0e0e0" stroke="#999999" points="954,-156.5 829,-156.5 829,-137.5 954,-137.5 954,-156.5"/>
<text text-anchor="middle" x="891.5" y="-144.5" font-family="Helvetica,sans-Serif" font-size="10.00">deal.II/base/function.h</text>
</a>
</g>
</g>
<!-- Node7&#45;&gt;Node8 -->
<g id="edge7_Node000007_Node000008" class="edge">
<title>Node7&#45;&gt;Node8</title>
<g id="a_edge7_Node000007_Node000008"><a xlink:title=" ">
<path fill="none" stroke="#63b8ff" d="M811.1,-197.95C828.29,-187.27 851.83,-172.65 868.99,-161.98"/>
<polygon fill="#63b8ff" stroke="#63b8ff" points="871.15,-164.77 877.79,-156.52 867.45,-158.82 871.15,-164.77"/>
</a>
</g>
</g>
<!-- Node9 -->
<g id="Node000009" class="node">
<title>Node9</title>
<g id="a_Node000009"><a xlink:title=" ">
<polygon fill="#e0e0e0" stroke="#999999" points="127,-30 0,-30 0,0 127,0 127,-30"/>
<text text-anchor="start" x="8" y="-18" font-family="Helvetica,sans-Serif" font-size="10.00">deal.II/base/parameter</text>
<text text-anchor="middle" x="63.5" y="-7" font-family="Helvetica,sans-Serif" font-size="10.00">_handler.h</text>
</a>
</g>
</g>
<!-- Node7&#45;&gt;Node9 -->
<g id="edge8_Node000007_Node000009" class="edge">
<title>Node7&#45;&gt;Node9</title>
<g id="a_edge8_Node000007_Node000009"><a xlink:title=" ">
<path fill="none" stroke="#63b8ff" d="M732.18,-208.99C599.12,-201.6 273.05,-181.7 227.5,-162 163.58,-134.36 107.38,-71.82 80.42,-38.27"/>
<polygon fill="#63b8ff" stroke="#63b8ff" points="82.86,-35.7 73.92,-30.01 77.36,-40.03 82.86,-35.7"/>
</a>
</g>
</g>
<!-- Node10 -->
<g id="Node000010" class="node">
<title>Node10</title>
<g id="a_Node000010"><a xlink:title=" ">
<polygon fill="#e0e0e0" stroke="#999999" points="1718.5,-90.5 1608.5,-90.5 1608.5,-71.5 1718.5,-71.5 1718.5,-90.5"/>
<text text-anchor="middle" x="1663.5" y="-78.5" font-family="Helvetica,sans-Serif" font-size="10.00">deal.II/base/point.h</text>
</a>
</g>
</g>
<!-- Node7&#45;&gt;Node10 -->
<g id="edge9_Node000007_Node000010" class="edge">
<title>Node7&#45;&gt;Node10</title>
<g id="a_edge9_Node000007_Node000010"><a xlink:title=" ">
<path fill="none" stroke="#63b8ff" d="M844.85,-208.01C935.65,-201.18 1119.8,-185.65 1274.5,-162 1419.77,-139.79 1454.67,-126.14 1598.5,-96 1603.59,-94.93 1608.91,-93.81 1614.21,-92.68"/>
<polygon fill="#63b8ff" stroke="#63b8ff" points="1615.29,-96.03 1624.33,-90.51 1613.82,-89.18 1615.29,-96.03"/>
</a>
</g>
</g>
<!-- Node11 -->
<g id="Node000011" class="node">
<title>Node11</title>
<g id="a_Node000011"><a xlink:href="level__set__type_8hpp.html" target="_top" xlink:title=" ">
<polygon fill="white" stroke="#666666" points="356,-162 237,-162 237,-132 356,-132 356,-162"/>
<text text-anchor="start" x="245" y="-150" font-family="Helvetica,sans-Serif" font-size="10.00">meltpooldg/level_set</text>
<text text-anchor="middle" x="296.5" y="-139" font-family="Helvetica,sans-Serif" font-size="10.00">/level_set_type.hpp</text>
</a>
</g>
</g>
<!-- Node7&#45;&gt;Node11 -->
<g id="edge10_Node000007_Node000011" class="edge">
<title>Node7&#45;&gt;Node11</title>
<g id="a_edge10_Node000007_Node000011"><a xlink:title=" ">
<path fill="none" stroke="#63b8ff" d="M732.22,-206.49C651.79,-198.35 499.44,-181.88 370.5,-162 369.05,-161.78 367.58,-161.54 366.1,-161.31"/>
<polygon fill="#63b8ff" stroke="#63b8ff" points="366.65,-157.85 356.21,-159.66 365.5,-164.76 366.65,-157.85"/>
</a>
</g>
</g>
<!-- Node17 -->
<g id="Node000017" class="node">
<title>Node17</title>
<g id="a_Node000017"><a xlink:title=" ">
<polygon fill="#e0e0e0" stroke="#999999" points="605.5,-24.5 561.5,-24.5 561.5,-5.5 605.5,-5.5 605.5,-24.5"/>
<text text-anchor="middle" x="583.5" y="-12.5" font-family="Helvetica,sans-Serif" font-size="10.00">string</text>
</a>
</g>
</g>
<!-- Node7&#45;&gt;Node17 -->
<g id="edge35_Node000007_Node000017" class="edge">
<title>Node7&#45;&gt;Node17</title>
<g id="a_edge35_Node000007_Node000017"><a xlink:title=" ">
<path fill="none" stroke="#63b8ff" d="M732.34,-203.66C634.14,-187.79 437.79,-149.98 397.5,-96 389.52,-85.31 389.21,-76.44 397.5,-66 441.49,-10.62 485.51,-52.66 552.5,-30 553.9,-29.53 555.32,-29.01 556.75,-28.47"/>
<polygon fill="#63b8ff" stroke="#63b8ff" points="558.15,-31.68 566.04,-24.61 555.46,-25.21 558.15,-31.68"/>
</a>
</g>
</g>
<!-- Node18 -->
<g id="Node000018" class="node">
<title>Node18</title>
<g id="a_Node000018"><a xlink:href="utilities_2utility__functions_8hpp.html" target="_top" xlink:title=" ">
<polygon fill="white" stroke="#666666" points="1130,-162 1011,-162 1011,-132 1130,-132 1130,-162"/>
<text text-anchor="start" x="1019" y="-150" font-family="Helvetica,sans-Serif" font-size="10.00">meltpooldg/utilities</text>
<text text-anchor="middle" x="1070.5" y="-139" font-family="Helvetica,sans-Serif" font-size="10.00">/utility_functions.hpp</text>
</a>
</g>
</g>
<!-- Node7&#45;&gt;Node18 -->
<g id="edge18_Node000007_Node000018" class="edge">
<title>Node7&#45;&gt;Node18</title>
<g id="a_edge18_Node000007_Node000018"><a xlink:title=" ">
<path fill="none" stroke="#63b8ff" d="M844.55,-199.28C889.39,-189.1 952.5,-174.78 1000.63,-163.86"/>
<polygon fill="#63b8ff" stroke="#63b8ff" points="1001.68,-167.21 1010.66,-161.58 1000.13,-160.38 1001.68,-167.21"/>
</a>
</g>
</g>
<!-- Node27 -->
<g id="Node000027" class="node">
<title>Node27</title>
<g id="a_Node000027"><a xlink:title=" ">
<polygon fill="#e0e0e0" stroke="#999999" points="1590,-90.5 1543,-90.5 1543,-71.5 1590,-71.5 1590,-90.5"/>
<text text-anchor="middle" x="1566.5" y="-78.5" font-family="Helvetica,sans-Serif" font-size="10.00">vector</text>
</a>
</g>
</g>
<!-- Node7&#45;&gt;Node27 -->
<g id="edge37_Node000007_Node000027" class="edge">
<title>Node7&#45;&gt;Node27</title>
<g id="a_edge37_Node000007_Node000027"><a xlink:title=" ">
<path fill="none" stroke="#63b8ff" d="M844.88,-205.78C968.13,-191.59 1270.36,-153.55 1518.5,-96 1523.22,-94.91 1528.16,-93.62 1533.01,-92.29"/>
<polygon fill="#63b8ff" stroke="#63b8ff" points="1534.06,-95.63 1542.71,-89.51 1532.13,-88.9 1534.06,-95.63"/>
</a>
</g>
</g>
<!-- Node28 -->
<g id="Node000028" class="node">
<title>Node28</title>
<g id="a_Node000028"><a xlink:title=" ">
<polygon fill="#e0e0e0" stroke="#999999" points="685,-156.5 630,-156.5 630,-137.5 685,-137.5 685,-156.5"/>
<text text-anchor="middle" x="657.5" y="-144.5" font-family="Helvetica,sans-Serif" font-size="10.00">fstream</text>
</a>
</g>
</g>
<!-- Node7&#45;&gt;Node28 -->
<g id="edge33_Node000007_Node000028" class="edge">
<title>Node7&#45;&gt;Node28</title>
<g id="a_edge33_Node000007_Node000028"><a xlink:title=" ">
<path fill="none" stroke="#63b8ff" d="M759.75,-197.95C737.18,-186.93 706.01,-171.7 684.03,-160.96"/>
<polygon fill="#63b8ff" stroke="#63b8ff" points="685.46,-157.76 674.93,-156.52 682.38,-164.05 685.46,-157.76"/>
</a>
</g>
</g>
<!-- Node29 -->
<g id="Node000029" class="node">
<title>Node29</title>
<g id="a_Node000029"><a xlink:title=" ">
<polygon fill="#e0e0e0" stroke="#999999" points="747.5,-156.5 703.5,-156.5 703.5,-137.5 747.5,-137.5 747.5,-156.5"/>
<text text-anchor="middle" x="725.5" y="-144.5" font-family="Helvetica,sans-Serif" font-size="10.00">limits</text>
</a>
</g>
</g>
<!-- Node7&#45;&gt;Node29 -->
<g id="edge34_Node000007_Node000029" class="edge">
<title>Node7&#45;&gt;Node29</title>
<g id="a_edge34_Node000007_Node000029"><a xlink:title=" ">
<path fill="none" stroke="#63b8ff" d="M774.52,-197.8C764.7,-187.82 751.54,-174.46 741.33,-164.09"/>
<polygon fill="#63b8ff" stroke="#63b8ff" points="743.72,-161.52 734.21,-156.84 738.73,-166.43 743.72,-161.52"/>
</a>
</g>
</g>
<!-- Node30 -->
<g id="Node000030" class="node">
<title>Node30</title>
<g id="a_Node000030"><a xlink:title=" ">
<polygon fill="#e0e0e0" stroke="#999999" points="811,-156.5 766,-156.5 766,-137.5 811,-137.5 811,-156.5"/>
<text text-anchor="middle" x="788.5" y="-144.5" font-family="Helvetica,sans-Serif" font-size="10.00">utility</text>
</a>
</g>
</g>
<!-- Node7&#45;&gt;Node30 -->
<g id="edge36_Node000007_Node000030" class="edge">
<title>Node7&#45;&gt;Node30</title>
<g id="a_edge36_Node000007_Node000030"><a xlink:title=" ">
<path fill="none" stroke="#63b8ff" d="M788.5,-197.8C788.5,-188.7 788.5,-176.79 788.5,-166.9"/>
<polygon fill="#63b8ff" stroke="#63b8ff" points="792,-166.84 788.5,-156.84 785,-166.84 792,-166.84"/>
</a>
</g>
</g>
<!-- Node12 -->
<g id="Node000012" class="node">
<title>Node12</title>
<g id="a_Node000012"><a xlink:href="enum_8hpp.html" target="_top" xlink:title=" ">
<polygon fill="white" stroke="#666666" points="350.5,-96 238.5,-96 238.5,-66 350.5,-66 350.5,-96"/>
<text text-anchor="start" x="246.5" y="-84" font-family="Helvetica,sans-Serif" font-size="10.00">meltpooldg/utilities</text>
<text text-anchor="middle" x="294.5" y="-73" font-family="Helvetica,sans-Serif" font-size="10.00">/enum.hpp</text>
</a>
</g>
</g>
<!-- Node11&#45;&gt;Node12 -->
<g id="edge11_Node000011_Node000012" class="edge">
<title>Node11&#45;&gt;Node12</title>
<g id="a_edge11_Node000011_Node000012"><a xlink:title=" ">
<path fill="none" stroke="#63b8ff" d="M296.06,-131.8C295.82,-124.34 295.53,-114.99 295.26,-106.41"/>
<polygon fill="#63b8ff" stroke="#63b8ff" points="298.75,-106.05 294.94,-96.16 291.76,-106.27 298.75,-106.05"/>
</a>
</g>
</g>
<!-- Node12&#45;&gt;Node9 -->
<g id="edge12_Node000012_Node000009" class="edge">
<title>Node12&#45;&gt;Node9</title>
<g id="a_edge12_Node000012_Node000009"><a xlink:title=" ">
<path fill="none" stroke="#63b8ff" d="M243.81,-65.95C208.45,-56.16 161.12,-43.05 123.82,-32.71"/>
<polygon fill="#63b8ff" stroke="#63b8ff" points="124.65,-29.31 114.08,-30.01 122.78,-36.06 124.65,-29.31"/>
</a>
</g>
</g>
<!-- Node13 -->
<g id="Node000013" class="node">
<title>Node13</title>
<g id="a_Node000013"><a xlink:title=" ">
<polygon fill="#e0e0e0" stroke="#999999" points="413,-24.5 288,-24.5 288,-5.5 413,-5.5 413,-24.5"/>
<text text-anchor="middle" x="350.5" y="-12.5" font-family="Helvetica,sans-Serif" font-size="10.00">deal.II/base/patterns.h</text>
</a>
</g>
</g>
<!-- Node12&#45;&gt;Node13 -->
<g id="edge13_Node000012_Node000013" class="edge">
<title>Node12&#45;&gt;Node13</title>
<g id="a_edge13_Node000012_Node000013"><a xlink:title=" ">
<path fill="none" stroke="#63b8ff" d="M306.93,-65.8C315.57,-55.92 327.12,-42.72 336.16,-32.39"/>
<polygon fill="#63b8ff" stroke="#63b8ff" points="338.81,-34.67 342.76,-24.84 333.54,-30.07 338.81,-34.67"/>
</a>
</g>
</g>
<!-- Node14 -->
<g id="Node000014" class="node">
<title>Node14</title>
<g id="a_Node000014"><a xlink:title=" ">
<polygon fill="#e0e0e0" stroke="#999999" points="543.5,-30 431.5,-30 431.5,0 543.5,0 543.5,-30"/>
<text text-anchor="start" x="439.5" y="-18" font-family="Helvetica,sans-Serif" font-size="10.00">meltpooldg/utilities</text>
<text text-anchor="middle" x="487.5" y="-7" font-family="Helvetica,sans-Serif" font-size="10.00">/better_enum.hpp</text>
</a>
</g>
</g>
<!-- Node12&#45;&gt;Node14 -->
<g id="edge14_Node000012_Node000014" class="edge">
<title>Node12&#45;&gt;Node14</title>
<g id="a_edge14_Node000012_Node000014"><a xlink:title=" ">
<path fill="none" stroke="#63b8ff" d="M336.85,-65.95C365.89,-56.33 404.6,-43.49 435.51,-33.24"/>
<polygon fill="#63b8ff" stroke="#63b8ff" points="436.85,-36.48 445.24,-30.01 434.65,-29.84 436.85,-36.48"/>
</a>
</g>
</g>
<!-- Node15 -->
<g id="Node000015" class="node">
<title>Node15</title>
<g id="a_Node000015"><a xlink:title=" ">
<polygon fill="#e0e0e0" stroke="#999999" points="270,-30 145,-30 145,0 270,0 270,-30"/>
<text text-anchor="start" x="153" y="-18" font-family="Helvetica,sans-Serif" font-size="10.00">boost/algorithm/string</text>
<text text-anchor="middle" x="207.5" y="-7" font-family="Helvetica,sans-Serif" font-size="10.00">/join.hpp</text>
</a>
</g>
</g>
<!-- Node12&#45;&gt;Node15 -->
<g id="edge15_Node000012_Node000015" class="edge">
<title>Node12&#45;&gt;Node15</title>
<g id="a_edge15_Node000012_Node000015"><a xlink:title=" ">
<path fill="none" stroke="#63b8ff" d="M275.19,-65.8C263.37,-57.1 248.04,-45.82 234.96,-36.2"/>
<polygon fill="#63b8ff" stroke="#63b8ff" points="236.88,-33.27 226.75,-30.16 232.74,-38.91 236.88,-33.27"/>
</a>
</g>
</g>
<!-- Node12&#45;&gt;Node16 -->
<g id="edge16_Node000012_Node000016" class="edge">
<title>Node12&#45;&gt;Node16</title>
<g id="a_edge16_Node000012_Node000016"><a xlink:title=" ">
<path fill="none" stroke="#63b8ff" d="M350.53,-71.45C365.74,-69.38 382.22,-67.38 397.5,-66 819.1,-27.99 1332.95,-18.46 1475.97,-16.46"/>
<polygon fill="#63b8ff" stroke="#63b8ff" points="1476.43,-19.96 1486.38,-16.32 1476.33,-12.96 1476.43,-19.96"/>
</a>
</g>
</g>
<!-- Node12&#45;&gt;Node17 -->
<g id="edge17_Node000012_Node000017" class="edge">
<title>Node12&#45;&gt;Node17</title>
<g id="a_edge17_Node000012_Node000017"><a xlink:title=" ">
<path fill="none" stroke="#63b8ff" d="M350.66,-68.73C355.34,-67.8 360,-66.88 364.5,-66 447.99,-49.66 471.4,-55.68 552.5,-30 553.94,-29.54 555.41,-29.04 556.87,-28.5"/>
<polygon fill="#63b8ff" stroke="#63b8ff" points="558.48,-31.62 566.4,-24.58 555.82,-25.15 558.48,-31.62"/>
</a>
</g>
</g>
<!-- Node18&#45;&gt;Node3 -->
<g id="edge20_Node000018_Node000003" class="edge">
<title>Node18&#45;&gt;Node3</title>
<g id="a_edge20_Node000018_Node000003"><a xlink:title=" ">
<path fill="none" stroke="#63b8ff" d="M1010.8,-134.23C1005.97,-133.42 1001.16,-132.66 996.5,-132 832.06,-108.54 789.17,-117.83 624.5,-96 616.07,-94.88 607.18,-93.55 598.47,-92.16"/>
<polygon fill="#63b8ff" stroke="#63b8ff" points="598.81,-88.66 588.38,-90.5 597.68,-95.57 598.81,-88.66"/>
</a>
</g>
</g>
<!-- Node18&#45;&gt;Node6 -->
<g id="edge27_Node000018_Node000006" class="edge">
<title>Node18&#45;&gt;Node6</title>
<g id="a_edge27_Node000018_Node000006"><a xlink:title=" ">
<path fill="none" stroke="#63b8ff" d="M1010.87,-137.65C995.16,-135.62 978.21,-133.58 962.5,-132 741.27,-109.7 679.66,-148.12 463.5,-96 461.34,-95.48 459.13,-94.83 456.95,-94.1"/>
<polygon fill="#63b8ff" stroke="#63b8ff" points="458.19,-90.83 447.6,-90.52 455.69,-97.36 458.19,-90.83"/>
</a>
</g>
</g>
<!-- Node18&#45;&gt;Node10 -->
<g id="edge21_Node000018_Node000010" class="edge">
<title>Node18&#45;&gt;Node10</title>
<g id="a_edge21_Node000018_Node000010"><a xlink:title=" ">
<path fill="none" stroke="#63b8ff" d="M1130.17,-142.65C1228.3,-136.62 1429.7,-122.08 1598.5,-96 1604.71,-95.04 1611.23,-93.85 1617.63,-92.58"/>
<polygon fill="#63b8ff" stroke="#63b8ff" points="1618.46,-95.99 1627.54,-90.54 1617.04,-89.13 1618.46,-95.99"/>
</a>
</g>
</g>
<!-- Node18&#45;&gt;Node16 -->
<g id="edge29_Node000018_Node000016" class="edge">
<title>Node18&#45;&gt;Node16</title>
<g id="a_edge29_Node000018_Node000016"><a xlink:title=" ">
<path fill="none" stroke="#63b8ff" d="M1130.18,-142.74C1240.76,-136.15 1468.73,-119.83 1495.5,-96 1512.63,-80.75 1515.74,-53.13 1515.68,-34.68"/>
<polygon fill="#63b8ff" stroke="#63b8ff" points="1519.18,-34.44 1515.34,-24.56 1512.18,-34.68 1519.18,-34.44"/>
</a>
</g>
</g>
<!-- Node18&#45;&gt;Node17 -->
<g id="edge30_Node000018_Node000017" class="edge">
<title>Node18&#45;&gt;Node17</title>
<g id="a_edge30_Node000018_Node000017"><a xlink:title=" ">
<path fill="none" stroke="#63b8ff" d="M1010.8,-134.27C1005.97,-133.46 1001.16,-132.69 996.5,-132 846.61,-109.9 792.92,-163.95 657.5,-96 642.64,-88.54 613.3,-53.61 596.37,-32.45"/>
<polygon fill="#63b8ff" stroke="#63b8ff" points="599.1,-30.26 590.15,-24.59 593.61,-34.6 599.1,-30.26"/>
</a>
</g>
</g>
<!-- Node19 -->
<g id="Node000019" class="node">
<title>Node19</title>
<g id="a_Node000019"><a xlink:title=" ">
<polygon fill="#e0e0e0" stroke="#999999" points="1186.5,-90.5 1072.5,-90.5 1072.5,-71.5 1186.5,-71.5 1186.5,-90.5"/>
<text text-anchor="middle" x="1129.5" y="-78.5" font-family="Helvetica,sans-Serif" font-size="10.00">deal.II/base/config.h</text>
</a>
</g>
</g>
<!-- Node18&#45;&gt;Node19 -->
<g id="edge19_Node000018_Node000019" class="edge">
<title>Node18&#45;&gt;Node19</title>
<g id="a_edge19_Node000018_Node000019"><a xlink:title=" ">
<path fill="none" stroke="#63b8ff" d="M1083.59,-131.8C1092.7,-121.92 1104.87,-108.72 1114.39,-98.39"/>
<polygon fill="#63b8ff" stroke="#63b8ff" points="1117.14,-100.57 1121.35,-90.84 1112,-95.82 1117.14,-100.57"/>
</a>
</g>
</g>
<!-- Node20 -->
<g id="Node000020" class="node">
<title>Node20</title>
<g id="a_Node000020"><a xlink:title=" ">
<polygon fill="#e0e0e0" stroke="#999999" points="1354,-90.5 1205,-90.5 1205,-71.5 1354,-71.5 1354,-90.5"/>
<text text-anchor="middle" x="1279.5" y="-78.5" font-family="Helvetica,sans-Serif" font-size="10.00">deal.II/base/vectorization.h</text>
</a>
</g>
</g>
<!-- Node18&#45;&gt;Node20 -->
<g id="edge22_Node000018_Node000020" class="edge">
<title>Node18&#45;&gt;Node20</title>
<g id="a_edge22_Node000018_Node000020"><a xlink:title=" ">
<path fill="none" stroke="#63b8ff" d="M1116.37,-131.95C1153.99,-120.43 1206.6,-104.32 1241.8,-93.54"/>
<polygon fill="#63b8ff" stroke="#63b8ff" points="1243.15,-96.79 1251.69,-90.52 1241.1,-90.1 1243.15,-96.79"/>
</a>
</g>
</g>
<!-- Node21 -->
<g id="Node000021" class="node">
<title>Node21</title>
<g id="a_Node000021"><a xlink:title=" ">
<polygon fill="#e0e0e0" stroke="#999999" points="1486.5,-90.5 1372.5,-90.5 1372.5,-71.5 1486.5,-71.5 1486.5,-90.5"/>
<text text-anchor="middle" x="1429.5" y="-78.5" font-family="Helvetica,sans-Serif" font-size="10.00">deal.II/fe/mapping.h</text>
</a>
</g>
</g>
<!-- Node18&#45;&gt;Node21 -->
<g id="edge23_Node000018_Node000021" class="edge">
<title>Node18&#45;&gt;Node21</title>
<g id="a_edge23_Node000018_Node000021"><a xlink:title=" ">
<path fill="none" stroke="#63b8ff" d="M1130.17,-136.43C1189.27,-126.81 1282.29,-111.24 1362.5,-96 1368.18,-94.92 1374.13,-93.74 1380.03,-92.55"/>
<polygon fill="#63b8ff" stroke="#63b8ff" points="1380.78,-95.97 1389.87,-90.53 1379.37,-89.11 1380.78,-95.97"/>
</a>
</g>
</g>
<!-- Node22 -->
<g id="Node000022" class="node">
<title>Node22</title>
<g id="a_Node000022"><a xlink:title=" ">
<polygon fill="#e0e0e0" stroke="#999999" points="786,-96 667,-96 667,-66 786,-66 786,-96"/>
<text text-anchor="start" x="675" y="-84" font-family="Helvetica,sans-Serif" font-size="10.00">deal.II/grid/grid_tools</text>
<text text-anchor="middle" x="726.5" y="-73" font-family="Helvetica,sans-Serif" font-size="10.00">_geometry.h</text>
</a>
</g>
</g>
<!-- Node18&#45;&gt;Node22 -->
<g id="edge24_Node000018_Node000022" class="edge">
<title>Node18&#45;&gt;Node22</title>
<g id="a_edge24_Node000018_Node000022"><a xlink:title=" ">
<path fill="none" stroke="#63b8ff" d="M1010.74,-134.64C1005.92,-133.74 1001.13,-132.85 996.5,-132 909.96,-116.1 885.74,-113.38 796.24,-96.31"/>
<polygon fill="#63b8ff" stroke="#63b8ff" points="796.67,-92.83 786.19,-94.38 795.35,-99.7 796.67,-92.83"/>
</a>
</g>
</g>
<!-- Node23 -->
<g id="Node000023" class="node">
<title>Node23</title>
<g id="a_Node000023"><a xlink:title=" ">
<polygon fill="#e0e0e0" stroke="#999999" points="901,-90.5 804,-90.5 804,-71.5 901,-71.5 901,-90.5"/>
<text text-anchor="middle" x="852.5" y="-78.5" font-family="Helvetica,sans-Serif" font-size="10.00">deal.II/grid/tria.h</text>
</a>
</g>
</g>
<!-- Node18&#45;&gt;Node23 -->
<g id="edge25_Node000018_Node000023" class="edge">
<title>Node18&#45;&gt;Node23</title>
<g id="a_edge25_Node000018_Node000023"><a xlink:title=" ">
<path fill="none" stroke="#63b8ff" d="M1022.66,-131.95C983.25,-120.38 928.07,-104.18 891.35,-93.41"/>
<polygon fill="#63b8ff" stroke="#63b8ff" points="892.09,-89.98 881.51,-90.52 890.12,-96.69 892.09,-89.98"/>
</a>
</g>
</g>
<!-- Node18&#45;&gt;Node24 -->
<g id="edge26_Node000018_Node000024" class="edge">
<title>Node18&#45;&gt;Node24</title>
<g id="a_edge26_Node000018_Node000024"><a xlink:title=" ">
<path fill="none" stroke="#63b8ff" d="M1130.09,-146.47C1246.27,-146.3 1510.67,-140.52 1727.5,-96 1730.57,-95.37 1733.73,-94.57 1736.86,-93.68"/>
<polygon fill="#63b8ff" stroke="#63b8ff" points="1738.17,-96.94 1746.65,-90.6 1736.07,-90.26 1738.17,-96.94"/>
</a>
</g>
</g>
<!-- Node25 -->
<g id="Node000025" class="node">
<title>Node25</title>
<g id="a_Node000025"><a xlink:title=" ">
<polygon fill="#e0e0e0" stroke="#999999" points="950,-90.5 919,-90.5 919,-71.5 950,-71.5 950,-90.5"/>
<text text-anchor="middle" x="934.5" y="-78.5" font-family="Helvetica,sans-Serif" font-size="10.00">ios</text>
</a>
</g>
</g>
<!-- Node18&#45;&gt;Node25 -->
<g id="edge28_Node000018_Node000025" class="edge">
<title>Node18&#45;&gt;Node25</title>
<g id="a_edge28_Node000018_Node000025"><a xlink:title=" ">
<path fill="none" stroke="#63b8ff" d="M1037.12,-131.87C1014.89,-122.24 985.17,-108.94 959.5,-96 959.08,-95.79 958.65,-95.57 958.23,-95.35"/>
<polygon fill="#63b8ff" stroke="#63b8ff" points="959.66,-92.15 949.19,-90.51 956.35,-98.32 959.66,-92.15"/>
</a>
</g>
</g>
<!-- Node26 -->
<g id="Node000026" class="node">
<title>Node26</title>
<g id="a_Node000026"><a xlink:title=" ">
<polygon fill="#e0e0e0" stroke="#999999" points="1054.5,-90.5 968.5,-90.5 968.5,-71.5 1054.5,-71.5 1054.5,-90.5"/>
<text text-anchor="middle" x="1011.5" y="-78.5" font-family="Helvetica,sans-Serif" font-size="10.00">unordered_set</text>
</a>
</g>
</g>
<!-- Node18&#45;&gt;Node26 -->
<g id="edge31_Node000018_Node000026" class="edge">
<title>Node18&#45;&gt;Node26</title>
<g id="a_edge31_Node000018_Node000026"><a xlink:title=" ">
<path fill="none" stroke="#63b8ff" d="M1057.41,-131.8C1048.3,-121.92 1036.13,-108.72 1026.61,-98.39"/>
<polygon fill="#63b8ff" stroke="#63b8ff" points="1029,-95.82 1019.65,-90.84 1023.86,-100.57 1029,-95.82"/>
</a>
</g>
</g>
<!-- Node18&#45;&gt;Node27 -->
<g id="edge32_Node000018_Node000027" class="edge">
<title>Node18&#45;&gt;Node27</title>
<g id="a_edge32_Node000018_Node000027"><a xlink:title=" ">
<path fill="none" stroke="#63b8ff" d="M1130.2,-144.12C1218.38,-140.31 1388.15,-128.99 1528.5,-96 1531.02,-95.41 1533.59,-94.7 1536.16,-93.92"/>
<polygon fill="#63b8ff" stroke="#63b8ff" points="1537.52,-97.15 1545.87,-90.64 1535.28,-90.52 1537.52,-97.15"/>
</a>
</g>
</g>
</g>
</svg>

<g id="navigator" transform="translate(0 0)" fill="#404254">
  <rect fill="#f2f5e9" fill-opacity="0.5" stroke="#606060" stroke-width=".5" x="0" y="0" width="60" height="60"/>
  <use id="zoomplus" xlink:href="#zoomPlus" x="17" y="9" onmousedown="handleZoom(evt,'in')"/>
  <use id="zoomminus" xlink:href="#zoomMin" x="42" y="9" onmousedown="handleZoom(evt,'out')"/>
  <use id="reset" xlink:href="#resetDef" x="30" y="36" onmousedown="handleReset()"/>
   <use id="arrowup" xlink:href="#arrowUp" x="0" y="0" onmousedown="handlePan(0,-1)"/>
  <use id="arrowright" xlink:href="#arrowRight" x="0" y="0" onmousedown="handlePan(1,0)"/>
  <use id="arrowdown" xlink:href="#arrowDown" x="0" y="0" onmousedown="handlePan(0,1)"/>
  <use id="arrowleft" xlink:href="#arrowLeft" x="0" y="0" onmousedown="handlePan(-1,0)"/>
</g>
<svg viewBox="0 0 15 15" width="100%" height="30px" preserveAspectRatio="xMaxYMin meet">
 <g id="arrow_out" transform="scale(0.3 0.3)">
  <a xlink:href="source_2utilities_2powder__bed_8cpp__incl_org.svg" target="_base">
   <rect id="button" ry="5" rx="5" y="6" x="6" height="38" width="38"
        fill="#f2f5e9" fill-opacity="0.5" stroke="#606060" stroke-width="1.0"/>
   <path id="arrow"
     d="M 11.500037,31.436501 C 11.940474,20.09759 22.043105,11.32322 32.158766,21.979434 L 37.068811,17.246167 C 37.068811,17.246167 37.088388,32 37.088388,32 L 22.160133,31.978069 C 22.160133,31.978069 26.997745,27.140456 26.997745,27.140456 C 18.528582,18.264221 13.291696,25.230495 11.500037,31.436501 z"
     style="fill:#404040;"/>
  </a>
 </g>
</svg>

<style type='text/css'>
<![CDATA[
[data-mouse-over-selected='false'] { opacity: 0.7; }
[data-mouse-over-selected='true']  { opacity: 1.0; }
]]>
</style>
<script type="application/ecmascript"><![CDATA[
document.addEventListener('DOMContentLoaded', (event) => {
  highlightEdges();
  highlightAdjacentNodes();
});
]]></script>
</svg>
