<?xml version="1.0" encoding="UTF-8" standalone="no"?>
<!DOCTYPE svg PUBLIC "-//W3C//DTD SVG 1.1//EN"
 "http://www.w3.org/Graphics/SVG/1.1/DTD/svg11.dtd">
<!-- Generated by graphviz version 2.43.0 (0)
 -->
<!-- Title: include/meltpooldg/species_transport/state_views_mixins.hpp Pages: 1 -->
<svg width="320pt" height="423pt"
 viewBox="0.00 0.00 320.00 423.00" xmlns="http://www.w3.org/2000/svg" xmlns:xlink="http://www.w3.org/1999/xlink">

<svg id="main" version="1.1" xmlns="http://www.w3.org/2000/svg" xmlns:xlink="http://www.w3.org/1999/xlink" xml:space="preserve" onload="init(evt)">
<style type="text/css"><![CDATA[
.node, .edge {opacity: 0.7;}
.node.selected, .edge.selected {opacity: 1;}
.edge:hover path { stroke: red; }
.edge:hover polygon { stroke: red; fill: red; }
]]></style>
<script type="application/ecmascript" xlink:href="svg.min.js"/>
<svg id="graph" class="graph">
<g id="graph0" class="graph" transform="scale(1 1) rotate(0) translate(4 419)">
<title>include/meltpooldg/species_transport/state_views_mixins.hpp</title>
<!-- Node1 -->
<g id="Node000001" class="node">
<title>Node1</title>
<g id="a_Node000001"><a xlink:title=" ">
<polygon fill="#999999" stroke="#666666" points="225.5,-415 91.5,-415 91.5,-374 225.5,-374 225.5,-415"/>
<text text-anchor="start" x="99.5" y="-403" font-family="Helvetica,sans-Serif" font-size="10.00">include/meltpooldg</text>
<text text-anchor="start" x="99.5" y="-392" font-family="Helvetica,sans-Serif" font-size="10.00">/species_transport/state</text>
<text text-anchor="middle" x="158.5" y="-381" font-family="Helvetica,sans-Serif" font-size="10.00">_views_mixins.hpp</text>
</a>
</g>
</g>
<!-- Node2 -->
<g id="Node000002" class="node">
<title>Node2</title>
<g id="a_Node000002"><a xlink:href="state__views__multi__species_8hpp.html" target="_top" xlink:title=" ">
<polygon fill="white" stroke="#666666" points="230.5,-338 86.5,-338 86.5,-297 230.5,-297 230.5,-338"/>
<text text-anchor="start" x="94.5" y="-326" font-family="Helvetica,sans-Serif" font-size="10.00">include/meltpooldg</text>
<text text-anchor="start" x="94.5" y="-315" font-family="Helvetica,sans-Serif" font-size="10.00">/compressible_flow/state</text>
<text text-anchor="middle" x="158.5" y="-304" font-family="Helvetica,sans-Serif" font-size="10.00">_views_multi_species.hpp</text>
</a>
</g>
</g>
<!-- Node1&#45;&gt;Node2 -->
<g id="edge1_Node000001_Node000002" class="edge">
<title>Node1&#45;&gt;Node2</title>
<g id="a_edge1_Node000001_Node000002"><a xlink:title=" ">
<path fill="none" stroke="#63b8ff" d="M158.5,-363.69C158.5,-355.08 158.5,-345.9 158.5,-338.07"/>
<polygon fill="#63b8ff" stroke="#63b8ff" points="155,-363.79 158.5,-373.79 162,-363.79 155,-363.79"/>
</a>
</g>
</g>
<!-- Node3 -->
<g id="Node000003" class="node">
<title>Node3</title>
<g id="a_Node000003"><a xlink:href="kernels__multi__species_8hpp.html" target="_top" xlink:title=" ">
<polygon fill="white" stroke="#666666" points="182,-261 33,-261 33,-220 182,-220 182,-261"/>
<text text-anchor="start" x="41" y="-249" font-family="Helvetica,sans-Serif" font-size="10.00">include/meltpooldg</text>
<text text-anchor="start" x="41" y="-238" font-family="Helvetica,sans-Serif" font-size="10.00">/compressible_flow/kernels</text>
<text text-anchor="middle" x="107.5" y="-227" font-family="Helvetica,sans-Serif" font-size="10.00">_multi_species.hpp</text>
</a>
</g>
</g>
<!-- Node2&#45;&gt;Node3 -->
<g id="edge2_Node000002_Node000003" class="edge">
<title>Node2&#45;&gt;Node3</title>
<g id="a_edge2_Node000002_Node000003"><a xlink:title=" ">
<path fill="none" stroke="#63b8ff" d="M139.39,-288.39C133.2,-279.3 126.48,-269.41 120.81,-261.07"/>
<polygon fill="#63b8ff" stroke="#63b8ff" points="136.58,-290.49 145.1,-296.79 142.37,-286.56 136.58,-290.49"/>
</a>
</g>
</g>
<!-- Node8 -->
<g id="Node000008" class="node">
<title>Node8</title>
<g id="a_Node000008"><a xlink:href="state__views__n__species_8hpp.html" target="_top" xlink:title=" ">
<polygon fill="white" stroke="#666666" points="290.5,-107 152.5,-107 152.5,-66 290.5,-66 290.5,-107"/>
<text text-anchor="start" x="160.5" y="-95" font-family="Helvetica,sans-Serif" font-size="10.00">include/meltpooldg</text>
<text text-anchor="start" x="160.5" y="-84" font-family="Helvetica,sans-Serif" font-size="10.00">/compressible_flow/state</text>
<text text-anchor="middle" x="221.5" y="-73" font-family="Helvetica,sans-Serif" font-size="10.00">_views_n_species.hpp</text>
</a>
</g>
</g>
<!-- Node2&#45;&gt;Node8 -->
<g id="edge7_Node000002_Node000008" class="edge">
<title>Node2&#45;&gt;Node8</title>
<g id="a_edge7_Node000002_Node000008"><a xlink:title=" ">
<path fill="none" stroke="#63b8ff" d="M177.4,-288.08C182.3,-279.65 187.14,-270.21 190.5,-261 210.06,-207.39 217.58,-139.81 220.21,-107.07"/>
<polygon fill="#63b8ff" stroke="#63b8ff" points="174.32,-286.4 172.12,-296.77 180.31,-290.04 174.32,-286.4"/>
</a>
</g>
</g>
<!-- Node4 -->
<g id="Node000004" class="node">
<title>Node4</title>
<g id="a_Node000004"><a xlink:href="kernels__n__species_8hpp.html" target="_top" xlink:title=" ">
<polygon fill="white" stroke="#666666" points="170,-184 21,-184 21,-143 170,-143 170,-184"/>
<text text-anchor="start" x="29" y="-172" font-family="Helvetica,sans-Serif" font-size="10.00">include/meltpooldg</text>
<text text-anchor="start" x="29" y="-161" font-family="Helvetica,sans-Serif" font-size="10.00">/compressible_flow/kernels</text>
<text text-anchor="middle" x="95.5" y="-150" font-family="Helvetica,sans-Serif" font-size="10.00">_n_species.hpp</text>
</a>
</g>
</g>
<!-- Node3&#45;&gt;Node4 -->
<g id="edge3_Node000003_Node000004" class="edge">
<title>Node3&#45;&gt;Node4</title>
<g id="a_edge3_Node000003_Node000004"><a xlink:title=" ">
<path fill="none" stroke="#63b8ff" d="M102.73,-209.69C101.35,-201.08 99.88,-191.9 98.63,-184.07"/>
<polygon fill="#63b8ff" stroke="#63b8ff" points="99.31,-210.47 104.35,-219.79 106.22,-209.37 99.31,-210.47"/>
</a>
</g>
</g>
<!-- Node5 -->
<g id="Node000005" class="node">
<title>Node5</title>
<g id="a_Node000005"><a xlink:href="dg__operator__explicit_8hpp.html" target="_top" xlink:title=" ">
<polygon fill="white" stroke="#666666" points="134,-107 9,-107 9,-66 134,-66 134,-107"/>
<text text-anchor="start" x="17" y="-95" font-family="Helvetica,sans-Serif" font-size="10.00">include/meltpooldg</text>
<text text-anchor="start" x="17" y="-84" font-family="Helvetica,sans-Serif" font-size="10.00">/compressible_flow/dg</text>
<text text-anchor="middle" x="71.5" y="-73" font-family="Helvetica,sans-Serif" font-size="10.00">_operator_explicit.hpp</text>
</a>
</g>
</g>
<!-- Node4&#45;&gt;Node5 -->
<g id="edge4_Node000004_Node000005" class="edge">
<title>Node4&#45;&gt;Node5</title>
<g id="a_edge4_Node000004_Node000005"><a xlink:title=" ">
<path fill="none" stroke="#63b8ff" d="M86.14,-133.26C83.33,-124.48 80.32,-115.07 77.76,-107.07"/>
<polygon fill="#63b8ff" stroke="#63b8ff" points="82.81,-134.34 89.19,-142.79 89.48,-132.2 82.81,-134.34"/>
</a>
</g>
</g>
<!-- Node6 -->
<g id="Node000006" class="node">
<title>Node6</title>
<g id="a_Node000006"><a xlink:href="dg__operation_8cpp.html" target="_top" xlink:title=" ">
<polygon fill="white" stroke="#666666" points="129,-30 0,-30 0,0 129,0 129,-30"/>
<text text-anchor="start" x="8" y="-18" font-family="Helvetica,sans-Serif" font-size="10.00">source/compressible</text>
<text text-anchor="middle" x="64.5" y="-7" font-family="Helvetica,sans-Serif" font-size="10.00">_flow/dg_operation.cpp</text>
</a>
</g>
</g>
<!-- Node5&#45;&gt;Node6 -->
<g id="edge5_Node000005_Node000006" class="edge">
<title>Node5&#45;&gt;Node6</title>
<g id="a_edge5_Node000005_Node000006"><a xlink:title=" ">
<path fill="none" stroke="#63b8ff" d="M68.49,-55.66C67.6,-46.76 66.66,-37.42 65.91,-30.04"/>
<polygon fill="#63b8ff" stroke="#63b8ff" points="65.03,-56.17 69.51,-65.77 71.99,-55.47 65.03,-56.17"/>
</a>
</g>
</g>
<!-- Node7 -->
<g id="Node000007" class="node">
<title>Node7</title>
<g id="a_Node000007"><a xlink:href="dg__operator__explicit_8cpp.html" target="_top" xlink:title=" ">
<polygon fill="white" stroke="#666666" points="312,-30 147,-30 147,0 312,0 312,-30"/>
<text text-anchor="start" x="155" y="-18" font-family="Helvetica,sans-Serif" font-size="10.00">source/compressible</text>
<text text-anchor="middle" x="229.5" y="-7" font-family="Helvetica,sans-Serif" font-size="10.00">_flow/dg_operator_explicit.cpp</text>
</a>
</g>
</g>
<!-- Node5&#45;&gt;Node7 -->
<g id="edge6_Node000005_Node000007" class="edge">
<title>Node5&#45;&gt;Node7</title>
<g id="a_edge6_Node000005_Node000007"><a xlink:title=" ">
<path fill="none" stroke="#63b8ff" d="M125.28,-61.85C149.26,-51.3 176.71,-39.22 197.42,-30.11"/>
<polygon fill="#63b8ff" stroke="#63b8ff" points="123.68,-58.73 115.93,-65.96 126.5,-65.13 123.68,-58.73"/>
</a>
</g>
</g>
<!-- Node8&#45;&gt;Node6 -->
<g id="edge8_Node000008_Node000006" class="edge">
<title>Node8&#45;&gt;Node6</title>
<g id="a_edge8_Node000008_Node000006"><a xlink:title=" ">
<path fill="none" stroke="#63b8ff" d="M168.06,-61.85C144.23,-51.3 116.96,-39.22 96.38,-30.11"/>
<polygon fill="#63b8ff" stroke="#63b8ff" points="166.79,-65.11 177.35,-65.96 169.62,-58.71 166.79,-65.11"/>
</a>
</g>
</g>
<!-- Node8&#45;&gt;Node7 -->
<g id="edge9_Node000008_Node000007" class="edge">
<title>Node8&#45;&gt;Node7</title>
<g id="a_edge9_Node000008_Node000007"><a xlink:title=" ">
<path fill="none" stroke="#63b8ff" d="M224.93,-55.66C225.96,-46.76 227.03,-37.42 227.88,-30.04"/>
<polygon fill="#63b8ff" stroke="#63b8ff" points="221.44,-55.44 223.77,-65.77 228.39,-56.24 221.44,-55.44"/>
</a>
</g>
</g>
</g>
</svg>
</svg>

<style type='text/css'>
<![CDATA[
[data-mouse-over-selected='false'] { opacity: 0.7; }
[data-mouse-over-selected='true']  { opacity: 1.0; }
]]>
</style>
<script type="application/ecmascript"><![CDATA[
document.addEventListener('DOMContentLoaded', (event) => {
  highlightEdges();
  highlightAdjacentNodes();
});
]]></script>
</svg>
