<?xml version="1.0" encoding="UTF-8" standalone="no"?>
<!DOCTYPE svg PUBLIC "-//W3C//DTD SVG 1.1//EN"
 "http://www.w3.org/Graphics/SVG/1.1/DTD/svg11.dtd">
<!-- Generated by graphviz version 2.43.0 (0)
 -->
<!-- Title: include/meltpooldg/species_transport/output_post_processor.hpp Pages: 1 -->
<!--zoomable 247 -->

<svg id="main" version="1.1" xmlns="http://www.w3.org/2000/svg" xmlns:xlink="http://www.w3.org/1999/xlink" xml:space="preserve" onload="init(evt)">
<style type="text/css"><![CDATA[
.node, .edge {opacity: 0.7;}
.node.selected, .edge.selected {opacity: 1;}
.edge:hover path { stroke: red; }
.edge:hover polygon { stroke: red; fill: red; }
]]></style>

<defs>
  <circle id="rim" cx="0" cy="0" r="7"/>
  <circle id="rim2" cx="0" cy="0" r="3.5"/>
  <g id="zoomPlus">
    <use xlink:href="#rim" fill="#404040"><set attributeName="fill" to="#808080" begin="zoomplus.mouseover" end="zoomplus.mouseout"/></use>
    <path d="M-4,0h8M0,-4v8" fill="none" stroke="white" stroke-width="1.5" pointer-events="none"/>
  </g>
  <g id="zoomMin">
    <use xlink:href="#rim" fill="#404040"><set attributeName="fill" to="#808080" begin="zoomminus.mouseover" end="zoomminus.mouseout"/></use>
    <path d="M-4,0h8" fill="none" stroke="white" stroke-width="1.5" pointer-events="none"/>
  </g>
  <g id="arrowUp" transform="translate(30 24)">
    <use xlink:href="#rim"/>
    <path pointer-events="none" fill="none" stroke="white" stroke-width="1.5" d="M0,-3.0v7 M-2.5,-0.5L0,-3.0L2.5,-0.5"/>
  </g>
  <g id="arrowRight" transform="rotate(90) translate(36 -43)">
    <use xlink:href="#rim"/>
    <path pointer-events="none" fill="none" stroke="white" stroke-width="1.5" d="M0,-3.0v7 M-2.5,-0.5L0,-3.0L2.5,-0.5"/>
  </g>
  <g id="arrowDown" transform="rotate(180) translate(-30 -48)">
    <use xlink:href="#rim"/>
    <path pointer-events="none" fill="none" stroke="white" stroke-width="1.5" d="M0,-3.0v7 M-2.5,-0.5L0,-3.0L2.5,-0.5"/>
  </g>
  <g id="arrowLeft" transform="rotate(270) translate(-36 17)">
    <use xlink:href="#rim"/>
    <path pointer-events="none" fill="none" stroke="white" stroke-width="1.5" d="M0,-3.0v7 M-2.5,-0.5L0,-3.0L2.5,-0.5"/>
  </g>
  <g id="resetDef">
    <use xlink:href="#rim2" fill="#404040"><set attributeName="fill" to="#808080" begin="reset.mouseover" end="reset.mouseout"/></use>
  </g>
</defs>
<script type="application/ecmascript">
var viewWidth = 2440;
var viewHeight = 247;
var sectionId = 'dynsection-0';
</script>
<script type="application/ecmascript" xlink:href="svg.min.js"/>
<svg id="graph" class="graph">
<g id="viewport">
<title>include/meltpooldg/species_transport/output_post_processor.hpp</title>
<!-- Node1 -->
<g id="Node000001" class="node">
<title>Node1</title>
<g id="a_Node000001"><a xlink:title=" ">
<polygon fill="#999999" stroke="#666666" points="742,-239 602,-239 602,-198 742,-198 742,-239"/>
<text text-anchor="start" x="610" y="-227" font-family="Helvetica,sans-Serif" font-size="10.00">include/meltpooldg</text>
<text text-anchor="start" x="610" y="-216" font-family="Helvetica,sans-Serif" font-size="10.00">/species_transport/output</text>
<text text-anchor="middle" x="672" y="-205" font-family="Helvetica,sans-Serif" font-size="10.00">_post_processor.hpp</text>
</a>
</g>
</g>
<!-- Node2 -->
<g id="Node000002" class="node">
<title>Node2</title>
<g id="a_Node000002"><a xlink:title=" ">
<polygon fill="#e0e0e0" stroke="#999999" points="140,-24.5 0,-24.5 0,-5.5 140,-5.5 140,-24.5"/>
<text text-anchor="middle" x="70" y="-12.5" font-family="Helvetica,sans-Serif" font-size="10.00">deal.II/dofs/dof_handler.h</text>
</a>
</g>
</g>
<!-- Node1&#45;&gt;Node2 -->
<g id="edge1_Node000001_Node000002" class="edge">
<title>Node1&#45;&gt;Node2</title>
<g id="a_edge1_Node000001_Node000002"><a xlink:title=" ">
<path fill="none" stroke="#63b8ff" d="M601.83,-208.17C544.51,-199.47 461.83,-184.42 392,-162 276.46,-124.9 147.34,-58.03 94.52,-29.5"/>
<polygon fill="#63b8ff" stroke="#63b8ff" points="96.02,-26.33 85.57,-24.63 92.68,-32.48 96.02,-26.33"/>
</a>
</g>
</g>
<!-- Node3 -->
<g id="Node000003" class="node">
<title>Node3</title>
<g id="a_Node000003"><a xlink:title=" ">
<polygon fill="#e0e0e0" stroke="#999999" points="838,-30 720,-30 720,0 838,0 838,-30"/>
<text text-anchor="start" x="728" y="-18" font-family="Helvetica,sans-Serif" font-size="10.00">deal.II/lac/la_parallel</text>
<text text-anchor="middle" x="779" y="-7" font-family="Helvetica,sans-Serif" font-size="10.00">_vector.h</text>
</a>
</g>
</g>
<!-- Node1&#45;&gt;Node3 -->
<g id="edge2_Node000001_Node000003" class="edge">
<title>Node1&#45;&gt;Node3</title>
<g id="a_edge2_Node000001_Node000003"><a xlink:title=" ">
<path fill="none" stroke="#63b8ff" d="M663.41,-197.69C657.02,-180.07 650.57,-153.78 658,-132 672.67,-89.01 714.44,-55.32 744.8,-35.57"/>
<polygon fill="#63b8ff" stroke="#63b8ff" points="746.83,-38.43 753.42,-30.13 743.1,-32.51 746.83,-38.43"/>
</a>
</g>
</g>
<!-- Node4 -->
<g id="Node000004" class="node">
<title>Node4</title>
<g id="a_Node000004"><a xlink:title=" ">
<polygon fill="#e0e0e0" stroke="#999999" points="316,-30 158,-30 158,0 316,0 316,-30"/>
<text text-anchor="start" x="166" y="-18" font-family="Helvetica,sans-Serif" font-size="10.00">deal.II/numerics/data</text>
<text text-anchor="middle" x="237" y="-7" font-family="Helvetica,sans-Serif" font-size="10.00">_component_interpretation.h</text>
</a>
</g>
</g>
<!-- Node1&#45;&gt;Node4 -->
<g id="edge3_Node000001_Node000004" class="edge">
<title>Node1&#45;&gt;Node4</title>
<g id="a_edge3_Node000001_Node000004"><a xlink:title=" ">
<path fill="none" stroke="#63b8ff" d="M601.93,-201.79C529.19,-183.52 413.83,-148.92 325,-96 298.39,-80.15 272.75,-55.4 256.08,-37.63"/>
<polygon fill="#63b8ff" stroke="#63b8ff" points="258.42,-35.01 249.08,-30.01 253.26,-39.74 258.42,-35.01"/>
</a>
</g>
</g>
<!-- Node5 -->
<g id="Node000005" class="node">
<title>Node5</title>
<g id="a_Node000005"><a xlink:title=" ">
<polygon fill="#e0e0e0" stroke="#999999" points="2301.5,-162 2182.5,-162 2182.5,-132 2301.5,-132 2301.5,-162"/>
<text text-anchor="start" x="2190.5" y="-150" font-family="Helvetica,sans-Serif" font-size="10.00">deal.II/numerics/data</text>
<text text-anchor="middle" x="2242" y="-139" font-family="Helvetica,sans-Serif" font-size="10.00">_postprocessor.h</text>
</a>
</g>
</g>
<!-- Node1&#45;&gt;Node5 -->
<g id="edge4_Node000001_Node000005" class="edge">
<title>Node1&#45;&gt;Node5</title>
<g id="a_edge4_Node000001_Node000005"><a xlink:title=" ">
<path fill="none" stroke="#63b8ff" d="M742.05,-216.3C998.57,-211.67 1886.32,-193.69 2168,-162 2169.46,-161.84 2170.94,-161.66 2172.42,-161.47"/>
<polygon fill="#63b8ff" stroke="#63b8ff" points="2172.92,-164.93 2182.34,-160.08 2171.95,-158 2172.92,-164.93"/>
</a>
</g>
</g>
<!-- Node6 -->
<g id="Node000006" class="node">
<title>Node6</title>
<g id="a_Node000006"><a xlink:href="generic__data__out_8hpp.html" target="_top" xlink:title=" ">
<polygon fill="white" stroke="#666666" points="568,-96 414,-96 414,-66 568,-66 568,-96"/>
<text text-anchor="start" x="422" y="-84" font-family="Helvetica,sans-Serif" font-size="10.00">meltpooldg/post_processing</text>
<text text-anchor="middle" x="491" y="-73" font-family="Helvetica,sans-Serif" font-size="10.00">/generic_data_out.hpp</text>
</a>
</g>
</g>
<!-- Node1&#45;&gt;Node6 -->
<g id="edge5_Node000001_Node000006" class="edge">
<title>Node1&#45;&gt;Node6</title>
<g id="a_edge5_Node000001_Node000006"><a xlink:title=" ">
<path fill="none" stroke="#63b8ff" d="M637.35,-197.99C620.24,-187.9 599.56,-174.99 582,-162 557.21,-143.67 530.98,-120.11 513.09,-103.31"/>
<polygon fill="#63b8ff" stroke="#63b8ff" points="515.15,-100.45 505.48,-96.11 510.34,-105.53 515.15,-100.45"/>
</a>
</g>
</g>
<!-- Node10 -->
<g id="Node000010" class="node">
<title>Node10</title>
<g id="a_Node000010"><a xlink:title=" ">
<polygon fill="#e0e0e0" stroke="#999999" points="900,-24.5 856,-24.5 856,-5.5 900,-5.5 900,-24.5"/>
<text text-anchor="middle" x="878" y="-12.5" font-family="Helvetica,sans-Serif" font-size="10.00">string</text>
</a>
</g>
</g>
<!-- Node1&#45;&gt;Node10 -->
<g id="edge41_Node000001_Node000010" class="edge">
<title>Node1&#45;&gt;Node10</title>
<g id="a_edge41_Node000001_Node000010"><a xlink:title=" ">
<path fill="none" stroke="#63b8ff" d="M672.38,-197.99C674.08,-165.86 682.2,-101.83 719,-66 761.34,-24.77 791.47,-50.22 847,-30 848.22,-29.56 849.45,-29.09 850.7,-28.6"/>
<polygon fill="#63b8ff" stroke="#63b8ff" points="852.3,-31.72 860.16,-24.61 849.58,-25.27 852.3,-31.72"/>
</a>
</g>
</g>
<!-- Node12 -->
<g id="Node000012" class="node">
<title>Node12</title>
<g id="a_Node000012"><a xlink:title=" ">
<polygon fill="#e0e0e0" stroke="#999999" points="1466.5,-24.5 1419.5,-24.5 1419.5,-5.5 1466.5,-5.5 1466.5,-24.5"/>
<text text-anchor="middle" x="1443" y="-12.5" font-family="Helvetica,sans-Serif" font-size="10.00">vector</text>
</a>
</g>
</g>
<!-- Node1&#45;&gt;Node12 -->
<g id="edge42_Node000001_Node000012" class="edge">
<title>Node1&#45;&gt;Node12</title>
<g id="a_edge42_Node000001_Node000012"><a xlink:title=" ">
<path fill="none" stroke="#63b8ff" d="M742.16,-217.11C1020.93,-214.84 2039.75,-199.49 2135,-96 2144.03,-86.19 2144.08,-75.76 2135,-66 2089.81,-17.43 1609.91,-15.43 1476.97,-15.81"/>
<polygon fill="#63b8ff" stroke="#63b8ff" points="1476.59,-12.31 1466.6,-15.85 1476.61,-19.31 1476.59,-12.31"/>
</a>
</g>
</g>
<!-- Node13 -->
<g id="Node000013" class="node">
<title>Node13</title>
<g id="a_Node000013"><a xlink:href="postprocessor_8hpp.html" target="_top" xlink:title=" ">
<polygon fill="white" stroke="#666666" points="1271,-162 1117,-162 1117,-132 1271,-132 1271,-162"/>
<text text-anchor="start" x="1125" y="-150" font-family="Helvetica,sans-Serif" font-size="10.00">meltpooldg/post_processing</text>
<text text-anchor="middle" x="1194" y="-139" font-family="Helvetica,sans-Serif" font-size="10.00">/postprocessor.hpp</text>
</a>
</g>
</g>
<!-- Node1&#45;&gt;Node13 -->
<g id="edge15_Node000001_Node000013" class="edge">
<title>Node1&#45;&gt;Node13</title>
<g id="a_edge15_Node000001_Node000013"><a xlink:title=" ">
<path fill="none" stroke="#63b8ff" d="M742.13,-208.16C836.44,-195.61 1004.12,-173.28 1106.56,-159.64"/>
<polygon fill="#63b8ff" stroke="#63b8ff" points="1107.12,-163.1 1116.57,-158.31 1106.2,-156.16 1107.12,-163.1"/>
</a>
</g>
</g>
<!-- Node28 -->
<g id="Node000028" class="node">
<title>Node28</title>
<g id="a_Node000028"><a xlink:href="cpp23__functions_8h.html" target="_top" xlink:title=" ">
<polygon fill="white" stroke="#666666" points="2432,-162 2320,-162 2320,-132 2432,-132 2432,-162"/>
<text text-anchor="start" x="2328" y="-150" font-family="Helvetica,sans-Serif" font-size="10.00">meltpooldg/utilities</text>
<text text-anchor="middle" x="2376" y="-139" font-family="Helvetica,sans-Serif" font-size="10.00">/cpp23_functions.h</text>
</a>
</g>
</g>
<!-- Node1&#45;&gt;Node28 -->
<g id="edge39_Node000001_Node000028" class="edge">
<title>Node1&#45;&gt;Node28</title>
<g id="a_edge39_Node000001_Node000028"><a xlink:title=" ">
<path fill="none" stroke="#63b8ff" d="M742.14,-216.79C1011.47,-213.81 1980.21,-200.67 2309.7,-161.97"/>
<polygon fill="#63b8ff" stroke="#63b8ff" points="2310.23,-165.43 2319.73,-160.76 2309.39,-158.48 2310.23,-165.43"/>
</a>
</g>
</g>
<!-- Node6&#45;&gt;Node2 -->
<g id="edge6_Node000006_Node000002" class="edge">
<title>Node6&#45;&gt;Node2</title>
<g id="a_edge6_Node000006_Node000002"><a xlink:title=" ">
<path fill="none" stroke="#63b8ff" d="M413.82,-69.39C344.43,-59.7 239.78,-44.68 149,-30 141.82,-28.84 134.27,-27.57 126.82,-26.28"/>
<polygon fill="#63b8ff" stroke="#63b8ff" points="127.2,-22.8 116.75,-24.53 126,-29.69 127.2,-22.8"/>
</a>
</g>
</g>
<!-- Node6&#45;&gt;Node3 -->
<g id="edge8_Node000006_Node000003" class="edge">
<title>Node6&#45;&gt;Node3</title>
<g id="a_edge8_Node000006_Node000003"><a xlink:title=" ">
<path fill="none" stroke="#63b8ff" d="M554.2,-65.95C600.27,-55.72 662.65,-41.86 710.01,-31.33"/>
<polygon fill="#63b8ff" stroke="#63b8ff" points="710.87,-34.73 719.87,-29.14 709.35,-27.89 710.87,-34.73"/>
</a>
</g>
</g>
<!-- Node6&#45;&gt;Node4 -->
<g id="edge9_Node000006_Node000004" class="edge">
<title>Node6&#45;&gt;Node4</title>
<g id="a_edge9_Node000006_Node000004"><a xlink:title=" ">
<path fill="none" stroke="#63b8ff" d="M435.26,-65.95C396.13,-56.1 343.67,-42.88 302.54,-32.51"/>
<polygon fill="#63b8ff" stroke="#63b8ff" points="303.16,-29.06 292.61,-30.01 301.45,-35.85 303.16,-29.06"/>
</a>
</g>
</g>
<!-- Node7 -->
<g id="Node000007" class="node">
<title>Node7</title>
<g id="a_Node000007"><a xlink:title=" ">
<polygon fill="#e0e0e0" stroke="#999999" points="702,-24.5 588,-24.5 588,-5.5 702,-5.5 702,-24.5"/>
<text text-anchor="middle" x="645" y="-12.5" font-family="Helvetica,sans-Serif" font-size="10.00">deal.II/fe/mapping.h</text>
</a>
</g>
</g>
<!-- Node6&#45;&gt;Node7 -->
<g id="edge7_Node000006_Node000007" class="edge">
<title>Node6&#45;&gt;Node7</title>
<g id="a_edge7_Node000006_Node000007"><a xlink:title=" ">
<path fill="none" stroke="#63b8ff" d="M524.8,-65.95C551.8,-54.73 589.3,-39.15 615.19,-28.39"/>
<polygon fill="#63b8ff" stroke="#63b8ff" points="616.61,-31.59 624.51,-24.52 613.93,-25.12 616.61,-31.59"/>
</a>
</g>
</g>
<!-- Node8 -->
<g id="Node000008" class="node">
<title>Node8</title>
<g id="a_Node000008"><a xlink:title=" ">
<polygon fill="#e0e0e0" stroke="#999999" points="453.5,-30 334.5,-30 334.5,0 453.5,0 453.5,-30"/>
<text text-anchor="start" x="342.5" y="-18" font-family="Helvetica,sans-Serif" font-size="10.00">deal.II/numerics/data</text>
<text text-anchor="middle" x="394" y="-7" font-family="Helvetica,sans-Serif" font-size="10.00">_out.h</text>
</a>
</g>
</g>
<!-- Node6&#45;&gt;Node8 -->
<g id="edge10_Node000006_Node000008" class="edge">
<title>Node6&#45;&gt;Node8</title>
<g id="a_edge10_Node000006_Node000008"><a xlink:title=" ">
<path fill="none" stroke="#63b8ff" d="M469.47,-65.8C456.16,-57.01 438.87,-45.61 424.2,-35.93"/>
<polygon fill="#63b8ff" stroke="#63b8ff" points="425.74,-32.75 415.47,-30.16 421.89,-38.59 425.74,-32.75"/>
</a>
</g>
</g>
<!-- Node9 -->
<g id="Node000009" class="node">
<title>Node9</title>
<g id="a_Node000009"><a xlink:title=" ">
<polygon fill="#e0e0e0" stroke="#999999" points="510,-24.5 472,-24.5 472,-5.5 510,-5.5 510,-24.5"/>
<text text-anchor="middle" x="491" y="-12.5" font-family="Helvetica,sans-Serif" font-size="10.00">map</text>
</a>
</g>
</g>
<!-- Node6&#45;&gt;Node9 -->
<g id="edge11_Node000006_Node000009" class="edge">
<title>Node6&#45;&gt;Node9</title>
<g id="a_edge11_Node000006_Node000009"><a xlink:title=" ">
<path fill="none" stroke="#63b8ff" d="M491,-65.8C491,-56.7 491,-44.79 491,-34.9"/>
<polygon fill="#63b8ff" stroke="#63b8ff" points="494.5,-34.84 491,-24.84 487.5,-34.84 494.5,-34.84"/>
</a>
</g>
</g>
<!-- Node6&#45;&gt;Node10 -->
<g id="edge12_Node000006_Node000010" class="edge">
<title>Node6&#45;&gt;Node10</title>
<g id="a_edge12_Node000006_Node000010"><a xlink:title=" ">
<path fill="none" stroke="#63b8ff" d="M568.06,-71.77C656.6,-61.86 796.19,-44.71 847,-30 848.64,-29.53 850.3,-28.98 851.96,-28.39"/>
<polygon fill="#63b8ff" stroke="#63b8ff" points="853.33,-31.61 861.28,-24.6 850.69,-25.12 853.33,-31.61"/>
</a>
</g>
</g>
<!-- Node11 -->
<g id="Node000011" class="node">
<title>Node11</title>
<g id="a_Node000011"><a xlink:title=" ">
<polygon fill="#e0e0e0" stroke="#999999" points="569.5,-24.5 528.5,-24.5 528.5,-5.5 569.5,-5.5 569.5,-24.5"/>
<text text-anchor="middle" x="549" y="-12.5" font-family="Helvetica,sans-Serif" font-size="10.00">tuple</text>
</a>
</g>
</g>
<!-- Node6&#45;&gt;Node11 -->
<g id="edge13_Node000006_Node000011" class="edge">
<title>Node6&#45;&gt;Node11</title>
<g id="a_edge13_Node000006_Node000011"><a xlink:title=" ">
<path fill="none" stroke="#63b8ff" d="M503.87,-65.8C512.83,-55.92 524.79,-42.72 534.14,-32.39"/>
<polygon fill="#63b8ff" stroke="#63b8ff" points="536.86,-34.6 540.98,-24.84 531.68,-29.9 536.86,-34.6"/>
</a>
</g>
</g>
<!-- Node6&#45;&gt;Node12 -->
<g id="edge14_Node000006_Node000012" class="edge">
<title>Node6&#45;&gt;Node12</title>
<g id="a_edge14_Node000006_Node000012"><a xlink:title=" ">
<path fill="none" stroke="#63b8ff" d="M568.17,-75.38C614.74,-72.61 675.28,-69.05 729,-66 1022.3,-49.37 1098.71,-75.09 1389,-30 1395.59,-28.98 1402.55,-27.49 1409.2,-25.86"/>
<polygon fill="#63b8ff" stroke="#63b8ff" points="1410.49,-29.14 1419.29,-23.24 1408.73,-22.37 1410.49,-29.14"/>
</a>
</g>
</g>
<!-- Node13&#45;&gt;Node3 -->
<g id="edge21_Node000013_Node000003" class="edge">
<title>Node13&#45;&gt;Node3</title>
<g id="a_edge21_Node000013_Node000003"><a xlink:title=" ">
<path fill="none" stroke="#63b8ff" d="M1116.78,-143.42C989.02,-138.35 745.08,-124.96 719,-96 701.62,-76.69 725.05,-52.63 747.53,-35.96"/>
<polygon fill="#63b8ff" stroke="#63b8ff" points="749.55,-38.81 755.69,-30.18 745.5,-33.1 749.55,-38.81"/>
</a>
</g>
</g>
<!-- Node13&#45;&gt;Node4 -->
<g id="edge22_Node000013_Node000004" class="edge">
<title>Node13&#45;&gt;Node4</title>
<g id="a_edge22_Node000013_Node000004"><a xlink:title=" ">
<path fill="none" stroke="#63b8ff" d="M1116.97,-144.83C945.71,-141.63 538.02,-130.51 405,-96 354.41,-82.87 300.66,-54.39 267.96,-35.2"/>
<polygon fill="#63b8ff" stroke="#63b8ff" points="269.69,-32.16 259.31,-30.05 266.11,-38.17 269.69,-32.16"/>
</a>
</g>
</g>
<!-- Node13&#45;&gt;Node6 -->
<g id="edge25_Node000013_Node000006" class="edge">
<title>Node13&#45;&gt;Node6</title>
<g id="a_edge25_Node000013_Node000006"><a xlink:title=" ">
<path fill="none" stroke="#63b8ff" d="M1116.89,-139.81C1006.66,-130.83 797.71,-113.38 620,-96 606.47,-94.68 592.15,-93.2 578.16,-91.71"/>
<polygon fill="#63b8ff" stroke="#63b8ff" points="578.37,-88.22 568.05,-90.63 577.62,-95.18 578.37,-88.22"/>
</a>
</g>
</g>
<!-- Node13&#45;&gt;Node10 -->
<g id="edge36_Node000013_Node000010" class="edge">
<title>Node13&#45;&gt;Node10</title>
<g id="a_edge36_Node000013_Node000010"><a xlink:title=" ">
<path fill="none" stroke="#63b8ff" d="M1116.9,-143.24C991.42,-137.94 754.4,-124.28 729,-96 720.09,-86.08 721.07,-76.72 729,-66 761.63,-21.93 795.69,-49.32 847,-30 848.21,-29.54 849.44,-29.06 850.68,-28.56"/>
<polygon fill="#63b8ff" stroke="#63b8ff" points="852.3,-31.68 860.13,-24.54 849.56,-25.24 852.3,-31.68"/>
</a>
</g>
</g>
<!-- Node13&#45;&gt;Node12 -->
<g id="edge38_Node000013_Node000012" class="edge">
<title>Node13&#45;&gt;Node12</title>
<g id="a_edge38_Node000013_Node000012"><a xlink:title=" ">
<path fill="none" stroke="#63b8ff" d="M1271.15,-141.07C1336.31,-135.1 1422.39,-122.36 1444,-96 1458,-78.92 1454.22,-52.2 1449.35,-34.4"/>
<polygon fill="#63b8ff" stroke="#63b8ff" points="1452.63,-33.15 1446.33,-24.63 1445.94,-35.22 1452.63,-33.15"/>
</a>
</g>
</g>
<!-- Node14 -->
<g id="Node000014" class="node">
<title>Node14</title>
<g id="a_Node000014"><a xlink:title=" ">
<polygon fill="#e0e0e0" stroke="#999999" points="1263,-90.5 1125,-90.5 1125,-71.5 1263,-71.5 1263,-90.5"/>
<text text-anchor="middle" x="1194" y="-78.5" font-family="Helvetica,sans-Serif" font-size="10.00">deal.II/base/exceptions.h</text>
</a>
</g>
</g>
<!-- Node13&#45;&gt;Node14 -->
<g id="edge16_Node000013_Node000014" class="edge">
<title>Node13&#45;&gt;Node14</title>
<g id="a_edge16_Node000013_Node000014"><a xlink:title=" ">
<path fill="none" stroke="#63b8ff" d="M1194,-131.8C1194,-122.7 1194,-110.79 1194,-100.9"/>
<polygon fill="#63b8ff" stroke="#63b8ff" points="1197.5,-100.84 1194,-90.84 1190.5,-100.84 1197.5,-100.84"/>
</a>
</g>
</g>
<!-- Node15 -->
<g id="Node000015" class="node">
<title>Node15</title>
<g id="a_Node000015"><a xlink:title=" ">
<polygon fill="#e0e0e0" stroke="#999999" points="1595,-90.5 1491,-90.5 1491,-71.5 1595,-71.5 1595,-90.5"/>
<text text-anchor="middle" x="1543" y="-78.5" font-family="Helvetica,sans-Serif" font-size="10.00">deal.II/base/mpi.h</text>
</a>
</g>
</g>
<!-- Node13&#45;&gt;Node15 -->
<g id="edge17_Node000013_Node000015" class="edge">
<title>Node13&#45;&gt;Node15</title>
<g id="a_edge17_Node000013_Node000015"><a xlink:title=" ">
<path fill="none" stroke="#63b8ff" d="M1271,-133.13C1327.99,-123.42 1407.45,-109.52 1477,-96 1482.46,-94.94 1488.17,-93.79 1493.84,-92.62"/>
<polygon fill="#63b8ff" stroke="#63b8ff" points="1494.88,-95.98 1503.96,-90.51 1493.45,-89.13 1494.88,-95.98"/>
</a>
</g>
</g>
<!-- Node16 -->
<g id="Node000016" class="node">
<title>Node16</title>
<g id="a_Node000016"><a xlink:title=" ">
<polygon fill="#e0e0e0" stroke="#999999" points="1710.5,-90.5 1613.5,-90.5 1613.5,-71.5 1710.5,-71.5 1710.5,-90.5"/>
<text text-anchor="middle" x="1662" y="-78.5" font-family="Helvetica,sans-Serif" font-size="10.00">deal.II/grid/tria.h</text>
</a>
</g>
</g>
<!-- Node13&#45;&gt;Node16 -->
<g id="edge18_Node000013_Node000016" class="edge">
<title>Node13&#45;&gt;Node16</title>
<g id="a_edge18_Node000013_Node000016"><a xlink:title=" ">
<path fill="none" stroke="#63b8ff" d="M1271.1,-139.28C1353.8,-131.44 1488.81,-116.85 1604,-96 1609.09,-95.08 1614.41,-93.98 1619.66,-92.82"/>
<polygon fill="#63b8ff" stroke="#63b8ff" points="1620.67,-96.18 1629.62,-90.51 1619.09,-89.36 1620.67,-96.18"/>
</a>
</g>
</g>
<!-- Node17 -->
<g id="Node000017" class="node">
<title>Node17</title>
<g id="a_Node000017"><a xlink:title=" ">
<polygon fill="#e0e0e0" stroke="#999999" points="1831.5,-96 1728.5,-96 1728.5,-66 1831.5,-66 1831.5,-96"/>
<text text-anchor="start" x="1736.5" y="-84" font-family="Helvetica,sans-Serif" font-size="10.00">deal.II/lac/generic</text>
<text text-anchor="middle" x="1780" y="-73" font-family="Helvetica,sans-Serif" font-size="10.00">_linear_algebra.h</text>
</a>
</g>
</g>
<!-- Node13&#45;&gt;Node17 -->
<g id="edge19_Node000013_Node000017" class="edge">
<title>Node13&#45;&gt;Node17</title>
<g id="a_edge19_Node000013_Node000017"><a xlink:title=" ">
<path fill="none" stroke="#63b8ff" d="M1271.35,-141.8C1372,-135.64 1553.42,-122.1 1717.87,-96.03"/>
<polygon fill="#63b8ff" stroke="#63b8ff" points="1718.86,-99.42 1728.18,-94.38 1717.75,-92.51 1718.86,-99.42"/>
</a>
</g>
</g>
<!-- Node18 -->
<g id="Node000018" class="node">
<title>Node18</title>
<g id="a_Node000018"><a xlink:title=" ">
<polygon fill="#e0e0e0" stroke="#999999" points="1968,-96 1850,-96 1850,-66 1968,-66 1968,-96"/>
<text text-anchor="start" x="1858" y="-84" font-family="Helvetica,sans-Serif" font-size="10.00">deal.II/lac/la_parallel</text>
<text text-anchor="middle" x="1909" y="-73" font-family="Helvetica,sans-Serif" font-size="10.00">_block_vector.h</text>
</a>
</g>
</g>
<!-- Node13&#45;&gt;Node18 -->
<g id="edge20_Node000013_Node000018" class="edge">
<title>Node13&#45;&gt;Node18</title>
<g id="a_edge20_Node000013_Node000018"><a xlink:title=" ">
<path fill="none" stroke="#63b8ff" d="M1271.4,-143.09C1392.96,-137.82 1635.85,-124.5 1840,-96 1840.1,-95.99 1840.2,-95.97 1840.31,-95.96"/>
<polygon fill="#63b8ff" stroke="#63b8ff" points="1840.63,-99.45 1849.99,-94.47 1839.57,-92.53 1840.63,-99.45"/>
</a>
</g>
</g>
<!-- Node19 -->
<g id="Node000019" class="node">
<title>Node19</title>
<g id="a_Node000019"><a xlink:title=" ">
<polygon fill="#e0e0e0" stroke="#999999" points="2126,-90.5 1986,-90.5 1986,-71.5 2126,-71.5 2126,-90.5"/>
<text text-anchor="middle" x="2056" y="-78.5" font-family="Helvetica,sans-Serif" font-size="10.00">deal.II/particles/particle.h</text>
</a>
</g>
</g>
<!-- Node13&#45;&gt;Node19 -->
<g id="edge23_Node000013_Node000019" class="edge">
<title>Node13&#45;&gt;Node19</title>
<g id="a_edge23_Node000013_Node000019"><a xlink:title=" ">
<path fill="none" stroke="#63b8ff" d="M1271.22,-143.93C1411.98,-139.51 1719.53,-126.94 1977,-96 1985.45,-94.98 1994.36,-93.66 2003.04,-92.22"/>
<polygon fill="#63b8ff" stroke="#63b8ff" points="2003.81,-95.64 2013.08,-90.5 2002.63,-88.74 2003.81,-95.64"/>
</a>
</g>
</g>
<!-- Node20 -->
<g id="Node000020" class="node">
<title>Node20</title>
<g id="a_Node000020"><a xlink:title=" ">
<polygon fill="#e0e0e0" stroke="#999999" points="869.5,-96 738.5,-96 738.5,-66 869.5,-66 869.5,-96"/>
<text text-anchor="start" x="746.5" y="-84" font-family="Helvetica,sans-Serif" font-size="10.00">deal.II/particles/particle</text>
<text text-anchor="middle" x="804" y="-73" font-family="Helvetica,sans-Serif" font-size="10.00">_handler.h</text>
</a>
</g>
</g>
<!-- Node13&#45;&gt;Node20 -->
<g id="edge24_Node000013_Node000020" class="edge">
<title>Node13&#45;&gt;Node20</title>
<g id="a_edge24_Node000013_Node000020"><a xlink:title=" ">
<path fill="none" stroke="#63b8ff" d="M1116.95,-134.47C1055.27,-125.09 966.3,-111.21 879.74,-96.28"/>
<polygon fill="#63b8ff" stroke="#63b8ff" points="880.2,-92.8 869.75,-94.55 879,-99.7 880.2,-92.8"/>
</a>
</g>
</g>
<!-- Node21 -->
<g id="Node000021" class="node">
<title>Node21</title>
<g id="a_Node000021"><a xlink:href="output__data_8hpp.html" target="_top" xlink:title=" ">
<polygon fill="white" stroke="#666666" points="1435,-96 1281,-96 1281,-66 1435,-66 1435,-96"/>
<text text-anchor="start" x="1289" y="-84" font-family="Helvetica,sans-Serif" font-size="10.00">meltpooldg/post_processing</text>
<text text-anchor="middle" x="1358" y="-73" font-family="Helvetica,sans-Serif" font-size="10.00">/output_data.hpp</text>
</a>
</g>
</g>
<!-- Node13&#45;&gt;Node21 -->
<g id="edge26_Node000013_Node000021" class="edge">
<title>Node13&#45;&gt;Node21</title>
<g id="a_edge26_Node000013_Node000021"><a xlink:title=" ">
<path fill="none" stroke="#63b8ff" d="M1229.99,-131.95C1254.24,-122.49 1286.42,-109.93 1312.45,-99.78"/>
<polygon fill="#63b8ff" stroke="#63b8ff" points="1314.05,-102.91 1322.09,-96.01 1311.51,-96.39 1314.05,-102.91"/>
</a>
</g>
</g>
<!-- Node24 -->
<g id="Node000024" class="node">
<title>Node24</title>
<g id="a_Node000024"><a xlink:href="time__stepping__data_8hpp.html" target="_top" xlink:title=" ">
<polygon fill="white" stroke="#666666" points="1107,-96 951,-96 951,-66 1107,-66 1107,-96"/>
<text text-anchor="start" x="959" y="-84" font-family="Helvetica,sans-Serif" font-size="10.00">meltpooldg/time_integration</text>
<text text-anchor="middle" x="1029" y="-73" font-family="Helvetica,sans-Serif" font-size="10.00">/time_stepping_data.hpp</text>
</a>
</g>
</g>
<!-- Node13&#45;&gt;Node24 -->
<g id="edge31_Node000013_Node000024" class="edge">
<title>Node13&#45;&gt;Node24</title>
<g id="a_edge31_Node000013_Node000024"><a xlink:title=" ">
<path fill="none" stroke="#63b8ff" d="M1157.79,-131.95C1133.29,-122.45 1100.73,-109.82 1074.48,-99.64"/>
<polygon fill="#63b8ff" stroke="#63b8ff" points="1075.71,-96.37 1065.13,-96.01 1073.18,-102.89 1075.71,-96.37"/>
</a>
</g>
</g>
<!-- Node25 -->
<g id="Node000025" class="node">
<title>Node25</title>
<g id="a_Node000025"><a xlink:href="conditional__ostream_8hpp.html" target="_top" xlink:title=" ">
<polygon fill="white" stroke="#666666" points="2322,-96 2182,-96 2182,-66 2322,-66 2322,-96"/>
<text text-anchor="start" x="2190" y="-84" font-family="Helvetica,sans-Serif" font-size="10.00">meltpooldg/utilities</text>
<text text-anchor="middle" x="2252" y="-73" font-family="Helvetica,sans-Serif" font-size="10.00">/conditional_ostream.hpp</text>
</a>
</g>
</g>
<!-- Node13&#45;&gt;Node25 -->
<g id="edge34_Node000013_Node000025" class="edge">
<title>Node13&#45;&gt;Node25</title>
<g id="a_edge34_Node000013_Node000025"><a xlink:title=" ">
<path fill="none" stroke="#63b8ff" d="M1271.27,-143.62C1432.19,-138.29 1814.92,-123.62 2135,-96 2146.86,-94.98 2159.38,-93.69 2171.64,-92.32"/>
<polygon fill="#63b8ff" stroke="#63b8ff" points="2172.32,-95.77 2181.86,-91.16 2171.52,-88.81 2172.32,-95.77"/>
</a>
</g>
</g>
<!-- Node27 -->
<g id="Node000027" class="node">
<title>Node27</title>
<g id="a_Node000027"><a xlink:title=" ">
<polygon fill="#e0e0e0" stroke="#999999" points="932.5,-90.5 887.5,-90.5 887.5,-71.5 932.5,-71.5 932.5,-90.5"/>
<text text-anchor="middle" x="910" y="-78.5" font-family="Helvetica,sans-Serif" font-size="10.00">utility</text>
</a>
</g>
</g>
<!-- Node13&#45;&gt;Node27 -->
<g id="edge37_Node000013_Node000027" class="edge">
<title>Node13&#45;&gt;Node27</title>
<g id="a_edge37_Node000013_Node000027"><a xlink:title=" ">
<path fill="none" stroke="#63b8ff" d="M1116.83,-135.13C1066.39,-126.95 999.45,-114.03 942,-96 940.37,-95.49 938.71,-94.92 937.05,-94.31"/>
<polygon fill="#63b8ff" stroke="#63b8ff" points="938.26,-91.03 927.68,-90.55 935.65,-97.52 938.26,-91.03"/>
</a>
</g>
</g>
<!-- Node21&#45;&gt;Node10 -->
<g id="edge29_Node000021_Node000010" class="edge">
<title>Node21&#45;&gt;Node10</title>
<g id="a_edge29_Node000021_Node000010"><a xlink:title=" ">
<path fill="none" stroke="#63b8ff" d="M1280.66,-67.28C1277.74,-66.84 1274.84,-66.41 1272,-66 1137.92,-46.58 977.55,-27.52 910.24,-19.7"/>
<polygon fill="#63b8ff" stroke="#63b8ff" points="910.59,-16.22 900.25,-18.55 909.78,-23.17 910.59,-16.22"/>
</a>
</g>
</g>
<!-- Node21&#45;&gt;Node12 -->
<g id="edge30_Node000021_Node000012" class="edge">
<title>Node21&#45;&gt;Node12</title>
<g id="a_edge30_Node000021_Node000012"><a xlink:title=" ">
<path fill="none" stroke="#63b8ff" d="M1376.86,-65.8C1390.64,-55.43 1409.26,-41.4 1423.24,-30.88"/>
<polygon fill="#63b8ff" stroke="#63b8ff" points="1425.37,-33.66 1431.25,-24.84 1421.16,-28.06 1425.37,-33.66"/>
</a>
</g>
</g>
<!-- Node22 -->
<g id="Node000022" class="node">
<title>Node22</title>
<g id="a_Node000022"><a xlink:title=" ">
<polygon fill="#e0e0e0" stroke="#999999" points="1205.5,-30 1078.5,-30 1078.5,0 1205.5,0 1205.5,-30"/>
<text text-anchor="start" x="1086.5" y="-18" font-family="Helvetica,sans-Serif" font-size="10.00">deal.II/base/parameter</text>
<text text-anchor="middle" x="1142" y="-7" font-family="Helvetica,sans-Serif" font-size="10.00">_handler.h</text>
</a>
</g>
</g>
<!-- Node21&#45;&gt;Node22 -->
<g id="edge27_Node000021_Node000022" class="edge">
<title>Node21&#45;&gt;Node22</title>
<g id="a_edge27_Node000021_Node000022"><a xlink:title=" ">
<path fill="none" stroke="#63b8ff" d="M1310.6,-65.95C1277.82,-56.24 1234.03,-43.27 1199.29,-32.98"/>
<polygon fill="#63b8ff" stroke="#63b8ff" points="1199.87,-29.5 1189.29,-30.01 1197.89,-36.21 1199.87,-29.5"/>
</a>
</g>
</g>
<!-- Node23 -->
<g id="Node000023" class="node">
<title>Node23</title>
<g id="a_Node000023"><a xlink:title=" ">
<polygon fill="#e0e0e0" stroke="#999999" points="1380,-24.5 1336,-24.5 1336,-5.5 1380,-5.5 1380,-24.5"/>
<text text-anchor="middle" x="1358" y="-12.5" font-family="Helvetica,sans-Serif" font-size="10.00">limits</text>
</a>
</g>
</g>
<!-- Node21&#45;&gt;Node23 -->
<g id="edge28_Node000021_Node000023" class="edge">
<title>Node21&#45;&gt;Node23</title>
<g id="a_edge28_Node000021_Node000023"><a xlink:title=" ">
<path fill="none" stroke="#63b8ff" d="M1358,-65.8C1358,-56.7 1358,-44.79 1358,-34.9"/>
<polygon fill="#63b8ff" stroke="#63b8ff" points="1361.5,-34.84 1358,-24.84 1354.5,-34.84 1361.5,-34.84"/>
</a>
</g>
</g>
<!-- Node24&#45;&gt;Node10 -->
<g id="edge33_Node000024_Node000010" class="edge">
<title>Node24&#45;&gt;Node10</title>
<g id="a_edge33_Node000024_Node000010"><a xlink:title=" ">
<path fill="none" stroke="#63b8ff" d="M995.86,-65.95C969.5,-54.78 932.94,-39.29 907.56,-28.53"/>
<polygon fill="#63b8ff" stroke="#63b8ff" points="908.67,-25.2 898.1,-24.52 905.94,-31.64 908.67,-25.2"/>
</a>
</g>
</g>
<!-- Node24&#45;&gt;Node22 -->
<g id="edge32_Node000024_Node000022" class="edge">
<title>Node24&#45;&gt;Node22</title>
<g id="a_edge32_Node000024_Node000022"><a xlink:title=" ">
<path fill="none" stroke="#63b8ff" d="M1053.8,-65.95C1069.84,-56.87 1090.93,-44.93 1108.46,-35"/>
<polygon fill="#63b8ff" stroke="#63b8ff" points="1110.28,-37.99 1117.26,-30.01 1106.83,-31.9 1110.28,-37.99"/>
</a>
</g>
</g>
<!-- Node26 -->
<g id="Node000026" class="node">
<title>Node26</title>
<g id="a_Node000026"><a xlink:title=" ">
<polygon fill="#e0e0e0" stroke="#999999" points="2317,-30 2187,-30 2187,0 2317,0 2317,-30"/>
<text text-anchor="start" x="2195" y="-18" font-family="Helvetica,sans-Serif" font-size="10.00">deal.II/base/conditional</text>
<text text-anchor="middle" x="2252" y="-7" font-family="Helvetica,sans-Serif" font-size="10.00">_ostream.h</text>
</a>
</g>
</g>
<!-- Node25&#45;&gt;Node26 -->
<g id="edge35_Node000025_Node000026" class="edge">
<title>Node25&#45;&gt;Node26</title>
<g id="a_edge35_Node000025_Node000026"><a xlink:title=" ">
<path fill="none" stroke="#63b8ff" d="M2252,-65.8C2252,-58.34 2252,-48.99 2252,-40.41"/>
<polygon fill="#63b8ff" stroke="#63b8ff" points="2255.5,-40.16 2252,-30.16 2248.5,-40.16 2255.5,-40.16"/>
</a>
</g>
</g>
<!-- Node29 -->
<g id="Node000029" class="node">
<title>Node29</title>
<g id="a_Node000029"><a xlink:title=" ">
<polygon fill="#e0e0e0" stroke="#999999" points="2402.5,-90.5 2349.5,-90.5 2349.5,-71.5 2402.5,-71.5 2402.5,-90.5"/>
<text text-anchor="middle" x="2376" y="-78.5" font-family="Helvetica,sans-Serif" font-size="10.00">iterator</text>
</a>
</g>
</g>
<!-- Node28&#45;&gt;Node29 -->
<g id="edge40_Node000028_Node000029" class="edge">
<title>Node28&#45;&gt;Node29</title>
<g id="a_edge40_Node000028_Node000029"><a xlink:title=" ">
<path fill="none" stroke="#63b8ff" d="M2376,-131.8C2376,-122.7 2376,-110.79 2376,-100.9"/>
<polygon fill="#63b8ff" stroke="#63b8ff" points="2379.5,-100.84 2376,-90.84 2372.5,-100.84 2379.5,-100.84"/>
</a>
</g>
</g>
</g>
</svg>

<g id="navigator" transform="translate(0 0)" fill="#404254">
  <rect fill="#f2f5e9" fill-opacity="0.5" stroke="#606060" stroke-width=".5" x="0" y="0" width="60" height="60"/>
  <use id="zoomplus" xlink:href="#zoomPlus" x="17" y="9" onmousedown="handleZoom(evt,'in')"/>
  <use id="zoomminus" xlink:href="#zoomMin" x="42" y="9" onmousedown="handleZoom(evt,'out')"/>
  <use id="reset" xlink:href="#resetDef" x="30" y="36" onmousedown="handleReset()"/>
   <use id="arrowup" xlink:href="#arrowUp" x="0" y="0" onmousedown="handlePan(0,-1)"/>
  <use id="arrowright" xlink:href="#arrowRight" x="0" y="0" onmousedown="handlePan(1,0)"/>
  <use id="arrowdown" xlink:href="#arrowDown" x="0" y="0" onmousedown="handlePan(0,1)"/>
  <use id="arrowleft" xlink:href="#arrowLeft" x="0" y="0" onmousedown="handlePan(-1,0)"/>
</g>
<svg viewBox="0 0 15 15" width="100%" height="30px" preserveAspectRatio="xMaxYMin meet">
 <g id="arrow_out" transform="scale(0.3 0.3)">
  <a xlink:href="species__transport_2output__post__processor_8hpp__incl_org.svg" target="_base">
   <rect id="button" ry="5" rx="5" y="6" x="6" height="38" width="38"
        fill="#f2f5e9" fill-opacity="0.5" stroke="#606060" stroke-width="1.0"/>
   <path id="arrow"
     d="M 11.500037,31.436501 C 11.940474,20.09759 22.043105,11.32322 32.158766,21.979434 L 37.068811,17.246167 C 37.068811,17.246167 37.088388,32 37.088388,32 L 22.160133,31.978069 C 22.160133,31.978069 26.997745,27.140456 26.997745,27.140456 C 18.528582,18.264221 13.291696,25.230495 11.500037,31.436501 z"
     style="fill:#404040;"/>
  </a>
 </g>
</svg>

<style type='text/css'>
<![CDATA[
[data-mouse-over-selected='false'] { opacity: 0.7; }
[data-mouse-over-selected='true']  { opacity: 1.0; }
]]>
</style>
<script type="application/ecmascript"><![CDATA[
document.addEventListener('DOMContentLoaded', (event) => {
  highlightEdges();
  highlightAdjacentNodes();
});
]]></script>
</svg>
