<?xml version="1.0" encoding="UTF-8" standalone="no"?>
<!DOCTYPE svg PUBLIC "-//W3C//DTD SVG 1.1//EN"
 "http://www.w3.org/Graphics/SVG/1.1/DTD/svg11.dtd">
<!-- Generated by graphviz version 2.43.0 (0)
 -->
<!-- Title: include/meltpooldg/compressible_flow/state_views_multi_species.hpp Pages: 1 -->
<svg width="1945pt" height="401pt"
 viewBox="0.00 0.00 1945.00 401.00" xmlns="http://www.w3.org/2000/svg" xmlns:xlink="http://www.w3.org/1999/xlink">
<g id="graph0" class="graph" transform="scale(1 1) rotate(0) translate(4 397)">
<title>include/meltpooldg/compressible_flow/state_views_multi_species.hpp</title>
<!-- Node1 -->
<g id="Node000001" class="node">
<title>Node1</title>
<g id="a_Node000001"><a xlink:title=" ">
<polygon fill="#999999" stroke="#666666" points="662.5,-393 518.5,-393 518.5,-352 662.5,-352 662.5,-393"/>
<text text-anchor="start" x="526.5" y="-381" font-family="Helvetica,sans-Serif" font-size="10.00">include/meltpooldg</text>
<text text-anchor="start" x="526.5" y="-370" font-family="Helvetica,sans-Serif" font-size="10.00">/compressible_flow/state</text>
<text text-anchor="middle" x="590.5" y="-359" font-family="Helvetica,sans-Serif" font-size="10.00">_views_multi_species.hpp</text>
</a>
</g>
</g>
<!-- Node2 -->
<g id="Node000002" class="node">
<title>Node2</title>
<g id="a_Node000002"><a xlink:title=" ">
<polygon fill="#e0e0e0" stroke="#999999" points="115,-90.5 0,-90.5 0,-71.5 115,-71.5 115,-90.5"/>
<text text-anchor="middle" x="57.5" y="-78.5" font-family="Helvetica,sans-Serif" font-size="10.00">deal.II/base/tensor.h</text>
</a>
</g>
</g>
<!-- Node1&#45;&gt;Node2 -->
<g id="edge1_Node000001_Node000002" class="edge">
<title>Node1&#45;&gt;Node2</title>
<g id="a_edge1_Node000001_Node000002"><a xlink:title=" ">
<path fill="none" stroke="#63b8ff" d="M518.32,-365.52C428.83,-357.21 282.14,-340.38 233.5,-316 152.3,-275.3 135.52,-250.09 87.5,-173 73.24,-150.1 65.01,-119.7 60.89,-100.48"/>
<polygon fill="#63b8ff" stroke="#63b8ff" points="64.31,-99.73 58.92,-90.61 57.44,-101.1 64.31,-99.73"/>
</a>
</g>
</g>
<!-- Node3 -->
<g id="Node000003" class="node">
<title>Node3</title>
<g id="a_Node000003"><a xlink:title=" ">
<polygon fill="#e0e0e0" stroke="#999999" points="282,-90.5 133,-90.5 133,-71.5 282,-71.5 282,-90.5"/>
<text text-anchor="middle" x="207.5" y="-78.5" font-family="Helvetica,sans-Serif" font-size="10.00">deal.II/base/vectorization.h</text>
</a>
</g>
</g>
<!-- Node1&#45;&gt;Node3 -->
<g id="edge2_Node000001_Node000003" class="edge">
<title>Node1&#45;&gt;Node3</title>
<g id="a_edge2_Node000001_Node000003"><a xlink:title=" ">
<path fill="none" stroke="#63b8ff" d="M518.3,-367.64C455.72,-362.12 363.93,-348.68 290.5,-316 215.73,-282.72 189.61,-253.43 174.5,-173 171.13,-155.09 169.26,-149.45 174.5,-132 178.17,-119.77 185.91,-107.77 192.97,-98.6"/>
<polygon fill="#63b8ff" stroke="#63b8ff" points="195.77,-100.71 199.38,-90.75 190.34,-96.28 195.77,-100.71"/>
</a>
</g>
</g>
<!-- Node4 -->
<g id="Node000004" class="node">
<title>Node4</title>
<g id="a_Node000004"><a xlink:href="data__types_8hpp.html" target="_top" xlink:title=" ">
<polygon fill="white" stroke="#666666" points="431.5,-244.5 291.5,-244.5 291.5,-214.5 431.5,-214.5 431.5,-244.5"/>
<text text-anchor="start" x="299.5" y="-232.5" font-family="Helvetica,sans-Serif" font-size="10.00">meltpooldg/compressible</text>
<text text-anchor="middle" x="361.5" y="-221.5" font-family="Helvetica,sans-Serif" font-size="10.00">_flow/data_types.hpp</text>
</a>
</g>
</g>
<!-- Node1&#45;&gt;Node4 -->
<g id="edge3_Node000001_Node000004" class="edge">
<title>Node1&#45;&gt;Node4</title>
<g id="a_edge3_Node000001_Node000004"><a xlink:title=" ">
<path fill="none" stroke="#63b8ff" d="M566,-351.92C542.68,-333.74 506.24,-306.47 472.5,-286 450.04,-272.37 423.78,-259.13 402.45,-249"/>
<polygon fill="#63b8ff" stroke="#63b8ff" points="403.87,-245.8 393.33,-244.72 400.9,-252.14 403.87,-245.8"/>
</a>
</g>
</g>
<!-- Node10 -->
<g id="Node000010" class="node">
<title>Node10</title>
<g id="a_Node000010"><a xlink:href="equation__of__state_8hpp.html" target="_top" xlink:title=" ">
<polygon fill="white" stroke="#666666" points="667.5,-244.5 513.5,-244.5 513.5,-214.5 667.5,-214.5 667.5,-244.5"/>
<text text-anchor="start" x="521.5" y="-232.5" font-family="Helvetica,sans-Serif" font-size="10.00">meltpooldg/compressible</text>
<text text-anchor="middle" x="590.5" y="-221.5" font-family="Helvetica,sans-Serif" font-size="10.00">_flow/equation_of_state.hpp</text>
</a>
</g>
</g>
<!-- Node1&#45;&gt;Node10 -->
<g id="edge14_Node000001_Node000010" class="edge">
<title>Node1&#45;&gt;Node10</title>
<g id="a_edge14_Node000001_Node000010"><a xlink:title=" ">
<path fill="none" stroke="#63b8ff" d="M590.5,-351.89C590.5,-326.62 590.5,-282.67 590.5,-255.15"/>
<polygon fill="#63b8ff" stroke="#63b8ff" points="594,-254.81 590.5,-244.81 587,-254.81 594,-254.81"/>
</a>
</g>
</g>
<!-- Node13 -->
<g id="Node000013" class="node">
<title>Node13</title>
<g id="a_Node000013"><a xlink:href="compressible__flow_2material_8hpp.html" target="_top" xlink:title=" ">
<polygon fill="white" stroke="#666666" points="1455.5,-167.5 1315.5,-167.5 1315.5,-137.5 1455.5,-137.5 1455.5,-167.5"/>
<text text-anchor="start" x="1323.5" y="-155.5" font-family="Helvetica,sans-Serif" font-size="10.00">meltpooldg/compressible</text>
<text text-anchor="middle" x="1385.5" y="-144.5" font-family="Helvetica,sans-Serif" font-size="10.00">_flow/material.hpp</text>
</a>
</g>
</g>
<!-- Node1&#45;&gt;Node13 -->
<g id="edge36_Node000001_Node000013" class="edge">
<title>Node1&#45;&gt;Node13</title>
<g id="a_edge36_Node000001_Node000013"><a xlink:title=" ">
<path fill="none" stroke="#63b8ff" d="M662.81,-368.79C829.63,-361.13 1234.98,-334.13 1337.5,-250 1360.12,-231.43 1373.02,-199.53 1379.63,-177.52"/>
<polygon fill="#63b8ff" stroke="#63b8ff" points="1383.08,-178.18 1382.39,-167.61 1376.33,-176.31 1383.08,-178.18"/>
</a>
</g>
</g>
<!-- Node26 -->
<g id="Node000026" class="node">
<title>Node26</title>
<g id="a_Node000026"><a xlink:href="material__views__mixins_8hpp.html" target="_top" xlink:title=" ">
<polygon fill="white" stroke="#666666" points="1328,-244.5 1149,-244.5 1149,-214.5 1328,-214.5 1328,-244.5"/>
<text text-anchor="start" x="1157" y="-232.5" font-family="Helvetica,sans-Serif" font-size="10.00">meltpooldg/compressible</text>
<text text-anchor="middle" x="1238.5" y="-221.5" font-family="Helvetica,sans-Serif" font-size="10.00">_flow/material_views_mixins.hpp</text>
</a>
</g>
</g>
<!-- Node1&#45;&gt;Node26 -->
<g id="edge37_Node000001_Node000026" class="edge">
<title>Node1&#45;&gt;Node26</title>
<g id="a_edge37_Node000001_Node000026"><a xlink:title=" ">
<path fill="none" stroke="#63b8ff" d="M662.86,-368.84C752.61,-364.11 909.67,-351.15 1039.5,-316 1099.06,-299.88 1164.03,-269.29 1203,-249.41"/>
<polygon fill="#63b8ff" stroke="#63b8ff" points="1205.04,-252.3 1212.33,-244.6 1201.84,-246.07 1205.04,-252.3"/>
</a>
</g>
</g>
<!-- Node27 -->
<g id="Node000027" class="node">
<title>Node27</title>
<g id="a_Node000027"><a xlink:href="effective__material__mixin_8hpp.html" target="_top" xlink:title=" ">
<polygon fill="white" stroke="#666666" points="1297,-173 1180,-173 1180,-132 1297,-132 1297,-173"/>
<text text-anchor="start" x="1188" y="-161" font-family="Helvetica,sans-Serif" font-size="10.00">meltpooldg/species</text>
<text text-anchor="start" x="1188" y="-150" font-family="Helvetica,sans-Serif" font-size="10.00">_transport/effective</text>
<text text-anchor="middle" x="1238.5" y="-139" font-family="Helvetica,sans-Serif" font-size="10.00">_material_mixin.hpp</text>
</a>
</g>
</g>
<!-- Node1&#45;&gt;Node27 -->
<g id="edge51_Node000001_Node000027" class="edge">
<title>Node1&#45;&gt;Node27</title>
<g id="a_edge51_Node000001_Node000027"><a xlink:title=" ">
<path fill="none" stroke="#63b8ff" d="M650.5,-351.96C723.4,-328.15 850.12,-286.56 958.5,-250 1032.07,-225.18 1116.28,-196.06 1172.97,-176.35"/>
<polygon fill="#63b8ff" stroke="#63b8ff" points="1174.23,-179.62 1182.53,-173.03 1171.93,-173.01 1174.23,-179.62"/>
</a>
</g>
</g>
<!-- Node29 -->
<g id="Node000029" class="node">
<title>Node29</title>
<g id="a_Node000029"><a xlink:href="compressible__flow_2state__views__mixins_8hpp.html" target="_top" xlink:title=" ">
<polygon fill="white" stroke="#666666" points="463,-316 300,-316 300,-286 463,-286 463,-316"/>
<text text-anchor="start" x="308" y="-304" font-family="Helvetica,sans-Serif" font-size="10.00">meltpooldg/compressible</text>
<text text-anchor="middle" x="381.5" y="-293" font-family="Helvetica,sans-Serif" font-size="10.00">_flow/state_views_mixins.hpp</text>
</a>
</g>
</g>
<!-- Node1&#45;&gt;Node29 -->
<g id="edge45_Node000001_Node000029" class="edge">
<title>Node1&#45;&gt;Node29</title>
<g id="a_edge45_Node000001_Node000029"><a xlink:title=" ">
<path fill="none" stroke="#63b8ff" d="M531.73,-351.96C500.81,-341.68 463.24,-329.18 433.41,-319.26"/>
<polygon fill="#63b8ff" stroke="#63b8ff" points="434.21,-315.84 423.61,-316 432,-322.48 434.21,-315.84"/>
</a>
</g>
</g>
<!-- Node31 -->
<g id="Node000031" class="node">
<title>Node31</title>
<g id="a_Node000031"><a xlink:href="species__transport_2state__views__mixins_8hpp.html" target="_top" xlink:title=" ">
<polygon fill="white" stroke="#666666" points="949.5,-250 821.5,-250 821.5,-209 949.5,-209 949.5,-250"/>
<text text-anchor="start" x="829.5" y="-238" font-family="Helvetica,sans-Serif" font-size="10.00">meltpooldg/species</text>
<text text-anchor="start" x="829.5" y="-227" font-family="Helvetica,sans-Serif" font-size="10.00">_transport/state_views</text>
<text text-anchor="middle" x="885.5" y="-216" font-family="Helvetica,sans-Serif" font-size="10.00">_mixins.hpp</text>
</a>
</g>
</g>
<!-- Node1&#45;&gt;Node31 -->
<g id="edge52_Node000001_Node000031" class="edge">
<title>Node1&#45;&gt;Node31</title>
<g id="a_edge52_Node000001_Node000031"><a xlink:title=" ">
<path fill="none" stroke="#63b8ff" d="M631.52,-351.89C684.76,-326.45 777.62,-282.06 835.1,-254.59"/>
<polygon fill="#63b8ff" stroke="#63b8ff" points="836.84,-257.64 844.36,-250.17 833.82,-251.32 836.84,-257.64"/>
</a>
</g>
</g>
<!-- Node4&#45;&gt;Node2 -->
<g id="edge4_Node000004_Node000002" class="edge">
<title>Node4&#45;&gt;Node2</title>
<g id="a_edge4_Node000004_Node000002"><a xlink:title=" ">
<path fill="none" stroke="#63b8ff" d="M298.67,-214.43C263.43,-205.22 219.29,-191.45 182.5,-173 140.62,-151.99 97.73,-117.32 74.69,-97.39"/>
<polygon fill="#63b8ff" stroke="#63b8ff" points="76.96,-94.73 67.13,-90.77 72.34,-99.99 76.96,-94.73"/>
</a>
</g>
</g>
<!-- Node4&#45;&gt;Node3 -->
<g id="edge5_Node000004_Node000003" class="edge">
<title>Node4&#45;&gt;Node3</title>
<g id="a_edge5_Node000004_Node000003"><a xlink:title=" ">
<path fill="none" stroke="#63b8ff" d="M291.36,-224.07C255.93,-217.86 215.81,-203.87 193.5,-173 177.95,-151.49 188.46,-119.6 197.77,-99.84"/>
<polygon fill="#63b8ff" stroke="#63b8ff" points="200.99,-101.24 202.38,-90.74 194.74,-98.07 200.99,-101.24"/>
</a>
</g>
</g>
<!-- Node5 -->
<g id="Node000005" class="node">
<title>Node5</title>
<g id="a_Node000005"><a xlink:href="concepts_8hpp.html" target="_top" xlink:title=" ">
<polygon fill="white" stroke="#666666" points="515.5,-167.5 403.5,-167.5 403.5,-137.5 515.5,-137.5 515.5,-167.5"/>
<text text-anchor="start" x="411.5" y="-155.5" font-family="Helvetica,sans-Serif" font-size="10.00">meltpooldg/utilities</text>
<text text-anchor="middle" x="459.5" y="-144.5" font-family="Helvetica,sans-Serif" font-size="10.00">/concepts.hpp</text>
</a>
</g>
</g>
<!-- Node4&#45;&gt;Node5 -->
<g id="edge6_Node000004_Node000005" class="edge">
<title>Node4&#45;&gt;Node5</title>
<g id="a_edge6_Node000004_Node000005"><a xlink:title=" ">
<path fill="none" stroke="#63b8ff" d="M379.93,-214.39C394.85,-202.97 416.07,-186.74 432.84,-173.9"/>
<polygon fill="#63b8ff" stroke="#63b8ff" points="435.34,-176.4 441.15,-167.54 431.08,-170.84 435.34,-176.4"/>
</a>
</g>
</g>
<!-- Node7 -->
<g id="Node000007" class="node">
<title>Node7</title>
<g id="a_Node000007"><a xlink:href="dealii__tensor_8hpp.html" target="_top" xlink:title=" ">
<polygon fill="white" stroke="#666666" points="347.5,-167.5 235.5,-167.5 235.5,-137.5 347.5,-137.5 347.5,-167.5"/>
<text text-anchor="start" x="243.5" y="-155.5" font-family="Helvetica,sans-Serif" font-size="10.00">meltpooldg/utilities</text>
<text text-anchor="middle" x="291.5" y="-144.5" font-family="Helvetica,sans-Serif" font-size="10.00">/dealii_tensor.hpp</text>
</a>
</g>
</g>
<!-- Node4&#45;&gt;Node7 -->
<g id="edge8_Node000004_Node000007" class="edge">
<title>Node4&#45;&gt;Node7</title>
<g id="a_edge8_Node000004_Node000007"><a xlink:title=" ">
<path fill="none" stroke="#63b8ff" d="M348.33,-214.39C337.97,-203.29 323.35,-187.63 311.54,-174.97"/>
<polygon fill="#63b8ff" stroke="#63b8ff" points="313.99,-172.47 304.61,-167.54 308.87,-177.24 313.99,-172.47"/>
</a>
</g>
</g>
<!-- Node9 -->
<g id="Node000009" class="node">
<title>Node9</title>
<g id="a_Node000009"><a xlink:title=" ">
<polygon fill="#e0e0e0" stroke="#999999" points="428,-90.5 359,-90.5 359,-71.5 428,-71.5 428,-90.5"/>
<text text-anchor="middle" x="393.5" y="-78.5" font-family="Helvetica,sans-Serif" font-size="10.00">type_traits</text>
</a>
</g>
</g>
<!-- Node4&#45;&gt;Node9 -->
<g id="edge13_Node000004_Node000009" class="edge">
<title>Node4&#45;&gt;Node9</title>
<g id="a_edge13_Node000004_Node000009"><a xlink:title=" ">
<path fill="none" stroke="#63b8ff" d="M364.57,-214.45C370.37,-187.91 382.93,-130.38 389.43,-100.64"/>
<polygon fill="#63b8ff" stroke="#63b8ff" points="392.88,-101.24 391.59,-90.73 386.04,-99.75 392.88,-101.24"/>
</a>
</g>
</g>
<!-- Node6 -->
<g id="Node000006" class="node">
<title>Node6</title>
<g id="a_Node000006"><a xlink:title=" ">
<polygon fill="#e0e0e0" stroke="#999999" points="840.5,-90.5 780.5,-90.5 780.5,-71.5 840.5,-71.5 840.5,-90.5"/>
<text text-anchor="middle" x="810.5" y="-78.5" font-family="Helvetica,sans-Serif" font-size="10.00">concepts</text>
</a>
</g>
</g>
<!-- Node5&#45;&gt;Node6 -->
<g id="edge7_Node000005_Node000006" class="edge">
<title>Node5&#45;&gt;Node6</title>
<g id="a_edge7_Node000005_Node000006"><a xlink:title=" ">
<path fill="none" stroke="#63b8ff" d="M503.72,-137.47C510.64,-135.5 517.74,-133.6 524.5,-132 611.13,-111.51 714.36,-95.49 770.05,-87.53"/>
<polygon fill="#63b8ff" stroke="#63b8ff" points="770.79,-90.96 780.2,-86.09 769.81,-84.03 770.79,-90.96"/>
</a>
</g>
</g>
<!-- Node7&#45;&gt;Node2 -->
<g id="edge9_Node000007_Node000002" class="edge">
<title>Node7&#45;&gt;Node2</title>
<g id="a_edge9_Node000007_Node000002"><a xlink:title=" ">
<path fill="none" stroke="#63b8ff" d="M244.15,-137.44C200.56,-124.49 136.71,-105.53 96.14,-93.47"/>
<polygon fill="#63b8ff" stroke="#63b8ff" points="96.93,-90.06 86.35,-90.57 94.94,-96.77 96.93,-90.06"/>
</a>
</g>
</g>
<!-- Node7&#45;&gt;Node3 -->
<g id="edge10_Node000007_Node000003" class="edge">
<title>Node7&#45;&gt;Node3</title>
<g id="a_edge10_Node000007_Node000003"><a xlink:title=" ">
<path fill="none" stroke="#63b8ff" d="M274.5,-137.44C260.4,-125.76 240.37,-109.2 225.89,-97.22"/>
<polygon fill="#63b8ff" stroke="#63b8ff" points="228.03,-94.45 218.1,-90.77 223.57,-99.84 228.03,-94.45"/>
</a>
</g>
</g>
<!-- Node8 -->
<g id="Node000008" class="node">
<title>Node8</title>
<g id="a_Node000008"><a xlink:title=" ">
<polygon fill="#e0e0e0" stroke="#999999" points="692,-90.5 639,-90.5 639,-71.5 692,-71.5 692,-90.5"/>
<text text-anchor="middle" x="665.5" y="-78.5" font-family="Helvetica,sans-Serif" font-size="10.00">cstddef</text>
</a>
</g>
</g>
<!-- Node7&#45;&gt;Node8 -->
<g id="edge11_Node000007_Node000008" class="edge">
<title>Node7&#45;&gt;Node8</title>
<g id="a_edge11_Node000007_Node000008"><a xlink:title=" ">
<path fill="none" stroke="#63b8ff" d="M347.62,-140.83C362.83,-137.95 379.29,-134.84 394.5,-132 478.31,-116.33 576.77,-98.25 628.86,-88.7"/>
<polygon fill="#63b8ff" stroke="#63b8ff" points="629.74,-92.1 638.95,-86.86 628.48,-85.22 629.74,-92.1"/>
</a>
</g>
</g>
<!-- Node7&#45;&gt;Node9 -->
<g id="edge12_Node000007_Node000009" class="edge">
<title>Node7&#45;&gt;Node9</title>
<g id="a_edge12_Node000007_Node000009"><a xlink:title=" ">
<path fill="none" stroke="#63b8ff" d="M312.14,-137.44C329.69,-125.48 354.78,-108.38 372.44,-96.35"/>
<polygon fill="#63b8ff" stroke="#63b8ff" points="374.63,-99.09 380.93,-90.57 370.69,-93.31 374.63,-99.09"/>
</a>
</g>
</g>
<!-- Node10&#45;&gt;Node2 -->
<g id="edge17_Node000010_Node000002" class="edge">
<title>Node10&#45;&gt;Node2</title>
<g id="a_edge17_Node000010_Node000002"><a xlink:title=" ">
<path fill="none" stroke="#63b8ff" d="M513.22,-218.49C404.62,-204.26 218.45,-179.23 204.5,-173 178.57,-161.43 179.19,-147.66 155.5,-132 133.46,-117.42 106.61,-104 86.6,-94.74"/>
<polygon fill="#63b8ff" stroke="#63b8ff" points="87.93,-91.49 77.37,-90.54 85.03,-97.87 87.93,-91.49"/>
</a>
</g>
</g>
<!-- Node10&#45;&gt;Node3 -->
<g id="edge18_Node000010_Node000003" class="edge">
<title>Node10&#45;&gt;Node3</title>
<g id="a_edge18_Node000010_Node000003"><a xlink:title=" ">
<path fill="none" stroke="#63b8ff" d="M513.37,-217.85C408.08,-203.16 231.7,-177.92 226.5,-173 206.92,-154.46 204.81,-121.36 205.7,-100.61"/>
<polygon fill="#63b8ff" stroke="#63b8ff" points="209.2,-100.74 206.41,-90.51 202.21,-100.24 209.2,-100.74"/>
</a>
</g>
</g>
<!-- Node10&#45;&gt;Node5 -->
<g id="edge32_Node000010_Node000005" class="edge">
<title>Node10&#45;&gt;Node5</title>
<g id="a_edge32_Node000010_Node000005"><a xlink:title=" ">
<path fill="none" stroke="#63b8ff" d="M565.86,-214.39C545.28,-202.61 515.73,-185.69 493,-172.68"/>
<polygon fill="#63b8ff" stroke="#63b8ff" points="494.45,-169.47 484.03,-167.54 490.97,-175.55 494.45,-169.47"/>
</a>
</g>
</g>
<!-- Node10&#45;&gt;Node7 -->
<g id="edge33_Node000010_Node000007" class="edge">
<title>Node10&#45;&gt;Node7</title>
<g id="a_edge33_Node000010_Node000007"><a xlink:title=" ">
<path fill="none" stroke="#63b8ff" d="M534.61,-214.48C484.35,-201.87 410.48,-183.34 357.37,-170.02"/>
<polygon fill="#63b8ff" stroke="#63b8ff" points="357.92,-166.55 347.37,-167.51 356.22,-173.34 357.92,-166.55"/>
</a>
</g>
</g>
<!-- Node11 -->
<g id="Node000011" class="node">
<title>Node11</title>
<g id="a_Node000011"><a xlink:title=" ">
<polygon fill="#e0e0e0" stroke="#999999" points="647.5,-162 533.5,-162 533.5,-143 647.5,-143 647.5,-162"/>
<text text-anchor="middle" x="590.5" y="-150" font-family="Helvetica,sans-Serif" font-size="10.00">deal.II/base/config.h</text>
</a>
</g>
</g>
<!-- Node10&#45;&gt;Node11 -->
<g id="edge15_Node000010_Node000011" class="edge">
<title>Node10&#45;&gt;Node11</title>
<g id="a_edge15_Node000010_Node000011"><a xlink:title=" ">
<path fill="none" stroke="#63b8ff" d="M590.5,-214.39C590.5,-202.58 590.5,-185.6 590.5,-172.58"/>
<polygon fill="#63b8ff" stroke="#63b8ff" points="594,-172.37 590.5,-162.37 587,-172.37 594,-172.37"/>
</a>
</g>
</g>
<!-- Node12 -->
<g id="Node000012" class="node">
<title>Node12</title>
<g id="a_Node000012"><a xlink:title=" ">
<polygon fill="#e0e0e0" stroke="#999999" points="907.5,-162 769.5,-162 769.5,-143 907.5,-143 907.5,-162"/>
<text text-anchor="middle" x="838.5" y="-150" font-family="Helvetica,sans-Serif" font-size="10.00">deal.II/base/exceptions.h</text>
</a>
</g>
</g>
<!-- Node10&#45;&gt;Node12 -->
<g id="edge16_Node000010_Node000012" class="edge">
<title>Node10&#45;&gt;Node12</title>
<g id="a_edge16_Node000010_Node000012"><a xlink:title=" ">
<path fill="none" stroke="#63b8ff" d="M636.86,-214.48C684.07,-200.2 756.41,-178.33 800.4,-165.02"/>
<polygon fill="#63b8ff" stroke="#63b8ff" points="801.58,-168.32 810.14,-162.08 799.55,-161.62 801.58,-168.32"/>
</a>
</g>
</g>
<!-- Node10&#45;&gt;Node13 -->
<g id="edge19_Node000010_Node000013" class="edge">
<title>Node10&#45;&gt;Node13</title>
<g id="a_edge19_Node000010_Node000013"><a xlink:title=" ">
<path fill="none" stroke="#63b8ff" d="M667.53,-221.45C710.23,-217.61 764.29,-212.87 812.5,-209 1031.93,-191.37 1089.08,-207.5 1306.5,-173 1312.22,-172.09 1318.13,-170.98 1324.03,-169.74"/>
<polygon fill="#63b8ff" stroke="#63b8ff" points="1324.9,-173.13 1333.91,-167.56 1323.39,-166.3 1324.9,-173.13"/>
</a>
</g>
</g>
<!-- Node24 -->
<g id="Node000024" class="node">
<title>Node24</title>
<g id="a_Node000024"><a xlink:title=" ">
<polygon fill="#e0e0e0" stroke="#999999" points="713,-162 666,-162 666,-143 713,-143 713,-162"/>
<text text-anchor="middle" x="689.5" y="-150" font-family="Helvetica,sans-Serif" font-size="10.00">cmath</text>
</a>
</g>
</g>
<!-- Node10&#45;&gt;Node24 -->
<g id="edge34_Node000010_Node000024" class="edge">
<title>Node10&#45;&gt;Node24</title>
<g id="a_edge34_Node000010_Node000024"><a xlink:title=" ">
<path fill="none" stroke="#63b8ff" d="M609.12,-214.39C626.39,-201.31 652,-181.91 669.65,-168.54"/>
<polygon fill="#63b8ff" stroke="#63b8ff" points="672.21,-170.99 678.07,-162.16 667.98,-165.41 672.21,-170.99"/>
</a>
</g>
</g>
<!-- Node25 -->
<g id="Node000025" class="node">
<title>Node25</title>
<g id="a_Node000025"><a xlink:title=" ">
<polygon fill="#e0e0e0" stroke="#999999" points="939,-90.5 894,-90.5 894,-71.5 939,-71.5 939,-90.5"/>
<text text-anchor="middle" x="916.5" y="-78.5" font-family="Helvetica,sans-Serif" font-size="10.00">utility</text>
</a>
</g>
</g>
<!-- Node10&#45;&gt;Node25 -->
<g id="edge35_Node000010_Node000025" class="edge">
<title>Node10&#45;&gt;Node25</title>
<g id="a_edge35_Node000010_Node000025"><a xlink:title=" ">
<path fill="none" stroke="#63b8ff" d="M636.95,-214.44C663.43,-205.12 696.43,-191.25 722.5,-173 742.85,-158.75 739.54,-145.34 760.5,-132 781.15,-118.86 844.55,-100.79 883.88,-90.35"/>
<polygon fill="#63b8ff" stroke="#63b8ff" points="885.02,-93.67 893.8,-87.75 883.24,-86.9 885.02,-93.67"/>
</a>
</g>
</g>
<!-- Node13&#45;&gt;Node8 -->
<g id="edge29_Node000013_Node000008" class="edge">
<title>Node13&#45;&gt;Node8</title>
<g id="a_edge29_Node000013_Node000008"><a xlink:title=" ">
<path fill="none" stroke="#63b8ff" d="M1334.34,-137.49C1325.13,-135.37 1315.57,-133.41 1306.5,-132 1071.03,-95.3 1008.64,-119.61 771.5,-96 748.38,-93.7 722.52,-90.3 702.14,-87.43"/>
<polygon fill="#63b8ff" stroke="#63b8ff" points="702.41,-83.93 692.02,-85.98 701.42,-90.86 702.41,-83.93"/>
</a>
</g>
</g>
<!-- Node14 -->
<g id="Node000014" class="node">
<title>Node14</title>
<g id="a_Node000014"><a xlink:title=" ">
<polygon fill="#e0e0e0" stroke="#999999" points="1383,-30 1256,-30 1256,0 1383,0 1383,-30"/>
<text text-anchor="start" x="1264" y="-18" font-family="Helvetica,sans-Serif" font-size="10.00">deal.II/base/parameter</text>
<text text-anchor="middle" x="1319.5" y="-7" font-family="Helvetica,sans-Serif" font-size="10.00">_handler.h</text>
</a>
</g>
</g>
<!-- Node13&#45;&gt;Node14 -->
<g id="edge20_Node000013_Node000014" class="edge">
<title>Node13&#45;&gt;Node14</title>
<g id="a_edge20_Node000013_Node000014"><a xlink:title=" ">
<path fill="none" stroke="#63b8ff" d="M1391.68,-137.24C1398.39,-119.45 1406.61,-88.63 1394.5,-66 1387.61,-53.12 1375.77,-42.99 1363.51,-35.31"/>
<polygon fill="#63b8ff" stroke="#63b8ff" points="1364.98,-32.12 1354.57,-30.15 1361.48,-38.18 1364.98,-32.12"/>
</a>
</g>
</g>
<!-- Node15 -->
<g id="Node000015" class="node">
<title>Node15</title>
<g id="a_Node000015"><a xlink:href="enum_8hpp.html" target="_top" xlink:title=" ">
<polygon fill="white" stroke="#666666" points="1553.5,-96 1441.5,-96 1441.5,-66 1553.5,-66 1553.5,-96"/>
<text text-anchor="start" x="1449.5" y="-84" font-family="Helvetica,sans-Serif" font-size="10.00">meltpooldg/utilities</text>
<text text-anchor="middle" x="1497.5" y="-73" font-family="Helvetica,sans-Serif" font-size="10.00">/enum.hpp</text>
</a>
</g>
</g>
<!-- Node13&#45;&gt;Node15 -->
<g id="edge21_Node000013_Node000015" class="edge">
<title>Node13&#45;&gt;Node15</title>
<g id="a_edge21_Node000013_Node000015"><a xlink:title=" ">
<path fill="none" stroke="#63b8ff" d="M1408.16,-137.44C1424.86,-127.07 1447.78,-112.85 1466.22,-101.41"/>
<polygon fill="#63b8ff" stroke="#63b8ff" points="1468.22,-104.29 1474.87,-96.04 1464.53,-98.34 1468.22,-104.29"/>
</a>
</g>
</g>
<!-- Node21 -->
<g id="Node000021" class="node">
<title>Node21</title>
<g id="a_Node000021"><a xlink:title=" ">
<polygon fill="#e0e0e0" stroke="#999999" points="1613.5,-90.5 1571.5,-90.5 1571.5,-71.5 1613.5,-71.5 1613.5,-90.5"/>
<text text-anchor="middle" x="1592.5" y="-78.5" font-family="Helvetica,sans-Serif" font-size="10.00">array</text>
</a>
</g>
</g>
<!-- Node13&#45;&gt;Node21 -->
<g id="edge28_Node000013_Node000021" class="edge">
<title>Node13&#45;&gt;Node21</title>
<g id="a_edge28_Node000013_Node000021"><a xlink:title=" ">
<path fill="none" stroke="#63b8ff" d="M1436.47,-137.47C1472.17,-127.17 1520.77,-112.2 1562.5,-96 1563.54,-95.59 1564.6,-95.17 1565.67,-94.73"/>
<polygon fill="#63b8ff" stroke="#63b8ff" points="1567.47,-97.76 1575.22,-90.54 1564.66,-91.35 1567.47,-97.76"/>
</a>
</g>
</g>
<!-- Node22 -->
<g id="Node000022" class="node">
<title>Node22</title>
<g id="a_Node000022"><a xlink:title=" ">
<polygon fill="#e0e0e0" stroke="#999999" points="1309.5,-90.5 1265.5,-90.5 1265.5,-71.5 1309.5,-71.5 1309.5,-90.5"/>
<text text-anchor="middle" x="1287.5" y="-78.5" font-family="Helvetica,sans-Serif" font-size="10.00">limits</text>
</a>
</g>
</g>
<!-- Node13&#45;&gt;Node22 -->
<g id="edge30_Node000013_Node000022" class="edge">
<title>Node13&#45;&gt;Node22</title>
<g id="a_edge30_Node000013_Node000022"><a xlink:title=" ">
<path fill="none" stroke="#63b8ff" d="M1365.67,-137.44C1348.96,-125.59 1325.15,-108.7 1308.2,-96.68"/>
<polygon fill="#63b8ff" stroke="#63b8ff" points="1309.76,-93.5 1299.58,-90.57 1305.71,-99.21 1309.76,-93.5"/>
</a>
</g>
</g>
<!-- Node23 -->
<g id="Node000023" class="node">
<title>Node23</title>
<g id="a_Node000023"><a xlink:title=" ">
<polygon fill="#e0e0e0" stroke="#999999" points="1385.5,-90.5 1327.5,-90.5 1327.5,-71.5 1385.5,-71.5 1385.5,-90.5"/>
<text text-anchor="middle" x="1356.5" y="-78.5" font-family="Helvetica,sans-Serif" font-size="10.00">memory</text>
</a>
</g>
</g>
<!-- Node13&#45;&gt;Node23 -->
<g id="edge31_Node000013_Node000023" class="edge">
<title>Node13&#45;&gt;Node23</title>
<g id="a_edge31_Node000013_Node000023"><a xlink:title=" ">
<path fill="none" stroke="#63b8ff" d="M1379.63,-137.44C1375.17,-126.75 1369,-111.95 1364.15,-100.33"/>
<polygon fill="#63b8ff" stroke="#63b8ff" points="1367.24,-98.65 1360.16,-90.77 1360.78,-101.34 1367.24,-98.65"/>
</a>
</g>
</g>
<!-- Node15&#45;&gt;Node14 -->
<g id="edge22_Node000015_Node000014" class="edge">
<title>Node15&#45;&gt;Node14</title>
<g id="a_edge22_Node000015_Node000014"><a xlink:title=" ">
<path fill="none" stroke="#63b8ff" d="M1458.44,-65.95C1431.89,-56.41 1396.58,-43.71 1368.2,-33.51"/>
<polygon fill="#63b8ff" stroke="#63b8ff" points="1369.07,-30.1 1358.47,-30.01 1366.7,-36.69 1369.07,-30.1"/>
</a>
</g>
</g>
<!-- Node16 -->
<g id="Node000016" class="node">
<title>Node16</title>
<g id="a_Node000016"><a xlink:title=" ">
<polygon fill="#e0e0e0" stroke="#999999" points="1663,-24.5 1538,-24.5 1538,-5.5 1663,-5.5 1663,-24.5"/>
<text text-anchor="middle" x="1600.5" y="-12.5" font-family="Helvetica,sans-Serif" font-size="10.00">deal.II/base/patterns.h</text>
</a>
</g>
</g>
<!-- Node15&#45;&gt;Node16 -->
<g id="edge23_Node000015_Node000016" class="edge">
<title>Node15&#45;&gt;Node16</title>
<g id="a_edge23_Node000015_Node000016"><a xlink:title=" ">
<path fill="none" stroke="#63b8ff" d="M1520.1,-65.95C1537.29,-55.27 1560.83,-40.65 1577.99,-29.98"/>
<polygon fill="#63b8ff" stroke="#63b8ff" points="1580.15,-32.77 1586.79,-24.52 1576.45,-26.82 1580.15,-32.77"/>
</a>
</g>
</g>
<!-- Node17 -->
<g id="Node000017" class="node">
<title>Node17</title>
<g id="a_Node000017"><a xlink:title=" ">
<polygon fill="#e0e0e0" stroke="#999999" points="1793.5,-30 1681.5,-30 1681.5,0 1793.5,0 1793.5,-30"/>
<text text-anchor="start" x="1689.5" y="-18" font-family="Helvetica,sans-Serif" font-size="10.00">meltpooldg/utilities</text>
<text text-anchor="middle" x="1737.5" y="-7" font-family="Helvetica,sans-Serif" font-size="10.00">/better_enum.hpp</text>
</a>
</g>
</g>
<!-- Node15&#45;&gt;Node17 -->
<g id="edge24_Node000015_Node000017" class="edge">
<title>Node15&#45;&gt;Node17</title>
<g id="a_edge24_Node000015_Node000017"><a xlink:title=" ">
<path fill="none" stroke="#63b8ff" d="M1550.17,-65.95C1586.9,-56.16 1636.08,-43.05 1674.83,-32.71"/>
<polygon fill="#63b8ff" stroke="#63b8ff" points="1676.19,-35.97 1684.95,-30.01 1674.39,-29.21 1676.19,-35.97"/>
</a>
</g>
</g>
<!-- Node18 -->
<g id="Node000018" class="node">
<title>Node18</title>
<g id="a_Node000018"><a xlink:title=" ">
<polygon fill="#e0e0e0" stroke="#999999" points="1937,-30 1812,-30 1812,0 1937,0 1937,-30"/>
<text text-anchor="start" x="1820" y="-18" font-family="Helvetica,sans-Serif" font-size="10.00">boost/algorithm/string</text>
<text text-anchor="middle" x="1874.5" y="-7" font-family="Helvetica,sans-Serif" font-size="10.00">/join.hpp</text>
</a>
</g>
</g>
<!-- Node15&#45;&gt;Node18 -->
<g id="edge25_Node000015_Node000018" class="edge">
<title>Node15&#45;&gt;Node18</title>
<g id="a_edge25_Node000015_Node000018"><a xlink:title=" ">
<path fill="none" stroke="#63b8ff" d="M1553.83,-67.64C1556.76,-67.07 1559.66,-66.52 1562.5,-66 1665.5,-47.2 1694.52,-48.22 1801.77,-30.07"/>
<polygon fill="#63b8ff" stroke="#63b8ff" points="1802.43,-33.51 1811.7,-28.38 1801.25,-26.61 1802.43,-33.51"/>
</a>
</g>
</g>
<!-- Node19 -->
<g id="Node000019" class="node">
<title>Node19</title>
<g id="a_Node000019"><a xlink:title=" ">
<polygon fill="#e0e0e0" stroke="#999999" points="1457.5,-24.5 1401.5,-24.5 1401.5,-5.5 1457.5,-5.5 1457.5,-24.5"/>
<text text-anchor="middle" x="1429.5" y="-12.5" font-family="Helvetica,sans-Serif" font-size="10.00">sstream</text>
</a>
</g>
</g>
<!-- Node15&#45;&gt;Node19 -->
<g id="edge26_Node000015_Node000019" class="edge">
<title>Node15&#45;&gt;Node19</title>
<g id="a_edge26_Node000015_Node000019"><a xlink:title=" ">
<path fill="none" stroke="#63b8ff" d="M1482.41,-65.8C1471.7,-55.72 1457.33,-42.19 1446.27,-31.78"/>
<polygon fill="#63b8ff" stroke="#63b8ff" points="1448.58,-29.15 1438.9,-24.84 1443.78,-34.25 1448.58,-29.15"/>
</a>
</g>
</g>
<!-- Node20 -->
<g id="Node000020" class="node">
<title>Node20</title>
<g id="a_Node000020"><a xlink:title=" ">
<polygon fill="#e0e0e0" stroke="#999999" points="1519.5,-24.5 1475.5,-24.5 1475.5,-5.5 1519.5,-5.5 1519.5,-24.5"/>
<text text-anchor="middle" x="1497.5" y="-12.5" font-family="Helvetica,sans-Serif" font-size="10.00">string</text>
</a>
</g>
</g>
<!-- Node15&#45;&gt;Node20 -->
<g id="edge27_Node000015_Node000020" class="edge">
<title>Node15&#45;&gt;Node20</title>
<g id="a_edge27_Node000015_Node000020"><a xlink:title=" ">
<path fill="none" stroke="#63b8ff" d="M1497.5,-65.8C1497.5,-56.7 1497.5,-44.79 1497.5,-34.9"/>
<polygon fill="#63b8ff" stroke="#63b8ff" points="1501,-34.84 1497.5,-24.84 1494,-34.84 1501,-34.84"/>
</a>
</g>
</g>
<!-- Node26&#45;&gt;Node13 -->
<g id="edge38_Node000026_Node000013" class="edge">
<title>Node26&#45;&gt;Node13</title>
<g id="a_edge38_Node000026_Node000013"><a xlink:title=" ">
<path fill="none" stroke="#63b8ff" d="M1266.15,-214.39C1289.56,-202.45 1323.29,-185.24 1348.93,-172.16"/>
<polygon fill="#63b8ff" stroke="#63b8ff" points="1350.66,-175.21 1357.97,-167.54 1347.48,-168.97 1350.66,-175.21"/>
</a>
</g>
</g>
<!-- Node26&#45;&gt;Node27 -->
<g id="edge39_Node000026_Node000027" class="edge">
<title>Node26&#45;&gt;Node27</title>
<g id="a_edge39_Node000026_Node000027"><a xlink:title=" ">
<path fill="none" stroke="#63b8ff" d="M1238.5,-214.39C1238.5,-205.67 1238.5,-194.14 1238.5,-183.46"/>
<polygon fill="#63b8ff" stroke="#63b8ff" points="1242,-183.2 1238.5,-173.2 1235,-183.2 1242,-183.2"/>
</a>
</g>
</g>
<!-- Node27&#45;&gt;Node3 -->
<g id="edge40_Node000027_Node000003" class="edge">
<title>Node27&#45;&gt;Node3</title>
<g id="a_edge40_Node000027_Node000003"><a xlink:title=" ">
<path fill="none" stroke="#63b8ff" d="M1179.72,-133.73C1176.62,-133.08 1173.53,-132.49 1170.5,-132 810.02,-73.25 713.82,-121.93 349.5,-96 330.96,-94.68 311.1,-92.93 292.27,-91.12"/>
<polygon fill="#63b8ff" stroke="#63b8ff" points="292.53,-87.63 282.24,-90.14 291.85,-94.6 292.53,-87.63"/>
</a>
</g>
</g>
<!-- Node27&#45;&gt;Node6 -->
<g id="edge42_Node000027_Node000006" class="edge">
<title>Node27&#45;&gt;Node6</title>
<g id="a_edge42_Node000027_Node000006"><a xlink:title=" ">
<path fill="none" stroke="#63b8ff" d="M1179.67,-134.03C1176.58,-133.3 1173.51,-132.62 1170.5,-132 1045.43,-106.33 1011.64,-115.72 885.5,-96 874.18,-94.23 861.94,-92.06 850.7,-89.96"/>
<polygon fill="#63b8ff" stroke="#63b8ff" points="851.2,-86.49 840.72,-88.06 849.89,-93.36 851.2,-86.49"/>
</a>
</g>
</g>
<!-- Node27&#45;&gt;Node9 -->
<g id="edge43_Node000027_Node000009" class="edge">
<title>Node27&#45;&gt;Node9</title>
<g id="a_edge43_Node000027_Node000009"><a xlink:title=" ">
<path fill="none" stroke="#63b8ff" d="M1179.71,-133.8C1176.61,-133.13 1173.53,-132.52 1170.5,-132 1134.29,-125.72 598.73,-94.02 438.47,-84.63"/>
<polygon fill="#63b8ff" stroke="#63b8ff" points="438.22,-81.11 428.03,-84.01 437.81,-88.09 438.22,-81.11"/>
</a>
</g>
</g>
<!-- Node27&#45;&gt;Node25 -->
<g id="edge44_Node000027_Node000025" class="edge">
<title>Node27&#45;&gt;Node25</title>
<g id="a_edge44_Node000027_Node000025"><a xlink:title=" ">
<path fill="none" stroke="#63b8ff" d="M1179.98,-134.38C1176.78,-133.55 1173.6,-132.75 1170.5,-132 1091.54,-112.94 997.47,-95.87 948.98,-87.48"/>
<polygon fill="#63b8ff" stroke="#63b8ff" points="949.51,-84.02 939.06,-85.78 948.33,-90.92 949.51,-84.02"/>
</a>
</g>
</g>
<!-- Node28 -->
<g id="Node000028" class="node">
<title>Node28</title>
<g id="a_Node000028"><a xlink:title=" ">
<polygon fill="#e0e0e0" stroke="#999999" points="1247,-96 1132,-96 1132,-66 1247,-66 1247,-96"/>
<text text-anchor="start" x="1140" y="-84" font-family="Helvetica,sans-Serif" font-size="10.00">boost/range/adaptor</text>
<text text-anchor="middle" x="1189.5" y="-73" font-family="Helvetica,sans-Serif" font-size="10.00">/indexed.hpp</text>
</a>
</g>
</g>
<!-- Node27&#45;&gt;Node28 -->
<g id="edge41_Node000027_Node000028" class="edge">
<title>Node27&#45;&gt;Node28</title>
<g id="a_edge41_Node000027_Node000028"><a xlink:title=" ">
<path fill="none" stroke="#63b8ff" d="M1224.59,-131.77C1218.56,-123.22 1211.48,-113.17 1205.26,-104.35"/>
<polygon fill="#63b8ff" stroke="#63b8ff" points="1208.02,-102.19 1199.4,-96.04 1202.3,-106.23 1208.02,-102.19"/>
</a>
</g>
</g>
<!-- Node29&#45;&gt;Node2 -->
<g id="edge47_Node000029_Node000002" class="edge">
<title>Node29&#45;&gt;Node2</title>
<g id="a_edge47_Node000029_Node000002"><a xlink:title=" ">
<path fill="none" stroke="#63b8ff" d="M299.88,-287.24C268.38,-279.76 233.11,-268.08 204.5,-250 140.69,-209.67 88.88,-133.46 67.75,-99.31"/>
<polygon fill="#63b8ff" stroke="#63b8ff" points="70.59,-97.24 62.41,-90.5 64.6,-100.87 70.59,-97.24"/>
</a>
</g>
</g>
<!-- Node29&#45;&gt;Node3 -->
<g id="edge48_Node000029_Node000003" class="edge">
<title>Node29&#45;&gt;Node3</title>
<g id="a_edge48_Node000029_Node000003"><a xlink:title=" ">
<path fill="none" stroke="#63b8ff" d="M334.37,-285.95C285.5,-268.47 212.18,-233.31 182.5,-173 170.56,-148.73 184.42,-117.91 195.77,-99.09"/>
<polygon fill="#63b8ff" stroke="#63b8ff" points="198.72,-100.97 201.17,-90.67 192.82,-97.2 198.72,-100.97"/>
</a>
</g>
</g>
<!-- Node29&#45;&gt;Node4 -->
<g id="edge49_Node000029_Node000004" class="edge">
<title>Node29&#45;&gt;Node4</title>
<g id="a_edge49_Node000029_Node000004"><a xlink:title=" ">
<path fill="none" stroke="#63b8ff" d="M377.45,-285.94C374.85,-276.89 371.4,-264.91 368.38,-254.4"/>
<polygon fill="#63b8ff" stroke="#63b8ff" points="371.67,-253.19 365.54,-244.54 364.94,-255.12 371.67,-253.19"/>
</a>
</g>
</g>
<!-- Node29&#45;&gt;Node5 -->
<g id="edge50_Node000029_Node000005" class="edge">
<title>Node29&#45;&gt;Node5</title>
<g id="a_edge50_Node000029_Node000005"><a xlink:title=" ">
<path fill="none" stroke="#63b8ff" d="M404.77,-285.91C417.28,-277.12 431.86,-264.7 440.5,-250 453.55,-227.79 457.82,-198.23 459.12,-177.71"/>
<polygon fill="#63b8ff" stroke="#63b8ff" points="462.62,-177.76 459.57,-167.62 455.63,-177.45 462.62,-177.76"/>
</a>
</g>
</g>
<!-- Node30 -->
<g id="Node000030" class="node">
<title>Node30</title>
<g id="a_Node000030"><a xlink:title=" ">
<polygon fill="#e0e0e0" stroke="#999999" points="1049.5,-167.5 925.5,-167.5 925.5,-137.5 1049.5,-137.5 1049.5,-167.5"/>
<text text-anchor="start" x="933.5" y="-155.5" font-family="Helvetica,sans-Serif" font-size="10.00">deal.II/base/exception</text>
<text text-anchor="middle" x="987.5" y="-144.5" font-family="Helvetica,sans-Serif" font-size="10.00">_macros.h</text>
</a>
</g>
</g>
<!-- Node29&#45;&gt;Node30 -->
<g id="edge46_Node000029_Node000030" class="edge">
<title>Node29&#45;&gt;Node30</title>
<g id="a_edge46_Node000029_Node000030"><a xlink:title=" ">
<path fill="none" stroke="#63b8ff" d="M463.16,-289.14C522.71,-280.5 605.13,-267.04 676.5,-250 701.8,-243.96 851.42,-196.74 933.56,-170.66"/>
<polygon fill="#63b8ff" stroke="#63b8ff" points="934.76,-173.96 943.23,-167.59 932.64,-167.28 934.76,-173.96"/>
</a>
</g>
</g>
<!-- Node31&#45;&gt;Node5 -->
<g id="edge55_Node000031_Node000005" class="edge">
<title>Node31&#45;&gt;Node5</title>
<g id="a_edge55_Node000031_Node000005"><a xlink:title=" ">
<path fill="none" stroke="#63b8ff" d="M821.42,-221.38C748.85,-212.68 627.33,-196.21 524.5,-173 520.84,-172.17 517.08,-171.25 513.3,-170.27"/>
<polygon fill="#63b8ff" stroke="#63b8ff" points="513.9,-166.8 503.34,-167.55 512.06,-173.56 513.9,-166.8"/>
</a>
</g>
</g>
<!-- Node31&#45;&gt;Node9 -->
<g id="edge57_Node000031_Node000009" class="edge">
<title>Node31&#45;&gt;Node9</title>
<g id="a_edge57_Node000031_Node000009"><a xlink:title=" ">
<path fill="none" stroke="#63b8ff" d="M949.55,-216.15C993.15,-206.3 1045.26,-191.16 1058.5,-173 1069.24,-158.28 1070.89,-145.36 1058.5,-132 1047.92,-120.59 585.68,-93.06 438.21,-84.55"/>
<polygon fill="#63b8ff" stroke="#63b8ff" points="438.33,-81.05 428.15,-83.97 437.93,-88.04 438.33,-81.05"/>
</a>
</g>
</g>
<!-- Node31&#45;&gt;Node12 -->
<g id="edge54_Node000031_Node000012" class="edge">
<title>Node31&#45;&gt;Node12</title>
<g id="a_edge54_Node000031_Node000012"><a xlink:title=" ">
<path fill="none" stroke="#63b8ff" d="M873.15,-208.79C865.76,-197 856.44,-182.14 849.34,-170.79"/>
<polygon fill="#63b8ff" stroke="#63b8ff" points="852.25,-168.85 843.97,-162.24 846.32,-172.57 852.25,-168.85"/>
</a>
</g>
</g>
<!-- Node31&#45;&gt;Node30 -->
<g id="edge53_Node000031_Node000030" class="edge">
<title>Node31&#45;&gt;Node30</title>
<g id="a_edge53_Node000031_Node000030"><a xlink:title=" ">
<path fill="none" stroke="#63b8ff" d="M912.03,-208.99C926.74,-198.18 945,-184.75 959.87,-173.81"/>
<polygon fill="#63b8ff" stroke="#63b8ff" points="962.2,-176.44 968.19,-167.7 958.06,-170.8 962.2,-176.44"/>
</a>
</g>
</g>
<!-- Node32 -->
<g id="Node000032" class="node">
<title>Node32</title>
<g id="a_Node000032"><a xlink:title=" ">
<polygon fill="#e0e0e0" stroke="#999999" points="1161.5,-162 1105.5,-162 1105.5,-143 1161.5,-143 1161.5,-162"/>
<text text-anchor="middle" x="1133.5" y="-150" font-family="Helvetica,sans-Serif" font-size="10.00">optional</text>
</a>
</g>
</g>
<!-- Node31&#45;&gt;Node32 -->
<g id="edge56_Node000031_Node000032" class="edge">
<title>Node31&#45;&gt;Node32</title>
<g id="a_edge56_Node000031_Node000032"><a xlink:title=" ">
<path fill="none" stroke="#63b8ff" d="M949.95,-214.15C991.01,-204.27 1045.03,-189.91 1091.5,-173 1096.66,-171.12 1102.05,-168.86 1107.18,-166.55"/>
<polygon fill="#63b8ff" stroke="#63b8ff" points="1109.04,-169.55 1116.61,-162.15 1106.07,-163.21 1109.04,-169.55"/>
</a>
</g>
</g>
</g>
</svg>
