<?xml version="1.0" encoding="UTF-8" standalone="no"?>
<!DOCTYPE svg PUBLIC "-//W3C//DTD SVG 1.1//EN"
 "http://www.w3.org/Graphics/SVG/1.1/DTD/svg11.dtd">
<!-- Generated by graphviz version 2.43.0 (0)
 -->
<!-- Title: MeltPoolDG::Multiphase::CompressibleFlowPhaseCouplingData&lt; number &gt; Pages: 1 -->
<!--zoomable 226 -->

<svg id="main" version="1.1" xmlns="http://www.w3.org/2000/svg" xmlns:xlink="http://www.w3.org/1999/xlink" xml:space="preserve" onload="init(evt)">
<style type="text/css"><![CDATA[
.node, .edge {opacity: 0.7;}
.node.selected, .edge.selected {opacity: 1;}
.edge:hover path { stroke: red; }
.edge:hover polygon { stroke: red; fill: red; }
]]></style>

<defs>
  <circle id="rim" cx="0" cy="0" r="7"/>
  <circle id="rim2" cx="0" cy="0" r="3.5"/>
  <g id="zoomPlus">
    <use xlink:href="#rim" fill="#404040"><set attributeName="fill" to="#808080" begin="zoomplus.mouseover" end="zoomplus.mouseout"/></use>
    <path d="M-4,0h8M0,-4v8" fill="none" stroke="white" stroke-width="1.5" pointer-events="none"/>
  </g>
  <g id="zoomMin">
    <use xlink:href="#rim" fill="#404040"><set attributeName="fill" to="#808080" begin="zoomminus.mouseover" end="zoomminus.mouseout"/></use>
    <path d="M-4,0h8" fill="none" stroke="white" stroke-width="1.5" pointer-events="none"/>
  </g>
  <g id="arrowUp" transform="translate(30 24)">
    <use xlink:href="#rim"/>
    <path pointer-events="none" fill="none" stroke="white" stroke-width="1.5" d="M0,-3.0v7 M-2.5,-0.5L0,-3.0L2.5,-0.5"/>
  </g>
  <g id="arrowRight" transform="rotate(90) translate(36 -43)">
    <use xlink:href="#rim"/>
    <path pointer-events="none" fill="none" stroke="white" stroke-width="1.5" d="M0,-3.0v7 M-2.5,-0.5L0,-3.0L2.5,-0.5"/>
  </g>
  <g id="arrowDown" transform="rotate(180) translate(-30 -48)">
    <use xlink:href="#rim"/>
    <path pointer-events="none" fill="none" stroke="white" stroke-width="1.5" d="M0,-3.0v7 M-2.5,-0.5L0,-3.0L2.5,-0.5"/>
  </g>
  <g id="arrowLeft" transform="rotate(270) translate(-36 17)">
    <use xlink:href="#rim"/>
    <path pointer-events="none" fill="none" stroke="white" stroke-width="1.5" d="M0,-3.0v7 M-2.5,-0.5L0,-3.0L2.5,-0.5"/>
  </g>
  <g id="resetDef">
    <use xlink:href="#rim2" fill="#404040"><set attributeName="fill" to="#808080" begin="reset.mouseover" end="reset.mouseout"/></use>
  </g>
</defs>
<script type="application/ecmascript">
var viewWidth = 826;
var viewHeight = 226;
var sectionId = 'dynsection-0';
</script>
<script type="application/ecmascript" xlink:href="svg.min.js"/>
<svg id="graph" class="graph">
<g id="viewport">
<title>MeltPoolDG::Multiphase::CompressibleFlowPhaseCouplingData&lt; number &gt;</title>
<!-- Node1 -->
<g id="Node000001" class="node">
<title>Node1</title>
<g id="a_Node000001"><a xlink:title="Data structure, which contains parameters specifically for the phase coupling of compressible multiph...">
<polygon fill="#999999" stroke="#666666" points="818,-129 633,-129 633,-88 818,-88 818,-129"/>
<text text-anchor="start" x="641" y="-117" font-family="Helvetica,sans-Serif" font-size="10.00">MeltPoolDG::Multiphase</text>
<text text-anchor="start" x="641" y="-106" font-family="Helvetica,sans-Serif" font-size="10.00">::CompressibleFlowPhaseCoupling</text>
<text text-anchor="middle" x="725.5" y="-95" font-family="Helvetica,sans-Serif" font-size="10.00">Data&lt; number &gt;</text>
</a>
</g>
</g>
<!-- Node2 -->
<g id="Node000002" class="node">
<title>Node2</title>
<g id="a_Node000002"><a xlink:href="structMeltPoolDG_1_1Multiphase_1_1CompressibleFlowPhaseCouplingData_1_1LaserHeatSource.html" target="_top" xlink:title="Parameters for the laser heat source.">
<polygon fill="white" stroke="#666666" points="504,-218 316,-218 316,-177 504,-177 504,-218"/>
<text text-anchor="start" x="324" y="-206" font-family="Helvetica,sans-Serif" font-size="10.00">MeltPoolDG::Multiphase</text>
<text text-anchor="start" x="324" y="-195" font-family="Helvetica,sans-Serif" font-size="10.00">::CompressibleFlowPhaseCoupling</text>
<text text-anchor="middle" x="410" y="-184" font-family="Helvetica,sans-Serif" font-size="10.00">Data&lt; number &gt;::LaserHeatSource</text>
</a>
</g>
</g>
<!-- Node2&#45;&gt;Node1 -->
<g id="edge1_Node000001_Node000002" class="edge">
<title>Node2&#45;&gt;Node1</title>
<g id="a_edge1_Node000001_Node000002"><a xlink:title=" ">
<path fill="none" stroke="#9a32cd" stroke-dasharray="5,2" d="M497.72,-174.21C534.01,-164.32 576.61,-152.55 615,-141.5 628.74,-137.55 643.41,-133.2 657.4,-129.01"/>
<polygon fill="#9a32cd" stroke="#9a32cd" points="496.39,-170.94 487.66,-176.94 498.22,-177.69 496.39,-170.94"/>
</a>
</g>
<text text-anchor="middle" x="568.5" y="-169.5" font-family="Helvetica,sans-Serif" font-size="10.00" fill="grey"> laser_heat_source</text>
</g>
<!-- Node3 -->
<g id="Node000003" class="node">
<title>Node3</title>
<g id="a_Node000003"><a xlink:href="structMeltPoolDG_1_1Multiphase_1_1CompressibleFlowPhaseCouplingData_1_1Penalty.html" target="_top" xlink:title="Parameters specifically for the penalty interface numerical method.">
<polygon fill="white" stroke="#666666" points="502.5,-159 317.5,-159 317.5,-118 502.5,-118 502.5,-159"/>
<text text-anchor="start" x="325.5" y="-147" font-family="Helvetica,sans-Serif" font-size="10.00">MeltPoolDG::Multiphase</text>
<text text-anchor="start" x="325.5" y="-136" font-family="Helvetica,sans-Serif" font-size="10.00">::CompressibleFlowPhaseCoupling</text>
<text text-anchor="middle" x="410" y="-125" font-family="Helvetica,sans-Serif" font-size="10.00">Data&lt; number &gt;::Penalty</text>
</a>
</g>
</g>
<!-- Node3&#45;&gt;Node1 -->
<g id="edge2_Node000001_Node000003" class="edge">
<title>Node3&#45;&gt;Node1</title>
<g id="a_edge2_Node000001_Node000003"><a xlink:title=" ">
<path fill="none" stroke="#9a32cd" stroke-dasharray="5,2" d="M512.75,-128.76C551.42,-125.06 595.19,-120.87 632.87,-117.27"/>
<polygon fill="#9a32cd" stroke="#9a32cd" points="512.14,-125.31 502.52,-129.74 512.81,-132.27 512.14,-125.31"/>
</a>
</g>
<text text-anchor="middle" x="568.5" y="-129.5" font-family="Helvetica,sans-Serif" font-size="10.00" fill="grey"> penalty</text>
</g>
<!-- Node4 -->
<g id="Node000004" class="node">
<title>Node4</title>
<g id="a_Node000004"><a xlink:href="structMeltPoolDG_1_1Multiphase_1_1CompressibleFlowPhaseCouplingData_1_1Penalty_1_1Coefficients.html" target="_top" xlink:title=" ">
<polygon fill="white" stroke="#666666" points="208,-188 2,-188 2,-147 208,-147 208,-188"/>
<text text-anchor="start" x="10" y="-176" font-family="Helvetica,sans-Serif" font-size="10.00">MeltPoolDG::Multiphase</text>
<text text-anchor="start" x="10" y="-165" font-family="Helvetica,sans-Serif" font-size="10.00">::CompressibleFlowPhaseCoupling</text>
<text text-anchor="middle" x="105" y="-154" font-family="Helvetica,sans-Serif" font-size="10.00">Data&lt; number &gt;::Penalty::Coefficients</text>
</a>
</g>
</g>
<!-- Node4&#45;&gt;Node3 -->
<g id="edge3_Node000003_Node000004" class="edge">
<title>Node4&#45;&gt;Node3</title>
<g id="a_edge3_Node000003_Node000004"><a xlink:title=" ">
<path fill="none" stroke="#9a32cd" stroke-dasharray="5,2" d="M218.21,-156.76C250.9,-153.63 286.21,-150.25 317.46,-147.26"/>
<polygon fill="#9a32cd" stroke="#9a32cd" points="217.78,-153.29 208.16,-157.72 218.45,-160.25 217.78,-153.29"/>
</a>
</g>
<text text-anchor="middle" x="263" y="-158.5" font-family="Helvetica,sans-Serif" font-size="10.00" fill="grey"> coefficients</text>
</g>
<!-- Node5 -->
<g id="Node000005" class="node">
<title>Node5</title>
<g id="a_Node000005"><a xlink:href="structMeltPoolDG_1_1Multiphase_1_1CompressibleFlowPhaseCouplingData_1_1Penalty_1_1TargetValues.html" target="_top" xlink:title=" ">
<polygon fill="white" stroke="#666666" points="210,-129 0,-129 0,-88 210,-88 210,-129"/>
<text text-anchor="start" x="8" y="-117" font-family="Helvetica,sans-Serif" font-size="10.00">MeltPoolDG::Multiphase</text>
<text text-anchor="start" x="8" y="-106" font-family="Helvetica,sans-Serif" font-size="10.00">::CompressibleFlowPhaseCoupling</text>
<text text-anchor="middle" x="105" y="-95" font-family="Helvetica,sans-Serif" font-size="10.00">Data&lt; number &gt;::Penalty::TargetValues</text>
</a>
</g>
</g>
<!-- Node5&#45;&gt;Node3 -->
<g id="edge4_Node000003_Node000005" class="edge">
<title>Node5&#45;&gt;Node3</title>
<g id="a_edge4_Node000003_Node000005"><a xlink:title=" ">
<path fill="none" stroke="#9a32cd" stroke-dasharray="5,2" d="M220.55,-119.84C252.49,-123 286.75,-126.4 317.19,-129.41"/>
<polygon fill="#9a32cd" stroke="#9a32cd" points="220.57,-116.33 210.28,-118.82 219.88,-123.29 220.57,-116.33"/>
</a>
</g>
<text text-anchor="middle" x="263" y="-129.5" font-family="Helvetica,sans-Serif" font-size="10.00" fill="grey"> target_values</text>
</g>
<!-- Node6 -->
<g id="Node000006" class="node">
<title>Node6</title>
<g id="a_Node000006"><a xlink:href="structMeltPoolDG_1_1Multiphase_1_1CompressibleFlowPhaseCouplingData_1_1HLLP0__SIPG.html" target="_top" xlink:title="Parameters specifically for the HLLP0 and SIPG interface numerical method.">
<polygon fill="white" stroke="#666666" points="502.5,-100 317.5,-100 317.5,-59 502.5,-59 502.5,-100"/>
<text text-anchor="start" x="325.5" y="-88" font-family="Helvetica,sans-Serif" font-size="10.00">MeltPoolDG::Multiphase</text>
<text text-anchor="start" x="325.5" y="-77" font-family="Helvetica,sans-Serif" font-size="10.00">::CompressibleFlowPhaseCoupling</text>
<text text-anchor="middle" x="410" y="-66" font-family="Helvetica,sans-Serif" font-size="10.00">Data&lt; number &gt;::HLLP0_SIPG</text>
</a>
</g>
</g>
<!-- Node6&#45;&gt;Node1 -->
<g id="edge5_Node000001_Node000006" class="edge">
<title>Node6&#45;&gt;Node1</title>
<g id="a_edge5_Node000001_Node000006"><a xlink:title=" ">
<path fill="none" stroke="#9a32cd" stroke-dasharray="5,2" d="M512.54,-85.11C545.29,-87.28 581.72,-90.08 615,-93.5 620.82,-94.1 626.81,-94.77 632.84,-95.48"/>
<polygon fill="#9a32cd" stroke="#9a32cd" points="512.71,-81.61 502.51,-84.46 512.26,-88.6 512.71,-81.61"/>
</a>
</g>
<text text-anchor="middle" x="568.5" y="-96.5" font-family="Helvetica,sans-Serif" font-size="10.00" fill="grey"> hllp0_and_sipg</text>
</g>
<!-- Node7 -->
<g id="Node000007" class="node">
<title>Node7</title>
<g id="a_Node000007"><a xlink:href="structMeltPoolDG_1_1Multiphase_1_1CompressibleFlowPhaseCouplingData_1_1HLLP0__penalty.html" target="_top" xlink:title="Parameters specifically for the HLLP0 and penalty interface numerical method.">
<polygon fill="white" stroke="#666666" points="502.5,-41 317.5,-41 317.5,0 502.5,0 502.5,-41"/>
<text text-anchor="start" x="325.5" y="-29" font-family="Helvetica,sans-Serif" font-size="10.00">MeltPoolDG::Multiphase</text>
<text text-anchor="start" x="325.5" y="-18" font-family="Helvetica,sans-Serif" font-size="10.00">::CompressibleFlowPhaseCoupling</text>
<text text-anchor="middle" x="410" y="-7" font-family="Helvetica,sans-Serif" font-size="10.00">Data&lt; number &gt;::HLLP0_penalty</text>
</a>
</g>
</g>
<!-- Node7&#45;&gt;Node1 -->
<g id="edge6_Node000001_Node000007" class="edge">
<title>Node7&#45;&gt;Node1</title>
<g id="a_edge6_Node000001_Node000007"><a xlink:title=" ">
<path fill="none" stroke="#9a32cd" stroke-dasharray="5,2" d="M509.61,-43.45C543.2,-51.72 580.89,-61.49 615,-71.5 631.85,-76.44 649.97,-82.33 666.53,-87.94"/>
<polygon fill="#9a32cd" stroke="#9a32cd" points="510.33,-40.02 499.78,-41.04 508.67,-46.82 510.33,-40.02"/>
</a>
</g>
<text text-anchor="middle" x="568.5" y="-74.5" font-family="Helvetica,sans-Serif" font-size="10.00" fill="grey"> hllp0_and_penalty</text>
</g>
</g>
</svg>

<g id="navigator" transform="translate(0 0)" fill="#404254">
  <rect fill="#f2f5e9" fill-opacity="0.5" stroke="#606060" stroke-width=".5" x="0" y="0" width="60" height="60"/>
  <use id="zoomplus" xlink:href="#zoomPlus" x="17" y="9" onmousedown="handleZoom(evt,'in')"/>
  <use id="zoomminus" xlink:href="#zoomMin" x="42" y="9" onmousedown="handleZoom(evt,'out')"/>
  <use id="reset" xlink:href="#resetDef" x="30" y="36" onmousedown="handleReset()"/>
   <use id="arrowup" xlink:href="#arrowUp" x="0" y="0" onmousedown="handlePan(0,-1)"/>
  <use id="arrowright" xlink:href="#arrowRight" x="0" y="0" onmousedown="handlePan(1,0)"/>
  <use id="arrowdown" xlink:href="#arrowDown" x="0" y="0" onmousedown="handlePan(0,1)"/>
  <use id="arrowleft" xlink:href="#arrowLeft" x="0" y="0" onmousedown="handlePan(-1,0)"/>
</g>
<svg viewBox="0 0 15 15" width="100%" height="30px" preserveAspectRatio="xMaxYMin meet">
 <g id="arrow_out" transform="scale(0.3 0.3)">
  <a xlink:href="structMeltPoolDG_1_1Multiphase_1_1CompressibleFlowPhaseCouplingData__coll__graph_org.svg" target="_base">
   <rect id="button" ry="5" rx="5" y="6" x="6" height="38" width="38"
        fill="#f2f5e9" fill-opacity="0.5" stroke="#606060" stroke-width="1.0"/>
   <path id="arrow"
     d="M 11.500037,31.436501 C 11.940474,20.09759 22.043105,11.32322 32.158766,21.979434 L 37.068811,17.246167 C 37.068811,17.246167 37.088388,32 37.088388,32 L 22.160133,31.978069 C 22.160133,31.978069 26.997745,27.140456 26.997745,27.140456 C 18.528582,18.264221 13.291696,25.230495 11.500037,31.436501 z"
     style="fill:#404040;"/>
  </a>
 </g>
</svg>

<style type='text/css'>
<![CDATA[
[data-mouse-over-selected='false'] { opacity: 0.7; }
[data-mouse-over-selected='true']  { opacity: 1.0; }
]]>
</style>
<script type="application/ecmascript"><![CDATA[
document.addEventListener('DOMContentLoaded', (event) => {
  highlightEdges();
  highlightAdjacentNodes();
});
]]></script>
</svg>
