<?xml version="1.0" encoding="UTF-8" standalone="no"?>
<!DOCTYPE svg PUBLIC "-//W3C//DTD SVG 1.1//EN"
 "http://www.w3.org/Graphics/SVG/1.1/DTD/svg11.dtd">
<!-- Generated by graphviz version 2.43.0 (0)
 -->
<!-- Title: MeltPoolDG::CompressibleFlow::DofValueAndGradientStateView&lt; dim, number, Value, Gradient &gt; Pages: 1 -->
<!--zoomable 427 -->

<svg id="main" version="1.1" xmlns="http://www.w3.org/2000/svg" xmlns:xlink="http://www.w3.org/1999/xlink" xml:space="preserve" onload="init(evt)">
<style type="text/css"><![CDATA[
.node, .edge {opacity: 0.7;}
.node.selected, .edge.selected {opacity: 1;}
.edge:hover path { stroke: red; }
.edge:hover polygon { stroke: red; fill: red; }
]]></style>

<defs>
  <circle id="rim" cx="0" cy="0" r="7"/>
  <circle id="rim2" cx="0" cy="0" r="3.5"/>
  <g id="zoomPlus">
    <use xlink:href="#rim" fill="#404040"><set attributeName="fill" to="#808080" begin="zoomplus.mouseover" end="zoomplus.mouseout"/></use>
    <path d="M-4,0h8M0,-4v8" fill="none" stroke="white" stroke-width="1.5" pointer-events="none"/>
  </g>
  <g id="zoomMin">
    <use xlink:href="#rim" fill="#404040"><set attributeName="fill" to="#808080" begin="zoomminus.mouseover" end="zoomminus.mouseout"/></use>
    <path d="M-4,0h8" fill="none" stroke="white" stroke-width="1.5" pointer-events="none"/>
  </g>
  <g id="arrowUp" transform="translate(30 24)">
    <use xlink:href="#rim"/>
    <path pointer-events="none" fill="none" stroke="white" stroke-width="1.5" d="M0,-3.0v7 M-2.5,-0.5L0,-3.0L2.5,-0.5"/>
  </g>
  <g id="arrowRight" transform="rotate(90) translate(36 -43)">
    <use xlink:href="#rim"/>
    <path pointer-events="none" fill="none" stroke="white" stroke-width="1.5" d="M0,-3.0v7 M-2.5,-0.5L0,-3.0L2.5,-0.5"/>
  </g>
  <g id="arrowDown" transform="rotate(180) translate(-30 -48)">
    <use xlink:href="#rim"/>
    <path pointer-events="none" fill="none" stroke="white" stroke-width="1.5" d="M0,-3.0v7 M-2.5,-0.5L0,-3.0L2.5,-0.5"/>
  </g>
  <g id="arrowLeft" transform="rotate(270) translate(-36 17)">
    <use xlink:href="#rim"/>
    <path pointer-events="none" fill="none" stroke="white" stroke-width="1.5" d="M0,-3.0v7 M-2.5,-0.5L0,-3.0L2.5,-0.5"/>
  </g>
  <g id="resetDef">
    <use xlink:href="#rim2" fill="#404040"><set attributeName="fill" to="#808080" begin="reset.mouseover" end="reset.mouseout"/></use>
  </g>
</defs>
<script type="application/ecmascript">
var viewWidth = 593;
var viewHeight = 427;
var sectionId = 'dynsection-1';
</script>
<script type="application/ecmascript" xlink:href="svg.min.js"/>
<svg id="graph" class="graph">
<g id="viewport">
<title>MeltPoolDG::CompressibleFlow::DofValueAndGradientStateView&lt; dim, number, Value, Gradient &gt;</title>
<!-- Node1 -->
<g id="Node000001" class="node">
<title>Node1</title>
<g id="a_Node000001"><a xlink:title=" ">
<polygon fill="#999999" stroke="#666666" points="585,-186 379,-186 379,-145 585,-145 585,-186"/>
<text text-anchor="start" x="387" y="-174" font-family="Helvetica,sans-Serif" font-size="10.00">MeltPoolDG::Compressible</text>
<text text-anchor="start" x="387" y="-163" font-family="Helvetica,sans-Serif" font-size="10.00">Flow::DofValueAndGradientState</text>
<text text-anchor="middle" x="482" y="-152" font-family="Helvetica,sans-Serif" font-size="10.00">View&lt; dim, number, Value, Gradient &gt;</text>
</a>
</g>
</g>
<!-- Node2 -->
<g id="Node000002" class="node">
<title>Node2</title>
<g id="a_Node000002"><a xlink:href="structMeltPoolDG_1_1CompressibleFlow_1_1DofValueMixin.html" target="_top" xlink:title=" ">
<polygon fill="white" stroke="#666666" points="214,-419 29,-419 29,-356 214,-356 214,-419"/>
<text text-anchor="start" x="37" y="-407" font-family="Helvetica,sans-Serif" font-size="10.00">MeltPoolDG::Compressible</text>
<text text-anchor="start" x="37" y="-396" font-family="Helvetica,sans-Serif" font-size="10.00">Flow::DofValueMixin&lt; dim,</text>
<text text-anchor="start" x="37" y="-385" font-family="Helvetica,sans-Serif" font-size="10.00"> Value::value_type, DofValueAnd</text>
<text text-anchor="start" x="37" y="-374" font-family="Helvetica,sans-Serif" font-size="10.00">GradientStateView&lt; dim, number,</text>
<text text-anchor="middle" x="121.5" y="-363" font-family="Helvetica,sans-Serif" font-size="10.00"> Value, Gradient &gt; &gt;</text>
</a>
</g>
</g>
<!-- Node2&#45;&gt;Node1 -->
<g id="edge1_Node000001_Node000002" class="edge">
<title>Node2&#45;&gt;Node1</title>
<g id="a_edge1_Node000001_Node000002"><a xlink:title=" ">
<path fill="none" stroke="#63b8ff" d="M223.98,-356.59C230.52,-353.75 236.91,-350.72 243,-347.5 330.59,-301.16 419.61,-223 459.43,-186.04"/>
<polygon fill="#63b8ff" stroke="#63b8ff" points="222.2,-353.54 214.31,-360.61 224.89,-360 222.2,-353.54"/>
</a>
</g>
</g>
<!-- Node3 -->
<g id="Node000003" class="node">
<title>Node3</title>
<g id="a_Node000003"><a xlink:href="structMeltPoolDG_1_1CompressibleFlow_1_1DofGradientMixin.html" target="_top" xlink:title=" ">
<polygon fill="white" stroke="#666666" points="243,-338 0,-338 0,-275 243,-275 243,-338"/>
<text text-anchor="start" x="8" y="-326" font-family="Helvetica,sans-Serif" font-size="10.00">MeltPoolDG::Compressible</text>
<text text-anchor="start" x="8" y="-315" font-family="Helvetica,sans-Serif" font-size="10.00">Flow::DofGradientMixin</text>
<text text-anchor="start" x="8" y="-304" font-family="Helvetica,sans-Serif" font-size="10.00">&lt; dim, Gradient::value</text>
<text text-anchor="start" x="8" y="-293" font-family="Helvetica,sans-Serif" font-size="10.00">_type::value_type, DofValueAndGradient</text>
<text text-anchor="middle" x="121.5" y="-282" font-family="Helvetica,sans-Serif" font-size="10.00">StateView&lt; dim, number, Value, Gradient &gt; &gt;</text>
</a>
</g>
</g>
<!-- Node3&#45;&gt;Node1 -->
<g id="edge2_Node000001_Node000003" class="edge">
<title>Node3&#45;&gt;Node1</title>
<g id="a_edge2_Node000001_Node000003"><a xlink:title=" ">
<path fill="none" stroke="#63b8ff" d="M227.16,-271.39C232.53,-269.43 237.84,-267.46 243,-265.5 310.46,-239.89 387.2,-206.94 434.87,-186.01"/>
<polygon fill="#63b8ff" stroke="#63b8ff" points="225.66,-268.21 217.44,-274.89 228.04,-274.79 225.66,-268.21"/>
</a>
</g>
</g>
<!-- Node4 -->
<g id="Node000004" class="node">
<title>Node4</title>
<g id="a_Node000004"><a xlink:href="structMeltPoolDG_1_1Flow_1_1EOSValueMixin.html" target="_top" xlink:title=" ">
<polygon fill="white" stroke="#666666" points="223.5,-256.5 19.5,-256.5 19.5,-204.5 223.5,-204.5 223.5,-256.5"/>
<text text-anchor="start" x="27.5" y="-244.5" font-family="Helvetica,sans-Serif" font-size="10.00">MeltPoolDG::Flow::EOSValue</text>
<text text-anchor="start" x="27.5" y="-233.5" font-family="Helvetica,sans-Serif" font-size="10.00">Mixin&lt; dim, Value::value</text>
<text text-anchor="start" x="27.5" y="-222.5" font-family="Helvetica,sans-Serif" font-size="10.00">_type, DofValueAndGradientStateView</text>
<text text-anchor="middle" x="121.5" y="-211.5" font-family="Helvetica,sans-Serif" font-size="10.00">&lt; dim, number, Value, Gradient &gt; &gt;</text>
</a>
</g>
</g>
<!-- Node4&#45;&gt;Node1 -->
<g id="edge3_Node000001_Node000004" class="edge">
<title>Node4&#45;&gt;Node1</title>
<g id="a_edge3_Node000001_Node000004"><a xlink:title=" ">
<path fill="none" stroke="#63b8ff" d="M233.86,-210.31C280.12,-201.92 333.45,-192.25 378.71,-184.05"/>
<polygon fill="#63b8ff" stroke="#63b8ff" points="233.01,-206.91 223.79,-212.13 234.26,-213.79 233.01,-206.91"/>
</a>
</g>
</g>
<!-- Node5 -->
<g id="Node000005" class="node">
<title>Node5</title>
<g id="a_Node000005"><a xlink:href="structMeltPoolDG_1_1Flow_1_1EOSGradientMixin.html" target="_top" xlink:title=" ">
<polygon fill="white" stroke="#666666" points="230.5,-186 12.5,-186 12.5,-145 230.5,-145 230.5,-186"/>
<text text-anchor="start" x="20.5" y="-174" font-family="Helvetica,sans-Serif" font-size="10.00">MeltPoolDG::Flow::EOSGradient</text>
<text text-anchor="start" x="20.5" y="-163" font-family="Helvetica,sans-Serif" font-size="10.00">Mixin&lt; dim, DofValueAndGradientState</text>
<text text-anchor="middle" x="121.5" y="-152" font-family="Helvetica,sans-Serif" font-size="10.00">View&lt; dim, number, Value, Gradient &gt; &gt;</text>
</a>
</g>
</g>
<!-- Node5&#45;&gt;Node1 -->
<g id="edge4_Node000001_Node000005" class="edge">
<title>Node5&#45;&gt;Node1</title>
<g id="a_edge4_Node000001_Node000005"><a xlink:title=" ">
<path fill="none" stroke="#63b8ff" d="M240.57,-165.5C285.22,-165.5 335.62,-165.5 378.7,-165.5"/>
<polygon fill="#63b8ff" stroke="#63b8ff" points="240.55,-162 230.55,-165.5 240.55,-169 240.55,-162"/>
</a>
</g>
</g>
<!-- Node6 -->
<g id="Node000006" class="node">
<title>Node6</title>
<g id="a_Node000006"><a xlink:href="structMeltPoolDG_1_1CompressibleFlow_1_1MaterialMixin.html" target="_top" xlink:title=" ">
<polygon fill="white" stroke="#666666" points="205.5,-126.5 37.5,-126.5 37.5,-74.5 205.5,-74.5 205.5,-126.5"/>
<text text-anchor="start" x="45.5" y="-114.5" font-family="Helvetica,sans-Serif" font-size="10.00">MeltPoolDG::Compressible</text>
<text text-anchor="start" x="45.5" y="-103.5" font-family="Helvetica,sans-Serif" font-size="10.00">Flow::MaterialMixin&lt; DofValue</text>
<text text-anchor="start" x="45.5" y="-92.5" font-family="Helvetica,sans-Serif" font-size="10.00">AndGradientStateView&lt; dim,</text>
<text text-anchor="middle" x="121.5" y="-81.5" font-family="Helvetica,sans-Serif" font-size="10.00"> number, Value, Gradient &gt; &gt;</text>
</a>
</g>
</g>
<!-- Node6&#45;&gt;Node1 -->
<g id="edge5_Node000001_Node000006" class="edge">
<title>Node6&#45;&gt;Node1</title>
<g id="a_edge5_Node000001_Node000006"><a xlink:title=" ">
<path fill="none" stroke="#63b8ff" d="M215.49,-117.36C265.55,-126.44 327.38,-137.65 378.78,-146.97"/>
<polygon fill="#63b8ff" stroke="#63b8ff" points="216.11,-113.92 205.65,-115.58 214.86,-120.8 216.11,-113.92"/>
</a>
</g>
</g>
<!-- Node7 -->
<g id="Node000007" class="node">
<title>Node7</title>
<g id="a_Node000007"><a xlink:title=" ">
<polygon fill="white" stroke="#666666" points="143.5,-56 99.5,-56 99.5,-37 143.5,-37 143.5,-56"/>
<text text-anchor="middle" x="121.5" y="-44" font-family="Helvetica,sans-Serif" font-size="10.00">Value</text>
</a>
</g>
</g>
<!-- Node7&#45;&gt;Node1 -->
<g id="edge6_Node000001_Node000007" class="edge">
<title>Node7&#45;&gt;Node1</title>
<g id="a_edge6_Node000001_Node000007"><a xlink:title=" ">
<path fill="none" stroke="#9a32cd" stroke-dasharray="5,2" d="M153.86,-49.57C178.41,-52.42 213.26,-57.46 243,-65.5 315.47,-85.09 394.99,-121.86 441.32,-144.93"/>
<polygon fill="#9a32cd" stroke="#9a32cd" points="154.01,-46.07 143.69,-48.45 153.24,-53.02 154.01,-46.07"/>
</a>
</g>
<text text-anchor="middle" x="311" y="-108.5" font-family="Helvetica,sans-Serif" font-size="10.00" fill="grey"> flow_state</text>
</g>
<!-- Node8 -->
<g id="Node000008" class="node">
<title>Node8</title>
<g id="a_Node000008"><a xlink:title=" ">
<polygon fill="white" stroke="#666666" points="151,-19 92,-19 92,0 151,0 151,-19"/>
<text text-anchor="middle" x="121.5" y="-7" font-family="Helvetica,sans-Serif" font-size="10.00">Gradient</text>
</a>
</g>
</g>
<!-- Node8&#45;&gt;Node1 -->
<g id="edge7_Node000001_Node000008" class="edge">
<title>Node8&#45;&gt;Node1</title>
<g id="a_edge7_Node000001_Node000008"><a xlink:title=" ">
<path fill="none" stroke="#9a32cd" stroke-dasharray="5,2" d="M161.28,-10.1C210.47,-12.35 296.61,-21.37 361,-55.5 403.7,-78.14 442.9,-119.61 464.22,-144.66"/>
<polygon fill="#9a32cd" stroke="#9a32cd" points="161.2,-6.6 151.08,-9.71 160.93,-13.59 161.2,-6.6"/>
</a>
</g>
<text text-anchor="middle" x="311" y="-58.5" font-family="Helvetica,sans-Serif" font-size="10.00" fill="grey"> flow_gradient_state</text>
</g>
</g>
</svg>

<g id="navigator" transform="translate(0 0)" fill="#404254">
  <rect fill="#f2f5e9" fill-opacity="0.5" stroke="#606060" stroke-width=".5" x="0" y="0" width="60" height="60"/>
  <use id="zoomplus" xlink:href="#zoomPlus" x="17" y="9" onmousedown="handleZoom(evt,'in')"/>
  <use id="zoomminus" xlink:href="#zoomMin" x="42" y="9" onmousedown="handleZoom(evt,'out')"/>
  <use id="reset" xlink:href="#resetDef" x="30" y="36" onmousedown="handleReset()"/>
   <use id="arrowup" xlink:href="#arrowUp" x="0" y="0" onmousedown="handlePan(0,-1)"/>
  <use id="arrowright" xlink:href="#arrowRight" x="0" y="0" onmousedown="handlePan(1,0)"/>
  <use id="arrowdown" xlink:href="#arrowDown" x="0" y="0" onmousedown="handlePan(0,1)"/>
  <use id="arrowleft" xlink:href="#arrowLeft" x="0" y="0" onmousedown="handlePan(-1,0)"/>
</g>
<svg viewBox="0 0 15 15" width="100%" height="30px" preserveAspectRatio="xMaxYMin meet">
 <g id="arrow_out" transform="scale(0.3 0.3)">
  <a xlink:href="structMeltPoolDG_1_1CompressibleFlow_1_1DofValueAndGradientStateView__coll__graph_org.svg" target="_base">
   <rect id="button" ry="5" rx="5" y="6" x="6" height="38" width="38"
        fill="#f2f5e9" fill-opacity="0.5" stroke="#606060" stroke-width="1.0"/>
   <path id="arrow"
     d="M 11.500037,31.436501 C 11.940474,20.09759 22.043105,11.32322 32.158766,21.979434 L 37.068811,17.246167 C 37.068811,17.246167 37.088388,32 37.088388,32 L 22.160133,31.978069 C 22.160133,31.978069 26.997745,27.140456 26.997745,27.140456 C 18.528582,18.264221 13.291696,25.230495 11.500037,31.436501 z"
     style="fill:#404040;"/>
  </a>
 </g>
</svg>

<style type='text/css'>
<![CDATA[
[data-mouse-over-selected='false'] { opacity: 0.7; }
[data-mouse-over-selected='true']  { opacity: 1.0; }
]]>
</style>
<script type="application/ecmascript"><![CDATA[
document.addEventListener('DOMContentLoaded', (event) => {
  highlightEdges();
  highlightAdjacentNodes();
});
]]></script>
</svg>
