<?xml version="1.0" encoding="UTF-8" standalone="no"?>
<!DOCTYPE svg PUBLIC "-//W3C//DTD SVG 1.1//EN"
 "http://www.w3.org/Graphics/SVG/1.1/DTD/svg11.dtd">
<!-- Generated by graphviz version 2.43.0 (0)
 -->
<!-- Title: MeltPoolDG::RadiativeTransport::RadiativeTransportData&lt; number &gt; Pages: 1 -->
<svg width="581pt" height="145pt"
 viewBox="0.00 0.00 581.00 145.00" xmlns="http://www.w3.org/2000/svg" xmlns:xlink="http://www.w3.org/1999/xlink">
<g id="graph0" class="graph" transform="scale(1 1) rotate(0) translate(4 141)">
<title>MeltPoolDG::RadiativeTransport::RadiativeTransportData&lt; number &gt;</title>
<!-- Node1 -->
<g id="Node000001" class="node">
<title>Node1</title>
<g id="a_Node000001"><a xlink:title=" ">
<polygon fill="#999999" stroke="#666666" points="573,-100 401,-100 401,-59 573,-59 573,-100"/>
<text text-anchor="start" x="409" y="-88" font-family="Helvetica,sans-Serif" font-size="10.00">MeltPoolDG::RadiativeTransport</text>
<text text-anchor="start" x="409" y="-77" font-family="Helvetica,sans-Serif" font-size="10.00">::RadiativeTransportData&lt;</text>
<text text-anchor="middle" x="487" y="-66" font-family="Helvetica,sans-Serif" font-size="10.00"> number &gt;</text>
</a>
</g>
</g>
<!-- Node2 -->
<g id="Node000002" class="node">
<title>Node2</title>
<g id="a_Node000002"><a xlink:href="structMeltPoolDG_1_1FiniteElementData.html" target="_top" xlink:title=" ">
<polygon fill="white" stroke="#666666" points="200,-137 29,-137 29,-118 200,-118 200,-137"/>
<text text-anchor="middle" x="114.5" y="-125" font-family="Helvetica,sans-Serif" font-size="10.00">MeltPoolDG::FiniteElementData</text>
</a>
</g>
</g>
<!-- Node2&#45;&gt;Node1 -->
<g id="edge1_Node000001_Node000002" class="edge">
<title>Node2&#45;&gt;Node1</title>
<g id="a_edge1_Node000001_Node000002"><a xlink:title=" ">
<path fill="none" stroke="#9a32cd" stroke-dasharray="5,2" d="M206.49,-116.78C258.27,-110.55 324.31,-102.39 383,-94.5 388.82,-93.72 394.82,-92.89 400.87,-92.05"/>
<polygon fill="#9a32cd" stroke="#9a32cd" points="205.84,-113.33 196.33,-117.99 206.68,-120.28 205.84,-113.33"/>
</a>
</g>
<text text-anchor="middle" x="315" y="-113.5" font-family="Helvetica,sans-Serif" font-size="10.00" fill="grey"> fe</text>
</g>
<!-- Node3 -->
<g id="Node000003" class="node">
<title>Node3</title>
<g id="a_Node000003"><a xlink:href="structMeltPoolDG_1_1RadiativeTransport_1_1RadiativeTransportData_1_1AbsorptivityConstantData.html" target="_top" xlink:title=" ">
<polygon fill="white" stroke="#666666" points="214.5,-100 14.5,-100 14.5,-59 214.5,-59 214.5,-100"/>
<text text-anchor="start" x="22.5" y="-88" font-family="Helvetica,sans-Serif" font-size="10.00">MeltPoolDG::RadiativeTransport</text>
<text text-anchor="start" x="22.5" y="-77" font-family="Helvetica,sans-Serif" font-size="10.00">::RadiativeTransportData&lt;</text>
<text text-anchor="middle" x="114.5" y="-66" font-family="Helvetica,sans-Serif" font-size="10.00"> number &gt;::AbsorptivityConstantData</text>
</a>
</g>
</g>
<!-- Node3&#45;&gt;Node1 -->
<g id="edge2_Node000001_Node000003" class="edge">
<title>Node3&#45;&gt;Node1</title>
<g id="a_edge2_Node000001_Node000003"><a xlink:title=" ">
<path fill="none" stroke="#9a32cd" stroke-dasharray="5,2" d="M224.79,-79.5C281.04,-79.5 348.59,-79.5 400.91,-79.5"/>
<polygon fill="#9a32cd" stroke="#9a32cd" points="224.79,-76 214.79,-79.5 224.79,-83 224.79,-76"/>
</a>
</g>
<text text-anchor="middle" x="315" y="-82.5" font-family="Helvetica,sans-Serif" font-size="10.00" fill="grey"> absorptivity_constant_data</text>
</g>
<!-- Node4 -->
<g id="Node000004" class="node">
<title>Node4</title>
<g id="a_Node000004"><a xlink:href="structMeltPoolDG_1_1RadiativeTransport_1_1RadiativeTransportData_1_1AbsorptivityGradientBasedData.html" target="_top" xlink:title=" ">
<polygon fill="white" stroke="#666666" points="229,-41 0,-41 0,0 229,0 229,-41"/>
<text text-anchor="start" x="8" y="-29" font-family="Helvetica,sans-Serif" font-size="10.00">MeltPoolDG::RadiativeTransport</text>
<text text-anchor="start" x="8" y="-18" font-family="Helvetica,sans-Serif" font-size="10.00">::RadiativeTransportData&lt;</text>
<text text-anchor="middle" x="114.5" y="-7" font-family="Helvetica,sans-Serif" font-size="10.00"> number &gt;::AbsorptivityGradientBasedData</text>
</a>
</g>
</g>
<!-- Node4&#45;&gt;Node1 -->
<g id="edge3_Node000001_Node000004" class="edge">
<title>Node4&#45;&gt;Node1</title>
<g id="a_edge3_Node000001_Node000004"><a xlink:title=" ">
<path fill="none" stroke="#9a32cd" stroke-dasharray="5,2" d="M239.4,-32.53C284.77,-37.79 336.39,-44.78 383,-53.5 391.52,-55.09 400.38,-56.98 409.18,-59"/>
<polygon fill="#9a32cd" stroke="#9a32cd" points="239.55,-29.02 229.22,-31.37 238.76,-35.98 239.55,-29.02"/>
</a>
</g>
<text text-anchor="start" x="261" y="-67.5" font-family="Helvetica,sans-Serif" font-size="10.00" fill="grey"> absorptivity_gradient</text>
<text text-anchor="middle" x="315" y="-56.5" font-family="Helvetica,sans-Serif" font-size="10.00" fill="grey">_based_data</text>
</g>
</g>
</svg>
