<?xml version="1.0" encoding="UTF-8" standalone="no"?>
<!DOCTYPE svg PUBLIC "-//W3C//DTD SVG 1.1//EN"
 "http://www.w3.org/Graphics/SVG/1.1/DTD/svg11.dtd">
<!-- Generated by graphviz version 2.43.0 (0)
 -->
<!-- Title: MeltPoolDG::Preconditioner&lt; dim, VectorType, number &gt;::PreconditionerModel&lt; PreconditionerType &gt; Pages: 1 -->
<svg width="519pt" height="86pt"
 viewBox="0.00 0.00 519.00 86.00" xmlns="http://www.w3.org/2000/svg" xmlns:xlink="http://www.w3.org/1999/xlink">
<g id="graph0" class="graph" transform="scale(1 1) rotate(0) translate(4 82)">
<title>MeltPoolDG::Preconditioner&lt; dim, VectorType, number &gt;::PreconditionerModel&lt; PreconditionerType &gt;</title>
<!-- Node1 -->
<g id="Node000001" class="node">
<title>Node1</title>
<g id="a_Node000001"><a xlink:title=" ">
<polygon fill="#999999" stroke="#666666" points="511,-54 261,-54 261,-13 511,-13 511,-54"/>
<text text-anchor="start" x="269" y="-42" font-family="Helvetica,sans-Serif" font-size="10.00">MeltPoolDG::Preconditioner</text>
<text text-anchor="start" x="269" y="-31" font-family="Helvetica,sans-Serif" font-size="10.00">&lt; dim, VectorType, number</text>
<text text-anchor="middle" x="386" y="-20" font-family="Helvetica,sans-Serif" font-size="10.00"> &gt;::PreconditionerModel&lt; PreconditionerType &gt;</text>
</a>
</g>
</g>
<!-- Node2 -->
<g id="Node000002" class="node">
<title>Node2</title>
<g id="a_Node000002"><a xlink:href="structMeltPoolDG_1_1Preconditioner_1_1PreconditionerConcept.html" target="_top" xlink:title=" ">
<polygon fill="white" stroke="#666666" points="151,-78 0,-78 0,-37 151,-37 151,-78"/>
<text text-anchor="start" x="8" y="-66" font-family="Helvetica,sans-Serif" font-size="10.00">MeltPoolDG::Preconditioner</text>
<text text-anchor="start" x="8" y="-55" font-family="Helvetica,sans-Serif" font-size="10.00">&lt; dim, VectorType, number</text>
<text text-anchor="middle" x="75.5" y="-44" font-family="Helvetica,sans-Serif" font-size="10.00"> &gt;::PreconditionerConcept</text>
</a>
</g>
</g>
<!-- Node2&#45;&gt;Node1 -->
<g id="edge1_Node000001_Node000002" class="edge">
<title>Node2&#45;&gt;Node1</title>
<g id="a_edge1_Node000001_Node000002"><a xlink:title=" ">
<path fill="none" stroke="#63b8ff" d="M161.4,-50.9C192.09,-48.51 227.4,-45.76 260.77,-43.16"/>
<polygon fill="#63b8ff" stroke="#63b8ff" points="160.88,-47.43 151.18,-51.69 161.42,-54.4 160.88,-47.43"/>
</a>
</g>
</g>
<!-- Node3 -->
<g id="Node000003" class="node">
<title>Node3</title>
<g id="a_Node000003"><a xlink:title=" ">
<polygon fill="white" stroke="#666666" points="130.5,-19 20.5,-19 20.5,0 130.5,0 130.5,-19"/>
<text text-anchor="middle" x="75.5" y="-7" font-family="Helvetica,sans-Serif" font-size="10.00">PreconditionerType</text>
</a>
</g>
</g>
<!-- Node3&#45;&gt;Node1 -->
<g id="edge2_Node000001_Node000003" class="edge">
<title>Node3&#45;&gt;Node1</title>
<g id="a_edge2_Node000001_Node000003"><a xlink:title=" ">
<path fill="none" stroke="#9a32cd" stroke-dasharray="5,2" d="M140.6,-14.49C175.37,-17.19 219.56,-20.63 260.78,-23.84"/>
<polygon fill="#9a32cd" stroke="#9a32cd" points="140.83,-10.99 130.59,-13.71 140.29,-17.97 140.83,-10.99"/>
</a>
</g>
<text text-anchor="middle" x="206" y="-24.5" font-family="Helvetica,sans-Serif" font-size="10.00" fill="grey"> preconditioner</text>
</g>
</g>
</svg>
