<?xml version="1.0" encoding="UTF-8" standalone="no"?>
<!DOCTYPE svg PUBLIC "-//W3C//DTD SVG 1.1//EN"
 "http://www.w3.org/Graphics/SVG/1.1/DTD/svg11.dtd">
<!-- Generated by graphviz version 2.43.0 (0)
 -->
<!-- Title: MeltPoolDG::Heat::HeatData&lt; number &gt; Pages: 1 -->
<svg width="428pt" height="268pt"
 viewBox="0.00 0.00 428.00 267.50" xmlns="http://www.w3.org/2000/svg" xmlns:xlink="http://www.w3.org/1999/xlink">
<g id="graph0" class="graph" transform="scale(1 1) rotate(0) translate(4 263.5)">
<title>MeltPoolDG::Heat::HeatData&lt; number &gt;</title>
<!-- Node1 -->
<g id="Node000001" class="node">
<title>Node1</title>
<g id="a_Node000001"><a xlink:title=" ">
<polygon fill="#999999" stroke="#666666" points="420,-139.5 264,-139.5 264,-109.5 420,-109.5 420,-139.5"/>
<text text-anchor="start" x="272" y="-127.5" font-family="Helvetica,sans-Serif" font-size="10.00">MeltPoolDG::Heat::HeatData</text>
<text text-anchor="middle" x="342" y="-116.5" font-family="Helvetica,sans-Serif" font-size="10.00">&lt; number &gt;</text>
</a>
</g>
</g>
<!-- Node2 -->
<g id="Node000002" class="node">
<title>Node2</title>
<g id="a_Node000002"><a xlink:href="structMeltPoolDG_1_1Heat_1_1HeatData_1_1Diffuse.html" target="_top" xlink:title=" ">
<polygon fill="white" stroke="#666666" points="163.5,-259.5 7.5,-259.5 7.5,-229.5 163.5,-229.5 163.5,-259.5"/>
<text text-anchor="start" x="15.5" y="-247.5" font-family="Helvetica,sans-Serif" font-size="10.00">MeltPoolDG::Heat::HeatData</text>
<text text-anchor="middle" x="85.5" y="-236.5" font-family="Helvetica,sans-Serif" font-size="10.00">&lt; number &gt;::Diffuse</text>
</a>
</g>
</g>
<!-- Node2&#45;&gt;Node1 -->
<g id="edge1_Node000001_Node000002" class="edge">
<title>Node2&#45;&gt;Node1</title>
<g id="a_edge1_Node000001_Node000002"><a xlink:title=" ">
<path fill="none" stroke="#9a32cd" stroke-dasharray="5,2" d="M154.29,-226.43C159.99,-224.55 165.62,-222.57 171,-220.5 227.46,-198.76 287.84,-160.66 319.22,-139.59"/>
<polygon fill="#9a32cd" stroke="#9a32cd" points="153.16,-223.12 144.69,-229.48 155.28,-229.79 153.16,-223.12"/>
</a>
</g>
<text text-anchor="middle" x="217.5" y="-214.5" font-family="Helvetica,sans-Serif" font-size="10.00" fill="grey"> diffuse</text>
</g>
<!-- Node3 -->
<g id="Node000003" class="node">
<title>Node3</title>
<g id="a_Node000003"><a xlink:href="structMeltPoolDG_1_1Heat_1_1HeatData_1_1Cut.html" target="_top" xlink:title=" ">
<polygon fill="white" stroke="#666666" points="163.5,-211.5 7.5,-211.5 7.5,-181.5 163.5,-181.5 163.5,-211.5"/>
<text text-anchor="start" x="15.5" y="-199.5" font-family="Helvetica,sans-Serif" font-size="10.00">MeltPoolDG::Heat::HeatData</text>
<text text-anchor="middle" x="85.5" y="-188.5" font-family="Helvetica,sans-Serif" font-size="10.00">&lt; number &gt;::Cut</text>
</a>
</g>
</g>
<!-- Node3&#45;&gt;Node1 -->
<g id="edge2_Node000001_Node000003" class="edge">
<title>Node3&#45;&gt;Node1</title>
<g id="a_edge2_Node000001_Node000003"><a xlink:title=" ">
<path fill="none" stroke="#9a32cd" stroke-dasharray="5,2" d="M154.05,-178.82C182.5,-171.23 215.92,-162.14 246,-153.5 261.25,-149.12 277.81,-144.14 292.76,-139.56"/>
<polygon fill="#9a32cd" stroke="#9a32cd" points="152.98,-175.48 144.21,-181.43 154.78,-182.24 152.98,-175.48"/>
</a>
</g>
<text text-anchor="middle" x="217.5" y="-171.5" font-family="Helvetica,sans-Serif" font-size="10.00" fill="grey"> cut</text>
</g>
<!-- Node4 -->
<g id="Node000004" class="node">
<title>Node4</title>
<g id="a_Node000004"><a xlink:href="structMeltPoolDG_1_1Heat_1_1HeatData_1_1RadiationBC.html" target="_top" xlink:title=" ">
<polygon fill="white" stroke="#666666" points="163.5,-163.5 7.5,-163.5 7.5,-133.5 163.5,-133.5 163.5,-163.5"/>
<text text-anchor="start" x="15.5" y="-151.5" font-family="Helvetica,sans-Serif" font-size="10.00">MeltPoolDG::Heat::HeatData</text>
<text text-anchor="middle" x="85.5" y="-140.5" font-family="Helvetica,sans-Serif" font-size="10.00">&lt; number &gt;::RadiationBC</text>
</a>
</g>
</g>
<!-- Node4&#45;&gt;Node1 -->
<g id="edge3_Node000001_Node000004" class="edge">
<title>Node4&#45;&gt;Node1</title>
<g id="a_edge3_Node000001_Node000004"><a xlink:title=" ">
<path fill="none" stroke="#9a32cd" stroke-dasharray="5,2" d="M173.75,-140.27C202.99,-137.52 235.36,-134.46 263.77,-131.78"/>
<polygon fill="#9a32cd" stroke="#9a32cd" points="173.18,-136.81 163.55,-141.23 173.83,-143.78 173.18,-136.81"/>
</a>
</g>
<text text-anchor="middle" x="217.5" y="-141.5" font-family="Helvetica,sans-Serif" font-size="10.00" fill="grey"> radiation</text>
</g>
<!-- Node5 -->
<g id="Node000005" class="node">
<title>Node5</title>
<g id="a_Node000005"><a xlink:href="structMeltPoolDG_1_1Heat_1_1HeatData_1_1ConvectionBC.html" target="_top" xlink:title=" ">
<polygon fill="white" stroke="#666666" points="163.5,-115.5 7.5,-115.5 7.5,-85.5 163.5,-85.5 163.5,-115.5"/>
<text text-anchor="start" x="15.5" y="-103.5" font-family="Helvetica,sans-Serif" font-size="10.00">MeltPoolDG::Heat::HeatData</text>
<text text-anchor="middle" x="85.5" y="-92.5" font-family="Helvetica,sans-Serif" font-size="10.00">&lt; number &gt;::ConvectionBC</text>
</a>
</g>
</g>
<!-- Node5&#45;&gt;Node1 -->
<g id="edge4_Node000001_Node000005" class="edge">
<title>Node5&#45;&gt;Node1</title>
<g id="a_edge4_Node000001_Node000005"><a xlink:title=" ">
<path fill="none" stroke="#9a32cd" stroke-dasharray="5,2" d="M173.75,-108.73C202.99,-111.48 235.36,-114.54 263.77,-117.22"/>
<polygon fill="#9a32cd" stroke="#9a32cd" points="173.83,-105.22 163.55,-107.77 173.18,-112.19 173.83,-105.22"/>
</a>
</g>
<text text-anchor="middle" x="217.5" y="-117.5" font-family="Helvetica,sans-Serif" font-size="10.00" fill="grey"> convection</text>
</g>
<!-- Node6 -->
<g id="Node000006" class="node">
<title>Node6</title>
<g id="a_Node000006"><a xlink:href="structMeltPoolDG_1_1NonlinearSolverData.html" target="_top" xlink:title=" ">
<polygon fill="white" stroke="#666666" points="164.5,-67.5 6.5,-67.5 6.5,-37.5 164.5,-37.5 164.5,-67.5"/>
<text text-anchor="start" x="14.5" y="-55.5" font-family="Helvetica,sans-Serif" font-size="10.00">MeltPoolDG::NonlinearSolver</text>
<text text-anchor="middle" x="85.5" y="-44.5" font-family="Helvetica,sans-Serif" font-size="10.00">Data&lt; double &gt;</text>
</a>
</g>
</g>
<!-- Node6&#45;&gt;Node1 -->
<g id="edge5_Node000001_Node000006" class="edge">
<title>Node6&#45;&gt;Node1</title>
<g id="a_edge5_Node000001_Node000006"><a xlink:title=" ">
<path fill="none" stroke="#9a32cd" stroke-dasharray="5,2" d="M156.22,-70.08C184.21,-77.34 216.72,-86.03 246,-94.5 261.95,-99.12 279.3,-104.49 294.75,-109.4"/>
<polygon fill="#9a32cd" stroke="#9a32cd" points="157.08,-66.69 146.52,-67.57 155.33,-73.46 157.08,-66.69"/>
</a>
</g>
<text text-anchor="middle" x="217.5" y="-97.5" font-family="Helvetica,sans-Serif" font-size="10.00" fill="grey"> nlsolve</text>
</g>
<!-- Node7 -->
<g id="Node000007" class="node">
<title>Node7</title>
<g id="a_Node000007"><a xlink:href="structMeltPoolDG_1_1FiniteElementData.html" target="_top" xlink:title=" ">
<polygon fill="white" stroke="#666666" points="171,-19 0,-19 0,0 171,0 171,-19"/>
<text text-anchor="middle" x="85.5" y="-7" font-family="Helvetica,sans-Serif" font-size="10.00">MeltPoolDG::FiniteElementData</text>
</a>
</g>
</g>
<!-- Node7&#45;&gt;Node1 -->
<g id="edge6_Node000001_Node000007" class="edge">
<title>Node7&#45;&gt;Node1</title>
<g id="a_edge6_Node000001_Node000007"><a xlink:title=" ">
<path fill="none" stroke="#9a32cd" stroke-dasharray="5,2" d="M147.26,-21.5C155.32,-23.58 163.41,-25.91 171,-28.5 228.74,-48.21 289.33,-87.66 320.21,-109.35"/>
<polygon fill="#9a32cd" stroke="#9a32cd" points="148.03,-18.09 137.49,-19.1 146.36,-24.88 148.03,-18.09"/>
</a>
</g>
<text text-anchor="middle" x="217.5" y="-64.5" font-family="Helvetica,sans-Serif" font-size="10.00" fill="grey"> fe</text>
</g>
</g>
</svg>
