<?xml version="1.0" encoding="UTF-8" standalone="no"?>
<!DOCTYPE svg PUBLIC "-//W3C//DTD SVG 1.1//EN"
 "http://www.w3.org/Graphics/SVG/1.1/DTD/svg11.dtd">
<!-- Generated by graphviz version 2.43.0 (0)
 -->
<!-- Title: MeltPoolDG::SpeciesTransport::EffectiveMaterialMixin&lt; n_species, number, ValueType, Derived &gt; Pages: 1 -->
<!--zoomable 234 -->

<svg id="main" version="1.1" xmlns="http://www.w3.org/2000/svg" xmlns:xlink="http://www.w3.org/1999/xlink" xml:space="preserve" onload="init(evt)">
<style type="text/css"><![CDATA[
.node, .edge {opacity: 0.7;}
.node.selected, .edge.selected {opacity: 1;}
.edge:hover path { stroke: red; }
.edge:hover polygon { stroke: red; fill: red; }
]]></style>

<defs>
  <circle id="rim" cx="0" cy="0" r="7"/>
  <circle id="rim2" cx="0" cy="0" r="3.5"/>
  <g id="zoomPlus">
    <use xlink:href="#rim" fill="#404040"><set attributeName="fill" to="#808080" begin="zoomplus.mouseover" end="zoomplus.mouseout"/></use>
    <path d="M-4,0h8M0,-4v8" fill="none" stroke="white" stroke-width="1.5" pointer-events="none"/>
  </g>
  <g id="zoomMin">
    <use xlink:href="#rim" fill="#404040"><set attributeName="fill" to="#808080" begin="zoomminus.mouseover" end="zoomminus.mouseout"/></use>
    <path d="M-4,0h8" fill="none" stroke="white" stroke-width="1.5" pointer-events="none"/>
  </g>
  <g id="arrowUp" transform="translate(30 24)">
    <use xlink:href="#rim"/>
    <path pointer-events="none" fill="none" stroke="white" stroke-width="1.5" d="M0,-3.0v7 M-2.5,-0.5L0,-3.0L2.5,-0.5"/>
  </g>
  <g id="arrowRight" transform="rotate(90) translate(36 -43)">
    <use xlink:href="#rim"/>
    <path pointer-events="none" fill="none" stroke="white" stroke-width="1.5" d="M0,-3.0v7 M-2.5,-0.5L0,-3.0L2.5,-0.5"/>
  </g>
  <g id="arrowDown" transform="rotate(180) translate(-30 -48)">
    <use xlink:href="#rim"/>
    <path pointer-events="none" fill="none" stroke="white" stroke-width="1.5" d="M0,-3.0v7 M-2.5,-0.5L0,-3.0L2.5,-0.5"/>
  </g>
  <g id="arrowLeft" transform="rotate(270) translate(-36 17)">
    <use xlink:href="#rim"/>
    <path pointer-events="none" fill="none" stroke="white" stroke-width="1.5" d="M0,-3.0v7 M-2.5,-0.5L0,-3.0L2.5,-0.5"/>
  </g>
  <g id="resetDef">
    <use xlink:href="#rim2" fill="#404040"><set attributeName="fill" to="#808080" begin="reset.mouseover" end="reset.mouseout"/></use>
  </g>
</defs>
<script type="application/ecmascript">
var viewWidth = 696;
var viewHeight = 234;
var sectionId = 'dynsection-0';
</script>
<script type="application/ecmascript" xlink:href="svg.min.js"/>
<svg id="graph" class="graph">
<g id="viewport">
<title>MeltPoolDG::SpeciesTransport::EffectiveMaterialMixin&lt; n_species, number, ValueType, Derived &gt;</title>
<!-- Node1 -->
<g id="Node000001" class="node">
<title>Node1</title>
<g id="a_Node000001"><a xlink:title=" ">
<polygon fill="#999999" stroke="#666666" points="178,-133 0,-133 0,-81 178,-81 178,-133"/>
<text text-anchor="start" x="8" y="-121" font-family="Helvetica,sans-Serif" font-size="10.00">MeltPoolDG::SpeciesTransport</text>
<text text-anchor="start" x="8" y="-110" font-family="Helvetica,sans-Serif" font-size="10.00">::EffectiveMaterialMixin</text>
<text text-anchor="start" x="8" y="-99" font-family="Helvetica,sans-Serif" font-size="10.00">&lt; n_species, number, ValueType,</text>
<text text-anchor="middle" x="89" y="-88" font-family="Helvetica,sans-Serif" font-size="10.00"> Derived &gt;</text>
</a>
</g>
</g>
<!-- Node2 -->
<g id="Node000002" class="node">
<title>Node2</title>
<g id="a_Node000002"><a xlink:href="structMeltPoolDG_1_1CompressibleFlow_1_1MultiSpeciesMaterialMixin.html" target="_top" xlink:title=" ">
<polygon fill="white" stroke="#666666" points="439,-225.5 233,-225.5 233,-162.5 439,-162.5 439,-225.5"/>
<text text-anchor="start" x="241" y="-213.5" font-family="Helvetica,sans-Serif" font-size="10.00">MeltPoolDG::Compressible</text>
<text text-anchor="start" x="241" y="-202.5" font-family="Helvetica,sans-Serif" font-size="10.00">Flow::MultiSpeciesMaterialMixin</text>
<text text-anchor="start" x="241" y="-191.5" font-family="Helvetica,sans-Serif" font-size="10.00">&lt; n_species, number, Value::</text>
<text text-anchor="start" x="241" y="-180.5" font-family="Helvetica,sans-Serif" font-size="10.00">value_type, MultiSpeciesDofStateView</text>
<text text-anchor="middle" x="336" y="-169.5" font-family="Helvetica,sans-Serif" font-size="10.00">&lt; dim, n_species, number, Value &gt; &gt;</text>
</a>
</g>
</g>
<!-- Node1&#45;&gt;Node2 -->
<g id="edge1_Node000001_Node000002" class="edge">
<title>Node1&#45;&gt;Node2</title>
<g id="a_edge1_Node000001_Node000002"><a xlink:title=" ">
<path fill="none" stroke="#63b8ff" d="M168.81,-136.62C183.79,-142.14 199.36,-147.8 214,-153 222.78,-156.12 231.93,-159.31 241.11,-162.48"/>
<polygon fill="#63b8ff" stroke="#63b8ff" points="169.66,-133.2 159.07,-133.02 167.23,-139.77 169.66,-133.2"/>
</a>
</g>
</g>
<!-- Node4 -->
<g id="Node000004" class="node">
<title>Node4</title>
<g id="a_Node000004"><a xlink:href="structMeltPoolDG_1_1CompressibleFlow_1_1MultiSpeciesMaterialMixin.html" target="_top" xlink:title=" ">
<polygon fill="white" stroke="#666666" points="458,-144 214,-144 214,-70 458,-70 458,-144"/>
<text text-anchor="start" x="222" y="-132" font-family="Helvetica,sans-Serif" font-size="10.00">MeltPoolDG::Compressible</text>
<text text-anchor="start" x="222" y="-121" font-family="Helvetica,sans-Serif" font-size="10.00">Flow::MultiSpeciesMaterialMixin</text>
<text text-anchor="start" x="222" y="-110" font-family="Helvetica,sans-Serif" font-size="10.00">&lt; n_species, number, Value::</text>
<text text-anchor="start" x="222" y="-99" font-family="Helvetica,sans-Serif" font-size="10.00">value_type, MultiSpeciesDofValueAndGradient</text>
<text text-anchor="start" x="222" y="-88" font-family="Helvetica,sans-Serif" font-size="10.00">StateView&lt; dim, n_species, number, Value,</text>
<text text-anchor="middle" x="336" y="-77" font-family="Helvetica,sans-Serif" font-size="10.00"> Gradient &gt; &gt;</text>
</a>
</g>
</g>
<!-- Node1&#45;&gt;Node4 -->
<g id="edge3_Node000001_Node000004" class="edge">
<title>Node1&#45;&gt;Node4</title>
<g id="a_edge3_Node000001_Node000004"><a xlink:title=" ">
<path fill="none" stroke="#63b8ff" d="M188.32,-107C196.77,-107 205.37,-107 213.97,-107"/>
<polygon fill="#63b8ff" stroke="#63b8ff" points="188.1,-103.5 178.1,-107 188.1,-110.5 188.1,-103.5"/>
</a>
</g>
</g>
<!-- Node6 -->
<g id="Node000006" class="node">
<title>Node6</title>
<g id="a_Node000006"><a xlink:href="structMeltPoolDG_1_1CompressibleFlow_1_1MultiSpeciesMaterialMixin.html" target="_top" xlink:title=" ">
<polygon fill="white" stroke="#666666" points="425,-52 247,-52 247,0 425,0 425,-52"/>
<text text-anchor="start" x="255" y="-40" font-family="Helvetica,sans-Serif" font-size="10.00">MeltPoolDG::Compressible</text>
<text text-anchor="start" x="255" y="-29" font-family="Helvetica,sans-Serif" font-size="10.00">Flow::MultiSpeciesMaterialMixin</text>
<text text-anchor="start" x="255" y="-18" font-family="Helvetica,sans-Serif" font-size="10.00">&lt; n_species, number, ValueType,</text>
<text text-anchor="middle" x="336" y="-7" font-family="Helvetica,sans-Serif" font-size="10.00"> Derived &gt;</text>
</a>
</g>
</g>
<!-- Node1&#45;&gt;Node6 -->
<g id="edge5_Node000001_Node000006" class="edge">
<title>Node1&#45;&gt;Node6</title>
<g id="a_edge5_Node000001_Node000006"><a xlink:title=" ">
<path fill="none" stroke="#63b8ff" d="M167.1,-77.4C182.56,-71.75 198.74,-66.03 214,-61 224.59,-57.51 235.77,-54.02 246.87,-50.67"/>
<polygon fill="#63b8ff" stroke="#63b8ff" points="165.75,-74.16 157.58,-80.9 168.17,-80.73 165.75,-74.16"/>
</a>
</g>
</g>
<!-- Node3 -->
<g id="Node000003" class="node">
<title>Node3</title>
<g id="a_Node000003"><a xlink:href="structMeltPoolDG_1_1CompressibleFlow_1_1MultiSpeciesDofStateView.html" target="_top" xlink:title=" ">
<polygon fill="white" stroke="#666666" points="685,-214.5 497,-214.5 497,-173.5 685,-173.5 685,-214.5"/>
<text text-anchor="start" x="505" y="-202.5" font-family="Helvetica,sans-Serif" font-size="10.00">MeltPoolDG::Compressible</text>
<text text-anchor="start" x="505" y="-191.5" font-family="Helvetica,sans-Serif" font-size="10.00">Flow::MultiSpeciesDofStateView</text>
<text text-anchor="middle" x="591" y="-180.5" font-family="Helvetica,sans-Serif" font-size="10.00">&lt; dim, n_species, number, Value &gt;</text>
</a>
</g>
</g>
<!-- Node2&#45;&gt;Node3 -->
<g id="edge2_Node000002_Node000003" class="edge">
<title>Node2&#45;&gt;Node3</title>
<g id="a_edge2_Node000002_Node000003"><a xlink:title=" ">
<path fill="none" stroke="#63b8ff" d="M449.52,-194C465.33,-194 481.44,-194 496.84,-194"/>
<polygon fill="#63b8ff" stroke="#63b8ff" points="449.18,-190.5 439.18,-194 449.18,-197.5 449.18,-190.5"/>
</a>
</g>
</g>
<!-- Node5 -->
<g id="Node000005" class="node">
<title>Node5</title>
<g id="a_Node000005"><a xlink:href="structMeltPoolDG_1_1CompressibleFlow_1_1MultiSpeciesDofValueAndGradientStateView.html" target="_top" xlink:title=" ">
<polygon fill="white" stroke="#666666" points="688,-133 494,-133 494,-81 688,-81 688,-133"/>
<text text-anchor="start" x="502" y="-121" font-family="Helvetica,sans-Serif" font-size="10.00">MeltPoolDG::Compressible</text>
<text text-anchor="start" x="502" y="-110" font-family="Helvetica,sans-Serif" font-size="10.00">Flow::MultiSpeciesDofValueAnd</text>
<text text-anchor="start" x="502" y="-99" font-family="Helvetica,sans-Serif" font-size="10.00">GradientStateView&lt; dim, n</text>
<text text-anchor="middle" x="591" y="-88" font-family="Helvetica,sans-Serif" font-size="10.00">_species, number, Value, Gradient &gt;</text>
</a>
</g>
</g>
<!-- Node4&#45;&gt;Node5 -->
<g id="edge4_Node000004_Node000005" class="edge">
<title>Node4&#45;&gt;Node5</title>
<g id="a_edge4_Node000004_Node000005"><a xlink:title=" ">
<path fill="none" stroke="#63b8ff" d="M468.38,-107C476.95,-107 485.48,-107 493.84,-107"/>
<polygon fill="#63b8ff" stroke="#63b8ff" points="468.31,-103.5 458.31,-107 468.31,-110.5 468.31,-103.5"/>
</a>
</g>
</g>
</g>
</svg>

<g id="navigator" transform="translate(0 0)" fill="#404254">
  <rect fill="#f2f5e9" fill-opacity="0.5" stroke="#606060" stroke-width=".5" x="0" y="0" width="60" height="60"/>
  <use id="zoomplus" xlink:href="#zoomPlus" x="17" y="9" onmousedown="handleZoom(evt,'in')"/>
  <use id="zoomminus" xlink:href="#zoomMin" x="42" y="9" onmousedown="handleZoom(evt,'out')"/>
  <use id="reset" xlink:href="#resetDef" x="30" y="36" onmousedown="handleReset()"/>
   <use id="arrowup" xlink:href="#arrowUp" x="0" y="0" onmousedown="handlePan(0,-1)"/>
  <use id="arrowright" xlink:href="#arrowRight" x="0" y="0" onmousedown="handlePan(1,0)"/>
  <use id="arrowdown" xlink:href="#arrowDown" x="0" y="0" onmousedown="handlePan(0,1)"/>
  <use id="arrowleft" xlink:href="#arrowLeft" x="0" y="0" onmousedown="handlePan(-1,0)"/>
</g>
<svg viewBox="0 0 15 15" width="100%" height="30px" preserveAspectRatio="xMaxYMin meet">
 <g id="arrow_out" transform="scale(0.3 0.3)">
  <a xlink:href="structMeltPoolDG_1_1SpeciesTransport_1_1EffectiveMaterialMixin__inherit__graph_org.svg" target="_base">
   <rect id="button" ry="5" rx="5" y="6" x="6" height="38" width="38"
        fill="#f2f5e9" fill-opacity="0.5" stroke="#606060" stroke-width="1.0"/>
   <path id="arrow"
     d="M 11.500037,31.436501 C 11.940474,20.09759 22.043105,11.32322 32.158766,21.979434 L 37.068811,17.246167 C 37.068811,17.246167 37.088388,32 37.088388,32 L 22.160133,31.978069 C 22.160133,31.978069 26.997745,27.140456 26.997745,27.140456 C 18.528582,18.264221 13.291696,25.230495 11.500037,31.436501 z"
     style="fill:#404040;"/>
  </a>
 </g>
</svg>

<style type='text/css'>
<![CDATA[
[data-mouse-over-selected='false'] { opacity: 0.7; }
[data-mouse-over-selected='true']  { opacity: 1.0; }
]]>
</style>
<script type="application/ecmascript"><![CDATA[
document.addEventListener('DOMContentLoaded', (event) => {
  highlightEdges();
  highlightAdjacentNodes();
});
]]></script>
</svg>
