<?xml version="1.0" encoding="UTF-8" standalone="no"?>
<!DOCTYPE svg PUBLIC "-//W3C//DTD SVG 1.1//EN"
 "http://www.w3.org/Graphics/SVG/1.1/DTD/svg11.dtd">
<!-- Generated by graphviz version 2.43.0 (0)
 -->
<!-- Title: MeltPoolDG::LevelSet::ReinitializationHyperbolicData&lt; number &gt; Pages: 1 -->
<svg width="539pt" height="167pt"
 viewBox="0.00 0.00 539.00 167.00" xmlns="http://www.w3.org/2000/svg" xmlns:xlink="http://www.w3.org/1999/xlink">
<g id="graph0" class="graph" transform="scale(1 1) rotate(0) translate(4 163)">
<title>MeltPoolDG::LevelSet::ReinitializationHyperbolicData&lt; number &gt;</title>
<!-- Node1 -->
<g id="Node000001" class="node">
<title>Node1</title>
<g id="a_Node000001"><a xlink:title=" ">
<polygon fill="#999999" stroke="#666666" points="531,-100 382,-100 382,-59 531,-59 531,-100"/>
<text text-anchor="start" x="390" y="-88" font-family="Helvetica,sans-Serif" font-size="10.00">MeltPoolDG::LevelSet</text>
<text text-anchor="start" x="390" y="-77" font-family="Helvetica,sans-Serif" font-size="10.00">::ReinitializationHyperbolic</text>
<text text-anchor="middle" x="456.5" y="-66" font-family="Helvetica,sans-Serif" font-size="10.00">Data&lt; number &gt;</text>
</a>
</g>
</g>
<!-- Node2 -->
<g id="Node000002" class="node">
<title>Node2</title>
<g id="a_Node000002"><a xlink:href="structMeltPoolDG_1_1LevelSet_1_1ReinitializationHyperbolicData_1_1PseudoTimeSteppingData.html" target="_top" xlink:title=" ">
<polygon fill="white" stroke="#666666" points="232,-159 0,-159 0,-118 232,-118 232,-159"/>
<text text-anchor="start" x="8" y="-147" font-family="Helvetica,sans-Serif" font-size="10.00">MeltPoolDG::LevelSet</text>
<text text-anchor="start" x="8" y="-136" font-family="Helvetica,sans-Serif" font-size="10.00">::ReinitializationHyperbolic</text>
<text text-anchor="middle" x="116" y="-125" font-family="Helvetica,sans-Serif" font-size="10.00">Data&lt; number &gt;::PseudoTimeSteppingData</text>
</a>
</g>
</g>
<!-- Node2&#45;&gt;Node1 -->
<g id="edge1_Node000001_Node000002" class="edge">
<title>Node2&#45;&gt;Node1</title>
<g id="a_edge1_Node000001_Node000002"><a xlink:title=" ">
<path fill="none" stroke="#9a32cd" stroke-dasharray="5,2" d="M242.03,-116.71C289.06,-108.51 340.99,-99.46 381.86,-92.34"/>
<polygon fill="#9a32cd" stroke="#9a32cd" points="241.32,-113.28 232.07,-118.44 242.53,-120.17 241.32,-113.28"/>
</a>
</g>
<text text-anchor="middle" x="307" y="-116.5" font-family="Helvetica,sans-Serif" font-size="10.00" fill="grey"> pseudo_time_stepping</text>
</g>
<!-- Node3 -->
<g id="Node000003" class="node">
<title>Node3</title>
<g id="a_Node000003"><a xlink:href="structMeltPoolDG_1_1LevelSet_1_1ReinitializationHyperbolicData_1_1CG.html" target="_top" xlink:title=" ">
<polygon fill="white" stroke="#666666" points="190.5,-100 41.5,-100 41.5,-59 190.5,-59 190.5,-100"/>
<text text-anchor="start" x="49.5" y="-88" font-family="Helvetica,sans-Serif" font-size="10.00">MeltPoolDG::LevelSet</text>
<text text-anchor="start" x="49.5" y="-77" font-family="Helvetica,sans-Serif" font-size="10.00">::ReinitializationHyperbolic</text>
<text text-anchor="middle" x="116" y="-66" font-family="Helvetica,sans-Serif" font-size="10.00">Data&lt; number &gt;::CG</text>
</a>
</g>
</g>
<!-- Node3&#45;&gt;Node1 -->
<g id="edge2_Node000001_Node000003" class="edge">
<title>Node3&#45;&gt;Node1</title>
<g id="a_edge2_Node000001_Node000003"><a xlink:title=" ">
<path fill="none" stroke="#9a32cd" stroke-dasharray="5,2" d="M201.03,-79.5C256.51,-79.5 328.54,-79.5 381.79,-79.5"/>
<polygon fill="#9a32cd" stroke="#9a32cd" points="200.87,-76 190.87,-79.5 200.87,-83 200.87,-76"/>
</a>
</g>
<text text-anchor="middle" x="307" y="-82.5" font-family="Helvetica,sans-Serif" font-size="10.00" fill="grey"> cg</text>
</g>
<!-- Node4 -->
<g id="Node000004" class="node">
<title>Node4</title>
<g id="a_Node000004"><a xlink:href="structMeltPoolDG_1_1LevelSet_1_1ReinitializationHyperbolicData_1_1DG.html" target="_top" xlink:title=" ">
<polygon fill="white" stroke="#666666" points="190.5,-41 41.5,-41 41.5,0 190.5,0 190.5,-41"/>
<text text-anchor="start" x="49.5" y="-29" font-family="Helvetica,sans-Serif" font-size="10.00">MeltPoolDG::LevelSet</text>
<text text-anchor="start" x="49.5" y="-18" font-family="Helvetica,sans-Serif" font-size="10.00">::ReinitializationHyperbolic</text>
<text text-anchor="middle" x="116" y="-7" font-family="Helvetica,sans-Serif" font-size="10.00">Data&lt; number &gt;::DG</text>
</a>
</g>
</g>
<!-- Node4&#45;&gt;Node1 -->
<g id="edge3_Node000001_Node000004" class="edge">
<title>Node4&#45;&gt;Node1</title>
<g id="a_edge3_Node000001_Node000004"><a xlink:title=" ">
<path fill="none" stroke="#9a32cd" stroke-dasharray="5,2" d="M201.03,-35.15C256.51,-44.82 328.54,-57.37 381.79,-66.65"/>
<polygon fill="#9a32cd" stroke="#9a32cd" points="201.32,-31.64 190.87,-33.37 200.12,-38.54 201.32,-31.64"/>
</a>
</g>
<text text-anchor="middle" x="307" y="-64.5" font-family="Helvetica,sans-Serif" font-size="10.00" fill="grey"> dg</text>
</g>
</g>
</svg>
