<?xml version="1.0" encoding="UTF-8" standalone="no"?>
<!DOCTYPE svg PUBLIC "-//W3C//DTD SVG 1.1//EN"
 "http://www.w3.org/Graphics/SVG/1.1/DTD/svg11.dtd">
<!-- Generated by graphviz version 2.43.0 (0)
 -->
<!-- Title: MeltPoolDG::Heat::HeatTransferCaseParameters&lt; number &gt; Pages: 1 -->
<!--zoomable 373 -->

<svg id="main" version="1.1" xmlns="http://www.w3.org/2000/svg" xmlns:xlink="http://www.w3.org/1999/xlink" xml:space="preserve" onload="init(evt)">
<style type="text/css"><![CDATA[
.node, .edge {opacity: 0.7;}
.node.selected, .edge.selected {opacity: 1;}
.edge:hover path { stroke: red; }
.edge:hover polygon { stroke: red; fill: red; }
]]></style>

<defs>
  <circle id="rim" cx="0" cy="0" r="7"/>
  <circle id="rim2" cx="0" cy="0" r="3.5"/>
  <g id="zoomPlus">
    <use xlink:href="#rim" fill="#404040"><set attributeName="fill" to="#808080" begin="zoomplus.mouseover" end="zoomplus.mouseout"/></use>
    <path d="M-4,0h8M0,-4v8" fill="none" stroke="white" stroke-width="1.5" pointer-events="none"/>
  </g>
  <g id="zoomMin">
    <use xlink:href="#rim" fill="#404040"><set attributeName="fill" to="#808080" begin="zoomminus.mouseover" end="zoomminus.mouseout"/></use>
    <path d="M-4,0h8" fill="none" stroke="white" stroke-width="1.5" pointer-events="none"/>
  </g>
  <g id="arrowUp" transform="translate(30 24)">
    <use xlink:href="#rim"/>
    <path pointer-events="none" fill="none" stroke="white" stroke-width="1.5" d="M0,-3.0v7 M-2.5,-0.5L0,-3.0L2.5,-0.5"/>
  </g>
  <g id="arrowRight" transform="rotate(90) translate(36 -43)">
    <use xlink:href="#rim"/>
    <path pointer-events="none" fill="none" stroke="white" stroke-width="1.5" d="M0,-3.0v7 M-2.5,-0.5L0,-3.0L2.5,-0.5"/>
  </g>
  <g id="arrowDown" transform="rotate(180) translate(-30 -48)">
    <use xlink:href="#rim"/>
    <path pointer-events="none" fill="none" stroke="white" stroke-width="1.5" d="M0,-3.0v7 M-2.5,-0.5L0,-3.0L2.5,-0.5"/>
  </g>
  <g id="arrowLeft" transform="rotate(270) translate(-36 17)">
    <use xlink:href="#rim"/>
    <path pointer-events="none" fill="none" stroke="white" stroke-width="1.5" d="M0,-3.0v7 M-2.5,-0.5L0,-3.0L2.5,-0.5"/>
  </g>
  <g id="resetDef">
    <use xlink:href="#rim2" fill="#404040"><set attributeName="fill" to="#808080" begin="reset.mouseover" end="reset.mouseout"/></use>
  </g>
</defs>
<script type="application/ecmascript">
var viewWidth = 668;
var viewHeight = 373;
var sectionId = 'dynsection-1';
</script>
<script type="application/ecmascript" xlink:href="svg.min.js"/>
<svg id="graph" class="graph">
<g id="viewport">
<title>MeltPoolDG::Heat::HeatTransferCaseParameters&lt; number &gt;</title>
<!-- Node1 -->
<g id="Node000001" class="node">
<title>Node1</title>
<g id="a_Node000001"><a xlink:title=" ">
<polygon fill="#999999" stroke="#666666" points="660,-267 488,-267 488,-237 660,-237 660,-267"/>
<text text-anchor="start" x="496" y="-255" font-family="Helvetica,sans-Serif" font-size="10.00">MeltPoolDG::Heat::HeatTransfer</text>
<text text-anchor="middle" x="574" y="-244" font-family="Helvetica,sans-Serif" font-size="10.00">CaseParameters&lt; number &gt;</text>
</a>
</g>
</g>
<!-- Node2 -->
<g id="Node000002" class="node">
<title>Node2</title>
<g id="a_Node000002"><a xlink:href="structMeltPoolDG_1_1ParametersBase.html" target="_top" xlink:title="Abstract base class for managing parameter files.">
<polygon fill="white" stroke="#666666" points="424,-318.5 264,-318.5 264,-299.5 424,-299.5 424,-318.5"/>
<text text-anchor="middle" x="344" y="-306.5" font-family="Helvetica,sans-Serif" font-size="10.00">MeltPoolDG::ParametersBase</text>
</a>
</g>
</g>
<!-- Node2&#45;&gt;Node1 -->
<g id="edge1_Node000001_Node000002" class="edge">
<title>Node2&#45;&gt;Node1</title>
<g id="a_edge1_Node000001_Node000002"><a xlink:title=" ">
<path fill="none" stroke="#63b8ff" d="M398.13,-297.14C406.79,-295.14 415.65,-293.04 424,-291 454.91,-283.44 489.28,-274.48 517.21,-267.05"/>
<polygon fill="#63b8ff" stroke="#63b8ff" points="397.07,-293.79 388.11,-299.44 398.64,-300.61 397.07,-293.79"/>
</a>
</g>
</g>
<!-- Node3 -->
<g id="Node000003" class="node">
<title>Node3</title>
<g id="a_Node000003"><a xlink:href="structMeltPoolDG_1_1BaseData.html" target="_top" xlink:title=" ">
<polygon fill="white" stroke="#666666" points="408,-281.5 280,-281.5 280,-262.5 408,-262.5 408,-281.5"/>
<text text-anchor="middle" x="344" y="-269.5" font-family="Helvetica,sans-Serif" font-size="10.00">MeltPoolDG::BaseData</text>
</a>
</g>
</g>
<!-- Node3&#45;&gt;Node1 -->
<g id="edge2_Node000001_Node000003" class="edge">
<title>Node3&#45;&gt;Node1</title>
<g id="a_edge2_Node000001_Node000003"><a xlink:title=" ">
<path fill="none" stroke="#9a32cd" stroke-dasharray="5,2" d="M418.22,-265.58C440.42,-263.63 464.98,-261.48 487.89,-259.47"/>
<polygon fill="#9a32cd" stroke="#9a32cd" points="417.86,-262.09 408.21,-266.46 418.48,-269.07 417.86,-262.09"/>
</a>
</g>
<text text-anchor="middle" x="456" y="-266" font-family="Helvetica,sans-Serif" font-size="10.00" fill="grey"> base</text>
</g>
<!-- Node4 -->
<g id="Node000004" class="node">
<title>Node4</title>
<g id="a_Node000004"><a xlink:href="structMeltPoolDG_1_1FiniteElementData.html" target="_top" xlink:title=" ">
<polygon fill="white" stroke="#666666" points="171,-360.5 0,-360.5 0,-341.5 171,-341.5 171,-360.5"/>
<text text-anchor="middle" x="85.5" y="-348.5" font-family="Helvetica,sans-Serif" font-size="10.00">MeltPoolDG::FiniteElementData</text>
</a>
</g>
</g>
<!-- Node4&#45;&gt;Node3 -->
<g id="edge3_Node000003_Node000004" class="edge">
<title>Node4&#45;&gt;Node3</title>
<g id="a_edge3_Node000003_Node000004"><a xlink:title=" ">
<path fill="none" stroke="#9a32cd" stroke-dasharray="5,2" d="M181.3,-355.55C204.24,-352.58 227.46,-345.74 246,-332 261.99,-320.15 248.73,-303.77 264,-291 268.76,-287.02 274.22,-283.84 279.99,-281.32"/>
<polygon fill="#9a32cd" stroke="#9a32cd" points="180.73,-352.09 171.15,-356.63 181.47,-359.05 180.73,-352.09"/>
</a>
</g>
<text text-anchor="middle" x="217.5" y="-357" font-family="Helvetica,sans-Serif" font-size="10.00" fill="grey"> fe</text>
</g>
<!-- Node5 -->
<g id="Node000005" class="node">
<title>Node5</title>
<g id="a_Node000005"><a xlink:href="structMeltPoolDG_1_1Heat_1_1HeatData.html" target="_top" xlink:title=" ">
<polygon fill="white" stroke="#666666" points="422,-244 266,-244 266,-214 422,-214 422,-244"/>
<text text-anchor="start" x="274" y="-232" font-family="Helvetica,sans-Serif" font-size="10.00">MeltPoolDG::Heat::HeatData</text>
<text text-anchor="middle" x="344" y="-221" font-family="Helvetica,sans-Serif" font-size="10.00">&lt; number &gt;</text>
</a>
</g>
</g>
<!-- Node4&#45;&gt;Node5 -->
<g id="edge10_Node000005_Node000004" class="edge">
<title>Node4&#45;&gt;Node5</title>
<g id="a_edge10_Node000005_Node000004"><a xlink:title=" ">
<path fill="none" stroke="#9a32cd" stroke-dasharray="5,2" d="M135.4,-338.74C147.19,-335.34 159.66,-331.37 171,-327 175.34,-325.33 242.71,-293.28 246,-290 258.68,-277.38 250.4,-265.62 264,-254 268.49,-250.17 273.56,-246.92 278.92,-244.18"/>
<polygon fill="#9a32cd" stroke="#9a32cd" points="134.37,-335.39 125.69,-341.46 136.26,-342.13 134.37,-335.39"/>
</a>
</g>
<text text-anchor="middle" x="217.5" y="-321" font-family="Helvetica,sans-Serif" font-size="10.00" fill="grey"> fe</text>
</g>
<!-- Node5&#45;&gt;Node1 -->
<g id="edge4_Node000001_Node000005" class="edge">
<title>Node5&#45;&gt;Node1</title>
<g id="a_edge4_Node000001_Node000005"><a xlink:title=" ">
<path fill="none" stroke="#9a32cd" stroke-dasharray="5,2" d="M432.19,-237.8C450.38,-239.63 469.54,-241.56 487.67,-243.39"/>
<polygon fill="#9a32cd" stroke="#9a32cd" points="432.49,-234.31 422.19,-236.79 431.79,-241.27 432.49,-234.31"/>
</a>
</g>
<text text-anchor="middle" x="456" y="-244" font-family="Helvetica,sans-Serif" font-size="10.00" fill="grey"> heat</text>
</g>
<!-- Node6 -->
<g id="Node000006" class="node">
<title>Node6</title>
<g id="a_Node000006"><a xlink:href="structMeltPoolDG_1_1Heat_1_1HeatData_1_1Diffuse.html" target="_top" xlink:title=" ">
<polygon fill="white" stroke="#666666" points="163.5,-318 7.5,-318 7.5,-288 163.5,-288 163.5,-318"/>
<text text-anchor="start" x="15.5" y="-306" font-family="Helvetica,sans-Serif" font-size="10.00">MeltPoolDG::Heat::HeatData</text>
<text text-anchor="middle" x="85.5" y="-295" font-family="Helvetica,sans-Serif" font-size="10.00">&lt; number &gt;::Diffuse</text>
</a>
</g>
</g>
<!-- Node6&#45;&gt;Node5 -->
<g id="edge5_Node000005_Node000006" class="edge">
<title>Node6&#45;&gt;Node5</title>
<g id="a_edge5_Node000005_Node000006"><a xlink:title=" ">
<path fill="none" stroke="#9a32cd" stroke-dasharray="5,2" d="M152.65,-285.24C181.39,-277.4 215.42,-267.94 246,-259 262.07,-254.3 279.57,-248.96 295.23,-244.09"/>
<polygon fill="#9a32cd" stroke="#9a32cd" points="151.45,-281.94 142.72,-287.94 153.29,-288.7 151.45,-281.94"/>
</a>
</g>
<text text-anchor="middle" x="217.5" y="-278" font-family="Helvetica,sans-Serif" font-size="10.00" fill="grey"> diffuse</text>
</g>
<!-- Node7 -->
<g id="Node000007" class="node">
<title>Node7</title>
<g id="a_Node000007"><a xlink:href="structMeltPoolDG_1_1Heat_1_1HeatData_1_1Cut.html" target="_top" xlink:title=" ">
<polygon fill="white" stroke="#666666" points="163.5,-270 7.5,-270 7.5,-240 163.5,-240 163.5,-270"/>
<text text-anchor="start" x="15.5" y="-258" font-family="Helvetica,sans-Serif" font-size="10.00">MeltPoolDG::Heat::HeatData</text>
<text text-anchor="middle" x="85.5" y="-247" font-family="Helvetica,sans-Serif" font-size="10.00">&lt; number &gt;::Cut</text>
</a>
</g>
</g>
<!-- Node7&#45;&gt;Node5 -->
<g id="edge6_Node000005_Node000007" class="edge">
<title>Node7&#45;&gt;Node5</title>
<g id="a_edge6_Node000005_Node000007"><a xlink:title=" ">
<path fill="none" stroke="#9a32cd" stroke-dasharray="5,2" d="M173.8,-246.15C203.67,-243.12 236.84,-239.76 265.85,-236.82"/>
<polygon fill="#9a32cd" stroke="#9a32cd" points="173.4,-242.67 163.81,-247.16 174.11,-249.64 173.4,-242.67"/>
</a>
</g>
<text text-anchor="middle" x="217.5" y="-247" font-family="Helvetica,sans-Serif" font-size="10.00" fill="grey"> cut</text>
</g>
<!-- Node8 -->
<g id="Node000008" class="node">
<title>Node8</title>
<g id="a_Node000008"><a xlink:href="structMeltPoolDG_1_1Heat_1_1HeatData_1_1RadiationBC.html" target="_top" xlink:title=" ">
<polygon fill="white" stroke="#666666" points="163.5,-222 7.5,-222 7.5,-192 163.5,-192 163.5,-222"/>
<text text-anchor="start" x="15.5" y="-210" font-family="Helvetica,sans-Serif" font-size="10.00">MeltPoolDG::Heat::HeatData</text>
<text text-anchor="middle" x="85.5" y="-199" font-family="Helvetica,sans-Serif" font-size="10.00">&lt; number &gt;::RadiationBC</text>
</a>
</g>
</g>
<!-- Node8&#45;&gt;Node5 -->
<g id="edge7_Node000005_Node000008" class="edge">
<title>Node8&#45;&gt;Node5</title>
<g id="a_edge7_Node000005_Node000008"><a xlink:title=" ">
<path fill="none" stroke="#9a32cd" stroke-dasharray="5,2" d="M173.87,-213.14C197.31,-214.9 222.63,-216.92 246,-219 252.49,-219.58 259.23,-220.21 265.98,-220.86"/>
<polygon fill="#9a32cd" stroke="#9a32cd" points="173.84,-209.62 163.61,-212.37 173.32,-216.6 173.84,-209.62"/>
</a>
</g>
<text text-anchor="middle" x="217.5" y="-222" font-family="Helvetica,sans-Serif" font-size="10.00" fill="grey"> radiation</text>
</g>
<!-- Node9 -->
<g id="Node000009" class="node">
<title>Node9</title>
<g id="a_Node000009"><a xlink:href="structMeltPoolDG_1_1Heat_1_1HeatData_1_1ConvectionBC.html" target="_top" xlink:title=" ">
<polygon fill="white" stroke="#666666" points="163.5,-174 7.5,-174 7.5,-144 163.5,-144 163.5,-174"/>
<text text-anchor="start" x="15.5" y="-162" font-family="Helvetica,sans-Serif" font-size="10.00">MeltPoolDG::Heat::HeatData</text>
<text text-anchor="middle" x="85.5" y="-151" font-family="Helvetica,sans-Serif" font-size="10.00">&lt; number &gt;::ConvectionBC</text>
</a>
</g>
</g>
<!-- Node9&#45;&gt;Node5 -->
<g id="edge8_Node000005_Node000009" class="edge">
<title>Node9&#45;&gt;Node5</title>
<g id="a_edge8_Node000005_Node000009"><a xlink:title=" ">
<path fill="none" stroke="#9a32cd" stroke-dasharray="5,2" d="M159.79,-176.5C186.95,-183.21 217.96,-191.16 246,-199 262.47,-203.61 280.38,-209.03 296.28,-213.99"/>
<polygon fill="#9a32cd" stroke="#9a32cd" points="160.51,-173.07 149.97,-174.08 158.84,-179.87 160.51,-173.07"/>
</a>
</g>
<text text-anchor="middle" x="217.5" y="-202" font-family="Helvetica,sans-Serif" font-size="10.00" fill="grey"> convection</text>
</g>
<!-- Node10 -->
<g id="Node000010" class="node">
<title>Node10</title>
<g id="a_Node000010"><a xlink:href="structMeltPoolDG_1_1NonlinearSolverData.html" target="_top" xlink:title=" ">
<polygon fill="white" stroke="#666666" points="164.5,-126 6.5,-126 6.5,-96 164.5,-96 164.5,-126"/>
<text text-anchor="start" x="14.5" y="-114" font-family="Helvetica,sans-Serif" font-size="10.00">MeltPoolDG::NonlinearSolver</text>
<text text-anchor="middle" x="85.5" y="-103" font-family="Helvetica,sans-Serif" font-size="10.00">Data&lt; number &gt;</text>
</a>
</g>
</g>
<!-- Node10&#45;&gt;Node5 -->
<g id="edge9_Node000005_Node000010" class="edge">
<title>Node10&#45;&gt;Node5</title>
<g id="a_edge9_Node000005_Node000010"><a xlink:title=" ">
<path fill="none" stroke="#9a32cd" stroke-dasharray="5,2" d="M153.62,-129.14C159.53,-131.02 165.39,-132.98 171,-135 205.26,-147.34 213.83,-150.93 246,-168 272.71,-182.18 301.9,-201.02 321.2,-214"/>
<polygon fill="#9a32cd" stroke="#9a32cd" points="154.25,-125.68 143.66,-126.08 152.18,-132.37 154.25,-125.68"/>
</a>
</g>
<text text-anchor="middle" x="217.5" y="-171" font-family="Helvetica,sans-Serif" font-size="10.00" fill="grey"> nlsolve</text>
</g>
<!-- Node11 -->
<g id="Node000011" class="node">
<title>Node11</title>
<g id="a_Node000011"><a xlink:href="structMeltPoolDG_1_1Heat_1_1LaserData.html" target="_top" xlink:title=" ">
<polygon fill="white" stroke="#666666" points="423.5,-78 264.5,-78 264.5,-48 423.5,-48 423.5,-78"/>
<text text-anchor="start" x="272.5" y="-66" font-family="Helvetica,sans-Serif" font-size="10.00">MeltPoolDG::Heat::LaserData</text>
<text text-anchor="middle" x="344" y="-55" font-family="Helvetica,sans-Serif" font-size="10.00">&lt; number &gt;</text>
</a>
</g>
</g>
<!-- Node11&#45;&gt;Node1 -->
<g id="edge11_Node000001_Node000011" class="edge">
<title>Node11&#45;&gt;Node1</title>
<g id="a_edge11_Node000001_Node000011"><a xlink:title=" ">
<path fill="none" stroke="#9a32cd" stroke-dasharray="5,2" d="M371.11,-84.65C417.76,-123.31 514.29,-203.33 554.64,-236.78"/>
<polygon fill="#9a32cd" stroke="#9a32cd" points="373.21,-81.83 363.27,-78.15 368.74,-87.22 373.21,-81.83"/>
</a>
</g>
<text text-anchor="middle" x="456" y="-166" font-family="Helvetica,sans-Serif" font-size="10.00" fill="grey"> laser</text>
</g>
<!-- Node12 -->
<g id="Node000012" class="node">
<title>Node12</title>
<g id="a_Node000012"><a xlink:href="structMeltPoolDG_1_1Heat_1_1LaserData_1_1GusarovData.html" target="_top" xlink:title=" ">
<polygon fill="white" stroke="#666666" points="165,-78 6,-78 6,-48 165,-48 165,-78"/>
<text text-anchor="start" x="14" y="-66" font-family="Helvetica,sans-Serif" font-size="10.00">MeltPoolDG::Heat::LaserData</text>
<text text-anchor="middle" x="85.5" y="-55" font-family="Helvetica,sans-Serif" font-size="10.00">&lt; number &gt;::GusarovData</text>
</a>
</g>
</g>
<!-- Node12&#45;&gt;Node11 -->
<g id="edge12_Node000011_Node000012" class="edge">
<title>Node12&#45;&gt;Node11</title>
<g id="a_edge12_Node000011_Node000012"><a xlink:title=" ">
<path fill="none" stroke="#9a32cd" stroke-dasharray="5,2" d="M175.32,-63C204.31,-63 236.27,-63 264.45,-63"/>
<polygon fill="#9a32cd" stroke="#9a32cd" points="175.2,-59.5 165.2,-63 175.2,-66.5 175.2,-59.5"/>
</a>
</g>
<text text-anchor="middle" x="217.5" y="-66" font-family="Helvetica,sans-Serif" font-size="10.00" fill="grey"> gusarov</text>
</g>
<!-- Node13 -->
<g id="Node000013" class="node">
<title>Node13</title>
<g id="a_Node000013"><a xlink:href="structMeltPoolDG_1_1Heat_1_1LaserData_1_1AnalyticalData.html" target="_top" xlink:title=" ">
<polygon fill="white" stroke="#666666" points="165,-30 6,-30 6,0 165,0 165,-30"/>
<text text-anchor="start" x="14" y="-18" font-family="Helvetica,sans-Serif" font-size="10.00">MeltPoolDG::Heat::LaserData</text>
<text text-anchor="middle" x="85.5" y="-7" font-family="Helvetica,sans-Serif" font-size="10.00">&lt; number &gt;::AnalyticalData</text>
</a>
</g>
</g>
<!-- Node13&#45;&gt;Node11 -->
<g id="edge13_Node000011_Node000013" class="edge">
<title>Node13&#45;&gt;Node11</title>
<g id="a_edge13_Node000011_Node000013"><a xlink:title=" ">
<path fill="none" stroke="#9a32cd" stroke-dasharray="5,2" d="M175.32,-31.62C204.31,-37.05 236.27,-43.03 264.45,-48.3"/>
<polygon fill="#9a32cd" stroke="#9a32cd" points="175.67,-28.13 165.2,-29.73 174.39,-35.01 175.67,-28.13"/>
</a>
</g>
<text text-anchor="middle" x="217.5" y="-48" font-family="Helvetica,sans-Serif" font-size="10.00" fill="grey"> analytical</text>
</g>
</g>
</svg>

<g id="navigator" transform="translate(0 0)" fill="#404254">
  <rect fill="#f2f5e9" fill-opacity="0.5" stroke="#606060" stroke-width=".5" x="0" y="0" width="60" height="60"/>
  <use id="zoomplus" xlink:href="#zoomPlus" x="17" y="9" onmousedown="handleZoom(evt,'in')"/>
  <use id="zoomminus" xlink:href="#zoomMin" x="42" y="9" onmousedown="handleZoom(evt,'out')"/>
  <use id="reset" xlink:href="#resetDef" x="30" y="36" onmousedown="handleReset()"/>
   <use id="arrowup" xlink:href="#arrowUp" x="0" y="0" onmousedown="handlePan(0,-1)"/>
  <use id="arrowright" xlink:href="#arrowRight" x="0" y="0" onmousedown="handlePan(1,0)"/>
  <use id="arrowdown" xlink:href="#arrowDown" x="0" y="0" onmousedown="handlePan(0,1)"/>
  <use id="arrowleft" xlink:href="#arrowLeft" x="0" y="0" onmousedown="handlePan(-1,0)"/>
</g>
<svg viewBox="0 0 15 15" width="100%" height="30px" preserveAspectRatio="xMaxYMin meet">
 <g id="arrow_out" transform="scale(0.3 0.3)">
  <a xlink:href="structMeltPoolDG_1_1Heat_1_1HeatTransferCaseParameters__coll__graph_org.svg" target="_base">
   <rect id="button" ry="5" rx="5" y="6" x="6" height="38" width="38"
        fill="#f2f5e9" fill-opacity="0.5" stroke="#606060" stroke-width="1.0"/>
   <path id="arrow"
     d="M 11.500037,31.436501 C 11.940474,20.09759 22.043105,11.32322 32.158766,21.979434 L 37.068811,17.246167 C 37.068811,17.246167 37.088388,32 37.088388,32 L 22.160133,31.978069 C 22.160133,31.978069 26.997745,27.140456 26.997745,27.140456 C 18.528582,18.264221 13.291696,25.230495 11.500037,31.436501 z"
     style="fill:#404040;"/>
  </a>
 </g>
</svg>

<style type='text/css'>
<![CDATA[
[data-mouse-over-selected='false'] { opacity: 0.7; }
[data-mouse-over-selected='true']  { opacity: 1.0; }
]]>
</style>
<script type="application/ecmascript"><![CDATA[
document.addEventListener('DOMContentLoaded', (event) => {
  highlightEdges();
  highlightAdjacentNodes();
});
]]></script>
</svg>
