<?xml version="1.0" encoding="UTF-8" standalone="no"?>
<!DOCTYPE svg PUBLIC "-//W3C//DTD SVG 1.1//EN"
 "http://www.w3.org/Graphics/SVG/1.1/DTD/svg11.dtd">
<!-- Generated by graphviz version 2.43.0 (0)
 -->
<!-- Title: MeltPoolDG::OutputData&lt; number &gt; Pages: 1 -->
<svg width="348pt" height="104pt"
 viewBox="0.00 0.00 347.50 104.00" xmlns="http://www.w3.org/2000/svg" xmlns:xlink="http://www.w3.org/1999/xlink">
<g id="graph0" class="graph" transform="scale(1 1) rotate(0) translate(4 100)">
<title>MeltPoolDG::OutputData&lt; number &gt;</title>
<!-- Node1 -->
<g id="Node000001" class="node">
<title>Node1</title>
<g id="a_Node000001"><a xlink:title=" ">
<polygon fill="#999999" stroke="#666666" points="231.5,-30 94.5,-30 94.5,0 231.5,0 231.5,-30"/>
<text text-anchor="start" x="102.5" y="-18" font-family="Helvetica,sans-Serif" font-size="10.00">MeltPoolDG::OutputData</text>
<text text-anchor="middle" x="163" y="-7" font-family="Helvetica,sans-Serif" font-size="10.00">&lt; number &gt;</text>
</a>
</g>
</g>
<!-- Node2 -->
<g id="Node000002" class="node">
<title>Node2</title>
<g id="a_Node000002"><a xlink:href="structMeltPoolDG_1_1ParaviewData.html" target="_top" xlink:title=" ">
<polygon fill="white" stroke="#666666" points="148,-96 0,-96 0,-77 148,-77 148,-96"/>
<text text-anchor="middle" x="74" y="-84" font-family="Helvetica,sans-Serif" font-size="10.00">MeltPoolDG::ParaviewData</text>
</a>
</g>
</g>
<!-- Node2&#45;&gt;Node1 -->
<g id="edge1_Node000001_Node000002" class="edge">
<title>Node2&#45;&gt;Node1</title>
<g id="a_edge1_Node000001_Node000002"><a xlink:title=" ">
<path fill="none" stroke="#9a32cd" stroke-dasharray="5,2" d="M93.15,-70.54C108.49,-58.57 129.85,-41.89 144.9,-30.14"/>
<polygon fill="#9a32cd" stroke="#9a32cd" points="90.64,-68.06 84.91,-76.98 94.95,-73.58 90.64,-68.06"/>
</a>
</g>
<text text-anchor="middle" x="146.5" y="-51" font-family="Helvetica,sans-Serif" font-size="10.00" fill="grey"> paraview</text>
</g>
<!-- Node3 -->
<g id="Node000003" class="node">
<title>Node3</title>
<g id="a_Node000003"><a xlink:href="structMeltPoolDG_1_1ParticleOutputData.html" target="_top" xlink:title=" ">
<polygon fill="white" stroke="#666666" points="339.5,-96 166.5,-96 166.5,-77 339.5,-77 339.5,-96"/>
<text text-anchor="middle" x="253" y="-84" font-family="Helvetica,sans-Serif" font-size="10.00">MeltPoolDG::ParticleOutputData</text>
</a>
</g>
</g>
<!-- Node3&#45;&gt;Node1 -->
<g id="edge2_Node000001_Node000003" class="edge">
<title>Node3&#45;&gt;Node1</title>
<g id="a_edge2_Node000001_Node000003"><a xlink:title=" ">
<path fill="none" stroke="#9a32cd" stroke-dasharray="5,2" d="M233.63,-70.54C218.13,-58.57 196.53,-41.89 181.31,-30.14"/>
<polygon fill="#9a32cd" stroke="#9a32cd" points="231.91,-73.64 241.96,-76.98 236.19,-68.1 231.91,-73.64"/>
</a>
</g>
<text text-anchor="middle" x="236" y="-51" font-family="Helvetica,sans-Serif" font-size="10.00" fill="grey"> particle</text>
</g>
</g>
</svg>
