<?xml version="1.0" encoding="UTF-8" standalone="no"?>
<!DOCTYPE svg PUBLIC "-//W3C//DTD SVG 1.1//EN"
 "http://www.w3.org/Graphics/SVG/1.1/DTD/svg11.dtd">
<!-- Generated by graphviz version 2.43.0 (0)
 -->
<!-- Title: MeltPoolDG::LevelSet::LevelSetData&lt; number &gt; Pages: 1 -->
<svg width="506pt" height="86pt"
 viewBox="0.00 0.00 506.00 86.00" xmlns="http://www.w3.org/2000/svg" xmlns:xlink="http://www.w3.org/1999/xlink">
<g id="graph0" class="graph" transform="scale(1 1) rotate(0) translate(4 82)">
<title>MeltPoolDG::LevelSet::LevelSetData&lt; number &gt;</title>
<!-- Node1 -->
<g id="Node000001" class="node">
<title>Node1</title>
<g id="a_Node000001"><a xlink:title=" ">
<polygon fill="#999999" stroke="#666666" points="498,-59.5 350,-59.5 350,-29.5 498,-29.5 498,-59.5"/>
<text text-anchor="start" x="358" y="-47.5" font-family="Helvetica,sans-Serif" font-size="10.00">MeltPoolDG::LevelSet</text>
<text text-anchor="middle" x="424" y="-36.5" font-family="Helvetica,sans-Serif" font-size="10.00">::LevelSetData&lt; number &gt;</text>
</a>
</g>
</g>
<!-- Node2 -->
<g id="Node000002" class="node">
<title>Node2</title>
<g id="a_Node000002"><a xlink:href="structMeltPoolDG_1_1FiniteElementData.html" target="_top" xlink:title=" ">
<polygon fill="white" stroke="#666666" points="174,-78 3,-78 3,-59 174,-59 174,-78"/>
<text text-anchor="middle" x="88.5" y="-66" font-family="Helvetica,sans-Serif" font-size="10.00">MeltPoolDG::FiniteElementData</text>
</a>
</g>
</g>
<!-- Node2&#45;&gt;Node1 -->
<g id="edge1_Node000001_Node000002" class="edge">
<title>Node2&#45;&gt;Node1</title>
<g id="a_edge1_Node000001_Node000002"><a xlink:title=" ">
<path fill="none" stroke="#9a32cd" stroke-dasharray="5,2" d="M184.1,-61.69C236.69,-57.91 301.13,-53.27 349.83,-49.77"/>
<polygon fill="#9a32cd" stroke="#9a32cd" points="183.81,-58.2 174.09,-62.41 184.31,-65.19 183.81,-58.2"/>
</a>
</g>
<text text-anchor="middle" x="263.5" y="-63.5" font-family="Helvetica,sans-Serif" font-size="10.00" fill="grey"> fe</text>
</g>
<!-- Node3 -->
<g id="Node000003" class="node">
<title>Node3</title>
<g id="a_Node000003"><a xlink:href="structMeltPoolDG_1_1LevelSet_1_1LevelSetData_1_1ReinitilizationDGSpecificData.html" target="_top" xlink:title=" ">
<polygon fill="white" stroke="#666666" points="177,-41 0,-41 0,0 177,0 177,-41"/>
<text text-anchor="start" x="8" y="-29" font-family="Helvetica,sans-Serif" font-size="10.00">MeltPoolDG::LevelSet</text>
<text text-anchor="start" x="8" y="-18" font-family="Helvetica,sans-Serif" font-size="10.00">::LevelSetData&lt; number</text>
<text text-anchor="middle" x="88.5" y="-7" font-family="Helvetica,sans-Serif" font-size="10.00"> &gt;::ReinitilizationDGSpecificData</text>
</a>
</g>
</g>
<!-- Node3&#45;&gt;Node1 -->
<g id="edge2_Node000001_Node000003" class="edge">
<title>Node3&#45;&gt;Node1</title>
<g id="a_edge2_Node000001_Node000003"><a xlink:title=" ">
<path fill="none" stroke="#9a32cd" stroke-dasharray="5,2" d="M187.25,-26.46C231.47,-29.29 284.39,-32.84 332,-36.5 337.85,-36.95 343.91,-37.44 350,-37.94"/>
<polygon fill="#9a32cd" stroke="#9a32cd" points="187.29,-22.96 177.08,-25.82 186.84,-29.94 187.29,-22.96"/>
</a>
</g>
<text text-anchor="middle" x="263.5" y="-39.5" font-family="Helvetica,sans-Serif" font-size="10.00" fill="grey"> level_set_DG_specific_data</text>
</g>
</g>
</svg>
