<?xml version="1.0" encoding="UTF-8" standalone="no"?>
<!DOCTYPE svg PUBLIC "-//W3C//DTD SVG 1.1//EN"
 "http://www.w3.org/Graphics/SVG/1.1/DTD/svg11.dtd">
<!-- Generated by graphviz version 2.43.0 (0)
 -->
<!-- Title: MeltPoolDG::RadiativeTransport::RadiativeTransportCaseParameters&lt; number &gt; Pages: 1 -->
<svg width="685pt" height="161pt"
 viewBox="0.00 0.00 685.00 160.50" xmlns="http://www.w3.org/2000/svg" xmlns:xlink="http://www.w3.org/1999/xlink">
<g id="graph0" class="graph" transform="scale(1 1) rotate(0) translate(4 156.5)">
<title>MeltPoolDG::RadiativeTransport::RadiativeTransportCaseParameters&lt; number &gt;</title>
<!-- Node1 -->
<g id="Node000001" class="node">
<title>Node1</title>
<g id="a_Node000001"><a xlink:title=" ">
<polygon fill="#999999" stroke="#666666" points="677,-126.5 483,-126.5 483,-85.5 677,-85.5 677,-126.5"/>
<text text-anchor="start" x="491" y="-114.5" font-family="Helvetica,sans-Serif" font-size="10.00">MeltPoolDG::RadiativeTransport</text>
<text text-anchor="start" x="491" y="-103.5" font-family="Helvetica,sans-Serif" font-size="10.00">::RadiativeTransportCaseParameters</text>
<text text-anchor="middle" x="580" y="-92.5" font-family="Helvetica,sans-Serif" font-size="10.00">&lt; number &gt;</text>
</a>
</g>
</g>
<!-- Node2 -->
<g id="Node000002" class="node">
<title>Node2</title>
<g id="a_Node000002"><a xlink:href="structMeltPoolDG_1_1ParametersBase.html" target="_top" xlink:title="Abstract base class for managing parameter files.">
<polygon fill="white" stroke="#666666" points="419,-152.5 259,-152.5 259,-133.5 419,-133.5 419,-152.5"/>
<text text-anchor="middle" x="339" y="-140.5" font-family="Helvetica,sans-Serif" font-size="10.00">MeltPoolDG::ParametersBase</text>
</a>
</g>
</g>
<!-- Node2&#45;&gt;Node1 -->
<g id="edge1_Node000001_Node000002" class="edge">
<title>Node2&#45;&gt;Node1</title>
<g id="a_edge1_Node000001_Node000002"><a xlink:title=" ">
<path fill="none" stroke="#63b8ff" d="M411.63,-131.91C434.01,-128.45 459.08,-124.56 482.87,-120.88"/>
<polygon fill="#63b8ff" stroke="#63b8ff" points="410.9,-128.48 401.55,-133.47 411.97,-135.4 410.9,-128.48"/>
</a>
</g>
</g>
<!-- Node3 -->
<g id="Node000003" class="node">
<title>Node3</title>
<g id="a_Node000003"><a xlink:href="structMeltPoolDG_1_1BaseData.html" target="_top" xlink:title=" ">
<polygon fill="white" stroke="#666666" points="403,-115.5 275,-115.5 275,-96.5 403,-96.5 403,-115.5"/>
<text text-anchor="middle" x="339" y="-103.5" font-family="Helvetica,sans-Serif" font-size="10.00">MeltPoolDG::BaseData</text>
</a>
</g>
</g>
<!-- Node3&#45;&gt;Node1 -->
<g id="edge2_Node000001_Node000003" class="edge">
<title>Node3&#45;&gt;Node1</title>
<g id="a_edge2_Node000001_Node000003"><a xlink:title=" ">
<path fill="none" stroke="#9a32cd" stroke-dasharray="5,2" d="M413.3,-106C435.18,-106 459.5,-106 482.62,-106"/>
<polygon fill="#9a32cd" stroke="#9a32cd" points="413.11,-102.5 403.11,-106 413.11,-109.5 413.11,-102.5"/>
</a>
</g>
<text text-anchor="middle" x="451" y="-109" font-family="Helvetica,sans-Serif" font-size="10.00" fill="grey"> base</text>
</g>
<!-- Node4 -->
<g id="Node000004" class="node">
<title>Node4</title>
<g id="a_Node000004"><a xlink:href="structMeltPoolDG_1_1FiniteElementData.html" target="_top" xlink:title=" ">
<polygon fill="white" stroke="#666666" points="171,-115.5 0,-115.5 0,-96.5 171,-96.5 171,-115.5"/>
<text text-anchor="middle" x="85.5" y="-103.5" font-family="Helvetica,sans-Serif" font-size="10.00">MeltPoolDG::FiniteElementData</text>
</a>
</g>
</g>
<!-- Node4&#45;&gt;Node3 -->
<g id="edge3_Node000003_Node000004" class="edge">
<title>Node4&#45;&gt;Node3</title>
<g id="a_edge3_Node000003_Node000004"><a xlink:title=" ">
<path fill="none" stroke="#9a32cd" stroke-dasharray="5,2" d="M181.31,-106C212.49,-106 246.38,-106 274.64,-106"/>
<polygon fill="#9a32cd" stroke="#9a32cd" points="181.3,-102.5 171.3,-106 181.3,-109.5 181.3,-102.5"/>
</a>
</g>
<text text-anchor="middle" x="215" y="-109" font-family="Helvetica,sans-Serif" font-size="10.00" fill="grey"> fe</text>
</g>
<!-- Node5 -->
<g id="Node000005" class="node">
<title>Node5</title>
<g id="a_Node000005"><a xlink:href="structMeltPoolDG_1_1Heat_1_1LaserData.html" target="_top" xlink:title=" ">
<polygon fill="white" stroke="#666666" points="418.5,-78 259.5,-78 259.5,-48 418.5,-48 418.5,-78"/>
<text text-anchor="start" x="267.5" y="-66" font-family="Helvetica,sans-Serif" font-size="10.00">MeltPoolDG::Heat::LaserData</text>
<text text-anchor="middle" x="339" y="-55" font-family="Helvetica,sans-Serif" font-size="10.00">&lt; number &gt;</text>
</a>
</g>
</g>
<!-- Node5&#45;&gt;Node1 -->
<g id="edge4_Node000001_Node000005" class="edge">
<title>Node5&#45;&gt;Node1</title>
<g id="a_edge4_Node000001_Node000005"><a xlink:title=" ">
<path fill="none" stroke="#9a32cd" stroke-dasharray="5,2" d="M428.84,-78.98C446.45,-82.15 465.01,-85.49 482.86,-88.7"/>
<polygon fill="#9a32cd" stroke="#9a32cd" points="429.05,-75.47 418.59,-77.14 427.81,-82.35 429.05,-75.47"/>
</a>
</g>
<text text-anchor="middle" x="451" y="-87" font-family="Helvetica,sans-Serif" font-size="10.00" fill="grey"> laser</text>
</g>
<!-- Node6 -->
<g id="Node000006" class="node">
<title>Node6</title>
<g id="a_Node000006"><a xlink:href="structMeltPoolDG_1_1Heat_1_1LaserData_1_1GusarovData.html" target="_top" xlink:title=" ">
<polygon fill="white" stroke="#666666" points="165,-78 6,-78 6,-48 165,-48 165,-78"/>
<text text-anchor="start" x="14" y="-66" font-family="Helvetica,sans-Serif" font-size="10.00">MeltPoolDG::Heat::LaserData</text>
<text text-anchor="middle" x="85.5" y="-55" font-family="Helvetica,sans-Serif" font-size="10.00">&lt; number &gt;::GusarovData</text>
</a>
</g>
</g>
<!-- Node6&#45;&gt;Node5 -->
<g id="edge5_Node000005_Node000006" class="edge">
<title>Node6&#45;&gt;Node5</title>
<g id="a_edge5_Node000005_Node000006"><a xlink:title=" ">
<path fill="none" stroke="#9a32cd" stroke-dasharray="5,2" d="M175.38,-63C202.71,-63 232.58,-63 259.19,-63"/>
<polygon fill="#9a32cd" stroke="#9a32cd" points="175.04,-59.5 165.04,-63 175.04,-66.5 175.04,-59.5"/>
</a>
</g>
<text text-anchor="middle" x="215" y="-66" font-family="Helvetica,sans-Serif" font-size="10.00" fill="grey"> gusarov</text>
</g>
<!-- Node7 -->
<g id="Node000007" class="node">
<title>Node7</title>
<g id="a_Node000007"><a xlink:href="structMeltPoolDG_1_1Heat_1_1LaserData_1_1AnalyticalData.html" target="_top" xlink:title=" ">
<polygon fill="white" stroke="#666666" points="165,-30 6,-30 6,0 165,0 165,-30"/>
<text text-anchor="start" x="14" y="-18" font-family="Helvetica,sans-Serif" font-size="10.00">MeltPoolDG::Heat::LaserData</text>
<text text-anchor="middle" x="85.5" y="-7" font-family="Helvetica,sans-Serif" font-size="10.00">&lt; number &gt;::AnalyticalData</text>
</a>
</g>
</g>
<!-- Node7&#45;&gt;Node5 -->
<g id="edge6_Node000005_Node000007" class="edge">
<title>Node7&#45;&gt;Node5</title>
<g id="a_edge6_Node000005_Node000007"><a xlink:title=" ">
<path fill="none" stroke="#9a32cd" stroke-dasharray="5,2" d="M175.02,-31.89C202.44,-37.13 232.47,-42.86 259.19,-47.96"/>
<polygon fill="#9a32cd" stroke="#9a32cd" points="175.52,-28.43 165.04,-29.99 174.21,-35.3 175.52,-28.43"/>
</a>
</g>
<text text-anchor="middle" x="215" y="-47" font-family="Helvetica,sans-Serif" font-size="10.00" fill="grey"> analytical</text>
</g>
</g>
</svg>
