<?xml version="1.0" encoding="UTF-8" standalone="no"?>
<!DOCTYPE svg PUBLIC "-//W3C//DTD SVG 1.1//EN"
 "http://www.w3.org/Graphics/SVG/1.1/DTD/svg11.dtd">
<!-- Generated by graphviz version 2.43.0 (0)
 -->
<!-- Title: MeltPoolDG::CompressibleFlow::MultiSpeciesDofValueAndGradientStateView&lt; dim, n_species, number, Value, Gradient &gt; Pages: 1 -->
<svg width="797pt" height="770pt"
 viewBox="0.00 0.00 797.00 769.50" xmlns="http://www.w3.org/2000/svg" xmlns:xlink="http://www.w3.org/1999/xlink">
<g id="graph0" class="graph" transform="scale(1 1) rotate(0) translate(4 765.5)">
<title>MeltPoolDG::CompressibleFlow::MultiSpeciesDofValueAndGradientStateView&lt; dim, n_species, number, Value, Gradient &gt;</title>
<!-- Node1 -->
<g id="Node000001" class="node">
<title>Node1</title>
<g id="a_Node000001"><a xlink:title=" ">
<polygon fill="#999999" stroke="#666666" points="789,-337.5 595,-337.5 595,-285.5 789,-285.5 789,-337.5"/>
<text text-anchor="start" x="603" y="-325.5" font-family="Helvetica,sans-Serif" font-size="10.00">MeltPoolDG::Compressible</text>
<text text-anchor="start" x="603" y="-314.5" font-family="Helvetica,sans-Serif" font-size="10.00">Flow::MultiSpeciesDofValueAnd</text>
<text text-anchor="start" x="603" y="-303.5" font-family="Helvetica,sans-Serif" font-size="10.00">GradientStateView&lt; dim, n</text>
<text text-anchor="middle" x="692" y="-292.5" font-family="Helvetica,sans-Serif" font-size="10.00">_species, number, Value, Gradient &gt;</text>
</a>
</g>
</g>
<!-- Node2 -->
<g id="Node000002" class="node">
<title>Node2</title>
<g id="a_Node000002"><a xlink:href="structMeltPoolDG_1_1CompressibleFlow_1_1DofValueMixin.html" target="_top" xlink:title=" ">
<polygon fill="white" stroke="#666666" points="427,-761.5 247,-761.5 247,-687.5 427,-687.5 427,-761.5"/>
<text text-anchor="start" x="255" y="-749.5" font-family="Helvetica,sans-Serif" font-size="10.00">MeltPoolDG::Compressible</text>
<text text-anchor="start" x="255" y="-738.5" font-family="Helvetica,sans-Serif" font-size="10.00">Flow::DofValueMixin&lt; dim,</text>
<text text-anchor="start" x="255" y="-727.5" font-family="Helvetica,sans-Serif" font-size="10.00"> Value::value_type, MultiSpecies</text>
<text text-anchor="start" x="255" y="-716.5" font-family="Helvetica,sans-Serif" font-size="10.00">DofValueAndGradientStateView</text>
<text text-anchor="start" x="255" y="-705.5" font-family="Helvetica,sans-Serif" font-size="10.00">&lt; dim, n_species, number, Value,</text>
<text text-anchor="middle" x="337" y="-694.5" font-family="Helvetica,sans-Serif" font-size="10.00"> Gradient &gt; &gt;</text>
</a>
</g>
</g>
<!-- Node2&#45;&gt;Node1 -->
<g id="edge1_Node000001_Node000002" class="edge">
<title>Node2&#45;&gt;Node1</title>
<g id="a_edge1_Node000001_Node000002"><a xlink:title=" ">
<path fill="none" stroke="#63b8ff" d="M436.29,-692.52C444.27,-688.34 451.96,-683.67 459,-678.5 584.13,-586.55 658.1,-404.94 682.23,-337.51"/>
<polygon fill="#63b8ff" stroke="#63b8ff" points="434.57,-689.47 427.17,-697.05 437.68,-695.74 434.57,-689.47"/>
</a>
</g>
</g>
<!-- Node3 -->
<g id="Node000003" class="node">
<title>Node3</title>
<g id="a_Node000003"><a xlink:href="structMeltPoolDG_1_1CompressibleFlow_1_1DofGradientMixin.html" target="_top" xlink:title=" ">
<polygon fill="white" stroke="#666666" points="427,-669 247,-669 247,-584 427,-584 427,-669"/>
<text text-anchor="start" x="255" y="-657" font-family="Helvetica,sans-Serif" font-size="10.00">MeltPoolDG::Compressible</text>
<text text-anchor="start" x="255" y="-646" font-family="Helvetica,sans-Serif" font-size="10.00">Flow::DofGradientMixin</text>
<text text-anchor="start" x="255" y="-635" font-family="Helvetica,sans-Serif" font-size="10.00">&lt; dim, Gradient::value</text>
<text text-anchor="start" x="255" y="-624" font-family="Helvetica,sans-Serif" font-size="10.00">_type::value_type, MultiSpecies</text>
<text text-anchor="start" x="255" y="-613" font-family="Helvetica,sans-Serif" font-size="10.00">DofValueAndGradientStateView</text>
<text text-anchor="start" x="255" y="-602" font-family="Helvetica,sans-Serif" font-size="10.00">&lt; dim, n_species, number, Value,</text>
<text text-anchor="middle" x="337" y="-591" font-family="Helvetica,sans-Serif" font-size="10.00"> Gradient &gt; &gt;</text>
</a>
</g>
</g>
<!-- Node3&#45;&gt;Node1 -->
<g id="edge2_Node000001_Node000003" class="edge">
<title>Node3&#45;&gt;Node1</title>
<g id="a_edge2_Node000001_Node000003"><a xlink:title=" ">
<path fill="none" stroke="#63b8ff" d="M436.12,-588.35C444.08,-584.06 451.81,-579.44 459,-574.5 556.86,-507.27 640.25,-389.87 674.43,-337.73"/>
<polygon fill="#63b8ff" stroke="#63b8ff" points="434.33,-585.34 427.06,-593.05 437.55,-591.55 434.33,-585.34"/>
</a>
</g>
</g>
<!-- Node4 -->
<g id="Node000004" class="node">
<title>Node4</title>
<g id="a_Node000004"><a xlink:href="structMeltPoolDG_1_1SpeciesTransport_1_1DofValueMixin.html" target="_top" xlink:title=" ">
<polygon fill="white" stroke="#666666" points="447,-565.5 227,-565.5 227,-491.5 447,-491.5 447,-565.5"/>
<text text-anchor="start" x="235" y="-553.5" font-family="Helvetica,sans-Serif" font-size="10.00">MeltPoolDG::SpeciesTransport</text>
<text text-anchor="start" x="235" y="-542.5" font-family="Helvetica,sans-Serif" font-size="10.00">::DofValueMixin&lt; n_conserved</text>
<text text-anchor="start" x="235" y="-531.5" font-family="Helvetica,sans-Serif" font-size="10.00">_variables&lt; dim &gt;, n_species,</text>
<text text-anchor="start" x="235" y="-520.5" font-family="Helvetica,sans-Serif" font-size="10.00"> Value, MultiSpeciesDofValueAndGradient</text>
<text text-anchor="start" x="235" y="-509.5" font-family="Helvetica,sans-Serif" font-size="10.00">StateView&lt; dim, n_species, number,</text>
<text text-anchor="middle" x="337" y="-498.5" font-family="Helvetica,sans-Serif" font-size="10.00"> Value, Gradient &gt; &gt;</text>
</a>
</g>
</g>
<!-- Node4&#45;&gt;Node1 -->
<g id="edge3_Node000001_Node000004" class="edge">
<title>Node4&#45;&gt;Node1</title>
<g id="a_edge3_Node000001_Node000004"><a xlink:title=" ">
<path fill="none" stroke="#63b8ff" d="M450.24,-487.09C453.21,-485.59 456.14,-484.06 459,-482.5 537.19,-439.86 618.81,-373.84 661.29,-337.58"/>
<polygon fill="#63b8ff" stroke="#63b8ff" points="448.65,-483.97 441.2,-491.5 451.72,-490.26 448.65,-483.97"/>
</a>
</g>
</g>
<!-- Node5 -->
<g id="Node000005" class="node">
<title>Node5</title>
<g id="a_Node000005"><a xlink:href="structMeltPoolDG_1_1SpeciesTransport_1_1GradientValueMixin.html" target="_top" xlink:title=" ">
<polygon fill="white" stroke="#666666" points="456.5,-473.5 217.5,-473.5 217.5,-399.5 456.5,-399.5 456.5,-473.5"/>
<text text-anchor="start" x="225.5" y="-461.5" font-family="Helvetica,sans-Serif" font-size="10.00">MeltPoolDG::SpeciesTransport</text>
<text text-anchor="start" x="225.5" y="-450.5" font-family="Helvetica,sans-Serif" font-size="10.00">::GradientValueMixin&lt; n_conserved</text>
<text text-anchor="start" x="225.5" y="-439.5" font-family="Helvetica,sans-Serif" font-size="10.00">_variables&lt; dim &gt;, n_species,</text>
<text text-anchor="start" x="225.5" y="-428.5" font-family="Helvetica,sans-Serif" font-size="10.00"> Value, Gradient, MultiSpeciesDofValueAnd</text>
<text text-anchor="start" x="225.5" y="-417.5" font-family="Helvetica,sans-Serif" font-size="10.00">GradientStateView&lt; dim, n_species, number,</text>
<text text-anchor="middle" x="337" y="-406.5" font-family="Helvetica,sans-Serif" font-size="10.00"> Value, Gradient &gt; &gt;</text>
</a>
</g>
</g>
<!-- Node5&#45;&gt;Node1 -->
<g id="edge4_Node000001_Node000005" class="edge">
<title>Node5&#45;&gt;Node1</title>
<g id="a_edge4_Node000001_Node000005"><a xlink:title=" ">
<path fill="none" stroke="#63b8ff" d="M452.61,-395.92C506.78,-376.73 569.85,-354.4 617.51,-337.52"/>
<polygon fill="#63b8ff" stroke="#63b8ff" points="451.21,-392.7 442.96,-399.33 453.55,-399.3 451.21,-392.7"/>
</a>
</g>
</g>
<!-- Node6 -->
<g id="Node000006" class="node">
<title>Node6</title>
<g id="a_Node000006"><a xlink:href="structMeltPoolDG_1_1Flow_1_1EOSValueMixin.html" target="_top" xlink:title=" ">
<polygon fill="white" stroke="#666666" points="445.5,-381 228.5,-381 228.5,-318 445.5,-318 445.5,-381"/>
<text text-anchor="start" x="236.5" y="-369" font-family="Helvetica,sans-Serif" font-size="10.00">MeltPoolDG::Flow::EOSValue</text>
<text text-anchor="start" x="236.5" y="-358" font-family="Helvetica,sans-Serif" font-size="10.00">Mixin&lt; dim, Value::value</text>
<text text-anchor="start" x="236.5" y="-347" font-family="Helvetica,sans-Serif" font-size="10.00">_type, MultiSpeciesDofValueAndGradient</text>
<text text-anchor="start" x="236.5" y="-336" font-family="Helvetica,sans-Serif" font-size="10.00">StateView&lt; dim, n_species, number,</text>
<text text-anchor="middle" x="337" y="-325" font-family="Helvetica,sans-Serif" font-size="10.00"> Value, Gradient &gt; &gt;</text>
</a>
</g>
</g>
<!-- Node6&#45;&gt;Node1 -->
<g id="edge5_Node000001_Node000006" class="edge">
<title>Node6&#45;&gt;Node1</title>
<g id="a_edge5_Node000001_Node000006"><a xlink:title=" ">
<path fill="none" stroke="#63b8ff" d="M455.97,-336.8C501.12,-331.94 552.04,-326.46 594.91,-321.84"/>
<polygon fill="#63b8ff" stroke="#63b8ff" points="455.4,-333.34 445.83,-337.89 456.15,-340.3 455.4,-333.34"/>
</a>
</g>
</g>
<!-- Node7 -->
<g id="Node000007" class="node">
<title>Node7</title>
<g id="a_Node000007"><a xlink:href="structMeltPoolDG_1_1Flow_1_1EOSGradientMixin.html" target="_top" xlink:title=" ">
<polygon fill="white" stroke="#666666" points="440,-299.5 234,-299.5 234,-247.5 440,-247.5 440,-299.5"/>
<text text-anchor="start" x="242" y="-287.5" font-family="Helvetica,sans-Serif" font-size="10.00">MeltPoolDG::Flow::EOSGradient</text>
<text text-anchor="start" x="242" y="-276.5" font-family="Helvetica,sans-Serif" font-size="10.00">Mixin&lt; dim, MultiSpeciesDofValue</text>
<text text-anchor="start" x="242" y="-265.5" font-family="Helvetica,sans-Serif" font-size="10.00">AndGradientStateView&lt; dim, n</text>
<text text-anchor="middle" x="337" y="-254.5" font-family="Helvetica,sans-Serif" font-size="10.00">_species, number, Value, Gradient &gt; &gt;</text>
</a>
</g>
</g>
<!-- Node7&#45;&gt;Node1 -->
<g id="edge6_Node000001_Node000007" class="edge">
<title>Node7&#45;&gt;Node1</title>
<g id="a_edge6_Node000001_Node000007"><a xlink:title=" ">
<path fill="none" stroke="#63b8ff" d="M450.23,-285.58C496.76,-290.59 550.19,-296.34 594.88,-301.15"/>
<polygon fill="#63b8ff" stroke="#63b8ff" points="450.42,-282.08 440.1,-284.49 449.67,-289.04 450.42,-282.08"/>
</a>
</g>
</g>
<!-- Node8 -->
<g id="Node000008" class="node">
<title>Node8</title>
<g id="a_Node000008"><a xlink:href="structMeltPoolDG_1_1CompressibleFlow_1_1MultiSpeciesMaterialMixin.html" target="_top" xlink:title=" ">
<polygon fill="white" stroke="#666666" points="459,-229.5 215,-229.5 215,-155.5 459,-155.5 459,-229.5"/>
<text text-anchor="start" x="223" y="-217.5" font-family="Helvetica,sans-Serif" font-size="10.00">MeltPoolDG::Compressible</text>
<text text-anchor="start" x="223" y="-206.5" font-family="Helvetica,sans-Serif" font-size="10.00">Flow::MultiSpeciesMaterialMixin</text>
<text text-anchor="start" x="223" y="-195.5" font-family="Helvetica,sans-Serif" font-size="10.00">&lt; n_species, number, Value::</text>
<text text-anchor="start" x="223" y="-184.5" font-family="Helvetica,sans-Serif" font-size="10.00">value_type, MultiSpeciesDofValueAndGradient</text>
<text text-anchor="start" x="223" y="-173.5" font-family="Helvetica,sans-Serif" font-size="10.00">StateView&lt; dim, n_species, number, Value,</text>
<text text-anchor="middle" x="337" y="-162.5" font-family="Helvetica,sans-Serif" font-size="10.00"> Gradient &gt; &gt;</text>
</a>
</g>
</g>
<!-- Node8&#45;&gt;Node1 -->
<g id="edge7_Node000001_Node000008" class="edge">
<title>Node8&#45;&gt;Node1</title>
<g id="a_edge7_Node000001_Node000008"><a xlink:title=" ">
<path fill="none" stroke="#63b8ff" d="M457.31,-232.72C508.99,-250.14 567.99,-270.03 613.78,-285.47"/>
<polygon fill="#63b8ff" stroke="#63b8ff" points="458.35,-229.38 447.76,-229.5 456.11,-236.01 458.35,-229.38"/>
</a>
</g>
</g>
<!-- Node9 -->
<g id="Node000009" class="node">
<title>Node9</title>
<g id="a_Node000009"><a xlink:href="structMeltPoolDG_1_1SpeciesTransport_1_1EffectiveMaterialMixin.html" target="_top" xlink:title=" ">
<polygon fill="white" stroke="#666666" points="178,-218.5 0,-218.5 0,-166.5 178,-166.5 178,-218.5"/>
<text text-anchor="start" x="8" y="-206.5" font-family="Helvetica,sans-Serif" font-size="10.00">MeltPoolDG::SpeciesTransport</text>
<text text-anchor="start" x="8" y="-195.5" font-family="Helvetica,sans-Serif" font-size="10.00">::EffectiveMaterialMixin</text>
<text text-anchor="start" x="8" y="-184.5" font-family="Helvetica,sans-Serif" font-size="10.00">&lt; n_species, number, ValueType,</text>
<text text-anchor="middle" x="89" y="-173.5" font-family="Helvetica,sans-Serif" font-size="10.00"> Derived &gt;</text>
</a>
</g>
</g>
<!-- Node9&#45;&gt;Node8 -->
<g id="edge8_Node000008_Node000009" class="edge">
<title>Node9&#45;&gt;Node8</title>
<g id="a_edge8_Node000008_Node000009"><a xlink:title=" ">
<path fill="none" stroke="#63b8ff" d="M188.22,-192.5C196.91,-192.5 205.76,-192.5 214.61,-192.5"/>
<polygon fill="#63b8ff" stroke="#63b8ff" points="188.12,-189 178.12,-192.5 188.12,-196 188.12,-189"/>
</a>
</g>
</g>
<!-- Node10 -->
<g id="Node000010" class="node">
<title>Node10</title>
<g id="a_Node000010"><a xlink:href="structMeltPoolDG_1_1SpeciesTransport_1_1DerivedPartialValueMixin.html" target="_top" xlink:title=" ">
<polygon fill="white" stroke="#666666" points="444.5,-137 229.5,-137 229.5,-74 444.5,-74 444.5,-137"/>
<text text-anchor="start" x="237.5" y="-125" font-family="Helvetica,sans-Serif" font-size="10.00">MeltPoolDG::SpeciesTransport</text>
<text text-anchor="start" x="237.5" y="-114" font-family="Helvetica,sans-Serif" font-size="10.00">::DerivedPartialValueMixin</text>
<text text-anchor="start" x="237.5" y="-103" font-family="Helvetica,sans-Serif" font-size="10.00">&lt; n_species, Value, MultiSpeciesDof</text>
<text text-anchor="start" x="237.5" y="-92" font-family="Helvetica,sans-Serif" font-size="10.00">ValueAndGradientStateView&lt; dim,</text>
<text text-anchor="middle" x="337" y="-81" font-family="Helvetica,sans-Serif" font-size="10.00"> n_species, number, Value, Gradient &gt; &gt;</text>
</a>
</g>
</g>
<!-- Node10&#45;&gt;Node1 -->
<g id="edge9_Node000001_Node000010" class="edge">
<title>Node10&#45;&gt;Node1</title>
<g id="a_edge9_Node000001_Node000010"><a xlink:title=" ">
<path fill="none" stroke="#63b8ff" d="M448.04,-141.2C451.77,-142.91 455.44,-144.68 459,-146.5 536.9,-186.31 617.98,-249.95 660.61,-285.43"/>
<polygon fill="#63b8ff" stroke="#63b8ff" points="449.21,-137.89 438.65,-137.05 446.38,-144.29 449.21,-137.89"/>
</a>
</g>
</g>
<!-- Node11 -->
<g id="Node000011" class="node">
<title>Node11</title>
<g id="a_Node000011"><a xlink:title=" ">
<polygon fill="white" stroke="#666666" points="359,-56 315,-56 315,-37 359,-37 359,-56"/>
<text text-anchor="middle" x="337" y="-44" font-family="Helvetica,sans-Serif" font-size="10.00">Value</text>
</a>
</g>
</g>
<!-- Node11&#45;&gt;Node1 -->
<g id="edge10_Node000001_Node000011" class="edge">
<title>Node11&#45;&gt;Node1</title>
<g id="a_edge10_Node000001_Node000011"><a xlink:title=" ">
<path fill="none" stroke="#9a32cd" stroke-dasharray="5,2" d="M369.25,-47.48C394.25,-49.13 429.81,-53.42 459,-64.5 517.54,-86.73 532.44,-97.5 577,-141.5 621.63,-185.57 658.91,-249.68 677.76,-285.25"/>
<polygon fill="#9a32cd" stroke="#9a32cd" points="369.42,-43.99 359.24,-46.93 369.03,-50.98 369.42,-43.99"/>
</a>
</g>
<text text-anchor="middle" x="527" y="-144.5" font-family="Helvetica,sans-Serif" font-size="10.00" fill="grey"> flow_state</text>
</g>
<!-- Node12 -->
<g id="Node000012" class="node">
<title>Node12</title>
<g id="a_Node000012"><a xlink:title=" ">
<polygon fill="white" stroke="#666666" points="366.5,-19 307.5,-19 307.5,0 366.5,0 366.5,-19"/>
<text text-anchor="middle" x="337" y="-7" font-family="Helvetica,sans-Serif" font-size="10.00">Gradient</text>
</a>
</g>
</g>
<!-- Node12&#45;&gt;Node1 -->
<g id="edge11_Node000001_Node000012" class="edge">
<title>Node12&#45;&gt;Node1</title>
<g id="a_edge11_Node000001_Node000012"><a xlink:title=" ">
<path fill="none" stroke="#9a32cd" stroke-dasharray="5,2" d="M376.83,-6.59C428.52,-4.87 520.02,-9.61 577,-57.5 649.15,-118.14 677.53,-233.78 686.96,-285.44"/>
<polygon fill="#9a32cd" stroke="#9a32cd" points="376.58,-3.1 366.74,-7.03 376.88,-10.09 376.58,-3.1"/>
</a>
</g>
<text text-anchor="middle" x="527" y="-60.5" font-family="Helvetica,sans-Serif" font-size="10.00" fill="grey"> flow_gradient_state</text>
</g>
</g>
</svg>
