<?xml version="1.0" encoding="UTF-8" standalone="no"?>
<!DOCTYPE svg PUBLIC "-//W3C//DTD SVG 1.1//EN"
 "http://www.w3.org/Graphics/SVG/1.1/DTD/svg11.dtd">
<!-- Generated by graphviz version 2.43.0 (0)
 -->
<!-- Title: source/time_integration/time_iterator.cpp Pages: 1 -->
<svg width="971pt" height="236pt"
 viewBox="0.00 0.00 971.00 236.00" xmlns="http://www.w3.org/2000/svg" xmlns:xlink="http://www.w3.org/1999/xlink">
<g id="graph0" class="graph" transform="scale(1 1) rotate(0) translate(4 232)">
<title>source/time_integration/time_iterator.cpp</title>
<!-- Node1 -->
<g id="Node000001" class="node">
<title>Node1</title>
<g id="a_Node000001"><a xlink:title=" ">
<polygon fill="#999999" stroke="#666666" points="723.5,-228 590.5,-228 590.5,-198 723.5,-198 723.5,-228"/>
<text text-anchor="start" x="598.5" y="-216" font-family="Helvetica,sans-Serif" font-size="10.00">source/time_integration</text>
<text text-anchor="middle" x="657" y="-205" font-family="Helvetica,sans-Serif" font-size="10.00">/time_iterator.cpp</text>
</a>
</g>
</g>
<!-- Node2 -->
<g id="Node000002" class="node">
<title>Node2</title>
<g id="a_Node000002"><a xlink:href="time__iterator_8hpp.html" target="_top" xlink:title=" ">
<polygon fill="white" stroke="#666666" points="215,-162 59,-162 59,-132 215,-132 215,-162"/>
<text text-anchor="start" x="67" y="-150" font-family="Helvetica,sans-Serif" font-size="10.00">meltpooldg/time_integration</text>
<text text-anchor="middle" x="137" y="-139" font-family="Helvetica,sans-Serif" font-size="10.00">/time_iterator.hpp</text>
</a>
</g>
</g>
<!-- Node1&#45;&gt;Node2 -->
<g id="edge1_Node000001_Node000002" class="edge">
<title>Node1&#45;&gt;Node2</title>
<g id="a_edge1_Node000001_Node000002"><a xlink:title=" ">
<path fill="none" stroke="#63b8ff" d="M590.49,-205.25C507.47,-196.62 360.87,-180.69 225.38,-162.15"/>
<polygon fill="#63b8ff" stroke="#63b8ff" points="225.61,-158.65 215.23,-160.76 224.66,-165.59 225.61,-158.65"/>
</a>
</g>
</g>
<!-- Node9 -->
<g id="Node000009" class="node">
<title>Node9</title>
<g id="a_Node000009"><a xlink:title=" ">
<polygon fill="#e0e0e0" stroke="#999999" points="371,-156.5 233,-156.5 233,-137.5 371,-137.5 371,-156.5"/>
<text text-anchor="middle" x="302" y="-144.5" font-family="Helvetica,sans-Serif" font-size="10.00">deal.II/base/exceptions.h</text>
</a>
</g>
</g>
<!-- Node1&#45;&gt;Node9 -->
<g id="edge8_Node000001_Node000009" class="edge">
<title>Node1&#45;&gt;Node9</title>
<g id="a_edge8_Node000001_Node000009"><a xlink:title=" ">
<path fill="none" stroke="#63b8ff" d="M590.23,-199.96C523.64,-187.96 422.43,-169.71 359.36,-158.34"/>
<polygon fill="#63b8ff" stroke="#63b8ff" points="359.66,-154.84 349.19,-156.51 358.41,-161.73 359.66,-154.84"/>
</a>
</g>
</g>
<!-- Node10 -->
<g id="Node000010" class="node">
<title>Node10</title>
<g id="a_Node000010"><a xlink:title=" ">
<polygon fill="#e0e0e0" stroke="#999999" points="499,-156.5 389,-156.5 389,-137.5 499,-137.5 499,-156.5"/>
<text text-anchor="middle" x="444" y="-144.5" font-family="Helvetica,sans-Serif" font-size="10.00">deal.II/base/point.h</text>
</a>
</g>
</g>
<!-- Node1&#45;&gt;Node10 -->
<g id="edge9_Node000001_Node000010" class="edge">
<title>Node1&#45;&gt;Node10</title>
<g id="a_edge9_Node000001_Node000010"><a xlink:title=" ">
<path fill="none" stroke="#63b8ff" d="M610.26,-197.95C571.75,-186.38 517.83,-170.18 481.96,-159.41"/>
<polygon fill="#63b8ff" stroke="#63b8ff" points="482.93,-156.04 472.35,-156.52 480.92,-162.75 482.93,-156.04"/>
</a>
</g>
</g>
<!-- Node11 -->
<g id="Node000011" class="node">
<title>Node11</title>
<g id="a_Node000011"><a xlink:href="journal_8hpp.html" target="_top" xlink:title=" ">
<polygon fill="white" stroke="#666666" points="629,-162 517,-162 517,-132 629,-132 629,-162"/>
<text text-anchor="start" x="525" y="-150" font-family="Helvetica,sans-Serif" font-size="10.00">meltpooldg/utilities</text>
<text text-anchor="middle" x="573" y="-139" font-family="Helvetica,sans-Serif" font-size="10.00">/journal.hpp</text>
</a>
</g>
</g>
<!-- Node1&#45;&gt;Node11 -->
<g id="edge10_Node000001_Node000011" class="edge">
<title>Node1&#45;&gt;Node11</title>
<g id="a_edge10_Node000001_Node000011"><a xlink:title=" ">
<path fill="none" stroke="#63b8ff" d="M638.36,-197.8C627.05,-189.18 612.42,-178.04 599.88,-168.48"/>
<polygon fill="#63b8ff" stroke="#63b8ff" points="601.67,-165.44 591.59,-162.16 597.42,-171.01 601.67,-165.44"/>
</a>
</g>
</g>
<!-- Node13 -->
<g id="Node000013" class="node">
<title>Node13</title>
<g id="a_Node000013"><a xlink:title=" ">
<polygon fill="#e0e0e0" stroke="#999999" points="683,-90.5 627,-90.5 627,-71.5 683,-71.5 683,-90.5"/>
<text text-anchor="middle" x="655" y="-78.5" font-family="Helvetica,sans-Serif" font-size="10.00">iomanip</text>
</a>
</g>
</g>
<!-- Node1&#45;&gt;Node13 -->
<g id="edge15_Node000001_Node000013" class="edge">
<title>Node1&#45;&gt;Node13</title>
<g id="a_edge15_Node000001_Node000013"><a xlink:title=" ">
<path fill="none" stroke="#63b8ff" d="M656.78,-197.84C656.42,-174.34 655.7,-127.26 655.29,-100.93"/>
<polygon fill="#63b8ff" stroke="#63b8ff" points="658.79,-100.69 655.13,-90.75 651.79,-100.8 658.79,-100.69"/>
</a>
</g>
</g>
<!-- Node14 -->
<g id="Node000014" class="node">
<title>Node14</title>
<g id="a_Node000014"><a xlink:title=" ">
<polygon fill="#e0e0e0" stroke="#999999" points="749,-156.5 685,-156.5 685,-137.5 749,-137.5 749,-156.5"/>
<text text-anchor="middle" x="717" y="-144.5" font-family="Helvetica,sans-Serif" font-size="10.00">algorithm</text>
</a>
</g>
</g>
<!-- Node1&#45;&gt;Node14 -->
<g id="edge14_Node000001_Node000014" class="edge">
<title>Node1&#45;&gt;Node14</title>
<g id="a_edge14_Node000001_Node000014"><a xlink:title=" ">
<path fill="none" stroke="#63b8ff" d="M670.32,-197.8C679.58,-187.92 691.95,-174.72 701.63,-164.39"/>
<polygon fill="#63b8ff" stroke="#63b8ff" points="704.42,-166.53 708.71,-156.84 699.32,-161.75 704.42,-166.53"/>
</a>
</g>
</g>
<!-- Node15 -->
<g id="Node000015" class="node">
<title>Node15</title>
<g id="a_Node000015"><a xlink:title=" ">
<polygon fill="#e0e0e0" stroke="#999999" points="827,-156.5 767,-156.5 767,-137.5 827,-137.5 827,-156.5"/>
<text text-anchor="middle" x="797" y="-144.5" font-family="Helvetica,sans-Serif" font-size="10.00">iostream</text>
</a>
</g>
</g>
<!-- Node1&#45;&gt;Node15 -->
<g id="edge16_Node000001_Node000015" class="edge">
<title>Node1&#45;&gt;Node15</title>
<g id="a_edge16_Node000001_Node000015"><a xlink:title=" ">
<path fill="none" stroke="#63b8ff" d="M687.72,-197.95C711.95,-186.88 745.46,-171.56 768.96,-160.82"/>
<polygon fill="#63b8ff" stroke="#63b8ff" points="770.73,-163.86 778.37,-156.52 767.82,-157.49 770.73,-163.86"/>
</a>
</g>
</g>
<!-- Node16 -->
<g id="Node000016" class="node">
<title>Node16</title>
<g id="a_Node000016"><a xlink:title=" ">
<polygon fill="#e0e0e0" stroke="#999999" points="889,-156.5 845,-156.5 845,-137.5 889,-137.5 889,-156.5"/>
<text text-anchor="middle" x="867" y="-144.5" font-family="Helvetica,sans-Serif" font-size="10.00">limits</text>
</a>
</g>
</g>
<!-- Node1&#45;&gt;Node16 -->
<g id="edge17_Node000001_Node000016" class="edge">
<title>Node1&#45;&gt;Node16</title>
<g id="a_edge17_Node000001_Node000016"><a xlink:title=" ">
<path fill="none" stroke="#63b8ff" d="M715.75,-197.99C751.03,-188.99 796.57,-176.32 836,-162 837.22,-161.56 838.45,-161.09 839.7,-160.6"/>
<polygon fill="#63b8ff" stroke="#63b8ff" points="841.3,-163.72 849.16,-156.61 838.59,-157.27 841.3,-163.72"/>
</a>
</g>
</g>
<!-- Node17 -->
<g id="Node000017" class="node">
<title>Node17</title>
<g id="a_Node000017"><a xlink:title=" ">
<polygon fill="#e0e0e0" stroke="#999999" points="963,-156.5 907,-156.5 907,-137.5 963,-137.5 963,-156.5"/>
<text text-anchor="middle" x="935" y="-144.5" font-family="Helvetica,sans-Serif" font-size="10.00">sstream</text>
</a>
</g>
</g>
<!-- Node1&#45;&gt;Node17 -->
<g id="edge18_Node000001_Node000017" class="edge">
<title>Node1&#45;&gt;Node17</title>
<g id="a_edge18_Node000001_Node000017"><a xlink:title=" ">
<path fill="none" stroke="#63b8ff" d="M723.66,-201.08C772.44,-192.39 839.94,-178.89 898,-162 900.14,-161.38 902.34,-160.69 904.54,-159.95"/>
<polygon fill="#63b8ff" stroke="#63b8ff" points="905.81,-163.22 914.06,-156.58 903.47,-156.62 905.81,-163.22"/>
</a>
</g>
</g>
<!-- Node3 -->
<g id="Node000003" class="node">
<title>Node3</title>
<g id="a_Node000003"><a xlink:title=" ">
<polygon fill="#e0e0e0" stroke="#999999" points="116,-96 0,-96 0,-66 116,-66 116,-96"/>
<text text-anchor="start" x="8" y="-84" font-family="Helvetica,sans-Serif" font-size="10.00">deal.II/base/function</text>
<text text-anchor="middle" x="58" y="-73" font-family="Helvetica,sans-Serif" font-size="10.00">_parser.h</text>
</a>
</g>
</g>
<!-- Node2&#45;&gt;Node3 -->
<g id="edge2_Node000002_Node000003" class="edge">
<title>Node2&#45;&gt;Node3</title>
<g id="a_edge2_Node000002_Node000003"><a xlink:title=" ">
<path fill="none" stroke="#63b8ff" d="M119.47,-131.8C108.83,-123.18 95.08,-112.04 83.28,-102.48"/>
<polygon fill="#63b8ff" stroke="#63b8ff" points="85.46,-99.74 75.48,-96.16 81.05,-105.18 85.46,-99.74"/>
</a>
</g>
</g>
<!-- Node4 -->
<g id="Node000004" class="node">
<title>Node4</title>
<g id="a_Node000004"><a xlink:href="time__stepping__data_8hpp.html" target="_top" xlink:title=" ">
<polygon fill="white" stroke="#666666" points="290,-96 134,-96 134,-66 290,-66 290,-96"/>
<text text-anchor="start" x="142" y="-84" font-family="Helvetica,sans-Serif" font-size="10.00">meltpooldg/time_integration</text>
<text text-anchor="middle" x="212" y="-73" font-family="Helvetica,sans-Serif" font-size="10.00">/time_stepping_data.hpp</text>
</a>
</g>
</g>
<!-- Node2&#45;&gt;Node4 -->
<g id="edge3_Node000002_Node000004" class="edge">
<title>Node2&#45;&gt;Node4</title>
<g id="a_edge3_Node000002_Node000004"><a xlink:title=" ">
<path fill="none" stroke="#63b8ff" d="M153.64,-131.8C163.65,-123.26 176.55,-112.25 187.68,-102.75"/>
<polygon fill="#63b8ff" stroke="#63b8ff" points="190.07,-105.32 195.4,-96.16 185.52,-99.99 190.07,-105.32"/>
</a>
</g>
</g>
<!-- Node7 -->
<g id="Node000007" class="node">
<title>Node7</title>
<g id="a_Node000007"><a xlink:href="conditional__ostream_8hpp.html" target="_top" xlink:title=" ">
<polygon fill="white" stroke="#666666" points="496,-96 356,-96 356,-66 496,-66 496,-96"/>
<text text-anchor="start" x="364" y="-84" font-family="Helvetica,sans-Serif" font-size="10.00">meltpooldg/utilities</text>
<text text-anchor="middle" x="426" y="-73" font-family="Helvetica,sans-Serif" font-size="10.00">/conditional_ostream.hpp</text>
</a>
</g>
</g>
<!-- Node2&#45;&gt;Node7 -->
<g id="edge6_Node000002_Node000007" class="edge">
<title>Node2&#45;&gt;Node7</title>
<g id="a_edge6_Node000002_Node000007"><a xlink:title=" ">
<path fill="none" stroke="#63b8ff" d="M200.42,-131.95C245.41,-121.99 305.89,-108.6 352.91,-98.19"/>
<polygon fill="#63b8ff" stroke="#63b8ff" points="353.72,-101.59 362.73,-96.01 352.21,-94.76 353.72,-101.59"/>
</a>
</g>
</g>
<!-- Node5 -->
<g id="Node000005" class="node">
<title>Node5</title>
<g id="a_Node000005"><a xlink:title=" ">
<polygon fill="#e0e0e0" stroke="#999999" points="227.5,-30 100.5,-30 100.5,0 227.5,0 227.5,-30"/>
<text text-anchor="start" x="108.5" y="-18" font-family="Helvetica,sans-Serif" font-size="10.00">deal.II/base/parameter</text>
<text text-anchor="middle" x="164" y="-7" font-family="Helvetica,sans-Serif" font-size="10.00">_handler.h</text>
</a>
</g>
</g>
<!-- Node4&#45;&gt;Node5 -->
<g id="edge4_Node000004_Node000005" class="edge">
<title>Node4&#45;&gt;Node5</title>
<g id="a_edge4_Node000004_Node000005"><a xlink:title=" ">
<path fill="none" stroke="#63b8ff" d="M201.35,-65.8C195.32,-57.76 187.64,-47.53 180.82,-38.43"/>
<polygon fill="#63b8ff" stroke="#63b8ff" points="183.42,-36.06 174.62,-30.16 177.82,-40.26 183.42,-36.06"/>
</a>
</g>
</g>
<!-- Node6 -->
<g id="Node000006" class="node">
<title>Node6</title>
<g id="a_Node000006"><a xlink:title=" ">
<polygon fill="#e0e0e0" stroke="#999999" points="290,-24.5 246,-24.5 246,-5.5 290,-5.5 290,-24.5"/>
<text text-anchor="middle" x="268" y="-12.5" font-family="Helvetica,sans-Serif" font-size="10.00">string</text>
</a>
</g>
</g>
<!-- Node4&#45;&gt;Node6 -->
<g id="edge5_Node000004_Node000006" class="edge">
<title>Node4&#45;&gt;Node6</title>
<g id="a_edge5_Node000004_Node000006"><a xlink:title=" ">
<path fill="none" stroke="#63b8ff" d="M224.43,-65.8C233.07,-55.92 244.62,-42.72 253.66,-32.39"/>
<polygon fill="#63b8ff" stroke="#63b8ff" points="256.31,-34.67 260.26,-24.84 251.04,-30.07 256.31,-34.67"/>
</a>
</g>
</g>
<!-- Node8 -->
<g id="Node000008" class="node">
<title>Node8</title>
<g id="a_Node000008"><a xlink:title=" ">
<polygon fill="#e0e0e0" stroke="#999999" points="491,-30 361,-30 361,0 491,0 491,-30"/>
<text text-anchor="start" x="369" y="-18" font-family="Helvetica,sans-Serif" font-size="10.00">deal.II/base/conditional</text>
<text text-anchor="middle" x="426" y="-7" font-family="Helvetica,sans-Serif" font-size="10.00">_ostream.h</text>
</a>
</g>
</g>
<!-- Node7&#45;&gt;Node8 -->
<g id="edge7_Node000007_Node000008" class="edge">
<title>Node7&#45;&gt;Node8</title>
<g id="a_edge7_Node000007_Node000008"><a xlink:title=" ">
<path fill="none" stroke="#63b8ff" d="M426,-65.8C426,-58.34 426,-48.99 426,-40.41"/>
<polygon fill="#63b8ff" stroke="#63b8ff" points="429.5,-40.16 426,-30.16 422.5,-40.16 429.5,-40.16"/>
</a>
</g>
</g>
<!-- Node11&#45;&gt;Node7 -->
<g id="edge11_Node000011_Node000007" class="edge">
<title>Node11&#45;&gt;Node7</title>
<g id="a_edge11_Node000011_Node000007"><a xlink:title=" ">
<path fill="none" stroke="#63b8ff" d="M540.74,-131.95C519.2,-122.58 490.67,-110.16 467.45,-100.05"/>
<polygon fill="#63b8ff" stroke="#63b8ff" points="468.75,-96.8 458.18,-96.01 465.96,-103.21 468.75,-96.8"/>
</a>
</g>
</g>
<!-- Node12 -->
<g id="Node000012" class="node">
<title>Node12</title>
<g id="a_Node000012"><a xlink:title=" ">
<polygon fill="#e0e0e0" stroke="#999999" points="605.5,-90.5 540.5,-90.5 540.5,-71.5 605.5,-71.5 605.5,-90.5"/>
<text text-anchor="middle" x="573" y="-78.5" font-family="Helvetica,sans-Serif" font-size="10.00">functional</text>
</a>
</g>
</g>
<!-- Node11&#45;&gt;Node12 -->
<g id="edge12_Node000011_Node000012" class="edge">
<title>Node11&#45;&gt;Node12</title>
<g id="a_edge12_Node000011_Node000012"><a xlink:title=" ">
<path fill="none" stroke="#63b8ff" d="M573,-131.8C573,-122.7 573,-110.79 573,-100.9"/>
<polygon fill="#63b8ff" stroke="#63b8ff" points="576.5,-100.84 573,-90.84 569.5,-100.84 576.5,-100.84"/>
</a>
</g>
</g>
<!-- Node11&#45;&gt;Node13 -->
<g id="edge13_Node000011_Node000013" class="edge">
<title>Node11&#45;&gt;Node13</title>
<g id="a_edge13_Node000011_Node000013"><a xlink:title=" ">
<path fill="none" stroke="#63b8ff" d="M591.2,-131.8C604.36,-121.53 622.11,-107.67 635.55,-97.18"/>
<polygon fill="#63b8ff" stroke="#63b8ff" points="637.94,-99.76 643.67,-90.84 633.63,-94.24 637.94,-99.76"/>
</a>
</g>
</g>
</g>
</svg>
