<?xml version="1.0" encoding="UTF-8" standalone="no"?>
<!DOCTYPE svg PUBLIC "-//W3C//DTD SVG 1.1//EN"
 "http://www.w3.org/Graphics/SVG/1.1/DTD/svg11.dtd">
<!-- Generated by graphviz version 2.43.0 (0)
 -->
<!-- Title: source/time_integration/time_stepping_data.cpp Pages: 1 -->
<svg width="202pt" height="170pt"
 viewBox="0.00 0.00 201.50 170.00" xmlns="http://www.w3.org/2000/svg" xmlns:xlink="http://www.w3.org/1999/xlink">
<g id="graph0" class="graph" transform="scale(1 1) rotate(0) translate(4 166)">
<title>source/time_integration/time_stepping_data.cpp</title>
<!-- Node1 -->
<g id="Node000001" class="node">
<title>Node1</title>
<g id="a_Node000001"><a xlink:title=" ">
<polygon fill="#999999" stroke="#666666" points="184,-162 47,-162 47,-132 184,-132 184,-162"/>
<text text-anchor="start" x="55" y="-150" font-family="Helvetica,sans-Serif" font-size="10.00">source/time_integration</text>
<text text-anchor="middle" x="115.5" y="-139" font-family="Helvetica,sans-Serif" font-size="10.00">/time_stepping_data.cpp</text>
</a>
</g>
</g>
<!-- Node2 -->
<g id="Node000002" class="node">
<title>Node2</title>
<g id="a_Node000002"><a xlink:href="time__stepping__data_8hpp.html" target="_top" xlink:title=" ">
<polygon fill="white" stroke="#666666" points="193.5,-96 37.5,-96 37.5,-66 193.5,-66 193.5,-96"/>
<text text-anchor="start" x="45.5" y="-84" font-family="Helvetica,sans-Serif" font-size="10.00">meltpooldg/time_integration</text>
<text text-anchor="middle" x="115.5" y="-73" font-family="Helvetica,sans-Serif" font-size="10.00">/time_stepping_data.hpp</text>
</a>
</g>
</g>
<!-- Node1&#45;&gt;Node2 -->
<g id="edge1_Node000001_Node000002" class="edge">
<title>Node1&#45;&gt;Node2</title>
<g id="a_edge1_Node000001_Node000002"><a xlink:title=" ">
<path fill="none" stroke="#63b8ff" d="M115.5,-131.8C115.5,-124.34 115.5,-114.99 115.5,-106.41"/>
<polygon fill="#63b8ff" stroke="#63b8ff" points="119,-106.16 115.5,-96.16 112,-106.16 119,-106.16"/>
</a>
</g>
</g>
<!-- Node3 -->
<g id="Node000003" class="node">
<title>Node3</title>
<g id="a_Node000003"><a xlink:title=" ">
<polygon fill="#e0e0e0" stroke="#999999" points="127,-30 0,-30 0,0 127,0 127,-30"/>
<text text-anchor="start" x="8" y="-18" font-family="Helvetica,sans-Serif" font-size="10.00">deal.II/base/parameter</text>
<text text-anchor="middle" x="63.5" y="-7" font-family="Helvetica,sans-Serif" font-size="10.00">_handler.h</text>
</a>
</g>
</g>
<!-- Node2&#45;&gt;Node3 -->
<g id="edge2_Node000002_Node000003" class="edge">
<title>Node2&#45;&gt;Node3</title>
<g id="a_edge2_Node000002_Node000003"><a xlink:title=" ">
<path fill="none" stroke="#63b8ff" d="M103.96,-65.8C97.36,-57.68 88.94,-47.31 81.5,-38.15"/>
<polygon fill="#63b8ff" stroke="#63b8ff" points="84.03,-35.72 75.01,-30.16 78.6,-40.13 84.03,-35.72"/>
</a>
</g>
</g>
<!-- Node4 -->
<g id="Node000004" class="node">
<title>Node4</title>
<g id="a_Node000004"><a xlink:title=" ">
<polygon fill="#e0e0e0" stroke="#999999" points="189.5,-24.5 145.5,-24.5 145.5,-5.5 189.5,-5.5 189.5,-24.5"/>
<text text-anchor="middle" x="167.5" y="-12.5" font-family="Helvetica,sans-Serif" font-size="10.00">string</text>
</a>
</g>
</g>
<!-- Node2&#45;&gt;Node4 -->
<g id="edge3_Node000002_Node000004" class="edge">
<title>Node2&#45;&gt;Node4</title>
<g id="a_edge3_Node000002_Node000004"><a xlink:title=" ">
<path fill="none" stroke="#63b8ff" d="M127.04,-65.8C134.99,-56.01 145.58,-42.98 153.93,-32.7"/>
<polygon fill="#63b8ff" stroke="#63b8ff" points="156.72,-34.81 160.31,-24.84 151.29,-30.4 156.72,-34.81"/>
</a>
</g>
</g>
</g>
</svg>
