<?xml version="1.0" encoding="UTF-8" standalone="no"?>
<!DOCTYPE svg PUBLIC "-//W3C//DTD SVG 1.1//EN"
 "http://www.w3.org/Graphics/SVG/1.1/DTD/svg11.dtd">
<!-- Generated by graphviz version 2.43.0 (0)
 -->
<!-- Title: include/meltpooldg/utilities/triangulation_utils.hpp Pages: 1 -->
<!--zoomable 621 -->

<svg id="main" version="1.1" xmlns="http://www.w3.org/2000/svg" xmlns:xlink="http://www.w3.org/1999/xlink" xml:space="preserve" onload="init(evt)">
<style type="text/css"><![CDATA[
.node, .edge {opacity: 0.7;}
.node.selected, .edge.selected {opacity: 1;}
.edge:hover path { stroke: red; }
.edge:hover polygon { stroke: red; fill: red; }
]]></style>

<defs>
  <circle id="rim" cx="0" cy="0" r="7"/>
  <circle id="rim2" cx="0" cy="0" r="3.5"/>
  <g id="zoomPlus">
    <use xlink:href="#rim" fill="#404040"><set attributeName="fill" to="#808080" begin="zoomplus.mouseover" end="zoomplus.mouseout"/></use>
    <path d="M-4,0h8M0,-4v8" fill="none" stroke="white" stroke-width="1.5" pointer-events="none"/>
  </g>
  <g id="zoomMin">
    <use xlink:href="#rim" fill="#404040"><set attributeName="fill" to="#808080" begin="zoomminus.mouseover" end="zoomminus.mouseout"/></use>
    <path d="M-4,0h8" fill="none" stroke="white" stroke-width="1.5" pointer-events="none"/>
  </g>
  <g id="arrowUp" transform="translate(30 24)">
    <use xlink:href="#rim"/>
    <path pointer-events="none" fill="none" stroke="white" stroke-width="1.5" d="M0,-3.0v7 M-2.5,-0.5L0,-3.0L2.5,-0.5"/>
  </g>
  <g id="arrowRight" transform="rotate(90) translate(36 -43)">
    <use xlink:href="#rim"/>
    <path pointer-events="none" fill="none" stroke="white" stroke-width="1.5" d="M0,-3.0v7 M-2.5,-0.5L0,-3.0L2.5,-0.5"/>
  </g>
  <g id="arrowDown" transform="rotate(180) translate(-30 -48)">
    <use xlink:href="#rim"/>
    <path pointer-events="none" fill="none" stroke="white" stroke-width="1.5" d="M0,-3.0v7 M-2.5,-0.5L0,-3.0L2.5,-0.5"/>
  </g>
  <g id="arrowLeft" transform="rotate(270) translate(-36 17)">
    <use xlink:href="#rim"/>
    <path pointer-events="none" fill="none" stroke="white" stroke-width="1.5" d="M0,-3.0v7 M-2.5,-0.5L0,-3.0L2.5,-0.5"/>
  </g>
  <g id="resetDef">
    <use xlink:href="#rim2" fill="#404040"><set attributeName="fill" to="#808080" begin="reset.mouseover" end="reset.mouseout"/></use>
  </g>
</defs>
<script type="application/ecmascript">
var viewWidth = 1376;
var viewHeight = 621;
var sectionId = 'dynsection-1';
</script>
<script type="application/ecmascript" xlink:href="svg.min.js"/>
<svg id="graph" class="graph">
<g id="viewport">
<title>include/meltpooldg/utilities/triangulation_utils.hpp</title>
<!-- Node1 -->
<g id="Node000001" class="node">
<title>Node1</title>
<g id="a_Node000001"><a xlink:title=" ">
<polygon fill="#999999" stroke="#666666" points="1199.35,-613 1077.35,-613 1077.35,-572 1199.35,-572 1199.35,-613"/>
<text text-anchor="start" x="1085.35" y="-601" font-family="Helvetica,sans-Serif" font-size="10.00">include/meltpooldg</text>
<text text-anchor="start" x="1085.35" y="-590" font-family="Helvetica,sans-Serif" font-size="10.00">/utilities/triangulation</text>
<text text-anchor="middle" x="1138.35" y="-579" font-family="Helvetica,sans-Serif" font-size="10.00">_utils.hpp</text>
</a>
</g>
</g>
<!-- Node2 -->
<g id="Node000002" class="node">
<title>Node2</title>
<g id="a_Node000002"><a xlink:href="obstacle__data__structure_8hpp.html" target="_top" xlink:title=" ">
<polygon fill="white" stroke="#666666" points="1061.85,-536 948.85,-536 948.85,-495 1061.85,-495 1061.85,-536"/>
<text text-anchor="start" x="956.85" y="-524" font-family="Helvetica,sans-Serif" font-size="10.00">include/meltpooldg</text>
<text text-anchor="start" x="956.85" y="-513" font-family="Helvetica,sans-Serif" font-size="10.00">/particles/obstacle</text>
<text text-anchor="middle" x="1005.35" y="-502" font-family="Helvetica,sans-Serif" font-size="10.00">_data_structure.hpp</text>
</a>
</g>
</g>
<!-- Node1&#45;&gt;Node2 -->
<g id="edge1_Node000001_Node000002" class="edge">
<title>Node1&#45;&gt;Node2</title>
<g id="a_edge1_Node000001_Node000002"><a xlink:title=" ">
<path fill="none" stroke="#63b8ff" d="M1094.76,-566.92C1077.07,-556.95 1056.93,-545.58 1040.24,-536.17"/>
<polygon fill="#63b8ff" stroke="#63b8ff" points="1093.32,-570.13 1103.75,-571.99 1096.76,-564.03 1093.32,-570.13"/>
</a>
</g>
</g>
<!-- Node20 -->
<g id="Node000020" class="node">
<title>Node20</title>
<g id="a_Node000020"><a xlink:href="level__set__tools_8cpp.html" target="_top" xlink:title=" ">
<polygon fill="white" stroke="#666666" points="1196.35,-530.5 1080.35,-530.5 1080.35,-500.5 1196.35,-500.5 1196.35,-530.5"/>
<text text-anchor="start" x="1088.35" y="-518.5" font-family="Helvetica,sans-Serif" font-size="10.00">source/utilities/level</text>
<text text-anchor="middle" x="1138.35" y="-507.5" font-family="Helvetica,sans-Serif" font-size="10.00">_set_tools.cpp</text>
</a>
</g>
</g>
<!-- Node1&#45;&gt;Node20 -->
<g id="edge35_Node000001_Node000020" class="edge">
<title>Node1&#45;&gt;Node20</title>
<g id="a_edge35_Node000001_Node000020"><a xlink:title=" ">
<path fill="none" stroke="#63b8ff" d="M1138.35,-561.61C1138.35,-551.01 1138.35,-539.57 1138.35,-530.86"/>
<polygon fill="#63b8ff" stroke="#63b8ff" points="1134.85,-561.79 1138.35,-571.79 1141.85,-561.79 1134.85,-561.79"/>
</a>
</g>
</g>
<!-- Node21 -->
<g id="Node000021" class="node">
<title>Node21</title>
<g id="a_Node000021"><a xlink:href="triangulation__utils_8cpp.html" target="_top" xlink:title=" ">
<polygon fill="white" stroke="#666666" points="1368.35,-530.5 1214.35,-530.5 1214.35,-500.5 1368.35,-500.5 1368.35,-530.5"/>
<text text-anchor="start" x="1222.35" y="-518.5" font-family="Helvetica,sans-Serif" font-size="10.00">source/utilities/triangulation</text>
<text text-anchor="middle" x="1291.35" y="-507.5" font-family="Helvetica,sans-Serif" font-size="10.00">_utils.cpp</text>
</a>
</g>
</g>
<!-- Node1&#45;&gt;Node21 -->
<g id="edge36_Node000001_Node000021" class="edge">
<title>Node1&#45;&gt;Node21</title>
<g id="a_edge36_Node000001_Node000021"><a xlink:title=" ">
<path fill="none" stroke="#63b8ff" d="M1187.39,-567.46C1212.11,-555.34 1241.25,-541.06 1262.38,-530.7"/>
<polygon fill="#63b8ff" stroke="#63b8ff" points="1185.59,-564.45 1178.15,-571.99 1188.67,-570.73 1185.59,-564.45"/>
</a>
</g>
</g>
<!-- Node3 -->
<g id="Node000003" class="node">
<title>Node3</title>
<g id="a_Node000003"><a xlink:href="cell__batch__particle__cache_8hpp.html" target="_top" xlink:title=" ">
<polygon fill="white" stroke="#666666" points="1062.35,-459 948.35,-459 948.35,-418 1062.35,-418 1062.35,-459"/>
<text text-anchor="start" x="956.35" y="-447" font-family="Helvetica,sans-Serif" font-size="10.00">include/meltpooldg</text>
<text text-anchor="start" x="956.35" y="-436" font-family="Helvetica,sans-Serif" font-size="10.00">/particles/cell_batch</text>
<text text-anchor="middle" x="1005.35" y="-425" font-family="Helvetica,sans-Serif" font-size="10.00">_particle_cache.hpp</text>
</a>
</g>
</g>
<!-- Node2&#45;&gt;Node3 -->
<g id="edge2_Node000002_Node000003" class="edge">
<title>Node2&#45;&gt;Node3</title>
<g id="a_edge2_Node000002_Node000003"><a xlink:title=" ">
<path fill="none" stroke="#63b8ff" d="M1005.35,-484.69C1005.35,-476.08 1005.35,-466.9 1005.35,-459.07"/>
<polygon fill="#63b8ff" stroke="#63b8ff" points="1001.85,-484.79 1005.35,-494.79 1008.85,-484.79 1001.85,-484.79"/>
</a>
</g>
</g>
<!-- Node8 -->
<g id="Node000008" class="node">
<title>Node8</title>
<g id="a_Node000008"><a xlink:href="obstacle__field_8hpp.html" target="_top" xlink:title=" ">
<polygon fill="white" stroke="#666666" points="629.35,-459 519.35,-459 519.35,-418 629.35,-418 629.35,-459"/>
<text text-anchor="start" x="527.35" y="-447" font-family="Helvetica,sans-Serif" font-size="10.00">include/meltpooldg</text>
<text text-anchor="start" x="527.35" y="-436" font-family="Helvetica,sans-Serif" font-size="10.00">/particles/obstacle</text>
<text text-anchor="middle" x="574.35" y="-425" font-family="Helvetica,sans-Serif" font-size="10.00">_field.hpp</text>
</a>
</g>
</g>
<!-- Node2&#45;&gt;Node8 -->
<g id="edge8_Node000002_Node000008" class="edge">
<title>Node2&#45;&gt;Node8</title>
<g id="a_edge8_Node000002_Node000008"><a xlink:title=" ">
<path fill="none" stroke="#63b8ff" d="M938.51,-502.87C853.57,-488.09 708.53,-462.85 629.56,-449.11"/>
<polygon fill="#63b8ff" stroke="#63b8ff" points="938.11,-506.35 948.56,-504.62 939.31,-499.46 938.11,-506.35"/>
</a>
</g>
</g>
<!-- Node19 -->
<g id="Node000019" class="node">
<title>Node19</title>
<g id="a_Node000019"><a xlink:href="obstacle__data__structure_8cpp.html" target="_top" xlink:title=" ">
<polygon fill="white" stroke="#666666" points="1218.35,-453.5 1080.35,-453.5 1080.35,-423.5 1218.35,-423.5 1218.35,-453.5"/>
<text text-anchor="start" x="1088.35" y="-441.5" font-family="Helvetica,sans-Serif" font-size="10.00">source/particles/obstacle</text>
<text text-anchor="middle" x="1149.35" y="-430.5" font-family="Helvetica,sans-Serif" font-size="10.00">_data_structure.cpp</text>
</a>
</g>
</g>
<!-- Node2&#45;&gt;Node19 -->
<g id="edge34_Node000002_Node000019" class="edge">
<title>Node2&#45;&gt;Node19</title>
<g id="a_edge34_Node000002_Node000019"><a xlink:title=" ">
<path fill="none" stroke="#63b8ff" d="M1051.81,-490.3C1075.02,-478.22 1102.29,-464.01 1122.09,-453.7"/>
<polygon fill="#63b8ff" stroke="#63b8ff" points="1050.06,-487.27 1042.81,-494.99 1053.3,-493.48 1050.06,-487.27"/>
</a>
</g>
</g>
<!-- Node4 -->
<g id="Node000004" class="node">
<title>Node4</title>
<g id="a_Node000004"><a xlink:href="brinkman__penalization_8hpp.html" target="_top" xlink:title=" ">
<polygon fill="white" stroke="#666666" points="826.35,-211.5 674.35,-211.5 674.35,-170.5 826.35,-170.5 826.35,-211.5"/>
<text text-anchor="start" x="682.35" y="-199.5" font-family="Helvetica,sans-Serif" font-size="10.00">include/meltpooldg</text>
<text text-anchor="start" x="682.35" y="-188.5" font-family="Helvetica,sans-Serif" font-size="10.00">/fluid_structure_interaction</text>
<text text-anchor="middle" x="750.35" y="-177.5" font-family="Helvetica,sans-Serif" font-size="10.00">/brinkman_penalization.hpp</text>
</a>
</g>
</g>
<!-- Node3&#45;&gt;Node4 -->
<g id="edge3_Node000003_Node000004" class="edge">
<title>Node3&#45;&gt;Node4</title>
<g id="a_edge3_Node000003_Node000004"><a xlink:title=" ">
<path fill="none" stroke="#63b8ff" d="M1025.74,-409.42C1039.54,-386.65 1052.72,-354.45 1037.35,-330 991.44,-256.99 894.91,-221.71 826.5,-205.3"/>
<polygon fill="#63b8ff" stroke="#63b8ff" points="1022.72,-407.64 1020.27,-417.94 1028.61,-411.41 1022.72,-407.64"/>
</a>
</g>
</g>
<!-- Node5 -->
<g id="Node000005" class="node">
<title>Node5</title>
<g id="a_Node000005"><a xlink:href="fluid__structure__interaction__factory_8hpp.html" target="_top" xlink:title=" ">
<polygon fill="white" stroke="#666666" points="823.85,-52 676.85,-52 676.85,0 823.85,0 823.85,-52"/>
<text text-anchor="start" x="684.85" y="-40" font-family="Helvetica,sans-Serif" font-size="10.00">include/meltpooldg</text>
<text text-anchor="start" x="684.85" y="-29" font-family="Helvetica,sans-Serif" font-size="10.00">/fluid_structure_interaction</text>
<text text-anchor="start" x="684.85" y="-18" font-family="Helvetica,sans-Serif" font-size="10.00">/fluid_structure_interaction</text>
<text text-anchor="middle" x="750.35" y="-7" font-family="Helvetica,sans-Serif" font-size="10.00">_factory.hpp</text>
</a>
</g>
</g>
<!-- Node3&#45;&gt;Node5 -->
<g id="edge6_Node000003_Node000005" class="edge">
<title>Node3&#45;&gt;Node5</title>
<g id="a_edge6_Node000003_Node000005"><a xlink:title=" ">
<path fill="none" stroke="#63b8ff" d="M1032.85,-410.37C1040.53,-401.8 1048.38,-391.96 1054.35,-382 1080.55,-338.27 1094.35,-325.48 1094.35,-274.5 1094.35,-274.5 1094.35,-274.5 1094.35,-190 1094.35,-71.37 925.23,-38.96 824.15,-30.19"/>
<polygon fill="#63b8ff" stroke="#63b8ff" points="1030.15,-408.13 1025.92,-417.85 1035.29,-412.89 1030.15,-408.13"/>
</a>
</g>
</g>
<!-- Node7 -->
<g id="Node000007" class="node">
<title>Node7</title>
<g id="a_Node000007"><a xlink:href="cell__batch__particle__cache_8cpp.html" target="_top" xlink:title=" ">
<polygon fill="white" stroke="#666666" points="1027.85,-371 882.85,-371 882.85,-341 1027.85,-341 1027.85,-371"/>
<text text-anchor="start" x="890.85" y="-359" font-family="Helvetica,sans-Serif" font-size="10.00">source/particles/cell</text>
<text text-anchor="middle" x="955.35" y="-348" font-family="Helvetica,sans-Serif" font-size="10.00">_batch_particle_cache.cpp</text>
</a>
</g>
</g>
<!-- Node3&#45;&gt;Node7 -->
<g id="edge7_Node000003_Node000007" class="edge">
<title>Node3&#45;&gt;Node7</title>
<g id="a_edge7_Node000003_Node000007"><a xlink:title=" ">
<path fill="none" stroke="#63b8ff" d="M987.49,-408.74C979.62,-396.07 970.71,-381.73 964.27,-371.37"/>
<polygon fill="#63b8ff" stroke="#63b8ff" points="984.74,-410.95 992.99,-417.6 990.69,-407.26 984.74,-410.95"/>
</a>
</g>
</g>
<!-- Node4&#45;&gt;Node5 -->
<g id="edge4_Node000004_Node000005" class="edge">
<title>Node4&#45;&gt;Node5</title>
<g id="a_edge4_Node000004_Node000005"><a xlink:title=" ">
<path fill="none" stroke="#63b8ff" d="M750.35,-160.14C750.35,-129.13 750.35,-81.17 750.35,-52.07"/>
<polygon fill="#63b8ff" stroke="#63b8ff" points="746.85,-160.34 750.35,-170.34 753.85,-160.34 746.85,-160.34"/>
</a>
</g>
</g>
<!-- Node6 -->
<g id="Node000006" class="node">
<title>Node6</title>
<g id="a_Node000006"><a xlink:href="brinkman__penalization_8cpp.html" target="_top" xlink:title=" ">
<polygon fill="white" stroke="#666666" points="654.35,-129 530.35,-129 530.35,-88 654.35,-88 654.35,-129"/>
<text text-anchor="start" x="538.35" y="-117" font-family="Helvetica,sans-Serif" font-size="10.00">source/fluid_structure</text>
<text text-anchor="start" x="538.35" y="-106" font-family="Helvetica,sans-Serif" font-size="10.00">_interaction/brinkman</text>
<text text-anchor="middle" x="592.35" y="-95" font-family="Helvetica,sans-Serif" font-size="10.00">_penalization.cpp</text>
</a>
</g>
</g>
<!-- Node4&#45;&gt;Node6 -->
<g id="edge5_Node000004_Node000006" class="edge">
<title>Node4&#45;&gt;Node6</title>
<g id="a_edge5_Node000004_Node000006"><a xlink:title=" ">
<path fill="none" stroke="#63b8ff" d="M702.79,-165.77C679.79,-154.05 652.55,-140.17 630.88,-129.13"/>
<polygon fill="#63b8ff" stroke="#63b8ff" points="701.2,-168.89 711.7,-170.31 704.38,-162.65 701.2,-168.89"/>
</a>
</g>
</g>
<!-- Node8&#45;&gt;Node4 -->
<g id="edge9_Node000008_Node000004" class="edge">
<title>Node8&#45;&gt;Node4</title>
<g id="a_edge9_Node000008_Node000004"><a xlink:title=" ">
<path fill="none" stroke="#63b8ff" d="M639.51,-430.15C698.16,-422.04 778.02,-406.74 797.35,-382 837.63,-330.46 790.76,-249 765.03,-211.76"/>
<polygon fill="#63b8ff" stroke="#63b8ff" points="639.01,-426.69 629.56,-431.49 639.94,-433.63 639.01,-426.69"/>
</a>
</g>
</g>
<!-- Node8&#45;&gt;Node5 -->
<g id="edge10_Node000008_Node000005" class="edge">
<title>Node8&#45;&gt;Node5</title>
<g id="a_edge10_Node000008_Node000005"><a xlink:title=" ">
<path fill="none" stroke="#63b8ff" d="M639.74,-429.91C702.83,-421.33 792.46,-405.44 818.35,-382 855.71,-348.19 854.35,-324.89 854.35,-274.5 854.35,-274.5 854.35,-274.5 854.35,-190 854.35,-133.94 810.09,-81.66 779.32,-52.08"/>
<polygon fill="#63b8ff" stroke="#63b8ff" points="638.92,-426.49 629.47,-431.27 639.84,-433.42 638.92,-426.49"/>
</a>
</g>
</g>
<!-- Node8&#45;&gt;Node6 -->
<g id="edge28_Node000008_Node000006" class="edge">
<title>Node8&#45;&gt;Node6</title>
<g id="a_edge28_Node000008_Node000006"><a xlink:title=" ">
<path fill="none" stroke="#63b8ff" d="M582.36,-407.73C586.81,-385.46 589.6,-354.74 579.35,-330 570.69,-309.09 552.01,-314.91 543.35,-294 536.92,-278.46 532.08,-197.39 544.35,-165 549.5,-151.42 559.58,-138.93 569.18,-129.25"/>
<polygon fill="#63b8ff" stroke="#63b8ff" points="578.92,-407.09 580.17,-417.61 585.75,-408.6 578.92,-407.09"/>
</a>
</g>
</g>
<!-- Node8&#45;&gt;Node7 -->
<g id="edge30_Node000008_Node000007" class="edge">
<title>Node8&#45;&gt;Node7</title>
<g id="a_edge30_Node000008_Node000007"><a xlink:title=" ">
<path fill="none" stroke="#63b8ff" d="M639.46,-427C699.28,-416.93 790.24,-400.55 868.35,-382 881.81,-378.8 896.29,-374.85 909.51,-371.04"/>
<polygon fill="#63b8ff" stroke="#63b8ff" points="638.69,-423.58 629.4,-428.69 639.84,-430.49 638.69,-423.58"/>
</a>
</g>
</g>
<!-- Node9 -->
<g id="Node000009" class="node">
<title>Node9</title>
<g id="a_Node000009"><a xlink:href="fluid__structure__interaction__util_8hpp.html" target="_top" xlink:title=" ">
<polygon fill="white" stroke="#666666" points="787.85,-382 640.85,-382 640.85,-330 787.85,-330 787.85,-382"/>
<text text-anchor="start" x="648.85" y="-370" font-family="Helvetica,sans-Serif" font-size="10.00">include/meltpooldg</text>
<text text-anchor="start" x="648.85" y="-359" font-family="Helvetica,sans-Serif" font-size="10.00">/fluid_structure_interaction</text>
<text text-anchor="start" x="648.85" y="-348" font-family="Helvetica,sans-Serif" font-size="10.00">/fluid_structure_interaction</text>
<text text-anchor="middle" x="714.35" y="-337" font-family="Helvetica,sans-Serif" font-size="10.00">_util.hpp</text>
</a>
</g>
</g>
<!-- Node8&#45;&gt;Node9 -->
<g id="edge11_Node000008_Node000009" class="edge">
<title>Node8&#45;&gt;Node9</title>
<g id="a_edge11_Node000008_Node000009"><a xlink:title=" ">
<path fill="none" stroke="#63b8ff" d="M617.67,-412.59C634.51,-402.91 653.78,-391.83 670.65,-382.13"/>
<polygon fill="#63b8ff" stroke="#63b8ff" points="615.52,-409.79 608.6,-417.81 619.01,-415.86 615.52,-409.79"/>
</a>
</g>
</g>
<!-- Node12 -->
<g id="Node000012" class="node">
<title>Node12</title>
<g id="a_Node000012"><a xlink:href="stokes__law_8hpp.html" target="_top" xlink:title=" ">
<polygon fill="white" stroke="#666666" points="373.85,-129 226.85,-129 226.85,-88 373.85,-88 373.85,-129"/>
<text text-anchor="start" x="234.85" y="-117" font-family="Helvetica,sans-Serif" font-size="10.00">include/meltpooldg</text>
<text text-anchor="start" x="234.85" y="-106" font-family="Helvetica,sans-Serif" font-size="10.00">/fluid_structure_interaction</text>
<text text-anchor="middle" x="300.35" y="-95" font-family="Helvetica,sans-Serif" font-size="10.00">/stokes_law.hpp</text>
</a>
</g>
</g>
<!-- Node8&#45;&gt;Node12 -->
<g id="edge23_Node000008_Node000012" class="edge">
<title>Node8&#45;&gt;Node12</title>
<g id="a_edge23_Node000008_Node000012"><a xlink:title=" ">
<path fill="none" stroke="#63b8ff" d="M509.1,-435.27C376.82,-430.09 87.04,-415.05 57.35,-382 -27.58,-287.46 169.58,-173.85 259.06,-129.04"/>
<polygon fill="#63b8ff" stroke="#63b8ff" points="508.98,-438.77 519.11,-435.66 509.25,-431.78 508.98,-438.77"/>
</a>
</g>
</g>
<!-- Node13 -->
<g id="Node000013" class="node">
<title>Node13</title>
<g id="a_Node000013"><a xlink:href="stokes__law_8cpp.html" target="_top" xlink:title=" ">
<polygon fill="white" stroke="#666666" points="375.85,-41 224.85,-41 224.85,-11 375.85,-11 375.85,-41"/>
<text text-anchor="start" x="232.85" y="-29" font-family="Helvetica,sans-Serif" font-size="10.00">source/fluid_structure</text>
<text text-anchor="middle" x="300.35" y="-18" font-family="Helvetica,sans-Serif" font-size="10.00">_interaction/stokes_law.cpp</text>
</a>
</g>
</g>
<!-- Node8&#45;&gt;Node13 -->
<g id="edge29_Node000008_Node000013" class="edge">
<title>Node8&#45;&gt;Node13</title>
<g id="a_edge29_Node000008_Node000013"><a xlink:title=" ">
<path fill="none" stroke="#63b8ff" d="M508.87,-434.8C372.87,-428.61 69.44,-411.64 33.35,-382 -5.27,-350.28 0.35,-324.48 0.35,-274.5 0.35,-274.5 0.35,-274.5 0.35,-190 0.35,-88.05 135.78,-49.51 224.65,-35.2"/>
<polygon fill="#63b8ff" stroke="#63b8ff" points="509,-438.31 519.15,-435.26 509.32,-431.31 509,-438.31"/>
</a>
</g>
</g>
<!-- Node14 -->
<g id="Node000014" class="node">
<title>Node14</title>
<g id="a_Node000014"><a xlink:href="cohesive__forces_8hpp.html" target="_top" xlink:title=" ">
<polygon fill="white" stroke="#666666" points="176.35,-376.5 66.35,-376.5 66.35,-335.5 176.35,-335.5 176.35,-376.5"/>
<text text-anchor="start" x="74.35" y="-364.5" font-family="Helvetica,sans-Serif" font-size="10.00">include/meltpooldg</text>
<text text-anchor="start" x="74.35" y="-353.5" font-family="Helvetica,sans-Serif" font-size="10.00">/particles/cohesive</text>
<text text-anchor="middle" x="121.35" y="-342.5" font-family="Helvetica,sans-Serif" font-size="10.00">_forces.hpp</text>
</a>
</g>
</g>
<!-- Node8&#45;&gt;Node14 -->
<g id="edge24_Node000008_Node000014" class="edge">
<title>Node8&#45;&gt;Node14</title>
<g id="a_edge24_Node000008_Node000014"><a xlink:title=" ">
<path fill="none" stroke="#63b8ff" d="M509.26,-432.17C432.25,-424.94 300.56,-409.62 190.35,-382 184.17,-380.45 177.77,-378.55 171.48,-376.5"/>
<polygon fill="#63b8ff" stroke="#63b8ff" points="509.02,-435.67 519.3,-433.1 509.66,-428.7 509.02,-435.67"/>
</a>
</g>
</g>
<!-- Node15 -->
<g id="Node000015" class="node">
<title>Node15</title>
<g id="a_Node000015"><a xlink:href="cohesive__forces_8cpp.html" target="_top" xlink:title=" ">
<polygon fill="white" stroke="#666666" points="245.35,-288.5 105.35,-288.5 105.35,-258.5 245.35,-258.5 245.35,-288.5"/>
<text text-anchor="start" x="113.35" y="-276.5" font-family="Helvetica,sans-Serif" font-size="10.00">source/particles/cohesive</text>
<text text-anchor="middle" x="175.35" y="-265.5" font-family="Helvetica,sans-Serif" font-size="10.00">_forces.cpp</text>
</a>
</g>
</g>
<!-- Node8&#45;&gt;Node15 -->
<g id="edge31_Node000008_Node000015" class="edge">
<title>Node8&#45;&gt;Node15</title>
<g id="a_edge31_Node000008_Node000015"><a xlink:title=" ">
<path fill="none" stroke="#63b8ff" d="M508.88,-434.5C419.94,-429.21 266.98,-415.43 223.35,-382 193.01,-358.75 181.39,-312.11 177.32,-288.65"/>
<polygon fill="#63b8ff" stroke="#63b8ff" points="508.95,-438.01 519.14,-435.09 509.35,-431.02 508.95,-438.01"/>
</a>
</g>
</g>
<!-- Node16 -->
<g id="Node000016" class="node">
<title>Node16</title>
<g id="a_Node000016"><a xlink:href="contact__forces_8hpp.html" target="_top" xlink:title=" ">
<polygon fill="white" stroke="#666666" points="389.85,-371 232.85,-371 232.85,-341 389.85,-341 389.85,-371"/>
<text text-anchor="start" x="240.85" y="-359" font-family="Helvetica,sans-Serif" font-size="10.00">include/meltpooldg</text>
<text text-anchor="middle" x="311.35" y="-348" font-family="Helvetica,sans-Serif" font-size="10.00">/particles/contact_forces.hpp</text>
</a>
</g>
</g>
<!-- Node8&#45;&gt;Node16 -->
<g id="edge26_Node000008_Node000016" class="edge">
<title>Node8&#45;&gt;Node16</title>
<g id="a_edge26_Node000008_Node000016"><a xlink:title=" ">
<path fill="none" stroke="#63b8ff" d="M509.38,-417.61C462.13,-403.15 399.31,-383.92 357.21,-371.04"/>
<polygon fill="#63b8ff" stroke="#63b8ff" points="508.63,-421.04 519.22,-420.62 510.68,-414.35 508.63,-421.04"/>
</a>
</g>
</g>
<!-- Node17 -->
<g id="Node000017" class="node">
<title>Node17</title>
<g id="a_Node000017"><a xlink:href="contact__forces_8cpp.html" target="_top" xlink:title=" ">
<polygon fill="white" stroke="#666666" points="406.85,-288.5 273.85,-288.5 273.85,-258.5 406.85,-258.5 406.85,-288.5"/>
<text text-anchor="start" x="281.85" y="-276.5" font-family="Helvetica,sans-Serif" font-size="10.00">source/particles/contact</text>
<text text-anchor="middle" x="340.35" y="-265.5" font-family="Helvetica,sans-Serif" font-size="10.00">_forces.cpp</text>
</a>
</g>
</g>
<!-- Node8&#45;&gt;Node17 -->
<g id="edge32_Node000008_Node000017" class="edge">
<title>Node8&#45;&gt;Node17</title>
<g id="a_edge32_Node000008_Node000017"><a xlink:title=" ">
<path fill="none" stroke="#63b8ff" d="M577.23,-407.38C577.79,-383.43 574.44,-350.63 555.35,-330 535.32,-308.35 462.44,-292.76 407.03,-283.71"/>
<polygon fill="#63b8ff" stroke="#63b8ff" points="573.72,-407.53 576.74,-417.68 580.71,-407.86 573.72,-407.53"/>
</a>
</g>
</g>
<!-- Node18 -->
<g id="Node000018" class="node">
<title>Node18</title>
<g id="a_Node000018"><a xlink:href="obstacle__field_8cpp.html" target="_top" xlink:title=" ">
<polygon fill="white" stroke="#666666" points="546.35,-371 408.35,-371 408.35,-341 546.35,-341 546.35,-371"/>
<text text-anchor="start" x="416.35" y="-359" font-family="Helvetica,sans-Serif" font-size="10.00">source/particles/obstacle</text>
<text text-anchor="middle" x="477.35" y="-348" font-family="Helvetica,sans-Serif" font-size="10.00">_field.cpp</text>
</a>
</g>
</g>
<!-- Node8&#45;&gt;Node18 -->
<g id="edge33_Node000008_Node000018" class="edge">
<title>Node8&#45;&gt;Node18</title>
<g id="a_edge33_Node000008_Node000018"><a xlink:title=" ">
<path fill="none" stroke="#63b8ff" d="M542.3,-410.9C526.29,-397.61 507.58,-382.08 494.36,-371.12"/>
<polygon fill="#63b8ff" stroke="#63b8ff" points="540.44,-413.91 550.37,-417.6 544.91,-408.52 540.44,-413.91"/>
</a>
</g>
</g>
<!-- Node9&#45;&gt;Node4 -->
<g id="edge12_Node000009_Node000004" class="edge">
<title>Node9&#45;&gt;Node4</title>
<g id="a_edge12_Node000009_Node000004"><a xlink:title=" ">
<path fill="none" stroke="#63b8ff" d="M744.71,-321.68C750.71,-313.22 756.14,-303.75 759.35,-294 768.41,-266.47 762.28,-232.65 756.64,-211.71"/>
<polygon fill="#63b8ff" stroke="#63b8ff" points="741.83,-319.69 738.58,-329.77 747.41,-323.91 741.83,-319.69"/>
</a>
</g>
</g>
<!-- Node9&#45;&gt;Node6 -->
<g id="edge22_Node000009_Node000006" class="edge">
<title>Node9&#45;&gt;Node6</title>
<g id="a_edge22_Node000009_Node000006"><a xlink:title=" ">
<path fill="none" stroke="#63b8ff" d="M631.07,-330.78C600.47,-320.07 571.12,-306.97 562.35,-294 527.63,-242.65 561.42,-165.22 580.82,-129.21"/>
<polygon fill="#63b8ff" stroke="#63b8ff" points="629.99,-334.11 640.58,-334.03 632.25,-327.49 629.99,-334.11"/>
</a>
</g>
</g>
<!-- Node10 -->
<g id="Node000010" class="node">
<title>Node10</title>
<g id="a_Node000010"><a xlink:href="brinkman__penalization__data_8hpp.html" target="_top" xlink:title=" ">
<polygon fill="white" stroke="#666666" points="749.85,-294 570.85,-294 570.85,-253 749.85,-253 749.85,-294"/>
<text text-anchor="start" x="578.85" y="-282" font-family="Helvetica,sans-Serif" font-size="10.00">include/meltpooldg</text>
<text text-anchor="start" x="578.85" y="-271" font-family="Helvetica,sans-Serif" font-size="10.00">/fluid_structure_interaction</text>
<text text-anchor="middle" x="660.35" y="-260" font-family="Helvetica,sans-Serif" font-size="10.00">/brinkman_penalization_data.hpp</text>
</a>
</g>
</g>
<!-- Node9&#45;&gt;Node10 -->
<g id="edge13_Node000009_Node000010" class="edge">
<title>Node9&#45;&gt;Node10</title>
<g id="a_edge13_Node000009_Node000010"><a xlink:title=" ">
<path fill="none" stroke="#63b8ff" d="M691.94,-321.6C685.68,-312.25 679.07,-302.41 673.53,-294.15"/>
<polygon fill="#63b8ff" stroke="#63b8ff" points="689.08,-323.62 697.56,-329.97 694.9,-319.72 689.08,-323.62"/>
</a>
</g>
</g>
<!-- Node10&#45;&gt;Node4 -->
<g id="edge14_Node000010_Node000004" class="edge">
<title>Node10&#45;&gt;Node4</title>
<g id="a_edge14_Node000010_Node000004"><a xlink:title=" ">
<path fill="none" stroke="#63b8ff" d="M690.1,-245.89C702.59,-234.72 716.85,-221.97 728.36,-211.67"/>
<polygon fill="#63b8ff" stroke="#63b8ff" points="687.72,-243.33 682.6,-252.6 692.39,-248.54 687.72,-243.33"/>
</a>
</g>
</g>
<!-- Node10&#45;&gt;Node6 -->
<g id="edge21_Node000010_Node000006" class="edge">
<title>Node10&#45;&gt;Node6</title>
<g id="a_edge21_Node000010_Node000006"><a xlink:title=" ">
<path fill="none" stroke="#63b8ff" d="M648.17,-243.3C634.42,-210.35 612.44,-157.66 600.58,-129.23"/>
<polygon fill="#63b8ff" stroke="#63b8ff" points="645.07,-244.96 652.15,-252.84 651.53,-242.26 645.07,-244.96"/>
</a>
</g>
</g>
<!-- Node11 -->
<g id="Node000011" class="node">
<title>Node11</title>
<g id="a_Node000011"><a xlink:href="fluid__structure__interaction__data_8hpp.html" target="_top" xlink:title=" ">
<polygon fill="white" stroke="#666666" points="475.85,-217 328.85,-217 328.85,-165 475.85,-165 475.85,-217"/>
<text text-anchor="start" x="336.85" y="-205" font-family="Helvetica,sans-Serif" font-size="10.00">include/meltpooldg</text>
<text text-anchor="start" x="336.85" y="-194" font-family="Helvetica,sans-Serif" font-size="10.00">/fluid_structure_interaction</text>
<text text-anchor="start" x="336.85" y="-183" font-family="Helvetica,sans-Serif" font-size="10.00">/fluid_structure_interaction</text>
<text text-anchor="middle" x="402.35" y="-172" font-family="Helvetica,sans-Serif" font-size="10.00">_data.hpp</text>
</a>
</g>
</g>
<!-- Node10&#45;&gt;Node11 -->
<g id="edge15_Node000010_Node000011" class="edge">
<title>Node10&#45;&gt;Node11</title>
<g id="a_edge15_Node000010_Node000011"><a xlink:title=" ">
<path fill="none" stroke="#63b8ff" d="M587.9,-249.89C552.94,-238.99 511.07,-225.92 475.96,-214.97"/>
<polygon fill="#63b8ff" stroke="#63b8ff" points="586.98,-253.27 597.57,-252.91 589.06,-246.59 586.98,-253.27"/>
</a>
</g>
</g>
<!-- Node11&#45;&gt;Node5 -->
<g id="edge16_Node000011_Node000005" class="edge">
<title>Node11&#45;&gt;Node5</title>
<g id="a_edge16_Node000011_Node000005"><a xlink:title=" ">
<path fill="none" stroke="#63b8ff" d="M432.24,-157.59C454.72,-135.02 487.39,-105.88 521.35,-88 569.96,-62.42 630.14,-46.93 676.62,-37.96"/>
<polygon fill="#63b8ff" stroke="#63b8ff" points="429.51,-155.37 425.02,-164.96 434.51,-160.27 429.51,-155.37"/>
</a>
</g>
</g>
<!-- Node11&#45;&gt;Node12 -->
<g id="edge17_Node000011_Node000012" class="edge">
<title>Node11&#45;&gt;Node12</title>
<g id="a_edge17_Node000011_Node000012"><a xlink:title=" ">
<path fill="none" stroke="#63b8ff" d="M362.55,-158.59C349.98,-148.67 336.46,-138 325.24,-129.15"/>
<polygon fill="#63b8ff" stroke="#63b8ff" points="360.62,-161.52 370.64,-164.97 364.96,-156.03 360.62,-161.52"/>
</a>
</g>
</g>
<!-- Node11&#45;&gt;Node13 -->
<g id="edge20_Node000011_Node000013" class="edge">
<title>Node11&#45;&gt;Node13</title>
<g id="a_edge20_Node000011_Node000013"><a xlink:title=" ">
<path fill="none" stroke="#63b8ff" d="M402.12,-154.62C400.51,-133.84 395.8,-107.84 383.35,-88 370.42,-67.4 347.8,-51.47 329.44,-41.07"/>
<polygon fill="#63b8ff" stroke="#63b8ff" points="398.63,-154.87 402.7,-164.66 405.62,-154.47 398.63,-154.87"/>
</a>
</g>
</g>
<!-- Node12&#45;&gt;Node5 -->
<g id="edge18_Node000012_Node000005" class="edge">
<title>Node12&#45;&gt;Node5</title>
<g id="a_edge18_Node000012_Node000005"><a xlink:title=" ">
<path fill="none" stroke="#63b8ff" d="M383.93,-92.55C468.03,-77.5 596.45,-54.53 676.79,-40.16"/>
<polygon fill="#63b8ff" stroke="#63b8ff" points="383.13,-89.14 373.9,-94.34 384.36,-96.03 383.13,-89.14"/>
</a>
</g>
</g>
<!-- Node12&#45;&gt;Node13 -->
<g id="edge19_Node000012_Node000013" class="edge">
<title>Node12&#45;&gt;Node13</title>
<g id="a_edge19_Node000012_Node000013"><a xlink:title=" ">
<path fill="none" stroke="#63b8ff" d="M300.35,-77.26C300.35,-64.96 300.35,-51.33 300.35,-41.37"/>
<polygon fill="#63b8ff" stroke="#63b8ff" points="296.85,-77.6 300.35,-87.6 303.85,-77.6 296.85,-77.6"/>
</a>
</g>
</g>
<!-- Node14&#45;&gt;Node15 -->
<g id="edge25_Node000014_Node000015" class="edge">
<title>Node14&#45;&gt;Node15</title>
<g id="a_edge25_Node000014_Node000015"><a xlink:title=" ">
<path fill="none" stroke="#63b8ff" d="M140.39,-326.61C148.96,-313.85 158.7,-299.33 165.71,-288.87"/>
<polygon fill="#63b8ff" stroke="#63b8ff" points="137.36,-324.85 134.7,-335.1 143.18,-328.75 137.36,-324.85"/>
</a>
</g>
</g>
<!-- Node16&#45;&gt;Node17 -->
<g id="edge27_Node000016_Node000017" class="edge">
<title>Node16&#45;&gt;Node17</title>
<g id="a_edge27_Node000016_Node000017"><a xlink:title=" ">
<path fill="none" stroke="#63b8ff" d="M319.8,-331.55C324.81,-317.65 330.99,-300.48 335.26,-288.63"/>
<polygon fill="#63b8ff" stroke="#63b8ff" points="316.5,-330.38 316.4,-340.98 323.08,-332.76 316.5,-330.38"/>
</a>
</g>
</g>
</g>
</svg>

<g id="navigator" transform="translate(0 0)" fill="#404254">
  <rect fill="#f2f5e9" fill-opacity="0.5" stroke="#606060" stroke-width=".5" x="0" y="0" width="60" height="60"/>
  <use id="zoomplus" xlink:href="#zoomPlus" x="17" y="9" onmousedown="handleZoom(evt,'in')"/>
  <use id="zoomminus" xlink:href="#zoomMin" x="42" y="9" onmousedown="handleZoom(evt,'out')"/>
  <use id="reset" xlink:href="#resetDef" x="30" y="36" onmousedown="handleReset()"/>
   <use id="arrowup" xlink:href="#arrowUp" x="0" y="0" onmousedown="handlePan(0,-1)"/>
  <use id="arrowright" xlink:href="#arrowRight" x="0" y="0" onmousedown="handlePan(1,0)"/>
  <use id="arrowdown" xlink:href="#arrowDown" x="0" y="0" onmousedown="handlePan(0,1)"/>
  <use id="arrowleft" xlink:href="#arrowLeft" x="0" y="0" onmousedown="handlePan(-1,0)"/>
</g>
<svg viewBox="0 0 15 15" width="100%" height="30px" preserveAspectRatio="xMaxYMin meet">
 <g id="arrow_out" transform="scale(0.3 0.3)">
  <a xlink:href="triangulation__utils_8hpp__dep__incl_org.svg" target="_base">
   <rect id="button" ry="5" rx="5" y="6" x="6" height="38" width="38"
        fill="#f2f5e9" fill-opacity="0.5" stroke="#606060" stroke-width="1.0"/>
   <path id="arrow"
     d="M 11.500037,31.436501 C 11.940474,20.09759 22.043105,11.32322 32.158766,21.979434 L 37.068811,17.246167 C 37.068811,17.246167 37.088388,32 37.088388,32 L 22.160133,31.978069 C 22.160133,31.978069 26.997745,27.140456 26.997745,27.140456 C 18.528582,18.264221 13.291696,25.230495 11.500037,31.436501 z"
     style="fill:#404040;"/>
  </a>
 </g>
</svg>

<style type='text/css'>
<![CDATA[
[data-mouse-over-selected='false'] { opacity: 0.7; }
[data-mouse-over-selected='true']  { opacity: 1.0; }
]]>
</style>
<script type="application/ecmascript"><![CDATA[
document.addEventListener('DOMContentLoaded', (event) => {
  highlightEdges();
  highlightAdjacentNodes();
});
]]></script>
</svg>
