<?xml version="1.0" encoding="UTF-8" standalone="no"?>
<!DOCTYPE svg PUBLIC "-//W3C//DTD SVG 1.1//EN"
 "http://www.w3.org/Graphics/SVG/1.1/DTD/svg11.dtd">
<!-- Generated by graphviz version 2.43.0 (0)
 -->
<!-- Title: source/utilities/amr.cpp Pages: 1 -->
<!--zoomable 225 -->

<svg id="main" version="1.1" xmlns="http://www.w3.org/2000/svg" xmlns:xlink="http://www.w3.org/1999/xlink" xml:space="preserve" onload="init(evt)">
<style type="text/css"><![CDATA[
.node, .edge {opacity: 0.7;}
.node.selected, .edge.selected {opacity: 1;}
.edge:hover path { stroke: red; }
.edge:hover polygon { stroke: red; fill: red; }
]]></style>

<defs>
  <circle id="rim" cx="0" cy="0" r="7"/>
  <circle id="rim2" cx="0" cy="0" r="3.5"/>
  <g id="zoomPlus">
    <use xlink:href="#rim" fill="#404040"><set attributeName="fill" to="#808080" begin="zoomplus.mouseover" end="zoomplus.mouseout"/></use>
    <path d="M-4,0h8M0,-4v8" fill="none" stroke="white" stroke-width="1.5" pointer-events="none"/>
  </g>
  <g id="zoomMin">
    <use xlink:href="#rim" fill="#404040"><set attributeName="fill" to="#808080" begin="zoomminus.mouseover" end="zoomminus.mouseout"/></use>
    <path d="M-4,0h8" fill="none" stroke="white" stroke-width="1.5" pointer-events="none"/>
  </g>
  <g id="arrowUp" transform="translate(30 24)">
    <use xlink:href="#rim"/>
    <path pointer-events="none" fill="none" stroke="white" stroke-width="1.5" d="M0,-3.0v7 M-2.5,-0.5L0,-3.0L2.5,-0.5"/>
  </g>
  <g id="arrowRight" transform="rotate(90) translate(36 -43)">
    <use xlink:href="#rim"/>
    <path pointer-events="none" fill="none" stroke="white" stroke-width="1.5" d="M0,-3.0v7 M-2.5,-0.5L0,-3.0L2.5,-0.5"/>
  </g>
  <g id="arrowDown" transform="rotate(180) translate(-30 -48)">
    <use xlink:href="#rim"/>
    <path pointer-events="none" fill="none" stroke="white" stroke-width="1.5" d="M0,-3.0v7 M-2.5,-0.5L0,-3.0L2.5,-0.5"/>
  </g>
  <g id="arrowLeft" transform="rotate(270) translate(-36 17)">
    <use xlink:href="#rim"/>
    <path pointer-events="none" fill="none" stroke="white" stroke-width="1.5" d="M0,-3.0v7 M-2.5,-0.5L0,-3.0L2.5,-0.5"/>
  </g>
  <g id="resetDef">
    <use xlink:href="#rim2" fill="#404040"><set attributeName="fill" to="#808080" begin="reset.mouseover" end="reset.mouseout"/></use>
  </g>
</defs>
<script type="application/ecmascript">
var viewWidth = 1143;
var viewHeight = 225;
var sectionId = 'dynsection-0';
</script>
<script type="application/ecmascript" xlink:href="svg.min.js"/>
<svg id="graph" class="graph">
<g id="viewport">
<title>source/utilities/amr.cpp</title>
<!-- Node1 -->
<g id="Node000001" class="node">
<title>Node1</title>
<g id="a_Node000001"><a xlink:title=" ">
<polygon fill="#999999" stroke="#666666" points="763.5,-217 632.5,-217 632.5,-198 763.5,-198 763.5,-217"/>
<text text-anchor="middle" x="698" y="-205" font-family="Helvetica,sans-Serif" font-size="10.00">source/utilities/amr.cpp</text>
</a>
</g>
</g>
<!-- Node2 -->
<g id="Node000002" class="node">
<title>Node2</title>
<g id="a_Node000002"><a xlink:href="utilities_2amr_8hpp.html" target="_top" xlink:title=" ">
<polygon fill="white" stroke="#666666" points="341,-162 229,-162 229,-132 341,-132 341,-162"/>
<text text-anchor="start" x="237" y="-150" font-family="Helvetica,sans-Serif" font-size="10.00">meltpooldg/utilities</text>
<text text-anchor="middle" x="285" y="-139" font-family="Helvetica,sans-Serif" font-size="10.00">/amr.hpp</text>
</a>
</g>
</g>
<!-- Node1&#45;&gt;Node2 -->
<g id="edge1_Node000001_Node000002" class="edge">
<title>Node1&#45;&gt;Node2</title>
<g id="a_edge1_Node000001_Node000002"><a xlink:title=" ">
<path fill="none" stroke="#63b8ff" d="M632.33,-199.79C564.37,-192.46 454.96,-179.6 351.32,-162.14"/>
<polygon fill="#63b8ff" stroke="#63b8ff" points="351.76,-158.66 341.31,-160.44 350.58,-165.56 351.76,-158.66"/>
</a>
</g>
</g>
<!-- Node11 -->
<g id="Node000011" class="node">
<title>Node11</title>
<g id="a_Node000011"><a xlink:title=" ">
<polygon fill="#e0e0e0" stroke="#999999" points="497,-156.5 359,-156.5 359,-137.5 497,-137.5 497,-156.5"/>
<text text-anchor="middle" x="428" y="-144.5" font-family="Helvetica,sans-Serif" font-size="10.00">deal.II/base/exceptions.h</text>
</a>
</g>
</g>
<!-- Node1&#45;&gt;Node11 -->
<g id="edge13_Node000001_Node000011" class="edge">
<title>Node1&#45;&gt;Node11</title>
<g id="a_edge13_Node000001_Node000011"><a xlink:title=" ">
<path fill="none" stroke="#63b8ff" d="M658.74,-197.99C610.75,-187.6 529.5,-169.99 477.33,-158.69"/>
<polygon fill="#63b8ff" stroke="#63b8ff" points="477.82,-155.21 467.31,-156.52 476.34,-162.05 477.82,-155.21"/>
</a>
</g>
</g>
<!-- Node12 -->
<g id="Node000012" class="node">
<title>Node12</title>
<g id="a_Node000012"><a xlink:title=" ">
<polygon fill="#e0e0e0" stroke="#999999" points="621,-162 515,-162 515,-132 621,-132 621,-162"/>
<text text-anchor="start" x="523" y="-150" font-family="Helvetica,sans-Serif" font-size="10.00">deal.II/distributed</text>
<text text-anchor="middle" x="568" y="-139" font-family="Helvetica,sans-Serif" font-size="10.00">/grid_refinement.h</text>
</a>
</g>
</g>
<!-- Node1&#45;&gt;Node12 -->
<g id="edge14_Node000001_Node000012" class="edge">
<title>Node1&#45;&gt;Node12</title>
<g id="a_edge14_Node000001_Node000012"><a xlink:title=" ">
<path fill="none" stroke="#63b8ff" d="M679.1,-197.99C660.71,-189.72 632.2,-176.89 608.66,-166.3"/>
<polygon fill="#63b8ff" stroke="#63b8ff" points="609.81,-162.98 599.25,-162.06 606.94,-169.36 609.81,-162.98"/>
</a>
</g>
</g>
<!-- Node13 -->
<g id="Node000013" class="node">
<title>Node13</title>
<g id="a_Node000013"><a xlink:title=" ">
<polygon fill="#e0e0e0" stroke="#999999" points="757,-162 639,-162 639,-132 757,-132 757,-162"/>
<text text-anchor="start" x="647" y="-150" font-family="Helvetica,sans-Serif" font-size="10.00">deal.II/lac/la_parallel</text>
<text text-anchor="middle" x="698" y="-139" font-family="Helvetica,sans-Serif" font-size="10.00">_vector.h</text>
</a>
</g>
</g>
<!-- Node1&#45;&gt;Node13 -->
<g id="edge15_Node000001_Node000013" class="edge">
<title>Node1&#45;&gt;Node13</title>
<g id="a_edge15_Node000001_Node000013"><a xlink:title=" ">
<path fill="none" stroke="#63b8ff" d="M698,-197.87C698,-191.11 698,-181.35 698,-172.26"/>
<polygon fill="#63b8ff" stroke="#63b8ff" points="701.5,-172.11 698,-162.11 694.5,-172.11 701.5,-172.11"/>
</a>
</g>
</g>
<!-- Node14 -->
<g id="Node000014" class="node">
<title>Node14</title>
<g id="a_Node000014"><a xlink:title=" ">
<polygon fill="#e0e0e0" stroke="#999999" points="912.5,-162 775.5,-162 775.5,-132 912.5,-132 912.5,-162"/>
<text text-anchor="start" x="783.5" y="-150" font-family="Helvetica,sans-Serif" font-size="10.00">deal.II/numerics/solution</text>
<text text-anchor="middle" x="844" y="-139" font-family="Helvetica,sans-Serif" font-size="10.00">_transfer.h</text>
</a>
</g>
</g>
<!-- Node1&#45;&gt;Node14 -->
<g id="edge16_Node000001_Node000014" class="edge">
<title>Node1&#45;&gt;Node14</title>
<g id="a_edge16_Node000001_Node000014"><a xlink:title=" ">
<path fill="none" stroke="#63b8ff" d="M719.23,-197.99C740.15,-189.61 772.76,-176.55 799.39,-165.87"/>
<polygon fill="#63b8ff" stroke="#63b8ff" points="800.92,-169.03 808.9,-162.06 798.32,-162.53 800.92,-169.03"/>
</a>
</g>
</g>
<!-- Node15 -->
<g id="Node000015" class="node">
<title>Node15</title>
<g id="a_Node000015"><a xlink:title=" ">
<polygon fill="#e0e0e0" stroke="#999999" points="1059,-162 931,-162 931,-132 1059,-132 1059,-162"/>
<text text-anchor="start" x="939" y="-150" font-family="Helvetica,sans-Serif" font-size="10.00">deal.II/numerics/vector</text>
<text text-anchor="middle" x="995" y="-139" font-family="Helvetica,sans-Serif" font-size="10.00">_tools_common.h</text>
</a>
</g>
</g>
<!-- Node1&#45;&gt;Node15 -->
<g id="edge17_Node000001_Node000015" class="edge">
<title>Node1&#45;&gt;Node15</title>
<g id="a_edge17_Node000001_Node000015"><a xlink:title=" ">
<path fill="none" stroke="#63b8ff" d="M741.19,-197.99C788.24,-188.73 864.34,-173.74 920.96,-162.58"/>
<polygon fill="#63b8ff" stroke="#63b8ff" points="921.81,-165.98 930.94,-160.62 920.45,-159.12 921.81,-165.98"/>
</a>
</g>
</g>
<!-- Node16 -->
<g id="Node000016" class="node">
<title>Node16</title>
<g id="a_Node000016"><a xlink:title=" ">
<polygon fill="#e0e0e0" stroke="#999999" points="1135,-156.5 1077,-156.5 1077,-137.5 1135,-137.5 1135,-156.5"/>
<text text-anchor="middle" x="1106" y="-144.5" font-family="Helvetica,sans-Serif" font-size="10.00">memory</text>
</a>
</g>
</g>
<!-- Node1&#45;&gt;Node16 -->
<g id="edge18_Node000001_Node000016" class="edge">
<title>Node1&#45;&gt;Node16</title>
<g id="a_edge18_Node000001_Node000016"><a xlink:title=" ">
<path fill="none" stroke="#63b8ff" d="M763.65,-203.23C838.26,-198.46 963.27,-187.22 1068,-162 1070.51,-161.4 1073.09,-160.68 1075.65,-159.89"/>
<polygon fill="#63b8ff" stroke="#63b8ff" points="1077.02,-163.12 1085.36,-156.59 1074.77,-156.49 1077.02,-163.12"/>
</a>
</g>
</g>
<!-- Node3 -->
<g id="Node000003" class="node">
<title>Node3</title>
<g id="a_Node000003"><a xlink:title=" ">
<polygon fill="#e0e0e0" stroke="#999999" points="140,-24.5 0,-24.5 0,-5.5 140,-5.5 140,-24.5"/>
<text text-anchor="middle" x="70" y="-12.5" font-family="Helvetica,sans-Serif" font-size="10.00">deal.II/dofs/dof_handler.h</text>
</a>
</g>
</g>
<!-- Node2&#45;&gt;Node3 -->
<g id="edge2_Node000002_Node000003" class="edge">
<title>Node2&#45;&gt;Node3</title>
<g id="a_edge2_Node000002_Node000003"><a xlink:title=" ">
<path fill="none" stroke="#63b8ff" d="M243.99,-131.97C220.62,-123.17 191.25,-110.71 167,-96 135.95,-77.16 104.29,-49.02 85.92,-31.62"/>
<polygon fill="#63b8ff" stroke="#63b8ff" points="88.33,-29.08 78.69,-24.67 83.47,-34.12 88.33,-29.08"/>
</a>
</g>
</g>
<!-- Node4 -->
<g id="Node000004" class="node">
<title>Node4</title>
<g id="a_Node000004"><a xlink:title=" ">
<polygon fill="#e0e0e0" stroke="#999999" points="453.5,-90.5 356.5,-90.5 356.5,-71.5 453.5,-71.5 453.5,-90.5"/>
<text text-anchor="middle" x="405" y="-78.5" font-family="Helvetica,sans-Serif" font-size="10.00">deal.II/grid/tria.h</text>
</a>
</g>
</g>
<!-- Node2&#45;&gt;Node4 -->
<g id="edge3_Node000002_Node000004" class="edge">
<title>Node2&#45;&gt;Node4</title>
<g id="a_edge3_Node000002_Node000004"><a xlink:title=" ">
<path fill="none" stroke="#63b8ff" d="M311.33,-131.95C331.82,-121.03 360.06,-105.97 380.16,-95.25"/>
<polygon fill="#63b8ff" stroke="#63b8ff" points="381.85,-98.31 389.03,-90.52 378.56,-92.14 381.85,-98.31"/>
</a>
</g>
</g>
<!-- Node5 -->
<g id="Node000005" class="node">
<title>Node5</title>
<g id="a_Node000005"><a xlink:href="amr__data_8hpp.html" target="_top" xlink:title=" ">
<polygon fill="white" stroke="#666666" points="584,-96 472,-96 472,-66 584,-66 584,-96"/>
<text text-anchor="start" x="480" y="-84" font-family="Helvetica,sans-Serif" font-size="10.00">meltpooldg/utilities</text>
<text text-anchor="middle" x="528" y="-73" font-family="Helvetica,sans-Serif" font-size="10.00">/amr_data.hpp</text>
</a>
</g>
</g>
<!-- Node2&#45;&gt;Node5 -->
<g id="edge4_Node000002_Node000005" class="edge">
<title>Node2&#45;&gt;Node5</title>
<g id="a_edge4_Node000002_Node000005"><a xlink:title=" ">
<path fill="none" stroke="#63b8ff" d="M338.33,-131.95C375.68,-122.12 425.74,-108.93 465.05,-98.58"/>
<polygon fill="#63b8ff" stroke="#63b8ff" points="466.02,-101.94 474.8,-96.01 464.24,-95.17 466.02,-101.94"/>
</a>
</g>
</g>
<!-- Node7 -->
<g id="Node000007" class="node">
<title>Node7</title>
<g id="a_Node000007"><a xlink:href="attach__vectors_8hpp.html" target="_top" xlink:title=" ">
<polygon fill="white" stroke="#666666" points="299.5,-96 186.5,-96 186.5,-66 299.5,-66 299.5,-96"/>
<text text-anchor="start" x="194.5" y="-84" font-family="Helvetica,sans-Serif" font-size="10.00">meltpooldg/utilities</text>
<text text-anchor="middle" x="243" y="-73" font-family="Helvetica,sans-Serif" font-size="10.00">/attach_vectors.hpp</text>
</a>
</g>
</g>
<!-- Node2&#45;&gt;Node7 -->
<g id="edge6_Node000002_Node000007" class="edge">
<title>Node2&#45;&gt;Node7</title>
<g id="a_edge6_Node000002_Node000007"><a xlink:title=" ">
<path fill="none" stroke="#63b8ff" d="M275.68,-131.8C270.46,-123.84 263.83,-113.74 257.9,-104.71"/>
<polygon fill="#63b8ff" stroke="#63b8ff" points="260.71,-102.6 252.3,-96.16 254.86,-106.44 260.71,-102.6"/>
</a>
</g>
</g>
<!-- Node8 -->
<g id="Node000008" class="node">
<title>Node8</title>
<g id="a_Node000008"><a xlink:title=" ">
<polygon fill="#e0e0e0" stroke="#999999" points="223.5,-24.5 158.5,-24.5 158.5,-5.5 223.5,-5.5 223.5,-24.5"/>
<text text-anchor="middle" x="191" y="-12.5" font-family="Helvetica,sans-Serif" font-size="10.00">functional</text>
</a>
</g>
</g>
<!-- Node2&#45;&gt;Node8 -->
<g id="edge11_Node000002_Node000008" class="edge">
<title>Node2&#45;&gt;Node8</title>
<g id="a_edge11_Node000002_Node000008"><a xlink:title=" ">
<path fill="none" stroke="#63b8ff" d="M228.79,-133.42C208.95,-125.98 188.68,-114.28 177,-96 164.94,-77.13 173.23,-50.88 181.27,-33.67"/>
<polygon fill="#63b8ff" stroke="#63b8ff" points="184.41,-35.21 185.81,-24.71 178.17,-32.05 184.41,-35.21"/>
</a>
</g>
</g>
<!-- Node10 -->
<g id="Node000010" class="node">
<title>Node10</title>
<g id="a_Node000010"><a xlink:title=" ">
<polygon fill="#e0e0e0" stroke="#999999" points="351.5,-24.5 304.5,-24.5 304.5,-5.5 351.5,-5.5 351.5,-24.5"/>
<text text-anchor="middle" x="328" y="-12.5" font-family="Helvetica,sans-Serif" font-size="10.00">vector</text>
</a>
</g>
</g>
<!-- Node2&#45;&gt;Node10 -->
<g id="edge12_Node000002_Node000010" class="edge">
<title>Node2&#45;&gt;Node10</title>
<g id="a_edge12_Node000002_Node000010"><a xlink:title=" ">
<path fill="none" stroke="#63b8ff" d="M292.37,-131.85C297.28,-122 303.63,-108.44 308,-96 315.25,-75.37 320.97,-50.88 324.4,-34.48"/>
<polygon fill="#63b8ff" stroke="#63b8ff" points="327.86,-35.06 326.41,-24.56 321,-33.67 327.86,-35.06"/>
</a>
</g>
</g>
<!-- Node6 -->
<g id="Node000006" class="node">
<title>Node6</title>
<g id="a_Node000006"><a xlink:title=" ">
<polygon fill="#e0e0e0" stroke="#999999" points="591.5,-30 464.5,-30 464.5,0 591.5,0 591.5,-30"/>
<text text-anchor="start" x="472.5" y="-18" font-family="Helvetica,sans-Serif" font-size="10.00">deal.II/base/parameter</text>
<text text-anchor="middle" x="528" y="-7" font-family="Helvetica,sans-Serif" font-size="10.00">_handler.h</text>
</a>
</g>
</g>
<!-- Node5&#45;&gt;Node6 -->
<g id="edge5_Node000005_Node000006" class="edge">
<title>Node5&#45;&gt;Node6</title>
<g id="a_edge5_Node000005_Node000006"><a xlink:title=" ">
<path fill="none" stroke="#63b8ff" d="M528,-65.8C528,-58.34 528,-48.99 528,-40.41"/>
<polygon fill="#63b8ff" stroke="#63b8ff" points="531.5,-40.16 528,-30.16 524.5,-40.16 531.5,-40.16"/>
</a>
</g>
</g>
<!-- Node7&#45;&gt;Node3 -->
<g id="edge7_Node000007_Node000003" class="edge">
<title>Node7&#45;&gt;Node3</title>
<g id="a_edge7_Node000007_Node000003"><a xlink:title=" ">
<path fill="none" stroke="#63b8ff" d="M205.03,-65.95C174.43,-54.63 131.83,-38.88 102.72,-28.1"/>
<polygon fill="#63b8ff" stroke="#63b8ff" points="103.62,-24.7 93.02,-24.52 101.19,-31.27 103.62,-24.7"/>
</a>
</g>
</g>
<!-- Node7&#45;&gt;Node8 -->
<g id="edge8_Node000007_Node000008" class="edge">
<title>Node7&#45;&gt;Node8</title>
<g id="a_edge8_Node000007_Node000008"><a xlink:title=" ">
<path fill="none" stroke="#63b8ff" d="M231.46,-65.8C223.51,-56.01 212.92,-42.98 204.57,-32.7"/>
<polygon fill="#63b8ff" stroke="#63b8ff" points="207.21,-30.4 198.19,-24.84 201.78,-34.81 207.21,-30.4"/>
</a>
</g>
</g>
<!-- Node9 -->
<g id="Node000009" class="node">
<title>Node9</title>
<g id="a_Node000009"><a xlink:title=" ">
<polygon fill="#e0e0e0" stroke="#999999" points="286.5,-24.5 241.5,-24.5 241.5,-5.5 286.5,-5.5 286.5,-24.5"/>
<text text-anchor="middle" x="264" y="-12.5" font-family="Helvetica,sans-Serif" font-size="10.00">utility</text>
</a>
</g>
</g>
<!-- Node7&#45;&gt;Node9 -->
<g id="edge9_Node000007_Node000009" class="edge">
<title>Node7&#45;&gt;Node9</title>
<g id="a_edge9_Node000007_Node000009"><a xlink:title=" ">
<path fill="none" stroke="#63b8ff" d="M247.66,-65.8C250.68,-56.6 254.64,-44.53 257.9,-34.58"/>
<polygon fill="#63b8ff" stroke="#63b8ff" points="261.31,-35.44 261.1,-24.84 254.65,-33.25 261.31,-35.44"/>
</a>
</g>
</g>
<!-- Node7&#45;&gt;Node10 -->
<g id="edge10_Node000007_Node000010" class="edge">
<title>Node7&#45;&gt;Node10</title>
<g id="a_edge10_Node000007_Node000010"><a xlink:title=" ">
<path fill="none" stroke="#63b8ff" d="M261.86,-65.8C275.64,-55.43 294.26,-41.4 308.24,-30.88"/>
<polygon fill="#63b8ff" stroke="#63b8ff" points="310.37,-33.66 316.25,-24.84 306.16,-28.06 310.37,-33.66"/>
</a>
</g>
</g>
</g>
</svg>

<g id="navigator" transform="translate(0 0)" fill="#404254">
  <rect fill="#f2f5e9" fill-opacity="0.5" stroke="#606060" stroke-width=".5" x="0" y="0" width="60" height="60"/>
  <use id="zoomplus" xlink:href="#zoomPlus" x="17" y="9" onmousedown="handleZoom(evt,'in')"/>
  <use id="zoomminus" xlink:href="#zoomMin" x="42" y="9" onmousedown="handleZoom(evt,'out')"/>
  <use id="reset" xlink:href="#resetDef" x="30" y="36" onmousedown="handleReset()"/>
   <use id="arrowup" xlink:href="#arrowUp" x="0" y="0" onmousedown="handlePan(0,-1)"/>
  <use id="arrowright" xlink:href="#arrowRight" x="0" y="0" onmousedown="handlePan(1,0)"/>
  <use id="arrowdown" xlink:href="#arrowDown" x="0" y="0" onmousedown="handlePan(0,1)"/>
  <use id="arrowleft" xlink:href="#arrowLeft" x="0" y="0" onmousedown="handlePan(-1,0)"/>
</g>
<svg viewBox="0 0 15 15" width="100%" height="30px" preserveAspectRatio="xMaxYMin meet">
 <g id="arrow_out" transform="scale(0.3 0.3)">
  <a xlink:href="utilities_2amr_8cpp__incl_org.svg" target="_base">
   <rect id="button" ry="5" rx="5" y="6" x="6" height="38" width="38"
        fill="#f2f5e9" fill-opacity="0.5" stroke="#606060" stroke-width="1.0"/>
   <path id="arrow"
     d="M 11.500037,31.436501 C 11.940474,20.09759 22.043105,11.32322 32.158766,21.979434 L 37.068811,17.246167 C 37.068811,17.246167 37.088388,32 37.088388,32 L 22.160133,31.978069 C 22.160133,31.978069 26.997745,27.140456 26.997745,27.140456 C 18.528582,18.264221 13.291696,25.230495 11.500037,31.436501 z"
     style="fill:#404040;"/>
  </a>
 </g>
</svg>

<style type='text/css'>
<![CDATA[
[data-mouse-over-selected='false'] { opacity: 0.7; }
[data-mouse-over-selected='true']  { opacity: 1.0; }
]]>
</style>
<script type="application/ecmascript"><![CDATA[
document.addEventListener('DOMContentLoaded', (event) => {
  highlightEdges();
  highlightAdjacentNodes();
});
]]></script>
</svg>
