<?xml version="1.0" encoding="UTF-8" standalone="no"?>
<!DOCTYPE svg PUBLIC "-//W3C//DTD SVG 1.1//EN"
 "http://www.w3.org/Graphics/SVG/1.1/DTD/svg11.dtd">
<!-- Generated by graphviz version 2.43.0 (0)
 -->
<!-- Title: include/meltpooldg/utilities/vector_tools.templates.hpp Pages: 1 -->
<svg width="2360pt" height="335pt"
 viewBox="0.00 0.00 2360.46 335.00" xmlns="http://www.w3.org/2000/svg" xmlns:xlink="http://www.w3.org/1999/xlink">
<g id="graph0" class="graph" transform="scale(1 1) rotate(0) translate(4 331)">
<title>include/meltpooldg/utilities/vector_tools.templates.hpp</title>
<!-- Node1 -->
<g id="Node000001" class="node">
<title>Node1</title>
<g id="a_Node000001"><a xlink:title=" ">
<polygon fill="#999999" stroke="#666666" points="1224.96,-327 1031.96,-327 1031.96,-297 1224.96,-297 1224.96,-327"/>
<text text-anchor="start" x="1039.96" y="-315" font-family="Helvetica,sans-Serif" font-size="10.00">include/meltpooldg</text>
<text text-anchor="middle" x="1128.46" y="-304" font-family="Helvetica,sans-Serif" font-size="10.00">/utilities/vector_tools.templates.hpp</text>
</a>
</g>
</g>
<!-- Node2 -->
<g id="Node000002" class="node">
<title>Node2</title>
<g id="a_Node000002"><a xlink:href="cutdg__operation_8hpp.html" target="_top" xlink:title=" ">
<polygon fill="white" stroke="#666666" points="154.46,-107 14.46,-107 14.46,-66 154.46,-66 154.46,-107"/>
<text text-anchor="start" x="22.46" y="-95" font-family="Helvetica,sans-Serif" font-size="10.00">include/meltpooldg</text>
<text text-anchor="start" x="22.46" y="-84" font-family="Helvetica,sans-Serif" font-size="10.00">/compressible_flow/cutdg</text>
<text text-anchor="middle" x="84.46" y="-73" font-family="Helvetica,sans-Serif" font-size="10.00">_operation.hpp</text>
</a>
</g>
</g>
<!-- Node1&#45;&gt;Node2 -->
<g id="edge1_Node000001_Node000002" class="edge">
<title>Node1&#45;&gt;Node2</title>
<g id="a_edge1_Node000001_Node000002"><a xlink:title=" ">
<path fill="none" stroke="#63b8ff" d="M1021.68,-308.42C827.87,-303.11 425.56,-289.03 288.46,-261 189.02,-240.67 131.89,-266.99 73.46,-184 57.54,-161.39 66.53,-128.14 75.05,-107.17"/>
<polygon fill="#63b8ff" stroke="#63b8ff" points="1021.79,-311.92 1031.88,-308.7 1021.98,-304.93 1021.79,-311.92"/>
</a>
</g>
</g>
<!-- Node3 -->
<g id="Node000003" class="node">
<title>Node3</title>
<g id="a_Node000003"><a xlink:href="cutdg__operation_8cpp.html" target="_top" xlink:title=" ">
<polygon fill="white" stroke="#666666" points="156.46,-30 12.46,-30 12.46,0 156.46,0 156.46,-30"/>
<text text-anchor="start" x="20.46" y="-18" font-family="Helvetica,sans-Serif" font-size="10.00">source/compressible</text>
<text text-anchor="middle" x="84.46" y="-7" font-family="Helvetica,sans-Serif" font-size="10.00">_flow/cutdg_operation.cpp</text>
</a>
</g>
</g>
<!-- Node1&#45;&gt;Node3 -->
<g id="edge11_Node000001_Node000003" class="edge">
<title>Node1&#45;&gt;Node3</title>
<g id="a_edge11_Node000001_Node000003"><a xlink:title=" ">
<path fill="none" stroke="#63b8ff" d="M1021.77,-311.24C775.68,-311.02 183.34,-305.78 105.46,-261 34.72,-220.32 28.64,-185.25 5.46,-107 0.29,-89.53 -3.33,-81.96 5.46,-66 14.39,-49.79 31.03,-38.1 46.74,-30.12"/>
<polygon fill="#63b8ff" stroke="#63b8ff" points="1021.8,-314.74 1031.8,-311.25 1021.81,-307.74 1021.8,-314.74"/>
</a>
</g>
</g>
<!-- Node4 -->
<g id="Node000004" class="node">
<title>Node4</title>
<g id="a_Node000004"><a xlink:href="explicit__time__integration__utils_8hpp.html" target="_top" xlink:title=" ">
<polygon fill="white" stroke="#666666" points="447.46,-261 297.46,-261 297.46,-220 447.46,-220 447.46,-261"/>
<text text-anchor="start" x="305.46" y="-249" font-family="Helvetica,sans-Serif" font-size="10.00">include/meltpooldg</text>
<text text-anchor="start" x="305.46" y="-238" font-family="Helvetica,sans-Serif" font-size="10.00">/compressible_flow/explicit</text>
<text text-anchor="middle" x="372.46" y="-227" font-family="Helvetica,sans-Serif" font-size="10.00">_time_integration_utils.hpp</text>
</a>
</g>
</g>
<!-- Node1&#45;&gt;Node4 -->
<g id="edge3_Node000001_Node000004" class="edge">
<title>Node1&#45;&gt;Node4</title>
<g id="a_edge3_Node000001_Node000004"><a xlink:title=" ">
<path fill="none" stroke="#63b8ff" d="M1021.66,-304.25C898.5,-296.02 690.04,-280.74 511.46,-261 490.75,-258.71 468.37,-255.77 447.75,-252.88"/>
<polygon fill="#63b8ff" stroke="#63b8ff" points="1021.64,-307.76 1031.85,-304.93 1022.1,-300.77 1021.64,-307.76"/>
</a>
</g>
</g>
<!-- Node6 -->
<g id="Node000006" class="node">
<title>Node6</title>
<g id="a_Node000006"><a xlink:href="cutdg__operator_8cpp.html" target="_top" xlink:title=" ">
<polygon fill="white" stroke="#666666" points="517.46,-101.5 379.46,-101.5 379.46,-71.5 517.46,-71.5 517.46,-101.5"/>
<text text-anchor="start" x="387.46" y="-89.5" font-family="Helvetica,sans-Serif" font-size="10.00">source/compressible</text>
<text text-anchor="middle" x="448.46" y="-78.5" font-family="Helvetica,sans-Serif" font-size="10.00">_flow/cutdg_operator.cpp</text>
</a>
</g>
</g>
<!-- Node1&#45;&gt;Node6 -->
<g id="edge12_Node000001_Node000006" class="edge">
<title>Node1&#45;&gt;Node6</title>
<g id="a_edge12_Node000001_Node000006"><a xlink:title=" ">
<path fill="none" stroke="#63b8ff" d="M1021.39,-307.38C880.47,-301.57 647.18,-287.99 618.46,-261 579.76,-224.62 633.24,-184 599.46,-143 579.22,-118.43 547.06,-104.73 517.61,-97.1"/>
<polygon fill="#63b8ff" stroke="#63b8ff" points="1021.65,-310.89 1031.79,-307.8 1021.94,-303.9 1021.65,-310.89"/>
</a>
</g>
</g>
<!-- Node7 -->
<g id="Node000007" class="node">
<title>Node7</title>
<g id="a_Node000007"><a xlink:href="dg__operator__implicit_8cpp.html" target="_top" xlink:title=" ">
<polygon fill="white" stroke="#666666" points="590.46,-178.5 424.46,-178.5 424.46,-148.5 590.46,-148.5 590.46,-178.5"/>
<text text-anchor="start" x="432.46" y="-166.5" font-family="Helvetica,sans-Serif" font-size="10.00">source/compressible</text>
<text text-anchor="middle" x="507.46" y="-155.5" font-family="Helvetica,sans-Serif" font-size="10.00">_flow/dg_operator_implicit.cpp</text>
</a>
</g>
</g>
<!-- Node1&#45;&gt;Node7 -->
<g id="edge15_Node000001_Node000007" class="edge">
<title>Node1&#45;&gt;Node7</title>
<g id="a_edge15_Node000001_Node000007"><a xlink:title=" ">
<path fill="none" stroke="#63b8ff" d="M1021.7,-310.89C885.41,-309.1 658.49,-300.09 585.46,-261 550.52,-242.3 525.51,-200.63 514.21,-178.67"/>
<polygon fill="#63b8ff" stroke="#63b8ff" points="1021.72,-314.39 1031.76,-311.01 1021.8,-307.39 1021.72,-314.39"/>
</a>
</g>
</g>
<!-- Node9 -->
<g id="Node000009" class="node">
<title>Node9</title>
<g id="a_Node000009"><a xlink:href="compressible__flow_2boundary__conditions_8cpp.html" target="_top" xlink:title=" ">
<polygon fill="white" stroke="#666666" points="793.96,-255.5 626.96,-255.5 626.96,-225.5 793.96,-225.5 793.96,-255.5"/>
<text text-anchor="start" x="634.96" y="-243.5" font-family="Helvetica,sans-Serif" font-size="10.00">source/compressible</text>
<text text-anchor="middle" x="710.46" y="-232.5" font-family="Helvetica,sans-Serif" font-size="10.00">_flow/boundary_conditions.cpp</text>
</a>
</g>
</g>
<!-- Node1&#45;&gt;Node9 -->
<g id="edge10_Node000001_Node000009" class="edge">
<title>Node1&#45;&gt;Node9</title>
<g id="a_edge10_Node000001_Node000009"><a xlink:title=" ">
<path fill="none" stroke="#63b8ff" d="M1021.85,-296.08C958.3,-286.82 876.11,-274.19 803.46,-261 794.29,-259.33 784.64,-257.45 775.16,-255.54"/>
<polygon fill="#63b8ff" stroke="#63b8ff" points="1021.49,-299.56 1031.89,-297.54 1022.49,-292.64 1021.49,-299.56"/>
</a>
</g>
</g>
<!-- Node10 -->
<g id="Node000010" class="node">
<title>Node10</title>
<g id="a_Node000010"><a xlink:href="dg__operation_8cpp.html" target="_top" xlink:title=" ">
<polygon fill="white" stroke="#666666" points="940.96,-255.5 811.96,-255.5 811.96,-225.5 940.96,-225.5 940.96,-255.5"/>
<text text-anchor="start" x="819.96" y="-243.5" font-family="Helvetica,sans-Serif" font-size="10.00">source/compressible</text>
<text text-anchor="middle" x="876.46" y="-232.5" font-family="Helvetica,sans-Serif" font-size="10.00">_flow/dg_operation.cpp</text>
</a>
</g>
</g>
<!-- Node1&#45;&gt;Node10 -->
<g id="edge13_Node000001_Node000010" class="edge">
<title>Node1&#45;&gt;Node10</title>
<g id="a_edge13_Node000001_Node000010"><a xlink:title=" ">
<path fill="none" stroke="#63b8ff" d="M1067.71,-294.24C1024.79,-282.41 967.92,-266.72 927.38,-255.54"/>
<polygon fill="#63b8ff" stroke="#63b8ff" points="1066.9,-297.65 1077.47,-296.94 1068.76,-290.9 1066.9,-297.65"/>
</a>
</g>
</g>
<!-- Node11 -->
<g id="Node000011" class="node">
<title>Node11</title>
<g id="a_Node000011"><a xlink:href="dg__operator__explicit_8cpp.html" target="_top" xlink:title=" ">
<polygon fill="white" stroke="#666666" points="1123.96,-255.5 958.96,-255.5 958.96,-225.5 1123.96,-225.5 1123.96,-255.5"/>
<text text-anchor="start" x="966.96" y="-243.5" font-family="Helvetica,sans-Serif" font-size="10.00">source/compressible</text>
<text text-anchor="middle" x="1041.46" y="-232.5" font-family="Helvetica,sans-Serif" font-size="10.00">_flow/dg_operator_explicit.cpp</text>
</a>
</g>
</g>
<!-- Node1&#45;&gt;Node11 -->
<g id="edge14_Node000001_Node000011" class="edge">
<title>Node1&#45;&gt;Node11</title>
<g id="a_edge14_Node000001_Node000011"><a xlink:title=" ">
<path fill="none" stroke="#63b8ff" d="M1102.96,-290.63C1088.84,-279.35 1071.65,-265.62 1059.04,-255.54"/>
<polygon fill="#63b8ff" stroke="#63b8ff" points="1100.86,-293.43 1110.86,-296.94 1105.23,-287.96 1100.86,-293.43"/>
</a>
</g>
</g>
<!-- Node12 -->
<g id="Node000012" class="node">
<title>Node12</title>
<g id="a_Node000012"><a xlink:href="dg__operator__implicit__explicit_8cpp.html" target="_top" xlink:title=" ">
<polygon fill="white" stroke="#666666" points="1288.46,-261 1142.46,-261 1142.46,-220 1288.46,-220 1288.46,-261"/>
<text text-anchor="start" x="1150.46" y="-249" font-family="Helvetica,sans-Serif" font-size="10.00">source/compressible</text>
<text text-anchor="start" x="1150.46" y="-238" font-family="Helvetica,sans-Serif" font-size="10.00">_flow/dg_operator_implicit</text>
<text text-anchor="middle" x="1215.46" y="-227" font-family="Helvetica,sans-Serif" font-size="10.00">_explicit.cpp</text>
</a>
</g>
</g>
<!-- Node1&#45;&gt;Node12 -->
<g id="edge16_Node000001_Node000012" class="edge">
<title>Node1&#45;&gt;Node12</title>
<g id="a_edge16_Node000001_Node000012"><a xlink:title=" ">
<path fill="none" stroke="#63b8ff" d="M1154.12,-290.5C1165.76,-281.21 1179.46,-270.26 1190.96,-261.07"/>
<polygon fill="#63b8ff" stroke="#63b8ff" points="1151.7,-287.96 1146.07,-296.94 1156.07,-293.43 1151.7,-287.96"/>
</a>
</g>
</g>
<!-- Node13 -->
<g id="Node000013" class="node">
<title>Node13</title>
<g id="a_Node000013"><a xlink:href="darcy__damping__operation_8cpp.html" target="_top" xlink:title=" ">
<polygon fill="white" stroke="#666666" points="1456.46,-255.5 1306.46,-255.5 1306.46,-225.5 1456.46,-225.5 1456.46,-255.5"/>
<text text-anchor="start" x="1314.46" y="-243.5" font-family="Helvetica,sans-Serif" font-size="10.00">source/flow/darcy_damping</text>
<text text-anchor="middle" x="1381.46" y="-232.5" font-family="Helvetica,sans-Serif" font-size="10.00">_operation.cpp</text>
</a>
</g>
</g>
<!-- Node1&#45;&gt;Node13 -->
<g id="edge17_Node000001_Node000013" class="edge">
<title>Node1&#45;&gt;Node13</title>
<g id="a_edge17_Node000001_Node000013"><a xlink:title=" ">
<path fill="none" stroke="#63b8ff" d="M1189.46,-294.24C1232.55,-282.41 1289.64,-266.72 1330.34,-255.54"/>
<polygon fill="#63b8ff" stroke="#63b8ff" points="1188.38,-290.91 1179.66,-296.94 1190.23,-297.66 1188.38,-290.91"/>
</a>
</g>
</g>
<!-- Node14 -->
<g id="Node000014" class="node">
<title>Node14</title>
<g id="a_Node000014"><a xlink:href="surface__tension__operation_8cpp.html" target="_top" xlink:title=" ">
<polygon fill="white" stroke="#666666" points="1604.46,-255.5 1474.46,-255.5 1474.46,-225.5 1604.46,-225.5 1604.46,-255.5"/>
<text text-anchor="start" x="1482.46" y="-243.5" font-family="Helvetica,sans-Serif" font-size="10.00">source/flow/surface</text>
<text text-anchor="middle" x="1539.46" y="-232.5" font-family="Helvetica,sans-Serif" font-size="10.00">_tension_operation.cpp</text>
</a>
</g>
</g>
<!-- Node1&#45;&gt;Node14 -->
<g id="edge18_Node000001_Node000014" class="edge">
<title>Node1&#45;&gt;Node14</title>
<g id="a_edge18_Node000001_Node000014"><a xlink:title=" ">
<path fill="none" stroke="#63b8ff" d="M1235.27,-298.22C1301.81,-289.5 1389,-276.7 1465.46,-261 1473.14,-259.42 1481.21,-257.54 1489.08,-255.57"/>
<polygon fill="#63b8ff" stroke="#63b8ff" points="1234.66,-294.77 1225.19,-299.53 1235.56,-301.71 1234.66,-294.77"/>
</a>
</g>
</g>
<!-- Node15 -->
<g id="Node000015" class="node">
<title>Node15</title>
<g id="a_Node000015"><a xlink:href="heat__diffuse__operator_8cpp.html" target="_top" xlink:title=" ">
<polygon fill="white" stroke="#666666" points="1759.96,-255.5 1622.96,-255.5 1622.96,-225.5 1759.96,-225.5 1759.96,-255.5"/>
<text text-anchor="start" x="1630.96" y="-243.5" font-family="Helvetica,sans-Serif" font-size="10.00">source/heat/heat_diffuse</text>
<text text-anchor="middle" x="1691.46" y="-232.5" font-family="Helvetica,sans-Serif" font-size="10.00">_operator.cpp</text>
</a>
</g>
</g>
<!-- Node1&#45;&gt;Node15 -->
<g id="edge19_Node000001_Node000015" class="edge">
<title>Node1&#45;&gt;Node15</title>
<g id="a_edge19_Node000001_Node000015"><a xlink:title=" ">
<path fill="none" stroke="#63b8ff" d="M1235.16,-304.38C1333.83,-297.23 1484.3,-283.69 1613.46,-261 1621.99,-259.5 1630.96,-257.59 1639.66,-255.54"/>
<polygon fill="#63b8ff" stroke="#63b8ff" points="1234.91,-300.89 1225.18,-305.1 1235.41,-307.87 1234.91,-300.89"/>
</a>
</g>
</g>
<!-- Node16 -->
<g id="Node000016" class="node">
<title>Node16</title>
<g id="a_Node000016"><a xlink:href="advection__DG__operator_8cpp.html" target="_top" xlink:title=" ">
<polygon fill="white" stroke="#666666" points="1924.96,-255.5 1777.96,-255.5 1777.96,-225.5 1924.96,-225.5 1924.96,-255.5"/>
<text text-anchor="start" x="1785.96" y="-243.5" font-family="Helvetica,sans-Serif" font-size="10.00">source/level_set/advection</text>
<text text-anchor="middle" x="1851.46" y="-232.5" font-family="Helvetica,sans-Serif" font-size="10.00">_DG_operator.cpp</text>
</a>
</g>
</g>
<!-- Node1&#45;&gt;Node16 -->
<g id="edge20_Node000001_Node000016" class="edge">
<title>Node1&#45;&gt;Node16</title>
<g id="a_edge20_Node000001_Node000016"><a xlink:title=" ">
<path fill="none" stroke="#63b8ff" d="M1235.29,-307.75C1363,-302.69 1582.91,-290.27 1769.46,-261 1778.71,-259.55 1788.47,-257.6 1797.89,-255.5"/>
<polygon fill="#63b8ff" stroke="#63b8ff" points="1234.97,-304.26 1225.11,-308.14 1235.24,-311.25 1234.97,-304.26"/>
</a>
</g>
</g>
<!-- Node17 -->
<g id="Node000017" class="node">
<title>Node17</title>
<g id="a_Node000017"><a xlink:href="evaporation__source__terms__continuous_8cpp.html" target="_top" xlink:title=" ">
<polygon fill="white" stroke="#666666" points="2071.96,-261 1942.96,-261 1942.96,-220 2071.96,-220 2071.96,-261"/>
<text text-anchor="start" x="1950.96" y="-249" font-family="Helvetica,sans-Serif" font-size="10.00">source/phase_change</text>
<text text-anchor="start" x="1950.96" y="-238" font-family="Helvetica,sans-Serif" font-size="10.00">/evaporation_source</text>
<text text-anchor="middle" x="2007.46" y="-227" font-family="Helvetica,sans-Serif" font-size="10.00">_terms_continuous.cpp</text>
</a>
</g>
</g>
<!-- Node1&#45;&gt;Node17 -->
<g id="edge21_Node000001_Node000017" class="edge">
<title>Node1&#45;&gt;Node17</title>
<g id="a_edge21_Node000001_Node000017"><a xlink:title=" ">
<path fill="none" stroke="#63b8ff" d="M1235,-311.11C1389.96,-309.76 1686.17,-301.45 1934.46,-261 1937.18,-260.56 1939.95,-260.06 1942.73,-259.51"/>
<polygon fill="#63b8ff" stroke="#63b8ff" points="1234.97,-307.61 1224.99,-311.19 1235.02,-314.61 1234.97,-307.61"/>
</a>
</g>
</g>
<!-- Node18 -->
<g id="Node000018" class="node">
<title>Node18</title>
<g id="a_Node000018"><a xlink:href="evaporation__source__terms__sharp_8cpp.html" target="_top" xlink:title=" ">
<polygon fill="white" stroke="#666666" points="2212.46,-261 2090.46,-261 2090.46,-220 2212.46,-220 2212.46,-261"/>
<text text-anchor="start" x="2098.46" y="-249" font-family="Helvetica,sans-Serif" font-size="10.00">source/phase_change</text>
<text text-anchor="start" x="2098.46" y="-238" font-family="Helvetica,sans-Serif" font-size="10.00">/evaporation_source</text>
<text text-anchor="middle" x="2151.46" y="-227" font-family="Helvetica,sans-Serif" font-size="10.00">_terms_sharp.cpp</text>
</a>
</g>
</g>
<!-- Node1&#45;&gt;Node18 -->
<g id="edge22_Node000001_Node000018" class="edge">
<title>Node1&#45;&gt;Node18</title>
<g id="a_edge22_Node000001_Node000018"><a xlink:title=" ">
<path fill="none" stroke="#63b8ff" d="M1235.24,-308.35C1448.72,-302.56 1921.39,-287.17 2081.46,-261 2084.33,-260.53 2087.24,-259.99 2090.17,-259.39"/>
<polygon fill="#63b8ff" stroke="#63b8ff" points="1234.87,-304.86 1224.96,-308.62 1235.05,-311.85 1234.87,-304.86"/>
</a>
</g>
</g>
<!-- Node19 -->
<g id="Node000019" class="node">
<title>Node19</title>
<g id="a_Node000019"><a xlink:href="vector__tools_8cpp.html" target="_top" xlink:title=" ">
<polygon fill="white" stroke="#666666" points="2352.46,-255.5 2230.46,-255.5 2230.46,-225.5 2352.46,-225.5 2352.46,-255.5"/>
<text text-anchor="start" x="2238.46" y="-243.5" font-family="Helvetica,sans-Serif" font-size="10.00">source/utilities/vector</text>
<text text-anchor="middle" x="2291.46" y="-232.5" font-family="Helvetica,sans-Serif" font-size="10.00">_tools.cpp</text>
</a>
</g>
</g>
<!-- Node1&#45;&gt;Node19 -->
<g id="edge23_Node000001_Node000019" class="edge">
<title>Node1&#45;&gt;Node19</title>
<g id="a_edge23_Node000001_Node000019"><a xlink:title=" ">
<path fill="none" stroke="#63b8ff" d="M1235.47,-309.18C1472.14,-304.65 2033.87,-291.02 2221.46,-261 2229.81,-259.66 2238.58,-257.69 2246.98,-255.51"/>
<polygon fill="#63b8ff" stroke="#63b8ff" points="1235.06,-305.69 1225.13,-309.38 1235.19,-312.69 1235.06,-305.69"/>
</a>
</g>
</g>
<!-- Node2&#45;&gt;Node3 -->
<g id="edge2_Node000002_Node000003" class="edge">
<title>Node2&#45;&gt;Node3</title>
<g id="a_edge2_Node000002_Node000003"><a xlink:title=" ">
<path fill="none" stroke="#63b8ff" d="M84.46,-55.66C84.46,-46.76 84.46,-37.42 84.46,-30.04"/>
<polygon fill="#63b8ff" stroke="#63b8ff" points="80.96,-55.77 84.46,-65.77 87.96,-55.77 80.96,-55.77"/>
</a>
</g>
</g>
<!-- Node5 -->
<g id="Node000005" class="node">
<title>Node5</title>
<g id="a_Node000005"><a xlink:href="cutdg__operator_8hpp.html" target="_top" xlink:title=" ">
<polygon fill="white" stroke="#666666" points="222.46,-184 82.46,-184 82.46,-143 222.46,-143 222.46,-184"/>
<text text-anchor="start" x="90.46" y="-172" font-family="Helvetica,sans-Serif" font-size="10.00">include/meltpooldg</text>
<text text-anchor="start" x="90.46" y="-161" font-family="Helvetica,sans-Serif" font-size="10.00">/compressible_flow/cutdg</text>
<text text-anchor="middle" x="152.46" y="-150" font-family="Helvetica,sans-Serif" font-size="10.00">_operator.hpp</text>
</a>
</g>
</g>
<!-- Node4&#45;&gt;Node5 -->
<g id="edge4_Node000004_Node000005" class="edge">
<title>Node4&#45;&gt;Node5</title>
<g id="a_edge4_Node000004_Node000005"><a xlink:title=" ">
<path fill="none" stroke="#63b8ff" d="M305.51,-216.67C274.93,-206.25 239.09,-194.03 209.79,-184.04"/>
<polygon fill="#63b8ff" stroke="#63b8ff" points="304.64,-220.08 315.23,-219.99 306.9,-213.45 304.64,-220.08"/>
</a>
</g>
</g>
<!-- Node4&#45;&gt;Node7 -->
<g id="edge8_Node000004_Node000007" class="edge">
<title>Node4&#45;&gt;Node7</title>
<g id="a_edge8_Node000004_Node000007"><a xlink:title=" ">
<path fill="none" stroke="#63b8ff" d="M416.59,-214.98C438.22,-202.97 463.51,-188.92 481.9,-178.7"/>
<polygon fill="#63b8ff" stroke="#63b8ff" points="414.62,-212.07 407.58,-219.99 418.02,-218.19 414.62,-212.07"/>
</a>
</g>
</g>
<!-- Node8 -->
<g id="Node000008" class="node">
<title>Node8</title>
<g id="a_Node000008"><a xlink:href="multiphase__operator_8cpp.html" target="_top" xlink:title=" ">
<polygon fill="white" stroke="#666666" points="406.46,-178.5 240.46,-178.5 240.46,-148.5 406.46,-148.5 406.46,-178.5"/>
<text text-anchor="start" x="248.46" y="-166.5" font-family="Helvetica,sans-Serif" font-size="10.00">source/compressible</text>
<text text-anchor="middle" x="323.46" y="-155.5" font-family="Helvetica,sans-Serif" font-size="10.00">_flow/multiphase_operator.cpp</text>
</a>
</g>
</g>
<!-- Node4&#45;&gt;Node8 -->
<g id="edge9_Node000004_Node000008" class="edge">
<title>Node4&#45;&gt;Node8</title>
<g id="a_edge9_Node000004_Node000008"><a xlink:title=" ">
<path fill="none" stroke="#63b8ff" d="M354.01,-211.26C346.8,-200.21 338.83,-188.02 332.84,-178.86"/>
<polygon fill="#63b8ff" stroke="#63b8ff" points="351.19,-213.34 359.59,-219.79 357.05,-209.51 351.19,-213.34"/>
</a>
</g>
</g>
<!-- Node5&#45;&gt;Node2 -->
<g id="edge5_Node000005_Node000002" class="edge">
<title>Node5&#45;&gt;Node2</title>
<g id="a_edge5_Node000005_Node000002"><a xlink:title=" ">
<path fill="none" stroke="#63b8ff" d="M127.74,-135.23C119.29,-125.91 110,-115.67 102.21,-107.07"/>
<polygon fill="#63b8ff" stroke="#63b8ff" points="125.29,-137.74 134.6,-142.79 130.47,-133.04 125.29,-137.74"/>
</a>
</g>
</g>
<!-- Node5&#45;&gt;Node3 -->
<g id="edge6_Node000005_Node000003" class="edge">
<title>Node5&#45;&gt;Node3</title>
<g id="a_edge6_Node000005_Node000003"><a xlink:title=" ">
<path fill="none" stroke="#63b8ff" d="M164.39,-133.14C170.58,-113.06 174.73,-86.47 163.46,-66 154.54,-49.79 137.9,-38.1 122.18,-30.12"/>
<polygon fill="#63b8ff" stroke="#63b8ff" points="161.05,-132.11 161.15,-142.7 167.68,-134.36 161.05,-132.11"/>
</a>
</g>
</g>
<!-- Node5&#45;&gt;Node6 -->
<g id="edge7_Node000005_Node000006" class="edge">
<title>Node5&#45;&gt;Node6</title>
<g id="a_edge7_Node000005_Node000006"><a xlink:title=" ">
<path fill="none" stroke="#63b8ff" d="M232.59,-142.2C283.44,-129.31 347.93,-112.97 393.13,-101.52"/>
<polygon fill="#63b8ff" stroke="#63b8ff" points="231.44,-138.88 222.61,-144.73 233.16,-145.66 231.44,-138.88"/>
</a>
</g>
</g>
</g>
</svg>
