<?xml version="1.0" encoding="UTF-8" standalone="no"?>
<!DOCTYPE svg PUBLIC "-//W3C//DTD SVG 1.1//EN"
 "http://www.w3.org/Graphics/SVG/1.1/DTD/svg11.dtd">
<!-- Generated by graphviz version 2.43.0 (0)
 -->
<!-- Title: include/meltpooldg/compressible_flow/viscous_kernels.hpp Pages: 1 -->
<!--zoomable 346 -->

<svg id="main" version="1.1" xmlns="http://www.w3.org/2000/svg" xmlns:xlink="http://www.w3.org/1999/xlink" xml:space="preserve" onload="init(evt)">
<style type="text/css"><![CDATA[
.node, .edge {opacity: 0.7;}
.node.selected, .edge.selected {opacity: 1;}
.edge:hover path { stroke: red; }
.edge:hover polygon { stroke: red; fill: red; }
]]></style>

<defs>
  <circle id="rim" cx="0" cy="0" r="7"/>
  <circle id="rim2" cx="0" cy="0" r="3.5"/>
  <g id="zoomPlus">
    <use xlink:href="#rim" fill="#404040"><set attributeName="fill" to="#808080" begin="zoomplus.mouseover" end="zoomplus.mouseout"/></use>
    <path d="M-4,0h8M0,-4v8" fill="none" stroke="white" stroke-width="1.5" pointer-events="none"/>
  </g>
  <g id="zoomMin">
    <use xlink:href="#rim" fill="#404040"><set attributeName="fill" to="#808080" begin="zoomminus.mouseover" end="zoomminus.mouseout"/></use>
    <path d="M-4,0h8" fill="none" stroke="white" stroke-width="1.5" pointer-events="none"/>
  </g>
  <g id="arrowUp" transform="translate(30 24)">
    <use xlink:href="#rim"/>
    <path pointer-events="none" fill="none" stroke="white" stroke-width="1.5" d="M0,-3.0v7 M-2.5,-0.5L0,-3.0L2.5,-0.5"/>
  </g>
  <g id="arrowRight" transform="rotate(90) translate(36 -43)">
    <use xlink:href="#rim"/>
    <path pointer-events="none" fill="none" stroke="white" stroke-width="1.5" d="M0,-3.0v7 M-2.5,-0.5L0,-3.0L2.5,-0.5"/>
  </g>
  <g id="arrowDown" transform="rotate(180) translate(-30 -48)">
    <use xlink:href="#rim"/>
    <path pointer-events="none" fill="none" stroke="white" stroke-width="1.5" d="M0,-3.0v7 M-2.5,-0.5L0,-3.0L2.5,-0.5"/>
  </g>
  <g id="arrowLeft" transform="rotate(270) translate(-36 17)">
    <use xlink:href="#rim"/>
    <path pointer-events="none" fill="none" stroke="white" stroke-width="1.5" d="M0,-3.0v7 M-2.5,-0.5L0,-3.0L2.5,-0.5"/>
  </g>
  <g id="resetDef">
    <use xlink:href="#rim2" fill="#404040"><set attributeName="fill" to="#808080" begin="reset.mouseover" end="reset.mouseout"/></use>
  </g>
</defs>
<script type="application/ecmascript">
var viewWidth = 1012;
var viewHeight = 346;
var sectionId = 'dynsection-1';
</script>
<script type="application/ecmascript" xlink:href="svg.min.js"/>
<svg id="graph" class="graph">
<g id="viewport">
<title>include/meltpooldg/compressible_flow/viscous_kernels.hpp</title>
<!-- Node1 -->
<g id="Node000001" class="node">
<title>Node1</title>
<g id="a_Node000001"><a xlink:title=" ">
<polygon fill="#999999" stroke="#666666" points="483,-338 333,-338 333,-297 483,-297 483,-338"/>
<text text-anchor="start" x="341" y="-326" font-family="Helvetica,sans-Serif" font-size="10.00">include/meltpooldg</text>
<text text-anchor="start" x="341" y="-315" font-family="Helvetica,sans-Serif" font-size="10.00">/compressible_flow/viscous</text>
<text text-anchor="middle" x="408" y="-304" font-family="Helvetica,sans-Serif" font-size="10.00">_kernels.hpp</text>
</a>
</g>
</g>
<!-- Node2 -->
<g id="Node000002" class="node">
<title>Node2</title>
<g id="a_Node000002"><a xlink:href="dg__operator__explicit_8hpp.html" target="_top" xlink:title=" ">
<polygon fill="white" stroke="#666666" points="542.5,-261 417.5,-261 417.5,-220 542.5,-220 542.5,-261"/>
<text text-anchor="start" x="425.5" y="-249" font-family="Helvetica,sans-Serif" font-size="10.00">include/meltpooldg</text>
<text text-anchor="start" x="425.5" y="-238" font-family="Helvetica,sans-Serif" font-size="10.00">/compressible_flow/dg</text>
<text text-anchor="middle" x="480" y="-227" font-family="Helvetica,sans-Serif" font-size="10.00">_operator_explicit.hpp</text>
</a>
</g>
</g>
<!-- Node1&#45;&gt;Node2 -->
<g id="edge1_Node000001_Node000002" class="edge">
<title>Node1&#45;&gt;Node2</title>
<g id="a_edge1_Node000001_Node000002"><a xlink:title=" ">
<path fill="none" stroke="#63b8ff" d="M433.91,-289.51C442.93,-280.11 452.87,-269.76 461.21,-261.07"/>
<polygon fill="#63b8ff" stroke="#63b8ff" points="431.32,-287.16 426.92,-296.79 436.37,-292 431.32,-287.16"/>
</a>
</g>
</g>
<!-- Node5 -->
<g id="Node000005" class="node">
<title>Node5</title>
<g id="a_Node000005"><a xlink:href="dg__operator__implicit_8hpp.html" target="_top" xlink:title=" ">
<polygon fill="white" stroke="#666666" points="399,-261 273,-261 273,-220 399,-220 399,-261"/>
<text text-anchor="start" x="281" y="-249" font-family="Helvetica,sans-Serif" font-size="10.00">include/meltpooldg</text>
<text text-anchor="start" x="281" y="-238" font-family="Helvetica,sans-Serif" font-size="10.00">/compressible_flow/dg</text>
<text text-anchor="middle" x="336" y="-227" font-family="Helvetica,sans-Serif" font-size="10.00">_operator_implicit.hpp</text>
</a>
</g>
</g>
<!-- Node1&#45;&gt;Node5 -->
<g id="edge4_Node000001_Node000005" class="edge">
<title>Node1&#45;&gt;Node5</title>
<g id="a_edge4_Node000001_Node000005"><a xlink:title=" ">
<path fill="none" stroke="#63b8ff" d="M382.09,-289.51C373.07,-280.11 363.13,-269.76 354.79,-261.07"/>
<polygon fill="#63b8ff" stroke="#63b8ff" points="379.63,-292 389.08,-296.79 384.68,-287.16 379.63,-292"/>
</a>
</g>
</g>
<!-- Node7 -->
<g id="Node000007" class="node">
<title>Node7</title>
<g id="a_Node000007"><a xlink:href="dg__operator__implicit__explicit_8hpp.html" target="_top" xlink:title=" ">
<polygon fill="white" stroke="#666666" points="254.5,-261 87.5,-261 87.5,-220 254.5,-220 254.5,-261"/>
<text text-anchor="start" x="95.5" y="-249" font-family="Helvetica,sans-Serif" font-size="10.00">include/meltpooldg</text>
<text text-anchor="start" x="95.5" y="-238" font-family="Helvetica,sans-Serif" font-size="10.00">/compressible_flow/dg</text>
<text text-anchor="middle" x="171" y="-227" font-family="Helvetica,sans-Serif" font-size="10.00">_operator_implicit_explicit.hpp</text>
</a>
</g>
</g>
<!-- Node1&#45;&gt;Node7 -->
<g id="edge7_Node000001_Node000007" class="edge">
<title>Node1&#45;&gt;Node7</title>
<g id="a_edge7_Node000001_Node000007"><a xlink:title=" ">
<path fill="none" stroke="#63b8ff" d="M336.73,-293.94C303.61,-283.46 264.6,-271.12 232.75,-261.04"/>
<polygon fill="#63b8ff" stroke="#63b8ff" points="335.76,-297.31 346.35,-296.99 337.87,-290.64 335.76,-297.31"/>
</a>
</g>
</g>
<!-- Node9 -->
<g id="Node000009" class="node">
<title>Node9</title>
<g id="a_Node000009"><a xlink:href="explicit__time__integration__utils_8hpp.html" target="_top" xlink:title=" ">
<polygon fill="white" stroke="#666666" points="711,-261 561,-261 561,-220 711,-220 711,-261"/>
<text text-anchor="start" x="569" y="-249" font-family="Helvetica,sans-Serif" font-size="10.00">include/meltpooldg</text>
<text text-anchor="start" x="569" y="-238" font-family="Helvetica,sans-Serif" font-size="10.00">/compressible_flow/explicit</text>
<text text-anchor="middle" x="636" y="-227" font-family="Helvetica,sans-Serif" font-size="10.00">_time_integration_utils.hpp</text>
</a>
</g>
</g>
<!-- Node1&#45;&gt;Node9 -->
<g id="edge10_Node000001_Node000009" class="edge">
<title>Node1&#45;&gt;Node9</title>
<g id="a_edge10_Node000001_Node000009"><a xlink:title=" ">
<path fill="none" stroke="#63b8ff" d="M476.98,-293.81C508.75,-283.36 546.09,-271.08 576.59,-261.04"/>
<polygon fill="#63b8ff" stroke="#63b8ff" points="475.71,-290.54 467.31,-296.99 477.9,-297.19 475.71,-290.54"/>
</a>
</g>
</g>
<!-- Node3 -->
<g id="Node000003" class="node">
<title>Node3</title>
<g id="a_Node000003"><a xlink:href="dg__operation_8cpp.html" target="_top" xlink:title=" ">
<polygon fill="white" stroke="#666666" points="293.5,-178.5 164.5,-178.5 164.5,-148.5 293.5,-148.5 293.5,-178.5"/>
<text text-anchor="start" x="172.5" y="-166.5" font-family="Helvetica,sans-Serif" font-size="10.00">source/compressible</text>
<text text-anchor="middle" x="229" y="-155.5" font-family="Helvetica,sans-Serif" font-size="10.00">_flow/dg_operation.cpp</text>
</a>
</g>
</g>
<!-- Node2&#45;&gt;Node3 -->
<g id="edge2_Node000002_Node000003" class="edge">
<title>Node2&#45;&gt;Node3</title>
<g id="a_edge2_Node000002_Node000003"><a xlink:title=" ">
<path fill="none" stroke="#63b8ff" d="M407.6,-217.87C365.22,-205.2 312.94,-189.58 275.92,-178.52"/>
<polygon fill="#63b8ff" stroke="#63b8ff" points="406.73,-221.26 417.31,-220.77 408.73,-214.55 406.73,-221.26"/>
</a>
</g>
</g>
<!-- Node4 -->
<g id="Node000004" class="node">
<title>Node4</title>
<g id="a_Node000004"><a xlink:href="dg__operator__explicit_8cpp.html" target="_top" xlink:title=" ">
<polygon fill="white" stroke="#666666" points="661.5,-178.5 496.5,-178.5 496.5,-148.5 661.5,-148.5 661.5,-178.5"/>
<text text-anchor="start" x="504.5" y="-166.5" font-family="Helvetica,sans-Serif" font-size="10.00">source/compressible</text>
<text text-anchor="middle" x="579" y="-155.5" font-family="Helvetica,sans-Serif" font-size="10.00">_flow/dg_operator_explicit.cpp</text>
</a>
</g>
</g>
<!-- Node2&#45;&gt;Node4 -->
<g id="edge3_Node000002_Node000004" class="edge">
<title>Node2&#45;&gt;Node4</title>
<g id="a_edge3_Node000002_Node000004"><a xlink:title=" ">
<path fill="none" stroke="#63b8ff" d="M514.07,-213.69C529.54,-201.97 547.25,-188.56 560.26,-178.7"/>
<polygon fill="#63b8ff" stroke="#63b8ff" points="511.61,-211.16 505.75,-219.99 515.84,-216.74 511.61,-211.16"/>
</a>
</g>
</g>
<!-- Node5&#45;&gt;Node3 -->
<g id="edge5_Node000005_Node000003" class="edge">
<title>Node5&#45;&gt;Node3</title>
<g id="a_edge5_Node000005_Node000003"><a xlink:title=" ">
<path fill="none" stroke="#63b8ff" d="M299.64,-214.01C282.81,-202.22 263.45,-188.65 249.26,-178.7"/>
<polygon fill="#63b8ff" stroke="#63b8ff" points="297.97,-217.12 308.17,-219.99 301.99,-211.38 297.97,-217.12"/>
</a>
</g>
</g>
<!-- Node6 -->
<g id="Node000006" class="node">
<title>Node6</title>
<g id="a_Node000006"><a xlink:href="dg__operator__implicit_8cpp.html" target="_top" xlink:title=" ">
<polygon fill="white" stroke="#666666" points="478,-178.5 312,-178.5 312,-148.5 478,-148.5 478,-178.5"/>
<text text-anchor="start" x="320" y="-166.5" font-family="Helvetica,sans-Serif" font-size="10.00">source/compressible</text>
<text text-anchor="middle" x="395" y="-155.5" font-family="Helvetica,sans-Serif" font-size="10.00">_flow/dg_operator_implicit.cpp</text>
</a>
</g>
</g>
<!-- Node5&#45;&gt;Node6 -->
<g id="edge6_Node000005_Node000006" class="edge">
<title>Node5&#45;&gt;Node6</title>
<g id="a_edge6_Node000005_Node000006"><a xlink:title=" ">
<path fill="none" stroke="#63b8ff" d="M357.7,-211.92C366.52,-200.7 376.35,-188.21 383.7,-178.86"/>
<polygon fill="#63b8ff" stroke="#63b8ff" points="354.93,-209.77 351.5,-219.79 360.44,-214.1 354.93,-209.77"/>
</a>
</g>
</g>
<!-- Node7&#45;&gt;Node3 -->
<g id="edge8_Node000007_Node000003" class="edge">
<title>Node7&#45;&gt;Node3</title>
<g id="a_edge8_Node000007_Node000003"><a xlink:title=" ">
<path fill="none" stroke="#63b8ff" d="M192.58,-211.59C201.19,-200.46 210.74,-188.12 217.89,-178.86"/>
<polygon fill="#63b8ff" stroke="#63b8ff" points="189.59,-209.74 186.24,-219.79 195.13,-214.03 189.59,-209.74"/>
</a>
</g>
</g>
<!-- Node8 -->
<g id="Node000008" class="node">
<title>Node8</title>
<g id="a_Node000008"><a xlink:href="dg__operator__implicit__explicit_8cpp.html" target="_top" xlink:title=" ">
<polygon fill="white" stroke="#666666" points="146,-184 0,-184 0,-143 146,-143 146,-184"/>
<text text-anchor="start" x="8" y="-172" font-family="Helvetica,sans-Serif" font-size="10.00">source/compressible</text>
<text text-anchor="start" x="8" y="-161" font-family="Helvetica,sans-Serif" font-size="10.00">_flow/dg_operator_implicit</text>
<text text-anchor="middle" x="73" y="-150" font-family="Helvetica,sans-Serif" font-size="10.00">_explicit.cpp</text>
</a>
</g>
</g>
<!-- Node7&#45;&gt;Node8 -->
<g id="edge9_Node000007_Node000008" class="edge">
<title>Node7&#45;&gt;Node8</title>
<g id="a_edge9_Node000007_Node000008"><a xlink:title=" ">
<path fill="none" stroke="#63b8ff" d="M137.44,-213.82C124.76,-204.11 110.55,-193.24 98.71,-184.17"/>
<polygon fill="#63b8ff" stroke="#63b8ff" points="135.44,-216.69 145.51,-219.99 139.69,-211.13 135.44,-216.69"/>
</a>
</g>
</g>
<!-- Node9&#45;&gt;Node4 -->
<g id="edge16_Node000009_Node000004" class="edge">
<title>Node9&#45;&gt;Node4</title>
<g id="a_edge16_Node000009_Node000004"><a xlink:title=" ">
<path fill="none" stroke="#63b8ff" d="M614.79,-211.59C606.33,-200.46 596.95,-188.12 589.91,-178.86"/>
<polygon fill="#63b8ff" stroke="#63b8ff" points="612.19,-213.95 621.02,-219.79 617.76,-209.72 612.19,-213.95"/>
</a>
</g>
</g>
<!-- Node9&#45;&gt;Node6 -->
<g id="edge17_Node000009_Node000006" class="edge">
<title>Node9&#45;&gt;Node6</title>
<g id="a_edge17_Node000009_Node000006"><a xlink:title=" ">
<path fill="none" stroke="#63b8ff" d="M563.58,-216.96C523.51,-204.49 474.94,-189.38 440.25,-178.58"/>
<polygon fill="#63b8ff" stroke="#63b8ff" points="562.72,-220.36 573.31,-219.99 564.8,-213.68 562.72,-220.36"/>
</a>
</g>
</g>
<!-- Node10 -->
<g id="Node000010" class="node">
<title>Node10</title>
<g id="a_Node000010"><a xlink:href="cutdg__operator_8hpp.html" target="_top" xlink:title=" ">
<polygon fill="white" stroke="#666666" points="820,-184 680,-184 680,-143 820,-143 820,-184"/>
<text text-anchor="start" x="688" y="-172" font-family="Helvetica,sans-Serif" font-size="10.00">include/meltpooldg</text>
<text text-anchor="start" x="688" y="-161" font-family="Helvetica,sans-Serif" font-size="10.00">/compressible_flow/cutdg</text>
<text text-anchor="middle" x="750" y="-150" font-family="Helvetica,sans-Serif" font-size="10.00">_operator.hpp</text>
</a>
</g>
</g>
<!-- Node9&#45;&gt;Node10 -->
<g id="edge11_Node000009_Node000010" class="edge">
<title>Node9&#45;&gt;Node10</title>
<g id="a_edge11_Node000009_Node000010"><a xlink:title=" ">
<path fill="none" stroke="#63b8ff" d="M674.2,-214.37C689.16,-204.53 706.06,-193.41 720.1,-184.17"/>
<polygon fill="#63b8ff" stroke="#63b8ff" points="672.09,-211.57 665.65,-219.99 675.93,-217.42 672.09,-211.57"/>
</a>
</g>
</g>
<!-- Node14 -->
<g id="Node000014" class="node">
<title>Node14</title>
<g id="a_Node000014"><a xlink:href="multiphase__operator_8cpp.html" target="_top" xlink:title=" ">
<polygon fill="white" stroke="#666666" points="1004,-178.5 838,-178.5 838,-148.5 1004,-148.5 1004,-178.5"/>
<text text-anchor="start" x="846" y="-166.5" font-family="Helvetica,sans-Serif" font-size="10.00">source/compressible</text>
<text text-anchor="middle" x="921" y="-155.5" font-family="Helvetica,sans-Serif" font-size="10.00">_flow/multiphase_operator.cpp</text>
</a>
</g>
</g>
<!-- Node9&#45;&gt;Node14 -->
<g id="edge18_Node000009_Node000014" class="edge">
<title>Node9&#45;&gt;Node14</title>
<g id="a_edge18_Node000009_Node000014"><a xlink:title=" ">
<path fill="none" stroke="#63b8ff" d="M719.84,-217.44C767.57,-204.88 825.94,-189.52 867.49,-178.58"/>
<polygon fill="#63b8ff" stroke="#63b8ff" points="718.92,-214.06 710.14,-219.99 720.7,-220.83 718.92,-214.06"/>
</a>
</g>
</g>
<!-- Node11 -->
<g id="Node000011" class="node">
<title>Node11</title>
<g id="a_Node000011"><a xlink:href="cutdg__operation_8hpp.html" target="_top" xlink:title=" ">
<polygon fill="white" stroke="#666666" points="722,-107 582,-107 582,-66 722,-66 722,-107"/>
<text text-anchor="start" x="590" y="-95" font-family="Helvetica,sans-Serif" font-size="10.00">include/meltpooldg</text>
<text text-anchor="start" x="590" y="-84" font-family="Helvetica,sans-Serif" font-size="10.00">/compressible_flow/cutdg</text>
<text text-anchor="middle" x="652" y="-73" font-family="Helvetica,sans-Serif" font-size="10.00">_operation.hpp</text>
</a>
</g>
</g>
<!-- Node10&#45;&gt;Node11 -->
<g id="edge12_Node000010_Node000011" class="edge">
<title>Node10&#45;&gt;Node11</title>
<g id="a_edge12_Node000010_Node000011"><a xlink:title=" ">
<path fill="none" stroke="#63b8ff" d="M716.44,-136.82C703.76,-127.11 689.55,-116.24 677.71,-107.17"/>
<polygon fill="#63b8ff" stroke="#63b8ff" points="714.44,-139.69 724.51,-142.99 718.69,-134.13 714.44,-139.69"/>
</a>
</g>
</g>
<!-- Node12 -->
<g id="Node000012" class="node">
<title>Node12</title>
<g id="a_Node000012"><a xlink:href="cutdg__operation_8cpp.html" target="_top" xlink:title=" ">
<polygon fill="white" stroke="#666666" points="773,-30 629,-30 629,0 773,0 773,-30"/>
<text text-anchor="start" x="637" y="-18" font-family="Helvetica,sans-Serif" font-size="10.00">source/compressible</text>
<text text-anchor="middle" x="701" y="-7" font-family="Helvetica,sans-Serif" font-size="10.00">_flow/cutdg_operation.cpp</text>
</a>
</g>
</g>
<!-- Node10&#45;&gt;Node12 -->
<g id="edge14_Node000010_Node000012" class="edge">
<title>Node10&#45;&gt;Node12</title>
<g id="a_edge14_Node000010_Node000012"><a xlink:title=" ">
<path fill="none" stroke="#63b8ff" d="M746.83,-132.62C744.11,-113.17 739.28,-87.51 731,-66 726.05,-53.15 717.9,-39.84 711.34,-30.19"/>
<polygon fill="#63b8ff" stroke="#63b8ff" points="743.38,-133.25 748.13,-142.72 750.32,-132.36 743.38,-133.25"/>
</a>
</g>
</g>
<!-- Node13 -->
<g id="Node000013" class="node">
<title>Node13</title>
<g id="a_Node000013"><a xlink:href="cutdg__operator_8cpp.html" target="_top" xlink:title=" ">
<polygon fill="white" stroke="#666666" points="916,-101.5 778,-101.5 778,-71.5 916,-71.5 916,-101.5"/>
<text text-anchor="start" x="786" y="-89.5" font-family="Helvetica,sans-Serif" font-size="10.00">source/compressible</text>
<text text-anchor="middle" x="847" y="-78.5" font-family="Helvetica,sans-Serif" font-size="10.00">_flow/cutdg_operator.cpp</text>
</a>
</g>
</g>
<!-- Node10&#45;&gt;Node13 -->
<g id="edge15_Node000010_Node000013" class="edge">
<title>Node10&#45;&gt;Node13</title>
<g id="a_edge15_Node000010_Node000013"><a xlink:title=" ">
<path fill="none" stroke="#63b8ff" d="M783.38,-136.69C798.54,-124.97 815.89,-111.56 828.63,-101.7"/>
<polygon fill="#63b8ff" stroke="#63b8ff" points="781,-134.1 775.23,-142.99 785.28,-139.64 781,-134.1"/>
</a>
</g>
</g>
<!-- Node11&#45;&gt;Node12 -->
<g id="edge13_Node000011_Node000012" class="edge">
<title>Node11&#45;&gt;Node12</title>
<g id="a_edge13_Node000011_Node000012"><a xlink:title=" ">
<path fill="none" stroke="#63b8ff" d="M671.81,-57.4C678.45,-47.99 685.56,-37.9 691.1,-30.04"/>
<polygon fill="#63b8ff" stroke="#63b8ff" points="668.81,-55.58 665.91,-65.77 674.53,-59.61 668.81,-55.58"/>
</a>
</g>
</g>
</g>
</svg>

<g id="navigator" transform="translate(0 0)" fill="#404254">
  <rect fill="#f2f5e9" fill-opacity="0.5" stroke="#606060" stroke-width=".5" x="0" y="0" width="60" height="60"/>
  <use id="zoomplus" xlink:href="#zoomPlus" x="17" y="9" onmousedown="handleZoom(evt,'in')"/>
  <use id="zoomminus" xlink:href="#zoomMin" x="42" y="9" onmousedown="handleZoom(evt,'out')"/>
  <use id="reset" xlink:href="#resetDef" x="30" y="36" onmousedown="handleReset()"/>
   <use id="arrowup" xlink:href="#arrowUp" x="0" y="0" onmousedown="handlePan(0,-1)"/>
  <use id="arrowright" xlink:href="#arrowRight" x="0" y="0" onmousedown="handlePan(1,0)"/>
  <use id="arrowdown" xlink:href="#arrowDown" x="0" y="0" onmousedown="handlePan(0,1)"/>
  <use id="arrowleft" xlink:href="#arrowLeft" x="0" y="0" onmousedown="handlePan(-1,0)"/>
</g>
<svg viewBox="0 0 15 15" width="100%" height="30px" preserveAspectRatio="xMaxYMin meet">
 <g id="arrow_out" transform="scale(0.3 0.3)">
  <a xlink:href="viscous__kernels_8hpp__dep__incl_org.svg" target="_base">
   <rect id="button" ry="5" rx="5" y="6" x="6" height="38" width="38"
        fill="#f2f5e9" fill-opacity="0.5" stroke="#606060" stroke-width="1.0"/>
   <path id="arrow"
     d="M 11.500037,31.436501 C 11.940474,20.09759 22.043105,11.32322 32.158766,21.979434 L 37.068811,17.246167 C 37.068811,17.246167 37.088388,32 37.088388,32 L 22.160133,31.978069 C 22.160133,31.978069 26.997745,27.140456 26.997745,27.140456 C 18.528582,18.264221 13.291696,25.230495 11.500037,31.436501 z"
     style="fill:#404040;"/>
  </a>
 </g>
</svg>

<style type='text/css'>
<![CDATA[
[data-mouse-over-selected='false'] { opacity: 0.7; }
[data-mouse-over-selected='true']  { opacity: 1.0; }
]]>
</style>
<script type="application/ecmascript"><![CDATA[
document.addEventListener('DOMContentLoaded', (event) => {
  highlightEdges();
  highlightAdjacentNodes();
});
]]></script>
</svg>
